<svg xmlns="http://www.w3.org/2000/svg" xmlns:xlink="http://www.w3.org/1999/xlink" preserveAspectRatio="xMidYMid meet" height="100%" viewBox="-770 -316 1600 1006">
    <polygon vector-effect="non-scaling-stroke" fill="none" style="stroke: #374151; stroke-width:6" points=" -175,-97 -173,-93 -170,-88 -168,-83 -166,-79 -164,-74 -161,-69 -159,-64 -156,-59 -154,-55 -152,-50 -149,-45 -147,-40 -145,-35 -142,-30 -140,-25 -137,-20 -134,-14 -132,-9 -129,-4 -127,2 -124,7 -121,12 -119,18 -116,23 -113,29 -110,34 -108,40 -105,46 -102,51 -99,57 -97,63 -94,68 -91,74 -88,80 -85,86 -83,92 -80,97 -77,103 -74,109 -71,115 -68,121 -65,127 -62,133 -59,139 -57,144 -54,150 -52,155 -50,159 -47,163 -45,168 -43,172 -41,176 -39,180 -37,184 -35,187 -34,191 -32,194 -30,197 -29,200 -27,203 -26,206 -24,208 -23,211 -22,214 -20,216 -19,219 -18,221 -16,224 -15,226 -14,228 -13,231 -11,233 -10,235 -9,237 -7,240 -6,242 -4,244 -2,246 -1,247 1,249 3,251 5,252 7,253 10,254 12,255 14,256 16,257 19,258 21,258 24,259 26,259 29,259 31,259 34,258 36,258 39,258 41,257 44,256 47,255 49,254 52,253 54,252 57,251 59,249 62,248 65,246 67,245 70,243 73,242 76,240 78,238 81,236 84,235 87,233 90,231 93,229 97,227 100,225 103,223 106,221 109,219 113,217 116,215 120,212 123,210 126,208 130,206 134,203 137,201 141,199 144,197 148,194 152,192 156,189 159,187 163,185 166,183 170,181 173,179 176,177 178,175 181,173 183,172 186,170 188,168 191,167 193,165 196,163 198,162 200,160 203,158 205,156 207,154 209,152 211,150 213,148 215,146 217,144 218,141 220,139 221,136 223,133 224,131 225,127 226,125 227,122 228,119 229,116 229,113 230,110 230,106 230,103 230,100 230,96 230,93 230,90 230,86 230,83 230,79 230,76 230,72 230,68 230,65 230,61 230,57 230,54 229,50 229,46 230,42 230,39 230,35 230,31 230,27 230,24 230,20 231,16 231,12 232,8 232,4 233,1 234,-3 235,-7 236,-11 237,-15 239,-18 240,-22 242,-26 244,-29 246,-33 248,-37 250,-40 252,-43 255,-47 258,-50 260,-53 263,-56 266,-59 269,-62 273,-65 276,-68 279,-70 283,-73 287,-75 290,-78 294,-80 298,-82 302,-84 306,-86 310,-87 315,-89 319,-90 323,-91 328,-92 332,-93 337,-94 341,-95 346,-95 350,-96 355,-96 360,-96 364,-97 369,-97 374,-97 378,-97 383,-97 388,-97 393,-97 398,-98 402,-98 407,-98 412,-98 417,-99 421,-99 426,-100 431,-100 436,-101 441,-102 446,-103 450,-104 455,-105 460,-106 465,-107 470,-108 475,-109 480,-111 485,-112 490,-114 494,-115 499,-117 504,-119 509,-121 514,-122 519,-124 523,-126 528,-128 533,-130 538,-132 543,-135 547,-137 552,-139 557,-141 562,-143 567,-146 572,-148 576,-150 581,-152 586,-155 591,-157 596,-159 601,-162  601,-162 606,-164 611,-166 616,-169 621,-171 626,-173 631,-176 635,-178 640,-180 645,-183 650,-185 655,-187 660,-190 665,-192 671,-195 676,-197 681,-199 686,-202 691,-204 695,-206 700,-208 704,-210 708,-212 712,-214 715,-216 719,-218 723,-219 726,-221 729,-223 732,-224 736,-225 739,-227 741,-228 745,-230 747,-231 750,-232 752,-234 755,-235 758,-237 760,-238 762,-239 765,-241 767,-242 769,-243 771,-245 773,-246 775,-248 777,-249 779,-251 780,-252 782,-254 784,-256 785,-258 787,-259 788,-261 789,-263 790,-265 791,-267 791,-269 792,-271 792,-274 792,-276 793,-278 793,-280 793,-282 792,-285 792,-287 792,-289 791,-291 790,-293 789,-295 788,-297 787,-299 786,-301 784,-303 782,-304 780,-306 778,-308 776,-309 774,-310 772,-311 770,-312 768,-313 766,-313 763,-314 761,-314 759,-315 756,-315 754,-315 751,-315 749,-315 746,-316 743,-316 740,-316 738,-316 735,-316 732,-316 729,-316 726,-316 723,-316 720,-315 716,-315 713,-315 710,-315 706,-315 703,-314 700,-314 696,-314 692,-313 689,-313 685,-313 681,-312 677,-312 674,-311 670,-311 666,-311 661,-310 657,-310 653,-310 649,-310 644,-309 640,-309 635,-309 631,-309 626,-309 621,-309 617,-309 612,-309 606,-309 601,-308 596,-308 591,-308 585,-308 579,-308 574,-308 568,-308 562,-308 556,-308 550,-308 544,-308 538,-308 531,-308 525,-308 518,-308 511,-308 504,-308 497,-308 490,-308 483,-308 476,-308 469,-308 462,-308 454,-308 447,-308 439,-308 431,-308 424,-308 416,-308 408,-308 400,-308 393,-308 385,-308 377,-308 369,-308 360,-308 352,-308 344,-308 336,-308 327,-308 319,-308 311,-308 302,-308 294,-308 285,-308 277,-308 268,-308 260,-308 251,-308 242,-308 234,-308 225,-308 216,-308 208,-308 200,-308 191,-308 182,-308 173,-308 164,-308 155,-308 146,-308 137,-308 128,-308 119,-308 110,-308 101,-308 92,-308 82,-308 73,-308 64,-308 55,-308 46,-308 37,-308 28,-308 19,-308 11,-308 2,-308 -7,-308 -15,-308 -23,-308 -32,-307 -39,-307 -48,-307 -56,-306 -65,-306 -72,-305 -80,-305 -88,-304 -96,-304 -104,-303 -112,-303 -119,-302 -127,-302 -134,-302 -142,-302 -149,-302 -156,-302 -163,-302 -170,-302 -177,-302 -184,-302 -191,-302 -197,-302 -204,-301 -210,-301 -217,-301 -223,-301 -229,-301 -235,-301 -241,-301 -246,-301 -251,-301 -257,-301 -262,-301 -267,-301 -272,-301 -277,-301 -282,-301 -286,-301 -291,-302 -296,-302 -300,-302 -304,-302 -308,-302 -312,-302 -316,-302 -320,-302 -324,-302 -328,-302 -331,-302 -335,-302 -338,-302 -341,-302 -344,-302 -347,-302 -350,-302 -353,-302 -356,-302 -359,-302 -361,-302 -364,-302 -366,-302 -368,-302 -370,-302 -374,-301 -377,-301 -381,-301 -384,-300 -387,-298 -389,-297 -392,-294 -393,-293 -394,-290 -395,-287 -395,-284 -395,-281 -394,-278 -393,-275 -391,-272 -390,-269 -388,-266 -386,-263 -384,-260 -382,-256 -381,-253 -380,-249 -379,-246 -379,-242 -379,-240 -379,-238 -379,-236 -380,-234 -381,-233 -381,-231 -382,-230 -383,-228 -385,-226 -388,-224 -391,-221 -393,-220 -394,-219 -396,-218 -398,-217 -400,-215 -402,-214 -404,-213 -406,-211 -408,-210 -410,-209 -412,-207 -415,-206 -417,-205 -419,-203 -421,-202 -424,-200 -426,-199 -429,-197 -431,-195 -434,-194 -436,-192 -439,-190 -442,-189 -444,-187 -447,-185 -450,-183 -452,-181 -455,-179 -458,-177 -461,-175 -464,-173 -466,-170 -469,-168 -472,-166 -475,-163 -478,-161 -481,-158 -484,-156 -487,-153 -490,-150 -493,-147 -496,-144 -499,-141 -502,-138 -505,-135 -508,-132 -511,-128 -514,-125 -516,-121 -519,-118 -522,-114 -525,-110 -528,-107 -531,-103 -533,-99 -536,-95 -539,-90 -541,-86 -544,-82 -547,-77 -549,-73 -552,-68 -555,-64 -557,-59 -560,-54 -562,-49 -564,-44 -567,-39 -569,-34 -571,-29 -574,-24 -576,-19 -578,-13 -580,-8 -582,-3 -584,3 -586,8 -588,13 -590,19 -592,25 -594,30 -596,36 -598,42 -600,48 -602,53 -604,59 -606,65 -608,71 -610,77 -612,83 -614,89 -617,95 -619,101 -621,107 -623,113 -625,119 -627,125 -629,131 -632,137 -634,143 -636,149 -638,156 -640,162 -642,168 -645,174 -647,181 -649,187 -651,193 -653,200 -656,206 -658,212 -660,219 -662,225 -664,232 -666,238 -669,245 -671,251 -673,258 -675,265 -677,271 -679,278 -680,285 -682,292 -684,298 -685,305 -687,312 -688,319 -690,326 -691,333 -693,340 -694,347 -695,354 -696,361 -697,367 -698,374 -699,382 -700,389 -701,396 -702,403 -703,410 -704,417 -705,425 -706,431 -707,438 -708,444 -708,450 -709,456 -710,462 -710,468 -711,473  -711,473 -712,479 -712,484 -713,489 -713,494 -714,499 -714,504 -715,508 -715,513 -716,517 -716,521 -716,525 -717,529 -717,532 -717,536 -718,539 -718,543 -718,546 -719,550 -719,553 -719,556 -719,559 -720,563 -720,566 -720,569 -720,572 -720,575 -720,578 -720,581 -720,583 -719,586 -719,589 -718,592 -718,595 -717,597 -716,600 -714,603 -713,605 -712,608 -710,610 -708,613 -707,615 -705,617 -703,619 -701,621 -699,623 -696,625 -694,627 -691,629 -689,630 -686,632 -684,633 -681,634 -678,636 -675,637 -672,637 -669,638 -666,639 -663,639 -660,640 -657,640 -654,640 -650,640 -647,640 -644,639 -641,639 -638,638 -634,638 -631,637 -628,636 -625,635 -622,634 -619,632 -616,631 -613,629 -610,628 -607,626 -604,624 -602,622 -599,620 -597,618 -594,615 -592,613 -589,610 -587,608 -585,605 -583,602 -581,599 -580,596 -578,593 -576,590 -575,586 -574,583 -573,580 -572,576 -571,573 -570,569 -570,565 -570,562 -569,558 -569,554 -569,551 -570,547 -570,543 -571,540 -571,536 -572,532 -573,528 -574,525 -574,521 -575,518 -576,514 -577,509 -578,506 -579,502 -580,498 -582,493 -583,489 -584,485 -585,481 -586,477 -587,472 -588,469 -589,464 -590,459 -592,455 -593,450 -594,446 -595,441 -596,436 -598,431 -599,427 -600,422 -601,418 -603,413 -604,408 -605,403 -606,398 -608,394 -609,389 -610,384 -611,379 -612,374 -613,369 -614,364 -615,359 -616,353 -617,348 -617,343 -618,338 -618,332 -618,327 -618,322 -617,316 -617,311 -616,306 -615,300 -614,295 -613,290 -612,284 -611,279 -610,274 -609,270 -608,265 -607,261 -606,256 -605,252 -604,248 -603,244 -601,241 -600,237 -599,234 -598,230 -596,227 -595,223 -594,220 -592,217 -590,214 -589,211 -587,208 -585,205 -583,202 -581,200 -578,197 -576,195 -574,193 -571,190 -568,188 -566,186 -563,184 -560,182 -557,180 -554,178 -552,176 -548,174 -545,172 -542,170 -539,168 -536,166 -533,164 -530,162 -527,160 -524,159 -521,157 -519,155 -516,154 -514,152 -511,151 -509,150 -507,149 -505,147 -503,146 -501,145 -499,144 -497,143 -495,143 -493,142 -491,141 -487,140 -484,140 -482,140 -480,140 -479,140 -477,141 -475,141 -473,142 -472,143 -470,144 -469,145 -467,146 -466,148 -464,149 -463,151 -462,153 -461,155 -460,156 -459,158 -457,160 -456,162 -455,165 -454,167 -453,169 -451,172 -450,174 -449,176 -448,179 -446,182 -445,184 -444,187 -442,189 -441,191 -440,194 -439,196 -438,198 -437,200 -436,202 -435,204 -433,206 -432,207 -431,209 -430,211 -429,212 -427,215 -426,216 -424,218 -422,219 -421,220 -419,221 -417,222 -415,223 -413,224 -411,225 -409,226 -407,226 -405,227 -402,227 -400,227 -398,228 -395,228 -393,228 -391,227 -388,227 -386,227 -383,227 -380,226 -378,226 -375,225 -373,224 -370,224 -367,223 -364,222 -362,221 -359,220 -356,219 -353,218 -351,218 -349,217 -346,216 -344,215 -342,215 -340,214 -338,213 -336,212 -333,211 -331,211 -329,210 -327,209 -325,208 -323,207 -321,206 -320,204 -317,202 -315,199 -314,198 -313,196 -312,194 -311,192 -311,190 -310,188 -310,186 -309,183 -309,181 -309,179 -309,177 -309,174 -309,172 -309,169 -309,167 -309,164 -310,162 -310,159 -311,156 -311,153 -312,151 -312,148 -313,145 -314,142 -315,139 -316,136 -317,133 -318,130 -320,127 -321,124 -322,121 -324,117 -325,114 -327,111 -328,108 -330,104 -331,101 -333,98 -335,94 -336,91 -338,87 -340,83 -342,80 -344,76 -345,72 -347,69 -349,65 -351,61 -353,57 -355,53 -357,49 -359,45 -361,41 -363,37 -365,32 -367,28 -369,24 -372,20 -374,15 -376,11 -378,7 -380,3 -381,-0 -383,-4 -385,-8 -387,-11 -388,-14 -390,-17 -391,-21 -393,-24 -394,-27 -396,-30 -397,-33 -398,-36 -399,-39 -400,-42 -401,-45 -402,-48 -402,-51 -403,-54 -403,-58 -404,-61 -404,-64 -404,-68 -404,-71 -404,-74 -403,-78 -403,-81 -402,-84 -401,-88 -400,-91 -399,-94 -397,-98 -396,-101 -394,-104 -392,-107 -390,-110 -388,-113 -386,-116 -384,-119 -382,-122 -379,-125 -377,-128 -374,-131 -372,-134 -369,-137 -367,-140 -364,-143 -361,-146 -358,-149 -356,-152 -353,-156 -350,-159 -347,-162 -344,-165 -341,-169 -338,-172 -335,-175 -332,-178 -329,-182 -326,-185 -323,-188 -320,-190 -318,-193 -315,-195 -313,-198 -311,-200 -309,-202 -307,-204 -305,-206 -303,-207 -301,-209 -299,-211 -297,-212 -295,-214 -293,-215 -291,-217 -290,-218 -288,-220 -286,-221 -284,-222 -282,-223 -280,-224 -278,-225 -276,-226 -274,-227 -272,-227 -270,-228 -268,-228 -266,-228 -264,-229 -262,-229 -259,-228 -257,-228 -255,-228 -253,-227 -251,-226 -248,-225 -246,-224 -244,-223 -242,-222 -241,-220 -239,-219 -237,-217 -236,-215 -234,-212 -232,-210 -231,-208 -230,-205 -228,-203 -227,-201 -225,-198 -224,-195 -223,-193 -221,-190 -220,-187 -218,-184 -217,-182 -215,-179 -214,-176 -212,-173 -211,-169 -209,-166 -208,-163 -206,-160 -204,-156 -203,-153 -201,-150 -199,-146 -197,-143 -196,-139 -194,-135 -192,-132 -190,-128 -188,-124 -186,-120 -184,-116 -182,-112 -180,-108 -178,-103 -176,-99 "></polygon>
    <polyline vector-effect="non-scaling-stroke" fill="none" style="stroke: #EF4444; stroke-width:4" points="-175,-97 -173,-93 -170,-88 -168,-83 -166,-79 -164,-74 -161,-69 -159,-64 -156,-59 -154,-55 -152,-50 -149,-45 -147,-40 -145,-35 -142,-30 -140,-25 -137,-20 -134,-14 -132,-9 -129,-4 -127,2 -124,7 -121,12 -119,18 -116,23 -113,29 -110,34 -108,40 -105,46 -102,51 -99,57 -97,63 -94,68 -91,74 -88,80 -85,86 -83,92 -80,97 -77,103 -74,109 -71,115 -68,121 -65,127 -62,133 -59,139 -57,144 -54,150 -52,155 -50,159 -47,163 -45,168 -43,172 -41,176 -39,180 -37,184 -35,187 -34,191 -32,194 -30,197 -29,200 -27,203 -26,206 -24,208 -23,211 -22,214 -20,216 -19,219 -18,221 -16,224 -15,226 -14,228 -13,231 -11,233 -10,235 -9,237 -7,240 -6,242 -4,244 -2,246 -1,247 1,249 3,251 5,252 7,253 10,254 12,255 14,256 16,257 19,258 21,258 24,259 26,259 29,259 31,259 34,258 36,258 39,258 41,257 44,256 47,255 49,254 52,253 54,252 57,251 59,249 62,248 65,246 67,245 70,243 73,242 76,240 78,238 81,236 84,235 87,233 90,231 93,229 97,227 100,225 103,223 106,221 109,219 113,217 116,215 120,212 123,210 126,208 130,206 134,203 137,201 141,199 144,197 148,194 152,192 156,189 159,187 163,185 166,183 170,181 173,179 176,177 178,175 181,173 183,172 186,170 188,168 191,167 193,165 196,163 198,162 200,160 203,158 205,156 207,154 209,152 211,150 213,148 215,146 217,144 218,141 220,139 221,136 223,133 224,131 225,127 226,125 227,122 228,119 229,116 229,113 230,110 230,106 230,103 230,100 230,96 230,93 230,90 230,86 230,83 230,79 230,76 230,72 230,68 230,65 230,61 230,57 230,54 229,50 229,46 230,42 230,39 230,35 230,31 230,27 230,24 230,20 231,16 231,12 232,8 232,4 233,1 234,-3 235,-7 236,-11 237,-15 239,-18 240,-22 242,-26 244,-29 246,-33 248,-37 250,-40 252,-43 255,-47 258,-50 260,-53 263,-56 266,-59 269,-62 273,-65 276,-68 279,-70 283,-73 287,-75 290,-78 294,-80 298,-82 302,-84 306,-86 310,-87 315,-89 319,-90 323,-91 328,-92 332,-93 337,-94 341,-95 346,-95 350,-96 355,-96 360,-96 364,-97 369,-97 374,-97 378,-97 383,-97 388,-97 393,-97 398,-98 402,-98 407,-98 412,-98 417,-99 421,-99 426,-100 431,-100 436,-101 441,-102 446,-103 450,-104 455,-105 460,-106 465,-107 470,-108 475,-109 480,-111 485,-112 490,-114 494,-115 499,-117 504,-119 509,-121 514,-122 519,-124 523,-126 528,-128 533,-130 538,-132 543,-135 547,-137 552,-139 557,-141 562,-143 567,-146 572,-148 576,-150 581,-152 586,-155 591,-157 596,-159 601,-162"></polyline>
    <polyline vector-effect="non-scaling-stroke" fill="none" style="stroke: #3B82F6; stroke-width:4" points=" 601,-162 606,-164 611,-166 616,-169 621,-171 626,-173 631,-176 635,-178 640,-180 645,-183 650,-185 655,-187 660,-190 665,-192 671,-195 676,-197 681,-199 686,-202 691,-204 695,-206 700,-208 704,-210 708,-212 712,-214 715,-216 719,-218 723,-219 726,-221 729,-223 732,-224 736,-225 739,-227 741,-228 745,-230 747,-231 750,-232 752,-234 755,-235 758,-237 760,-238 762,-239 765,-241 767,-242 769,-243 771,-245 773,-246 775,-248 777,-249 779,-251 780,-252 782,-254 784,-256 785,-258 787,-259 788,-261 789,-263 790,-265 791,-267 791,-269 792,-271 792,-274 792,-276 793,-278 793,-280 793,-282 792,-285 792,-287 792,-289 791,-291 790,-293 789,-295 788,-297 787,-299 786,-301 784,-303 782,-304 780,-306 778,-308 776,-309 774,-310 772,-311 770,-312 768,-313 766,-313 763,-314 761,-314 759,-315 756,-315 754,-315 751,-315 749,-315 746,-316 743,-316 740,-316 738,-316 735,-316 732,-316 729,-316 726,-316 723,-316 720,-315 716,-315 713,-315 710,-315 706,-315 703,-314 700,-314 696,-314 692,-313 689,-313 685,-313 681,-312 677,-312 674,-311 670,-311 666,-311 661,-310 657,-310 653,-310 649,-310 644,-309 640,-309 635,-309 631,-309 626,-309 621,-309 617,-309 612,-309 606,-309 601,-308 596,-308 591,-308 585,-308 579,-308 574,-308 568,-308 562,-308 556,-308 550,-308 544,-308 538,-308 531,-308 525,-308 518,-308 511,-308 504,-308 497,-308 490,-308 483,-308 476,-308 469,-308 462,-308 454,-308 447,-308 439,-308 431,-308 424,-308 416,-308 408,-308 400,-308 393,-308 385,-308 377,-308 369,-308 360,-308 352,-308 344,-308 336,-308 327,-308 319,-308 311,-308 302,-308 294,-308 285,-308 277,-308 268,-308 260,-308 251,-308 242,-308 234,-308 225,-308 216,-308 208,-308 200,-308 191,-308 182,-308 173,-308 164,-308 155,-308 146,-308 137,-308 128,-308 119,-308 110,-308 101,-308 92,-308 82,-308 73,-308 64,-308 55,-308 46,-308 37,-308 28,-308 19,-308 11,-308 2,-308 -7,-308 -15,-308 -23,-308 -32,-307 -39,-307 -48,-307 -56,-306 -65,-306 -72,-305 -80,-305 -88,-304 -96,-304 -104,-303 -112,-303 -119,-302 -127,-302 -134,-302 -142,-302 -149,-302 -156,-302 -163,-302 -170,-302 -177,-302 -184,-302 -191,-302 -197,-302 -204,-301 -210,-301 -217,-301 -223,-301 -229,-301 -235,-301 -241,-301 -246,-301 -251,-301 -257,-301 -262,-301 -267,-301 -272,-301 -277,-301 -282,-301 -286,-301 -291,-302 -296,-302 -300,-302 -304,-302 -308,-302 -312,-302 -316,-302 -320,-302 -324,-302 -328,-302 -331,-302 -335,-302 -338,-302 -341,-302 -344,-302 -347,-302 -350,-302 -353,-302 -356,-302 -359,-302 -361,-302 -364,-302 -366,-302 -368,-302 -370,-302 -374,-301 -377,-301 -381,-301 -384,-300 -387,-298 -389,-297 -392,-294 -393,-293 -394,-290 -395,-287 -395,-284 -395,-281 -394,-278 -393,-275 -391,-272 -390,-269 -388,-266 -386,-263 -384,-260 -382,-256 -381,-253 -380,-249 -379,-246 -379,-242 -379,-240 -379,-238 -379,-236 -380,-234 -381,-233 -381,-231 -382,-230 -383,-228 -385,-226 -388,-224 -391,-221 -393,-220 -394,-219 -396,-218 -398,-217 -400,-215 -402,-214 -404,-213 -406,-211 -408,-210 -410,-209 -412,-207 -415,-206 -417,-205 -419,-203 -421,-202 -424,-200 -426,-199 -429,-197 -431,-195 -434,-194 -436,-192 -439,-190 -442,-189 -444,-187 -447,-185 -450,-183 -452,-181 -455,-179 -458,-177 -461,-175 -464,-173 -466,-170 -469,-168 -472,-166 -475,-163 -478,-161 -481,-158 -484,-156 -487,-153 -490,-150 -493,-147 -496,-144 -499,-141 -502,-138 -505,-135 -508,-132 -511,-128 -514,-125 -516,-121 -519,-118 -522,-114 -525,-110 -528,-107 -531,-103 -533,-99 -536,-95 -539,-90 -541,-86 -544,-82 -547,-77 -549,-73 -552,-68 -555,-64 -557,-59 -560,-54 -562,-49 -564,-44 -567,-39 -569,-34 -571,-29 -574,-24 -576,-19 -578,-13 -580,-8 -582,-3 -584,3 -586,8 -588,13 -590,19 -592,25 -594,30 -596,36 -598,42 -600,48 -602,53 -604,59 -606,65 -608,71 -610,77 -612,83 -614,89 -617,95 -619,101 -621,107 -623,113 -625,119 -627,125 -629,131 -632,137 -634,143 -636,149 -638,156 -640,162 -642,168 -645,174 -647,181 -649,187 -651,193 -653,200 -656,206 -658,212 -660,219 -662,225 -664,232 -666,238 -669,245 -671,251 -673,258 -675,265 -677,271 -679,278 -680,285 -682,292 -684,298 -685,305 -687,312 -688,319 -690,326 -691,333 -693,340 -694,347 -695,354 -696,361 -697,367 -698,374 -699,382 -700,389 -701,396 -702,403 -703,410 -704,417 -705,425 -706,431 -707,438 -708,444 -708,450 -709,456 -710,462 -710,468 -711,473 "></polyline>
    <polyline vector-effect="non-scaling-stroke" fill="none" style="stroke: #FBBF24; stroke-width:4" points="-711,473 -712,479 -712,484 -713,489 -713,494 -714,499 -714,504 -715,508 -715,513 -716,517 -716,521 -716,525 -717,529 -717,532 -717,536 -718,539 -718,543 -718,546 -719,550 -719,553 -719,556 -719,559 -720,563 -720,566 -720,569 -720,572 -720,575 -720,578 -720,581 -720,583 -719,586 -719,589 -718,592 -718,595 -717,597 -716,600 -714,603 -713,605 -712,608 -710,610 -708,613 -707,615 -705,617 -703,619 -701,621 -699,623 -696,625 -694,627 -691,629 -689,630 -686,632 -684,633 -681,634 -678,636 -675,637 -672,637 -669,638 -666,639 -663,639 -660,640 -657,640 -654,640 -650,640 -647,640 -644,639 -641,639 -638,638 -634,638 -631,637 -628,636 -625,635 -622,634 -619,632 -616,631 -613,629 -610,628 -607,626 -604,624 -602,622 -599,620 -597,618 -594,615 -592,613 -589,610 -587,608 -585,605 -583,602 -581,599 -580,596 -578,593 -576,590 -575,586 -574,583 -573,580 -572,576 -571,573 -570,569 -570,565 -570,562 -569,558 -569,554 -569,551 -570,547 -570,543 -571,540 -571,536 -572,532 -573,528 -574,525 -574,521 -575,518 -576,514 -577,509 -578,506 -579,502 -580,498 -582,493 -583,489 -584,485 -585,481 -586,477 -587,472 -588,469 -589,464 -590,459 -592,455 -593,450 -594,446 -595,441 -596,436 -598,431 -599,427 -600,422 -601,418 -603,413 -604,408 -605,403 -606,398 -608,394 -609,389 -610,384 -611,379 -612,374 -613,369 -614,364 -615,359 -616,353 -617,348 -617,343 -618,338 -618,332 -618,327 -618,322 -617,316 -617,311 -616,306 -615,300 -614,295 -613,290 -612,284 -611,279 -610,274 -609,270 -608,265 -607,261 -606,256 -605,252 -604,248 -603,244 -601,241 -600,237 -599,234 -598,230 -596,227 -595,223 -594,220 -592,217 -590,214 -589,211 -587,208 -585,205 -583,202 -581,200 -578,197 -576,195 -574,193 -571,190 -568,188 -566,186 -563,184 -560,182 -557,180 -554,178 -552,176 -548,174 -545,172 -542,170 -539,168 -536,166 -533,164 -530,162 -527,160 -524,159 -521,157 -519,155 -516,154 -514,152 -511,151 -509,150 -507,149 -505,147 -503,146 -501,145 -499,144 -497,143 -495,143 -493,142 -491,141 -487,140 -484,140 -482,140 -480,140 -479,140 -477,141 -475,141 -473,142 -472,143 -470,144 -469,145 -467,146 -466,148 -464,149 -463,151 -462,153 -461,155 -460,156 -459,158 -457,160 -456,162 -455,165 -454,167 -453,169 -451,172 -450,174 -449,176 -448,179 -446,182 -445,184 -444,187 -442,189 -441,191 -440,194 -439,196 -438,198 -437,200 -436,202 -435,204 -433,206 -432,207 -431,209 -430,211 -429,212 -427,215 -426,216 -424,218 -422,219 -421,220 -419,221 -417,222 -415,223 -413,224 -411,225 -409,226 -407,226 -405,227 -402,227 -400,227 -398,228 -395,228 -393,228 -391,227 -388,227 -386,227 -383,227 -380,226 -378,226 -375,225 -373,224 -370,224 -367,223 -364,222 -362,221 -359,220 -356,219 -353,218 -351,218 -349,217 -346,216 -344,215 -342,215 -340,214 -338,213 -336,212 -333,211 -331,211 -329,210 -327,209 -325,208 -323,207 -321,206 -320,204 -317,202 -315,199 -314,198 -313,196 -312,194 -311,192 -311,190 -310,188 -310,186 -309,183 -309,181 -309,179 -309,177 -309,174 -309,172 -309,169 -309,167 -309,164 -310,162 -310,159 -311,156 -311,153 -312,151 -312,148 -313,145 -314,142 -315,139 -316,136 -317,133 -318,130 -320,127 -321,124 -322,121 -324,117 -325,114 -327,111 -328,108 -330,104 -331,101 -333,98 -335,94 -336,91 -338,87 -340,83 -342,80 -344,76 -345,72 -347,69 -349,65 -351,61 -353,57 -355,53 -357,49 -359,45 -361,41 -363,37 -365,32 -367,28 -369,24 -372,20 -374,15 -376,11 -378,7 -380,3 -381,-0 -383,-4 -385,-8 -387,-11 -388,-14 -390,-17 -391,-21 -393,-24 -394,-27 -396,-30 -397,-33 -398,-36 -399,-39 -400,-42 -401,-45 -402,-48 -402,-51 -403,-54 -403,-58 -404,-61 -404,-64 -404,-68 -404,-71 -404,-74 -403,-78 -403,-81 -402,-84 -401,-88 -400,-91 -399,-94 -397,-98 -396,-101 -394,-104 -392,-107 -390,-110 -388,-113 -386,-116 -384,-119 -382,-122 -379,-125 -377,-128 -374,-131 -372,-134 -369,-137 -367,-140 -364,-143 -361,-146 -358,-149 -356,-152 -353,-156 -350,-159 -347,-162 -344,-165 -341,-169 -338,-172 -335,-175 -332,-178 -329,-182 -326,-185 -323,-188 -320,-190 -318,-193 -315,-195 -313,-198 -311,-200 -309,-202 -307,-204 -305,-206 -303,-207 -301,-209 -299,-211 -297,-212 -295,-214 -293,-215 -291,-217 -290,-218 -288,-220 -286,-221 -284,-222 -282,-223 -280,-224 -278,-225 -276,-226 -274,-227 -272,-227 -270,-228 -268,-228 -266,-228 -264,-229 -262,-229 -259,-228 -257,-228 -255,-228 -253,-227 -251,-226 -248,-225 -246,-224 -244,-223 -242,-222 -241,-220 -239,-219 -237,-217 -236,-215 -234,-212 -232,-210 -231,-208 -230,-205 -228,-203 -227,-201 -225,-198 -224,-195 -223,-193 -221,-190 -220,-187 -218,-184 -217,-182 -215,-179 -214,-176 -212,-173 -211,-169 -209,-166 -208,-163 -206,-160 -204,-156 -203,-153 -201,-150 -199,-146 -197,-143 -196,-139 -194,-135 -192,-132 -190,-128 -188,-124 -186,-120 -184,-116 -182,-112 -180,-108 -178,-103 -176,-99"></polyline>
</svg>