<svg xmlns="http://www.w3.org/2000/svg" xmlns:xlink="http://www.w3.org/1999/xlink" preserveAspectRatio="xMidYMid meet" height="100%" viewBox="-770 -910 1550 1850">
    <polygon vector-effect="non-scaling-stroke" fill="none" style="stroke: #374151; stroke-width:6" points=" -144,431 -148,428 -155,421 -157,419 -163,413 -170,408 -176,402 -182,396 -116,458 -122,453 -127,447 -133,442 -139,436 -145,431 -150,425 -156,420 -162,414 -168,408 -174,403 -179,397 -185,392 -191,386 -197,381 -203,375 -209,370 -215,364 -221,358 -226,353 -232,347 -238,342 -243,337 -249,331 -255,325 -261,320 -267,314 -272,309 -279,303 -285,297 -291,291 -297,286 -303,279 -309,273 -315,268 -321,262 -326,257 -331,252 -336,248 -340,243 -344,239 -348,236 -352,232 -355,229 -358,226 -361,222 -363,220 -365,217 -367,214 -369,211 -371,208 -373,206 -375,203 -376,200 -377,197 -378,195 -379,192 -380,189 -380,186 -380,183 -380,181 -379,178 -378,176 -378,174 -376,170 -375,168 -374,166 -373,163 -372,161 -370,158 -369,156 -368,153 -367,151 -366,148 -365,145 -364,142 -364,139 -363,136 -363,133 -362,130 -362,126 -362,123 -362,119 -362,116 -362,112 -362,109 -363,105 -363,101 -364,98 -365,94 -365,90 -366,86 -368,82 -369,79 -370,75 -372,71 -374,67 -376,63 -378,59 -380,55 -382,51 -385,48 -387,44 -390,40 -393,36 -396,33 -399,29 -403,25 -406,22 -410,18 -414,15 -418,12 -422,8 -426,5 -430,2 -434,-2 -438,-5 -442,-9 -446,-12 -451,-16 -455,-20 -459,-24 -463,-28 -468,-31 -472,-35 -476,-39 -481,-43 -485,-48 -489,-52 -494,-56 -499,-61 -503,-65 -507,-69 -511,-73 -516,-78 -520,-82 -524,-87 -529,-92 -533,-96 -537,-101 -542,-106 -546,-110 -551,-115 -555,-120 -559,-125 -564,-130 -568,-135 -572,-140 -577,-145 -581,-150 -585,-155 -590,-161 -594,-166 -598,-171 -602,-176 -607,-182 -611,-187 -615,-193 -619,-198 -623,-204 -627,-209 -632,-215 -635,-220 -639,-225 -643,-231 -647,-237 -652,-243 -656,-248 -660,-254 -664,-260 -668,-266 -671,-271 -675,-277 -678,-282 -681,-287 -685,-292 -687,-296 -690,-301 -692,-305 -695,-309 -697,-313 -700,-317 -702,-321 -704,-325 -706,-328 -708,-332 -710,-335 -712,-338 -714,-342 -715,-345 -717,-348 -719,-350 -720,-353 -721,-356 -723,-358 -724,-361 -725,-363 -727,-366 -728,-368 -729,-371 -730,-373 -731,-375 -731,-377 -732,-380 -732,-382 -732,-384 -732,-386 -732,-388 -732,-390 -732,-392 -731,-394 -730,-396 -729,-398 -728,-399 -727,-401 -726,-403 -724,-404 -723,-405 -721,-407 -719,-408 -717,-409 -715,-410 -713,-411 -711,-412 -709,-413 -706,-414 -704,-414 -701,-415 -699,-415 -696,-416 -693,-416 -690,-417 -687,-417 -685,-418 -682,-418 -678,-419 -675,-419 -672,-420 -669,-420 -666,-421 -663,-421 -659,-422 -656,-423 -653,-423 -650,-424 -647,-424 -644,-425 -642,-425 -639,-426 -637,-427 -634,-427 -632,-428 -630,-429 -626,-430 -624,-430 -622,-431 -620,-432 -618,-433 -616,-434 -614,-435 -612,-437 -610,-438 -608,-440 -606,-441 -604,-443 -603,-445 -601,-447 -600,-449 -598,-451 -597,-454 -596,-457 -595,-459 -595,-462 -594,-464 -594,-467 -594,-470 -594,-472 -594,-475 -594,-478 -594,-481 -594,-484 -594,-487 -594,-490 -594,-493 -595,-497 -595,-500 -595,-503 -596,-507 -596,-510 -596,-514 -597,-518 -597,-521 -598,-525 -598,-529 -598,-533 -599,-537 -599,-541 -600,-545 -600,-549 -601,-553 -601,-558 -602,-562 -602,-566 -602,-571 -603,-575 -603,-580 -604,-584 -604,-588 -604,-592 -605,-596 -605,-600 -605,-603 -605,-607 -605,-611 -606,-614 -606,-618 -606,-621 -606,-625 -606,-628 -606,-632 -605,-635 -605,-639 -605,-642 -604,-646 -603,-649 -602,-652 -601,-656 -600,-659 -598,-662 -597,-665 -595,-668 -593,-671 -591,-674 -589,-677 -586,-680 -584,-682 -581,-685 -579,-687 -576,-690 -573,-692 -570,-695 -567,-697 -564,-699 -561,-702 -558,-704 -555,-707 -552,-709 -549,-712 -545,-714 -542,-717 -539,-719 -536,-722 -532,-724 -529,-727 -525,-729 -522,-732 -518,-734 -515,-737 -511,-739 -508,-742 -504,-744 -501,-747 -497,-749 -493,-752 -489,-754 -486,-757 -482,-759 -478,-761 -474,-764 -470,-766 -466,-768 -462,-771 -458,-773 -453,-775 -449,-777 -445,-779 -440,-781 -436,-783 -431,-785 -427,-787 -422,-788 -417,-790 -413,-792 -409,-794 -404,-795 -399,-797 -395,-799 -390,-801 -385,-803 -381,-804 -376,-806 -371,-808 -366,-810 -362,-812  -362,-812 -357,-814 -352,-816 -348,-818 -343,-820 -338,-823 -334,-825 -329,-827 -324,-830 -320,-832 -315,-835 -311,-837 -307,-839 -303,-842 -300,-844 -296,-846 -293,-848 -290,-850 -287,-852 -284,-854 -281,-855 -278,-857 -275,-858 -272,-860 -270,-861 -267,-862 -264,-863 -262,-864 -259,-865 -256,-866 -254,-867 -251,-867 -248,-867 -246,-867 -243,-867 -240,-867 -238,-867 -235,-867 -232,-866 -230,-865 -227,-864 -224,-863 -222,-862 -219,-861 -217,-860 -214,-859 -212,-857 -209,-856 -207,-854 -204,-852 -202,-851 -199,-849 -197,-847 -194,-845 -192,-844 -189,-842 -186,-840 -183,-839 -180,-837 -177,-835 -174,-834 -171,-832 -168,-831 -165,-830 -162,-829 -159,-828 -155,-827 -152,-826 -148,-825 -145,-824 -142,-823 -138,-822 -134,-822 -131,-821 -127,-821 -123,-820 -120,-820 -116,-820 -112,-819 -108,-819 -104,-819 -100,-818 -96,-818 -92,-817 -89,-817 -85,-816 -80,-816 -76,-815 -72,-814 -68,-813 -64,-812 -60,-811 -56,-810 -52,-809 -48,-807 -44,-806 -40,-804 -36,-803 -32,-801 -28,-799 -24,-797 -20,-795 -16,-793 -12,-791 -8,-788 -4,-786 -0,-783 3,-781 7,-778 11,-775 15,-772 18,-769 22,-766 25,-762 29,-759 32,-756 35,-752 38,-748 41,-744 44,-740 47,-736 50,-732 53,-728 55,-724 58,-720 60,-715 63,-711 65,-706 67,-701 69,-697 71,-692 73,-687 74,-682 76,-677 78,-672 79,-667 80,-662 82,-657 83,-652 84,-647 85,-641 86,-636 88,-631 89,-626 90,-621 91,-615 92,-610 93,-605 94,-600 95,-594 96,-589 97,-584 98,-579 99,-574 100,-568 101,-563 102,-558 102,-553 103,-547 104,-542 104,-537 105,-531 105,-526 105,-521 105,-515 105,-510 105,-504 105,-499 105,-493 105,-488 105,-483 104,-477 104,-471 103,-466 102,-460 102,-455 101,-449 100,-444 98,-438 97,-433 96,-427 94,-422 93,-417 91,-412 89,-406 87,-400 85,-395 83,-390 81,-384 79,-379 77,-374 75,-368 73,-363 71,-358 69,-352 67,-347 65,-341 62,-336 60,-331 58,-325 56,-320 54,-314 52,-309 50,-303 48,-298 46,-292 44,-287 42,-282 40,-276 38,-271 36,-265 34,-260 32,-254 31,-249 29,-243 28,-238 26,-232 25,-227 24,-221 23,-216 22,-210 21,-204 20,-199 20,-193 19,-187 19,-182 18,-176 18,-171 17,-165 17,-159 17,-153 16,-148 16,-142 16,-136 16,-131 17,-126 17,-119 17,-114 18,-108 18,-102 19,-97 19,-91 20,-85 21,-80 22,-74 23,-68 25,-63 26,-57 27,-52 29,-46 31,-41 32,-35 34,-30 36,-24 38,-19 40,-13 42,-8 44,-3 46,3 49,8 51,13 54,18 56,24 59,29 62,34 65,39 67,44 70,49 74,54 77,59 80,64 83,68 86,73 90,78 93,83 97,87 100,92 104,96 108,101 112,105 116,110 119,114 123,119 127,123 131,127 136,131 140,135 144,140 148,144 152,148 157,151  157,151 161,155 165,159 169,162 173,165 176,169 180,172 184,175 187,178 191,181 194,184 197,186 201,189 204,192 207,194 210,196 213,199 215,201 218,204 221,206 224,208 227,210 229,213 232,215 235,217 237,219 240,221 242,223 245,224 248,226 250,228 253,229 256,231 259,232 262,233 265,234 268,235 271,236 274,236 277,237 280,237 283,238 287,238 291,238 294,238 297,237 301,237 304,236 308,236 311,235 315,235 319,234 322,233 326,233 329,232 333,231 337,231 340,230 344,229 347,229 351,228 354,227 358,227 361,227 365,226 368,226 372,225 375,225 378,225 381,226 385,226 388,227 391,227 394,228 397,230 400,231 403,232 405,234 408,236 411,238 413,240 416,242 418,244 421,246 423,248 426,250 429,252 432,254 434,256 437,259 440,261 443,263 446,266 449,268 452,270 455,273 458,275 461,278 464,280 467,283 470,285 473,288 476,291 480,293 483,296 486,299 489,301 493,304 496,307 499,310 503,312 506,315 510,318 513,321 516,324 520,327 523,330 527,333 530,336 534,339 538,342 541,345 545,348 548,351 552,354 556,358 559,361 563,364 566,367 570,371 574,374 577,377 581,381 584,384 588,388 591,391 595,395 598,399 601,402 605,406 608,410 611,414 614,418 617,422 620,426 623,430 626,435 628,439 631,443 633,448 636,452 638,457 641,462 643,467 645,471 647,476 649,481 651,486 653,491 655,496 657,501 659,506 660,511 662,516 664,521 666,527 667,532 669,537 671,542 672,547 674,553 675,558 677,563 679,568 680,574 682,579 684,584 685,590 687,595 689,601 690,606 692,611 694,617 695,622 697,628 699,633 700,638 702,643 703,649 705,654 707,660 708,665 710,670 711,675 713,680 714,685 715,689 717,694 718,698 719,702 720,706 721,710 723,714 724,718 725,722 725,725 726,729 727,732 728,735 729,738 730,741 730,744 731,747 732,750 733,753 733,755 734,758 734,761 735,763 736,766 736,768 737,771 737,773 738,776 738,778 739,780 739,783 739,785 740,787 740,789 740,792 740,796 739,800 737,803 737,805 735,806 734,808 733,809 731,811 729,812 726,814 722,816 721,817 719,817 717,818 715,819 712,820 709,820 707,821 705,822 703,822 700,823 698,824 695,824 692,825 690,826 688,827 685,827 682,828 680,829 677,830 674,830 671,831 668,832 665,833 663,834 660,834 657,835 654,836 651,837 647,838 644,839 641,839 638,840 634,841 631,842 628,843 625,844 621,845 618,846 615,847 611,848 608,849 605,850 601,851 598,852 594,853 591,854 587,855 584,856 580,857 577,858 573,859 570,860 566,861 562,862 559,863 555,864 552,865 549,866 546,867 543,868 540,869 537,870 534,870 531,871 529,872 526,872 523,873 521,873 518,874 515,874 513,874 510,874 508,874 505,874 502,874 500,873 497,873 494,872 492,872 489,871 486,870 484,869 481,867 479,866 476,865 474,863 471,861 469,860 466,858 464,856 462,854 460,852 458,849 456,847 454,845 452,842 450,840 448,837 446,834 445,832 443,829 441,826 440,823 438,820 436,817 435,814 433,811 431,808 430,805 428,801 426,798 424,795 423,792 421,789 419,785 417,782 416,779 414,775 412,772 410,769 408,765 407,762 405,759 403,755 401,752 399,748 397,745 395,742 393,738 391,735 390,732 388,728 386,725 384,722 383,720 381,717 379,714 378,712 376,709 375,707 373,705 372,703 370,701 369,699 367,697 366,695 365,693 364,691 362,690 361,688 358,685 356,683 353,680 349,679 346,678 343,677 342,677 340,677 336,677 333,678 330,680 327,682 324,684 321,687 319,690 317,692 316,694 315,695 314,697 312,699 311,701 310,702 308,704 307,706 306,708 304,710 303,712 301,714 300,716 298,717 297,719 295,721 294,723 292,725 291,727 289,729 287,731 286,733 284,735 283,737 281,739 280,741 278,743 276,744 275,746 273,748 272,749 270,751 268,752 266,754 264,755 262,757 260,758 258,759 256,760 254,761 251,762 249,763 247,763 244,764 242,765 239,765 237,765 234,766 231,766 229,766 226,766 224,766 221,765 218,765 216,765 213,764 210,763 208,762 205,761 203,760 200,759 198,758 195,756 193,755 191,753 188,752 186,750 184,748 181,746 180,744 177,742 175,740 173,738 171,736 169,734 167,732 164,730 162,728 160,726 158,724 156,722 153,719 151,717 149,715 147,713 144,711 142,708 140,706 137,704 135,702 133,699 130,697 128,695 126,692 123,690 121,687 118,685 116,683 113,680 111,678 108,675 105,673 103,670 100,667 97,665 95,662 92,659 89,657 86,654 83,651 80,648 78,646 75,643 72,640 68,637 65,634 62,631 59,628 56,625 53,622 49,618 46,615 42,612 39,608 35,605 31,601 28,598 24,594 20,590 16,586 12,583 8,579 4,575 -0,571 -5,566 -9,562 -13,558 -18,554 -22,549 -27,545 -31,541 -36,536 -41,532 -46,527 -50,522 -55,518 -60,513 -65,508 -70,504 -75,499 -80,494 -85,489 -90,484 -95,479 -100,474 -106,469 -108,467 "></polygon>
    <polyline vector-effect="non-scaling-stroke" fill="none" style="stroke: #EF4444; stroke-width:4" points="-144,431 -148,428 -155,421 -157,419 -163,413 -170,408 -176,402 -182,396 -116,458 -122,453 -127,447 -133,442 -139,436 -145,431 -150,425 -156,420 -162,414 -168,408 -174,403 -179,397 -185,392 -191,386 -197,381 -203,375 -209,370 -215,364 -221,358 -226,353 -232,347 -238,342 -243,337 -249,331 -255,325 -261,320 -267,314 -272,309 -279,303 -285,297 -291,291 -297,286 -303,279 -309,273 -315,268 -321,262 -326,257 -331,252 -336,248 -340,243 -344,239 -348,236 -352,232 -355,229 -358,226 -361,222 -363,220 -365,217 -367,214 -369,211 -371,208 -373,206 -375,203 -376,200 -377,197 -378,195 -379,192 -380,189 -380,186 -380,183 -380,181 -379,178 -378,176 -378,174 -376,170 -375,168 -374,166 -373,163 -372,161 -370,158 -369,156 -368,153 -367,151 -366,148 -365,145 -364,142 -364,139 -363,136 -363,133 -362,130 -362,126 -362,123 -362,119 -362,116 -362,112 -362,109 -363,105 -363,101 -364,98 -365,94 -365,90 -366,86 -368,82 -369,79 -370,75 -372,71 -374,67 -376,63 -378,59 -380,55 -382,51 -385,48 -387,44 -390,40 -393,36 -396,33 -399,29 -403,25 -406,22 -410,18 -414,15 -418,12 -422,8 -426,5 -430,2 -434,-2 -438,-5 -442,-9 -446,-12 -451,-16 -455,-20 -459,-24 -463,-28 -468,-31 -472,-35 -476,-39 -481,-43 -485,-48 -489,-52 -494,-56 -499,-61 -503,-65 -507,-69 -511,-73 -516,-78 -520,-82 -524,-87 -529,-92 -533,-96 -537,-101 -542,-106 -546,-110 -551,-115 -555,-120 -559,-125 -564,-130 -568,-135 -572,-140 -577,-145 -581,-150 -585,-155 -590,-161 -594,-166 -598,-171 -602,-176 -607,-182 -611,-187 -615,-193 -619,-198 -623,-204 -627,-209 -632,-215 -635,-220 -639,-225 -643,-231 -647,-237 -652,-243 -656,-248 -660,-254 -664,-260 -668,-266 -671,-271 -675,-277 -678,-282 -681,-287 -685,-292 -687,-296 -690,-301 -692,-305 -695,-309 -697,-313 -700,-317 -702,-321 -704,-325 -706,-328 -708,-332 -710,-335 -712,-338 -714,-342 -715,-345 -717,-348 -719,-350 -720,-353 -721,-356 -723,-358 -724,-361 -725,-363 -727,-366 -728,-368 -729,-371 -730,-373 -731,-375 -731,-377 -732,-380 -732,-382 -732,-384 -732,-386 -732,-388 -732,-390 -732,-392 -731,-394 -730,-396 -729,-398 -728,-399 -727,-401 -726,-403 -724,-404 -723,-405 -721,-407 -719,-408 -717,-409 -715,-410 -713,-411 -711,-412 -709,-413 -706,-414 -704,-414 -701,-415 -699,-415 -696,-416 -693,-416 -690,-417 -687,-417 -685,-418 -682,-418 -678,-419 -675,-419 -672,-420 -669,-420 -666,-421 -663,-421 -659,-422 -656,-423 -653,-423 -650,-424 -647,-424 -644,-425 -642,-425 -639,-426 -637,-427 -634,-427 -632,-428 -630,-429 -626,-430 -624,-430 -622,-431 -620,-432 -618,-433 -616,-434 -614,-435 -612,-437 -610,-438 -608,-440 -606,-441 -604,-443 -603,-445 -601,-447 -600,-449 -598,-451 -597,-454 -596,-457 -595,-459 -595,-462 -594,-464 -594,-467 -594,-470 -594,-472 -594,-475 -594,-478 -594,-481 -594,-484 -594,-487 -594,-490 -594,-493 -595,-497 -595,-500 -595,-503 -596,-507 -596,-510 -596,-514 -597,-518 -597,-521 -598,-525 -598,-529 -598,-533 -599,-537 -599,-541 -600,-545 -600,-549 -601,-553 -601,-558 -602,-562 -602,-566 -602,-571 -603,-575 -603,-580 -604,-584 -604,-588 -604,-592 -605,-596 -605,-600 -605,-603 -605,-607 -605,-611 -606,-614 -606,-618 -606,-621 -606,-625 -606,-628 -606,-632 -605,-635 -605,-639 -605,-642 -604,-646 -603,-649 -602,-652 -601,-656 -600,-659 -598,-662 -597,-665 -595,-668 -593,-671 -591,-674 -589,-677 -586,-680 -584,-682 -581,-685 -579,-687 -576,-690 -573,-692 -570,-695 -567,-697 -564,-699 -561,-702 -558,-704 -555,-707 -552,-709 -549,-712 -545,-714 -542,-717 -539,-719 -536,-722 -532,-724 -529,-727 -525,-729 -522,-732 -518,-734 -515,-737 -511,-739 -508,-742 -504,-744 -501,-747 -497,-749 -493,-752 -489,-754 -486,-757 -482,-759 -478,-761 -474,-764 -470,-766 -466,-768 -462,-771 -458,-773 -453,-775 -449,-777 -445,-779 -440,-781 -436,-783 -431,-785 -427,-787 -422,-788 -417,-790 -413,-792 -409,-794 -404,-795 -399,-797 -395,-799 -390,-801 -385,-803 -381,-804 -376,-806 -371,-808 -366,-810 -362,-812 "></polyline>
    <polyline vector-effect="non-scaling-stroke" fill="none" style="stroke: #3B82F6; stroke-width:4" points="-362,-812 -357,-814 -352,-816 -348,-818 -343,-820 -338,-823 -334,-825 -329,-827 -324,-830 -320,-832 -315,-835 -311,-837 -307,-839 -303,-842 -300,-844 -296,-846 -293,-848 -290,-850 -287,-852 -284,-854 -281,-855 -278,-857 -275,-858 -272,-860 -270,-861 -267,-862 -264,-863 -262,-864 -259,-865 -256,-866 -254,-867 -251,-867 -248,-867 -246,-867 -243,-867 -240,-867 -238,-867 -235,-867 -232,-866 -230,-865 -227,-864 -224,-863 -222,-862 -219,-861 -217,-860 -214,-859 -212,-857 -209,-856 -207,-854 -204,-852 -202,-851 -199,-849 -197,-847 -194,-845 -192,-844 -189,-842 -186,-840 -183,-839 -180,-837 -177,-835 -174,-834 -171,-832 -168,-831 -165,-830 -162,-829 -159,-828 -155,-827 -152,-826 -148,-825 -145,-824 -142,-823 -138,-822 -134,-822 -131,-821 -127,-821 -123,-820 -120,-820 -116,-820 -112,-819 -108,-819 -104,-819 -100,-818 -96,-818 -92,-817 -89,-817 -85,-816 -80,-816 -76,-815 -72,-814 -68,-813 -64,-812 -60,-811 -56,-810 -52,-809 -48,-807 -44,-806 -40,-804 -36,-803 -32,-801 -28,-799 -24,-797 -20,-795 -16,-793 -12,-791 -8,-788 -4,-786 -0,-783 3,-781 7,-778 11,-775 15,-772 18,-769 22,-766 25,-762 29,-759 32,-756 35,-752 38,-748 41,-744 44,-740 47,-736 50,-732 53,-728 55,-724 58,-720 60,-715 63,-711 65,-706 67,-701 69,-697 71,-692 73,-687 74,-682 76,-677 78,-672 79,-667 80,-662 82,-657 83,-652 84,-647 85,-641 86,-636 88,-631 89,-626 90,-621 91,-615 92,-610 93,-605 94,-600 95,-594 96,-589 97,-584 98,-579 99,-574 100,-568 101,-563 102,-558 102,-553 103,-547 104,-542 104,-537 105,-531 105,-526 105,-521 105,-515 105,-510 105,-504 105,-499 105,-493 105,-488 105,-483 104,-477 104,-471 103,-466 102,-460 102,-455 101,-449 100,-444 98,-438 97,-433 96,-427 94,-422 93,-417 91,-412 89,-406 87,-400 85,-395 83,-390 81,-384 79,-379 77,-374 75,-368 73,-363 71,-358 69,-352 67,-347 65,-341 62,-336 60,-331 58,-325 56,-320 54,-314 52,-309 50,-303 48,-298 46,-292 44,-287 42,-282 40,-276 38,-271 36,-265 34,-260 32,-254 31,-249 29,-243 28,-238 26,-232 25,-227 24,-221 23,-216 22,-210 21,-204 20,-199 20,-193 19,-187 19,-182 18,-176 18,-171 17,-165 17,-159 17,-153 16,-148 16,-142 16,-136 16,-131 17,-126 17,-119 17,-114 18,-108 18,-102 19,-97 19,-91 20,-85 21,-80 22,-74 23,-68 25,-63 26,-57 27,-52 29,-46 31,-41 32,-35 34,-30 36,-24 38,-19 40,-13 42,-8 44,-3 46,3 49,8 51,13 54,18 56,24 59,29 62,34 65,39 67,44 70,49 74,54 77,59 80,64 83,68 86,73 90,78 93,83 97,87 100,92 104,96 108,101 112,105 116,110 119,114 123,119 127,123 131,127 136,131 140,135 144,140 148,144 152,148 157,151 "></polyline>
    <polyline vector-effect="non-scaling-stroke" fill="none" style="stroke: #FBBF24; stroke-width:4" points="157,151 161,155 165,159 169,162 173,165 176,169 180,172 184,175 187,178 191,181 194,184 197,186 201,189 204,192 207,194 210,196 213,199 215,201 218,204 221,206 224,208 227,210 229,213 232,215 235,217 237,219 240,221 242,223 245,224 248,226 250,228 253,229 256,231 259,232 262,233 265,234 268,235 271,236 274,236 277,237 280,237 283,238 287,238 291,238 294,238 297,237 301,237 304,236 308,236 311,235 315,235 319,234 322,233 326,233 329,232 333,231 337,231 340,230 344,229 347,229 351,228 354,227 358,227 361,227 365,226 368,226 372,225 375,225 378,225 381,226 385,226 388,227 391,227 394,228 397,230 400,231 403,232 405,234 408,236 411,238 413,240 416,242 418,244 421,246 423,248 426,250 429,252 432,254 434,256 437,259 440,261 443,263 446,266 449,268 452,270 455,273 458,275 461,278 464,280 467,283 470,285 473,288 476,291 480,293 483,296 486,299 489,301 493,304 496,307 499,310 503,312 506,315 510,318 513,321 516,324 520,327 523,330 527,333 530,336 534,339 538,342 541,345 545,348 548,351 552,354 556,358 559,361 563,364 566,367 570,371 574,374 577,377 581,381 584,384 588,388 591,391 595,395 598,399 601,402 605,406 608,410 611,414 614,418 617,422 620,426 623,430 626,435 628,439 631,443 633,448 636,452 638,457 641,462 643,467 645,471 647,476 649,481 651,486 653,491 655,496 657,501 659,506 660,511 662,516 664,521 666,527 667,532 669,537 671,542 672,547 674,553 675,558 677,563 679,568 680,574 682,579 684,584 685,590 687,595 689,601 690,606 692,611 694,617 695,622 697,628 699,633 700,638 702,643 703,649 705,654 707,660 708,665 710,670 711,675 713,680 714,685 715,689 717,694 718,698 719,702 720,706 721,710 723,714 724,718 725,722 725,725 726,729 727,732 728,735 729,738 730,741 730,744 731,747 732,750 733,753 733,755 734,758 734,761 735,763 736,766 736,768 737,771 737,773 738,776 738,778 739,780 739,783 739,785 740,787 740,789 740,792 740,796 739,800 737,803 737,805 735,806 734,808 733,809 731,811 729,812 726,814 722,816 721,817 719,817 717,818 715,819 712,820 709,820 707,821 705,822 703,822 700,823 698,824 695,824 692,825 690,826 688,827 685,827 682,828 680,829 677,830 674,830 671,831 668,832 665,833 663,834 660,834 657,835 654,836 651,837 647,838 644,839 641,839 638,840 634,841 631,842 628,843 625,844 621,845 618,846 615,847 611,848 608,849 605,850 601,851 598,852 594,853 591,854 587,855 584,856 580,857 577,858 573,859 570,860 566,861 562,862 559,863 555,864 552,865 549,866 546,867 543,868 540,869 537,870 534,870 531,871 529,872 526,872 523,873 521,873 518,874 515,874 513,874 510,874 508,874 505,874 502,874 500,873 497,873 494,872 492,872 489,871 486,870 484,869 481,867 479,866 476,865 474,863 471,861 469,860 466,858 464,856 462,854 460,852 458,849 456,847 454,845 452,842 450,840 448,837 446,834 445,832 443,829 441,826 440,823 438,820 436,817 435,814 433,811 431,808 430,805 428,801 426,798 424,795 423,792 421,789 419,785 417,782 416,779 414,775 412,772 410,769 408,765 407,762 405,759 403,755 401,752 399,748 397,745 395,742 393,738 391,735 390,732 388,728 386,725 384,722 383,720 381,717 379,714 378,712 376,709 375,707 373,705 372,703 370,701 369,699 367,697 366,695 365,693 364,691 362,690 361,688 358,685 356,683 353,680 349,679 346,678 343,677 342,677 340,677 336,677 333,678 330,680 327,682 324,684 321,687 319,690 317,692 316,694 315,695 314,697 312,699 311,701 310,702 308,704 307,706 306,708 304,710 303,712 301,714 300,716 298,717 297,719 295,721 294,723 292,725 291,727 289,729 287,731 286,733 284,735 283,737 281,739 280,741 278,743 276,744 275,746 273,748 272,749 270,751 268,752 266,754 264,755 262,757 260,758 258,759 256,760 254,761 251,762 249,763 247,763 244,764 242,765 239,765 237,765 234,766 231,766 229,766 226,766 224,766 221,765 218,765 216,765 213,764 210,763 208,762 205,761 203,760 200,759 198,758 195,756 193,755 191,753 188,752 186,750 184,748 181,746 180,744 177,742 175,740 173,738 171,736 169,734 167,732 164,730 162,728 160,726 158,724 156,722 153,719 151,717 149,715 147,713 144,711 142,708 140,706 137,704 135,702 133,699 130,697 128,695 126,692 123,690 121,687 118,685 116,683 113,680 111,678 108,675 105,673 103,670 100,667 97,665 95,662 92,659 89,657 86,654 83,651 80,648 78,646 75,643 72,640 68,637 65,634 62,631 59,628 56,625 53,622 49,618 46,615 42,612 39,608 35,605 31,601 28,598 24,594 20,590 16,586 12,583 8,579 4,575 -0,571 -5,566 -9,562 -13,558 -18,554 -22,549 -27,545 -31,541 -36,536 -41,532 -46,527 -50,522 -55,518 -60,513 -65,508 -70,504 -75,499 -80,494 -85,489 -90,484 -95,479 -100,474 -106,469 -108,467"></polyline>
</svg>