<svg xmlns="http://www.w3.org/2000/svg" xmlns:xlink="http://www.w3.org/1999/xlink" preserveAspectRatio="xMidYMid meet" height="100%" viewBox="-551 -499 1301 820"><polygon vector-effect="non-scaling-stroke" fill="none" points="446.3,176.8 445.5,177 444.5,177.3 443.5,177.5 443,177.7 441.7,178 439.5,178.7 435.3,179.8 432.2,181 429.8,181.8 428.5,182.3 426.2,183 423.2,183.8 421.2,184.3 420,184.5 419.7,184.7 418.7,185 417.7,185.3 416.5,185.5 416.2,185.7 415.3,186 414.5,186.3 413.5,186.5 413,186.7 411.7,187 410.3,187.5 408.5,188 407.5,188.3 406.5,188.5 406,188.7 404.8,189 403.7,189.3 402.5,189.7 401.5,190 400.5,190.3 398.8,190.8 397.7,191.2 396.3,191.5 395.7,191.7 394.2,192 392.8,192.3 391.5,192.7 390,193.2 388.5,193.8 387,194.3 386.5,194.5 385.2,194.8 383.8,195.2 382.5,195.5 381.2,195.8 379.8,196.2 377.8,196.8 376.7,197.2 375.5,197.5 374.8,197.7 373.3,198 371.7,198.5 369.7,199 368.3,199.5 367.2,199.8 365.3,200.5 363.5,201 361.7,201.5 360.2,201.8 358.8,202.2 357.3,202.7 355.7,203 353.7,203.7 351.7,204.2 350.7,204.7 349.2,205 347.7,205.5 346.2,205.8 344.7,206.3 343.2,206.7 341,207.3 339.5,207.7 337.5,208.2 336.2,208.5 334.3,209 332.5,209.7 330.5,210.2 329.2,210.7 327.7,211 326.2,211.5 324,212 322.5,212.5 320.5,213 319.2,213.5 317.2,214 315.3,214.7 313.3,215.2 312.2,215.7 310.5,216 308.8,216.5 307.2,217 305.3,217.7 303.5,218.3 301,219 299.7,219.5 298.3,219.8 296.7,220.3 294.7,220.8 292.7,221.5 291.5,221.8 289.8,222.3 288.3,222.7 286.3,223.3 285,223.7 283,224.3 281.5,224.7 279.5,225.3 278,225.7 276,226.3 274.5,226.7 272.3,227.3 270.3,227.8 268.5,228.5 266.8,229 265.5,229.5 263.3,230 261.8,230.5 260.3,230.8 258.8,231.3 257.3,231.7 255.2,232.3 253.3,232.8 251.3,233.5 250.2,233.8 248.5,234.3 246.5,234.8 244.3,235.5 243.2,235.8 241.7,236.3 240.2,236.7 237.8,237.3 236.3,237.7 234,238.5 232.3,239 230.5,239.7 229.7,239.8 227.8,240.3 226,240.7 223.2,241.5 221.5,242 219.8,242.7 218.5,243 217,243.5 215,244 213.5,244.5 211.5,245 210,245.5 208,246 206.5,246.5 205,247 202.8,247.7 200.8,248.3 198.8,248.8 197.3,249.3 195.3,249.8 193.5,250.5 192.3,250.8 190.8,251.3 189.2,251.7 187,252.3 185.5,252.7 183.3,253.3 181.7,253.7 179.7,254.3 178.3,254.7 176.5,255.3 174.5,256 172.7,256.7 171.3,257.2 169.7,257.5 168,258 165.8,258.5 164.5,259 162.5,259.5 161.2,260 159.3,260.5 157.5,261.2 155.5,261.7 154.2,262.2 152.5,262.5 150.8,263 148.5,263.5 147.2,264 145.2,264.5 143.7,265 141.7,265.5 140.3,266 138.5,266.5 137.2,267 135.3,267.5 134,268 132.7,268.3 130.7,269 128.7,269.5 126.7,270.2 125.2,270.5 123.8,271 121.8,271.5 120.5,272 119.2,272.3 117.3,273 115.7,273.5 113.8,274.2 112.5,274.5 111.2,275 109.8,275.3 108.3,275.8 106.7,276.2 104.7,276.8 103.3,277.2 102.2,277.5 100.7,277.8 99.3,278.2 97.3,278.8 96.2,279.2 94.3,279.8 93.2,280.2 91.3,280.8 90.2,281.2 88.3,281.8 87.2,282.2 85.3,282.7 84.2,283 82.3,283.5 81.2,284 79.2,284.5 77.8,285 76.3,285.3 75,285.7 73.5,286 71.7,286.5 70.3,287 68.7,287.5 67.3,287.8 66.2,288.2 64.8,288.5 63.5,289 61.7,289.5 60.3,289.8 58.7,290.3 57.5,290.7 56.3,291.2 55,291.5 53.5,291.8 52.2,292.2 50.8,292.5 49.2,293.2 47.5,293.7 46.5,294 45.2,294.3 43.8,294.7 42.5,295.2 41.3,295.5 40.2,295.8 39,296.2 37.7,296.5 36.3,296.8 34.5,297.3 33.5,297.7 32.3,298 31,298.3 29.3,298.8 27.8,299.3 27,299.7 26.5,299.8 26,300 24.8,300.3 23.7,300.7 21.8,301.2 20.7,301.5 19.5,301.8 19,302 18.5,302 18.2,302.2 17,302.5 15.8,302.8 14.5,303 14,303 13.5,303 12.8,303.2 12,303.3 11,303.5 10,303.5 9,303.5 8.2,303.5 7.5,303.5 6.5,303.2 5.3,302.8 4.2,302.3 3.5,302.2 2.8,301.7 2.2,301.3 1.2,300.5 0.2,299.8 -0.7,299 -1.7,298 -2.5,296.8 -3.7,295.5 -4.2,294.7 -5,293.5 -5.7,292.2 -6.8,290.3 -7.5,289 -8,288 -8.2,287.7 -8.3,287.3 -8.7,287 -9.2,285.8 -9.8,284.7 -10.3,283.5 -10.8,282.7 -11.2,281.8 -11.8,280.7 -12.2,279.8 -12.8,278.7 -13.2,277.8 -14,276.5 -14.5,275.5 -15.2,274.5 -15.5,273.7 -16,272.8 -16.7,271.7 -17.2,270.8 -18,269.5 -18.5,268.5 -19.2,267.5 -19.7,266.7 -20.2,265.8 -21,264.5 -21.7,263.5 -22.3,262.5 -22.8,261.7 -23.8,260 -24.8,258.3 -25.7,257 -26,256.7 -26.8,255.7 -27.5,254.7 -28.2,253.5 -29,252.3 -30.2,251 -31.5,249.5 -32.2,248.5 -32.7,247.7 -33.2,246.7 -33.8,245.8 -35,244.3 -36.2,243 -37.2,241.7 -37.7,241 -38.3,239.8 -39.3,238.5 -40.5,237 -41.5,236 -42.3,235.2 -43,234.5 -43.8,233.2 -44.7,231.8 -45.5,230.5 -46.3,229.5 -47.3,228.3 -48.7,226.7 -49.7,225.5 -50.5,224.5 -51.2,223.7 -52.2,222.2 -53.2,220.5 -54,219.2 -54.5,218.5 -55.3,217.5 -56.2,216.3 -57.3,214.7 -58.3,213.3 -59.3,212.2 -60.3,210.8 -61.3,209.5 -62.5,208 -63.2,207.2 -64.2,205.8 -65.2,204.5 -66.3,203 -67.3,201.7 -68.2,200.5 -69,199.5 -70,198.3 -70.8,197 -71.7,195.7 -72.5,194.3 -73.7,192.8 -74.8,191.3 -75.5,190.5 -76.5,189.2 -77.7,187.7 -78.8,186.2 -79.8,184.8 -80.7,183.7 -81.5,182.5 -82.7,181 -83.8,179.5 -85,178 -85.5,177.3 -86.5,176 -87.5,174.7 -88.8,172.8 -89.7,171.7 -90.5,170.5 -91.3,169.3 -92.2,168.2 -93.3,166.5 -94.7,164.8 -96,163.2 -97,162 -97.8,160.8 -98.7,159.7 -100,157.8 -101.2,156.5 -102.3,155.2 -103.3,153.8 -104.2,152.7 -105,151.5 -105.8,150.3 -106.7,149.2 -108,147.2 -109.3,145.5 -111,143.2 -112.3,141.5 -113.7,139.7 -114.7,138.5 -115.5,137.5 -116.5,136 -117.5,134.5 -118.8,132.5 -119.8,131.3 -120.8,130.2 -121.8,128.8 -122.7,127.7 -123.5,126.3 -124.2,125.3 -125.5,123.5 -127,121.7 -128.3,120.2 -129.5,118.7 -130.5,117.3 -131.7,115.7 -132.3,114.8 -133.5,113.2 -134.5,111.8 -135.8,109.8 -136.7,108.7 -137.5,107.5 -138.3,106.3 -139.2,105.2 -140.2,103.5 -141.2,102 -142.2,100.3 -143.7,98.5 -144.8,97 -146,95.7 -146.8,94.3 -147.7,93.2 -149.2,91 -150.3,89.5 -151.5,88 -152.3,86.8 -153.2,85.7 -154.3,83.8 -155.3,82.5 -156.3,81 -157.3,79.7 -158.2,78.3 -159.2,76.8 -160.3,75.2 -161.5,73.7 -162.8,71.8 -164,70.3 -165.2,68.7 -166,67.7 -166.7,66.5 -167.8,64.8 -169,63 -170.3,61 -171.2,59.7 -172.2,58 -172.8,57 -173.7,55.5 -174.7,54 -175.7,52.3 -176.8,50.7 -177.5,49.5 -178.7,47.8 -179.5,46.5 -180.7,44.7 -181.5,43.2 -182.8,41 -184,39.3 -185,37.8 -185.7,36.8 -186.7,35.2 -187.7,33.5 -188.8,31.7 -189.5,30.3 -190.3,28.8 -191.2,27.2 -192.2,25.7 -193.2,24 -194.2,22.3 -195.2,20.7 -196.3,18.8 -197.2,17.7 -198,16.3 -199,14.8 -200,13.2 -201,11.5 -201.5,10.7 -202.3,9 -203.2,7.5 -204.7,4.8 -205.7,3 -206.7,1.2 -207,0.3 -207.8,-1 -208.7,-2.5 -210,-4.8 -211,-6.5 -212,-8.2 -212.7,-9.3 -213.5,-10.8 -214.3,-12.7 -215,-14 -215.7,-15.5 -216.7,-17.2 -217.7,-18.8 -218.7,-20.5 -219.5,-22 -220.3,-23.5 -221,-25.2 -221.7,-26.8 -222.7,-29 -223.7,-30.7 -224.7,-32.2 -225.5,-33.7 -226.5,-35.5 -227.2,-37 -227.8,-38.5 -228.5,-40 -229.3,-41.5 -230.3,-43.3 -231.2,-44.8 -231.8,-46.3 -232.7,-48.2 -233.5,-50 -234.7,-52.2 -235.5,-53.7 -236.3,-55.5 -237,-57 -237.7,-58.5 -238.3,-59.7 -239.2,-61.3 -239.8,-63 -240.7,-65 -241.5,-66.8 -242.5,-68.7 -243.5,-70.5 -244.2,-72 -245,-73.8 -245.7,-75.3 -246.5,-76.8 -247.2,-78.3 -248.2,-80.3 -249.2,-82.3 -250,-83.7 -250.7,-85 -251.5,-87.2 -252.3,-89.2 -253,-90.7 -253.8,-92.2 -254.7,-93.7 -255.3,-95.2 -256.2,-97 -257,-98.8 -258,-100.7 -258.5,-101.5 -259,-103 -259.8,-105 -260.8,-107.3 -261.8,-109 -262.8,-110.8 -263.5,-112.3 -264.2,-113.8 -264.8,-115.3 -265.7,-116.8 -266.5,-118.3 -267.3,-120.2 -268.2,-122 -269,-124 -269.8,-125.7 -270.7,-127.3 -271.3,-129 -271.8,-130.3 -272.5,-132 -273.5,-134 -274.3,-135.8 -275,-137.3 -275.7,-139 -276.7,-140.8 -277.7,-142.7 -278.7,-144.7 -279.3,-146.2 -280,-147.7 -280.8,-149.3 -281.7,-151 -282.5,-153 -283,-154.2 -283.7,-156 -284.5,-157.7 -285.3,-159.3 -286.2,-161.2 -286.8,-162.7 -287.5,-164.2 -288.5,-166 -289.5,-167.8 -290.3,-169.7 -291,-171.2 -291.7,-172.7 -292.7,-174.5 -293.3,-175.7 -294,-177.3 -294.8,-179.2 -295.7,-181 -296.5,-182.3 -297.5,-184.2 -298.5,-186 -299.7,-188.2 -300.3,-189.7 -301.2,-191.5 -301.8,-193 -302.7,-194.5 -303.5,-195.8 -304.5,-197.7 -305.5,-199.5 -306.7,-201.5 -307.7,-203.2 -308.5,-204.3 -309.5,-206 -310.5,-207.7 -311.5,-209.3 -312.3,-211 -313.2,-212.5 -314,-214.2 -314.7,-215.3 -315.7,-217 -316.7,-218.7 -317.7,-220.2 -318.8,-222 -320,-223.7 -321,-225.2 -321.8,-226.5 -322.3,-227.5 -323.7,-229.7 -325,-231.8 -326.7,-234.3 -327.8,-236.2 -328.7,-237.3 -330,-239.3 -331.2,-240.8 -332.3,-242.5 -333,-243.3 -333.7,-244.5 -334.8,-246.2 -336.3,-248.3 -337.8,-250 -338.8,-251.2 -339.8,-252.3 -341,-254 -342.2,-255.5 -343.3,-257.2 -344.2,-258.3 -345.3,-260.2 -346.5,-261.7 -347.8,-263.2 -348.8,-264.2 -350,-265.5 -351,-267 -352,-268.3 -353.2,-270 -354.3,-271.5 -356,-273.3 -357,-274.3 -358,-275.3 -359,-276.8 -360.3,-278.5 -361.7,-280.3 -362.7,-281.3 -363.8,-282.7 -365,-284 -366.7,-286 -367.8,-287.3 -369.2,-288.7 -369.8,-289.3 -370.8,-290.7 -372.2,-292.3 -373.5,-294 -374.7,-295.2 -375.8,-296.5 -377.2,-298 -378.7,-299.8 -380,-301.2 -381.3,-302.5 -382.3,-303.3 -383.3,-304.5 -384.7,-305.8 -386,-307.2 -387.3,-308.5 -388.5,-309.8 -389.8,-311.2 -391.5,-312.8 -392.8,-314.2 -394.2,-315.5 -395.3,-316.5 -396.5,-317.7 -397.7,-319 -398.8,-320.2 -400.2,-321.3 -401.5,-322.7 -402.7,-323.8 -404,-325.2 -405.3,-326.5 -406.8,-328 -408.2,-329.3 -409.5,-330.5 -410.7,-331.7 -412,-333 -413.3,-334.3 -414.5,-335.7 -416.3,-337.3 -418,-338.8 -419.5,-340 -420.3,-340.8 -421.2,-341.7 -422,-342.5 -423.5,-343.8 -425,-345.3 -426.5,-346.8 -427.7,-348 -429,-349.2 -430.5,-350.7 -431.8,-352 -433,-353.2 -435.3,-355.3 -438,-357.7 -440.7,-360.2 -442,-361.3 -442.7,-362 -444,-363.2 -445.3,-364.5 -446.8,-366 -447.7,-366.8 -449.2,-368.3 -450.7,-369.8 -452.3,-371.5 -453.3,-372.3 -454.7,-373.7 -456,-375 -457.5,-376.5 -458.5,-377.5 -459.7,-378.7 -461,-380 -462.3,-381.3 -463.8,-382.8 -465.2,-384.2 -467,-385.8 -468.5,-387 -469.8,-388.2 -470.5,-388.8 -471.8,-390.2 -473.2,-391.3 -474.7,-392.8 -475.5,-393.8 -476.8,-395.2 -478.2,-396.3 -479.5,-397.7 -481,-399.2 -482.3,-400.5 -483.5,-401.5 -484.3,-402.5 -485.7,-403.8 -487.2,-405.3 -488.5,-406.5 -490,-407.8 -491.7,-409.5 -493.3,-411.2 -495,-412.8 -496.3,-414 -497.7,-415 -498.5,-415.7 -499.5,-416.5 -500.3,-417.5 -501.5,-418.8 -502.5,-420 -504,-421.3 -505.2,-422.3 -506.5,-423.5 -508,-424.8 -509.3,-426 -510.5,-427 -511,-427.5 -511.8,-428.3 -512.7,-429.2 -513.8,-430.3 -514.7,-431.2 -515.7,-432 -516.2,-432.5 -516.8,-433.2 -517.5,-434 -518.5,-434.8 -519.2,-435.5 -519.8,-436.2 -520.5,-436.8 -521.2,-437.5 -522.3,-438.5 -523.3,-439.3 -524.3,-440.2 -524.8,-440.7 -525.3,-441.2 -525.8,-441.7 -528.2,-444.2 -530.5,-447.3 -533,-450.3 -533.3,-451.3 -533.7,-451.7 -533.8,-452.3 -534,-455 -533.8,-457.7 -533.5,-460.8 -533,-461.7 -532.2,-463 -531.5,-463.7 -530.5,-464.5 -528.5,-465.5 -526.3,-466.3 -524.3,-467 -523.2,-467.3 -521.8,-467.7 -520.7,-468 -519.8,-468 -518.5,-468.3 -517.2,-468.7 -516,-469 -515.5,-469 -514.8,-469 -514,-469.2 -513,-469.3 -511.3,-469.7 -509.8,-469.8 -508.5,-470 -508,-470.2 -507.5,-470.3 -506.8,-470.5 -506,-470.5 -504,-470.7 -502.2,-471 -500.5,-471.3 -500,-471.5 -499.5,-471.5 -497.8,-471.7 -496.2,-472 -494.5,-472.3 -493.8,-472.5 -493.2,-472.5 -492.2,-472.7 -490.3,-473 -488.5,-473.3 -487,-473.5 -486.2,-473.5 -485.3,-473.7 -483.8,-473.8 -481.8,-474.2 -479.8,-474.3 -478.3,-474.5 -477.7,-474.7 -476.5,-474.8 -474.7,-475.2 -472.7,-475.3 -471.2,-475.5 -470.2,-475.5 -469.3,-475.7 -468,-475.8 -465.8,-476.2 -463.7,-476.3 -461.8,-476.5 -461,-476.7 -459.7,-476.8 -457.5,-477.2 -455.5,-477.3 -453.8,-477.5 -452.7,-477.5 -451.3,-477.7 -449.7,-477.8 -447.3,-478.2 -445.2,-478.3 -443.3,-478.5 -442.3,-478.7 -440.8,-478.8 -439.5,-479 -437.8,-479 -435.7,-479.2 -433.3,-479.3 -431.5,-479.5 -430.3,-479.7 -429,-479.8 -427.2,-480 -425,-480 -422.8,-480 -420.2,-480.2 -418.2,-480.3 -416.3,-480.5 -415.5,-480.5 -414,-480.7 -412.2,-480.8 -410,-481 -408.2,-481 -406.3,-481 -404.3,-481 -402.2,-481 -400.2,-481 -397.7,-481.2 -395.5,-481.3 -393.5,-481.5 -392.2,-481.5 -390.5,-481.5 -388.3,-481.5 -386.7,-481.5 -384.8,-481.5 -383.2,-481.5 -381,-481.5 -379,-481.7 -377,-481.8 -375,-482 -372.8,-482 -370.5,-482 -367.8,-482 -365.2,-482 -363,-482 -360.7,-481.8 -359,-481.7 -356.5,-481.5 -355,-481.5 -352.8,-481.5 -351,-481.5 -349,-481.5 -346.8,-481.3 -344.7,-481.2 -342.2,-481 -339.8,-481 -338,-481 -336.2,-481 -334.5,-481 -332.3,-480.8 -330,-480.7 -328,-480.5 -326.2,-480.5 -324.8,-480.5 -322.5,-480.3 -320,-480.2 -317.2,-479.8 -315,-479.7 -312.8,-479.5 -311,-479.5 -309.5,-479.5 -307.7,-479.3 -305.3,-479 -303,-478.7 -301.2,-478.5 -299.8,-478.5 -297.2,-478.2 -294.8,-477.8 -292.3,-477.5 -291,-477.5 -288.7,-477.2 -286.5,-476.8 -284.2,-476.5 -282.3,-476.5 -280.3,-476.3 -278,-476 -275.8,-475.7 -273.8,-475.5 -271.5,-475.2 -269,-474.8 -266.5,-474.5 -265,-474.3 -262.8,-474 -260.5,-473.7 -258.2,-473.5 -256,-473.2 -253.8,-472.8 -250.8,-472.3 -248.8,-472 -246.2,-471.5 -244,-471 -241.3,-470.7 -239.3,-470.5 -237,-470.2 -234.7,-469.8 -232.5,-469.5 -229.8,-469.2 -227.7,-468.8 -224.7,-468.2 -222.8,-467.8 -220,-467.3 -218,-467 -214.7,-466.5 -212.3,-466 -209,-465.5 -207,-465 -204.2,-464.5 -201.8,-464.2 -199.5,-463.8 -196.8,-463.5 -194.7,-463 -192.3,-462.7 -190.7,-462.2 -187.8,-461.7 -185.2,-461.2 -182.2,-460.7 -179.8,-460.3 -177.3,-459.8 -174.7,-459.5 -172.3,-459 -170.2,-458.7 -168,-458.3 -166,-458 -162.7,-457.5 -160.3,-457 -156.8,-456.5 -154.7,-456 -152.3,-455.7 -150.2,-455.3 -147.8,-455 -144.7,-454.5 -142.3,-454 -140.2,-453.7 -138.2,-453.3 -136.2,-453 -133,-452.5 -130.5,-452 -128.2,-451.7 -125.8,-451.3 -123.3,-451 -120.7,-450.7 -118.7,-450.2 -116,-449.7 -113,-449 -110.5,-448.7 -108.2,-448.2 -105.8,-447.8 -103.5,-447.5 -100.8,-447.2 -98.7,-446.8 -95.3,-446.2 -93.2,-445.8 -90,-445.2 -88,-444.8 -85,-444.3 -83,-444 -80.2,-443.5 -78,-443 -75.7,-442.7 -73.2,-442.2 -70.8,-441.8 -68,-441.3 -65.3,-441 -62.8,-440.7 -60.2,-440.2 -58.3,-439.8 -55.2,-439.2 -52.7,-438.8 -50.2,-438.5 -47.7,-438.2 -45.3,-437.8 -41.8,-437.2 -39.7,-436.8 -37.3,-436.3 -35.5,-436 -32.5,-435.5 -29.7,-435 -27,-434.7 -24.3,-434.2 -21.7,-433.8 -19.3,-433.5 -17.2,-433.2 -15,-432.8 -12,-432.3 -9.3,-432 -6.2,-431.7 -3.8,-431.5 -2.2,-431.3 0.5,-431 3.2,-430.7 6,-430.5 8.3,-430.2 11,-429.8 13.5,-429.5 16,-429.2 18.3,-428.8 21.3,-428.5 23.3,-428.5 25.8,-428.3 28.2,-428 30.7,-427.7 33,-427.3 35.3,-427.2 38.2,-427 40.7,-426.8 42.8,-426.7 44.2,-426.5 46.7,-426.3 49.3,-426.2 52.5,-426 54.7,-426 56.5,-425.8 59.3,-425.5 62.2,-425.2 65,-425 67.3,-425 69.7,-425 72.2,-425 73.8,-425 76.2,-424.7 78.8,-424.3 81.8,-424 84,-424 86.3,-424 88.5,-424 90.8,-424 92.8,-424 95.2,-424 97.5,-424 100.3,-424 102.7,-424 104.8,-424 106.3,-424 108.7,-423.8 111,-423.7 113.7,-423.3 116.2,-423.2 118.8,-423 121.5,-423 123.8,-423 126.2,-423 128.2,-423 130.5,-423 132.8,-423 135,-423 137,-423 139.2,-423 141.8,-423 144.2,-423 146.2,-423 148,-423 150.2,-423 152.5,-423 154.3,-423 156.7,-423 158.5,-423 160.8,-423 162.2,-422.8 164.2,-422.5 166.5,-422.2 169.3,-422 172,-422 174,-422 175.8,-422 177.5,-422 179.7,-422 181.7,-422 183.8,-422 185.8,-422 188,-422 190,-422 192,-422 194.2,-422 196,-422 198,-422 199.8,-422 202.2,-422 204.2,-422 206.3,-422 207.8,-422 209.5,-421.8 211,-421.7 213,-421.5 214.5,-421.5 216,-421.5 217.2,-421.5 218.3,-421.5 220.2,-421.3 222,-421.2 224.2,-421 225.5,-421 226.8,-421 227.8,-421 228.8,-421 229.8,-421 231,-421 232.3,-421 233.7,-421 235,-421 236.3,-421 237.7,-421 239,-421 240.7,-420.8 242.3,-420.7 243.8,-420.5 244.5,-420.5 245,-420.5 245.5,-420.5 246.8,-420.3 248,-420 249.2,-419.7 249.5,-419.5 250,-419.5 250.5,-419.5 251.5,-419.2 252.5,-418.8 253.5,-418.5 254.2,-418.3 255.3,-417.7 256.5,-417 257.5,-416.5 258,-416.3 259,-415.8 259.8,-415.2 260.7,-414.7 261.2,-414.2 262.3,-413.2 264.3,-411.2 266,-409.3 267.2,-408 267.3,-407.5 268.3,-406 269.2,-404.5 270,-403 270.2,-402.3 270.5,-401.7 271,-400.5 271.3,-399.5 271.5,-398.5 271.7,-398 272,-396.5 272.3,-395 272.5,-393.5 272.5,-393 272.5,-392.5 272.7,-391.8 272.8,-391 273,-390 273,-389.2 272.8,-388.2 272.7,-387.2 272.5,-386 272.5,-385.2 272.5,-384.5 272.5,-384 272.5,-383.5 272.3,-382.3 272,-381.2 271.5,-379.8 271.2,-379.2 270.8,-378.2 270.3,-376.8 269.8,-375.5 269.5,-374.5 269.2,-373.8 268.5,-372.7 267.7,-371.5 267.2,-370.5 266.3,-369.3 265.5,-367.8 264.5,-366.3 264.2,-365.5 263.2,-364.2 262.2,-362.8 261,-361.2 260.5,-360.3 260.2,-359.5 259.8,-359.2 259.7,-358.8 258.8,-357.8 258,-356.7 257,-355.2 256.5,-354.3 256.2,-353.5 255.8,-353 254.7,-351.5 253.3,-350 252,-348.2 251.5,-347.3 251,-346.5 250.7,-346 249.8,-344.8 249,-343.7 248,-342.5 247.7,-342 246.8,-340.8 246,-339.8 245,-338.8 244.7,-338.5 244.3,-338 244,-337.5 243,-336.5 241.7,-335 240.5,-333.5 239.8,-332.5 239.5,-332 239,-331.5 237.8,-330.3 236.7,-329.2 235,-327.3 233.5,-325.5 232,-323.7 231,-322.5 230.5,-322 229.8,-321.5 229,-320.8 228,-320 227.2,-319.2 226,-318 225,-317 224,-316 223.5,-315.5 222.5,-314.7 221.3,-313.7 220,-312.5 219,-311.5 218,-310.5 217.2,-309.7 216.5,-309.2 215.7,-308.7 214.2,-307.8 212.5,-306.7 211.2,-305.7 210.5,-305 209.3,-304 208.2,-303 206.8,-302 205.8,-301.5 204.8,-301 203.3,-300 202.2,-299 200.8,-298 199.7,-297.2 198.5,-296.5 197.5,-295.8 196,-295 194.5,-294 193,-293.2 192,-292.7 191,-292.2 189.7,-291.3 188.3,-290.5 187,-289.8 185.5,-289 184.3,-288.3 182.8,-287.5 181.8,-287 180.5,-286.3 179,-285.3 177.5,-284.5 176.3,-283.8 175,-283.3 173.3,-282.7 171.7,-282 170,-281.2 168.7,-280.5 167.3,-279.8 166.7,-279.7 165,-279 163,-278.2 160.8,-277.3 159.3,-276.7 158.2,-276.2 156.7,-275.5 155.3,-275 153.5,-274.5 152.2,-274 150.3,-273.5 149,-273 147,-272.5 145.5,-272 143.5,-271.5 142,-271 140,-270.5 138.5,-270 136.5,-269.5 135,-269.2 133.7,-268.8 132,-268.5 130.3,-268 128.5,-267.7 127.3,-267.5 125.3,-267.2 123.3,-266.8 121.5,-266.5 119.5,-266.2 117.7,-265.8 115.8,-265.5 114.7,-265.3 112.3,-265 110,-264.7 108.2,-264.5 107.3,-264.5 106,-264.3 104.3,-264.2 102.3,-264 100.3,-264 98.7,-264 96.8,-264 95.2,-264 93,-264 91.2,-264 89.3,-264 87.5,-264 85.7,-264 83.8,-264 82.2,-264 80.3,-264 78.3,-264 76.3,-264 74.3,-264 72.3,-264.2 70.7,-264.3 69,-264.5 67.8,-264.5 65.7,-264.7 63.5,-265 61.2,-265.3 59.7,-265.5 57.7,-265.7 55.7,-266 53.7,-266.3 51.8,-266.7 49.8,-267 47.5,-267.3 45.8,-267.5 44.7,-267.7 42.8,-268 41,-268.3 39,-268.5 37,-268.8 34.8,-269.2 32.7,-269.5 30.8,-269.8 28.8,-270.2 26.8,-270.5 24.8,-270.7 22.8,-271 20.8,-271.3 18.8,-271.7 16.7,-272 14.5,-272.3 13,-272.5 11,-272.8 8.8,-273.2 6.8,-273.5 4.8,-273.7 3,-274 -0.2,-274.5 -2.3,-274.8 -4.8,-275.2 -6.2,-275.3 -8.3,-275.7 -10.2,-275.8 -12,-276.2 -14,-276.5 -16.3,-276.8 -18.7,-277 -19.8,-277.2 -21.7,-277.5 -23.8,-277.8 -26.2,-278.2 -28.2,-278.5 -30.3,-278.8 -32.5,-279 -34,-279.2 -36.2,-279.5 -38.2,-279.8 -40.3,-280.2 -42,-280.5 -44,-280.8 -46,-281 -47.3,-281.2 -49.2,-281.5 -51.2,-281.8 -53.2,-282 -55.3,-282.3 -57.3,-282.7 -59.7,-283 -61,-283 -62.2,-283.2 -63.8,-283.5 -66.2,-283.8 -68.5,-284 -69.8,-284.2 -71.5,-284.5 -73.5,-284.8 -75.7,-285 -76.8,-285.2 -78.5,-285.5 -80,-285.8 -82,-286 -83.3,-286.2 -84.8,-286.3 -85.8,-286.5 -86.5,-286.5 -87.8,-286.7 -89.7,-286.8 -91.7,-287 -93,-287 -93.8,-287 -95.2,-287.2 -96.3,-287.3 -97.8,-287.5 -98.7,-287.5 -100.2,-287.5 -101.3,-287.5 -102.8,-287.5 -103.7,-287.5 -105.2,-287.5 -107.2,-287.2 -109.2,-286.8 -110.5,-286.5 -111.2,-286.5 -112.7,-286.3 -114.2,-286.2 -115.5,-285.8 -116.2,-285.7 -117.7,-285.3 -119.2,-285.2 -120.7,-284.8 -121.3,-284.7 -122.8,-284.3 -124.2,-284 -126.2,-283.5 -127.3,-283.2 -128.5,-282.8 -129.7,-282.5 -131.2,-281.8 -132.7,-281.3 -133.8,-280.7 -134.7,-280.3 -136.2,-279.5 -137.5,-279 -138.8,-278.3 -139.8,-277.8 -140.7,-277.2 -142.3,-276.3 -143.7,-275.7 -145.5,-274.7 -146.5,-273.8 -147.5,-273.2 -148.7,-272.3 -149.8,-271.5 -151,-270.5 -151.5,-270 -152.7,-269 -154,-267.8 -155.3,-266.8 -156.2,-266.2 -157,-265.5 -158,-264.5 -159,-263.5 -160,-262.5 -160.8,-261.5 -161.7,-260.5 -162.5,-259.3 -163.8,-257.7 -165.2,-255.8 -166.3,-254.3 -166.8,-253.5 -167.2,-253 -168,-251.7 -169,-250.3 -169.8,-248.8 -170.5,-247.5 -171.2,-246.2 -171.8,-245 -172.2,-244.5 -172.8,-243.2 -173.5,-241.8 -174.3,-240.2 -174.8,-238.7 -175.5,-237.2 -176,-235.5 -176.5,-234.3 -177,-232.7 -177.3,-231.5 -177.7,-230.3 -178,-229.3 -178.5,-227.2 -179,-225.2 -179.3,-223.5 -179.5,-222.8 -179.8,-221.5 -180.2,-219.5 -180.5,-217.7 -180.5,-216.3 -180.5,-215.7 -180.7,-214 -180.8,-212.2 -181,-209.8 -181,-208.5 -181,-206.8 -181,-205.7 -181,-203.8 -180.8,-201.8 -180.7,-199.8 -180.5,-198.3 -180.5,-197.3 -180.2,-195.2 -179.8,-193.2 -179.5,-191.3 -179.3,-190.7 -179,-189 -178.7,-187.5 -178,-185 -177.5,-183.5 -176.8,-181.8 -176.7,-181.2 -176,-179.3 -175.3,-177.7 -174.5,-175.5 -173.8,-174.2 -173.2,-172.8 -172.3,-171.2 -171.7,-169.8 -171,-168.3 -170.3,-167 -169.7,-165.5 -168.8,-163.8 -168.2,-162.8 -167.2,-161.3 -166.3,-160.2 -165.5,-158.7 -164.8,-157.3 -164.2,-156 -163.2,-154.3 -162.3,-153.2 -161.3,-151.5 -160.5,-150 -159.5,-148.5 -158.5,-147 -157.8,-146 -157,-144.3 -156.3,-143.2 -155.2,-141.3 -154.3,-140.2 -153.3,-138.5 -152.3,-137 -151.3,-135.3 -150.5,-134.2 -149.8,-132.8 -149.2,-131.5 -148.2,-129.5 -147.3,-128.2 -146.2,-126.3 -145.3,-125.2 -144.2,-123.2 -143.3,-121.8 -142.5,-120.3 -141.5,-118.8 -140.5,-117.2 -139.7,-115.7 -139.2,-114.5 -138.3,-113 -137.3,-111.3 -136.3,-109.7 -135.3,-108 -134.3,-106.3 -133.5,-105.2 -132.5,-103.5 -131.5,-102 -130.3,-100 -129.7,-99 -129,-97.5 -128.3,-96.2 -127.3,-94.3 -126.3,-92.8 -125.3,-91.2 -124.7,-90 -123.5,-88 -122.5,-86.5 -121.5,-84.8 -121,-83.8 -120,-82 -119,-80.3 -118,-78.8 -117.3,-77.8 -116.7,-76.7 -115.7,-75 -115,-73.7 -114,-71.8 -113.3,-70.7 -112.2,-68.8 -111.3,-67.7 -110.2,-66 -109.5,-64.8 -108.8,-63.7 -108.3,-62.7 -107.7,-61.8 -107,-60.5 -106.3,-59.2 -105.3,-57.3 -104.5,-56 -103.8,-55 -103.5,-54.5 -103,-53.7 -102,-52 -100.8,-50.2 -99.8,-48.7 -99.3,-48 -99,-47.5 -98.5,-46.7 -98,-45.8 -97.3,-44.5 -96.7,-43.5 -96,-42.5 -95.2,-41.5 -94.5,-40.5 -93.8,-39.5 -93,-38.3 -92.2,-37.2 -91.2,-35.8 -90.7,-35.2 -90,-34.5 -89.3,-33.5 -88.5,-32.5 -87.5,-31.3 -86.5,-30.5 -85.5,-29.5 -84,-28.2 -82.8,-27 -81.8,-26.2 -81.5,-25.8 -81,-25.5 -80.5,-25 -79.5,-24.2 -78,-23 -76.5,-21.8 -75.5,-21 -74.5,-20.3 -73.5,-19.7 -72.5,-19 -72,-18.7 -70.7,-17.8 -69.2,-17 -67.7,-16.2 -66.3,-15.5 -65.2,-15 -64,-14.3 -63.2,-14 -61.8,-13.3 -60.5,-12.8 -59.2,-12.2 -57.5,-11.7 -55.7,-11 -54.2,-10.7 -53.5,-10.5 -52.5,-10.2 -51.3,-9.8 -49.3,-9.3 -47.8,-9 -46.3,-8.7 -45.7,-8.5 -44.3,-8.3 -42.5,-8.2 -40.7,-7.8 -39.3,-7.7 -38.7,-7.5 -37.2,-7.3 -35.5,-7.2 -33.5,-7 -32,-7 -30.5,-7 -29.2,-7 -27.8,-7 -25.8,-7.2 -23.8,-7.3 -22.2,-7.5 -21.5,-7.5 -20.5,-7.7 -19.3,-7.8 -17.2,-8.2 -15.5,-8.3 -13.2,-8.8 -11.8,-9.2 -10.5,-9.5 -10,-9.5 -8.7,-9.8 -7.3,-10.2 -5.3,-10.8 -4.2,-11.2 -2.5,-11.8 -1.3,-12.3 0.3,-13 1.8,-13.7 3.7,-14.3 5,-15 6.3,-15.7 7.8,-16.5 9.3,-17.3 10.5,-18 11.3,-18.7 12.2,-19.2 13.8,-20.2 15.3,-21.2 16.8,-22.3 17.5,-23 18.8,-24.2 20.2,-25.3 21.7,-26.5 22.3,-27 23.5,-28 25,-29.5 26.5,-31 27.5,-32 28.5,-33.2 29.5,-34.5 30.5,-35.8 31.3,-36.8 32.2,-37.7 33,-38.7 34,-40 35,-41.5 36,-42.8 37,-44.3 38,-45.7 39,-47.2 39.7,-48.3 40.3,-49.5 41,-50.5 42,-51.8 43,-53.2 44,-54.5 44.5,-55 45.2,-55.7 46.3,-57.2 47.5,-58.7 48.5,-60 49.2,-60.7 50.2,-61.7 51.7,-63.5 53,-65.2 53.8,-66.5 54.3,-67 55,-67.7 56,-68.7 57.2,-70 58.2,-71.2 59.3,-72.3 60.3,-73.3 61.5,-74.5 62.5,-75.5 63.3,-76.3 64.5,-77.7 65.5,-78.8 66.7,-80 67.8,-80.8 69.2,-81.8 70.5,-83 71.5,-84 72.7,-85.2 74,-86.3 75.3,-87.5 76.3,-88.3 77,-89 78,-89.8 79.2,-90.7 80.8,-91.8 82.2,-92.8 83.8,-94.2 85,-95.2 86,-95.8 87,-96.3 88,-96.8 89.3,-97.7 91,-98.8 92.7,-100 94.2,-101 95.3,-101.8 96.5,-102.7 98.2,-103.7 99.3,-104.3 100.7,-105 102,-105.8 103.5,-106.7 104.8,-107.3 106.2,-107.8 107.8,-108.7 109.7,-109.7 110.8,-110.5 112.5,-111.2 114,-111.8 115.5,-112.5 116.2,-112.8 117.8,-113.5 119.5,-114.2 121.5,-115 122.7,-115.5 124.3,-116.2 125.7,-116.7 127.3,-117.3 129,-118 130.7,-118.7 132.3,-119.3 133.7,-119.7 135.5,-120.3 136.8,-120.7 138.8,-121.3 140.3,-121.7 142.3,-122.3 143.7,-122.7 145.5,-123.2 146.8,-123.5 148.8,-124 150.3,-124.5 152.5,-125 153.8,-125.3 155.2,-125.7 156.8,-126 158.7,-126.3 160.3,-126.7 162.2,-127 164,-127.3 165.8,-127.7 166.8,-127.8 168.2,-128 170.7,-128.2 173,-128.5 174.8,-128.8 175.8,-129 177.2,-129 179.5,-129.2 181.5,-129.3 183.2,-129.7 184.5,-129.8 185.8,-130 187.8,-130 189.2,-130 191.2,-130 193,-130 195.2,-130 197.2,-130 198.7,-130 200.3,-130 202.7,-130.2 205,-130.5 206.8,-130.8 207.7,-131 208.8,-131 210.3,-131 212.5,-131 214.2,-131 216.2,-131 217.8,-131 220,-131 221.5,-131 223,-131 224.7,-131 227.5,-131.2 229.8,-131.3 231.7,-131.5 232.5,-131.5 233.8,-131.7 235.3,-131.8 237,-132 238.7,-132 240.3,-132 242,-132 243.7,-132 245.7,-132 247.5,-132 249.3,-132 251.5,-132.2 253.5,-132.3 255.2,-132.5 256.3,-132.5 257.5,-132.5 259,-132.5 260.7,-132.5 262.3,-132.5 264,-132.7 265.5,-132.8 267.3,-133 269,-133 270.5,-133 272.2,-133 274.7,-133.2 276.8,-133.3 278.7,-133.5 279.3,-133.5 280.3,-133.5 281.7,-133.5 283.3,-133.5 285.2,-133.5 286.8,-133.5 288.7,-133.7 290.3,-133.8 291.7,-134 293,-134 294.3,-134 296.2,-134 298,-134 300.5,-134.2 302.5,-134.3 304,-134.5 304.8,-134.5 306.2,-134.5 307.5,-134.5 309,-134.5 310.5,-134.7 312.5,-134.8 314.3,-135 316,-135 317.7,-135 319.3,-135 321.2,-135 322.7,-135 325,-135.2 327,-135.3 328.8,-135.5 329.7,-135.5 331,-135.5 332.3,-135.5 334,-135.5 335.5,-135.7 337.3,-135.8 339.2,-136 341,-136 342.5,-136 344,-136 345.5,-136 347.3,-136 349,-136 351.3,-136.2 353.3,-136.3 355.2,-136.5 356.2,-136.5 357.5,-136.5 359.2,-136.5 360.8,-136.7 362.5,-136.8 363.7,-137 365.5,-137 367,-137 368.8,-137 370.2,-137 372,-137 374.3,-137.2 376.3,-137.3 378,-137.5 379.3,-137.5 381,-137.5 382.5,-137.5 384.2,-137.5 385.8,-137.7 387.5,-137.8 389.2,-138 390.3,-138 392,-138 393.5,-138 395.3,-138 397.5,-138 400,-138.2 402.3,-138.3 404,-138.5 405,-138.5 406.3,-138.5 407.5,-138.7 409.2,-138.8 410.8,-139 413,-139 415,-139 416.7,-139 418.3,-139 420,-139 422,-139 423.7,-139 425.8,-139.2 427.7,-139.3 429.3,-139.5 430.3,-139.5 431.5,-139.7 433.5,-139.8 435.2,-140 437,-140 438.7,-140 440.3,-140 442,-140 443.5,-140 445.5,-140 447.3,-140 449.7,-140.2 451.7,-140.3 453.3,-140.5 454.3,-140.5 455.5,-140.5 457.2,-140.7 459,-140.8 460.5,-141 462,-141 463.7,-141 465.8,-141 468,-141 469.8,-141 471.5,-141 473.2,-141 475.3,-141.2 477.5,-141.3 479.2,-141.5 480.5,-141.7 482,-141.8 483.8,-142 485.7,-142 487,-142 488.8,-142 490.5,-142 492.7,-142 494.3,-142 495.7,-142 497,-142 499.3,-142.2 501.8,-142.5 504,-142.8 505.3,-143 506.8,-143 508.5,-143 510.2,-143 511.5,-143 513.3,-143 515.2,-143 517.5,-143 519.3,-143 521.2,-143.2 522.8,-143.3 525.3,-143.7 527.5,-143.8 529.3,-144 530.3,-144 531.7,-144 533.5,-144 535.5,-144 537.7,-144 539.3,-144 541,-144.2 542.5,-144.3 544.7,-144.5 547.5,-144.7 550,-144.8 552,-145 552.8,-145 554.2,-145 555.8,-145 558,-145 560,-145 562,-145 563.7,-145.2 565.3,-145.3 567.2,-145.5 569.5,-145.7 571.5,-145.8 573,-146 574.3,-146 576,-146 578,-146 580,-146 581.7,-146 583.3,-146 585.2,-146 587.2,-146.2 589.2,-146.3 591.5,-146.7 593.7,-146.8 595.5,-147 596.7,-147 598.2,-147 599.8,-147 601.5,-147 603.3,-147 605.2,-147 607,-147 608.7,-147 610.7,-147 612.3,-147 614,-147 615.5,-147 617.5,-147 619.3,-147 621,-147 622.5,-147 624.5,-146.8 626.2,-146.7 627.7,-146.5 629.5,-146.3 631.3,-146 633.2,-145.7 634,-145.5 635,-145.3 636.5,-145 637.8,-144.5 640,-144 641.5,-143.5 643.2,-143.2 644.3,-142.7 645.5,-142.3 646.8,-141.7 648.2,-141 649.5,-140.3 651.3,-139.5 652.7,-138.8 654.2,-138 655.5,-137.3 656.8,-136.7 658.2,-136 658.8,-135.5 660.2,-134.5 661.5,-133.7 662.7,-132.8 663.5,-132.3 664.3,-131.5 665.7,-130.5 667.3,-129.2 668.8,-128 670,-127 670.7,-126.3 671.3,-125.7 672,-124.8 673,-123.5 674,-122.2 675,-121 675.8,-120 676.8,-118.8 678.2,-117.2 679,-116 679.7,-115 680,-114.5 680.7,-113.5 681.3,-112.3 682.3,-110.3 683.2,-108.8 684,-107.5 684.7,-106.2 685.3,-104.8 685.8,-103.5 686.2,-102.8 686.7,-101.7 687.2,-100.3 687.8,-98.7 688.3,-97.2 689,-95.7 689.5,-94 690,-92.7 690.3,-91.3 690.8,-90 691.2,-88.5 691.7,-87.2 692,-85.8 692.5,-84.5 693,-82.5 693.3,-81.2 693.8,-79.3 694.2,-78.2 694.8,-76.5 695.2,-75.3 695.8,-73.5 696.2,-72.2 696.8,-70.3 697.2,-69.2 697.8,-67.3 698.2,-66 698.7,-64.7 699.2,-62.7 699.8,-60.8 700.3,-58.8 700.8,-57.7 701.2,-56.3 701.7,-55.2 702.2,-53.3 702.8,-51.7 703.3,-49.8 703.7,-49.2 704,-47.7 704.5,-46.3 705,-44.2 705.5,-42.8 705.8,-41.5 706.5,-40 707,-38.3 707.7,-36.7 708,-35.3 708.5,-34.2 709,-32.3 709.5,-31.2 710,-29.2 710.5,-27.8 711,-25.8 711.5,-24.3 712,-22.8 712.3,-21.8 712.7,-21 713.2,-19.2 713.8,-17.3 714.3,-15.7 714.7,-15 715,-13.7 715.5,-12.3 716,-10.5 716.3,-9.3 716.8,-7.5 717.2,-6.2 717.7,-5 718,-3.7 718.5,-2.3 719,-0.3 719.3,0.8 719.8,2.5 720.2,3.7 720.8,5.3 721.2,6.5 721.8,8.2 722.2,9.3 722.7,11.2 723,12.3 723.3,13.5 723.7,14.2 724,15.7 724.5,17.2 724.8,18.5 725.3,20 725.8,21.5 726.3,23.2 726.8,24.3 727.2,25.5 727.5,26.7 727.8,28 728.2,29.3 728.8,31.2 729.2,32.3 729.5,33.5 729.8,34.5 730.2,35.5 730.5,36.5 730.7,37 731,38.3 731.3,39.7 731.5,41 731.7,41.5 732,42.8 732.3,44.2 732.5,45.5 732.7,46 732.8,46.8 733,47.8 733,49 733,50 733,51 733,51.8 733,52.5 733,53 733,53.5 732.8,54.7 732.7,55.8 732.3,57 732.2,57.5 731.8,58.5 731.7,59.5 731.3,60.3 731.2,60.7 731,61 730.7,61.8 730.3,62.7 729.7,63.7 729,64.8 728.2,66 727.5,66.8 727.2,67.2 726.8,67.3 726.7,67.7 726.2,68.2 725.5,69 724.5,69.8 723.5,70.7 722.3,71.7 721,72.8 719.8,73.8 719.2,74.5 718.8,74.8 718.5,75.2 717,76.2 715.3,77.5 713.7,78.8 712.5,79.7 711.3,80.3 709.8,81.2 708.2,82.2 706,83.7 704.2,85 703,86 701.8,86.7 700.7,87.3 699.5,88 698.7,88.5 697.8,89 696.3,89.8 695.2,90.7 693.5,91.8 692.5,92.7 691,93.5 690,94 688.5,94.8 687.3,95.7 685.8,96.7 684.8,97.2 683.3,98 682.2,98.7 681,99.3 679.7,100 678.3,100.7 676.8,101.5 675.2,102.5 673.3,103.5 671.7,104.3 671,104.7 669.5,105.5 668,106.3 666.5,107.2 665.5,107.7 664.3,108.3 662.7,109 661,109.7 659.5,110.3 657.8,111 656.2,111.8 654.3,112.7 653.2,113.5 652.5,113.8 651,114.5 649.3,115.2 647.7,115.8 645.8,116.7 644.2,117.3 642.5,118.2 641.8,118.5 640.2,119.2 638.5,119.8 636.8,120.3 636.2,120.7 635.5,120.8 633.3,121.7 631.2,122.5 628.8,123.3 627.7,123.8 626.3,124.2 625.2,124.7 623.3,125.2 621.5,125.8 619.7,126.3 618.3,126.8 617.2,127.2 615.3,127.8 613.5,128.3 611.7,129 610.3,129.3 608.8,129.8 607.3,130.2 605.2,131 603.7,131.5 602,132.2 601,132.3 599.3,132.8 597.7,133.2 595.3,133.8 593.8,134.2 592.5,134.7 591.2,135 589.7,135.5 587.3,136 585.8,136.5 583.8,137 582.5,137.5 580.7,138 579.3,138.5 578.2,138.8 576.5,139.3 574.8,139.7 573.2,140 571.7,140.3 570.3,140.7 568.2,141.3 566.3,141.8 564.5,142.5 563.3,142.8 561.8,143.3 560.3,143.7 558.2,144.3 556.5,144.8 554.7,145.3 553.7,145.7 552.8,145.8 551.3,146.3 549.3,146.8 547.3,147.5 545.3,148 543.8,148.5 542.3,148.8 541,149.3 539.5,149.7 537.3,150.3 535.8,150.7 533.8,151.3 532.7,151.7 531.3,152 529.8,152.3 528.3,152.7 526.5,153.3 525.3,153.7 523.5,154.3 522,154.7 520,155.3 518.7,155.7 516.8,156.3 515.2,156.8 513.5,157.5 512.3,157.8 510.7,158.3 508.7,158.8 506.7,159.3 505.7,159.7 504.3,160 503,160.5 501,161 499.7,161.5 497.8,162 496.5,162.5 494.5,163 493.2,163.3 492,163.7 490.7,164 489.2,164.5 487,165 485.5,165.5 483.7,166 482.3,166.5 480.5,167 478.5,167.7 476.7,168.2 475.3,168.7 474,169 472.5,169.5 470.3,170 468.8,170.3 467.5,170.7 466.2,171.2 464.8,171.7 462.7,172.2 461.3,172.5 459.3,173 458,173.5 456,174 454.5,174.5 453.2,174.8 451.7,175.3 450.3,175.7 449.3,176" style="stroke: rgb(55, 65, 81); stroke-width: 10;"></polygon><polyline vector-effect="non-scaling-stroke" fill="none" points="446.3,176.8 445.5,177 444.5,177.3 443.5,177.5 443,177.7 441.7,178 439.5,178.7 435.3,179.8 432.2,181 429.8,181.8 428.5,182.3 426.2,183 423.2,183.8 421.2,184.3 420,184.5 419.7,184.7 418.7,185 417.7,185.3 416.5,185.5 416.2,185.7 415.3,186 414.5,186.3 413.5,186.5 413,186.7 411.7,187 410.3,187.5 408.5,188 407.5,188.3 406.5,188.5 406,188.7 404.8,189 403.7,189.3 402.5,189.7 401.5,190 400.5,190.3 398.8,190.8 397.7,191.2 396.3,191.5 395.7,191.7 394.2,192 392.8,192.3 391.5,192.7 390,193.2 388.5,193.8 387,194.3 386.5,194.5 385.2,194.8 383.8,195.2 382.5,195.5 381.2,195.8 379.8,196.2 377.8,196.8 376.7,197.2 375.5,197.5 374.8,197.7 373.3,198 371.7,198.5 369.7,199 368.3,199.5 367.2,199.8 365.3,200.5 363.5,201 361.7,201.5 360.2,201.8 358.8,202.2 357.3,202.7 355.7,203 353.7,203.7 351.7,204.2 350.7,204.7 349.2,205 347.7,205.5 346.2,205.8 344.7,206.3 343.2,206.7 341,207.3 339.5,207.7 337.5,208.2 336.2,208.5 334.3,209 332.5,209.7 330.5,210.2 329.2,210.7 327.7,211 326.2,211.5 324,212 322.5,212.5 320.5,213 319.2,213.5 317.2,214 315.3,214.7 313.3,215.2 312.2,215.7 310.5,216 308.8,216.5 307.2,217 305.3,217.7 303.5,218.3 301,219 299.7,219.5 298.3,219.8 296.7,220.3 294.7,220.8 292.7,221.5 291.5,221.8 289.8,222.3 288.3,222.7 286.3,223.3 285,223.7 283,224.3 281.5,224.7 279.5,225.3 278,225.7 276,226.3 274.5,226.7 272.3,227.3 270.3,227.8 268.5,228.5 266.8,229 265.5,229.5 263.3,230 261.8,230.5 260.3,230.8 258.8,231.3 257.3,231.7 255.2,232.3 253.3,232.8 251.3,233.5 250.2,233.8 248.5,234.3 246.5,234.8 244.3,235.5 243.2,235.8 241.7,236.3 240.2,236.7 237.8,237.3 236.3,237.7 234,238.5 232.3,239 230.5,239.7 229.7,239.8 227.8,240.3 226,240.7 223.2,241.5 221.5,242 219.8,242.7 218.5,243 217,243.5 215,244 213.5,244.5 211.5,245 210,245.5 208,246 206.5,246.5 205,247 202.8,247.7 200.8,248.3 198.8,248.8 197.3,249.3 195.3,249.8 193.5,250.5 192.3,250.8 190.8,251.3 189.2,251.7 187,252.3 185.5,252.7 183.3,253.3 181.7,253.7 179.7,254.3 178.3,254.7 176.5,255.3 174.5,256 172.7,256.7 171.3,257.2 169.7,257.5 168,258 165.8,258.5 164.5,259 162.5,259.5 161.2,260 159.3,260.5 157.5,261.2 155.5,261.7 154.2,262.2 152.5,262.5 150.8,263 148.5,263.5 147.2,264 145.2,264.5 143.7,265 141.7,265.5 140.3,266 138.5,266.5 137.2,267 135.3,267.5 134,268 132.7,268.3 130.7,269 128.7,269.5 126.7,270.2 125.2,270.5 123.8,271 121.8,271.5 120.5,272 119.2,272.3 117.3,273 115.7,273.5 113.8,274.2 112.5,274.5 111.2,275 109.8,275.3 108.3,275.8 106.7,276.2 104.7,276.8 103.3,277.2 102.2,277.5 100.7,277.8 99.3,278.2 97.3,278.8 96.2,279.2 94.3,279.8 93.2,280.2 91.3,280.8 90.2,281.2 88.3,281.8 87.2,282.2 85.3,282.7 84.2,283 82.3,283.5 81.2,284 79.2,284.5 77.8,285 76.3,285.3 75,285.7 73.5,286 71.7,286.5 70.3,287 68.7,287.5 67.3,287.8 66.2,288.2 64.8,288.5 63.5,289 61.7,289.5 60.3,289.8 58.7,290.3 57.5,290.7 56.3,291.2 55,291.5 53.5,291.8 52.2,292.2 50.8,292.5 49.2,293.2 47.5,293.7 46.5,294 45.2,294.3 43.8,294.7 42.5,295.2 41.3,295.5 40.2,295.8 39,296.2 37.7,296.5 36.3,296.8 34.5,297.3 33.5,297.7 32.3,298 31,298.3 29.3,298.8 27.8,299.3 27,299.7 26.5,299.8 26,300 24.8,300.3 23.7,300.7 21.8,301.2 20.7,301.5 19.5,301.8 19,302 18.5,302 18.2,302.2 17,302.5 15.8,302.8 14.5,303 14,303 13.5,303 12.8,303.2 12,303.3 11,303.5 10,303.5 9,303.5 8.2,303.5 7.5,303.5 6.5,303.2 5.3,302.8 4.2,302.3 3.5,302.2 2.8,301.7 2.2,301.3 1.2,300.5 0.2,299.8 -0.7,299 -1.7,298 -2.5,296.8 -3.7,295.5 -4.2,294.7 -5,293.5 -5.7,292.2 -6.8,290.3 -7.5,289 -8,288 -8.2,287.7 -8.3,287.3 -8.7,287 -9.2,285.8 -9.8,284.7 -10.3,283.5 -10.8,282.7 -11.2,281.8 -11.8,280.7 -12.2,279.8 -12.8,278.7 -13.2,277.8 -14,276.5 -14.5,275.5 -15.2,274.5 -15.5,273.7 -16,272.8 -16.7,271.7 -17.2,270.8 -18,269.5 -18.5,268.5 -19.2,267.5 -19.7,266.7 -20.2,265.8 -21,264.5 -21.7,263.5 -22.3,262.5 -22.8,261.7 -23.8,260 -24.8,258.3 -25.7,257 -26,256.7 -26.8,255.7 -27.5,254.7 -28.2,253.5 -29,252.3 -30.2,251 -31.5,249.5 -32.2,248.5 -32.7,247.7 -33.2,246.7 -33.8,245.8 -35,244.3 -36.2,243 -37.2,241.7 -37.7,241 -38.3,239.8 -39.3,238.5 -40.5,237 -41.5,236 -42.3,235.2 -43,234.5 -43.8,233.2 -44.7,231.8 -45.5,230.5 -46.3,229.5 -47.3,228.3 -48.7,226.7 -49.7,225.5 -50.5,224.5 -51.2,223.7 -52.2,222.2 -53.2,220.5 -54,219.2 -54.5,218.5 -55.3,217.5 -56.2,216.3 -57.3,214.7 -58.3,213.3 -59.3,212.2 -60.3,210.8 -61.3,209.5 -62.5,208 -63.2,207.2 -64.2,205.8 -65.2,204.5 -66.3,203 -67.3,201.7 -68.2,200.5 -69,199.5 -70,198.3 -70.8,197 -71.7,195.7 -72.5,194.3 -73.7,192.8 -74.8,191.3 -75.5,190.5 -76.5,189.2 -77.7,187.7 -78.8,186.2 -79.8,184.8 -80.7,183.7 -81.5,182.5 -82.7,181 -83.8,179.5 -85,178 -85.5,177.3 -86.5,176 -87.5,174.7 -88.8,172.8 -89.7,171.7 -90.5,170.5 -91.3,169.3 -92.2,168.2 -93.3,166.5 -94.7,164.8 -96,163.2 -97,162 -97.8,160.8 -98.7,159.7 -100,157.8 -101.2,156.5 -102.3,155.2 -103.3,153.8 -104.2,152.7 -105,151.5 -105.8,150.3 -106.7,149.2 -108,147.2 -109.3,145.5 -111,143.2 -112.3,141.5 -113.7,139.7 -114.7,138.5 -115.5,137.5 -116.5,136 -117.5,134.5 -118.8,132.5 -119.8,131.3 -120.8,130.2 -121.8,128.8 -122.7,127.7 -123.5,126.3 -124.2,125.3 -125.5,123.5 -127,121.7 -128.3,120.2 -129.5,118.7 -130.5,117.3 -131.7,115.7 -132.3,114.8 -133.5,113.2 -134.5,111.8 -135.8,109.8 -136.7,108.7 -137.5,107.5 -138.3,106.3 -139.2,105.2 -140.2,103.5 -141.2,102 -142.2,100.3 -143.7,98.5 -144.8,97 -146,95.7 -146.8,94.3 -147.7,93.2 -149.2,91 -150.3,89.5 -151.5,88 -152.3,86.8 -153.2,85.7 -154.3,83.8 -155.3,82.5 -156.3,81 -157.3,79.7 -158.2,78.3 -159.2,76.8 -160.3,75.2 -161.5,73.7 -162.8,71.8 -164,70.3 -165.2,68.7 -166,67.7 -166.7,66.5 -167.8,64.8 -169,63 -170.3,61 -171.2,59.7 -172.2,58 -172.8,57 -173.7,55.5 -174.7,54 -175.7,52.3 -176.8,50.7 -177.5,49.5 -178.7,47.8 -179.5,46.5 -180.7,44.7 -181.5,43.2 -182.8,41 -184,39.3 -185,37.8 -185.7,36.8 -186.7,35.2 -187.7,33.5 -188.8,31.7 -189.5,30.3 -190.3,28.8 -191.2,27.2 -192.2,25.7 -193.2,24 -194.2,22.3 -195.2,20.7 -196.3,18.8 -197.2,17.7 -198,16.3 -199,14.8 -200,13.2 -201,11.5 -201.5,10.7 -202.3,9 -203.2,7.5 -204.7,4.8 -205.7,3 -206.7,1.2 -207,0.3 -207.8,-1 -208.7,-2.5 -210,-4.8 -211,-6.5 -212,-8.2 -212.7,-9.3 -213.5,-10.8 -214.3,-12.7 -215,-14 -215.7,-15.5 -216.7,-17.2 -217.7,-18.8 -218.7,-20.5 -219.5,-22 -220.3,-23.5 -221,-25.2 -221.7,-26.8 -222.7,-29 -223.7,-30.7 -224.7,-32.2 -225.5,-33.7 -226.5,-35.5 -227.2,-37 -227.8,-38.5 -228.5,-40 -229.3,-41.5 -230.3,-43.3 -231.2,-44.8 -231.8,-46.3 -232.7,-48.2 -233.5,-50 -234.7,-52.2 -235.5,-53.7 -236.3,-55.5 -237,-57 -237.7,-58.5 -238.3,-59.7 -239.2,-61.3 -239.8,-63 -240.7,-65 -241.5,-66.8 -242.5,-68.7 -243.5,-70.5 -244.2,-72 -245,-73.8 -245.7,-75.3 -246.5,-76.8 -247.2,-78.3 -248.2,-80.3 -249.2,-82.3 -250,-83.7 -250.7,-85 -251.5,-87.2 -252.3,-89.2 -253,-90.7 -253.8,-92.2 -254.7,-93.7 -255.3,-95.2 -256.2,-97 -257,-98.8 -258,-100.7 -258.5,-101.5 -259,-103 -259.8,-105 -260.8,-107.3 -261.8,-109 -262.8,-110.8 -263.5,-112.3 -264.2,-113.8 -264.8,-115.3 -265.7,-116.8 -266.5,-118.3 -267.3,-120.2 -268.2,-122 -269,-124 -269.8,-125.7 -270.7,-127.3 -271.3,-129 -271.8,-130.3 -272.5,-132 -273.5,-134 -274.3,-135.8 -275,-137.3 -275.7,-139 -276.7,-140.8 -277.7,-142.7 -278.7,-144.7 -279.3,-146.2 -280,-147.7 -280.8,-149.3 -281.7,-151 -282.5,-153 -283,-154.2 -283.7,-156 -284.5,-157.7 -285.3,-159.3 -286.2,-161.2 -286.8,-162.7 -287.5,-164.2 -288.5,-166 -289.5,-167.8 -290.3,-169.7 -291,-171.2 -291.7,-172.7 -292.7,-174.5 -293.3,-175.7 -294,-177.3 -294.8,-179.2 -295.7,-181 -296.5,-182.3 -297.5,-184.2 -298.5,-186 -299.7,-188.2 -300.3,-189.7 -301.2,-191.5 -301.8,-193 -302.7,-194.5 -303.5,-195.8 -304.5,-197.7 -305.5,-199.5 -306.7,-201.5 -307.7,-203.2 -308.5,-204.3 -309.5,-206 -310.5,-207.7 -311.5,-209.3 -312.3,-211 -313.2,-212.5 -314,-214.2 -314.7,-215.3 -315.7,-217 -316.7,-218.7 -317.7,-220.2 -318.8,-222 -320,-223.7 -321,-225.2 -321.8,-226.5 -322.3,-227.5 -323.7,-229.7 -325,-231.8 -326.7,-234.3 -327.8,-236.2 -328.7,-237.3 -330,-239.3 -331.2,-240.8 -332.3,-242.5 -333,-243.3 -333.7,-244.5 -334.8,-246.2 -336.3,-248.3 -337.8,-250 -338.8,-251.2 -339.8,-252.3 -341,-254 -342.2,-255.5 -343.3,-257.2 -344.2,-258.3 -345.3,-260.2 -346.5,-261.7 -347.8,-263.2 -348.8,-264.2 -350,-265.5 -351,-267 -352,-268.3 -353.2,-270 -354.3,-271.5 -356,-273.3 -357,-274.3 -358,-275.3 -359,-276.8 -360.3,-278.5 -361.7,-280.3 -362.7,-281.3 -363.8,-282.7 -365,-284 -366.7,-286 -367.8,-287.3 -369.2,-288.7 -369.8,-289.3 -370.8,-290.7 -372.2,-292.3 -373.5,-294 -374.7,-295.2 -375.8,-296.5 -377.2,-298 -378.7,-299.8 -380,-301.2 -381.3,-302.5 -382.3,-303.3 -383.3,-304.5 -384.7,-305.8 -386,-307.2 -387.3,-308.5 -388.5,-309.8 -389.8,-311.2 -391.5,-312.8 -392.8,-314.2 -394.2,-315.5 -395.3,-316.5" style="stroke: rgb(239, 68, 68); stroke-width: 7;"></polyline><polyline vector-effect="non-scaling-stroke" fill="none" points="-396.5,-317.7 -397.7,-319 -398.8,-320.2 -400.2,-321.3 -401.5,-322.7 -402.7,-323.8 -404,-325.2 -405.3,-326.5 -406.8,-328 -408.2,-329.3 -409.5,-330.5 -410.7,-331.7 -412,-333 -413.3,-334.3 -414.5,-335.7 -416.3,-337.3 -418,-338.8 -419.5,-340 -420.3,-340.8 -421.2,-341.7 -422,-342.5 -423.5,-343.8 -425,-345.3 -426.5,-346.8 -427.7,-348 -429,-349.2 -430.5,-350.7 -431.8,-352 -433,-353.2 -435.3,-355.3 -438,-357.7 -440.7,-360.2 -442,-361.3 -442.7,-362 -444,-363.2 -445.3,-364.5 -446.8,-366 -447.7,-366.8 -449.2,-368.3 -450.7,-369.8 -452.3,-371.5 -453.3,-372.3 -454.7,-373.7 -456,-375 -457.5,-376.5 -458.5,-377.5 -459.7,-378.7 -461,-380 -462.3,-381.3 -463.8,-382.8 -465.2,-384.2 -467,-385.8 -468.5,-387 -469.8,-388.2 -470.5,-388.8 -471.8,-390.2 -473.2,-391.3 -474.7,-392.8 -475.5,-393.8 -476.8,-395.2 -478.2,-396.3 -479.5,-397.7 -481,-399.2 -482.3,-400.5 -483.5,-401.5 -484.3,-402.5 -485.7,-403.8 -487.2,-405.3 -488.5,-406.5 -490,-407.8 -491.7,-409.5 -493.3,-411.2 -495,-412.8 -496.3,-414 -497.7,-415 -498.5,-415.7 -499.5,-416.5 -500.3,-417.5 -501.5,-418.8 -502.5,-420 -504,-421.3 -505.2,-422.3 -506.5,-423.5 -508,-424.8 -509.3,-426 -510.5,-427 -511,-427.5 -511.8,-428.3 -512.7,-429.2 -513.8,-430.3 -514.7,-431.2 -515.7,-432 -516.2,-432.5 -516.8,-433.2 -517.5,-434 -518.5,-434.8 -519.2,-435.5 -519.8,-436.2 -520.5,-436.8 -521.2,-437.5 -522.3,-438.5 -523.3,-439.3 -524.3,-440.2 -524.8,-440.7 -525.3,-441.2 -525.8,-441.7 -528.2,-444.2 -530.5,-447.3 -533,-450.3 -533.3,-451.3 -533.7,-451.7 -533.8,-452.3 -534,-455 -533.8,-457.7 -533.5,-460.8 -533,-461.7 -532.2,-463 -531.5,-463.7 -530.5,-464.5 -528.5,-465.5 -526.3,-466.3 -524.3,-467 -523.2,-467.3 -521.8,-467.7 -520.7,-468 -519.8,-468 -518.5,-468.3 -517.2,-468.7 -516,-469 -515.5,-469 -514.8,-469 -514,-469.2 -513,-469.3 -511.3,-469.7 -509.8,-469.8 -508.5,-470 -508,-470.2 -507.5,-470.3 -506.8,-470.5 -506,-470.5 -504,-470.7 -502.2,-471 -500.5,-471.3 -500,-471.5 -499.5,-471.5 -497.8,-471.7 -496.2,-472 -494.5,-472.3 -493.8,-472.5 -493.2,-472.5 -492.2,-472.7 -490.3,-473 -488.5,-473.3 -487,-473.5 -486.2,-473.5 -485.3,-473.7 -483.8,-473.8 -481.8,-474.2 -479.8,-474.3 -478.3,-474.5 -477.7,-474.7 -476.5,-474.8 -474.7,-475.2 -472.7,-475.3 -471.2,-475.5 -470.2,-475.5 -469.3,-475.7 -468,-475.8 -465.8,-476.2 -463.7,-476.3 -461.8,-476.5 -461,-476.7 -459.7,-476.8 -457.5,-477.2 -455.5,-477.3 -453.8,-477.5 -452.7,-477.5 -451.3,-477.7 -449.7,-477.8 -447.3,-478.2 -445.2,-478.3 -443.3,-478.5 -442.3,-478.7 -440.8,-478.8 -439.5,-479 -437.8,-479 -435.7,-479.2 -433.3,-479.3 -431.5,-479.5 -430.3,-479.7 -429,-479.8 -427.2,-480 -425,-480 -422.8,-480 -420.2,-480.2 -418.2,-480.3 -416.3,-480.5 -415.5,-480.5 -414,-480.7 -412.2,-480.8 -410,-481 -408.2,-481 -406.3,-481 -404.3,-481 -402.2,-481 -400.2,-481 -397.7,-481.2 -395.5,-481.3 -393.5,-481.5 -392.2,-481.5 -390.5,-481.5 -388.3,-481.5 -386.7,-481.5 -384.8,-481.5 -383.2,-481.5 -381,-481.5 -379,-481.7 -377,-481.8 -375,-482 -372.8,-482 -370.5,-482 -367.8,-482 -365.2,-482 -363,-482 -360.7,-481.8 -359,-481.7 -356.5,-481.5 -355,-481.5 -352.8,-481.5 -351,-481.5 -349,-481.5 -346.8,-481.3 -344.7,-481.2 -342.2,-481 -339.8,-481 -338,-481 -336.2,-481 -334.5,-481 -332.3,-480.8 -330,-480.7 -328,-480.5 -326.2,-480.5 -324.8,-480.5 -322.5,-480.3 -320,-480.2 -317.2,-479.8 -315,-479.7 -312.8,-479.5 -311,-479.5 -309.5,-479.5 -307.7,-479.3 -305.3,-479 -303,-478.7 -301.2,-478.5 -299.8,-478.5 -297.2,-478.2 -294.8,-477.8 -292.3,-477.5 -291,-477.5 -288.7,-477.2 -286.5,-476.8 -284.2,-476.5 -282.3,-476.5 -280.3,-476.3 -278,-476 -275.8,-475.7 -273.8,-475.5 -271.5,-475.2 -269,-474.8 -266.5,-474.5 -265,-474.3 -262.8,-474 -260.5,-473.7 -258.2,-473.5 -256,-473.2 -253.8,-472.8 -250.8,-472.3 -248.8,-472 -246.2,-471.5 -244,-471 -241.3,-470.7 -239.3,-470.5 -237,-470.2 -234.7,-469.8 -232.5,-469.5 -229.8,-469.2 -227.7,-468.8 -224.7,-468.2 -222.8,-467.8 -220,-467.3 -218,-467 -214.7,-466.5 -212.3,-466 -209,-465.5 -207,-465 -204.2,-464.5 -201.8,-464.2 -199.5,-463.8 -196.8,-463.5 -194.7,-463 -192.3,-462.7 -190.7,-462.2 -187.8,-461.7 -185.2,-461.2 -182.2,-460.7 -179.8,-460.3 -177.3,-459.8 -174.7,-459.5 -172.3,-459 -170.2,-458.7 -168,-458.3 -166,-458 -162.7,-457.5 -160.3,-457 -156.8,-456.5 -154.7,-456 -152.3,-455.7 -150.2,-455.3 -147.8,-455 -144.7,-454.5 -142.3,-454 -140.2,-453.7 -138.2,-453.3 -136.2,-453 -133,-452.5 -130.5,-452 -128.2,-451.7 -125.8,-451.3 -123.3,-451 -120.7,-450.7 -118.7,-450.2 -116,-449.7 -113,-449 -110.5,-448.7 -108.2,-448.2 -105.8,-447.8 -103.5,-447.5 -100.8,-447.2 -98.7,-446.8 -95.3,-446.2 -93.2,-445.8 -90,-445.2 -88,-444.8 -85,-444.3 -83,-444 -80.2,-443.5 -78,-443 -75.7,-442.7 -73.2,-442.2 -70.8,-441.8 -68,-441.3 -65.3,-441 -62.8,-440.7 -60.2,-440.2 -58.3,-439.8 -55.2,-439.2 -52.7,-438.8 -50.2,-438.5 -47.7,-438.2 -45.3,-437.8 -41.8,-437.2 -39.7,-436.8 -37.3,-436.3 -35.5,-436 -32.5,-435.5 -29.7,-435 -27,-434.7 -24.3,-434.2 -21.7,-433.8 -19.3,-433.5 -17.2,-433.2 -15,-432.8 -12,-432.3 -9.3,-432 -6.2,-431.7 -3.8,-431.5 -2.2,-431.3 0.5,-431 3.2,-430.7 6,-430.5 8.3,-430.2 11,-429.8 13.5,-429.5 16,-429.2 18.3,-428.8 21.3,-428.5 23.3,-428.5 25.8,-428.3 28.2,-428 30.7,-427.7 33,-427.3 35.3,-427.2 38.2,-427 40.7,-426.8 42.8,-426.7 44.2,-426.5 46.7,-426.3 49.3,-426.2 52.5,-426 54.7,-426 56.5,-425.8 59.3,-425.5 62.2,-425.2 65,-425 67.3,-425 69.7,-425 72.2,-425 73.8,-425 76.2,-424.7 78.8,-424.3 81.8,-424 84,-424 86.3,-424 88.5,-424 90.8,-424 92.8,-424 95.2,-424 97.5,-424 100.3,-424 102.7,-424 104.8,-424 106.3,-424 108.7,-423.8 111,-423.7 113.7,-423.3 116.2,-423.2 118.8,-423 121.5,-423 123.8,-423 126.2,-423 128.2,-423 130.5,-423 132.8,-423 135,-423 137,-423 139.2,-423 141.8,-423 144.2,-423 146.2,-423 148,-423 150.2,-423 152.5,-423 154.3,-423 156.7,-423 158.5,-423 160.8,-423 162.2,-422.8 164.2,-422.5 166.5,-422.2 169.3,-422 172,-422 174,-422 175.8,-422 177.5,-422 179.7,-422 181.7,-422 183.8,-422 185.8,-422 188,-422 190,-422 192,-422 194.2,-422 196,-422 198,-422 199.8,-422 202.2,-422 204.2,-422 206.3,-422 207.8,-422 209.5,-421.8 211,-421.7 213,-421.5 214.5,-421.5 216,-421.5 217.2,-421.5 218.3,-421.5 220.2,-421.3 222,-421.2 224.2,-421 225.5,-421 226.8,-421 227.8,-421 228.8,-421 229.8,-421 231,-421 232.3,-421 233.7,-421 235,-421 236.3,-421 237.7,-421 239,-421 240.7,-420.8 242.3,-420.7 243.8,-420.5 244.5,-420.5 245,-420.5 245.5,-420.5 246.8,-420.3 248,-420 249.2,-419.7 249.5,-419.5 250,-419.5 250.5,-419.5 251.5,-419.2 252.5,-418.8 253.5,-418.5 254.2,-418.3 255.3,-417.7 256.5,-417 257.5,-416.5 258,-416.3 259,-415.8 259.8,-415.2 260.7,-414.7 261.2,-414.2 262.3,-413.2 264.3,-411.2 266,-409.3 267.2,-408 267.3,-407.5 268.3,-406 269.2,-404.5 270,-403 270.2,-402.3 270.5,-401.7 271,-400.5 271.3,-399.5 271.5,-398.5 271.7,-398 272,-396.5 272.3,-395 272.5,-393.5 272.5,-393 272.5,-392.5 272.7,-391.8 272.8,-391 273,-390 273,-389.2 272.8,-388.2 272.7,-387.2 272.5,-386 272.5,-385.2 272.5,-384.5 272.5,-384 272.5,-383.5 272.3,-382.3 272,-381.2 271.5,-379.8 271.2,-379.2 270.8,-378.2 270.3,-376.8 269.8,-375.5 269.5,-374.5 269.2,-373.8 268.5,-372.7 267.7,-371.5 267.2,-370.5 266.3,-369.3 265.5,-367.8 264.5,-366.3 264.2,-365.5 263.2,-364.2 262.2,-362.8 261,-361.2 260.5,-360.3 260.2,-359.5 259.8,-359.2 259.7,-358.8 258.8,-357.8 258,-356.7 257,-355.2 256.5,-354.3 256.2,-353.5 255.8,-353 254.7,-351.5 253.3,-350 252,-348.2 251.5,-347.3 251,-346.5 250.7,-346 249.8,-344.8 249,-343.7 248,-342.5 247.7,-342 246.8,-340.8 246,-339.8 245,-338.8 244.7,-338.5 244.3,-338 244,-337.5 243,-336.5 241.7,-335 240.5,-333.5 239.8,-332.5 239.5,-332 239,-331.5 237.8,-330.3 236.7,-329.2 235,-327.3 233.5,-325.5 232,-323.7 231,-322.5 230.5,-322 229.8,-321.5 229,-320.8 228,-320 227.2,-319.2 226,-318 225,-317 224,-316 223.5,-315.5 222.5,-314.7 221.3,-313.7 220,-312.5 219,-311.5 218,-310.5 217.2,-309.7 216.5,-309.2 215.7,-308.7 214.2,-307.8 212.5,-306.7 211.2,-305.7 210.5,-305 209.3,-304 208.2,-303 206.8,-302 205.8,-301.5 204.8,-301 203.3,-300 202.2,-299 200.8,-298 199.7,-297.2 198.5,-296.5 197.5,-295.8 196,-295 194.5,-294 193,-293.2 192,-292.7 191,-292.2 189.7,-291.3 188.3,-290.5 187,-289.8 185.5,-289 184.3,-288.3 182.8,-287.5 181.8,-287 180.5,-286.3 179,-285.3 177.5,-284.5 176.3,-283.8 175,-283.3 173.3,-282.7 171.7,-282 170,-281.2 168.7,-280.5 167.3,-279.8 166.7,-279.7 165,-279 163,-278.2 160.8,-277.3 159.3,-276.7 158.2,-276.2 156.7,-275.5 155.3,-275 153.5,-274.5 152.2,-274 150.3,-273.5 149,-273 147,-272.5 145.5,-272 143.5,-271.5 142,-271 140,-270.5 138.5,-270 136.5,-269.5 135,-269.2 133.7,-268.8 132,-268.5 130.3,-268 128.5,-267.7 127.3,-267.5 125.3,-267.2 123.3,-266.8 121.5,-266.5 119.5,-266.2 117.7,-265.8 115.8,-265.5 114.7,-265.3 112.3,-265 110,-264.7 108.2,-264.5 107.3,-264.5 106,-264.3 104.3,-264.2 102.3,-264 100.3,-264 98.7,-264 96.8,-264 95.2,-264 93,-264 91.2,-264 89.3,-264 87.5,-264 85.7,-264 83.8,-264 82.2,-264 80.3,-264 78.3,-264 76.3,-264 74.3,-264 72.3,-264.2 70.7,-264.3 69,-264.5 67.8,-264.5 65.7,-264.7 63.5,-265 61.2,-265.3 59.7,-265.5 57.7,-265.7 55.7,-266 53.7,-266.3 51.8,-266.7 49.8,-267 47.5,-267.3 45.8,-267.5 44.7,-267.7 42.8,-268 41,-268.3 39,-268.5 37,-268.8 34.8,-269.2 32.7,-269.5 30.8,-269.8 28.8,-270.2 26.8,-270.5 24.8,-270.7 22.8,-271 20.8,-271.3 18.8,-271.7 16.7,-272 14.5,-272.3 13,-272.5 11,-272.8 8.8,-273.2 6.8,-273.5 4.8,-273.7 3,-274 -0.2,-274.5 -2.3,-274.8 -4.8,-275.2 -6.2,-275.3 -8.3,-275.7 -10.2,-275.8 -12,-276.2 -14,-276.5 -16.3,-276.8 -18.7,-277 -19.8,-277.2 -21.7,-277.5 -23.8,-277.8 -26.2,-278.2 -28.2,-278.5 -30.3,-278.8 -32.5,-279 -34,-279.2 -36.2,-279.5 -38.2,-279.8 -40.3,-280.2 -42,-280.5 -44,-280.8 -46,-281 -47.3,-281.2 -49.2,-281.5 -51.2,-281.8 -53.2,-282 -55.3,-282.3 -57.3,-282.7 -59.7,-283 -61,-283 -62.2,-283.2 -63.8,-283.5 -66.2,-283.8 -68.5,-284 -69.8,-284.2 -71.5,-284.5 -73.5,-284.8 -75.7,-285 -76.8,-285.2 -78.5,-285.5 -80,-285.8 -82,-286 -83.3,-286.2 -84.8,-286.3 -85.8,-286.5 -86.5,-286.5 -87.8,-286.7 -89.7,-286.8 -91.7,-287 -93,-287 -93.8,-287 -95.2,-287.2 -96.3,-287.3 -97.8,-287.5 -98.7,-287.5 -100.2,-287.5 -101.3,-287.5 -102.8,-287.5 -103.7,-287.5 -105.2,-287.5 -107.2,-287.2 -109.2,-286.8 -110.5,-286.5 -111.2,-286.5 -112.7,-286.3 -114.2,-286.2 -115.5,-285.8 -116.2,-285.7 -117.7,-285.3 -119.2,-285.2 -120.7,-284.8 -121.3,-284.7 -122.8,-284.3 -124.2,-284 -126.2,-283.5 -127.3,-283.2 -128.5,-282.8 -129.7,-282.5 -131.2,-281.8 -132.7,-281.3 -133.8,-280.7 -134.7,-280.3 -136.2,-279.5 -137.5,-279 -138.8,-278.3 -139.8,-277.8 -140.7,-277.2 -142.3,-276.3 -143.7,-275.7 -145.5,-274.7 -146.5,-273.8 -147.5,-273.2 -148.7,-272.3 -149.8,-271.5 -151,-270.5 -151.5,-270 -152.7,-269 -154,-267.8 -155.3,-266.8 -156.2,-266.2 -157,-265.5 -158,-264.5 -159,-263.5 -160,-262.5 -160.8,-261.5 -161.7,-260.5 -162.5,-259.3 -163.8,-257.7 -165.2,-255.8 -166.3,-254.3 -166.8,-253.5 -167.2,-253 -168,-251.7 -169,-250.3 -169.8,-248.8 -170.5,-247.5 -171.2,-246.2 -171.8,-245 -172.2,-244.5 -172.8,-243.2 -173.5,-241.8 -174.3,-240.2 -174.8,-238.7 -175.5,-237.2 -176,-235.5 -176.5,-234.3 -177,-232.7 -177.3,-231.5 -177.7,-230.3 -178,-229.3 -178.5,-227.2 -179,-225.2 -179.3,-223.5 -179.5,-222.8 -179.8,-221.5 -180.2,-219.5 -180.5,-217.7 -180.5,-216.3 -180.5,-215.7 -180.7,-214 -180.8,-212.2 -181,-209.8 -181,-208.5 -181,-206.8 -181,-205.7 -181,-203.8 -180.8,-201.8 -180.7,-199.8 -180.5,-198.3 -180.5,-197.3 -180.2,-195.2 -179.8,-193.2 -179.5,-191.3 -179.3,-190.7 -179,-189 -178.7,-187.5 -178,-185 -177.5,-183.5 -176.8,-181.8 -176.7,-181.2 -176,-179.3 -175.3,-177.7 -174.5,-175.5 -173.8,-174.2 -173.2,-172.8 -172.3,-171.2 -171.7,-169.8 -171,-168.3 -170.3,-167 -169.7,-165.5 -168.8,-163.8 -168.2,-162.8 -167.2,-161.3 -166.3,-160.2 -165.5,-158.7 -164.8,-157.3 -164.2,-156 -163.2,-154.3 -162.3,-153.2 -161.3,-151.5 -160.5,-150 -159.5,-148.5 -158.5,-147 -157.8,-146 -157,-144.3 -156.3,-143.2 -155.2,-141.3 -154.3,-140.2 -153.3,-138.5 -152.3,-137 -151.3,-135.3 -150.5,-134.2 -149.8,-132.8 -149.2,-131.5 -148.2,-129.5 -147.3,-128.2 -146.2,-126.3 -145.3,-125.2 -144.2,-123.2 -143.3,-121.8 -142.5,-120.3 -141.5,-118.8 -140.5,-117.2 -139.7,-115.7 -139.2,-114.5 -138.3,-113 -137.3,-111.3 -136.3,-109.7 -135.3,-108 -134.3,-106.3 -133.5,-105.2 -132.5,-103.5 -131.5,-102 -130.3,-100 -129.7,-99 -129,-97.5 -128.3,-96.2 -127.3,-94.3 -126.3,-92.8 -125.3,-91.2 -124.7,-90 -123.5,-88 -122.5,-86.5" style="stroke: rgb(59, 130, 246); stroke-width: 7;"></polyline><polyline vector-effect="non-scaling-stroke" fill="none" points="-121.5,-84.8 -121,-83.8 -120,-82 -119,-80.3 -118,-78.8 -117.3,-77.8 -116.7,-76.7 -115.7,-75 -115,-73.7 -114,-71.8 -113.3,-70.7 -112.2,-68.8 -111.3,-67.7 -110.2,-66 -109.5,-64.8 -108.8,-63.7 -108.3,-62.7 -107.7,-61.8 -107,-60.5 -106.3,-59.2 -105.3,-57.3 -104.5,-56 -103.8,-55 -103.5,-54.5 -103,-53.7 -102,-52 -100.8,-50.2 -99.8,-48.7 -99.3,-48 -99,-47.5 -98.5,-46.7 -98,-45.8 -97.3,-44.5 -96.7,-43.5 -96,-42.5 -95.2,-41.5 -94.5,-40.5 -93.8,-39.5 -93,-38.3 -92.2,-37.2 -91.2,-35.8 -90.7,-35.2 -90,-34.5 -89.3,-33.5 -88.5,-32.5 -87.5,-31.3 -86.5,-30.5 -85.5,-29.5 -84,-28.2 -82.8,-27 -81.8,-26.2 -81.5,-25.8 -81,-25.5 -80.5,-25 -79.5,-24.2 -78,-23 -76.5,-21.8 -75.5,-21 -74.5,-20.3 -73.5,-19.7 -72.5,-19 -72,-18.7 -70.7,-17.8 -69.2,-17 -67.7,-16.2 -66.3,-15.5 -65.2,-15 -64,-14.3 -63.2,-14 -61.8,-13.3 -60.5,-12.8 -59.2,-12.2 -57.5,-11.7 -55.7,-11 -54.2,-10.7 -53.5,-10.5 -52.5,-10.2 -51.3,-9.8 -49.3,-9.3 -47.8,-9 -46.3,-8.7 -45.7,-8.5 -44.3,-8.3 -42.5,-8.2 -40.7,-7.8 -39.3,-7.7 -38.7,-7.5 -37.2,-7.3 -35.5,-7.2 -33.5,-7 -32,-7 -30.5,-7 -29.2,-7 -27.8,-7 -25.8,-7.2 -23.8,-7.3 -22.2,-7.5 -21.5,-7.5 -20.5,-7.7 -19.3,-7.8 -17.2,-8.2 -15.5,-8.3 -13.2,-8.8 -11.8,-9.2 -10.5,-9.5 -10,-9.5 -8.7,-9.8 -7.3,-10.2 -5.3,-10.8 -4.2,-11.2 -2.5,-11.8 -1.3,-12.3 0.3,-13 1.8,-13.7 3.7,-14.3 5,-15 6.3,-15.7 7.8,-16.5 9.3,-17.3 10.5,-18 11.3,-18.7 12.2,-19.2 13.8,-20.2 15.3,-21.2 16.8,-22.3 17.5,-23 18.8,-24.2 20.2,-25.3 21.7,-26.5 22.3,-27 23.5,-28 25,-29.5 26.5,-31 27.5,-32 28.5,-33.2 29.5,-34.5 30.5,-35.8 31.3,-36.8 32.2,-37.7 33,-38.7 34,-40 35,-41.5 36,-42.8 37,-44.3 38,-45.7 39,-47.2 39.7,-48.3 40.3,-49.5 41,-50.5 42,-51.8 43,-53.2 44,-54.5 44.5,-55 45.2,-55.7 46.3,-57.2 47.5,-58.7 48.5,-60 49.2,-60.7 50.2,-61.7 51.7,-63.5 53,-65.2 53.8,-66.5 54.3,-67 55,-67.7 56,-68.7 57.2,-70 58.2,-71.2 59.3,-72.3 60.3,-73.3 61.5,-74.5 62.5,-75.5 63.3,-76.3 64.5,-77.7 65.5,-78.8 66.7,-80 67.8,-80.8 69.2,-81.8 70.5,-83 71.5,-84 72.7,-85.2 74,-86.3 75.3,-87.5 76.3,-88.3 77,-89 78,-89.8 79.2,-90.7 80.8,-91.8 82.2,-92.8 83.8,-94.2 85,-95.2 86,-95.8 87,-96.3 88,-96.8 89.3,-97.7 91,-98.8 92.7,-100 94.2,-101 95.3,-101.8 96.5,-102.7 98.2,-103.7 99.3,-104.3 100.7,-105 102,-105.8 103.5,-106.7 104.8,-107.3 106.2,-107.8 107.8,-108.7 109.7,-109.7 110.8,-110.5 112.5,-111.2 114,-111.8 115.5,-112.5 116.2,-112.8 117.8,-113.5 119.5,-114.2 121.5,-115 122.7,-115.5 124.3,-116.2 125.7,-116.7 127.3,-117.3 129,-118 130.7,-118.7 132.3,-119.3 133.7,-119.7 135.5,-120.3 136.8,-120.7 138.8,-121.3 140.3,-121.7 142.3,-122.3 143.7,-122.7 145.5,-123.2 146.8,-123.5 148.8,-124 150.3,-124.5 152.5,-125 153.8,-125.3 155.2,-125.7 156.8,-126 158.7,-126.3 160.3,-126.7 162.2,-127 164,-127.3 165.8,-127.7 166.8,-127.8 168.2,-128 170.7,-128.2 173,-128.5 174.8,-128.8 175.8,-129 177.2,-129 179.5,-129.2 181.5,-129.3 183.2,-129.7 184.5,-129.8 185.8,-130 187.8,-130 189.2,-130 191.2,-130 193,-130 195.2,-130 197.2,-130 198.7,-130 200.3,-130 202.7,-130.2 205,-130.5 206.8,-130.8 207.7,-131 208.8,-131 210.3,-131 212.5,-131 214.2,-131 216.2,-131 217.8,-131 220,-131 221.5,-131 223,-131 224.7,-131 227.5,-131.2 229.8,-131.3 231.7,-131.5 232.5,-131.5 233.8,-131.7 235.3,-131.8 237,-132 238.7,-132 240.3,-132 242,-132 243.7,-132 245.7,-132 247.5,-132 249.3,-132 251.5,-132.2 253.5,-132.3 255.2,-132.5 256.3,-132.5 257.5,-132.5 259,-132.5 260.7,-132.5 262.3,-132.5 264,-132.7 265.5,-132.8 267.3,-133 269,-133 270.5,-133 272.2,-133 274.7,-133.2 276.8,-133.3 278.7,-133.5 279.3,-133.5 280.3,-133.5 281.7,-133.5 283.3,-133.5 285.2,-133.5 286.8,-133.5 288.7,-133.7 290.3,-133.8 291.7,-134 293,-134 294.3,-134 296.2,-134 298,-134 300.5,-134.2 302.5,-134.3 304,-134.5 304.8,-134.5 306.2,-134.5 307.5,-134.5 309,-134.5 310.5,-134.7 312.5,-134.8 314.3,-135 316,-135 317.7,-135 319.3,-135 321.2,-135 322.7,-135 325,-135.2 327,-135.3 328.8,-135.5 329.7,-135.5 331,-135.5 332.3,-135.5 334,-135.5 335.5,-135.7 337.3,-135.8 339.2,-136 341,-136 342.5,-136 344,-136 345.5,-136 347.3,-136 349,-136 351.3,-136.2 353.3,-136.3 355.2,-136.5 356.2,-136.5 357.5,-136.5 359.2,-136.5 360.8,-136.7 362.5,-136.8 363.7,-137 365.5,-137 367,-137 368.8,-137 370.2,-137 372,-137 374.3,-137.2 376.3,-137.3 378,-137.5 379.3,-137.5 381,-137.5 382.5,-137.5 384.2,-137.5 385.8,-137.7 387.5,-137.8 389.2,-138 390.3,-138 392,-138 393.5,-138 395.3,-138 397.5,-138 400,-138.2 402.3,-138.3 404,-138.5 405,-138.5 406.3,-138.5 407.5,-138.7 409.2,-138.8 410.8,-139 413,-139 415,-139 416.7,-139 418.3,-139 420,-139 422,-139 423.7,-139 425.8,-139.2 427.7,-139.3 429.3,-139.5 430.3,-139.5 431.5,-139.7 433.5,-139.8 435.2,-140 437,-140 438.7,-140 440.3,-140 442,-140 443.5,-140 445.5,-140 447.3,-140 449.7,-140.2 451.7,-140.3 453.3,-140.5 454.3,-140.5 455.5,-140.5 457.2,-140.7 459,-140.8 460.5,-141 462,-141 463.7,-141 465.8,-141 468,-141 469.8,-141 471.5,-141 473.2,-141 475.3,-141.2 477.5,-141.3 479.2,-141.5 480.5,-141.7 482,-141.8 483.8,-142 485.7,-142 487,-142 488.8,-142 490.5,-142 492.7,-142 494.3,-142 495.7,-142 497,-142 499.3,-142.2 501.8,-142.5 504,-142.8 505.3,-143 506.8,-143 508.5,-143 510.2,-143 511.5,-143 513.3,-143 515.2,-143 517.5,-143 519.3,-143 521.2,-143.2 522.8,-143.3 525.3,-143.7 527.5,-143.8 529.3,-144 530.3,-144 531.7,-144 533.5,-144 535.5,-144 537.7,-144 539.3,-144 541,-144.2 542.5,-144.3 544.7,-144.5 547.5,-144.7 550,-144.8 552,-145 552.8,-145 554.2,-145 555.8,-145 558,-145 560,-145 562,-145 563.7,-145.2 565.3,-145.3 567.2,-145.5 569.5,-145.7 571.5,-145.8 573,-146 574.3,-146 576,-146 578,-146 580,-146 581.7,-146 583.3,-146 585.2,-146 587.2,-146.2 589.2,-146.3 591.5,-146.7 593.7,-146.8 595.5,-147 596.7,-147 598.2,-147 599.8,-147 601.5,-147 603.3,-147 605.2,-147 607,-147 608.7,-147 610.7,-147 612.3,-147 614,-147 615.5,-147 617.5,-147 619.3,-147 621,-147 622.5,-147 624.5,-146.8 626.2,-146.7 627.7,-146.5 629.5,-146.3 631.3,-146 633.2,-145.7 634,-145.5 635,-145.3 636.5,-145 637.8,-144.5 640,-144 641.5,-143.5 643.2,-143.2 644.3,-142.7 645.5,-142.3 646.8,-141.7 648.2,-141 649.5,-140.3 651.3,-139.5 652.7,-138.8 654.2,-138 655.5,-137.3 656.8,-136.7 658.2,-136 658.8,-135.5 660.2,-134.5 661.5,-133.7 662.7,-132.8 663.5,-132.3 664.3,-131.5 665.7,-130.5 667.3,-129.2 668.8,-128 670,-127 670.7,-126.3 671.3,-125.7 672,-124.8 673,-123.5 674,-122.2 675,-121 675.8,-120 676.8,-118.8 678.2,-117.2 679,-116 679.7,-115 680,-114.5 680.7,-113.5 681.3,-112.3 682.3,-110.3 683.2,-108.8 684,-107.5 684.7,-106.2 685.3,-104.8 685.8,-103.5 686.2,-102.8 686.7,-101.7 687.2,-100.3 687.8,-98.7 688.3,-97.2 689,-95.7 689.5,-94 690,-92.7 690.3,-91.3 690.8,-90 691.2,-88.5 691.7,-87.2 692,-85.8 692.5,-84.5 693,-82.5 693.3,-81.2 693.8,-79.3 694.2,-78.2 694.8,-76.5 695.2,-75.3 695.8,-73.5 696.2,-72.2 696.8,-70.3 697.2,-69.2 697.8,-67.3 698.2,-66 698.7,-64.7 699.2,-62.7 699.8,-60.8 700.3,-58.8 700.8,-57.7 701.2,-56.3 701.7,-55.2 702.2,-53.3 702.8,-51.7 703.3,-49.8 703.7,-49.2 704,-47.7 704.5,-46.3 705,-44.2 705.5,-42.8 705.8,-41.5 706.5,-40 707,-38.3 707.7,-36.7 708,-35.3 708.5,-34.2 709,-32.3 709.5,-31.2 710,-29.2 710.5,-27.8 711,-25.8 711.5,-24.3 712,-22.8 712.3,-21.8 712.7,-21 713.2,-19.2 713.8,-17.3 714.3,-15.7 714.7,-15 715,-13.7 715.5,-12.3 716,-10.5 716.3,-9.3 716.8,-7.5 717.2,-6.2 717.7,-5 718,-3.7 718.5,-2.3 719,-0.3 719.3,0.8 719.8,2.5 720.2,3.7 720.8,5.3 721.2,6.5 721.8,8.2 722.2,9.3 722.7,11.2 723,12.3 723.3,13.5 723.7,14.2 724,15.7 724.5,17.2 724.8,18.5 725.3,20 725.8,21.5 726.3,23.2 726.8,24.3 727.2,25.5 727.5,26.7 727.8,28 728.2,29.3 728.8,31.2 729.2,32.3 729.5,33.5 729.8,34.5 730.2,35.5 730.5,36.5 730.7,37 731,38.3 731.3,39.7 731.5,41 731.7,41.5 732,42.8 732.3,44.2 732.5,45.5 732.7,46 732.8,46.8 733,47.8 733,49 733,50 733,51 733,51.8 733,52.5 733,53 733,53.5 732.8,54.7 732.7,55.8 732.3,57 732.2,57.5 731.8,58.5 731.7,59.5 731.3,60.3 731.2,60.7 731,61 730.7,61.8 730.3,62.7 729.7,63.7 729,64.8 728.2,66 727.5,66.8 727.2,67.2 726.8,67.3 726.7,67.7 726.2,68.2 725.5,69 724.5,69.8 723.5,70.7 722.3,71.7 721,72.8 719.8,73.8 719.2,74.5 718.8,74.8 718.5,75.2 717,76.2 715.3,77.5 713.7,78.8 712.5,79.7 711.3,80.3 709.8,81.2 708.2,82.2 706,83.7 704.2,85 703,86 701.8,86.7 700.7,87.3 699.5,88 698.7,88.5 697.8,89 696.3,89.8 695.2,90.7 693.5,91.8 692.5,92.7 691,93.5 690,94 688.5,94.8 687.3,95.7 685.8,96.7 684.8,97.2 683.3,98 682.2,98.7 681,99.3 679.7,100 678.3,100.7 676.8,101.5 675.2,102.5 673.3,103.5 671.7,104.3 671,104.7 669.5,105.5 668,106.3 666.5,107.2 665.5,107.7 664.3,108.3 662.7,109 661,109.7 659.5,110.3 657.8,111 656.2,111.8 654.3,112.7 653.2,113.5 652.5,113.8 651,114.5 649.3,115.2 647.7,115.8 645.8,116.7 644.2,117.3 642.5,118.2 641.8,118.5 640.2,119.2 638.5,119.8 636.8,120.3 636.2,120.7 635.5,120.8 633.3,121.7 631.2,122.5 628.8,123.3 627.7,123.8 626.3,124.2 625.2,124.7 623.3,125.2 621.5,125.8 619.7,126.3 618.3,126.8 617.2,127.2 615.3,127.8 613.5,128.3 611.7,129 610.3,129.3 608.8,129.8 607.3,130.2 605.2,131 603.7,131.5 602,132.2 601,132.3 599.3,132.8 597.7,133.2 595.3,133.8 593.8,134.2 592.5,134.7 591.2,135 589.7,135.5 587.3,136 585.8,136.5 583.8,137 582.5,137.5 580.7,138 579.3,138.5 578.2,138.8 576.5,139.3 574.8,139.7 573.2,140 571.7,140.3 570.3,140.7 568.2,141.3 566.3,141.8 564.5,142.5 563.3,142.8 561.8,143.3 560.3,143.7 558.2,144.3 556.5,144.8 554.7,145.3 553.7,145.7 552.8,145.8 551.3,146.3 549.3,146.8 547.3,147.5 545.3,148 543.8,148.5 542.3,148.8 541,149.3 539.5,149.7 537.3,150.3 535.8,150.7 533.8,151.3 532.7,151.7 531.3,152 529.8,152.3 528.3,152.7 526.5,153.3 525.3,153.7 523.5,154.3 522,154.7 520,155.3 518.7,155.7 516.8,156.3 515.2,156.8 513.5,157.5 512.3,157.8 510.7,158.3 508.7,158.8 506.7,159.3 505.7,159.7 504.3,160 503,160.5 501,161 499.7,161.5 497.8,162 496.5,162.5 494.5,163 493.2,163.3 492,163.7 490.7,164 489.2,164.5 487,165 485.5,165.5 483.7,166 482.3,166.5 480.5,167 478.5,167.7 476.7,168.2 475.3,168.7 474,169 472.5,169.5 470.3,170 468.8,170.3 467.5,170.7 466.2,171.2 464.8,171.7 462.7,172.2 461.3,172.5 459.3,173 458,173.5 456,174 454.5,174.5 453.2,174.8 451.7,175.3 450.3,175.7 449.3,176" style="stroke: rgb(251, 191, 36); stroke-width: 7;"></polyline></svg>