<svg xmlns="http://www.w3.org/2000/svg" xmlns:xlink="http://www.w3.org/1999/xlink" preserveAspectRatio="xMidYMid meet" height="100%" viewBox="-600 -500 1400 900">
    <polygon vector-effect="non-scaling-stroke" fill="none" style="stroke: #374151; stroke-width:6" points="  445,181 437,183 429,186 420,188 412,191 405,193 397,195 389,198 381,200 373,202 365,205 356,207 348,210 339,212 330,215 322,217 313,220 305,222 296,225 287,227 278,230 269,233 260,235 252,237 243,240 235,243 226,245 216,248 208,250 199,253 190,256 181,258 172,261 163,263 154,266 146,269 137,271 128,274 119,277 110,279 103,281 96,284 89,286 82,288 76,289 71,291 66,292 60,294 56,295 52,297 48,298 43,299 39,300 34,301 28,302 23,302 17,301 13,300 8,298 6,297 2,295 -2,292 -6,289 -11,285 -14,281 -18,277 -20,274 -24,268 -27,264 -29,261 -31,257 -34,254 -36,250 -39,246 -42,243 -44,239 -47,234 -50,230 -53,226 -56,222 -59,217 -62,213 -65,209 -69,204 -72,199 -75,195 -78,190 -82,185 -85,180 -89,175 -92,170 -96,164 -100,159 -104,153 -108,148 -111,142 -116,136 -120,131 -124,125 -128,119 -132,113 -137,106 -141,101 -145,95 -149,88 -154,81 -158,75 -163,68 -167,62 -171,55 -175,49 -179,42 -183,35 -187,28 -192,21 -196,14 -200,7 -206,-4 -210,-11 -214,-18 -217,-26 -221,-33 -225,-41 -229,-48 -233,-55 -236,-63 -240,-71 -244,-78 -248,-86 -252,-93 -255,-101 -259,-109 -263,-116 -267,-124 -271,-132 -275,-139 -279,-147 -283,-155 -287,-163 -291,-170 -295,-178 -300,-186 -304,-194 -309,-202 -313,-209 -318,-216 -323,-224 -328,-231 -333,-239 -339,-246 -344,-253 -350,-260 -355,-267 -361,-274 -367,-281 -373,-288 -379,-295 -385,-301 -392,-308 -398,-315   -398,-315 -405,-321 -412,-328 -418,-334 -424,-340 -430,-345 -436,-350 -441,-355 -446,-360 -451,-365 -456,-369 -460,-373 -464,-377 -468,-381 -472,-385 -476,-388 -479,-391 -483,-394 -486,-398 -490,-401 -493,-404 -496,-407 -500,-411 -503,-413 -505,-416 -508,-419 -511,-422 -515,-425 -518,-428 -522,-433 -525,-437 -527,-441 -529,-445 -530,-448 -530,-452 -530,-456 -529,-459 -528,-462 -525,-465 -523,-467 -520,-470 -516,-471 -512,-473 -508,-474 -503,-475 -500,-475 -495,-476 -491,-477 -486,-477 -480,-478 -474,-479 -469,-479 -464,-480 -459,-480 -455,-480 -451,-481 -447,-481 -443,-481 -438,-481 -434,-481 -430,-481 -426,-481 -421,-481 -416,-481 -411,-481 -407,-481 -401,-480 -396,-480 -391,-480 -385,-480 -380,-479 -374,-479 -369,-479 -363,-478 -357,-478 -351,-477 -345,-477 -339,-477 -333,-476 -327,-476 -320,-475 -314,-475 -307,-475 -301,-474 -295,-473 -288,-473 -281,-472 -274,-472 -267,-471 -261,-470 -254,-469 -247,-469 -240,-468 -233,-467 -225,-466 -217,-465 -210,-464 -202,-463 -194,-462 -187,-461 -179,-460 -172,-459 -164,-458 -156,-457 -148,-455 -140,-454 -131,-453 -123,-452 -114,-451 -106,-450 -98,-449 -90,-447 -82,-446 -73,-445 -64,-444 -56,-443 -48,-441 -39,-440 -31,-439 -22,-438 -14,-437 -5,-435 4,-434 12,-433 20,-432 30,-431 38,-430 47,-430 56,-429 65,-429 74,-428 83,-428 92,-428 100,-427 109,-427 119,-427 128,-427 136,-427 145,-427 153,-426 161,-426 168,-426 175,-426 181,-426 187,-426 193,-426 198,-426 203,-426 207,-426 212,-426 216,-426 219,-425 225,-425 230,-425 234,-424 240,-423 246,-421 252,-418 255,-415 260,-411 262,-408 264,-404 266,-400 267,-396 268,-391 269,-387 269,-382 268,-378 268,-375 266,-370 265,-365 263,-360 261,-357 257,-350 254,-345 250,-340 247,-337 245,-333 242,-330 239,-327 235,-324 232,-321 229,-318 225,-315 221,-312 217,-309 213,-306 209,-304 204,-301 200,-298 195,-296 190,-293 186,-291 181,-288 176,-286 170,-284 165,-282 159,-280 153,-278 147,-276 141,-274 136,-273 130,-272 123,-270 117,-269 111,-269 105,-268 99,-267 92,-267 86,-267 79,-267 72,-267 65,-268 59,-268 52,-269 46,-270 39,-271 32,-272 25,-273 18,-275 11,-276 4,-277 -3,-279 -10,-280 -17,-281 -24,-282 -32,-284 -38,-285 -45,-286 -52,-287 -59,-288 -66,-289 -72,-289 -78,-289 -84,-289 -90,-289 -95,-289 -101,-289 -106,-288 -111,-287 -116,-286 -121,-284 -126,-283 -131,-281 -135,-278 -140,-276 -144,-273 -148,-270 -152,-267 -155,-264 -158,-260 -161,-256 -164,-252 -167,-249 -169,-244 -171,-239 -173,-235 -175,-230 -176,-225 -177,-220 -178,-215 -179,-211 -179,-206 -179,-200 -179,-195 -179,-190 -178,-186 -177,-180 -176,-175 -174,-170 -173,-165 -171,-160 -169,-155 -166,-150 -164,-145 -161,-140 -159,-135 -156,-131 -153,-126 -150,-121 -147,-116 -144,-111 -141,-106 -138,-101 -135,-96 -132,-91 -129,-85 -125,-80   -125,-80 -122,-75 -119,-69 -115,-64 -112,-59 -108,-53 -104,-48 -100,-43 -95,-39 -91,-34 -87,-30 -82,-26 -77,-23 -72,-20 -67,-17 -62,-15 -56,-13 -51,-11 -46,-10 -40,-9 -34,-9 -29,-8 -24,-9 -19,-9 -13,-10 -8,-12 -3,-13 2,-15 7,-17 11,-20 16,-23 21,-26 25,-29 29,-33 33,-37 37,-40 40,-44 44,-49 48,-53 52,-57 55,-62 59,-66 63,-70 67,-74 72,-78 76,-82 81,-86 85,-90 91,-94 96,-97 101,-101 107,-104 112,-107 119,-110 125,-113 131,-115 137,-118 143,-120 150,-122 157,-124 163,-126 170,-127 177,-129 184,-130 191,-131 198,-132 206,-133 214,-134 221,-135 229,-135 236,-136 244,-136 251,-137 259,-137 267,-138 274,-138 282,-138 290,-138 299,-139 307,-139 315,-139 323,-140 331,-140 339,-140 348,-141 356,-141 364,-141 372,-141 381,-142 389,-142 398,-142 406,-143 415,-143 423,-144 432,-144 441,-144 450,-145 459,-145 467,-145 476,-146 485,-146 494,-147 503,-147 511,-148 520,-148 529,-149 537,-149 546,-150 554,-150 561,-150 569,-151 576,-151 582,-151 588,-151 594,-151 600,-150 606,-150 612,-150 618,-149 624,-148 629,-146 634,-144 639,-142 644,-140 649,-137 653,-134 658,-131 662,-128 666,-124 670,-120 674,-115 678,-111 681,-107 684,-102 687,-97 690,-92 692,-87 695,-82 697,-77 699,-71 702,-65 704,-60 706,-54 708,-49 710,-43 712,-37 714,-32 716,-26 718,-20 720,-14 722,-7 724,-1 726,4 727,9 728,15 729,20 730,25 731,30 731,35 730,40 730,45 729,50 728,54 727,59 725,63 723,67 720,71 718,75 715,79 711,83 708,86 704,89 700,93 696,96 692,99 687,101 683,104 678,107 673,109 668,111 663,113 658,116 653,117 647,120 641,122 636,124 630,126 625,128 619,130 613,131 607,133 601,135 595,137 589,139 583,141 577,143 571,145 564,147 557,149 550,151 543,153 536,155 529,157 522,159 515,161 508,163 500,166 493,168 486,170 479,172 471,174 464,176 456,179 445,181  "></polygon>
    <polyline vector-effect="non-scaling-stroke" fill="none" style="stroke: #EF4444; stroke-width:4" points=" 445,181 437,183 429,186 420,188 412,191 405,193 397,195 389,198 381,200 373,202 365,205 356,207 348,210 339,212 330,215 322,217 313,220 305,222 296,225 287,227 278,230 269,233 260,235 252,237 243,240 235,243 226,245 216,248 208,250 199,253 190,256 181,258 172,261 163,263 154,266 146,269 137,271 128,274 119,277 110,279 103,281 96,284 89,286 82,288 76,289 71,291 66,292 60,294 56,295 52,297 48,298 43,299 39,300 34,301 28,302 23,302 17,301 13,300 8,298 6,297 2,295 -2,292 -6,289 -11,285 -14,281 -18,277 -20,274 -24,268 -27,264 -29,261 -31,257 -34,254 -36,250 -39,246 -42,243 -44,239 -47,234 -50,230 -53,226 -56,222 -59,217 -62,213 -65,209 -69,204 -72,199 -75,195 -78,190 -82,185 -85,180 -89,175 -92,170 -96,164 -100,159 -104,153 -108,148 -111,142 -116,136 -120,131 -124,125 -128,119 -132,113 -137,106 -141,101 -145,95 -149,88 -154,81 -158,75 -163,68 -167,62 -171,55 -175,49 -179,42 -183,35 -187,28 -192,21 -196,14 -200,7 -206,-4 -210,-11 -214,-18 -217,-26 -221,-33 -225,-41 -229,-48 -233,-55 -236,-63 -240,-71 -244,-78 -248,-86 -252,-93 -255,-101 -259,-109 -263,-116 -267,-124 -271,-132 -275,-139 -279,-147 -283,-155 -287,-163 -291,-170 -295,-178 -300,-186 -304,-194 -309,-202 -313,-209 -318,-216 -323,-224 -328,-231 -333,-239 -339,-246 -344,-253 -350,-260 -355,-267 -361,-274 -367,-281 -373,-288 -379,-295 -385,-301 -392,-308 -398,-315 "></polyline>
    <polyline vector-effect="non-scaling-stroke" fill="none" style="stroke: #3B82F6; stroke-width:4" points=" -398,-315 -405,-321 -412,-328 -418,-334 -424,-340 -430,-345 -436,-350 -441,-355 -446,-360 -451,-365 -456,-369 -460,-373 -464,-377 -468,-381 -472,-385 -476,-388 -479,-391 -483,-394 -486,-398 -490,-401 -493,-404 -496,-407 -500,-411 -503,-413 -505,-416 -508,-419 -511,-422 -515,-425 -518,-428 -522,-433 -525,-437 -527,-441 -529,-445 -530,-448 -530,-452 -530,-456 -529,-459 -528,-462 -525,-465 -523,-467 -520,-470 -516,-471 -512,-473 -508,-474 -503,-475 -500,-475 -495,-476 -491,-477 -486,-477 -480,-478 -474,-479 -469,-479 -464,-480 -459,-480 -455,-480 -451,-481 -447,-481 -443,-481 -438,-481 -434,-481 -430,-481 -426,-481 -421,-481 -416,-481 -411,-481 -407,-481 -401,-480 -396,-480 -391,-480 -385,-480 -380,-479 -374,-479 -369,-479 -363,-478 -357,-478 -351,-477 -345,-477 -339,-477 -333,-476 -327,-476 -320,-475 -314,-475 -307,-475 -301,-474 -295,-473 -288,-473 -281,-472 -274,-472 -267,-471 -261,-470 -254,-469 -247,-469 -240,-468 -233,-467 -225,-466 -217,-465 -210,-464 -202,-463 -194,-462 -187,-461 -179,-460 -172,-459 -164,-458 -156,-457 -148,-455 -140,-454 -131,-453 -123,-452 -114,-451 -106,-450 -98,-449 -90,-447 -82,-446 -73,-445 -64,-444 -56,-443 -48,-441 -39,-440 -31,-439 -22,-438 -14,-437 -5,-435 4,-434 12,-433 20,-432 30,-431 38,-430 47,-430 56,-429 65,-429 74,-428 83,-428 92,-428 100,-427 109,-427 119,-427 128,-427 136,-427 145,-427 153,-426 161,-426 168,-426 175,-426 181,-426 187,-426 193,-426 198,-426 203,-426 207,-426 212,-426 216,-426 219,-425 225,-425 230,-425 234,-424 240,-423 246,-421 252,-418 255,-415 260,-411 262,-408 264,-404 266,-400 267,-396 268,-391 269,-387 269,-382 268,-378 268,-375 266,-370 265,-365 263,-360 261,-357 257,-350 254,-345 250,-340 247,-337 245,-333 242,-330 239,-327 235,-324 232,-321 229,-318 225,-315 221,-312 217,-309 213,-306 209,-304 204,-301 200,-298 195,-296 190,-293 186,-291 181,-288 176,-286 170,-284 165,-282 159,-280 153,-278 147,-276 141,-274 136,-273 130,-272 123,-270 117,-269 111,-269 105,-268 99,-267 92,-267 86,-267 79,-267 72,-267 65,-268 59,-268 52,-269 46,-270 39,-271 32,-272 25,-273 18,-275 11,-276 4,-277 -3,-279 -10,-280 -17,-281 -24,-282 -32,-284 -38,-285 -45,-286 -52,-287 -59,-288 -66,-289 -72,-289 -78,-289 -84,-289 -90,-289 -95,-289 -101,-289 -106,-288 -111,-287 -116,-286 -121,-284 -126,-283 -131,-281 -135,-278 -140,-276 -144,-273 -148,-270 -152,-267 -155,-264 -158,-260 -161,-256 -164,-252 -167,-249 -169,-244 -171,-239 -173,-235 -175,-230 -176,-225 -177,-220 -178,-215 -179,-211 -179,-206 -179,-200 -179,-195 -179,-190 -178,-186 -177,-180 -176,-175 -174,-170 -173,-165 -171,-160 -169,-155 -166,-150 -164,-145 -161,-140 -159,-135 -156,-131 -153,-126 -150,-121 -147,-116 -144,-111 -141,-106 -138,-101 -135,-96 -132,-91 -129,-85 -125,-80 "></polyline>
    <polyline vector-effect="non-scaling-stroke" fill="none" style="stroke: #FBBF24; stroke-width:4" points=" -125,-80 -122,-75 -119,-69 -115,-64 -112,-59 -108,-53 -104,-48 -100,-43 -95,-39 -91,-34 -87,-30 -82,-26 -77,-23 -72,-20 -67,-17 -62,-15 -56,-13 -51,-11 -46,-10 -40,-9 -34,-9 -29,-8 -24,-9 -19,-9 -13,-10 -8,-12 -3,-13 2,-15 7,-17 11,-20 16,-23 21,-26 25,-29 29,-33 33,-37 37,-40 40,-44 44,-49 48,-53 52,-57 55,-62 59,-66 63,-70 67,-74 72,-78 76,-82 81,-86 85,-90 91,-94 96,-97 101,-101 107,-104 112,-107 119,-110 125,-113 131,-115 137,-118 143,-120 150,-122 157,-124 163,-126 170,-127 177,-129 184,-130 191,-131 198,-132 206,-133 214,-134 221,-135 229,-135 236,-136 244,-136 251,-137 259,-137 267,-138 274,-138 282,-138 290,-138 299,-139 307,-139 315,-139 323,-140 331,-140 339,-140 348,-141 356,-141 364,-141 372,-141 381,-142 389,-142 398,-142 406,-143 415,-143 423,-144 432,-144 441,-144 450,-145 459,-145 467,-145 476,-146 485,-146 494,-147 503,-147 511,-148 520,-148 529,-149 537,-149 546,-150 554,-150 561,-150 569,-151 576,-151 582,-151 588,-151 594,-151 600,-150 606,-150 612,-150 618,-149 624,-148 629,-146 634,-144 639,-142 644,-140 649,-137 653,-134 658,-131 662,-128 666,-124 670,-120 674,-115 678,-111 681,-107 684,-102 687,-97 690,-92 692,-87 695,-82 697,-77 699,-71 702,-65 704,-60 706,-54 708,-49 710,-43 712,-37 714,-32 716,-26 718,-20 720,-14 722,-7 724,-1 726,4 727,9 728,15 729,20 730,25 731,30 731,35 730,40 730,45 729,50 728,54 727,59 725,63 723,67 720,71 718,75 715,79 711,83 708,86 704,89 700,93 696,96 692,99 687,101 683,104 678,107 673,109 668,111 663,113 658,116 653,117 647,120 641,122 636,124 630,126 625,128 619,130 613,131 607,133 601,135 595,137 589,139 583,141 577,143 571,145 564,147 557,149 550,151 543,153 536,155 529,157 522,159 515,161 508,163 500,166 493,168 486,170 479,172 471,174 464,176 456,179 445,181 "></polyline>
</svg>