<svg xmlns="http://www.w3.org/2000/svg" xmlns:xlink="http://www.w3.org/1999/xlink" preserveAspectRatio="xMidYMid meet" height="100%" viewBox="-753 -887 1508 1778"><polyline vector-effect="non-scaling-stroke" fill="none" points="311,696 310.5,696.5 310,697 309.5,697.6 309,698.2 308.5,698.8 308,699.3 307,700.5 306,701.6 305,702.8 304,704 303,705.2 302,706.5 301,707.8 299.9,709.1 298.8,710.4 297.8,711.7 296.7,713 295.6,714.3 294.5,715.7 293.3,717 292.2,718.3 290.9,719.7 289.7,721 288.5,722.3 287.2,723.7 285.8,725 284.6,726.3 283.3,727.7 282,729 280.7,730.3 279.3,731.6 278,732.8 276.6,734.1 275.2,735.3 273.9,736.5 272.5,737.7 271.2,738.8 269.8,739.9 268.4,741 267,742.1 265.6,743 264.2,743.9 262.8,744.8 261.5,745.7 260.1,746.5 258.7,747.3 257.3,748.1 255.8,748.7 254.5,749.3 253,749.9 251.6,750.5 250.2,750.9 248.7,751.3 247.2,751.8 245.8,752.2 244.2,752.5 242.8,752.8 241.2,753 239.8,753.2 238.2,753.4 236.8,753.5 235.2,753.7 233.8,753.7 232.2,753.7 230.8,753.7 229.2,753.7 227.8,753.5 226.2,753.4 224.8,753.2 223.2,752.9 221.8,752.6 220.3,752.3 218.8,751.9 217.4,751.5 215.9,751.1 214.5,750.6 213,750.2 211.5,749.6 210.1,749 208.6,748.4 207.2,747.7 205.7,747 204.2,746.2 202.8,745.5 201.3,744.6 199.8,743.8 198.4,742.8 197,741.9 195.6,741 194.2,740 192.8,738.9 191.5,737.8 190.2,736.8 189,735.7 187.7,734.5 186.5,733.4 185.2,732.2 183.9,731 182.7,729.8 181.4,728.5 180.1,727.2 178.8,725.8 177.5,724.4 176.2,723 174.8,721.6 173.3,720.2 171.8,718.7 170.4,717.2 168.9,715.8 167.4,714.2 165.8,712.8 164.3,711.2 162.8,709.7 161.2,708.2 159.5,706.6 157.8,705 156.2,703.5 154.5,701.8 152.8,700.2 151.1,698.5 149.4,696.9 147.6,695.2 145.8,693.5 144.1,691.8 142.2,690 140.4,688.2 138.5,686.5 136.7,684.7 134.8,682.9 132.9,681.1 131.1,679.2 129.2,677.4 127.3,675.5 125.3,673.6 123.3,671.7 121.3,669.8 119.3,667.8 117.3,665.9 115.3,664 113.3,662.1 111.4,660.2 109.5,658.2 107.5,656.3 105.5,654.5 103.5,652.6 101.6,650.8 99.8,649 98,647.2 96.2,645.5 94.5,643.9 92.9,642.3 91.3,640.8 89.8,639.2 88.2,637.8 86.7,636.3 85.2,634.9 83.8,633.5 82.5,632.2 81.2,631 79.9,629.8 78.7,628.6 77.5,627.5 76.4,626.4 75.2,625.4 74.2,624.4 73.2,623.4 72.2,622.4 71.3,621.5 70.4,620.7 69.5,619.8 68.7,619 67.8,618.2 67,617.4 66.2,616.6 65.3,615.8 64.5,614.9 63.6,614.1 62.7,613.2 61.8,612.4 61,611.6 60.2,610.8 59.3,609.9 58.5,609.1 57.6,608.3 56.8,607.5 55.9,606.7 55,605.8 54.1,604.9 53.2,604 52.2,603.2 51.4,602.3 50.5,601.5 49.5,600.5 48.6,599.7 47.8,598.8 46.8,598 45.9,597.1 45,596.2 44.1,595.4 43.3,594.6 42.5,593.8 41.8,593.1 41,592.3 40.2,591.5 39.5,590.8 38.7,590.1 37.9,589.3 34.2,585.8 30.5,582.2 26.7,578.5 22.9,574.9 19.2,571.3 15.5,567.7 11.7,564.1 7.9,560.5 4.2,556.9 0.5,553.3 -3.3,549.7 -7.1,546.1 -10.8,542.5 -11.7,541.6 -12.5,540.8 -13.2,540.1 -14,539.3 -14.8,538.5 -15.6,537.8 -16.4,537 -17.2,536.2 -18,535.5 -18.8,534.7 -19.6,533.9 -20.4,533.2 -22.3,531.2 -25.8,527.9 -29.3,524.5 -32.8,521.2 -36.4,517.7 -40,514.2 -43.7,510.6 -47.4,507.1 -51.1,503.5 -54.7,500 -58.3,496.5 -62,492.9 -65.7,489.4 -68.2,487 -69.2,486 -70.2,485.1 -71.1,484.2 -72,483.3 -72.8,482.5 -73.6,481.8 -74.4,481 -75.2,480.2 -76,479.5 -76.8,478.7 -77.5,477.9 -78.3,477.2 -79.1,476.4 -79.9,475.6 -80.7,474.8 -81.5,474.2 -82.2,473.4 -83,472.6 -83.8,471.8 -84.6,471.1 -85.4,470.3 -86.2,469.5 -87,468.8 -87.9,467.9 -88.8,467 -89.8,466.1 -90.7,465.2 -91.6,464.4 -92.5,463.5 -93.5,462.5 -94.4,461.6 -95.3,460.8 -96.2,459.9 -97.2,459 -98.1,458.1 -99,457.2 -99.8,456.5 -100.6,455.7 -101.4,454.9 -102.2,454.2 -103,453.4 -103.8,452.6 -104.5,451.8 -105.3,451.2 -106.1,450.4 -106.9,449.6 -107.7,448.8 -108.5,448.1 -109.2,447.3 -110,446.5 -110.8,445.8 -111.6,445 -112.4,444.2 -113.2,443.5 -114,442.7 -114.9,441.8 -115.8,440.9 -116.8,440 -117.7,439.2 -118.6,438.3 -119.5,437.5 -120.5,436.5 -121.4,435.6 -122.3,434.8 -123.2,433.9 -124.2,433 -125.1,432.1 -126,431.2 -126.8,430.5 -127.6,429.7 -128.4,428.9 -129.2,428.2 -130,427.4 -130.8,426.6 -131.6,425.8 -132.4,425.1 -133.2,424.3 -134,423.5 -134.8,422.8 -135.6,422 -136.5,421.1 -137.5,420.2 -138.5,419.2 -139.5,418.3 -140.5,417.3 -141.5,416.3 -142.7,415.1 -144,413.9 -145.3,412.8 -146.6,411.5 -147.9,410.2 -149.2,408.8 -150.7,407.5 -152,406.3 -153.3,405.1 -154.7,403.8 -156.1,402.5 -157.5,401.2 -158.9,399.9 -160.2,398.8 -161.5,397.6 -162.8,396.4 -164.2,395.2 -165.5,394 -167,392.8 -168.4,391.5 -169.8,390.2 -171.4,388.9 -172.8,387.6 -174.4,386.3 -176,385 -177.5,383.6 -179.2,382.2 -180.8,380.9 -182.4,379.5 -184,378.2 -185.7,376.8 -187.4,375.4 -189.2,373.9 -190.9,372.5 -192.6,371.1 -194.4,369.5 -196.2,368.1 -197.9,366.5 -199.8,365.1 -201.6,363.5 -203.5,361.9 -205.4,360.4 -207.3,358.8 -209.2,357.2 -211.2,355.5 -213.1,353.9 -215,352.2 -217,350.6 -219,349 -221,347.3 -223,345.6 -225,343.8 -227,342.1 -229,340.4 -231,338.6 -233,336.8 -235,335.1 -237,333.2 -239,331.4 -241,329.5 -243,327.6 -245,325.7 -247.1,323.8 -249.2,321.8 -251.2,319.9 -253.3,318 -255.4,315.9 -257.5,313.8 -259.5,311.8 -261.6,309.7 -263.8,307.6 -265.9,305.5 -268.1,303.5 -270.2,301.4 -272.4,299.2 -274.5,297.1 -276.6,294.9 -278.8,292.8 -280.9,290.6 -283.1,288.5 -285.3,286.4 -287.5,284.2 -289.8,282.1 -291.9,279.9 -294.2,277.7 -296.4,275.5 -298.6,273.2 -300.9,271.1 -303.2,268.8 -305.5,266.6 -307.8,264.4 -310.1,262.2 -312.4,259.9 -314.6,257.7 -316.8,255.5 -319.2,253.2 -321.5,251.1 -323.7,249 -325.9,246.9 -328.1,244.8 -330.2,242.8 -332.2,240.9 -334.3,239 -336.3,237.2 -338.2,235.3 -340.2,233.5 -342,231.8 -343.8,230.2 -345.5,228.7 -347.2,227.1 -348.8,225.5 -350.5,224.1 -352.1,222.7 -353.6,221.2 -355.2,219.8 -356.6,218.5 -358,217.2 -359.4,215.9 -360.7,214.6 -362,213.4 -363.2,212.2 -364.5,210.8 -365.5,209.6 -366.6,208.3 -367.6,207 -368.6,205.7 -369.5,204.4 -370.4,203.1 -371.2,201.7 -371.9,200.3 -372.6,198.9 -373.2,197.5 -373.8,196.1 -374.4,194.6 -374.8,193.2 -375.3,191.7 -375.7,190.2 -376,188.8 -376.2,187.2 -376.5,185.8 -376.6,184.2 -376.8,182.7 -376.8,181.2 -376.8,179.6 -376.8,178.1 -376.8,177.3 -376.7,176.5 -376.7,175.8 -376.7,175 -376.6,174.3 -376.6,173.4" style="stroke: rgb(160, 160, 160); stroke-width: 10;"></polyline><polygon vector-effect="non-scaling-stroke" fill="none" points="-115.8,458 -116,457.8 -116.3,457.5 -116.7,457 -117.3,456.2 -118.2,455.3 -119.3,454.2 -120.7,452.8 -122,451.5 -123.5,450 -124.8,448.7 -129.2,444.7 -133,441.3 -136.3,438.3 -136.7,438 -137,437.7 -137.3,437.3 -137.7,437 -138.5,436 -139.5,435 -140.3,434 -141.5,432.8 -142.7,431.8 -144.2,430.7 -144.7,430.2 -145.2,429.5 -146.2,428.3 -147.3,427.2 -148.5,426 -149.3,425.2 -150.2,424.3 -151.3,423.2 -152.2,422.3 -153,421.5 -154.2,420.3 -155.3,419.2 -156.5,418 -157,417.5 -158.2,416.5 -159.5,415.3 -160.8,414.2 -161.8,413.2 -162.7,412.3 -164,411 -165,410 -166.2,408.8 -166.8,408.2 -168.2,407 -169.2,406 -170.7,404.7 -171.7,403.5 -172.8,402.3 -174.3,401 -175.7,399.8 -177,398.7 -177.5,398 -178.3,397.2 -179.3,396.3 -180.7,395.2 -182,393.8 -183.2,392.5 -184.5,391.2 -185.5,390.3 -186.8,389.2 -187.7,388.3 -189,387 -190.3,385.7 -191.7,384.3 -193,383 -194.3,381.8 -195.7,380.5 -197.3,379 -198.8,377.5 -200.3,376.3 -201.5,375.3 -202.3,374.5 -204,372.7 -205.2,371.3 -206.7,370 -207.7,369.2 -208.7,368.3 -210,367 -211.3,365.7 -212.7,364.3 -214.2,362.8 -215.5,361.5 -217.3,359.7 -218.5,358.5 -219.8,357.2 -221.2,355.8 -222.5,354.5 -224.5,352.7 -226,351.3 -227.7,350 -228.7,349 -230,347.7 -231.7,345.8 -233,344.5 -234.5,343.2 -236,341.8 -237.5,340.5 -239,339 -240.3,337.7 -241.7,336.3 -243,335 -244.5,333.7 -246.3,332 -248.2,330.3 -250.5,328.2 -252.5,326.3 -254,325 -254.7,324.3 -255.7,323.3 -257.2,321.8 -259,320 -261,318.2 -262.5,316.8 -264,315.5 -265.3,314.2 -266.7,312.7 -268.5,310.8 -270,309.3 -272.2,307.3 -273.5,305.8 -275.3,304 -277,302.3 -278.5,301 -280.2,299.5 -281.7,298 -283.5,296.2 -284.8,294.8 -286.5,293.3 -288.5,291.5 -290.5,289.7 -291.8,288.3 -293.5,286.8 -295,285.3 -296.8,283.5 -298.3,282 -300.2,280.2 -301.7,278.8 -303.2,277.3 -304.3,276.2 -306.2,274.3 -307.8,272.5 -309.8,270.3 -311.7,268.3 -313.8,266.5 -315.8,264.8 -317.3,263.7 -318.5,262.5 -320,261 -321.8,259.2 -323.7,257.3 -325,256 -326.8,254.2 -328.3,252.8 -330.5,250.8 -331.8,249.5 -333.7,247.5 -334.8,246.2 -336.7,244.3 -338,243 -339.8,241.3 -342,239.5 -344.2,237.7 -345.8,236.2 -346.8,235.2 -347.7,234.3 -349.3,232.5 -350.7,231 -353,228.7 -354.5,227.3 -356.2,225.8 -356.8,225.3 -357.5,224.7 -358.5,223.5 -360,221.7 -361.7,220 -363.5,218.3 -364.8,217.2 -366,216 -366.5,215.5 -367,215 -368.2,213.8 -369.2,212.7 -371.2,210.8 -372.3,209.7 -373.7,208.5 -374,208 -374.5,207.5 -375,207 -375.5,206.5 -376.5,205.3 -377.5,204.2 -378.3,203 -378.7,202.5 -379.3,201.5 -380.2,200.5 -380.8,199.5 -381.3,198.7 -381.7,197.8 -382,197 -382.2,196.5 -382.3,196 -382.5,195.5 -382.7,195 -382.8,194.5 -383,194 -383,193 -383,192 -383,190.8 -383,190 -383,189.2 -383,188.2 -382.8,187.2 -382.7,186 -382.5,185.2 -382.3,184.2 -382.2,183.3 -381.8,182.5 -381.7,182 -381.5,181.5 -381.3,181 -381.2,180.5 -380.7,179.7 -380.3,178.8 -379.7,177.7 -378.7,175.8 -377,173 -375.7,170.5 -374.8,169.2 -374.5,168.3 -374,167.5 -373.5,166.2 -373,165.3 -372.5,164.2 -372,163.3 -371.7,162.3 -370.8,160.5 -370.2,158.7 -369.5,157 -369.3,156.5 -369.2,155.8 -368.7,154.8 -368.3,153.8 -367.7,151.7 -367.2,150 -366.7,148.2 -366.3,146.8 -366,145.5 -365.7,144.2 -365.3,142.7 -365,141 -364.7,139.5 -364.5,138.8 -364.2,137.3 -363.8,135.3 -363.5,133.3 -363.5,132.2 -363.3,131.3 -363,129.7 -362.7,128 -362.5,126 -362.5,124.3 -362.5,122.7 -362.5,121 -362.5,119.3 -362.5,117.7 -362.5,115.8 -362.5,114.7 -362.5,113 -362.7,110.7 -362.8,108.3 -363,106.3 -363,105.3 -363,103.8 -363.2,101.7 -363.5,99.7 -363.8,98.2 -364,97.3 -364.3,95.5 -364.7,93.7 -365.2,91 -365.7,88.8 -366.2,86.7 -366.5,85.3 -366.8,83.8 -367.2,82.3 -367.8,80.2 -368.2,78.7 -368.8,76.7 -369.5,74.8 -370.2,73.2 -371,71 -372,68.8 -373.2,66.5 -373.8,65.2 -374.3,63.8 -375.2,62 -376.2,60.2 -377.5,58 -378.5,56.3 -379.5,54.5 -380.2,53.3 -381.2,51.7 -382.5,49.5 -383.7,47.7 -384.8,46 -386.2,44.3 -387.3,42.7 -388.7,41.2 -389.8,39.8 -391.2,38.5 -392.2,37.3 -393.3,36 -395,34.2 -396.5,32.5 -397.8,31 -399.3,29.5 -401,27.8 -402.7,26.5 -403.7,25.7 -405.3,24.2 -406.7,22.8 -408.7,20.8 -410.2,19.5 -412.3,17.7 -414,16.3 -415.3,15.2 -416.8,13.8 -418.3,12.7 -420,11.3 -421.3,10.2 -423.2,8.5 -425.2,7 -426.8,5.8 -428.7,4.5 -430.2,3.2 -432,1.5 -433,0.5 -434.5,-1 -436.3,-2.5 -438.3,-4.2 -440,-5.5 -441.7,-7 -443.2,-8.3 -444.8,-9.5 -446.5,-10.8 -448.3,-12.3 -450.5,-14.5 -451.8,-15.8 -453.3,-17.2 -455,-18.5 -456.7,-19.8 -458.5,-21.5 -459.8,-22.8 -461.8,-24.8 -463.5,-26.5 -465.5,-28.3 -466.8,-29.5 -468.5,-30.8 -470.2,-32.3 -472,-33.8 -474,-35.8 -475.8,-37.5 -477.5,-39.2 -479,-40.5 -480.3,-41.8 -482.5,-44 -484.3,-45.7 -486.3,-47.5 -487.5,-48.5 -489,-50 -490.7,-51.8 -492.3,-53.7 -494,-55.5 -495.3,-57 -497.3,-58.8 -499.2,-60.5 -501.3,-62.3 -503.2,-64.2 -504.7,-65.7 -506,-67 -507.3,-68.5 -509.3,-70.5 -511.2,-72.5 -513.2,-74.3 -515,-76.2 -516.5,-77.5 -518.2,-79.5 -519.3,-81 -521,-82.8 -523,-84.7 -525,-86.5 -526.8,-88.5 -528.3,-90 -530.2,-91.8 -532.2,-93.7 -534,-95.7 -535.5,-97.3 -537,-99 -538.3,-100.7 -540.5,-103 -542.2,-105 -544,-106.8 -545.3,-108.3 -547.2,-110.5 -549,-112.5 -550.7,-114.3 -552.5,-116.2 -554,-117.8 -555.7,-119.7 -557.2,-121.3 -558.7,-122.8 -560,-124.5 -561.7,-126.7 -563.7,-129.2 -566,-131.8 -567.5,-133.3 -569,-135 -570.5,-136.8 -572.3,-139 -574.2,-141.3 -575.8,-143.2 -577.5,-144.8 -579,-146.5 -580.2,-148 -581.8,-150.2 -583.7,-152.3 -585.7,-154.5 -587.3,-156.7 -588.7,-158.3 -590.7,-160.8 -592.2,-162.7 -594,-165.2 -595.3,-167 -596.8,-169 -598.3,-170.8 -600.2,-173.2 -601.8,-175.2 -603.8,-177.5 -605.2,-179 -607,-181.3 -608.3,-183 -609.8,-185 -611.7,-187.3 -613.2,-189.3 -614.8,-191.7 -616.2,-193.3 -617.8,-195.5 -619.5,-197.7 -620.7,-199.3 -622,-201.2 -623,-202.5 -624.8,-205 -626.2,-207 -628.3,-209.8 -629.7,-211.7 -631.2,-213.5 -632.3,-215.3 -634,-217.7 -635.5,-219.8 -637.2,-222.2 -638.3,-223.8 -640,-226.2 -641.3,-228 -643,-230.2 -644.3,-232 -645.3,-233.2 -646.7,-235.2 -647.8,-236.8 -649.8,-239.8 -651.2,-241.7 -652.5,-243.7 -653.7,-245.5 -655.2,-247.8 -657.2,-250.7 -658.5,-252.5 -659.7,-254.3 -660.8,-256.2 -662.3,-258.3 -663.8,-260.3 -665,-262.2 -666.5,-264.7 -667.8,-266.8 -669.2,-268.8 -670.3,-270.5 -671.5,-272.3 -673,-274.7 -674,-276.2 -675.7,-278.7 -676.8,-280.3 -678.3,-282.8 -679.7,-285 -681.2,-287.3 -682.3,-289 -683.5,-290.8 -684.5,-292.7 -685.8,-295 -687.2,-297.2 -688.5,-299.5 -689.7,-301.5 -690.7,-303.3 -691.8,-305.3 -693.3,-307.7 -694.5,-309.7 -695.7,-311.5 -696.7,-313.3 -697.8,-315.2 -699,-317.2 -700,-319.2 -701,-321.2 -702.2,-323.3 -703.5,-325.5 -704.8,-327.7 -706,-329.7 -707,-331.5 -708.2,-333.7 -709.2,-335.5 -710.3,-337.3 -711.3,-338.8 -712.2,-340.2 -713.2,-342.2 -713.8,-343.8 -715.2,-346.3 -716,-348.2 -717.3,-350.5 -718.2,-352.2 -719.2,-354 -719.8,-355.5 -720.5,-356.8 -721.5,-358.7 -722.5,-360.5 -723.3,-362.3 -723.8,-363.5 -724.5,-364.8 -725.3,-366.2 -726,-367.2 -726.8,-368.8 -727.7,-370.5 -728.3,-372 -728.8,-373 -729.3,-374 -730,-375.3 -730.5,-376.2 -730.8,-377 -731.7,-378.7 -732.3,-380.5 -733.2,-382.3 -733.3,-383 -733.5,-383.5 -733.7,-384.2 -733.8,-385 -734,-386.7 -734.2,-388 -734.3,-389.2 -734.5,-389.8 -734.3,-390.8 -734.2,-391.8 -734,-392.5 -734,-393 -734,-393.5 -733.7,-395 -733.2,-396.7 -732.7,-398.3 -732.5,-399 -732.3,-399.5 -731.8,-400.5 -731.2,-401.3 -730.7,-402.2 -730.3,-402.5 -730.2,-403 -729.8,-403.5 -729.3,-404 -728.8,-404.5 -728.2,-405 -727.5,-405.7 -726.7,-406.3 -726,-406.8 -725.3,-407.2 -723.7,-408 -722,-408.8 -720.5,-409.5 -719.2,-410 -718,-410.7 -716.2,-411.5 -715.2,-411.8 -714,-412.2 -713.5,-412.3 -712.5,-412.7 -711.5,-412.8 -710.5,-413 -709.5,-413.2 -708.5,-413.5 -707.5,-413.8 -706,-414.2 -703.8,-414.7 -701.7,-415.2 -700.5,-415.5 -699.5,-415.7 -697.3,-416.2 -695.2,-416.7 -693.5,-417 -692.8,-417 -692.2,-417 -690.7,-417.3 -689.2,-417.7 -687.7,-418 -686.7,-418 -685.5,-418.2 -683.3,-418.5 -681.5,-418.8 -680,-419 -678.8,-419.3 -677.5,-419.7 -675.5,-420.2 -674,-420.3 -672.7,-420.7 -671.8,-420.8 -670,-421.2 -668.2,-421.3 -666.5,-421.7 -665,-422 -663.5,-422.3 -661.8,-422.7 -660.2,-423 -658.3,-423.3 -656.7,-423.5 -655,-423.8 -653.5,-424.2 -652,-424.5 -651.3,-424.7 -649.8,-425 -648.2,-425.3 -646.5,-425.7 -645.2,-425.8 -643.3,-426.2 -641.7,-426.5 -640.5,-426.8 -639,-427.2 -637.3,-427.5 -635.2,-428 -634,-428.3 -632.8,-428.7 -632.2,-428.8 -630.3,-429.2 -628.7,-429.5 -627,-429.8 -625.8,-430.3 -624.7,-430.7 -623,-431.2 -622,-431.5 -620.3,-432 -618.3,-432.8 -616.3,-433.5 -614.3,-434.5 -613.2,-435.2 -611.5,-436.2 -610.5,-436.8 -609.5,-437.5 -608.5,-438.3 -606.7,-440.2 -604.8,-442 -603.5,-443.5 -603.2,-444 -602.3,-445.2 -601.5,-446.3 -600.7,-447.5 -599.8,-449.2 -599.2,-450.8 -598.3,-452.5 -598.2,-453 -598,-453.5 -597.7,-454.7 -597.3,-455.8 -597,-457 -596.8,-458.5 -596.5,-459.8 -596.2,-461.3 -596,-462.3 -596,-463.7 -596,-465 -596,-465.8 -596,-466.8 -596,-467.8 -596,-469.3 -596,-470.7 -596,-472 -596,-472.8 -596,-473.8 -596,-475.2 -596,-476.7 -596.2,-478 -596.3,-478.8 -596.5,-480.2 -596.5,-481.3 -596.5,-483.2 -596.7,-485.2 -596.8,-487.2 -597,-488.7 -597,-489.5 -597,-490.7 -597,-491.8 -597.2,-493.5 -597.3,-495.2 -597.5,-496.8 -597.5,-498.3 -597.5,-499.5 -597.5,-501.5 -597.7,-503.8 -597.8,-506.2 -598,-507.8 -598.2,-508.7 -598.3,-510 -598.5,-511.5 -598.5,-513.3 -598.5,-515 -598.5,-516.8 -598.5,-518.5 -598.5,-520.3 -598.8,-522.5 -599.2,-524.7 -599.5,-526.7 -599.5,-528.2 -599.5,-529.5 -599.5,-531.7 -599.5,-533.5 -599.5,-535.7 -599.5,-537.3 -599.8,-539.8 -600.2,-542.2 -600.5,-544.2 -600.5,-545.7 -600.5,-547.7 -600.5,-549.8 -600.5,-551.5 -600.5,-553.7 -600.8,-556.2 -601.2,-558.7 -601.5,-560.3 -601.5,-561.8 -601.5,-563.5 -601.5,-565.5 -601.5,-567.5 -601.5,-570 -601.7,-572.7 -602,-575 -602.3,-577.2 -602.5,-578.5 -602.5,-580.5 -602.5,-582.7 -602.5,-585.2 -602.5,-587.2 -602.7,-589.7 -602.8,-591.8 -603.2,-594.3 -603.3,-596 -603.5,-598.3 -603.5,-600.7 -603.5,-602.7 -603.7,-605.3 -603.8,-607.2 -604,-609.2 -604,-610.5 -604.2,-612.3 -604.3,-614.7 -604.5,-617 -604.5,-619.2 -604.5,-621.2 -604.5,-623 -604.7,-625.5 -604.8,-627.7 -605,-629.7 -605,-631.2 -605,-633 -605,-634.8 -605,-636.8 -605,-638.8 -605,-640.5 -605,-642.3 -605,-643.7 -605,-645.2 -604.8,-647 -604.5,-648.8 -604.2,-650.7 -604,-651.3 -603.7,-652.8 -603.3,-654.3 -603,-655.8 -602.5,-657.5 -601.8,-659 -601.2,-660.7 -600.8,-661.3 -600.2,-662.8 -599.5,-664.2 -598.5,-666 -598,-667 -597,-668.5 -596.3,-669.5 -595.5,-670.5 -594.8,-671.3 -593.7,-672.8 -592.3,-674.3 -591.3,-675.5 -590.5,-676.2 -589.7,-677 -588.7,-678 -587.5,-679.2 -586.3,-680.2 -584.7,-681.5 -583.5,-682.3 -582.3,-683.5 -581.7,-684.2 -580.5,-685.3 -579.2,-686.3 -577.8,-687.3 -576.2,-688.5 -575,-689.5 -573.7,-690.5 -572.5,-691.5 -571,-692.5 -569.3,-693.8 -568.3,-694.7 -566.8,-695.8 -565.5,-696.8 -564,-697.8 -562.7,-698.8 -561.3,-699.8 -559.7,-701.2 -558.5,-702 -556.7,-703.3 -555.3,-704.3 -553.7,-705.7 -552.8,-706.3 -551.3,-707.3 -550.2,-708.2 -548,-709.8 -546.5,-711 -544.5,-712.5 -543.5,-713.2 -541.5,-714.7 -540,-715.8 -538.3,-717.2 -537.3,-718 -535.5,-719.3 -533.7,-720.7 -531.8,-722 -530.2,-723.3 -528.5,-724.5 -527.2,-725.5 -525.5,-726.8 -524,-728.2 -521.8,-729.8 -520.7,-730.5 -518.7,-731.8 -517.3,-732.8 -514.8,-734.8 -513.2,-736.2 -511.3,-737.5 -509.8,-738.5 -508.3,-739.7 -506,-741.5 -504.5,-742.8 -502,-744.5 -500.5,-745.5 -498.2,-747.2 -496.7,-748.3 -495.2,-749.5 -493.5,-750.7 -492,-751.8 -489.7,-753.5 -488.2,-754.7 -486,-756 -483.7,-757.5 -481.5,-758.8 -479,-760.7 -477.5,-761.7 -475.3,-763 -473.2,-764.2 -470.8,-765.7 -468.7,-767 -466.3,-768.3 -464.2,-769.5 -462.3,-770.5 -460.7,-771.5 -458,-773 -455.2,-774.5 -453.3,-775.5 -451.7,-776.2 -449.3,-777.3 -446.7,-778.7 -444.7,-779.7 -442.5,-780.7 -440.3,-781.5 -437.7,-782.8 -436,-783.5 -433.7,-784.7 -431,-785.7 -428.5,-786.8 -425.7,-787.8 -423.8,-788.7 -420.8,-789.8 -419,-790.5 -416.3,-791.3 -414,-792.2 -411.5,-793.2 -408.7,-794.5 -406.5,-795.3 -403.8,-796.3 -401.3,-797.2 -398.5,-798.2 -395.7,-799.3 -393.3,-800.2 -390.5,-801.3 -387.8,-802.5 -385.2,-803.7 -383.2,-804.5 -380.5,-805.5 -377.8,-806.5 -375.3,-807.5 -373.3,-808.2 -371,-809.2 -368.2,-810.2 -365.7,-811.2 -363,-812.2 -360.5,-813.2 -357.3,-814.5 -354.8,-815.7 -352.7,-816.7 -350.3,-817.7 -347.8,-818.5 -345.3,-819.5 -343,-820.5 -341,-821.5 -338.5,-822.7 -335.8,-823.8 -333.3,-825 -330.7,-826.2 -328.7,-827 -326.2,-828 -323.8,-829 -321,-830.5 -318.5,-831.8 -316.2,-833.2 -314.5,-834 -312.3,-835 -309.8,-836.5 -307.5,-837.8 -305.3,-839.2 -303.5,-840 -300.8,-841.5 -298.7,-842.8 -295.8,-844.5 -294.2,-845.5 -291.5,-847 -290,-847.8 -287.8,-849.2 -286.7,-850 -284.8,-851.2 -283,-852.3 -281,-853.5 -279.7,-854.5 -278.2,-855.3 -276.8,-856 -274.8,-857.2 -273.7,-857.8 -272.3,-858.7 -271,-859.5 -269.7,-860.5 -268.5,-861.3 -267.8,-861.7 -266.3,-862.3 -264.8,-863.2 -263.3,-863.8 -262.2,-864.3 -261,-864.8 -259.5,-865.5 -258.3,-866 -256.3,-866.5 -254.8,-867 -253.3,-867.3 -252.7,-867.7 -251.8,-867.8 -250.7,-868 -249.3,-868.2 -247.8,-868.3 -246.5,-868.5 -245.2,-868.5 -243.7,-868.5 -242,-868.7 -240.5,-868.8 -239.2,-869 -237.8,-868.8 -236.5,-868.7 -235.5,-868.5 -234.8,-868.5 -233.3,-868.3 -232,-868 -230.7,-867.7 -229.2,-867.2 -226.5,-866.3 -223.7,-865.2 -221.8,-864.3 -221,-863.8 -219.8,-863.2 -218.7,-862.5 -217.5,-861.8 -217,-861.5 -216.3,-860.8 -214.8,-859.7 -212.8,-858 -210.8,-856.5 -209.5,-855.3 -208,-854.2 -206.3,-852.8 -204.7,-851.7 -203.8,-851 -203.2,-850.5 -202,-849.5 -200.7,-848.5 -199.3,-847.5 -198.7,-846.8 -197.2,-845.7 -195.8,-844.5 -193.7,-843.2 -192.3,-842.3 -191,-841.5 -189.8,-840.7 -188.7,-839.8 -186.3,-838.5 -184.7,-837.7 -182.8,-836.8 -182.2,-836.5 -180.5,-835.5 -178.3,-834.3 -176.2,-833.3 -174.8,-832.8 -173.3,-832.2 -171.7,-831.3 -169.7,-830.3 -168,-829.7 -166.2,-829 -164.5,-828.5 -162.5,-827.8 -160.8,-827.2 -158.7,-826.3 -157.3,-825.8 -154.7,-825 -152.5,-824.5 -150.2,-823.8 -149,-823.7 -147.3,-823.3 -145.7,-823 -143,-822.5 -141,-822 -139,-821.7 -136.8,-821.3 -134.2,-821 -131.7,-820.7 -130.2,-820.5 -128.7,-820.3 -126.7,-820.2 -124,-819.8 -121.5,-819.7 -119.2,-819.5 -117.8,-819.5 -115.8,-819.3 -113.8,-819.2 -110.7,-819 -108.5,-819 -105.5,-819 -103.7,-819 -101.3,-818.8 -99.7,-818.7 -97.5,-818.5 -95.7,-818.5 -93.2,-818.3 -90.2,-818 -87.3,-817.7 -85.5,-817.5 -83.2,-817.2 -80.8,-816.8 -78.5,-816.3 -76.7,-816 -75,-815.5 -72.3,-815 -70.3,-814.5 -67.8,-814 -65.3,-813.3 -63.2,-812.8 -60.7,-812.2 -58.2,-811.5 -55.7,-810.8 -53.7,-810.3 -51.5,-809.7 -49.2,-808.8 -46.8,-808.2 -44.8,-807.5 -42.7,-806.8 -40.3,-805.8 -37.8,-804.8 -35.5,-803.8 -32.5,-802.7 -30.7,-801.8 -27.8,-800.5 -25.7,-799.5 -23.2,-798.3 -21.2,-797.3 -19.5,-796.3 -17.2,-795 -14.8,-793.7 -11.8,-792 -9.3,-790.7 -7.2,-789.5 -5.7,-788.7 -3.7,-787.3 -1.5,-785.8 1,-784 3.3,-782.3 5.3,-781 8,-779 10.3,-777 13.5,-774.3 15.5,-772.7 17.8,-770.7 19.5,-769.2 21.5,-767.3 23.7,-765.3 25.5,-763.5 27.7,-761.3 28.8,-760.2 31.2,-757.7 33.3,-755.3 35.5,-753 37,-751.3 38.5,-749.7 40.5,-747.2 42,-745.3 43.7,-743.2 45.3,-741.2 47.3,-738.5 48.8,-736.5 50.5,-734.2 51.8,-732.5 53.7,-729.8 55,-727.8 56.8,-725 58,-723 59.5,-720.3 60.7,-718.2 61.8,-716.2 63,-714 63.8,-712.2 65.3,-709 66.5,-706.5 67.8,-703.8 68.7,-701.8 69.7,-699.2 70.7,-696.7 71.7,-694 72.3,-691.8 73.2,-688.8 74,-686.2 74.8,-684.2 75.7,-682.2 76.2,-680.5 77,-677.2 77.8,-673.8 78.7,-670.7 79.2,-669 79.7,-666.7 80.5,-663.5 81.2,-660.5 81.8,-658 82.3,-655.7 83,-652.8 83.5,-649.8 84,-647.3 84.7,-644 85.3,-641.2 86,-638.3 86.5,-635.5 87,-633 87.3,-630.7 87.8,-628.3 88.5,-624.8 89.3,-621 90,-618.3 90.3,-616.8 90.8,-614.3 91.5,-610.7 92.2,-607.2 92.8,-604.2 93.2,-602.3 93.8,-599.5 94.3,-597.2 95,-593.7 95.7,-590.7 96.2,-587.8 96.8,-584.8 97.3,-582.2 98,-578.7 98.7,-575.7 99.3,-572.7 100,-569.7 100.5,-567.5 101,-564 101.7,-561.2 102.2,-558.2 102.8,-555.2 103.2,-552.3 103.7,-549.7 103.8,-548 104.3,-544.8 104.7,-541.7 105.2,-537.8 105.5,-535.5 105.8,-532.3 106.2,-528.7 106.3,-525.2 106.5,-521.8 106.7,-519.3 106.8,-516.3 107,-513.8 107,-510.7 107,-508 107,-504.5 107,-501.5 107,-498.5 107,-495 107,-491.7 107,-488.3 106.7,-485.2 106.3,-482.2 106,-479.2 106,-476.8 105.7,-473.8 105.3,-470.2 105,-467 104.7,-463.7 104.3,-461 103.8,-458.3 103.5,-455.8 103,-453.3 102.5,-449.8 101.8,-446.7 101,-442.8 100.3,-439.5 99.7,-436.5 99.2,-434 98.3,-430.8 97.8,-428.3 97.2,-425.3 96.5,-422.8 95.3,-419.2 94.3,-416.2 93.3,-413 92.5,-410.7 91.5,-407.7 90.3,-404.7 89,-400.8 87.8,-397.2 86.8,-394.3 85.8,-391.8 84.5,-388.8 83,-385.2 81.8,-381.8 80.7,-378.8 79.8,-376.3 78.7,-373.7 77.3,-370.5 76,-367 74.8,-364 73.8,-361 72.7,-358.2 71.7,-355.3 70.3,-352.3 69,-349.3 67.5,-345.8 66.5,-342.8 65.5,-339.8 64.7,-337.3 63.3,-334.3 62,-331.2 60.5,-327.3 59.5,-324.3 58.7,-321.8 57.3,-318.8 56,-315.8 54.5,-312.3 53.5,-309.3 52.5,-306.3 51.7,-303.8 50.3,-300.8 49,-297.5 47.5,-293.8 46.3,-290.2 45.3,-287.3 43.8,-283.7 42.7,-281.3 41.3,-278.3 40.3,-275.7 39.3,-272.7 38,-268.7 37,-265.7 35.7,-262.3 34.7,-260 33.5,-257 32.5,-254 31.3,-250.3 30.2,-246.5 29,-242.8 28,-239 27.2,-236 26.5,-232.7 25.7,-230 24.8,-226.7 23.8,-222.8 23.2,-219.8 22.3,-216 21.8,-213.5 21.2,-209.7 20.8,-207.3 20.2,-203.2 19.8,-200.3 19.2,-196.3 18.8,-194.2 18.2,-190.3 17.8,-187.7 17.3,-183.8 17,-180.8 16.7,-177.7 16.3,-174.2 16.2,-171.5 15.7,-168.2 15.3,-164.8 15,-161 15,-157.2 15,-154.2 15,-150.8 15,-147.3 15,-144.5 15,-141.8 15,-139 15,-135.3 15,-131.5 15,-128.3 15,-125.8 15.2,-122.7 15.5,-119.3 15.8,-115.5 16,-113 16.2,-109.8 16.7,-106 17.2,-102 17.5,-99.3 17.7,-96.5 18.2,-93 18.8,-89.2 19.3,-86.7 19.7,-83.8 20,-81.2 20.5,-77.5 21,-75 21.7,-71.3 22.3,-67.3 23,-63.5 23.7,-60 24.3,-57.3 25,-54.3 25.7,-51.5 26.5,-48.5 27.3,-45.8 28.3,-42.3 29,-39.7 30,-35.8 30.7,-33.2 31.8,-29.7 32.8,-26.7 33.8,-24 35,-21 36,-18.5 37.3,-14.8 38.2,-12.3 39.3,-8.7 40.5,-5.8 42,-2.2 43.2,0.2 44.3,3.3 45.5,6.2 47,9.8 48.5,12.7 49.8,15.2 51,17.3 52.3,20.3 53.5,23.2 55.2,26.8 56.3,29.2 58.2,32.5 59.7,35 61.3,37.8 62.8,40.7 64.2,43 66,46.2 67.3,48.5 69.5,51.8 71,54 72.7,56.7 74.3,59.5 76,62.3 78.3,65.7 79.7,67.7 81.5,70.3 83.3,72.8 85.3,75.5 87.3,78.2 89,80.3 91,83 93,85.5 95,88 97,90.5 99,93 101,95.5 103.7,98.5 105.8,101 108.2,103.5 109.3,104.8 111.3,107.2 113.3,109.5 116,112.5 118.3,114.7 120.8,117.2 123,119.3 125.3,121.8 127.5,123.8 130.5,126.5 132.8,128.7 135.2,130.8 136.5,132.2 138.5,134 140.8,136.3 143.3,138.7 146.3,141.2 148.3,142.8 151.3,145.3 153.2,147 155.8,149.3 157.7,151 160.3,153.3 162.7,155.2 165.2,157.2 167.5,159 170,161 172.3,163 174.8,165.2 176.8,167 179.5,169.2 182,171.3 185,173.7 187,175.3 189.5,177.2 191.5,178.8 194.5,181.3 196.5,183 199.5,185.3 201.5,186.8 203.8,188.8 206.2,190.8 208.5,192.8 211.7,195.3 213.8,197.2 216.5,199.3 218.7,201.2 221.7,203.5 224.2,205.3 226,206.7 227.5,208 229.7,210 232,212 234.8,214.3 237,216 239.7,218.2 241.2,219.5 243.3,221.5 244.8,222.8 247.2,224.5 248.7,225.5 250.3,226.8 252.3,228.3 254.5,229.8 256.5,231 258,232 260.2,233.2 262.2,234.3 264.5,235.2 266,235.8 268.3,236.7 269.8,237.2 271.3,237.7 273.2,238 274.8,238.3 276.5,238.7 278.2,239 280.2,239.3 282.5,239.5 284.2,239.5 285.5,239.5 287.7,239.3 289.3,239.2 291.2,239 292.3,238.8 293.8,238.7 296.2,238.3 298,238 299.7,237.7 300.3,237.5 302.2,237.3 304,237 306,236.7 306.8,236.5 307.8,236.3 309.8,236 311.8,235.7 314.3,235.2 315.7,234.8 317.2,234.5 319,234.3 320.8,234 323.5,233.5 325,233.2 326.8,232.8 327.7,232.7 330,232.3 332.2,232 334.3,231.7 336.2,231.3 338.2,231.2 340.5,230.8 341.7,230.7 343.8,230.3 345.8,230 348.8,229.5 350.7,229.2 353.2,228.8 354.7,228.7 357,228.3 358.8,228 360.7,227.7 363,227.3 365.2,227.2 367.7,226.8 369.8,226.5 372.2,226.2 374.2,226 375.8,225.8 377.2,225.7 379.3,225.5 381,225.5 382.8,225.5 384.7,225.5 386.3,225.5 388.3,225.5 389.5,225.5 390.7,225.5 391.3,225.7 392.2,225.8 393.7,226.3 395.3,226.8 396.8,227.3 397.5,227.5 398.2,227.7 398.8,227.8 399.7,228.3 401,229.2 402.3,230.2 403.5,230.8 404,231.2 404.5,231.3 405.3,232 406.2,232.5 407.7,233.7 408.8,234.5 410,235.3 410.7,235.8 411.8,236.8 413,237.8 414.7,239.2 415.7,240 416.8,241.2 417.3,241.8 418,242.7 419.2,243.7 420.3,244.7 421.3,245.5 421.7,245.8 421.8,246.2 422.2,246.5 422.7,247 423.2,247.5 423.8,248.2 424.3,249 425,249.7 425.7,250.3 426.5,251 427.3,252 428.7,253.3 430,254.7 431.3,255.8 432.2,256.7 433,257.3 434.5,258.5 435.7,259.5 436.7,260.5 437,261 437.5,261.3 438.7,262.2 439.8,263 441,264 441.7,264.7 442.3,265.3 443,265.8 444,266.7 445.5,267.8 447,269.2 448,270 448.7,270.7 449.5,271.5 450.3,272.3 451.8,273.7 453.2,274.8 454.5,276 455.3,276.7 456.2,277.2 457.3,278 458.7,279 460,280.2 461.2,281 462,281.7 463.2,282.7 464.8,284.2 466.3,285.5 467.5,286.5 469,287.7 470.5,288.8 472,290 473.5,291.2 475.2,292.5 476.8,293.7 478.5,295 480,296.2 481.7,297.5 482.3,298 483,298.5 484.2,299.5 485.7,301 487.5,302.7 489.3,304.3 491.5,305.8 493.3,307.2 494.5,308 495.7,309 497,310 499.2,311.7 500.7,312.8 502.7,314.7 503.8,315.8 505.8,317.5 507.3,318.5 509.7,320.2 511.3,321.5 512.8,322.8 514.3,324.2 515.7,325.2 518.2,327.2 520,328.5 522.7,330.7 524.2,331.8 526.5,333.7 528,334.8 529.8,336.2 531,337.2 533,338.8 534.8,340.3 537,342.2 539,343.8 541.5,346 543.5,347.7 545,349 547,350.7 549,352.3 551,354 553,355.7 555.2,357.5 557.8,359.7 559.7,361.2 561.5,362.8 563.7,364.7 565.5,366.3 567.7,368.2 569.5,369.8 571.7,371.8 573.5,373.5 576,375.8 578.2,377.8 580.7,380.2 581.8,381.3 583.8,383.2 585.8,385 587.8,387 589.8,389.2 591.8,391.3 594.5,394 596.3,395.8 598.3,398 600,400 602.2,402.5 603.7,404.2 605.5,406.2 607,408 609,410.5 610.8,412.7 613,415.5 614.7,417.7 616.2,419.8 617.8,422.2 619.3,424.3 621.2,427.2 622.5,429 624.5,432.2 626,434.5 627.5,437.2 629,439.8 630.3,442.2 632,445.2 633,447 634.8,450.3 636.2,452.7 637.8,456.2 638.8,458.7 640.2,462 641.3,464.5 642.5,467.3 643.5,469.7 644.7,472.8 645.8,475.7 647.2,479 648.2,481.5 649.5,484.8 650.5,487.3 651.8,490.7 652.7,492.8 653.8,496.2 654.7,498.2 655.7,501 656.5,503.7 657.7,507.7 658.7,510.8 659.8,514.2 660.7,516.3 661.5,519.5 662.2,522.2 663,525.5 664.2,528.5 665.2,531.7 666.2,534.8 667,538 667.8,540.5 668.8,543.7 669.7,546.3 670.8,550.3 671.7,553 672.8,556.8 673.8,560 674.8,563.2 675.7,566.2 676.5,568.8 677.5,572.2 678.5,574.8 679.5,578.2 680.3,580.8 681.3,584.3 682.3,587.2 683.3,590.2 684.3,593.3 685.3,596.5 686.3,599.7 687.2,602.7 687.8,605.3 688.8,608.7 689.7,611.5 690.7,614.7 691.5,617.7 692.3,620 693.5,623.7 694.5,626.7 695.5,629.7 696.2,631.8 697.2,635 698.2,638.3 699.2,641.8 700.2,645 701,647.8 702.2,651 702.8,653.5 703.7,656 704.3,658.3 705.3,661.2 706.5,665.2 707.5,668.2 708.2,670.8 708.8,673.2 709.5,675.7 710.5,678.8 711.3,681.3 712.2,684.2 713,686.7 713.8,689.8 714.5,692.3 715.3,695.7 716.2,698.2 717.2,701.3 717.7,703.2 718.3,706 718.8,708.2 719.7,711 720.5,713.8 721.2,716.5 721.8,719.2 722.5,721.7 723.2,724.2 723.8,726.7 724.5,729 725.2,731.3 725.8,734 726.3,736 727.2,738.8 727.7,740.7 728.2,743.3 728.5,745.3 729,747.2 729.5,749.2 730,750.8 730.5,753.8 730.8,755.7 731.3,758.3 731.7,759.8 732,761.5 732.3,763.5 732.7,765.3 733,767.3 733.2,768.2 733.3,769.2 733.7,770.8 733.8,772.5 734.2,774.2 734.5,775.7 734.8,777.3 735,778.8 735.2,779.5 735.5,781 735.8,782.5 736,784.2 736.2,785.7 736.3,787.2 736.7,788.5 736.8,789 737,789.5 737,790.5 737,791.5 737,792.5 737.2,794.3 737.3,796.2 737.5,798 737.5,798.5 737.5,799 737.5,799.5 737.5,800 737.5,800.8 737.3,801.8 737.2,802.8 737,803.5 737,804 737,804.5 736.8,805 736.5,805.8 736.2,806.7 735.8,807.5 735.7,808 735.3,808.3 735.2,808.7 735,809 734.7,809.7 734.2,810.2 733.5,810.7 731.7,812 729.5,813.5 727.2,815 726.2,815.5 725.3,815.8 724.7,816.2 722.3,816.8 720.2,817.5 718,818 717.5,818 716.8,818.2 716.2,818.3 715.5,818.5 713.8,819 712.2,819.5 710.5,820 710,820 709.5,820 709,820.2 708.5,820.3 707.2,820.7 705.7,820.8 704.3,821.2 703.2,821.5 702,821.8 700.7,822.2 700,822.3 699.5,822.5 698.2,822.7 696.2,823.2 694.2,823.7 693,824 692.5,824 691.2,824.3 689.8,824.7 688.5,825 687.2,825.3 685.8,825.7 684.3,826 683.7,826.2 682,826.5 680.5,826.8 678.3,827.3 676.8,827.7 675.3,828 673.8,828.3 672.5,828.7 671.2,829 669.7,829.3 668.2,829.7 665.8,830.3 664.3,830.7 662.2,831.2 660.8,831.5 658.8,832 657.5,832.5 656,832.8 654.2,833.3 652.5,833.7 650,834.2 648,834.7 645.8,835.2 644.5,835.7 643,836 641,836.7 639,837.2 637.5,837.7 635.8,838 633.7,838.7 631.5,839.2 629.3,839.8 627.7,840.2 625.3,840.8 623.5,841.2 621,841.8 618.7,842.3 616.2,843.2 614.2,843.8 612.2,844.5 610.5,845 607.8,845.7 605.5,846.3 603.3,847 601.5,847.5 599.2,848.2 596.3,848.8 594.3,849.5 592.3,850.2 590,851 587.8,851.7 585.3,852.5 583.3,853.2 580.5,854 578.3,854.7 575.3,855.7 573,856.5 571,857.2 568.8,857.8 566.7,858.7 563.7,859.7 561.5,860.3 559.2,861 557.2,861.7 555,862.5 552.5,863.3 550,864.2 548.2,864.8 546,865.5 544,866.2 540.8,867.2 538.7,868 536.7,868.7 535,869.2 533.2,869.8 530.8,870.5 528.7,871.2 526.5,871.7 524.5,872.3 523,872.7 521.5,873.2 519.3,873.5 517.3,873.8 515.3,874.2 514.5,874.3 513.3,874.5 512,874.5 510.2,874.5 508.7,874.5 506.8,874.5 505.2,874.5 503.3,874.3 502.2,874.2 500.7,873.8 499,873.7 497,873.3 495.8,873.2 494.8,872.8 493.7,872.5 492.3,872.2 490.7,871.7 489.3,871.3 487.5,870.7 486.2,870.3 484.3,869.7 483.2,869.2 481.5,868.5 480.2,867.8 478.7,867.2 477.7,866.7 476.2,866 474.8,865.3 472.8,864.2 471.7,863.3 470.3,862.5 469.5,861.8 468,860.8 466.7,859.8 465.3,858.8 464.5,858 463.5,857 462.7,856.2 461.5,855 460.5,853.8 459.2,852.3 458,851.2 456.7,849.8 455.5,848.7 454.8,847.7 454.3,847 454,846.5 453.2,845.3 452.3,844.2 451,842.3 450.2,841 449.3,839.7 448.8,838.7 448.3,837.7 447.8,836.7 447.3,835.5 446.3,833.8 445.5,832.2 444.5,830.3 443.8,829.2 442.8,827.7 442,826.2 441.2,824.7 440.5,823.3 439.8,822.3 438.8,820.7 438,819.2 437.2,817.5 436.7,816.5 435.8,815 435,813.7 433.8,811.5 432.8,809.8 432,808.2 431.3,806.8 430.7,805.5 429.8,804 429,802.5 428,800.7 426.8,798.7 425.8,797 424.8,795.3 424,793.8 422.7,791.7 421.5,789.7 420.5,788.2 419.7,786.5 418.8,785 417.8,783 417,781.7 415.7,779.3 414.5,777.5 413.3,775.5 412.7,774.5 411.8,772.8 411,771.2 409.7,768.7 408.5,766.7 407.5,765.2 406.8,764 406,762.5 405,760.5 403.7,758.2 402.5,756.3 401.3,754.3 400.7,753.2 399.8,751.3 399,749.8 397.7,747.5 396.5,745.7 395.5,744.2 394.8,743 394,741.5 392.7,739.2 391.5,737.3 390.3,735.3 389.7,734.2 388.8,732.5 388,730.8 386.7,728.5 385.5,726.7 384.5,725.3 383.8,724.2 383,722.7 381.7,720.5 380.3,718.7 379.2,717.2 378.7,716.3 377.3,714 376,711.7 374.5,709.5 373.8,708.7 373,707.2 372,705.5 371.2,704.2 370.5,703.5 369.7,702.5 369,701.5 368.3,700.5 367.7,699.5 366.7,698.3 365.7,697 365,696.2 364.5,695.5 364.2,695 363.5,693.8 362.7,692.5 361.7,691.2 361.2,690.5 360.8,690.2 360,689.2 359.2,688.2 358.3,687 358,686.7 357.7,686.3 356.8,685.3 355.7,683.8 354,682.2 352.8,681.3 352.2,680.8 351.8,680.7 351,679.8 349.8,679.2 347.2,677.8 344.7,677.2 342.2,676.3 341.3,676.3 339.7,676.7 338.2,677.2 336.5,677.5 335.2,677.8 333.2,678.8 330.7,680.3 328.2,682.5 326.2,684.3 324.2,686.2 323.2,687.2 322.3,687.8 321.8,688.3 321.3,688.8 320,690.5 319,692 317.8,693.3 317.5,693.7 317.2,694 316.7,694.7 316,695.3 315,696.2 314,697.3 313,698.8 312.3,700.2 311.8,701 311.5,701.5 311,701.8 309.8,703 308.5,704.5 307,706.2 305.7,707.8 304.3,709.5 302.7,711.8 301.5,713.3 300.5,714.5 299.8,715.2 298.8,716.3 297.8,717.5 296.8,718.8 295.8,720.2 294.8,721.5 293.8,722.8 293.2,723.7 292.2,724.8 291.2,725.8 289.8,727.3 288.8,728.7 287.7,730.3 286.8,731.5 286,732.7 284.7,734 283.3,735.3 281.7,737.2 280.8,738.3 280,739.5 279.5,740 278.2,741.3 276.8,742.7 275.2,744.5 274.3,745.3 273.3,746.5 272.2,747.7 270.8,749 269.5,750.2 267.8,751.7 266.3,753 264.2,754.7 262.7,755.5 261.2,756.5 260,757.2 258.7,757.8 257.3,758.5 255.7,759.3 254.3,760.2 252.8,760.8 251.7,761.3 250.5,761.7 249.3,762.2 247.8,762.5 246.2,763 244,763.5 242.7,764 241.3,764.3 240.7,764.5 239.5,764.5 238,764.7 236.3,764.8 234.7,765 233.3,765 231.8,765 230.2,765 228.2,765 226.3,765 224.7,765 223.3,765 221.7,765 220.3,765 219.2,764.8 217.7,764.5 216.3,764 214.8,763.7 213.3,763.3 211.7,763 209.7,762.5 208.3,762 207.2,761.5 206,761 204.7,760.3 202.8,759.5 201.5,758.7 200.3,758 198.7,757 197,756.2 195.5,755.3 194.8,755 194,754.3 192.3,753.2 190.8,752 189.2,750.8 188,749.8 186.8,748.8 185.3,747.3 184.2,746.2 182.7,744.8 181.5,743.7 180.3,742.5 179,741.2 177.8,740.2 175.8,738.5 174.3,737.2 173,736 171.7,734.7 170.3,733.3 169,732 167.7,730.7 166.3,729.3 164.8,727.7 163.7,726.5 162.3,725.2 160.8,723.8 159.5,722.5 158.2,721.2 156.2,719.3 154.5,717.8 152.8,716.3 152.2,715.7 150.8,714.5 149.7,713.3 148,711.7 146.8,710.3 145,708.5 143.5,707 141.7,705.2 140.3,704 138.8,702.5 137.7,701.5 136.2,699.8 134.8,698.7 133.3,697 132,695.8 130.2,694 128,692.2 126,690.3 124.7,689.2 123.8,688.5 122.3,687 120.7,685.5 119,683.8 117.3,682.3 115.8,680.7 114.3,679.2 112.7,677.5 110.8,675.8 109.2,674.2 108.2,673.2 106.8,671.8 105.3,670.3 103.7,668.7 102,667.2 99.8,665.2 98,663.7 96.7,662.3 95.8,661.5 94.7,660 92.7,658 90.7,656.2 88.8,654.5 87.7,653.5 86.3,652 85.2,651 83.2,649 81.5,647.5 79.5,645.5 78.2,644 76.7,642.5 74.5,640.5 72.7,639 70.8,637.3 69.7,636.3 68.5,635.2 66.8,633.3 65.2,631.5 63.5,629.7 62,628.3 60.3,626.7 58.5,625.2 56.7,623.5 55.2,622 53.7,620.5 52.2,619 50.7,617.7 48.8,615.8 46.7,613.8 44.8,612.2 43,610.5 41.8,609.5 40.3,608 39.2,606.8 37.5,605 35.8,603.2 33.8,601.2 32,599.3 29.8,597.3 28,595.7 26.5,594.3 25.3,593.3 23.8,591.8 22,590 20.5,588.5 19,587 17.5,585.7 15.7,583.8 13.8,582.2 12,580.3 9.8,578.3 8,576.7 6.7,575.3 5.5,574.3 4.2,572.8 2.7,571.5 1.2,570 -0.3,568.7 -2.2,566.8 -3.5,565.5 -5,564 -6.3,562.7 -8.5,560.7 -10.2,559.2 -12,557.5 -13.2,556.5 -14.3,555.5 -15.5,554.2 -17,552.5 -18.5,550.8 -20,549.5 -21.3,548 -22.7,546.7 -24.3,545.2 -25.7,544.2 -27,543 -27.8,542.2 -29.2,540.8 -30.5,539.5 -31.8,538.2 -32.7,537.3 -34,536.2 -35.3,534.8 -37.3,533 -38.8,531.5 -40.2,530.5 -40.8,530 -41.8,529.2 -42.7,528.3 -43.5,527.5 -44.5,526.3 -45.5,525.2 -46.8,523.7 -48.3,522.2 -50,520.7 -51.3,519.5 -52,519 -52.8,518.2 -53.7,517.3 -55,516.2 -56.3,515 -57.5,513.8 -59,512.3 -60.2,511.2 -61.5,510.2 -62.3,509.3 -63.2,508.5 -64.3,507.2 -65.3,506.3 -66.5,505.2 -67.5,504.3 -68.8,503 -70,502 -71.3,500.5 -72.2,499.7 -73.5,498.3 -74.5,497.5 -75.8,496.2 -77.3,494.8 -78.8,493.5 -80,492.5 -80.7,492 -81.5,491.2 -82.5,490.2 -83.3,489.2 -84.8,487.8 -86.2,486.5 -87.7,485.2 -88.7,484.2 -89.7,483.3 -90.8,482.2 -91.7,481.3 -92.8,480.2 -93.7,479.3 -95,477.8 -96,476.7 -97,475.7 -98,474.8 -99.3,473.7 -100.7,472.5 -102.2,471.3 -103.3,470.3 -104.5,469.2 -105,468.5 -105.5,468 -106.5,466.8 -108.2,465.2 -109.8,463.5 -111,462.5 -111.7,462 -112.2,461.5 -112.5,461.3" style="stroke: rgb(55, 65, 81); stroke-width: 10;"></polygon><polyline vector-effect="non-scaling-stroke" fill="none" points="-115.8,458 -116,457.8 -116.3,457.5 -116.7,457 -117.3,456.2 -118.2,455.3 -119.3,454.2 -120.7,452.8 -122,451.5 -123.5,450 -124.8,448.7 -129.2,444.7 -133,441.3 -136.3,438.3 -136.7,438 -137,437.7 -137.3,437.3 -137.7,437 -138.5,436 -139.5,435 -140.3,434 -141.5,432.8 -142.7,431.8 -144.2,430.7 -144.7,430.2 -145.2,429.5 -146.2,428.3 -147.3,427.2 -148.5,426 -149.3,425.2 -150.2,424.3 -151.3,423.2 -152.2,422.3 -153,421.5 -154.2,420.3 -155.3,419.2 -156.5,418 -157,417.5 -158.2,416.5 -159.5,415.3 -160.8,414.2 -161.8,413.2 -162.7,412.3 -164,411 -165,410 -166.2,408.8 -166.8,408.2 -168.2,407 -169.2,406 -170.7,404.7 -171.7,403.5 -172.8,402.3 -174.3,401 -175.7,399.8 -177,398.7 -177.5,398 -178.3,397.2 -179.3,396.3 -180.7,395.2 -182,393.8 -183.2,392.5 -184.5,391.2 -185.5,390.3 -186.8,389.2 -187.7,388.3 -189,387 -190.3,385.7 -191.7,384.3 -193,383 -194.3,381.8 -195.7,380.5 -197.3,379 -198.8,377.5 -200.3,376.3 -201.5,375.3 -202.3,374.5 -204,372.7 -205.2,371.3 -206.7,370 -207.7,369.2 -208.7,368.3 -210,367 -211.3,365.7 -212.7,364.3 -214.2,362.8 -215.5,361.5 -217.3,359.7 -218.5,358.5 -219.8,357.2 -221.2,355.8 -222.5,354.5 -224.5,352.7 -226,351.3 -227.7,350 -228.7,349 -230,347.7 -231.7,345.8 -233,344.5 -234.5,343.2 -236,341.8 -237.5,340.5 -239,339 -240.3,337.7 -241.7,336.3 -243,335 -244.5,333.7 -246.3,332 -248.2,330.3 -250.5,328.2 -252.5,326.3 -254,325 -254.7,324.3 -255.7,323.3 -257.2,321.8 -259,320 -261,318.2 -262.5,316.8 -264,315.5 -265.3,314.2 -266.7,312.7 -268.5,310.8 -270,309.3 -272.2,307.3 -273.5,305.8 -275.3,304 -277,302.3 -278.5,301 -280.2,299.5 -281.7,298 -283.5,296.2 -284.8,294.8 -286.5,293.3 -288.5,291.5 -290.5,289.7 -291.8,288.3 -293.5,286.8 -295,285.3 -296.8,283.5 -298.3,282 -300.2,280.2 -301.7,278.8 -303.2,277.3 -304.3,276.2 -306.2,274.3 -307.8,272.5 -309.8,270.3 -311.7,268.3 -313.8,266.5 -315.8,264.8 -317.3,263.7 -318.5,262.5 -320,261 -321.8,259.2 -323.7,257.3 -325,256 -326.8,254.2 -328.3,252.8 -330.5,250.8 -331.8,249.5 -333.7,247.5 -334.8,246.2 -336.7,244.3 -338,243 -339.8,241.3 -342,239.5 -344.2,237.7 -345.8,236.2 -346.8,235.2 -347.7,234.3 -349.3,232.5 -350.7,231 -353,228.7 -354.5,227.3 -356.2,225.8 -356.8,225.3 -357.5,224.7 -358.5,223.5 -360,221.7 -361.7,220 -363.5,218.3 -364.8,217.2 -366,216 -366.5,215.5 -367,215 -368.2,213.8 -369.2,212.7 -371.2,210.8 -372.3,209.7 -373.7,208.5 -374,208 -374.5,207.5 -375,207 -375.5,206.5 -376.5,205.3 -377.5,204.2 -378.3,203 -378.7,202.5 -379.3,201.5 -380.2,200.5 -380.8,199.5 -381.3,198.7 -381.7,197.8 -382,197 -382.2,196.5 -382.3,196 -382.5,195.5 -382.7,195 -382.8,194.5 -383,194 -383,193 -383,192 -383,190.8 -383,190 -383,189.2 -383,188.2 -382.8,187.2 -382.7,186 -382.5,185.2 -382.3,184.2 -382.2,183.3 -381.8,182.5 -381.7,182 -381.5,181.5 -381.3,181 -381.2,180.5 -380.7,179.7 -380.3,178.8 -379.7,177.7 -378.7,175.8 -377,173 -375.7,170.5 -374.8,169.2 -374.5,168.3 -374,167.5 -373.5,166.2 -373,165.3 -372.5,164.2 -372,163.3 -371.7,162.3 -370.8,160.5 -370.2,158.7 -369.5,157 -369.3,156.5 -369.2,155.8 -368.7,154.8 -368.3,153.8 -367.7,151.7 -367.2,150 -366.7,148.2 -366.3,146.8 -366,145.5 -365.7,144.2 -365.3,142.7 -365,141 -364.7,139.5 -364.5,138.8 -364.2,137.3 -363.8,135.3 -363.5,133.3 -363.5,132.2 -363.3,131.3 -363,129.7 -362.7,128 -362.5,126 -362.5,124.3 -362.5,122.7 -362.5,121 -362.5,119.3 -362.5,117.7 -362.5,115.8 -362.5,114.7 -362.5,113 -362.7,110.7 -362.8,108.3 -363,106.3 -363,105.3 -363,103.8 -363.2,101.7 -363.5,99.7 -363.8,98.2 -364,97.3 -364.3,95.5 -364.7,93.7 -365.2,91 -365.7,88.8 -366.2,86.7 -366.5,85.3 -366.8,83.8 -367.2,82.3 -367.8,80.2 -368.2,78.7 -368.8,76.7 -369.5,74.8 -370.2,73.2 -371,71 -372,68.8 -373.2,66.5 -373.8,65.2 -374.3,63.8 -375.2,62 -376.2,60.2 -377.5,58 -378.5,56.3 -379.5,54.5 -380.2,53.3 -381.2,51.7 -382.5,49.5 -383.7,47.7 -384.8,46 -386.2,44.3 -387.3,42.7 -388.7,41.2 -389.8,39.8 -391.2,38.5 -392.2,37.3 -393.3,36 -395,34.2 -396.5,32.5 -397.8,31 -399.3,29.5 -401,27.8 -402.7,26.5 -403.7,25.7 -405.3,24.2 -406.7,22.8 -408.7,20.8 -410.2,19.5 -412.3,17.7 -414,16.3 -415.3,15.2 -416.8,13.8 -418.3,12.7 -420,11.3 -421.3,10.2 -423.2,8.5 -425.2,7 -426.8,5.8 -428.7,4.5 -430.2,3.2 -432,1.5 -433,0.5 -434.5,-1 -436.3,-2.5 -438.3,-4.2 -440,-5.5 -441.7,-7 -443.2,-8.3 -444.8,-9.5 -446.5,-10.8 -448.3,-12.3 -450.5,-14.5 -451.8,-15.8 -453.3,-17.2 -455,-18.5 -456.7,-19.8 -458.5,-21.5 -459.8,-22.8 -461.8,-24.8 -463.5,-26.5 -465.5,-28.3 -466.8,-29.5 -468.5,-30.8 -470.2,-32.3 -472,-33.8 -474,-35.8 -475.8,-37.5 -477.5,-39.2 -479,-40.5 -480.3,-41.8 -482.5,-44 -484.3,-45.7 -486.3,-47.5 -487.5,-48.5 -489,-50 -490.7,-51.8 -492.3,-53.7 -494,-55.5 -495.3,-57 -497.3,-58.8 -499.2,-60.5 -501.3,-62.3 -503.2,-64.2 -504.7,-65.7 -506,-67 -507.3,-68.5 -509.3,-70.5 -511.2,-72.5 -513.2,-74.3 -515,-76.2 -516.5,-77.5 -518.2,-79.5 -519.3,-81 -521,-82.8 -523,-84.7 -525,-86.5 -526.8,-88.5 -528.3,-90 -530.2,-91.8 -532.2,-93.7 -534,-95.7 -535.5,-97.3 -537,-99 -538.3,-100.7 -540.5,-103 -542.2,-105 -544,-106.8 -545.3,-108.3 -547.2,-110.5 -549,-112.5 -550.7,-114.3 -552.5,-116.2 -554,-117.8 -555.7,-119.7 -557.2,-121.3 -558.7,-122.8 -560,-124.5 -561.7,-126.7 -563.7,-129.2 -566,-131.8 -567.5,-133.3 -569,-135 -570.5,-136.8 -572.3,-139 -574.2,-141.3 -575.8,-143.2 -577.5,-144.8 -579,-146.5 -580.2,-148 -581.8,-150.2 -583.7,-152.3 -585.7,-154.5 -587.3,-156.7 -588.7,-158.3 -590.7,-160.8 -592.2,-162.7 -594,-165.2 -595.3,-167 -596.8,-169 -598.3,-170.8 -600.2,-173.2 -601.8,-175.2 -603.8,-177.5 -605.2,-179 -607,-181.3 -608.3,-183 -609.8,-185 -611.7,-187.3 -613.2,-189.3 -614.8,-191.7 -616.2,-193.3 -617.8,-195.5 -619.5,-197.7 -620.7,-199.3 -622,-201.2 -623,-202.5 -624.8,-205 -626.2,-207 -628.3,-209.8 -629.7,-211.7 -631.2,-213.5 -632.3,-215.3 -634,-217.7 -635.5,-219.8 -637.2,-222.2 -638.3,-223.8 -640,-226.2 -641.3,-228 -643,-230.2 -644.3,-232 -645.3,-233.2 -646.7,-235.2 -647.8,-236.8 -649.8,-239.8 -651.2,-241.7 -652.5,-243.7 -653.7,-245.5 -655.2,-247.8 -657.2,-250.7 -658.5,-252.5 -659.7,-254.3 -660.8,-256.2 -662.3,-258.3 -663.8,-260.3 -665,-262.2 -666.5,-264.7 -667.8,-266.8 -669.2,-268.8 -670.3,-270.5 -671.5,-272.3 -673,-274.7 -674,-276.2 -675.7,-278.7 -676.8,-280.3 -678.3,-282.8 -679.7,-285 -681.2,-287.3 -682.3,-289 -683.5,-290.8 -684.5,-292.7 -685.8,-295 -687.2,-297.2 -688.5,-299.5 -689.7,-301.5 -690.7,-303.3 -691.8,-305.3 -693.3,-307.7 -694.5,-309.7 -695.7,-311.5 -696.7,-313.3 -697.8,-315.2 -699,-317.2 -700,-319.2 -701,-321.2 -702.2,-323.3 -703.5,-325.5 -704.8,-327.7 -706,-329.7 -707,-331.5 -708.2,-333.7 -709.2,-335.5 -710.3,-337.3 -711.3,-338.8 -712.2,-340.2 -713.2,-342.2 -713.8,-343.8 -715.2,-346.3 -716,-348.2 -717.3,-350.5 -718.2,-352.2 -719.2,-354 -719.8,-355.5 -720.5,-356.8 -721.5,-358.7 -722.5,-360.5 -723.3,-362.3 -723.8,-363.5 -724.5,-364.8 -725.3,-366.2 -726,-367.2 -726.8,-368.8 -727.7,-370.5 -728.3,-372 -728.8,-373 -729.3,-374 -730,-375.3 -730.5,-376.2 -730.8,-377 -731.7,-378.7 -732.3,-380.5 -733.2,-382.3 -733.3,-383 -733.5,-383.5 -733.7,-384.2 -733.8,-385 -734,-386.7 -734.2,-388 -734.3,-389.2 -734.5,-389.8 -734.3,-390.8 -734.2,-391.8 -734,-392.5 -734,-393 -734,-393.5 -733.7,-395 -733.2,-396.7 -732.7,-398.3 -732.5,-399 -732.3,-399.5 -731.8,-400.5 -731.2,-401.3 -730.7,-402.2 -730.3,-402.5 -730.2,-403 -729.8,-403.5 -729.3,-404 -728.8,-404.5 -728.2,-405 -727.5,-405.7 -726.7,-406.3 -726,-406.8 -725.3,-407.2 -723.7,-408 -722,-408.8 -720.5,-409.5 -719.2,-410 -718,-410.7 -716.2,-411.5 -715.2,-411.8 -714,-412.2 -713.5,-412.3 -712.5,-412.7 -711.5,-412.8 -710.5,-413 -709.5,-413.2 -708.5,-413.5 -707.5,-413.8 -706,-414.2 -703.8,-414.7 -701.7,-415.2 -700.5,-415.5 -699.5,-415.7 -697.3,-416.2 -695.2,-416.7 -693.5,-417 -692.8,-417 -692.2,-417 -690.7,-417.3 -689.2,-417.7 -687.7,-418 -686.7,-418 -685.5,-418.2 -683.3,-418.5 -681.5,-418.8 -680,-419 -678.8,-419.3 -677.5,-419.7 -675.5,-420.2 -674,-420.3 -672.7,-420.7 -671.8,-420.8 -670,-421.2 -668.2,-421.3 -666.5,-421.7 -665,-422 -663.5,-422.3 -661.8,-422.7 -660.2,-423 -658.3,-423.3 -656.7,-423.5 -655,-423.8 -653.5,-424.2 -652,-424.5 -651.3,-424.7 -649.8,-425 -648.2,-425.3 -646.5,-425.7 -645.2,-425.8 -643.3,-426.2 -641.7,-426.5 -640.5,-426.8 -639,-427.2 -637.3,-427.5 -635.2,-428 -634,-428.3 -632.8,-428.7 -632.2,-428.8 -630.3,-429.2 -628.7,-429.5 -627,-429.8 -625.8,-430.3 -624.7,-430.7 -623,-431.2 -622,-431.5 -620.3,-432 -618.3,-432.8 -616.3,-433.5 -614.3,-434.5 -613.2,-435.2 -611.5,-436.2 -610.5,-436.8 -609.5,-437.5 -608.5,-438.3 -606.7,-440.2 -604.8,-442 -603.5,-443.5 -603.2,-444 -602.3,-445.2 -601.5,-446.3 -600.7,-447.5 -599.8,-449.2 -599.2,-450.8 -598.3,-452.5 -598.2,-453 -598,-453.5 -597.7,-454.7 -597.3,-455.8 -597,-457 -596.8,-458.5 -596.5,-459.8 -596.2,-461.3 -596,-462.3 -596,-463.7 -596,-465 -596,-465.8 -596,-466.8 -596,-467.8 -596,-469.3 -596,-470.7 -596,-472 -596,-472.8 -596,-473.8 -596,-475.2 -596,-476.7 -596.2,-478 -596.3,-478.8 -596.5,-480.2 -596.5,-481.3 -596.5,-483.2 -596.7,-485.2 -596.8,-487.2 -597,-488.7 -597,-489.5 -597,-490.7 -597,-491.8 -597.2,-493.5 -597.3,-495.2 -597.5,-496.8 -597.5,-498.3 -597.5,-499.5 -597.5,-501.5 -597.7,-503.8 -597.8,-506.2 -598,-507.8 -598.2,-508.7 -598.3,-510 -598.5,-511.5 -598.5,-513.3 -598.5,-515 -598.5,-516.8 -598.5,-518.5 -598.5,-520.3 -598.8,-522.5 -599.2,-524.7 -599.5,-526.7 -599.5,-528.2 -599.5,-529.5 -599.5,-531.7 -599.5,-533.5 -599.5,-535.7 -599.5,-537.3 -599.8,-539.8 -600.2,-542.2 -600.5,-544.2 -600.5,-545.7 -600.5,-547.7 -600.5,-549.8 -600.5,-551.5 -600.5,-553.7 -600.8,-556.2 -601.2,-558.7 -601.5,-560.3 -601.5,-561.8 -601.5,-563.5 -601.5,-565.5 -601.5,-567.5 -601.5,-570 -601.7,-572.7 -602,-575 -602.3,-577.2 -602.5,-578.5 -602.5,-580.5 -602.5,-582.7 -602.5,-585.2 -602.5,-587.2 -602.7,-589.7 -602.8,-591.8 -603.2,-594.3 -603.3,-596 -603.5,-598.3 -603.5,-600.7 -603.5,-602.7 -603.7,-605.3 -603.8,-607.2 -604,-609.2 -604,-610.5 -604.2,-612.3 -604.3,-614.7 -604.5,-617 -604.5,-619.2 -604.5,-621.2 -604.5,-623 -604.7,-625.5 -604.8,-627.7 -605,-629.7 -605,-631.2 -605,-633 -605,-634.8 -605,-636.8 -605,-638.8 -605,-640.5 -605,-642.3 -605,-643.7 -605,-645.2 -604.8,-647 -604.5,-648.8 -604.2,-650.7 -604,-651.3 -603.7,-652.8 -603.3,-654.3 -603,-655.8 -602.5,-657.5 -601.8,-659 -601.2,-660.7 -600.8,-661.3 -600.2,-662.8 -599.5,-664.2 -598.5,-666 -598,-667 -597,-668.5 -596.3,-669.5 -595.5,-670.5 -594.8,-671.3 -593.7,-672.8 -592.3,-674.3 -591.3,-675.5 -590.5,-676.2 -589.7,-677 -588.7,-678 -587.5,-679.2 -586.3,-680.2 -584.7,-681.5 -583.5,-682.3 -582.3,-683.5 -581.7,-684.2 -580.5,-685.3 -579.2,-686.3 -577.8,-687.3 -576.2,-688.5 -575,-689.5 -573.7,-690.5 -572.5,-691.5 -571,-692.5 -569.3,-693.8 -568.3,-694.7 -566.8,-695.8 -565.5,-696.8 -564,-697.8 -562.7,-698.8 -561.3,-699.8 -559.7,-701.2 -558.5,-702 -556.7,-703.3 -555.3,-704.3 -553.7,-705.7 -552.8,-706.3 -551.3,-707.3 -550.2,-708.2 -548,-709.8 -546.5,-711 -544.5,-712.5 -543.5,-713.2 -541.5,-714.7 -540,-715.8 -538.3,-717.2 -537.3,-718 -535.5,-719.3 -533.7,-720.7 -531.8,-722 -530.2,-723.3 -528.5,-724.5 -527.2,-725.5 -525.5,-726.8 -524,-728.2 -521.8,-729.8 -520.7,-730.5 -518.7,-731.8 -517.3,-732.8 -514.8,-734.8 -513.2,-736.2 -511.3,-737.5 -509.8,-738.5 -508.3,-739.7 -506,-741.5 -504.5,-742.8 -502,-744.5 -500.5,-745.5 -498.2,-747.2 -496.7,-748.3 -495.2,-749.5 -493.5,-750.7 -492,-751.8 -489.7,-753.5 -488.2,-754.7 -486,-756 -483.7,-757.5 -481.5,-758.8 -479,-760.7 -477.5,-761.7 -475.3,-763 -473.2,-764.2 -470.8,-765.7 -468.7,-767 -466.3,-768.3 -464.2,-769.5 -462.3,-770.5 -460.7,-771.5 -458,-773 -455.2,-774.5 -453.3,-775.5 -451.7,-776.2 -449.3,-777.3 -446.7,-778.7 -444.7,-779.7 -442.5,-780.7 -440.3,-781.5 -437.7,-782.8 -436,-783.5 -433.7,-784.7 -431,-785.7 -428.5,-786.8 -425.7,-787.8 -423.8,-788.7 -420.8,-789.8 -419,-790.5 -416.3,-791.3 -414,-792.2 -411.5,-793.2 -408.7,-794.5 -406.5,-795.3 -403.8,-796.3 -401.3,-797.2 -398.5,-798.2 -395.7,-799.3 -393.3,-800.2 -390.5,-801.3 -387.8,-802.5 -385.2,-803.7 -383.2,-804.5 -380.5,-805.5 -377.8,-806.5 -375.3,-807.5 -373.3,-808.2 -371,-809.2 -368.2,-810.2 -365.7,-811.2" style="stroke: rgb(239, 68, 68); stroke-width: 7;"></polyline><polyline vector-effect="non-scaling-stroke" fill="none" points="-363,-812.2 -360.5,-813.2 -357.3,-814.5 -354.8,-815.7 -352.7,-816.7 -350.3,-817.7 -347.8,-818.5 -345.3,-819.5 -343,-820.5 -341,-821.5 -338.5,-822.7 -335.8,-823.8 -333.3,-825 -330.7,-826.2 -328.7,-827 -326.2,-828 -323.8,-829 -321,-830.5 -318.5,-831.8 -316.2,-833.2 -314.5,-834 -312.3,-835 -309.8,-836.5 -307.5,-837.8 -305.3,-839.2 -303.5,-840 -300.8,-841.5 -298.7,-842.8 -295.8,-844.5 -294.2,-845.5 -291.5,-847 -290,-847.8 -287.8,-849.2 -286.7,-850 -284.8,-851.2 -283,-852.3 -281,-853.5 -279.7,-854.5 -278.2,-855.3 -276.8,-856 -274.8,-857.2 -273.7,-857.8 -272.3,-858.7 -271,-859.5 -269.7,-860.5 -268.5,-861.3 -267.8,-861.7 -266.3,-862.3 -264.8,-863.2 -263.3,-863.8 -262.2,-864.3 -261,-864.8 -259.5,-865.5 -258.3,-866 -256.3,-866.5 -254.8,-867 -253.3,-867.3 -252.7,-867.7 -251.8,-867.8 -250.7,-868 -249.3,-868.2 -247.8,-868.3 -246.5,-868.5 -245.2,-868.5 -243.7,-868.5 -242,-868.7 -240.5,-868.8 -239.2,-869 -237.8,-868.8 -236.5,-868.7 -235.5,-868.5 -234.8,-868.5 -233.3,-868.3 -232,-868 -230.7,-867.7 -229.2,-867.2 -226.5,-866.3 -223.7,-865.2 -221.8,-864.3 -221,-863.8 -219.8,-863.2 -218.7,-862.5 -217.5,-861.8 -217,-861.5 -216.3,-860.8 -214.8,-859.7 -212.8,-858 -210.8,-856.5 -209.5,-855.3 -208,-854.2 -206.3,-852.8 -204.7,-851.7 -203.8,-851 -203.2,-850.5 -202,-849.5 -200.7,-848.5 -199.3,-847.5 -198.7,-846.8 -197.2,-845.7 -195.8,-844.5 -193.7,-843.2 -192.3,-842.3 -191,-841.5 -189.8,-840.7 -188.7,-839.8 -186.3,-838.5 -184.7,-837.7 -182.8,-836.8 -182.2,-836.5 -180.5,-835.5 -178.3,-834.3 -176.2,-833.3 -174.8,-832.8 -173.3,-832.2 -171.7,-831.3 -169.7,-830.3 -168,-829.7 -166.2,-829 -164.5,-828.5 -162.5,-827.8 -160.8,-827.2 -158.7,-826.3 -157.3,-825.8 -154.7,-825 -152.5,-824.5 -150.2,-823.8 -149,-823.7 -147.3,-823.3 -145.7,-823 -143,-822.5 -141,-822 -139,-821.7 -136.8,-821.3 -134.2,-821 -131.7,-820.7 -130.2,-820.5 -128.7,-820.3 -126.7,-820.2 -124,-819.8 -121.5,-819.7 -119.2,-819.5 -117.8,-819.5 -115.8,-819.3 -113.8,-819.2 -110.7,-819 -108.5,-819 -105.5,-819 -103.7,-819 -101.3,-818.8 -99.7,-818.7 -97.5,-818.5 -95.7,-818.5 -93.2,-818.3 -90.2,-818 -87.3,-817.7 -85.5,-817.5 -83.2,-817.2 -80.8,-816.8 -78.5,-816.3 -76.7,-816 -75,-815.5 -72.3,-815 -70.3,-814.5 -67.8,-814 -65.3,-813.3 -63.2,-812.8 -60.7,-812.2 -58.2,-811.5 -55.7,-810.8 -53.7,-810.3 -51.5,-809.7 -49.2,-808.8 -46.8,-808.2 -44.8,-807.5 -42.7,-806.8 -40.3,-805.8 -37.8,-804.8 -35.5,-803.8 -32.5,-802.7 -30.7,-801.8 -27.8,-800.5 -25.7,-799.5 -23.2,-798.3 -21.2,-797.3 -19.5,-796.3 -17.2,-795 -14.8,-793.7 -11.8,-792 -9.3,-790.7 -7.2,-789.5 -5.7,-788.7 -3.7,-787.3 -1.5,-785.8 1,-784 3.3,-782.3 5.3,-781 8,-779 10.3,-777 13.5,-774.3 15.5,-772.7 17.8,-770.7 19.5,-769.2 21.5,-767.3 23.7,-765.3 25.5,-763.5 27.7,-761.3 28.8,-760.2 31.2,-757.7 33.3,-755.3 35.5,-753 37,-751.3 38.5,-749.7 40.5,-747.2 42,-745.3 43.7,-743.2 45.3,-741.2 47.3,-738.5 48.8,-736.5 50.5,-734.2 51.8,-732.5 53.7,-729.8 55,-727.8 56.8,-725 58,-723 59.5,-720.3 60.7,-718.2 61.8,-716.2 63,-714 63.8,-712.2 65.3,-709 66.5,-706.5 67.8,-703.8 68.7,-701.8 69.7,-699.2 70.7,-696.7 71.7,-694 72.3,-691.8 73.2,-688.8 74,-686.2 74.8,-684.2 75.7,-682.2 76.2,-680.5 77,-677.2 77.8,-673.8 78.7,-670.7 79.2,-669 79.7,-666.7 80.5,-663.5 81.2,-660.5 81.8,-658 82.3,-655.7 83,-652.8 83.5,-649.8 84,-647.3 84.7,-644 85.3,-641.2 86,-638.3 86.5,-635.5 87,-633 87.3,-630.7 87.8,-628.3 88.5,-624.8 89.3,-621 90,-618.3 90.3,-616.8 90.8,-614.3 91.5,-610.7 92.2,-607.2 92.8,-604.2 93.2,-602.3 93.8,-599.5 94.3,-597.2 95,-593.7 95.7,-590.7 96.2,-587.8 96.8,-584.8 97.3,-582.2 98,-578.7 98.7,-575.7 99.3,-572.7 100,-569.7 100.5,-567.5 101,-564 101.7,-561.2 102.2,-558.2 102.8,-555.2 103.2,-552.3 103.7,-549.7 103.8,-548 104.3,-544.8 104.7,-541.7 105.2,-537.8 105.5,-535.5 105.8,-532.3 106.2,-528.7 106.3,-525.2 106.5,-521.8 106.7,-519.3 106.8,-516.3 107,-513.8 107,-510.7 107,-508 107,-504.5 107,-501.5 107,-498.5 107,-495 107,-491.7 107,-488.3 106.7,-485.2 106.3,-482.2 106,-479.2 106,-476.8 105.7,-473.8 105.3,-470.2 105,-467 104.7,-463.7 104.3,-461 103.8,-458.3 103.5,-455.8 103,-453.3 102.5,-449.8 101.8,-446.7 101,-442.8 100.3,-439.5 99.7,-436.5 99.2,-434 98.3,-430.8 97.8,-428.3 97.2,-425.3 96.5,-422.8 95.3,-419.2 94.3,-416.2 93.3,-413 92.5,-410.7 91.5,-407.7 90.3,-404.7 89,-400.8 87.8,-397.2 86.8,-394.3 85.8,-391.8 84.5,-388.8 83,-385.2 81.8,-381.8 80.7,-378.8 79.8,-376.3 78.7,-373.7 77.3,-370.5 76,-367 74.8,-364 73.8,-361 72.7,-358.2 71.7,-355.3 70.3,-352.3 69,-349.3 67.5,-345.8 66.5,-342.8 65.5,-339.8 64.7,-337.3 63.3,-334.3 62,-331.2 60.5,-327.3 59.5,-324.3 58.7,-321.8 57.3,-318.8 56,-315.8 54.5,-312.3 53.5,-309.3 52.5,-306.3 51.7,-303.8 50.3,-300.8 49,-297.5 47.5,-293.8 46.3,-290.2 45.3,-287.3 43.8,-283.7 42.7,-281.3 41.3,-278.3 40.3,-275.7 39.3,-272.7 38,-268.7 37,-265.7 35.7,-262.3 34.7,-260 33.5,-257 32.5,-254 31.3,-250.3 30.2,-246.5 29,-242.8 28,-239 27.2,-236 26.5,-232.7 25.7,-230 24.8,-226.7 23.8,-222.8 23.2,-219.8 22.3,-216 21.8,-213.5 21.2,-209.7 20.8,-207.3 20.2,-203.2 19.8,-200.3 19.2,-196.3 18.8,-194.2 18.2,-190.3 17.8,-187.7 17.3,-183.8 17,-180.8 16.7,-177.7 16.3,-174.2 16.2,-171.5 15.7,-168.2 15.3,-164.8 15,-161 15,-157.2 15,-154.2 15,-150.8 15,-147.3 15,-144.5 15,-141.8 15,-139 15,-135.3 15,-131.5 15,-128.3 15,-125.8 15.2,-122.7 15.5,-119.3 15.8,-115.5 16,-113 16.2,-109.8 16.7,-106 17.2,-102 17.5,-99.3 17.7,-96.5 18.2,-93 18.8,-89.2 19.3,-86.7 19.7,-83.8 20,-81.2 20.5,-77.5 21,-75 21.7,-71.3 22.3,-67.3 23,-63.5 23.7,-60 24.3,-57.3 25,-54.3 25.7,-51.5 26.5,-48.5 27.3,-45.8 28.3,-42.3 29,-39.7 30,-35.8 30.7,-33.2 31.8,-29.7 32.8,-26.7 33.8,-24 35,-21 36,-18.5 37.3,-14.8 38.2,-12.3 39.3,-8.7 40.5,-5.8 42,-2.2 43.2,0.2 44.3,3.3 45.5,6.2 47,9.8 48.5,12.7 49.8,15.2 51,17.3 52.3,20.3 53.5,23.2 55.2,26.8 56.3,29.2 58.2,32.5 59.7,35 61.3,37.8 62.8,40.7 64.2,43 66,46.2 67.3,48.5 69.5,51.8 71,54 72.7,56.7 74.3,59.5 76,62.3 78.3,65.7 79.7,67.7 81.5,70.3 83.3,72.8 85.3,75.5 87.3,78.2 89,80.3 91,83 93,85.5 95,88 97,90.5 99,93 101,95.5 103.7,98.5 105.8,101 108.2,103.5 109.3,104.8 111.3,107.2 113.3,109.5 116,112.5 118.3,114.7 120.8,117.2 123,119.3 125.3,121.8 127.5,123.8 130.5,126.5 132.8,128.7 135.2,130.8 136.5,132.2 138.5,134 140.8,136.3 143.3,138.7 146.3,141.2 148.3,142.8 151.3,145.3 153.2,147 155.8,149.3" style="stroke: rgb(59, 130, 246); stroke-width: 7;"></polyline><polyline vector-effect="non-scaling-stroke" fill="none" points="157.7,151 160.3,153.3 162.7,155.2 165.2,157.2 167.5,159 170,161 172.3,163 174.8,165.2 176.8,167 179.5,169.2 182,171.3 185,173.7 187,175.3 189.5,177.2 191.5,178.8 194.5,181.3 196.5,183 199.5,185.3 201.5,186.8 203.8,188.8 206.2,190.8 208.5,192.8 211.7,195.3 213.8,197.2 216.5,199.3 218.7,201.2 221.7,203.5 224.2,205.3 226,206.7 227.5,208 229.7,210 232,212 234.8,214.3 237,216 239.7,218.2 241.2,219.5 243.3,221.5 244.8,222.8 247.2,224.5 248.7,225.5 250.3,226.8 252.3,228.3 254.5,229.8 256.5,231 258,232 260.2,233.2 262.2,234.3 264.5,235.2 266,235.8 268.3,236.7 269.8,237.2 271.3,237.7 273.2,238 274.8,238.3 276.5,238.7 278.2,239 280.2,239.3 282.5,239.5 284.2,239.5 285.5,239.5 287.7,239.3 289.3,239.2 291.2,239 292.3,238.8 293.8,238.7 296.2,238.3 298,238 299.7,237.7 300.3,237.5 302.2,237.3 304,237 306,236.7 306.8,236.5 307.8,236.3 309.8,236 311.8,235.7 314.3,235.2 315.7,234.8 317.2,234.5 319,234.3 320.8,234 323.5,233.5 325,233.2 326.8,232.8 327.7,232.7 330,232.3 332.2,232 334.3,231.7 336.2,231.3 338.2,231.2 340.5,230.8 341.7,230.7 343.8,230.3 345.8,230 348.8,229.5 350.7,229.2 353.2,228.8 354.7,228.7 357,228.3 358.8,228 360.7,227.7 363,227.3 365.2,227.2 367.7,226.8 369.8,226.5 372.2,226.2 374.2,226 375.8,225.8 377.2,225.7 379.3,225.5 381,225.5 382.8,225.5 384.7,225.5 386.3,225.5 388.3,225.5 389.5,225.5 390.7,225.5 391.3,225.7 392.2,225.8 393.7,226.3 395.3,226.8 396.8,227.3 397.5,227.5 398.2,227.7 398.8,227.8 399.7,228.3 401,229.2 402.3,230.2 403.5,230.8 404,231.2 404.5,231.3 405.3,232 406.2,232.5 407.7,233.7 408.8,234.5 410,235.3 410.7,235.8 411.8,236.8 413,237.8 414.7,239.2 415.7,240 416.8,241.2 417.3,241.8 418,242.7 419.2,243.7 420.3,244.7 421.3,245.5 421.7,245.8 421.8,246.2 422.2,246.5 422.7,247 423.2,247.5 423.8,248.2 424.3,249 425,249.7 425.7,250.3 426.5,251 427.3,252 428.7,253.3 430,254.7 431.3,255.8 432.2,256.7 433,257.3 434.5,258.5 435.7,259.5 436.7,260.5 437,261 437.5,261.3 438.7,262.2 439.8,263 441,264 441.7,264.7 442.3,265.3 443,265.8 444,266.7 445.5,267.8 447,269.2 448,270 448.7,270.7 449.5,271.5 450.3,272.3 451.8,273.7 453.2,274.8 454.5,276 455.3,276.7 456.2,277.2 457.3,278 458.7,279 460,280.2 461.2,281 462,281.7 463.2,282.7 464.8,284.2 466.3,285.5 467.5,286.5 469,287.7 470.5,288.8 472,290 473.5,291.2 475.2,292.5 476.8,293.7 478.5,295 480,296.2 481.7,297.5 482.3,298 483,298.5 484.2,299.5 485.7,301 487.5,302.7 489.3,304.3 491.5,305.8 493.3,307.2 494.5,308 495.7,309 497,310 499.2,311.7 500.7,312.8 502.7,314.7 503.8,315.8 505.8,317.5 507.3,318.5 509.7,320.2 511.3,321.5 512.8,322.8 514.3,324.2 515.7,325.2 518.2,327.2 520,328.5 522.7,330.7 524.2,331.8 526.5,333.7 528,334.8 529.8,336.2 531,337.2 533,338.8 534.8,340.3 537,342.2 539,343.8 541.5,346 543.5,347.7 545,349 547,350.7 549,352.3 551,354 553,355.7 555.2,357.5 557.8,359.7 559.7,361.2 561.5,362.8 563.7,364.7 565.5,366.3 567.7,368.2 569.5,369.8 571.7,371.8 573.5,373.5 576,375.8 578.2,377.8 580.7,380.2 581.8,381.3 583.8,383.2 585.8,385 587.8,387 589.8,389.2 591.8,391.3 594.5,394 596.3,395.8 598.3,398 600,400 602.2,402.5 603.7,404.2 605.5,406.2 607,408 609,410.5 610.8,412.7 613,415.5 614.7,417.7 616.2,419.8 617.8,422.2 619.3,424.3 621.2,427.2 622.5,429 624.5,432.2 626,434.5 627.5,437.2 629,439.8 630.3,442.2 632,445.2 633,447 634.8,450.3 636.2,452.7 637.8,456.2 638.8,458.7 640.2,462 641.3,464.5 642.5,467.3 643.5,469.7 644.7,472.8 645.8,475.7 647.2,479 648.2,481.5 649.5,484.8 650.5,487.3 651.8,490.7 652.7,492.8 653.8,496.2 654.7,498.2 655.7,501 656.5,503.7 657.7,507.7 658.7,510.8 659.8,514.2 660.7,516.3 661.5,519.5 662.2,522.2 663,525.5 664.2,528.5 665.2,531.7 666.2,534.8 667,538 667.8,540.5 668.8,543.7 669.7,546.3 670.8,550.3 671.7,553 672.8,556.8 673.8,560 674.8,563.2 675.7,566.2 676.5,568.8 677.5,572.2 678.5,574.8 679.5,578.2 680.3,580.8 681.3,584.3 682.3,587.2 683.3,590.2 684.3,593.3 685.3,596.5 686.3,599.7 687.2,602.7 687.8,605.3 688.8,608.7 689.7,611.5 690.7,614.7 691.5,617.7 692.3,620 693.5,623.7 694.5,626.7 695.5,629.7 696.2,631.8 697.2,635 698.2,638.3 699.2,641.8 700.2,645 701,647.8 702.2,651 702.8,653.5 703.7,656 704.3,658.3 705.3,661.2 706.5,665.2 707.5,668.2 708.2,670.8 708.8,673.2 709.5,675.7 710.5,678.8 711.3,681.3 712.2,684.2 713,686.7 713.8,689.8 714.5,692.3 715.3,695.7 716.2,698.2 717.2,701.3 717.7,703.2 718.3,706 718.8,708.2 719.7,711 720.5,713.8 721.2,716.5 721.8,719.2 722.5,721.7 723.2,724.2 723.8,726.7 724.5,729 725.2,731.3 725.8,734 726.3,736 727.2,738.8 727.7,740.7 728.2,743.3 728.5,745.3 729,747.2 729.5,749.2 730,750.8 730.5,753.8 730.8,755.7 731.3,758.3 731.7,759.8 732,761.5 732.3,763.5 732.7,765.3 733,767.3 733.2,768.2 733.3,769.2 733.7,770.8 733.8,772.5 734.2,774.2 734.5,775.7 734.8,777.3 735,778.8 735.2,779.5 735.5,781 735.8,782.5 736,784.2 736.2,785.7 736.3,787.2 736.7,788.5 736.8,789 737,789.5 737,790.5 737,791.5 737,792.5 737.2,794.3 737.3,796.2 737.5,798 737.5,798.5 737.5,799 737.5,799.5 737.5,800 737.5,800.8 737.3,801.8 737.2,802.8 737,803.5 737,804 737,804.5 736.8,805 736.5,805.8 736.2,806.7 735.8,807.5 735.7,808 735.3,808.3 735.2,808.7 735,809 734.7,809.7 734.2,810.2 733.5,810.7 731.7,812 729.5,813.5 727.2,815 726.2,815.5 725.3,815.8 724.7,816.2 722.3,816.8 720.2,817.5 718,818 717.5,818 716.8,818.2 716.2,818.3 715.5,818.5 713.8,819 712.2,819.5 710.5,820 710,820 709.5,820 709,820.2 708.5,820.3 707.2,820.7 705.7,820.8 704.3,821.2 703.2,821.5 702,821.8 700.7,822.2 700,822.3 699.5,822.5 698.2,822.7 696.2,823.2 694.2,823.7 693,824 692.5,824 691.2,824.3 689.8,824.7 688.5,825 687.2,825.3 685.8,825.7 684.3,826 683.7,826.2 682,826.5 680.5,826.8 678.3,827.3 676.8,827.7 675.3,828 673.8,828.3 672.5,828.7 671.2,829 669.7,829.3 668.2,829.7 665.8,830.3 664.3,830.7 662.2,831.2 660.8,831.5 658.8,832 657.5,832.5 656,832.8 654.2,833.3 652.5,833.7 650,834.2 648,834.7 645.8,835.2 644.5,835.7 643,836 641,836.7 639,837.2 637.5,837.7 635.8,838 633.7,838.7 631.5,839.2 629.3,839.8 627.7,840.2 625.3,840.8 623.5,841.2 621,841.8 618.7,842.3 616.2,843.2 614.2,843.8 612.2,844.5 610.5,845 607.8,845.7 605.5,846.3 603.3,847 601.5,847.5 599.2,848.2 596.3,848.8 594.3,849.5 592.3,850.2 590,851 587.8,851.7 585.3,852.5 583.3,853.2 580.5,854 578.3,854.7 575.3,855.7 573,856.5 571,857.2 568.8,857.8 566.7,858.7 563.7,859.7 561.5,860.3 559.2,861 557.2,861.7 555,862.5 552.5,863.3 550,864.2 548.2,864.8 546,865.5 544,866.2 540.8,867.2 538.7,868 536.7,868.7 535,869.2 533.2,869.8 530.8,870.5 528.7,871.2 526.5,871.7 524.5,872.3 523,872.7 521.5,873.2 519.3,873.5 517.3,873.8 515.3,874.2 514.5,874.3 513.3,874.5 512,874.5 510.2,874.5 508.7,874.5 506.8,874.5 505.2,874.5 503.3,874.3 502.2,874.2 500.7,873.8 499,873.7 497,873.3 495.8,873.2 494.8,872.8 493.7,872.5 492.3,872.2 490.7,871.7 489.3,871.3 487.5,870.7 486.2,870.3 484.3,869.7 483.2,869.2 481.5,868.5 480.2,867.8 478.7,867.2 477.7,866.7 476.2,866 474.8,865.3 472.8,864.2 471.7,863.3 470.3,862.5 469.5,861.8 468,860.8 466.7,859.8 465.3,858.8 464.5,858 463.5,857 462.7,856.2 461.5,855 460.5,853.8 459.2,852.3 458,851.2 456.7,849.8 455.5,848.7 454.8,847.7 454.3,847 454,846.5 453.2,845.3 452.3,844.2 451,842.3 450.2,841 449.3,839.7 448.8,838.7 448.3,837.7 447.8,836.7 447.3,835.5 446.3,833.8 445.5,832.2 444.5,830.3 443.8,829.2 442.8,827.7 442,826.2 441.2,824.7 440.5,823.3 439.8,822.3 438.8,820.7 438,819.2 437.2,817.5 436.7,816.5 435.8,815 435,813.7 433.8,811.5 432.8,809.8 432,808.2 431.3,806.8 430.7,805.5 429.8,804 429,802.5 428,800.7 426.8,798.7 425.8,797 424.8,795.3 424,793.8 422.7,791.7 421.5,789.7 420.5,788.2 419.7,786.5 418.8,785 417.8,783 417,781.7 415.7,779.3 414.5,777.5 413.3,775.5 412.7,774.5 411.8,772.8 411,771.2 409.7,768.7 408.5,766.7 407.5,765.2 406.8,764 406,762.5 405,760.5 403.7,758.2 402.5,756.3 401.3,754.3 400.7,753.2 399.8,751.3 399,749.8 397.7,747.5 396.5,745.7 395.5,744.2 394.8,743 394,741.5 392.7,739.2 391.5,737.3 390.3,735.3 389.7,734.2 388.8,732.5 388,730.8 386.7,728.5 385.5,726.7 384.5,725.3 383.8,724.2 383,722.7 381.7,720.5 380.3,718.7 379.2,717.2 378.7,716.3 377.3,714 376,711.7 374.5,709.5 373.8,708.7 373,707.2 372,705.5 371.2,704.2 370.5,703.5 369.7,702.5 369,701.5 368.3,700.5 367.7,699.5 366.7,698.3 365.7,697 365,696.2 364.5,695.5 364.2,695 363.5,693.8 362.7,692.5 361.7,691.2 361.2,690.5 360.8,690.2 360,689.2 359.2,688.2 358.3,687 358,686.7 357.7,686.3 356.8,685.3 355.7,683.8 354,682.2 352.8,681.3 352.2,680.8 351.8,680.7 351,679.8 349.8,679.2 347.2,677.8 344.7,677.2 342.2,676.3 341.3,676.3 339.7,676.7 338.2,677.2 336.5,677.5 335.2,677.8 333.2,678.8 330.7,680.3 328.2,682.5 326.2,684.3 324.2,686.2 323.2,687.2 322.3,687.8 321.8,688.3 321.3,688.8 320,690.5 319,692 317.8,693.3 317.5,693.7 317.2,694 316.7,694.7 316,695.3 315,696.2 314,697.3 313,698.8 312.3,700.2 311.8,701 311.5,701.5 311,701.8 309.8,703 308.5,704.5 307,706.2 305.7,707.8 304.3,709.5 302.7,711.8 301.5,713.3 300.5,714.5 299.8,715.2 298.8,716.3 297.8,717.5 296.8,718.8 295.8,720.2 294.8,721.5 293.8,722.8 293.2,723.7 292.2,724.8 291.2,725.8 289.8,727.3 288.8,728.7 287.7,730.3 286.8,731.5 286,732.7 284.7,734 283.3,735.3 281.7,737.2 280.8,738.3 280,739.5 279.5,740 278.2,741.3 276.8,742.7 275.2,744.5 274.3,745.3 273.3,746.5 272.2,747.7 270.8,749 269.5,750.2 267.8,751.7 266.3,753 264.2,754.7 262.7,755.5 261.2,756.5 260,757.2 258.7,757.8 257.3,758.5 255.7,759.3 254.3,760.2 252.8,760.8 251.7,761.3 250.5,761.7 249.3,762.2 247.8,762.5 246.2,763 244,763.5 242.7,764 241.3,764.3 240.7,764.5 239.5,764.5 238,764.7 236.3,764.8 234.7,765 233.3,765 231.8,765 230.2,765 228.2,765 226.3,765 224.7,765 223.3,765 221.7,765 220.3,765 219.2,764.8 217.7,764.5 216.3,764 214.8,763.7 213.3,763.3 211.7,763 209.7,762.5 208.3,762 207.2,761.5 206,761 204.7,760.3 202.8,759.5 201.5,758.7 200.3,758 198.7,757 197,756.2 195.5,755.3 194.8,755 194,754.3 192.3,753.2 190.8,752 189.2,750.8 188,749.8 186.8,748.8 185.3,747.3 184.2,746.2 182.7,744.8 181.5,743.7 180.3,742.5 179,741.2 177.8,740.2 175.8,738.5 174.3,737.2 173,736 171.7,734.7 170.3,733.3 169,732 167.7,730.7 166.3,729.3 164.8,727.7 163.7,726.5 162.3,725.2 160.8,723.8 159.5,722.5 158.2,721.2 156.2,719.3 154.5,717.8 152.8,716.3 152.2,715.7 150.8,714.5 149.7,713.3 148,711.7 146.8,710.3 145,708.5 143.5,707 141.7,705.2 140.3,704 138.8,702.5 137.7,701.5 136.2,699.8 134.8,698.7 133.3,697 132,695.8 130.2,694 128,692.2 126,690.3 124.7,689.2 123.8,688.5 122.3,687 120.7,685.5 119,683.8 117.3,682.3 115.8,680.7 114.3,679.2 112.7,677.5 110.8,675.8 109.2,674.2 108.2,673.2 106.8,671.8 105.3,670.3 103.7,668.7 102,667.2 99.8,665.2 98,663.7 96.7,662.3 95.8,661.5 94.7,660 92.7,658 90.7,656.2 88.8,654.5 87.7,653.5 86.3,652 85.2,651 83.2,649 81.5,647.5 79.5,645.5 78.2,644 76.7,642.5 74.5,640.5 72.7,639 70.8,637.3 69.7,636.3 68.5,635.2 66.8,633.3 65.2,631.5 63.5,629.7 62,628.3 60.3,626.7 58.5,625.2 56.7,623.5 55.2,622 53.7,620.5 52.2,619 50.7,617.7 48.8,615.8 46.7,613.8 44.8,612.2 43,610.5 41.8,609.5 40.3,608 39.2,606.8 37.5,605 35.8,603.2 33.8,601.2 32,599.3 29.8,597.3 28,595.7 26.5,594.3 25.3,593.3 23.8,591.8 22,590 20.5,588.5 19,587 17.5,585.7 15.7,583.8 13.8,582.2 12,580.3 9.8,578.3 8,576.7 6.7,575.3 5.5,574.3 4.2,572.8 2.7,571.5 1.2,570 -0.3,568.7 -2.2,566.8 -3.5,565.5 -5,564 -6.3,562.7 -8.5,560.7 -10.2,559.2 -12,557.5 -13.2,556.5 -14.3,555.5 -15.5,554.2 -17,552.5 -18.5,550.8 -20,549.5 -21.3,548 -22.7,546.7 -24.3,545.2 -25.7,544.2 -27,543 -27.8,542.2 -29.2,540.8 -30.5,539.5 -31.8,538.2 -32.7,537.3 -34,536.2 -35.3,534.8 -37.3,533 -38.8,531.5 -40.2,530.5 -40.8,530 -41.8,529.2 -42.7,528.3 -43.5,527.5 -44.5,526.3 -45.5,525.2 -46.8,523.7 -48.3,522.2 -50,520.7 -51.3,519.5 -52,519 -52.8,518.2 -53.7,517.3 -55,516.2 -56.3,515 -57.5,513.8 -59,512.3 -60.2,511.2 -61.5,510.2 -62.3,509.3 -63.2,508.5 -64.3,507.2 -65.3,506.3 -66.5,505.2 -67.5,504.3 -68.8,503 -70,502 -71.3,500.5 -72.2,499.7 -73.5,498.3 -74.5,497.5 -75.8,496.2 -77.3,494.8 -78.8,493.5 -80,492.5 -80.7,492 -81.5,491.2 -82.5,490.2 -83.3,489.2 -84.8,487.8 -86.2,486.5 -87.7,485.2 -88.7,484.2 -89.7,483.3 -90.8,482.2 -91.7,481.3 -92.8,480.2 -93.7,479.3 -95,477.8 -96,476.7 -97,475.7 -98,474.8 -99.3,473.7 -100.7,472.5 -102.2,471.3 -103.3,470.3 -104.5,469.2 -105,468.5 -105.5,468 -106.5,466.8 -108.2,465.2 -109.8,463.5 -111,462.5 -111.7,462 -112.2,461.5 -112.5,461.3" style="stroke: rgb(251, 191, 36); stroke-width: 7;"></polyline></svg>