<svg xmlns="http://www.w3.org/2000/svg" xmlns:xlink="http://www.w3.org/1999/xlink" preserveAspectRatio="xMidYMid meet" height="100%" viewBox="-1202 -908 2107 1518"><polygon vector-effect="non-scaling-stroke" fill="none" points="596.7,-448.7 597,-448.8 597.2,-448.9 597.8,-449.2 598.2,-449.3 599.1,-449.7 600.1,-450.2 601.2,-450.6 602.3,-451 604,-451.7 605.2,-452.2 606.3,-452.6 607.4,-453 608.7,-453.6 609.6,-454 610.5,-454.3 611.6,-454.8 612.7,-455.3 613.6,-455.6 614.4,-456 615.2,-456.4 615.8,-456.6 616.4,-456.9 617,-457.2 617.8,-457.4 618.7,-457.8 619.6,-458.2 620.5,-458.6 621.4,-459 622,-459.3 622.8,-459.6 623.6,-459.9 624.8,-460.3 626,-460.8 627.2,-461.3 628,-461.7 628.8,-462.1 629.2,-462.3 630.1,-462.7 631,-463.1 632,-463.4 633,-463.8 634,-464.2 635,-464.6 636,-465 637.2,-465.6 638.4,-466.1 639.7,-466.7 640.5,-467 641.6,-467.5 642.5,-467.8 643.8,-468.3 645,-468.8 646.2,-469.3 647.2,-469.7 648.7,-470.3 649.8,-470.8 650.9,-471.2 652,-471.7 653,-472.1 654,-472.6 655,-473 656,-473.4 657.1,-473.8 658.2,-474.2 659.4,-474.6 660.6,-475 662,-475.6 663.3,-476.1 664.9,-476.8 665.9,-477.2 667.1,-477.8 668.1,-478.2 669.3,-478.8 670.2,-479.2 671.2,-479.7 672.3,-480.1 673.4,-480.6 674.3,-480.9 675.8,-481.5 677.2,-482 678.5,-482.6 679.8,-483.1 681.2,-483.7 682.3,-484.1 683.6,-484.7 684.7,-485.1 686.1,-485.7 687.4,-486.2 688.4,-486.7 689.5,-487.1 690.9,-487.7 692,-488.2 693.1,-488.7 694.7,-489.4 696.1,-490 697.2,-490.5 698.3,-490.9 700,-491.6 701.2,-492 702.3,-492.5 703.4,-492.9 705,-493.5 706,-493.8 707.6,-494.5 709.3,-495.1 711,-495.8 712.2,-496.3 713.6,-497 714.5,-497.4 715.3,-497.8 716.6,-498.4 718,-499 719.2,-499.5 720.3,-499.9 721.4,-500.4 722.8,-500.8 724.1,-501.3 725.4,-501.7 727.1,-502.3 729,-502.9 730.1,-503.4 731.3,-503.8 732.9,-504.5 734.1,-505.1 735.3,-505.7 736.6,-506.3 737.8,-506.9 738.9,-507.4 740.1,-507.8 741.1,-508.2 742,-508.5 743.5,-509.1 744.8,-509.5 746,-510 747.5,-510.5 749.2,-511.2 750.6,-511.7 751.9,-512.3 753.2,-512.8 754.6,-513.5 755.9,-514 757.1,-514.6 758.3,-515.1 759.5,-515.7 760.4,-516 761.7,-516.6 762.8,-517 763.9,-517.5 765,-517.9 766.1,-518.4 767.3,-518.8 768.5,-519.3 769.7,-519.7 770.9,-520.2 772.6,-520.8 773.7,-521.3 774.8,-521.7 775.9,-522.2 777.3,-522.7 778.3,-523.2 779.3,-523.6 780.4,-524.1 781.8,-524.6 783.1,-525.2 784.2,-525.6 785.5,-526.2 786.7,-526.7 787.8,-527.2 788.7,-527.6 789.9,-528.1 791.1,-528.6 792.3,-529.1 793.3,-529.6 794.3,-530 795.3,-530.5 796.1,-530.8 796.9,-531.2 798,-531.6 799.3,-532.1 800.3,-532.5 801.5,-533 802.8,-533.5 803.8,-533.9 804.6,-534.3 805.4,-534.6 806.6,-535 807.7,-535.4 809,-535.9 810.3,-536.4 811.6,-536.9 812.3,-537.3 813.3,-537.7 814.3,-538.1 815.3,-538.5 816.5,-539 817.7,-539.5 818.8,-540 819.7,-540.4 820.8,-540.9 821.7,-541.3 822.8,-541.8 823.7,-542.2 824.6,-542.6 825.3,-542.9 826,-543.2 827.3,-543.7 828.6,-544.3 829.9,-544.9 831.2,-545.4 832.5,-546 833,-546.2 833.5,-546.4 834.7,-546.9 835.9,-547.4 837.1,-547.9 838.3,-548.4 839.5,-548.8 840.1,-549.1 841.3,-549.6 842.5,-550 843.9,-550.6 845.3,-551.2 846.6,-551.6 847.4,-551.9 848.7,-552.5 849.8,-552.9 850.9,-553.3 852,-553.8 853.4,-554.4 854.3,-554.7 855.6,-555.2 856.9,-555.8 858.3,-556.4 859.3,-556.8 860.6,-557.3 861.8,-557.8 863,-558.3 864.1,-558.7 865.5,-559.2 866.7,-559.8 867.7,-560.2 868.9,-560.7 870.4,-561.4 871.6,-562 872.8,-562.5 874.7,-563.6 876.4,-564.5 877.7,-565.3 879,-566.1 880.4,-567.1 881.3,-567.9 882.1,-568.8 883.1,-569.8 884,-570.9 884.9,-572.4 885.5,-573.7 886.3,-575.7 886.9,-577.9 887.3,-580.7 887.3,-583.5 887.2,-586.2 886.8,-588.1 886.4,-589.7 885.9,-591.3 885.4,-592.4 884.9,-593.5 884.2,-595.3 883.4,-597.1 882.8,-598.4 882.3,-599.6 881.7,-601.2 881.2,-602.5 880.8,-603.8 880.4,-605 879.9,-606.5 879.5,-607.6 879.2,-608.4 878.8,-609.5 878.5,-610.6 878.2,-611.4 877.8,-612.5 877.5,-613.6 877.2,-614.4 876.8,-615.5 876.3,-616.8 875.9,-617.8 875.5,-618.8 875.1,-619.8 874.7,-620.8 874.4,-621.6 874,-622.8 873.5,-624.2 873,-625.6 872.6,-626.7 872.1,-628.2 871.7,-629.3 871.3,-630.2 870.9,-631.4 870.4,-632.9 869.9,-634.2 869.4,-635.5 868.9,-636.8 868.4,-638.2 867.8,-639.5 867.4,-640.6 866.9,-641.7 866.5,-642.9 866,-644.1 865.6,-645.3 865,-646.8 864.5,-648.3 863.8,-649.9 863.3,-651.2 862.8,-652.3 862.4,-653.4 861.9,-654.5 861.6,-655.5 861.1,-656.8 860.5,-658.3 859.9,-659.8 859.3,-661.3 858.7,-662.7 858.1,-664.1 857.5,-665.5 856.9,-666.9 856.3,-668.3 855.6,-669.9 854.9,-671.4 854.3,-672.7 853.7,-673.9 853.1,-675.2 852.6,-676.3 852.1,-677.5 851.6,-678.7 851.1,-680 850.5,-681.5 849.9,-683 849.2,-684.6 848.5,-686.2 847.9,-687.6 847.3,-689 846.6,-690.6 846.1,-691.8 845.6,-693 844.9,-694.7 844.3,-696.1 843.7,-697.4 843.1,-698.9 842.2,-701 841.4,-702.5 840.7,-704.1 840,-705.6 839.3,-707.2 838.9,-708.2 838.4,-709.6 837.9,-710.9 837.3,-712.6 836.6,-714.1 835.8,-716 835.1,-717.5 834.3,-719.1 833.7,-720.3 832.9,-722.1 832.2,-723.5 831.6,-725 831,-726.4 830.2,-728.2 829.8,-729.2 829.1,-730.9 828.3,-732.5 827.6,-734.2 827,-735.6 826.2,-737.3 825.8,-738.4 825.3,-739.8 824.7,-741.2 824.1,-742.8 823.5,-744.4 822.7,-746.1 822.1,-747.6 821.4,-749.4 820.4,-751.4 819.6,-753.2 818.9,-754.8 818.1,-756.4 817.5,-757.6 817.1,-758.7 816.6,-759.7 815.9,-761.4 815.2,-763.1 814.4,-764.8 813.8,-766.2 813.2,-767.6 812.5,-769.2 811.9,-770.7 811.2,-772.5 810.4,-774.2 809.7,-776 809.2,-777.2 808.6,-778.5 808.1,-779.8 807.5,-781.4 806.8,-782.9 806.2,-784.5 805.5,-786.2 804.6,-788 803.9,-789.5 803.2,-791.1 802.5,-792.3 801.8,-793.9 801.3,-795.1 800.7,-796.4 800.1,-797.9 799.5,-799.5 799,-800.8 798.4,-802.3 797.7,-804 797.1,-805.4 796.4,-807 795.7,-808.3 795,-809.9 794.4,-811.2 793.7,-812.7 793,-814.2 792.3,-815.7 791.7,-817 791,-818.5 790.4,-819.8 789.8,-821.1 789.2,-822.4 788.7,-823.4 788,-824.9 787.3,-826.4 786.7,-827.6 786.2,-828.9 785.6,-830.2 785.3,-831.2 784.8,-832.5 784.2,-834 783.6,-835.4 782.8,-837.3 782.1,-838.8 781.5,-840 781.1,-841 780.5,-842.4 780.2,-843.3 779.8,-844.2 779.4,-845.4 778.7,-847.1 778.2,-848.4 777.6,-849.7 777,-851.2 776.4,-852.4 776.1,-853.1 775.7,-853.8 775.3,-854.8 774.8,-855.8 774.4,-856.8 774,-857.8 773.6,-858.8 773.2,-859.8 772.9,-860.6 772.6,-861.4 772.2,-862.5 771.7,-863.8 771.1,-865.1 770.6,-866.4 770,-867.9 769.4,-869 769,-869.9 768.8,-870.5 768.2,-871.8 767.6,-873.2 767,-874.6 766.3,-876.4 765.5,-878.1 765,-879.4 764.5,-880.3 764,-881.6 762.2,-883.6 760.4,-885.8 755.5,-887.1 750,-888.1 744.3,-888.4 739.6,-887.4 735,-886.1 733.4,-885.3 732.5,-884.7 731.4,-884.3 730.5,-883.9 729.2,-883.5 728.1,-883 726.7,-882.5 725.7,-882.1 724.8,-881.8 724.3,-881.5 723.7,-881.3 723,-881.1 722.3,-880.8 721.6,-880.5 720.5,-880.2 719.4,-879.8 718.6,-879.5 717.8,-879.3 716.6,-878.9 715.7,-878.6 714.4,-878.1 713.1,-877.6 711.8,-877.1 710.8,-876.7 709.5,-876.2 708.6,-875.9 707.7,-875.6 706.4,-875.1 705.2,-874.7 704,-874.2 702.5,-873.7 701,-873.2 699.9,-872.8 698.3,-872.3 696.8,-871.8 695.6,-871.4 694.3,-870.9 692.7,-870.4 691.5,-869.9 690.2,-869.5 688.6,-868.9 686.9,-868.2 685.4,-867.6 684,-867 682.6,-866.4 681.4,-865.9 679.8,-865.4 678.3,-864.8 676.7,-864.3 675.4,-863.8 673.5,-863.1 672.2,-862.6 670.6,-862 668.9,-861.3 667.1,-860.6 665.9,-860.1 664.7,-859.6 663,-859 661.2,-858.3 659.5,-857.7 657.6,-857 655.6,-856.2 654.1,-855.6 652.8,-855.1 651,-854.4 649.2,-853.8 647.5,-853.2 645.7,-852.5 643.7,-851.8 642.1,-851.2 640.2,-850.4 638.3,-849.7 636.5,-849 634.9,-848.3 632.8,-847.4 631.2,-846.8 629.5,-846.1 627.5,-845.4 625.5,-844.8 623.8,-844.3 621.9,-843.6 619.8,-842.8 618.2,-842.2 616.3,-841.4 614.3,-840.6 612.3,-839.8 610.5,-839.2 608.4,-838.4 606.3,-837.6 604.3,-836.8 602.5,-836.2 599.9,-835.2 597.6,-834.3 595.6,-833.5 593.3,-832.7 591,-831.8 589.2,-831.1 587.4,-830.4 585.3,-829.6 583.1,-828.8 580.9,-828 579,-827.3 576.7,-826.5 574.1,-825.5 572.1,-824.6 570,-823.8 567.6,-822.9 565.3,-822 563.6,-821.4 561.5,-820.7 559.2,-819.8 556.9,-819 554.6,-818.2 552.3,-817.4 549.7,-816.4 547.4,-815.5 545,-814.5 542.9,-813.6 540.2,-812.5 538.2,-811.8 535.9,-811 533.6,-810.2 531,-809.3 528.6,-808.5 526.2,-807.6 523.4,-806.5 521,-805.5 518.4,-804.5 516.2,-803.6 513.6,-802.6 511.3,-801.8 508.4,-800.7 505.9,-799.7 503,-798.6 500,-797.5 497.4,-796.5 495,-795.7 492,-794.6 489.3,-793.6 486.7,-792.6 483.7,-791.5 480.7,-790.4 478,-789.4 475,-788.3 472,-787.2 468.9,-785.9 466.1,-784.7 463.3,-783.6 460.5,-782.5 457.3,-781.2 454.5,-780.2 451.4,-779.1 448.3,-777.9 445.1,-776.6 442.3,-775.5 439.1,-774.2 436.2,-773 432.8,-771.6 429.8,-770.4 426.8,-769.2 423.8,-768.1 420.3,-766.6 417.6,-765.5 414.4,-764.3 410.8,-762.8 407.6,-761.4 404.5,-760.2 400.9,-758.7 397.7,-757.3 394.5,-755.9 391.3,-754.5 388.2,-753.1 384.8,-751.7 381.5,-750.3 378.6,-749.1 375.2,-747.7 371.8,-746.3 368.9,-745.1 365.5,-743.7 361.8,-742.1 358.5,-740.7 354.8,-739.1 350.3,-737.1 346.3,-735.3 342.1,-733.5 338,-731.7 334.3,-730.1 330.9,-728.7 327.5,-727.2 324.1,-725.7 320.7,-724.2 317.2,-722.7 314,-721.3 310.4,-719.7 307.3,-718.4 303.7,-716.8 300,-715.2 296.3,-713.5 292.6,-711.9 288.8,-710.2 285.1,-708.6 281.6,-707.1 278.1,-705.6 274.6,-704.2 271.1,-702.7 267.6,-701.3 264,-699.7 260.2,-698.1 256.7,-696.5 252.8,-694.9 249.3,-693.3 245.6,-691.8 241.8,-690.2 238.1,-688.6 234.4,-687 230.6,-685.4 226.8,-683.7 223.7,-682.3 219.9,-680.7 216.5,-679.2 212.8,-677.6 209.4,-676.2 205.6,-674.6 201.8,-673 198.4,-671.5 194.6,-669.9 190.7,-668.1 187.2,-666.5 184,-665.1 180.1,-663.4 176.8,-661.9 173.4,-660.6 169.8,-659.2 166.2,-657.7 163,-656.4 159.6,-655 156.3,-653.5 152.9,-652 149.6,-650.6 146.3,-649.1 143.1,-647.7 140,-646.4 137.1,-645.1 133.9,-643.6 131,-642.4 128,-641 125,-639.6 122.3,-638.4 119.9,-637.4 116.9,-636 114.4,-634.9 111.9,-633.8 108.7,-632.4 105.9,-631.1 103.4,-630.1 100.9,-629 98.4,-627.9 95.9,-626.8 93.2,-625.6 90.8,-624.5 87.9,-623.3 85.4,-622.2 83.2,-621.3 80.8,-620.3 78.5,-619.3 76.3,-618.4 73.8,-617.4 71.5,-616.4 69.3,-615.4 66.8,-614.3 64,-613 61.3,-611.7 58.8,-610.5 56.3,-609.4 53.9,-608.3 52,-607.4 50.1,-606.6 48.2,-605.8 46.3,-605 44.6,-604.3 42.5,-603.5 40.4,-602.6 38.1,-601.7 36.2,-600.9 34.1,-600 32.4,-599.2 30.7,-598.4 29.3,-597.7 27.5,-596.9 25.7,-596.1 24.2,-595.5 22.5,-594.8 20.8,-594 19.4,-593.4 17.7,-592.7 16,-591.9 14.7,-591.4 13.1,-590.8 11.4,-590 10,-589.4 8.6,-588.8 7,-588.1 5.7,-587.5 4.6,-587.1 3.5,-586.6 2.1,-586 1,-585.5 -0.1,-585 -1.5,-584.4 -2.8,-583.8 -3.8,-583.4 -5.1,-582.8 -6.4,-582.3 -7.4,-581.9 -8.5,-581.5 -9.8,-581 -10.8,-580.6 -12,-580.1 -13.1,-579.5 -13.9,-579.1 -14.5,-578.8 -15.5,-578.3 -16.3,-577.9 -17.2,-577.6 -18,-577.2 -18.8,-576.8 -19.2,-576.7 -20,-576.4 -21.9,-575.6 -23.8,-574.8 -26,-573.8 -29.2,-572.4 -32.1,-571.1 -34.4,-570 -36.8,-568.9 -39.5,-567.3 -40.9,-562.6 -41.8,-557.3 -41.9,-551.8 -41.9,-546.2 -41,-540.9 -40.2,-538.9 -39.6,-537.2 -39.2,-535.9 -38.7,-534.7 -38.4,-533.8 -38.1,-532.6 -37.7,-531.5 -37.3,-530.4 -36.9,-529.3 -36.5,-528.2 -36.1,-527.2 -35.8,-526.4 -35.5,-525.6 -35.3,-524.8 -34.9,-523.6 -34.5,-522.4 -34.1,-521.2 -33.7,-520 -33.3,-518.8 -32.9,-517.6 -32.4,-516.3 -32,-515 -31.5,-513.2 -30.8,-511.2 -30.3,-509.6 -29.9,-508.3 -29.4,-506.7 -28.9,-505.6 -28.6,-504.6 -28.1,-503.2 -27.7,-501.8 -27.2,-500.4 -26.8,-498.9 -26.2,-497.2 -25.8,-495.8 -25.2,-494.2 -24.7,-492.7 -24.1,-491.2 -23.7,-490 -23.1,-488.4 -22.6,-486.9 -22.1,-485.5 -21.7,-484.2 -21.1,-482.5 -20.7,-481.3 -20.2,-479.9 -19.8,-478.6 -19.2,-476.8 -18.7,-475.2 -18.1,-473.6 -17.7,-472.3 -17.1,-470.7 -16.7,-469.5 -16.2,-468.2 -15.7,-466.6 -15.1,-465.1 -14.5,-463.5 -13.8,-461.9 -13.3,-460.6 -12.8,-459.5 -12.2,-458 -11.6,-456.4 -11,-454.9 -10.4,-453.4 -9.7,-451.7 -9.2,-450.4 -8.7,-449.2 -8.2,-448 -7.7,-446.8 -7.1,-445.3 -6.5,-443.8 -5.8,-442.2 -5.1,-440.6 -4.4,-439 -3.9,-437.9 -3.3,-436.5 -2.8,-435.4 -2.4,-434.2 -1.9,-433 -1.2,-431.3 -0.6,-429.9 0,-428.5 0.6,-427.1 1.4,-425.3 2,-424.1 2.6,-422.8 3.1,-421.7 3.7,-420.3 4.3,-418.9 4.8,-417.5 5.4,-416.1 5.9,-414.7 6.5,-413.4 7,-412.2 7.6,-410.8 8.2,-409.5 9,-407.7 9.7,-406.1 10.4,-404.5 11,-403.1 11.8,-401.3 12.4,-399.9 13,-398.6 13.4,-397.6 14,-396.2 14.3,-395.2 14.9,-393.9 15.5,-392.6 16.1,-391.2 16.6,-390.2 17.3,-388.7 17.8,-387.6 18.3,-386.2 18.9,-384.9 19.4,-383.6 19.9,-382.5 20.3,-381.4 20.7,-380.4 21.1,-379.4 21.6,-378.2 22,-377.3 22.5,-376.2 22.9,-375.3 23.3,-374.4 23.6,-373.7 24.1,-372.4 24.5,-371.3 25.1,-369.9 25.9,-368 26.8,-365.8 27.5,-364.3 28.2,-362.8 28.7,-361.5 29.1,-360.4 29.4,-359.6 29.7,-358.3 30,-356.7 30.3,-355.2 30.5,-354.1 30.6,-353 30.5,-351.8 30.4,-350.9 30.2,-350.1 29.8,-349.1 28.9,-347.4 27.9,-346.2 26.9,-345 25.9,-343.8 24.9,-342.8 24.5,-342.5 24.2,-342.3 23.5,-342 22.6,-341.5 21.4,-340.8 20.1,-340.2 18.8,-339.5 17.8,-339 16.6,-338.6 15.7,-338.3 14.8,-338 13.6,-337.6 12.2,-337.1 11.2,-336.7 10.2,-336.3 9.2,-335.9 8.5,-335.6 7.6,-335.3 6.5,-334.8 5.4,-334.4 4.3,-333.9 3.2,-333.5 2.2,-333 1.1,-332.6 -0.2,-332 -1.5,-331.5 -2.8,-330.9 -4.2,-330.4 -5.5,-329.8 -6.6,-329.4 -7.7,-328.9 -8.9,-328.5 -10.1,-328 -11.3,-327.6 -12.8,-327 -14.3,-326.5 -15.7,-325.9 -17.1,-325.3 -18.5,-324.7 -19.6,-324.2 -21,-323.6 -22.4,-323 -23.8,-322.4 -25.2,-321.8 -26.9,-321.1 -28.3,-320.4 -29.7,-319.8 -31.1,-319.2 -32.5,-318.6 -33.9,-318 -35.3,-317.4 -36.8,-316.8 -38.5,-316 -40.1,-315.2 -41.5,-314.6 -42.9,-314 -44.7,-313.2 -46.1,-312.7 -47.5,-312.2 -48.8,-311.6 -50.7,-310.8 -52.4,-310.1 -53.9,-309.4 -55.8,-308.5 -57.8,-307.7 -59.2,-307.1 -60.7,-306.4 -62.5,-305.6 -63.8,-305.1 -65.4,-304.4 -67.3,-303.6 -69.1,-302.8 -70.8,-302.1 -72.6,-301.3 -74.4,-300.5 -76,-299.8 -77.6,-299.2 -79.3,-298.5 -81.2,-297.7 -83,-296.9 -84.9,-296.1 -86.8,-295.2 -88.7,-294.3 -90.4,-293.5 -91.8,-292.9 -93.5,-292.2 -95.2,-291.5 -96.9,-290.8 -98.8,-290 -100.7,-289.2 -102.5,-288.4 -104.3,-287.6 -105.9,-286.9 -107.8,-286.1 -109.8,-285.2 -111.5,-284.4 -113.3,-283.6 -115.2,-282.8 -116.8,-282.1 -118.6,-281.3 -120.3,-280.5 -121.7,-279.8 -123.5,-279 -125.3,-278.2 -126.8,-277.5 -128.6,-276.7 -130.6,-275.8 -132,-275 -133.5,-274.3 -135.2,-273.5 -137,-272.6 -138.6,-271.8 -140.4,-270.9 -142.1,-269.9 -144.1,-268.7 -145.7,-267.7 -147.3,-266.7 -148.9,-265.8 -150.5,-264.9 -152,-264 -153.6,-263.1 -155.1,-262.2 -156.7,-261.2 -158.3,-260.2 -159.5,-259.5 -161.3,-258.4 -163.1,-257.3 -164.7,-256.3 -166.3,-255.2 -168,-254.1 -169,-253.4 -170.3,-252.7 -171.8,-251.8 -173,-251.1 -174.4,-250.3 -175.8,-249.5 -177.6,-248.3 -179.1,-247.3 -180.8,-246.2 -182.2,-245.3 -183.9,-244.3 -184.9,-243.7 -186.1,-243 -187.4,-242.3 -189,-241.3 -190.4,-240.5 -191.8,-239.7 -193.2,-238.9 -194.8,-237.9 -196.1,-237.1 -197.4,-236.2 -198.9,-235.3 -200.2,-234.5 -201.4,-233.8 -202.6,-233.1 -203.9,-232.3 -205.3,-231.5 -206.7,-230.7 -208,-229.9 -209.4,-229.1 -210.8,-228.3 -212,-227.6 -213.5,-226.7 -214.8,-226 -216.3,-225.1 -217.6,-224.4 -218.8,-223.6 -220.2,-222.7 -221.5,-221.8 -222.5,-221.2 -223.5,-220.5 -224.7,-219.7 -225.4,-219.3 -226.3,-218.8 -227.5,-218 -228.7,-217.3 -229.7,-216.7 -231,-215.8 -232.1,-215.1 -232.9,-214.6 -233.7,-214.1 -234.7,-213.5 -235.4,-213.2 -236.5,-212.5 -237.7,-211.8 -238.9,-211 -240.1,-210.3 -241.2,-209.5 -241.9,-209.1 -243.1,-208.3 -244.6,-207.4 -246.3,-206.3 -248.3,-205 -250.4,-203.6 -251.8,-202.6 -252.9,-201.8 -253.5,-201.2 -254.8,-199.9 -256,-198.7 -257.3,-197.3 -258.7,-195.5 -260.2,-193.8 -260.8,-192.7 -261.5,-191 -262.3,-188.9 -262.9,-187 -263.4,-184.3 -263.7,-181.7 -263.7,-179 -263.5,-176.9 -263.2,-175 -262.8,-173.5 -262.5,-172.1 -262,-170.7 -261.4,-169.4 -260.9,-168 -260.1,-166.3 -259,-164.3 -258.1,-162.8 -257.2,-161 -256.2,-159.3 -255.6,-158.2 -255.2,-157.3 -254.5,-156.1 -253.9,-155.1 -253.1,-153.6 -252.1,-152 -251.1,-150.4 -250.3,-148.9 -249.4,-147.4 -248.7,-146.1 -248.1,-145 -247.6,-144.1 -247.3,-143.5 -247.1,-142.9 -246.9,-142.6 -246.7,-141.9 -246.5,-141.1 -246.2,-140.3 -245.9,-139.3 -245.8,-137.9 -245.8,-136.7 -245.9,-135.7 -246.1,-134.7 -246.3,-133.9 -246.5,-133.5 -246.9,-132.8 -247.2,-132 -247.6,-131.3 -248.1,-130.4 -248.5,-129.4 -248.8,-128.9 -249.1,-128.4 -249.4,-127.9 -250.1,-127.2 -250.9,-126.6 -251.6,-125.9 -252.4,-125.3 -253.6,-124.3 -254.4,-123.8 -255.5,-123 -256.9,-122.2 -258.6,-121.1 -260,-120.2 -261.4,-119.3 -262.7,-118.5 -264.1,-117.5 -265.2,-116.8 -266.2,-116.2 -267.2,-115.6 -268.1,-115 -268.7,-114.6 -269.6,-114 -270.5,-113.4 -271.4,-112.8 -272.5,-112.1 -273.7,-111.3 -274.6,-110.7 -275.5,-110.1 -276.7,-109.2 -277.6,-108.6 -278.4,-108.1 -279.5,-107.3 -280.9,-106.4 -282,-105.7 -283.1,-104.9 -284.5,-104 -285.6,-103.3 -286.4,-102.7 -287.5,-102 -288.7,-101.2 -289.6,-100.5 -290.5,-99.9 -291.7,-99.1 -292.7,-98.3 -293.6,-97.7 -294.5,-97.1 -295.7,-96.2 -296.6,-95.6 -297.4,-95.1 -298.5,-94.3 -299.7,-93.5 -300.6,-92.9 -301.5,-92.2 -302.3,-91.5 -303.1,-90.9 -303.9,-90.2 -304.7,-89.5 -305.5,-88.9 -306.7,-88.1 -307.6,-87.4 -308.4,-86.8 -309.7,-85.9 -311.1,-84.9 -312.2,-84.1 -313.3,-83.3 -314.7,-82.3 -315.6,-81.6 -316.7,-80.6 -317.8,-79.7 -319,-78.8 -320.2,-77.9 -321.4,-77 -322.3,-76.4 -323.6,-75.4 -324.9,-74.4 -326.1,-73.4 -327.3,-72.4 -328.5,-71.4 -329.6,-70.6 -331,-69.5 -332.2,-68.7 -333.5,-67.8 -335,-66.8 -336.2,-65.9 -337,-65.3 -338.3,-64.3 -339.5,-63.4 -340.8,-62.4 -342.2,-61.3 -343.7,-60.2 -344.7,-59.4 -346.1,-58.3 -347.4,-57.3 -348.6,-56.4 -350,-55.3 -351.6,-54.1 -352.8,-53.2 -354.2,-52.2 -355.8,-51 -357.1,-50 -358.3,-49 -359.9,-47.7 -361.1,-46.6 -362.2,-45.7 -363.7,-44.5 -365.2,-43.4 -366.6,-42.4 -368,-41.4 -369.6,-40.2 -370.8,-39.3 -372.3,-38.2 -373.5,-37.3 -375.2,-36.1 -376.6,-35.1 -378,-34 -379.6,-32.7 -381.2,-31.4 -382.4,-30.4 -383.6,-29.4 -385.3,-28.2 -386.4,-27.4 -387.8,-26.5 -389.5,-25.2 -391.4,-23.8 -392.8,-22.7 -394.3,-21.6 -395.9,-20.3 -397.2,-19.4 -398.3,-18.6 -399.9,-17.5 -401.4,-16.3 -403,-15.1 -404.5,-13.9 -406.1,-12.7 -407.6,-11.5 -409.2,-10.4 -410.9,-9.1 -412.6,-7.8 -414.3,-6.5 -415.6,-5.5 -417.1,-4.4 -418.4,-3.5 -419.9,-2.5 -421.5,-1.2 -423.2,0.1 -424.9,1.5 -426.3,2.6 -427.8,3.7 -429.4,4.8 -431,6 -432.3,7 -433.8,8.1 -435.5,9.4 -436.9,10.4 -438.7,11.7 -440.6,13.1 -442.3,14.4 -443.8,15.6 -445.4,16.8 -446.9,18 -448.3,19.1 -449.9,20.3 -451.6,21.6 -453.2,22.9 -454.7,24 -456.5,25.3 -458.3,26.7 -459.8,27.8 -461.3,28.9 -463.1,30.2 -464.7,31.4 -466.3,32.6 -467.9,33.8 -469.5,35 -471.1,36.3 -472.6,37.5 -473.9,38.5 -475.6,39.8 -477.3,41.1 -478.8,42.1 -480.3,43.2 -482.2,44.6 -483.6,45.7 -485.1,46.8 -486.5,47.9 -488.1,49 -489.6,50.1 -491.1,51.2 -492.9,52.5 -494.5,53.7 -496,54.8 -497.5,55.9 -499.1,57 -500.3,57.9 -501.8,58.9 -503.4,60.2 -504.6,61.2 -506.1,62.4 -507.7,63.7 -509.2,65 -510.5,66 -512.2,67.2 -513.6,68.3 -514.9,69.3 -515.9,70.1 -517.4,71.2 -518.5,72.1 -519.5,72.8 -520.8,73.7 -522.1,74.6 -522.9,75.2 -524,76 -525.2,77 -526.2,77.8 -527.2,78.6 -528.2,79.4 -529.2,80.1 -530.2,80.8 -531.2,81.6 -532.2,82.3 -533.3,83.1 -534,83.8 -534.6,84.3 -535.4,84.9 -536.2,85.5 -536.9,86.1 -537.7,86.6 -538.5,87.3 -539,87.7 -539.6,88.3 -540.2,88.9 -540.8,89.5 -541.4,90.1 -542,90.7 -542.5,91.3 -543,91.7 -543.5,92.3 -544,92.7 -544.5,93.3 -545,93.7 -545.5,94.3 -546.1,94.9 -546.7,95.5 -547.2,96 -547.7,96.5 -548.5,97.1 -549.1,97.6 -549.7,98.2 -550.4,98.8 -551.5,99.7 -554.1,100.3 -556.7,100.7 -559.4,101 -562.2,101 -564.7,100.7 -565.6,100.2 -566.5,99.7 -567.3,99.2 -567.9,98.8 -568.4,98.4 -568.9,97.9 -569.5,97.5 -570,97 -570.6,96.6 -571.1,96.1 -571.4,95.9 -571.7,95.5 -572.1,95.2 -572.5,94.7 -573.3,93.9 -574,93 -574.7,92.1 -575.6,90.8 -576.4,89.6 -576.9,88.7 -577.4,87.8 -577.9,86.7 -578.2,86 -578.5,85.3 -578.8,84.6 -579.2,83.6 -579.5,82.9 -579.8,82.1 -580.2,81 -580.5,79.8 -580.9,78.6 -581.3,77.4 -581.7,76.2 -582.1,75 -582.5,73.9 -582.8,73.1 -583.2,72 -583.5,70.8 -583.9,69.6 -584.3,68.4 -584.7,67.2 -585.1,65.9 -585.5,64.7 -585.8,63.8 -586.2,62.5 -586.7,60.9 -587.1,59.7 -587.5,58.5 -588,56.8 -588.4,55.5 -588.7,54.5 -589.1,53.1 -589.6,51.7 -590,50.5 -590.5,49.2 -591,47.6 -591.4,46.3 -591.9,44.7 -592.3,43.4 -592.7,42.1 -593,41.1 -593.5,39.6 -593.8,38.4 -594.3,36.8 -594.7,35.3 -595.3,33.3 -595.8,31.7 -596.4,30 -596.8,28.7 -597.4,26.9 -597.8,25.6 -598.3,24.1 -598.7,22.7 -599.3,20.9 -599.7,19.5 -600.3,17.8 -600.7,16.4 -601.2,15 -601.7,13.3 -602.3,11.5 -602.9,9.6 -603.5,7.8 -604.2,5.6 -604.8,4.1 -605.4,2.4 -605.9,1 -606.5,-0.8 -607,-2.3 -607.4,-3.8 -607.9,-5.4 -608.3,-6.9 -608.7,-8.4 -609.1,-9.8 -609.6,-11.6 -610,-12.9 -610.6,-14.8 -611.2,-16.3 -611.7,-17.9 -612.2,-19.1 -612.7,-20.7 -613.1,-21.8 -613.5,-23.2 -614,-24.7 -614.5,-26.2 -614.9,-27.4 -615.3,-28.5 -615.7,-29.7 -616,-30.7 -616.3,-31.7 -616.7,-32.9 -617.1,-34.3 -617.4,-35.3 -617.8,-36.3 -618.1,-37.3 -618.4,-38 -618.7,-38.9 -619,-39.8 -619.2,-40.7 -619.6,-41.9 -619.9,-43.1 -620.1,-43.9 -620.5,-45.1 -621,-46.3 -621.4,-47.5 -621.8,-48.7 -622.2,-49.9 -622.6,-51 -622.9,-52.1 -623.1,-52.9 -623.5,-54.1 -623.9,-55.3 -624.2,-56.2 -624.6,-57.5 -625,-58.8 -625.4,-60.1 -625.8,-61.4 -626.2,-62.7 -626.7,-64.2 -627.3,-65.7 -627.7,-66.9 -628.2,-68.4 -628.7,-69.8 -629.1,-71.1 -629.7,-72.9 -630.6,-75.1 -631.6,-77.4 -632.9,-80.3 -636.1,-83.6 -639,-86.4 -642.2,-88.7 -645.6,-90.6 -649.2,-92.1 -651.2,-92.7 -653.2,-93.3 -654.7,-93.8 -656.2,-94.4 -657.5,-95 -658.5,-95.6 -659.9,-96.3 -661.2,-97.1 -662.2,-97.7 -663.1,-98.2 -663.9,-98.7 -664.4,-99 -665.3,-99.4 -666.5,-100 -667.8,-100.8 -669.6,-101.7 -671.3,-102.7 -672.7,-103.5 -674.3,-104.2 -675.5,-104.7 -678.3,-105.2 -681.5,-105.6 -685,-106 -688.3,-106.3 -691.8,-106.5 -693.4,-106.5 -695,-106.5 -696.4,-106.5 -697.6,-106.5 -698.8,-106.5 -700,-106.5 -701.2,-106.5 -702.3,-106.5 -703.6,-106.5 -704.8,-106.5 -706,-106.5 -707,-106.5 -708.3,-106.5 -709.4,-106.5 -710.6,-106.5 -711.7,-106.5 -712.7,-106.5 -713.9,-106.6 -715.1,-106.7 -716.2,-106.8 -717.3,-106.9 -718.5,-107 -719.2,-107 -720,-107.1 -720.7,-107.3 -721.4,-107.5 -722.2,-107.8 -723,-108.1 -723.5,-108.4 -724.1,-108.6 -724.7,-108.8 -725,-109 -725.3,-109.2 -726.2,-109.7 -727,-110.3 -727.8,-110.9 -728.6,-111.5 -729.8,-112.7 -730.4,-113.6 -731.1,-114.4 -731.8,-115.4 -732.6,-116.6 -732.9,-117.3 -733.3,-117.9 -733.7,-118.8 -734,-119.6 -734.3,-120.1 -734.7,-120.8 -735,-121.6 -735.3,-122.3 -735.8,-123.3 -736.2,-124.4 -736.7,-125.7 -737.2,-127 -737.6,-128.2 -738,-129.5 -738.4,-130.8 -738.8,-132 -739.3,-133.3 -739.9,-134.9 -740.4,-136.3 -740.9,-137.7 -741.3,-138.7 -741.6,-139.6 -741.8,-140.2 -742.2,-141.2 -742.6,-142.2 -743,-143.3 -743.5,-144.8 -744.2,-146.5 -744.7,-147.7 -745.2,-148.9 -745.8,-150.5 -746.6,-152.2 -747.3,-153.8 -748.1,-155.7 -749,-157.5 -750.2,-159.5 -752.4,-161.6 -755.1,-163.6 -758.5,-165 -762,-166.4 -765.1,-167.1 -767.2,-167.1 -769.6,-166.8 -771.2,-166.6 -772.7,-166.3 -774.3,-166 -776.1,-165.6 -777.2,-165.3 -778.6,-164.8 -780.1,-164.4 -781.5,-164 -783,-163.5 -784.4,-163 -785.8,-162.6 -787.1,-162.2 -788.4,-161.7 -789.2,-161.4 -790.4,-161.1 -791.3,-160.8 -792.2,-160.5 -793.4,-160.2 -794.6,-159.8 -795.4,-159.5 -796.7,-159.2 -798.2,-158.7 -799.4,-158.3 -800.6,-158 -801.8,-157.6 -802.8,-157.2 -803.7,-156.9 -804.6,-156.6 -805.5,-156.3 -806.9,-155.9 -808.3,-155.5 -809.6,-155.1 -810.9,-154.7 -812.7,-154.2 -814,-153.8 -815,-153.5 -816.4,-153.1 -817.8,-152.7 -819.1,-152.2 -820.4,-151.8 -822.1,-151.3 -823.4,-150.9 -825.1,-150.4 -826.4,-150 -828.2,-149.5 -829.6,-149 -831.4,-148.5 -832.9,-148 -834.7,-147.5 -836.3,-146.9 -837.9,-146.4 -839.2,-145.9 -840.9,-145.4 -842.3,-144.9 -844,-144.4 -845.8,-143.8 -847.5,-143.3 -849.2,-142.7 -851,-142.1 -852.8,-141.5 -854.5,-140.9 -856.3,-140.2 -858.1,-139.6 -860.2,-138.8 -861.7,-138.1 -863.3,-137.5 -865.3,-136.8 -867.1,-136 -868.7,-135.4 -870.4,-134.8 -872.6,-133.9 -874.4,-133.1 -876.2,-132.4 -878,-131.6 -879.8,-130.8 -881.1,-130.2 -882.8,-129.5 -884.6,-128.8 -886.6,-128 -888.5,-127.2 -890.6,-126.3 -892.3,-125.5 -894.1,-124.6 -895.8,-123.8 -897.8,-122.9 -899.8,-122 -902,-121.1 -904,-120.2 -906,-119.3 -908.2,-118.3 -910.2,-117.4 -912.2,-116.4 -914.2,-115.4 -916.2,-114.4 -918,-113.5 -919.8,-112.6 -921.7,-111.7 -923.7,-110.8 -926,-109.8 -928.3,-108.8 -930.8,-107.7 -933.2,-106.6 -935.6,-105.5 -937.5,-104.6 -939.8,-103.6 -942.1,-102.6 -944.2,-101.7 -946.7,-100.6 -949.2,-99.5 -951.6,-98.4 -954.3,-97.1 -957.1,-95.8 -959.4,-94.7 -962.1,-93.5 -964.5,-92.4 -966.8,-91.5 -969.2,-90.4 -972,-89.1 -974.5,-87.9 -977.1,-86.7 -979.9,-85.2 -982.8,-83.8 -985.1,-82.7 -988,-81.3 -990.9,-79.8 -993.4,-78.6 -996.2,-77.1 -999.1,-75.6 -1001.7,-74.3 -1004.4,-72.8 -1007,-71.4 -1009.6,-70.1 -1012.4,-68.6 -1015.1,-67 -1017.6,-65.7 -1020.4,-64.1 -1022.9,-62.7 -1025.3,-61.3 -1028,-59.8 -1030.5,-58.3 -1032.9,-57 -1035.5,-55.4 -1038.2,-53.9 -1040.5,-52.5 -1043.4,-50.9 -1046,-49.4 -1048.4,-48.1 -1050.9,-46.6 -1053.3,-45.2 -1055.4,-44 -1057.7,-42.7 -1060.2,-41.2 -1062.5,-39.9 -1064.9,-38.6 -1067.2,-37.3 -1069.5,-35.9 -1071.7,-34.6 -1073.7,-33.4 -1075.7,-32.2 -1077.7,-31 -1079.7,-29.9 -1081.6,-28.9 -1083.4,-27.9 -1085.2,-26.9 -1087.2,-25.6 -1089,-24.3 -1090.5,-23.2 -1092,-22.1 -1093.7,-20.8 -1094.9,-19.9 -1096.4,-18.9 -1097.8,-17.8 -1099.6,-16.5 -1101.2,-15.2 -1102.8,-13.9 -1104.1,-12.7 -1105.8,-11.2 -1107.1,-9.9 -1108.1,-8.8 -1109.5,-7.3 -1110.8,-5.8 -1111.9,-4.6 -1113.3,-3 -1114.7,-1.4 -1115.9,0.1 -1117.1,1.6 -1118.1,3 -1119.2,4.7 -1120.4,6.6 -1121.4,8.3 -1122.4,10 -1123.3,11.7 -1124.1,13.3 -1124.9,15 -1125.7,16.6 -1126.4,18.2 -1127.4,20.4 -1128.1,22 -1128.6,23.3 -1129.3,25.1 -1130.2,27.1 -1130.9,28.9 -1131.6,30.7 -1132.4,32.9 -1133,34.7 -1133.5,36.6 -1134,38.2 -1134.7,40.4 -1135.3,42.1 -1136,44.1 -1136.6,45.8 -1137.3,47.9 -1137.8,49.5 -1138.4,51.5 -1139,53.5 -1139.7,55.5 -1140.3,57.5 -1140.9,59.5 -1141.5,61.5 -1142.1,63.6 -1142.7,65.7 -1143.3,67.4 -1144,69.7 -1144.7,71.7 -1145.3,73.3 -1146,75.5 -1146.7,77.8 -1147.4,79.9 -1148,82 -1148.6,84.1 -1149.3,86.2 -1150.1,88.4 -1150.8,90.7 -1151.7,93.3 -1152.6,95.9 -1153.4,98.3 -1154,100.5 -1154.8,102.9 -1155.6,105.4 -1156.4,108 -1157.1,110.5 -1157.9,113.1 -1158.7,115.7 -1159.5,118.2 -1160.3,120.7 -1161.3,123.8 -1162.2,126.8 -1162.9,129.2 -1163.7,131.9 -1164.6,135 -1165.3,137.2 -1166.2,139.8 -1167.3,143 -1168.2,145.7 -1169.1,148.3 -1170,151.3 -1170.8,154 -1171.6,156.6 -1172.4,159.1 -1173.2,161.6 -1174,164.1 -1174.8,166.5 -1175.5,168.6 -1176.1,170.7 -1176.8,173.1 -1177.4,175.1 -1178.1,177.4 -1178.7,179.4 -1179.4,181.8 -1179.9,183.5 -1180.5,185.7 -1181,187.6 -1181.5,189.9 -1182,192 -1182.4,194.1 -1182.8,196.2 -1183.2,198.7 -1183.5,201 -1183.7,203.1 -1183.9,205.2 -1184,207.7 -1184,209.8 -1184,211.7 -1184,213.8 -1184,216.1 -1184,217.8 -1184,219.7 -1183.9,222.1 -1183.8,224.3 -1183.6,226.3 -1183.4,228.2 -1183.2,230.2 -1183.1,231.9 -1183,233.8 -1182.8,236.2 -1182.6,238.4 -1182.4,240.3 -1182.2,242.3 -1182,244.4 -1182,246.3 -1181.8,248.8 -1181.6,251.3 -1181.4,253.5 -1181.2,255.8 -1181,258 -1181,259.8 -1181,262 -1180.9,264.7 -1180.8,267.1 -1180.7,269.5 -1180.5,272 -1180.3,274.3 -1180.2,276.5 -1180.1,278.9 -1179.9,281.7 -1179.8,284.2 -1179.7,286.9 -1179.6,289.6 -1179.4,292.2 -1179.2,294.9 -1179,297.7 -1178.8,300.5 -1178.6,303.1 -1178.5,305.9 -1178.5,308.3 -1178.3,311.3 -1178.1,313.9 -1177.9,316.7 -1177.7,319.4 -1177.5,322.3 -1177.4,325 -1177.3,327.8 -1177.2,330.6 -1177,333.3 -1176.8,335.8 -1176.6,338.5 -1176.4,341.2 -1176.2,343.5 -1176.1,345.9 -1176,348.3 -1176,350.2 -1176,352.3 -1175.9,354.9 -1175.8,357.2 -1175.6,359.7 -1175.4,362.2 -1175.2,364.3 -1175.1,366.2 -1175,368.3 -1175,369.8 -1174.9,371.7 -1174.8,373.6 -1174.7,375.2 -1174.6,376.5 -1174.5,378.2 -1174.5,379.3 -1174.5,380.7 -1174.5,382.1 -1174.5,383.6 -1174.5,385 -1174.5,386.3 -1174.5,387.5 -1174.5,388.7 -1174.5,390.1 -1174.5,391.3 -1174.5,392.6 -1174.5,393.8 -1174.5,395 -1174.5,396 -1174.5,397 -1174.5,398 -1174.4,399 -1174.3,400 -1174.2,401 -1174.1,402 -1174,403.2 -1174,404.4 -1174,405.5 -1174.2,407.1 -1174.4,408.7 -1174.6,410.1 -1174.8,411.7 -1175,413.6 -1175,415.2 -1175.1,416.6 -1175.3,419.2 -1174.9,422.8 -1173.7,426.4 -1171.5,430 -1169.2,433.7 -1166.4,436.1 -1164.1,437.1 -1162.4,437.9 -1161.6,438.3 -1160.7,438.6 -1159.8,439 -1158.7,439.6 -1157.7,440 -1156.7,440.4 -1155,441.3 -1153.6,442 -1152.4,442.6 -1151.2,443.2 -1150,443.9 -1149.1,444.3 -1148,444.9 -1146.9,445.4 -1145.6,446.1 -1144.3,446.8 -1143.2,447.4 -1142,448 -1140.8,448.7 -1139.8,449.2 -1138.5,449.9 -1137,450.7 -1135.8,451.4 -1134.6,452 -1132.9,452.9 -1131.5,453.6 -1130.4,454.2 -1129.3,454.7 -1127.6,455.6 -1126.3,456.3 -1124.7,457.2 -1123.1,458.1 -1121,459.3 -1119.5,460.2 -1117.6,461.3 -1115.9,462.2 -1114,463.2 -1112.6,463.9 -1110.8,464.8 -1109.4,465.5 -1107.4,466.6 -1105.6,467.6 -1103.5,468.8 -1101.4,470 -1099.1,471.3 -1097.4,472.2 -1095.1,473.4 -1093,474.5 -1091,475.5 -1089,476.5 -1086.6,477.8 -1084.6,478.9 -1082.6,480 -1080.5,481.2 -1078.4,482.4 -1076.2,483.5 -1074,484.7 -1071.8,485.9 -1069.6,487.1 -1067.1,488.4 -1064.9,489.7 -1062.7,490.9 -1060.2,492.2 -1057.8,493.4 -1055.7,494.6 -1053.3,495.8 -1050.9,497 -1048.5,498.3 -1046.1,499.6 -1043.7,500.8 -1041.4,502.1 -1039.1,503.4 -1036.6,504.7 -1034.1,506.1 -1031.5,507.5 -1028.9,508.8 -1026.3,510.2 -1023.7,511.6 -1021.1,512.9 -1018.4,514.4 -1015.9,515.8 -1013.3,517.2 -1011,518.5 -1008.5,519.9 -1006.2,521.2 -1003.5,522.6 -1001.1,523.8 -998.6,525.1 -996,526.5 -993.3,527.8 -991.2,529 -988.5,530.5 -985.9,531.9 -983.4,533.1 -981.2,534.3 -978.4,535.7 -976.2,536.8 -973.9,538 -971.8,539.3 -969.2,540.7 -967,541.9 -964.6,543.2 -962.3,544.4 -960.2,545.4 -958.1,546.5 -955.9,547.6 -953.9,548.6 -952.1,549.5 -949.8,550.7 -948,551.6 -946.4,552.5 -944.8,553.4 -942.9,554.5 -941.1,555.5 -939.4,556.5 -937.8,557.4 -935.6,558.6 -933.8,559.6 -932.4,560.3 -931,561 -929.1,562 -927.9,562.7 -926.6,563.4 -925,564.3 -923.3,565.2 -922.2,565.8 -920.7,566.6 -919.1,567.4 -917.9,568.1 -916.5,568.9 -915.1,569.6 -914.1,570.1 -912.6,570.9 -911.1,571.7 -909.9,572.3 -908.5,573.1 -907,573.8 -906.2,574.2 -905.1,574.8 -903.8,575.5 -902.7,576.1 -901.5,576.8 -900.3,577.5 -899.2,578.1 -898.3,578.6 -897.2,579.2 -896.3,579.7 -895.2,580.3 -894.3,580.7 -893.2,581.3 -892.2,581.8 -891.2,582.3 -890.1,582.9 -888.4,583.8 -886.7,584.6 -884.8,585.5 -883,586.5 -880.7,587.6 -878.4,588.6 -875.6,589.7 -871.9,590.6 -867.5,591.2 -862.3,590.1 -857.5,588.4 -853.5,586.4 -850.6,584.3 -848.1,581.9 -847.2,580.7 -846.6,579.8 -845.8,578.6 -845.1,577.5 -844.6,576.6 -844.1,575.7 -843.6,574.8 -843.2,574.2 -842.6,572.9 -842,571.8 -841.4,570.7 -840.8,569.6 -840.1,568.3 -839.7,567.6 -839.1,566.4 -838.6,565.2 -838,563.9 -837.4,562.6 -836.8,561.3 -836.3,560.3 -835.6,558.9 -835,557.6 -834.5,556.5 -833.8,555.1 -833.1,553.7 -832.5,552.4 -831.8,551 -831.1,549.6 -830.3,547.9 -829.7,546.4 -829,544.8 -828.3,543.3 -827.5,541.4 -826.9,540.1 -826.3,538.7 -825.6,537.2 -824.8,535.4 -824.1,533.9 -823.3,532.1 -822.3,530.1 -821.5,528.5 -820.8,526.9 -820,525 -819.3,523.3 -818.5,521.3 -817.7,519.4 -816.8,517.5 -815.9,515.7 -814.9,513.6 -814.1,512 -813.2,510.1 -812.4,508.4 -811.4,506.2 -810.5,504.3 -809.5,502.2 -808.6,500.2 -807.3,497.7 -806.2,495.7 -805,493.5 -803.8,491.3 -802.4,488.6 -801.4,486.4 -800.5,484.4 -799.5,482.2 -798.4,479.9 -797.4,478 -796.3,475.9 -795.1,473.6 -794,471.5 -793.1,469.6 -791.9,467.3 -790.6,465 -789.3,462.7 -788,460.4 -786.6,457.9 -785.5,455.8 -784.5,453.7 -783.5,451.6 -782.5,449.5 -781.5,447.5 -780.5,445.7 -779.3,443.7 -778.1,441.7 -776.9,439.7 -775.7,437.6 -774.6,435.5 -773.5,433.4 -772.4,431.3 -771.2,429.2 -770.1,427.5 -768.7,425.4 -767.5,423.5 -766.4,421.8 -765.1,419.9 -763.8,418 -762.8,416.5 -761.5,414.9 -760.2,413.3 -759.3,412.2 -758,410.7 -756.7,409.3 -755.5,408 -754.3,406.8 -752.7,405.3 -751.5,404.2 -750.1,402.8 -748.6,401.4 -747.1,400 -745.9,398.8 -744.3,397.3 -742.8,396.1 -741.7,395.2 -740.3,394.1 -738.6,392.8 -737.1,391.7 -735.5,390.4 -733.8,389 -732.4,387.8 -730.9,386.6 -729.6,385.4 -728,384.1 -726.4,382.8 -724.5,381.2 -723.1,379.9 -721.6,378.7 -720.1,377.2 -718.6,375.8 -717.3,374.6 -715.6,373.1 -713.9,371.5 -712.2,370 -710.5,368.5 -708.8,367 -707.5,365.8 -705.8,364.3 -704.2,363 -702.4,361.4 -700.7,359.8 -698.9,358.2 -697.1,356.6 -695.3,355 -693.8,353.6 -692,352 -690.2,350.4 -688.4,348.8 -686.7,347.3 -684.9,345.7 -683.1,344.1 -681.3,342.5 -679.5,340.9 -677.6,339.1 -675.5,337.3 -673.7,335.7 -671.5,333.7 -669.6,332 -667.8,330.4 -666,328.7 -664.2,327.1 -662.4,325.5 -660.6,323.9 -658.8,322.3 -657.3,320.9 -655.2,319 -653.5,317.4 -651.9,315.9 -650.2,314.3 -648.3,312.7 -646.7,311.3 -645.1,310 -643.3,308.3 -641.8,306.9 -640,305.3 -638.4,303.8 -636.6,302.1 -634.7,300.4 -632.9,298.8 -631.5,297.4 -629.7,295.9 -628.1,294.4 -626.8,293.3 -625.1,291.9 -623.3,290.4 -621.7,289 -620.1,287.6 -618.4,286 -617,284.7 -615.8,283.5 -614.3,282.1 -612.9,280.9 -611.6,279.8 -610.1,278.4 -608.5,277 -607.1,275.6 -605.1,273.7 -603.2,271.9 -601.6,270.4 -599.8,268.8 -598.2,267.4 -597.2,266.5 -596.1,265.5 -595.1,264.5 -594,263.2 -593.1,262.1 -592.2,261 -591.5,260 -590.7,259 -590,258.2 -589.1,257.1 -588.3,256 -587.4,254.9 -586.4,253.5 -585.7,252.4 -585.2,251.6 -584.5,250.4 -583.7,249 -583.1,247.9 -582.3,246.3 -581.6,244.7 -580.9,243 -580.4,241.5 -579.8,240 -579.5,239 -579.1,237.3 -578.8,236.1 -578.5,234.9 -578.1,233.1 -577.7,231.3 -577.4,230.1 -577.1,228.9 -576.7,227.2 -576.4,226.1 -576,224.4 -575.6,222.8 -575.2,221.1 -574.8,219.3 -574.4,217.5 -574.1,216.2 -573.7,214.3 -573.3,212.5 -573,211.2 -572.6,209.3 -572.2,207.4 -571.9,206 -571.5,204 -571.1,202 -570.7,200.1 -570.3,198.2 -569.7,195.8 -569.3,193.9 -568.8,192 -568.4,190.1 -567.9,188.2 -567.5,186.3 -567,184.4 -566.5,182.1 -566,180.2 -565.5,177.8 -564.8,175.3 -564.2,172.8 -563.5,170.1 -562.9,167.4 -562.3,165.2 -561.9,163.1 -561.4,161 -561,159 -560.5,157 -560,155 -559.5,153.2 -558.9,150.9 -558.4,149.1 -557.9,147.3 -557.4,145.1 -556.9,143.2 -556.5,141.5 -555.9,139.5 -555.4,137.5 -554.8,135.6 -554.3,133.7 -553.7,131.8 -553.2,130.2 -552.6,128.4 -552.1,126.9 -551.6,125.4 -551,124 -550.3,122.3 -549.7,120.9 -549,119.3 -548.2,117.8 -547.4,116.2 -546.7,115 -545.9,113.8 -544.9,112.4 -543.9,111 -543.1,110 -542.4,108.9 -541.4,107.4 -540.7,106.4 -539.9,105.4 -538.8,104 -537.6,102.6 -536.7,101.6 -535.8,100.6 -535,99.6 -534.1,98.7 -533.2,97.9 -532.1,96.9 -530.9,95.8 -529.5,94.6 -528.4,93.6 -527.3,92.6 -526.1,91.5 -524.9,90.6 -523.9,89.8 -522.7,88.9 -521.4,87.9 -520.3,87.2 -519,86.2 -517.7,85.2 -516.3,84.1 -515,83.1 -513.8,82.1 -512.5,81.1 -511.2,80.1 -510,79.2 -508.7,78.3 -507.1,77.1 -505.8,76.1 -504.5,75.1 -503.2,74.1 -501.6,72.8 -500.3,71.8 -498.8,70.6 -497.2,69.3 -495.8,68.2 -494.4,67.2 -493,66.2 -491.4,65 -489.8,63.8 -488.2,62.6 -486.6,61.4 -484.8,60 -483.4,58.9 -481.7,57.7 -479.9,56.3 -478.4,55.1 -476.7,53.8 -475.1,52.6 -473.4,51.3 -471.8,50.1 -469.9,48.7 -468.2,47.4 -466.4,46.1 -464.5,44.6 -462.6,43.2 -460.8,41.8 -459.2,40.6 -457.2,39.1 -455.4,37.7 -453.6,36.3 -452,35.1 -449.9,33.6 -448.1,32.2 -446.6,31.1 -444.6,29.6 -442.6,28 -440.8,26.6 -438.9,25.1 -436.8,23.6 -435,22.4 -432.9,20.9 -430.8,19.3 -428.9,17.9 -426.8,16.3 -425,14.7 -423.3,13.4 -421.6,12 -419.7,10.5 -417.8,9 -415.6,7.3 -413.6,5.7 -411.4,4 -409.4,2.5 -407.4,0.9 -405.6,-0.4 -403.4,-2.1 -401.6,-3.4 -399.5,-5 -397.8,-6.2 -395.7,-7.7 -393.8,-9.1 -391.9,-10.5 -390.1,-11.8 -388,-13.3 -386.1,-14.8 -384.2,-16.1 -382.1,-17.7 -379.9,-19.3 -378.1,-20.7 -376.3,-22.1 -374.5,-23.5 -372.6,-24.9 -370.8,-26.3 -368.7,-27.9 -366.9,-29.3 -365,-30.8 -363.4,-32.1 -361.8,-33.3 -360.1,-34.5 -358.1,-35.9 -356.5,-37.1 -354.6,-38.4 -352.7,-39.9 -350.8,-41.4 -349.2,-42.6 -347.3,-44.1 -345.4,-45.6 -343.5,-47 -342,-48.2 -340.1,-49.7 -338.2,-51.1 -336.6,-52.3 -335.3,-53.4 -333.6,-54.6 -331.9,-55.7 -330.3,-56.8 -328.7,-58 -326.7,-59.3 -325.1,-60.5 -323.5,-61.7 -321.8,-63 -320.2,-64.2 -318.6,-65.4 -316.6,-66.8 -315,-68 -313.3,-69.2 -311.4,-70.6 -309.8,-71.8 -308.2,-73 -306.6,-74.2 -305,-75.4 -303.6,-76.4 -301.9,-77.6 -300.5,-78.6 -298.8,-79.8 -297.1,-81 -295.3,-82.2 -293.6,-83.4 -291.9,-84.6 -290.1,-85.9 -288.3,-87.1 -286.6,-88.3 -284.8,-89.5 -283,-90.7 -281.6,-91.7 -280.2,-92.6 -278.4,-93.7 -276.6,-94.8 -274.8,-95.9 -272.7,-97.1 -270.9,-98.3 -269.1,-99.5 -267.6,-100.5 -265.8,-101.6 -263.9,-102.7 -262.1,-103.7 -260.2,-104.7 -258.3,-105.7 -256.7,-106.6 -254.8,-107.6 -252.8,-108.6 -251.2,-109.4 -249.3,-110.3 -247,-111.4 -245.3,-112.2 -243.7,-113 -241.5,-114.1 -239.6,-115.1 -238.1,-115.9 -235.9,-117 -233.6,-118.1 -231.9,-118.9 -229.9,-119.7 -227.8,-120.5 -225.7,-121.3 -223.6,-122.1 -221.5,-122.9 -219.4,-123.8 -217.1,-124.8 -215.5,-125.5 -213.1,-126.4 -210.7,-127.3 -208.6,-128.1 -206.5,-128.9 -204,-129.8 -201.9,-130.7 -199.8,-131.6 -197.3,-132.6 -194.5,-133.8 -192.1,-134.9 -190,-135.8 -187.6,-136.8 -185.2,-137.8 -183.1,-138.6 -180.6,-139.6 -178.1,-140.5 -175.6,-141.4 -173.1,-142.3 -170.9,-143.1 -168.7,-143.8 -166,-144.9 -163.5,-145.9 -161.1,-146.9 -158.3,-148 -155.9,-149 -153.8,-149.8 -151.4,-150.7 -149,-151.6 -146.5,-152.6 -144,-153.6 -141.5,-154.6 -139,-155.6 -136.8,-156.4 -134.8,-157.1 -132.4,-157.9 -130,-158.7 -127.4,-159.7 -124.7,-160.8 -122.3,-161.8 -120,-162.8 -117.6,-163.7 -115.6,-164.4 -113,-165.4 -110.4,-166.4 -108.1,-167.3 -105.8,-168.3 -103.4,-169.3 -101.3,-170.1 -99.2,-170.9 -96.8,-171.8 -94.1,-172.9 -91.7,-173.9 -89.3,-174.9 -86.9,-175.9 -84.2,-177 -82.2,-177.7 -79.8,-178.6 -76.9,-179.8 -73.7,-181.1 -70.7,-182.3 -67.7,-183.6 -64.5,-184.9 -62.2,-185.8 -59.5,-186.9 -57.2,-187.9 -54.5,-189 -52.1,-190 -49.4,-191.1 -47,-192 -44.3,-193 -41.4,-194.2 -38.7,-195.4 -36,-196.6 -33.3,-197.8 -30.6,-199 -28.2,-200 -25.5,-201 -22.7,-202 -20.1,-203 -17.1,-204.2 -14.3,-205.4 -11.6,-206.6 -8.9,-207.8 -6.1,-209 -3.7,-210 -1,-211 2,-212.2 4.7,-213.3 7.8,-214.6 10.8,-215.9 13.5,-217.1 16,-218.1 18.8,-219.3 22.1,-220.6 26.4,-222.4 30.7,-224.2 35.2,-226.1 39.4,-227.8 42.8,-229.2 45.6,-230.3 48.7,-231.5 51.6,-232.6 55,-234 58.1,-235.4 61.2,-236.7 63.9,-237.9 66.8,-239.2 69.2,-240.2 71.9,-241.2 74.6,-242.3 77.7,-243.5 80.5,-244.6 83.5,-245.8 86.4,-247 89.3,-248.2 91.9,-249.3 94.5,-250.4 97.4,-251.7 100.1,-252.9 102.8,-254 105.6,-255.2 108.5,-256.4 111.1,-257.4 113.9,-258.5 116.4,-259.5 119.3,-260.7 121.8,-261.8 124.6,-263 127.2,-264.1 129.5,-265.1 132,-266 134.5,-266.9 137,-267.8 139.7,-268.8 142.7,-269.9 145.4,-271 148.1,-272.1 150.8,-273.2 153.4,-274.3 155.8,-275.4 158.2,-276.5 160.9,-277.7 163,-278.7 165.5,-279.8 168.1,-280.9 170.5,-281.9 172.9,-282.9 175.8,-284 178.3,-285 180.6,-285.9 182.7,-286.7 185.2,-287.6 187.5,-288.5 189.7,-289.4 192,-290.3 194.8,-291.4 197.1,-292.4 199.3,-293.4 201.7,-294.4 204,-295.4 206.2,-296.3 208.7,-297.3 211.2,-298.3 213.6,-299.3 216.3,-300.3 218.7,-301.3 220.6,-302.1 222.3,-302.8 224.6,-303.6 226.8,-304.5 229,-305.4 231.4,-306.4 233.9,-307.4 236.2,-308.4 238.5,-309.3 240.8,-310.2 243.1,-311.1 245.6,-312.1 247.5,-312.9 249.2,-313.7 251.4,-314.6 253.6,-315.5 255.7,-316.3 258,-317.2 260.5,-318.2 262.4,-319 264.4,-319.8 266.2,-320.6 268.2,-321.4 270.3,-322.1 272.5,-322.9 274.6,-323.7 276.7,-324.5 278.9,-325.4 281,-326.4 282.9,-327.2 284.9,-328 287.1,-328.9 288.8,-329.6 290.8,-330.4 292.8,-331.3 294.8,-332.1 296.8,-332.9 298.8,-333.7 300.6,-334.4 302.7,-335.2 304.7,-336 306.5,-336.7 308.6,-337.5 310.9,-338.5 312.9,-339.3 314.7,-340.1 316.7,-341 318.4,-341.8 320.1,-342.5 321.8,-343.2 323.8,-344 325.8,-344.8 327.8,-345.6 329.3,-346.1 331.4,-346.8 333.3,-347.5 335,-348.1 337,-348.7 338.9,-349.4 340.8,-350.2 342.6,-350.8 344.7,-351.5 346.7,-352.3 348.7,-353.1 350.4,-353.7 352.3,-354.5 353.9,-355.2 355.8,-355.9 357.8,-356.6 359.8,-357.4 361.8,-358.2 363.7,-358.9 365.4,-359.6 367.1,-360.3 368.5,-360.8 370.4,-361.4 372.4,-362.1 374.4,-362.7 376.6,-363.4 379,-364.3 380.6,-365 382.5,-365.7 384.3,-366.5 385.9,-367.2 387.8,-367.9 389.8,-368.6 391.5,-369.3 393.7,-370.1 395.9,-370.8 397.8,-371.5 399.7,-372.2 402.1,-373.1 404,-373.8 405.9,-374.6 407.6,-375.3 409.8,-376 411.7,-376.6 413.6,-377.3 415.5,-378 417.9,-378.8 419.8,-379.6 421.5,-380.3 423.6,-381.1 425.9,-381.9 427.7,-382.6 429.8,-383.4 431.9,-384.2 434,-385 435.9,-385.7 438,-386.5 439.8,-387.2 442.2,-388.1 444,-388.7 445.7,-389.4 447.7,-390.2 450,-391.1 451.7,-391.8 453.4,-392.5 455.8,-393.4 457.7,-394.1 459.9,-394.9 462.1,-395.7 464.8,-396.7 466.9,-397.5 469,-398.3 471.1,-399.1 473.2,-399.8 474.8,-400.4 476.7,-401.1 479.1,-402 480.9,-402.7 482.7,-403.4 484.8,-404.2 487.1,-405.1 488.9,-405.8 491,-406.6 493.2,-407.4 495.4,-408.2 497.4,-408.9 499.8,-409.8 501.9,-410.5 503.9,-411.3 505.9,-412.1 507.9,-412.9 509.8,-413.6 511.9,-414.4 514,-415.2 516.3,-416.1 518.3,-416.9 520.3,-417.7 522.3,-418.5 524.3,-419.3 526.3,-420.1 528.3,-420.9 530,-421.5 532,-422.4 534.2,-423.3 535.9,-424 538,-424.8 540.6,-425.9 542.7,-426.7 544.9,-427.6 547.3,-428.5 549.5,-429.4 551.3,-430.2 553.2,-431 555.3,-431.9 557.2,-432.7 558.9,-433.4 561,-434.2 563.2,-435.1 564.9,-435.8 567.1,-436.8 569.3,-437.7 571,-438.4 573,-439.2 574.9,-439.9 576.6,-440.5 578.2,-441.2 580.1,-442 581.9,-442.8 583.8,-443.6 585.3,-444.3 587.2,-445.1 588.7,-445.7 590.1,-446.2 590.8,-446.5 591.7,-446.8" style="stroke: rgb(55, 65, 81); stroke-width: 10;"></polygon><polyline vector-effect="non-scaling-stroke" fill="none" points="596.7,-448.7 597,-448.8 597.2,-448.9 597.8,-449.2 598.2,-449.3 599.1,-449.7 600.1,-450.2 601.2,-450.6 602.3,-451 604,-451.7 605.2,-452.2 606.3,-452.6 607.4,-453 608.7,-453.6 609.6,-454 610.5,-454.3 611.6,-454.8 612.7,-455.3 613.6,-455.6 614.4,-456 615.2,-456.4 615.8,-456.6 616.4,-456.9 617,-457.2 617.8,-457.4 618.7,-457.8 619.6,-458.2 620.5,-458.6 621.4,-459 622,-459.3 622.8,-459.6 623.6,-459.9 624.8,-460.3 626,-460.8 627.2,-461.3 628,-461.7 628.8,-462.1 629.2,-462.3 630.1,-462.7 631,-463.1 632,-463.4 633,-463.8 634,-464.2 635,-464.6 636,-465 637.2,-465.6 638.4,-466.1 639.7,-466.7 640.5,-467 641.6,-467.5 642.5,-467.8 643.8,-468.3 645,-468.8 646.2,-469.3 647.2,-469.7 648.7,-470.3 649.8,-470.8 650.9,-471.2 652,-471.7 653,-472.1 654,-472.6 655,-473 656,-473.4 657.1,-473.8 658.2,-474.2 659.4,-474.6 660.6,-475 662,-475.6 663.3,-476.1 664.9,-476.8 665.9,-477.2 667.1,-477.8 668.1,-478.2 669.3,-478.8 670.2,-479.2 671.2,-479.7 672.3,-480.1 673.4,-480.6 674.3,-480.9 675.8,-481.5 677.2,-482 678.5,-482.6 679.8,-483.1 681.2,-483.7 682.3,-484.1 683.6,-484.7 684.7,-485.1 686.1,-485.7 687.4,-486.2 688.4,-486.7 689.5,-487.1 690.9,-487.7 692,-488.2 693.1,-488.7 694.7,-489.4 696.1,-490 697.2,-490.5 698.3,-490.9 700,-491.6 701.2,-492 702.3,-492.5 703.4,-492.9 705,-493.5 706,-493.8 707.6,-494.5 709.3,-495.1 711,-495.8 712.2,-496.3 713.6,-497 714.5,-497.4 715.3,-497.8 716.6,-498.4 718,-499 719.2,-499.5 720.3,-499.9 721.4,-500.4 722.8,-500.8 724.1,-501.3 725.4,-501.7 727.1,-502.3 729,-502.9 730.1,-503.4 731.3,-503.8 732.9,-504.5 734.1,-505.1 735.3,-505.7 736.6,-506.3 737.8,-506.9 738.9,-507.4 740.1,-507.8 741.1,-508.2 742,-508.5 743.5,-509.1 744.8,-509.5 746,-510 747.5,-510.5 749.2,-511.2 750.6,-511.7 751.9,-512.3 753.2,-512.8 754.6,-513.5 755.9,-514 757.1,-514.6 758.3,-515.1 759.5,-515.7 760.4,-516 761.7,-516.6 762.8,-517 763.9,-517.5 765,-517.9 766.1,-518.4 767.3,-518.8 768.5,-519.3 769.7,-519.7 770.9,-520.2 772.6,-520.8 773.7,-521.3 774.8,-521.7 775.9,-522.2 777.3,-522.7 778.3,-523.2 779.3,-523.6 780.4,-524.1 781.8,-524.6 783.1,-525.2 784.2,-525.6 785.5,-526.2 786.7,-526.7 787.8,-527.2 788.7,-527.6 789.9,-528.1 791.1,-528.6 792.3,-529.1 793.3,-529.6 794.3,-530 795.3,-530.5 796.1,-530.8 796.9,-531.2 798,-531.6 799.3,-532.1 800.3,-532.5 801.5,-533 802.8,-533.5 803.8,-533.9 804.6,-534.3 805.4,-534.6 806.6,-535 807.7,-535.4 809,-535.9 810.3,-536.4 811.6,-536.9 812.3,-537.3 813.3,-537.7 814.3,-538.1 815.3,-538.5 816.5,-539 817.7,-539.5 818.8,-540 819.7,-540.4 820.8,-540.9 821.7,-541.3 822.8,-541.8 823.7,-542.2 824.6,-542.6 825.3,-542.9 826,-543.2 827.3,-543.7 828.6,-544.3 829.9,-544.9 831.2,-545.4 832.5,-546 833,-546.2 833.5,-546.4 834.7,-546.9 835.9,-547.4 837.1,-547.9 838.3,-548.4 839.5,-548.8 840.1,-549.1 841.3,-549.6 842.5,-550 843.9,-550.6 845.3,-551.2 846.6,-551.6 847.4,-551.9 848.7,-552.5 849.8,-552.9 850.9,-553.3 852,-553.8 853.4,-554.4 854.3,-554.7 855.6,-555.2 856.9,-555.8 858.3,-556.4 859.3,-556.8 860.6,-557.3 861.8,-557.8 863,-558.3 864.1,-558.7 865.5,-559.2 866.7,-559.8 867.7,-560.2 868.9,-560.7 870.4,-561.4 871.6,-562 872.8,-562.5 874.7,-563.6 876.4,-564.5 877.7,-565.3 879,-566.1 880.4,-567.1 881.3,-567.9 882.1,-568.8 883.1,-569.8 884,-570.9 884.9,-572.4 885.5,-573.7 886.3,-575.7 886.9,-577.9 887.3,-580.7 887.3,-583.5 887.2,-586.2 886.8,-588.1 886.4,-589.7 885.9,-591.3 885.4,-592.4 884.9,-593.5 884.2,-595.3 883.4,-597.1 882.8,-598.4 882.3,-599.6 881.7,-601.2 881.2,-602.5 880.8,-603.8 880.4,-605 879.9,-606.5 879.5,-607.6 879.2,-608.4 878.8,-609.5 878.5,-610.6 878.2,-611.4 877.8,-612.5 877.5,-613.6 877.2,-614.4 876.8,-615.5 876.3,-616.8 875.9,-617.8 875.5,-618.8 875.1,-619.8 874.7,-620.8 874.4,-621.6 874,-622.8 873.5,-624.2 873,-625.6 872.6,-626.7 872.1,-628.2 871.7,-629.3 871.3,-630.2 870.9,-631.4 870.4,-632.9 869.9,-634.2 869.4,-635.5 868.9,-636.8 868.4,-638.2 867.8,-639.5 867.4,-640.6 866.9,-641.7 866.5,-642.9 866,-644.1 865.6,-645.3 865,-646.8 864.5,-648.3 863.8,-649.9 863.3,-651.2 862.8,-652.3 862.4,-653.4 861.9,-654.5 861.6,-655.5 861.1,-656.8 860.5,-658.3 859.9,-659.8 859.3,-661.3 858.7,-662.7 858.1,-664.1 857.5,-665.5 856.9,-666.9 856.3,-668.3 855.6,-669.9 854.9,-671.4 854.3,-672.7 853.7,-673.9 853.1,-675.2 852.6,-676.3 852.1,-677.5 851.6,-678.7 851.1,-680 850.5,-681.5 849.9,-683 849.2,-684.6 848.5,-686.2 847.9,-687.6 847.3,-689 846.6,-690.6 846.1,-691.8 845.6,-693 844.9,-694.7 844.3,-696.1 843.7,-697.4 843.1,-698.9 842.2,-701 841.4,-702.5 840.7,-704.1 840,-705.6 839.3,-707.2 838.9,-708.2 838.4,-709.6 837.9,-710.9 837.3,-712.6 836.6,-714.1 835.8,-716 835.1,-717.5 834.3,-719.1 833.7,-720.3 832.9,-722.1 832.2,-723.5 831.6,-725 831,-726.4 830.2,-728.2 829.8,-729.2 829.1,-730.9 828.3,-732.5 827.6,-734.2 827,-735.6 826.2,-737.3 825.8,-738.4 825.3,-739.8 824.7,-741.2 824.1,-742.8 823.5,-744.4 822.7,-746.1 822.1,-747.6 821.4,-749.4 820.4,-751.4 819.6,-753.2 818.9,-754.8 818.1,-756.4 817.5,-757.6 817.1,-758.7 816.6,-759.7 815.9,-761.4 815.2,-763.1 814.4,-764.8 813.8,-766.2 813.2,-767.6 812.5,-769.2 811.9,-770.7 811.2,-772.5 810.4,-774.2 809.7,-776 809.2,-777.2 808.6,-778.5 808.1,-779.8 807.5,-781.4 806.8,-782.9 806.2,-784.5 805.5,-786.2 804.6,-788 803.9,-789.5 803.2,-791.1 802.5,-792.3 801.8,-793.9 801.3,-795.1 800.7,-796.4 800.1,-797.9 799.5,-799.5 799,-800.8 798.4,-802.3 797.7,-804 797.1,-805.4 796.4,-807 795.7,-808.3 795,-809.9 794.4,-811.2 793.7,-812.7 793,-814.2 792.3,-815.7 791.7,-817 791,-818.5 790.4,-819.8 789.8,-821.1 789.2,-822.4 788.7,-823.4 788,-824.9 787.3,-826.4 786.7,-827.6 786.2,-828.9 785.6,-830.2 785.3,-831.2 784.8,-832.5 784.2,-834 783.6,-835.4 782.8,-837.3 782.1,-838.8 781.5,-840 781.1,-841 780.5,-842.4 780.2,-843.3 779.8,-844.2 779.4,-845.4 778.7,-847.1 778.2,-848.4 777.6,-849.7 777,-851.2 776.4,-852.4 776.1,-853.1 775.7,-853.8 775.3,-854.8 774.8,-855.8 774.4,-856.8 774,-857.8 773.6,-858.8 773.2,-859.8 772.9,-860.6 772.6,-861.4 772.2,-862.5 771.7,-863.8 771.1,-865.1 770.6,-866.4 770,-867.9 769.4,-869 769,-869.9 768.8,-870.5 768.2,-871.8 767.6,-873.2 767,-874.6 766.3,-876.4 765.5,-878.1 765,-879.4 764.5,-880.3 764,-881.6 762.2,-883.6 760.4,-885.8 755.5,-887.1 750,-888.1 744.3,-888.4 739.6,-887.4 735,-886.1 733.4,-885.3 732.5,-884.7 731.4,-884.3 730.5,-883.9 729.2,-883.5 728.1,-883 726.7,-882.5 725.7,-882.1 724.8,-881.8 724.3,-881.5 723.7,-881.3 723,-881.1 722.3,-880.8 721.6,-880.5 720.5,-880.2 719.4,-879.8 718.6,-879.5 717.8,-879.3 716.6,-878.9 715.7,-878.6 714.4,-878.1 713.1,-877.6 711.8,-877.1 710.8,-876.7 709.5,-876.2 708.6,-875.9 707.7,-875.6 706.4,-875.1 705.2,-874.7 704,-874.2 702.5,-873.7 701,-873.2 699.9,-872.8 698.3,-872.3 696.8,-871.8 695.6,-871.4 694.3,-870.9 692.7,-870.4 691.5,-869.9 690.2,-869.5 688.6,-868.9 686.9,-868.2 685.4,-867.6 684,-867 682.6,-866.4 681.4,-865.9 679.8,-865.4 678.3,-864.8 676.7,-864.3 675.4,-863.8 673.5,-863.1 672.2,-862.6 670.6,-862 668.9,-861.3 667.1,-860.6 665.9,-860.1 664.7,-859.6 663,-859 661.2,-858.3 659.5,-857.7 657.6,-857 655.6,-856.2 654.1,-855.6 652.8,-855.1 651,-854.4 649.2,-853.8 647.5,-853.2 645.7,-852.5 643.7,-851.8 642.1,-851.2 640.2,-850.4 638.3,-849.7 636.5,-849 634.9,-848.3 632.8,-847.4 631.2,-846.8 629.5,-846.1 627.5,-845.4 625.5,-844.8 623.8,-844.3 621.9,-843.6 619.8,-842.8 618.2,-842.2 616.3,-841.4 614.3,-840.6 612.3,-839.8 610.5,-839.2 608.4,-838.4 606.3,-837.6 604.3,-836.8 602.5,-836.2 599.9,-835.2 597.6,-834.3 595.6,-833.5 593.3,-832.7 591,-831.8 589.2,-831.1 587.4,-830.4 585.3,-829.6 583.1,-828.8 580.9,-828 579,-827.3 576.7,-826.5 574.1,-825.5 572.1,-824.6 570,-823.8 567.6,-822.9 565.3,-822 563.6,-821.4 561.5,-820.7 559.2,-819.8 556.9,-819 554.6,-818.2 552.3,-817.4 549.7,-816.4 547.4,-815.5 545,-814.5 542.9,-813.6 540.2,-812.5 538.2,-811.8 535.9,-811 533.6,-810.2 531,-809.3 528.6,-808.5 526.2,-807.6 523.4,-806.5 521,-805.5 518.4,-804.5 516.2,-803.6 513.6,-802.6 511.3,-801.8 508.4,-800.7 505.9,-799.7 503,-798.6 500,-797.5 497.4,-796.5 495,-795.7 492,-794.6 489.3,-793.6 486.7,-792.6 483.7,-791.5 480.7,-790.4 478,-789.4 475,-788.3 472,-787.2 468.9,-785.9 466.1,-784.7 463.3,-783.6 460.5,-782.5 457.3,-781.2 454.5,-780.2 451.4,-779.1 448.3,-777.9 445.1,-776.6 442.3,-775.5 439.1,-774.2 436.2,-773 432.8,-771.6 429.8,-770.4 426.8,-769.2 423.8,-768.1 420.3,-766.6 417.6,-765.5 414.4,-764.3 410.8,-762.8 407.6,-761.4 404.5,-760.2 400.9,-758.7 397.7,-757.3 394.5,-755.9 391.3,-754.5 388.2,-753.1 384.8,-751.7 381.5,-750.3 378.6,-749.1 375.2,-747.7 371.8,-746.3 368.9,-745.1 365.5,-743.7 361.8,-742.1 358.5,-740.7 354.8,-739.1 350.3,-737.1 346.3,-735.3 342.1,-733.5 338,-731.7 334.3,-730.1 330.9,-728.7 327.5,-727.2 324.1,-725.7 320.7,-724.2 317.2,-722.7 314,-721.3 310.4,-719.7 307.3,-718.4 303.7,-716.8 300,-715.2 296.3,-713.5 292.6,-711.9 288.8,-710.2 285.1,-708.6 281.6,-707.1 278.1,-705.6 274.6,-704.2 271.1,-702.7 267.6,-701.3 264,-699.7 260.2,-698.1 256.7,-696.5 252.8,-694.9 249.3,-693.3 245.6,-691.8 241.8,-690.2 238.1,-688.6 234.4,-687 230.6,-685.4 226.8,-683.7 223.7,-682.3 219.9,-680.7 216.5,-679.2 212.8,-677.6 209.4,-676.2 205.6,-674.6 201.8,-673 198.4,-671.5 194.6,-669.9 190.7,-668.1 187.2,-666.5 184,-665.1 180.1,-663.4 176.8,-661.9 173.4,-660.6 169.8,-659.2 166.2,-657.7 163,-656.4 159.6,-655 156.3,-653.5 152.9,-652 149.6,-650.6 146.3,-649.1 143.1,-647.7 140,-646.4 137.1,-645.1 133.9,-643.6 131,-642.4 128,-641 125,-639.6 122.3,-638.4 119.9,-637.4 116.9,-636 114.4,-634.9 111.9,-633.8 108.7,-632.4 105.9,-631.1 103.4,-630.1 100.9,-629 98.4,-627.9 95.9,-626.8 93.2,-625.6 90.8,-624.5 87.9,-623.3 85.4,-622.2 83.2,-621.3 80.8,-620.3 78.5,-619.3 76.3,-618.4 73.8,-617.4 71.5,-616.4 69.3,-615.4 66.8,-614.3 64,-613 61.3,-611.7 58.8,-610.5 56.3,-609.4 53.9,-608.3 52,-607.4 50.1,-606.6 48.2,-605.8 46.3,-605 44.6,-604.3 42.5,-603.5 40.4,-602.6 38.1,-601.7 36.2,-600.9 34.1,-600 32.4,-599.2 30.7,-598.4 29.3,-597.7 27.5,-596.9 25.7,-596.1 24.2,-595.5 22.5,-594.8 20.8,-594 19.4,-593.4 17.7,-592.7 16,-591.9 14.7,-591.4 13.1,-590.8 11.4,-590 10,-589.4 8.6,-588.8 7,-588.1 5.7,-587.5 4.6,-587.1 3.5,-586.6 2.1,-586 1,-585.5 -0.1,-585 -1.5,-584.4 -2.8,-583.8 -3.8,-583.4 -5.1,-582.8 -6.4,-582.3 -7.4,-581.9 -8.5,-581.5 -9.8,-581 -10.8,-580.6 -12,-580.1 -13.1,-579.5 -13.9,-579.1 -14.5,-578.8 -15.5,-578.3 -16.3,-577.9 -17.2,-577.6 -18,-577.2 -18.8,-576.8 -19.2,-576.7 -20,-576.4 -21.9,-575.6 -23.8,-574.8 -26,-573.8 -29.2,-572.4 -32.1,-571.1 -34.4,-570 -36.8,-568.9 -39.5,-567.3 -40.9,-562.6 -41.8,-557.3 -41.9,-551.8 -41.9,-546.2 -41,-540.9 -40.2,-538.9 -39.6,-537.2 -39.2,-535.9 -38.7,-534.7 -38.4,-533.8 -38.1,-532.6 -37.7,-531.5 -37.3,-530.4 -36.9,-529.3 -36.5,-528.2 -36.1,-527.2 -35.8,-526.4 -35.5,-525.6 -35.3,-524.8 -34.9,-523.6 -34.5,-522.4 -34.1,-521.2 -33.7,-520 -33.3,-518.8 -32.9,-517.6 -32.4,-516.3 -32,-515 -31.5,-513.2 -30.8,-511.2 -30.3,-509.6 -29.9,-508.3 -29.4,-506.7 -28.9,-505.6 -28.6,-504.6 -28.1,-503.2 -27.7,-501.8 -27.2,-500.4 -26.8,-498.9 -26.2,-497.2 -25.8,-495.8 -25.2,-494.2 -24.7,-492.7 -24.1,-491.2 -23.7,-490 -23.1,-488.4 -22.6,-486.9 -22.1,-485.5 -21.7,-484.2 -21.1,-482.5 -20.7,-481.3 -20.2,-479.9 -19.8,-478.6 -19.2,-476.8 -18.7,-475.2 -18.1,-473.6 -17.7,-472.3 -17.1,-470.7 -16.7,-469.5 -16.2,-468.2 -15.7,-466.6 -15.1,-465.1 -14.5,-463.5 -13.8,-461.9 -13.3,-460.6 -12.8,-459.5 -12.2,-458 -11.6,-456.4 -11,-454.9 -10.4,-453.4 -9.7,-451.7 -9.2,-450.4 -8.7,-449.2 -8.2,-448 -7.7,-446.8 -7.1,-445.3 -6.5,-443.8 -5.8,-442.2 -5.1,-440.6 -4.4,-439 -3.9,-437.9 -3.3,-436.5 -2.8,-435.4 -2.4,-434.2 -1.9,-433 -1.2,-431.3 -0.6,-429.9 0,-428.5 0.6,-427.1 1.4,-425.3 2,-424.1 2.6,-422.8 3.1,-421.7 3.7,-420.3 4.3,-418.9 4.8,-417.5 5.4,-416.1 5.9,-414.7 6.5,-413.4 7,-412.2 7.6,-410.8 8.2,-409.5 9,-407.7 9.7,-406.1 10.4,-404.5 11,-403.1 11.8,-401.3 12.4,-399.9 13,-398.6 13.4,-397.6 14,-396.2 14.3,-395.2 14.9,-393.9 15.5,-392.6 16.1,-391.2 16.6,-390.2 17.3,-388.7 17.8,-387.6 18.3,-386.2 18.9,-384.9 19.4,-383.6 19.9,-382.5 20.3,-381.4 20.7,-380.4 21.1,-379.4 21.6,-378.2 22,-377.3 22.5,-376.2 22.9,-375.3 23.3,-374.4 23.6,-373.7 24.1,-372.4 24.5,-371.3 25.1,-369.9 25.9,-368 26.8,-365.8 27.5,-364.3 28.2,-362.8 28.7,-361.5 29.1,-360.4 29.4,-359.6 29.7,-358.3 30,-356.7 30.3,-355.2 30.5,-354.1 30.6,-353 30.5,-351.8 30.4,-350.9 30.2,-350.1 29.8,-349.1 28.9,-347.4 27.9,-346.2 26.9,-345 25.9,-343.8 24.9,-342.8 24.5,-342.5 24.2,-342.3 23.5,-342 22.6,-341.5 21.4,-340.8 20.1,-340.2 18.8,-339.5 17.8,-339 16.6,-338.6 15.7,-338.3 14.8,-338 13.6,-337.6 12.2,-337.1 11.2,-336.7 10.2,-336.3 9.2,-335.9 8.5,-335.6 7.6,-335.3 6.5,-334.8 5.4,-334.4 4.3,-333.9 3.2,-333.5 2.2,-333 1.1,-332.6 -0.2,-332 -1.5,-331.5 -2.8,-330.9 -4.2,-330.4 -5.5,-329.8 -6.6,-329.4 -7.7,-328.9 -8.9,-328.5 -10.1,-328 -11.3,-327.6 -12.8,-327 -14.3,-326.5 -15.7,-325.9 -17.1,-325.3 -18.5,-324.7 -19.6,-324.2 -21,-323.6 -22.4,-323 -23.8,-322.4 -25.2,-321.8 -26.9,-321.1 -28.3,-320.4 -29.7,-319.8 -31.1,-319.2 -32.5,-318.6 -33.9,-318 -35.3,-317.4 -36.8,-316.8 -38.5,-316 -40.1,-315.2 -41.5,-314.6 -42.9,-314 -44.7,-313.2 -46.1,-312.7 -47.5,-312.2 -48.8,-311.6 -50.7,-310.8 -52.4,-310.1 -53.9,-309.4 -55.8,-308.5 -57.8,-307.7 -59.2,-307.1 -60.7,-306.4 -62.5,-305.6 -63.8,-305.1 -65.4,-304.4 -67.3,-303.6 -69.1,-302.8 -70.8,-302.1 -72.6,-301.3 -74.4,-300.5 -76,-299.8 -77.6,-299.2 -79.3,-298.5 -81.2,-297.7 -83,-296.9 -84.9,-296.1 -86.8,-295.2 -88.7,-294.3 -90.4,-293.5 -91.8,-292.9 -93.5,-292.2 -95.2,-291.5 -96.9,-290.8 -98.8,-290 -100.7,-289.2 -102.5,-288.4 -104.3,-287.6 -105.9,-286.9 -107.8,-286.1 -109.8,-285.2 -111.5,-284.4 -113.3,-283.6 -115.2,-282.8 -116.8,-282.1 -118.6,-281.3 -120.3,-280.5 -121.7,-279.8 -123.5,-279 -125.3,-278.2 -126.8,-277.5 -128.6,-276.7 -130.6,-275.8 -132,-275 -133.5,-274.3 -135.2,-273.5 -137,-272.6 -138.6,-271.8 -140.4,-270.9 -142.1,-269.9 -144.1,-268.7 -145.7,-267.7 -147.3,-266.7 -148.9,-265.8 -150.5,-264.9 -152,-264 -153.6,-263.1 -155.1,-262.2 -156.7,-261.2 -158.3,-260.2 -159.5,-259.5 -161.3,-258.4 -163.1,-257.3 -164.7,-256.3 -166.3,-255.2 -168,-254.1 -169,-253.4 -170.3,-252.7 -171.8,-251.8 -173,-251.1 -174.4,-250.3 -175.8,-249.5 -177.6,-248.3 -179.1,-247.3 -180.8,-246.2 -182.2,-245.3 -183.9,-244.3 -184.9,-243.7 -186.1,-243 -187.4,-242.3 -189,-241.3 -190.4,-240.5 -191.8,-239.7 -193.2,-238.9 -194.8,-237.9 -196.1,-237.1 -197.4,-236.2 -198.9,-235.3 -200.2,-234.5 -201.4,-233.8 -202.6,-233.1 -203.9,-232.3 -205.3,-231.5 -206.7,-230.7 -208,-229.9 -209.4,-229.1 -210.8,-228.3 -212,-227.6 -213.5,-226.7" style="stroke: rgb(239, 68, 68); stroke-width: 7;"></polyline><polyline vector-effect="non-scaling-stroke" fill="none" points="-214.8,-226 -216.3,-225.1 -217.6,-224.4 -218.8,-223.6 -220.2,-222.7 -221.5,-221.8 -222.5,-221.2 -223.5,-220.5 -224.7,-219.7 -225.4,-219.3 -226.3,-218.8 -227.5,-218 -228.7,-217.3 -229.7,-216.7 -231,-215.8 -232.1,-215.1 -232.9,-214.6 -233.7,-214.1 -234.7,-213.5 -235.4,-213.2 -236.5,-212.5 -237.7,-211.8 -238.9,-211 -240.1,-210.3 -241.2,-209.5 -241.9,-209.1 -243.1,-208.3 -244.6,-207.4 -246.3,-206.3 -248.3,-205 -250.4,-203.6 -251.8,-202.6 -252.9,-201.8 -253.5,-201.2 -254.8,-199.9 -256,-198.7 -257.3,-197.3 -258.7,-195.5 -260.2,-193.8 -260.8,-192.7 -261.5,-191 -262.3,-188.9 -262.9,-187 -263.4,-184.3 -263.7,-181.7 -263.7,-179 -263.5,-176.9 -263.2,-175 -262.8,-173.5 -262.5,-172.1 -262,-170.7 -261.4,-169.4 -260.9,-168 -260.1,-166.3 -259,-164.3 -258.1,-162.8 -257.2,-161 -256.2,-159.3 -255.6,-158.2 -255.2,-157.3 -254.5,-156.1 -253.9,-155.1 -253.1,-153.6 -252.1,-152 -251.1,-150.4 -250.3,-148.9 -249.4,-147.4 -248.7,-146.1 -248.1,-145 -247.6,-144.1 -247.3,-143.5 -247.1,-142.9 -246.9,-142.6 -246.7,-141.9 -246.5,-141.1 -246.2,-140.3 -245.9,-139.3 -245.8,-137.9 -245.8,-136.7 -245.9,-135.7 -246.1,-134.7 -246.3,-133.9 -246.5,-133.5 -246.9,-132.8 -247.2,-132 -247.6,-131.3 -248.1,-130.4 -248.5,-129.4 -248.8,-128.9 -249.1,-128.4 -249.4,-127.9 -250.1,-127.2 -250.9,-126.6 -251.6,-125.9 -252.4,-125.3 -253.6,-124.3 -254.4,-123.8 -255.5,-123 -256.9,-122.2 -258.6,-121.1 -260,-120.2 -261.4,-119.3 -262.7,-118.5 -264.1,-117.5 -265.2,-116.8 -266.2,-116.2 -267.2,-115.6 -268.1,-115 -268.7,-114.6 -269.6,-114 -270.5,-113.4 -271.4,-112.8 -272.5,-112.1 -273.7,-111.3 -274.6,-110.7 -275.5,-110.1 -276.7,-109.2 -277.6,-108.6 -278.4,-108.1 -279.5,-107.3 -280.9,-106.4 -282,-105.7 -283.1,-104.9 -284.5,-104 -285.6,-103.3 -286.4,-102.7 -287.5,-102 -288.7,-101.2 -289.6,-100.5 -290.5,-99.9 -291.7,-99.1 -292.7,-98.3 -293.6,-97.7 -294.5,-97.1 -295.7,-96.2 -296.6,-95.6 -297.4,-95.1 -298.5,-94.3 -299.7,-93.5 -300.6,-92.9 -301.5,-92.2 -302.3,-91.5 -303.1,-90.9 -303.9,-90.2 -304.7,-89.5 -305.5,-88.9 -306.7,-88.1 -307.6,-87.4 -308.4,-86.8 -309.7,-85.9 -311.1,-84.9 -312.2,-84.1 -313.3,-83.3 -314.7,-82.3 -315.6,-81.6 -316.7,-80.6 -317.8,-79.7 -319,-78.8 -320.2,-77.9 -321.4,-77 -322.3,-76.4 -323.6,-75.4 -324.9,-74.4 -326.1,-73.4 -327.3,-72.4 -328.5,-71.4 -329.6,-70.6 -331,-69.5 -332.2,-68.7 -333.5,-67.8 -335,-66.8 -336.2,-65.9 -337,-65.3 -338.3,-64.3 -339.5,-63.4 -340.8,-62.4 -342.2,-61.3 -343.7,-60.2 -344.7,-59.4 -346.1,-58.3 -347.4,-57.3 -348.6,-56.4 -350,-55.3 -351.6,-54.1 -352.8,-53.2 -354.2,-52.2 -355.8,-51 -357.1,-50 -358.3,-49 -359.9,-47.7 -361.1,-46.6 -362.2,-45.7 -363.7,-44.5 -365.2,-43.4 -366.6,-42.4 -368,-41.4 -369.6,-40.2 -370.8,-39.3 -372.3,-38.2 -373.5,-37.3 -375.2,-36.1 -376.6,-35.1 -378,-34 -379.6,-32.7 -381.2,-31.4 -382.4,-30.4 -383.6,-29.4 -385.3,-28.2 -386.4,-27.4 -387.8,-26.5 -389.5,-25.2 -391.4,-23.8 -392.8,-22.7 -394.3,-21.6 -395.9,-20.3 -397.2,-19.4 -398.3,-18.6 -399.9,-17.5 -401.4,-16.3 -403,-15.1 -404.5,-13.9 -406.1,-12.7 -407.6,-11.5 -409.2,-10.4 -410.9,-9.1 -412.6,-7.8 -414.3,-6.5 -415.6,-5.5 -417.1,-4.4 -418.4,-3.5 -419.9,-2.5 -421.5,-1.2 -423.2,0.1 -424.9,1.5 -426.3,2.6 -427.8,3.7 -429.4,4.8 -431,6 -432.3,7 -433.8,8.1 -435.5,9.4 -436.9,10.4 -438.7,11.7 -440.6,13.1 -442.3,14.4 -443.8,15.6 -445.4,16.8 -446.9,18 -448.3,19.1 -449.9,20.3 -451.6,21.6 -453.2,22.9 -454.7,24 -456.5,25.3 -458.3,26.7 -459.8,27.8 -461.3,28.9 -463.1,30.2 -464.7,31.4 -466.3,32.6 -467.9,33.8 -469.5,35 -471.1,36.3 -472.6,37.5 -473.9,38.5 -475.6,39.8 -477.3,41.1 -478.8,42.1 -480.3,43.2 -482.2,44.6 -483.6,45.7 -485.1,46.8 -486.5,47.9 -488.1,49 -489.6,50.1 -491.1,51.2 -492.9,52.5 -494.5,53.7 -496,54.8 -497.5,55.9 -499.1,57 -500.3,57.9 -501.8,58.9 -503.4,60.2 -504.6,61.2 -506.1,62.4 -507.7,63.7 -509.2,65 -510.5,66 -512.2,67.2 -513.6,68.3 -514.9,69.3 -515.9,70.1 -517.4,71.2 -518.5,72.1 -519.5,72.8 -520.8,73.7 -522.1,74.6 -522.9,75.2 -524,76 -525.2,77 -526.2,77.8 -527.2,78.6 -528.2,79.4 -529.2,80.1 -530.2,80.8 -531.2,81.6 -532.2,82.3 -533.3,83.1 -534,83.8 -534.6,84.3 -535.4,84.9 -536.2,85.5 -536.9,86.1 -537.7,86.6 -538.5,87.3 -539,87.7 -539.6,88.3 -540.2,88.9 -540.8,89.5 -541.4,90.1 -542,90.7 -542.5,91.3 -543,91.7 -543.5,92.3 -544,92.7 -544.5,93.3 -545,93.7 -545.5,94.3 -546.1,94.9 -546.7,95.5 -547.2,96 -547.7,96.5 -548.5,97.1 -549.1,97.6 -549.7,98.2 -550.4,98.8 -551.5,99.7 -554.1,100.3 -556.7,100.7 -559.4,101 -562.2,101 -564.7,100.7 -565.6,100.2 -566.5,99.7 -567.3,99.2 -567.9,98.8 -568.4,98.4 -568.9,97.9 -569.5,97.5 -570,97 -570.6,96.6 -571.1,96.1 -571.4,95.9 -571.7,95.5 -572.1,95.2 -572.5,94.7 -573.3,93.9 -574,93 -574.7,92.1 -575.6,90.8 -576.4,89.6 -576.9,88.7 -577.4,87.8 -577.9,86.7 -578.2,86 -578.5,85.3 -578.8,84.6 -579.2,83.6 -579.5,82.9 -579.8,82.1 -580.2,81 -580.5,79.8 -580.9,78.6 -581.3,77.4 -581.7,76.2 -582.1,75 -582.5,73.9 -582.8,73.1 -583.2,72 -583.5,70.8 -583.9,69.6 -584.3,68.4 -584.7,67.2 -585.1,65.9 -585.5,64.7 -585.8,63.8 -586.2,62.5 -586.7,60.9 -587.1,59.7 -587.5,58.5 -588,56.8 -588.4,55.5 -588.7,54.5 -589.1,53.1 -589.6,51.7 -590,50.5 -590.5,49.2 -591,47.6 -591.4,46.3 -591.9,44.7 -592.3,43.4 -592.7,42.1 -593,41.1 -593.5,39.6 -593.8,38.4 -594.3,36.8 -594.7,35.3 -595.3,33.3 -595.8,31.7 -596.4,30 -596.8,28.7 -597.4,26.9 -597.8,25.6 -598.3,24.1 -598.7,22.7 -599.3,20.9 -599.7,19.5 -600.3,17.8 -600.7,16.4 -601.2,15 -601.7,13.3 -602.3,11.5 -602.9,9.6 -603.5,7.8 -604.2,5.6 -604.8,4.1 -605.4,2.4 -605.9,1 -606.5,-0.8 -607,-2.3 -607.4,-3.8 -607.9,-5.4 -608.3,-6.9 -608.7,-8.4 -609.1,-9.8 -609.6,-11.6 -610,-12.9 -610.6,-14.8 -611.2,-16.3 -611.7,-17.9 -612.2,-19.1 -612.7,-20.7 -613.1,-21.8 -613.5,-23.2 -614,-24.7 -614.5,-26.2 -614.9,-27.4 -615.3,-28.5 -615.7,-29.7 -616,-30.7 -616.3,-31.7 -616.7,-32.9 -617.1,-34.3 -617.4,-35.3 -617.8,-36.3 -618.1,-37.3 -618.4,-38 -618.7,-38.9 -619,-39.8 -619.2,-40.7 -619.6,-41.9 -619.9,-43.1 -620.1,-43.9 -620.5,-45.1 -621,-46.3 -621.4,-47.5 -621.8,-48.7 -622.2,-49.9 -622.6,-51 -622.9,-52.1 -623.1,-52.9 -623.5,-54.1 -623.9,-55.3 -624.2,-56.2 -624.6,-57.5 -625,-58.8 -625.4,-60.1 -625.8,-61.4 -626.2,-62.7 -626.7,-64.2 -627.3,-65.7 -627.7,-66.9 -628.2,-68.4 -628.7,-69.8 -629.1,-71.1 -629.7,-72.9 -630.6,-75.1 -631.6,-77.4 -632.9,-80.3 -636.1,-83.6 -639,-86.4 -642.2,-88.7 -645.6,-90.6 -649.2,-92.1 -651.2,-92.7 -653.2,-93.3 -654.7,-93.8 -656.2,-94.4 -657.5,-95 -658.5,-95.6 -659.9,-96.3 -661.2,-97.1 -662.2,-97.7 -663.1,-98.2 -663.9,-98.7 -664.4,-99 -665.3,-99.4 -666.5,-100 -667.8,-100.8 -669.6,-101.7 -671.3,-102.7 -672.7,-103.5 -674.3,-104.2 -675.5,-104.7 -678.3,-105.2 -681.5,-105.6 -685,-106 -688.3,-106.3 -691.8,-106.5 -693.4,-106.5 -695,-106.5 -696.4,-106.5 -697.6,-106.5 -698.8,-106.5 -700,-106.5 -701.2,-106.5 -702.3,-106.5 -703.6,-106.5 -704.8,-106.5 -706,-106.5 -707,-106.5 -708.3,-106.5 -709.4,-106.5 -710.6,-106.5 -711.7,-106.5 -712.7,-106.5 -713.9,-106.6 -715.1,-106.7 -716.2,-106.8 -717.3,-106.9 -718.5,-107 -719.2,-107 -720,-107.1 -720.7,-107.3 -721.4,-107.5 -722.2,-107.8 -723,-108.1 -723.5,-108.4 -724.1,-108.6 -724.7,-108.8 -725,-109 -725.3,-109.2 -726.2,-109.7 -727,-110.3 -727.8,-110.9 -728.6,-111.5 -729.8,-112.7 -730.4,-113.6 -731.1,-114.4 -731.8,-115.4 -732.6,-116.6 -732.9,-117.3 -733.3,-117.9 -733.7,-118.8 -734,-119.6 -734.3,-120.1 -734.7,-120.8 -735,-121.6 -735.3,-122.3 -735.8,-123.3 -736.2,-124.4 -736.7,-125.7 -737.2,-127 -737.6,-128.2 -738,-129.5 -738.4,-130.8 -738.8,-132 -739.3,-133.3 -739.9,-134.9 -740.4,-136.3 -740.9,-137.7 -741.3,-138.7 -741.6,-139.6 -741.8,-140.2 -742.2,-141.2 -742.6,-142.2 -743,-143.3 -743.5,-144.8 -744.2,-146.5 -744.7,-147.7 -745.2,-148.9 -745.8,-150.5 -746.6,-152.2 -747.3,-153.8 -748.1,-155.7 -749,-157.5 -750.2,-159.5 -752.4,-161.6 -755.1,-163.6 -758.5,-165 -762,-166.4 -765.1,-167.1 -767.2,-167.1 -769.6,-166.8 -771.2,-166.6 -772.7,-166.3 -774.3,-166 -776.1,-165.6 -777.2,-165.3 -778.6,-164.8 -780.1,-164.4 -781.5,-164 -783,-163.5 -784.4,-163 -785.8,-162.6 -787.1,-162.2 -788.4,-161.7 -789.2,-161.4 -790.4,-161.1 -791.3,-160.8 -792.2,-160.5 -793.4,-160.2 -794.6,-159.8 -795.4,-159.5 -796.7,-159.2 -798.2,-158.7 -799.4,-158.3 -800.6,-158 -801.8,-157.6 -802.8,-157.2 -803.7,-156.9 -804.6,-156.6 -805.5,-156.3 -806.9,-155.9 -808.3,-155.5 -809.6,-155.1 -810.9,-154.7 -812.7,-154.2 -814,-153.8 -815,-153.5 -816.4,-153.1 -817.8,-152.7 -819.1,-152.2 -820.4,-151.8 -822.1,-151.3 -823.4,-150.9 -825.1,-150.4 -826.4,-150 -828.2,-149.5 -829.6,-149 -831.4,-148.5 -832.9,-148 -834.7,-147.5 -836.3,-146.9 -837.9,-146.4 -839.2,-145.9 -840.9,-145.4 -842.3,-144.9 -844,-144.4 -845.8,-143.8 -847.5,-143.3 -849.2,-142.7 -851,-142.1 -852.8,-141.5 -854.5,-140.9 -856.3,-140.2 -858.1,-139.6 -860.2,-138.8 -861.7,-138.1 -863.3,-137.5 -865.3,-136.8 -867.1,-136 -868.7,-135.4 -870.4,-134.8 -872.6,-133.9 -874.4,-133.1 -876.2,-132.4 -878,-131.6 -879.8,-130.8 -881.1,-130.2 -882.8,-129.5 -884.6,-128.8 -886.6,-128 -888.5,-127.2 -890.6,-126.3 -892.3,-125.5 -894.1,-124.6 -895.8,-123.8 -897.8,-122.9 -899.8,-122 -902,-121.1 -904,-120.2 -906,-119.3 -908.2,-118.3 -910.2,-117.4 -912.2,-116.4 -914.2,-115.4 -916.2,-114.4 -918,-113.5 -919.8,-112.6 -921.7,-111.7 -923.7,-110.8 -926,-109.8 -928.3,-108.8 -930.8,-107.7 -933.2,-106.6 -935.6,-105.5 -937.5,-104.6 -939.8,-103.6 -942.1,-102.6 -944.2,-101.7 -946.7,-100.6 -949.2,-99.5 -951.6,-98.4 -954.3,-97.1 -957.1,-95.8 -959.4,-94.7 -962.1,-93.5 -964.5,-92.4 -966.8,-91.5 -969.2,-90.4 -972,-89.1 -974.5,-87.9 -977.1,-86.7 -979.9,-85.2 -982.8,-83.8 -985.1,-82.7 -988,-81.3 -990.9,-79.8 -993.4,-78.6 -996.2,-77.1 -999.1,-75.6 -1001.7,-74.3 -1004.4,-72.8 -1007,-71.4 -1009.6,-70.1 -1012.4,-68.6 -1015.1,-67 -1017.6,-65.7 -1020.4,-64.1 -1022.9,-62.7 -1025.3,-61.3 -1028,-59.8 -1030.5,-58.3 -1032.9,-57 -1035.5,-55.4 -1038.2,-53.9 -1040.5,-52.5 -1043.4,-50.9 -1046,-49.4 -1048.4,-48.1 -1050.9,-46.6 -1053.3,-45.2 -1055.4,-44 -1057.7,-42.7 -1060.2,-41.2 -1062.5,-39.9 -1064.9,-38.6 -1067.2,-37.3 -1069.5,-35.9 -1071.7,-34.6 -1073.7,-33.4 -1075.7,-32.2 -1077.7,-31 -1079.7,-29.9 -1081.6,-28.9 -1083.4,-27.9 -1085.2,-26.9 -1087.2,-25.6 -1089,-24.3 -1090.5,-23.2 -1092,-22.1 -1093.7,-20.8 -1094.9,-19.9 -1096.4,-18.9 -1097.8,-17.8 -1099.6,-16.5 -1101.2,-15.2 -1102.8,-13.9 -1104.1,-12.7 -1105.8,-11.2 -1107.1,-9.9 -1108.1,-8.8 -1109.5,-7.3 -1110.8,-5.8 -1111.9,-4.6 -1113.3,-3 -1114.7,-1.4 -1115.9,0.1 -1117.1,1.6 -1118.1,3 -1119.2,4.7 -1120.4,6.6 -1121.4,8.3 -1122.4,10 -1123.3,11.7 -1124.1,13.3 -1124.9,15 -1125.7,16.6 -1126.4,18.2 -1127.4,20.4 -1128.1,22 -1128.6,23.3 -1129.3,25.1 -1130.2,27.1 -1130.9,28.9 -1131.6,30.7 -1132.4,32.9 -1133,34.7 -1133.5,36.6 -1134,38.2 -1134.7,40.4 -1135.3,42.1 -1136,44.1 -1136.6,45.8 -1137.3,47.9 -1137.8,49.5 -1138.4,51.5 -1139,53.5 -1139.7,55.5 -1140.3,57.5 -1140.9,59.5 -1141.5,61.5 -1142.1,63.6 -1142.7,65.7 -1143.3,67.4 -1144,69.7 -1144.7,71.7 -1145.3,73.3 -1146,75.5 -1146.7,77.8 -1147.4,79.9 -1148,82 -1148.6,84.1 -1149.3,86.2 -1150.1,88.4 -1150.8,90.7 -1151.7,93.3 -1152.6,95.9 -1153.4,98.3 -1154,100.5 -1154.8,102.9 -1155.6,105.4 -1156.4,108 -1157.1,110.5 -1157.9,113.1 -1158.7,115.7 -1159.5,118.2 -1160.3,120.7 -1161.3,123.8 -1162.2,126.8 -1162.9,129.2 -1163.7,131.9 -1164.6,135 -1165.3,137.2 -1166.2,139.8 -1167.3,143 -1168.2,145.7 -1169.1,148.3 -1170,151.3 -1170.8,154 -1171.6,156.6 -1172.4,159.1 -1173.2,161.6 -1174,164.1 -1174.8,166.5 -1175.5,168.6 -1176.1,170.7 -1176.8,173.1 -1177.4,175.1 -1178.1,177.4 -1178.7,179.4 -1179.4,181.8 -1179.9,183.5 -1180.5,185.7 -1181,187.6 -1181.5,189.9 -1182,192 -1182.4,194.1 -1182.8,196.2 -1183.2,198.7 -1183.5,201 -1183.7,203.1 -1183.9,205.2 -1184,207.7 -1184,209.8 -1184,211.7 -1184,213.8 -1184,216.1 -1184,217.8 -1184,219.7 -1183.9,222.1 -1183.8,224.3 -1183.6,226.3 -1183.4,228.2 -1183.2,230.2 -1183.1,231.9 -1183,233.8 -1182.8,236.2 -1182.6,238.4 -1182.4,240.3 -1182.2,242.3 -1182,244.4 -1182,246.3 -1181.8,248.8 -1181.6,251.3 -1181.4,253.5 -1181.2,255.8 -1181,258 -1181,259.8 -1181,262 -1180.9,264.7 -1180.8,267.1 -1180.7,269.5 -1180.5,272 -1180.3,274.3 -1180.2,276.5 -1180.1,278.9 -1179.9,281.7 -1179.8,284.2 -1179.7,286.9 -1179.6,289.6 -1179.4,292.2 -1179.2,294.9 -1179,297.7 -1178.8,300.5 -1178.6,303.1 -1178.5,305.9 -1178.5,308.3 -1178.3,311.3 -1178.1,313.9 -1177.9,316.7 -1177.7,319.4 -1177.5,322.3 -1177.4,325 -1177.3,327.8 -1177.2,330.6 -1177,333.3 -1176.8,335.8 -1176.6,338.5 -1176.4,341.2 -1176.2,343.5 -1176.1,345.9 -1176,348.3 -1176,350.2 -1176,352.3 -1175.9,354.9 -1175.8,357.2 -1175.6,359.7 -1175.4,362.2 -1175.2,364.3 -1175.1,366.2 -1175,368.3 -1175,369.8 -1174.9,371.7 -1174.8,373.6 -1174.7,375.2 -1174.6,376.5 -1174.5,378.2 -1174.5,379.3 -1174.5,380.7 -1174.5,382.1 -1174.5,383.6 -1174.5,385 -1174.5,386.3 -1174.5,387.5 -1174.5,388.7 -1174.5,390.1 -1174.5,391.3 -1174.5,392.6 -1174.5,393.8 -1174.5,395 -1174.5,396 -1174.5,397 -1174.5,398 -1174.4,399 -1174.3,400 -1174.2,401 -1174.1,402 -1174,403.2 -1174,404.4 -1174,405.5 -1174.2,407.1 -1174.4,408.7 -1174.6,410.1 -1174.8,411.7 -1175,413.6 -1175,415.2 -1175.1,416.6 -1175.3,419.2 -1174.9,422.8 -1173.7,426.4 -1171.5,430 -1169.2,433.7 -1166.4,436.1 -1164.1,437.1 -1162.4,437.9 -1161.6,438.3 -1160.7,438.6 -1159.8,439 -1158.7,439.6 -1157.7,440 -1156.7,440.4 -1155,441.3 -1153.6,442 -1152.4,442.6 -1151.2,443.2 -1150,443.9 -1149.1,444.3 -1148,444.9 -1146.9,445.4 -1145.6,446.1 -1144.3,446.8 -1143.2,447.4 -1142,448 -1140.8,448.7 -1139.8,449.2 -1138.5,449.9 -1137,450.7 -1135.8,451.4 -1134.6,452 -1132.9,452.9 -1131.5,453.6 -1130.4,454.2 -1129.3,454.7 -1127.6,455.6 -1126.3,456.3 -1124.7,457.2 -1123.1,458.1 -1121,459.3 -1119.5,460.2 -1117.6,461.3 -1115.9,462.2 -1114,463.2 -1112.6,463.9 -1110.8,464.8 -1109.4,465.5 -1107.4,466.6 -1105.6,467.6 -1103.5,468.8 -1101.4,470 -1099.1,471.3 -1097.4,472.2 -1095.1,473.4 -1093,474.5 -1091,475.5 -1089,476.5 -1086.6,477.8 -1084.6,478.9 -1082.6,480 -1080.5,481.2 -1078.4,482.4 -1076.2,483.5 -1074,484.7 -1071.8,485.9 -1069.6,487.1 -1067.1,488.4 -1064.9,489.7 -1062.7,490.9 -1060.2,492.2 -1057.8,493.4 -1055.7,494.6 -1053.3,495.8 -1050.9,497 -1048.5,498.3 -1046.1,499.6 -1043.7,500.8 -1041.4,502.1 -1039.1,503.4 -1036.6,504.7 -1034.1,506.1 -1031.5,507.5 -1028.9,508.8 -1026.3,510.2 -1023.7,511.6 -1021.1,512.9 -1018.4,514.4 -1015.9,515.8 -1013.3,517.2 -1011,518.5 -1008.5,519.9 -1006.2,521.2 -1003.5,522.6 -1001.1,523.8 -998.6,525.1 -996,526.5 -993.3,527.8 -991.2,529 -988.5,530.5 -985.9,531.9 -983.4,533.1 -981.2,534.3 -978.4,535.7 -976.2,536.8 -973.9,538 -971.8,539.3 -969.2,540.7 -967,541.9 -964.6,543.2 -962.3,544.4 -960.2,545.4 -958.1,546.5 -955.9,547.6 -953.9,548.6 -952.1,549.5 -949.8,550.7 -948,551.6 -946.4,552.5 -944.8,553.4 -942.9,554.5 -941.1,555.5 -939.4,556.5 -937.8,557.4 -935.6,558.6 -933.8,559.6 -932.4,560.3 -931,561 -929.1,562 -927.9,562.7 -926.6,563.4 -925,564.3 -923.3,565.2 -922.2,565.8 -920.7,566.6 -919.1,567.4 -917.9,568.1 -916.5,568.9 -915.1,569.6 -914.1,570.1 -912.6,570.9 -911.1,571.7 -909.9,572.3 -908.5,573.1 -907,573.8 -906.2,574.2 -905.1,574.8 -903.8,575.5 -902.7,576.1 -901.5,576.8 -900.3,577.5 -899.2,578.1 -898.3,578.6" style="stroke: rgb(59, 130, 246); stroke-width: 7;"></polyline><polyline vector-effect="non-scaling-stroke" fill="none" points="-897.2,579.2 -896.3,579.7 -895.2,580.3 -894.3,580.7 -893.2,581.3 -892.2,581.8 -891.2,582.3 -890.1,582.9 -888.4,583.8 -886.7,584.6 -884.8,585.5 -883,586.5 -880.7,587.6 -878.4,588.6 -875.6,589.7 -871.9,590.6 -867.5,591.2 -862.3,590.1 -857.5,588.4 -853.5,586.4 -850.6,584.3 -848.1,581.9 -847.2,580.7 -846.6,579.8 -845.8,578.6 -845.1,577.5 -844.6,576.6 -844.1,575.7 -843.6,574.8 -843.2,574.2 -842.6,572.9 -842,571.8 -841.4,570.7 -840.8,569.6 -840.1,568.3 -839.7,567.6 -839.1,566.4 -838.6,565.2 -838,563.9 -837.4,562.6 -836.8,561.3 -836.3,560.3 -835.6,558.9 -835,557.6 -834.5,556.5 -833.8,555.1 -833.1,553.7 -832.5,552.4 -831.8,551 -831.1,549.6 -830.3,547.9 -829.7,546.4 -829,544.8 -828.3,543.3 -827.5,541.4 -826.9,540.1 -826.3,538.7 -825.6,537.2 -824.8,535.4 -824.1,533.9 -823.3,532.1 -822.3,530.1 -821.5,528.5 -820.8,526.9 -820,525 -819.3,523.3 -818.5,521.3 -817.7,519.4 -816.8,517.5 -815.9,515.7 -814.9,513.6 -814.1,512 -813.2,510.1 -812.4,508.4 -811.4,506.2 -810.5,504.3 -809.5,502.2 -808.6,500.2 -807.3,497.7 -806.2,495.7 -805,493.5 -803.8,491.3 -802.4,488.6 -801.4,486.4 -800.5,484.4 -799.5,482.2 -798.4,479.9 -797.4,478 -796.3,475.9 -795.1,473.6 -794,471.5 -793.1,469.6 -791.9,467.3 -790.6,465 -789.3,462.7 -788,460.4 -786.6,457.9 -785.5,455.8 -784.5,453.7 -783.5,451.6 -782.5,449.5 -781.5,447.5 -780.5,445.7 -779.3,443.7 -778.1,441.7 -776.9,439.7 -775.7,437.6 -774.6,435.5 -773.5,433.4 -772.4,431.3 -771.2,429.2 -770.1,427.5 -768.7,425.4 -767.5,423.5 -766.4,421.8 -765.1,419.9 -763.8,418 -762.8,416.5 -761.5,414.9 -760.2,413.3 -759.3,412.2 -758,410.7 -756.7,409.3 -755.5,408 -754.3,406.8 -752.7,405.3 -751.5,404.2 -750.1,402.8 -748.6,401.4 -747.1,400 -745.9,398.8 -744.3,397.3 -742.8,396.1 -741.7,395.2 -740.3,394.1 -738.6,392.8 -737.1,391.7 -735.5,390.4 -733.8,389 -732.4,387.8 -730.9,386.6 -729.6,385.4 -728,384.1 -726.4,382.8 -724.5,381.2 -723.1,379.9 -721.6,378.7 -720.1,377.2 -718.6,375.8 -717.3,374.6 -715.6,373.1 -713.9,371.5 -712.2,370 -710.5,368.5 -708.8,367 -707.5,365.8 -705.8,364.3 -704.2,363 -702.4,361.4 -700.7,359.8 -698.9,358.2 -697.1,356.6 -695.3,355 -693.8,353.6 -692,352 -690.2,350.4 -688.4,348.8 -686.7,347.3 -684.9,345.7 -683.1,344.1 -681.3,342.5 -679.5,340.9 -677.6,339.1 -675.5,337.3 -673.7,335.7 -671.5,333.7 -669.6,332 -667.8,330.4 -666,328.7 -664.2,327.1 -662.4,325.5 -660.6,323.9 -658.8,322.3 -657.3,320.9 -655.2,319 -653.5,317.4 -651.9,315.9 -650.2,314.3 -648.3,312.7 -646.7,311.3 -645.1,310 -643.3,308.3 -641.8,306.9 -640,305.3 -638.4,303.8 -636.6,302.1 -634.7,300.4 -632.9,298.8 -631.5,297.4 -629.7,295.9 -628.1,294.4 -626.8,293.3 -625.1,291.9 -623.3,290.4 -621.7,289 -620.1,287.6 -618.4,286 -617,284.7 -615.8,283.5 -614.3,282.1 -612.9,280.9 -611.6,279.8 -610.1,278.4 -608.5,277 -607.1,275.6 -605.1,273.7 -603.2,271.9 -601.6,270.4 -599.8,268.8 -598.2,267.4 -597.2,266.5 -596.1,265.5 -595.1,264.5 -594,263.2 -593.1,262.1 -592.2,261 -591.5,260 -590.7,259 -590,258.2 -589.1,257.1 -588.3,256 -587.4,254.9 -586.4,253.5 -585.7,252.4 -585.2,251.6 -584.5,250.4 -583.7,249 -583.1,247.9 -582.3,246.3 -581.6,244.7 -580.9,243 -580.4,241.5 -579.8,240 -579.5,239 -579.1,237.3 -578.8,236.1 -578.5,234.9 -578.1,233.1 -577.7,231.3 -577.4,230.1 -577.1,228.9 -576.7,227.2 -576.4,226.1 -576,224.4 -575.6,222.8 -575.2,221.1 -574.8,219.3 -574.4,217.5 -574.1,216.2 -573.7,214.3 -573.3,212.5 -573,211.2 -572.6,209.3 -572.2,207.4 -571.9,206 -571.5,204 -571.1,202 -570.7,200.1 -570.3,198.2 -569.7,195.8 -569.3,193.9 -568.8,192 -568.4,190.1 -567.9,188.2 -567.5,186.3 -567,184.4 -566.5,182.1 -566,180.2 -565.5,177.8 -564.8,175.3 -564.2,172.8 -563.5,170.1 -562.9,167.4 -562.3,165.2 -561.9,163.1 -561.4,161 -561,159 -560.5,157 -560,155 -559.5,153.2 -558.9,150.9 -558.4,149.1 -557.9,147.3 -557.4,145.1 -556.9,143.2 -556.5,141.5 -555.9,139.5 -555.4,137.5 -554.8,135.6 -554.3,133.7 -553.7,131.8 -553.2,130.2 -552.6,128.4 -552.1,126.9 -551.6,125.4 -551,124 -550.3,122.3 -549.7,120.9 -549,119.3 -548.2,117.8 -547.4,116.2 -546.7,115 -545.9,113.8 -544.9,112.4 -543.9,111 -543.1,110 -542.4,108.9 -541.4,107.4 -540.7,106.4 -539.9,105.4 -538.8,104 -537.6,102.6 -536.7,101.6 -535.8,100.6 -535,99.6 -534.1,98.7 -533.2,97.9 -532.1,96.9 -530.9,95.8 -529.5,94.6 -528.4,93.6 -527.3,92.6 -526.1,91.5 -524.9,90.6 -523.9,89.8 -522.7,88.9 -521.4,87.9 -520.3,87.2 -519,86.2 -517.7,85.2 -516.3,84.1 -515,83.1 -513.8,82.1 -512.5,81.1 -511.2,80.1 -510,79.2 -508.7,78.3 -507.1,77.1 -505.8,76.1 -504.5,75.1 -503.2,74.1 -501.6,72.8 -500.3,71.8 -498.8,70.6 -497.2,69.3 -495.8,68.2 -494.4,67.2 -493,66.2 -491.4,65 -489.8,63.8 -488.2,62.6 -486.6,61.4 -484.8,60 -483.4,58.9 -481.7,57.7 -479.9,56.3 -478.4,55.1 -476.7,53.8 -475.1,52.6 -473.4,51.3 -471.8,50.1 -469.9,48.7 -468.2,47.4 -466.4,46.1 -464.5,44.6 -462.6,43.2 -460.8,41.8 -459.2,40.6 -457.2,39.1 -455.4,37.7 -453.6,36.3 -452,35.1 -449.9,33.6 -448.1,32.2 -446.6,31.1 -444.6,29.6 -442.6,28 -440.8,26.6 -438.9,25.1 -436.8,23.6 -435,22.4 -432.9,20.9 -430.8,19.3 -428.9,17.9 -426.8,16.3 -425,14.7 -423.3,13.4 -421.6,12 -419.7,10.5 -417.8,9 -415.6,7.3 -413.6,5.7 -411.4,4 -409.4,2.5 -407.4,0.9 -405.6,-0.4 -403.4,-2.1 -401.6,-3.4 -399.5,-5 -397.8,-6.2 -395.7,-7.7 -393.8,-9.1 -391.9,-10.5 -390.1,-11.8 -388,-13.3 -386.1,-14.8 -384.2,-16.1 -382.1,-17.7 -379.9,-19.3 -378.1,-20.7 -376.3,-22.1 -374.5,-23.5 -372.6,-24.9 -370.8,-26.3 -368.7,-27.9 -366.9,-29.3 -365,-30.8 -363.4,-32.1 -361.8,-33.3 -360.1,-34.5 -358.1,-35.9 -356.5,-37.1 -354.6,-38.4 -352.7,-39.9 -350.8,-41.4 -349.2,-42.6 -347.3,-44.1 -345.4,-45.6 -343.5,-47 -342,-48.2 -340.1,-49.7 -338.2,-51.1 -336.6,-52.3 -335.3,-53.4 -333.6,-54.6 -331.9,-55.7 -330.3,-56.8 -328.7,-58 -326.7,-59.3 -325.1,-60.5 -323.5,-61.7 -321.8,-63 -320.2,-64.2 -318.6,-65.4 -316.6,-66.8 -315,-68 -313.3,-69.2 -311.4,-70.6 -309.8,-71.8 -308.2,-73 -306.6,-74.2 -305,-75.4 -303.6,-76.4 -301.9,-77.6 -300.5,-78.6 -298.8,-79.8 -297.1,-81 -295.3,-82.2 -293.6,-83.4 -291.9,-84.6 -290.1,-85.9 -288.3,-87.1 -286.6,-88.3 -284.8,-89.5 -283,-90.7 -281.6,-91.7 -280.2,-92.6 -278.4,-93.7 -276.6,-94.8 -274.8,-95.9 -272.7,-97.1 -270.9,-98.3 -269.1,-99.5 -267.6,-100.5 -265.8,-101.6 -263.9,-102.7 -262.1,-103.7 -260.2,-104.7 -258.3,-105.7 -256.7,-106.6 -254.8,-107.6 -252.8,-108.6 -251.2,-109.4 -249.3,-110.3 -247,-111.4 -245.3,-112.2 -243.7,-113 -241.5,-114.1 -239.6,-115.1 -238.1,-115.9 -235.9,-117 -233.6,-118.1 -231.9,-118.9 -229.9,-119.7 -227.8,-120.5 -225.7,-121.3 -223.6,-122.1 -221.5,-122.9 -219.4,-123.8 -217.1,-124.8 -215.5,-125.5 -213.1,-126.4 -210.7,-127.3 -208.6,-128.1 -206.5,-128.9 -204,-129.8 -201.9,-130.7 -199.8,-131.6 -197.3,-132.6 -194.5,-133.8 -192.1,-134.9 -190,-135.8 -187.6,-136.8 -185.2,-137.8 -183.1,-138.6 -180.6,-139.6 -178.1,-140.5 -175.6,-141.4 -173.1,-142.3 -170.9,-143.1 -168.7,-143.8 -166,-144.9 -163.5,-145.9 -161.1,-146.9 -158.3,-148 -155.9,-149 -153.8,-149.8 -151.4,-150.7 -149,-151.6 -146.5,-152.6 -144,-153.6 -141.5,-154.6 -139,-155.6 -136.8,-156.4 -134.8,-157.1 -132.4,-157.9 -130,-158.7 -127.4,-159.7 -124.7,-160.8 -122.3,-161.8 -120,-162.8 -117.6,-163.7 -115.6,-164.4 -113,-165.4 -110.4,-166.4 -108.1,-167.3 -105.8,-168.3 -103.4,-169.3 -101.3,-170.1 -99.2,-170.9 -96.8,-171.8 -94.1,-172.9 -91.7,-173.9 -89.3,-174.9 -86.9,-175.9 -84.2,-177 -82.2,-177.7 -79.8,-178.6 -76.9,-179.8 -73.7,-181.1 -70.7,-182.3 -67.7,-183.6 -64.5,-184.9 -62.2,-185.8 -59.5,-186.9 -57.2,-187.9 -54.5,-189 -52.1,-190 -49.4,-191.1 -47,-192 -44.3,-193 -41.4,-194.2 -38.7,-195.4 -36,-196.6 -33.3,-197.8 -30.6,-199 -28.2,-200 -25.5,-201 -22.7,-202 -20.1,-203 -17.1,-204.2 -14.3,-205.4 -11.6,-206.6 -8.9,-207.8 -6.1,-209 -3.7,-210 -1,-211 2,-212.2 4.7,-213.3 7.8,-214.6 10.8,-215.9 13.5,-217.1 16,-218.1 18.8,-219.3 22.1,-220.6 26.4,-222.4 30.7,-224.2 35.2,-226.1 39.4,-227.8 42.8,-229.2 45.6,-230.3 48.7,-231.5 51.6,-232.6 55,-234 58.1,-235.4 61.2,-236.7 63.9,-237.9 66.8,-239.2 69.2,-240.2 71.9,-241.2 74.6,-242.3 77.7,-243.5 80.5,-244.6 83.5,-245.8 86.4,-247 89.3,-248.2 91.9,-249.3 94.5,-250.4 97.4,-251.7 100.1,-252.9 102.8,-254 105.6,-255.2 108.5,-256.4 111.1,-257.4 113.9,-258.5 116.4,-259.5 119.3,-260.7 121.8,-261.8 124.6,-263 127.2,-264.1 129.5,-265.1 132,-266 134.5,-266.9 137,-267.8 139.7,-268.8 142.7,-269.9 145.4,-271 148.1,-272.1 150.8,-273.2 153.4,-274.3 155.8,-275.4 158.2,-276.5 160.9,-277.7 163,-278.7 165.5,-279.8 168.1,-280.9 170.5,-281.9 172.9,-282.9 175.8,-284 178.3,-285 180.6,-285.9 182.7,-286.7 185.2,-287.6 187.5,-288.5 189.7,-289.4 192,-290.3 194.8,-291.4 197.1,-292.4 199.3,-293.4 201.7,-294.4 204,-295.4 206.2,-296.3 208.7,-297.3 211.2,-298.3 213.6,-299.3 216.3,-300.3 218.7,-301.3 220.6,-302.1 222.3,-302.8 224.6,-303.6 226.8,-304.5 229,-305.4 231.4,-306.4 233.9,-307.4 236.2,-308.4 238.5,-309.3 240.8,-310.2 243.1,-311.1 245.6,-312.1 247.5,-312.9 249.2,-313.7 251.4,-314.6 253.6,-315.5 255.7,-316.3 258,-317.2 260.5,-318.2 262.4,-319 264.4,-319.8 266.2,-320.6 268.2,-321.4 270.3,-322.1 272.5,-322.9 274.6,-323.7 276.7,-324.5 278.9,-325.4 281,-326.4 282.9,-327.2 284.9,-328 287.1,-328.9 288.8,-329.6 290.8,-330.4 292.8,-331.3 294.8,-332.1 296.8,-332.9 298.8,-333.7 300.6,-334.4 302.7,-335.2 304.7,-336 306.5,-336.7 308.6,-337.5 310.9,-338.5 312.9,-339.3 314.7,-340.1 316.7,-341 318.4,-341.8 320.1,-342.5 321.8,-343.2 323.8,-344 325.8,-344.8 327.8,-345.6 329.3,-346.1 331.4,-346.8 333.3,-347.5 335,-348.1 337,-348.7 338.9,-349.4 340.8,-350.2 342.6,-350.8 344.7,-351.5 346.7,-352.3 348.7,-353.1 350.4,-353.7 352.3,-354.5 353.9,-355.2 355.8,-355.9 357.8,-356.6 359.8,-357.4 361.8,-358.2 363.7,-358.9 365.4,-359.6 367.1,-360.3 368.5,-360.8 370.4,-361.4 372.4,-362.1 374.4,-362.7 376.6,-363.4 379,-364.3 380.6,-365 382.5,-365.7 384.3,-366.5 385.9,-367.2 387.8,-367.9 389.8,-368.6 391.5,-369.3 393.7,-370.1 395.9,-370.8 397.8,-371.5 399.7,-372.2 402.1,-373.1 404,-373.8 405.9,-374.6 407.6,-375.3 409.8,-376 411.7,-376.6 413.6,-377.3 415.5,-378 417.9,-378.8 419.8,-379.6 421.5,-380.3 423.6,-381.1 425.9,-381.9 427.7,-382.6 429.8,-383.4 431.9,-384.2 434,-385 435.9,-385.7 438,-386.5 439.8,-387.2 442.2,-388.1 444,-388.7 445.7,-389.4 447.7,-390.2 450,-391.1 451.7,-391.8 453.4,-392.5 455.8,-393.4 457.7,-394.1 459.9,-394.9 462.1,-395.7 464.8,-396.7 466.9,-397.5 469,-398.3 471.1,-399.1 473.2,-399.8 474.8,-400.4 476.7,-401.1 479.1,-402 480.9,-402.7 482.7,-403.4 484.8,-404.2 487.1,-405.1 488.9,-405.8 491,-406.6 493.2,-407.4 495.4,-408.2 497.4,-408.9 499.8,-409.8 501.9,-410.5 503.9,-411.3 505.9,-412.1 507.9,-412.9 509.8,-413.6 511.9,-414.4 514,-415.2 516.3,-416.1 518.3,-416.9 520.3,-417.7 522.3,-418.5 524.3,-419.3 526.3,-420.1 528.3,-420.9 530,-421.5 532,-422.4 534.2,-423.3 535.9,-424 538,-424.8 540.6,-425.9 542.7,-426.7 544.9,-427.6 547.3,-428.5 549.5,-429.4 551.3,-430.2 553.2,-431 555.3,-431.9 557.2,-432.7 558.9,-433.4 561,-434.2 563.2,-435.1 564.9,-435.8 567.1,-436.8 569.3,-437.7 571,-438.4 573,-439.2 574.9,-439.9 576.6,-440.5 578.2,-441.2 580.1,-442 581.9,-442.8 583.8,-443.6 585.3,-444.3 587.2,-445.1 588.7,-445.7 590.1,-446.2 590.8,-446.5 591.7,-446.8" style="stroke: rgb(251, 191, 36); stroke-width: 7;"></polyline></svg>