<svg xmlns="http://www.w3.org/2000/svg" xmlns:xlink="http://www.w3.org/1999/xlink" preserveAspectRatio="xMidYMid meet" height="100%" viewBox="-1220 -970 2250 1660">
    <polygon vector-effect="non-scaling-stroke" fill="none" style="stroke: #374151; stroke-width:6" points="  597,-447 606,-451 615,-454 624,-458 632,-461 642,-465 651,-469 661,-472 669,-476 678,-479 687,-483 697,-487 706,-490 715,-494 724,-497 733,-501 741,-504 751,-508 760,-511 769,-515 777,-518 785,-521 792,-524 798,-526 805,-529 811,-531 816,-534 821,-536 826,-537 831,-539 835,-541 839,-542 842,-544 848,-546 851,-548 855,-550 860,-552 864,-555 869,-559 873,-564 877,-569 879,-572 881,-575 882,-578 883,-580 884,-585 884,-589 885,-595 884,-602 884,-607 883,-612 882,-617 881,-621 879,-625 878,-628 877,-632 875,-636 874,-640 872,-644 870,-648 869,-652 867,-656 865,-660 863,-665 861,-669 859,-674 856,-679 854,-684 852,-689 850,-694 847,-699 845,-705 842,-711 840,-716 837,-722 835,-728 832,-734 829,-740 827,-746 824,-752 821,-759 819,-765 816,-772 813,-778 810,-785 808,-791 805,-798 802,-804 799,-811 797,-817 794,-823 792,-828 789,-834 787,-839 785,-844 783,-848 782,-852 780,-856 778,-862 775,-866 773,-871 769,-876 765,-880 761,-883 758,-885 755,-886 753,-887 749,-888 745,-889 740,-889 736,-889 731,-888 725,-887 720,-886 715,-884 712,-883 707,-881 704,-880 700,-878 696,-877 692,-875 688,-873 684,-872 680,-870 675,-868 671,-866 666,-865 661,-863 656,-861 651,-859 646,-857 641,-855 635,-852 630,-850 624,-848 618,-846 612,-843 606,-841 600,-839 594,-836 588,-834 582,-832 575,-829 569,-827 562,-824 555,-822 548,-819 542,-817 535,-814 529,-812 522,-809 515,-806 508,-804 501,-801 494,-798 486,-796 479,-793 471,-790 463,-787 456,-784 449,-781 441,-778 434,-775 426,-772 418,-769 410,-765 403,-762 395,-759 387,-756 380,-753 372,-750 364,-746 356,-743 348,-740 340,-736 332,-733 323,-729 316,-726 307,-722 300,-719 292,-716 283,-712 276,-709 268,-705 259,-702 251,-698 243,-695 235,-691 227,-687 219,-684 211,-681 203,-677 194,-673 186,-670 177,-666 169,-662 161,-659 153,-655 145,-652 137,-648 128,-645 120,-641 111,-638 103,-634 95,-631 88,-628 81,-625 74,-622 67,-619 60,-616 54,-614 48,-611 43,-609 37,-607 32,-604 27,-602 22,-600 17,-598 13,-596 9,-595 6,-593 2,-591 -3,-589 -8,-587 -11,-586 -16,-583 -20,-581 -23,-579 -27,-576 -31,-573 -34,-571 -37,-567 -39,-564 -41,-561 -42,-558 -43,-554 -43,-550 -43,-545 -43,-540 -43,-536 -42,-533 -41,-529 -40,-523 -38,-517 -36,-511 -34,-506 -32,-502 -31,-499 -28,-494 -27,-490 -25,-486 -23,-482 -21,-479 -19,-475 -17,-471 -15,-467 -13,-463 -11,-459 -9,-455 -7,-451 -5,-447 -3,-442 1,-435 3,-431 5,-426 7,-422 9,-417 11,-413 13,-408 15,-403 17,-399 18,-395 20,-391 21,-388 23,-384 25,-378 27,-373 28,-369 28,-365 28,-360 28,-356 27,-352 25,-348 23,-345 21,-341 18,-338 14,-335 10,-333 7,-331 3,-328 -3,-325 -7,-324 -13,-321 -18,-319 -23,-317 -27,-316 -32,-315 -37,-313 -41,-312 -44,-311 -48,-309 -52,-308 -56,-307 -61,-305 -65,-304 -69,-303 -74,-301 -78,-299 -83,-298 -87,-296 -92,-294 -97,-292 -102,-290 -106,-288 -111,-286 -117,-284 -122,-282 -127,-279 -132,-277 -137,-274 -143,-272 -148,-269 -154,-266 -159,-263 -165,-260 -171,-258 -176,-255 -181,-252 -187,-248 -193,-245 -198,-242 -203,-239 -209,-236 -213,-233 -218,-230   -218,-230 -222,-228 -226,-226 -229,-223 -233,-221 -236,-219 -240,-215 -243,-213 -248,-209 -251,-205 -254,-202 -256,-198 -258,-193 -259,-190 -260,-184 -260,-181 -259,-177 -258,-172 -257,-168 -255,-164 -254,-161 -252,-156 -251,-151 -250,-148 -250,-142 -250,-139 -250,-136 -251,-133 -252,-128 -255,-123 -257,-120 -260,-117 -264,-113 -268,-109 -272,-107 -274,-105 -278,-103 -282,-100 -287,-97 -291,-95 -294,-93 -300,-89 -304,-86 -307,-84 -310,-82 -314,-79 -317,-77 -321,-74 -325,-71 -328,-69 -332,-66 -336,-63 -341,-59 -345,-56 -349,-53 -354,-49 -358,-46 -363,-43 -368,-39 -372,-36 -377,-32 -382,-28 -387,-25 -392,-21 -397,-17 -403,-13 -408,-9 -413,-5 -422,2 -427,6 -433,10 -439,15 -445,19 -450,24 -456,28 -462,33 -468,37 -473,41 -479,45 -484,49 -489,52 -493,56 -498,59 -502,62 -506,65 -509,68 -513,71 -517,73 -520,76 -523,78 -526,81 -530,84 -535,87 -539,91 -543,93 -547,95 -552,96 -556,97 -559,97 -562,97 -565,96 -569,95 -571,93 -575,91 -577,88 -580,85 -582,81 -584,78 -586,73 -587,70 -588,66 -590,62 -591,56 -592,51 -593,46 -594,41 -595,36 -596,32 -597,29 -598,25 -599,21 -600,15 -601,11 -602,6 -605,-2 -606,-6 -607,-10 -608,-15 -609,-19 -611,-23 -612,-27 -613,-31 -614,-35 -615,-40 -616,-43 -618,-48 -619,-52 -621,-58 -623,-64 -625,-69 -627,-73 -629,-76 -631,-80 -634,-83 -636,-86 -638,-87 -641,-90 -644,-92 -648,-94 -652,-95 -656,-97 -660,-99 -664,-100 -668,-101 -673,-102 -678,-103 -682,-104 -685,-104 -689,-104 -694,-104 -699,-104 -703,-105 -706,-105 -711,-107 -715,-109 -719,-111 -721,-113 -723,-114 -726,-117 -729,-120 -731,-123 -733,-127 -734,-130 -736,-134 -738,-139 -741,-144 -744,-149 -746,-152 -749,-155 -752,-158 -756,-160 -760,-163 -762,-164 -765,-165 -771,-167 -777,-168 -784,-168 -790,-167 -794,-166 -799,-165 -803,-164 -808,-162 -813,-161 -817,-159 -820,-158 -826,-156 -832,-154 -836,-153 -840,-151 -844,-150 -849,-148 -853,-146 -858,-144 -863,-143 -867,-141 -872,-139 -877,-137 -882,-135 -887,-132 -892,-130 -898,-128 -903,-126 -908,-123 -914,-120 -919,-118 -925,-115 -931,-112 -937,-110 -943,-107 -949,-104 -955,-101 -961,-98 -967,-95 -973,-92 -980,-89 -987,-86 -993,-82 -999,-79 -1006,-76 -1012,-73 -1019,-69 -1025,-66 -1032,-62 -1038,-59 -1045,-55 -1051,-51 -1057,-48 -1063,-43 -1069,-39 -1074,-35 -1080,-31 -1085,-26 -1090,-22 -1095,-17 -1100,-12 -1104,-7 -1108,-2 -1113,4 -1117,9 -1121,15 -1124,20 -1128,26 -1131,32 -1134,38 -1137,44 -1140,50 -1143,56 -1146,63 -1148,69 -1150,75 -1153,82 -1155,89 -1157,96 -1159,102 -1161,109 -1163,116 -1165,122 -1166,130 -1168,137 -1170,144 -1171,151 -1172,158 -1174,165 -1175,172 -1176,180 -1177,187 -1178,194 -1178,202 -1179,209 -1180,217 -1180,224 -1180,231 -1180,238 -1180,246 -1180,254 -1180,262 -1179,270 -1179,278 -1179,285 -1178,293 -1178,300 -1178,308 -1177,315 -1177,322 -1177,330 -1177,337 -1177,343 -1177,350 -1177,356 -1177,362 -1177,367 -1177,372 -1177,377 -1177,382 -1177,387 -1176,391 -1176,395 -1176,399 -1176,404 -1176,410 -1176,414 -1175,418 -1174,422 -1172,427 -1171,429 -1169,433 -1167,436 -1164,439 -1161,441 -1157,444 -1154,447 -1151,449 -1147,451 -1142,454 -1136,457 -1131,459 -1128,461 -1125,462 -1121,464 -1118,466 -1114,468 -1110,470 -1107,472 -1103,474 -1099,476 -1095,478 -1091,480 -1086,483 -1082,485 -1078,487 -1073,490 -1069,492 -1064,494 -1059,497 -1055,499 -1050,502 -1045,505 -1040,507 -1035,510 -1030,513 -1024,515 -1019,518 -1014,521 -1009,524 -1003,527 -997,530 -992,533 -986,536 -981,539 -975,543 -969,546 -964,549 -958,552 -952,555 -947,558 -942,561 -937,563 -933,566 -928,568 -924,570 -920,573 -916,575 -913,577 -909,578 -906,580 -903,582   -903,582 -898,584 -893,586 -888,587 -883,589 -878,589 -872,589 -868,589 -864,588 -861,587 -857,585 -853,583 -851,581 -847,578 -844,576 -839,571 -836,567 -834,564 -831,560 -829,557 -826,552 -824,548 -822,543 -820,539 -818,535 -816,531 -815,526 -813,522 -811,518 -809,513 -807,509 -805,504 -803,500 -801,495 -799,490 -797,485 -794,480 -792,475 -789,470 -786,464 -783,459 -780,453 -777,448 -774,442 -771,437 -767,431 -763,426 -759,420 -755,415 -750,409 -746,404 -741,399 -736,395 -731,390 -726,385 -720,380 -714,375 -709,370 -702,366 -697,361 -691,356 -685,351 -679,347 -674,342 -668,337 -662,332 -657,327 -651,321 -645,316 -639,311 -634,305 -628,300 -623,294 -618,289 -613,283 -609,278 -605,272 -601,266 -597,260 -593,253 -590,247 -587,241 -585,235 -582,228 -580,222 -578,215 -576,208 -574,201 -572,194 -571,187 -569,180 -567,173 -565,166 -562,158 -559,152 -557,145 -554,138 -550,131 -546,124 -543,118 -539,112 -535,106 -530,100 -525,94 -521,89 -516,84 -510,78 -505,73 -499,68 -493,64 -487,59 -481,54 -475,49 -469,44 -463,39 -456,35 -450,30 -444,25 -437,20 -431,15 -424,11 -418,6 -411,1 -404,-4 -398,-9 -392,-14 -385,-19 -378,-24 -372,-29 -365,-33 -359,-38 -352,-43 -345,-48 -338,-53 -331,-57 -324,-62 -316,-67 -309,-71 -302,-76 -295,-80 -287,-85 -279,-89 -272,-93 -264,-98 -256,-101 -248,-105 -241,-109 -233,-113 -225,-116 -217,-120 -209,-123 -201,-127 -193,-130 -185,-134 -177,-137 -168,-141 -160,-144 -152,-147 -144,-151 -136,-154 -128,-157 -120,-161 -111,-164 -103,-168 -95,-171 -87,-174 -79,-178 -70,-181 -62,-185 -54,-188 -45,-192 -37,-195 -28,-198 -20,-202 -11,-205 -3,-209 6,-212 14,-215 22,-219 31,-222 40,-226 48,-229 57,-233 64,-236 73,-239 81,-243 90,-246 99,-250 107,-254 116,-257 124,-261 133,-264 142,-268 150,-271 159,-275 167,-278 175,-282 184,-285 193,-289 201,-292 210,-296 219,-300 227,-303 236,-307 244,-310 253,-314 261,-317 270,-321 278,-324 287,-328 296,-331 304,-335 313,-338 322,-342 331,-345 340,-349 348,-352 357,-355 365,-359 374,-362 382,-365 391,-369 399,-372 408,-375 417,-379 425,-382 434,-385 443,-389 452,-392 461,-395 470,-399 479,-402 488,-406 497,-409 506,-412 515,-416 524,-419 533,-423 542,-426 550,-429 560,-433 568,-436 578,-440 586,-443 595,-447  "></polygon>
    <polyline vector-effect="non-scaling-stroke" fill="none" style="stroke: #EF4444; stroke-width:4" points=" 597,-447 606,-451 615,-454 624,-458 632,-461 642,-465 651,-469 661,-472 669,-476 678,-479 687,-483 697,-487 706,-490 715,-494 724,-497 733,-501 741,-504 751,-508 760,-511 769,-515 777,-518 785,-521 792,-524 798,-526 805,-529 811,-531 816,-534 821,-536 826,-537 831,-539 835,-541 839,-542 842,-544 848,-546 851,-548 855,-550 860,-552 864,-555 869,-559 873,-564 877,-569 879,-572 881,-575 882,-578 883,-580 884,-585 884,-589 885,-595 884,-602 884,-607 883,-612 882,-617 881,-621 879,-625 878,-628 877,-632 875,-636 874,-640 872,-644 870,-648 869,-652 867,-656 865,-660 863,-665 861,-669 859,-674 856,-679 854,-684 852,-689 850,-694 847,-699 845,-705 842,-711 840,-716 837,-722 835,-728 832,-734 829,-740 827,-746 824,-752 821,-759 819,-765 816,-772 813,-778 810,-785 808,-791 805,-798 802,-804 799,-811 797,-817 794,-823 792,-828 789,-834 787,-839 785,-844 783,-848 782,-852 780,-856 778,-862 775,-866 773,-871 769,-876 765,-880 761,-883 758,-885 755,-886 753,-887 749,-888 745,-889 740,-889 736,-889 731,-888 725,-887 720,-886 715,-884 712,-883 707,-881 704,-880 700,-878 696,-877 692,-875 688,-873 684,-872 680,-870 675,-868 671,-866 666,-865 661,-863 656,-861 651,-859 646,-857 641,-855 635,-852 630,-850 624,-848 618,-846 612,-843 606,-841 600,-839 594,-836 588,-834 582,-832 575,-829 569,-827 562,-824 555,-822 548,-819 542,-817 535,-814 529,-812 522,-809 515,-806 508,-804 501,-801 494,-798 486,-796 479,-793 471,-790 463,-787 456,-784 449,-781 441,-778 434,-775 426,-772 418,-769 410,-765 403,-762 395,-759 387,-756 380,-753 372,-750 364,-746 356,-743 348,-740 340,-736 332,-733 323,-729 316,-726 307,-722 300,-719 292,-716 283,-712 276,-709 268,-705 259,-702 251,-698 243,-695 235,-691 227,-687 219,-684 211,-681 203,-677 194,-673 186,-670 177,-666 169,-662 161,-659 153,-655 145,-652 137,-648 128,-645 120,-641 111,-638 103,-634 95,-631 88,-628 81,-625 74,-622 67,-619 60,-616 54,-614 48,-611 43,-609 37,-607 32,-604 27,-602 22,-600 17,-598 13,-596 9,-595 6,-593 2,-591 -3,-589 -8,-587 -11,-586 -16,-583 -20,-581 -23,-579 -27,-576 -31,-573 -34,-571 -37,-567 -39,-564 -41,-561 -42,-558 -43,-554 -43,-550 -43,-545 -43,-540 -43,-536 -42,-533 -41,-529 -40,-523 -38,-517 -36,-511 -34,-506 -32,-502 -31,-499 -28,-494 -27,-490 -25,-486 -23,-482 -21,-479 -19,-475 -17,-471 -15,-467 -13,-463 -11,-459 -9,-455 -7,-451 -5,-447 -3,-442 1,-435 3,-431 5,-426 7,-422 9,-417 11,-413 13,-408 15,-403 17,-399 18,-395 20,-391 21,-388 23,-384 25,-378 27,-373 28,-369 28,-365 28,-360 28,-356 27,-352 25,-348 23,-345 21,-341 18,-338 14,-335 10,-333 7,-331 3,-328 -3,-325 -7,-324 -13,-321 -18,-319 -23,-317 -27,-316 -32,-315 -37,-313 -41,-312 -44,-311 -48,-309 -52,-308 -56,-307 -61,-305 -65,-304 -69,-303 -74,-301 -78,-299 -83,-298 -87,-296 -92,-294 -97,-292 -102,-290 -106,-288 -111,-286 -117,-284 -122,-282 -127,-279 -132,-277 -137,-274 -143,-272 -148,-269 -154,-266 -159,-263 -165,-260 -171,-258 -176,-255 -181,-252 -187,-248 -193,-245 -198,-242 -203,-239 -209,-236 -213,-233 -218,-230 "></polyline>
    <polyline vector-effect="non-scaling-stroke" fill="none" style="stroke: #3B82F6; stroke-width:4" points=" -218,-230 -222,-228 -226,-226 -229,-223 -233,-221 -236,-219 -240,-215 -243,-213 -248,-209 -251,-205 -254,-202 -256,-198 -258,-193 -259,-190 -260,-184 -260,-181 -259,-177 -258,-172 -257,-168 -255,-164 -254,-161 -252,-156 -251,-151 -250,-148 -250,-142 -250,-139 -250,-136 -251,-133 -252,-128 -255,-123 -257,-120 -260,-117 -264,-113 -268,-109 -272,-107 -274,-105 -278,-103 -282,-100 -287,-97 -291,-95 -294,-93 -300,-89 -304,-86 -307,-84 -310,-82 -314,-79 -317,-77 -321,-74 -325,-71 -328,-69 -332,-66 -336,-63 -341,-59 -345,-56 -349,-53 -354,-49 -358,-46 -363,-43 -368,-39 -372,-36 -377,-32 -382,-28 -387,-25 -392,-21 -397,-17 -403,-13 -408,-9 -413,-5 -422,2 -427,6 -433,10 -439,15 -445,19 -450,24 -456,28 -462,33 -468,37 -473,41 -479,45 -484,49 -489,52 -493,56 -498,59 -502,62 -506,65 -509,68 -513,71 -517,73 -520,76 -523,78 -526,81 -530,84 -535,87 -539,91 -543,93 -547,95 -552,96 -556,97 -559,97 -562,97 -565,96 -569,95 -571,93 -575,91 -577,88 -580,85 -582,81 -584,78 -586,73 -587,70 -588,66 -590,62 -591,56 -592,51 -593,46 -594,41 -595,36 -596,32 -597,29 -598,25 -599,21 -600,15 -601,11 -602,6 -605,-2 -606,-6 -607,-10 -608,-15 -609,-19 -611,-23 -612,-27 -613,-31 -614,-35 -615,-40 -616,-43 -618,-48 -619,-52 -621,-58 -623,-64 -625,-69 -627,-73 -629,-76 -631,-80 -634,-83 -636,-86 -638,-87 -641,-90 -644,-92 -648,-94 -652,-95 -656,-97 -660,-99 -664,-100 -668,-101 -673,-102 -678,-103 -682,-104 -685,-104 -689,-104 -694,-104 -699,-104 -703,-105 -706,-105 -711,-107 -715,-109 -719,-111 -721,-113 -723,-114 -726,-117 -729,-120 -731,-123 -733,-127 -734,-130 -736,-134 -738,-139 -741,-144 -744,-149 -746,-152 -749,-155 -752,-158 -756,-160 -760,-163 -762,-164 -765,-165 -771,-167 -777,-168 -784,-168 -790,-167 -794,-166 -799,-165 -803,-164 -808,-162 -813,-161 -817,-159 -820,-158 -826,-156 -832,-154 -836,-153 -840,-151 -844,-150 -849,-148 -853,-146 -858,-144 -863,-143 -867,-141 -872,-139 -877,-137 -882,-135 -887,-132 -892,-130 -898,-128 -903,-126 -908,-123 -914,-120 -919,-118 -925,-115 -931,-112 -937,-110 -943,-107 -949,-104 -955,-101 -961,-98 -967,-95 -973,-92 -980,-89 -987,-86 -993,-82 -999,-79 -1006,-76 -1012,-73 -1019,-69 -1025,-66 -1032,-62 -1038,-59 -1045,-55 -1051,-51 -1057,-48 -1063,-43 -1069,-39 -1074,-35 -1080,-31 -1085,-26 -1090,-22 -1095,-17 -1100,-12 -1104,-7 -1108,-2 -1113,4 -1117,9 -1121,15 -1124,20 -1128,26 -1131,32 -1134,38 -1137,44 -1140,50 -1143,56 -1146,63 -1148,69 -1150,75 -1153,82 -1155,89 -1157,96 -1159,102 -1161,109 -1163,116 -1165,122 -1166,130 -1168,137 -1170,144 -1171,151 -1172,158 -1174,165 -1175,172 -1176,180 -1177,187 -1178,194 -1178,202 -1179,209 -1180,217 -1180,224 -1180,231 -1180,238 -1180,246 -1180,254 -1180,262 -1179,270 -1179,278 -1179,285 -1178,293 -1178,300 -1178,308 -1177,315 -1177,322 -1177,330 -1177,337 -1177,343 -1177,350 -1177,356 -1177,362 -1177,367 -1177,372 -1177,377 -1177,382 -1177,387 -1176,391 -1176,395 -1176,399 -1176,404 -1176,410 -1176,414 -1175,418 -1174,422 -1172,427 -1171,429 -1169,433 -1167,436 -1164,439 -1161,441 -1157,444 -1154,447 -1151,449 -1147,451 -1142,454 -1136,457 -1131,459 -1128,461 -1125,462 -1121,464 -1118,466 -1114,468 -1110,470 -1107,472 -1103,474 -1099,476 -1095,478 -1091,480 -1086,483 -1082,485 -1078,487 -1073,490 -1069,492 -1064,494 -1059,497 -1055,499 -1050,502 -1045,505 -1040,507 -1035,510 -1030,513 -1024,515 -1019,518 -1014,521 -1009,524 -1003,527 -997,530 -992,533 -986,536 -981,539 -975,543 -969,546 -964,549 -958,552 -952,555 -947,558 -942,561 -937,563 -933,566 -928,568 -924,570 -920,573 -916,575 -913,577 -909,578 -906,580 -903,582 "></polyline>
    <polyline vector-effect="non-scaling-stroke" fill="none" style="stroke: #FBBF24; stroke-width:4" points=" -903,582 -898,584 -893,586 -888,587 -883,589 -878,589 -872,589 -868,589 -864,588 -861,587 -857,585 -853,583 -851,581 -847,578 -844,576 -839,571 -836,567 -834,564 -831,560 -829,557 -826,552 -824,548 -822,543 -820,539 -818,535 -816,531 -815,526 -813,522 -811,518 -809,513 -807,509 -805,504 -803,500 -801,495 -799,490 -797,485 -794,480 -792,475 -789,470 -786,464 -783,459 -780,453 -777,448 -774,442 -771,437 -767,431 -763,426 -759,420 -755,415 -750,409 -746,404 -741,399 -736,395 -731,390 -726,385 -720,380 -714,375 -709,370 -702,366 -697,361 -691,356 -685,351 -679,347 -674,342 -668,337 -662,332 -657,327 -651,321 -645,316 -639,311 -634,305 -628,300 -623,294 -618,289 -613,283 -609,278 -605,272 -601,266 -597,260 -593,253 -590,247 -587,241 -585,235 -582,228 -580,222 -578,215 -576,208 -574,201 -572,194 -571,187 -569,180 -567,173 -565,166 -562,158 -559,152 -557,145 -554,138 -550,131 -546,124 -543,118 -539,112 -535,106 -530,100 -525,94 -521,89 -516,84 -510,78 -505,73 -499,68 -493,64 -487,59 -481,54 -475,49 -469,44 -463,39 -456,35 -450,30 -444,25 -437,20 -431,15 -424,11 -418,6 -411,1 -404,-4 -398,-9 -392,-14 -385,-19 -378,-24 -372,-29 -365,-33 -359,-38 -352,-43 -345,-48 -338,-53 -331,-57 -324,-62 -316,-67 -309,-71 -302,-76 -295,-80 -287,-85 -279,-89 -272,-93 -264,-98 -256,-101 -248,-105 -241,-109 -233,-113 -225,-116 -217,-120 -209,-123 -201,-127 -193,-130 -185,-134 -177,-137 -168,-141 -160,-144 -152,-147 -144,-151 -136,-154 -128,-157 -120,-161 -111,-164 -103,-168 -95,-171 -87,-174 -79,-178 -70,-181 -62,-185 -54,-188 -45,-192 -37,-195 -28,-198 -20,-202 -11,-205 -3,-209 6,-212 14,-215 22,-219 31,-222 40,-226 48,-229 57,-233 64,-236 73,-239 81,-243 90,-246 99,-250 107,-254 116,-257 124,-261 133,-264 142,-268 150,-271 159,-275 167,-278 175,-282 184,-285 193,-289 201,-292 210,-296 219,-300 227,-303 236,-307 244,-310 253,-314 261,-317 270,-321 278,-324 287,-328 296,-331 304,-335 313,-338 322,-342 331,-345 340,-349 348,-352 357,-355 365,-359 374,-362 382,-365 391,-369 399,-372 408,-375 417,-379 425,-382 434,-385 443,-389 452,-392 461,-395 470,-399 479,-402 488,-406 497,-409 506,-412 515,-416 524,-419 533,-423 542,-426 550,-429 560,-433 568,-436 578,-440 586,-443 595,-447 "></polyline>
</svg>