<svg xmlns="http://www.w3.org/2000/svg" xmlns:xlink="http://www.w3.org/1999/xlink" preserveAspectRatio="xMidYMid meet" height="100%" viewBox="-450 -660 900 1300">
    <polygon vector-effect="non-scaling-stroke" fill="none" style="stroke: #374151; stroke-width:6" points="  -393,134 -392,124 -392,115 -391,107 -391,98 -391,90 -390,81 -390,72 -390,63 -389,55 -389,46 -388,37 -388,28 -388,19 -387,10 -387,2 -386,-8 -386,-17 -386,-26 -385,-36 -385,-44 -384,-54 -384,-63 -384,-72 -383,-81 -383,-90 -383,-98 -382,-108 -382,-117 -381,-127 -381,-136 -381,-145 -380,-154 -380,-163 -379,-172 -379,-182 -379,-192 -378,-201 -378,-211 -377,-221 -377,-230 -377,-239 -376,-249 -376,-258 -375,-267 -375,-276 -375,-286 -374,-296 -374,-306 -374,-315 -373,-325 -373,-334 -372,-344 -372,-354 -372,-363 -371,-372 -371,-381 -370,-390 -370,-400 -370,-409 -369,-419 -369,-429 -368,-438 -368,-447 -368,-455 -368,-463 -367,-471 -367,-478 -367,-485 -366,-492 -366,-498 -366,-505 -366,-511 -365,-516 -365,-522 -365,-527 -365,-533 -365,-538 -365,-543 -364,-548 -364,-552 -364,-556 -364,-559 -363,-566 -363,-571 -362,-576 -361,-579 -360,-583 -358,-588 -355,-592 -353,-594 -349,-597 -347,-598 -344,-599 -341,-599 -337,-599 -333,-598 -329,-596 -325,-594 -323,-592 -320,-589 -317,-585 -314,-582 -311,-579 -308,-575 -305,-572 -301,-568 -297,-564 -292,-560 -287,-557 -282,-554 -277,-552 -274,-551 -271,-550 -268,-549 -264,-548 -261,-548 -257,-547 -251,-547 -247,-547 -244,-547 -238,-548 -234,-549 -230,-549 -226,-550 -222,-552 -218,-553 -214,-554 -209,-555 -205,-557 -201,-559 -196,-560 -191,-562 -187,-563 -182,-564 -177,-566 -173,-567 -167,-568 -162,-568 -157,-569 -151,-569 -146,-570 -141,-570 -135,-570 -129,-569 -124,-569 -118,-568 -112,-568 -106,-567 -101,-566 -95,-565 -89,-564 -83,-563 -77,-562 -70,-561 -64,-560 -58,-559 -52,-557 -45,-556 -39,-555 -33,-554 -26,-553 -19,-552 -13,-550 -6,-549 4,-547 11,-546 17,-544 24,-543 31,-542 38,-540 45,-539 52,-538 59,-536 66,-535 73,-534 80,-532 87,-531 94,-530 101,-528 109,-527 117,-526 124,-524 131,-523 139,-521 146,-520 153,-519 161,-517 169,-516 176,-515 183,-513 191,-512 199,-510 206,-509 214,-508 222,-506 230,-505 238,-503 245,-502 253,-500 261,-499 268,-498 276,-496 283,-495 291,-493 298,-492 305,-491 312,-489 319,-488 325,-487 331,-486 336,-485 342,-484 346,-483 351,-482 355,-481 361,-480 364,-479 369,-478 374,-476 379,-474 383,-471 386,-469 389,-466 391,-464 394,-460 395,-458 396,-455 397,-452 398,-450 399,-446 399,-444 399,-438 399,-434 398,-429 397,-424 395,-419 394,-415 392,-411 390,-406 387,-401 384,-398 381,-394 378,-391 375,-388 372,-386 369,-383 366,-381 362,-378 359,-376 355,-374 351,-371 347,-369 344,-367 340,-364 336,-362 332,-359 328,-357 324,-354 320,-351 316,-348 313,-345 309,-342 305,-339 301,-335 297,-332 293,-328 289,-324 285,-320 282,-316 278,-312 274,-309 270,-304 267,-300 263,-296 260,-292 256,-288 253,-284 250,-279 246,-275 243,-271   243,-271 240,-266 238,-262 235,-257 232,-253 229,-248 227,-243 224,-239 222,-235 220,-230 217,-226 214,-222 212,-218 209,-215 207,-211 204,-208 201,-205 198,-202 195,-199 191,-196 188,-194 185,-192 181,-190 177,-188 174,-186 170,-184 166,-183 162,-182 158,-181 154,-180 150,-180 146,-179 142,-179 138,-179 134,-180 130,-180 126,-180 122,-181 117,-181 113,-182 109,-182 104,-182 100,-183 96,-182 91,-182 87,-182 83,-181 78,-180 74,-179 70,-178 66,-177 62,-176 58,-174 54,-172 50,-170 46,-168 43,-166 39,-164 35,-161 31,-158 28,-156 24,-152 21,-149 17,-146 14,-143 11,-139 8,-136 4,-132 1,-128 -3,-122 -6,-118 -9,-114 -12,-110 -15,-106 -18,-101 -20,-97 -23,-92 -26,-88 -28,-83 -31,-79 -34,-74 -36,-70 -39,-66 -41,-62 -43,-58 -45,-54 -48,-51 -50,-48 -52,-44 -55,-40 -57,-37 -60,-33 -64,-28 -67,-25 -69,-22 -72,-19 -75,-16 -79,-13 -82,-10 -86,-8 -91,-7 -94,-6 -98,-6 -101,-7 -104,-8 -107,-9 -110,-11 -113,-14 -116,-16 -118,-20 -120,-23 -122,-28 -123,-32 -124,-36 -125,-41 -125,-46 -125,-51 -124,-56 -123,-62 -122,-67 -121,-71 -120,-76 -119,-83 -118,-86 -117,-91 -116,-95 -115,-98 -114,-104 -113,-108 -112,-112 -111,-116 -110,-120 -109,-123 -108,-128 -107,-132 -106,-136 -105,-141 -104,-145 -103,-149 -102,-154 -101,-159 -100,-163 -99,-168 -98,-173 -97,-177 -97,-182 -96,-187 -95,-192 -94,-197 -93,-202 -92,-207 -91,-212 -90,-218 -89,-223 -88,-228 -87,-234 -86,-239 -85,-245 -84,-250 -83,-256 -82,-261 -81,-267 -80,-272 -80,-278 -79,-283 -78,-288 -77,-294 -77,-299 -77,-304 -76,-309 -76,-313 -76,-318 -76,-322 -76,-327 -77,-331 -77,-335 -78,-339 -78,-343 -79,-347 -80,-351 -81,-354 -81,-358 -82,-362 -84,-367 -85,-370 -87,-374 -88,-377 -91,-382 -93,-386 -95,-390 -99,-395 -101,-399 -105,-404 -108,-407 -112,-411 -115,-413 -119,-416 -122,-419 -126,-421 -130,-423 -133,-424 -138,-425 -142,-425 -145,-425 -147,-424 -149,-423 -152,-422 -155,-419 -157,-416 -159,-412 -161,-408 -162,-404 -163,-400 -163,-397 -164,-393 -165,-389 -165,-384 -166,-379 -167,-375 -167,-371 -168,-365 -169,-359 -169,-354 -170,-349 -170,-343 -171,-339 -171,-335 -172,-331 -172,-327 -173,-323 -173,-319 -173,-314 -174,-310 -174,-305 -175,-301 -175,-296 -176,-292 -176,-287 -176,-281 -177,-276 -177,-271 -178,-265 -178,-260 -179,-254 -179,-249 -179,-243 -180,-237 -180,-231 -180,-225 -181,-219 -181,-213 -181,-206 -182,-200 -182,-193 -182,-186 -183,-180 -183,-173 -183,-166 -183,-159 -184,-152 -184,-144 -184,-137 -185,-130 -185,-122 -185,-114 -185,-107 -186,-99 -186,-92 -186,-84 -187,-77 -187,-68 -187,-61 -188,-53 -188,-45 -188,-37 -188,-29 -189,-21 -189,-13 -189,-5 -190,8 -190,16 -190,24 -191,32 -191,41 -191,49 -192,58 -192,66 -193,75 -193,84 -194,93 -194,101 -195,110 -195,119 -196,128 -196,136 -197,145 -197,154 -198,163 -198,172 -199,180 -199,188 -199,197 -200,205 -200,211 -201,218 -201,224 -201,230 -201,235 -201,241 -200,245 -200,250 -199,254 -197,260 -196,264 -195,267 -193,271 -191,274 -189,277 -187,279 -184,282 -181,285 -179,287 -175,289 -172,291 -167,294 -163,296 -160,297 -156,298 -152,299 -148,300 -144,300 -140,301 -135,301 -131,301 -127,301 -123,301 -119,300 -114,300 -110,299 -105,298 -101,296 -97,295 -92,293 -88,291 -84,289 -79,287 -75,284 -70,281 -66,278 -62,275 -58,272 -55,268 -51,264 -47,260 -44,256 -41,251 -38,246 -35,242 -32,237 -29,232 -26,226 -24,221 -21,216 -19,211 -17,205 -15,200 -12,194 -10,188 -8,182 -6,177 -3,171 -1,165 3,157 6,151 10,146 13,141 16,135 20,131 24,125 28,121 33,116 38,112 43,108 48,104 53,100 59,97 64,94 70,91 76,88 82,86 89,83 95,82 101,80 108,79 115,78 122,77 129,77 135,77 142,78 149,79 155,79 162,81 168,82 175,84 182,86 188,88 195,90 201,93 207,95 213,98 220,101 226,104   226,104 233,107 240,110 246,113 252,117 259,120 264,123 269,126 275,130 279,133 283,136 287,139 291,143 295,146 298,150 301,154 303,157 306,161 308,165 309,170 311,174 312,178 313,182 314,187 314,191 314,195 314,199 313,203 313,207 312,211 310,215 309,219 307,222 304,226 302,230 299,233 296,237 293,240 290,243 287,245 283,248 279,251 275,254 271,256 266,259 262,261 258,263 253,265 249,268 245,270 240,272 235,275 230,277 226,280 221,282 216,285 212,287 207,290 202,293 197,295 192,298 187,301 182,304 177,307 172,309 166,312 161,315 155,319 150,321 144,325 139,328 133,331 127,334 121,337 116,340 110,343 104,347 99,350 93,353 87,356 81,360 75,363 69,366 63,370 56,373 50,377 44,380 37,384 31,387 24,391 18,394 11,398 5,402 -2,406 -9,409 -15,413 -22,417 -29,420 -36,424 -43,428 -51,432 -57,436 -65,440 -72,445 -79,448 -86,452 -94,456 -101,461 -108,465 -116,469 -123,473 -130,477 -137,481 -144,485 -151,489 -159,493 -166,497 -174,501 -181,505 -189,510 -196,514 -204,518 -212,523 -219,527 -227,531 -234,535 -242,539 -249,543 -256,547 -263,551 -270,555 -276,558 -282,562 -287,565 -293,568 -298,571 -303,574 -308,576 -312,579 -316,581 -320,583 -324,585 -327,586 -332,588 -336,589 -343,590 -348,590 -353,590 -358,589 -361,588 -364,587 -367,586 -370,585 -374,582 -379,578 -383,574 -387,570 -389,567 -391,564 -394,559 -396,553 -398,549 -400,546 -401,542 -402,538 -404,534 -405,529 -406,525 -407,520 -407,515 -408,510 -408,505 -409,500 -409,495 -409,489 -409,485 -409,479 -409,474 -409,469 -409,463 -409,458 -408,451 -408,446 -408,439 -408,433 -408,427 -407,421 -407,415 -407,408 -407,402 -406,395 -406,388 -406,382 -406,375 -405,369 -405,362 -405,355 -404,348 -404,341 -404,334 -403,327 -403,319 -403,312 -402,304 -402,297 -402,289 -401,282 -401,274 -401,267 -400,259 -400,252 -400,243 -399,235 -399,227 -399,219 -398,210 -398,202 -397,194 -397,186 -397,177 -396,169 -396,161 -395,153 -394,144 -393,136 -393,134  "></polygon>
    <polyline vector-effect="non-scaling-stroke" fill="none" style="stroke: #EF4444; stroke-width:4" points=" -393,134 -392,124 -392,115 -391,107 -391,98 -391,90 -390,81 -390,72 -390,63 -389,55 -389,46 -388,37 -388,28 -388,19 -387,10 -387,2 -386,-8 -386,-17 -386,-26 -385,-36 -385,-44 -384,-54 -384,-63 -384,-72 -383,-81 -383,-90 -383,-98 -382,-108 -382,-117 -381,-127 -381,-136 -381,-145 -380,-154 -380,-163 -379,-172 -379,-182 -379,-192 -378,-201 -378,-211 -377,-221 -377,-230 -377,-239 -376,-249 -376,-258 -375,-267 -375,-276 -375,-286 -374,-296 -374,-306 -374,-315 -373,-325 -373,-334 -372,-344 -372,-354 -372,-363 -371,-372 -371,-381 -370,-390 -370,-400 -370,-409 -369,-419 -369,-429 -368,-438 -368,-447 -368,-455 -368,-463 -367,-471 -367,-478 -367,-485 -366,-492 -366,-498 -366,-505 -366,-511 -365,-516 -365,-522 -365,-527 -365,-533 -365,-538 -365,-543 -364,-548 -364,-552 -364,-556 -364,-559 -363,-566 -363,-571 -362,-576 -361,-579 -360,-583 -358,-588 -355,-592 -353,-594 -349,-597 -347,-598 -344,-599 -341,-599 -337,-599 -333,-598 -329,-596 -325,-594 -323,-592 -320,-589 -317,-585 -314,-582 -311,-579 -308,-575 -305,-572 -301,-568 -297,-564 -292,-560 -287,-557 -282,-554 -277,-552 -274,-551 -271,-550 -268,-549 -264,-548 -261,-548 -257,-547 -251,-547 -247,-547 -244,-547 -238,-548 -234,-549 -230,-549 -226,-550 -222,-552 -218,-553 -214,-554 -209,-555 -205,-557 -201,-559 -196,-560 -191,-562 -187,-563 -182,-564 -177,-566 -173,-567 -167,-568 -162,-568 -157,-569 -151,-569 -146,-570 -141,-570 -135,-570 -129,-569 -124,-569 -118,-568 -112,-568 -106,-567 -101,-566 -95,-565 -89,-564 -83,-563 -77,-562 -70,-561 -64,-560 -58,-559 -52,-557 -45,-556 -39,-555 -33,-554 -26,-553 -19,-552 -13,-550 -6,-549 4,-547 11,-546 17,-544 24,-543 31,-542 38,-540 45,-539 52,-538 59,-536 66,-535 73,-534 80,-532 87,-531 94,-530 101,-528 109,-527 117,-526 124,-524 131,-523 139,-521 146,-520 153,-519 161,-517 169,-516 176,-515 183,-513 191,-512 199,-510 206,-509 214,-508 222,-506 230,-505 238,-503 245,-502 253,-500 261,-499 268,-498 276,-496 283,-495 291,-493 298,-492 305,-491 312,-489 319,-488 325,-487 331,-486 336,-485 342,-484 346,-483 351,-482 355,-481 361,-480 364,-479 369,-478 374,-476 379,-474 383,-471 386,-469 389,-466 391,-464 394,-460 395,-458 396,-455 397,-452 398,-450 399,-446 399,-444 399,-438 399,-434 398,-429 397,-424 395,-419 394,-415 392,-411 390,-406 387,-401 384,-398 381,-394 378,-391 375,-388 372,-386 369,-383 366,-381 362,-378 359,-376 355,-374 351,-371 347,-369 344,-367 340,-364 336,-362 332,-359 328,-357 324,-354 320,-351 316,-348 313,-345 309,-342 305,-339 301,-335 297,-332 293,-328 289,-324 285,-320 282,-316 278,-312 274,-309 270,-304 267,-300 263,-296 260,-292 256,-288 253,-284 250,-279 246,-275 243,-271 "></polyline>
    <polyline vector-effect="non-scaling-stroke" fill="none" style="stroke: #3B82F6; stroke-width:4" points=" 243,-271 240,-266 238,-262 235,-257 232,-253 229,-248 227,-243 224,-239 222,-235 220,-230 217,-226 214,-222 212,-218 209,-215 207,-211 204,-208 201,-205 198,-202 195,-199 191,-196 188,-194 185,-192 181,-190 177,-188 174,-186 170,-184 166,-183 162,-182 158,-181 154,-180 150,-180 146,-179 142,-179 138,-179 134,-180 130,-180 126,-180 122,-181 117,-181 113,-182 109,-182 104,-182 100,-183 96,-182 91,-182 87,-182 83,-181 78,-180 74,-179 70,-178 66,-177 62,-176 58,-174 54,-172 50,-170 46,-168 43,-166 39,-164 35,-161 31,-158 28,-156 24,-152 21,-149 17,-146 14,-143 11,-139 8,-136 4,-132 1,-128 -3,-122 -6,-118 -9,-114 -12,-110 -15,-106 -18,-101 -20,-97 -23,-92 -26,-88 -28,-83 -31,-79 -34,-74 -36,-70 -39,-66 -41,-62 -43,-58 -45,-54 -48,-51 -50,-48 -52,-44 -55,-40 -57,-37 -60,-33 -64,-28 -67,-25 -69,-22 -72,-19 -75,-16 -79,-13 -82,-10 -86,-8 -91,-7 -94,-6 -98,-6 -101,-7 -104,-8 -107,-9 -110,-11 -113,-14 -116,-16 -118,-20 -120,-23 -122,-28 -123,-32 -124,-36 -125,-41 -125,-46 -125,-51 -124,-56 -123,-62 -122,-67 -121,-71 -120,-76 -119,-83 -118,-86 -117,-91 -116,-95 -115,-98 -114,-104 -113,-108 -112,-112 -111,-116 -110,-120 -109,-123 -108,-128 -107,-132 -106,-136 -105,-141 -104,-145 -103,-149 -102,-154 -101,-159 -100,-163 -99,-168 -98,-173 -97,-177 -97,-182 -96,-187 -95,-192 -94,-197 -93,-202 -92,-207 -91,-212 -90,-218 -89,-223 -88,-228 -87,-234 -86,-239 -85,-245 -84,-250 -83,-256 -82,-261 -81,-267 -80,-272 -80,-278 -79,-283 -78,-288 -77,-294 -77,-299 -77,-304 -76,-309 -76,-313 -76,-318 -76,-322 -76,-327 -77,-331 -77,-335 -78,-339 -78,-343 -79,-347 -80,-351 -81,-354 -81,-358 -82,-362 -84,-367 -85,-370 -87,-374 -88,-377 -91,-382 -93,-386 -95,-390 -99,-395 -101,-399 -105,-404 -108,-407 -112,-411 -115,-413 -119,-416 -122,-419 -126,-421 -130,-423 -133,-424 -138,-425 -142,-425 -145,-425 -147,-424 -149,-423 -152,-422 -155,-419 -157,-416 -159,-412 -161,-408 -162,-404 -163,-400 -163,-397 -164,-393 -165,-389 -165,-384 -166,-379 -167,-375 -167,-371 -168,-365 -169,-359 -169,-354 -170,-349 -170,-343 -171,-339 -171,-335 -172,-331 -172,-327 -173,-323 -173,-319 -173,-314 -174,-310 -174,-305 -175,-301 -175,-296 -176,-292 -176,-287 -176,-281 -177,-276 -177,-271 -178,-265 -178,-260 -179,-254 -179,-249 -179,-243 -180,-237 -180,-231 -180,-225 -181,-219 -181,-213 -181,-206 -182,-200 -182,-193 -182,-186 -183,-180 -183,-173 -183,-166 -183,-159 -184,-152 -184,-144 -184,-137 -185,-130 -185,-122 -185,-114 -185,-107 -186,-99 -186,-92 -186,-84 -187,-77 -187,-68 -187,-61 -188,-53 -188,-45 -188,-37 -188,-29 -189,-21 -189,-13 -189,-5 -190,8 -190,16 -190,24 -191,32 -191,41 -191,49 -192,58 -192,66 -193,75 -193,84 -194,93 -194,101 -195,110 -195,119 -196,128 -196,136 -197,145 -197,154 -198,163 -198,172 -199,180 -199,188 -199,197 -200,205 -200,211 -201,218 -201,224 -201,230 -201,235 -201,241 -200,245 -200,250 -199,254 -197,260 -196,264 -195,267 -193,271 -191,274 -189,277 -187,279 -184,282 -181,285 -179,287 -175,289 -172,291 -167,294 -163,296 -160,297 -156,298 -152,299 -148,300 -144,300 -140,301 -135,301 -131,301 -127,301 -123,301 -119,300 -114,300 -110,299 -105,298 -101,296 -97,295 -92,293 -88,291 -84,289 -79,287 -75,284 -70,281 -66,278 -62,275 -58,272 -55,268 -51,264 -47,260 -44,256 -41,251 -38,246 -35,242 -32,237 -29,232 -26,226 -24,221 -21,216 -19,211 -17,205 -15,200 -12,194 -10,188 -8,182 -6,177 -3,171 -1,165 3,157 6,151 10,146 13,141 16,135 20,131 24,125 28,121 33,116 38,112 43,108 48,104 53,100 59,97 64,94 70,91 76,88 82,86 89,83 95,82 101,80 108,79 115,78 122,77 129,77 135,77 142,78 149,79 155,79 162,81 168,82 175,84 182,86 188,88 195,90 201,93 207,95 213,98 220,101 226,104 "></polyline>
    <polyline vector-effect="non-scaling-stroke" fill="none" style="stroke: #FBBF24; stroke-width:4" points=" 226,104 233,107 240,110 246,113 252,117 259,120 264,123 269,126 275,130 279,133 283,136 287,139 291,143 295,146 298,150 301,154 303,157 306,161 308,165 309,170 311,174 312,178 313,182 314,187 314,191 314,195 314,199 313,203 313,207 312,211 310,215 309,219 307,222 304,226 302,230 299,233 296,237 293,240 290,243 287,245 283,248 279,251 275,254 271,256 266,259 262,261 258,263 253,265 249,268 245,270 240,272 235,275 230,277 226,280 221,282 216,285 212,287 207,290 202,293 197,295 192,298 187,301 182,304 177,307 172,309 166,312 161,315 155,319 150,321 144,325 139,328 133,331 127,334 121,337 116,340 110,343 104,347 99,350 93,353 87,356 81,360 75,363 69,366 63,370 56,373 50,377 44,380 37,384 31,387 24,391 18,394 11,398 5,402 -2,406 -9,409 -15,413 -22,417 -29,420 -36,424 -43,428 -51,432 -57,436 -65,440 -72,445 -79,448 -86,452 -94,456 -101,461 -108,465 -116,469 -123,473 -130,477 -137,481 -144,485 -151,489 -159,493 -166,497 -174,501 -181,505 -189,510 -196,514 -204,518 -212,523 -219,527 -227,531 -234,535 -242,539 -249,543 -256,547 -263,551 -270,555 -276,558 -282,562 -287,565 -293,568 -298,571 -303,574 -308,576 -312,579 -316,581 -320,583 -324,585 -327,586 -332,588 -336,589 -343,590 -348,590 -353,590 -358,589 -361,588 -364,587 -367,586 -370,585 -374,582 -379,578 -383,574 -387,570 -389,567 -391,564 -394,559 -396,553 -398,549 -400,546 -401,542 -402,538 -404,534 -405,529 -406,525 -407,520 -407,515 -408,510 -408,505 -409,500 -409,495 -409,489 -409,485 -409,479 -409,474 -409,469 -409,463 -409,458 -408,451 -408,446 -408,439 -408,433 -408,427 -407,421 -407,415 -407,408 -407,402 -406,395 -406,388 -406,382 -406,375 -405,369 -405,362 -405,355 -404,348 -404,341 -404,334 -403,327 -403,319 -403,312 -402,304 -402,297 -402,289 -401,282 -401,274 -401,267 -400,259 -400,252 -400,243 -399,235 -399,227 -399,219 -398,210 -398,202 -397,194 -397,186 -397,177 -396,169 -396,161 -395,153 -394,144 -393,136 -393,134 "></polyline>
</svg>