<svg xmlns="http://www.w3.org/2000/svg" xmlns:xlink="http://www.w3.org/1999/xlink" preserveAspectRatio="xMidYMid meet" height="100%" viewBox="-423 -625 859 1239">
<polygon vector-effect="non-scaling-stroke" fill="none" points="-389,127.8 -389,126.6 -389,125.5 -389,123.5 -389,121.7 -388.8,119.8 -388.6,118.2 -388.4,116.6 -388.2,114.8 -388,113.1 -388,111.5 -388,109.9 -388,108.5 -388,107.3 -388,105.8 -388,104.6 -388,103.4 -388,102.2 -388,101 -388,100 -388,99 -388,98 -388,97 -388,96.1 -388,95.3 -387.9,94.6 -387.8,94 -387.6,93 -387.4,91.9 -387.2,90.5 -387.1,89 -387,87.4 -387,86.2 -387,85 -387,84 -387,83 -387,81.8 -387,80.6 -387,79.4 -387,78.2 -387,76.9 -387,75.9 -387,75 -387,74.2 -386.9,72.8 -386.7,71.5 -386.5,70.1 -386.3,68.4 -386.1,66.6 -386,65.4 -386,64 -386,62.6 -386,61.4 -386,60.2 -386,58.8 -386,57.6 -386,56.5 -386,55.4 -386,54.4 -386,53.7 -385.9,52.3 -385.8,50.8 -385.7,49.2 -385.5,47.4 -385.3,45.6 -385.2,44.2 -385.1,42.8 -385,41.5 -385,40.1 -385,38.7 -385,37.5 -385,35.9 -385,34.3 -385,33 -385,31.7 -384.9,29.9 -384.8,28.5 -384.7,26.9 -384.6,25.2 -384.5,23.4 -384.4,22.1 -384.3,20.7 -384.2,19.5 -384.1,18.2 -384,16.8 -384,15.4 -384,14 -384,12.6 -384,11.1 -384,9.8 -384,8.3 -384,7 -384,5.6 -384,4.3 -384,2.8 -384,1.5 -384,0.2 -383.9,-0.9 -383.7,-2.3 -383.5,-3.7 -383.3,-5.2 -383.1,-6.7 -383,-8.4 -383,-9.8 -383,-11.2 -383,-12.4 -383,-13.8 -383,-15.2 -383,-16.5 -383,-17.9 -383,-19.2 -383,-20.5 -383,-21.7 -383,-22.8 -383,-23.6 -382.9,-25 -382.7,-26.4 -382.5,-27.8 -382.3,-29.4 -382.1,-31.2 -382,-32.5 -382,-33.9 -382,-35.2 -382,-36.5 -382,-37.9 -382,-39.2 -382,-40.6 -382,-42.1 -382,-43.4 -382,-44.7 -382,-46 -382,-46.9 -382,-47.8 -381.9,-49.3 -381.7,-50.7 -381.5,-52.3 -381.3,-54 -381.1,-55.9 -381,-57.3 -381,-58.5 -381,-59.9 -381,-61.2 -381,-62.6 -381,-63.9 -381,-65.5 -381,-67 -381,-68.9 -381,-70.4 -381,-71.9 -381,-73.2 -380.8,-74.6 -380.6,-76 -380.4,-77.4 -380.2,-79 -380,-80.8 -380,-82.3 -380,-83.7 -380,-85.2 -380,-86.5 -380,-87.9 -380,-89.2 -380,-90.6 -380,-91.9 -380,-93.6 -380,-94.9 -380,-96.2 -379.9,-97.2 -379.7,-98.6 -379.5,-100 -379.3,-101.4 -379.1,-103.2 -379,-104.9 -379,-106.4 -379,-107.7 -379,-109.2 -379,-110.5 -379,-112 -379,-113.6 -379,-115.1 -379,-116.7 -379,-118.2 -378.9,-119.6 -378.8,-120.7 -378.6,-122.3 -378.4,-123.6 -378.2,-125.1 -378.1,-126.7 -378,-128.5 -378,-129.9 -378,-131.5 -378,-133 -378,-134.5 -378,-136 -378,-137.6 -378,-139.1 -378,-140.7 -377.9,-142.2 -377.8,-143.7 -377.7,-144.9 -377.6,-146.1 -377.4,-147.5 -377.3,-148.8 -377.2,-150.2 -377.1,-151.8 -377,-153.6 -377,-154.9 -377,-156.6 -377,-158 -377,-159.5 -377,-160.9 -377,-162.6 -376.9,-163.9 -376.8,-165.7 -376.7,-167.2 -376.6,-168.6 -376.5,-169.7 -376.4,-171.3 -376.3,-172.6 -376.2,-174.2 -376.1,-176.2 -376,-178.3 -376,-180.1 -376,-181.9 -376,-183.7 -376,-185.1 -375.9,-186.4 -375.8,-187.9 -375.7,-189.2 -375.6,-190.3 -375.5,-191.3 -375.4,-192.9 -375.3,-194.3 -375.2,-196 -375.1,-197.6 -375,-199.5 -375,-201 -375,-202.5 -375,-203.9 -375,-205.5 -375,-207 -375,-208.5 -375,-210 -374.9,-211.5 -374.8,-213 -374.7,-214.4 -374.6,-215.6 -374.5,-216.6 -374.4,-218 -374.3,-219.4 -374.2,-221 -374.1,-222.7 -374,-224.6 -374,-226.1 -374,-227.7 -374,-229 -374,-230.6 -374,-232 -373.9,-233.6 -373.8,-235 -373.7,-236.7 -373.6,-238 -373.5,-239.4 -373.5,-240.4 -373.4,-242 -373.3,-243.4 -373.2,-245.2 -373.1,-246.9 -373,-248.8 -373,-250.2 -373,-251.8 -373,-253 -373,-254.4 -372.9,-255.9 -372.8,-257.3 -372.7,-258.6 -372.6,-260.2 -372.5,-261.7 -372.5,-262.9 -372.5,-264.1 -372.4,-265.5 -372.3,-267 -372.2,-268.5 -372.1,-270.3 -372,-272 -372,-273.7 -372,-275 -372,-276.6 -372,-277.9 -372,-279.5 -371.9,-280.9 -371.8,-282.6 -371.7,-283.9 -371.6,-285.3 -371.5,-286.4 -371.4,-288.1 -371.3,-289.7 -371.2,-291.6 -371.1,-293.5 -371,-295.7 -371,-297.2 -371,-298.8 -371,-300.2 -371,-301.8 -371,-303.2 -371,-304.8 -370.9,-306.2 -370.8,-307.8 -370.7,-309.2 -370.6,-310.6 -370.5,-311.7 -370.5,-312.7 -370.4,-314.1 -370.3,-315.4 -370.2,-316.9 -370.1,-318.6 -370,-320.5 -370,-321.9 -370,-323.6 -370,-325 -370,-326.6 -369.9,-328 -369.8,-329.6 -369.7,-330.9 -369.6,-332.4 -369.5,-333.7 -369.5,-335 -369.5,-336 -369.4,-337.5 -369.3,-339.1 -369.2,-340.6 -369.1,-342.4 -369,-344.1 -369,-345.7 -369,-347 -368.9,-348.6 -368.8,-349.9 -368.7,-351.6 -368.6,-352.9 -368.5,-354.6 -368.5,-355.9 -368.5,-357.6 -368.5,-359 -368.5,-360.5 -368.5,-361.6 -368.4,-363.3 -368.3,-364.7 -368.2,-366.3 -368.1,-367.8 -367.9,-369.7 -367.8,-371 -367.7,-372.5 -367.6,-373.9 -367.5,-375.5 -367.5,-376.9 -367.5,-378.6 -367.5,-380 -367.5,-381.6 -367.5,-383 -367.5,-384.5 -367.5,-385.7 -367.5,-387 -367.4,-388.4 -367.2,-390.1 -367,-391.8 -366.8,-393.6 -366.6,-395.6 -366.5,-397.6 -366.5,-399.3 -366.5,-401.1 -366.5,-402.8 -366.5,-404.6 -366.5,-405.9 -366.5,-407.6 -366.5,-408.9 -366.5,-410.3 -366.4,-411.9 -366.3,-413.5 -366.2,-415.1 -366.1,-416.8 -366,-418.8 -366,-420.2 -365.9,-421.9 -365.8,-423.2 -365.7,-424.8 -365.6,-426 -365.5,-427.5 -365.5,-429.1 -365.5,-430.7 -365.5,-432.3 -365.5,-434 -365.5,-435.5 -365.5,-436.6 -365.4,-438.3 -365.3,-439.6 -365.2,-441.1 -365.1,-442.7 -365,-444.5 -365,-445.9 -365,-447.6 -365,-449.3 -365,-450.8 -365,-452.5 -364.9,-454.1 -364.8,-455.7 -364.7,-457 -364.6,-458.7 -364.5,-460 -364.5,-461.5 -364.5,-462.7 -364.5,-464 -364.4,-465.4 -364.3,-467 -364.2,-468.5 -364.1,-470.2 -364,-472 -364,-473.6 -364,-475 -364,-476.4 -364,-477.9 -364,-479.2 -364,-480.6 -363.9,-482.1 -363.8,-483.7 -363.7,-485 -363.6,-486.4 -363.5,-487.4 -363.4,-489 -363.3,-490.4 -363.2,-492.1 -363.1,-493.7 -363,-495.7 -363,-497 -363,-498.5 -363,-499.9 -363,-501.4 -363,-502.7 -363,-504 -362.8,-505.7 -362.6,-507.3 -362.4,-509.1 -362.2,-510.8 -362,-512.8 -362,-514.1 -362,-515.5 -362,-516.7 -362,-517.8 -362,-518.7 -361.9,-520.1 -361.8,-521.5 -361.7,-523.1 -361.6,-524.7 -361.4,-526.2 -361.3,-527.3 -361.2,-528.2 -361,-529.3 -360.8,-530.8 -360.7,-532.3 -360.6,-533.9 -360.5,-535.8 -360.5,-537.2 -360.5,-538.2 -360.5,-539.3 -360.5,-540.2 -360.4,-541.4 -360.3,-542.7 -360.2,-544.2 -360.1,-545.8 -359.9,-547.4 -359.8,-548.6 -359.7,-549.8 -359.6,-551 -359.5,-552.2 -359.5,-553.5 -359.5,-554.7 -359.5,-555.8 -359.5,-556.7 -359.5,-557.4 -359.5,-558 -359.5,-558.5 -359.4,-559.6 -359.3,-560.8 -359.2,-562.1 -359.1,-563.5 -359,-565 -359,-566 -359,-566.9 -358.9,-567.9 -358.8,-568.9 -358.7,-569.9 -358.6,-570.9 -358.5,-572 -358.5,-573 -358.5,-574 -358.5,-575 -358.5,-576 -358.5,-577 -358.5,-578 -358.5,-579.2 -358.5,-580.4 -358.5,-581.5 -358.5,-582.5 -358.5,-583.4 -358.5,-584 -358.5,-584.6 -358.3,-585.5 -358.1,-586.4 -357.9,-587.3 -357.7,-588.2 -357.4,-589.2 -357.3,-589.9 -357.1,-590.9 -356.9,-592 -356.7,-593.1 -356.5,-593.9 -356.3,-594.7 -356.2,-595.3 -356,-595.7 -355.8,-596.1 -355,-597.4 -353.8,-598.8 -352.6,-600.1 -351.3,-601.4 -350,-602.7 -348.1,-603.3 -346.6,-603.6 -344.1,-603.4 -341.5,-603.1 -338.8,-602.6 -337.1,-601.5 -335,-600.1 -333,-598.3 -331.2,-596.6 -329.5,-594.9 -328,-593.6 -326.9,-592.6 -326.6,-592.4 -326.4,-592.1 -326.1,-591.9 -325.1,-590.9 -323.4,-589.3 -321.4,-587.3 -318.9,-584.9 -316.4,-582.4 -314.6,-580.7 -313.4,-579.5 -312.4,-578.5 -311.8,-578 -311,-577.3 -310.3,-576.5 -309.2,-575.5 -308.2,-574.7 -307.2,-573.7 -306.4,-572.9 -305.5,-572.2 -305,-571.8 -304.6,-571.3 -303.7,-570.4 -302.8,-569.6 -301.9,-568.7 -301.1,-567.8 -300.2,-567 -299.8,-566.7 -299,-565.9 -298.3,-565.1 -297.5,-564.4 -296.7,-563.6 -295.5,-562.4 -293.3,-560.4 -291.1,-558.4 -288.9,-556.4 -286.4,-554.1 -284.3,-552.3 -283.7,-551.7 -283,-551.2 -282.4,-550.6 -281,-549.6 -275.8,-548.6 -270,-547.8 -263.7,-547.3 -256.6,-547.2 -250.5,-547.9 -248.1,-548.7 -246.2,-549.4 -244.2,-550 -243,-550.4 -241.9,-550.8 -240.9,-551.1 -239.9,-551.4 -239.1,-551.7 -238.2,-552 -237.3,-552.3 -235.9,-552.8 -234.5,-553.3 -233.5,-553.7 -232.5,-554 -231.5,-554.3 -230.7,-554.6 -229.9,-554.9 -229.1,-555.1 -228,-555.4 -226.9,-555.8 -226.1,-556 -225.3,-556.2 -223.9,-556.7 -222.8,-557.1 -221.7,-557.4 -220.6,-557.8 -219.5,-558.2 -219,-558.3 -217.9,-558.7 -216.8,-559.1 -215.6,-559.4 -214.4,-559.8 -212.9,-560.3 -212,-560.6 -211.1,-560.9 -210,-561.3 -208.9,-561.7 -208,-562 -206.7,-562.3 -205.4,-562.7 -204.4,-563 -203,-563.4 -201.3,-563.9 -200,-564.3 -198.7,-564.7 -197.4,-565.1 -196.1,-565.4 -194.9,-565.8 -193.7,-566.2 -192.5,-566.5 -191.3,-566.9 -190.1,-567.3 -189.1,-567.5 -187.8,-567.9 -186.5,-568.3 -185.2,-568.6 -184.3,-568.8 -183,-569.2 -182,-569.4 -181,-569.6 -180,-569.9 -179,-570.2 -178,-570.4 -176.9,-570.6 -175.8,-570.8 -174.7,-571 -173.5,-571.2 -172.3,-571.4 -171.1,-571.6 -169.9,-571.8 -168.7,-571.9 -167.6,-572.1 -166.8,-572.2 -166,-572.3 -164.9,-572.4 -163.8,-572.5 -162.5,-572.5 -161.3,-572.5 -160.2,-572.5 -159.2,-572.5 -158.2,-572.5 -157,-572.5 -155.8,-572.5 -154.6,-572.5 -153.4,-572.5 -152.2,-572.5 -151.2,-572.5 -150,-572.4 -148.7,-572.3 -147.6,-572.2 -146.3,-572.1 -145.1,-572 -144.2,-572 -143.1,-571.9 -141.8,-571.8 -140.7,-571.7 -139.7,-571.6 -138.7,-571.5 -138,-571.4 -136.8,-571.2 -135.6,-571 -134.4,-570.8 -133.2,-570.5 -132,-570.3 -131,-570.1 -130,-569.9 -129,-569.6 -127.5,-569.3 -126,-569 -124.9,-568.8 -123.8,-568.6 -122.2,-568.3 -120.9,-568.1 -119.6,-567.9 -118,-567.5 -116.4,-567.1 -115.2,-566.9 -113.8,-566.6 -112.2,-566.2 -111,-566 -109.7,-565.8 -108.5,-565.6 -107.2,-565.3 -106,-565.1 -104.8,-564.9 -103.7,-564.7 -102.1,-564.3 -101,-564.1 -100,-563.9 -98.5,-563.6 -96.9,-563.2 -95.8,-563 -94.7,-562.8 -92.9,-562.5 -91.6,-562.2 -90.3,-562 -89,-561.8 -87.2,-561.5 -86,-561.2 -84.8,-561 -83.7,-560.8 -82,-560.4 -80.8,-560.1 -79.6,-559.9 -78,-559.6 -76.1,-559.2 -74.8,-559 -73.5,-558.8 -71.8,-558.5 -70.5,-558.2 -69.4,-558 -67.9,-557.7 -66.1,-557.3 -64.8,-557 -63.5,-556.8 -61.7,-556.5 -60.3,-556.2 -59.1,-556 -57.9,-555.8 -56.1,-555.4 -54.9,-555.1 -53.6,-554.9 -52,-554.6 -50.1,-554.2 -48.8,-554 -47.4,-553.8 -45.6,-553.4 -44.1,-553.1 -42.9,-552.9 -41.2,-552.5 -39.3,-552.1 -37.9,-551.9 -36.5,-551.7 -34.7,-551.3 -33.3,-551.1 -32.2,-550.9 -30.4,-550.5 -28.7,-550.1 -27.3,-549.9 -25.4,-549.5 -23.4,-549.1 -22,-548.9 -20.6,-548.7 -18.7,-548.3 -17.3,-548.1 -15.3,-547.7 -13.4,-547.3 -11.4,-546.9 -9.5,-546.5 -7.7,-546.1 -6.5,-545.9 -4.9,-545.6 -3.3,-545.2 -1.6,-544.9 0.1,-544.6 2.1,-544.2 3.7,-543.9 5.3,-543.7 7,-543.4 8.7,-543.1 10.1,-542.9 11.6,-542.7 13.4,-542.3 14.6,-542.1 15.8,-541.9 17.5,-541.5 19.2,-541.1 20.5,-540.9 22.3,-540.5 24.2,-540.1 25.5,-539.9 27.4,-539.5 29.4,-539.1 30.8,-538.9 32.6,-538.6 34.5,-538.2 35.7,-538 37.4,-537.7 39.4,-537.3 40.9,-537 42.4,-536.8 44.4,-536.4 45.9,-536.1 47.2,-535.9 49,-535.5 50.7,-535.1 52.5,-534.8 54.5,-534.4 56.4,-534 57.9,-533.8 60,-533.5 61.5,-533.2 62.8,-533 64.7,-532.7 66.5,-532.3 67.8,-532 69.7,-531.7 71.5,-531.3 72.8,-531 74.7,-530.7 76.5,-530.3 77.8,-530 79.7,-529.7 81.5,-529.3 82.8,-529 84.6,-528.7 86.6,-528.3 88,-528 89.5,-527.8 91.5,-527.4 93,-527.1 94.3,-526.9 96.2,-526.6 98,-526.2 99.3,-526 101.2,-525.7 103.2,-525.3 105.3,-524.9 107.5,-524.5 109.6,-524.1 111.7,-523.7 113.7,-523.3 115,-523 116.7,-522.7 118.5,-522.3 120.3,-521.9 122,-521.6 124,-521.2 125.6,-520.9 127.1,-520.7 128.5,-520.4 130,-520.1 131.7,-519.8 133.6,-519.4 135.6,-519 137.1,-518.8 139.1,-518.4 140.7,-518.1 142.1,-517.9 143.9,-517.5 145.8,-517.1 147.2,-516.9 148.9,-516.5 150.6,-516.1 152.4,-515.8 154.2,-515.4 156,-515 157.5,-514.8 159.4,-514.4 160.8,-514.1 162.2,-513.9 163.9,-513.5 165.8,-513.1 167.3,-512.9 168.7,-512.7 170.5,-512.3 172,-512.1 173.7,-511.8 175.6,-511.4 177.5,-511 179,-510.8 181,-510.4 182.5,-510.1 183.8,-509.9 185.6,-509.5 187.3,-509.1 188.5,-508.9 190.3,-508.6 192,-508.2 193.3,-508 195,-507.7 196.9,-507.3 198.3,-507 199.7,-506.8 201.7,-506.4 203.4,-506.1 204.8,-505.9 206.6,-505.6 208.4,-505.2 209.6,-505 211.3,-504.7 213,-504.3 214.3,-504 216.1,-503.7 218,-503.4 219.4,-503.1 220.8,-502.9 222.7,-502.6 224.1,-502.3 226.1,-501.9 228,-501.6 230,-501.2 231.9,-500.8 233.9,-500.5 235.1,-500.2 237,-499.8 238.9,-499.5 240.3,-499.3 241.7,-499 243.6,-498.7 244.9,-498.5 246.1,-498.2 247.9,-497.8 249.7,-497.5 251,-497.3 252.7,-496.9 254.6,-496.6 256,-496.4 257.3,-496.1 259.1,-495.7 260.4,-495.5 261.6,-495.3 263.4,-494.9 265.2,-494.6 266.6,-494.4 268,-494.1 270,-493.7 271.3,-493.5 272.7,-493.3 274,-493 275.9,-492.7 277.1,-492.5 278.4,-492.2 280.1,-491.8 281.9,-491.5 283.2,-491.3 284.9,-490.9 286.8,-490.6 288.2,-490.4 289.6,-490.1 291.4,-489.7 292.9,-489.5 294.1,-489.2 295.8,-488.8 297.4,-488.5 298.6,-488.3 300.2,-487.9 302,-487.6 303.3,-487.4 304.7,-487.1 306.5,-486.7 307.9,-486.5 309.1,-486.3 310.9,-485.9 312.6,-485.6 313.9,-485.4 315.1,-485.1 316.9,-484.7 318.1,-484.5 319.4,-484.2 321.1,-483.8 322.9,-483.5 324.1,-483.3 325.3,-483 326.9,-482.7 328,-482.5 329.6,-482.1 331.2,-481.7 332.9,-481.4 334.1,-481.2 335.8,-480.8 337.1,-480.6 339,-480.2 340.9,-479.8 342.8,-479.4 344.3,-479.2 346,-478.8 347.1,-478.6 348.2,-478.4 349.8,-478 351.3,-477.6 352.5,-477.4 353.7,-477.2 355.3,-476.8 356.5,-476.6 357.7,-476.4 358.8,-476.2 360.4,-475.8 361.5,-475.6 362.6,-475.4 363.7,-475.2 365.2,-474.9 366.2,-474.7 367.2,-474.5 368.1,-474.3 369.5,-474 370.5,-473.8 371.6,-473.6 372.7,-473.4 374.2,-473.1 375.2,-472.9 376.2,-472.6 377.1,-472.4 378.4,-472.1 379.4,-471.9 380.4,-471.6 381.8,-471.3 383.2,-471 384.2,-470.8 385.2,-470.5 386.2,-470.3 387,-470.1 387.8,-469.9 388.9,-469.5 389.9,-469.2 390.9,-468.9 391.8,-468.7 392.7,-468.5 393.3,-468.4 394.1,-468.2 395,-467.9 396,-467.4 397.1,-466.8 398.3,-466.3 399.3,-465.9 400.5,-465.5 401.5,-465.3 402.3,-465.1 403.1,-464.9 403.8,-464.6 404.4,-464.2 405,-463.7 405.9,-462.7 406.7,-461.7 407.7,-458.7 408.3,-455.3 408.8,-451.6 408.9,-447.9 408.9,-444 408.6,-442.2 408.4,-440.8 408.2,-439.6 408.1,-438.8 407.9,-437.8 407.8,-436.6 407.6,-435.5 407.4,-434.5 407.2,-433.6 407,-433 406.8,-432.5 406.7,-432 406.5,-431.5 406.2,-430.6 406,-429.7 405.6,-428.7 405.2,-427.7 404.8,-426.7 404.5,-426.1 403.9,-425 403.5,-424 403,-423 402.6,-422 402.1,-421 401.8,-420.3 401.4,-419.6 400.9,-418.7 400.4,-417.8 399.9,-416.9 399.4,-416.2 399,-415.5 398.5,-414.8 397.9,-414.1 397.3,-413.4 396.6,-412.4 395.8,-411.4 395.2,-410.6 394.7,-409.8 394.2,-409 393.8,-408.6 393.3,-408.1 392.7,-407.5 392.1,-406.9 391.4,-406.2 390.6,-405.3 389.8,-404.5 389,-403.7 388.2,-402.9 387.4,-402.1 386.6,-401.3 385.9,-400.6 385.3,-400 384.6,-399.4 383.6,-398.6 382.6,-397.9 381.6,-397.1 380.7,-396.3 379.8,-395.5 379.3,-395.1 378.5,-394.4 377.7,-393.7 376.8,-393.1 375.9,-392.5 374.6,-391.5 373.5,-390.7 372.4,-389.9 371.3,-389.1 370.2,-388.3 369.5,-387.8 369,-387.5 367.8,-386.7 366.5,-385.7 365.2,-384.8 363.9,-383.9 362.6,-382.9 362,-382.5 361.5,-382.2 360.7,-381.8 359.5,-381.1 358.3,-380.4 357.1,-379.7 355.9,-379 354.5,-377.9 353.5,-377.2 352.4,-376.4 351.2,-375.4 350,-374.4 349.3,-373.9 348.1,-373 346.9,-372.1 345.8,-371.3 344.7,-370.6 343.6,-369.8 342.6,-369 341.6,-368.2 340.4,-367.4 339.2,-366.5 338,-365.6 337.2,-365 336.2,-364.3 335.4,-363.6 334.1,-362.7 332.7,-361.7 331.2,-360.6 329.9,-359.6 328.5,-358.5 327.5,-357.5 326.4,-356.5 325.4,-355.6 324.5,-354.8 323.3,-353.8 322.1,-352.8 320.9,-351.9 319.6,-350.9 318.2,-349.8 317.1,-348.9 316,-348.1 315.1,-347.3 313.9,-346.3 312.7,-345.3 311.5,-344.4 310.1,-343.2 308.7,-342 307.7,-341.1 306.7,-340.3 305.2,-338.8 304,-337.6 302.8,-336.4 301.3,-335 299.8,-333.5 298.9,-332.7 298,-331.9 296.5,-330.6 295.3,-329.5 293.8,-328.2 292.3,-326.8 290.8,-325.4 289.5,-324.2 288,-322.9 286.8,-321.8 285.6,-320.8 284.1,-319.4 282.8,-318.2 281.6,-317 280.4,-315.8 278.9,-314.2 277.6,-312.9 276.5,-311.7 275.5,-310.6 274.3,-309.4 273,-308 271.7,-306.7 270.4,-305.4 269,-304 267.7,-302.5 266.7,-301.6 265.8,-300.7 264.5,-299.4 263.3,-298.1 262,-296.9 260.7,-295.6 259.2,-294 258.1,-292.8 256.9,-291.6 255.5,-290 254.2,-288.5 253.1,-287.3 251.9,-285.9 250.5,-284.4 249.5,-283.4 248.2,-281.9 246.9,-280.4 245.7,-279.1 244.6,-277.8 243.3,-276.3 242.3,-275.3 241,-273.9 239.7,-272.5 238.6,-271.3 237.4,-269.7 236.2,-268.1 235.3,-266.8 234.2,-265.2 233.1,-263.6 232.2,-262.3 231.3,-261 230.2,-259.4 229.4,-258.1 228.6,-256.8 227.8,-255.5 226.8,-253.8 226,-252.4 225.1,-250.8 224.2,-249.1 223.5,-247.8 222.8,-246.3 222.1,-244.8 221.5,-243.5 220.7,-241.7 219.9,-239.9 219.4,-238.7 218.8,-237.3 218.1,-235.6 217.6,-234.4 217,-232.8 216.4,-231.1 215.8,-229.5 215.2,-227.9 214.6,-226.3 214.1,-224.8 213.5,-223.4 213.1,-222.2 212.6,-221 212.1,-219.6 211.6,-218.5 211.2,-217.4 210.7,-216.3 210.3,-215.3 209.8,-214.3 209.4,-213.2 208.9,-212.1 208.4,-211 208,-210.1 207.5,-209.2 206.9,-208.2 206.3,-207.2 205.8,-206.2 205.2,-205.2 204.8,-204.6 204.5,-204.2 203.8,-203.2 203,-202.2 202.3,-201.2 201.6,-200.1 200.8,-199 200.3,-198.4 199.9,-197.8 199.3,-197.2 198.7,-196.6 197.9,-195.8 197.2,-195.1 196.5,-194.4 195.6,-193.5 194.7,-192.6 193.9,-191.8 193.1,-191 192.2,-190.3 191.6,-189.8 190.6,-189 189.7,-188.3 188.8,-187.7 187.9,-187 186.7,-186.2 185.9,-185.7 185.1,-185.2 184.3,-184.7 183.3,-184.1 182.6,-183.7 181.7,-183.2 180.8,-182.7 179.9,-182.2 179.2,-181.9 178.2,-181.4 177.4,-181.1 176.3,-180.7 175.2,-180.3 173.7,-179.7 172.5,-179.3 171.3,-178.9 170.4,-178.6 169.5,-178.3 169,-178.2 168.5,-178.1 167.4,-177.8 166.1,-177.6 164.8,-177.4 163.4,-177.2 161.9,-177 160.9,-176.9 160,-176.8 158.8,-176.7 157.6,-176.6 156.5,-176.5 155.3,-176.5 154.1,-176.5 152.9,-176.5 151.7,-176.5 150.4,-176.5 149.2,-176.5 148,-176.5 146.9,-176.6 145.7,-176.7 144.6,-176.8 143.6,-176.9 142.7,-177 141.9,-177 140.7,-177.2 139.5,-177.4 138.3,-177.6 137.1,-177.8 135.4,-178.2 134.2,-178.4 133,-178.6 131.8,-178.8 130.6,-179 129.4,-179.2 128.2,-179.4 126.9,-179.6 125.6,-179.8 124.2,-180 123.4,-180.1 122.2,-180.3 121,-180.5 119.8,-180.7 118.6,-180.9 117.4,-181.1 116.2,-181.3 115.1,-181.5 114,-181.7 112.9,-182 111.3,-182.3 110.1,-182.5 108.9,-182.7 107.5,-182.9 106.1,-183.1 105.2,-183.2 104.4,-183.3 103.2,-183.5 102,-183.7 100.7,-183.9 99.2,-184.1 97.7,-184.3 96.6,-184.4 95.7,-184.5 95,-184.5 93.8,-184.6 92.1,-184.6 90.4,-184.6 88.7,-184.6 87,-184.6 85.8,-184.5 85.1,-184.5 84.2,-184.5 83.2,-184.5 81.6,-184.4 80.2,-184.3 78.7,-184.2 77.3,-184 75.5,-183.7 74.3,-183.5 73.1,-183.3 72,-183 70.6,-182.7 69.5,-182.4 68.3,-182 67.1,-181.6 65.6,-181.1 64.5,-180.7 63.6,-180.4 62.5,-180 61.4,-179.6 60.2,-179.2 58.8,-178.7 57.4,-178.1 56.1,-177.5 54.8,-176.9 53.4,-176.1 52.2,-175.4 51,-174.7 50,-174.1 48.7,-173.3 47.8,-172.7 46.9,-172 46,-171.3 44.8,-170.5 43.8,-169.7 42.8,-168.9 41.7,-168 40.4,-166.9 39.4,-165.9 38.5,-164.9 37.7,-164 36.8,-163.1 36.1,-162.4 35.4,-161.7 34.5,-160.8 33.6,-159.9 32.8,-159 31.9,-158 31.1,-157 30.2,-155.9 29.3,-154.8 28.5,-153.8 27.9,-152.9 26.9,-151.6 26.2,-150.7 25.5,-149.8 24.9,-148.9 23.9,-147.6 23.2,-146.7 22.5,-145.8 21.7,-144.8 20.9,-143.8 20.1,-142.8 19.3,-141.8 18.5,-140.8 17.9,-139.9 17.1,-138.9 16.3,-137.9 15.5,-136.9 14.7,-135.9 13.9,-134.9 13.1,-133.9 12.3,-132.9 11.2,-131.5 10.2,-130.1 9.1,-128.7 8.1,-127.4 7.3,-126.4 6.7,-125.7 6.1,-125 5.2,-123.9 4.3,-122.7 3.5,-121.6 2.5,-120.2 1.5,-118.8 0.8,-117.8 0.1,-116.9 -0.7,-115.9 -1.5,-114.9 -2.3,-113.9 -3.1,-112.9 -3.9,-111.9 -4.7,-110.9 -5.3,-110.2 -6,-109.4 -7,-108.2 -8.1,-106.8 -9.1,-105.5 -9.9,-104.3 -10.7,-103.2 -11.2,-102.5 -11.7,-101.9 -12.5,-100.9 -13.3,-99.9 -14.1,-98.9 -14.9,-97.9 -15.7,-96.9 -16.3,-96.2 -17.2,-95.1 -18.1,-94 -19,-92.9 -20,-91.7 -21.2,-90.2 -22.2,-89.1 -23.4,-87.7 -24.5,-86.3 -25.4,-85.1 -26,-84.3 -26.9,-83.1 -27.5,-82.2 -28.2,-81.3 -28.9,-80.4 -29.9,-79.1 -30.6,-78.2 -31.3,-77.3 -32,-76.4 -33,-75.1 -33.7,-74.2 -34.3,-73.3 -35,-72.4 -35.8,-71.4 -36.6,-70.4 -37.3,-69.4 -38.1,-68.4 -38.9,-67.4 -39.9,-66.1 -40.5,-65.2 -41.2,-64.3 -41.9,-63.4 -42.7,-62.4 -43.1,-61.8 -44,-60.7 -44.9,-59.6 -46.1,-58.1 -47.1,-56.7 -48.2,-55.3 -48.9,-54.4 -49.6,-53.5 -50.1,-52.8 -50.9,-51.8 -51.7,-50.9 -52.5,-50 -53.2,-49.1 -53.9,-48.3 -54.7,-47.4 -55.5,-46.4 -56.2,-45.4 -57,-44.4 -57.8,-43.4 -58.3,-42.8 -58.9,-42 -59.8,-40.9 -60.7,-39.8 -61.5,-38.8 -62.2,-37.8 -62.9,-36.9 -63.5,-36.2 -64.3,-35.1 -65.1,-34 -66,-32.9 -67,-31.7 -68.2,-30.2 -69.2,-29.1 -70.1,-28 -71,-26.9 -71.9,-25.8 -72.4,-25.1 -73.2,-24 -74.1,-22.9 -75,-21.8 -75.6,-20.9 -76.3,-20.1 -76.8,-19.6 -77.5,-18.7 -78.2,-17.8 -79,-16.9 -79.7,-15.9 -80.4,-14.9 -80.9,-14.4 -81.5,-13.8 -82.1,-13.1 -82.9,-12.3 -83.7,-11.5 -84.5,-10.7 -85.1,-10 -85.7,-9.4 -86.2,-9 -86.5,-8.7 -86.8,-8.4 -87.7,-7.8 -88.6,-7.3 -89.4,-6.7 -90.3,-6.2 -91.2,-5.7 -91.5,-5.5 -91.8,-5.3 -92.2,-5.2 -93,-5 -93.9,-4.7 -94.9,-4.5 -96,-4.3 -97.2,-4.1 -98.3,-4 -99.4,-4 -100.7,-4 -101.9,-4.1 -103.1,-4.2 -104,-4.3 -104.7,-4.5 -105.5,-4.8 -106.3,-5 -106.9,-5.3 -107.5,-5.6 -108.2,-5.8 -108.5,-6 -109,-6.3 -109.6,-6.5 -110.1,-6.8 -110.6,-7.1 -111.1,-7.4 -111.4,-7.6 -111.6,-7.9 -111.9,-8.1 -112.1,-8.4 -112.5,-8.7 -112.8,-9.1 -113.3,-9.5 -113.8,-10.1 -114.3,-10.7 -114.7,-11.2 -115.3,-12 -115.8,-12.9 -116.3,-14.1 -116.9,-15.3 -117.5,-17 -117.9,-18.4 -118.3,-19.8 -118.6,-20.8 -118.8,-21.8 -119,-22.3 -119.3,-23.3 -119.5,-24.2 -119.7,-25.1 -119.9,-26 -120,-27 -120.1,-27.6 -120.2,-28.3 -120.3,-29.1 -120.4,-30 -120.5,-31.2 -120.5,-32.4 -120.5,-33.6 -120.5,-34.8 -120.5,-36 -120.5,-37 -120.5,-38 -120.5,-39.2 -120.5,-40.4 -120.5,-41.6 -120.5,-42.8 -120.5,-44 -120.5,-45 -120.5,-46 -120.5,-47 -120.5,-48 -120.4,-48.9 -120.3,-49.7 -120.2,-50.4 -120.1,-51 -120,-51.5 -119.9,-52.6 -119.8,-53.8 -119.6,-55 -119.4,-56.2 -119.2,-57.4 -119.1,-58 -119,-58.5 -118.9,-59.5 -118.7,-60.5 -118.5,-61.5 -118.3,-62.5 -118.1,-63.5 -117.9,-64.6 -117.8,-65.8 -117.6,-67 -117.4,-68.2 -117.2,-69.5 -117.1,-70.2 -116.9,-71.3 -116.7,-72.6 -116.5,-73.9 -116.3,-75.1 -116.1,-76.3 -116,-77.1 -115.8,-78.4 -115.6,-79.7 -115.4,-81 -115.2,-82.3 -114.8,-84.1 -114.6,-85.4 -114.4,-86.7 -114.2,-88 -114,-89.4 -113.8,-90.7 -113.6,-91.8 -113.4,-93.1 -113.2,-94.4 -113,-95.7 -112.9,-96.5 -112.7,-97.8 -112.5,-99 -112.3,-100.3 -112.1,-101.5 -111.9,-102.7 -111.7,-103.9 -111.5,-105.2 -111.3,-106.4 -111.1,-107.6 -110.8,-109.4 -110.6,-110.8 -110.4,-112 -110.2,-113.2 -110,-114.5 -109.8,-115.7 -109.6,-116.9 -109.4,-118.3 -109.2,-119.7 -109,-121 -108.8,-122.4 -108.6,-123.8 -108.4,-125 -108.2,-126.3 -107.9,-127.6 -107.7,-128.8 -107.5,-130.2 -107.3,-131.6 -107.1,-132.9 -106.9,-134.3 -106.7,-135.7 -106.5,-136.9 -106.3,-138.2 -106.1,-139.5 -105.8,-141.3 -105.6,-142.7 -105.4,-144 -105.2,-145.3 -104.9,-146.6 -104.7,-147.9 -104.5,-149.3 -104.3,-150.8 -104.1,-152.3 -103.9,-153.8 -103.7,-155.3 -103.5,-156.7 -103.3,-158 -103,-159.3 -102.8,-160.6 -102.6,-161.9 -102.4,-163.1 -102.2,-164.4 -101.9,-166 -101.6,-167.8 -101.4,-169.4 -101.1,-171.1 -100.8,-172.7 -100.6,-174.6 -100.4,-176.3 -100.1,-177.7 -99.9,-179 -99.6,-180.9 -99.4,-182.1 -99.2,-183.4 -98.9,-185 -98.6,-187 -98.4,-188.4 -98.2,-189.9 -97.9,-191.3 -97.7,-192.9 -97.5,-194.3 -97.3,-195.9 -97,-197.5 -96.8,-199.1 -96.6,-200.8 -96.4,-202.3 -96.1,-203.7 -95.9,-205 -95.6,-206.9 -95.4,-208.4 -95.1,-209.9 -94.9,-211.4 -94.6,-213.4 -94.4,-215 -94.1,-216.4 -93.9,-217.8 -93.6,-219.8 -93.4,-221.4 -93.1,-222.8 -92.8,-224.7 -92.5,-226.9 -92.3,-228.4 -92,-229.9 -91.8,-231.4 -91.6,-233 -91.4,-234.5 -91.1,-236 -90.9,-237.5 -90.6,-239.6 -90.3,-241.3 -90,-242.8 -89.8,-244.4 -89.5,-246.5 -89.2,-248 -89,-249.3 -88.7,-251.3 -88.4,-253.3 -88.1,-254.8 -87.9,-256.4 -87.6,-258.4 -87.3,-259.9 -87,-261.4 -86.7,-263.4 -86.4,-265.4 -86.1,-267 -85.9,-268.5 -85.6,-270.4 -85.3,-271.9 -85,-273.6 -84.8,-275.3 -84.6,-276.9 -84.3,-278.5 -84.1,-280 -83.8,-281.7 -83.4,-283.9 -83,-286.1 -82.8,-287.9 -82.4,-290.3 -82.1,-292.2 -81.9,-293.6 -81.5,-295.6 -81.1,-297.6 -80.9,-299 -80.6,-300.5 -80.2,-302.4 -80,-303.9 -79.8,-305.5 -79.5,-307.1 -79.3,-308.7 -79.1,-310.2 -78.9,-311.8 -78.6,-313.2 -78.4,-314.6 -78.1,-316.4 -77.9,-318.1 -77.6,-319.5 -77.4,-321 -77.2,-322.4 -77,-324 -76.8,-325.4 -76.7,-327 -76.5,-328.7 -76.3,-330.5 -76.2,-331.9 -76.1,-333.3 -76,-334.5 -76,-335.7 -76,-337 -76,-338.2 -76,-339.4 -76,-340.7 -76,-341.8 -76,-343.1 -76.1,-344.3 -76.3,-345.9 -76.5,-347.4 -76.7,-348.9 -76.9,-350.1 -77.1,-351.7 -77.3,-352.8 -77.5,-353.9 -77.7,-355 -78.1,-356.4 -78.4,-357.3 -78.6,-358.2 -79,-359.6 -79.4,-361 -79.6,-362 -80.1,-363.5 -80.6,-365 -81,-366 -81.5,-367.2 -82,-368.4 -82.3,-369.1 -82.6,-369.8 -83.2,-371.1 -83.7,-372.2 -84.3,-373.3 -84.8,-374.4 -85.4,-375.5 -85.7,-375.9 -86.2,-376.7 -86.7,-377.5 -87.5,-378.7 -88.3,-379.9 -89.3,-381.6 -90.3,-383 -91.3,-384.4 -92,-385.4 -93.2,-387 -94.2,-388.1 -95,-389.1 -95.8,-390.1 -96.8,-391.2 -97.5,-392 -98.6,-393.3 -99.9,-394.7 -101.2,-396 -102.7,-397.5 -104,-398.7 -104.9,-399.4 -105.6,-400 -106.3,-400.7 -106.8,-401.1 -107.6,-401.8 -108.8,-402.9 -110.1,-403.9 -111.3,-404.9 -112.4,-405.8 -113.2,-406.4 -113.5,-406.7 -113.9,-407.1 -114.9,-407.9 -115.9,-408.7 -116.8,-409.5 -117.8,-410.3 -118.8,-411.1 -119.2,-411.5 -120,-412.2 -120.8,-412.9 -121.6,-413.5 -122.2,-414.1 -123.8,-415.3 -125,-416.3 -126.8,-417.8 -128.6,-419.4 -130.9,-421.3 -133.3,-423.1 -136.2,-424.9 -138.5,-426 -143.2,-425.5 -147.6,-424.4 -151.2,-419.5 -154.2,-413.8 -157.4,-407.1 -158.1,-401.7 -158.6,-396.4 -159,-393.6 -159.4,-391.3 -159.6,-389.9 -159.9,-388.4 -160.2,-386.9 -160.3,-386 -160.4,-385.2 -160.6,-384 -160.7,-382.9 -160.9,-381.6 -161.1,-380.3 -161.3,-379 -161.4,-378.2 -161.6,-377 -161.7,-375.7 -161.9,-374.4 -162.1,-373.1 -162.3,-371.8 -162.4,-371 -162.6,-370 -162.8,-368.9 -163,-367.7 -163.2,-366.5 -163.4,-365.3 -163.6,-364.1 -163.7,-362.9 -163.9,-361.6 -164.1,-360.3 -164.3,-359 -164.5,-357.6 -164.7,-356.2 -164.9,-355 -165.1,-353.8 -165.3,-352.5 -165.5,-351.2 -165.7,-350 -165.9,-348.6 -166.1,-347.2 -166.3,-345.8 -166.5,-344.5 -166.7,-343.1 -166.9,-341.8 -167.1,-340.5 -167.4,-338.7 -167.6,-337.4 -167.8,-335.9 -168,-334.5 -168.2,-333 -168.4,-331.7 -168.6,-330 -168.8,-328.6 -168.9,-327.1 -169.1,-325.7 -169.3,-324.1 -169.5,-322.7 -169.7,-321.2 -169.9,-319.8 -170.2,-317.9 -170.4,-316.4 -170.6,-314.8 -170.8,-313.3 -171,-311.7 -171.1,-310.6 -171.3,-309 -171.5,-307.5 -171.7,-305.8 -171.9,-304.1 -172,-302.4 -172.2,-300.8 -172.4,-299.4 -172.6,-297.8 -172.8,-296.3 -173,-294.4 -173,-293 -173.2,-290.9 -173.4,-289.2 -173.6,-287.2 -173.8,-285.4 -174,-283.4 -174,-281.9 -174.1,-280.2 -174.2,-278.7 -174.3,-277.4 -174.5,-275.8 -174.7,-274.1 -174.8,-272.5 -174.9,-270.7 -175,-268.9 -175.1,-267.4 -175.2,-266 -175.3,-264.5 -175.4,-263 -175.5,-261.3 -175.5,-259.8 -175.5,-258.5 -175.6,-256.8 -175.7,-255.2 -175.9,-253.6 -176.1,-251.8 -176.3,-250 -176.4,-248.4 -176.5,-246.7 -176.5,-245.2 -176.5,-243.6 -176.5,-242 -176.5,-240.4 -176.5,-238.9 -176.5,-237.2 -176.5,-235.8 -176.6,-234.4 -176.8,-232.8 -177,-231.4 -177.2,-229.8 -177.4,-228.2 -177.5,-226.2 -177.5,-224.7 -177.5,-223 -177.5,-221.5 -177.5,-219.9 -177.5,-218.4 -177.5,-216.7 -177.6,-215.1 -177.7,-213.4 -177.8,-211.9 -177.9,-210.4 -178,-209.2 -178,-208 -178.1,-206.5 -178.2,-204.7 -178.3,-203 -178.4,-201.3 -178.5,-199.3 -178.5,-197.9 -178.5,-196.4 -178.6,-195 -178.7,-193.3 -178.8,-191.9 -178.9,-190.1 -179,-188.4 -179,-186.5 -179,-184.9 -179,-183.3 -179.1,-181.6 -179.2,-179.9 -179.3,-178.5 -179.4,-176.8 -179.5,-175 -179.5,-173.5 -179.6,-172.1 -179.7,-170.3 -179.8,-168.8 -179.9,-167.3 -180,-165.8 -180,-164.3 -180,-162.9 -180,-161.3 -180,-159.9 -180,-158.6 -180,-157.5 -180.1,-156.1 -180.2,-154.6 -180.3,-152.9 -180.4,-151 -180.6,-149.1 -180.7,-147.4 -180.8,-146 -180.9,-144.4 -181,-143 -181,-141.3 -181,-140 -181,-138.4 -181,-137 -181,-135.6 -181,-134.5 -181.1,-132.8 -181.2,-131.1 -181.3,-129.6 -181.4,-127.9 -181.5,-126 -181.6,-124.5 -181.7,-123.1 -181.8,-121.4 -181.9,-120 -182,-118.4 -182,-116.9 -182,-115.3 -182,-114 -182,-112.4 -182,-111.2 -182,-110 -182.1,-108.6 -182.2,-106.9 -182.3,-105.2 -182.4,-103.5 -182.5,-101.6 -182.5,-100 -182.5,-98.4 -182.6,-97 -182.7,-95.5 -182.8,-93.9 -182.9,-92.4 -183,-91 -183,-89.4 -183,-87.9 -183,-86.6 -183.1,-84.8 -183.2,-83 -183.3,-81.2 -183.4,-79.4 -183.5,-77.4 -183.5,-75.9 -183.5,-74.3 -183.5,-73 -183.5,-71.4 -183.6,-70 -183.7,-68.5 -183.8,-67.3 -183.9,-66 -184.1,-64.5 -184.2,-63 -184.3,-61.4 -184.4,-59.6 -184.5,-57.6 -184.5,-56.1 -184.5,-54.5 -184.5,-53 -184.5,-51.5 -184.5,-50.1 -184.5,-48.4 -184.5,-47 -184.6,-45.7 -184.7,-44.6 -184.9,-43 -185.1,-41.7 -185.3,-40.1 -185.4,-38.4 -185.5,-36.4 -185.5,-35 -185.5,-33.2 -185.5,-31.7 -185.5,-30.2 -185.5,-28.8 -185.5,-27.2 -185.5,-26 -185.6,-24.5 -185.7,-23.1 -185.8,-21.9 -186,-20.3 -186.2,-18.7 -186.3,-17 -186.4,-15.4 -186.5,-13.5 -186.5,-12.1 -186.5,-10.4 -186.5,-9.1 -186.5,-7.5 -186.5,-6 -186.5,-4.4 -186.5,-3.1 -186.6,-1.7 -186.7,-0.6 -186.9,1 -187.1,2.3 -187.3,3.9 -187.4,5.6 -187.5,7.5 -187.5,8.9 -187.5,10.6 -187.5,12.4 -187.5,14.4 -187.5,16.2 -187.5,18.1 -187.6,19.9 -187.7,21.4 -187.8,22.5 -188,24.2 -188.2,25.6 -188.3,27.1 -188.4,28.7 -188.5,30.5 -188.5,31.9 -188.5,33.6 -188.5,35 -188.5,36.5 -188.5,38.1 -188.5,39.6 -188.6,41 -188.7,42.6 -188.8,43.9 -188.9,45 -189.1,46.4 -189.2,47.9 -189.3,49.5 -189.4,51.3 -189.5,53.3 -189.5,54.9 -189.5,56.6 -189.5,58 -189.5,59.5 -189.5,60.9 -189.5,62.6 -189.5,63.9 -189.6,65.5 -189.7,66.8 -189.8,68 -190,69.4 -190.2,71 -190.3,72.5 -190.4,74.3 -190.5,76 -190.5,77.5 -190.5,79 -190.5,80.6 -190.5,81.9 -190.5,83.6 -190.5,85 -190.5,86.5 -190.6,87.9 -190.7,89.6 -190.8,90.9 -190.9,92.3 -191,93.4 -191.1,95 -191.2,96.3 -191.3,97.9 -191.4,99.6 -191.5,101.6 -191.5,102.9 -191.5,104.6 -191.5,106 -191.5,107.5 -191.5,108.9 -191.5,110.6 -191.6,112.3 -191.7,114 -191.8,115.5 -192,117.2 -192.2,118.9 -192.3,120.4 -192.4,122.2 -192.5,123.9 -192.5,125.6 -192.5,127 -192.5,128.5 -192.5,129.9 -192.5,131.6 -192.5,132.9 -192.5,134.6 -192.6,136 -192.7,137.3 -192.8,138.3 -193,140 -193.2,141.3 -193.3,143 -193.4,144.7 -193.5,146.7 -193.5,148 -193.5,149.6 -193.5,151 -193.5,152.5 -193.5,153.9 -193.5,155.6 -193.5,157 -193.5,158.3 -193.6,159.4 -193.8,161 -194,162.3 -194.2,163.9 -194.4,165.6 -194.5,167.4 -194.5,168.8 -194.5,170.2 -194.5,171.6 -194.5,173 -194.5,174.6 -194.5,176 -194.5,177.5 -194.5,178.7 -194.7,180.2 -194.9,181.4 -195.1,183 -195.3,184.5 -195.5,186.4 -195.5,187.8 -195.5,189.5 -195.5,190.9 -195.5,192.7 -195.5,194.1 -195.5,195.7 -195.5,197.2 -195.5,198.7 -195.5,200 -195.6,201.3 -195.7,202.5 -195.8,203.5 -196,205 -196.2,206.3 -196.3,208 -196.4,210 -196.5,212.2 -196.5,214 -196.5,215.8 -196.5,217.6 -196.5,219 -196.6,220.4 -196.7,221.8 -196.8,223.2 -196.9,224.3 -197,225.4 -197.1,226.9 -197.2,228.4 -197.3,229.9 -197.4,231.5 -197.5,233.3 -197.5,234.8 -197.5,236.1 -197.5,237.4 -197.5,238.8 -197.5,240.2 -197.6,241.3 -197.7,242.7 -197.8,244.1 -197.9,245.4 -198,246.5 -198,247.9 -198,248.9 -198,249.9 -198,250.7 -198.1,252 -198.2,253.1 -198.3,254.4 -198.4,255.9 -198.5,257.5 -198.5,258.6 -198.4,259.8 -198.2,261.3 -198,262.6 -197.8,263.8 -197.6,265 -197.5,266 -197.3,267 -197.1,268 -196.9,269 -196.7,270 -196.4,270.9 -196.2,271.7 -196,272.5 -195.6,273.6 -194.8,275.3 -194,277.2 -193.1,278.8 -192.2,280.4 -191.2,281.9 -190.5,282.9 -189.7,283.9 -189,284.7 -188.3,285.5 -187.6,286.2 -187,286.8 -185.8,287.8 -184.4,288.9 -183,290 -181.8,290.9 -180.5,291.8 -179.5,292.3 -178.5,292.9 -177.1,293.5 -175.7,294.1 -173.8,294.8 -172.3,295.3 -171,295.6 -169.6,296 -168.2,296.4 -167.2,296.6 -165.7,297 -164.1,297.4 -162.9,297.6 -161.7,297.8 -160.6,298 -160,298 -159,298.2 -157.9,298.4 -156.7,298.6 -155.4,298.8 -154,299 -153.1,299 -152.3,299 -151.1,299.2 -149.9,299.4 -148.7,299.6 -147.4,299.8 -146.1,300 -145.1,300 -144.1,300 -143.1,300 -142.1,300 -140.9,300 -139.7,300 -138.5,300 -136.9,299.9 -135.4,299.8 -134.1,299.7 -133,299.6 -132,299.5 -131.4,299.5 -130.7,299.4 -129.9,299.3 -129.1,299.2 -128.1,299.1 -126.7,298.9 -125.4,298.8 -124.2,298.7 -123,298.6 -121.5,298.3 -120.5,298.1 -119.4,297.9 -117.8,297.6 -116.2,297.2 -115.1,297 -114,296.8 -113,296.6 -112.5,296.5 -111.8,296.4 -110.4,296.1 -109,295.8 -107.3,295.3 -105.6,294.8 -104.1,294.4 -103.3,294.1 -102.5,293.8 -101.6,293.6 -100.7,293.3 -99.8,293 -98.4,292.5 -97,292 -95.7,291.5 -94.4,291 -93.1,290.5 -92.3,290.2 -91.2,289.8 -90.2,289.3 -89.2,288.9 -88.2,288.4 -86.8,287.8 -85.7,287.2 -84.8,286.8 -83.6,286.2 -82.4,285.6 -81.2,285 -80,284.4 -78.5,283.6 -77.3,282.9 -76.1,282.2 -75.3,281.7 -74.3,281.1 -73.2,280.3 -72.1,279.5 -71,278.8 -69.9,278 -68.6,277 -67.7,276.3 -66.8,275.7 -65.9,275 -64.7,274.1 -63.8,273.5 -62.5,272.6 -61.2,271.7 -59.8,270.7 -58.5,269.7 -57.4,268.7 -56.6,267.9 -55.8,267 -55.1,266.2 -54.3,265.4 -53.3,264.6 -52.3,263.8 -51.2,262.9 -50,261.9 -49,261 -48,260 -46.6,258.6 -45.2,257.2 -43.8,255.8 -42.6,254.5 -41.4,253.2 -40.4,252 -39.5,250.9 -38.7,249.9 -37.7,248.8 -36.5,247.4 -35.7,246.4 -34.9,245.4 -34.1,244.4 -33.1,243.1 -32.4,242.2 -31.7,241.3 -31,240.3 -30.2,239.2 -29.4,238.1 -28.7,237 -27.9,235.9 -26.9,234.6 -25.9,233.2 -25.3,232.2 -24.6,231.2 -23.7,229.7 -23.1,228.5 -22.6,227.5 -22,226.5 -21.2,225 -20.6,224 -19.8,222.7 -19.1,221.4 -18.4,220.1 -17.7,218.9 -17.1,217.7 -16.5,216.6 -15.9,215.4 -15.2,214 -14.8,213 -14.1,211.5 -13.6,210.2 -13,208.9 -12.6,207.8 -12,206.5 -11.7,205.7 -11.1,204.3 -10.6,203 -10,201.7 -9.6,200.6 -8.9,198.9 -8.5,197.8 -8,196.7 -7.6,195.6 -6.9,193.9 -6.5,192.7 -6,191.5 -5.5,190 -4.9,188.5 -4.6,187.5 -4.1,186.4 -3.6,185 -3.2,183.8 -2.7,182.3 -2.2,180.9 -1.8,179.5 -1.2,177.9 -0.6,176.4 -0.1,175.2 0.5,173.5 1.1,172 1.4,171 1.9,169.7 2.3,168.3 2.8,167.1 3.2,165.9 3.7,164.7 4.1,163.5 4.7,162.1 5.1,161 5.6,159.9 6.2,158.5 6.7,157.4 7.2,156.4 7.8,155 8.4,153.6 8.8,152.5 9.4,151.2 9.9,149.7 10.4,148.6 10.9,147.5 11.4,146.4 12,145.1 12.5,144.1 13.1,142.9 13.7,141.7 14.4,140.3 14.9,139.3 15.6,137.9 16.2,136.7 16.8,135.5 17.3,134.5 17.8,133.5 18.5,132.6 19.1,131.7 19.8,130.6 20.6,129.5 21.4,128.3 21.8,127.5 22.4,126.6 23.2,125.5 24,124.4 24.8,123.4 25.6,122.4 26.6,121.1 27.3,120.2 28,119.3 28.7,118.5 29.6,117.6 30.3,117 31,116.3 31.8,115.5 32.7,114.5 33.6,113.5 34.5,112.5 35.5,111.5 36.5,110.5 37.5,109.5 38.5,108.5 39.5,107.5 40.4,106.7 41.3,105.9 42.3,105.1 43.5,104.2 44.7,103.3 46,102.3 47.3,101.3 48.4,100.4 49.2,99.7 49.9,99.2 50.9,98.4 51.8,97.7 52.7,97 53.9,96.3 55.1,95.5 56.3,94.7 57.5,94 58.7,93.3 59.6,92.6 60.7,91.9 61.4,91.5 62.4,90.9 63.6,90.3 64.8,89.7 66,89.1 67.2,88.5 68.3,87.9 69.2,87.4 70.4,86.8 71.6,86.2 72.8,85.6 73.8,85.2 74.8,84.7 76,84.3 77.2,83.8 78.4,83.4 79.6,83 80.8,82.6 81.9,82.2 82.8,81.9 84,81.5 85.4,80.9 86.9,80.4 88,80 89.1,79.6 89.9,79.3 91.1,79.1 92.2,78.8 93.3,78.5 94.8,78.2 96.4,77.9 97.4,77.6 98.4,77.4 99.9,77.1 101.1,76.9 102.2,76.6 103.3,76.4 104.7,76.2 106.1,76 107.4,75.8 108.7,75.6 110.1,75.4 111.3,75.2 112,75.1 112.9,75 114,75 115.2,75 116.5,75 118.5,74.9 120.3,74.8 121.9,74.7 123.3,74.6 124.8,74.5 125.6,74.5 126.4,74.5 127.2,74.5 128.6,74.6 129.8,74.7 131,74.8 132.4,74.9 134,75.1 135.2,75.2 136.4,75.3 137.9,75.4 139.2,75.5 140.3,75.5 141.2,75.5 142.5,75.7 143.7,75.9 144.9,76.1 146.1,76.3 147.4,76.5 148.6,76.7 149.6,76.9 150.6,77.1 152,77.4 153.3,77.8 154.2,78 155.5,78.3 156.8,78.6 157.8,78.9 159.1,79.2 160.4,79.5 161.3,79.8 162.6,80.2 163.8,80.6 164.7,80.9 165.8,81.3 167.2,81.8 168.2,82.2 169.6,82.7 171,83.2 172.2,83.7 173.1,84 174,84.4 174.9,84.8 176.2,85.4 177.5,85.9 178.8,86.5 180.1,87 181,87.4 181.5,87.6 182,87.9 183.2,88.5 184.5,89.2 185.8,89.9 187.1,90.6 188.8,91.5 189.8,92 190.7,92.5 191.6,92.9 193.1,93.7 194.2,94.2 195.3,94.8 197,95.6 198.7,96.5 199.8,97 200.9,97.6 202.1,98.2 202.7,98.5 203.8,99.1 205.2,99.8 206.6,100.5 207.9,101.1 209.2,101.8 210.3,102.2 211.3,102.7 212.3,103.2 213.5,103.8 214.7,104.4 215.6,104.9 216.7,105.5 217.9,106.1 218.9,106.6 220.2,107.3 221.8,108.1 223,108.7 224.1,109.2 225.5,109.9 226.6,110.4 227.6,110.9 228.6,111.4 229.6,111.9 230.7,112.5 231.8,113 232.8,113.5 234.3,114.2 235.8,114.9 236.9,115.4 238,115.9 239,116.4 239.9,116.8 241,117.4 242.1,118 243.4,118.7 244.7,119.4 245.8,120 246.7,120.5 248.2,121.1 249.5,121.7 250.8,122.2 251.9,122.7 253,123.2 253.9,123.7 254.8,124.2 255.7,124.7 256.6,125.2 258.2,125.9 259.4,126.5 260.6,127 261.8,127.6 263,128.2 263.5,128.5 264.3,129 265.3,129.6 266.3,130.2 267.5,130.8 268.8,131.6 270.5,132.4 272,133.2 273.5,133.9 274.8,134.6 276,135.2 276.5,135.5 277,135.8 277.9,136.5 278.8,137.1 279.7,137.7 280.9,138.6 282.1,139.4 282.9,139.9 283.9,140.7 285.3,141.8 286.4,142.7 287.5,143.6 288.6,144.5 289.9,145.5 290.8,146.2 291.7,146.8 292.6,147.5 293.5,148.3 294,148.8 294.7,149.5 295.4,150.3 296.1,151 297,151.9 297.9,152.8 298.6,153.5 299.3,154.2 299.9,155 300.5,155.8 301.1,156.6 301.7,157.3 302.4,158.3 303.2,159.3 303.7,160 304.4,161 305.1,162.1 305.6,162.9 306.3,164 307,165.1 307.5,165.9 308,166.7 308.6,167.7 309,168.4 309.5,169.3 310.2,170.5 310.8,171.7 311.4,172.7 311.9,173.7 312.5,174.7 312.8,175.4 313.3,176.3 313.7,177.2 314.2,178.1 314.5,178.8 315,179.8 315.3,180.6 315.6,181.4 316,182.6 316.4,183.8 316.7,184.7 317.1,186 317.5,187.3 317.7,188.2 318,189.1 318.2,190 318.3,190.6 318.4,191.5 318.5,192.5 318.6,193.6 318.7,194.8 318.8,196 318.9,197 319,198 318.9,199 318.8,200 318.7,200.9 318.6,201.7 318.5,202.4 318.5,203 318.3,203.9 318.1,204.8 317.7,206 317.3,207.2 316.9,208.4 316.6,209.1 316.3,209.8 316.2,210.2 316,210.6 315.8,211 315.4,211.7 315,212.4 314.3,213.4 313.7,214.4 312.7,215.8 312,217 311.2,218.1 310.7,218.9 309.8,220.1 309.2,220.8 308.6,221.5 308,222.3 307.3,223 307,223.3 306.7,223.7 306.3,224 306,224.3 305.3,225 304.5,225.6 303.6,226.3 302.7,227.2 301.7,228 301,228.6 300.2,229.4 299.4,230.1 298.7,230.7 297.9,231.5 296.9,232.3 295.9,233.1 295,233.9 294,234.6 292.8,235.4 291.8,236.2 290.9,236.8 290,237.4 288.8,238.3 287.9,238.9 287.1,239.4 286,240.2 284.8,241.1 283.9,241.7 283,242.4 282.1,243.1 281.3,243.6 280.3,244.2 279.3,244.9 278.3,245.5 277.3,246.1 276.3,246.8 275.3,247.4 274.3,248 273.3,248.7 272,249.4 270.9,250 269.9,250.6 268.6,251.3 267.3,252 266.3,252.7 265,253.4 263.9,254 262.9,254.6 261.6,255.3 260.3,256 259.2,256.7 257.9,257.4 256.8,258 255.8,258.6 254.8,259.1 253.9,259.6 252.7,260.3 251.5,260.9 250.3,261.5 248.8,262.4 247.3,263.2 246.2,263.8 245.1,264.5 243.8,265.2 242.8,265.7 241.4,266.5 240.1,267.2 238.8,267.9 237.9,268.5 236.6,269.2 235.6,269.7 234.4,270.4 233,271.2 231.6,271.9 230.3,272.7 229,273.5 227.9,274.1 227,274.6 225.6,275.4 224.4,276 222.9,276.8 221.4,277.6 219.7,278.5 218.2,279.4 216.7,280.2 215.6,280.8 214.5,281.5 213.6,282 212.6,282.5 211.4,283.2 210.2,283.8 208.7,284.6 207.2,285.5 206,286.1 205.1,286.6 203.8,287.4 202.8,287.9 201.6,288.5 200.2,289.3 198.8,290 197.5,290.7 196.2,291.5 195,292.1 194.1,292.6 192.8,293.4 191.8,293.9 190.5,294.6 189.2,295.4 187.9,296.1 187,296.6 185.7,297.4 184.6,297.9 183.4,298.5 182,299.3 180.6,300 179.3,300.7 178,301.5 176.9,302.1 176,302.6 174.5,303.5 173.2,304.1 172,304.7 170.6,305.5 169.2,306.2 168.2,306.7 166.9,307.5 165.6,308.2 164.5,308.8 163.2,309.6 161.7,310.4 160.6,311 159.5,311.7 158.4,312.3 157.5,312.8 156.5,313.4 155.5,313.9 154.5,314.4 152.9,315.3 151.3,316.1 150.1,316.7 148.6,317.6 147.1,318.4 146,319 144.3,320 142.7,320.9 141.4,321.6 140.1,322.4 138.7,323.1 137.9,323.5 136.7,324.2 135.5,324.8 134,325.6 132.7,326.4 131.4,327.1 130.3,327.7 129.2,328.4 128.3,328.8 127.1,329.4 125.6,330.3 124.3,331 123,331.7 121.5,332.6 120.4,333.2 119.3,333.8 118.2,334.5 117.1,335.1 116.2,335.6 114.9,336.4 113.9,336.9 112.7,337.5 111.5,338.2 110.3,338.8 108.9,339.5 107.5,340.3 106.3,340.9 104.7,341.7 103.2,342.6 102.3,343.1 101.1,343.8 99.9,344.6 99,345.1 98.1,345.6 97.2,346.2 96.1,346.7 94.7,347.4 93.3,348.2 91.9,348.9 90.3,349.7 88.9,350.6 87.8,351.2 86.7,351.8 85.4,352.6 84.3,353.3 83.5,353.7 82,354.5 80.6,355.3 79.4,355.9 78.2,356.5 76.8,357.3 75.7,357.9 74.6,358.5 73.2,359.4 71.8,360.2 70.5,360.9 69.4,361.6 68.3,362.2 67.3,362.7 66.1,363.3 64.4,364.2 62.9,365 61.4,365.8 60.1,366.5 58.4,367.5 57.3,368.1 56.2,368.7 54.8,369.6 53.3,370.5 52.4,371 51.3,371.7 49.9,372.6 48.7,373.2 47.6,373.8 46.3,374.6 45.2,375.2 44.4,375.6 43.3,376.2 42,376.8 40.6,377.5 39.2,378.3 37.7,379 36.4,379.7 35,380.6 33.9,381.2 32.8,381.8 31.7,382.5 30.3,383.4 29.2,384 28.1,384.7 26.7,385.5 25.4,386.2 24.3,386.8 23.1,387.5 21.9,388.1 21,388.6 20.1,389.2 18.7,389.9 17.4,390.5 16.1,391.2 14.6,392 12.7,392.9 11.6,393.5 10.5,394.2 8.8,395.2 7.3,396 6.2,396.7 4.8,397.5 3.1,398.5 2,399.1 0.8,399.8 -0.6,400.6 -1.7,401.2 -2.8,401.7 -4.1,402.4 -5.6,403.3 -7,404 -8.4,404.8 -9.5,405.5 -10.8,406.2 -12,406.7 -13.5,407.5 -15,408.3 -16.9,409.2 -18.7,410.2 -20.4,411.2 -21.9,412.1 -23.4,413 -25.2,414.1 -26.8,415 -28.5,416 -30,416.8 -31.9,417.8 -33.1,418.5 -34.5,419.3 -36,420.2 -37.5,421.1 -38.7,421.8 -39.9,422.5 -40.9,423.1 -42.3,423.7 -43.8,424.4 -45.4,425.2 -47.4,426.2 -49.3,427.2 -50.5,427.9 -51.9,428.7 -53.4,429.6 -54.6,430.3 -56,431.1 -57.5,431.9 -58.9,432.7 -60.4,433.5 -61.8,434.3 -63.2,435.1 -64.9,436.1 -66.4,437 -67.6,437.7 -69,438.5 -70.3,439.2 -71.2,439.8 -72.9,440.6 -74.5,441.4 -76.3,442.3 -78,443.2 -79.7,444.1 -80.9,444.8 -82.4,445.7 -83.6,446.4 -85,447.2 -86.7,448.1 -88.1,448.9 -89.6,449.7 -91,450.5 -92.4,451.3 -93.9,452.2 -95.4,453.1 -96.6,453.8 -97.8,454.5 -98.9,455.1 -100.3,455.8 -101.8,456.5 -103.4,457.3 -105.3,458.3 -107.2,459.3 -108.4,460 -110.1,461 -112,462.1 -113.6,463 -115.1,463.9 -116.9,464.8 -118.4,465.7 -119.6,466.4 -121,467.2 -122.7,468.1 -124.1,468.9 -125.5,469.7 -126.9,470.5 -128.1,471.2 -129.1,471.8 -130.6,472.6 -131.8,473.2 -133.2,473.9 -134.8,474.7 -136.7,475.6 -138.1,476.4 -139.8,477.3 -141.5,478.3 -143,479.2 -144.2,479.9 -145.6,480.7 -147.1,481.6 -148.3,482.3 -149.5,483 -150.9,483.8 -152.3,484.6 -153.6,485.3 -154.9,486 -156.2,486.6 -157.9,487.5 -159.4,488.3 -160.7,489 -162.2,489.7 -164,490.7 -165.2,491.4 -166.4,492.1 -168.1,493.1 -169.6,494 -170.8,494.7 -172.2,495.5 -173.6,496.3 -174.7,496.8 -176.1,497.6 -177.5,498.4 -178.9,499.2 -180.3,499.9 -181.5,500.6 -183,501.4 -184.6,502.3 -186,503.1 -187.4,503.9 -188.7,504.7 -190.1,505.5 -191.4,506.2 -192.7,506.8 -194.2,507.6 -196,508.6 -197.2,509.3 -198.4,509.9 -200.2,511 -201.8,512 -203.2,512.7 -204.5,513.4 -205.8,514.2 -207,514.8 -208.4,515.4 -210,516.3 -211.7,517.2 -213.4,518.1 -214.8,518.8 -216.2,519.6 -217.6,520.4 -219,521.2 -220.4,521.9 -221.8,522.8 -223.1,523.6 -224.1,524.2 -225,524.8 -226.5,525.6 -227.7,526.2 -229,526.9 -230.7,527.8 -232.4,528.6 -233.5,529.3 -235.2,530.3 -236.7,531.2 -237.8,531.8 -239,532.5 -240.7,533.5 -241.8,534.2 -243,534.8 -244.2,535.5 -245.3,536.2 -246.5,536.8 -247.7,537.3 -249,538 -250.6,538.9 -252.3,539.8 -253.4,540.4 -254.7,541.2 -256.2,542.1 -257.4,542.8 -258.5,543.4 -259.8,544.2 -261,544.9 -261.8,545.4 -263.2,546.1 -264.7,546.9 -266,547.6 -267.4,548.3 -269.1,549.2 -270.3,549.9 -271.4,550.5 -272.7,551.2 -273.8,551.9 -274.6,552.3 -276,553 -277.5,553.8 -278.8,554.5 -280.7,555.4 -282.6,556.4 -283.8,557.1 -285.3,557.9 -287.2,558.9 -288.5,559.7 -289.8,560.4 -291.1,561.1 -292,561.7 -292.5,562 -293.7,562.6 -294.9,563.3 -296.1,563.9 -297.5,564.6 -298.9,565.3 -299.6,565.7 -300.7,566.3 -301.9,566.9 -302.9,567.4 -304.3,568.2 -305.7,568.9 -306.7,569.4 -307.6,569.9 -308.9,570.6 -309.8,571.1 -310.9,571.7 -312.3,572.5 -313.8,573.3 -314.9,573.9 -316.2,574.6 -317.3,575.2 -318.3,575.7 -319.2,576.2 -320.3,576.8 -321.2,577.3 -322.3,577.9 -323.2,578.4 -324.3,579 -325.2,579.5 -326.3,580 -327.2,580.5 -328.3,581 -329.5,581.7 -330.7,582.4 -331.7,583 -332.7,583.6 -333.7,584.2 -334.4,584.6 -335.1,584.9 -336.3,585.6 -337.5,586.2 -338.5,586.8 -339.5,587.3 -340.5,587.9 -341,588.1 -341.5,588.4 -342.5,588.8 -343.6,589.4 -344.7,589.9 -346.1,590.6 -347.5,591.2 -348.5,591.7 -349.4,592 -350.3,592.3 -351.1,592.5 -352,592.7 -352.9,592.9 -353.9,593.1 -355,593.3 -356,593.4 -357,593.5 -358,593.5 -359.2,593.5 -360.4,593.5 -361.5,593.4 -362.5,593.3 -363.5,593.2 -364.2,593 -364.9,592.8 -365.6,592.6 -366.7,592.1 -367.7,591.6 -368.6,591.1 -369.7,590.4 -370.7,589.7 -371.3,589.3 -371.8,588.8 -372.4,588.4 -372.6,588.1 -372.9,587.9 -373.1,587.6 -373.7,587 -374.5,585.9 -375.4,584.7 -376.4,583.1 -377.6,581.2 -378.6,579.3 -379.4,577.5 -380.2,575.9 -380.8,574.6 -381.2,573.6 -381.5,572.8 -382,571.8 -382.5,570.6 -383,569.4 -383.5,568.2 -384.2,566.5 -384.8,565.1 -385.3,563.8 -385.9,562.4 -386.7,560.7 -387.3,559.4 -387.7,558.3 -388.3,557 -388.8,555.8 -389.3,554.6 -389.9,553.4 -390.5,552.2 -391.1,551 -391.7,549.8 -392.1,548.9 -392.4,548.2 -392.7,547.5 -393,546.5 -393.4,545.5 -393.8,544.5 -394.2,543.6 -394.6,542.7 -394.8,542.3 -395.2,541.4 -395.6,540.5 -395.9,539.5 -396.3,538.5 -396.7,537.5 -397,536.5 -397.4,535.5 -397.8,534.5 -398.2,533.5 -398.6,532.5 -398.8,532 -399.1,530.9 -399.5,529.7 -399.8,528.5 -400.1,527.3 -400.5,526.1 -400.8,525.1 -401,524.2 -401.2,523.3 -401.5,522.4 -401.8,520.9 -402,519.8 -402.3,518.7 -402.6,517.6 -402.8,516.5 -402.9,516 -403,515.5 -403.1,514.2 -403.3,512.9 -403.5,511.6 -403.7,510.3 -403.9,509 -404,508.4 -404,507.8 -404,507 -404,505.9 -404,504.8 -404,503.6 -404,502.3 -404,501.2 -404,500.2 -404,498.9 -404,497.8 -404,496.6 -404,495.3 -404,494.2 -404,493 -404,491.8 -404,490.6 -404,489.4 -404,488.1 -404,486.9 -404,485.6 -404,484.5 -404,483.3 -404,482 -404,480.8 -403.9,479.6 -403.8,478.4 -403.7,477 -403.6,475.8 -403.5,474.6 -403.5,473.3 -403.5,471.8 -403.5,470.7 -403.5,469.5 -403.5,468.5 -403.5,467.7 -403.4,466.3 -403.3,464.9 -403.2,463.4 -403.1,461.7 -402.9,459.8 -402.8,458.6 -402.7,457.1 -402.6,455.7 -402.5,454.5 -402.5,453.1 -402.5,451.8 -402.5,450.4 -402.5,449.1 -402.5,447.6 -402.5,446 -402.5,444.1 -402.5,442.5 -402.5,440.9 -402.5,439.1 -402.5,437.8 -402.5,436.5 -402.5,435.1 -402.5,433.6 -402.5,432.2 -402.5,430.8 -402.4,429.6 -402.3,428.6 -402.2,427.7 -402,426.4 -401.8,424.9 -401.7,423.3 -401.6,421.5 -401.5,419.4 -401.5,417.9 -401.5,416.3 -401.5,414.9 -401.5,413.5 -401.5,412.2 -401.5,410.8 -401.5,409.4 -401.4,407.9 -401.3,406.3 -401.2,404.8 -401.1,403.2 -401,401.9 -401,400.3 -401,399 -401,397.5 -401,396.1 -401,394.5 -401,393.3 -401,392 -401,391 -400.9,389.4 -400.7,388 -400.5,386.2 -400.3,384.5 -400.1,382.5 -400,381.1 -400,379.5 -400,378.1 -400,376.4 -400,374.9 -400,373.3 -400,371.6 -400,370.1 -400,368.8 -400,367.6 -399.9,366 -399.8,364.4 -399.6,362.8 -399.4,360.9 -399.2,358.9 -399.1,357.2 -399,355.6 -399,353.7 -399,351.7 -399,349.5 -399,347.7 -399,346 -399,344.5 -398.9,342.7 -398.8,341.2 -398.6,339.3 -398.4,337.2 -398.2,334.9 -398.1,333.3 -398,331.4 -398,329.6 -398,327.9 -398,326.2 -398,324.3 -398,322.7 -398,321.3 -397.9,319.5 -397.8,317.6 -397.6,315.7 -397.4,313.5 -397.2,311.4 -397.1,309.5 -397,307.7 -397,305.9 -397,304.1 -397,302.1 -397,300.2 -397,298.5 -397,297 -396.9,295 -396.8,292.9 -396.6,290.9 -396.4,288.8 -396.2,286.5 -396.1,284.7 -396,283 -396,281.2 -396,279.3 -396,277.4 -396,275.7 -396,274.1 -395.9,272 -395.8,270 -395.6,268 -395.4,265.8 -395.2,263.4 -395.1,261.4 -395,259.3 -395,257.1 -395,254.8 -395,252.7 -395,250.9 -394.9,248.7 -394.8,246.7 -394.7,244.8 -394.5,242.7 -394.3,240.4 -394.2,238.4 -394.1,236.3 -394,234.2 -394,232 -394,229.8 -393.9,227.2 -393.8,224.6 -393.7,222 -393.5,219.6 -393.3,217.2 -393.2,215 -393.1,212.8 -393,210.7 -393,208.7 -393,206.9 -392.9,205 -392.8,203 -392.7,200.9 -392.6,198.6 -392.4,196 -392.3,193.7 -392.2,191.5 -392.1,189.3 -392,187.3 -392,185.6 -391.9,183.7 -391.8,181.8 -391.7,179.9 -391.6,177.8 -391.4,175.4 -391.3,173.3 -391.2,171.2 -391.1,169.1 -391,167.1 -391,165.4 -391,163.9 -390.9,162 -390.8,160 -390.7,157.8 -390.5,155.3 -390.3,152.6 -390.2,150.3 -390.1,148.1 -390,146.1 -390,144.4 -390,142.9 -389.9,140.9 -389.8,138.9 -389.7,136.9 -389.6,135.8 -389.5,134.2" style="stroke: rgb(55, 65, 81); stroke-width: 10;"></polygon><polyline vector-effect="non-scaling-stroke" fill="none" points="-389,127.8 -389,126.6 -389,125.5 -389,123.5 -389,121.7 -388.8,119.8 -388.6,118.2 -388.4,116.6 -388.2,114.8 -388,113.1 -388,111.5 -388,109.9 -388,108.5 -388,107.3 -388,105.8 -388,104.6 -388,103.4 -388,102.2 -388,101 -388,100 -388,99 -388,98 -388,97 -388,96.1 -388,95.3 -387.9,94.6 -387.8,94 -387.6,93 -387.4,91.9 -387.2,90.5 -387.1,89 -387,87.4 -387,86.2 -387,85 -387,84 -387,83 -387,81.8 -387,80.6 -387,79.4 -387,78.2 -387,76.9 -387,75.9 -387,75 -387,74.2 -386.9,72.8 -386.7,71.5 -386.5,70.1 -386.3,68.4 -386.1,66.6 -386,65.4 -386,64 -386,62.6 -386,61.4 -386,60.2 -386,58.8 -386,57.6 -386,56.5 -386,55.4 -386,54.4 -386,53.7 -385.9,52.3 -385.8,50.8 -385.7,49.2 -385.5,47.4 -385.3,45.6 -385.2,44.2 -385.1,42.8 -385,41.5 -385,40.1 -385,38.7 -385,37.5 -385,35.9 -385,34.3 -385,33 -385,31.7 -384.9,29.9 -384.8,28.5 -384.7,26.9 -384.6,25.2 -384.5,23.4 -384.4,22.1 -384.3,20.7 -384.2,19.5 -384.1,18.2 -384,16.8 -384,15.4 -384,14 -384,12.6 -384,11.1 -384,9.8 -384,8.3 -384,7 -384,5.6 -384,4.3 -384,2.8 -384,1.5 -384,0.2 -383.9,-0.9 -383.7,-2.3 -383.5,-3.7 -383.3,-5.2 -383.1,-6.7 -383,-8.4 -383,-9.8 -383,-11.2 -383,-12.4 -383,-13.8 -383,-15.2 -383,-16.5 -383,-17.9 -383,-19.2 -383,-20.5 -383,-21.7 -383,-22.8 -383,-23.6 -382.9,-25 -382.7,-26.4 -382.5,-27.8 -382.3,-29.4 -382.1,-31.2 -382,-32.5 -382,-33.9 -382,-35.2 -382,-36.5 -382,-37.9 -382,-39.2 -382,-40.6 -382,-42.1 -382,-43.4 -382,-44.7 -382,-46 -382,-46.9 -382,-47.8 -381.9,-49.3 -381.7,-50.7 -381.5,-52.3 -381.3,-54 -381.1,-55.9 -381,-57.3 -381,-58.5 -381,-59.9 -381,-61.2 -381,-62.6 -381,-63.9 -381,-65.5 -381,-67 -381,-68.9 -381,-70.4 -381,-71.9 -381,-73.2 -380.8,-74.6 -380.6,-76 -380.4,-77.4 -380.2,-79 -380,-80.8 -380,-82.3 -380,-83.7 -380,-85.2 -380,-86.5 -380,-87.9 -380,-89.2 -380,-90.6 -380,-91.9 -380,-93.6 -380,-94.9 -380,-96.2 -379.9,-97.2 -379.7,-98.6 -379.5,-100 -379.3,-101.4 -379.1,-103.2 -379,-104.9 -379,-106.4 -379,-107.7 -379,-109.2 -379,-110.5 -379,-112 -379,-113.6 -379,-115.1 -379,-116.7 -379,-118.2 -378.9,-119.6 -378.8,-120.7 -378.6,-122.3 -378.4,-123.6 -378.2,-125.1 -378.1,-126.7 -378,-128.5 -378,-129.9 -378,-131.5 -378,-133 -378,-134.5 -378,-136 -378,-137.6 -378,-139.1 -378,-140.7 -377.9,-142.2 -377.8,-143.7 -377.7,-144.9 -377.6,-146.1 -377.4,-147.5 -377.3,-148.8 -377.2,-150.2 -377.1,-151.8 -377,-153.6 -377,-154.9 -377,-156.6 -377,-158 -377,-159.5 -377,-160.9 -377,-162.6 -376.9,-163.9 -376.8,-165.7 -376.7,-167.2 -376.6,-168.6 -376.5,-169.7 -376.4,-171.3 -376.3,-172.6 -376.2,-174.2 -376.1,-176.2 -376,-178.3 -376,-180.1 -376,-181.9 -376,-183.7 -376,-185.1 -375.9,-186.4 -375.8,-187.9 -375.7,-189.2 -375.6,-190.3 -375.5,-191.3 -375.4,-192.9 -375.3,-194.3 -375.2,-196 -375.1,-197.6 -375,-199.5 -375,-201 -375,-202.5 -375,-203.9 -375,-205.5 -375,-207 -375,-208.5 -375,-210 -374.9,-211.5 -374.8,-213 -374.7,-214.4 -374.6,-215.6 -374.5,-216.6 -374.4,-218 -374.3,-219.4 -374.2,-221 -374.1,-222.7 -374,-224.6 -374,-226.1 -374,-227.7 -374,-229 -374,-230.6 -374,-232 -373.9,-233.6 -373.8,-235 -373.7,-236.7 -373.6,-238 -373.5,-239.4 -373.5,-240.4 -373.4,-242 -373.3,-243.4 -373.2,-245.2 -373.1,-246.9 -373,-248.8 -373,-250.2 -373,-251.8 -373,-253 -373,-254.4 -372.9,-255.9 -372.8,-257.3 -372.7,-258.6 -372.6,-260.2 -372.5,-261.7 -372.5,-262.9 -372.5,-264.1 -372.4,-265.5 -372.3,-267 -372.2,-268.5 -372.1,-270.3 -372,-272 -372,-273.7 -372,-275 -372,-276.6 -372,-277.9 -372,-279.5 -371.9,-280.9 -371.8,-282.6 -371.7,-283.9 -371.6,-285.3 -371.5,-286.4 -371.4,-288.1 -371.3,-289.7 -371.2,-291.6 -371.1,-293.5 -371,-295.7 -371,-297.2 -371,-298.8 -371,-300.2 -371,-301.8 -371,-303.2 -371,-304.8 -370.9,-306.2 -370.8,-307.8 -370.7,-309.2 -370.6,-310.6 -370.5,-311.7 -370.5,-312.7 -370.4,-314.1 -370.3,-315.4 -370.2,-316.9 -370.1,-318.6 -370,-320.5 -370,-321.9 -370,-323.6 -370,-325 -370,-326.6 -369.9,-328 -369.8,-329.6 -369.7,-330.9 -369.6,-332.4 -369.5,-333.7 -369.5,-335 -369.5,-336 -369.4,-337.5 -369.3,-339.1 -369.2,-340.6 -369.1,-342.4 -369,-344.1 -369,-345.7 -369,-347 -368.9,-348.6 -368.8,-349.9 -368.7,-351.6 -368.6,-352.9 -368.5,-354.6 -368.5,-355.9 -368.5,-357.6 -368.5,-359 -368.5,-360.5 -368.5,-361.6 -368.4,-363.3 -368.3,-364.7 -368.2,-366.3 -368.1,-367.8 -367.9,-369.7 -367.8,-371 -367.7,-372.5 -367.6,-373.9 -367.5,-375.5 -367.5,-376.9 -367.5,-378.6 -367.5,-380 -367.5,-381.6 -367.5,-383 -367.5,-384.5 -367.5,-385.7 -367.5,-387 -367.4,-388.4 -367.2,-390.1 -367,-391.8 -366.8,-393.6 -366.6,-395.6 -366.5,-397.6 -366.5,-399.3 -366.5,-401.1 -366.5,-402.8 -366.5,-404.6 -366.5,-405.9 -366.5,-407.6 -366.5,-408.9 -366.5,-410.3 -366.4,-411.9 -366.3,-413.5 -366.2,-415.1 -366.1,-416.8 -366,-418.8 -366,-420.2 -365.9,-421.9 -365.8,-423.2 -365.7,-424.8 -365.6,-426 -365.5,-427.5 -365.5,-429.1 -365.5,-430.7 -365.5,-432.3 -365.5,-434 -365.5,-435.5 -365.5,-436.6 -365.4,-438.3 -365.3,-439.6 -365.2,-441.1 -365.1,-442.7 -365,-444.5 -365,-445.9 -365,-447.6 -365,-449.3 -365,-450.8 -365,-452.5 -364.9,-454.1 -364.8,-455.7 -364.7,-457 -364.6,-458.7 -364.5,-460 -364.5,-461.5 -364.5,-462.7 -364.5,-464 -364.4,-465.4 -364.3,-467 -364.2,-468.5 -364.1,-470.2 -364,-472 -364,-473.6 -364,-475 -364,-476.4 -364,-477.9 -364,-479.2 -364,-480.6 -363.9,-482.1 -363.8,-483.7 -363.7,-485 -363.6,-486.4 -363.5,-487.4 -363.4,-489 -363.3,-490.4 -363.2,-492.1 -363.1,-493.7 -363,-495.7 -363,-497 -363,-498.5 -363,-499.9 -363,-501.4 -363,-502.7 -363,-504 -362.8,-505.7 -362.6,-507.3 -362.4,-509.1 -362.2,-510.8 -362,-512.8 -362,-514.1 -362,-515.5 -362,-516.7 -362,-517.8 -362,-518.7 -361.9,-520.1 -361.8,-521.5 -361.7,-523.1 -361.6,-524.7 -361.4,-526.2 -361.3,-527.3 -361.2,-528.2 -361,-529.3 -360.8,-530.8 -360.7,-532.3 -360.6,-533.9 -360.5,-535.8 -360.5,-537.2 -360.5,-538.2 -360.5,-539.3 -360.5,-540.2 -360.4,-541.4 -360.3,-542.7 -360.2,-544.2 -360.1,-545.8 -359.9,-547.4 -359.8,-548.6 -359.7,-549.8 -359.6,-551 -359.5,-552.2 -359.5,-553.5 -359.5,-554.7 -359.5,-555.8 -359.5,-556.7 -359.5,-557.4 -359.5,-558 -359.5,-558.5 -359.4,-559.6 -359.3,-560.8 -359.2,-562.1 -359.1,-563.5 -359,-565 -359,-566 -359,-566.9 -358.9,-567.9 -358.8,-568.9 -358.7,-569.9 -358.6,-570.9 -358.5,-572 -358.5,-573 -358.5,-574 -358.5,-575 -358.5,-576 -358.5,-577 -358.5,-578 -358.5,-579.2 -358.5,-580.4 -358.5,-581.5 -358.5,-582.5 -358.5,-583.4 -358.5,-584 -358.5,-584.6 -358.3,-585.5 -358.1,-586.4 -357.9,-587.3 -357.7,-588.2 -357.4,-589.2 -357.3,-589.9 -357.1,-590.9 -356.9,-592 -356.7,-593.1 -356.5,-593.9 -356.3,-594.7 -356.2,-595.3 -356,-595.7 -355.8,-596.1 -355,-597.4 -353.8,-598.8 -352.6,-600.1 -351.3,-601.4 -350,-602.7 -348.1,-603.3 -346.6,-603.6 -344.1,-603.4 -341.5,-603.1 -338.8,-602.6 -337.1,-601.5 -335,-600.1 -333,-598.3 -331.2,-596.6 -329.5,-594.9 -328,-593.6 -326.9,-592.6 -326.6,-592.4 -326.4,-592.1 -326.1,-591.9 -325.1,-590.9 -323.4,-589.3 -321.4,-587.3 -318.9,-584.9 -316.4,-582.4 -314.6,-580.7 -313.4,-579.5 -312.4,-578.5 -311.8,-578 -311,-577.3 -310.3,-576.5 -309.2,-575.5 -308.2,-574.7 -307.2,-573.7 -306.4,-572.9 -305.5,-572.2 -305,-571.8 -304.6,-571.3 -303.7,-570.4 -302.8,-569.6 -301.9,-568.7 -301.1,-567.8 -300.2,-567 -299.8,-566.7 -299,-565.9 -298.3,-565.1 -297.5,-564.4 -296.7,-563.6 -295.5,-562.4 -293.3,-560.4 -291.1,-558.4 -288.9,-556.4 -286.4,-554.1 -284.3,-552.3 -283.7,-551.7 -283,-551.2 -282.4,-550.6 -281,-549.6 -275.8,-548.6 -270,-547.8 -263.7,-547.3 -256.6,-547.2 -250.5,-547.9 -248.1,-548.7 -246.2,-549.4 -244.2,-550 -243,-550.4 -241.9,-550.8 -240.9,-551.1 -239.9,-551.4 -239.1,-551.7 -238.2,-552 -237.3,-552.3 -235.9,-552.8 -234.5,-553.3 -233.5,-553.7 -232.5,-554 -231.5,-554.3 -230.7,-554.6 -229.9,-554.9 -229.1,-555.1 -228,-555.4 -226.9,-555.8 -226.1,-556 -225.3,-556.2 -223.9,-556.7 -222.8,-557.1 -221.7,-557.4 -220.6,-557.8 -219.5,-558.2 -219,-558.3 -217.9,-558.7 -216.8,-559.1 -215.6,-559.4 -214.4,-559.8 -212.9,-560.3 -212,-560.6 -211.1,-560.9 -210,-561.3 -208.9,-561.7 -208,-562 -206.7,-562.3 -205.4,-562.7 -204.4,-563 -203,-563.4 -201.3,-563.9 -200,-564.3 -198.7,-564.7 -197.4,-565.1 -196.1,-565.4 -194.9,-565.8 -193.7,-566.2 -192.5,-566.5 -191.3,-566.9 -190.1,-567.3 -189.1,-567.5 -187.8,-567.9 -186.5,-568.3 -185.2,-568.6 -184.3,-568.8 -183,-569.2 -182,-569.4 -181,-569.6 -180,-569.9 -179,-570.2 -178,-570.4 -176.9,-570.6 -175.8,-570.8 -174.7,-571 -173.5,-571.2 -172.3,-571.4 -171.1,-571.6 -169.9,-571.8 -168.7,-571.9 -167.6,-572.1 -166.8,-572.2 -166,-572.3 -164.9,-572.4 -163.8,-572.5 -162.5,-572.5 -161.3,-572.5 -160.2,-572.5 -159.2,-572.5 -158.2,-572.5 -157,-572.5 -155.8,-572.5 -154.6,-572.5 -153.4,-572.5 -152.2,-572.5 -151.2,-572.5 -150,-572.4 -148.7,-572.3 -147.6,-572.2 -146.3,-572.1 -145.1,-572 -144.2,-572 -143.1,-571.9 -141.8,-571.8 -140.7,-571.7 -139.7,-571.6 -138.7,-571.5 -138,-571.4 -136.8,-571.2 -135.6,-571 -134.4,-570.8 -133.2,-570.5 -132,-570.3 -131,-570.1 -130,-569.9 -129,-569.6 -127.5,-569.3 -126,-569 -124.9,-568.8 -123.8,-568.6 -122.2,-568.3 -120.9,-568.1 -119.6,-567.9 -118,-567.5 -116.4,-567.1 -115.2,-566.9 -113.8,-566.6 -112.2,-566.2 -111,-566 -109.7,-565.8 -108.5,-565.6 -107.2,-565.3 -106,-565.1 -104.8,-564.9 -103.7,-564.7 -102.1,-564.3 -101,-564.1 -100,-563.9 -98.5,-563.6 -96.9,-563.2 -95.8,-563 -94.7,-562.8 -92.9,-562.5 -91.6,-562.2 -90.3,-562 -89,-561.8 -87.2,-561.5 -86,-561.2 -84.8,-561 -83.7,-560.8 -82,-560.4 -80.8,-560.1 -79.6,-559.9 -78,-559.6 -76.1,-559.2 -74.8,-559 -73.5,-558.8 -71.8,-558.5 -70.5,-558.2 -69.4,-558 -67.9,-557.7 -66.1,-557.3 -64.8,-557 -63.5,-556.8 -61.7,-556.5 -60.3,-556.2 -59.1,-556 -57.9,-555.8 -56.1,-555.4 -54.9,-555.1 -53.6,-554.9 -52,-554.6 -50.1,-554.2 -48.8,-554 -47.4,-553.8 -45.6,-553.4 -44.1,-553.1 -42.9,-552.9 -41.2,-552.5 -39.3,-552.1 -37.9,-551.9 -36.5,-551.7 -34.7,-551.3 -33.3,-551.1 -32.2,-550.9 -30.4,-550.5 -28.7,-550.1 -27.3,-549.9 -25.4,-549.5 -23.4,-549.1 -22,-548.9 -20.6,-548.7 -18.7,-548.3 -17.3,-548.1 -15.3,-547.7 -13.4,-547.3 -11.4,-546.9 -9.5,-546.5 -7.7,-546.1 -6.5,-545.9 -4.9,-545.6 -3.3,-545.2 -1.6,-544.9 0.1,-544.6 2.1,-544.2 3.7,-543.9 5.3,-543.7 7,-543.4 8.7,-543.1 10.1,-542.9 11.6,-542.7 13.4,-542.3 14.6,-542.1 15.8,-541.9 17.5,-541.5 19.2,-541.1 20.5,-540.9 22.3,-540.5 24.2,-540.1 25.5,-539.9 27.4,-539.5 29.4,-539.1 30.8,-538.9 32.6,-538.6 34.5,-538.2 35.7,-538 37.4,-537.7 39.4,-537.3 40.9,-537 42.4,-536.8 44.4,-536.4 45.9,-536.1 47.2,-535.9 49,-535.5 50.7,-535.1 52.5,-534.8 54.5,-534.4 56.4,-534 57.9,-533.8 60,-533.5 61.5,-533.2 62.8,-533 64.7,-532.7 66.5,-532.3 67.8,-532 69.7,-531.7 71.5,-531.3 72.8,-531 74.7,-530.7 76.5,-530.3 77.8,-530 79.7,-529.7 81.5,-529.3 82.8,-529 84.6,-528.7 86.6,-528.3 88,-528 89.5,-527.8 91.5,-527.4 93,-527.1 94.3,-526.9 96.2,-526.6 98,-526.2 99.3,-526 101.2,-525.7 103.2,-525.3 105.3,-524.9 107.5,-524.5 109.6,-524.1 111.7,-523.7 113.7,-523.3 115,-523 116.7,-522.7 118.5,-522.3 120.3,-521.9 122,-521.6 124,-521.2 125.6,-520.9 127.1,-520.7 128.5,-520.4 130,-520.1 131.7,-519.8 133.6,-519.4 135.6,-519 137.1,-518.8 139.1,-518.4 140.7,-518.1 142.1,-517.9 143.9,-517.5 145.8,-517.1 147.2,-516.9 148.9,-516.5 150.6,-516.1 152.4,-515.8 154.2,-515.4 156,-515 157.5,-514.8 159.4,-514.4 160.8,-514.1 162.2,-513.9 163.9,-513.5 165.8,-513.1 167.3,-512.9 168.7,-512.7 170.5,-512.3 172,-512.1 173.7,-511.8 175.6,-511.4 177.5,-511 179,-510.8 181,-510.4 182.5,-510.1 183.8,-509.9 185.6,-509.5 187.3,-509.1 188.5,-508.9 190.3,-508.6 192,-508.2 193.3,-508 195,-507.7 196.9,-507.3 198.3,-507 199.7,-506.8 201.7,-506.4 203.4,-506.1 204.8,-505.9 206.6,-505.6 208.4,-505.2 209.6,-505 211.3,-504.7 213,-504.3 214.3,-504 216.1,-503.7 218,-503.4 219.4,-503.1 220.8,-502.9 222.7,-502.6 224.1,-502.3 226.1,-501.9 228,-501.6 230,-501.2 231.9,-500.8 233.9,-500.5 235.1,-500.2 237,-499.8 238.9,-499.5 240.3,-499.3 241.7,-499 243.6,-498.7 244.9,-498.5 246.1,-498.2 247.9,-497.8 249.7,-497.5 251,-497.3 252.7,-496.9 254.6,-496.6 256,-496.4 257.3,-496.1 259.1,-495.7 260.4,-495.5 261.6,-495.3 263.4,-494.9 265.2,-494.6 266.6,-494.4 268,-494.1 270,-493.7 271.3,-493.5 272.7,-493.3 274,-493 275.9,-492.7 277.1,-492.5 278.4,-492.2 280.1,-491.8 281.9,-491.5 283.2,-491.3 284.9,-490.9 286.8,-490.6 288.2,-490.4 289.6,-490.1 291.4,-489.7 292.9,-489.5 294.1,-489.2 295.8,-488.8 297.4,-488.5 298.6,-488.3 300.2,-487.9 302,-487.6 303.3,-487.4 304.7,-487.1 306.5,-486.7 307.9,-486.5 309.1,-486.3 310.9,-485.9 312.6,-485.6 313.9,-485.4 315.1,-485.1 316.9,-484.7 318.1,-484.5 319.4,-484.2 321.1,-483.8 322.9,-483.5 324.1,-483.3 325.3,-483 326.9,-482.7 328,-482.5 329.6,-482.1 331.2,-481.7 332.9,-481.4 334.1,-481.2 335.8,-480.8 337.1,-480.6 339,-480.2 340.9,-479.8 342.8,-479.4 344.3,-479.2 346,-478.8 347.1,-478.6 348.2,-478.4 349.8,-478 351.3,-477.6 352.5,-477.4 353.7,-477.2 355.3,-476.8 356.5,-476.6 357.7,-476.4 358.8,-476.2 360.4,-475.8 361.5,-475.6 362.6,-475.4 363.7,-475.2 365.2,-474.9 366.2,-474.7 367.2,-474.5 368.1,-474.3 369.5,-474 370.5,-473.8 371.6,-473.6 372.7,-473.4 374.2,-473.1 375.2,-472.9 376.2,-472.6 377.1,-472.4 378.4,-472.1 379.4,-471.9 380.4,-471.6 381.8,-471.3 383.2,-471 384.2,-470.8 385.2,-470.5 386.2,-470.3 387,-470.1 387.8,-469.9 388.9,-469.5 389.9,-469.2 390.9,-468.9 391.8,-468.7 392.7,-468.5 393.3,-468.4 394.1,-468.2 395,-467.9 396,-467.4 397.1,-466.8 398.3,-466.3 399.3,-465.9 400.5,-465.5 401.5,-465.3 402.3,-465.1 403.1,-464.9 403.8,-464.6 404.4,-464.2 405,-463.7 405.9,-462.7 406.7,-461.7 407.7,-458.7 408.3,-455.3 408.8,-451.6 408.9,-447.9 408.9,-444 408.6,-442.2 408.4,-440.8 408.2,-439.6 408.1,-438.8 407.9,-437.8 407.8,-436.6 407.6,-435.5 407.4,-434.5 407.2,-433.6 407,-433 406.8,-432.5 406.7,-432 406.5,-431.5 406.2,-430.6 406,-429.7 405.6,-428.7 405.2,-427.7 404.8,-426.7 404.5,-426.1 403.9,-425 403.5,-424 403,-423 402.6,-422 402.1,-421 401.8,-420.3 401.4,-419.6 400.9,-418.7 400.4,-417.8 399.9,-416.9 399.4,-416.2 399,-415.5 398.5,-414.8 397.9,-414.1 397.3,-413.4 396.6,-412.4 395.8,-411.4 395.2,-410.6 394.7,-409.8 394.2,-409 393.8,-408.6 393.3,-408.1 392.7,-407.5 392.1,-406.9 391.4,-406.2 390.6,-405.3 389.8,-404.5 389,-403.7 388.2,-402.9 387.4,-402.1 386.6,-401.3 385.9,-400.6 385.3,-400 384.6,-399.4 383.6,-398.6 382.6,-397.9 381.6,-397.1 380.7,-396.3 379.8,-395.5 379.3,-395.1 378.5,-394.4 377.7,-393.7 376.8,-393.1 375.9,-392.5 374.6,-391.5 373.5,-390.7 372.4,-389.9 371.3,-389.1 370.2,-388.3 369.5,-387.8 369,-387.5 367.8,-386.7 366.5,-385.7 365.2,-384.8 363.9,-383.9 362.6,-382.9 362,-382.5 361.5,-382.2 360.7,-381.8 359.5,-381.1 358.3,-380.4 357.1,-379.7 355.9,-379 354.5,-377.9 353.5,-377.2 352.4,-376.4 351.2,-375.4 350,-374.4 349.3,-373.9 348.1,-373 346.9,-372.1 345.8,-371.3 344.7,-370.6 343.6,-369.8 342.6,-369 341.6,-368.2 340.4,-367.4 339.2,-366.5 338,-365.6 337.2,-365 336.2,-364.3 335.4,-363.6 334.1,-362.7 332.7,-361.7 331.2,-360.6 329.9,-359.6 328.5,-358.5 327.5,-357.5 326.4,-356.5 325.4,-355.6 324.5,-354.8 323.3,-353.8 322.1,-352.8 320.9,-351.9 319.6,-350.9 318.2,-349.8 317.1,-348.9 316,-348.1 315.1,-347.3 313.9,-346.3 312.7,-345.3 311.5,-344.4 310.1,-343.2 308.7,-342 307.7,-341.1 306.7,-340.3 305.2,-338.8 304,-337.6 302.8,-336.4 301.3,-335 299.8,-333.5 298.9,-332.7 298,-331.9 296.5,-330.6 295.3,-329.5 293.8,-328.2 292.3,-326.8 290.8,-325.4 289.5,-324.2 288,-322.9 286.8,-321.8 285.6,-320.8 284.1,-319.4 282.8,-318.2 281.6,-317 280.4,-315.8 278.9,-314.2 277.6,-312.9 276.5,-311.7 275.5,-310.6 274.3,-309.4 273,-308 271.7,-306.7 270.4,-305.4 269,-304 267.7,-302.5 266.7,-301.6 265.8,-300.7 264.5,-299.4 263.3,-298.1 262,-296.9 260.7,-295.6 259.2,-294 258.1,-292.8 256.9,-291.6 255.5,-290 254.2,-288.5 253.1,-287.3 251.9,-285.9 250.5,-284.4 249.5,-283.4 248.2,-281.9 246.9,-280.4 245.7,-279.1 244.6,-277.8 243.3,-276.3 242.3,-275.3 241,-273.9 239.7,-272.5" style="stroke: rgb(239, 68, 68); stroke-width: 7;"></polyline><polyline vector-effect="non-scaling-stroke" fill="none" points="238.6,-271.3 237.4,-269.7 236.2,-268.1 235.3,-266.8 234.2,-265.2 233.1,-263.6 232.2,-262.3 231.3,-261 230.2,-259.4 229.4,-258.1 228.6,-256.8 227.8,-255.5 226.8,-253.8 226,-252.4 225.1,-250.8 224.2,-249.1 223.5,-247.8 222.8,-246.3 222.1,-244.8 221.5,-243.5 220.7,-241.7 219.9,-239.9 219.4,-238.7 218.8,-237.3 218.1,-235.6 217.6,-234.4 217,-232.8 216.4,-231.1 215.8,-229.5 215.2,-227.9 214.6,-226.3 214.1,-224.8 213.5,-223.4 213.1,-222.2 212.6,-221 212.1,-219.6 211.6,-218.5 211.2,-217.4 210.7,-216.3 210.3,-215.3 209.8,-214.3 209.4,-213.2 208.9,-212.1 208.4,-211 208,-210.1 207.5,-209.2 206.9,-208.2 206.3,-207.2 205.8,-206.2 205.2,-205.2 204.8,-204.6 204.5,-204.2 203.8,-203.2 203,-202.2 202.3,-201.2 201.6,-200.1 200.8,-199 200.3,-198.4 199.9,-197.8 199.3,-197.2 198.7,-196.6 197.9,-195.8 197.2,-195.1 196.5,-194.4 195.6,-193.5 194.7,-192.6 193.9,-191.8 193.1,-191 192.2,-190.3 191.6,-189.8 190.6,-189 189.7,-188.3 188.8,-187.7 187.9,-187 186.7,-186.2 185.9,-185.7 185.1,-185.2 184.3,-184.7 183.3,-184.1 182.6,-183.7 181.7,-183.2 180.8,-182.7 179.9,-182.2 179.2,-181.9 178.2,-181.4 177.4,-181.1 176.3,-180.7 175.2,-180.3 173.7,-179.7 172.5,-179.3 171.3,-178.9 170.4,-178.6 169.5,-178.3 169,-178.2 168.5,-178.1 167.4,-177.8 166.1,-177.6 164.8,-177.4 163.4,-177.2 161.9,-177 160.9,-176.9 160,-176.8 158.8,-176.7 157.6,-176.6 156.5,-176.5 155.3,-176.5 154.1,-176.5 152.9,-176.5 151.7,-176.5 150.4,-176.5 149.2,-176.5 148,-176.5 146.9,-176.6 145.7,-176.7 144.6,-176.8 143.6,-176.9 142.7,-177 141.9,-177 140.7,-177.2 139.5,-177.4 138.3,-177.6 137.1,-177.8 135.4,-178.2 134.2,-178.4 133,-178.6 131.8,-178.8 130.6,-179 129.4,-179.2 128.2,-179.4 126.9,-179.6 125.6,-179.8 124.2,-180 123.4,-180.1 122.2,-180.3 121,-180.5 119.8,-180.7 118.6,-180.9 117.4,-181.1 116.2,-181.3 115.1,-181.5 114,-181.7 112.9,-182 111.3,-182.3 110.1,-182.5 108.9,-182.7 107.5,-182.9 106.1,-183.1 105.2,-183.2 104.4,-183.3 103.2,-183.5 102,-183.7 100.7,-183.9 99.2,-184.1 97.7,-184.3 96.6,-184.4 95.7,-184.5 95,-184.5 93.8,-184.6 92.1,-184.6 90.4,-184.6 88.7,-184.6 87,-184.6 85.8,-184.5 85.1,-184.5 84.2,-184.5 83.2,-184.5 81.6,-184.4 80.2,-184.3 78.7,-184.2 77.3,-184 75.5,-183.7 74.3,-183.5 73.1,-183.3 72,-183 70.6,-182.7 69.5,-182.4 68.3,-182 67.1,-181.6 65.6,-181.1 64.5,-180.7 63.6,-180.4 62.5,-180 61.4,-179.6 60.2,-179.2 58.8,-178.7 57.4,-178.1 56.1,-177.5 54.8,-176.9 53.4,-176.1 52.2,-175.4 51,-174.7 50,-174.1 48.7,-173.3 47.8,-172.7 46.9,-172 46,-171.3 44.8,-170.5 43.8,-169.7 42.8,-168.9 41.7,-168 40.4,-166.9 39.4,-165.9 38.5,-164.9 37.7,-164 36.8,-163.1 36.1,-162.4 35.4,-161.7 34.5,-160.8 33.6,-159.9 32.8,-159 31.9,-158 31.1,-157 30.2,-155.9 29.3,-154.8 28.5,-153.8 27.9,-152.9 26.9,-151.6 26.2,-150.7 25.5,-149.8 24.9,-148.9 23.9,-147.6 23.2,-146.7 22.5,-145.8 21.7,-144.8 20.9,-143.8 20.1,-142.8 19.3,-141.8 18.5,-140.8 17.9,-139.9 17.1,-138.9 16.3,-137.9 15.5,-136.9 14.7,-135.9 13.9,-134.9 13.1,-133.9 12.3,-132.9 11.2,-131.5 10.2,-130.1 9.1,-128.7 8.1,-127.4 7.3,-126.4 6.7,-125.7 6.1,-125 5.2,-123.9 4.3,-122.7 3.5,-121.6 2.5,-120.2 1.5,-118.8 0.8,-117.8 0.1,-116.9 -0.7,-115.9 -1.5,-114.9 -2.3,-113.9 -3.1,-112.9 -3.9,-111.9 -4.7,-110.9 -5.3,-110.2 -6,-109.4 -7,-108.2 -8.1,-106.8 -9.1,-105.5 -9.9,-104.3 -10.7,-103.2 -11.2,-102.5 -11.7,-101.9 -12.5,-100.9 -13.3,-99.9 -14.1,-98.9 -14.9,-97.9 -15.7,-96.9 -16.3,-96.2 -17.2,-95.1 -18.1,-94 -19,-92.9 -20,-91.7 -21.2,-90.2 -22.2,-89.1 -23.4,-87.7 -24.5,-86.3 -25.4,-85.1 -26,-84.3 -26.9,-83.1 -27.5,-82.2 -28.2,-81.3 -28.9,-80.4 -29.9,-79.1 -30.6,-78.2 -31.3,-77.3 -32,-76.4 -33,-75.1 -33.7,-74.2 -34.3,-73.3 -35,-72.4 -35.8,-71.4 -36.6,-70.4 -37.3,-69.4 -38.1,-68.4 -38.9,-67.4 -39.9,-66.1 -40.5,-65.2 -41.2,-64.3 -41.9,-63.4 -42.7,-62.4 -43.1,-61.8 -44,-60.7 -44.9,-59.6 -46.1,-58.1 -47.1,-56.7 -48.2,-55.3 -48.9,-54.4 -49.6,-53.5 -50.1,-52.8 -50.9,-51.8 -51.7,-50.9 -52.5,-50 -53.2,-49.1 -53.9,-48.3 -54.7,-47.4 -55.5,-46.4 -56.2,-45.4 -57,-44.4 -57.8,-43.4 -58.3,-42.8 -58.9,-42 -59.8,-40.9 -60.7,-39.8 -61.5,-38.8 -62.2,-37.8 -62.9,-36.9 -63.5,-36.2 -64.3,-35.1 -65.1,-34 -66,-32.9 -67,-31.7 -68.2,-30.2 -69.2,-29.1 -70.1,-28 -71,-26.9 -71.9,-25.8 -72.4,-25.1 -73.2,-24 -74.1,-22.9 -75,-21.8 -75.6,-20.9 -76.3,-20.1 -76.8,-19.6 -77.5,-18.7 -78.2,-17.8 -79,-16.9 -79.7,-15.9 -80.4,-14.9 -80.9,-14.4 -81.5,-13.8 -82.1,-13.1 -82.9,-12.3 -83.7,-11.5 -84.5,-10.7 -85.1,-10 -85.7,-9.4 -86.2,-9 -86.5,-8.7 -86.8,-8.4 -87.7,-7.8 -88.6,-7.3 -89.4,-6.7 -90.3,-6.2 -91.2,-5.7 -91.5,-5.5 -91.8,-5.3 -92.2,-5.2 -93,-5 -93.9,-4.7 -94.9,-4.5 -96,-4.3 -97.2,-4.1 -98.3,-4 -99.4,-4 -100.7,-4 -101.9,-4.1 -103.1,-4.2 -104,-4.3 -104.7,-4.5 -105.5,-4.8 -106.3,-5 -106.9,-5.3 -107.5,-5.6 -108.2,-5.8 -108.5,-6 -109,-6.3 -109.6,-6.5 -110.1,-6.8 -110.6,-7.1 -111.1,-7.4 -111.4,-7.6 -111.6,-7.9 -111.9,-8.1 -112.1,-8.4 -112.5,-8.7 -112.8,-9.1 -113.3,-9.5 -113.8,-10.1 -114.3,-10.7 -114.7,-11.2 -115.3,-12 -115.8,-12.9 -116.3,-14.1 -116.9,-15.3 -117.5,-17 -117.9,-18.4 -118.3,-19.8 -118.6,-20.8 -118.8,-21.8 -119,-22.3 -119.3,-23.3 -119.5,-24.2 -119.7,-25.1 -119.9,-26 -120,-27 -120.1,-27.6 -120.2,-28.3 -120.3,-29.1 -120.4,-30 -120.5,-31.2 -120.5,-32.4 -120.5,-33.6 -120.5,-34.8 -120.5,-36 -120.5,-37 -120.5,-38 -120.5,-39.2 -120.5,-40.4 -120.5,-41.6 -120.5,-42.8 -120.5,-44 -120.5,-45 -120.5,-46 -120.5,-47 -120.5,-48 -120.4,-48.9 -120.3,-49.7 -120.2,-50.4 -120.1,-51 -120,-51.5 -119.9,-52.6 -119.8,-53.8 -119.6,-55 -119.4,-56.2 -119.2,-57.4 -119.1,-58 -119,-58.5 -118.9,-59.5 -118.7,-60.5 -118.5,-61.5 -118.3,-62.5 -118.1,-63.5 -117.9,-64.6 -117.8,-65.8 -117.6,-67 -117.4,-68.2 -117.2,-69.5 -117.1,-70.2 -116.9,-71.3 -116.7,-72.6 -116.5,-73.9 -116.3,-75.1 -116.1,-76.3 -116,-77.1 -115.8,-78.4 -115.6,-79.7 -115.4,-81 -115.2,-82.3 -114.8,-84.1 -114.6,-85.4 -114.4,-86.7 -114.2,-88 -114,-89.4 -113.8,-90.7 -113.6,-91.8 -113.4,-93.1 -113.2,-94.4 -113,-95.7 -112.9,-96.5 -112.7,-97.8 -112.5,-99 -112.3,-100.3 -112.1,-101.5 -111.9,-102.7 -111.7,-103.9 -111.5,-105.2 -111.3,-106.4 -111.1,-107.6 -110.8,-109.4 -110.6,-110.8 -110.4,-112 -110.2,-113.2 -110,-114.5 -109.8,-115.7 -109.6,-116.9 -109.4,-118.3 -109.2,-119.7 -109,-121 -108.8,-122.4 -108.6,-123.8 -108.4,-125 -108.2,-126.3 -107.9,-127.6 -107.7,-128.8 -107.5,-130.2 -107.3,-131.6 -107.1,-132.9 -106.9,-134.3 -106.7,-135.7 -106.5,-136.9 -106.3,-138.2 -106.1,-139.5 -105.8,-141.3 -105.6,-142.7 -105.4,-144 -105.2,-145.3 -104.9,-146.6 -104.7,-147.9 -104.5,-149.3 -104.3,-150.8 -104.1,-152.3 -103.9,-153.8 -103.7,-155.3 -103.5,-156.7 -103.3,-158 -103,-159.3 -102.8,-160.6 -102.6,-161.9 -102.4,-163.1 -102.2,-164.4 -101.9,-166 -101.6,-167.8 -101.4,-169.4 -101.1,-171.1 -100.8,-172.7 -100.6,-174.6 -100.4,-176.3 -100.1,-177.7 -99.9,-179 -99.6,-180.9 -99.4,-182.1 -99.2,-183.4 -98.9,-185 -98.6,-187 -98.4,-188.4 -98.2,-189.9 -97.9,-191.3 -97.7,-192.9 -97.5,-194.3 -97.3,-195.9 -97,-197.5 -96.8,-199.1 -96.6,-200.8 -96.4,-202.3 -96.1,-203.7 -95.9,-205 -95.6,-206.9 -95.4,-208.4 -95.1,-209.9 -94.9,-211.4 -94.6,-213.4 -94.4,-215 -94.1,-216.4 -93.9,-217.8 -93.6,-219.8 -93.4,-221.4 -93.1,-222.8 -92.8,-224.7 -92.5,-226.9 -92.3,-228.4 -92,-229.9 -91.8,-231.4 -91.6,-233 -91.4,-234.5 -91.1,-236 -90.9,-237.5 -90.6,-239.6 -90.3,-241.3 -90,-242.8 -89.8,-244.4 -89.5,-246.5 -89.2,-248 -89,-249.3 -88.7,-251.3 -88.4,-253.3 -88.1,-254.8 -87.9,-256.4 -87.6,-258.4 -87.3,-259.9 -87,-261.4 -86.7,-263.4 -86.4,-265.4 -86.1,-267 -85.9,-268.5 -85.6,-270.4 -85.3,-271.9 -85,-273.6 -84.8,-275.3 -84.6,-276.9 -84.3,-278.5 -84.1,-280 -83.8,-281.7 -83.4,-283.9 -83,-286.1 -82.8,-287.9 -82.4,-290.3 -82.1,-292.2 -81.9,-293.6 -81.5,-295.6 -81.1,-297.6 -80.9,-299 -80.6,-300.5 -80.2,-302.4 -80,-303.9 -79.8,-305.5 -79.5,-307.1 -79.3,-308.7 -79.1,-310.2 -78.9,-311.8 -78.6,-313.2 -78.4,-314.6 -78.1,-316.4 -77.9,-318.1 -77.6,-319.5 -77.4,-321 -77.2,-322.4 -77,-324 -76.8,-325.4 -76.7,-327 -76.5,-328.7 -76.3,-330.5 -76.2,-331.9 -76.1,-333.3 -76,-334.5 -76,-335.7 -76,-337 -76,-338.2 -76,-339.4 -76,-340.7 -76,-341.8 -76,-343.1 -76.1,-344.3 -76.3,-345.9 -76.5,-347.4 -76.7,-348.9 -76.9,-350.1 -77.1,-351.7 -77.3,-352.8 -77.5,-353.9 -77.7,-355 -78.1,-356.4 -78.4,-357.3 -78.6,-358.2 -79,-359.6 -79.4,-361 -79.6,-362 -80.1,-363.5 -80.6,-365 -81,-366 -81.5,-367.2 -82,-368.4 -82.3,-369.1 -82.6,-369.8 -83.2,-371.1 -83.7,-372.2 -84.3,-373.3 -84.8,-374.4 -85.4,-375.5 -85.7,-375.9 -86.2,-376.7 -86.7,-377.5 -87.5,-378.7 -88.3,-379.9 -89.3,-381.6 -90.3,-383 -91.3,-384.4 -92,-385.4 -93.2,-387 -94.2,-388.1 -95,-389.1 -95.8,-390.1 -96.8,-391.2 -97.5,-392 -98.6,-393.3 -99.9,-394.7 -101.2,-396 -102.7,-397.5 -104,-398.7 -104.9,-399.4 -105.6,-400 -106.3,-400.7 -106.8,-401.1 -107.6,-401.8 -108.8,-402.9 -110.1,-403.9 -111.3,-404.9 -112.4,-405.8 -113.2,-406.4 -113.5,-406.7 -113.9,-407.1 -114.9,-407.9 -115.9,-408.7 -116.8,-409.5 -117.8,-410.3 -118.8,-411.1 -119.2,-411.5 -120,-412.2 -120.8,-412.9 -121.6,-413.5 -122.2,-414.1 -123.8,-415.3 -125,-416.3 -126.8,-417.8 -128.6,-419.4 -130.9,-421.3 -133.3,-423.1 -136.2,-424.9 -138.5,-426 -143.2,-425.5 -147.6,-424.4 -151.2,-419.5 -154.2,-413.8 -157.4,-407.1 -158.1,-401.7 -158.6,-396.4 -159,-393.6 -159.4,-391.3 -159.6,-389.9 -159.9,-388.4 -160.2,-386.9 -160.3,-386 -160.4,-385.2 -160.6,-384 -160.7,-382.9 -160.9,-381.6 -161.1,-380.3 -161.3,-379 -161.4,-378.2 -161.6,-377 -161.7,-375.7 -161.9,-374.4 -162.1,-373.1 -162.3,-371.8 -162.4,-371 -162.6,-370 -162.8,-368.9 -163,-367.7 -163.2,-366.5 -163.4,-365.3 -163.6,-364.1 -163.7,-362.9 -163.9,-361.6 -164.1,-360.3 -164.3,-359 -164.5,-357.6 -164.7,-356.2 -164.9,-355 -165.1,-353.8 -165.3,-352.5 -165.5,-351.2 -165.7,-350 -165.9,-348.6 -166.1,-347.2 -166.3,-345.8 -166.5,-344.5 -166.7,-343.1 -166.9,-341.8 -167.1,-340.5 -167.4,-338.7 -167.6,-337.4 -167.8,-335.9 -168,-334.5 -168.2,-333 -168.4,-331.7 -168.6,-330 -168.8,-328.6 -168.9,-327.1 -169.1,-325.7 -169.3,-324.1 -169.5,-322.7 -169.7,-321.2 -169.9,-319.8 -170.2,-317.9 -170.4,-316.4 -170.6,-314.8 -170.8,-313.3 -171,-311.7 -171.1,-310.6 -171.3,-309 -171.5,-307.5 -171.7,-305.8 -171.9,-304.1 -172,-302.4 -172.2,-300.8 -172.4,-299.4 -172.6,-297.8 -172.8,-296.3 -173,-294.4 -173,-293 -173.2,-290.9 -173.4,-289.2 -173.6,-287.2 -173.8,-285.4 -174,-283.4 -174,-281.9 -174.1,-280.2 -174.2,-278.7 -174.3,-277.4 -174.5,-275.8 -174.7,-274.1 -174.8,-272.5 -174.9,-270.7 -175,-268.9 -175.1,-267.4 -175.2,-266 -175.3,-264.5 -175.4,-263 -175.5,-261.3 -175.5,-259.8 -175.5,-258.5 -175.6,-256.8 -175.7,-255.2 -175.9,-253.6 -176.1,-251.8 -176.3,-250 -176.4,-248.4 -176.5,-246.7 -176.5,-245.2 -176.5,-243.6 -176.5,-242 -176.5,-240.4 -176.5,-238.9 -176.5,-237.2 -176.5,-235.8 -176.6,-234.4 -176.8,-232.8 -177,-231.4 -177.2,-229.8 -177.4,-228.2 -177.5,-226.2 -177.5,-224.7 -177.5,-223 -177.5,-221.5 -177.5,-219.9 -177.5,-218.4 -177.5,-216.7 -177.6,-215.1 -177.7,-213.4 -177.8,-211.9 -177.9,-210.4 -178,-209.2 -178,-208 -178.1,-206.5 -178.2,-204.7 -178.3,-203 -178.4,-201.3 -178.5,-199.3 -178.5,-197.9 -178.5,-196.4 -178.6,-195 -178.7,-193.3 -178.8,-191.9 -178.9,-190.1 -179,-188.4 -179,-186.5 -179,-184.9 -179,-183.3 -179.1,-181.6 -179.2,-179.9 -179.3,-178.5 -179.4,-176.8 -179.5,-175 -179.5,-173.5 -179.6,-172.1 -179.7,-170.3 -179.8,-168.8 -179.9,-167.3 -180,-165.8 -180,-164.3 -180,-162.9 -180,-161.3 -180,-159.9 -180,-158.6 -180,-157.5 -180.1,-156.1 -180.2,-154.6 -180.3,-152.9 -180.4,-151 -180.6,-149.1 -180.7,-147.4 -180.8,-146 -180.9,-144.4 -181,-143 -181,-141.3 -181,-140 -181,-138.4 -181,-137 -181,-135.6 -181,-134.5 -181.1,-132.8 -181.2,-131.1 -181.3,-129.6 -181.4,-127.9 -181.5,-126 -181.6,-124.5 -181.7,-123.1 -181.8,-121.4 -181.9,-120 -182,-118.4 -182,-116.9 -182,-115.3 -182,-114 -182,-112.4 -182,-111.2 -182,-110 -182.1,-108.6 -182.2,-106.9 -182.3,-105.2 -182.4,-103.5 -182.5,-101.6 -182.5,-100 -182.5,-98.4 -182.6,-97 -182.7,-95.5 -182.8,-93.9 -182.9,-92.4 -183,-91 -183,-89.4 -183,-87.9 -183,-86.6 -183.1,-84.8 -183.2,-83 -183.3,-81.2 -183.4,-79.4 -183.5,-77.4 -183.5,-75.9 -183.5,-74.3 -183.5,-73 -183.5,-71.4 -183.6,-70 -183.7,-68.5 -183.8,-67.3 -183.9,-66 -184.1,-64.5 -184.2,-63 -184.3,-61.4 -184.4,-59.6 -184.5,-57.6 -184.5,-56.1 -184.5,-54.5 -184.5,-53 -184.5,-51.5 -184.5,-50.1 -184.5,-48.4 -184.5,-47 -184.6,-45.7 -184.7,-44.6 -184.9,-43 -185.1,-41.7 -185.3,-40.1 -185.4,-38.4 -185.5,-36.4 -185.5,-35 -185.5,-33.2 -185.5,-31.7 -185.5,-30.2 -185.5,-28.8 -185.5,-27.2 -185.5,-26 -185.6,-24.5 -185.7,-23.1 -185.8,-21.9 -186,-20.3 -186.2,-18.7 -186.3,-17 -186.4,-15.4 -186.5,-13.5 -186.5,-12.1 -186.5,-10.4 -186.5,-9.1 -186.5,-7.5 -186.5,-6 -186.5,-4.4 -186.5,-3.1 -186.6,-1.7 -186.7,-0.6 -186.9,1 -187.1,2.3 -187.3,3.9 -187.4,5.6 -187.5,7.5 -187.5,8.9 -187.5,10.6 -187.5,12.4 -187.5,14.4 -187.5,16.2 -187.5,18.1 -187.6,19.9 -187.7,21.4 -187.8,22.5 -188,24.2 -188.2,25.6 -188.3,27.1 -188.4,28.7 -188.5,30.5 -188.5,31.9 -188.5,33.6 -188.5,35 -188.5,36.5 -188.5,38.1 -188.5,39.6 -188.6,41 -188.7,42.6 -188.8,43.9 -188.9,45 -189.1,46.4 -189.2,47.9 -189.3,49.5 -189.4,51.3 -189.5,53.3 -189.5,54.9 -189.5,56.6 -189.5,58 -189.5,59.5 -189.5,60.9 -189.5,62.6 -189.5,63.9 -189.6,65.5 -189.7,66.8 -189.8,68 -190,69.4 -190.2,71 -190.3,72.5 -190.4,74.3 -190.5,76 -190.5,77.5 -190.5,79 -190.5,80.6 -190.5,81.9 -190.5,83.6 -190.5,85 -190.5,86.5 -190.6,87.9 -190.7,89.6 -190.8,90.9 -190.9,92.3 -191,93.4 -191.1,95 -191.2,96.3 -191.3,97.9 -191.4,99.6 -191.5,101.6 -191.5,102.9 -191.5,104.6 -191.5,106 -191.5,107.5 -191.5,108.9 -191.5,110.6 -191.6,112.3 -191.7,114 -191.8,115.5 -192,117.2 -192.2,118.9 -192.3,120.4 -192.4,122.2 -192.5,123.9 -192.5,125.6 -192.5,127 -192.5,128.5 -192.5,129.9 -192.5,131.6 -192.5,132.9 -192.5,134.6 -192.6,136 -192.7,137.3 -192.8,138.3 -193,140 -193.2,141.3 -193.3,143 -193.4,144.7 -193.5,146.7 -193.5,148 -193.5,149.6 -193.5,151 -193.5,152.5 -193.5,153.9 -193.5,155.6 -193.5,157 -193.5,158.3 -193.6,159.4 -193.8,161 -194,162.3 -194.2,163.9 -194.4,165.6 -194.5,167.4 -194.5,168.8 -194.5,170.2 -194.5,171.6 -194.5,173 -194.5,174.6 -194.5,176 -194.5,177.5 -194.5,178.7 -194.7,180.2 -194.9,181.4 -195.1,183 -195.3,184.5 -195.5,186.4 -195.5,187.8 -195.5,189.5 -195.5,190.9 -195.5,192.7 -195.5,194.1 -195.5,195.7 -195.5,197.2 -195.5,198.7 -195.5,200 -195.6,201.3 -195.7,202.5 -195.8,203.5 -196,205 -196.2,206.3 -196.3,208 -196.4,210 -196.5,212.2 -196.5,214 -196.5,215.8 -196.5,217.6 -196.5,219 -196.6,220.4 -196.7,221.8 -196.8,223.2 -196.9,224.3 -197,225.4 -197.1,226.9 -197.2,228.4 -197.3,229.9 -197.4,231.5 -197.5,233.3 -197.5,234.8 -197.5,236.1 -197.5,237.4 -197.5,238.8 -197.5,240.2 -197.6,241.3 -197.7,242.7 -197.8,244.1 -197.9,245.4 -198,246.5 -198,247.9 -198,248.9 -198,249.9 -198,250.7 -198.1,252 -198.2,253.1 -198.3,254.4 -198.4,255.9 -198.5,257.5 -198.5,258.6 -198.4,259.8 -198.2,261.3 -198,262.6 -197.8,263.8 -197.6,265 -197.5,266 -197.3,267 -197.1,268 -196.9,269 -196.7,270 -196.4,270.9 -196.2,271.7 -196,272.5 -195.6,273.6 -194.8,275.3 -194,277.2 -193.1,278.8 -192.2,280.4 -191.2,281.9 -190.5,282.9 -189.7,283.9 -189,284.7 -188.3,285.5 -187.6,286.2 -187,286.8 -185.8,287.8 -184.4,288.9 -183,290 -181.8,290.9 -180.5,291.8 -179.5,292.3 -178.5,292.9 -177.1,293.5 -175.7,294.1 -173.8,294.8 -172.3,295.3 -171,295.6 -169.6,296 -168.2,296.4 -167.2,296.6 -165.7,297 -164.1,297.4 -162.9,297.6 -161.7,297.8 -160.6,298 -160,298 -159,298.2 -157.9,298.4 -156.7,298.6 -155.4,298.8 -154,299 -153.1,299 -152.3,299 -151.1,299.2 -149.9,299.4 -148.7,299.6 -147.4,299.8 -146.1,300 -145.1,300 -144.1,300 -143.1,300 -142.1,300 -140.9,300 -139.7,300 -138.5,300 -136.9,299.9 -135.4,299.8 -134.1,299.7 -133,299.6 -132,299.5 -131.4,299.5 -130.7,299.4 -129.9,299.3 -129.1,299.2 -128.1,299.1 -126.7,298.9 -125.4,298.8 -124.2,298.7 -123,298.6 -121.5,298.3 -120.5,298.1 -119.4,297.9 -117.8,297.6 -116.2,297.2 -115.1,297 -114,296.8 -113,296.6 -112.5,296.5 -111.8,296.4 -110.4,296.1 -109,295.8 -107.3,295.3 -105.6,294.8 -104.1,294.4 -103.3,294.1 -102.5,293.8 -101.6,293.6 -100.7,293.3 -99.8,293 -98.4,292.5 -97,292 -95.7,291.5 -94.4,291 -93.1,290.5 -92.3,290.2 -91.2,289.8 -90.2,289.3 -89.2,288.9 -88.2,288.4 -86.8,287.8 -85.7,287.2 -84.8,286.8 -83.6,286.2 -82.4,285.6 -81.2,285 -80,284.4 -78.5,283.6 -77.3,282.9 -76.1,282.2 -75.3,281.7 -74.3,281.1 -73.2,280.3 -72.1,279.5 -71,278.8 -69.9,278 -68.6,277 -67.7,276.3 -66.8,275.7 -65.9,275 -64.7,274.1 -63.8,273.5 -62.5,272.6 -61.2,271.7 -59.8,270.7 -58.5,269.7 -57.4,268.7 -56.6,267.9 -55.8,267 -55.1,266.2 -54.3,265.4 -53.3,264.6 -52.3,263.8 -51.2,262.9 -50,261.9 -49,261 -48,260 -46.6,258.6 -45.2,257.2 -43.8,255.8 -42.6,254.5 -41.4,253.2 -40.4,252 -39.5,250.9 -38.7,249.9 -37.7,248.8 -36.5,247.4 -35.7,246.4 -34.9,245.4 -34.1,244.4 -33.1,243.1 -32.4,242.2 -31.7,241.3 -31,240.3 -30.2,239.2 -29.4,238.1 -28.7,237 -27.9,235.9 -26.9,234.6 -25.9,233.2 -25.3,232.2 -24.6,231.2 -23.7,229.7 -23.1,228.5 -22.6,227.5 -22,226.5 -21.2,225 -20.6,224 -19.8,222.7 -19.1,221.4 -18.4,220.1 -17.7,218.9 -17.1,217.7 -16.5,216.6 -15.9,215.4 -15.2,214 -14.8,213 -14.1,211.5 -13.6,210.2 -13,208.9 -12.6,207.8 -12,206.5 -11.7,205.7 -11.1,204.3 -10.6,203 -10,201.7 -9.6,200.6 -8.9,198.9 -8.5,197.8 -8,196.7 -7.6,195.6 -6.9,193.9 -6.5,192.7 -6,191.5 -5.5,190 -4.9,188.5 -4.6,187.5 -4.1,186.4 -3.6,185 -3.2,183.8 -2.7,182.3 -2.2,180.9 -1.8,179.5 -1.2,177.9 -0.6,176.4 -0.1,175.2 0.5,173.5 1.1,172 1.4,171 1.9,169.7 2.3,168.3 2.8,167.1 3.2,165.9 3.7,164.7 4.1,163.5 4.7,162.1 5.1,161 5.6,159.9 6.2,158.5 6.7,157.4 7.2,156.4 7.8,155 8.4,153.6 8.8,152.5 9.4,151.2 9.9,149.7 10.4,148.6 10.9,147.5 11.4,146.4 12,145.1 12.5,144.1 13.1,142.9 13.7,141.7 14.4,140.3 14.9,139.3 15.6,137.9 16.2,136.7 16.8,135.5 17.3,134.5 17.8,133.5 18.5,132.6 19.1,131.7 19.8,130.6 20.6,129.5 21.4,128.3 21.8,127.5 22.4,126.6 23.2,125.5 24,124.4 24.8,123.4 25.6,122.4 26.6,121.1 27.3,120.2 28,119.3 28.7,118.5 29.6,117.6 30.3,117 31,116.3 31.8,115.5 32.7,114.5 33.6,113.5 34.5,112.5 35.5,111.5 36.5,110.5 37.5,109.5 38.5,108.5 39.5,107.5 40.4,106.7 41.3,105.9 42.3,105.1 43.5,104.2 44.7,103.3 46,102.3 47.3,101.3 48.4,100.4 49.2,99.7 49.9,99.2 50.9,98.4 51.8,97.7 52.7,97 53.9,96.3 55.1,95.5 56.3,94.7 57.5,94 58.7,93.3 59.6,92.6 60.7,91.9 61.4,91.5 62.4,90.9 63.6,90.3 64.8,89.7 66,89.1 67.2,88.5 68.3,87.9 69.2,87.4 70.4,86.8 71.6,86.2 72.8,85.6 73.8,85.2 74.8,84.7 76,84.3 77.2,83.8 78.4,83.4 79.6,83 80.8,82.6 81.9,82.2 82.8,81.9 84,81.5 85.4,80.9 86.9,80.4 88,80 89.1,79.6 89.9,79.3 91.1,79.1 92.2,78.8 93.3,78.5 94.8,78.2 96.4,77.9 97.4,77.6 98.4,77.4 99.9,77.1 101.1,76.9 102.2,76.6 103.3,76.4 104.7,76.2 106.1,76 107.4,75.8 108.7,75.6 110.1,75.4 111.3,75.2 112,75.1 112.9,75 114,75 115.2,75 116.5,75 118.5,74.9 120.3,74.8 121.9,74.7 123.3,74.6 124.8,74.5 125.6,74.5 126.4,74.5 127.2,74.5 128.6,74.6 129.8,74.7 131,74.8 132.4,74.9 134,75.1 135.2,75.2 136.4,75.3 137.9,75.4 139.2,75.5 140.3,75.5 141.2,75.5 142.5,75.7 143.7,75.9 144.9,76.1 146.1,76.3 147.4,76.5 148.6,76.7 149.6,76.9 150.6,77.1 152,77.4 153.3,77.8 154.2,78 155.5,78.3 156.8,78.6 157.8,78.9 159.1,79.2 160.4,79.5 161.3,79.8 162.6,80.2 163.8,80.6 164.7,80.9 165.8,81.3 167.2,81.8 168.2,82.2 169.6,82.7 171,83.2 172.2,83.7 173.1,84 174,84.4 174.9,84.8 176.2,85.4 177.5,85.9 178.8,86.5 180.1,87 181,87.4 181.5,87.6 182,87.9 183.2,88.5 184.5,89.2 185.8,89.9 187.1,90.6 188.8,91.5 189.8,92 190.7,92.5 191.6,92.9 193.1,93.7 194.2,94.2 195.3,94.8 197,95.6 198.7,96.5 199.8,97 200.9,97.6 202.1,98.2 202.7,98.5 203.8,99.1 205.2,99.8 206.6,100.5 207.9,101.1 209.2,101.8 210.3,102.2 211.3,102.7 212.3,103.2 213.5,103.8 214.7,104.4 215.6,104.9 216.7,105.5 217.9,106.1 218.9,106.6 220.2,107.3 221.8,108.1" style="stroke: rgb(59, 130, 246); stroke-width: 7;"></polyline><polyline vector-effect="non-scaling-stroke" fill="none" points="223,108.7 224.1,109.2 225.5,109.9 226.6,110.4 227.6,110.9 228.6,111.4 229.6,111.9 230.7,112.5 231.8,113 232.8,113.5 234.3,114.2 235.8,114.9 236.9,115.4 238,115.9 239,116.4 239.9,116.8 241,117.4 242.1,118 243.4,118.7 244.7,119.4 245.8,120 246.7,120.5 248.2,121.1 249.5,121.7 250.8,122.2 251.9,122.7 253,123.2 253.9,123.7 254.8,124.2 255.7,124.7 256.6,125.2 258.2,125.9 259.4,126.5 260.6,127 261.8,127.6 263,128.2 263.5,128.5 264.3,129 265.3,129.6 266.3,130.2 267.5,130.8 268.8,131.6 270.5,132.4 272,133.2 273.5,133.9 274.8,134.6 276,135.2 276.5,135.5 277,135.8 277.9,136.5 278.8,137.1 279.7,137.7 280.9,138.6 282.1,139.4 282.9,139.9 283.9,140.7 285.3,141.8 286.4,142.7 287.5,143.6 288.6,144.5 289.9,145.5 290.8,146.2 291.7,146.8 292.6,147.5 293.5,148.3 294,148.8 294.7,149.5 295.4,150.3 296.1,151 297,151.9 297.9,152.8 298.6,153.5 299.3,154.2 299.9,155 300.5,155.8 301.1,156.6 301.7,157.3 302.4,158.3 303.2,159.3 303.7,160 304.4,161 305.1,162.1 305.6,162.9 306.3,164 307,165.1 307.5,165.9 308,166.7 308.6,167.7 309,168.4 309.5,169.3 310.2,170.5 310.8,171.7 311.4,172.7 311.9,173.7 312.5,174.7 312.8,175.4 313.3,176.3 313.7,177.2 314.2,178.1 314.5,178.8 315,179.8 315.3,180.6 315.6,181.4 316,182.6 316.4,183.8 316.7,184.7 317.1,186 317.5,187.3 317.7,188.2 318,189.1 318.2,190 318.3,190.6 318.4,191.5 318.5,192.5 318.6,193.6 318.7,194.8 318.8,196 318.9,197 319,198 318.9,199 318.8,200 318.7,200.9 318.6,201.7 318.5,202.4 318.5,203 318.3,203.9 318.1,204.8 317.7,206 317.3,207.2 316.9,208.4 316.6,209.1 316.3,209.8 316.2,210.2 316,210.6 315.8,211 315.4,211.7 315,212.4 314.3,213.4 313.7,214.4 312.7,215.8 312,217 311.2,218.1 310.7,218.9 309.8,220.1 309.2,220.8 308.6,221.5 308,222.3 307.3,223 307,223.3 306.7,223.7 306.3,224 306,224.3 305.3,225 304.5,225.6 303.6,226.3 302.7,227.2 301.7,228 301,228.6 300.2,229.4 299.4,230.1 298.7,230.7 297.9,231.5 296.9,232.3 295.9,233.1 295,233.9 294,234.6 292.8,235.4 291.8,236.2 290.9,236.8 290,237.4 288.8,238.3 287.9,238.9 287.1,239.4 286,240.2 284.8,241.1 283.9,241.7 283,242.4 282.1,243.1 281.3,243.6 280.3,244.2 279.3,244.9 278.3,245.5 277.3,246.1 276.3,246.8 275.3,247.4 274.3,248 273.3,248.7 272,249.4 270.9,250 269.9,250.6 268.6,251.3 267.3,252 266.3,252.7 265,253.4 263.9,254 262.9,254.6 261.6,255.3 260.3,256 259.2,256.7 257.9,257.4 256.8,258 255.8,258.6 254.8,259.1 253.9,259.6 252.7,260.3 251.5,260.9 250.3,261.5 248.8,262.4 247.3,263.2 246.2,263.8 245.1,264.5 243.8,265.2 242.8,265.7 241.4,266.5 240.1,267.2 238.8,267.9 237.9,268.5 236.6,269.2 235.6,269.7 234.4,270.4 233,271.2 231.6,271.9 230.3,272.7 229,273.5 227.9,274.1 227,274.6 225.6,275.4 224.4,276 222.9,276.8 221.4,277.6 219.7,278.5 218.2,279.4 216.7,280.2 215.6,280.8 214.5,281.5 213.6,282 212.6,282.5 211.4,283.2 210.2,283.8 208.7,284.6 207.2,285.5 206,286.1 205.1,286.6 203.8,287.4 202.8,287.9 201.6,288.5 200.2,289.3 198.8,290 197.5,290.7 196.2,291.5 195,292.1 194.1,292.6 192.8,293.4 191.8,293.9 190.5,294.6 189.2,295.4 187.9,296.1 187,296.6 185.7,297.4 184.6,297.9 183.4,298.5 182,299.3 180.6,300 179.3,300.7 178,301.5 176.9,302.1 176,302.6 174.5,303.5 173.2,304.1 172,304.7 170.6,305.5 169.2,306.2 168.2,306.7 166.9,307.5 165.6,308.2 164.5,308.8 163.2,309.6 161.7,310.4 160.6,311 159.5,311.7 158.4,312.3 157.5,312.8 156.5,313.4 155.5,313.9 154.5,314.4 152.9,315.3 151.3,316.1 150.1,316.7 148.6,317.6 147.1,318.4 146,319 144.3,320 142.7,320.9 141.4,321.6 140.1,322.4 138.7,323.1 137.9,323.5 136.7,324.2 135.5,324.8 134,325.6 132.7,326.4 131.4,327.1 130.3,327.7 129.2,328.4 128.3,328.8 127.1,329.4 125.6,330.3 124.3,331 123,331.7 121.5,332.6 120.4,333.2 119.3,333.8 118.2,334.5 117.1,335.1 116.2,335.6 114.9,336.4 113.9,336.9 112.7,337.5 111.5,338.2 110.3,338.8 108.9,339.5 107.5,340.3 106.3,340.9 104.7,341.7 103.2,342.6 102.3,343.1 101.1,343.8 99.9,344.6 99,345.1 98.1,345.6 97.2,346.2 96.1,346.7 94.7,347.4 93.3,348.2 91.9,348.9 90.3,349.7 88.9,350.6 87.8,351.2 86.7,351.8 85.4,352.6 84.3,353.3 83.5,353.7 82,354.5 80.6,355.3 79.4,355.9 78.2,356.5 76.8,357.3 75.7,357.9 74.6,358.5 73.2,359.4 71.8,360.2 70.5,360.9 69.4,361.6 68.3,362.2 67.3,362.7 66.1,363.3 64.4,364.2 62.9,365 61.4,365.8 60.1,366.5 58.4,367.5 57.3,368.1 56.2,368.7 54.8,369.6 53.3,370.5 52.4,371 51.3,371.7 49.9,372.6 48.7,373.2 47.6,373.8 46.3,374.6 45.2,375.2 44.4,375.6 43.3,376.2 42,376.8 40.6,377.5 39.2,378.3 37.7,379 36.4,379.7 35,380.6 33.9,381.2 32.8,381.8 31.7,382.5 30.3,383.4 29.2,384 28.1,384.7 26.7,385.5 25.4,386.2 24.3,386.8 23.1,387.5 21.9,388.1 21,388.6 20.1,389.2 18.7,389.9 17.4,390.5 16.1,391.2 14.6,392 12.7,392.9 11.6,393.5 10.5,394.2 8.8,395.2 7.3,396 6.2,396.7 4.8,397.5 3.1,398.5 2,399.1 0.8,399.8 -0.6,400.6 -1.7,401.2 -2.8,401.7 -4.1,402.4 -5.6,403.3 -7,404 -8.4,404.8 -9.5,405.5 -10.8,406.2 -12,406.7 -13.5,407.5 -15,408.3 -16.9,409.2 -18.7,410.2 -20.4,411.2 -21.9,412.1 -23.4,413 -25.2,414.1 -26.8,415 -28.5,416 -30,416.8 -31.9,417.8 -33.1,418.5 -34.5,419.3 -36,420.2 -37.5,421.1 -38.7,421.8 -39.9,422.5 -40.9,423.1 -42.3,423.7 -43.8,424.4 -45.4,425.2 -47.4,426.2 -49.3,427.2 -50.5,427.9 -51.9,428.7 -53.4,429.6 -54.6,430.3 -56,431.1 -57.5,431.9 -58.9,432.7 -60.4,433.5 -61.8,434.3 -63.2,435.1 -64.9,436.1 -66.4,437 -67.6,437.7 -69,438.5 -70.3,439.2 -71.2,439.8 -72.9,440.6 -74.5,441.4 -76.3,442.3 -78,443.2 -79.7,444.1 -80.9,444.8 -82.4,445.7 -83.6,446.4 -85,447.2 -86.7,448.1 -88.1,448.9 -89.6,449.7 -91,450.5 -92.4,451.3 -93.9,452.2 -95.4,453.1 -96.6,453.8 -97.8,454.5 -98.9,455.1 -100.3,455.8 -101.8,456.5 -103.4,457.3 -105.3,458.3 -107.2,459.3 -108.4,460 -110.1,461 -112,462.1 -113.6,463 -115.1,463.9 -116.9,464.8 -118.4,465.7 -119.6,466.4 -121,467.2 -122.7,468.1 -124.1,468.9 -125.5,469.7 -126.9,470.5 -128.1,471.2 -129.1,471.8 -130.6,472.6 -131.8,473.2 -133.2,473.9 -134.8,474.7 -136.7,475.6 -138.1,476.4 -139.8,477.3 -141.5,478.3 -143,479.2 -144.2,479.9 -145.6,480.7 -147.1,481.6 -148.3,482.3 -149.5,483 -150.9,483.8 -152.3,484.6 -153.6,485.3 -154.9,486 -156.2,486.6 -157.9,487.5 -159.4,488.3 -160.7,489 -162.2,489.7 -164,490.7 -165.2,491.4 -166.4,492.1 -168.1,493.1 -169.6,494 -170.8,494.7 -172.2,495.5 -173.6,496.3 -174.7,496.8 -176.1,497.6 -177.5,498.4 -178.9,499.2 -180.3,499.9 -181.5,500.6 -183,501.4 -184.6,502.3 -186,503.1 -187.4,503.9 -188.7,504.7 -190.1,505.5 -191.4,506.2 -192.7,506.8 -194.2,507.6 -196,508.6 -197.2,509.3 -198.4,509.9 -200.2,511 -201.8,512 -203.2,512.7 -204.5,513.4 -205.8,514.2 -207,514.8 -208.4,515.4 -210,516.3 -211.7,517.2 -213.4,518.1 -214.8,518.8 -216.2,519.6 -217.6,520.4 -219,521.2 -220.4,521.9 -221.8,522.8 -223.1,523.6 -224.1,524.2 -225,524.8 -226.5,525.6 -227.7,526.2 -229,526.9 -230.7,527.8 -232.4,528.6 -233.5,529.3 -235.2,530.3 -236.7,531.2 -237.8,531.8 -239,532.5 -240.7,533.5 -241.8,534.2 -243,534.8 -244.2,535.5 -245.3,536.2 -246.5,536.8 -247.7,537.3 -249,538 -250.6,538.9 -252.3,539.8 -253.4,540.4 -254.7,541.2 -256.2,542.1 -257.4,542.8 -258.5,543.4 -259.8,544.2 -261,544.9 -261.8,545.4 -263.2,546.1 -264.7,546.9 -266,547.6 -267.4,548.3 -269.1,549.2 -270.3,549.9 -271.4,550.5 -272.7,551.2 -273.8,551.9 -274.6,552.3 -276,553 -277.5,553.8 -278.8,554.5 -280.7,555.4 -282.6,556.4 -283.8,557.1 -285.3,557.9 -287.2,558.9 -288.5,559.7 -289.8,560.4 -291.1,561.1 -292,561.7 -292.5,562 -293.7,562.6 -294.9,563.3 -296.1,563.9 -297.5,564.6 -298.9,565.3 -299.6,565.7 -300.7,566.3 -301.9,566.9 -302.9,567.4 -304.3,568.2 -305.7,568.9 -306.7,569.4 -307.6,569.9 -308.9,570.6 -309.8,571.1 -310.9,571.7 -312.3,572.5 -313.8,573.3 -314.9,573.9 -316.2,574.6 -317.3,575.2 -318.3,575.7 -319.2,576.2 -320.3,576.8 -321.2,577.3 -322.3,577.9 -323.2,578.4 -324.3,579 -325.2,579.5 -326.3,580 -327.2,580.5 -328.3,581 -329.5,581.7 -330.7,582.4 -331.7,583 -332.7,583.6 -333.7,584.2 -334.4,584.6 -335.1,584.9 -336.3,585.6 -337.5,586.2 -338.5,586.8 -339.5,587.3 -340.5,587.9 -341,588.1 -341.5,588.4 -342.5,588.8 -343.6,589.4 -344.7,589.9 -346.1,590.6 -347.5,591.2 -348.5,591.7 -349.4,592 -350.3,592.3 -351.1,592.5 -352,592.7 -352.9,592.9 -353.9,593.1 -355,593.3 -356,593.4 -357,593.5 -358,593.5 -359.2,593.5 -360.4,593.5 -361.5,593.4 -362.5,593.3 -363.5,593.2 -364.2,593 -364.9,592.8 -365.6,592.6 -366.7,592.1 -367.7,591.6 -368.6,591.1 -369.7,590.4 -370.7,589.7 -371.3,589.3 -371.8,588.8 -372.4,588.4 -372.6,588.1 -372.9,587.9 -373.1,587.6 -373.7,587 -374.5,585.9 -375.4,584.7 -376.4,583.1 -377.6,581.2 -378.6,579.3 -379.4,577.5 -380.2,575.9 -380.8,574.6 -381.2,573.6 -381.5,572.8 -382,571.8 -382.5,570.6 -383,569.4 -383.5,568.2 -384.2,566.5 -384.8,565.1 -385.3,563.8 -385.9,562.4 -386.7,560.7 -387.3,559.4 -387.7,558.3 -388.3,557 -388.8,555.8 -389.3,554.6 -389.9,553.4 -390.5,552.2 -391.1,551 -391.7,549.8 -392.1,548.9 -392.4,548.2 -392.7,547.5 -393,546.5 -393.4,545.5 -393.8,544.5 -394.2,543.6 -394.6,542.7 -394.8,542.3 -395.2,541.4 -395.6,540.5 -395.9,539.5 -396.3,538.5 -396.7,537.5 -397,536.5 -397.4,535.5 -397.8,534.5 -398.2,533.5 -398.6,532.5 -398.8,532 -399.1,530.9 -399.5,529.7 -399.8,528.5 -400.1,527.3 -400.5,526.1 -400.8,525.1 -401,524.2 -401.2,523.3 -401.5,522.4 -401.8,520.9 -402,519.8 -402.3,518.7 -402.6,517.6 -402.8,516.5 -402.9,516 -403,515.5 -403.1,514.2 -403.3,512.9 -403.5,511.6 -403.7,510.3 -403.9,509 -404,508.4 -404,507.8 -404,507 -404,505.9 -404,504.8 -404,503.6 -404,502.3 -404,501.2 -404,500.2 -404,498.9 -404,497.8 -404,496.6 -404,495.3 -404,494.2 -404,493 -404,491.8 -404,490.6 -404,489.4 -404,488.1 -404,486.9 -404,485.6 -404,484.5 -404,483.3 -404,482 -404,480.8 -403.9,479.6 -403.8,478.4 -403.7,477 -403.6,475.8 -403.5,474.6 -403.5,473.3 -403.5,471.8 -403.5,470.7 -403.5,469.5 -403.5,468.5 -403.5,467.7 -403.4,466.3 -403.3,464.9 -403.2,463.4 -403.1,461.7 -402.9,459.8 -402.8,458.6 -402.7,457.1 -402.6,455.7 -402.5,454.5 -402.5,453.1 -402.5,451.8 -402.5,450.4 -402.5,449.1 -402.5,447.6 -402.5,446 -402.5,444.1 -402.5,442.5 -402.5,440.9 -402.5,439.1 -402.5,437.8 -402.5,436.5 -402.5,435.1 -402.5,433.6 -402.5,432.2 -402.5,430.8 -402.4,429.6 -402.3,428.6 -402.2,427.7 -402,426.4 -401.8,424.9 -401.7,423.3 -401.6,421.5 -401.5,419.4 -401.5,417.9 -401.5,416.3 -401.5,414.9 -401.5,413.5 -401.5,412.2 -401.5,410.8 -401.5,409.4 -401.4,407.9 -401.3,406.3 -401.2,404.8 -401.1,403.2 -401,401.9 -401,400.3 -401,399 -401,397.5 -401,396.1 -401,394.5 -401,393.3 -401,392 -401,391 -400.9,389.4 -400.7,388 -400.5,386.2 -400.3,384.5 -400.1,382.5 -400,381.1 -400,379.5 -400,378.1 -400,376.4 -400,374.9 -400,373.3 -400,371.6 -400,370.1 -400,368.8 -400,367.6 -399.9,366 -399.8,364.4 -399.6,362.8 -399.4,360.9 -399.2,358.9 -399.1,357.2 -399,355.6 -399,353.7 -399,351.7 -399,349.5 -399,347.7 -399,346 -399,344.5 -398.9,342.7 -398.8,341.2 -398.6,339.3 -398.4,337.2 -398.2,334.9 -398.1,333.3 -398,331.4 -398,329.6 -398,327.9 -398,326.2 -398,324.3 -398,322.7 -398,321.3 -397.9,319.5 -397.8,317.6 -397.6,315.7 -397.4,313.5 -397.2,311.4 -397.1,309.5 -397,307.7 -397,305.9 -397,304.1 -397,302.1 -397,300.2 -397,298.5 -397,297 -396.9,295 -396.8,292.9 -396.6,290.9 -396.4,288.8 -396.2,286.5 -396.1,284.7 -396,283 -396,281.2 -396,279.3 -396,277.4 -396,275.7 -396,274.1 -395.9,272 -395.8,270 -395.6,268 -395.4,265.8 -395.2,263.4 -395.1,261.4 -395,259.3 -395,257.1 -395,254.8 -395,252.7 -395,250.9 -394.9,248.7 -394.8,246.7 -394.7,244.8 -394.5,242.7 -394.3,240.4 -394.2,238.4 -394.1,236.3 -394,234.2 -394,232 -394,229.8 -393.9,227.2 -393.8,224.6 -393.7,222 -393.5,219.6 -393.3,217.2 -393.2,215 -393.1,212.8 -393,210.7 -393,208.7 -393,206.9 -392.9,205 -392.8,203 -392.7,200.9 -392.6,198.6 -392.4,196 -392.3,193.7 -392.2,191.5 -392.1,189.3 -392,187.3 -392,185.6 -391.9,183.7 -391.8,181.8 -391.7,179.9 -391.6,177.8 -391.4,175.4 -391.3,173.3 -391.2,171.2 -391.1,169.1 -391,167.1 -391,165.4 -391,163.9 -390.9,162 -390.8,160 -390.7,157.8 -390.5,155.3 -390.3,152.6 -390.2,150.3 -390.1,148.1 -390,146.1 -390,144.4 -390,142.9 -389.9,140.9 -389.8,138.9 -389.7,136.9 -389.6,135.8 -389.5,134.2" style="stroke: rgb(251, 191, 36); stroke-width: 7;"></polyline></svg>