<svg xmlns="http://www.w3.org/2000/svg" xmlns:xlink="http://www.w3.org/1999/xlink" preserveAspectRatio="xMidYMid meet" height="100%" viewBox="-651 -1037 1302 2076"><polygon vector-effect="non-scaling-stroke" fill="none" points="-236,-674.7 -236.4,-675.3 -236.8,-675.8 -237.5,-676.8 -238.3,-678 -238.8,-678.8 -239.4,-679.8 -240.2,-681.1 -241,-682.4 -241.7,-683.5 -242.4,-684.6 -243,-685.5 -243.4,-686.2 -243.8,-686.9 -244.3,-687.8 -245,-689 -245.7,-690.2 -246.3,-691.2 -247.3,-692.7 -248.2,-694.1 -249.2,-695.7 -250.3,-697.3 -251.3,-698.9 -252.2,-700.4 -253.1,-701.7 -253.7,-702.6 -254.3,-703.7 -255.1,-705.1 -256,-706.5 -256.9,-708 -257.7,-709.4 -258.8,-711 -259.7,-712.3 -260.3,-713.3 -261,-714.5 -261.8,-715.7 -262.6,-717.1 -263.5,-718.5 -264.3,-719.8 -265.3,-721.3 -266.3,-722.9 -267.2,-724.3 -268.1,-725.7 -269.1,-727.1 -269.8,-728.2 -270.7,-729.7 -271.6,-731.1 -272.4,-732.5 -273.5,-734.3 -274.6,-736.1 -275.6,-737.7 -276.4,-739 -277.3,-740.4 -277.9,-741.4 -278.7,-742.8 -279.8,-744.4 -280.9,-746 -281.9,-747.5 -283.1,-749.4 -284.2,-750.9 -285,-752.2 -285.8,-753.7 -287,-755.7 -288,-757.3 -288.9,-758.9 -289.8,-760.5 -290.8,-762.1 -291.8,-763.7 -292.9,-765.4 -294.2,-767.4 -295.4,-769.2 -296.5,-770.8 -297.5,-772.3 -298.7,-774.2 -299.7,-775.8 -300.9,-777.7 -302.2,-779.7 -303.4,-781.6 -304.2,-783 -305.4,-784.9 -306.4,-786.5 -307.5,-788.3 -308.5,-789.9 -309.8,-791.9 -310.7,-793.4 -311.8,-795.1 -313.1,-797.2 -314.4,-799.3 -315.5,-801 -316.8,-803 -317.9,-804.8 -318.7,-806.2 -319.6,-807.7 -320.8,-809.7 -321.9,-811.4 -323.1,-813.3 -324.4,-815.2 -325.6,-817 -326.7,-818.7 -327.7,-820.4 -328.6,-821.8 -329.7,-823.6 -330.8,-825.4 -331.7,-826.9 -332.9,-828.8 -334.2,-830.8 -335.2,-832.4 -336.4,-834.3 -337.8,-836.5 -338.9,-838.2 -339.9,-839.8 -341,-841.5 -341.9,-842.9 -342.9,-844.5 -343.9,-846.1 -345.1,-848.1 -346.1,-849.7 -347.1,-851.3 -348.1,-852.9 -349.1,-854.5 -350.1,-856.1 -351.1,-857.8 -352.1,-859.4 -352.8,-860.4 -353.8,-862 -354.8,-863.6 -355.9,-865.2 -357,-866.9 -358.1,-868.6 -359,-870 -359.8,-871.2 -360.7,-872.7 -361.6,-874.1 -362.8,-876.1 -363.9,-877.8 -364.9,-879.4 -365.9,-881 -366.9,-882.6 -367.9,-884.1 -368.9,-885.6 -369.8,-887.1 -370.9,-888.8 -372,-890.5 -372.7,-891.7 -373.5,-893.2 -374.4,-894.6 -375.2,-896 -376,-897.4 -376.9,-898.9 -377.8,-900.3 -379,-902.2 -379.9,-903.5 -380.7,-904.8 -381.5,-906.1 -382.5,-907.7 -383.2,-908.8 -383.9,-910 -384.8,-911.4 -385.7,-912.7 -386.7,-914.2 -387.6,-915.7 -388.5,-917.2 -389.3,-918.5 -390.4,-920.4 -391.1,-921.6 -391.9,-922.8 -392.6,-923.9 -393.6,-925.6 -394.3,-926.7 -395.2,-928.2 -396.1,-929.7 -397.1,-931.2 -397.7,-932.1 -398.6,-933.6 -399.3,-934.7 -400,-935.8 -400.8,-937.2 -401.9,-938.9 -402.7,-940 -403.4,-941.1 -404.2,-942.5 -405.1,-943.9 -405.7,-945 -406.3,-946.1 -407.3,-947.7 -408.2,-949 -408.8,-950 -409.5,-951 -410.2,-952 -410.8,-953 -411.7,-954.4 -412.6,-955.8 -413.5,-957.2 -414.4,-958.6 -415.2,-959.8 -415.8,-960.9 -416.5,-962 -417.2,-963.1 -418.1,-964.6 -418.9,-965.8 -419.7,-967 -420.5,-968.2 -421.2,-969.4 -421.7,-970.2 -422.2,-971 -422.8,-971.9 -423.7,-973.3 -424.6,-974.7 -425.5,-976 -426.3,-977.4 -426.9,-978.4 -427.3,-979.1 -428,-980.1 -428.6,-981.2 -429.3,-982.2 -430.1,-983.5 -430.8,-984.6 -431.3,-985.4 -431.8,-986.2 -432.3,-986.9 -432.6,-987.3 -432.9,-987.7 -433.2,-988.4 -433.6,-989.1 -433.9,-989.9 -434.3,-990.6 -434.6,-991.3 -434.9,-991.7 -435.1,-992.1 -435.4,-992.8 -435.7,-993.5 -436.1,-994.5 -436.5,-995.9 -436.9,-997.3 -437.3,-998.3 -437.6,-999.4 -437.8,-1000.4 -437.9,-1001.2 -438,-1002.1 -437.9,-1003.3 -437.7,-1004.4 -437.4,-1005.6 -437,-1006.5 -436.6,-1007.3 -436.2,-1007.9 -435.9,-1008.6 -435.5,-1009.2 -435.1,-1009.8 -434.7,-1010.4 -434.2,-1011 -433.3,-1011.8 -432.5,-1012.4 -431.6,-1013.1 -430.5,-1013.8 -429.3,-1014.5 -428.1,-1015 -426.9,-1015.4 -425.7,-1015.7 -424.6,-1015.9 -423.7,-1016 -423,-1016 -422.3,-1016 -421.8,-1015.9 -421.3,-1015.8 -420.8,-1015.7 -420.3,-1015.6 -419.5,-1015.4 -418.5,-1015.3 -417.6,-1015.1 -416.6,-1014.9 -415.6,-1014.6 -414.8,-1014.4 -414.1,-1014.2 -413.2,-1014 -412.4,-1013.7 -411.7,-1013.5 -411.2,-1013.2 -410.3,-1012.8 -409.6,-1012.4 -408.9,-1012.1 -408.2,-1011.8 -407.2,-1011.4 -406.6,-1011.1 -405.7,-1010.7 -404.5,-1010.1 -403.3,-1009.5 -402,-1008.9 -400.5,-1008.2 -399.3,-1007.6 -398.4,-1007.2 -397.3,-1006.6 -396.5,-1006.2 -395.4,-1005.6 -394.2,-1005.1 -393,-1004.5 -391.8,-1004 -390.6,-1003.4 -389.7,-1003 -388.8,-1002.5 -387.7,-1002 -386.5,-1001.4 -385.2,-1000.9 -384.2,-1000.4 -382.9,-999.9 -381.8,-999.4 -380.8,-999 -379.9,-998.5 -378.7,-998 -377.8,-997.5 -376.7,-997 -375.4,-996.4 -374.1,-995.9 -373,-995.4 -371,-994.5 -369.2,-993.7 -367.4,-992.9 -365.6,-992.1 -363.8,-991.3 -362.7,-990.9 -361.6,-990.4 -360.6,-989.9 -359.4,-989.3 -357.9,-988.6 -356.5,-987.9 -354.8,-987.2 -353.3,-986.6 -352,-986 -351,-985.6 -349.7,-985 -348.6,-984.4 -347.4,-983.8 -345.8,-983.1 -343.9,-982.2 -342.3,-981.6 -340.8,-981 -339.4,-980.4 -337.9,-979.7 -336.1,-978.9 -334.4,-978.1 -332.7,-977.3 -330.8,-976.4 -329,-975.6 -327.8,-975.1 -326.3,-974.4 -324.7,-973.7 -322.8,-972.9 -321.3,-972.3 -319.7,-971.6 -317.8,-970.8 -315.9,-970 -314.5,-969.4 -312.4,-968.4 -310.3,-967.4 -308.7,-966.6 -306.8,-965.6 -304.6,-964.5 -303,-963.7 -301.3,-962.9 -299.4,-962 -297.6,-961.2 -295.7,-960.4 -293.9,-959.6 -292,-958.7 -290.1,-957.8 -288.2,-956.9 -286.2,-955.9 -284.1,-954.9 -282,-953.9 -279.8,-952.9 -277.6,-951.9 -275.6,-950.9 -273.7,-949.9 -271.8,-948.9 -270,-947.9 -268.2,-946.9 -266.5,-946 -264.4,-945 -262.2,-943.8 -260.1,-942.7 -258,-941.6 -255.9,-940.4 -253.9,-939.2 -252,-938.2 -249.9,-937.1 -247.8,-936 -245.7,-934.9 -243.8,-933.9 -241.7,-932.7 -239.7,-931.5 -237.4,-930.1 -235.1,-928.8 -232.9,-927.5 -231.1,-926.5 -228.9,-925.1 -226.9,-923.9 -225.1,-922.7 -222.7,-921.2 -220.4,-919.7 -218.5,-918.6 -216.9,-917.5 -214.9,-916.2 -212.9,-914.8 -210.8,-913.4 -208.6,-911.8 -206.2,-910.2 -204,-908.8 -202.3,-907.7 -200.4,-906.4 -198.3,-905.1 -196.4,-903.8 -194.3,-902.3 -192.2,-900.8 -190.1,-899.2 -188,-897.6 -185.9,-896 -184.2,-894.7 -182.3,-893.3 -180.2,-891.8 -178.6,-890.5 -176.8,-889.1 -174.7,-887.4 -172.4,-885.6 -170.5,-884.1 -168.4,-882.4 -166.2,-880.7 -164.3,-879.2 -162.6,-877.8 -160.5,-876.1 -158.7,-874.7 -156.9,-873.2 -155.1,-871.7 -153.3,-870.2 -151.7,-868.8 -149.5,-866.9 -147.6,-865.3 -145.5,-863.5 -143.4,-861.6 -141.3,-859.7 -139.7,-858.3 -137.6,-856.3 -135.7,-854.6 -133.8,-852.9 -132,-851.3 -130,-849.4 -128.3,-847.8 -126.7,-846.1 -125.1,-844.4 -123.1,-842.5 -121.3,-840.7 -119.5,-838.8 -117.4,-836.7 -115.3,-834.6 -113.8,-832.9 -112.2,-831.1 -110.6,-829.3 -109,-827.5 -107.4,-825.8 -105.5,-823.7 -103.7,-821.8 -102,-819.9 -100.4,-818.1 -98.8,-816.2 -97.4,-814.6 -95.6,-812.5 -94,-810.7 -92.3,-808.8 -90.6,-806.8 -88.7,-804.7 -87,-802.9 -85.2,-801.1 -83.4,-799.2 -81.7,-797.4 -80,-795.5 -78.5,-793.8 -76.6,-791.6 -74.7,-789.5 -73,-787.6 -71.3,-785.6 -69.4,-783.5 -67.7,-781.6 -65.9,-779.6 -64.1,-777.7 -62.3,-775.9 -60.6,-774 -58.8,-772.2 -57.4,-770.7 -55.5,-768.6 -53.6,-766.5 -51.8,-764.6 -50.1,-762.7 -48.4,-760.8 -46.9,-759.2 -45.3,-757.5 -43.6,-755.5 -41.9,-753.6 -40,-751.5 -38,-749.3 -36.3,-747.4 -34.5,-745.7 -32.8,-743.9 -30.9,-741.9 -29.2,-740 -27.3,-738 -25.7,-736.1 -23.7,-733.9 -22,-732.1 -20.2,-730.3 -18.7,-728.7 -16.9,-726.8 -15.4,-725.1 -13.7,-723.2 -12,-721.3 -10.1,-719.1 -8.5,-717.3 -6.9,-715.6 -5.3,-713.8 -3.6,-711.9 -1.8,-710.1 0,-708.2 1.8,-706.4 3.6,-704.6 5,-703.2 6.6,-701.4 8.2,-699.6 9.8,-697.7 11.4,-695.9 13.3,-693.8 14.9,-692 16.5,-690.3 18.1,-688.6 19.7,-686.9 21.3,-685.2 22.9,-683.5 24.5,-681.8 26.1,-680 27.6,-678.3 29.2,-676.5 30.8,-674.8 32.4,-673.1 34,-671.5 35.6,-669.8 37.1,-668.3 38.4,-666.9 40.1,-665 41.5,-663.4 43,-661.8 44.4,-660.2 46.1,-658.4 47.4,-657 49,-655.4 50.3,-654 51.4,-652.9 52.5,-651.6 53.8,-650.2 54.8,-649 56.1,-647.6 57.6,-645.9 58.8,-644.7 59.9,-643.6 61.2,-642.2 62.2,-641.1 63.3,-640 64.4,-638.9 65.4,-637.9 66.7,-636.7 68,-635.5 69,-634.5 70.2,-633.3 71.4,-632.1 72.1,-631.4 73.1,-630.4 74.1,-629.4 75.3,-628.3 76.5,-627.2 77.7,-626.1 78.7,-625.2 79.7,-624.3 80.6,-623.5 81.9,-622.4 83.2,-621.3 84.4,-620.3 85.6,-619.4 86.9,-618.4 88.1,-617.6 89.3,-616.8 90.7,-615.9 92.2,-615 93.3,-614.4 94.5,-613.6 96,-612.7 97.3,-612 98.7,-611.1 100.1,-610.2 101.4,-609.6 102.4,-609.1 103.4,-608.5 104.7,-607.7 106.2,-606.9 107.4,-606.1 108.9,-605.2 110.7,-604.2 112.2,-603.4 113.5,-602.7 114.8,-602 116.2,-601.2 117.4,-600.5 118.4,-600 119.8,-599.1 121.5,-598.1 123,-597.2 124.4,-596.3 126.1,-595.2 127.6,-594.3 128.9,-593.5 130,-592.8 131.4,-591.9 132.8,-590.9 134.3,-589.9 135.7,-588.9 137.1,-587.9 138.7,-586.9 140,-586.1 141.4,-585.1 142.8,-584.1 144.2,-583.1 145.3,-582.1 146.6,-581 147.9,-579.9 149.2,-578.8 150.6,-577.7 151.8,-576.8 152.8,-576 153.9,-574.9 155,-573.8 156.1,-572.6 157.4,-571.2 158.7,-569.8 159.5,-568.9 160.4,-567.8 161.6,-566.4 162.6,-565.2 163.5,-564 164.5,-562.7 165.5,-561.3 166.6,-559.7 167.7,-558.1 168.8,-556.5 169.8,-555.1 170.8,-553.7 171.4,-552.6 172,-551.5 172.7,-550.2 173.5,-548.6 174.3,-547 175.1,-545.4 175.8,-543.8 176.6,-542.2 177.4,-540.5 178,-539.1 178.6,-537.8 179.4,-536.1 180.1,-534.4 180.7,-533.1 181.5,-531.5 182.2,-529.8 182.8,-528.4 183.6,-526.6 184.3,-524.8 185,-523 185.8,-521.2 186.5,-519.5 186.9,-518.3 187.5,-516.5 188.1,-514.8 188.5,-513.2 189,-511.5 189.6,-509.4 190.2,-507.6 190.6,-506 191.1,-504.4 191.6,-502.3 192,-500.7 192.4,-498.9 192.8,-497.1 193.2,-495.4 193.6,-493.6 194,-491.8 194.3,-490.4 194.7,-488.4 195.1,-486.4 195.4,-485.1 195.7,-483.3 196.1,-481 196.4,-479.3 196.7,-477 197.1,-474.6 197.5,-472.7 197.8,-470.8 198.1,-468.8 198.4,-467.4 198.7,-465.5 199.1,-463.5 199.5,-461.5 199.9,-459.5 200.3,-457.6 200.7,-455.6 201.1,-453.7 201.6,-451.8 202.2,-449.8 202.8,-447.7 203.4,-445.8 204.1,-443.6 204.7,-441.9 205.3,-440.1 206,-438.1 206.7,-436.5 207.4,-434.9 208.3,-432.8 209.2,-431 210.3,-429.1 211.4,-427.2 212.4,-425.5 213.3,-424 214.5,-422.1 215.4,-420.6 216.7,-418.7 218.1,-416.7 219.6,-414.8 220.8,-413.3 222,-411.8 223.1,-410.3 224.2,-408.9 225.4,-407.3 226.6,-405.7 227.8,-404 229,-402.4 230.1,-400.8 231,-399.4 232.2,-397.7 233.4,-396 234.6,-394.2 235.8,-392.5 237.3,-390.5 238.5,-388.7 239.7,-387 240.9,-385.3 242.2,-383.5 243,-382.3 244.2,-380.6 245.6,-378.6 246.7,-377 248.1,-375 249.6,-373 250.7,-371.5 251.9,-369.7 253.2,-367.9 254.4,-366.2 255.6,-364.3 257,-362.2 258.2,-360.6 259.6,-358.6 260.8,-356.9 262.3,-354.8 263.6,-353 265.1,-350.9 266.3,-349.2 267.7,-347 269.1,-345.1 270.5,-343.2 271.6,-341.6 273,-339.5 274.4,-337.5 275.5,-335.8 276.7,-333.8 278.2,-331.4 279.7,-329.3 280.9,-327.7 282.5,-325.4 284.2,-323.1 285.7,-321.2 287.2,-319 288.7,-316.7 290,-314.7 291.4,-312.7 292.7,-310.7 294.1,-308.7 295.6,-306.6 297.1,-304.5 298.5,-302.4 300,-300.3 301.4,-298.2 303,-295.8 304.7,-293.5 306.2,-291.4 307.6,-289.3 309.1,-287.2 310.5,-285.2 311.9,-283.2 313.4,-281.2 315.1,-278.8 316.8,-276.4 318.4,-274.2 319.9,-271.9 321.5,-269.5 323.2,-267.1 324.5,-265.2 326,-263.1 327.4,-261.1 328.9,-258.9 330.3,-256.8 332,-254.4 333.7,-251.9 335.3,-249.7 336.8,-247.6 338.3,-245.4 339.8,-243.3 341.3,-241.2 343,-238.7 344.5,-236.4 346,-234.3 347.4,-232.1 348.8,-230 350.3,-227.9 351.9,-225.7 353.6,-223.1 355.4,-220.6 356.9,-218.4 358.3,-216.2 359.7,-214.1 361.1,-212 362.2,-210.1 363.7,-207.6 365.3,-205 366.8,-202.3 368.4,-199.7 370,-197 371.2,-195 372.4,-192.7 373.6,-190.5 374.8,-188.3 376,-186.1 377.2,-183.8 378.5,-181.5 379.8,-179.2 381,-176.7 382.2,-174.3 383.7,-171.3 384.9,-168.9 386.2,-166.1 387.3,-163.7 388.6,-160.9 389.6,-158.8 390.6,-156.4 391.6,-154 392.7,-151.5 393.7,-149 395,-145.7 396.2,-142.8 397.2,-140.3 398.2,-137.5 399.1,-135.1 399.8,-133 400.6,-130.5 401.6,-127.6 402.5,-125.1 403.5,-122.2 404.6,-119.2 405.6,-116.3 406.6,-113.4 407.5,-110.8 408.4,-108.2 409.3,-105.3 410.3,-102.3 411.3,-99.3 412.3,-96.2 413.3,-93.1 414.2,-90.4 415.1,-87.7 416,-85 417,-81.9 418,-78.9 419,-75.9 420,-72.9 421,-69.8 422,-66.8 423,-63.7 424,-60.5 425,-57.2 426,-54.1 427,-50.9 428,-47.7 429.3,-44.2 430.4,-41.1 431.5,-37.8 432.6,-34.6 433.8,-31.3 434.7,-28.2 435.8,-24.8 436.9,-21.5 438,-18.1 439,-14.8 440,-11.6 441.1,-8.2 442.3,-4.7 443.3,-1.7 444.3,1.4 445.3,4.5 446.4,7.9 447.4,11.2 448.7,15 449.9,18.4 451.1,21.9 452.1,25 453.1,28 454,31.1 455.3,35 456.5,38.4 457.7,41.7 458.9,45.2 460.1,48.7 461,51.7 462,55.1 463.1,58.6 464.3,62.2 465.4,65.2 466.5,68.3 467.7,71.9 468.9,75.5 469.9,78.6 471,82.2 472.1,85.8 473.2,89 474.1,92.1 475.2,95.6 476.4,99.1 477.6,102.7 478.6,105.8 479.9,109.4 481,112.5 482,115.6 483,118.6 484.4,122.5 485.5,125.7 486.7,129.2 487.9,132.7 489.1,136.3 490,139.3 491.1,142.5 492.2,146.1 493.4,149.6 494.4,152.5 495.4,155.6 496.5,159 497.5,161.8 498.6,165.2 499.8,168.7 501,172.1 502,175.2 503.1,178.7 504.2,182.1 505.2,185.4 506.2,188.7 507.4,192.4 508.6,196.2 509.5,199.1 510.7,202.9 511.9,206.6 512.8,209.5 513.9,212.7 515,216 516.1,219.2 517.1,222.1 518.4,225.8 519.5,229.1 520.7,232.8 521.8,236.1 523,239.7 524,243 525,246.2 526,249.4 527.2,253 528.4,256.6 529.6,260.1 530.8,263.6 532,267 533,270.2 534,273.3 535,276.4 536,279.6 537,282.8 538,285.8 539.2,289.3 540.4,292.8 541.6,296.3 542.8,299.9 544,303.4 545,306.5 546,309.6 547.1,312.9 548.3,316.2 549.3,319.2 550.3,322.2 551.5,325.6 552.5,328.4 553.5,331.7 554.7,335.4 555.9,339.1 556.9,342.4 558,346 559,349 560,352 561.1,355.2 562.2,358.2 563.3,361.6 564.3,364.9 565.3,368.1 566.2,371.1 567.2,374.5 568.3,377.6 569.5,381.1 570.7,384.7 571.9,388.1 573,391.3 574,394.5 575,397.4 576,400.2 577,403.4 578,406.6 579,409.6 580.1,412.9 581.2,416.1 582.3,419.3 583.5,422.7 584.5,425.8 585.5,428.8 586.4,431.7 587.4,434.7 588.4,437.7 589.4,440.7 590.3,443.5 591.4,446.8 592.5,450 593.5,453 594.5,456 595.5,459.1 596.4,462 597.2,464.6 598.1,467.3 599.2,470.5 600.2,473.4 601.2,476.2 602.2,479.4 603.1,482.3 604,484.9 605,487.6 605.9,490 606.7,492.3 607.5,494.6 608.3,497 609.1,499.7 610,502.5 610.8,504.7 611.9,507.9 613,511.3 614,514 614.9,516.6 615.9,519.7 616.7,522.2 617.4,524.2 618.2,526.6 618.9,528.9 619.7,531.2 620.2,532.8 620.8,534.6 621.4,536.5 622,538.4 622.6,539.9 623.2,541.5 623.8,543.1 624.2,544.3 624.7,545.5 625.1,547 625.7,548.8 626.1,550.3 626.5,551.7 627,553.4 627.4,554.7 627.8,555.9 628.2,557.1 628.6,558.3 629,559.5 629.4,560.7 629.8,561.9 630.2,563.1 630.6,564.3 631,565.6 631.4,566.8 631.6,567.7 631.9,568.6 632.3,570 632.5,571.1 632.8,572.1 633.1,573.1 633.3,574.3 633.5,575.5 633.8,576.6 634,577.8 634.2,579 634.4,580.2 634.5,580.9 634.5,581.8 634.5,582.8 634.5,583.9 634.5,584.8 634.5,585.9 634.5,586.9 634.5,587.9 634.5,588.8 634.5,589.7 634.4,590.8 634.3,592 634.2,593.1 634,594.2 633.8,595.4 633.6,596.5 633.3,597.4 633,598.3 632.8,599.2 632.4,600.2 632,601.2 631.6,602.2 631.2,603.2 630.7,604.3 630.4,605.2 629.9,606.1 629.3,607.2 628.7,608.3 628.1,609.2 627.2,610.6 626.5,611.6 625.8,612.5 624.8,613.8 623.8,615.2 622.9,616.3 622,617.5 621.2,618.6 620.5,619.4 619.7,620.3 618.9,621.1 618.1,621.8 617.2,622.6 616.5,623.3 615.5,624.1 614.6,624.7 613.7,625.5 612.7,626.3 611.2,627.4 610.1,628.3 608.7,629.5 607.2,630.6 605.9,631.6 605,632.3 604.1,632.9 603.1,633.5 602.1,634.2 601.1,634.9 599.6,636 598.1,637.2 597,638.1 595.9,639.1 594.8,640 593.9,640.7 592.9,641.7 591.9,642.8 591,643.7 590,644.8 589.2,645.8 588.4,646.8 587.6,647.8 586.9,648.8 586.3,649.7 585.5,651 584.9,652 584.3,653 583.6,654.2 582.8,655.7 582.4,656.7 581.9,657.7 581.4,659 581,660.1 580.6,661.2 580.2,662.3 579.8,663.8 579.5,665 579.1,666.3 578.8,667.7 578.5,669.1 578.3,670.3 578.1,671.6 578,673 578,674.2 577.9,675.5 577.8,676.6 577.7,678 577.7,679.2 577.7,680.4 577.8,681.6 578,683.4 578.2,684.8 578.3,686.2 578.5,687.4 578.7,688.7 578.9,689.9 579.2,691.1 579.5,692.3 579.7,693.5 580.1,695.1 580.4,696.2 580.8,697.7 581.2,699.2 581.6,700.7 582.2,702.5 582.8,704.3 583.3,706.1 583.9,707.9 584.5,709.8 584.9,711.2 585.3,712.6 585.6,713.6 586,715 586.5,716.7 586.9,718 587.3,719.3 587.7,720.6 588.1,722 588.5,723.4 588.9,724.8 589.4,726.6 590,728.4 590.4,729.8 590.9,731.2 591.3,732.6 591.7,734 592.1,735.4 592.5,736.8 592.9,738.3 593.3,739.8 593.7,741.2 594.1,742.7 594.6,744.4 595,745.7 595.5,747.4 596,748.8 596.4,750.1 596.8,751.5 597.2,752.9 597.6,754.2 598,755.6 598.5,757.4 599,758.8 599.5,760.5 599.9,761.9 600.4,763.5 600.8,764.8 601.2,766.1 601.6,767.6 602,769.1 602.3,770.3 602.7,771.8 603,773.3 603.3,774.2 603.7,775.7 604,777.2 604.2,778.4 604.5,779.7 604.7,781 604.8,782 605,783.7 605.2,785.3 605.3,786.8 605.4,788.3 605.5,789.8 605.5,790.7 605.5,791.7 605.5,792.7 605.5,793.7 605.4,794.9 605.3,796.2 605.2,797.6 605,799.1 604.8,800.6 604.6,802 604.4,803.2 604.1,804.2 603.9,805.2 603.6,806.5 603.3,807.5 602.9,808.8 602.5,810.1 602.1,811.3 601.6,812.4 601.1,813.7 600.6,814.7 600.2,815.7 599.5,817.1 598.9,818.3 598.4,819.2 597.9,820.2 597.3,821.1 596.6,822.1 596,823.1 595.3,824.1 594.5,825.1 593.6,826.3 592.8,827.3 592,828.3 591.1,829.3 589.8,830.7 588.3,832.3 586.8,833.8 585.2,835.3 583.4,837 582,838.3 580.9,839.2 580,839.9 578.8,840.8 577.8,841.6 576.3,842.6 574.8,843.7 573,845 571.4,846.2 569.9,847.3 568.6,848.3 567.3,849.3 566.3,850.1 565.1,851 563.9,851.8 562.7,852.7 561.5,853.7 560.3,854.6 559.1,855.5 557.8,856.5 556.6,857.4 555.4,858.2 553.8,859.3 552.5,860.2 551,861.4 549.8,862.4 548.5,863.4 547.4,864.3 546.3,865.2 545.1,866 543.9,866.8 542.5,867.8 541,868.9 539.4,870.1 538.1,871.1 536.5,872.3 535.2,873.3 533.9,874.2 532.5,875.2 531,876.3 529.8,877.2 528.4,878.2 526.9,879.5 525.6,880.5 524.1,881.7 522.6,882.8 521.3,883.8 519.8,884.9 518.3,886.1 517.2,887 515.8,888.1 514,889.4 512.8,890.2 511.3,891.2 509.8,892.2 508.3,893.3 507.1,894.3 505.7,895.3 504.2,896.5 502.7,897.6 501.5,898.6 499.9,899.8 498.3,901.1 497.1,902 495.6,903.1 493.8,904.4 492.5,905.4 491.3,906.3 489.5,907.6 488,908.8 486.6,909.9 485.1,911 483.3,912.3 482.1,913.2 480.5,914.4 479.1,915.3 477.3,916.6 475.8,917.8 474.2,919 472.8,920 471.2,921.3 469.9,922.4 468.3,923.6 466.8,924.8 465.5,925.9 463.8,927.1 462.2,928.2 460.6,929.4 459,930.5 457.4,931.7 456,932.8 454.5,934 453.2,935 451.5,936.4 449.8,937.6 448.1,938.9 446.6,940 445,941.3 443.7,942.3 442.4,943.4 441.2,944.4 439.9,945.4 438.5,946.4 437.2,947.3 435.5,948.5 434.1,949.5 432.5,950.7 431,951.8 429.4,953.1 428.1,954.2 426.5,955.4 425,956.5 423.4,957.7 421.9,958.8 420.5,959.8 418.9,961 417.4,962.1 416,963.1 414.6,964.1 412.8,965.4 411.4,966.4 410.1,967.5 408.7,968.6 407.1,969.8 405.9,970.7 404.5,971.8 402.9,972.9 401.5,974 400.1,975.1 398.7,976.3 397.3,977.4 395.9,978.6 394.7,979.5 393.4,980.5 391.8,981.7 390.5,982.8 389.4,983.7 387.8,985 386.5,986.1 385.4,986.9 383.9,987.9 382.3,988.9 380.9,989.8 379.4,990.8 377.9,991.9 376.7,992.8 375.3,993.9 374.1,994.9 372.9,995.8 371.5,996.8 369.9,998 368.6,999 367.4,999.9 366,1001 364.6,1002.1 363.6,1003 362.5,1003.8 361.4,1004.7 360.2,1005.5 359,1006.3 357.6,1007.2 356.2,1008.3 354.8,1009.3 353.8,1010.2 353.1,1010.8 352.1,1011.5 351.1,1012.2 350.1,1012.8 348.7,1013.6 347.4,1014.5 346,1015.4 344.5,1016.2 343,1017.1 341.7,1017.8 340.3,1018.5 339.4,1018.9 338.7,1019.3 337.7,1019.7 336.9,1020 336,1020.3 334.7,1020.7 333.4,1021 332.4,1021.2 331.1,1021.6 329.9,1021.9 329.1,1022.1 328.3,1022.3 327.2,1022.5 326.3,1022.5 325.3,1022.5 324.2,1022.6 323.1,1022.7 321.9,1022.8 320.7,1022.9 319.5,1023 318.4,1022.9 317.1,1022.8 316.1,1022.7 315.2,1022.6 314,1022.4 312.8,1022.3 311.8,1022.2 310.4,1021.9 309,1021.6 308,1021.4 307,1021.1 305.4,1020.6 304.1,1020.2 302.8,1019.7 301.3,1019.1 299.8,1018.5 298.4,1017.7 296.9,1016.9 295.5,1016.1 294.2,1015.3 292.6,1014.3 291.5,1013.7 290.7,1013.1 289.9,1012.5 289.1,1011.8 288.5,1011.2 287.8,1010.4 287,1009.6 286,1008.7 285,1007.8 284.2,1007 283.4,1006.2 282.7,1005.4 281.9,1004.4 281.3,1003.5 280.5,1002.5 279.8,1001.6 279.2,1000.7 278.7,999.9 277.9,998.7 277.2,997.3 276.4,995.7 275.6,994.1 274.9,992.7 274.4,991.3 273.8,989.8 273.3,988.5 272.8,987.2 272.3,985.3 271.8,983.9 271.5,982.8 271.3,981.7 271.1,980.5 271,979.8 271,978.9 270.9,977.8 270.8,976.6 270.7,975.4 270.6,974.2 270.5,973.1 270.5,972.1 270.6,970.9 270.7,969.7 270.8,968.6 270.9,967.3 271,966.1 271,965.1 271.1,964.1 271.2,963.1 271.4,961.9 271.6,960.8 271.9,959.8 272.1,958.9 272.5,957.5 272.8,956.5 273.1,955.5 273.4,954.5 273.8,953.3 274.1,952.6 274.4,951.9 275,950.9 275.6,949.9 276.1,949.1 276.8,947.9 277.6,946.7 278.1,945.8 278.6,944.9 279.3,943.9 279.7,943.3 280.4,942.3 281.2,941.3 282,940.3 282.8,939.3 283.7,938.3 284.9,937.2 286.2,936.1 287.4,935 288.7,933.9 289.9,932.8 290.5,932.3 291.5,931.6 292.6,930.8 293.6,930 295.3,928.9 297.1,927.6 298.4,926.6 299.7,925.7 300.9,924.9 302,924.1 303,923.5 304.1,922.8 305.1,922.1 306.7,921.1 307.8,920.5 309,919.7 310.2,918.8 311.5,918 312.2,917.5 313.4,916.7 314.6,915.9 315.7,915.3 316.8,914.6 318.2,913.8 319.3,913 320.4,912.3 321.5,911.6 322.9,910.7 324.1,909.8 325.3,909 326.4,908.3 327.5,907.4 328.7,906.6 329.8,905.9 331,905.1 332.4,904.1 333.8,903.3 334.8,902.6 336.1,901.7 337.1,901 338.2,900.3 339.3,899.6 340.7,898.7 341.9,897.9 343.1,897.1 344.4,896.2 345.8,895.1 346.9,894.3 348.2,893.5 349.5,892.7 350.6,892 351.9,891.2 353.2,890.4 354.3,889.6 355.5,888.8 356.8,887.9 357.9,887.1 359,886.2 360.1,885.4 361.5,884.5 362.7,883.7 363.8,883 365.2,882.1 366.5,881.3 367.5,880.5 368.6,879.7 369.7,878.9 370.5,878.3 371.7,877.5 372.9,876.8 374.2,876 375.6,875.1 377.1,874.2 378.2,873.4 379.2,872.6 380.2,871.9 381.3,871.1 382.5,870.3 383.7,869.5 384.9,868.7 386.1,867.8 387.2,867.1 388.1,866.4 389,865.7 390.3,864.8 391.2,864.1 392,863.5 393.1,862.7 394.5,861.7 395.4,860.9 396.5,860 397.7,858.9 398.7,857.9 399.5,857.1 400.5,856.2 401.5,855.3 402.5,854.3 403.9,852.8 405.2,851.3 406.6,849.4 407.8,847.6 408.9,846 409.5,844.8 410.2,843.3 410.6,842.3 411.3,840.4 411.9,838.5 412.5,836.8 412.9,835.4 413.4,833.6 413.6,832.7 413.9,831.7 414.2,830.3 414.5,828.9 414.7,827.7 414.9,826.4 415,824.9 415,823.7 415,822.4 415,821.3 415,819.9 415,818.7 415,817.6 414.9,816.1 414.7,814.5 414.5,813.3 414.2,811.7 413.9,810.1 413.6,809 413.3,807.6 412.9,806 412.5,804.9 412.1,803.7 411.6,802.2 411.2,801.1 410.8,800.2 410.4,798.9 409.9,797.7 409.5,796.5 408.9,795.1 408.4,793.6 407.9,792.5 407.4,791.1 406.8,789.8 406.3,788.4 405.7,787.1 405.2,785.8 404.6,784.4 404.1,783.2 403.7,782.3 403.1,780.8 402.5,779.3 402,778.2 401.5,776.7 400.9,775.2 400.6,774.3 400.1,773 399.5,771.3 398.9,769.8 398.4,768.3 397.8,766.8 397.2,765.3 396.8,764.1 396.3,762.8 395.7,761.3 395.1,759.7 394.5,758.1 393.8,756.5 393.3,755.2 392.8,754 392.3,752.5 391.9,751.4 391.4,750 390.8,748.4 390.2,746.8 389.7,745.6 389,743.8 388.5,742.4 388,741.1 387.4,739.6 386.7,737.8 386.2,736.6 385.6,735 384.9,733.2 384.4,731.7 383.9,730.5 383.2,728.7 382.6,727.2 382.1,725.9 381.4,724.2 380.7,722.3 380.1,720.7 379.5,719.1 378.7,717 378.1,715.3 377.5,713.8 377,712.5 376.4,710.8 375.9,709.4 375.3,707.8 374.7,706.2 374.2,704.6 373.6,703 373,701.4 372.4,699.8 371.8,698.1 371.2,696.5 370.7,695.3 370.1,693.6 369.6,692.1 369,690.4 368.4,688.6 367.8,686.9 367.3,685.4 366.7,683.6 366.1,681.9 365.5,680.2 364.8,678.1 364.2,676.5 363.6,674.7 363.1,673.1 362.6,671.6 362,669.9 361.5,668.2 360.9,666.6 360.4,664.9 359.8,663.2 359.4,661.5 358.8,659.6 358.4,658.1 357.8,656.3 357.2,654.4 356.5,652.5 355.9,650.8 355.3,649 354.8,647.6 354.3,645.7 353.9,644.4 353.5,642.8 352.9,640.8 352.4,638.8 351.8,637 351.3,635.2 350.8,633.7 350.4,632 349.9,630.2 349.5,628.4 348.9,626.2 348.4,624.1 347.9,622.6 347.4,620.6 346.9,618.9 346.5,617.2 346,615.4 345.6,613.3 345.1,611.4 344.7,609.6 344.3,607.6 343.9,605.7 343.5,604.1 343.1,602.2 342.7,600.3 342.2,598.6 341.7,596.4 341.1,594.2 340.7,592.6 340.3,590.7 339.9,588.8 339.5,587 339.1,585.2 338.7,583.5 338.2,581.6 337.8,580 337.5,578.4 337.1,576.4 336.6,574 336.1,572.1 335.6,569.8 335.1,567.8 334.7,566.2 334.3,564.3 333.9,562.4 333.6,560.9 333.1,559 332.6,556.8 332.2,555.2 331.8,553.5 331.4,551.5 331,549.5 330.6,547.5 330.1,545.6 329.7,543.7 329.2,541.7 328.8,540.1 328.5,538.5 328.1,536.5 327.7,534.5 327.2,532.5 326.7,530.2 326.2,528.3 325.8,526.7 325.4,525.1 325,523.2 324.7,521.6 324.3,519.5 323.9,517.5 323.5,515.5 323.2,514 322.8,512 322.5,510.4 322.1,508.4 321.7,506.4 321.2,504.3 320.8,502.7 320.3,500.8 319.9,499.2 319.5,497.3 319.1,495.4 318.7,493.5 318.3,491.6 317.9,489.7 317.5,488.1 317.1,486.3 316.7,484.6 316.4,483.2 316,481.3 315.6,479.5 315.3,477.9 314.9,476.2 314.5,474.2 314.1,472.4 313.6,470.2 313.2,468.4 312.8,466.6 312.4,465.2 312.1,463.5 311.8,462.1 311.5,460.7 311.1,458.7 310.7,456.7 310.3,455 309.9,453.4 309.5,451.7 309.1,450 308.7,448.3 308.4,446.9 308.1,444.9 307.7,443 307.5,441.6 307.1,439.7 306.7,437.9 306.3,436.3 305.9,434.6 305.5,433.1 305.2,431.5 304.8,429.8 304.5,428.5 304.2,426.8 303.8,425.1 303.5,423.9 303.1,422.2 302.7,420.4 302.3,418.7 301.9,417 301.5,415.3 301.3,413.9 300.9,412.1 300.6,410.6 300.3,408.7 299.9,406.8 299.5,405.2 299.3,404.1 298.9,402.5 298.6,401.3 298.3,399.7 297.9,398.1 297.5,396.4 297.2,394.9 296.8,393.3 296.4,391.7 296.1,390.1 295.7,388.5 295.4,387 295,385.2 294.7,383.9 294.3,382.2 293.8,380.4 293.3,378.8 293,377.6 292.5,375.9 292.1,374.6 291.8,373.5 291.3,371.9 290.7,370.3 290.3,369.1 289.6,367.4 289,365.7 288.5,364.5 288.1,363.3 287.4,361.6 286.9,360.4 286.3,359 285.6,357.4 284.8,355.8 284.3,354.8 283.6,353.4 282.9,352.1 282.2,350.8 281.5,349.5 280.7,348.2 280,347 279.1,345.6 278.3,344.5 277.3,343.1 276.1,341.5 275.1,340.2 274.3,339.2 273.3,337.9 272.5,336.9 271.6,335.8 270.6,334.7 269.5,333.5 268.6,332.6 267.7,331.7 266.7,330.7 265.7,329.7 264.8,328.8 263.6,327.6 262.4,326.4 261.2,325.4 260,324.4 258.5,323.2 257.3,322.4 256.1,321.6 254.9,320.8 253.7,320 252.2,319.1 250.8,318.1 249.3,317.2 248.2,316.5 246.8,315.6 245.7,314.9 244.5,314.2 243.4,313.5 241.9,312.6 240.5,311.9 239,311.2 237.5,310.6 235.7,309.8 234.3,309.2 232.9,308.6 231.5,308 230.1,307.4 228.5,306.8 226.8,306.3 224.9,305.8 223.4,305.4 221.8,305 220.4,304.6 219,304.2 217.6,303.8 215.9,303.4 214.2,303 212.8,302.8 211,302.5 209.3,302.3 207.7,302.1 205.9,301.9 204.1,301.7 202.7,301.6 201.6,301.5 200.1,301.4 198.6,301.3 196.8,301.2 194.9,301.1 192.7,301 191.1,301 189.5,301 187.9,301 186.3,301 184.7,301 183.1,301 181.5,301 179.9,301 178.3,301 176.7,300.9 174.8,300.8 173.1,300.7 171.6,300.6 170.3,300.5 168.7,300.4 167.1,300.3 165.6,300.2 163.9,300.1 161.9,300 160.3,300 158.7,300 157.1,300 155.5,300 153.9,300 152.3,300 150.7,300 148.6,300.1 146.8,300.2 145.2,300.3 143.5,300.4 141.9,300.5 140.8,300.5 139.4,300.5 137.9,300.6 136.4,300.7 134.6,300.9 132.8,301.1 131.2,301.3 129.6,301.4 127.8,301.7 126.5,301.9 125.1,302.1 123.6,302.3 121.8,302.7 120.5,302.9 118.7,303.2 116.9,303.6 115.3,304 113.8,304.3 112.2,304.7 111.1,305 109.6,305.4 108.1,305.8 106.7,306.3 105.3,306.7 103.9,307.2 102.3,307.7 100.7,308.3 99.3,308.7 98,309.2 96.3,309.7 95,310.2 93.4,310.7 91.9,311.3 90.4,311.8 89,312.4 87.6,313 86.3,313.6 84.7,314.3 83.1,315.1 81.7,315.7 80.1,316.4 78.7,317.1 77.6,317.6 76.2,318.2 74.7,319 73.4,319.8 72,320.6 70.6,321.4 69.3,322.2 67.9,323.2 66.7,324 65.6,324.7 64.3,325.6 63.2,326.4 62,327.1 60.9,327.8 59.4,328.8 58,329.9 56.6,331 55.5,331.9 54.1,333 53.1,333.9 51.8,334.9 50.5,335.9 49.4,336.9 48.2,337.9 46.8,339.1 45.8,340 44.7,341 43.3,342.2 42.3,343.2 41.4,344.1 40.4,345.1 39.2,346.3 38.2,347.4 37.2,348.5 36.1,349.7 34.8,351.1 33.9,352.2 33,353.2 31.7,354.8 30.6,356.2 29.4,357.9 28.1,359.6 26.8,361.3 25.5,363 24.1,364.9 23.1,366.2 22.2,367.6 21,369.3 20.2,370.6 19.5,371.8 18.6,373.4 17.5,375.1 16.8,376.5 16,377.9 15.1,379.5 14.4,380.7 13.7,382.3 12.9,383.9 12.2,385.4 11.5,386.9 10.8,388.6 10.1,390 9.4,391.4 8.7,392.9 8,394.5 7.4,396 6.8,397.4 6.3,398.8 5.6,400.8 5,402.4 4.4,403.9 3.8,405.5 3.2,407.1 2.6,408.6 2.1,410.2 1.5,411.9 1,413.5 0.3,415.6 -0.2,417 -0.7,418.4 -1.4,420.4 -2,422.2 -2.5,423.6 -2.9,425 -3.5,426.6 -4.1,428.2 -4.7,429.8 -5.3,431.4 -6,433.4 -6.6,435.1 -7.1,436.5 -7.7,438.1 -8.4,440 -9,441.7 -9.6,443.4 -10.2,444.9 -10.8,446.6 -11.3,448 -11.9,449.5 -12.6,451.6 -13.2,453.5 -13.7,455.1 -14.3,456.8 -14.9,458.5 -15.5,460 -16.1,461.6 -16.8,463.3 -17.5,465.5 -18.2,467.5 -18.7,469.1 -19.3,470.8 -19.9,472.7 -20.4,474 -21,475.5 -21.7,477.3 -22.4,479.2 -23.1,480.8 -24,483.2 -24.7,485.3 -25.4,487.2 -25.9,488.8 -26.5,490.7 -27,492.2 -27.5,493.7 -28.1,495.4 -28.8,497.5 -29.5,499.5 -30.1,501 -30.8,502.9 -31.5,504.9 -32.2,506.6 -32.8,508.4 -33.5,510.5 -34.2,512.2 -34.8,513.9 -35.5,515.9 -36.2,517.6 -36.8,519.4 -37.5,521.5 -38.3,523.6 -38.9,525.4 -39.6,527.4 -40.4,529.5 -41,531.3 -41.6,533.1 -42.4,535.3 -43,537.2 -43.6,539 -44.3,540.9 -45,542.8 -45.5,544.2 -46.2,546 -46.8,547.8 -47.4,549.6 -48,551.4 -48.8,553.6 -49.4,555.5 -50.1,557.4 -50.8,559.2 -51.3,560.7 -52,562.5 -52.8,564.3 -53.5,566.1 -54.3,568.3 -55.2,570.5 -55.8,572.4 -56.5,574.6 -57.2,576.4 -57.9,578.3 -58.5,580.3 -59.2,582.2 -59.9,584.1 -60.5,586.1 -61,587.7 -61.8,589.5 -62.6,591.4 -63.3,593.3 -64.1,595.2 -64.9,597.4 -65.5,599.2 -66.1,601.1 -66.8,603 -67.4,604.8 -68.2,606.8 -69,608.9 -69.7,610.9 -70.4,613 -71.2,615.1 -71.8,617 -72.5,619.3 -73.2,621.3 -73.7,622.8 -74.3,624.7 -74.9,626.3 -75.6,628.1 -76.2,629.9 -76.9,631.7 -77.6,633.6 -78.4,635.8 -79,637.4 -79.7,639.2 -80.4,641.1 -81.1,642.9 -81.8,644.7 -82.5,646.7 -83.2,648.5 -83.9,650.8 -84.5,652.8 -85,654.4 -85.5,656 -86.1,657.9 -86.8,659.5 -87.4,661 -88.1,662.8 -88.9,664.9 -89.5,666.7 -90,668.2 -90.6,670 -91.3,672.2 -91.9,673.9 -92.5,675.5 -93.1,677.2 -93.9,679.2 -94.4,680.6 -95,682.2 -95.7,683.9 -96.4,685.8 -97,687.4 -97.8,689.3 -98.4,690.9 -99,692.5 -99.6,693.8 -100.3,695.3 -100.9,696.4 -101.8,697.9 -102.6,699.3 -103.6,701.2 -104.4,702.6 -105.2,704.1 -105.9,705.3 -106.9,706.9 -107.7,708 -108.6,709.2 -109.6,710.4 -110.7,711.9 -111.6,713 -112.6,714.2 -113.6,715.4 -114.6,716.6 -115.4,717.4 -116.6,718.4 -117.8,719.4 -119,720.4 -120.2,721.4 -121.4,722.4 -122.6,723.4 -123.8,724.5 -124.9,725.4 -126.3,726.4 -127.7,727.4 -129,728.3 -130.2,728.9 -131.6,729.7 -132.6,730.3 -133.9,731 -135.1,731.6 -136.4,732.3 -137.5,732.8 -138.9,733.4 -140.3,733.9 -141.5,734.4 -143,734.9 -144.6,735.5 -146.2,736 -147.5,736.5 -148.9,736.9 -150.4,737.3 -151.8,737.7 -152.9,738 -154.3,738.2 -156,738.6 -157.3,738.9 -158.8,739.1 -160.4,739.3 -161.7,739.5 -163,739.5 -164.4,739.6 -165.8,739.7 -167.3,739.8 -169.2,739.9 -170.8,740 -172.2,739.9 -173.7,739.8 -175,739.7 -176.4,739.5 -177.8,739.3 -179.5,739.1 -181,738.9 -182.5,738.7 -183.9,738.4 -185.3,738.1 -186.4,737.9 -187.7,737.5 -189,737.1 -190.4,736.7 -191.8,736.3 -193.2,735.8 -194.6,735.4 -196,734.9 -197.4,734.4 -198.7,733.8 -200,733.2 -201.5,732.5 -203.1,731.8 -204.1,731.2 -205.6,730.5 -207.2,729.8 -208.2,729.2 -209.5,728.4 -210.9,727.7 -212.1,727 -213.2,726.3 -214.7,725.4 -216.1,724.6 -217.5,723.8 -218.6,723.1 -220.1,722.2 -221.5,721.4 -222.6,720.8 -224,720 -225.4,719.2 -226.8,718.5 -228.1,717.9 -229.4,717.2 -230.8,716.5 -232.2,715.8 -233.5,715.1 -234.7,714.5 -236.2,713.8 -237.4,713.3 -238.9,712.7 -240.1,712.3 -241.6,711.8 -243.2,711.3 -244.8,710.8 -246.1,710.5 -247.4,710.1 -249.1,709.7 -250.5,709.5 -252.3,709.1 -254.2,708.7 -256.1,708.4 -257.7,708.2 -259.2,708 -260.6,708 -262,708 -263.7,708 -265.1,708 -266.5,708 -267.9,708 -269.6,708.1 -271.1,708.2 -272.5,708.3 -274.2,708.5 -275.9,708.8 -277.3,709 -278.6,709.2 -280.3,709.6 -281.7,709.9 -282.8,710.1 -284.2,710.5 -285.7,710.9 -287.1,711.3 -288.5,711.7 -290.2,712.3 -291.7,712.8 -293.1,713.4 -294.2,713.8 -295.8,714.5 -297,715 -298,715.5 -299.6,716.3 -301.2,717.1 -302.3,717.7 -303.5,718.4 -305,719.3 -306.2,720.1 -307.4,721 -308.6,721.9 -310,722.9 -311.2,723.9 -312.2,724.7 -313.3,725.6 -314.5,726.6 -315.5,727.7 -316.5,728.7 -317.4,729.6 -318.5,730.7 -319.6,731.8 -320.7,732.8 -322,734.2 -323.3,735.7 -324.3,736.9 -325.2,738.1 -326.1,739.2 -326.8,740.2 -327.5,741.2 -328.2,742.2 -329,743.2 -330,744.8 -330.9,746 -331.7,747.2 -332.7,748.7 -333.7,750.5 -334.3,751.7 -334.9,753 -335.6,754.2 -336.4,755.6 -337,756.6 -337.8,758 -338.6,759.3 -339.4,760.7 -340.1,762 -340.8,763.3 -341.4,764.2 -342.3,765.6 -343.2,767.3 -344,768.7 -344.8,770.1 -345.8,771.8 -346.5,773 -347.2,774.2 -348.1,775.7 -349,777.2 -349.7,778.4 -350.6,780 -351.5,781.3 -352.3,782.8 -353.1,784.3 -353.9,785.9 -354.7,787.4 -355.5,788.9 -356.3,790.2 -357.1,791.5 -358,793 -358.7,794.3 -359.6,795.9 -360.4,797.3 -361.3,798.8 -362.3,800.3 -363.2,801.7 -364.2,803.2 -365,804.5 -365.9,806 -366.6,807.3 -367.6,808.9 -368.4,810.3 -369.4,812 -370.3,813.4 -371.1,814.8 -372.1,816.5 -372.9,818 -373.6,819.3 -374.5,820.9 -375.6,822.7 -376.4,824.1 -377.3,825.6 -378.4,827.3 -379.2,828.7 -380.1,830.1 -380.8,831.3 -381.7,832.7 -382.5,834.1 -383.5,835.9 -384.3,837.4 -385.1,838.9 -385.8,840.3 -386.5,841.7 -387.1,842.8 -387.9,844.2 -388.7,845.6 -389.6,847.1 -390.3,848.3 -391.2,849.8 -391.9,851 -392.9,852.5 -393.6,853.7 -394.5,855.2 -395.4,856.7 -396.3,858.1 -396.9,859.3 -397.8,860.8 -398.7,862.3 -399.4,863.4 -400.1,864.6 -401.2,866.4 -402,867.9 -402.7,869.2 -403.4,870.4 -404.2,872 -404.7,872.9 -405.4,874.1 -406.1,875.2 -406.9,876.7 -407.6,877.8 -408.5,879.3 -409.3,880.5 -410,881.7 -410.8,883.1 -411.6,884.5 -412.2,885.5 -413.3,887.4 -414.4,889.3 -415.4,891 -416.4,892.6 -417.5,894.5 -418,895.5 -418.8,896.8 -419.5,897.8 -420.1,898.9 -420.8,900.2 -421.6,901.5 -422.2,902.5 -422.9,903.8 -423.7,905.1 -424.4,906.2 -425.1,907.3 -425.8,908.4 -426.5,909.4 -427.4,910.7 -428.2,911.7 -429,912.7 -430.1,914.2 -431.1,915.5 -431.9,916.5 -433,917.7 -434.2,919 -435.2,919.9 -436.3,920.8 -437.4,921.7 -438.2,922.4 -439.2,923.2 -440.1,923.8 -441.2,924.5 -442.2,925.2 -443.6,926 -444.7,926.6 -445.8,927.2 -446.8,927.8 -447.9,928.3 -448.7,928.7 -449.8,929.1 -450.9,929.6 -451.8,929.9 -453,930.3 -454.2,930.7 -455.1,931 -456,931.2 -457.5,931.6 -458.7,931.9 -459.8,932.1 -461.2,932.3 -462.7,932.5 -463.6,932.6 -464.9,932.7 -466.3,932.8 -467.7,932.9 -469.1,933 -470.5,933 -471.8,933 -473,932.9 -473.9,932.8 -475.3,932.6 -476.7,932.4 -477.8,932.2 -479.4,931.9 -481,931.6 -482,931.3 -483.1,931 -484.4,930.6 -485.2,930.3 -486.3,929.8 -487.7,929.3 -489,928.7 -490.8,927.8 -492.6,927 -494.1,926.3 -495.6,925.4 -497.4,924.4 -498.5,923.7 -499.8,922.9 -501.1,922.1 -502.2,921.5 -503.4,920.7 -504.6,920 -505.6,919.3 -507,918.4 -508.5,917.4 -509.6,916.7 -510.7,916 -512,915.2 -513.2,914.4 -514.4,913.6 -515.7,912.8 -517.3,911.7 -518.7,910.8 -519.9,910.1 -521,909.4 -522.3,908.5 -523.8,907.6 -525.3,906.6 -526.7,905.6 -528.1,904.7 -529.3,904 -530.4,903.2 -531.5,902.5 -532.9,901.6 -534.3,900.7 -535.9,899.6 -537.1,898.8 -538.8,897.6 -540.6,896.4 -542.3,895.2 -544.1,894 -545.9,892.8 -547.5,891.7 -548.8,890.8 -550.1,889.9 -551.2,889 -552.7,887.9 -554.1,887 -555.5,886 -556.9,885.1 -558.4,884.2 -559.8,883.4 -561.4,882.3 -562.9,881.4 -564.4,880.4 -566.1,879.3 -567.5,878.3 -568.6,877.6 -570,876.5 -571.6,875.4 -573,874.5 -574.4,873.6 -575.8,872.7 -577.1,871.9 -578.6,870.9 -579.9,870 -581.4,868.9 -582.9,867.8 -584.2,866.9 -585.6,865.9 -587.2,864.8 -588.6,863.9 -590.2,862.8 -591.9,861.7 -593.1,860.9 -594,860.2 -595.4,859.1 -596.6,858.2 -597.7,857.3 -599.5,855.8 -601.4,854.1 -603,852.6 -604.5,851.1 -606.1,849.5 -607.4,848.1 -608.5,846.9 -609.5,845.8 -610.6,844.7 -611.8,843.4 -612.6,842.4 -613.7,841.1 -614.7,839.9 -615.7,838.4 -616.6,837.1 -617.6,835.8 -618.4,834.6 -619.2,833.4 -619.9,832.4 -620.8,830.9 -621.6,829.5 -622.3,828.2 -623.1,826.6 -624.1,824.8 -624.8,823.6 -625.4,822.4 -626.1,821.2 -626.9,819.8 -627.4,818.6 -627.9,817.4 -628.6,815.7 -629.3,813.8 -629.7,812.4 -630.2,811 -630.7,809.3 -631.1,808 -631.4,807 -631.9,805.3 -632.3,803.6 -632.6,802.2 -633,800.5 -633.4,798.8 -633.6,797.7 -633.9,796.4 -634.3,794.5 -634.5,793 -634.7,791.4 -634.9,789.8 -635,788.3 -635,787.2 -635,785.8 -635,784.3 -635,782.6 -635,780.8 -635,779.2 -635,777.6 -635,776 -635,774.4 -635,773.1 -635,771.5 -635,770.1 -634.9,768.9 -634.7,767.4 -634.5,765.5 -634.1,763.4 -633.7,761.1 -633.4,758.8 -633.1,757.1 -632.7,755.3 -632.5,754 -632.2,752.9 -631.8,751.3 -631.4,749.6 -631.1,748.4 -630.6,746.9 -630.2,745.4 -629.7,744.2 -629.2,742.6 -628.6,740.9 -628.1,739 -627.5,737.2 -627.1,735.6 -626.6,734.2 -626.1,732.4 -625.6,731.1 -625.2,729.8 -624.6,728.2 -624.1,726.4 -623.6,725.1 -623.2,723.7 -622.6,722.1 -622.1,720.2 -621.6,718.7 -621.1,717.1 -620.5,715.4 -620,713.9 -619.4,712.3 -618.8,710.7 -618.3,709.2 -617.7,707.6 -617.1,705.7 -616.5,703.9 -616,702.2 -615.4,700.5 -614.9,699 -614.4,697.5 -613.9,696.4 -613.3,695 -612.6,693 -611.9,691.1 -611.3,689.3 -610.7,687.5 -610.2,686 -609.6,684.5 -609,683 -608.3,681.4 -607.6,679.6 -606.8,677.8 -606.2,676.4 -605.5,674.7 -604.7,672.9 -604,671.4 -603.3,669.7 -602.4,667.9 -601.6,666 -600.9,664.5 -600.1,662.8 -599.2,661 -598.6,659.5 -598,658.3 -597.1,656.5 -596.3,655 -595.5,653.5 -594.5,651.5 -593.5,649.6 -592.8,648.3 -591.8,646.3 -590.8,644.4 -589.9,642.9 -588.7,640.8 -587.5,638.7 -586.5,637 -585.5,635.4 -584.6,633.9 -583.7,632.4 -582.7,630.8 -581.5,628.9 -580.4,627 -579.2,625.1 -578,623.2 -576.8,621.2 -575.9,619.8 -574.8,618.2 -573.4,616.1 -572.2,614.4 -571.1,612.9 -569.6,610.8 -568.3,608.9 -567.1,607.1 -565.9,605.4 -564.3,603.2 -563.1,601.6 -561.6,599.5 -560.3,597.8 -559,596.1 -557.9,594.6 -556.2,592.3 -554.8,590.5 -553.1,588.4 -551.3,586.2 -549.4,583.9 -548.1,582.3 -546.6,580.5 -545.1,578.7 -543.6,576.8 -542.3,575.2 -540.9,573.5 -539.3,571.7 -537.8,569.8 -536.4,568.1 -534.8,566.3 -533.1,564.4 -531.5,562.5 -530.1,560.9 -528.5,559.1 -526.9,557.2 -525.2,555.3 -523.4,553.3 -521.5,551.2 -519.8,549.4 -518.1,547.5 -516.4,545.6 -514.7,543.9 -513.1,542.4 -511.2,540.5 -509.4,538.7 -507.5,536.7 -505.8,534.8 -503.8,532.6 -501.9,530.5 -500.1,528.6 -498.3,526.8 -496.5,524.9 -494.7,523 -493.1,521.3 -490.9,519.1 -488.9,517 -487,515.1 -485.1,513.2 -483.2,511.3 -481.4,509.4 -479.7,507.7 -477.8,505.8 -475.9,503.9 -473.7,501.9 -471.8,500.1 -469.6,497.9 -467.3,495.7 -465,493.5 -462.8,491.2 -460.8,489.3 -458.5,487.3 -456.4,485.4 -454.5,483.7 -452.5,482.1 -450.3,480.2 -448.4,478.6 -446.4,477 -444.2,475.2 -442.2,473.5 -440.2,471.9 -438.3,470.3 -436.6,468.9 -434.5,467.3 -432.6,465.8 -430.6,464.2 -428.6,462.7 -426.6,461.1 -424.6,459.7 -422.5,458.2 -420.4,456.8 -418.5,455.5 -416.1,454 -413.9,452.5 -411.8,451.1 -409.8,449.8 -407.5,448.4 -405.6,447.2 -403.6,446 -401.5,444.8 -399.6,443.7 -397.4,442.5 -395.3,441.3 -393.1,440.1 -390.9,438.9 -388.5,437.6 -386.4,436.3 -384.3,435.1 -382.1,433.9 -379.9,432.6 -377.4,431.1 -375.2,429.9 -372.4,428.4 -370.3,427.1 -368.2,425.9 -366,424.7 -363.4,423.2 -361.4,422 -359.2,420.8 -356.7,419.4 -354.8,418.3 -352.7,417.1 -350.3,415.8 -348.2,414.6 -346,413.3 -343.7,412 -341.5,410.8 -339.6,409.7 -337.3,408.4 -335,407.2 -332.2,405.6 -330,404.3 -327.5,402.8 -325.1,401.4 -323.2,400.3 -321.3,399.2 -319,398 -316.7,396.8 -314.6,395.6 -312.1,394.2 -309.6,392.9 -307.2,391.4 -305.1,390.1 -302.6,388.7 -300.4,387.5 -298.2,386.1 -296.2,385 -293.8,383.7 -291.8,382.5 -289.2,380.9 -287.1,379.8 -284.5,378.3 -282.2,377 -279.7,375.6 -277.7,374.4 -275.3,372.9 -273.4,371.8 -271.2,370.4 -269.2,369.2 -266.7,367.8 -264.7,366.7 -262.1,365.2 -259.9,364 -257.4,362.6 -255.3,361.3 -252.9,359.8 -250.8,358.5 -248.4,357 -246.3,355.7 -244.1,354.4 -242,353 -240.1,351.8 -238,350.4 -235.6,348.8 -233.3,347.1 -231.1,345.6 -228.6,343.8 -226.6,342.4 -224.6,340.9 -222.5,339.4 -220.4,337.8 -218.3,336.2 -216.3,334.6 -214.4,333.2 -212.6,331.8 -210.6,330.3 -208.8,328.9 -206.7,327.2 -204.6,325.3 -202.5,323.5 -200.5,321.7 -198.8,320 -197,318.3 -195.2,316.7 -193.4,315 -191.6,313.3 -189.8,311.7 -188.1,310.1 -186.4,308.4 -184.8,306.7 -183,304.8 -181.2,302.9 -179.5,301 -177.8,299.1 -176,297.2 -174.4,295.3 -172.7,293.3 -170.9,291.3 -169.2,289.3 -167.5,287 -166,285.1 -164.6,283.2 -163.1,281.1 -161.8,279.2 -160.4,277.4 -159.1,275.6 -157.5,273.4 -156,271.3 -154.4,269 -153.2,267.1 -151.6,264.8 -150.2,262.7 -149.1,260.9 -147.8,259 -146.3,256.6 -145.2,254.7 -144.2,253 -142.7,250.6 -141.5,248.4 -140.5,246.7 -139.2,244.5 -137.7,241.7 -136.7,239.7 -135.6,237.6 -134.5,235.5 -133.3,233.2 -132.3,231.3 -131.2,229.1 -130.1,226.8 -128.8,224.2 -127.7,221.5 -126.6,219 -125.5,216.5 -124.3,213.7 -123.3,211.2 -122.4,209.2 -121.4,206.9 -120.4,204.5 -119.5,202.5 -118.5,200.2 -117.5,197.9 -116.5,195.6 -115.6,193.3 -114.7,191 -113.8,188.7 -113,186.6 -112.1,184.2 -111.2,182.1 -110.3,180 -109.4,178 -108.4,175.7 -107.5,173.7 -106.5,171.4 -105.5,169.1 -104.5,166.8 -103.5,164.4 -102.6,162.1 -101.7,159.8 -100.9,157.7 -100.1,155.6 -99.3,153.6 -98.4,151.6 -97.5,149.6 -96.5,147.3 -95.6,145 -94.7,142.7 -93.8,140.3 -93,138.3 -92.2,136.3 -91.4,134.3 -90.6,132.3 -89.8,130.3 -89,128.3 -88.2,126.4 -87.3,124.3 -86.5,122.3 -85.7,120.3 -84.8,118 -83.9,115.6 -83,113.2 -82.2,111 -81.5,109.1 -80.8,107.1 -80.1,105.2 -79.5,103.4 -78.8,101.7 -78,99.8 -77.2,97.9 -76.6,96.2 -75.8,94.2 -75,92.2 -74.2,90 -73.6,88.1 -72.8,86 -72.1,84.3 -71.4,82.1 -70.8,80.3 -70,78 -69.4,75.9 -68.9,74 -68.4,72.3 -67.8,70.3 -67.3,68.3 -66.7,66.4 -66.2,64.5 -65.6,62.3 -65.2,60.4 -64.7,58.5 -64.3,56.4 -63.9,54.4 -63.6,52.5 -63.2,50.3 -63,48.6 -62.8,47 -62.5,44.9 -62.3,43 -62.2,41.1 -62.1,39.2 -62,36.7 -62,34.7 -62,32.7 -62,30.7 -62,28.6 -62,26.8 -62,24.9 -62,23 -62.1,20.8 -62.3,18.7 -62.5,16.9 -62.7,14.9 -63.1,12.6 -63.4,10.9 -63.7,8.8 -64.1,6.8 -64.5,5 -64.8,3.2 -65.2,1.4 -65.6,-0.4 -66.1,-2.7 -66.7,-4.9 -67.3,-7 -68,-9.3 -68.6,-11.2 -69.2,-13.3 -69.9,-15.6 -70.7,-17.7 -71.4,-19.8 -72.3,-22.1 -73.1,-23.8 -73.9,-25.7 -74.6,-27.4 -75.4,-29.3 -76.1,-31.2 -76.9,-33.3 -77.7,-35.3 -78.5,-37.3 -79.4,-39.4 -80.4,-41.5 -81.4,-43.6 -82.4,-45.7 -83.3,-47.8 -84.1,-49.7 -84.9,-51.6 -85.7,-53.5 -86.5,-55.6 -87.5,-57.8 -88.5,-60 -89.5,-62.2 -90.4,-64.2 -91.4,-66.3 -92.4,-68.5 -93.3,-70.4 -94.3,-72.7 -95.4,-75.2 -96.2,-77.2 -97.1,-79.4 -98,-81.7 -98.8,-83.8 -99.6,-85.9 -100.6,-88.2 -101.5,-90.5 -102.5,-92.9 -103.4,-94.9 -104.4,-97.2 -105.3,-99.4 -106.3,-101.7 -107.2,-103.8 -108.3,-106.5 -109.2,-108.7 -110.4,-111.3 -111.4,-113.4 -112.5,-115.9 -113.4,-117.8 -114.6,-120.4 -115.5,-122.6 -116.4,-125 -117.2,-127 -118.2,-129.5 -118.9,-131.4 -119.8,-133.7 -120.8,-136 -121.8,-138.4 -122.8,-140.8 -123.8,-143.1 -124.7,-145.2 -125.7,-147.6 -126.7,-149.9 -127.6,-152 -128.6,-154.3 -129.6,-156.6 -130.5,-158.7 -131.5,-161 -132.5,-163.2 -133.5,-165.5 -134.5,-167.8 -135.4,-169.8 -136.3,-172 -137.2,-174.3 -138.1,-176.6 -139,-178.8 -140,-181.2 -141,-183.5 -142.2,-186.1 -143.3,-188.4 -144.3,-190.5 -145.3,-193 -146.2,-195.2 -146.9,-197.1 -147.6,-199 -148.5,-201.6 -149.4,-203.8 -150.4,-206.2 -151.4,-208.5 -152.4,-210.9 -153.1,-212.6 -153.9,-214.8 -154.7,-217 -155.4,-219 -156.2,-221.4 -157.2,-224 -158,-226.1 -158.7,-228 -159.5,-230.5 -160.3,-232.7 -160.9,-234.7 -161.6,-236.9 -162.3,-239.1 -163.1,-241.3 -163.8,-243.4 -164.5,-245.5 -165.2,-247.7 -165.8,-249.9 -166.4,-252.1 -166.9,-254.3 -167.5,-256.5 -168.1,-258.8 -168.7,-261 -169.2,-263 -169.7,-265 -170.4,-267.7 -170.9,-269.8 -171.5,-272 -172,-274.3 -172.6,-276.6 -173,-278.7 -173.5,-280.8 -174,-283.3 -174.5,-285.3 -174.9,-287.2 -175.3,-289.3 -175.7,-291.4 -176.1,-293.6 -176.5,-295.8 -176.9,-298 -177.3,-300.1 -177.7,-302.3 -178,-304 -178.2,-305.9 -178.6,-308.4 -178.9,-310.4 -179.1,-312.2 -179.5,-314.7 -179.9,-317.1 -180.1,-318.9 -180.4,-320.8 -180.8,-323.4 -181,-325.3 -181.2,-327.1 -181.6,-329.6 -181.9,-331.9 -182.1,-333.7 -182.3,-335.6 -182.7,-338 -182.9,-339.7 -183.1,-341.4 -183.3,-343.2 -183.7,-345.6 -183.9,-347.5 -184.1,-349.4 -184.3,-351.5 -184.7,-354 -184.9,-355.8 -185.1,-357.6 -185.3,-359.6 -185.6,-362.2 -185.8,-364.1 -186,-366 -186.2,-367.9 -186.4,-369.9 -186.7,-371.6 -186.9,-373.4 -187.1,-375.1 -187.3,-377 -187.6,-379.3 -187.8,-381 -188,-382.7 -188.2,-384.7 -188.4,-386.6 -188.7,-388.3 -188.9,-390.1 -189.1,-391.9 -189.3,-393.7 -189.7,-396 -189.9,-397.7 -190.1,-399.4 -190.3,-401.1 -190.5,-402.9 -190.7,-404.7 -190.9,-406.5 -191.1,-408.3 -191.3,-410.1 -191.6,-411.9 -191.8,-413.5 -192,-415.3 -192.2,-417 -192.4,-418.7 -192.6,-420.3 -192.8,-422.1 -193,-423.8 -193.2,-425.8 -193.6,-428.2 -193.9,-430.4 -194.1,-432 -194.3,-433.5 -194.6,-434.9 -194.8,-436.4 -195,-437.8 -195.2,-439.1 -195.4,-440.6 -195.5,-441.9 -195.6,-442.8 -195.8,-444.2 -196,-445.6 -196.2,-446.9 -196.4,-448.2 -196.5,-449.4 -196.5,-450.1 -196.6,-451 -196.7,-451.9 -196.9,-453.3 -197.1,-454.7 -197.3,-456.1 -197.4,-457.3 -197.5,-458.5 -197.7,-460.1 -197.9,-461.6 -198.1,-463.3 -198.3,-465.1 -198.6,-466.9 -198.8,-468.4 -199,-469.9 -199.2,-471.2 -199.4,-472.6 -199.5,-474 -199.6,-475.1 -199.8,-476.7 -200,-478.4 -200.2,-479.9 -200.4,-481.5 -200.5,-482.8 -200.5,-483.7 -200.5,-484.5 -200.4,-485.9 -200.3,-487.2 -200.2,-488.5 -199.9,-490 -199.6,-491.5 -199.3,-492.3 -198.9,-493.2 -198.5,-494.1 -198.2,-494.6 -197.9,-495.1 -196.9,-496.4 -195.9,-497.4 -194.9,-498.4 -193.9,-499.4 -192.8,-500.3 -192.5,-500.5 -192,-500.8 -191.1,-501.2 -190.2,-501.6 -189.3,-502 -188.2,-502.4 -186.9,-502.8 -185.8,-503 -184.7,-503.2 -183.6,-503.4 -182.5,-503.5 -181.7,-503.5 -181,-503.5 -180.3,-503.5 -178.9,-503.4 -177.5,-503.3 -176.1,-503.1 -174.4,-502.9 -172.7,-502.7 -171.7,-502.6 -170.8,-502.5 -170,-502.5 -169,-502.4 -167.7,-502.2 -166.3,-502 -164.8,-501.8 -163.3,-501.6 -161.6,-501.5 -160.1,-501.5 -158.7,-501.6 -156.6,-501.9 -153.1,-503.6 -150.3,-505.3 -147.4,-507.9 -144.5,-510.7 -142.4,-514.1 -141.9,-516.9 -141.5,-519.9 -141.5,-522 -141.8,-524.5 -142.5,-526.7 -143.2,-528.1 -143.9,-529.4 -144.9,-531.4 -145.8,-532.7 -146.4,-533.6 -147.3,-535 -148.2,-536.4 -148.8,-537.1 -149.3,-537.9 -150,-538.9 -150.4,-539.4 -150.9,-540.1 -151.6,-541.2 -152.5,-542.6 -153.4,-543.8 -154.2,-545.1 -155,-546.2 -155.7,-547.1 -156.3,-547.9 -157,-549 -157.8,-550.2 -158.8,-551.7 -159.7,-553.1 -160.5,-554.3 -161.3,-555.5 -162,-556.6 -162.5,-557.4 -163,-558.2 -163.6,-559.2 -164.3,-560.3 -165.1,-561.4 -165.8,-562.5 -166.5,-563.6 -167.2,-564.5 -167.5,-565 -168.1,-566 -168.8,-567 -169.4,-568 -170,-569 -171,-570.5 -171.8,-571.7 -172.5,-572.9 -173.3,-574.1 -174.1,-575.3 -174.8,-576.5 -175.3,-577.5 -176.1,-578.8 -176.9,-580.1 -177.6,-581.5 -178.1,-582.4 -179.1,-583.9 -179.9,-585.2 -180.7,-586.5 -181.7,-588 -182.7,-589.6 -183.3,-590.6 -184.1,-592 -185.1,-593.8 -186,-595.3 -186.9,-596.7 -188.1,-598.6 -189.1,-600 -189.9,-601.1 -190.8,-602.5 -191.7,-603.9 -192.5,-605.3 -193.6,-607.1 -194.7,-608.9 -195.9,-610.8 -197.1,-612.7 -198.3,-614.5 -199.2,-616 -200.2,-617.7 -201,-619 -202.2,-620.9 -203.2,-622.5 -204.4,-624.4 -205.7,-626.4 -207,-628.4 -208.1,-630.2 -209.3,-632 -210.5,-634 -211.5,-635.6 -212.8,-637.7 -214,-639.5 -215.1,-641.3 -216.4,-643.3 -217.8,-645.5 -219,-647.3 -220.3,-649.4 -221.6,-651.5 -222.9,-653.4 -224.1,-655.2 -225.5,-657.6 -226.8,-659.7 -228.2,-662 -229.4,-664 -230.9,-666.5 -231.5,-667.4 -232.2,-668.5" style="stroke: rgb(55, 65, 81); stroke-width: 10;"></polygon><polyline vector-effect="non-scaling-stroke" fill="none" points="-236,-674.7 -236.4,-675.3 -236.8,-675.8 -237.5,-676.8 -238.3,-678 -238.8,-678.8 -239.4,-679.8 -240.2,-681.1 -241,-682.4 -241.7,-683.5 -242.4,-684.6 -243,-685.5 -243.4,-686.2 -243.8,-686.9 -244.3,-687.8 -245,-689 -245.7,-690.2 -246.3,-691.2 -247.3,-692.7 -248.2,-694.1 -249.2,-695.7 -250.3,-697.3 -251.3,-698.9 -252.2,-700.4 -253.1,-701.7 -253.7,-702.6 -254.3,-703.7 -255.1,-705.1 -256,-706.5 -256.9,-708 -257.7,-709.4 -258.8,-711 -259.7,-712.3 -260.3,-713.3 -261,-714.5 -261.8,-715.7 -262.6,-717.1 -263.5,-718.5 -264.3,-719.8 -265.3,-721.3 -266.3,-722.9 -267.2,-724.3 -268.1,-725.7 -269.1,-727.1 -269.8,-728.2 -270.7,-729.7 -271.6,-731.1 -272.4,-732.5 -273.5,-734.3 -274.6,-736.1 -275.6,-737.7 -276.4,-739 -277.3,-740.4 -277.9,-741.4 -278.7,-742.8 -279.8,-744.4 -280.9,-746 -281.9,-747.5 -283.1,-749.4 -284.2,-750.9 -285,-752.2 -285.8,-753.7 -287,-755.7 -288,-757.3 -288.9,-758.9 -289.8,-760.5 -290.8,-762.1 -291.8,-763.7 -292.9,-765.4 -294.2,-767.4 -295.4,-769.2 -296.5,-770.8 -297.5,-772.3 -298.7,-774.2 -299.7,-775.8 -300.9,-777.7 -302.2,-779.7 -303.4,-781.6 -304.2,-783 -305.4,-784.9 -306.4,-786.5 -307.5,-788.3 -308.5,-789.9 -309.8,-791.9 -310.7,-793.4 -311.8,-795.1 -313.1,-797.2 -314.4,-799.3 -315.5,-801 -316.8,-803 -317.9,-804.8 -318.7,-806.2 -319.6,-807.7 -320.8,-809.7 -321.9,-811.4 -323.1,-813.3 -324.4,-815.2 -325.6,-817 -326.7,-818.7 -327.7,-820.4 -328.6,-821.8 -329.7,-823.6 -330.8,-825.4 -331.7,-826.9 -332.9,-828.8 -334.2,-830.8 -335.2,-832.4 -336.4,-834.3 -337.8,-836.5 -338.9,-838.2 -339.9,-839.8 -341,-841.5 -341.9,-842.9 -342.9,-844.5 -343.9,-846.1 -345.1,-848.1 -346.1,-849.7 -347.1,-851.3 -348.1,-852.9 -349.1,-854.5 -350.1,-856.1 -351.1,-857.8 -352.1,-859.4 -352.8,-860.4 -353.8,-862 -354.8,-863.6 -355.9,-865.2 -357,-866.9 -358.1,-868.6 -359,-870 -359.8,-871.2 -360.7,-872.7 -361.6,-874.1 -362.8,-876.1 -363.9,-877.8 -364.9,-879.4 -365.9,-881 -366.9,-882.6 -367.9,-884.1 -368.9,-885.6 -369.8,-887.1 -370.9,-888.8 -372,-890.5 -372.7,-891.7 -373.5,-893.2 -374.4,-894.6 -375.2,-896 -376,-897.4 -376.9,-898.9 -377.8,-900.3 -379,-902.2 -379.9,-903.5 -380.7,-904.8 -381.5,-906.1 -382.5,-907.7 -383.2,-908.8 -383.9,-910 -384.8,-911.4 -385.7,-912.7 -386.7,-914.2 -387.6,-915.7 -388.5,-917.2 -389.3,-918.5 -390.4,-920.4 -391.1,-921.6 -391.9,-922.8 -392.6,-923.9 -393.6,-925.6 -394.3,-926.7 -395.2,-928.2 -396.1,-929.7 -397.1,-931.2 -397.7,-932.1 -398.6,-933.6 -399.3,-934.7 -400,-935.8 -400.8,-937.2 -401.9,-938.9 -402.7,-940 -403.4,-941.1 -404.2,-942.5 -405.1,-943.9 -405.7,-945 -406.3,-946.1 -407.3,-947.7 -408.2,-949 -408.8,-950 -409.5,-951 -410.2,-952 -410.8,-953 -411.7,-954.4 -412.6,-955.8 -413.5,-957.2 -414.4,-958.6 -415.2,-959.8 -415.8,-960.9 -416.5,-962 -417.2,-963.1 -418.1,-964.6 -418.9,-965.8 -419.7,-967 -420.5,-968.2 -421.2,-969.4 -421.7,-970.2 -422.2,-971 -422.8,-971.9 -423.7,-973.3 -424.6,-974.7 -425.5,-976 -426.3,-977.4 -426.9,-978.4 -427.3,-979.1 -428,-980.1 -428.6,-981.2 -429.3,-982.2 -430.1,-983.5 -430.8,-984.6 -431.3,-985.4 -431.8,-986.2 -432.3,-986.9 -432.6,-987.3 -432.9,-987.7 -433.2,-988.4 -433.6,-989.1 -433.9,-989.9 -434.3,-990.6 -434.6,-991.3 -434.9,-991.7 -435.1,-992.1 -435.4,-992.8 -435.7,-993.5 -436.1,-994.5 -436.5,-995.9 -436.9,-997.3 -437.3,-998.3 -437.6,-999.4 -437.8,-1000.4 -437.9,-1001.2 -438,-1002.1 -437.9,-1003.3 -437.7,-1004.4 -437.4,-1005.6 -437,-1006.5 -436.6,-1007.3 -436.2,-1007.9 -435.9,-1008.6 -435.5,-1009.2 -435.1,-1009.8 -434.7,-1010.4 -434.2,-1011 -433.3,-1011.8 -432.5,-1012.4 -431.6,-1013.1 -430.5,-1013.8 -429.3,-1014.5 -428.1,-1015 -426.9,-1015.4 -425.7,-1015.7 -424.6,-1015.9 -423.7,-1016 -423,-1016 -422.3,-1016 -421.8,-1015.9 -421.3,-1015.8 -420.8,-1015.7 -420.3,-1015.6 -419.5,-1015.4 -418.5,-1015.3 -417.6,-1015.1 -416.6,-1014.9 -415.6,-1014.6 -414.8,-1014.4 -414.1,-1014.2 -413.2,-1014 -412.4,-1013.7 -411.7,-1013.5 -411.2,-1013.2 -410.3,-1012.8 -409.6,-1012.4 -408.9,-1012.1 -408.2,-1011.8 -407.2,-1011.4 -406.6,-1011.1 -405.7,-1010.7 -404.5,-1010.1 -403.3,-1009.5 -402,-1008.9 -400.5,-1008.2 -399.3,-1007.6 -398.4,-1007.2 -397.3,-1006.6 -396.5,-1006.2 -395.4,-1005.6 -394.2,-1005.1 -393,-1004.5 -391.8,-1004 -390.6,-1003.4 -389.7,-1003 -388.8,-1002.5 -387.7,-1002 -386.5,-1001.4 -385.2,-1000.9 -384.2,-1000.4 -382.9,-999.9 -381.8,-999.4 -380.8,-999 -379.9,-998.5 -378.7,-998 -377.8,-997.5 -376.7,-997 -375.4,-996.4 -374.1,-995.9 -373,-995.4 -371,-994.5 -369.2,-993.7 -367.4,-992.9 -365.6,-992.1 -363.8,-991.3 -362.7,-990.9 -361.6,-990.4 -360.6,-989.9 -359.4,-989.3 -357.9,-988.6 -356.5,-987.9 -354.8,-987.2 -353.3,-986.6 -352,-986 -351,-985.6 -349.7,-985 -348.6,-984.4 -347.4,-983.8 -345.8,-983.1 -343.9,-982.2 -342.3,-981.6 -340.8,-981 -339.4,-980.4 -337.9,-979.7 -336.1,-978.9 -334.4,-978.1 -332.7,-977.3 -330.8,-976.4 -329,-975.6 -327.8,-975.1 -326.3,-974.4 -324.7,-973.7 -322.8,-972.9 -321.3,-972.3 -319.7,-971.6 -317.8,-970.8 -315.9,-970 -314.5,-969.4 -312.4,-968.4 -310.3,-967.4 -308.7,-966.6 -306.8,-965.6 -304.6,-964.5 -303,-963.7 -301.3,-962.9 -299.4,-962 -297.6,-961.2 -295.7,-960.4 -293.9,-959.6 -292,-958.7 -290.1,-957.8 -288.2,-956.9 -286.2,-955.9 -284.1,-954.9 -282,-953.9 -279.8,-952.9 -277.6,-951.9 -275.6,-950.9 -273.7,-949.9 -271.8,-948.9 -270,-947.9 -268.2,-946.9 -266.5,-946 -264.4,-945 -262.2,-943.8 -260.1,-942.7 -258,-941.6 -255.9,-940.4 -253.9,-939.2 -252,-938.2 -249.9,-937.1 -247.8,-936 -245.7,-934.9 -243.8,-933.9 -241.7,-932.7 -239.7,-931.5 -237.4,-930.1 -235.1,-928.8 -232.9,-927.5 -231.1,-926.5 -228.9,-925.1 -226.9,-923.9 -225.1,-922.7 -222.7,-921.2 -220.4,-919.7 -218.5,-918.6 -216.9,-917.5 -214.9,-916.2 -212.9,-914.8 -210.8,-913.4 -208.6,-911.8 -206.2,-910.2 -204,-908.8 -202.3,-907.7 -200.4,-906.4 -198.3,-905.1 -196.4,-903.8 -194.3,-902.3 -192.2,-900.8 -190.1,-899.2 -188,-897.6 -185.9,-896 -184.2,-894.7 -182.3,-893.3 -180.2,-891.8 -178.6,-890.5 -176.8,-889.1 -174.7,-887.4 -172.4,-885.6 -170.5,-884.1 -168.4,-882.4 -166.2,-880.7 -164.3,-879.2 -162.6,-877.8 -160.5,-876.1 -158.7,-874.7 -156.9,-873.2 -155.1,-871.7 -153.3,-870.2 -151.7,-868.8 -149.5,-866.9 -147.6,-865.3 -145.5,-863.5 -143.4,-861.6 -141.3,-859.7 -139.7,-858.3 -137.6,-856.3 -135.7,-854.6 -133.8,-852.9 -132,-851.3 -130,-849.4 -128.3,-847.8 -126.7,-846.1 -125.1,-844.4 -123.1,-842.5 -121.3,-840.7 -119.5,-838.8 -117.4,-836.7 -115.3,-834.6 -113.8,-832.9 -112.2,-831.1 -110.6,-829.3 -109,-827.5 -107.4,-825.8 -105.5,-823.7 -103.7,-821.8 -102,-819.9 -100.4,-818.1 -98.8,-816.2 -97.4,-814.6 -95.6,-812.5 -94,-810.7 -92.3,-808.8 -90.6,-806.8 -88.7,-804.7 -87,-802.9 -85.2,-801.1 -83.4,-799.2 -81.7,-797.4 -80,-795.5 -78.5,-793.8 -76.6,-791.6 -74.7,-789.5 -73,-787.6 -71.3,-785.6 -69.4,-783.5 -67.7,-781.6 -65.9,-779.6 -64.1,-777.7 -62.3,-775.9 -60.6,-774 -58.8,-772.2 -57.4,-770.7 -55.5,-768.6 -53.6,-766.5 -51.8,-764.6 -50.1,-762.7 -48.4,-760.8 -46.9,-759.2 -45.3,-757.5 -43.6,-755.5 -41.9,-753.6 -40,-751.5 -38,-749.3 -36.3,-747.4 -34.5,-745.7 -32.8,-743.9 -30.9,-741.9 -29.2,-740 -27.3,-738 -25.7,-736.1 -23.7,-733.9 -22,-732.1 -20.2,-730.3 -18.7,-728.7 -16.9,-726.8 -15.4,-725.1 -13.7,-723.2 -12,-721.3 -10.1,-719.1 -8.5,-717.3 -6.9,-715.6 -5.3,-713.8 -3.6,-711.9 -1.8,-710.1 0,-708.2 1.8,-706.4 3.6,-704.6 5,-703.2 6.6,-701.4 8.2,-699.6 9.8,-697.7 11.4,-695.9 13.3,-693.8 14.9,-692 16.5,-690.3 18.1,-688.6 19.7,-686.9 21.3,-685.2 22.9,-683.5 24.5,-681.8 26.1,-680 27.6,-678.3 29.2,-676.5 30.8,-674.8 32.4,-673.1 34,-671.5 35.6,-669.8 37.1,-668.3 38.4,-666.9 40.1,-665 41.5,-663.4 43,-661.8 44.4,-660.2 46.1,-658.4 47.4,-657 49,-655.4 50.3,-654 51.4,-652.9 52.5,-651.6 53.8,-650.2 54.8,-649 56.1,-647.6 57.6,-645.9 58.8,-644.7 59.9,-643.6 61.2,-642.2 62.2,-641.1 63.3,-640 64.4,-638.9 65.4,-637.9 66.7,-636.7 68,-635.5 69,-634.5 70.2,-633.3 71.4,-632.1 72.1,-631.4 73.1,-630.4 74.1,-629.4 75.3,-628.3 76.5,-627.2 77.7,-626.1 78.7,-625.2 79.7,-624.3 80.6,-623.5 81.9,-622.4 83.2,-621.3 84.4,-620.3 85.6,-619.4 86.9,-618.4 88.1,-617.6 89.3,-616.8 90.7,-615.9 92.2,-615 93.3,-614.4 94.5,-613.6 96,-612.7 97.3,-612 98.7,-611.1 100.1,-610.2 101.4,-609.6 102.4,-609.1 103.4,-608.5 104.7,-607.7 106.2,-606.9 107.4,-606.1 108.9,-605.2 110.7,-604.2 112.2,-603.4 113.5,-602.7 114.8,-602 116.2,-601.2 117.4,-600.5 118.4,-600 119.8,-599.1 121.5,-598.1 123,-597.2 124.4,-596.3 126.1,-595.2 127.6,-594.3 128.9,-593.5 130,-592.8 131.4,-591.9 132.8,-590.9 134.3,-589.9 135.7,-588.9 137.1,-587.9 138.7,-586.9 140,-586.1 141.4,-585.1 142.8,-584.1 144.2,-583.1 145.3,-582.1 146.6,-581 147.9,-579.9 149.2,-578.8 150.6,-577.7 151.8,-576.8 152.8,-576 153.9,-574.9 155,-573.8 156.1,-572.6 157.4,-571.2 158.7,-569.8 159.5,-568.9 160.4,-567.8 161.6,-566.4 162.6,-565.2 163.5,-564 164.5,-562.7 165.5,-561.3 166.6,-559.7 167.7,-558.1 168.8,-556.5 169.8,-555.1 170.8,-553.7 171.4,-552.6 172,-551.5 172.7,-550.2 173.5,-548.6 174.3,-547 175.1,-545.4 175.8,-543.8 176.6,-542.2 177.4,-540.5 178,-539.1 178.6,-537.8 179.4,-536.1 180.1,-534.4 180.7,-533.1 181.5,-531.5 182.2,-529.8 182.8,-528.4 183.6,-526.6 184.3,-524.8 185,-523 185.8,-521.2 186.5,-519.5 186.9,-518.3 187.5,-516.5 188.1,-514.8 188.5,-513.2 189,-511.5 189.6,-509.4 190.2,-507.6 190.6,-506 191.1,-504.4 191.6,-502.3 192,-500.7 192.4,-498.9 192.8,-497.1 193.2,-495.4 193.6,-493.6 194,-491.8 194.3,-490.4 194.7,-488.4 195.1,-486.4 195.4,-485.1 195.7,-483.3 196.1,-481 196.4,-479.3 196.7,-477 197.1,-474.6 197.5,-472.7 197.8,-470.8 198.1,-468.8 198.4,-467.4 198.7,-465.5 199.1,-463.5 199.5,-461.5 199.9,-459.5 200.3,-457.6 200.7,-455.6 201.1,-453.7 201.6,-451.8 202.2,-449.8 202.8,-447.7 203.4,-445.8 204.1,-443.6 204.7,-441.9 205.3,-440.1 206,-438.1 206.7,-436.5 207.4,-434.9 208.3,-432.8 209.2,-431 210.3,-429.1 211.4,-427.2 212.4,-425.5 213.3,-424 214.5,-422.1 215.4,-420.6 216.7,-418.7 218.1,-416.7 219.6,-414.8 220.8,-413.3 222,-411.8 223.1,-410.3 224.2,-408.9 225.4,-407.3 226.6,-405.7 227.8,-404 229,-402.4 230.1,-400.8 231,-399.4 232.2,-397.7 233.4,-396 234.6,-394.2 235.8,-392.5 237.3,-390.5 238.5,-388.7 239.7,-387 240.9,-385.3 242.2,-383.5 243,-382.3 244.2,-380.6 245.6,-378.6 246.7,-377 248.1,-375 249.6,-373 250.7,-371.5 251.9,-369.7 253.2,-367.9 254.4,-366.2 255.6,-364.3 257,-362.2 258.2,-360.6 259.6,-358.6 260.8,-356.9 262.3,-354.8 263.6,-353 265.1,-350.9 266.3,-349.2 267.7,-347 269.1,-345.1 270.5,-343.2 271.6,-341.6 273,-339.5 274.4,-337.5 275.5,-335.8 276.7,-333.8 278.2,-331.4 279.7,-329.3 280.9,-327.7 282.5,-325.4 284.2,-323.1 285.7,-321.2 287.2,-319 288.7,-316.7 290,-314.7 291.4,-312.7 292.7,-310.7 294.1,-308.7 295.6,-306.6 297.1,-304.5 298.5,-302.4 300,-300.3 301.4,-298.2 303,-295.8 304.7,-293.5 306.2,-291.4 307.6,-289.3 309.1,-287.2 310.5,-285.2 311.9,-283.2 313.4,-281.2 315.1,-278.8 316.8,-276.4 318.4,-274.2 319.9,-271.9 321.5,-269.5 323.2,-267.1 324.5,-265.2 326,-263.1 327.4,-261.1 328.9,-258.9 330.3,-256.8 332,-254.4 333.7,-251.9 335.3,-249.7 336.8,-247.6 338.3,-245.4 339.8,-243.3 341.3,-241.2 343,-238.7 344.5,-236.4 346,-234.3 347.4,-232.1 348.8,-230 350.3,-227.9 351.9,-225.7 353.6,-223.1 355.4,-220.6 356.9,-218.4 358.3,-216.2 359.7,-214.1 361.1,-212 362.2,-210.1 363.7,-207.6 365.3,-205 366.8,-202.3 368.4,-199.7 370,-197 371.2,-195 372.4,-192.7 373.6,-190.5 374.8,-188.3 376,-186.1 377.2,-183.8 378.5,-181.5 379.8,-179.2 381,-176.7 382.2,-174.3 383.7,-171.3 384.9,-168.9 386.2,-166.1 387.3,-163.7 388.6,-160.9 389.6,-158.8 390.6,-156.4 391.6,-154 392.7,-151.5 393.7,-149 395,-145.7 396.2,-142.8 397.2,-140.3 398.2,-137.5 399.1,-135.1 399.8,-133 400.6,-130.5 401.6,-127.6 402.5,-125.1 403.5,-122.2 404.6,-119.2 405.6,-116.3 406.6,-113.4 407.5,-110.8 408.4,-108.2 409.3,-105.3 410.3,-102.3 411.3,-99.3 412.3,-96.2 413.3,-93.1 414.2,-90.4 415.1,-87.7 416,-85 417,-81.9 418,-78.9 419,-75.9 420,-72.9 421,-69.8 422,-66.8 423,-63.7 424,-60.5 425,-57.2 426,-54.1 427,-50.9 428,-47.7 429.3,-44.2 430.4,-41.1 431.5,-37.8 432.6,-34.6 433.8,-31.3 434.7,-28.2 435.8,-24.8 436.9,-21.5 438,-18.1 439,-14.8 440,-11.6 441.1,-8.2 442.3,-4.7 443.3,-1.7 444.3,1.4 445.3,4.5 446.4,7.9 447.4,11.2 448.7,15 449.9,18.4 451.1,21.9 452.1,25 453.1,28 454,31.1 455.3,35 456.5,38.4 457.7,41.7 458.9,45.2 460.1,48.7 461,51.7 462,55.1 463.1,58.6 464.3,62.2 465.4,65.2 466.5,68.3 467.7,71.9 468.9,75.5 469.9,78.6 471,82.2 472.1,85.8 473.2,89 474.1,92.1 475.2,95.6 476.4,99.1 477.6,102.7 478.6,105.8 479.9,109.4 481,112.5 482,115.6 483,118.6 484.4,122.5 485.5,125.7 486.7,129.2 487.9,132.7 489.1,136.3 490,139.3 491.1,142.5 492.2,146.1 493.4,149.6 494.4,152.5 495.4,155.6 496.5,159 497.5,161.8 498.6,165.2 499.8,168.7 501,172.1 502,175.2 503.1,178.7 504.2,182.1 505.2,185.4 506.2,188.7 507.4,192.4 508.6,196.2 509.5,199.1 510.7,202.9 511.9,206.6 512.8,209.5 513.9,212.7 515,216 516.1,219.2 517.1,222.1 518.4,225.8 519.5,229.1 520.7,232.8 521.8,236.1 523,239.7 524,243 525,246.2 526,249.4 527.2,253 528.4,256.6 529.6,260.1 530.8,263.6 532,267 533,270.2 534,273.3 535,276.4 536,279.6 537,282.8 538,285.8 539.2,289.3 540.4,292.8 541.6,296.3 542.8,299.9 544,303.4 545,306.5 546,309.6 547.1,312.9 548.3,316.2 549.3,319.2 550.3,322.2 551.5,325.6 552.5,328.4 553.5,331.7 554.7,335.4 555.9,339.1 556.9,342.4 558,346 559,349 560,352 561.1,355.2 562.2,358.2 563.3,361.6 564.3,364.9 565.3,368.1 566.2,371.1 567.2,374.5 568.3,377.6 569.5,381.1 570.7,384.7 571.9,388.1 573,391.3 574,394.5 575,397.4 576,400.2 577,403.4 578,406.6 579,409.6 580.1,412.9 581.2,416.1 582.3,419.3 583.5,422.7 584.5,425.8 585.5,428.8 586.4,431.7 587.4,434.7 588.4,437.7 589.4,440.7 590.3,443.5 591.4,446.8 592.5,450 593.5,453 594.5,456 595.5,459.1 596.4,462 597.2,464.6 598.1,467.3 599.2,470.5 600.2,473.4 601.2,476.2 602.2,479.4 603.1,482.3 604,484.9 605,487.6 605.9,490 606.7,492.3 607.5,494.6" style="stroke: rgb(239, 68, 68); stroke-width: 7;"></polyline><polyline vector-effect="non-scaling-stroke" fill="none" points="608.3,497 609.1,499.7 610,502.5 610.8,504.7 611.9,507.9 613,511.3 614,514 614.9,516.6 615.9,519.7 616.7,522.2 617.4,524.2 618.2,526.6 618.9,528.9 619.7,531.2 620.2,532.8 620.8,534.6 621.4,536.5 622,538.4 622.6,539.9 623.2,541.5 623.8,543.1 624.2,544.3 624.7,545.5 625.1,547 625.7,548.8 626.1,550.3 626.5,551.7 627,553.4 627.4,554.7 627.8,555.9 628.2,557.1 628.6,558.3 629,559.5 629.4,560.7 629.8,561.9 630.2,563.1 630.6,564.3 631,565.6 631.4,566.8 631.6,567.7 631.9,568.6 632.3,570 632.5,571.1 632.8,572.1 633.1,573.1 633.3,574.3 633.5,575.5 633.8,576.6 634,577.8 634.2,579 634.4,580.2 634.5,580.9 634.5,581.8 634.5,582.8 634.5,583.9 634.5,584.8 634.5,585.9 634.5,586.9 634.5,587.9 634.5,588.8 634.5,589.7 634.4,590.8 634.3,592 634.2,593.1 634,594.2 633.8,595.4 633.6,596.5 633.3,597.4 633,598.3 632.8,599.2 632.4,600.2 632,601.2 631.6,602.2 631.2,603.2 630.7,604.3 630.4,605.2 629.9,606.1 629.3,607.2 628.7,608.3 628.1,609.2 627.2,610.6 626.5,611.6 625.8,612.5 624.8,613.8 623.8,615.2 622.9,616.3 622,617.5 621.2,618.6 620.5,619.4 619.7,620.3 618.9,621.1 618.1,621.8 617.2,622.6 616.5,623.3 615.5,624.1 614.6,624.7 613.7,625.5 612.7,626.3 611.2,627.4 610.1,628.3 608.7,629.5 607.2,630.6 605.9,631.6 605,632.3 604.1,632.9 603.1,633.5 602.1,634.2 601.1,634.9 599.6,636 598.1,637.2 597,638.1 595.9,639.1 594.8,640 593.9,640.7 592.9,641.7 591.9,642.8 591,643.7 590,644.8 589.2,645.8 588.4,646.8 587.6,647.8 586.9,648.8 586.3,649.7 585.5,651 584.9,652 584.3,653 583.6,654.2 582.8,655.7 582.4,656.7 581.9,657.7 581.4,659 581,660.1 580.6,661.2 580.2,662.3 579.8,663.8 579.5,665 579.1,666.3 578.8,667.7 578.5,669.1 578.3,670.3 578.1,671.6 578,673 578,674.2 577.9,675.5 577.8,676.6 577.7,678 577.7,679.2 577.7,680.4 577.8,681.6 578,683.4 578.2,684.8 578.3,686.2 578.5,687.4 578.7,688.7 578.9,689.9 579.2,691.1 579.5,692.3 579.7,693.5 580.1,695.1 580.4,696.2 580.8,697.7 581.2,699.2 581.6,700.7 582.2,702.5 582.8,704.3 583.3,706.1 583.9,707.9 584.5,709.8 584.9,711.2 585.3,712.6 585.6,713.6 586,715 586.5,716.7 586.9,718 587.3,719.3 587.7,720.6 588.1,722 588.5,723.4 588.9,724.8 589.4,726.6 590,728.4 590.4,729.8 590.9,731.2 591.3,732.6 591.7,734 592.1,735.4 592.5,736.8 592.9,738.3 593.3,739.8 593.7,741.2 594.1,742.7 594.6,744.4 595,745.7 595.5,747.4 596,748.8 596.4,750.1 596.8,751.5 597.2,752.9 597.6,754.2 598,755.6 598.5,757.4 599,758.8 599.5,760.5 599.9,761.9 600.4,763.5 600.8,764.8 601.2,766.1 601.6,767.6 602,769.1 602.3,770.3 602.7,771.8 603,773.3 603.3,774.2 603.7,775.7 604,777.2 604.2,778.4 604.5,779.7 604.7,781 604.8,782 605,783.7 605.2,785.3 605.3,786.8 605.4,788.3 605.5,789.8 605.5,790.7 605.5,791.7 605.5,792.7 605.5,793.7 605.4,794.9 605.3,796.2 605.2,797.6 605,799.1 604.8,800.6 604.6,802 604.4,803.2 604.1,804.2 603.9,805.2 603.6,806.5 603.3,807.5 602.9,808.8 602.5,810.1 602.1,811.3 601.6,812.4 601.1,813.7 600.6,814.7 600.2,815.7 599.5,817.1 598.9,818.3 598.4,819.2 597.9,820.2 597.3,821.1 596.6,822.1 596,823.1 595.3,824.1 594.5,825.1 593.6,826.3 592.8,827.3 592,828.3 591.1,829.3 589.8,830.7 588.3,832.3 586.8,833.8 585.2,835.3 583.4,837 582,838.3 580.9,839.2 580,839.9 578.8,840.8 577.8,841.6 576.3,842.6 574.8,843.7 573,845 571.4,846.2 569.9,847.3 568.6,848.3 567.3,849.3 566.3,850.1 565.1,851 563.9,851.8 562.7,852.7 561.5,853.7 560.3,854.6 559.1,855.5 557.8,856.5 556.6,857.4 555.4,858.2 553.8,859.3 552.5,860.2 551,861.4 549.8,862.4 548.5,863.4 547.4,864.3 546.3,865.2 545.1,866 543.9,866.8 542.5,867.8 541,868.9 539.4,870.1 538.1,871.1 536.5,872.3 535.2,873.3 533.9,874.2 532.5,875.2 531,876.3 529.8,877.2 528.4,878.2 526.9,879.5 525.6,880.5 524.1,881.7 522.6,882.8 521.3,883.8 519.8,884.9 518.3,886.1 517.2,887 515.8,888.1 514,889.4 512.8,890.2 511.3,891.2 509.8,892.2 508.3,893.3 507.1,894.3 505.7,895.3 504.2,896.5 502.7,897.6 501.5,898.6 499.9,899.8 498.3,901.1 497.1,902 495.6,903.1 493.8,904.4 492.5,905.4 491.3,906.3 489.5,907.6 488,908.8 486.6,909.9 485.1,911 483.3,912.3 482.1,913.2 480.5,914.4 479.1,915.3 477.3,916.6 475.8,917.8 474.2,919 472.8,920 471.2,921.3 469.9,922.4 468.3,923.6 466.8,924.8 465.5,925.9 463.8,927.1 462.2,928.2 460.6,929.4 459,930.5 457.4,931.7 456,932.8 454.5,934 453.2,935 451.5,936.4 449.8,937.6 448.1,938.9 446.6,940 445,941.3 443.7,942.3 442.4,943.4 441.2,944.4 439.9,945.4 438.5,946.4 437.2,947.3 435.5,948.5 434.1,949.5 432.5,950.7 431,951.8 429.4,953.1 428.1,954.2 426.5,955.4 425,956.5 423.4,957.7 421.9,958.8 420.5,959.8 418.9,961 417.4,962.1 416,963.1 414.6,964.1 412.8,965.4 411.4,966.4 410.1,967.5 408.7,968.6 407.1,969.8 405.9,970.7 404.5,971.8 402.9,972.9 401.5,974 400.1,975.1 398.7,976.3 397.3,977.4 395.9,978.6 394.7,979.5 393.4,980.5 391.8,981.7 390.5,982.8 389.4,983.7 387.8,985 386.5,986.1 385.4,986.9 383.9,987.9 382.3,988.9 380.9,989.8 379.4,990.8 377.9,991.9 376.7,992.8 375.3,993.9 374.1,994.9 372.9,995.8 371.5,996.8 369.9,998 368.6,999 367.4,999.9 366,1001 364.6,1002.1 363.6,1003 362.5,1003.8 361.4,1004.7 360.2,1005.5 359,1006.3 357.6,1007.2 356.2,1008.3 354.8,1009.3 353.8,1010.2 353.1,1010.8 352.1,1011.5 351.1,1012.2 350.1,1012.8 348.7,1013.6 347.4,1014.5 346,1015.4 344.5,1016.2 343,1017.1 341.7,1017.8 340.3,1018.5 339.4,1018.9 338.7,1019.3 337.7,1019.7 336.9,1020 336,1020.3 334.7,1020.7 333.4,1021 332.4,1021.2 331.1,1021.6 329.9,1021.9 329.1,1022.1 328.3,1022.3 327.2,1022.5 326.3,1022.5 325.3,1022.5 324.2,1022.6 323.1,1022.7 321.9,1022.8 320.7,1022.9 319.5,1023 318.4,1022.9 317.1,1022.8 316.1,1022.7 315.2,1022.6 314,1022.4 312.8,1022.3 311.8,1022.2 310.4,1021.9 309,1021.6 308,1021.4 307,1021.1 305.4,1020.6 304.1,1020.2 302.8,1019.7 301.3,1019.1 299.8,1018.5 298.4,1017.7 296.9,1016.9 295.5,1016.1 294.2,1015.3 292.6,1014.3 291.5,1013.7 290.7,1013.1 289.9,1012.5 289.1,1011.8 288.5,1011.2 287.8,1010.4 287,1009.6 286,1008.7 285,1007.8 284.2,1007 283.4,1006.2 282.7,1005.4 281.9,1004.4 281.3,1003.5 280.5,1002.5 279.8,1001.6 279.2,1000.7 278.7,999.9 277.9,998.7 277.2,997.3 276.4,995.7 275.6,994.1 274.9,992.7 274.4,991.3 273.8,989.8 273.3,988.5 272.8,987.2 272.3,985.3 271.8,983.9 271.5,982.8 271.3,981.7 271.1,980.5 271,979.8 271,978.9 270.9,977.8 270.8,976.6 270.7,975.4 270.6,974.2 270.5,973.1 270.5,972.1 270.6,970.9 270.7,969.7 270.8,968.6 270.9,967.3 271,966.1 271,965.1 271.1,964.1 271.2,963.1 271.4,961.9 271.6,960.8 271.9,959.8 272.1,958.9 272.5,957.5 272.8,956.5 273.1,955.5 273.4,954.5 273.8,953.3 274.1,952.6 274.4,951.9 275,950.9 275.6,949.9 276.1,949.1 276.8,947.9 277.6,946.7 278.1,945.8 278.6,944.9 279.3,943.9 279.7,943.3 280.4,942.3 281.2,941.3 282,940.3 282.8,939.3 283.7,938.3 284.9,937.2 286.2,936.1 287.4,935 288.7,933.9 289.9,932.8 290.5,932.3 291.5,931.6 292.6,930.8 293.6,930 295.3,928.9 297.1,927.6 298.4,926.6 299.7,925.7 300.9,924.9 302,924.1 303,923.5 304.1,922.8 305.1,922.1 306.7,921.1 307.8,920.5 309,919.7 310.2,918.8 311.5,918 312.2,917.5 313.4,916.7 314.6,915.9 315.7,915.3 316.8,914.6 318.2,913.8 319.3,913 320.4,912.3 321.5,911.6 322.9,910.7 324.1,909.8 325.3,909 326.4,908.3 327.5,907.4 328.7,906.6 329.8,905.9 331,905.1 332.4,904.1 333.8,903.3 334.8,902.6 336.1,901.7 337.1,901 338.2,900.3 339.3,899.6 340.7,898.7 341.9,897.9 343.1,897.1 344.4,896.2 345.8,895.1 346.9,894.3 348.2,893.5 349.5,892.7 350.6,892 351.9,891.2 353.2,890.4 354.3,889.6 355.5,888.8 356.8,887.9 357.9,887.1 359,886.2 360.1,885.4 361.5,884.5 362.7,883.7 363.8,883 365.2,882.1 366.5,881.3 367.5,880.5 368.6,879.7 369.7,878.9 370.5,878.3 371.7,877.5 372.9,876.8 374.2,876 375.6,875.1 377.1,874.2 378.2,873.4 379.2,872.6 380.2,871.9 381.3,871.1 382.5,870.3 383.7,869.5 384.9,868.7 386.1,867.8 387.2,867.1 388.1,866.4 389,865.7 390.3,864.8 391.2,864.1 392,863.5 393.1,862.7 394.5,861.7 395.4,860.9 396.5,860 397.7,858.9 398.7,857.9 399.5,857.1 400.5,856.2 401.5,855.3 402.5,854.3 403.9,852.8 405.2,851.3 406.6,849.4 407.8,847.6 408.9,846 409.5,844.8 410.2,843.3 410.6,842.3 411.3,840.4 411.9,838.5 412.5,836.8 412.9,835.4 413.4,833.6 413.6,832.7 413.9,831.7 414.2,830.3 414.5,828.9 414.7,827.7 414.9,826.4 415,824.9 415,823.7 415,822.4 415,821.3 415,819.9 415,818.7 415,817.6 414.9,816.1 414.7,814.5 414.5,813.3 414.2,811.7 413.9,810.1 413.6,809 413.3,807.6 412.9,806 412.5,804.9 412.1,803.7 411.6,802.2 411.2,801.1 410.8,800.2 410.4,798.9 409.9,797.7 409.5,796.5 408.9,795.1 408.4,793.6 407.9,792.5 407.4,791.1 406.8,789.8 406.3,788.4 405.7,787.1 405.2,785.8 404.6,784.4 404.1,783.2 403.7,782.3 403.1,780.8 402.5,779.3 402,778.2 401.5,776.7 400.9,775.2 400.6,774.3 400.1,773 399.5,771.3 398.9,769.8 398.4,768.3 397.8,766.8 397.2,765.3 396.8,764.1 396.3,762.8 395.7,761.3 395.1,759.7 394.5,758.1 393.8,756.5 393.3,755.2 392.8,754 392.3,752.5 391.9,751.4 391.4,750 390.8,748.4 390.2,746.8 389.7,745.6 389,743.8 388.5,742.4 388,741.1 387.4,739.6 386.7,737.8 386.2,736.6 385.6,735 384.9,733.2 384.4,731.7 383.9,730.5 383.2,728.7 382.6,727.2 382.1,725.9 381.4,724.2 380.7,722.3 380.1,720.7 379.5,719.1 378.7,717 378.1,715.3 377.5,713.8 377,712.5 376.4,710.8 375.9,709.4 375.3,707.8 374.7,706.2 374.2,704.6 373.6,703 373,701.4 372.4,699.8 371.8,698.1 371.2,696.5 370.7,695.3 370.1,693.6 369.6,692.1 369,690.4 368.4,688.6 367.8,686.9 367.3,685.4 366.7,683.6 366.1,681.9 365.5,680.2 364.8,678.1 364.2,676.5 363.6,674.7 363.1,673.1 362.6,671.6 362,669.9 361.5,668.2 360.9,666.6 360.4,664.9 359.8,663.2 359.4,661.5 358.8,659.6 358.4,658.1 357.8,656.3 357.2,654.4 356.5,652.5 355.9,650.8 355.3,649 354.8,647.6 354.3,645.7 353.9,644.4 353.5,642.8 352.9,640.8 352.4,638.8 351.8,637 351.3,635.2 350.8,633.7 350.4,632 349.9,630.2 349.5,628.4 348.9,626.2 348.4,624.1 347.9,622.6 347.4,620.6 346.9,618.9 346.5,617.2 346,615.4 345.6,613.3 345.1,611.4 344.7,609.6 344.3,607.6 343.9,605.7 343.5,604.1 343.1,602.2 342.7,600.3 342.2,598.6 341.7,596.4 341.1,594.2 340.7,592.6 340.3,590.7 339.9,588.8 339.5,587 339.1,585.2 338.7,583.5 338.2,581.6 337.8,580 337.5,578.4 337.1,576.4 336.6,574 336.1,572.1 335.6,569.8 335.1,567.8 334.7,566.2 334.3,564.3 333.9,562.4 333.6,560.9 333.1,559 332.6,556.8 332.2,555.2 331.8,553.5 331.4,551.5 331,549.5 330.6,547.5 330.1,545.6 329.7,543.7 329.2,541.7 328.8,540.1 328.5,538.5 328.1,536.5 327.7,534.5 327.2,532.5 326.7,530.2 326.2,528.3 325.8,526.7 325.4,525.1 325,523.2 324.7,521.6 324.3,519.5 323.9,517.5 323.5,515.5 323.2,514 322.8,512 322.5,510.4 322.1,508.4 321.7,506.4 321.2,504.3 320.8,502.7 320.3,500.8 319.9,499.2 319.5,497.3 319.1,495.4 318.7,493.5 318.3,491.6 317.9,489.7 317.5,488.1 317.1,486.3 316.7,484.6 316.4,483.2 316,481.3 315.6,479.5 315.3,477.9 314.9,476.2 314.5,474.2 314.1,472.4 313.6,470.2 313.2,468.4 312.8,466.6 312.4,465.2 312.1,463.5 311.8,462.1 311.5,460.7 311.1,458.7 310.7,456.7 310.3,455 309.9,453.4 309.5,451.7 309.1,450 308.7,448.3 308.4,446.9 308.1,444.9 307.7,443 307.5,441.6 307.1,439.7 306.7,437.9 306.3,436.3 305.9,434.6 305.5,433.1 305.2,431.5 304.8,429.8 304.5,428.5 304.2,426.8 303.8,425.1 303.5,423.9 303.1,422.2 302.7,420.4 302.3,418.7 301.9,417 301.5,415.3 301.3,413.9 300.9,412.1 300.6,410.6 300.3,408.7 299.9,406.8 299.5,405.2 299.3,404.1 298.9,402.5 298.6,401.3 298.3,399.7 297.9,398.1 297.5,396.4 297.2,394.9 296.8,393.3 296.4,391.7 296.1,390.1 295.7,388.5 295.4,387 295,385.2 294.7,383.9 294.3,382.2 293.8,380.4 293.3,378.8 293,377.6 292.5,375.9 292.1,374.6 291.8,373.5 291.3,371.9 290.7,370.3 290.3,369.1 289.6,367.4 289,365.7 288.5,364.5 288.1,363.3 287.4,361.6 286.9,360.4 286.3,359 285.6,357.4 284.8,355.8 284.3,354.8 283.6,353.4 282.9,352.1 282.2,350.8 281.5,349.5 280.7,348.2 280,347 279.1,345.6 278.3,344.5 277.3,343.1 276.1,341.5 275.1,340.2 274.3,339.2 273.3,337.9 272.5,336.9 271.6,335.8 270.6,334.7 269.5,333.5 268.6,332.6 267.7,331.7 266.7,330.7 265.7,329.7 264.8,328.8 263.6,327.6 262.4,326.4 261.2,325.4 260,324.4 258.5,323.2 257.3,322.4 256.1,321.6 254.9,320.8 253.7,320 252.2,319.1 250.8,318.1 249.3,317.2 248.2,316.5 246.8,315.6 245.7,314.9 244.5,314.2 243.4,313.5 241.9,312.6 240.5,311.9 239,311.2 237.5,310.6 235.7,309.8 234.3,309.2 232.9,308.6 231.5,308 230.1,307.4 228.5,306.8 226.8,306.3 224.9,305.8 223.4,305.4 221.8,305 220.4,304.6 219,304.2 217.6,303.8 215.9,303.4 214.2,303 212.8,302.8 211,302.5 209.3,302.3 207.7,302.1 205.9,301.9 204.1,301.7 202.7,301.6 201.6,301.5 200.1,301.4 198.6,301.3 196.8,301.2 194.9,301.1 192.7,301 191.1,301 189.5,301 187.9,301 186.3,301 184.7,301 183.1,301 181.5,301 179.9,301 178.3,301 176.7,300.9 174.8,300.8 173.1,300.7 171.6,300.6 170.3,300.5 168.7,300.4 167.1,300.3 165.6,300.2 163.9,300.1 161.9,300 160.3,300 158.7,300 157.1,300 155.5,300 153.9,300 152.3,300 150.7,300 148.6,300.1 146.8,300.2 145.2,300.3 143.5,300.4 141.9,300.5 140.8,300.5 139.4,300.5 137.9,300.6 136.4,300.7 134.6,300.9 132.8,301.1 131.2,301.3 129.6,301.4 127.8,301.7 126.5,301.9 125.1,302.1 123.6,302.3 121.8,302.7 120.5,302.9 118.7,303.2 116.9,303.6 115.3,304 113.8,304.3 112.2,304.7 111.1,305 109.6,305.4 108.1,305.8 106.7,306.3 105.3,306.7 103.9,307.2 102.3,307.7 100.7,308.3 99.3,308.7 98,309.2 96.3,309.7 95,310.2 93.4,310.7 91.9,311.3 90.4,311.8 89,312.4 87.6,313 86.3,313.6 84.7,314.3 83.1,315.1 81.7,315.7 80.1,316.4 78.7,317.1 77.6,317.6 76.2,318.2 74.7,319 73.4,319.8 72,320.6 70.6,321.4 69.3,322.2 67.9,323.2 66.7,324 65.6,324.7 64.3,325.6 63.2,326.4 62,327.1 60.9,327.8 59.4,328.8 58,329.9 56.6,331 55.5,331.9 54.1,333 53.1,333.9 51.8,334.9 50.5,335.9 49.4,336.9 48.2,337.9 46.8,339.1 45.8,340 44.7,341 43.3,342.2 42.3,343.2 41.4,344.1 40.4,345.1 39.2,346.3 38.2,347.4 37.2,348.5 36.1,349.7 34.8,351.1 33.9,352.2 33,353.2 31.7,354.8 30.6,356.2 29.4,357.9 28.1,359.6 26.8,361.3 25.5,363 24.1,364.9 23.1,366.2 22.2,367.6 21,369.3 20.2,370.6 19.5,371.8 18.6,373.4 17.5,375.1 16.8,376.5 16,377.9 15.1,379.5 14.4,380.7 13.7,382.3 12.9,383.9 12.2,385.4 11.5,386.9 10.8,388.6 10.1,390 9.4,391.4 8.7,392.9 8,394.5 7.4,396 6.8,397.4 6.3,398.8 5.6,400.8 5,402.4 4.4,403.9 3.8,405.5 3.2,407.1 2.6,408.6 2.1,410.2 1.5,411.9 1,413.5 0.3,415.6 -0.2,417 -0.7,418.4 -1.4,420.4 -2,422.2 -2.5,423.6 -2.9,425 -3.5,426.6 -4.1,428.2 -4.7,429.8 -5.3,431.4 -6,433.4 -6.6,435.1 -7.1,436.5 -7.7,438.1 -8.4,440 -9,441.7 -9.6,443.4 -10.2,444.9 -10.8,446.6 -11.3,448 -11.9,449.5 -12.6,451.6 -13.2,453.5 -13.7,455.1 -14.3,456.8 -14.9,458.5 -15.5,460 -16.1,461.6 -16.8,463.3 -17.5,465.5 -18.2,467.5 -18.7,469.1 -19.3,470.8 -19.9,472.7 -20.4,474 -21,475.5 -21.7,477.3 -22.4,479.2 -23.1,480.8 -24,483.2 -24.7,485.3 -25.4,487.2 -25.9,488.8 -26.5,490.7 -27,492.2 -27.5,493.7 -28.1,495.4 -28.8,497.5 -29.5,499.5 -30.1,501 -30.8,502.9 -31.5,504.9 -32.2,506.6 -32.8,508.4 -33.5,510.5 -34.2,512.2 -34.8,513.9 -35.5,515.9 -36.2,517.6 -36.8,519.4 -37.5,521.5 -38.3,523.6 -38.9,525.4 -39.6,527.4 -40.4,529.5 -41,531.3 -41.6,533.1 -42.4,535.3 -43,537.2 -43.6,539 -44.3,540.9 -45,542.8 -45.5,544.2 -46.2,546 -46.8,547.8 -47.4,549.6 -48,551.4 -48.8,553.6 -49.4,555.5 -50.1,557.4 -50.8,559.2 -51.3,560.7 -52,562.5 -52.8,564.3 -53.5,566.1 -54.3,568.3 -55.2,570.5 -55.8,572.4 -56.5,574.6 -57.2,576.4 -57.9,578.3 -58.5,580.3 -59.2,582.2 -59.9,584.1 -60.5,586.1 -61,587.7 -61.8,589.5 -62.6,591.4 -63.3,593.3 -64.1,595.2 -64.9,597.4 -65.5,599.2 -66.1,601.1 -66.8,603 -67.4,604.8 -68.2,606.8 -69,608.9 -69.7,610.9 -70.4,613 -71.2,615.1 -71.8,617 -72.5,619.3 -73.2,621.3 -73.7,622.8 -74.3,624.7 -74.9,626.3 -75.6,628.1 -76.2,629.9 -76.9,631.7 -77.6,633.6 -78.4,635.8 -79,637.4 -79.7,639.2 -80.4,641.1 -81.1,642.9 -81.8,644.7 -82.5,646.7 -83.2,648.5 -83.9,650.8 -84.5,652.8 -85,654.4 -85.5,656 -86.1,657.9 -86.8,659.5 -87.4,661 -88.1,662.8 -88.9,664.9 -89.5,666.7 -90,668.2 -90.6,670 -91.3,672.2 -91.9,673.9 -92.5,675.5 -93.1,677.2 -93.9,679.2 -94.4,680.6 -95,682.2 -95.7,683.9 -96.4,685.8 -97,687.4 -97.8,689.3 -98.4,690.9 -99,692.5 -99.6,693.8 -100.3,695.3 -100.9,696.4 -101.8,697.9 -102.6,699.3 -103.6,701.2 -104.4,702.6 -105.2,704.1 -105.9,705.3 -106.9,706.9 -107.7,708 -108.6,709.2 -109.6,710.4 -110.7,711.9 -111.6,713 -112.6,714.2 -113.6,715.4 -114.6,716.6 -115.4,717.4 -116.6,718.4 -117.8,719.4 -119,720.4 -120.2,721.4 -121.4,722.4 -122.6,723.4 -123.8,724.5 -124.9,725.4 -126.3,726.4 -127.7,727.4 -129,728.3 -130.2,728.9 -131.6,729.7 -132.6,730.3 -133.9,731 -135.1,731.6 -136.4,732.3 -137.5,732.8 -138.9,733.4 -140.3,733.9 -141.5,734.4 -143,734.9 -144.6,735.5 -146.2,736 -147.5,736.5 -148.9,736.9 -150.4,737.3 -151.8,737.7 -152.9,738 -154.3,738.2 -156,738.6 -157.3,738.9 -158.8,739.1 -160.4,739.3 -161.7,739.5 -163,739.5 -164.4,739.6 -165.8,739.7 -167.3,739.8 -169.2,739.9 -170.8,740 -172.2,739.9 -173.7,739.8 -175,739.7 -176.4,739.5 -177.8,739.3 -179.5,739.1 -181,738.9 -182.5,738.7 -183.9,738.4 -185.3,738.1 -186.4,737.9 -187.7,737.5 -189,737.1 -190.4,736.7 -191.8,736.3 -193.2,735.8 -194.6,735.4 -196,734.9 -197.4,734.4 -198.7,733.8 -200,733.2 -201.5,732.5 -203.1,731.8 -204.1,731.2 -205.6,730.5 -207.2,729.8 -208.2,729.2 -209.5,728.4 -210.9,727.7 -212.1,727 -213.2,726.3 -214.7,725.4 -216.1,724.6 -217.5,723.8 -218.6,723.1 -220.1,722.2 -221.5,721.4 -222.6,720.8 -224,720 -225.4,719.2 -226.8,718.5 -228.1,717.9 -229.4,717.2 -230.8,716.5 -232.2,715.8 -233.5,715.1 -234.7,714.5 -236.2,713.8 -237.4,713.3 -238.9,712.7 -240.1,712.3 -241.6,711.8 -243.2,711.3 -244.8,710.8 -246.1,710.5 -247.4,710.1 -249.1,709.7 -250.5,709.5 -252.3,709.1 -254.2,708.7 -256.1,708.4 -257.7,708.2 -259.2,708 -260.6,708 -262,708 -263.7,708 -265.1,708 -266.5,708 -267.9,708 -269.6,708.1 -271.1,708.2 -272.5,708.3 -274.2,708.5 -275.9,708.8 -277.3,709 -278.6,709.2 -280.3,709.6 -281.7,709.9 -282.8,710.1 -284.2,710.5 -285.7,710.9 -287.1,711.3 -288.5,711.7 -290.2,712.3 -291.7,712.8 -293.1,713.4 -294.2,713.8 -295.8,714.5 -297,715 -298,715.5 -299.6,716.3 -301.2,717.1 -302.3,717.7 -303.5,718.4 -305,719.3 -306.2,720.1 -307.4,721 -308.6,721.9 -310,722.9 -311.2,723.9 -312.2,724.7 -313.3,725.6 -314.5,726.6 -315.5,727.7 -316.5,728.7 -317.4,729.6 -318.5,730.7 -319.6,731.8 -320.7,732.8 -322,734.2 -323.3,735.7 -324.3,736.9 -325.2,738.1 -326.1,739.2 -326.8,740.2 -327.5,741.2 -328.2,742.2 -329,743.2 -330,744.8 -330.9,746 -331.7,747.2 -332.7,748.7 -333.7,750.5 -334.3,751.7 -334.9,753 -335.6,754.2 -336.4,755.6 -337,756.6 -337.8,758 -338.6,759.3 -339.4,760.7 -340.1,762 -340.8,763.3 -341.4,764.2 -342.3,765.6 -343.2,767.3 -344,768.7 -344.8,770.1 -345.8,771.8 -346.5,773 -347.2,774.2 -348.1,775.7 -349,777.2 -349.7,778.4 -350.6,780 -351.5,781.3 -352.3,782.8 -353.1,784.3 -353.9,785.9 -354.7,787.4 -355.5,788.9 -356.3,790.2 -357.1,791.5 -358,793 -358.7,794.3 -359.6,795.9 -360.4,797.3 -361.3,798.8 -362.3,800.3 -363.2,801.7 -364.2,803.2 -365,804.5 -365.9,806 -366.6,807.3 -367.6,808.9 -368.4,810.3 -369.4,812 -370.3,813.4 -371.1,814.8 -372.1,816.5 -372.9,818 -373.6,819.3 -374.5,820.9 -375.6,822.7 -376.4,824.1 -377.3,825.6 -378.4,827.3 -379.2,828.7 -380.1,830.1 -380.8,831.3 -381.7,832.7 -382.5,834.1 -383.5,835.9 -384.3,837.4 -385.1,838.9 -385.8,840.3 -386.5,841.7 -387.1,842.8 -387.9,844.2 -388.7,845.6 -389.6,847.1 -390.3,848.3 -391.2,849.8 -391.9,851 -392.9,852.5 -393.6,853.7 -394.5,855.2 -395.4,856.7 -396.3,858.1 -396.9,859.3 -397.8,860.8 -398.7,862.3 -399.4,863.4 -400.1,864.6 -401.2,866.4 -402,867.9 -402.7,869.2 -403.4,870.4 -404.2,872 -404.7,872.9 -405.4,874.1 -406.1,875.2 -406.9,876.7 -407.6,877.8 -408.5,879.3 -409.3,880.5 -410,881.7 -410.8,883.1 -411.6,884.5 -412.2,885.5 -413.3,887.4 -414.4,889.3 -415.4,891 -416.4,892.6 -417.5,894.5 -418,895.5 -418.8,896.8 -419.5,897.8 -420.1,898.9 -420.8,900.2 -421.6,901.5 -422.2,902.5 -422.9,903.8 -423.7,905.1 -424.4,906.2 -425.1,907.3 -425.8,908.4 -426.5,909.4 -427.4,910.7 -428.2,911.7 -429,912.7 -430.1,914.2 -431.1,915.5 -431.9,916.5 -433,917.7 -434.2,919 -435.2,919.9 -436.3,920.8 -437.4,921.7 -438.2,922.4 -439.2,923.2 -440.1,923.8 -441.2,924.5 -442.2,925.2 -443.6,926 -444.7,926.6 -445.8,927.2 -446.8,927.8 -447.9,928.3 -448.7,928.7 -449.8,929.1 -450.9,929.6 -451.8,929.9 -453,930.3 -454.2,930.7 -455.1,931 -456,931.2 -457.5,931.6 -458.7,931.9 -459.8,932.1 -461.2,932.3 -462.7,932.5 -463.6,932.6 -464.9,932.7 -466.3,932.8 -467.7,932.9 -469.1,933 -470.5,933 -471.8,933 -473,932.9 -473.9,932.8 -475.3,932.6 -476.7,932.4 -477.8,932.2 -479.4,931.9 -481,931.6 -482,931.3 -483.1,931 -484.4,930.6 -485.2,930.3 -486.3,929.8 -487.7,929.3 -489,928.7 -490.8,927.8 -492.6,927 -494.1,926.3 -495.6,925.4 -497.4,924.4 -498.5,923.7 -499.8,922.9 -501.1,922.1 -502.2,921.5 -503.4,920.7 -504.6,920 -505.6,919.3 -507,918.4 -508.5,917.4 -509.6,916.7 -510.7,916 -512,915.2 -513.2,914.4 -514.4,913.6 -515.7,912.8 -517.3,911.7 -518.7,910.8 -519.9,910.1 -521,909.4 -522.3,908.5 -523.8,907.6 -525.3,906.6 -526.7,905.6 -528.1,904.7 -529.3,904 -530.4,903.2 -531.5,902.5 -532.9,901.6 -534.3,900.7 -535.9,899.6 -537.1,898.8 -538.8,897.6 -540.6,896.4 -542.3,895.2" style="stroke: rgb(59, 130, 246); stroke-width: 7;"></polyline><polyline vector-effect="non-scaling-stroke" fill="none" points="-544.1,894 -545.9,892.8 -547.5,891.7 -548.8,890.8 -550.1,889.9 -551.2,889 -552.7,887.9 -554.1,887 -555.5,886 -556.9,885.1 -558.4,884.2 -559.8,883.4 -561.4,882.3 -562.9,881.4 -564.4,880.4 -566.1,879.3 -567.5,878.3 -568.6,877.6 -570,876.5 -571.6,875.4 -573,874.5 -574.4,873.6 -575.8,872.7 -577.1,871.9 -578.6,870.9 -579.9,870 -581.4,868.9 -582.9,867.8 -584.2,866.9 -585.6,865.9 -587.2,864.8 -588.6,863.9 -590.2,862.8 -591.9,861.7 -593.1,860.9 -594,860.2 -595.4,859.1 -596.6,858.2 -597.7,857.3 -599.5,855.8 -601.4,854.1 -603,852.6 -604.5,851.1 -606.1,849.5 -607.4,848.1 -608.5,846.9 -609.5,845.8 -610.6,844.7 -611.8,843.4 -612.6,842.4 -613.7,841.1 -614.7,839.9 -615.7,838.4 -616.6,837.1 -617.6,835.8 -618.4,834.6 -619.2,833.4 -619.9,832.4 -620.8,830.9 -621.6,829.5 -622.3,828.2 -623.1,826.6 -624.1,824.8 -624.8,823.6 -625.4,822.4 -626.1,821.2 -626.9,819.8 -627.4,818.6 -627.9,817.4 -628.6,815.7 -629.3,813.8 -629.7,812.4 -630.2,811 -630.7,809.3 -631.1,808 -631.4,807 -631.9,805.3 -632.3,803.6 -632.6,802.2 -633,800.5 -633.4,798.8 -633.6,797.7 -633.9,796.4 -634.3,794.5 -634.5,793 -634.7,791.4 -634.9,789.8 -635,788.3 -635,787.2 -635,785.8 -635,784.3 -635,782.6 -635,780.8 -635,779.2 -635,777.6 -635,776 -635,774.4 -635,773.1 -635,771.5 -635,770.1 -634.9,768.9 -634.7,767.4 -634.5,765.5 -634.1,763.4 -633.7,761.1 -633.4,758.8 -633.1,757.1 -632.7,755.3 -632.5,754 -632.2,752.9 -631.8,751.3 -631.4,749.6 -631.1,748.4 -630.6,746.9 -630.2,745.4 -629.7,744.2 -629.2,742.6 -628.6,740.9 -628.1,739 -627.5,737.2 -627.1,735.6 -626.6,734.2 -626.1,732.4 -625.6,731.1 -625.2,729.8 -624.6,728.2 -624.1,726.4 -623.6,725.1 -623.2,723.7 -622.6,722.1 -622.1,720.2 -621.6,718.7 -621.1,717.1 -620.5,715.4 -620,713.9 -619.4,712.3 -618.8,710.7 -618.3,709.2 -617.7,707.6 -617.1,705.7 -616.5,703.9 -616,702.2 -615.4,700.5 -614.9,699 -614.4,697.5 -613.9,696.4 -613.3,695 -612.6,693 -611.9,691.1 -611.3,689.3 -610.7,687.5 -610.2,686 -609.6,684.5 -609,683 -608.3,681.4 -607.6,679.6 -606.8,677.8 -606.2,676.4 -605.5,674.7 -604.7,672.9 -604,671.4 -603.3,669.7 -602.4,667.9 -601.6,666 -600.9,664.5 -600.1,662.8 -599.2,661 -598.6,659.5 -598,658.3 -597.1,656.5 -596.3,655 -595.5,653.5 -594.5,651.5 -593.5,649.6 -592.8,648.3 -591.8,646.3 -590.8,644.4 -589.9,642.9 -588.7,640.8 -587.5,638.7 -586.5,637 -585.5,635.4 -584.6,633.9 -583.7,632.4 -582.7,630.8 -581.5,628.9 -580.4,627 -579.2,625.1 -578,623.2 -576.8,621.2 -575.9,619.8 -574.8,618.2 -573.4,616.1 -572.2,614.4 -571.1,612.9 -569.6,610.8 -568.3,608.9 -567.1,607.1 -565.9,605.4 -564.3,603.2 -563.1,601.6 -561.6,599.5 -560.3,597.8 -559,596.1 -557.9,594.6 -556.2,592.3 -554.8,590.5 -553.1,588.4 -551.3,586.2 -549.4,583.9 -548.1,582.3 -546.6,580.5 -545.1,578.7 -543.6,576.8 -542.3,575.2 -540.9,573.5 -539.3,571.7 -537.8,569.8 -536.4,568.1 -534.8,566.3 -533.1,564.4 -531.5,562.5 -530.1,560.9 -528.5,559.1 -526.9,557.2 -525.2,555.3 -523.4,553.3 -521.5,551.2 -519.8,549.4 -518.1,547.5 -516.4,545.6 -514.7,543.9 -513.1,542.4 -511.2,540.5 -509.4,538.7 -507.5,536.7 -505.8,534.8 -503.8,532.6 -501.9,530.5 -500.1,528.6 -498.3,526.8 -496.5,524.9 -494.7,523 -493.1,521.3 -490.9,519.1 -488.9,517 -487,515.1 -485.1,513.2 -483.2,511.3 -481.4,509.4 -479.7,507.7 -477.8,505.8 -475.9,503.9 -473.7,501.9 -471.8,500.1 -469.6,497.9 -467.3,495.7 -465,493.5 -462.8,491.2 -460.8,489.3 -458.5,487.3 -456.4,485.4 -454.5,483.7 -452.5,482.1 -450.3,480.2 -448.4,478.6 -446.4,477 -444.2,475.2 -442.2,473.5 -440.2,471.9 -438.3,470.3 -436.6,468.9 -434.5,467.3 -432.6,465.8 -430.6,464.2 -428.6,462.7 -426.6,461.1 -424.6,459.7 -422.5,458.2 -420.4,456.8 -418.5,455.5 -416.1,454 -413.9,452.5 -411.8,451.1 -409.8,449.8 -407.5,448.4 -405.6,447.2 -403.6,446 -401.5,444.8 -399.6,443.7 -397.4,442.5 -395.3,441.3 -393.1,440.1 -390.9,438.9 -388.5,437.6 -386.4,436.3 -384.3,435.1 -382.1,433.9 -379.9,432.6 -377.4,431.1 -375.2,429.9 -372.4,428.4 -370.3,427.1 -368.2,425.9 -366,424.7 -363.4,423.2 -361.4,422 -359.2,420.8 -356.7,419.4 -354.8,418.3 -352.7,417.1 -350.3,415.8 -348.2,414.6 -346,413.3 -343.7,412 -341.5,410.8 -339.6,409.7 -337.3,408.4 -335,407.2 -332.2,405.6 -330,404.3 -327.5,402.8 -325.1,401.4 -323.2,400.3 -321.3,399.2 -319,398 -316.7,396.8 -314.6,395.6 -312.1,394.2 -309.6,392.9 -307.2,391.4 -305.1,390.1 -302.6,388.7 -300.4,387.5 -298.2,386.1 -296.2,385 -293.8,383.7 -291.8,382.5 -289.2,380.9 -287.1,379.8 -284.5,378.3 -282.2,377 -279.7,375.6 -277.7,374.4 -275.3,372.9 -273.4,371.8 -271.2,370.4 -269.2,369.2 -266.7,367.8 -264.7,366.7 -262.1,365.2 -259.9,364 -257.4,362.6 -255.3,361.3 -252.9,359.8 -250.8,358.5 -248.4,357 -246.3,355.7 -244.1,354.4 -242,353 -240.1,351.8 -238,350.4 -235.6,348.8 -233.3,347.1 -231.1,345.6 -228.6,343.8 -226.6,342.4 -224.6,340.9 -222.5,339.4 -220.4,337.8 -218.3,336.2 -216.3,334.6 -214.4,333.2 -212.6,331.8 -210.6,330.3 -208.8,328.9 -206.7,327.2 -204.6,325.3 -202.5,323.5 -200.5,321.7 -198.8,320 -197,318.3 -195.2,316.7 -193.4,315 -191.6,313.3 -189.8,311.7 -188.1,310.1 -186.4,308.4 -184.8,306.7 -183,304.8 -181.2,302.9 -179.5,301 -177.8,299.1 -176,297.2 -174.4,295.3 -172.7,293.3 -170.9,291.3 -169.2,289.3 -167.5,287 -166,285.1 -164.6,283.2 -163.1,281.1 -161.8,279.2 -160.4,277.4 -159.1,275.6 -157.5,273.4 -156,271.3 -154.4,269 -153.2,267.1 -151.6,264.8 -150.2,262.7 -149.1,260.9 -147.8,259 -146.3,256.6 -145.2,254.7 -144.2,253 -142.7,250.6 -141.5,248.4 -140.5,246.7 -139.2,244.5 -137.7,241.7 -136.7,239.7 -135.6,237.6 -134.5,235.5 -133.3,233.2 -132.3,231.3 -131.2,229.1 -130.1,226.8 -128.8,224.2 -127.7,221.5 -126.6,219 -125.5,216.5 -124.3,213.7 -123.3,211.2 -122.4,209.2 -121.4,206.9 -120.4,204.5 -119.5,202.5 -118.5,200.2 -117.5,197.9 -116.5,195.6 -115.6,193.3 -114.7,191 -113.8,188.7 -113,186.6 -112.1,184.2 -111.2,182.1 -110.3,180 -109.4,178 -108.4,175.7 -107.5,173.7 -106.5,171.4 -105.5,169.1 -104.5,166.8 -103.5,164.4 -102.6,162.1 -101.7,159.8 -100.9,157.7 -100.1,155.6 -99.3,153.6 -98.4,151.6 -97.5,149.6 -96.5,147.3 -95.6,145 -94.7,142.7 -93.8,140.3 -93,138.3 -92.2,136.3 -91.4,134.3 -90.6,132.3 -89.8,130.3 -89,128.3 -88.2,126.4 -87.3,124.3 -86.5,122.3 -85.7,120.3 -84.8,118 -83.9,115.6 -83,113.2 -82.2,111 -81.5,109.1 -80.8,107.1 -80.1,105.2 -79.5,103.4 -78.8,101.7 -78,99.8 -77.2,97.9 -76.6,96.2 -75.8,94.2 -75,92.2 -74.2,90 -73.6,88.1 -72.8,86 -72.1,84.3 -71.4,82.1 -70.8,80.3 -70,78 -69.4,75.9 -68.9,74 -68.4,72.3 -67.8,70.3 -67.3,68.3 -66.7,66.4 -66.2,64.5 -65.6,62.3 -65.2,60.4 -64.7,58.5 -64.3,56.4 -63.9,54.4 -63.6,52.5 -63.2,50.3 -63,48.6 -62.8,47 -62.5,44.9 -62.3,43 -62.2,41.1 -62.1,39.2 -62,36.7 -62,34.7 -62,32.7 -62,30.7 -62,28.6 -62,26.8 -62,24.9 -62,23 -62.1,20.8 -62.3,18.7 -62.5,16.9 -62.7,14.9 -63.1,12.6 -63.4,10.9 -63.7,8.8 -64.1,6.8 -64.5,5 -64.8,3.2 -65.2,1.4 -65.6,-0.4 -66.1,-2.7 -66.7,-4.9 -67.3,-7 -68,-9.3 -68.6,-11.2 -69.2,-13.3 -69.9,-15.6 -70.7,-17.7 -71.4,-19.8 -72.3,-22.1 -73.1,-23.8 -73.9,-25.7 -74.6,-27.4 -75.4,-29.3 -76.1,-31.2 -76.9,-33.3 -77.7,-35.3 -78.5,-37.3 -79.4,-39.4 -80.4,-41.5 -81.4,-43.6 -82.4,-45.7 -83.3,-47.8 -84.1,-49.7 -84.9,-51.6 -85.7,-53.5 -86.5,-55.6 -87.5,-57.8 -88.5,-60 -89.5,-62.2 -90.4,-64.2 -91.4,-66.3 -92.4,-68.5 -93.3,-70.4 -94.3,-72.7 -95.4,-75.2 -96.2,-77.2 -97.1,-79.4 -98,-81.7 -98.8,-83.8 -99.6,-85.9 -100.6,-88.2 -101.5,-90.5 -102.5,-92.9 -103.4,-94.9 -104.4,-97.2 -105.3,-99.4 -106.3,-101.7 -107.2,-103.8 -108.3,-106.5 -109.2,-108.7 -110.4,-111.3 -111.4,-113.4 -112.5,-115.9 -113.4,-117.8 -114.6,-120.4 -115.5,-122.6 -116.4,-125 -117.2,-127 -118.2,-129.5 -118.9,-131.4 -119.8,-133.7 -120.8,-136 -121.8,-138.4 -122.8,-140.8 -123.8,-143.1 -124.7,-145.2 -125.7,-147.6 -126.7,-149.9 -127.6,-152 -128.6,-154.3 -129.6,-156.6 -130.5,-158.7 -131.5,-161 -132.5,-163.2 -133.5,-165.5 -134.5,-167.8 -135.4,-169.8 -136.3,-172 -137.2,-174.3 -138.1,-176.6 -139,-178.8 -140,-181.2 -141,-183.5 -142.2,-186.1 -143.3,-188.4 -144.3,-190.5 -145.3,-193 -146.2,-195.2 -146.9,-197.1 -147.6,-199 -148.5,-201.6 -149.4,-203.8 -150.4,-206.2 -151.4,-208.5 -152.4,-210.9 -153.1,-212.6 -153.9,-214.8 -154.7,-217 -155.4,-219 -156.2,-221.4 -157.2,-224 -158,-226.1 -158.7,-228 -159.5,-230.5 -160.3,-232.7 -160.9,-234.7 -161.6,-236.9 -162.3,-239.1 -163.1,-241.3 -163.8,-243.4 -164.5,-245.5 -165.2,-247.7 -165.8,-249.9 -166.4,-252.1 -166.9,-254.3 -167.5,-256.5 -168.1,-258.8 -168.7,-261 -169.2,-263 -169.7,-265 -170.4,-267.7 -170.9,-269.8 -171.5,-272 -172,-274.3 -172.6,-276.6 -173,-278.7 -173.5,-280.8 -174,-283.3 -174.5,-285.3 -174.9,-287.2 -175.3,-289.3 -175.7,-291.4 -176.1,-293.6 -176.5,-295.8 -176.9,-298 -177.3,-300.1 -177.7,-302.3 -178,-304 -178.2,-305.9 -178.6,-308.4 -178.9,-310.4 -179.1,-312.2 -179.5,-314.7 -179.9,-317.1 -180.1,-318.9 -180.4,-320.8 -180.8,-323.4 -181,-325.3 -181.2,-327.1 -181.6,-329.6 -181.9,-331.9 -182.1,-333.7 -182.3,-335.6 -182.7,-338 -182.9,-339.7 -183.1,-341.4 -183.3,-343.2 -183.7,-345.6 -183.9,-347.5 -184.1,-349.4 -184.3,-351.5 -184.7,-354 -184.9,-355.8 -185.1,-357.6 -185.3,-359.6 -185.6,-362.2 -185.8,-364.1 -186,-366 -186.2,-367.9 -186.4,-369.9 -186.7,-371.6 -186.9,-373.4 -187.1,-375.1 -187.3,-377 -187.6,-379.3 -187.8,-381 -188,-382.7 -188.2,-384.7 -188.4,-386.6 -188.7,-388.3 -188.9,-390.1 -189.1,-391.9 -189.3,-393.7 -189.7,-396 -189.9,-397.7 -190.1,-399.4 -190.3,-401.1 -190.5,-402.9 -190.7,-404.7 -190.9,-406.5 -191.1,-408.3 -191.3,-410.1 -191.6,-411.9 -191.8,-413.5 -192,-415.3 -192.2,-417 -192.4,-418.7 -192.6,-420.3 -192.8,-422.1 -193,-423.8 -193.2,-425.8 -193.6,-428.2 -193.9,-430.4 -194.1,-432 -194.3,-433.5 -194.6,-434.9 -194.8,-436.4 -195,-437.8 -195.2,-439.1 -195.4,-440.6 -195.5,-441.9 -195.6,-442.8 -195.8,-444.2 -196,-445.6 -196.2,-446.9 -196.4,-448.2 -196.5,-449.4 -196.5,-450.1 -196.6,-451 -196.7,-451.9 -196.9,-453.3 -197.1,-454.7 -197.3,-456.1 -197.4,-457.3 -197.5,-458.5 -197.7,-460.1 -197.9,-461.6 -198.1,-463.3 -198.3,-465.1 -198.6,-466.9 -198.8,-468.4 -199,-469.9 -199.2,-471.2 -199.4,-472.6 -199.5,-474 -199.6,-475.1 -199.8,-476.7 -200,-478.4 -200.2,-479.9 -200.4,-481.5 -200.5,-482.8 -200.5,-483.7 -200.5,-484.5 -200.4,-485.9 -200.3,-487.2 -200.2,-488.5 -199.9,-490 -199.6,-491.5 -199.3,-492.3 -198.9,-493.2 -198.5,-494.1 -198.2,-494.6 -197.9,-495.1 -196.9,-496.4 -195.9,-497.4 -194.9,-498.4 -193.9,-499.4 -192.8,-500.3 -192.5,-500.5 -192,-500.8 -191.1,-501.2 -190.2,-501.6 -189.3,-502 -188.2,-502.4 -186.9,-502.8 -185.8,-503 -184.7,-503.2 -183.6,-503.4 -182.5,-503.5 -181.7,-503.5 -181,-503.5 -180.3,-503.5 -178.9,-503.4 -177.5,-503.3 -176.1,-503.1 -174.4,-502.9 -172.7,-502.7 -171.7,-502.6 -170.8,-502.5 -170,-502.5 -169,-502.4 -167.7,-502.2 -166.3,-502 -164.8,-501.8 -163.3,-501.6 -161.6,-501.5 -160.1,-501.5 -158.7,-501.6 -156.6,-501.9 -153.1,-503.6 -150.3,-505.3 -147.4,-507.9 -144.5,-510.7 -142.4,-514.1 -141.9,-516.9 -141.5,-519.9 -141.5,-522 -141.8,-524.5 -142.5,-526.7 -143.2,-528.1 -143.9,-529.4 -144.9,-531.4 -145.8,-532.7 -146.4,-533.6 -147.3,-535 -148.2,-536.4 -148.8,-537.1 -149.3,-537.9 -150,-538.9 -150.4,-539.4 -150.9,-540.1 -151.6,-541.2 -152.5,-542.6 -153.4,-543.8 -154.2,-545.1 -155,-546.2 -155.7,-547.1 -156.3,-547.9 -157,-549 -157.8,-550.2 -158.8,-551.7 -159.7,-553.1 -160.5,-554.3 -161.3,-555.5 -162,-556.6 -162.5,-557.4 -163,-558.2 -163.6,-559.2 -164.3,-560.3 -165.1,-561.4 -165.8,-562.5 -166.5,-563.6 -167.2,-564.5 -167.5,-565 -168.1,-566 -168.8,-567 -169.4,-568 -170,-569 -171,-570.5 -171.8,-571.7 -172.5,-572.9 -173.3,-574.1 -174.1,-575.3 -174.8,-576.5 -175.3,-577.5 -176.1,-578.8 -176.9,-580.1 -177.6,-581.5 -178.1,-582.4 -179.1,-583.9 -179.9,-585.2 -180.7,-586.5 -181.7,-588 -182.7,-589.6 -183.3,-590.6 -184.1,-592 -185.1,-593.8 -186,-595.3 -186.9,-596.7 -188.1,-598.6 -189.1,-600 -189.9,-601.1 -190.8,-602.5 -191.7,-603.9 -192.5,-605.3 -193.6,-607.1 -194.7,-608.9 -195.9,-610.8 -197.1,-612.7 -198.3,-614.5 -199.2,-616 -200.2,-617.7 -201,-619 -202.2,-620.9 -203.2,-622.5 -204.4,-624.4 -205.7,-626.4 -207,-628.4 -208.1,-630.2 -209.3,-632 -210.5,-634 -211.5,-635.6 -212.8,-637.7 -214,-639.5 -215.1,-641.3 -216.4,-643.3 -217.8,-645.5 -219,-647.3 -220.3,-649.4 -221.6,-651.5 -222.9,-653.4 -224.1,-655.2 -225.5,-657.6 -226.8,-659.7 -228.2,-662 -229.4,-664 -230.9,-666.5 -231.5,-667.4 -232.2,-668.5" style="stroke: rgb(251, 191, 36); stroke-width: 7;"></polyline></svg>