<svg xmlns="http://www.w3.org/2000/svg" xmlns:xlink="http://www.w3.org/1999/xlink" preserveAspectRatio="xMidYMid meet" height="100%" viewBox="-800 -1120 1400 2220">
    <polygon vector-effect="non-scaling-stroke" fill="none" style="stroke: #374151; stroke-width:6" points="  -331,-727 -335,-732 -338,-737 -341,-742 -345,-748 -348,-753 -352,-759 -355,-765 -359,-770 -363,-776 -366,-782 -370,-788 -374,-794 -378,-800 -381,-806 -386,-812 -390,-819 -394,-825 -397,-831 -402,-838 -406,-845 -410,-852 -414,-858 -419,-865 -423,-872 -428,-878 -432,-885 -436,-891 -441,-899 -445,-905 -450,-912 -454,-919 -459,-926 -463,-933 -467,-939 -471,-946 -475,-951 -478,-957 -481,-962 -484,-967 -487,-971 -490,-975 -492,-979 -494,-983 -497,-986 -499,-990 -501,-993 -504,-998 -506,-1001 -509,-1005 -511,-1009 -513,-1013 -515,-1016 -517,-1021 -518,-1025 -519,-1030 -519,-1034 -518,-1039 -517,-1042 -515,-1045 -514,-1047 -513,-1048 -511,-1049 -510,-1051 -508,-1052 -505,-1053 -503,-1055 -498,-1056 -494,-1056 -489,-1056 -484,-1055 -481,-1053 -476,-1052 -472,-1050 -468,-1048 -462,-1046 -458,-1043 -453,-1041 -450,-1040 -445,-1037 -442,-1035 -438,-1034 -435,-1032 -431,-1030 -427,-1028 -423,-1025 -419,-1023 -414,-1021 -410,-1018 -405,-1016 -400,-1013 -395,-1011 -390,-1008 -385,-1005 -380,-1002 -375,-999 -369,-996 -364,-993 -358,-990 -352,-986 -347,-983 -341,-980 -335,-976 -329,-973 -323,-969 -317,-965 -311,-961 -305,-958 -299,-954 -293,-950 -286,-946 -280,-942 -274,-938 -268,-934 -262,-929 -256,-924 -250,-919 -244,-914 -238,-909 -232,-904 -227,-899 -221,-893 -215,-888 -209,-882 -203,-876 -198,-870 -192,-865 -186,-858 -181,-852 -176,-847 -170,-841 -164,-834 -158,-828 -152,-821 -147,-815 -141,-808 -135,-802 -129,-795 -123,-789 -118,-783 -112,-776 -106,-770 -100,-763 -95,-757 -89,-751 -83,-745 -78,-739 -72,-733 -67,-727 -61,-722 -55,-716 -50,-711 -44,-706 -39,-701 -33,-696 -27,-691 -21,-686 -15,-681 -9,-676 -3,-672 6,-666 12,-661 18,-657 24,-653 30,-649 36,-644 41,-640 46,-635 52,-630 56,-625 61,-620 65,-615 69,-610 74,-604 77,-599 81,-593 85,-587 88,-581 91,-574 94,-568 97,-562 100,-556 102,-550 104,-544 107,-537 108,-531 110,-524 112,-517 114,-510 117,-503 119,-497 121,-490 124,-483 126,-477 129,-470 132,-463 136,-457 139,-451 143,-444 146,-438 150,-432 154,-425 158,-419 162,-413 167,-406 171,-400 176,-394 180,-387 184,-381 189,-375 193,-368 198,-362 203,-355 207,-349 212,-342 216,-336 221,-329 226,-323 230,-316 235,-309 240,-303 244,-296 249,-290 254,-283 259,-276 263,-269 268,-262 272,-255 277,-247 281,-240 285,-232 289,-225 293,-217 297,-209 300,-201 304,-193 307,-185 311,-177 314,-169 317,-160 320,-152 323,-144 326,-135 328,-126 331,-118 334,-109 336,-101 339,-93 342,-84 345,-76 347,-67 350,-59 353,-50 356,-41 359,-33 362,-24 365,-15 368,-7 371,2 374,11 377,19 380,28 383,37 387,46 390,55 393,64 397,73 400,82 403,91 406,100 410,109 413,118 416,127 419,136 422,145 425,154 428,163 431,171 434,180 437,189 440,199 443,208 446,217 448,226 451,234 454,243 457,253 460,261 463,270 466,280 469,289 472,298 475,307 478,316 481,325 484,334 487,343 490,352 492,361 495,370 498,379 501,388 504,397   504,397 507,405 510,414 513,423 516,432 519,441 522,449 524,457 527,466 529,473 532,480 534,487 536,493 538,499 539,504 540,510 541,514 542,519 543,526 543,530 542,535 542,539 541,543 540,548 539,551 537,555 535,559 534,563 531,567 529,570 526,573 523,577 520,580 517,583 514,586 511,589 508,593 505,596 502,600 500,604 497,608 495,612 494,616 493,620 491,625 491,629 490,634 490,638 490,643 490,647 491,652 491,657 492,662 494,666 495,671 497,676 499,680 501,685 503,690 505,694 507,699 509,704 510,709 511,714 512,719 513,723 513,728 513,733 513,738 513,743 512,747 511,752 510,757 508,762 507,767 504,771 502,776 500,780 497,784 494,789 491,793 488,797 484,801 480,804 477,808 472,812 468,815 464,819 459,822 455,826 450,829 446,832 441,836 437,839 432,842 427,846 423,849 418,853 413,856 408,860 403,864 398,867 393,871 389,875 383,879 379,882 373,886 368,890 364,893 359,897 353,901 348,905 343,909 338,913 333,917 328,921 323,924 319,928 314,931 310,934 306,937 302,940 298,943 295,946 291,948 287,951 284,953 280,956 277,958 273,960 270,962 266,964 263,966 257,968 254,969 250,970 246,971 243,972 237,972 232,972 228,972 221,972 218,971 215,970 210,968 207,967 203,965 200,963 196,960 193,957 190,953 188,949 186,945 184,939 183,933 183,930 183,925 183,921 184,917 185,913 187,908 189,904 190,901 192,898 194,895 196,892 199,889 201,886 206,882 209,879 212,876 215,874 219,871 223,869 227,867 230,865 234,863 238,861 243,859 247,856 251,854 255,852 260,850 264,847 269,845 273,842 277,839 281,836 285,833 289,830 293,827 296,824 299,820 302,817 305,813 308,809 310,805 312,801 314,797 316,793 317,789 318,785 319,781 320,776 320,772 321,767 321,761 320,756 320,752 319,748 318,743 317,739 316,734 314,730 313,725 311,720 309,716 307,711 305,706 303,701 301,696 299,691 297,686 294,680 292,675 290,669 287,664 285,658 282,652 280,646 278,640 276,634 274,627 272,621 269,614 268,608 266,601 264,594 262,587 261,581 259,573 257,566 256,559 254,551 253,543 251,536 250,529 248,520 246,512 245,505 243,497 242,489 240,481 239,474 237,466 235,458 234,450 232,442 230,434 228,426 227,417 225,409 223,401 221,393 219,384 218,376 216,369 214,362 212,354 210,347 208,340 205,334 203,327 199,321 196,315 192,309 188,304 184,299 179,293 174,289 170,284 164,280 159,275 153,272 147,268 141,265 135,262 129,259 122,257 116,255 110,254 103,253 96,252 89,251 82,251 76,250 69,251 62,251 55,252 48,252 41,254 34,255 27,257 20,259 14,261 7,264 -3,269 -10,272 -16,276 -22,280 -28,285 -34,289 -40,294 -45,299 -50,304 -55,309 -60,315 -65,321 -69,327 -73,333 -77,340 -81,347 -85,354 -88,361 -92,368 -95,375 -98,382 -100,389 -103,397 -105,404 -108,412 -110,419 -112,426 -114,434 -117,441 -119,449 -121,457 -123,464 -126,472 -128,480 -130,487 -133,495 -135,502 -138,511 -140,518 -143,526 -145,534 -148,543 -151,551 -154,559 -157,567 -160,575 -162,583 -165,591 -168,598 -170,606 -173,612 -175,619 -178,626 -181,632 -183,638 -186,644 -189,649 -193,654 -196,659 -200,664 -204,668 -208,672 -212,675 -216,678 -221,681 -225,683 -229,685 -234,687 -239,688 -243,689 -248,690 -253,690 -257,690 -262,690 -267,690 -272,689 -277,688 -281,687 -286,686 -291,684 -295,682 -300,679 -304,677 -309,675 -313,673 -318,671 -323,669 -328,668 -333,667 -337,666 -342,665 -346,665 -351,665 -356,665 -361,665 -366,666 -371,667 -375,668 -380,669 -384,671 -389,673 -394,675 -398,677 -402,680 -406,683 -411,686 -415,689 -419,693 -422,697 -426,701 -429,705 -432,710 -435,714 -438,719 -441,724 -444,729 -446,734 -449,739 -452,745 -454,750 -457,756 -460,762 -462,767 -465,774 -468,780 -470,785 -473,791 -476,798 -479,804 -483,810 -486,816 -489,822 -492,828 -495,833 -498,838 -501,843 -504,847 -507,851 -510,855 -514,859 -517,862 -520,865 -524,868 -527,871 -531,873 -534,875 -537,877 -541,878 -545,879 -549,880 -553,881 -557,882 -561,882 -565,882 -569,882 -574,882 -578,881 -582,880 -587,879 -591,877 -596,875 -600,873 -604,871 -609,868 -613,866 -618,863 -622,860 -627,857 -631,855 -635,852   -640,848 -645,845 -649,842 -654,838 -659,835 -664,831 -669,828 -673,824 -678,820 -682,816 -686,812 -690,808 -693,804 -697,800 -700,795 -703,790 -706,785 -709,780 -711,775 -713,770 -716,764 -717,758 -719,752 -720,747 -721,741 -722,735 -723,729 -723,724 -723,718 -723,712 -722,706 -722,700 -721,694 -720,688 -718,681 -717,675 -715,669 -713,663 -711,656 -709,650 -706,644 -704,637 -701,631 -698,625 -695,619 -692,612 -688,606 -685,599 -681,592 -677,586 -674,580 -669,573 -665,567 -661,561 -656,555 -652,549 -647,543 -643,537 -638,531 -633,525 -627,518 -622,512 -617,506 -611,500 -606,494 -600,488 -594,482 -588,476 -582,471 -576,465 -570,459 -564,454 -557,448 -551,443 -544,437 -537,432 -530,427 -523,422 -516,417 -509,412 -502,407 -494,402 -487,398 -480,394 -472,389 -464,385 -457,381 -450,377 -442,373 -434,368 -426,364 -419,360 -411,356 -404,352 -396,347 -388,343 -381,338 -373,334 -366,329 -359,324 -351,320 -344,315 -337,309 -329,304 -322,299 -315,293 -308,287 -301,281 -295,276 -288,269 -282,263 -276,257 -269,250 -264,243 -258,236 -253,230 -247,222 -242,215 -237,208 -232,201 -228,194 -223,186 -219,178 -215,171 -211,163 -207,155 -203,147 -199,139 -196,131 -192,124 -189,116 -185,107 -182,99 -178,90 -175,82 -172,74 -169,65 -166,56 -164,48 -161,39 -159,30 -157,21 -156,12 -155,3 -154,-6 -154,-15 -154,-24 -154,-33 -155,-41 -156,-50 -158,-59 -160,-67 -162,-76 -165,-84 -168,-93 -171,-101 -175,-109 -179,-118 -182,-126 -187,-135 -190,-143 -194,-151 -198,-159 -201,-167 -205,-176 -209,-184 -212,-192 -216,-200 -220,-209 -223,-217 -227,-225 -230,-234 -234,-242 -237,-251 -240,-259 -243,-268 -247,-277 -250,-285 -252,-294 -255,-303 -258,-312 -260,-321 -262,-329 -264,-338 -266,-347 -268,-357 -270,-366 -271,-375 -273,-383 -274,-393 -276,-401 -277,-410 -278,-417 -279,-424 -280,-431 -281,-438 -282,-444 -282,-451 -283,-457 -284,-462 -284,-467 -285,-473 -286,-477 -286,-482 -287,-486 -287,-490 -288,-494 -288,-498 -288,-501 -289,-507 -289,-513 -289,-517 -288,-521 -287,-526 -286,-530 -284,-533 -281,-537 -279,-539 -276,-541 -273,-543 -269,-544 -265,-545 -261,-546 -257,-546 -252,-546 -248,-546 -244,-547 -240,-548 -237,-550 -234,-553 -231,-556 -229,-559 -228,-562 -228,-565 -228,-570 -228,-574 -229,-578 -230,-582 -232,-586 -234,-591 -237,-595 -239,-599 -242,-602 -245,-607 -248,-611 -252,-615 -255,-619 -257,-622 -261,-626 -263,-629 -266,-632 -268,-635 -271,-638 -274,-641 -276,-644 -279,-648 -281,-651 -284,-655 -287,-658 -289,-662 -292,-666 -295,-670 -297,-674 -300,-678 -302,-682 -305,-686 -308,-690 -311,-695 -314,-699 -317,-704 -320,-708 -322,-713 -325,-717 -328,-722 -330,-724 -331,-727  "></polygon>
    <polyline vector-effect="non-scaling-stroke" fill="none" style="stroke: #EF4444; stroke-width:4" points=" -331,-727 -335,-732 -338,-737 -341,-742 -345,-748 -348,-753 -352,-759 -355,-765 -359,-770 -363,-776 -366,-782 -370,-788 -374,-794 -378,-800 -381,-806 -386,-812 -390,-819 -394,-825 -397,-831 -402,-838 -406,-845 -410,-852 -414,-858 -419,-865 -423,-872 -428,-878 -432,-885 -436,-891 -441,-899 -445,-905 -450,-912 -454,-919 -459,-926 -463,-933 -467,-939 -471,-946 -475,-951 -478,-957 -481,-962 -484,-967 -487,-971 -490,-975 -492,-979 -494,-983 -497,-986 -499,-990 -501,-993 -504,-998 -506,-1001 -509,-1005 -511,-1009 -513,-1013 -515,-1016 -517,-1021 -518,-1025 -519,-1030 -519,-1034 -518,-1039 -517,-1042 -515,-1045 -514,-1047 -513,-1048 -511,-1049 -510,-1051 -508,-1052 -505,-1053 -503,-1055 -498,-1056 -494,-1056 -489,-1056 -484,-1055 -481,-1053 -476,-1052 -472,-1050 -468,-1048 -462,-1046 -458,-1043 -453,-1041 -450,-1040 -445,-1037 -442,-1035 -438,-1034 -435,-1032 -431,-1030 -427,-1028 -423,-1025 -419,-1023 -414,-1021 -410,-1018 -405,-1016 -400,-1013 -395,-1011 -390,-1008 -385,-1005 -380,-1002 -375,-999 -369,-996 -364,-993 -358,-990 -352,-986 -347,-983 -341,-980 -335,-976 -329,-973 -323,-969 -317,-965 -311,-961 -305,-958 -299,-954 -293,-950 -286,-946 -280,-942 -274,-938 -268,-934 -262,-929 -256,-924 -250,-919 -244,-914 -238,-909 -232,-904 -227,-899 -221,-893 -215,-888 -209,-882 -203,-876 -198,-870 -192,-865 -186,-858 -181,-852 -176,-847 -170,-841 -164,-834 -158,-828 -152,-821 -147,-815 -141,-808 -135,-802 -129,-795 -123,-789 -118,-783 -112,-776 -106,-770 -100,-763 -95,-757 -89,-751 -83,-745 -78,-739 -72,-733 -67,-727 -61,-722 -55,-716 -50,-711 -44,-706 -39,-701 -33,-696 -27,-691 -21,-686 -15,-681 -9,-676 -3,-672 6,-666 12,-661 18,-657 24,-653 30,-649 36,-644 41,-640 46,-635 52,-630 56,-625 61,-620 65,-615 69,-610 74,-604 77,-599 81,-593 85,-587 88,-581 91,-574 94,-568 97,-562 100,-556 102,-550 104,-544 107,-537 108,-531 110,-524 112,-517 114,-510 117,-503 119,-497 121,-490 124,-483 126,-477 129,-470 132,-463 136,-457 139,-451 143,-444 146,-438 150,-432 154,-425 158,-419 162,-413 167,-406 171,-400 176,-394 180,-387 184,-381 189,-375 193,-368 198,-362 203,-355 207,-349 212,-342 216,-336 221,-329 226,-323 230,-316 235,-309 240,-303 244,-296 249,-290 254,-283 259,-276 263,-269 268,-262 272,-255 277,-247 281,-240 285,-232 289,-225 293,-217 297,-209 300,-201 304,-193 307,-185 311,-177 314,-169 317,-160 320,-152 323,-144 326,-135 328,-126 331,-118 334,-109 336,-101 339,-93 342,-84 345,-76 347,-67 350,-59 353,-50 356,-41 359,-33 362,-24 365,-15 368,-7 371,2 374,11 377,19 380,28 383,37 387,46 390,55 393,64 397,73 400,82 403,91 406,100 410,109 413,118 416,127 419,136 422,145 425,154 428,163 431,171 434,180 437,189 440,199 443,208 446,217 448,226 451,234 454,243 457,253 460,261 463,270 466,280 469,289 472,298 475,307 478,316 481,325 484,334 487,343 490,352 492,361 495,370 498,379 501,388 504,397 "></polyline>
    <polyline vector-effect="non-scaling-stroke" fill="none" style="stroke: #3B82F6; stroke-width:4" points=" 504,397 507,405 510,414 513,423 516,432 519,441 522,449 524,457 527,466 529,473 532,480 534,487 536,493 538,499 539,504 540,510 541,514 542,519 543,526 543,530 542,535 542,539 541,543 540,548 539,551 537,555 535,559 534,563 531,567 529,570 526,573 523,577 520,580 517,583 514,586 511,589 508,593 505,596 502,600 500,604 497,608 495,612 494,616 493,620 491,625 491,629 490,634 490,638 490,643 490,647 491,652 491,657 492,662 494,666 495,671 497,676 499,680 501,685 503,690 505,694 507,699 509,704 510,709 511,714 512,719 513,723 513,728 513,733 513,738 513,743 512,747 511,752 510,757 508,762 507,767 504,771 502,776 500,780 497,784 494,789 491,793 488,797 484,801 480,804 477,808 472,812 468,815 464,819 459,822 455,826 450,829 446,832 441,836 437,839 432,842 427,846 423,849 418,853 413,856 408,860 403,864 398,867 393,871 389,875 383,879 379,882 373,886 368,890 364,893 359,897 353,901 348,905 343,909 338,913 333,917 328,921 323,924 319,928 314,931 310,934 306,937 302,940 298,943 295,946 291,948 287,951 284,953 280,956 277,958 273,960 270,962 266,964 263,966 257,968 254,969 250,970 246,971 243,972 237,972 232,972 228,972 221,972 218,971 215,970 210,968 207,967 203,965 200,963 196,960 193,957 190,953 188,949 186,945 184,939 183,933 183,930 183,925 183,921 184,917 185,913 187,908 189,904 190,901 192,898 194,895 196,892 199,889 201,886 206,882 209,879 212,876 215,874 219,871 223,869 227,867 230,865 234,863 238,861 243,859 247,856 251,854 255,852 260,850 264,847 269,845 273,842 277,839 281,836 285,833 289,830 293,827 296,824 299,820 302,817 305,813 308,809 310,805 312,801 314,797 316,793 317,789 318,785 319,781 320,776 320,772 321,767 321,761 320,756 320,752 319,748 318,743 317,739 316,734 314,730 313,725 311,720 309,716 307,711 305,706 303,701 301,696 299,691 297,686 294,680 292,675 290,669 287,664 285,658 282,652 280,646 278,640 276,634 274,627 272,621 269,614 268,608 266,601 264,594 262,587 261,581 259,573 257,566 256,559 254,551 253,543 251,536 250,529 248,520 246,512 245,505 243,497 242,489 240,481 239,474 237,466 235,458 234,450 232,442 230,434 228,426 227,417 225,409 223,401 221,393 219,384 218,376 216,369 214,362 212,354 210,347 208,340 205,334 203,327 199,321 196,315 192,309 188,304 184,299 179,293 174,289 170,284 164,280 159,275 153,272 147,268 141,265 135,262 129,259 122,257 116,255 110,254 103,253 96,252 89,251 82,251 76,250 69,251 62,251 55,252 48,252 41,254 34,255 27,257 20,259 14,261 7,264 -3,269 -10,272 -16,276 -22,280 -28,285 -34,289 -40,294 -45,299 -50,304 -55,309 -60,315 -65,321 -69,327 -73,333 -77,340 -81,347 -85,354 -88,361 -92,368 -95,375 -98,382 -100,389 -103,397 -105,404 -108,412 -110,419 -112,426 -114,434 -117,441 -119,449 -121,457 -123,464 -126,472 -128,480 -130,487 -133,495 -135,502 -138,511 -140,518 -143,526 -145,534 -148,543 -151,551 -154,559 -157,567 -160,575 -162,583 -165,591 -168,598 -170,606 -173,612 -175,619 -178,626 -181,632 -183,638 -186,644 -189,649 -193,654 -196,659 -200,664 -204,668 -208,672 -212,675 -216,678 -221,681 -225,683 -229,685 -234,687 -239,688 -243,689 -248,690 -253,690 -257,690 -262,690 -267,690 -272,689 -277,688 -281,687 -286,686 -291,684 -295,682 -300,679 -304,677 -309,675 -313,673 -318,671 -323,669 -328,668 -333,667 -337,666 -342,665 -346,665 -351,665 -356,665 -361,665 -366,666 -371,667 -375,668 -380,669 -384,671 -389,673 -394,675 -398,677 -402,680 -406,683 -411,686 -415,689 -419,693 -422,697 -426,701 -429,705 -432,710 -435,714 -438,719 -441,724 -444,729 -446,734 -449,739 -452,745 -454,750 -457,756 -460,762 -462,767 -465,774 -468,780 -470,785 -473,791 -476,798 -479,804 -483,810 -486,816 -489,822 -492,828 -495,833 -498,838 -501,843 -504,847 -507,851 -510,855 -514,859 -517,862 -520,865 -524,868 -527,871 -531,873 -534,875 -537,877 -541,878 -545,879 -549,880 -553,881 -557,882 -561,882 -565,882 -569,882 -574,882 -578,881 -582,880 -587,879 -591,877 -596,875 -600,873 -604,871 -609,868 -613,866 -618,863 -622,860 -627,857 -631,855 -635,852 "></polyline>
    <polyline vector-effect="non-scaling-stroke" fill="none" style="stroke: #FBBF24; stroke-width:4" points=" -640,848 -645,845 -649,842 -654,838 -659,835 -664,831 -669,828 -673,824 -678,820 -682,816 -686,812 -690,808 -693,804 -697,800 -700,795 -703,790 -706,785 -709,780 -711,775 -713,770 -716,764 -717,758 -719,752 -720,747 -721,741 -722,735 -723,729 -723,724 -723,718 -723,712 -722,706 -722,700 -721,694 -720,688 -718,681 -717,675 -715,669 -713,663 -711,656 -709,650 -706,644 -704,637 -701,631 -698,625 -695,619 -692,612 -688,606 -685,599 -681,592 -677,586 -674,580 -669,573 -665,567 -661,561 -656,555 -652,549 -647,543 -643,537 -638,531 -633,525 -627,518 -622,512 -617,506 -611,500 -606,494 -600,488 -594,482 -588,476 -582,471 -576,465 -570,459 -564,454 -557,448 -551,443 -544,437 -537,432 -530,427 -523,422 -516,417 -509,412 -502,407 -494,402 -487,398 -480,394 -472,389 -464,385 -457,381 -450,377 -442,373 -434,368 -426,364 -419,360 -411,356 -404,352 -396,347 -388,343 -381,338 -373,334 -366,329 -359,324 -351,320 -344,315 -337,309 -329,304 -322,299 -315,293 -308,287 -301,281 -295,276 -288,269 -282,263 -276,257 -269,250 -264,243 -258,236 -253,230 -247,222 -242,215 -237,208 -232,201 -228,194 -223,186 -219,178 -215,171 -211,163 -207,155 -203,147 -199,139 -196,131 -192,124 -189,116 -185,107 -182,99 -178,90 -175,82 -172,74 -169,65 -166,56 -164,48 -161,39 -159,30 -157,21 -156,12 -155,3 -154,-6 -154,-15 -154,-24 -154,-33 -155,-41 -156,-50 -158,-59 -160,-67 -162,-76 -165,-84 -168,-93 -171,-101 -175,-109 -179,-118 -182,-126 -187,-135 -190,-143 -194,-151 -198,-159 -201,-167 -205,-176 -209,-184 -212,-192 -216,-200 -220,-209 -223,-217 -227,-225 -230,-234 -234,-242 -237,-251 -240,-259 -243,-268 -247,-277 -250,-285 -252,-294 -255,-303 -258,-312 -260,-321 -262,-329 -264,-338 -266,-347 -268,-357 -270,-366 -271,-375 -273,-383 -274,-393 -276,-401 -277,-410 -278,-417 -279,-424 -280,-431 -281,-438 -282,-444 -282,-451 -283,-457 -284,-462 -284,-467 -285,-473 -286,-477 -286,-482 -287,-486 -287,-490 -288,-494 -288,-498 -288,-501 -289,-507 -289,-513 -289,-517 -288,-521 -287,-526 -286,-530 -284,-533 -281,-537 -279,-539 -276,-541 -273,-543 -269,-544 -265,-545 -261,-546 -257,-546 -252,-546 -248,-546 -244,-547 -240,-548 -237,-550 -234,-553 -231,-556 -229,-559 -228,-562 -228,-565 -228,-570 -228,-574 -229,-578 -230,-582 -232,-586 -234,-591 -237,-595 -239,-599 -242,-602 -245,-607 -248,-611 -252,-615 -255,-619 -257,-622 -261,-626 -263,-629 -266,-632 -268,-635 -271,-638 -274,-641 -276,-644 -279,-648 -281,-651 -284,-655 -287,-658 -289,-662 -292,-666 -295,-670 -297,-674 -300,-678 -302,-682 -305,-686 -308,-690 -311,-695 -314,-699 -317,-704 -320,-708 -322,-713 -325,-717 -328,-722 -330,-724 -331,-727 "></polyline>
</svg>