<svg xmlns="http://www.w3.org/2000/svg" xmlns:xlink="http://www.w3.org/1999/xlink" preserveAspectRatio="xMidYMid meet" height="100%" viewBox="-585 -358 701 1076"><polygon vector-effect="non-scaling-stroke" fill="none" points="-513.3,352.8 -513.3,353 -513.2,353.2 -513,354.1 -512.8,355 -512.6,355.9 -512.4,356.8 -512.1,358.1 -511.8,358.9 -511.4,360.1 -511.1,361.4 -510.7,362.8 -510.3,364.3 -510,365.8 -509.6,367.3 -509.2,368.8 -508.8,370.2 -508.5,371.1 -508.1,372.4 -507.9,373.3 -507.6,374.2 -507.3,375.4 -507,376.6 -506.8,377.4 -506.5,378.2 -506.2,379.4 -506,380.3 -505.8,381.2 -505.5,382.1 -505.2,383.4 -505,384.3 -504.7,385.2 -504.3,386.6 -504,388 -503.8,389 -503.5,390 -503.2,391.4 -502.9,392.4 -502.6,393.4 -502.2,394.8 -501.8,396.3 -501.4,397.7 -501.1,399 -500.7,400.4 -500.3,401.8 -500,403.1 -499.7,404.2 -499.4,405.3 -499,406.9 -498.6,408.5 -498.1,410.1 -497.7,411.6 -497.2,413.6 -496.8,415.1 -496.4,416.5 -496,418 -495.6,419.6 -495.1,421.2 -494.7,422.8 -494.2,424.5 -493.8,426.2 -493.2,428.4 -492.8,430.2 -492.2,432.2 -491.8,433.9 -491.3,435.5 -490.9,437.1 -490.4,438.7 -490,440.5 -489.5,442.2 -489,444.4 -488.4,446.4 -487.9,448.3 -487.4,449.8 -486.9,451.9 -486.4,453.7 -486,455.6 -485.4,457.9 -484.9,460.2 -484.3,462.4 -483.8,464.4 -483.3,466 -482.9,467.8 -482.4,469.6 -482,471.4 -481.5,473.3 -481,475.5 -480.5,477.2 -480,479.3 -479.5,481 -479,483.1 -478.4,485.2 -477.8,487.3 -477.2,489.5 -476.6,491.6 -476,493.7 -475.5,495.5 -475,497.7 -474.5,499.4 -474,501.5 -473.4,503.8 -472.8,506.1 -472.2,508.4 -471.5,511.3 -470.8,513.9 -470.2,516.3 -469.6,518.7 -469,521.1 -468.5,522.9 -468,525 -467.5,526.7 -467,528.7 -466.4,530.8 -465.9,532.8 -465.4,534.5 -464.9,536.6 -464.4,538.3 -464,539.9 -463.6,541.6 -463.1,543.7 -462.7,545.4 -462.2,547.6 -461.7,549.4 -461.1,551.6 -460.7,553.3 -460.2,555 -459.8,556.6 -459.4,558.2 -459,559.8 -458.4,561.7 -457.9,563.5 -457.5,565 -457,566.9 -456.6,568.4 -456.2,570 -455.8,571.7 -455.3,573.3 -454.9,574.9 -454.4,576.5 -454,578.2 -453.5,579.9 -453,582 -452.6,583.6 -452.2,585.2 -451.8,586.7 -451.4,588.2 -451,589.8 -450.6,591.4 -450.2,593 -449.8,594.7 -449.4,596.4 -449,598 -448.5,599.6 -448.1,601.2 -447.7,602.7 -447.2,604.4 -446.8,605.7 -446.4,607.1 -445.9,608.9 -445.4,610.3 -445.1,611.4 -444.7,613 -444.3,614.5 -443.9,616 -443.5,617.5 -443.1,619.1 -442.5,620.9 -442,622.7 -441.6,624 -441.1,625.7 -440.6,627.3 -440.4,628.3 -440,629.7 -439.5,631.4 -439.1,632.7 -438.7,634 -438.2,635.7 -437.7,637.2 -437.3,638.5 -436.9,639.8 -436.3,641.6 -435.7,643 -435.2,644.5 -434.6,645.9 -434.1,647.3 -433.3,649.2 -432.6,651 -431.9,652.5 -431.3,654.1 -430.4,656.2 -430,657.3 -429.5,658.5 -429,660 -428.2,661.7 -427.7,662.9 -427.1,664.2 -426.3,665.8 -425.6,667.1 -425.1,668.1 -424.4,669.4 -423.6,670.9 -423,672 -422.4,673.1 -421.8,674.2 -421.2,675.2 -420.6,676.2 -419.9,677.3 -419.1,678.4 -418.3,679.5 -417.5,680.7 -416.7,681.7 -416,682.6 -415.1,683.7 -414.2,684.8 -413.2,685.8 -412,687 -410.8,688.1 -409.6,689.2 -408.4,690.2 -406.4,691.7 -404.7,692.8 -402.8,694 -401.1,694.9 -399.2,696 -398.3,696.3 -397.4,696.6 -396.1,697 -394.8,697.4 -393.7,697.6 -392.6,697.8 -391.5,698 -390.3,698.2 -389.1,698.3 -387.9,698.4 -386,698.5 -384.1,698.6 -382.9,698.5 -381.7,698.5 -380,698.4 -379,698.3 -377.7,698 -376.2,697.6 -374.7,697.2 -373.1,696.5 -371.4,695.6 -370,694.9 -368.8,694.3 -367.6,693.6 -366.7,693.1 -365.9,692.6 -365.1,692.1 -364.2,691.4 -363.2,690.7 -362.4,690 -361.7,689.4 -360.9,688.7 -359.9,687.8 -358.9,686.8 -357.5,685.3 -356,683.8 -354.5,682.2 -353.3,680.9 -352,679.4 -351.2,678.6 -350.3,677.6 -349.5,676.8 -348.7,675.9 -348.1,675.3 -347.3,674.4 -346.6,673.8 -345.9,673 -345.1,672.2 -344.2,671.3 -343.4,670.5 -342.3,669.3 -341.1,668.1 -339.9,666.9 -338.7,665.7 -337.5,664.5 -336.5,663.5 -335.5,662.5 -334.3,661.4 -333.1,660.3 -331.9,659.3 -330.7,658.3 -329.6,657.4 -328.4,656.4 -327.3,655.5 -326.3,654.6 -325.4,653.9 -324.3,653.1 -323.4,652.5 -322.5,652 -321.6,651.5 -320.7,651 -319.7,650.5 -318.9,650.2 -317.7,649.7 -316.5,649.3 -315.3,648.8 -314.4,648.5 -313.5,648.2 -313,648.1 -312,647.9 -310.9,647.8 -309.5,647.7 -308,647.6 -306.4,647.5 -305.2,647.6 -304,647.7 -303,647.8 -302.1,647.9 -301.3,648 -300.6,648.1 -300,648.2 -299.1,648.4 -298.2,648.7 -297.3,649 -296.4,649.2 -295.2,649.6 -294.4,649.9 -293.6,650.2 -292.8,650.5 -291.8,651 -291.1,651.3 -290.2,651.8 -289.3,652.3 -288.2,652.9 -287.3,653.4 -286.3,653.9 -285.2,654.5 -283.9,655.2 -282.8,655.8 -281.7,656.4 -280.7,657.1 -279.7,657.7 -278.9,658.2 -278.1,658.7 -277.4,659.2 -276.7,659.7 -275.9,660.3 -275.1,660.9 -274.3,661.6 -273.1,662.4 -271.8,663.2 -270.5,663.9 -269.2,664.6 -267.9,665.3 -266.9,665.8 -265.7,666.5 -264.7,667.2 -263.7,667.8 -262.6,668.4 -261.1,669.2 -259.9,669.8 -258.7,670.4 -257.5,671 -255.8,671.8 -254.5,672.4 -253.2,673 -252.1,673.4 -250.7,674 -249.9,674.3 -248.5,674.9 -247.1,675.4 -245.6,676 -244.4,676.4 -243.2,676.8 -242,677.2 -240.7,677.6 -239.5,678 -237.9,678.5 -236.3,679 -235.2,679.3 -233.9,679.7 -232.6,680 -231.7,680.3 -230.2,680.7 -228.8,681 -227.6,681.3 -225.9,681.7 -223.9,682 -222.4,682.3 -220.8,682.6 -219.3,682.8 -218.3,682.9 -216.9,683.2 -215.6,683.4 -214,683.6 -212.3,683.8 -210.6,684 -209.5,684 -208.4,684 -207.1,684.1 -205.7,684.3 -204,684.5 -202.1,684.7 -200.1,684.9 -198.5,685 -196.7,685 -195.1,685 -193.3,684.8 -191.5,684.6 -189.8,684.4 -188.5,684.2 -186.9,684 -185.6,684 -184.2,684 -182.3,683.8 -180.4,683.6 -178.8,683.4 -176.7,683 -174.8,682.6 -173.4,682.4 -172,682.1 -170.1,681.7 -168.8,681.4 -167.1,681 -165.4,680.6 -163.7,680.2 -162.1,679.8 -160.2,679.3 -158.7,678.9 -157.3,678.4 -155.5,677.9 -154.2,677.4 -152.9,676.9 -151.2,676.3 -149.3,675.6 -147.5,674.8 -145.7,674.1 -144.2,673.5 -142.6,672.7 -140.9,671.9 -139.5,671.3 -137.8,670.5 -136,669.6 -134.6,669 -133.3,668.4 -131.7,667.6 -130,666.7 -128.5,665.9 -126.8,664.9 -125.2,664 -123.9,663.2 -122.5,662.4 -121.1,661.6 -119.5,660.6 -118,659.6 -116.1,658.4 -114.6,657.3 -113.1,656.2 -111.7,655.2 -110.2,654.1 -109,653.1 -107.8,652.1 -106.3,651 -105.1,650 -103.7,648.8 -102.3,647.6 -100.8,646.3 -99.6,645.1 -98.2,643.8 -97,642.6 -95.8,641.4 -94.7,640.3 -93.3,638.8 -92.2,637.4 -91,636.1 -89.8,634.8 -88.6,633.4 -87.4,632 -86.2,630.7 -85.2,629.4 -84.2,628.1 -83.2,626.9 -82.2,625.6 -81.1,624.2 -79.8,622.5 -78.6,620.9 -77.3,619 -76.2,617.4 -75.2,615.8 -74.2,614.2 -73.2,612.6 -72.2,611 -71.4,609.5 -70.6,608.1 -69.8,606.7 -69,605.2 -68.2,603.6 -67.4,602.1 -66.4,600.1 -65.6,598.4 -64.9,596.7 -64.3,595.3 -63.6,593.8 -63,592.4 -62.3,590.6 -61.5,588.8 -60.9,587.2 -60.1,585.1 -59.5,583.3 -58.9,581.5 -58.3,579.7 -57.7,577.9 -57.2,576.5 -56.6,574.7 -56.1,573.3 -55.6,571.5 -55,569.6 -54.5,567.5 -54,565.8 -53.5,564.2 -53,562.7 -52.4,560.8 -51.9,559.3 -51.4,557.8 -50.9,555.8 -50.4,554.1 -50,552.5 -49.5,550.8 -48.9,548.8 -48.4,547.2 -47.8,545.3 -47.3,543.7 -46.7,541.6 -46.3,539.8 -45.8,538.1 -45.4,536.4 -44.9,534.8 -44.5,533.3 -44,531.8 -43.5,529.9 -43,528.4 -42.5,526.4 -42,524.8 -41.4,522.8 -40.9,521.2 -40.3,519.1 -39.8,517.4 -39.3,515.7 -38.9,514.1 -38.3,512.1 -37.9,510.4 -37.4,508.7 -37,507.1 -36.5,505.5 -36.1,503.8 -35.6,502.2 -35.2,500.7 -34.6,498.6 -34.2,496.8 -33.7,495.1 -33.3,493.5 -32.6,490.9 -32,488.8 -31.4,486.8 -30.8,484.6 -30.2,482.3 -29.7,480.6 -29.3,479 -28.7,476.9 -28.3,475.3 -27.7,473.3 -27.3,471.6 -26.8,469.9 -26.4,468 -25.9,466.2 -25.5,464.4 -25,462.7 -24.6,460.9 -24.1,459.3 -23.7,457.6 -23.2,455.9 -22.8,454.2 -22.2,452 -21.8,450.2 -21.2,448.2 -20.8,446.6 -20.3,444.5 -19.9,442.9 -19.5,441.3 -19.1,439.5 -18.7,437.7 -18.2,436 -17.8,434.3 -17.2,432.2 -16.8,430.5 -16.3,428.4 -15.9,426.6 -15.5,424.9 -15.1,423.4 -14.6,421.4 -14.1,419.8 -13.6,417.8 -13.1,415.8 -12.6,413.5 -12.2,411.7 -11.8,410 -11.4,408.4 -11,406.8 -10.6,405.3 -10.2,403.8 -9.7,401.8 -9.3,400.1 -8.8,398 -8.4,396.4 -7.9,394.4 -7.5,392.8 -7,390.7 -6.6,388.9 -6.2,387 -5.8,385.4 -5.3,383.3 -4.9,381.7 -4.4,380.1 -3.9,378 -3.4,376 -3.1,374.6 -2.7,373 -2.2,370.9 -1.8,369.3 -1.3,367.2 -0.8,365 -0.3,363.1 0.1,361.5 0.7,359.4 1.1,357.8 1.6,356.2 2.1,354.3 2.6,352.2 3,350.6 3.4,349 3.9,346.9 4.3,345 4.7,343.6 5.1,341.9 5.7,339.7 6.1,338 6.6,336.3 7.1,334.2 7.7,331.9 8.1,330.2 8.6,328.5 9.1,326.6 9.7,324.3 10.1,322.6 10.6,320.8 11.1,318.8 11.7,316.5 12.1,315 12.6,313.4 13.1,311.5 13.6,309.8 14,308.3 14.6,306.2 15.1,304.1 15.6,302.3 16.1,300.2 16.7,297.9 17.1,296.1 17.6,294.3 18.1,292.3 18.6,290.6 19,289.1 19.6,287 20.1,285 20.6,283.2 21.1,281.1 21.7,278.8 22.1,277.1 22.6,275.3 23.2,273.2 23.8,271.1 24.3,269.5 24.9,267.4 25.5,265.3 26,263.2 26.6,261 27.1,258.8 27.6,257.1 28.1,255.1 28.7,253 29.1,251.3 29.7,249.2 30.2,247.1 30.8,244.9 31.2,243.1 31.8,240.9 32.2,239.1 32.8,236.9 33.2,235.1 33.8,232.8 34.3,230.9 34.8,229 35.3,227.2 35.9,224.9 36.5,222.7 37,220.5 37.7,217.9 38.2,215.6 38.8,213.4 39.2,211.6 39.8,209.4 40.3,207.6 40.9,205.4 41.4,203.6 42,201.4 42.5,199.6 43,197.3 43.5,195.4 44,193.2 44.6,191 45.1,188.8 45.7,186.6 46.3,184.5 46.9,182.3 47.4,180.4 48,178.2 48.5,176.5 49,174.3 49.5,172.5 50,170.5 50.5,168.6 51,166.4 51.6,164.2 52.1,162 52.7,159.7 53.3,157.6 53.9,155.3 54.4,153.5 54.9,151.7 55.4,150 55.9,147.9 56.4,146.3 56.9,144.3 57.5,142.3 58,140.1 58.5,138.3 59,136.1 59.6,133.8 60.1,131.5 60.7,129.3 61.3,127.1 61.9,125 62.4,123.3 63,121.1 63.5,119.3 64,117.2 64.6,115 65.1,112.8 65.7,110.7 66.2,108.6 66.8,106.5 67.2,104.8 67.8,102.7 68.2,101 68.8,99 69.2,97.3 69.8,95.2 70.4,93.1 71,91 71.6,88.8 72.2,86.6 72.8,84.4 73.3,82.6 73.9,80.4 74.3,78.6 74.8,76.8 75.3,75 75.7,73.2 76.1,71.8 76.7,69.8 77.3,67.8 77.7,66.2 78.3,64.1 78.8,62 79.3,60.1 79.7,58.2 80.3,55.9 80.7,54.1 81.3,52.1 81.8,50 82.4,47.9 82.9,45.8 83.5,43.8 83.9,42 84.4,40.2 84.9,38 85.4,36.3 85.8,34.5 86.3,32.3 86.7,30.6 87.1,29 87.5,27.3 88,25.2 88.5,23.5 88.9,21.9 89.3,20.2 89.7,18.5 90,17.3 90.4,15.9 90.9,14 91.3,12.5 91.7,11.1 92.2,9.1 92.6,7.4 92.9,6.1 93.3,4.5 93.7,2.8 94.1,1.2 94.4,-0.4 94.8,-2 95.2,-3.6 95.5,-5.2 95.7,-6.3 96.1,-7.9 96.4,-9.5 96.6,-10.7 96.9,-12.2 97.2,-14 97.3,-15.3 97.4,-16.6 97.6,-18.4 97.7,-20 97.8,-21.5 97.9,-23.1 98,-24.7 98,-25.8 98,-27.6 97.9,-29.2 97.8,-30.7 97.7,-32.3 97.5,-34 97.2,-35.3 97,-36.6 96.7,-38 96.2,-39.6 95.8,-41.1 95.3,-42.4 94.7,-43.8 94.1,-45.4 93.5,-46.8 92.5,-48.6 91.7,-50.1 90.9,-51.5 90.1,-52.6 88.7,-54.2 87.6,-55.4 86.4,-56.6 85.2,-57.7 83.6,-59.1 82.5,-59.9 81.4,-60.7 80.1,-61.6 78.8,-62.6 77.7,-63.3 76.8,-63.9 75.4,-64.7 74.2,-65.3 73,-65.9 71.7,-66.6 70.4,-67.2 69.1,-67.7 67.8,-68.2 66.5,-68.7 65.5,-69.1 64,-69.6 63,-69.9 62,-70.3 60.6,-70.7 59.2,-71.1 57.8,-71.5 56.2,-71.9 54.6,-72.3 53.4,-72.6 51.7,-72.9 50.3,-73.1 49,-73.4 46.8,-73.7 44.6,-74.1 42.8,-74.4 41.2,-74.7 39.1,-75 37.9,-75.3 36.6,-75.5 34.9,-75.8 32.9,-76.1 31.4,-76.4 29.9,-76.6 27.9,-76.9 26.4,-77.1 25.1,-77.4 23.9,-77.6 22.1,-77.9 20.6,-78.1 19.1,-78.4 17.6,-78.6 15.5,-78.9 14,-79.2 12.7,-79.5 10.8,-79.8 9,-80.1 7.7,-80.4 5.8,-80.7 4,-81 2.7,-81.3 0.8,-81.7 -1.1,-82 -2.4,-82.3 -4.4,-82.7 -6.5,-83 -8.1,-83.2 -10.1,-83.6 -12.4,-83.9 -14.2,-84.1 -16,-84.3 -17.7,-84.5 -19,-84.5 -20.7,-84.7 -22.4,-84.9 -24.1,-85.1 -26.1,-85.3 -28.3,-85.5 -30.1,-85.5 -31.9,-85.5 -33.7,-85.5 -35.5,-85.5 -37.3,-85.5 -39,-85.5 -40.7,-85.5 -42.5,-85.5 -44.3,-85.5 -46.4,-85.3 -48.4,-85.1 -50.3,-84.9 -52.7,-84.6 -54.8,-84.2 -56.4,-84 -57.9,-83.8 -59.9,-83.4 -61.5,-83 -63.1,-82.7 -64.7,-82.3 -66.8,-81.8 -68.7,-81.3 -70.2,-80.9 -72.1,-80.3 -74,-79.8 -75.4,-79.3 -77,-78.7 -78.6,-78.1 -80.2,-77.5 -82,-76.7 -83.8,-75.9 -85.4,-75.3 -87.2,-74.5 -88.7,-73.8 -90.3,-73 -92,-72.2 -93.6,-71.2 -95.1,-70.3 -96.8,-69.2 -98.2,-68.3 -99.5,-67.4 -100.9,-66.7 -102.6,-65.7 -104.1,-64.9 -105.8,-63.8 -107.6,-62.5 -109.1,-61.2 -110.6,-60 -112.1,-58.7 -113.3,-57.7 -114.8,-56.5 -116.3,-55.3 -117.5,-54.2 -118.7,-53.1 -120,-52 -121.2,-50.9 -122.4,-49.7 -123.9,-48.1 -125.3,-46.7 -126.6,-45.2 -127.6,-44.1 -129,-42.7 -130,-41.8 -131.2,-40.4 -132.4,-39.1 -134,-37.3 -135.1,-35.9 -136.2,-34.5 -137.4,-33.1 -138.6,-31.6 -139.6,-30.3 -140.6,-28.9 -141.8,-27.2 -142.8,-25.8 -144,-24.2 -145,-22.9 -146,-21.6 -147.1,-20.3 -148.1,-19.1 -149.1,-17.8 -150.1,-16.5 -151.3,-14.9 -152.5,-13.2 -153.7,-11.5 -154.7,-10.2 -155.8,-8.7 -157,-7.2 -157.9,-6.1 -159,-4.6 -160.1,-3.1 -161.2,-1.5 -162,-0.3 -163,1.2 -164,2.6 -165,4.1 -166.2,5.5 -167.5,7.2 -168.7,8.9 -169.7,10.3 -170.9,11.8 -171.9,13.4 -172.9,14.9 -173.8,16.2 -174.9,17.7 -176,19.3 -177.2,20.9 -178.4,22.5 -179.6,24.1 -180.8,25.7 -181.9,27.3 -182.8,28.6 -183.9,30.2 -185,31.7 -185.9,33.1 -187,34.6 -188.1,36.2 -189.2,37.5 -190.4,39.2 -191.6,40.9 -192.7,42.4 -193.9,44.1 -194.8,45.6 -195.8,47 -197.2,48.9 -198.3,50.6 -199.4,52.1 -200.7,53.8 -201.9,55.5 -202.7,56.6 -203.8,58.1 -204.8,59.6 -205.9,61.3 -206.9,62.8 -208.1,64.6 -209.1,66.1 -210.4,67.7 -211.5,69.2 -212.8,71 -213.9,72.5 -215,74 -216.1,75.8 -217.2,77.5 -218,78.8 -219.1,80.3 -220.5,82.3 -221.6,83.8 -222.6,85.2 -223.9,86.9 -225.2,88.8 -226.1,90.1 -227.3,92 -228.6,93.8 -229.7,95.4 -230.7,96.9 -232,98.7 -233,100 -234.2,101.9 -235.5,103.7 -236.6,105.3 -237.7,106.9 -239.1,108.8 -240.2,110.2 -241.4,112.1 -242.7,113.9 -243.8,115.5 -244.8,117 -246,118.8 -247,120.1 -248.3,122 -249.6,123.9 -250.7,125.5 -251.8,127 -253.1,128.9 -254,130.2 -255.2,131.7 -256.6,133.6 -257.9,135.4 -259,136.9 -260.3,138.8 -261.4,140.5 -262.5,142 -263.7,143.7 -265,145.6 -266.1,147.1 -267.3,148.9 -268.4,150.6 -269.5,152.1 -270.7,153.7 -272,155.5 -273.1,157 -274.3,158.7 -275.6,160.5 -276.8,162.2 -277.9,163.7 -279,165.2 -280.3,167 -281.3,168.5 -282.2,169.8 -283.4,171.5 -284.7,173.2 -285.8,174.6 -287,176.3 -288.2,177.9 -289.1,179.2 -290.1,180.6 -291.2,182.3 -292.2,183.7 -293.2,185.2 -294.2,186.6 -295.3,188.3 -296.2,189.5 -297.3,191.1 -298.4,192.6 -299.6,194.4 -300.5,195.7 -301.3,197 -302.2,198.2 -303.1,199.4 -304.2,200.8 -305.5,202.5 -306.7,204.1 -307.6,205.4 -308.5,206.7 -309.5,208.1 -310.3,209.2 -311.3,210.5 -312.3,211.8 -313.5,213.3 -314.5,214.6 -315.5,215.9 -316.6,217.3 -317.7,218.8 -318.7,220.2 -319.5,221.2 -320.6,222.5 -321.5,223.6 -322.7,225 -323.8,226.3 -324.9,227.6 -325.8,228.8 -326.7,229.9 -327.7,231 -328.7,232.1 -329.7,233.2 -330.7,234.2 -331.8,235.3 -332.6,236 -333.7,236.9 -334.9,237.9 -336,238.8 -337.3,239.8 -338.6,240.9 -339.6,241.8 -340.6,242.6 -341.8,243.5 -342.9,244.3 -343.9,244.9 -345.3,245.7 -346.6,246.5 -347.7,247.1 -349.1,247.8 -350.5,248.5 -351.5,249 -352.9,249.6 -354.3,250.2 -355.2,250.5 -356.6,251 -358,251.4 -359.1,251.7 -360.2,252 -362,252.4 -363.3,252.7 -364.7,253 -366,253.2 -367.6,253.4 -368.6,253.6 -369.9,253.7 -371.2,253.8 -373.1,254 -374.8,254.2 -376.6,254.3 -378.1,254.4 -379.7,254.5 -380.9,254.5 -382.4,254.5 -383.7,254.5 -385.4,254.5 -387.2,254.5 -388.9,254.5 -390.5,254.5 -392.3,254.5 -393.7,254.4 -394.9,254.3 -396.6,254.1 -398.2,253.9 -399.8,253.7 -401.7,253.5 -403.5,253.3 -404.8,253.2 -406.6,253 -408.4,252.7 -410.5,252.4 -412.6,252 -414.7,251.6 -416.7,251.1 -418.5,250.7 -419.8,250.4 -421.5,250 -423.1,249.6 -424.5,249.2 -426,248.8 -427.7,248.2 -429.1,247.8 -430.8,247.2 -432.4,246.7 -434,246.1 -435.3,245.7 -437,245 -438.5,244.4 -439.9,243.8 -441.3,243.2 -443.1,242.3 -444.5,241.6 -445.8,241 -447.3,240.2 -448.7,239.4 -450.3,238.5 -451.8,237.6 -453.4,236.6 -454.6,235.9 -456.3,234.9 -457.4,234.2 -458.6,233.4 -459.8,232.5 -461.1,231.4 -462,230.5 -463.4,229.3 -464.7,228.2 -465.9,227.2 -467.1,226.2 -468.3,225.2 -469.2,224.2 -470.2,223.1 -471.2,222 -472.1,220.9 -473.2,219.5 -474.4,218.1 -475.4,216.8 -476.4,215.5 -477.4,214.3 -478.4,212.9 -479,211.8 -479.8,210.5 -480.6,209.2 -481.3,207.9 -481.8,206.9 -482.5,205.7 -483.1,204.4 -483.7,203.1 -484.4,201.5 -485,200.1 -485.5,198.6 -486,197.3 -486.5,195.7 -486.9,194.4 -487.4,192.8 -487.8,191.5 -488.1,190.2 -488.5,188.8 -488.9,187.3 -489.1,186.2 -489.4,184.6 -489.8,183.1 -490,181.9 -490.2,180.6 -490.6,178.8 -490.9,177.5 -491.1,176 -491.3,174.6 -491.7,172.8 -491.9,171.5 -492.1,170 -492.4,168.7 -492.8,166.8 -493,165.5 -493.4,163.7 -493.8,162 -494.1,160.3 -494.3,159 -494.7,157.2 -494.9,155.8 -495.1,154.5 -495.5,152.6 -495.9,150.9 -496.1,149.6 -496.5,147.9 -496.9,146.2 -497.1,145 -497.3,143.6 -497.7,141.8 -497.9,140.5 -498.1,139.1 -498.4,137.6 -498.8,135.8 -499,134.5 -499.3,132.7 -499.7,130.9 -500,129.3 -500.2,128.1 -500.5,126.4 -500.8,125.2 -501,124 -501.2,122.6 -501.5,120.7 -501.8,119.3 -502,117.8 -502.2,116.3 -502.5,114.6 -502.8,113.4 -503,112.2 -503.2,110.9 -503.4,109.5 -503.6,108.1 -503.8,106.7 -504,105.3 -504.2,103.8 -504.4,102.4 -504.5,101.3 -504.7,99.8 -504.9,98.3 -505.1,97.1 -505.3,95.7 -505.5,94.3 -505.5,93.3 -505.6,92 -505.7,90.6 -505.8,89.4 -505.9,88 -506,86.6 -506,85.4 -506,84 -506,82.6 -506,81.4 -506,80.2 -506,78.8 -506,77.6 -506,76.5 -506,75.5 -506,74.6 -505.8,73.5 -505.6,72.5 -505.4,71.5 -505.2,70.5 -504.8,69.1 -504.6,68.2 -504.4,67.3 -504,66.1 -503.6,64.9 -503.4,64.1 -503,63.1 -502.6,62.1 -502.3,61.4 -502,60.7 -501.3,59.6 -500.7,58.7 -500.1,57.8 -499.3,56.7 -498.4,55.6 -497.4,54.6 -496.4,53.6 -495.3,52.7 -494.4,52 -493.3,51.3 -492.6,50.9 -491.9,50.6 -491.3,50.2 -490.7,49.9 -490,49.5 -489.3,49.2 -488.6,48.9 -487.8,48.7 -486.6,48.3 -485.7,48.1 -484.8,47.9 -483.9,47.7 -483,47.4 -482.4,47.3 -481.7,47.2 -480.9,47.1 -479.9,47 -478.9,47 -478,47 -477.2,47 -476.5,47 -475.4,47.2 -474.3,47.4 -473.2,47.6 -472.1,47.8 -471,48 -470.1,48.2 -469.2,48.4 -468.3,48.6 -467.4,48.9 -466.5,49.2 -466,49.3 -465.5,49.5 -464.6,49.9 -463.6,50.4 -462.1,51.2 -460.6,52 -459.1,52.8 -458,53.4 -457,53.9 -456.6,54.2 -456.2,54.5 -455.8,54.8 -454.7,55.7 -453.6,56.6 -452.2,57.5 -450.8,58.5 -449.3,59.6 -448.1,60.5 -446.9,61.3 -445.8,62.2 -444.5,63.2 -443,64.2 -442,64.9 -441,65.7 -440.1,66.3 -439.3,66.9 -438.5,67.5 -437.4,68.2 -436.4,68.9 -435.4,69.6 -434.3,70.3 -433.5,70.8 -432.9,71.2 -432.2,71.5 -431.5,71.8 -430.2,72.5 -428.9,73.2 -427.6,73.8 -426.1,74.6 -424.6,75.4 -423.9,75.6 -423,75.9 -421.8,76.4 -420.8,76.7 -419.8,77 -418.3,77.4 -417,77.7 -416,77.9 -415,78.1 -413.4,78.4 -412.2,78.6 -410.5,78.7 -408.8,78.7 -407.1,78.7 -406,78.6 -405,78.4 -404.4,78.3 -403.3,78.1 -402.2,77.9 -401.1,77.7 -400,77.6 -398.6,77.3 -397.5,77 -396.4,76.7 -395.1,76.2 -393.8,75.7 -392.9,75.4 -392.2,75.1 -391.2,74.7 -390.1,74.3 -388.9,73.7 -387.4,72.9 -385.9,72.1 -384.7,71.3 -383.5,70.5 -382.5,69.8 -381.7,69.1 -380.9,68.5 -379.9,67.7 -379.3,67 -378.5,66.3 -377.7,65.6 -376.8,64.7 -376.2,64 -375.1,62.8 -374.1,61.6 -373.3,60.5 -372.3,59.1 -371.3,57.7 -370.6,56.6 -370,55.5 -369.3,54.2 -368.8,53 -368.3,51.8 -367.9,50.8 -367.4,49.5 -367,48.4 -366.7,47.6 -366.3,46.4 -366,45.2 -365.8,44.3 -365.6,43.4 -365.3,42 -365.1,41 -364.9,39.8 -364.7,38.5 -364.5,37.1 -364.5,36.1 -364.5,35 -364.5,34 -364.5,33 -364.6,31.5 -364.7,30.1 -364.9,28.8 -365.1,27.6 -365.3,26.4 -365.5,25.3 -365.8,24.2 -366,23.1 -366.3,21.7 -366.8,20.2 -367.2,19.2 -367.6,18.2 -368.2,16.8 -368.7,15.7 -369.1,14.8 -369.7,13.6 -370.3,12.4 -370.7,11.6 -371.2,10.8 -372,9.7 -372.6,8.9 -373.2,8.1 -373.8,7.3 -374.6,6.2 -375.2,5.3 -375.8,4.4 -376.5,3.4 -377.3,2.5 -377.8,1.9 -378.5,1.1 -379.3,0.3 -380,-0.4 -380.9,-1.5 -381.8,-2.6 -382.5,-3.4 -383.3,-4.3 -384,-5.2 -384.9,-6.1 -385.9,-7 -386.8,-7.9 -387.6,-8.6 -388.4,-9.3 -388.8,-9.7 -389.6,-10.5 -390.4,-11.3 -391.3,-12.3 -392.3,-13.2 -393.3,-14.2 -394,-14.9 -394.8,-15.7 -395.6,-16.5 -396.5,-17.5 -397.5,-18.5 -398.5,-19.5 -399.4,-20.3 -400.6,-21.3 -401.7,-22.2 -402.6,-23 -403.4,-23.7 -404.3,-24.6 -404.9,-25.3 -405.6,-26.1 -406.5,-26.9 -407.5,-28 -408.5,-29.1 -409.5,-30.2 -410.5,-31.3 -411.5,-32.5 -412.5,-33.5 -413.5,-34.5 -414.5,-35.5 -415.5,-36.5 -416.5,-37.5 -417.5,-38.5 -418.5,-39.5 -419.5,-40.5 -420.6,-41.5 -421.7,-42.5 -422.8,-43.5 -423.9,-44.5 -425,-45.5 -426,-46.5 -426.9,-47.5 -427.7,-48.4 -428.7,-49.7 -429.7,-51 -430.7,-52.3 -431.8,-53.6 -432.9,-54.9 -433.9,-56.1 -434.9,-57.3 -435.7,-58.4 -436.5,-59.5 -437.3,-60.6 -437.9,-61.4 -438.7,-62.6 -439.6,-63.8 -440.4,-64.9 -441.4,-66.4 -442.4,-67.8 -443,-68.7 -443.7,-69.8 -444.7,-71.4 -445.5,-72.6 -446.2,-73.8 -447,-75 -447.8,-76.4 -448.2,-77.3 -448.7,-78.4 -449.3,-79.8 -449.9,-81.2 -450.5,-82.5 -451.1,-83.8 -451.8,-85.3 -452.4,-86.6 -453,-87.9 -453.4,-88.9 -454,-90.3 -454.3,-91.3 -454.7,-92.6 -455.1,-93.9 -455.6,-95.5 -456,-96.8 -456.5,-98.4 -456.9,-99.7 -457.3,-101 -457.7,-102.4 -458,-103.8 -458.4,-105.2 -458.8,-106.6 -459.1,-108 -459.5,-109.6 -459.9,-111.1 -460.2,-112.3 -460.6,-113.8 -461,-115.3 -461.4,-116.7 -461.8,-118.1 -462.1,-119.5 -462.5,-121 -462.9,-122.5 -463.1,-123.5 -463.5,-125 -463.9,-126.5 -464.1,-127.5 -464.5,-129 -464.9,-130.5 -465.1,-131.5 -465.4,-132.7 -465.8,-134.3 -466,-135.4 -466.2,-136.5 -466.5,-137.6 -466.7,-138.8 -466.8,-139.7 -466.9,-140.7 -467.2,-142.1 -467.4,-143.5 -467.6,-144.6 -467.8,-145.6 -468,-146.6 -468,-147.3 -468.1,-148.1 -468.2,-149 -468.3,-149.9 -468.4,-150.9 -468.5,-151.9 -468.5,-152.9 -468.5,-154.1 -468.5,-155.4 -468.5,-156.6 -468.5,-157.8 -468.5,-159 -468.5,-160 -468.5,-160.9 -468.5,-161.7 -468.5,-162.4 -468.5,-163 -468.4,-163.9 -468.2,-164.8 -468,-165.7 -467.7,-166.7 -467.3,-167.9 -467,-168.7 -466.6,-169.7 -466.2,-170.7 -465.9,-171.6 -465.3,-172.7 -464.7,-173.8 -464.1,-174.8 -463.1,-176.1 -461.8,-177.6 -460.8,-178.6 -459.4,-179.8 -458.1,-181 -457.1,-181.8 -456.3,-182.3 -455.5,-182.9 -455,-183.2 -454.5,-183.4 -454,-183.6 -453.1,-184 -452.2,-184.3 -451.3,-184.6 -450.4,-184.8 -449.4,-185.1 -448.7,-185.2 -447.9,-185.3 -447,-185.4 -446.2,-185.4 -445.4,-185.3 -444.6,-185.2 -443.9,-185.1 -443.3,-185 -442.6,-185 -442,-184.9 -441,-184.6 -440,-184.3 -439,-183.9 -438,-183.5 -436.4,-182.8 -435.3,-182.3 -434.1,-181.6 -432.9,-181 -431.6,-180.2 -430.7,-179.5 -429.8,-178.8 -429,-178.2 -428,-177.3 -427,-176.4 -425.9,-175.4 -424.7,-174.2 -423.4,-172.9 -422.3,-171.7 -421.3,-170.7 -420.4,-169.8 -419.6,-169 -419,-168.3 -418.1,-167.4 -417.2,-166.4 -416.4,-165.5 -415.4,-164.3 -414.2,-163 -413.3,-161.9 -412.3,-160.7 -411.3,-159.5 -410.5,-158.6 -409.9,-157.8 -409.1,-156.8 -408.3,-155.8 -407.5,-154.8 -406.6,-153.7 -405.5,-152.5 -404.7,-151.6 -403.9,-150.7 -403.1,-149.8 -402.4,-149 -401.6,-148 -400.6,-146.9 -399.8,-145.9 -399,-144.9 -398.1,-143.8 -397.3,-142.9 -396.6,-142.1 -395.6,-141 -394.8,-140 -394,-139 -393.2,-138 -392.3,-136.9 -391.5,-136 -390.5,-135 -389.5,-134 -388.7,-133.1 -388,-132.3 -387.2,-131.3 -386.4,-130.3 -385.6,-129.3 -384.6,-128.2 -383.5,-127 -382.5,-126 -381.6,-125 -380.8,-124.1 -380.1,-123.3 -379.3,-122.3 -378.5,-121.3 -377.6,-120.3 -376.6,-119.2 -375.5,-118.1 -374.5,-117.2 -373.5,-116.3 -372.5,-115.4 -371.5,-114.5 -370.6,-113.6 -369.8,-112.8 -368.9,-111.8 -368,-110.8 -367.1,-109.8 -366.1,-108.7 -365,-107.5 -363.7,-106.3 -362.5,-105.2 -361.4,-104.2 -360.3,-103.2 -359.3,-102.4 -358.6,-101.8 -357.8,-101.1 -356.6,-100.1 -355.5,-99.2 -354.4,-98.2 -353.4,-97.4 -352.4,-96.6 -351.3,-95.8 -350.2,-95 -349.1,-94.3 -347.5,-93.2 -346,-92.2 -345,-91.6 -343.9,-91 -342.5,-90.1 -341.3,-89.5 -339.9,-88.8 -338.5,-88.1 -336.7,-87.1 -335.2,-86.4 -333.6,-85.6 -332.2,-85 -330.8,-84.3 -329.6,-83.9 -328.1,-83.3 -327,-82.9 -325.5,-82.4 -324,-81.9 -322.8,-81.5 -321.4,-81.1 -320,-80.7 -319,-80.4 -317.4,-80.1 -315.8,-79.7 -314.7,-79.5 -313,-79.2 -311.2,-78.9 -309.9,-78.7 -308.6,-78.6 -307.3,-78.4 -306,-78.2 -304.6,-78 -303.1,-77.8 -301.4,-77.6 -299.6,-77.5 -298.1,-77.5 -296.8,-77.5 -295.3,-77.5 -294,-77.5 -292.4,-77.6 -291.1,-77.7 -289.6,-77.8 -288.2,-77.9 -286.7,-78 -284.9,-78.1 -283.1,-78.2 -281.5,-78.4 -280.1,-78.6 -278.8,-78.8 -277.4,-79 -276,-79.3 -274.6,-79.5 -272.8,-79.8 -271,-80.2 -269.9,-80.5 -268.8,-80.7 -267.2,-81.1 -266,-81.4 -264.5,-81.8 -262.6,-82.4 -260.7,-83.1 -259.3,-83.6 -257.9,-84.2 -256.5,-84.7 -255.6,-85.1 -254.3,-85.5 -252.7,-86.2 -251.2,-86.9 -249.9,-87.5 -248.1,-88.4 -246.7,-89.3 -245.6,-89.9 -244.4,-90.5 -242.9,-91.4 -241.9,-92 -240.5,-92.7 -239,-93.6 -237.6,-94.5 -236.6,-95.2 -235.2,-96.2 -234,-97.2 -232.9,-98 -231.8,-98.8 -230.4,-99.8 -229.3,-100.6 -228.3,-101.4 -227,-102.5 -225.7,-103.6 -224.7,-104.5 -223.5,-105.5 -222.3,-106.5 -221.1,-107.7 -219.9,-108.9 -218.7,-110.1 -217.7,-111.2 -216.7,-112.3 -215.7,-113.6 -214.7,-114.9 -213.7,-116.2 -212.6,-117.7 -211.6,-119.1 -210.9,-119.9 -209.9,-121.2 -208.9,-122.5 -208.1,-123.5 -207.1,-124.8 -206,-126.3 -205.2,-127.4 -204.4,-128.5 -203.3,-130.1 -202.4,-131.4 -201.7,-132.6 -200.8,-134 -199.9,-135.4 -199.3,-136.3 -198.4,-137.8 -197.4,-139.2 -196.6,-140.3 -195.8,-141.4 -194.9,-142.9 -194.3,-143.8 -193.5,-145 -192.6,-146.5 -191.7,-148 -190.9,-149.1 -190,-150.3 -189.2,-151.7 -188.5,-152.8 -187.8,-153.9 -186.9,-155.4 -186.1,-156.8 -185.2,-158.1 -184.4,-159.5 -183.6,-160.9 -182.9,-162 -181.9,-163.7 -181.1,-165 -180.2,-166.3 -179.2,-167.9 -178.3,-169.4 -177.7,-170.3 -176.9,-171.6 -176,-173 -175.3,-174.1 -174.4,-175.6 -173.5,-177.1 -172.7,-178.5 -172,-179.7 -171.1,-181.2 -170.3,-182.5 -169.4,-184 -168.6,-185.2 -167.8,-186.7 -167.1,-187.9 -166.4,-189 -165.6,-190.4 -164.9,-191.8 -164.2,-192.9 -163.3,-194.4 -162.5,-195.8 -161.7,-197 -160.8,-198.5 -159.9,-200 -159.2,-201.1 -158.3,-202.6 -157.7,-203.8 -156.9,-205 -156,-206.5 -155.1,-208 -154.4,-209.1 -153.5,-210.5 -152.8,-211.7 -152,-212.9 -151.2,-214.1 -150.4,-215.6 -149.7,-216.8 -148.8,-218.2 -148,-219.6 -147.3,-221 -146.5,-222.3 -145.7,-223.6 -145.1,-224.7 -144.6,-225.6 -143.8,-226.9 -143.1,-228 -142.2,-229.5 -141.4,-230.9 -140.6,-232.2 -139.8,-233.4 -139.1,-234.6 -138.6,-235.5 -137.8,-236.8 -137,-238.1 -136.5,-239.1 -135.7,-240.4 -135,-241.6 -134.5,-242.4 -133.8,-243.5 -133.1,-244.6 -132.6,-245.4 -131.8,-246.5 -131.1,-247.6 -130.6,-248.4 -130.1,-249.2 -129.4,-250.3 -129,-251.1 -128.5,-251.9 -127.9,-253.1 -127.2,-254.3 -126.8,-255.2 -126.1,-256.4 -125.5,-257.6 -124.8,-258.7 -124.2,-259.8 -123.5,-261.1 -123,-262.1 -122.5,-263.1 -122,-264.1 -121.3,-265.4 -120.7,-266.5 -120.1,-267.8 -119.5,-269.1 -119.1,-270.1 -118.9,-270.8 -118.5,-271.9 -118.2,-272.8 -117.8,-274 -117.5,-275.2 -117.1,-277 -116.9,-278.5 -116.7,-280.1 -116.6,-281.5 -116.7,-283.4 -116.9,-284.7 -117.3,-286.3 -117.7,-287.8 -118.4,-289.6 -119.1,-291.2 -119.8,-292.8 -120.9,-294.6 -122.5,-296.7 -123.8,-298.4 -125,-299.7 -126.3,-301 -127.3,-301.9 -127.9,-302.4 -129,-303.2 -130.1,-304.1 -131.2,-304.9 -132,-305.5 -133.1,-306.3 -133.8,-306.8 -134.7,-307.3 -135.6,-307.9 -136.8,-308.5 -138.1,-309.2 -139.4,-309.8 -140.7,-310.5 -142,-311.1 -143.3,-311.8 -144.2,-312.2 -145.4,-312.8 -146.4,-313.2 -147.4,-313.7 -148.4,-314.1 -149.4,-314.5 -150.5,-314.9 -151.6,-315.3 -152.9,-315.8 -154,-316.2 -155.5,-316.8 -156.6,-317.2 -157.7,-317.6 -158.9,-318 -160.1,-318.4 -161.1,-318.8 -162.1,-319.2 -163.4,-319.8 -164.4,-320.2 -165.8,-320.7 -167,-321.1 -168.2,-321.5 -169.3,-321.9 -170.4,-322.3 -171.4,-322.7 -172.5,-323.1 -173.9,-323.6 -175.1,-324 -176.3,-324.4 -177.4,-324.9 -178.8,-325.4 -179.9,-325.8 -181,-326.2 -182.4,-326.7 -183.7,-327.1 -184.9,-327.5 -186.1,-328 -187.3,-328.4 -188.6,-328.8 -189.8,-329.2 -191,-329.6 -192.3,-330 -193.9,-330.5 -195.1,-331 -196.3,-331.4 -197.6,-331.9 -198.8,-332.3 -200,-332.7 -201.3,-333.1 -202.9,-333.6 -204.1,-334 -205.7,-334.5 -207,-334.9 -208.2,-335.3 -209.5,-335.7 -210.8,-336.1 -212.2,-336.5 -213.7,-337 -215.2,-337.4 -216.3,-337.7 -217.9,-338.1 -219,-338.4 -220.6,-338.7 -222.2,-339.1 -223.8,-339.5 -225,-339.7 -226.7,-340 -228.1,-340.3 -229.6,-340.5 -231.1,-340.7 -232.6,-340.9 -234.1,-341.1 -235.5,-341.2 -236.9,-341.3 -238.3,-341.4 -239.9,-341.6 -241.2,-341.7 -242.6,-341.8 -244,-341.8 -245.4,-341.8 -246.8,-341.7 -248.2,-341.6 -249.9,-341.4 -251.5,-341.3 -253.2,-341.2 -254.6,-341.1 -256,-340.9 -257.1,-340.8 -258.7,-340.6 -260.3,-340.4 -261.9,-340.2 -263.3,-340 -264.7,-339.8 -266.1,-339.6 -267.5,-339.4 -268.9,-339.1 -270.4,-338.9 -272.2,-338.6 -273.5,-338.4 -274.8,-338.1 -276.1,-337.9 -277.9,-337.6 -279.1,-337.4 -280.4,-337.1 -281.6,-336.9 -283.5,-336.6 -284.9,-336.3 -286.3,-336 -288.1,-335.7 -290,-335.3 -291.2,-335 -292.4,-334.8 -294.2,-334.4 -295.6,-334.1 -296.9,-333.9 -298.8,-333.5 -300.6,-333.1 -301.9,-332.8 -303.5,-332.4 -305.2,-332 -306.3,-331.7 -307.5,-331.4 -309.2,-331.1 -310.6,-330.8 -311.9,-330.5 -313.3,-330.2 -315.2,-329.8 -316.6,-329.5 -317.9,-329.2 -319.7,-328.8 -321.5,-328.4 -323.1,-328 -324.7,-327.5 -326.3,-327.1 -327.5,-326.7 -329.2,-326.3 -330.6,-325.9 -331.9,-325.6 -333.9,-325 -335.8,-324.5 -337.5,-323.9 -339.2,-323.3 -340.9,-322.7 -342.6,-322.1 -344.3,-321.5 -345.9,-320.9 -347.4,-320.4 -349,-319.8 -350.6,-319.2 -352.2,-318.6 -353.8,-318 -355.4,-317.4 -357,-316.8 -358.6,-316.2 -360.2,-315.6 -361.8,-315 -363.7,-314.2 -365.7,-313.4 -367.3,-312.7 -368.9,-311.9 -370.5,-311.2 -371.9,-310.6 -373.1,-310 -374.7,-309.4 -376.3,-308.8 -377.9,-308.1 -379.7,-307.4 -381.7,-306.6 -383.3,-305.8 -385.2,-304.9 -386.8,-304.2 -388.4,-303.4 -390,-302.6 -391.6,-301.8 -393,-301.2 -394.6,-300.4 -396.2,-299.6 -397.8,-298.8 -399.4,-298 -401,-297.2 -402.6,-296.4 -404.2,-295.6 -405.8,-294.8 -407.4,-294 -409.2,-293 -410.8,-292.1 -412.4,-291.2 -414,-290.4 -415.6,-289.6 -417.2,-288.8 -419.2,-287.7 -421,-286.7 -422.6,-285.7 -424.2,-284.7 -425.8,-283.7 -427,-283 -428.4,-282.2 -430,-281.3 -431.6,-280.4 -433.3,-279.3 -435.1,-278.2 -436.6,-277.2 -438.2,-276.2 -440.1,-274.9 -441.6,-273.8 -443.1,-272.7 -444.6,-271.6 -446.5,-270.2 -447.9,-269.1 -449.4,-268.1 -450.8,-267.1 -452.7,-265.7 -454.2,-264.4 -455.6,-263.2 -457,-262 -458.4,-260.7 -459.9,-259.4 -461.1,-258.4 -462.7,-257.1 -464.2,-255.7 -465.9,-254.2 -467.2,-252.9 -468.9,-251.1 -470.2,-249.6 -471.6,-248.1 -473,-246.6 -474.3,-245.1 -475.5,-243.7 -476.8,-242.2 -478.2,-240.5 -479.4,-238.9 -480.5,-237.5 -481.6,-236 -482.6,-234.6 -483.8,-232.9 -485,-231.2 -486.2,-229.5 -487.3,-228 -488.7,-225.9 -489.7,-224.4 -490.9,-222.4 -492,-220.3 -492.9,-218.5 -493.5,-217.2 -494.4,-215.2 -495.1,-213.7 -496,-212 -496.9,-210.1 -498,-207.6 -498.8,-205.7 -499.6,-203.8 -500.3,-201.9 -501.2,-199.5 -501.9,-197.8 -502.5,-196.1 -503.1,-194.4 -503.9,-192.3 -504.4,-190.8 -505,-188.7 -505.6,-186.6 -506.2,-184.5 -506.8,-182.4 -507.4,-180.3 -507.9,-178.8 -508.5,-176.9 -509.1,-175 -509.5,-173.3 -510,-171.6 -510.6,-169.3 -511.1,-167.4 -511.7,-165.1 -512.2,-163.2 -512.8,-160.8 -513.2,-158.9 -513.7,-157 -514.1,-155.1 -514.6,-153.2 -515,-151.3 -515.5,-149.2 -515.9,-147.1 -516.4,-145.1 -516.8,-143.1 -517.3,-141.2 -517.7,-139.5 -518.3,-137.3 -518.7,-135.4 -519.3,-133.1 -519.7,-131.2 -520.3,-128.7 -520.7,-126.7 -521.2,-124.7 -521.5,-123.1 -522,-120.8 -522.4,-119.1 -522.8,-117.4 -523.3,-115.2 -523.8,-113 -524.3,-110.8 -524.8,-108.6 -525.4,-105.8 -525.9,-103.5 -526.4,-101.2 -526.9,-99.4 -527.4,-97.1 -527.9,-95.4 -528.4,-93.1 -529,-90.8 -529.4,-88.7 -529.7,-87.1 -530.2,-84.7 -530.6,-82.9 -531,-81.1 -531.5,-78.8 -532.1,-76.5 -532.4,-75 -532.9,-73.2 -533.4,-70.8 -533.8,-68.9 -534.2,-67 -534.7,-64.6 -535.1,-62.5 -535.4,-61 -535.9,-59.2 -536.4,-56.9 -536.8,-55.1 -537.2,-53.3 -537.7,-51.2 -538.2,-48.8 -538.6,-46.9 -539.2,-44.5 -539.7,-42.1 -540.3,-39.5 -540.7,-37.5 -541.3,-35.1 -541.8,-32.6 -542.3,-30.1 -542.7,-28.1 -543.1,-26.1 -543.6,-23.7 -544,-21.9 -544.5,-20.1 -545,-18 -545.6,-15.9 -546,-14 -546.4,-12.1 -546.8,-10.2 -547.2,-8.4 -547.7,-6 -548.1,-4.2 -548.6,-2.4 -549.1,0 -549.5,2.2 -549.8,3.8 -550.2,5.7 -550.7,8.1 -551.1,9.9 -551.6,11.7 -552.1,13.8 -552.6,16.2 -553,18.1 -553.4,20 -553.9,22.2 -554.3,24.1 -554.7,25.9 -555.1,27.7 -555.6,30 -556,32 -556.4,34 -556.8,35.8 -557.3,38.2 -557.7,40.1 -558.1,42 -558.6,44.2 -559,46.1 -559.4,47.9 -559.8,49.7 -560.2,52 -560.6,54 -561,56 -561.3,58.1 -561.6,60.2 -561.9,61.8 -562.2,63.9 -562.5,66 -562.7,67.5 -563,69.6 -563.3,71.8 -563.6,74 -563.9,76.4 -564.2,78.8 -564.4,80.6 -564.6,83 -564.7,84.9 -564.9,86.6 -565.2,88.9 -565.5,91.5 -565.7,93.4 -565.9,95.6 -566,98 -566,100.1 -566,102 -566,103.9 -566,105.9 -566,107.9 -566,109.9 -566,111.8 -566,113.9 -565.9,115.9 -565.8,118 -565.7,119.9 -565.6,121.8 -565.5,123.9 -565.4,126.5 -565.3,128.8 -565.2,131 -565,133.5 -564.7,136.1 -564.5,137.9 -564.3,139.7 -564,142.2 -563.7,144.4 -563.5,146.1 -563.2,148.4 -562.9,150.7 -562.6,152.3 -562.3,154.5 -562,156.7 -561.8,158.3 -561.4,160.4 -561.1,162.5 -560.9,164 -560.5,166 -560.1,168 -559.8,170 -559.4,172 -558.9,174.4 -558.4,176.6 -557.9,178.8 -557.5,180.5 -557,182.7 -556.6,184.5 -556.2,186.4 -555.7,188.6 -555.2,190.8 -554.8,192.5 -554.3,194.5 -553.9,196.1 -553.6,197.4 -553,199.4 -552.5,201.4 -552.1,203.1 -551.6,205.3 -551.1,207.5 -550.8,209 -550.3,211.2 -549.8,213.4 -549.4,215.1 -548.9,217.1 -548.4,219.1 -548.1,220.4 -547.5,222.4 -547,224.4 -546.6,226.1 -546.1,228.1 -545.6,230.1 -545.2,231.8 -544.7,233.7 -544.1,235.6 -543.7,237.1 -543.2,239 -542.8,240.5 -542.4,242.2 -542,243.8 -541.5,245.9 -541.1,247.6 -540.6,249.7 -540.2,251.3 -539.8,253 -539.4,254.8 -538.9,256.5 -538.6,257.8 -538.2,259.6 -537.8,261.3 -537.4,262.8 -536.9,264.7 -536.4,266.5 -535.9,267.9 -535.4,269.9 -535,271.5 -534.6,273.1 -534.2,274.7 -533.8,276.3 -533.4,277.9 -532.9,279.5 -532.6,280.8 -532.2,282.5 -531.8,284.2 -531.5,285.3 -531.1,286.9 -530.7,288.4 -530.3,289.9 -529.9,291.3 -529.4,293.2 -529,294.6 -528.6,296.1 -528.2,297.6 -527.8,299.2 -527.4,300.6 -527.1,302.1 -526.7,303.5 -526.3,305 -525.9,306.4 -525.5,307.9 -525.1,309.3 -524.7,310.8 -524.3,312.3 -523.9,313.9 -523.6,315.1 -523.2,316.7 -522.8,318.3 -522.5,319.4 -522.1,320.9 -521.7,322.4 -521.3,323.8 -520.9,325.2 -520.5,326.6 -520.2,327.9 -519.8,329.3 -519.5,330.4 -519.1,331.9 -518.7,333.4 -518.4,334.5 -518,336 -517.6,337.5 -517.3,338.8 -516.9,340.2 -516.5,341.6 -516.2,342.9 -515.8,344.2 -515.5,345.3 -515.1,346.7 -514.7,348.1 -514.5,348.6 -514.3,349.3" style="stroke: rgb(55, 65, 81); stroke-width: 10;"></polygon><polyline vector-effect="non-scaling-stroke" fill="none" points="-513.3,352.8 -513.3,353 -513.2,353.2 -513,354.1 -512.8,355 -512.6,355.9 -512.4,356.8 -512.1,358.1 -511.8,358.9 -511.4,360.1 -511.1,361.4 -510.7,362.8 -510.3,364.3 -510,365.8 -509.6,367.3 -509.2,368.8 -508.8,370.2 -508.5,371.1 -508.1,372.4 -507.9,373.3 -507.6,374.2 -507.3,375.4 -507,376.6 -506.8,377.4 -506.5,378.2 -506.2,379.4 -506,380.3 -505.8,381.2 -505.5,382.1 -505.2,383.4 -505,384.3 -504.7,385.2 -504.3,386.6 -504,388 -503.8,389 -503.5,390 -503.2,391.4 -502.9,392.4 -502.6,393.4 -502.2,394.8 -501.8,396.3 -501.4,397.7 -501.1,399 -500.7,400.4 -500.3,401.8 -500,403.1 -499.7,404.2 -499.4,405.3 -499,406.9 -498.6,408.5 -498.1,410.1 -497.7,411.6 -497.2,413.6 -496.8,415.1 -496.4,416.5 -496,418 -495.6,419.6 -495.1,421.2 -494.7,422.8 -494.2,424.5 -493.8,426.2 -493.2,428.4 -492.8,430.2 -492.2,432.2 -491.8,433.9 -491.3,435.5 -490.9,437.1 -490.4,438.7 -490,440.5 -489.5,442.2 -489,444.4 -488.4,446.4 -487.9,448.3 -487.4,449.8 -486.9,451.9 -486.4,453.7 -486,455.6 -485.4,457.9 -484.9,460.2 -484.3,462.4 -483.8,464.4 -483.3,466 -482.9,467.8 -482.4,469.6 -482,471.4 -481.5,473.3 -481,475.5 -480.5,477.2 -480,479.3 -479.5,481 -479,483.1 -478.4,485.2 -477.8,487.3 -477.2,489.5 -476.6,491.6 -476,493.7 -475.5,495.5 -475,497.7 -474.5,499.4 -474,501.5 -473.4,503.8 -472.8,506.1 -472.2,508.4 -471.5,511.3 -470.8,513.9 -470.2,516.3 -469.6,518.7 -469,521.1 -468.5,522.9 -468,525 -467.5,526.7 -467,528.7 -466.4,530.8 -465.9,532.8 -465.4,534.5 -464.9,536.6 -464.4,538.3 -464,539.9 -463.6,541.6 -463.1,543.7 -462.7,545.4 -462.2,547.6 -461.7,549.4 -461.1,551.6 -460.7,553.3 -460.2,555 -459.8,556.6 -459.4,558.2 -459,559.8 -458.4,561.7 -457.9,563.5 -457.5,565 -457,566.9 -456.6,568.4 -456.2,570 -455.8,571.7 -455.3,573.3 -454.9,574.9 -454.4,576.5 -454,578.2 -453.5,579.9 -453,582 -452.6,583.6 -452.2,585.2 -451.8,586.7 -451.4,588.2 -451,589.8 -450.6,591.4 -450.2,593 -449.8,594.7 -449.4,596.4 -449,598 -448.5,599.6 -448.1,601.2 -447.7,602.7 -447.2,604.4 -446.8,605.7 -446.4,607.1 -445.9,608.9 -445.4,610.3 -445.1,611.4 -444.7,613 -444.3,614.5 -443.9,616 -443.5,617.5 -443.1,619.1 -442.5,620.9 -442,622.7 -441.6,624 -441.1,625.7 -440.6,627.3 -440.4,628.3 -440,629.7 -439.5,631.4 -439.1,632.7 -438.7,634 -438.2,635.7 -437.7,637.2 -437.3,638.5 -436.9,639.8 -436.3,641.6 -435.7,643 -435.2,644.5 -434.6,645.9 -434.1,647.3 -433.3,649.2 -432.6,651 -431.9,652.5 -431.3,654.1 -430.4,656.2 -430,657.3 -429.5,658.5 -429,660 -428.2,661.7 -427.7,662.9 -427.1,664.2 -426.3,665.8 -425.6,667.1 -425.1,668.1 -424.4,669.4 -423.6,670.9 -423,672 -422.4,673.1 -421.8,674.2 -421.2,675.2 -420.6,676.2 -419.9,677.3 -419.1,678.4 -418.3,679.5 -417.5,680.7 -416.7,681.7 -416,682.6 -415.1,683.7 -414.2,684.8 -413.2,685.8 -412,687 -410.8,688.1 -409.6,689.2 -408.4,690.2 -406.4,691.7 -404.7,692.8 -402.8,694 -401.1,694.9 -399.2,696 -398.3,696.3 -397.4,696.6 -396.1,697 -394.8,697.4 -393.7,697.6 -392.6,697.8 -391.5,698 -390.3,698.2 -389.1,698.3 -387.9,698.4 -386,698.5 -384.1,698.6 -382.9,698.5 -381.7,698.5 -380,698.4 -379,698.3 -377.7,698 -376.2,697.6 -374.7,697.2 -373.1,696.5 -371.4,695.6 -370,694.9 -368.8,694.3 -367.6,693.6 -366.7,693.1 -365.9,692.6 -365.1,692.1 -364.2,691.4 -363.2,690.7 -362.4,690 -361.7,689.4 -360.9,688.7 -359.9,687.8 -358.9,686.8 -357.5,685.3 -356,683.8 -354.5,682.2 -353.3,680.9 -352,679.4 -351.2,678.6 -350.3,677.6 -349.5,676.8 -348.7,675.9 -348.1,675.3 -347.3,674.4 -346.6,673.8 -345.9,673 -345.1,672.2 -344.2,671.3 -343.4,670.5 -342.3,669.3 -341.1,668.1 -339.9,666.9 -338.7,665.7 -337.5,664.5 -336.5,663.5 -335.5,662.5 -334.3,661.4 -333.1,660.3 -331.9,659.3 -330.7,658.3 -329.6,657.4 -328.4,656.4 -327.3,655.5 -326.3,654.6 -325.4,653.9 -324.3,653.1 -323.4,652.5 -322.5,652 -321.6,651.5 -320.7,651 -319.7,650.5 -318.9,650.2 -317.7,649.7 -316.5,649.3 -315.3,648.8 -314.4,648.5 -313.5,648.2 -313,648.1 -312,647.9 -310.9,647.8 -309.5,647.7 -308,647.6 -306.4,647.5 -305.2,647.6 -304,647.7 -303,647.8 -302.1,647.9 -301.3,648 -300.6,648.1 -300,648.2 -299.1,648.4 -298.2,648.7 -297.3,649 -296.4,649.2 -295.2,649.6 -294.4,649.9 -293.6,650.2 -292.8,650.5 -291.8,651 -291.1,651.3 -290.2,651.8 -289.3,652.3 -288.2,652.9 -287.3,653.4 -286.3,653.9 -285.2,654.5 -283.9,655.2 -282.8,655.8 -281.7,656.4 -280.7,657.1 -279.7,657.7 -278.9,658.2 -278.1,658.7 -277.4,659.2 -276.7,659.7 -275.9,660.3 -275.1,660.9 -274.3,661.6 -273.1,662.4 -271.8,663.2 -270.5,663.9 -269.2,664.6 -267.9,665.3 -266.9,665.8 -265.7,666.5 -264.7,667.2 -263.7,667.8 -262.6,668.4 -261.1,669.2 -259.9,669.8 -258.7,670.4 -257.5,671 -255.8,671.8 -254.5,672.4 -253.2,673 -252.1,673.4 -250.7,674 -249.9,674.3 -248.5,674.9 -247.1,675.4 -245.6,676 -244.4,676.4 -243.2,676.8 -242,677.2 -240.7,677.6 -239.5,678 -237.9,678.5 -236.3,679 -235.2,679.3 -233.9,679.7 -232.6,680 -231.7,680.3 -230.2,680.7 -228.8,681 -227.6,681.3 -225.9,681.7 -223.9,682 -222.4,682.3 -220.8,682.6 -219.3,682.8 -218.3,682.9 -216.9,683.2 -215.6,683.4 -214,683.6 -212.3,683.8 -210.6,684 -209.5,684 -208.4,684 -207.1,684.1 -205.7,684.3 -204,684.5 -202.1,684.7 -200.1,684.9 -198.5,685 -196.7,685 -195.1,685 -193.3,684.8 -191.5,684.6 -189.8,684.4 -188.5,684.2 -186.9,684 -185.6,684 -184.2,684 -182.3,683.8 -180.4,683.6 -178.8,683.4 -176.7,683 -174.8,682.6 -173.4,682.4 -172,682.1 -170.1,681.7 -168.8,681.4 -167.1,681 -165.4,680.6 -163.7,680.2 -162.1,679.8 -160.2,679.3 -158.7,678.9 -157.3,678.4 -155.5,677.9 -154.2,677.4 -152.9,676.9 -151.2,676.3 -149.3,675.6 -147.5,674.8 -145.7,674.1 -144.2,673.5 -142.6,672.7 -140.9,671.9 -139.5,671.3 -137.8,670.5 -136,669.6 -134.6,669 -133.3,668.4 -131.7,667.6 -130,666.7 -128.5,665.9 -126.8,664.9 -125.2,664 -123.9,663.2 -122.5,662.4 -121.1,661.6 -119.5,660.6 -118,659.6 -116.1,658.4 -114.6,657.3 -113.1,656.2 -111.7,655.2 -110.2,654.1 -109,653.1 -107.8,652.1 -106.3,651 -105.1,650 -103.7,648.8 -102.3,647.6 -100.8,646.3 -99.6,645.1 -98.2,643.8 -97,642.6 -95.8,641.4 -94.7,640.3 -93.3,638.8 -92.2,637.4 -91,636.1 -89.8,634.8 -88.6,633.4 -87.4,632 -86.2,630.7 -85.2,629.4 -84.2,628.1 -83.2,626.9 -82.2,625.6 -81.1,624.2 -79.8,622.5 -78.6,620.9 -77.3,619 -76.2,617.4 -75.2,615.8 -74.2,614.2 -73.2,612.6 -72.2,611 -71.4,609.5 -70.6,608.1 -69.8,606.7 -69,605.2 -68.2,603.6 -67.4,602.1 -66.4,600.1 -65.6,598.4 -64.9,596.7 -64.3,595.3 -63.6,593.8 -63,592.4 -62.3,590.6 -61.5,588.8 -60.9,587.2 -60.1,585.1 -59.5,583.3 -58.9,581.5 -58.3,579.7 -57.7,577.9 -57.2,576.5 -56.6,574.7 -56.1,573.3 -55.6,571.5 -55,569.6 -54.5,567.5 -54,565.8 -53.5,564.2 -53,562.7 -52.4,560.8 -51.9,559.3 -51.4,557.8 -50.9,555.8 -50.4,554.1 -50,552.5 -49.5,550.8 -48.9,548.8 -48.4,547.2 -47.8,545.3 -47.3,543.7 -46.7,541.6 -46.3,539.8 -45.8,538.1 -45.4,536.4 -44.9,534.8 -44.5,533.3 -44,531.8 -43.5,529.9 -43,528.4 -42.5,526.4 -42,524.8 -41.4,522.8 -40.9,521.2 -40.3,519.1 -39.8,517.4 -39.3,515.7 -38.9,514.1 -38.3,512.1 -37.9,510.4 -37.4,508.7 -37,507.1 -36.5,505.5 -36.1,503.8 -35.6,502.2 -35.2,500.7 -34.6,498.6 -34.2,496.8 -33.7,495.1 -33.3,493.5 -32.6,490.9 -32,488.8 -31.4,486.8 -30.8,484.6 -30.2,482.3 -29.7,480.6 -29.3,479 -28.7,476.9 -28.3,475.3 -27.7,473.3 -27.3,471.6 -26.8,469.9 -26.4,468 -25.9,466.2 -25.5,464.4 -25,462.7 -24.6,460.9 -24.1,459.3 -23.7,457.6 -23.2,455.9 -22.8,454.2 -22.2,452 -21.8,450.2 -21.2,448.2 -20.8,446.6 -20.3,444.5 -19.9,442.9 -19.5,441.3 -19.1,439.5 -18.7,437.7 -18.2,436 -17.8,434.3 -17.2,432.2 -16.8,430.5 -16.3,428.4 -15.9,426.6 -15.5,424.9 -15.1,423.4 -14.6,421.4 -14.1,419.8 -13.6,417.8 -13.1,415.8 -12.6,413.5 -12.2,411.7 -11.8,410 -11.4,408.4 -11,406.8 -10.6,405.3 -10.2,403.8 -9.7,401.8 -9.3,400.1 -8.8,398 -8.4,396.4 -7.9,394.4 -7.5,392.8 -7,390.7 -6.6,388.9 -6.2,387 -5.8,385.4 -5.3,383.3 -4.9,381.7 -4.4,380.1 -3.9,378 -3.4,376 -3.1,374.6 -2.7,373 -2.2,370.9 -1.8,369.3 -1.3,367.2 -0.8,365 -0.3,363.1 0.1,361.5 0.7,359.4 1.1,357.8 1.6,356.2 2.1,354.3 2.6,352.2 3,350.6 3.4,349 3.9,346.9 4.3,345 4.7,343.6 5.1,341.9 5.7,339.7 6.1,338 6.6,336.3 7.1,334.2 7.7,331.9 8.1,330.2 8.6,328.5 9.1,326.6 9.7,324.3 10.1,322.6 10.6,320.8 11.1,318.8 11.7,316.5 12.1,315 12.6,313.4 13.1,311.5 13.6,309.8 14,308.3 14.6,306.2 15.1,304.1 15.6,302.3 16.1,300.2 16.7,297.9 17.1,296.1 17.6,294.3 18.1,292.3 18.6,290.6 19,289.1 19.6,287 20.1,285 20.6,283.2 21.1,281.1 21.7,278.8 22.1,277.1 22.6,275.3 23.2,273.2 23.8,271.1 24.3,269.5 24.9,267.4 25.5,265.3 26,263.2 26.6,261 27.1,258.8 27.6,257.1 28.1,255.1 28.7,253 29.1,251.3 29.7,249.2 30.2,247.1 30.8,244.9 31.2,243.1 31.8,240.9 32.2,239.1 32.8,236.9 33.2,235.1 33.8,232.8 34.3,230.9 34.8,229 35.3,227.2 35.9,224.9 36.5,222.7 37,220.5 37.7,217.9 38.2,215.6 38.8,213.4 39.2,211.6 39.8,209.4 40.3,207.6 40.9,205.4 41.4,203.6 42,201.4 42.5,199.6 43,197.3 43.5,195.4 44,193.2 44.6,191 45.1,188.8 45.7,186.6 46.3,184.5 46.9,182.3 47.4,180.4 48,178.2 48.5,176.5 49,174.3 49.5,172.5 50,170.5 50.5,168.6 51,166.4" style="stroke: rgb(239, 68, 68); stroke-width: 7;"></polyline><polyline vector-effect="non-scaling-stroke" fill="none" points="51.6,164.2 52.1,162 52.7,159.7 53.3,157.6 53.9,155.3 54.4,153.5 54.9,151.7 55.4,150 55.9,147.9 56.4,146.3 56.9,144.3 57.5,142.3 58,140.1 58.5,138.3 59,136.1 59.6,133.8 60.1,131.5 60.7,129.3 61.3,127.1 61.9,125 62.4,123.3 63,121.1 63.5,119.3 64,117.2 64.6,115 65.1,112.8 65.7,110.7 66.2,108.6 66.8,106.5 67.2,104.8 67.8,102.7 68.2,101 68.8,99 69.2,97.3 69.8,95.2 70.4,93.1 71,91 71.6,88.8 72.2,86.6 72.8,84.4 73.3,82.6 73.9,80.4 74.3,78.6 74.8,76.8 75.3,75 75.7,73.2 76.1,71.8 76.7,69.8 77.3,67.8 77.7,66.2 78.3,64.1 78.8,62 79.3,60.1 79.7,58.2 80.3,55.9 80.7,54.1 81.3,52.1 81.8,50 82.4,47.9 82.9,45.8 83.5,43.8 83.9,42 84.4,40.2 84.9,38 85.4,36.3 85.8,34.5 86.3,32.3 86.7,30.6 87.1,29 87.5,27.3 88,25.2 88.5,23.5 88.9,21.9 89.3,20.2 89.7,18.5 90,17.3 90.4,15.9 90.9,14 91.3,12.5 91.7,11.1 92.2,9.1 92.6,7.4 92.9,6.1 93.3,4.5 93.7,2.8 94.1,1.2 94.4,-0.4 94.8,-2 95.2,-3.6 95.5,-5.2 95.7,-6.3 96.1,-7.9 96.4,-9.5 96.6,-10.7 96.9,-12.2 97.2,-14 97.3,-15.3 97.4,-16.6 97.6,-18.4 97.7,-20 97.8,-21.5 97.9,-23.1 98,-24.7 98,-25.8 98,-27.6 97.9,-29.2 97.8,-30.7 97.7,-32.3 97.5,-34 97.2,-35.3 97,-36.6 96.7,-38 96.2,-39.6 95.8,-41.1 95.3,-42.4 94.7,-43.8 94.1,-45.4 93.5,-46.8 92.5,-48.6 91.7,-50.1 90.9,-51.5 90.1,-52.6 88.7,-54.2 87.6,-55.4 86.4,-56.6 85.2,-57.7 83.6,-59.1 82.5,-59.9 81.4,-60.7 80.1,-61.6 78.8,-62.6 77.7,-63.3 76.8,-63.9 75.4,-64.7 74.2,-65.3 73,-65.9 71.7,-66.6 70.4,-67.2 69.1,-67.7 67.8,-68.2 66.5,-68.7 65.5,-69.1 64,-69.6 63,-69.9 62,-70.3 60.6,-70.7 59.2,-71.1 57.8,-71.5 56.2,-71.9 54.6,-72.3 53.4,-72.6 51.7,-72.9 50.3,-73.1 49,-73.4 46.8,-73.7 44.6,-74.1 42.8,-74.4 41.2,-74.7 39.1,-75 37.9,-75.3 36.6,-75.5 34.9,-75.8 32.9,-76.1 31.4,-76.4 29.9,-76.6 27.9,-76.9 26.4,-77.1 25.1,-77.4 23.9,-77.6 22.1,-77.9 20.6,-78.1 19.1,-78.4 17.6,-78.6 15.5,-78.9 14,-79.2 12.7,-79.5 10.8,-79.8 9,-80.1 7.7,-80.4 5.8,-80.7 4,-81 2.7,-81.3 0.8,-81.7 -1.1,-82 -2.4,-82.3 -4.4,-82.7 -6.5,-83 -8.1,-83.2 -10.1,-83.6 -12.4,-83.9 -14.2,-84.1 -16,-84.3 -17.7,-84.5 -19,-84.5 -20.7,-84.7 -22.4,-84.9 -24.1,-85.1 -26.1,-85.3 -28.3,-85.5 -30.1,-85.5 -31.9,-85.5 -33.7,-85.5 -35.5,-85.5 -37.3,-85.5 -39,-85.5 -40.7,-85.5 -42.5,-85.5 -44.3,-85.5 -46.4,-85.3 -48.4,-85.1 -50.3,-84.9 -52.7,-84.6 -54.8,-84.2 -56.4,-84 -57.9,-83.8 -59.9,-83.4 -61.5,-83 -63.1,-82.7 -64.7,-82.3 -66.8,-81.8 -68.7,-81.3 -70.2,-80.9 -72.1,-80.3 -74,-79.8 -75.4,-79.3 -77,-78.7 -78.6,-78.1 -80.2,-77.5 -82,-76.7 -83.8,-75.9 -85.4,-75.3 -87.2,-74.5 -88.7,-73.8 -90.3,-73 -92,-72.2 -93.6,-71.2 -95.1,-70.3 -96.8,-69.2 -98.2,-68.3 -99.5,-67.4 -100.9,-66.7 -102.6,-65.7 -104.1,-64.9 -105.8,-63.8 -107.6,-62.5 -109.1,-61.2 -110.6,-60 -112.1,-58.7 -113.3,-57.7 -114.8,-56.5 -116.3,-55.3 -117.5,-54.2 -118.7,-53.1 -120,-52 -121.2,-50.9 -122.4,-49.7 -123.9,-48.1 -125.3,-46.7 -126.6,-45.2 -127.6,-44.1 -129,-42.7 -130,-41.8 -131.2,-40.4 -132.4,-39.1 -134,-37.3 -135.1,-35.9 -136.2,-34.5 -137.4,-33.1 -138.6,-31.6 -139.6,-30.3 -140.6,-28.9 -141.8,-27.2 -142.8,-25.8 -144,-24.2 -145,-22.9 -146,-21.6 -147.1,-20.3 -148.1,-19.1 -149.1,-17.8 -150.1,-16.5 -151.3,-14.9 -152.5,-13.2 -153.7,-11.5 -154.7,-10.2 -155.8,-8.7 -157,-7.2 -157.9,-6.1 -159,-4.6 -160.1,-3.1 -161.2,-1.5 -162,-0.3 -163,1.2 -164,2.6 -165,4.1 -166.2,5.5 -167.5,7.2 -168.7,8.9 -169.7,10.3 -170.9,11.8 -171.9,13.4 -172.9,14.9 -173.8,16.2 -174.9,17.7 -176,19.3 -177.2,20.9 -178.4,22.5 -179.6,24.1 -180.8,25.7 -181.9,27.3 -182.8,28.6 -183.9,30.2 -185,31.7 -185.9,33.1 -187,34.6 -188.1,36.2 -189.2,37.5 -190.4,39.2 -191.6,40.9 -192.7,42.4 -193.9,44.1 -194.8,45.6 -195.8,47 -197.2,48.9 -198.3,50.6 -199.4,52.1 -200.7,53.8 -201.9,55.5 -202.7,56.6 -203.8,58.1 -204.8,59.6 -205.9,61.3 -206.9,62.8 -208.1,64.6 -209.1,66.1 -210.4,67.7 -211.5,69.2 -212.8,71 -213.9,72.5 -215,74 -216.1,75.8 -217.2,77.5 -218,78.8 -219.1,80.3 -220.5,82.3 -221.6,83.8 -222.6,85.2 -223.9,86.9 -225.2,88.8 -226.1,90.1 -227.3,92 -228.6,93.8 -229.7,95.4 -230.7,96.9 -232,98.7 -233,100 -234.2,101.9 -235.5,103.7 -236.6,105.3 -237.7,106.9 -239.1,108.8 -240.2,110.2 -241.4,112.1 -242.7,113.9 -243.8,115.5 -244.8,117 -246,118.8 -247,120.1 -248.3,122 -249.6,123.9 -250.7,125.5 -251.8,127 -253.1,128.9 -254,130.2 -255.2,131.7 -256.6,133.6 -257.9,135.4 -259,136.9 -260.3,138.8 -261.4,140.5 -262.5,142 -263.7,143.7 -265,145.6 -266.1,147.1 -267.3,148.9 -268.4,150.6 -269.5,152.1 -270.7,153.7 -272,155.5 -273.1,157 -274.3,158.7 -275.6,160.5 -276.8,162.2 -277.9,163.7 -279,165.2 -280.3,167 -281.3,168.5 -282.2,169.8 -283.4,171.5 -284.7,173.2 -285.8,174.6 -287,176.3 -288.2,177.9 -289.1,179.2 -290.1,180.6 -291.2,182.3 -292.2,183.7 -293.2,185.2 -294.2,186.6 -295.3,188.3 -296.2,189.5 -297.3,191.1 -298.4,192.6 -299.6,194.4 -300.5,195.7 -301.3,197 -302.2,198.2 -303.1,199.4 -304.2,200.8 -305.5,202.5 -306.7,204.1 -307.6,205.4 -308.5,206.7 -309.5,208.1 -310.3,209.2 -311.3,210.5 -312.3,211.8 -313.5,213.3 -314.5,214.6 -315.5,215.9 -316.6,217.3 -317.7,218.8 -318.7,220.2 -319.5,221.2 -320.6,222.5 -321.5,223.6 -322.7,225 -323.8,226.3 -324.9,227.6 -325.8,228.8 -326.7,229.9 -327.7,231 -328.7,232.1 -329.7,233.2 -330.7,234.2 -331.8,235.3 -332.6,236 -333.7,236.9 -334.9,237.9 -336,238.8 -337.3,239.8 -338.6,240.9 -339.6,241.8 -340.6,242.6 -341.8,243.5 -342.9,244.3 -343.9,244.9 -345.3,245.7 -346.6,246.5 -347.7,247.1 -349.1,247.8 -350.5,248.5 -351.5,249 -352.9,249.6 -354.3,250.2 -355.2,250.5 -356.6,251 -358,251.4 -359.1,251.7 -360.2,252 -362,252.4 -363.3,252.7 -364.7,253 -366,253.2 -367.6,253.4 -368.6,253.6 -369.9,253.7 -371.2,253.8 -373.1,254 -374.8,254.2 -376.6,254.3 -378.1,254.4 -379.7,254.5 -380.9,254.5 -382.4,254.5 -383.7,254.5 -385.4,254.5 -387.2,254.5 -388.9,254.5 -390.5,254.5 -392.3,254.5 -393.7,254.4 -394.9,254.3 -396.6,254.1 -398.2,253.9 -399.8,253.7 -401.7,253.5 -403.5,253.3 -404.8,253.2 -406.6,253 -408.4,252.7 -410.5,252.4 -412.6,252 -414.7,251.6 -416.7,251.1 -418.5,250.7 -419.8,250.4 -421.5,250 -423.1,249.6 -424.5,249.2 -426,248.8 -427.7,248.2 -429.1,247.8 -430.8,247.2 -432.4,246.7 -434,246.1 -435.3,245.7 -437,245 -438.5,244.4 -439.9,243.8 -441.3,243.2 -443.1,242.3 -444.5,241.6 -445.8,241 -447.3,240.2 -448.7,239.4 -450.3,238.5 -451.8,237.6 -453.4,236.6 -454.6,235.9 -456.3,234.9 -457.4,234.2 -458.6,233.4 -459.8,232.5 -461.1,231.4 -462,230.5 -463.4,229.3 -464.7,228.2 -465.9,227.2 -467.1,226.2 -468.3,225.2 -469.2,224.2 -470.2,223.1 -471.2,222 -472.1,220.9 -473.2,219.5 -474.4,218.1 -475.4,216.8 -476.4,215.5 -477.4,214.3 -478.4,212.9 -479,211.8 -479.8,210.5 -480.6,209.2 -481.3,207.9 -481.8,206.9 -482.5,205.7 -483.1,204.4 -483.7,203.1 -484.4,201.5 -485,200.1 -485.5,198.6 -486,197.3 -486.5,195.7 -486.9,194.4 -487.4,192.8 -487.8,191.5 -488.1,190.2 -488.5,188.8 -488.9,187.3 -489.1,186.2 -489.4,184.6 -489.8,183.1 -490,181.9 -490.2,180.6 -490.6,178.8 -490.9,177.5 -491.1,176 -491.3,174.6 -491.7,172.8 -491.9,171.5 -492.1,170 -492.4,168.7 -492.8,166.8 -493,165.5 -493.4,163.7 -493.8,162 -494.1,160.3 -494.3,159 -494.7,157.2 -494.9,155.8 -495.1,154.5 -495.5,152.6 -495.9,150.9 -496.1,149.6 -496.5,147.9 -496.9,146.2 -497.1,145 -497.3,143.6 -497.7,141.8 -497.9,140.5 -498.1,139.1 -498.4,137.6 -498.8,135.8 -499,134.5 -499.3,132.7 -499.7,130.9 -500,129.3 -500.2,128.1 -500.5,126.4 -500.8,125.2 -501,124 -501.2,122.6 -501.5,120.7 -501.8,119.3 -502,117.8 -502.2,116.3 -502.5,114.6 -502.8,113.4 -503,112.2 -503.2,110.9 -503.4,109.5 -503.6,108.1 -503.8,106.7 -504,105.3 -504.2,103.8 -504.4,102.4 -504.5,101.3 -504.7,99.8 -504.9,98.3 -505.1,97.1 -505.3,95.7 -505.5,94.3 -505.5,93.3 -505.6,92 -505.7,90.6 -505.8,89.4 -505.9,88 -506,86.6 -506,85.4 -506,84 -506,82.6 -506,81.4 -506,80.2 -506,78.8 -506,77.6 -506,76.5 -506,75.5 -506,74.6 -505.8,73.5 -505.6,72.5 -505.4,71.5 -505.2,70.5 -504.8,69.1 -504.6,68.2 -504.4,67.3 -504,66.1 -503.6,64.9 -503.4,64.1 -503,63.1 -502.6,62.1 -502.3,61.4 -502,60.7 -501.3,59.6 -500.7,58.7 -500.1,57.8 -499.3,56.7 -498.4,55.6 -497.4,54.6 -496.4,53.6 -495.3,52.7 -494.4,52 -493.3,51.3 -492.6,50.9 -491.9,50.6 -491.3,50.2 -490.7,49.9 -490,49.5 -489.3,49.2 -488.6,48.9 -487.8,48.7 -486.6,48.3 -485.7,48.1 -484.8,47.9 -483.9,47.7 -483,47.4 -482.4,47.3 -481.7,47.2 -480.9,47.1 -479.9,47 -478.9,47 -478,47 -477.2,47 -476.5,47 -475.4,47.2 -474.3,47.4 -473.2,47.6 -472.1,47.8 -471,48 -470.1,48.2 -469.2,48.4 -468.3,48.6 -467.4,48.9 -466.5,49.2 -466,49.3 -465.5,49.5 -464.6,49.9 -463.6,50.4 -462.1,51.2 -460.6,52 -459.1,52.8 -458,53.4 -457,53.9 -456.6,54.2 -456.2,54.5 -455.8,54.8 -454.7,55.7 -453.6,56.6 -452.2,57.5 -450.8,58.5 -449.3,59.6 -448.1,60.5 -446.9,61.3 -445.8,62.2 -444.5,63.2 -443,64.2 -442,64.9 -441,65.7 -440.1,66.3 -439.3,66.9 -438.5,67.5 -437.4,68.2 -436.4,68.9 -435.4,69.6 -434.3,70.3 -433.5,70.8 -432.9,71.2 -432.2,71.5 -431.5,71.8 -430.2,72.5 -428.9,73.2 -427.6,73.8 -426.1,74.6 -424.6,75.4 -423.9,75.6 -423,75.9 -421.8,76.4 -420.8,76.7 -419.8,77 -418.3,77.4 -417,77.7 -416,77.9 -415,78.1 -413.4,78.4 -412.2,78.6 -410.5,78.7 -408.8,78.7 -407.1,78.7 -406,78.6 -405,78.4 -404.4,78.3 -403.3,78.1 -402.2,77.9 -401.1,77.7 -400,77.6 -398.6,77.3 -397.5,77 -396.4,76.7 -395.1,76.2 -393.8,75.7 -392.9,75.4 -392.2,75.1 -391.2,74.7 -390.1,74.3 -388.9,73.7 -387.4,72.9 -385.9,72.1 -384.7,71.3 -383.5,70.5 -382.5,69.8 -381.7,69.1 -380.9,68.5 -379.9,67.7 -379.3,67 -378.5,66.3 -377.7,65.6 -376.8,64.7 -376.2,64 -375.1,62.8 -374.1,61.6 -373.3,60.5 -372.3,59.1 -371.3,57.7 -370.6,56.6 -370,55.5 -369.3,54.2 -368.8,53 -368.3,51.8 -367.9,50.8 -367.4,49.5 -367,48.4 -366.7,47.6 -366.3,46.4 -366,45.2 -365.8,44.3 -365.6,43.4 -365.3,42 -365.1,41 -364.9,39.8 -364.7,38.5 -364.5,37.1 -364.5,36.1 -364.5,35 -364.5,34 -364.5,33 -364.6,31.5 -364.7,30.1 -364.9,28.8 -365.1,27.6 -365.3,26.4 -365.5,25.3 -365.8,24.2 -366,23.1 -366.3,21.7 -366.8,20.2 -367.2,19.2 -367.6,18.2 -368.2,16.8 -368.7,15.7 -369.1,14.8 -369.7,13.6 -370.3,12.4 -370.7,11.6 -371.2,10.8 -372,9.7 -372.6,8.9 -373.2,8.1 -373.8,7.3 -374.6,6.2 -375.2,5.3 -375.8,4.4 -376.5,3.4 -377.3,2.5 -377.8,1.9 -378.5,1.1 -379.3,0.3 -380,-0.4 -380.9,-1.5 -381.8,-2.6 -382.5,-3.4 -383.3,-4.3 -384,-5.2 -384.9,-6.1 -385.9,-7 -386.8,-7.9 -387.6,-8.6 -388.4,-9.3 -388.8,-9.7 -389.6,-10.5 -390.4,-11.3 -391.3,-12.3 -392.3,-13.2 -393.3,-14.2 -394,-14.9 -394.8,-15.7 -395.6,-16.5 -396.5,-17.5 -397.5,-18.5 -398.5,-19.5 -399.4,-20.3 -400.6,-21.3 -401.7,-22.2 -402.6,-23 -403.4,-23.7 -404.3,-24.6 -404.9,-25.3 -405.6,-26.1 -406.5,-26.9 -407.5,-28 -408.5,-29.1 -409.5,-30.2 -410.5,-31.3 -411.5,-32.5 -412.5,-33.5 -413.5,-34.5 -414.5,-35.5 -415.5,-36.5 -416.5,-37.5 -417.5,-38.5 -418.5,-39.5 -419.5,-40.5 -420.6,-41.5 -421.7,-42.5 -422.8,-43.5 -423.9,-44.5 -425,-45.5 -426,-46.5 -426.9,-47.5 -427.7,-48.4 -428.7,-49.7 -429.7,-51 -430.7,-52.3 -431.8,-53.6 -432.9,-54.9 -433.9,-56.1 -434.9,-57.3 -435.7,-58.4 -436.5,-59.5 -437.3,-60.6 -437.9,-61.4 -438.7,-62.6 -439.6,-63.8 -440.4,-64.9 -441.4,-66.4 -442.4,-67.8 -443,-68.7 -443.7,-69.8 -444.7,-71.4 -445.5,-72.6 -446.2,-73.8 -447,-75 -447.8,-76.4 -448.2,-77.3 -448.7,-78.4 -449.3,-79.8 -449.9,-81.2 -450.5,-82.5 -451.1,-83.8 -451.8,-85.3 -452.4,-86.6 -453,-87.9 -453.4,-88.9 -454,-90.3 -454.3,-91.3 -454.7,-92.6 -455.1,-93.9 -455.6,-95.5 -456,-96.8 -456.5,-98.4 -456.9,-99.7 -457.3,-101 -457.7,-102.4 -458,-103.8 -458.4,-105.2 -458.8,-106.6 -459.1,-108 -459.5,-109.6 -459.9,-111.1 -460.2,-112.3 -460.6,-113.8 -461,-115.3 -461.4,-116.7 -461.8,-118.1 -462.1,-119.5 -462.5,-121 -462.9,-122.5 -463.1,-123.5 -463.5,-125 -463.9,-126.5 -464.1,-127.5 -464.5,-129 -464.9,-130.5 -465.1,-131.5 -465.4,-132.7 -465.8,-134.3 -466,-135.4 -466.2,-136.5 -466.5,-137.6 -466.7,-138.8 -466.8,-139.7 -466.9,-140.7 -467.2,-142.1 -467.4,-143.5 -467.6,-144.6 -467.8,-145.6 -468,-146.6 -468,-147.3 -468.1,-148.1 -468.2,-149 -468.3,-149.9 -468.4,-150.9 -468.5,-151.9 -468.5,-152.9 -468.5,-154.1 -468.5,-155.4 -468.5,-156.6 -468.5,-157.8 -468.5,-159 -468.5,-160 -468.5,-160.9 -468.5,-161.7 -468.5,-162.4 -468.5,-163 -468.4,-163.9 -468.2,-164.8 -468,-165.7 -467.7,-166.7 -467.3,-167.9 -467,-168.7 -466.6,-169.7 -466.2,-170.7 -465.9,-171.6 -465.3,-172.7 -464.7,-173.8 -464.1,-174.8 -463.1,-176.1 -461.8,-177.6 -460.8,-178.6 -459.4,-179.8 -458.1,-181 -457.1,-181.8 -456.3,-182.3 -455.5,-182.9 -455,-183.2 -454.5,-183.4 -454,-183.6 -453.1,-184 -452.2,-184.3 -451.3,-184.6 -450.4,-184.8 -449.4,-185.1 -448.7,-185.2 -447.9,-185.3 -447,-185.4 -446.2,-185.4 -445.4,-185.3 -444.6,-185.2 -443.9,-185.1 -443.3,-185 -442.6,-185 -442,-184.9 -441,-184.6 -440,-184.3 -439,-183.9 -438,-183.5 -436.4,-182.8 -435.3,-182.3 -434.1,-181.6 -432.9,-181 -431.6,-180.2 -430.7,-179.5 -429.8,-178.8 -429,-178.2 -428,-177.3 -427,-176.4 -425.9,-175.4 -424.7,-174.2 -423.4,-172.9 -422.3,-171.7 -421.3,-170.7 -420.4,-169.8 -419.6,-169 -419,-168.3 -418.1,-167.4 -417.2,-166.4 -416.4,-165.5 -415.4,-164.3 -414.2,-163 -413.3,-161.9 -412.3,-160.7 -411.3,-159.5 -410.5,-158.6 -409.9,-157.8 -409.1,-156.8 -408.3,-155.8 -407.5,-154.8 -406.6,-153.7 -405.5,-152.5 -404.7,-151.6 -403.9,-150.7 -403.1,-149.8 -402.4,-149 -401.6,-148 -400.6,-146.9 -399.8,-145.9 -399,-144.9 -398.1,-143.8 -397.3,-142.9 -396.6,-142.1 -395.6,-141 -394.8,-140 -394,-139 -393.2,-138 -392.3,-136.9 -391.5,-136 -390.5,-135 -389.5,-134 -388.7,-133.1 -388,-132.3 -387.2,-131.3 -386.4,-130.3 -385.6,-129.3 -384.6,-128.2 -383.5,-127 -382.5,-126 -381.6,-125 -380.8,-124.1 -380.1,-123.3 -379.3,-122.3 -378.5,-121.3 -377.6,-120.3 -376.6,-119.2 -375.5,-118.1 -374.5,-117.2 -373.5,-116.3 -372.5,-115.4 -371.5,-114.5 -370.6,-113.6 -369.8,-112.8 -368.9,-111.8 -368,-110.8 -367.1,-109.8 -366.1,-108.7 -365,-107.5 -363.7,-106.3 -362.5,-105.2 -361.4,-104.2 -360.3,-103.2 -359.3,-102.4 -358.6,-101.8 -357.8,-101.1 -356.6,-100.1 -355.5,-99.2 -354.4,-98.2 -353.4,-97.4 -352.4,-96.6 -351.3,-95.8 -350.2,-95 -349.1,-94.3 -347.5,-93.2 -346,-92.2 -345,-91.6 -343.9,-91 -342.5,-90.1 -341.3,-89.5 -339.9,-88.8 -338.5,-88.1 -336.7,-87.1 -335.2,-86.4 -333.6,-85.6 -332.2,-85 -330.8,-84.3 -329.6,-83.9 -328.1,-83.3 -327,-82.9 -325.5,-82.4 -324,-81.9 -322.8,-81.5 -321.4,-81.1 -320,-80.7 -319,-80.4 -317.4,-80.1 -315.8,-79.7 -314.7,-79.5 -313,-79.2 -311.2,-78.9 -309.9,-78.7 -308.6,-78.6 -307.3,-78.4 -306,-78.2 -304.6,-78 -303.1,-77.8 -301.4,-77.6 -299.6,-77.5 -298.1,-77.5 -296.8,-77.5 -295.3,-77.5 -294,-77.5 -292.4,-77.6 -291.1,-77.7 -289.6,-77.8 -288.2,-77.9 -286.7,-78 -284.9,-78.1 -283.1,-78.2 -281.5,-78.4 -280.1,-78.6 -278.8,-78.8 -277.4,-79 -276,-79.3 -274.6,-79.5 -272.8,-79.8 -271,-80.2 -269.9,-80.5 -268.8,-80.7 -267.2,-81.1 -266,-81.4 -264.5,-81.8 -262.6,-82.4 -260.7,-83.1 -259.3,-83.6 -257.9,-84.2 -256.5,-84.7 -255.6,-85.1 -254.3,-85.5 -252.7,-86.2 -251.2,-86.9 -249.9,-87.5 -248.1,-88.4 -246.7,-89.3 -245.6,-89.9 -244.4,-90.5 -242.9,-91.4 -241.9,-92 -240.5,-92.7 -239,-93.6 -237.6,-94.5 -236.6,-95.2 -235.2,-96.2 -234,-97.2 -232.9,-98 -231.8,-98.8 -230.4,-99.8 -229.3,-100.6 -228.3,-101.4 -227,-102.5 -225.7,-103.6 -224.7,-104.5 -223.5,-105.5 -222.3,-106.5 -221.1,-107.7 -219.9,-108.9 -218.7,-110.1 -217.7,-111.2 -216.7,-112.3 -215.7,-113.6 -214.7,-114.9 -213.7,-116.2 -212.6,-117.7 -211.6,-119.1 -210.9,-119.9 -209.9,-121.2 -208.9,-122.5 -208.1,-123.5 -207.1,-124.8 -206,-126.3 -205.2,-127.4 -204.4,-128.5 -203.3,-130.1 -202.4,-131.4 -201.7,-132.6 -200.8,-134 -199.9,-135.4 -199.3,-136.3 -198.4,-137.8 -197.4,-139.2 -196.6,-140.3 -195.8,-141.4 -194.9,-142.9 -194.3,-143.8 -193.5,-145 -192.6,-146.5 -191.7,-148 -190.9,-149.1 -190,-150.3 -189.2,-151.7 -188.5,-152.8 -187.8,-153.9 -186.9,-155.4 -186.1,-156.8 -185.2,-158.1 -184.4,-159.5 -183.6,-160.9 -182.9,-162 -181.9,-163.7 -181.1,-165 -180.2,-166.3 -179.2,-167.9 -178.3,-169.4 -177.7,-170.3 -176.9,-171.6 -176,-173 -175.3,-174.1 -174.4,-175.6 -173.5,-177.1 -172.7,-178.5 -172,-179.7 -171.1,-181.2 -170.3,-182.5 -169.4,-184" style="stroke: rgb(59, 130, 246); stroke-width: 7;"></polyline><polyline vector-effect="non-scaling-stroke" fill="none" points="-168.6,-185.2 -167.8,-186.7 -167.1,-187.9 -166.4,-189 -165.6,-190.4 -164.9,-191.8 -164.2,-192.9 -163.3,-194.4 -162.5,-195.8 -161.7,-197 -160.8,-198.5 -159.9,-200 -159.2,-201.1 -158.3,-202.6 -157.7,-203.8 -156.9,-205 -156,-206.5 -155.1,-208 -154.4,-209.1 -153.5,-210.5 -152.8,-211.7 -152,-212.9 -151.2,-214.1 -150.4,-215.6 -149.7,-216.8 -148.8,-218.2 -148,-219.6 -147.3,-221 -146.5,-222.3 -145.7,-223.6 -145.1,-224.7 -144.6,-225.6 -143.8,-226.9 -143.1,-228 -142.2,-229.5 -141.4,-230.9 -140.6,-232.2 -139.8,-233.4 -139.1,-234.6 -138.6,-235.5 -137.8,-236.8 -137,-238.1 -136.5,-239.1 -135.7,-240.4 -135,-241.6 -134.5,-242.4 -133.8,-243.5 -133.1,-244.6 -132.6,-245.4 -131.8,-246.5 -131.1,-247.6 -130.6,-248.4 -130.1,-249.2 -129.4,-250.3 -129,-251.1 -128.5,-251.9 -127.9,-253.1 -127.2,-254.3 -126.8,-255.2 -126.1,-256.4 -125.5,-257.6 -124.8,-258.7 -124.2,-259.8 -123.5,-261.1 -123,-262.1 -122.5,-263.1 -122,-264.1 -121.3,-265.4 -120.7,-266.5 -120.1,-267.8 -119.5,-269.1 -119.1,-270.1 -118.9,-270.8 -118.5,-271.9 -118.2,-272.8 -117.8,-274 -117.5,-275.2 -117.1,-277 -116.9,-278.5 -116.7,-280.1 -116.6,-281.5 -116.7,-283.4 -116.9,-284.7 -117.3,-286.3 -117.7,-287.8 -118.4,-289.6 -119.1,-291.2 -119.8,-292.8 -120.9,-294.6 -122.5,-296.7 -123.8,-298.4 -125,-299.7 -126.3,-301 -127.3,-301.9 -127.9,-302.4 -129,-303.2 -130.1,-304.1 -131.2,-304.9 -132,-305.5 -133.1,-306.3 -133.8,-306.8 -134.7,-307.3 -135.6,-307.9 -136.8,-308.5 -138.1,-309.2 -139.4,-309.8 -140.7,-310.5 -142,-311.1 -143.3,-311.8 -144.2,-312.2 -145.4,-312.8 -146.4,-313.2 -147.4,-313.7 -148.4,-314.1 -149.4,-314.5 -150.5,-314.9 -151.6,-315.3 -152.9,-315.8 -154,-316.2 -155.5,-316.8 -156.6,-317.2 -157.7,-317.6 -158.9,-318 -160.1,-318.4 -161.1,-318.8 -162.1,-319.2 -163.4,-319.8 -164.4,-320.2 -165.8,-320.7 -167,-321.1 -168.2,-321.5 -169.3,-321.9 -170.4,-322.3 -171.4,-322.7 -172.5,-323.1 -173.9,-323.6 -175.1,-324 -176.3,-324.4 -177.4,-324.9 -178.8,-325.4 -179.9,-325.8 -181,-326.2 -182.4,-326.7 -183.7,-327.1 -184.9,-327.5 -186.1,-328 -187.3,-328.4 -188.6,-328.8 -189.8,-329.2 -191,-329.6 -192.3,-330 -193.9,-330.5 -195.1,-331 -196.3,-331.4 -197.6,-331.9 -198.8,-332.3 -200,-332.7 -201.3,-333.1 -202.9,-333.6 -204.1,-334 -205.7,-334.5 -207,-334.9 -208.2,-335.3 -209.5,-335.7 -210.8,-336.1 -212.2,-336.5 -213.7,-337 -215.2,-337.4 -216.3,-337.7 -217.9,-338.1 -219,-338.4 -220.6,-338.7 -222.2,-339.1 -223.8,-339.5 -225,-339.7 -226.7,-340 -228.1,-340.3 -229.6,-340.5 -231.1,-340.7 -232.6,-340.9 -234.1,-341.1 -235.5,-341.2 -236.9,-341.3 -238.3,-341.4 -239.9,-341.6 -241.2,-341.7 -242.6,-341.8 -244,-341.8 -245.4,-341.8 -246.8,-341.7 -248.2,-341.6 -249.9,-341.4 -251.5,-341.3 -253.2,-341.2 -254.6,-341.1 -256,-340.9 -257.1,-340.8 -258.7,-340.6 -260.3,-340.4 -261.9,-340.2 -263.3,-340 -264.7,-339.8 -266.1,-339.6 -267.5,-339.4 -268.9,-339.1 -270.4,-338.9 -272.2,-338.6 -273.5,-338.4 -274.8,-338.1 -276.1,-337.9 -277.9,-337.6 -279.1,-337.4 -280.4,-337.1 -281.6,-336.9 -283.5,-336.6 -284.9,-336.3 -286.3,-336 -288.1,-335.7 -290,-335.3 -291.2,-335 -292.4,-334.8 -294.2,-334.4 -295.6,-334.1 -296.9,-333.9 -298.8,-333.5 -300.6,-333.1 -301.9,-332.8 -303.5,-332.4 -305.2,-332 -306.3,-331.7 -307.5,-331.4 -309.2,-331.1 -310.6,-330.8 -311.9,-330.5 -313.3,-330.2 -315.2,-329.8 -316.6,-329.5 -317.9,-329.2 -319.7,-328.8 -321.5,-328.4 -323.1,-328 -324.7,-327.5 -326.3,-327.1 -327.5,-326.7 -329.2,-326.3 -330.6,-325.9 -331.9,-325.6 -333.9,-325 -335.8,-324.5 -337.5,-323.9 -339.2,-323.3 -340.9,-322.7 -342.6,-322.1 -344.3,-321.5 -345.9,-320.9 -347.4,-320.4 -349,-319.8 -350.6,-319.2 -352.2,-318.6 -353.8,-318 -355.4,-317.4 -357,-316.8 -358.6,-316.2 -360.2,-315.6 -361.8,-315 -363.7,-314.2 -365.7,-313.4 -367.3,-312.7 -368.9,-311.9 -370.5,-311.2 -371.9,-310.6 -373.1,-310 -374.7,-309.4 -376.3,-308.8 -377.9,-308.1 -379.7,-307.4 -381.7,-306.6 -383.3,-305.8 -385.2,-304.9 -386.8,-304.2 -388.4,-303.4 -390,-302.6 -391.6,-301.8 -393,-301.2 -394.6,-300.4 -396.2,-299.6 -397.8,-298.8 -399.4,-298 -401,-297.2 -402.6,-296.4 -404.2,-295.6 -405.8,-294.8 -407.4,-294 -409.2,-293 -410.8,-292.1 -412.4,-291.2 -414,-290.4 -415.6,-289.6 -417.2,-288.8 -419.2,-287.7 -421,-286.7 -422.6,-285.7 -424.2,-284.7 -425.8,-283.7 -427,-283 -428.4,-282.2 -430,-281.3 -431.6,-280.4 -433.3,-279.3 -435.1,-278.2 -436.6,-277.2 -438.2,-276.2 -440.1,-274.9 -441.6,-273.8 -443.1,-272.7 -444.6,-271.6 -446.5,-270.2 -447.9,-269.1 -449.4,-268.1 -450.8,-267.1 -452.7,-265.7 -454.2,-264.4 -455.6,-263.2 -457,-262 -458.4,-260.7 -459.9,-259.4 -461.1,-258.4 -462.7,-257.1 -464.2,-255.7 -465.9,-254.2 -467.2,-252.9 -468.9,-251.1 -470.2,-249.6 -471.6,-248.1 -473,-246.6 -474.3,-245.1 -475.5,-243.7 -476.8,-242.2 -478.2,-240.5 -479.4,-238.9 -480.5,-237.5 -481.6,-236 -482.6,-234.6 -483.8,-232.9 -485,-231.2 -486.2,-229.5 -487.3,-228 -488.7,-225.9 -489.7,-224.4 -490.9,-222.4 -492,-220.3 -492.9,-218.5 -493.5,-217.2 -494.4,-215.2 -495.1,-213.7 -496,-212 -496.9,-210.1 -498,-207.6 -498.8,-205.7 -499.6,-203.8 -500.3,-201.9 -501.2,-199.5 -501.9,-197.8 -502.5,-196.1 -503.1,-194.4 -503.9,-192.3 -504.4,-190.8 -505,-188.7 -505.6,-186.6 -506.2,-184.5 -506.8,-182.4 -507.4,-180.3 -507.9,-178.8 -508.5,-176.9 -509.1,-175 -509.5,-173.3 -510,-171.6 -510.6,-169.3 -511.1,-167.4 -511.7,-165.1 -512.2,-163.2 -512.8,-160.8 -513.2,-158.9 -513.7,-157 -514.1,-155.1 -514.6,-153.2 -515,-151.3 -515.5,-149.2 -515.9,-147.1 -516.4,-145.1 -516.8,-143.1 -517.3,-141.2 -517.7,-139.5 -518.3,-137.3 -518.7,-135.4 -519.3,-133.1 -519.7,-131.2 -520.3,-128.7 -520.7,-126.7 -521.2,-124.7 -521.5,-123.1 -522,-120.8 -522.4,-119.1 -522.8,-117.4 -523.3,-115.2 -523.8,-113 -524.3,-110.8 -524.8,-108.6 -525.4,-105.8 -525.9,-103.5 -526.4,-101.2 -526.9,-99.4 -527.4,-97.1 -527.9,-95.4 -528.4,-93.1 -529,-90.8 -529.4,-88.7 -529.7,-87.1 -530.2,-84.7 -530.6,-82.9 -531,-81.1 -531.5,-78.8 -532.1,-76.5 -532.4,-75 -532.9,-73.2 -533.4,-70.8 -533.8,-68.9 -534.2,-67 -534.7,-64.6 -535.1,-62.5 -535.4,-61 -535.9,-59.2 -536.4,-56.9 -536.8,-55.1 -537.2,-53.3 -537.7,-51.2 -538.2,-48.8 -538.6,-46.9 -539.2,-44.5 -539.7,-42.1 -540.3,-39.5 -540.7,-37.5 -541.3,-35.1 -541.8,-32.6 -542.3,-30.1 -542.7,-28.1 -543.1,-26.1 -543.6,-23.7 -544,-21.9 -544.5,-20.1 -545,-18 -545.6,-15.9 -546,-14 -546.4,-12.1 -546.8,-10.2 -547.2,-8.4 -547.7,-6 -548.1,-4.2 -548.6,-2.4 -549.1,0 -549.5,2.2 -549.8,3.8 -550.2,5.7 -550.7,8.1 -551.1,9.9 -551.6,11.7 -552.1,13.8 -552.6,16.2 -553,18.1 -553.4,20 -553.9,22.2 -554.3,24.1 -554.7,25.9 -555.1,27.7 -555.6,30 -556,32 -556.4,34 -556.8,35.8 -557.3,38.2 -557.7,40.1 -558.1,42 -558.6,44.2 -559,46.1 -559.4,47.9 -559.8,49.7 -560.2,52 -560.6,54 -561,56 -561.3,58.1 -561.6,60.2 -561.9,61.8 -562.2,63.9 -562.5,66 -562.7,67.5 -563,69.6 -563.3,71.8 -563.6,74 -563.9,76.4 -564.2,78.8 -564.4,80.6 -564.6,83 -564.7,84.9 -564.9,86.6 -565.2,88.9 -565.5,91.5 -565.7,93.4 -565.9,95.6 -566,98 -566,100.1 -566,102 -566,103.9 -566,105.9 -566,107.9 -566,109.9 -566,111.8 -566,113.9 -565.9,115.9 -565.8,118 -565.7,119.9 -565.6,121.8 -565.5,123.9 -565.4,126.5 -565.3,128.8 -565.2,131 -565,133.5 -564.7,136.1 -564.5,137.9 -564.3,139.7 -564,142.2 -563.7,144.4 -563.5,146.1 -563.2,148.4 -562.9,150.7 -562.6,152.3 -562.3,154.5 -562,156.7 -561.8,158.3 -561.4,160.4 -561.1,162.5 -560.9,164 -560.5,166 -560.1,168 -559.8,170 -559.4,172 -558.9,174.4 -558.4,176.6 -557.9,178.8 -557.5,180.5 -557,182.7 -556.6,184.5 -556.2,186.4 -555.7,188.6 -555.2,190.8 -554.8,192.5 -554.3,194.5 -553.9,196.1 -553.6,197.4 -553,199.4 -552.5,201.4 -552.1,203.1 -551.6,205.3 -551.1,207.5 -550.8,209 -550.3,211.2 -549.8,213.4 -549.4,215.1 -548.9,217.1 -548.4,219.1 -548.1,220.4 -547.5,222.4 -547,224.4 -546.6,226.1 -546.1,228.1 -545.6,230.1 -545.2,231.8 -544.7,233.7 -544.1,235.6 -543.7,237.1 -543.2,239 -542.8,240.5 -542.4,242.2 -542,243.8 -541.5,245.9 -541.1,247.6 -540.6,249.7 -540.2,251.3 -539.8,253 -539.4,254.8 -538.9,256.5 -538.6,257.8 -538.2,259.6 -537.8,261.3 -537.4,262.8 -536.9,264.7 -536.4,266.5 -535.9,267.9 -535.4,269.9 -535,271.5 -534.6,273.1 -534.2,274.7 -533.8,276.3 -533.4,277.9 -532.9,279.5 -532.6,280.8 -532.2,282.5 -531.8,284.2 -531.5,285.3 -531.1,286.9 -530.7,288.4 -530.3,289.9 -529.9,291.3 -529.4,293.2 -529,294.6 -528.6,296.1 -528.2,297.6 -527.8,299.2 -527.4,300.6 -527.1,302.1 -526.7,303.5 -526.3,305 -525.9,306.4 -525.5,307.9 -525.1,309.3 -524.7,310.8 -524.3,312.3 -523.9,313.9 -523.6,315.1 -523.2,316.7 -522.8,318.3 -522.5,319.4 -522.1,320.9 -521.7,322.4 -521.3,323.8 -520.9,325.2 -520.5,326.6 -520.2,327.9 -519.8,329.3 -519.5,330.4 -519.1,331.9 -518.7,333.4 -518.4,334.5 -518,336 -517.6,337.5 -517.3,338.8 -516.9,340.2 -516.5,341.6 -516.2,342.9 -515.8,344.2 -515.5,345.3 -515.1,346.7 -514.7,348.1 -514.5,348.6 -514.3,349.3" style="stroke: rgb(251, 191, 36); stroke-width: 7;"></polyline></svg>