<svg xmlns="http://www.w3.org/2000/svg" xmlns:xlink="http://www.w3.org/1999/xlink" preserveAspectRatio="xMidYMid meet" height="100%" viewBox="-590 -380 720 1150">
    <polygon vector-effect="non-scaling-stroke" fill="none" style="stroke: #374151; stroke-width:6" points="  -504,398 -502,407 -500,417 -497,426 -495,435 -493,444 -490,454 -488,463 -485,473 -483,482 -481,491 -478,500 -476,509 -474,518 -471,528 -469,537 -467,546 -465,555 -462,564 -460,574 -458,582 -455,591 -453,600 -451,608 -449,616 -447,623 -445,630 -443,636 -441,642 -438,648 -437,652 -435,657 -433,661 -431,665 -428,669 -426,673 -423,676 -421,679 -418,682 -415,684 -412,686 -407,689 -404,690 -399,692 -396,693 -391,693 -388,693 -384,693 -381,692 -378,691 -375,690 -372,689 -368,687 -366,686 -363,684 -359,681 -352,676 -348,672 -343,669 -339,666 -335,664 -331,662 -327,660 -323,659 -319,657 -314,656 -309,655 -304,655 -300,654 -295,654 -289,655 -284,655 -279,656 -274,658 -269,659 -264,661 -259,663 -255,665 -249,668 -244,670 -239,672 -233,674 -228,676 -222,677 -216,678 -210,679 -203,679 -197,680 -190,680 -184,679 -177,679 -170,678 -164,676 -157,674 -151,672 -144,670 -138,667 -131,664 -125,660 -119,657 -113,653 -107,648 -101,643 -96,638 -90,633 -85,627 -80,622 -76,615 -71,609 -67,602 -63,596 -59,589 -56,582 -53,574 -49,566 -47,559 -44,551 -42,543 -40,536 -38,527 -36,520 -34,512 -32,504 -30,495 -28,487 -26,479 -24,471 -22,463 -20,455 -18,447 -16,439 -14,430 -12,421 -9,413 -7,405 -5,397 -3,388 -1,380 3,367 5,358 7,350 10,341 12,332 14,323 16,315 19,306 21,297 23,289 26,280 28,271 30,262 32,254 34,245 37,236 39,227 41,218 43,210 46,201 48,192 50,183 52,174 55,165   55,165 57,156 59,147 62,139 64,130 67,120 69,111 71,103 74,93 76,84 79,75 81,67 83,58 85,51 87,43 89,36 91,30 92,24 94,18 95,13 96,8 97,3 98,-1 98,-6 98,-10 98,-15 97,-19 96,-23 95,-27 93,-32 92,-35 90,-39 87,-43 85,-47 82,-51 79,-54 76,-57 73,-60 69,-63 66,-66 62,-68 58,-71 54,-73 49,-75 44,-77 39,-79 35,-80 29,-82 24,-83 19,-84 13,-84 8,-85 2,-85 -4,-86 -10,-86 -16,-86 -22,-86 -28,-85 -35,-84 -42,-83 -49,-82 -56,-81 -63,-79 -69,-77 -75,-75 -82,-72 -89,-69 -95,-66 -101,-63 -107,-60 -113,-56 -119,-51 -125,-47 -131,-42 -136,-37 -142,-32 -147,-26 -152,-21 -156,-15 -161,-9 -165,-2 -170,4 -174,11 -178,17 -182,24 -187,31 -191,38 -195,44 -199,51 -204,58 -209,66 -213,73 -218,80 -222,87 -227,94 -232,101 -237,108 -242,115 -247,122 -252,130 -257,137 -261,144 -266,150 -271,157 -275,164 -280,171 -286,179 -290,185 -295,192 -300,199 -305,206 -310,211 -316,217 -321,223 -326,227 -332,232 -337,236 -342,239 -348,242 -354,245 -360,247 -367,250 -374,251 -380,252 -386,253 -392,254 -399,253 -405,253 -411,252 -417,251 -423,249 -428,247 -434,245 -440,242 -445,239 -450,236 -455,232 -460,228 -465,224 -469,219 -473,214 -477,209 -481,204 -484,198 -487,192 -489,187 -492,181 -494,174 -496,168 -498,161 -499,154 -500,148 -502,141 -503,134 -504,128 -505,122 -506,116 -507,112 -507,107 -508,102 -508,98 -508,95 -508,90 -508,85 -507,79 -505,75 -503,70 -501,66 -498,63 -494,59 -490,57 -487,55 -483,54 -480,54 -476,53 -472,53 -467,54 -462,55 -458,56 -452,59 -447,62 -444,63 -440,66 -435,68 -432,70 -428,71 -423,72 -420,73 -417,74 -413,74 -410,74 -405,74 -401,73 -398,72 -395,71 -391,70 -386,67 -384,65 -380,63 -377,59 -375,56 -373,52 -371,49 -370,45 -369,41 -368,37 -368,34 -368,30 -368,26 -369,23 -370,19 -371,16 -373,11 -374,7 -376,4 -380,-1 -382,-5 -384,-8 -387,-11 -390,-14 -393,-17 -396,-21 -399,-24 -402,-27 -406,-31 -409,-34 -413,-38 -417,-42 -420,-45 -424,-50 -427,-54 -430,-58 -434,-62 -437,-67 -440,-72 -443,-77 -446,-82 -449,-87 -451,-92 -454,-97 -456,-103 -459,-108 -461,-113 -463,-118 -464,-122 -466,-126 -467,-130 -468,-135 -469,-139 -469,-145 -469,-150 -468,-156 -467,-162 -464,-167 -461,-171 -458,-174 -456,-176 -453,-178 -449,-179 -446,-180 -440,-181 -435,-180 -429,-179 -424,-176 -420,-174 -416,-170 -414,-168 -409,-163 -406,-159 -403,-155 -401,-152 -398,-147 -396,-144 -394,-141 -392,-137 -389,-134 -387,-130 -384,-127 -381,-123 -378,-120 -375,-116 -371,-113 -368,-110 -364,-106 -359,-103 -355,-100 -351,-98 -346,-95 -341,-93 -336,-90 -331,-88 -325,-87 -320,-85 -314,-84 -309,-83 -303,-82 -297,-82 -291,-82 -285,-82 -279,-83 -273,-84 -267,-85 -262,-87 -255,-89 -250,-91 -244,-94 -238,-97 -233,-101 -228,-104 -223,-108 -218,-112 -213,-116 -208,-121 -204,-126 -200,-131 -196,-137 -192,-142 -188,-148 -185,-153 -181,-160 -177,-165 -174,-171 -170,-177 -167,-183   -167,-183 -163,-189 -159,-195 -155,-202 -152,-207 -149,-213 -145,-218 -142,-223 -140,-227 -137,-232 -135,-236 -132,-240 -130,-243 -127,-248 -125,-252 -124,-255 -122,-260 -121,-264 -120,-270 -120,-274 -120,-278 -121,-283 -122,-286 -123,-290 -125,-293 -126,-296 -128,-299 -130,-301 -133,-304 -136,-308 -139,-310 -143,-313 -148,-316 -151,-318 -154,-320 -158,-322 -162,-324 -165,-325 -169,-327 -173,-328 -178,-330 -182,-331 -186,-332 -191,-333 -195,-334 -200,-335 -205,-336 -210,-337 -215,-337 -220,-338 -225,-339 -231,-339 -237,-339 -243,-339 -248,-339 -254,-339 -260,-338 -267,-338 -272,-337 -279,-336 -285,-335 -291,-334 -297,-333 -303,-332 -309,-330 -316,-328 -322,-327 -329,-325 -336,-322 -342,-320 -349,-318 -355,-316 -362,-313 -369,-310 -375,-307 -382,-304 -388,-301 -394,-298 -401,-294 -408,-290 -415,-286 -421,-282 -427,-278 -433,-274 -440,-269 -446,-264 -452,-259 -457,-254 -463,-248 -469,-243 -474,-237 -479,-231 -484,-224 -488,-218 -493,-211 -497,-204 -501,-197 -505,-190 -508,-182 -511,-174 -514,-166 -517,-158 -519,-150 -521,-142 -523,-134 -525,-125 -527,-117 -529,-108 -531,-100 -533,-92 -535,-83 -537,-74 -538,-66 -540,-57 -542,-48 -543,-40 -545,-32 -547,-23 -548,-15 -550,-6 -551,2 -553,11 -554,19 -556,28 -557,37 -558,46 -559,54 -561,63 -562,73 -562,81 -563,91 -564,100 -564,108 -564,117 -564,126 -564,135 -563,145 -563,153 -562,162 -561,171 -559,180 -558,189 -556,199 -554,208 -552,217 -550,226 -548,235 -545,243 -543,252 -541,262 -538,271 -536,280 -534,289 -531,299 -529,308 -526,316 -524,325 -522,335 -519,344 -517,353 -515,362 -512,371 -510,380 -507,390 -506,394  "></polygon>
    <polyline vector-effect="non-scaling-stroke" fill="none" style="stroke: #EF4444; stroke-width:4" points=" -504,398 -502,407 -500,417 -497,426 -495,435 -493,444 -490,454 -488,463 -485,473 -483,482 -481,491 -478,500 -476,509 -474,518 -471,528 -469,537 -467,546 -465,555 -462,564 -460,574 -458,582 -455,591 -453,600 -451,608 -449,616 -447,623 -445,630 -443,636 -441,642 -438,648 -437,652 -435,657 -433,661 -431,665 -428,669 -426,673 -423,676 -421,679 -418,682 -415,684 -412,686 -407,689 -404,690 -399,692 -396,693 -391,693 -388,693 -384,693 -381,692 -378,691 -375,690 -372,689 -368,687 -366,686 -363,684 -359,681 -352,676 -348,672 -343,669 -339,666 -335,664 -331,662 -327,660 -323,659 -319,657 -314,656 -309,655 -304,655 -300,654 -295,654 -289,655 -284,655 -279,656 -274,658 -269,659 -264,661 -259,663 -255,665 -249,668 -244,670 -239,672 -233,674 -228,676 -222,677 -216,678 -210,679 -203,679 -197,680 -190,680 -184,679 -177,679 -170,678 -164,676 -157,674 -151,672 -144,670 -138,667 -131,664 -125,660 -119,657 -113,653 -107,648 -101,643 -96,638 -90,633 -85,627 -80,622 -76,615 -71,609 -67,602 -63,596 -59,589 -56,582 -53,574 -49,566 -47,559 -44,551 -42,543 -40,536 -38,527 -36,520 -34,512 -32,504 -30,495 -28,487 -26,479 -24,471 -22,463 -20,455 -18,447 -16,439 -14,430 -12,421 -9,413 -7,405 -5,397 -3,388 -1,380 3,367 5,358 7,350 10,341 12,332 14,323 16,315 19,306 21,297 23,289 26,280 28,271 30,262 32,254 34,245 37,236 39,227 41,218 43,210 46,201 48,192 50,183 52,174 55,165 "></polyline>
    <polyline vector-effect="non-scaling-stroke" fill="none" style="stroke: #3B82F6; stroke-width:4" points=" 55,165 57,156 59,147 62,139 64,130 67,120 69,111 71,103 74,93 76,84 79,75 81,67 83,58 85,51 87,43 89,36 91,30 92,24 94,18 95,13 96,8 97,3 98,-1 98,-6 98,-10 98,-15 97,-19 96,-23 95,-27 93,-32 92,-35 90,-39 87,-43 85,-47 82,-51 79,-54 76,-57 73,-60 69,-63 66,-66 62,-68 58,-71 54,-73 49,-75 44,-77 39,-79 35,-80 29,-82 24,-83 19,-84 13,-84 8,-85 2,-85 -4,-86 -10,-86 -16,-86 -22,-86 -28,-85 -35,-84 -42,-83 -49,-82 -56,-81 -63,-79 -69,-77 -75,-75 -82,-72 -89,-69 -95,-66 -101,-63 -107,-60 -113,-56 -119,-51 -125,-47 -131,-42 -136,-37 -142,-32 -147,-26 -152,-21 -156,-15 -161,-9 -165,-2 -170,4 -174,11 -178,17 -182,24 -187,31 -191,38 -195,44 -199,51 -204,58 -209,66 -213,73 -218,80 -222,87 -227,94 -232,101 -237,108 -242,115 -247,122 -252,130 -257,137 -261,144 -266,150 -271,157 -275,164 -280,171 -286,179 -290,185 -295,192 -300,199 -305,206 -310,211 -316,217 -321,223 -326,227 -332,232 -337,236 -342,239 -348,242 -354,245 -360,247 -367,250 -374,251 -380,252 -386,253 -392,254 -399,253 -405,253 -411,252 -417,251 -423,249 -428,247 -434,245 -440,242 -445,239 -450,236 -455,232 -460,228 -465,224 -469,219 -473,214 -477,209 -481,204 -484,198 -487,192 -489,187 -492,181 -494,174 -496,168 -498,161 -499,154 -500,148 -502,141 -503,134 -504,128 -505,122 -506,116 -507,112 -507,107 -508,102 -508,98 -508,95 -508,90 -508,85 -507,79 -505,75 -503,70 -501,66 -498,63 -494,59 -490,57 -487,55 -483,54 -480,54 -476,53 -472,53 -467,54 -462,55 -458,56 -452,59 -447,62 -444,63 -440,66 -435,68 -432,70 -428,71 -423,72 -420,73 -417,74 -413,74 -410,74 -405,74 -401,73 -398,72 -395,71 -391,70 -386,67 -384,65 -380,63 -377,59 -375,56 -373,52 -371,49 -370,45 -369,41 -368,37 -368,34 -368,30 -368,26 -369,23 -370,19 -371,16 -373,11 -374,7 -376,4 -380,-1 -382,-5 -384,-8 -387,-11 -390,-14 -393,-17 -396,-21 -399,-24 -402,-27 -406,-31 -409,-34 -413,-38 -417,-42 -420,-45 -424,-50 -427,-54 -430,-58 -434,-62 -437,-67 -440,-72 -443,-77 -446,-82 -449,-87 -451,-92 -454,-97 -456,-103 -459,-108 -461,-113 -463,-118 -464,-122 -466,-126 -467,-130 -468,-135 -469,-139 -469,-145 -469,-150 -468,-156 -467,-162 -464,-167 -461,-171 -458,-174 -456,-176 -453,-178 -449,-179 -446,-180 -440,-181 -435,-180 -429,-179 -424,-176 -420,-174 -416,-170 -414,-168 -409,-163 -406,-159 -403,-155 -401,-152 -398,-147 -396,-144 -394,-141 -392,-137 -389,-134 -387,-130 -384,-127 -381,-123 -378,-120 -375,-116 -371,-113 -368,-110 -364,-106 -359,-103 -355,-100 -351,-98 -346,-95 -341,-93 -336,-90 -331,-88 -325,-87 -320,-85 -314,-84 -309,-83 -303,-82 -297,-82 -291,-82 -285,-82 -279,-83 -273,-84 -267,-85 -262,-87 -255,-89 -250,-91 -244,-94 -238,-97 -233,-101 -228,-104 -223,-108 -218,-112 -213,-116 -208,-121 -204,-126 -200,-131 -196,-137 -192,-142 -188,-148 -185,-153 -181,-160 -177,-165 -174,-171 -170,-177 -167,-183 "></polyline>
    <polyline vector-effect="non-scaling-stroke" fill="none" style="stroke: #FBBF24; stroke-width:4" points=" -167,-183 -163,-189 -159,-195 -155,-202 -152,-207 -149,-213 -145,-218 -142,-223 -140,-227 -137,-232 -135,-236 -132,-240 -130,-243 -127,-248 -125,-252 -124,-255 -122,-260 -121,-264 -120,-270 -120,-274 -120,-278 -121,-283 -122,-286 -123,-290 -125,-293 -126,-296 -128,-299 -130,-301 -133,-304 -136,-308 -139,-310 -143,-313 -148,-316 -151,-318 -154,-320 -158,-322 -162,-324 -165,-325 -169,-327 -173,-328 -178,-330 -182,-331 -186,-332 -191,-333 -195,-334 -200,-335 -205,-336 -210,-337 -215,-337 -220,-338 -225,-339 -231,-339 -237,-339 -243,-339 -248,-339 -254,-339 -260,-338 -267,-338 -272,-337 -279,-336 -285,-335 -291,-334 -297,-333 -303,-332 -309,-330 -316,-328 -322,-327 -329,-325 -336,-322 -342,-320 -349,-318 -355,-316 -362,-313 -369,-310 -375,-307 -382,-304 -388,-301 -394,-298 -401,-294 -408,-290 -415,-286 -421,-282 -427,-278 -433,-274 -440,-269 -446,-264 -452,-259 -457,-254 -463,-248 -469,-243 -474,-237 -479,-231 -484,-224 -488,-218 -493,-211 -497,-204 -501,-197 -505,-190 -508,-182 -511,-174 -514,-166 -517,-158 -519,-150 -521,-142 -523,-134 -525,-125 -527,-117 -529,-108 -531,-100 -533,-92 -535,-83 -537,-74 -538,-66 -540,-57 -542,-48 -543,-40 -545,-32 -547,-23 -548,-15 -550,-6 -551,2 -553,11 -554,19 -556,28 -557,37 -558,46 -559,54 -561,63 -562,73 -562,81 -563,91 -564,100 -564,108 -564,117 -564,126 -564,135 -563,145 -563,153 -562,162 -561,171 -559,180 -558,189 -556,199 -554,208 -552,217 -550,226 -548,235 -545,243 -543,252 -541,262 -538,271 -536,280 -534,289 -531,299 -529,308 -526,316 -524,325 -522,335 -519,344 -517,353 -515,362 -512,371 -510,380 -507,390 -506,394 "></polyline>
</svg>