<svg xmlns="http://www.w3.org/2000/svg" xmlns:xlink="http://www.w3.org/1999/xlink" preserveAspectRatio="xMidYMid meet" height="100%" viewBox="-209 -461 659 1950"><polygon vector-effect="non-scaling-stroke" fill="none" points="373.5,1133 373.6,1133.8 373.8,1134.5 374.1,1136 374.5,1138 374.9,1140 375.2,1141.6 375.4,1143 375.5,1144 375.7,1145 375.9,1146 376.1,1147 376.3,1148 376.5,1149 376.7,1150 376.9,1151 377.1,1152 377.3,1153 377.5,1154 377.6,1154.5 377.8,1155.8 378,1157.2 378.3,1158.6 378.6,1160.2 378.9,1162.3 379.1,1163.7 379.3,1165 379.5,1166.3 379.8,1167.9 380,1169.1 380.2,1170.2 380.4,1171.3 380.5,1172.4 380.6,1173.4 380.8,1174.8 381,1176.2 381.2,1177.7 381.4,1179.2 381.5,1180.3 381.6,1181.3 381.8,1182.8 382,1184.3 382.2,1185.8 382.4,1187.4 382.5,1188.8 382.5,1189.7 382.5,1190.9 382.6,1192.1 382.7,1193.6 382.8,1194.9 383,1197 383.2,1198.7 383.3,1200.5 383.4,1201.9 383.5,1203.8 383.5,1204.9 383.5,1206.2 383.5,1207.6 383.5,1209.3 383.5,1210.7 383.5,1212.3 383.5,1213.9 383.5,1215.6 383.5,1217.1 383.5,1218.7 383.5,1220.4 383.5,1222 383.5,1223.6 383.5,1225.3 383.5,1227 383.5,1228.6 383.5,1230.3 383.5,1232 383.5,1233.7 383.5,1235.3 383.5,1237 383.5,1238.7 383.5,1240.3 383.5,1241.7 383.5,1243 383.4,1244.6 383.2,1246.2 383,1247.9 382.8,1249.8 382.6,1251.8 382.5,1253.5 382.5,1255.2 382.5,1256.8 382.5,1258.5 382.5,1260.1 382.5,1261.4 382.4,1263.1 382.2,1264.8 382,1266.5 381.8,1268.5 381.6,1270.5 381.5,1272.2 381.5,1273.8 381.5,1275.1 381.4,1276.7 381.2,1278.3 381,1279.9 380.8,1281.8 380.6,1283.7 380.5,1285 380.3,1287 380.1,1289 379.9,1290.8 379.7,1292.7 379.5,1294.6 379.3,1296.3 379.1,1297.9 378.9,1299.5 378.7,1301.1 378.5,1302.7 378.3,1304.3 378.1,1305.9 377.9,1307.3 377.7,1308.7 377.3,1310.6 377.1,1312.2 376.9,1313.8 376.7,1315.4 376.5,1317 376.3,1318.5 376.1,1320.1 375.9,1321.5 375.7,1323 375.5,1324.4 375.3,1326 375.1,1327.3 374.9,1328.9 374.7,1330.5 374.5,1332.1 374.3,1333.5 374.1,1335.1 373.9,1336.4 373.7,1337.7 373.4,1339.5 373.2,1340.8 373,1342.3 372.8,1343.8 372.6,1345.3 372.5,1346.3 372.4,1348 372.2,1349.3 372,1350.8 371.8,1352.3 371.6,1353.9 371.4,1355.3 371.3,1356.8 371.2,1358.1 371,1359.5 370.8,1361 370.7,1362 370.6,1362.9 370.5,1363.8 370.4,1365 370.3,1366.1 370.1,1367.7 369.9,1369.4 369.7,1371.2 369.6,1372.7 369.5,1374.1 369.5,1375.7 369.5,1377.2 369.5,1378.6 369.6,1379.7 369.7,1380.9 369.9,1381.9 370.1,1383 370.6,1384.7 371.1,1386.5 371.8,1388.4 372.4,1389.8 373.3,1391.3 374.3,1392.5 375.3,1393.6 376.1,1394.5 377.5,1395.6 378.6,1396.5 379.7,1397.2 381.4,1398.2 383.5,1399.2 385,1400 386.6,1400.7 387.9,1401.2 388.5,1401.5 388.8,1401.7 389.8,1402.1 390.9,1402.6 392,1403.1 393.4,1403.6 394.7,1404.2 395.7,1404.6 396.6,1404.9 397.6,1405.3 398.6,1405.8 400,1406.3 401.1,1406.7 402.2,1407.2 403.2,1407.6 404.1,1408 405.2,1408.5 406.3,1409 407.6,1409.6 408.9,1410.2 410.1,1410.6 411,1411 411.9,1411.4 412.8,1411.8 413.7,1412.2 415.1,1413 416.7,1413.9 418.3,1414.9 419.7,1415.7 421,1416.6 421.8,1417.1 422.3,1417.5 422.8,1417.8 423.4,1418.3 424.1,1418.9 424.8,1419.5 425.5,1420.1 426.1,1420.8 426.6,1421.4 427.1,1421.8 427.8,1422.8 428.4,1423.6 429,1424.4 429.6,1425.2 430.3,1426.7 430.8,1427.7 431.2,1428.8 431.6,1429.9 432,1431.4 432.3,1432.4 432.5,1433.7 432.7,1435.1 432.9,1436.6 433,1437.8 433,1439 433,1440 433,1441 433,1441.9 433,1442.7 432.9,1443.3 432.7,1444.5 432.4,1445.5 432.1,1446.5 431.8,1447.5 431.5,1448.6 431.1,1449.3 430.7,1450.3 430.2,1451.3 429.6,1452.5 428.9,1453.8 428.4,1454.8 427.8,1455.7 427.2,1456.5 426.6,1457.2 426,1457.9 425,1458.9 424.1,1459.7 423.3,1460.6 422.5,1461.4 421.8,1462 421.1,1462.5 420.4,1463 419.7,1463.5 419,1463.9 418,1464.6 417.3,1465 416.6,1465.5 415.6,1466 414.6,1466.5 414,1466.8 413.2,1467.2 412.4,1467.5 411.8,1467.8 411.2,1468.1 410.2,1468.4 409.3,1468.7 407.9,1469.1 406.6,1469.5 405.3,1469.9 404.3,1470.2 403.4,1470.4 403,1470.6 402.4,1470.7 401.3,1470.9 400.2,1471.1 399,1471.3 397.6,1471.4 396.4,1471.6 395.2,1471.7 393.9,1471.8 392.6,1471.9 391.4,1472 390,1472 389,1471.9 388,1471.8 387,1471.7 386,1471.6 385.1,1471.5 384.3,1471.5 383.6,1471.5 383,1471.5 382,1471.4 381,1471.3 380,1471.1 379,1470.9 378,1470.7 377,1470.5 376,1470.3 375,1470.1 374,1469.9 373,1469.7 372.1,1469.5 371.2,1469.2 370.3,1469 369.4,1468.8 368.1,1468.5 367.2,1468.2 366.3,1468 365.4,1467.8 364.1,1467.5 363.2,1467.2 362.3,1467 361.4,1466.8 360.2,1466.4 358.7,1465.9 357.2,1465.5 355.7,1465.1 353.9,1464.5 352.4,1464.1 351.6,1463.9 350.4,1463.5 349.2,1463.1 348.2,1462.9 346.8,1462.5 345.4,1462.1 344.4,1461.9 343.4,1461.6 342.5,1461.3 341.3,1460.9 340.1,1460.5 338.9,1460.1 337.7,1459.7 336.2,1459.2 335.3,1459 334.1,1458.6 332.3,1458 330.5,1457.5 328.7,1456.9 327,1456.3 325.1,1455.8 323.8,1455.4 322.4,1455 321.4,1454.7 320.1,1454.3 318.9,1453.9 317.7,1453.5 316.6,1453.1 315,1452.6 313.7,1452.2 312.7,1451.8 311.5,1451.4 309.9,1450.9 308.7,1450.5 307.4,1450.1 305.9,1449.6 304.5,1449.2 303.5,1448.8 302.3,1448.4 300.7,1447.8 299.4,1447.4 298.2,1447 296.7,1446.5 295.1,1446 294,1445.6 292.4,1445.1 290.8,1444.5 289.4,1444.1 288.3,1443.7 286.7,1443.2 285.6,1442.7 284.5,1442.3 282.9,1441.6 281.3,1441 280.2,1440.5 278.8,1439.9 277.1,1439.2 275.9,1438.7 274.7,1438.2 273.3,1437.6 271.9,1437 270.8,1436.5 269.5,1435.9 268.2,1435.2 266.7,1434.4 265.4,1433.8 264.1,1433.1 262.8,1432.3 261.2,1431.4 260,1430.8 258.6,1429.9 257.2,1429.1 256.1,1428.5 254.8,1427.7 253.4,1426.8 252.3,1426.1 251.2,1425.4 249.6,1424.4 248.5,1423.7 247.2,1422.8 245.8,1421.9 244.1,1420.7 242.9,1419.8 241.7,1418.9 240.6,1418.1 239.5,1417.2 238.2,1416.2 236.8,1415.2 235.4,1414.2 234.2,1413.3 233,1412.4 231.7,1411.4 230.5,1410.4 229.2,1409.4 228,1408.4 226.4,1407.2 225.4,1406.4 224.4,1405.6 223,1404.5 221.5,1403.4 220.5,1402.6 219.4,1401.7 218,1400.6 216.7,1399.5 215.4,1398.4 214.1,1397.3 212.7,1396.2 211.5,1395.2 210.6,1394.4 209.3,1393.3 207.9,1392.2 206.7,1391.2 205.5,1390.2 204.3,1389.2 203,1388.2 201.8,1387.2 200.6,1386.2 199.2,1385 197.8,1383.8 196.5,1382.6 195.1,1381.4 193.8,1380.2 192.6,1379.2 191.4,1378.2 190.2,1377.2 189,1376.2 187.7,1375.2 186.5,1374.2 185.2,1373.2 184,1372.2 182.8,1371.2 181.6,1370.2 180.4,1369.2 179.3,1368.2 178,1367.2 176.8,1366.2 175.6,1365.2 174.4,1364.1 173.3,1363.1 172.2,1362 171.1,1360.9 169.9,1359.7 168.4,1358.4 166.9,1357.1 165.8,1356.2 164.6,1355.2 163.4,1354.2 162.5,1353.4 161.6,1352.6 160.5,1351.6 159.4,1350.6 158,1349.3 156.7,1348.1 155.4,1346.9 154.3,1345.8 153.3,1344.8 152.3,1343.9 151.2,1342.9 150,1341.8 148.8,1340.7 147.5,1339.5 146.5,1338.5 145.2,1337.3 144,1336.2 142.9,1335.2 141.9,1334.3 141,1333.5 140.1,1332.6 139.2,1331.7 138.3,1330.8 137.3,1329.8 136.3,1328.8 135.4,1327.9 134.5,1327 133.5,1326 132.4,1324.9 131.3,1323.8 130.5,1323.1 129.5,1322.2 128.5,1321.3 127.6,1320.5 126.6,1319.6 125.5,1318.5 124.7,1317.6 123.8,1316.6 123,1315.7 122.2,1314.8 121.4,1314 120.5,1313.2 119.9,1312.6 119.3,1312 118.6,1311.2 118,1310.4 117.5,1309.6 116.8,1308.6 115.9,1307.3 115.3,1306.3 114.7,1305.3 114.1,1304.3 113.6,1303.5 113.4,1303 113,1302.2 112.7,1301.4 112.4,1300.6 112.1,1299.8 111.8,1299 111.7,1298.4 111.6,1297.7 111.5,1296.9 111.5,1296 111.5,1295 111.5,1294 111.5,1293 111.5,1291.6 111.6,1290.3 111.7,1289.1 111.8,1288 111.9,1287 112.2,1286.2 112.4,1285.4 112.6,1284.6 112.9,1283.4 113.3,1282.2 113.5,1281.3 113.8,1280.4 114.2,1279.2 114.5,1278.4 114.8,1277.6 115.2,1276.5 115.6,1275.4 115.9,1274.6 116.3,1273.8 116.7,1272.8 117.1,1271.7 117.5,1270.6 117.9,1269.5 118.3,1268.4 118.6,1267.5 118.9,1266.8 119.2,1265.7 119.6,1264.6 119.9,1263.5 120.2,1262.4 120.6,1261.1 120.9,1260.2 121.1,1259.3 121.4,1257.6 121.7,1255.6 121.8,1253.9 121.9,1252.1 122,1250.2 122,1249 122,1248 121.8,1246.6 121.6,1245.3 121.4,1244.1 121.1,1242.7 120.7,1241.4 120.5,1240.6 119.9,1239.2 119.3,1237.8 118.7,1236.7 118.2,1235.6 117.4,1234.2 116.9,1233.4 116.4,1232.6 115.6,1231.4 114.7,1230.3 114,1229.4 113.3,1228.5 112.3,1227.4 111.6,1226.7 111,1225.9 110.4,1225.3 109.6,1224.4 109,1223.6 108.3,1222.7 107.5,1221.8 106.7,1220.8 106.2,1220.1 105.5,1219.2 104.7,1218.2 103.8,1217.1 102.9,1216 102,1214.9 101.3,1214.1 100.3,1212.9 99.4,1211.8 98.5,1210.7 97.3,1209.3 96.1,1207.8 95.4,1206.9 94.7,1206 93.7,1204.6 92.8,1203.4 91.9,1202.3 91.1,1201.2 90.3,1200.1 89.5,1199.1 88.7,1198.1 87.8,1197 86.8,1195.9 85.9,1194.8 85,1193.8 84.2,1192.8 83.4,1191.8 82.5,1190.7 81.5,1189.6 80.8,1188.8 79.9,1187.8 79.1,1186.7 78.3,1185.6 77.2,1184.3 76.2,1183 75.4,1182 74.6,1181.2 73.6,1180.1 72.8,1179 71.8,1177.9 70.7,1176.6 69.6,1175.3 68.8,1174.4 67.9,1173.4 67.2,1172.4 66.6,1171.6 65.7,1170.4 64.7,1169 63.9,1167.9 63,1166.8 61.8,1165.3 60.8,1164.1 59.8,1163 58.7,1161.7 57.5,1160.3 56.6,1159.3 55.8,1158.4 54.8,1157.2 53.8,1156.1 52.9,1155.1 51.8,1153.9 50.7,1152.6 49.9,1151.7 49.2,1150.9 48.2,1149.6 47.3,1148.4 46.3,1147.2 45.1,1145.7 43.9,1144.2 43,1143.2 42,1142 41,1140.8 40.1,1139.8 39.1,1138.7 37.7,1137.3 36.5,1136.2 35.4,1135.1 34.4,1134.1 33.2,1132.9 32.3,1131.9 31,1130.6 29.7,1129.4 28.4,1128.2 27.4,1127.4 25.8,1126.3 24.6,1125.5 23.2,1124.6 21.8,1123.7 20,1122.5 18.9,1121.8 17.8,1121.1 16.6,1120.3 15.3,1119.5 14,1118.7 12.7,1117.9 11.4,1117.1 10,1116.3 8.7,1115.5 7.8,1114.9 6.9,1114.3 5.6,1113.4 4.7,1112.7 3.7,1112 2.3,1111 0.9,1109.9 -0.1,1109.1 -1.1,1108.3 -2.1,1107.5 -3.1,1106.6 -4.1,1105.8 -5.1,1105 -6.5,1103.9 -7.7,1102.8 -9,1101.6 -10.3,1100.3 -11.6,1099 -12.5,1098 -14,1096.5 -15,1095.5 -16.3,1094 -17.7,1092.4 -19.1,1090.8 -20,1089.7 -21.2,1088.2 -22.1,1087.1 -22.8,1086.1 -23.7,1084.8 -24.7,1083.4 -25.4,1082.4 -26.1,1081.5 -27,1080.1 -27.7,1079 -28.3,1078 -29.1,1076.6 -29.8,1075.2 -30.5,1074.1 -31.3,1072.7 -32,1071.3 -32.6,1070 -33.4,1068.5 -34,1067.2 -34.6,1065.9 -35.4,1064.4 -36,1063.2 -36.6,1062 -37.2,1060.7 -37.7,1059.7 -38.1,1058.5 -38.6,1057.3 -38.9,1056.3 -39.5,1054.7 -40,1053.1 -40.5,1051.8 -40.9,1050.5 -41.5,1048.7 -41.8,1047.6 -42.2,1046 -42.6,1044.5 -43.1,1042.6 -43.4,1041.2 -43.8,1039.7 -44.1,1038.7 -44.4,1037 -44.7,1035.7 -45,1034.3 -45.2,1033 -45.4,1031.4 -45.7,1030 -45.9,1028.5 -46.1,1027.1 -46.3,1025.6 -46.5,1024.2 -46.5,1023 -46.6,1021.6 -46.8,1019.7 -47,1017.9 -47.2,1016.2 -47.4,1014.8 -47.5,1013.4 -47.5,1012.5 -47.5,1011.2 -47.6,1009.9 -47.7,1008.3 -47.8,1006.9 -47.9,1005.2 -48,1003.6 -48,1002 -48,1000.4 -48,998.8 -48,997.3 -48,995.7 -48,994.1 -48,992.8 -48,991.2 -48,989.5 -48,988.2 -48,986.8 -48,985.1 -47.9,983.7 -47.8,982.4 -47.7,980.9 -47.6,979.3 -47.5,978 -47.5,976.4 -47.5,975 -47.5,973.4 -47.5,971.9 -47.5,970.2 -47.5,968.8 -47.5,967.3 -47.5,966.1 -47.5,965.1 -47.4,963.7 -47.3,962.3 -47.2,961 -47.1,959.4 -47,957.8 -47,956.4 -47,955 -47,953.5 -47,952.1 -47,950.7 -47,949.5 -47,948.1 -47,946.8 -47,945.4 -47,944 -47,942.6 -47,941.4 -47,940 -47,938.8 -47,937.5 -47,936.1 -47,934.7 -47,933.5 -47,932.4 -46.9,931.4 -46.7,930.2 -46.5,929.1 -46.3,927.6 -46.1,926.2 -46,924.6 -46,923.4 -46,922 -46,920.8 -46,919.5 -46,918.3 -46,916.9 -46,915.6 -46,914.4 -46,913.3 -46,912.1 -46,910.9 -46,909.8 -46,908.6 -46,907.3 -46,905.5 -46,903.9 -46,902.2 -46,900.7 -46,899.1 -46,898.1 -46,897 -46,895.8 -46,894.5 -46,893.3 -46,892.1 -46,891.1 -46,890.1 -46,889.1 -46,888.1 -46,887 -46,885.7 -46,884.5 -46,883.3 -46,882.1 -46,881 -46,880.1 -46,879.1 -45.9,878.1 -45.8,877.1 -45.7,876.1 -45.6,875 -45.5,874 -45.5,873.1 -45.6,872.1 -45.7,870.9 -45.8,869.7 -45.9,868.5 -46,867.2 -46,866 -46,865 -46.1,863.6 -46.2,862.2 -46.3,860.9 -46.5,859.7 -46.8,858 -47.1,856.8 -47.6,855.3 -48.4,853.3 -49.1,851.3 -49.8,850 -50.4,848.7 -51.2,847.3 -51.8,846.5 -52.4,845.7 -53.2,844.6 -54.1,843.6 -54.6,843.1 -55.1,842.6 -55.8,841.9 -56.3,841.5 -57.6,840.5 -59,839.5 -60.6,838.4 -62,837.5 -63.7,836.5 -65.3,835.9 -67,835.4 -69,834.8 -71.2,834.3 -73.2,833.9 -74.8,833.7 -76.4,833.6 -77.6,833.7 -79.3,833.9 -80.9,834.1 -82.2,834.4 -83.8,834.7 -85.4,835 -86.7,835.4 -88,835.8 -89.3,836.1 -90.2,836.3 -91.5,836.7 -92.5,836.9 -93.5,837.1 -94.9,837.5 -96.3,837.9 -97.3,838.1 -98.3,838.3 -99.4,838.6 -100.2,838.7 -101.1,838.8 -102,838.9 -103,839 -104,839 -105,839.1 -106,839.2 -107,839.3 -108,839.4 -109,839.5 -110,839.5 -111,839.5 -112,839.5 -113,839.4 -114,839.3 -115,839.2 -115.9,839.1 -116.7,839 -117.4,839 -118,838.9 -118.8,838.7 -119.6,838.5 -120.4,838.3 -121.5,837.9 -122.6,837.6 -123.4,837.4 -124.1,837.1 -125.1,836.7 -125.8,836.4 -126.5,836.1 -127.2,835.8 -128.2,835.4 -128.9,835 -129.8,834.6 -130.7,834.2 -131.6,833.7 -132.3,833.4 -133.3,832.9 -134.3,832.3 -135.3,831.7 -136.2,831.1 -137.1,830.5 -137.7,830.1 -138.5,829.5 -139.3,828.9 -140.2,828.3 -141.3,827.4 -142.8,826.2 -143.9,825.3 -145,824.4 -146,823.5 -146.8,822.8 -147.2,822.4 -147.9,821.8 -148.5,821.1 -149.2,820.4 -149.9,819.7 -150.6,819 -151.1,818.2 -151.7,817.4 -152.7,816.1 -153.7,814.8 -155,813 -156.1,811.5 -157.2,810 -158,808.8 -158.7,807.6 -159.2,806.7 -159.7,805.8 -160.3,804.7 -161,803.5 -161.7,802.3 -162.5,800.9 -163.3,799.4 -164,798.1 -164.5,796.8 -165.1,795.5 -165.4,794.6 -165.8,793.5 -166.3,792.2 -166.7,791.2 -167.1,790.1 -167.6,788.7 -168,787.6 -168.3,786.7 -168.6,785.8 -168.9,784.6 -169.3,783.4 -169.7,782.2 -170.1,781 -170.5,779.8 -170.8,779 -171,777.9 -171.3,776.8 -171.6,775.4 -171.9,773.9 -172.3,772.4 -172.7,771.1 -173,769.8 -173.3,768.8 -173.6,767.8 -173.9,766.3 -174.1,765.1 -174.4,763.9 -174.6,762.7 -174.9,761.1 -175.1,760 -175.4,758.9 -175.6,757.8 -175.9,756.1 -176.1,754.9 -176.4,753.7 -176.6,752.6 -176.9,750.9 -177.1,749.8 -177.4,748.7 -177.6,747.4 -177.9,745.6 -178.1,744.4 -178.4,743.2 -178.6,741.9 -178.8,740.8 -179,739.6 -179.2,738.3 -179.4,737 -179.6,735.8 -179.8,734.3 -179.9,733.4 -180.1,731.9 -180.3,730.4 -180.5,728.9 -180.7,727.5 -181,725.6 -181.2,724.4 -181.4,723.1 -181.6,721.8 -181.8,720.4 -181.9,719.4 -182,718.3 -182.1,716.6 -182.2,714.9 -182.4,713.4 -182.6,712 -182.8,710.6 -182.9,709.7 -183,708.6 -183,707.3 -183,706 -183.1,704.1 -183.3,702.4 -183.5,700.9 -183.7,699.5 -183.9,698.1 -184,697 -184,695.8 -184,694.3 -184,692.9 -184.1,690.8 -184.2,689.1 -184.4,687.4 -184.6,686 -184.8,684.6 -184.9,683.7 -185,682.6 -185,681.4 -185,680 -185,678.5 -185.1,676.6 -185.3,674.8 -185.5,673.2 -185.7,671.7 -185.9,670.2 -186,669.1 -186,667.9 -186,666.4 -186,665 -186.2,663 -186.4,661.1 -186.6,659.4 -186.8,657.8 -187,656.2 -187,655 -187,653.9 -187,652.4 -187,651.1 -187.2,649 -187.4,647.3 -187.6,645.5 -187.8,643.9 -188,642.3 -188,641.1 -188,639.6 -188,638.2 -188.1,636.4 -188.3,634.5 -188.5,632.9 -188.7,631.6 -188.9,629.9 -189,628.8 -189,627.5 -189,625.9 -189,624.3 -189.1,622.3 -189.3,620.2 -189.5,618.4 -189.7,616.8 -189.9,615.2 -190,614 -190,612.6 -190,611.2 -190,609.6 -190,607.7 -190,606.2 -190,604.6 -190.2,602.4 -190.4,600.6 -190.6,599 -190.8,597.1 -191,595.5 -191,594.2 -191,592.6 -191,591 -191,589.4 -191,587.6 -191,586 -191,584.4 -191,582.6 -191,581 -191,579.4 -191,577.6 -191,576 -191,574.4 -191,572.6 -191.1,571 -191.2,569.4 -191.3,567.6 -191.4,566 -191.5,564.4 -191.6,562.3 -191.7,560.5 -191.8,558.9 -191.9,557.2 -192,555.6 -192,554.3 -192,552.8 -192,551.1 -192,549.4 -192,547.7 -192,546.1 -192,544.4 -192,542.8 -192,541.2 -192,539.5 -192,537.8 -192,536.2 -192,534.6 -192,532.9 -192,531.3 -192,529.7 -192,528 -192,526.3 -192,524.7 -192,522.9 -192,521.3 -192,519.7 -192,518.2 -192,516.9 -191.9,515.4 -191.8,513.5 -191.6,511.9 -191.4,510 -191.2,508.1 -191.1,506.2 -191,504.6 -191,503 -191,501.4 -191,499.5 -191,498.2 -191,496.6 -191,495 -191,493.7 -190.8,492.1 -190.6,490.4 -190.4,488.8 -190.2,487.2 -190,485.4 -190,483.8 -190,482.2 -190,480.8 -189.9,479.4 -189.7,477.8 -189.5,476.2 -189.3,474.7 -189.1,473 -189,471.1 -189,469.5 -189,468 -188.9,466.5 -188.8,465.2 -188.6,463.6 -188.4,461.9 -188.2,460.3 -188.1,458.5 -188,456.5 -187.9,454.9 -187.8,453.5 -187.7,452.2 -187.5,450.6 -187.3,449 -187.2,447.4 -187.1,445.6 -186.9,443.9 -186.8,442.4 -186.7,441.1 -186.6,439.9 -186.4,438.3 -186.3,436.7 -186.1,435 -185.9,433.3 -185.7,431.6 -185.5,430 -185.3,428.4 -185.2,426.8 -185,425.3 -184.8,423.5 -184.7,422.2 -184.6,420.9 -184.4,419.4 -184.3,417.7 -184.1,416.1 -183.9,414.6 -183.7,413 -183.5,411.3 -183.3,409.8 -183.1,408.4 -182.9,407 -182.6,405 -182.4,403.6 -182.1,401.9 -181.9,400.2 -181.7,398.5 -181.5,396.9 -181.3,395.3 -181.1,393.9 -180.9,392.6 -180.6,390.7 -180.4,389.1 -180.1,387.6 -179.9,386.1 -179.7,384.6 -179.5,383 -179.2,381.7 -179,380.3 -178.8,379 -178.5,377 -178.2,375.6 -178,374.2 -177.7,372.3 -177.4,370.4 -177.1,369.1 -176.9,367.9 -176.6,366.1 -176.3,364.9 -176,363.6 -175.7,361.9 -175.3,360.1 -175,358.8 -174.7,357.1 -174.3,355.4 -174,354.2 -173.7,352.5 -173.3,350.9 -173,349.6 -172.7,348.1 -172.3,346.5 -171.9,345 -171.6,343.4 -171.2,341.8 -170.8,340.2 -170.4,338.7 -170,337.1 -169.5,335.5 -169.1,334 -168.8,332.8 -168.4,331.2 -168.1,330.2 -167.7,328.9 -167.3,327.6 -166.8,325.8 -166.4,324.3 -165.9,322.5 -165.5,321.1 -165,319.2 -164.5,317.8 -164.1,316.4 -163.6,315 -163.2,313.5 -162.8,312.2 -162.4,310.8 -161.9,309.1 -161.5,307.6 -161.1,306.2 -160.6,304.7 -160.2,303.3 -159.8,301.9 -159.4,300.6 -158.9,298.7 -158.5,297.1 -158.1,295.5 -157.6,294 -157.2,292.4 -156.8,291.1 -156.4,289.8 -155.9,288 -155.5,286.4 -155.1,284.9 -154.7,283.3 -154.3,281.8 -153.9,280.3 -153.5,278.9 -153.1,277.4 -152.6,275.8 -152.2,274.2 -151.8,272.7 -151.4,271.2 -151,269.8 -150.7,268.4 -150.3,267 -149.9,265.6 -149.5,264.1 -149,262.2 -148.6,260.7 -148.2,259.2 -147.8,257.5 -147.5,255.9 -147.2,254.6 -146.8,253 -146.4,251.3 -146.1,250.2 -145.7,248.6 -145.3,247.1 -144.9,245.5 -144.6,244 -144.2,242.4 -143.8,241 -143.4,239.5 -143,238.1 -142.6,236.6 -142.2,235.2 -141.8,233.5 -141.5,231.9 -141.2,230.6 -140.8,229 -140.4,227.3 -140.1,226.2 -139.7,224.7 -139.3,223.2 -139,222.1 -138.7,220.6 -138.3,219.1 -137.9,217.5 -137.6,216 -137.2,214.5 -136.8,213.1 -136.5,211.7 -136.2,210.8 -135.8,209.3 -135.4,207.8 -135.1,206.7 -134.7,205.1 -134.3,203.5 -134,202.5 -133.8,201.5 -133.4,200.1 -133.1,199.2 -132.8,198.3 -132.4,197.2 -131.9,195.7 -131.5,194.5 -131.1,193.3 -130.8,192.1 -130.4,190.9 -130.1,190.1 -129.7,189.2 -129.3,188.3 -128.8,187.4 -128.5,186.7 -128.1,186 -127.7,185.5 -127.3,185 -126.8,184.4 -126.2,183.7 -125.5,182.9 -124.9,182.2 -124.2,181.4 -123.5,180.6 -122.8,180 -122.1,179.4 -121.4,178.8 -120.5,178.2 -119.7,177.8 -118.8,177.3 -118,177 -116.8,176.6 -115.8,176.3 -114.8,176 -113.8,175.8 -112.7,175.6 -111.9,175.5 -111,175.5 -110,175.5 -108.8,175.5 -107.6,175.5 -106.4,175.6 -105.2,175.7 -104,175.8 -102.8,175.9 -101.6,175.9 -100.4,175.8 -99.2,175.7 -97.6,175.5 -96.2,175.3 -94.9,175.2 -93.3,174.9 -91.8,174.6 -90.4,174.3 -89.1,173.9 -87.8,173.5 -86.6,173.2 -84.8,172.4 -83.4,171.7 -82,171 -80.2,170 -78.7,169 -77.8,168.5 -76.3,167.4 -74.8,166.3 -73.7,165.5 -72.7,164.7 -71.3,163.4 -70.5,162.7 -69.7,162 -68.9,161.1 -68,160.2 -67.3,159.6 -66.7,158.9 -66,158.1 -65.2,157.3 -64.5,156.5 -63.6,155.4 -62.6,154.1 -61.7,152.9 -61,151.8 -60.2,150.7 -59.5,149.6 -58.9,148.7 -58.2,147.6 -57.5,146.5 -56.7,145.2 -56.3,144.3 -55.7,143.2 -55.3,142.3 -54.7,141.2 -54.2,140 -53.6,138.8 -53.2,137.8 -52.7,136.8 -52.3,135.8 -51.8,134.8 -51.4,133.8 -50.8,132.6 -50.2,131 -49.6,129.6 -49.2,128.5 -48.8,127.3 -48.4,126.1 -48,125 -47.6,123.9 -47.2,122.8 -46.7,121.3 -46.3,120 -46,119 -45.7,118 -45.3,116.8 -44.8,115.7 -44.4,114.6 -43.9,113.1 -43.4,111.5 -43,110.1 -42.7,109.1 -42.3,107.9 -41.8,106.6 -41.4,105.4 -41,104.2 -40.5,102.7 -40,101 -39.6,99.7 -39.2,98.4 -38.7,96.7 -38.3,95.2 -38,94.1 -37.6,92.8 -37.1,91.1 -36.6,89.7 -36.2,88.4 -35.7,86.7 -35.3,85.2 -35,84.1 -34.6,82.7 -34.2,81.3 -33.7,79.8 -33.3,78.4 -32.8,76.6 -32.4,75.2 -31.9,73.3 -31.5,71.8 -31.1,70.3 -30.6,68.7 -30.2,67.1 -29.8,65.9 -29.4,64.6 -28.9,62.7 -28.5,61.2 -28.1,59.7 -27.6,57.8 -27.2,56.1 -26.7,54.4 -26.3,52.7 -25.9,51 -25.5,49.4 -25.1,47.7 -24.7,46.2 -24.3,44.7 -23.7,42.8 -23.3,41.3 -22.8,39.3 -22.4,37.7 -22,36.1 -21.7,34.5 -21.3,32.9 -20.9,31.3 -20.5,29.6 -20.1,28 -19.7,26.4 -19.3,24.7 -18.9,23.1 -18.5,21.5 -18.1,19.8 -17.7,18.1 -17.3,16.4 -16.9,14.6 -16.6,12.9 -16.2,11.2 -15.8,9.5 -15.4,7.8 -15,6.2 -14.6,4.5 -14.2,2.8 -13.8,1 -13.5,-0.9 -13.2,-2.4 -12.9,-3.8 -12.5,-5.6 -12.2,-7 -11.8,-8.9 -11.4,-10.9 -10.9,-13.4 -10.5,-15.4 -10.1,-17.4 -9.7,-19.3 -9.3,-21.1 -9,-22.4 -8.6,-24.4 -8.2,-26.4 -7.9,-27.8 -7.5,-29.6 -7.1,-31.5 -6.8,-33.2 -6.4,-34.8 -6,-36.5 -5.7,-38.3 -5.3,-40 -5,-41.3 -4.7,-43.2 -4.3,-45.1 -4,-46.4 -3.7,-48.4 -3.3,-50.4 -3,-51.9 -2.7,-53.7 -2.3,-55.6 -1.9,-57.4 -1.6,-59.1 -1.2,-60.8 -0.8,-62.7 -0.5,-64.8 -0.2,-66.3 0.1,-67.9 0.4,-69.9 0.7,-71.5 1,-72.9 1.2,-74.4 1.6,-76.5 1.9,-78.1 2.1,-79.6 2.4,-81.5 2.8,-83.6 3,-85 3.2,-86.5 3.6,-88.6 3.9,-90.2 4.1,-91.6 4.5,-93.4 4.9,-95.2 5.2,-96.8 5.5,-98.6 5.9,-100.4 6.1,-101.8 6.4,-103.8 6.7,-105.4 7,-106.9 7.3,-108.7 7.7,-110.8 8,-112.3 8.3,-114.2 8.6,-116.2 8.9,-118.1 9.1,-119.8 9.3,-121.4 9.6,-123 9.9,-124.7 10.1,-126.2 10.3,-127.6 10.7,-129.7 10.9,-131.6 11.1,-133.3 11.3,-134.9 11.6,-137 11.8,-138.8 12,-140.6 12.2,-142.3 12.4,-144.1 12.6,-145.9 12.8,-147.6 13,-149.2 13.2,-151.1 13.4,-153.2 13.5,-154.9 13.5,-156.3 13.6,-158 13.7,-159.7 13.8,-161.4 14,-163.2 14.2,-165.3 14.3,-167.2 14.4,-168.9 14.5,-170.3 14.6,-172.1 14.7,-173.9 14.8,-175.7 14.9,-177.4 15,-179.4 15,-181.1 15,-182.8 15.1,-184.4 15.2,-186.1 15.3,-187.6 15.5,-189.5 15.7,-191.2 15.8,-193.1 15.9,-195 16,-197 16,-198.8 16,-200.5 16,-202.1 16,-203.8 16,-205.6 16,-207.2 16,-209 16,-210.8 16.1,-212.5 16.2,-214.2 16.3,-215.8 16.4,-217.3 16.5,-218.6 16.6,-220.4 16.7,-222.1 16.7,-224.3 16.7,-226.5 16.7,-228.6 16.6,-230.2 16.5,-231.9 16.5,-233.1 16.5,-234.6 16.5,-236.2 16.4,-238 16.3,-239.7 16.2,-241.5 16.1,-243.2 16,-244.8 16,-246.4 15.9,-248.6 15.8,-250.5 15.7,-252.2 15.6,-254 15.5,-255.7 15.4,-256.9 15.3,-258.3 15.2,-259.8 15,-261.8 14.8,-263.7 14.7,-265.3 14.5,-267 14.3,-268.8 14.2,-270 14,-271.9 13.8,-273.8 13.6,-275.5 13.4,-277.1 13.1,-279.2 12.9,-280.6 12.6,-282.1 12.4,-283.5 12.1,-285.5 11.9,-287 11.6,-288.5 11.4,-290.1 11.1,-292.2 10.9,-293.6 10.6,-295.1 10.3,-297 10,-298.8 9.7,-300.2 9.4,-301.6 9.1,-303.4 8.9,-304.8 8.5,-306.6 8.2,-308.3 7.9,-310 7.6,-311.2 7.2,-312.9 7,-314.1 6.7,-315.4 6.3,-317.2 6,-319.1 5.7,-320.4 5.3,-322.2 5,-324 4.7,-325.2 4.3,-326.8 4,-328.4 3.7,-329.6 3.3,-331.2 3,-332.9 2.8,-334.1 2.4,-335.9 2.1,-337.6 1.9,-338.8 1.5,-340.4 1.1,-342 0.9,-343.1 0.6,-344.2 0.2,-345.9 0,-347.1 -0.3,-348.3 -0.7,-349.9 -1,-351.6 -1.3,-352.7 -1.7,-354.3 -2,-355.9 -2.2,-357.1 -2.5,-358.2 -2.8,-359.9 -3,-361.1 -3.3,-362.4 -3.7,-364.1 -4,-365.8 -4.3,-366.9 -4.7,-368.5 -5,-370 -5.3,-371 -5.6,-372.1 -5.9,-373.7 -6.1,-374.8 -6.4,-376 -6.7,-377.6 -7,-379.1 -7.3,-380.1 -7.7,-381.6 -8,-383 -8.2,-384 -8.5,-385 -8.8,-386.5 -9,-387.5 -9.2,-388.5 -9.6,-389.9 -9.9,-391.4 -10.1,-392.4 -10.4,-393.4 -10.8,-394.9 -11,-396.1 -11.2,-397.2 -11.6,-398.7 -11.9,-400.2 -12.1,-401.2 -12.3,-402.1 -12.6,-403.4 -12.8,-404.3 -13,-405.2 -13.2,-406.1 -13.5,-407.4 -13.7,-408.3 -13.9,-409.2 -14.1,-410.1 -14.3,-411 -14.5,-412 -14.7,-413 -14.9,-413.9 -15.1,-414.8 -15.3,-415.7 -15.5,-416.5 -15.7,-417.3 -15.9,-418.3 -16.1,-419.3 -16.3,-420.4 -16.4,-421.2 -16.5,-422.3 -16.5,-423.4 -16.5,-424.6 -16.5,-425.8 -16.5,-427 -16.5,-427.9 -16.5,-428.7 -16.4,-429.3 -16.2,-430.1 -16,-430.8 -15.8,-431.5 -15.5,-432.1 -15.3,-432.8 -15.1,-433.4 -14.8,-433.9 -14.5,-434.4 -14.1,-435.1 -13.6,-435.9 -13.1,-436.4 -12.6,-437.1 -12,-437.7 -11.5,-438.3 -11,-438.7 -10.5,-439.3 -10,-439.7 -9.4,-440.3 -8.5,-440.9 -7.5,-441.6 -6.5,-442.1 -5,-442.7 -3.6,-443.2 -2.4,-443.5 -1.2,-443.7 0.1,-443.9 1,-444 1.9,-444 3.2,-443.8 4.4,-443.6 5.5,-443.4 6.5,-443.2 7.4,-442.9 7.8,-442.8 8.4,-442.6 8.9,-442.3 9.4,-442 10,-441.8 10.5,-441.5 10.8,-441.3 11.6,-440.8 12.4,-440.3 13.1,-439.7 13.9,-439.2 14.6,-438.6 15.4,-437.7 16.2,-436.6 17.1,-435.4 18,-434.1 19.1,-432.5 19.6,-431.5 20.2,-430.2 20.7,-429 21.1,-427.8 21.3,-426.9 21.6,-425.6 21.8,-424.8 22,-424 22.2,-423.2 22.4,-422.4 22.5,-422 22.7,-421 22.9,-420 23.1,-418.9 23.4,-417.8 23.8,-416.2 24,-415.1 24.2,-414 24.4,-413 24.6,-412 24.7,-411.4 24.9,-410.3 25.1,-409.2 25.3,-408.1 25.5,-407 25.7,-406 25.8,-405.4 25.9,-404.7 26,-403.9 26.2,-402.6 26.4,-401.3 26.6,-400.1 26.8,-399 27,-398 27.1,-397.4 27.2,-396.7 27.3,-395.9 27.5,-394.6 27.7,-393.3 27.9,-392.1 28.1,-391 28.3,-390 28.4,-389.4 28.5,-388.7 28.5,-387.9 28.5,-387 28.6,-386 28.8,-384.6 29,-383.3 29.2,-382.1 29.4,-381 29.5,-380 29.5,-379.4 29.5,-378.5 29.5,-377.5 29.5,-376.4 29.5,-375.2 29.5,-374 29.5,-373 29.5,-372 29.5,-371 29.6,-369.6 29.7,-368.3 29.8,-367.1 29.9,-366 30,-365 30,-364.5 30,-363.8 30,-363 30,-362.1 30,-361.1 30,-360 30,-359 30.1,-357.8 30.3,-356.2 30.5,-354.7 30.7,-353.3 30.9,-352 31,-351 31,-350.4 31,-349.7 31.1,-348.5 31.2,-347.3 31.3,-346.1 31.5,-345 31.7,-344 31.8,-343.4 32,-342.2 32.2,-341 32.4,-339.8 32.7,-338.2 33,-336.7 33.2,-335.8 33.5,-334.9 33.8,-333.6 34,-332.7 34.3,-331.8 34.6,-330.9 34.9,-329.6 35.3,-328.5 35.7,-327.3 36,-326.1 36.4,-324.9 36.8,-323.7 37.1,-322.5 37.5,-321.4 38,-320.1 38.5,-318.8 38.9,-317.9 39.3,-317.2 39.7,-316.2 40.1,-315.1 40.6,-313.8 41.1,-312.5 41.6,-311.2 42.1,-310.2 42.6,-309.2 43.1,-308.1 43.7,-307 44.2,-305.9 44.7,-304.8 45.2,-303.6 45.7,-302.5 46.1,-301.4 46.6,-300.3 47,-299.2 47.5,-298.2 48.1,-297.1 48.7,-295.9 49.3,-294.7 49.9,-293.5 50.5,-292.3 50.9,-291.2 51.4,-290.2 52,-288.7 52.7,-287.2 53.3,-286 53.8,-285 54.3,-284 54.7,-283.2 55.2,-282.1 55.7,-280.8 56.3,-279.5 57,-278 57.6,-276.7 58.3,-275.3 58.9,-274.1 59.5,-272.9 59.9,-271.8 60.5,-270.5 61.1,-269.3 61.7,-268.1 62.3,-266.8 62.9,-265.6 63.5,-264.4 63.9,-263.5 64.5,-262.1 65.1,-260.8 65.7,-259.5 66.3,-258.1 67,-256.5 67.5,-255.4 68.1,-254.1 68.8,-252.5 69.4,-251.3 69.8,-250.3 70.5,-248.8 71.1,-247.5 71.6,-246.5 72.2,-245.1 72.8,-243.7 73.4,-242.3 73.9,-240.9 74.5,-239.5 75.1,-238.1 75.7,-236.7 76.3,-235.4 76.9,-234 77.5,-232.6 78,-231.6 78.6,-230.2 79.2,-228.8 79.8,-227.4 80.4,-226 80.9,-224.6 81.5,-223.2 82.1,-221.8 82.7,-220.4 83.3,-219 83.9,-217.6 84.5,-216.2 84.9,-215.2 85.5,-213.7 86.1,-212.2 86.8,-210.5 87.4,-209.1 87.9,-207.7 88.4,-206.5 89.1,-204.9 89.7,-203.4 90.3,-202 90.9,-200.6 91.5,-199.2 91.8,-198.2 92.3,-196.9 93,-195.2 93.7,-193.4 94.3,-192 95,-190.2 95.6,-188.8 95.9,-187.8 96.4,-186.5 97.1,-184.8 97.7,-183.4 98.3,-182 99,-180.2 99.6,-178.8 100,-177.4 100.5,-176.1 101.1,-174.4 101.7,-172.9 102.3,-171.3 102.8,-170.1 103.4,-168.5 103.9,-167.3 104.4,-165.9 105.1,-164.2 105.8,-162.4 106.4,-161 107.1,-159.2 107.7,-157.8 108.2,-156.4 108.9,-154.8 109.5,-153.2 110.1,-151.6 110.7,-150 111.4,-148.3 111.9,-146.9 112.5,-145.4 113.1,-143.9 113.7,-142.4 114.3,-140.8 114.9,-139.2 115.5,-137.6 116.1,-136 116.7,-134.4 117.2,-133 117.8,-131.6 118.5,-129.7 119.1,-128.1 119.8,-126.5 120.4,-124.9 121.2,-122.8 121.8,-121.3 122.4,-119.8 123.1,-117.8 123.9,-115.7 124.5,-114.1 125.2,-112.4 125.9,-110.4 126.5,-108.9 127.2,-107.3 127.8,-105.6 128.4,-103.9 129.1,-102.3 129.7,-100.6 130.2,-99.1 131,-97.1 131.7,-95.1 132.3,-93.4 133.1,-91.4 133.9,-89.5 134.4,-88.1 135.1,-86.4 135.8,-84.7 136.5,-82.8 137.1,-81.1 137.9,-79.1 138.6,-77.2 139.4,-75.1 140.1,-73.5 140.8,-71.9 141.5,-70 142.2,-68.3 142.9,-66.4 143.5,-64.5 144.2,-62.4 144.9,-60.7 145.6,-59 146.3,-57.1 147.1,-55.2 147.9,-53.2 148.5,-51.4 149.2,-49.4 149.9,-47.7 150.6,-46 151.2,-44.3 151.9,-42.6 152.6,-40.7 153.2,-38.7 153.9,-36.5 154.6,-34.6 155.4,-32.4 156,-30.7 156.8,-28.8 157.5,-27.1 158.2,-25.1 158.9,-23.2 159.7,-21.2 160.3,-19.4 161.1,-17.1 161.9,-15.1 162.5,-13.3 163.2,-11.1 163.9,-9.2 164.5,-7.3 165.1,-5.4 165.9,-3.2 166.5,-1.4 167.3,0.9 168,2.7 168.6,4.5 169.2,6.4 169.9,8.6 170.4,10.3 170.9,11.9 171.5,13.9 172.1,15.8 172.6,17.4 173.2,19.4 173.7,21.5 174.3,23.5 174.8,25.2 175.4,27.3 175.9,29 176.5,31.1 177,32.9 177.5,35.1 177.9,36.9 178.4,39.2 178.8,41.1 179.3,43.4 179.7,45.3 180.2,47.2 180.6,49.1 181.1,51 181.5,53 181.9,55 182.4,57.4 182.8,59.3 183.2,61.2 183.6,63.2 184.1,65.2 184.5,67.1 184.9,69 185.4,71.5 185.8,73.4 186.3,75.8 186.7,77.9 187.2,80 187.6,82.1 188,84.2 188.4,86.2 188.8,88.2 189.3,90.6 189.7,92.4 190.2,94.2 190.6,96.2 191,98.2 191.4,100.2 191.8,102.2 192.2,104.2 192.6,106.1 193,108 193.3,109.5 193.7,111.6 194.1,113.7 194.5,115.8 195,117.9 195.5,120.3 195.9,122.1 196.3,123.9 196.7,125.8 197.1,127.7 197.5,129.7 198,131.7 198.5,134.2 198.9,136.1 199.4,138.4 199.8,140.3 200.2,142.2 200.6,144.2 201.1,146.2 201.5,148.2 201.9,150.2 202.3,152.2 202.7,154.2 203.1,156.2 203.5,158.2 203.9,160.2 204.3,162.2 204.7,164.2 205.2,166.4 205.6,168.3 206.1,170.1 206.6,172.4 207,174.1 207.4,176.1 207.8,178 208.2,180 208.6,182.1 209.1,184.3 209.5,186.5 209.9,188.7 210.3,190.9 210.7,193 211.1,195 211.5,196.9 212,198.8 212.4,200.7 213,202.9 213.5,205.1 213.9,206.9 214.4,209.2 214.9,211.5 215.2,213 215.6,215 216.1,217.1 216.5,219.2 216.9,221.3 217.4,223.9 217.8,226 218.2,228 218.6,230 219.1,232 219.5,234 219.9,236 220.3,238 220.7,240 221.1,242.1 221.5,244.2 222,246.3 222.5,248.9 222.9,251 223.3,253 223.7,255 224.1,257 224.5,258.9 225.1,261.1 225.6,263.3 226.2,265.6 226.7,267.9 227.1,269.8 227.5,271.9 227.9,274 228.3,276 228.7,278 229.2,280 229.6,282 230.1,284 230.5,286 231,288.1 231.5,290.6 231.9,292.6 232.4,295.1 232.8,297.1 233.2,299 233.6,301 234.1,303 234.5,305 234.9,307.1 235.4,309.6 235.8,311.6 236.3,314.2 236.7,316.2 237.3,318.5 237.7,320.4 238.2,322.3 238.6,324.1 239,326.1 239.4,328.2 239.8,330.3 240.2,332.4 240.6,334.6 241.1,336.7 241.5,338.8 242,340.9 242.5,343.4 242.9,345.3 243.4,347.8 243.8,349.8 244.3,352.2 244.7,354.2 245.3,356.8 245.7,358.7 246.1,360.6 246.5,362.5 246.9,364.4 247.2,365.7 247.6,367.8 248.1,369.9 248.5,372.1 248.9,374.3 249.4,376.9 249.8,378.8 250.3,381.1 250.7,382.9 251.2,384.7 251.6,386.9 252,389 252.4,391 252.8,393.1 253.3,395.7 253.7,397.5 254.3,399.9 254.7,402 255.1,404 255.5,406 255.9,408 256.3,409.9 256.7,411.8 257.2,413.7 257.6,415.7 258,417.7 258.4,419.7 258.8,421.7 259.3,424.2 259.7,426.1 260.1,428 260.5,430 260.9,432 261.3,434 261.7,436 262.2,438.4 262.6,440.2 263,442 263.3,443.3 263.7,445.2 264,446.7 264.4,448.7 264.8,450.7 265.3,453.2 265.7,455.1 266.1,456.9 266.5,458.8 266.9,460.7 267.1,462.1 267.5,464 267.9,466 268.2,467.4 268.6,469.3 269,471.2 269.3,472.7 269.7,474.7 270,476.7 270.3,478.2 270.7,480.2 271,482.1 271.4,484 271.8,485.9 272.2,487.8 272.6,489.6 273,491.4 273.3,492.6 273.7,494.4 274,496.2 274.4,498.1 274.8,499.9 275.1,501.8 275.5,503.7 275.9,505.5 276.2,506.8 276.6,508.7 277,510.6 277.3,511.9 277.7,513.8 278,515.7 278.3,517 278.7,518.7 279,520.5 279.3,521.8 279.7,523.6 280,525.5 280.4,527.4 280.8,529.2 281.1,531 281.5,532.8 281.9,534.5 282.1,535.8 282.5,537.6 282.9,539.3 283.1,540.5 283.5,542.4 283.9,544.2 284.2,545.6 284.6,547.5 285,549.3 285.3,550.5 285.7,552.3 286,554 286.4,555.7 286.8,557.5 287.1,559.2 287.4,560.5 287.8,562.4 288,563.8 288.3,565.2 288.7,567.1 289,568.9 289.4,570.6 289.8,572.3 290.1,574 290.4,575.4 290.8,577.2 291,578.6 291.3,580 291.7,581.8 292,583.5 292.4,585.1 292.8,586.7 293.1,588.3 293.4,589.6 293.8,591.3 294,592.7 294.4,594.5 294.8,596.3 295.1,598 295.4,599.2 295.8,600.9 296,602.1 296.4,603.8 296.8,605.4 297.1,607.1 297.4,608.2 297.8,609.9 298,611.1 298.3,612.4 298.7,614.1 299,615.9 299.2,617.1 299.6,618.8 299.9,620.4 300.1,621.6 300.5,623.2 300.9,624.9 301.1,626.1 301.5,627.9 301.9,629.6 302.1,630.8 302.4,632 302.8,633.7 303,634.9 303.2,636.1 303.5,637.3 303.8,639 304,640.2 304.3,641.4 304.7,643.1 305,644.8 305.2,646 305.6,647.6 305.9,649.2 306.1,650.3 306.4,651.4 306.8,653.1 307,654.4 307.3,655.6 307.6,656.9 307.9,658.7 308.1,659.8 308.4,661 308.7,662.6 309,664.1 309.2,665.1 309.5,666.2 309.8,667.7 310,668.8 310.2,669.9 310.4,671 310.6,672 310.8,673.2 311,674.4 311.2,675.6 311.4,676.8 311.7,678.4 311.9,679.3 312.1,680.3 312.3,681.3 312.7,682.8 312.9,683.9 313.1,685 313.3,686 313.5,687 313.5,687.6 313.6,688.1 313.7,688.7 313.9,689.8 314.1,690.9 314.3,691.9 314.4,693 314.5,694.2 314.5,695 314.5,695.8 314.5,696.6 314.5,697.5 314.4,698.6 314.3,699.6 314.1,700.5 313.9,701.4 313.7,702.2 313.4,702.9 313,703.7 312.2,705 311.4,706.3 310.4,707.6 309.6,708.6 308.7,709.5 308.2,709.9 307.7,710.3 307.2,710.7 306.3,711.2 305.2,711.7 304.2,712.3 303.1,712.8 301.7,713.3 300.7,713.7 299.8,714.2 298.4,714.8 296.9,715.6 295.6,716.8 294.2,717.9 292.8,719.5 291.7,721.5 290.7,723.3 290,726.7 289.6,731.1 289.5,735 289.8,739 290.2,743.1 290.7,745.7 291.1,747.4 291.5,749 291.7,750 291.9,751 292.1,752 292.3,752.9 292.5,753.8 292.7,754.7 292.9,755.6 293.1,756.4 293.3,757.3 293.5,758.2 293.7,759.1 293.9,760 294.1,761 294.3,762 294.5,763 294.7,764 295,765.4 295.3,766.4 295.5,767.4 295.7,768.4 296,769.9 296.2,771 296.4,772 296.6,773 296.8,774 297,775 297.3,776.1 297.5,777.2 297.8,778.7 298.1,780.2 298.4,781.2 298.6,782.2 298.8,783.2 299,784.4 299.2,785.6 299.4,786.8 299.7,788.4 300,790 300.2,791 300.5,792 300.8,793.6 301,794.7 301.3,795.8 301.6,796.9 301.9,798.5 302.1,799.5 302.4,800.5 302.7,802 303,803.5 303.2,804.5 303.5,805.6 303.8,807.3 304,808.5 304.3,809.8 304.7,811.5 305,813.1 305.2,814.2 305.5,815.3 305.8,816.8 306,818 306.3,819.2 306.7,820.8 307,822.4 307.3,823.5 307.7,825.1 308,826.7 308.2,827.9 308.5,829.1 308.8,830.8 309,832 309.3,833.2 309.7,834.9 310,836.6 310.3,837.9 310.7,839.5 311,841.2 311.3,842.3 311.7,844.1 312.1,845.8 312.5,847.6 312.9,849.3 313.2,851.1 313.5,852.2 313.8,853.9 314,855.1 314.3,856.4 314.7,858.1 315,859.9 315.3,861.1 315.7,862.9 316,864.6 316.3,865.9 316.7,867.5 317,869.2 317.3,870.3 317.7,872 318,873.6 318.3,874.9 318.6,876.1 318.9,877.9 319.2,879.1 319.6,880.7 319.9,882.3 320.3,883.9 320.6,885.2 320.9,887 321.2,888.5 321.6,890.2 321.9,892 322.3,893.5 322.7,895.1 323,896.7 323.3,898 323.7,899.8 324,901.6 324.3,902.9 324.7,904.6 325,906.3 325.3,907.5 325.7,909.2 326.1,910.9 326.4,912.1 326.8,913.9 327.2,915.7 327.5,917 327.8,918.8 328.2,920.6 328.5,921.9 328.8,923.6 329.2,925.3 329.5,926.5 329.8,928.3 330.2,930 330.6,931.7 330.9,933.4 331.3,935.1 331.7,936.8 332,938.5 332.3,939.8 332.7,941.7 333,943.5 333.3,944.8 333.7,946.5 334.1,948.2 334.4,949.4 334.7,950.7 335.1,952.5 335.4,954 335.7,955.8 336.1,957.6 336.6,959.8 336.9,961.4 337.3,963 337.7,964.8 338,966.5 338.3,967.8 338.7,969.5 339,971.2 339.3,972.4 339.7,974.1 340.1,975.8 340.4,977.2 340.8,979 341.2,980.8 341.5,982.2 341.8,984 342.2,985.8 342.6,987.5 342.9,989.1 343.3,990.7 343.7,992.4 344.1,994 344.4,995.3 344.8,997.3 345.2,999.3 345.5,1000.7 345.8,1002.7 346.2,1004.7 346.5,1006 346.8,1007.7 347.2,1009.5 347.5,1010.7 347.9,1012.4 348.3,1014.2 348.7,1015.9 349.1,1017.6 349.6,1019.8 349.9,1021.4 350.3,1023 350.7,1024.8 351,1026.5 351.3,1027.8 351.7,1029.7 352,1031.5 352.3,1032.8 352.7,1034.6 353.1,1036.4 353.5,1038 353.9,1039.7 354.3,1041.4 354.6,1042.6 354.9,1044.4 355.2,1045.9 355.6,1047.7 355.9,1049.5 356.3,1051.4 356.7,1053.1 357,1054.7 357.3,1056 357.7,1057.8 358,1059.5 358.4,1061.3 358.8,1063.1 359.1,1064.9 359.4,1066.1 359.8,1067.9 360,1069.2 360.4,1071.1 360.8,1072.9 361.2,1074.8 361.6,1076.5 362,1078.2 362.2,1079.4 362.6,1081.1 362.9,1082.8 363.2,1084.2 363.6,1086 364,1087.8 364.4,1089.6 364.8,1091.3 365.1,1093 365.5,1094.8 365.9,1096.5 366.1,1097.8 366.5,1099.5 366.9,1101.2 367.1,1102.4 367.5,1104.1 367.9,1105.8 368.2,1107.6 368.6,1109.3 369,1111 369.2,1112.2 369.6,1113.9 369.9,1115.2 370.2,1116.5 370.6,1118.3 371,1120.2 371.3,1121.5 371.7,1123.3 372,1125.1 372.3,1126.4 372.6,1127.9 372.8,1128.9 372.8,1129.3" style="stroke: rgb(55, 65, 81); stroke-width: 10;"></polygon><polyline vector-effect="non-scaling-stroke" fill="none" points="373.5,1133 373.6,1133.8 373.8,1134.5 374.1,1136 374.5,1138 374.9,1140 375.2,1141.6 375.4,1143 375.5,1144 375.7,1145 375.9,1146 376.1,1147 376.3,1148 376.5,1149 376.7,1150 376.9,1151 377.1,1152 377.3,1153 377.5,1154 377.6,1154.5 377.8,1155.8 378,1157.2 378.3,1158.6 378.6,1160.2 378.9,1162.3 379.1,1163.7 379.3,1165 379.5,1166.3 379.8,1167.9 380,1169.1 380.2,1170.2 380.4,1171.3 380.5,1172.4 380.6,1173.4 380.8,1174.8 381,1176.2 381.2,1177.7 381.4,1179.2 381.5,1180.3 381.6,1181.3 381.8,1182.8 382,1184.3 382.2,1185.8 382.4,1187.4 382.5,1188.8 382.5,1189.7 382.5,1190.9 382.6,1192.1 382.7,1193.6 382.8,1194.9 383,1197 383.2,1198.7 383.3,1200.5 383.4,1201.9 383.5,1203.8 383.5,1204.9 383.5,1206.2 383.5,1207.6 383.5,1209.3 383.5,1210.7 383.5,1212.3 383.5,1213.9 383.5,1215.6 383.5,1217.1 383.5,1218.7 383.5,1220.4 383.5,1222 383.5,1223.6 383.5,1225.3 383.5,1227 383.5,1228.6 383.5,1230.3 383.5,1232 383.5,1233.7 383.5,1235.3 383.5,1237 383.5,1238.7 383.5,1240.3 383.5,1241.7 383.5,1243 383.4,1244.6 383.2,1246.2 383,1247.9 382.8,1249.8 382.6,1251.8 382.5,1253.5 382.5,1255.2 382.5,1256.8 382.5,1258.5 382.5,1260.1 382.5,1261.4 382.4,1263.1 382.2,1264.8 382,1266.5 381.8,1268.5 381.6,1270.5 381.5,1272.2 381.5,1273.8 381.5,1275.1 381.4,1276.7 381.2,1278.3 381,1279.9 380.8,1281.8 380.6,1283.7 380.5,1285 380.3,1287 380.1,1289 379.9,1290.8 379.7,1292.7 379.5,1294.6 379.3,1296.3 379.1,1297.9 378.9,1299.5 378.7,1301.1 378.5,1302.7 378.3,1304.3 378.1,1305.9 377.9,1307.3 377.7,1308.7 377.3,1310.6 377.1,1312.2 376.9,1313.8 376.7,1315.4 376.5,1317 376.3,1318.5 376.1,1320.1 375.9,1321.5 375.7,1323 375.5,1324.4 375.3,1326 375.1,1327.3 374.9,1328.9 374.7,1330.5 374.5,1332.1 374.3,1333.5 374.1,1335.1 373.9,1336.4 373.7,1337.7 373.4,1339.5 373.2,1340.8 373,1342.3 372.8,1343.8 372.6,1345.3 372.5,1346.3 372.4,1348 372.2,1349.3 372,1350.8 371.8,1352.3 371.6,1353.9 371.4,1355.3 371.3,1356.8 371.2,1358.1 371,1359.5 370.8,1361 370.7,1362 370.6,1362.9 370.5,1363.8 370.4,1365 370.3,1366.1 370.1,1367.7 369.9,1369.4 369.7,1371.2 369.6,1372.7 369.5,1374.1 369.5,1375.7 369.5,1377.2 369.5,1378.6 369.6,1379.7 369.7,1380.9 369.9,1381.9 370.1,1383 370.6,1384.7 371.1,1386.5 371.8,1388.4 372.4,1389.8 373.3,1391.3 374.3,1392.5 375.3,1393.6 376.1,1394.5 377.5,1395.6 378.6,1396.5 379.7,1397.2 381.4,1398.2 383.5,1399.2 385,1400 386.6,1400.7 387.9,1401.2 388.5,1401.5 388.8,1401.7 389.8,1402.1 390.9,1402.6 392,1403.1 393.4,1403.6 394.7,1404.2 395.7,1404.6 396.6,1404.9 397.6,1405.3 398.6,1405.8 400,1406.3 401.1,1406.7 402.2,1407.2 403.2,1407.6 404.1,1408 405.2,1408.5 406.3,1409 407.6,1409.6 408.9,1410.2 410.1,1410.6 411,1411 411.9,1411.4 412.8,1411.8 413.7,1412.2 415.1,1413 416.7,1413.9 418.3,1414.9 419.7,1415.7 421,1416.6 421.8,1417.1 422.3,1417.5 422.8,1417.8 423.4,1418.3 424.1,1418.9 424.8,1419.5 425.5,1420.1 426.1,1420.8 426.6,1421.4 427.1,1421.8 427.8,1422.8 428.4,1423.6 429,1424.4 429.6,1425.2 430.3,1426.7 430.8,1427.7 431.2,1428.8 431.6,1429.9 432,1431.4 432.3,1432.4 432.5,1433.7 432.7,1435.1 432.9,1436.6 433,1437.8 433,1439 433,1440 433,1441 433,1441.9 433,1442.7 432.9,1443.3 432.7,1444.5 432.4,1445.5 432.1,1446.5 431.8,1447.5 431.5,1448.6 431.1,1449.3 430.7,1450.3 430.2,1451.3 429.6,1452.5 428.9,1453.8 428.4,1454.8 427.8,1455.7 427.2,1456.5 426.6,1457.2 426,1457.9 425,1458.9 424.1,1459.7 423.3,1460.6 422.5,1461.4 421.8,1462 421.1,1462.5 420.4,1463 419.7,1463.5 419,1463.9 418,1464.6 417.3,1465 416.6,1465.5 415.6,1466 414.6,1466.5 414,1466.8 413.2,1467.2 412.4,1467.5 411.8,1467.8 411.2,1468.1 410.2,1468.4 409.3,1468.7 407.9,1469.1 406.6,1469.5 405.3,1469.9 404.3,1470.2 403.4,1470.4 403,1470.6 402.4,1470.7 401.3,1470.9 400.2,1471.1 399,1471.3 397.6,1471.4 396.4,1471.6 395.2,1471.7 393.9,1471.8 392.6,1471.9 391.4,1472 390,1472 389,1471.9 388,1471.8 387,1471.7 386,1471.6 385.1,1471.5 384.3,1471.5 383.6,1471.5 383,1471.5 382,1471.4 381,1471.3 380,1471.1 379,1470.9 378,1470.7 377,1470.5 376,1470.3 375,1470.1 374,1469.9 373,1469.7 372.1,1469.5 371.2,1469.2 370.3,1469 369.4,1468.8 368.1,1468.5 367.2,1468.2 366.3,1468 365.4,1467.8 364.1,1467.5 363.2,1467.2 362.3,1467 361.4,1466.8 360.2,1466.4 358.7,1465.9 357.2,1465.5 355.7,1465.1 353.9,1464.5 352.4,1464.1 351.6,1463.9 350.4,1463.5 349.2,1463.1 348.2,1462.9 346.8,1462.5 345.4,1462.1 344.4,1461.9 343.4,1461.6 342.5,1461.3 341.3,1460.9 340.1,1460.5 338.9,1460.1 337.7,1459.7 336.2,1459.2 335.3,1459 334.1,1458.6 332.3,1458 330.5,1457.5 328.7,1456.9 327,1456.3 325.1,1455.8 323.8,1455.4 322.4,1455 321.4,1454.7 320.1,1454.3 318.9,1453.9 317.7,1453.5 316.6,1453.1 315,1452.6 313.7,1452.2 312.7,1451.8 311.5,1451.4 309.9,1450.9 308.7,1450.5 307.4,1450.1 305.9,1449.6 304.5,1449.2 303.5,1448.8 302.3,1448.4 300.7,1447.8 299.4,1447.4 298.2,1447 296.7,1446.5 295.1,1446 294,1445.6 292.4,1445.1 290.8,1444.5 289.4,1444.1 288.3,1443.7 286.7,1443.2 285.6,1442.7 284.5,1442.3 282.9,1441.6 281.3,1441 280.2,1440.5 278.8,1439.9 277.1,1439.2 275.9,1438.7 274.7,1438.2 273.3,1437.6 271.9,1437 270.8,1436.5 269.5,1435.9 268.2,1435.2 266.7,1434.4 265.4,1433.8 264.1,1433.1 262.8,1432.3 261.2,1431.4 260,1430.8 258.6,1429.9 257.2,1429.1 256.1,1428.5 254.8,1427.7 253.4,1426.8 252.3,1426.1 251.2,1425.4 249.6,1424.4 248.5,1423.7 247.2,1422.8 245.8,1421.9 244.1,1420.7 242.9,1419.8 241.7,1418.9 240.6,1418.1 239.5,1417.2 238.2,1416.2 236.8,1415.2 235.4,1414.2 234.2,1413.3 233,1412.4 231.7,1411.4 230.5,1410.4 229.2,1409.4 228,1408.4 226.4,1407.2 225.4,1406.4 224.4,1405.6 223,1404.5 221.5,1403.4 220.5,1402.6 219.4,1401.7 218,1400.6 216.7,1399.5 215.4,1398.4 214.1,1397.3 212.7,1396.2 211.5,1395.2 210.6,1394.4 209.3,1393.3 207.9,1392.2 206.7,1391.2 205.5,1390.2 204.3,1389.2 203,1388.2 201.8,1387.2 200.6,1386.2 199.2,1385 197.8,1383.8 196.5,1382.6 195.1,1381.4 193.8,1380.2 192.6,1379.2 191.4,1378.2 190.2,1377.2 189,1376.2 187.7,1375.2 186.5,1374.2 185.2,1373.2 184,1372.2 182.8,1371.2 181.6,1370.2 180.4,1369.2 179.3,1368.2 178,1367.2 176.8,1366.2 175.6,1365.2 174.4,1364.1 173.3,1363.1 172.2,1362 171.1,1360.9 169.9,1359.7 168.4,1358.4 166.9,1357.1 165.8,1356.2 164.6,1355.2 163.4,1354.2 162.5,1353.4 161.6,1352.6 160.5,1351.6 159.4,1350.6 158,1349.3 156.7,1348.1 155.4,1346.9 154.3,1345.8 153.3,1344.8 152.3,1343.9 151.2,1342.9 150,1341.8 148.8,1340.7 147.5,1339.5 146.5,1338.5 145.2,1337.3 144,1336.2 142.9,1335.2 141.9,1334.3 141,1333.5 140.1,1332.6 139.2,1331.7 138.3,1330.8 137.3,1329.8 136.3,1328.8 135.4,1327.9 134.5,1327 133.5,1326 132.4,1324.9 131.3,1323.8 130.5,1323.1 129.5,1322.2 128.5,1321.3 127.6,1320.5 126.6,1319.6 125.5,1318.5 124.7,1317.6 123.8,1316.6 123,1315.7 122.2,1314.8 121.4,1314 120.5,1313.2 119.9,1312.6 119.3,1312 118.6,1311.2 118,1310.4 117.5,1309.6 116.8,1308.6 115.9,1307.3 115.3,1306.3 114.7,1305.3 114.1,1304.3 113.6,1303.5 113.4,1303 113,1302.2 112.7,1301.4 112.4,1300.6 112.1,1299.8 111.8,1299 111.7,1298.4 111.6,1297.7 111.5,1296.9 111.5,1296 111.5,1295 111.5,1294 111.5,1293 111.5,1291.6 111.6,1290.3 111.7,1289.1 111.8,1288 111.9,1287 112.2,1286.2 112.4,1285.4 112.6,1284.6 112.9,1283.4 113.3,1282.2 113.5,1281.3 113.8,1280.4 114.2,1279.2 114.5,1278.4 114.8,1277.6 115.2,1276.5 115.6,1275.4 115.9,1274.6 116.3,1273.8 116.7,1272.8 117.1,1271.7 117.5,1270.6 117.9,1269.5 118.3,1268.4 118.6,1267.5 118.9,1266.8 119.2,1265.7 119.6,1264.6 119.9,1263.5 120.2,1262.4 120.6,1261.1 120.9,1260.2 121.1,1259.3 121.4,1257.6 121.7,1255.6 121.8,1253.9 121.9,1252.1 122,1250.2 122,1249 122,1248 121.8,1246.6 121.6,1245.3 121.4,1244.1 121.1,1242.7 120.7,1241.4 120.5,1240.6 119.9,1239.2 119.3,1237.8 118.7,1236.7 118.2,1235.6 117.4,1234.2 116.9,1233.4 116.4,1232.6 115.6,1231.4 114.7,1230.3 114,1229.4 113.3,1228.5 112.3,1227.4 111.6,1226.7 111,1225.9 110.4,1225.3 109.6,1224.4 109,1223.6 108.3,1222.7 107.5,1221.8 106.7,1220.8 106.2,1220.1 105.5,1219.2 104.7,1218.2 103.8,1217.1 102.9,1216 102,1214.9 101.3,1214.1 100.3,1212.9 99.4,1211.8 98.5,1210.7 97.3,1209.3 96.1,1207.8 95.4,1206.9 94.7,1206 93.7,1204.6 92.8,1203.4 91.9,1202.3 91.1,1201.2 90.3,1200.1 89.5,1199.1 88.7,1198.1 87.8,1197 86.8,1195.9 85.9,1194.8 85,1193.8 84.2,1192.8 83.4,1191.8 82.5,1190.7 81.5,1189.6 80.8,1188.8 79.9,1187.8 79.1,1186.7 78.3,1185.6 77.2,1184.3 76.2,1183 75.4,1182 74.6,1181.2 73.6,1180.1 72.8,1179 71.8,1177.9 70.7,1176.6 69.6,1175.3 68.8,1174.4 67.9,1173.4 67.2,1172.4 66.6,1171.6 65.7,1170.4 64.7,1169 63.9,1167.9 63,1166.8 61.8,1165.3 60.8,1164.1 59.8,1163 58.7,1161.7 57.5,1160.3 56.6,1159.3 55.8,1158.4 54.8,1157.2 53.8,1156.1 52.9,1155.1 51.8,1153.9 50.7,1152.6 49.9,1151.7 49.2,1150.9 48.2,1149.6 47.3,1148.4 46.3,1147.2 45.1,1145.7 43.9,1144.2 43,1143.2 42,1142 41,1140.8 40.1,1139.8 39.1,1138.7 37.7,1137.3 36.5,1136.2 35.4,1135.1 34.4,1134.1 33.2,1132.9 32.3,1131.9 31,1130.6 29.7,1129.4 28.4,1128.2 27.4,1127.4 25.8,1126.3 24.6,1125.5 23.2,1124.6 21.8,1123.7 20,1122.5 18.9,1121.8 17.8,1121.1 16.6,1120.3 15.3,1119.5 14,1118.7 12.7,1117.9 11.4,1117.1 10,1116.3 8.7,1115.5 7.8,1114.9 6.9,1114.3 5.6,1113.4 4.7,1112.7 3.7,1112 2.3,1111 0.9,1109.9 -0.1,1109.1 -1.1,1108.3 -2.1,1107.5 -3.1,1106.6 -4.1,1105.8 -5.1,1105 -6.5,1103.9 -7.7,1102.8 -9,1101.6 -10.3,1100.3 -11.6,1099 -12.5,1098 -14,1096.5 -15,1095.5 -16.3,1094 -17.7,1092.4 -19.1,1090.8 -20,1089.7 -21.2,1088.2 -22.1,1087.1 -22.8,1086.1 -23.7,1084.8 -24.7,1083.4 -25.4,1082.4 -26.1,1081.5 -27,1080.1 -27.7,1079 -28.3,1078 -29.1,1076.6 -29.8,1075.2 -30.5,1074.1 -31.3,1072.7 -32,1071.3 -32.6,1070 -33.4,1068.5 -34,1067.2 -34.6,1065.9 -35.4,1064.4 -36,1063.2 -36.6,1062 -37.2,1060.7 -37.7,1059.7 -38.1,1058.5 -38.6,1057.3 -38.9,1056.3 -39.5,1054.7 -40,1053.1 -40.5,1051.8 -40.9,1050.5 -41.5,1048.7 -41.8,1047.6 -42.2,1046 -42.6,1044.5 -43.1,1042.6 -43.4,1041.2 -43.8,1039.7 -44.1,1038.7 -44.4,1037 -44.7,1035.7 -45,1034.3 -45.2,1033 -45.4,1031.4 -45.7,1030 -45.9,1028.5 -46.1,1027.1 -46.3,1025.6 -46.5,1024.2 -46.5,1023 -46.6,1021.6 -46.8,1019.7 -47,1017.9 -47.2,1016.2 -47.4,1014.8 -47.5,1013.4 -47.5,1012.5 -47.5,1011.2 -47.6,1009.9 -47.7,1008.3 -47.8,1006.9 -47.9,1005.2" style="stroke: rgb(239, 68, 68); stroke-width: 7;"></polyline><polyline vector-effect="non-scaling-stroke" fill="none" points="-48,1003.6 -48,1002 -48,1000.4 -48,998.8 -48,997.3 -48,995.7 -48,994.1 -48,992.8 -48,991.2 -48,989.5 -48,988.2 -48,986.8 -48,985.1 -47.9,983.7 -47.8,982.4 -47.7,980.9 -47.6,979.3 -47.5,978 -47.5,976.4 -47.5,975 -47.5,973.4 -47.5,971.9 -47.5,970.2 -47.5,968.8 -47.5,967.3 -47.5,966.1 -47.5,965.1 -47.4,963.7 -47.3,962.3 -47.2,961 -47.1,959.4 -47,957.8 -47,956.4 -47,955 -47,953.5 -47,952.1 -47,950.7 -47,949.5 -47,948.1 -47,946.8 -47,945.4 -47,944 -47,942.6 -47,941.4 -47,940 -47,938.8 -47,937.5 -47,936.1 -47,934.7 -47,933.5 -47,932.4 -46.9,931.4 -46.7,930.2 -46.5,929.1 -46.3,927.6 -46.1,926.2 -46,924.6 -46,923.4 -46,922 -46,920.8 -46,919.5 -46,918.3 -46,916.9 -46,915.6 -46,914.4 -46,913.3 -46,912.1 -46,910.9 -46,909.8 -46,908.6 -46,907.3 -46,905.5 -46,903.9 -46,902.2 -46,900.7 -46,899.1 -46,898.1 -46,897 -46,895.8 -46,894.5 -46,893.3 -46,892.1 -46,891.1 -46,890.1 -46,889.1 -46,888.1 -46,887 -46,885.7 -46,884.5 -46,883.3 -46,882.1 -46,881 -46,880.1 -46,879.1 -45.9,878.1 -45.8,877.1 -45.7,876.1 -45.6,875 -45.5,874 -45.5,873.1 -45.6,872.1 -45.7,870.9 -45.8,869.7 -45.9,868.5 -46,867.2 -46,866 -46,865 -46.1,863.6 -46.2,862.2 -46.3,860.9 -46.5,859.7 -46.8,858 -47.1,856.8 -47.6,855.3 -48.4,853.3 -49.1,851.3 -49.8,850 -50.4,848.7 -51.2,847.3 -51.8,846.5 -52.4,845.7 -53.2,844.6 -54.1,843.6 -54.6,843.1 -55.1,842.6 -55.8,841.9 -56.3,841.5 -57.6,840.5 -59,839.5 -60.6,838.4 -62,837.5 -63.7,836.5 -65.3,835.9 -67,835.4 -69,834.8 -71.2,834.3 -73.2,833.9 -74.8,833.7 -76.4,833.6 -77.6,833.7 -79.3,833.9 -80.9,834.1 -82.2,834.4 -83.8,834.7 -85.4,835 -86.7,835.4 -88,835.8 -89.3,836.1 -90.2,836.3 -91.5,836.7 -92.5,836.9 -93.5,837.1 -94.9,837.5 -96.3,837.9 -97.3,838.1 -98.3,838.3 -99.4,838.6 -100.2,838.7 -101.1,838.8 -102,838.9 -103,839 -104,839 -105,839.1 -106,839.2 -107,839.3 -108,839.4 -109,839.5 -110,839.5 -111,839.5 -112,839.5 -113,839.4 -114,839.3 -115,839.2 -115.9,839.1 -116.7,839 -117.4,839 -118,838.9 -118.8,838.7 -119.6,838.5 -120.4,838.3 -121.5,837.9 -122.6,837.6 -123.4,837.4 -124.1,837.1 -125.1,836.7 -125.8,836.4 -126.5,836.1 -127.2,835.8 -128.2,835.4 -128.9,835 -129.8,834.6 -130.7,834.2 -131.6,833.7 -132.3,833.4 -133.3,832.9 -134.3,832.3 -135.3,831.7 -136.2,831.1 -137.1,830.5 -137.7,830.1 -138.5,829.5 -139.3,828.9 -140.2,828.3 -141.3,827.4 -142.8,826.2 -143.9,825.3 -145,824.4 -146,823.5 -146.8,822.8 -147.2,822.4 -147.9,821.8 -148.5,821.1 -149.2,820.4 -149.9,819.7 -150.6,819 -151.1,818.2 -151.7,817.4 -152.7,816.1 -153.7,814.8 -155,813 -156.1,811.5 -157.2,810 -158,808.8 -158.7,807.6 -159.2,806.7 -159.7,805.8 -160.3,804.7 -161,803.5 -161.7,802.3 -162.5,800.9 -163.3,799.4 -164,798.1 -164.5,796.8 -165.1,795.5 -165.4,794.6 -165.8,793.5 -166.3,792.2 -166.7,791.2 -167.1,790.1 -167.6,788.7 -168,787.6 -168.3,786.7 -168.6,785.8 -168.9,784.6 -169.3,783.4 -169.7,782.2 -170.1,781 -170.5,779.8 -170.8,779 -171,777.9 -171.3,776.8 -171.6,775.4 -171.9,773.9 -172.3,772.4 -172.7,771.1 -173,769.8 -173.3,768.8 -173.6,767.8 -173.9,766.3 -174.1,765.1 -174.4,763.9 -174.6,762.7 -174.9,761.1 -175.1,760 -175.4,758.9 -175.6,757.8 -175.9,756.1 -176.1,754.9 -176.4,753.7 -176.6,752.6 -176.9,750.9 -177.1,749.8 -177.4,748.7 -177.6,747.4 -177.9,745.6 -178.1,744.4 -178.4,743.2 -178.6,741.9 -178.8,740.8 -179,739.6 -179.2,738.3 -179.4,737 -179.6,735.8 -179.8,734.3 -179.9,733.4 -180.1,731.9 -180.3,730.4 -180.5,728.9 -180.7,727.5 -181,725.6 -181.2,724.4 -181.4,723.1 -181.6,721.8 -181.8,720.4 -181.9,719.4 -182,718.3 -182.1,716.6 -182.2,714.9 -182.4,713.4 -182.6,712 -182.8,710.6 -182.9,709.7 -183,708.6 -183,707.3 -183,706 -183.1,704.1 -183.3,702.4 -183.5,700.9 -183.7,699.5 -183.9,698.1 -184,697 -184,695.8 -184,694.3 -184,692.9 -184.1,690.8 -184.2,689.1 -184.4,687.4 -184.6,686 -184.8,684.6 -184.9,683.7 -185,682.6 -185,681.4 -185,680 -185,678.5 -185.1,676.6 -185.3,674.8 -185.5,673.2 -185.7,671.7 -185.9,670.2 -186,669.1 -186,667.9 -186,666.4 -186,665 -186.2,663 -186.4,661.1 -186.6,659.4 -186.8,657.8 -187,656.2 -187,655 -187,653.9 -187,652.4 -187,651.1 -187.2,649 -187.4,647.3 -187.6,645.5 -187.8,643.9 -188,642.3 -188,641.1 -188,639.6 -188,638.2 -188.1,636.4 -188.3,634.5 -188.5,632.9 -188.7,631.6 -188.9,629.9 -189,628.8 -189,627.5 -189,625.9 -189,624.3 -189.1,622.3 -189.3,620.2 -189.5,618.4 -189.7,616.8 -189.9,615.2 -190,614 -190,612.6 -190,611.2 -190,609.6 -190,607.7 -190,606.2 -190,604.6 -190.2,602.4 -190.4,600.6 -190.6,599 -190.8,597.1 -191,595.5 -191,594.2 -191,592.6 -191,591 -191,589.4 -191,587.6 -191,586 -191,584.4 -191,582.6 -191,581 -191,579.4 -191,577.6 -191,576 -191,574.4 -191,572.6 -191.1,571 -191.2,569.4 -191.3,567.6 -191.4,566 -191.5,564.4 -191.6,562.3 -191.7,560.5 -191.8,558.9 -191.9,557.2 -192,555.6 -192,554.3 -192,552.8 -192,551.1 -192,549.4 -192,547.7 -192,546.1 -192,544.4 -192,542.8 -192,541.2 -192,539.5 -192,537.8 -192,536.2 -192,534.6 -192,532.9 -192,531.3 -192,529.7 -192,528 -192,526.3 -192,524.7 -192,522.9 -192,521.3 -192,519.7 -192,518.2 -192,516.9 -191.9,515.4 -191.8,513.5 -191.6,511.9 -191.4,510 -191.2,508.1 -191.1,506.2 -191,504.6 -191,503 -191,501.4 -191,499.5 -191,498.2 -191,496.6 -191,495 -191,493.7 -190.8,492.1 -190.6,490.4 -190.4,488.8 -190.2,487.2 -190,485.4 -190,483.8 -190,482.2 -190,480.8 -189.9,479.4 -189.7,477.8 -189.5,476.2 -189.3,474.7 -189.1,473 -189,471.1 -189,469.5 -189,468 -188.9,466.5 -188.8,465.2 -188.6,463.6 -188.4,461.9 -188.2,460.3 -188.1,458.5 -188,456.5 -187.9,454.9 -187.8,453.5 -187.7,452.2 -187.5,450.6 -187.3,449 -187.2,447.4 -187.1,445.6 -186.9,443.9 -186.8,442.4 -186.7,441.1 -186.6,439.9 -186.4,438.3 -186.3,436.7 -186.1,435 -185.9,433.3 -185.7,431.6 -185.5,430 -185.3,428.4 -185.2,426.8 -185,425.3 -184.8,423.5 -184.7,422.2 -184.6,420.9 -184.4,419.4 -184.3,417.7 -184.1,416.1 -183.9,414.6 -183.7,413 -183.5,411.3 -183.3,409.8 -183.1,408.4 -182.9,407 -182.6,405 -182.4,403.6 -182.1,401.9 -181.9,400.2 -181.7,398.5 -181.5,396.9 -181.3,395.3 -181.1,393.9 -180.9,392.6 -180.6,390.7 -180.4,389.1 -180.1,387.6 -179.9,386.1 -179.7,384.6 -179.5,383 -179.2,381.7 -179,380.3 -178.8,379 -178.5,377 -178.2,375.6 -178,374.2 -177.7,372.3 -177.4,370.4 -177.1,369.1 -176.9,367.9 -176.6,366.1 -176.3,364.9 -176,363.6 -175.7,361.9 -175.3,360.1 -175,358.8 -174.7,357.1 -174.3,355.4 -174,354.2 -173.7,352.5 -173.3,350.9 -173,349.6 -172.7,348.1 -172.3,346.5 -171.9,345 -171.6,343.4 -171.2,341.8 -170.8,340.2 -170.4,338.7 -170,337.1 -169.5,335.5 -169.1,334 -168.8,332.8 -168.4,331.2 -168.1,330.2 -167.7,328.9 -167.3,327.6 -166.8,325.8 -166.4,324.3 -165.9,322.5 -165.5,321.1 -165,319.2 -164.5,317.8 -164.1,316.4 -163.6,315 -163.2,313.5 -162.8,312.2 -162.4,310.8 -161.9,309.1 -161.5,307.6 -161.1,306.2 -160.6,304.7 -160.2,303.3 -159.8,301.9 -159.4,300.6 -158.9,298.7 -158.5,297.1 -158.1,295.5 -157.6,294 -157.2,292.4 -156.8,291.1 -156.4,289.8 -155.9,288 -155.5,286.4 -155.1,284.9 -154.7,283.3 -154.3,281.8 -153.9,280.3 -153.5,278.9 -153.1,277.4 -152.6,275.8 -152.2,274.2 -151.8,272.7 -151.4,271.2 -151,269.8 -150.7,268.4 -150.3,267 -149.9,265.6 -149.5,264.1 -149,262.2 -148.6,260.7 -148.2,259.2 -147.8,257.5 -147.5,255.9 -147.2,254.6 -146.8,253 -146.4,251.3 -146.1,250.2 -145.7,248.6 -145.3,247.1 -144.9,245.5 -144.6,244 -144.2,242.4 -143.8,241 -143.4,239.5 -143,238.1 -142.6,236.6 -142.2,235.2 -141.8,233.5 -141.5,231.9 -141.2,230.6 -140.8,229 -140.4,227.3 -140.1,226.2 -139.7,224.7 -139.3,223.2 -139,222.1 -138.7,220.6 -138.3,219.1 -137.9,217.5 -137.6,216 -137.2,214.5 -136.8,213.1 -136.5,211.7 -136.2,210.8 -135.8,209.3 -135.4,207.8 -135.1,206.7 -134.7,205.1 -134.3,203.5 -134,202.5 -133.8,201.5 -133.4,200.1 -133.1,199.2 -132.8,198.3 -132.4,197.2 -131.9,195.7 -131.5,194.5 -131.1,193.3 -130.8,192.1 -130.4,190.9 -130.1,190.1 -129.7,189.2 -129.3,188.3 -128.8,187.4 -128.5,186.7 -128.1,186 -127.7,185.5 -127.3,185 -126.8,184.4 -126.2,183.7 -125.5,182.9 -124.9,182.2 -124.2,181.4 -123.5,180.6 -122.8,180 -122.1,179.4 -121.4,178.8 -120.5,178.2 -119.7,177.8 -118.8,177.3 -118,177 -116.8,176.6 -115.8,176.3 -114.8,176 -113.8,175.8 -112.7,175.6 -111.9,175.5 -111,175.5 -110,175.5 -108.8,175.5 -107.6,175.5 -106.4,175.6 -105.2,175.7 -104,175.8 -102.8,175.9 -101.6,175.9 -100.4,175.8 -99.2,175.7 -97.6,175.5 -96.2,175.3 -94.9,175.2 -93.3,174.9 -91.8,174.6 -90.4,174.3 -89.1,173.9 -87.8,173.5 -86.6,173.2 -84.8,172.4 -83.4,171.7 -82,171 -80.2,170 -78.7,169 -77.8,168.5 -76.3,167.4 -74.8,166.3 -73.7,165.5 -72.7,164.7 -71.3,163.4 -70.5,162.7 -69.7,162 -68.9,161.1 -68,160.2 -67.3,159.6 -66.7,158.9 -66,158.1 -65.2,157.3 -64.5,156.5 -63.6,155.4 -62.6,154.1 -61.7,152.9 -61,151.8 -60.2,150.7 -59.5,149.6 -58.9,148.7 -58.2,147.6 -57.5,146.5 -56.7,145.2 -56.3,144.3 -55.7,143.2 -55.3,142.3 -54.7,141.2 -54.2,140 -53.6,138.8 -53.2,137.8 -52.7,136.8 -52.3,135.8 -51.8,134.8 -51.4,133.8 -50.8,132.6 -50.2,131 -49.6,129.6 -49.2,128.5 -48.8,127.3 -48.4,126.1 -48,125 -47.6,123.9 -47.2,122.8 -46.7,121.3 -46.3,120 -46,119 -45.7,118 -45.3,116.8 -44.8,115.7 -44.4,114.6 -43.9,113.1 -43.4,111.5 -43,110.1 -42.7,109.1 -42.3,107.9 -41.8,106.6 -41.4,105.4 -41,104.2 -40.5,102.7 -40,101 -39.6,99.7 -39.2,98.4 -38.7,96.7 -38.3,95.2 -38,94.1 -37.6,92.8 -37.1,91.1 -36.6,89.7 -36.2,88.4 -35.7,86.7 -35.3,85.2 -35,84.1 -34.6,82.7 -34.2,81.3 -33.7,79.8 -33.3,78.4 -32.8,76.6 -32.4,75.2 -31.9,73.3 -31.5,71.8 -31.1,70.3 -30.6,68.7 -30.2,67.1 -29.8,65.9 -29.4,64.6 -28.9,62.7 -28.5,61.2 -28.1,59.7 -27.6,57.8 -27.2,56.1 -26.7,54.4 -26.3,52.7 -25.9,51 -25.5,49.4 -25.1,47.7 -24.7,46.2 -24.3,44.7 -23.7,42.8 -23.3,41.3 -22.8,39.3 -22.4,37.7 -22,36.1 -21.7,34.5 -21.3,32.9 -20.9,31.3 -20.5,29.6 -20.1,28 -19.7,26.4 -19.3,24.7 -18.9,23.1 -18.5,21.5 -18.1,19.8 -17.7,18.1 -17.3,16.4 -16.9,14.6 -16.6,12.9 -16.2,11.2 -15.8,9.5 -15.4,7.8 -15,6.2 -14.6,4.5 -14.2,2.8 -13.8,1 -13.5,-0.9 -13.2,-2.4 -12.9,-3.8 -12.5,-5.6 -12.2,-7 -11.8,-8.9 -11.4,-10.9 -10.9,-13.4 -10.5,-15.4 -10.1,-17.4 -9.7,-19.3 -9.3,-21.1 -9,-22.4 -8.6,-24.4 -8.2,-26.4 -7.9,-27.8 -7.5,-29.6 -7.1,-31.5 -6.8,-33.2 -6.4,-34.8 -6,-36.5 -5.7,-38.3 -5.3,-40 -5,-41.3 -4.7,-43.2 -4.3,-45.1 -4,-46.4 -3.7,-48.4 -3.3,-50.4 -3,-51.9 -2.7,-53.7 -2.3,-55.6 -1.9,-57.4 -1.6,-59.1 -1.2,-60.8 -0.8,-62.7 -0.5,-64.8 -0.2,-66.3 0.1,-67.9 0.4,-69.9 0.7,-71.5 1,-72.9 1.2,-74.4 1.6,-76.5 1.9,-78.1 2.1,-79.6 2.4,-81.5 2.8,-83.6 3,-85 3.2,-86.5 3.6,-88.6 3.9,-90.2 4.1,-91.6 4.5,-93.4 4.9,-95.2 5.2,-96.8 5.5,-98.6 5.9,-100.4 6.1,-101.8 6.4,-103.8 6.7,-105.4 7,-106.9 7.3,-108.7 7.7,-110.8 8,-112.3 8.3,-114.2 8.6,-116.2 8.9,-118.1 9.1,-119.8 9.3,-121.4 9.6,-123 9.9,-124.7 10.1,-126.2 10.3,-127.6 10.7,-129.7 10.9,-131.6 11.1,-133.3 11.3,-134.9 11.6,-137 11.8,-138.8 12,-140.6 12.2,-142.3 12.4,-144.1 12.6,-145.9 12.8,-147.6 13,-149.2 13.2,-151.1 13.4,-153.2 13.5,-154.9 13.5,-156.3 13.6,-158 13.7,-159.7 13.8,-161.4 14,-163.2 14.2,-165.3 14.3,-167.2 14.4,-168.9 14.5,-170.3 14.6,-172.1 14.7,-173.9 14.8,-175.7 14.9,-177.4 15,-179.4 15,-181.1 15,-182.8 15.1,-184.4 15.2,-186.1 15.3,-187.6 15.5,-189.5 15.7,-191.2 15.8,-193.1 15.9,-195 16,-197 16,-198.8 16,-200.5 16,-202.1 16,-203.8 16,-205.6 16,-207.2 16,-209 16,-210.8 16.1,-212.5 16.2,-214.2 16.3,-215.8 16.4,-217.3 16.5,-218.6 16.6,-220.4 16.7,-222.1 16.7,-224.3 16.7,-226.5 16.7,-228.6 16.6,-230.2 16.5,-231.9 16.5,-233.1 16.5,-234.6 16.5,-236.2" style="stroke: rgb(59, 130, 246); stroke-width: 7;"></polyline><polyline vector-effect="non-scaling-stroke" fill="none" points="16.4,-238 16.3,-239.7 16.2,-241.5 16.1,-243.2 16,-244.8 16,-246.4 15.9,-248.6 15.8,-250.5 15.7,-252.2 15.6,-254 15.5,-255.7 15.4,-256.9 15.3,-258.3 15.2,-259.8 15,-261.8 14.8,-263.7 14.7,-265.3 14.5,-267 14.3,-268.8 14.2,-270 14,-271.9 13.8,-273.8 13.6,-275.5 13.4,-277.1 13.1,-279.2 12.9,-280.6 12.6,-282.1 12.4,-283.5 12.1,-285.5 11.9,-287 11.6,-288.5 11.4,-290.1 11.1,-292.2 10.9,-293.6 10.6,-295.1 10.3,-297 10,-298.8 9.7,-300.2 9.4,-301.6 9.1,-303.4 8.9,-304.8 8.5,-306.6 8.2,-308.3 7.9,-310 7.6,-311.2 7.2,-312.9 7,-314.1 6.7,-315.4 6.3,-317.2 6,-319.1 5.7,-320.4 5.3,-322.2 5,-324 4.7,-325.2 4.3,-326.8 4,-328.4 3.7,-329.6 3.3,-331.2 3,-332.9 2.8,-334.1 2.4,-335.9 2.1,-337.6 1.9,-338.8 1.5,-340.4 1.1,-342 0.9,-343.1 0.6,-344.2 0.2,-345.9 0,-347.1 -0.3,-348.3 -0.7,-349.9 -1,-351.6 -1.3,-352.7 -1.7,-354.3 -2,-355.9 -2.2,-357.1 -2.5,-358.2 -2.8,-359.9 -3,-361.1 -3.3,-362.4 -3.7,-364.1 -4,-365.8 -4.3,-366.9 -4.7,-368.5 -5,-370 -5.3,-371 -5.6,-372.1 -5.9,-373.7 -6.1,-374.8 -6.4,-376 -6.7,-377.6 -7,-379.1 -7.3,-380.1 -7.7,-381.6 -8,-383 -8.2,-384 -8.5,-385 -8.8,-386.5 -9,-387.5 -9.2,-388.5 -9.6,-389.9 -9.9,-391.4 -10.1,-392.4 -10.4,-393.4 -10.8,-394.9 -11,-396.1 -11.2,-397.2 -11.6,-398.7 -11.9,-400.2 -12.1,-401.2 -12.3,-402.1 -12.6,-403.4 -12.8,-404.3 -13,-405.2 -13.2,-406.1 -13.5,-407.4 -13.7,-408.3 -13.9,-409.2 -14.1,-410.1 -14.3,-411 -14.5,-412 -14.7,-413 -14.9,-413.9 -15.1,-414.8 -15.3,-415.7 -15.5,-416.5 -15.7,-417.3 -15.9,-418.3 -16.1,-419.3 -16.3,-420.4 -16.4,-421.2 -16.5,-422.3 -16.5,-423.4 -16.5,-424.6 -16.5,-425.8 -16.5,-427 -16.5,-427.9 -16.5,-428.7 -16.4,-429.3 -16.2,-430.1 -16,-430.8 -15.8,-431.5 -15.5,-432.1 -15.3,-432.8 -15.1,-433.4 -14.8,-433.9 -14.5,-434.4 -14.1,-435.1 -13.6,-435.9 -13.1,-436.4 -12.6,-437.1 -12,-437.7 -11.5,-438.3 -11,-438.7 -10.5,-439.3 -10,-439.7 -9.4,-440.3 -8.5,-440.9 -7.5,-441.6 -6.5,-442.1 -5,-442.7 -3.6,-443.2 -2.4,-443.5 -1.2,-443.7 0.1,-443.9 1,-444 1.9,-444 3.2,-443.8 4.4,-443.6 5.5,-443.4 6.5,-443.2 7.4,-442.9 7.8,-442.8 8.4,-442.6 8.9,-442.3 9.4,-442 10,-441.8 10.5,-441.5 10.8,-441.3 11.6,-440.8 12.4,-440.3 13.1,-439.7 13.9,-439.2 14.6,-438.6 15.4,-437.7 16.2,-436.6 17.1,-435.4 18,-434.1 19.1,-432.5 19.6,-431.5 20.2,-430.2 20.7,-429 21.1,-427.8 21.3,-426.9 21.6,-425.6 21.8,-424.8 22,-424 22.2,-423.2 22.4,-422.4 22.5,-422 22.7,-421 22.9,-420 23.1,-418.9 23.4,-417.8 23.8,-416.2 24,-415.1 24.2,-414 24.4,-413 24.6,-412 24.7,-411.4 24.9,-410.3 25.1,-409.2 25.3,-408.1 25.5,-407 25.7,-406 25.8,-405.4 25.9,-404.7 26,-403.9 26.2,-402.6 26.4,-401.3 26.6,-400.1 26.8,-399 27,-398 27.1,-397.4 27.2,-396.7 27.3,-395.9 27.5,-394.6 27.7,-393.3 27.9,-392.1 28.1,-391 28.3,-390 28.4,-389.4 28.5,-388.7 28.5,-387.9 28.5,-387 28.6,-386 28.8,-384.6 29,-383.3 29.2,-382.1 29.4,-381 29.5,-380 29.5,-379.4 29.5,-378.5 29.5,-377.5 29.5,-376.4 29.5,-375.2 29.5,-374 29.5,-373 29.5,-372 29.5,-371 29.6,-369.6 29.7,-368.3 29.8,-367.1 29.9,-366 30,-365 30,-364.5 30,-363.8 30,-363 30,-362.1 30,-361.1 30,-360 30,-359 30.1,-357.8 30.3,-356.2 30.5,-354.7 30.7,-353.3 30.9,-352 31,-351 31,-350.4 31,-349.7 31.1,-348.5 31.2,-347.3 31.3,-346.1 31.5,-345 31.7,-344 31.8,-343.4 32,-342.2 32.2,-341 32.4,-339.8 32.7,-338.2 33,-336.7 33.2,-335.8 33.5,-334.9 33.8,-333.6 34,-332.7 34.3,-331.8 34.6,-330.9 34.9,-329.6 35.3,-328.5 35.7,-327.3 36,-326.1 36.4,-324.9 36.8,-323.7 37.1,-322.5 37.5,-321.4 38,-320.1 38.5,-318.8 38.9,-317.9 39.3,-317.2 39.7,-316.2 40.1,-315.1 40.6,-313.8 41.1,-312.5 41.6,-311.2 42.1,-310.2 42.6,-309.2 43.1,-308.1 43.7,-307 44.2,-305.9 44.7,-304.8 45.2,-303.6 45.7,-302.5 46.1,-301.4 46.6,-300.3 47,-299.2 47.5,-298.2 48.1,-297.1 48.7,-295.9 49.3,-294.7 49.9,-293.5 50.5,-292.3 50.9,-291.2 51.4,-290.2 52,-288.7 52.7,-287.2 53.3,-286 53.8,-285 54.3,-284 54.7,-283.2 55.2,-282.1 55.7,-280.8 56.3,-279.5 57,-278 57.6,-276.7 58.3,-275.3 58.9,-274.1 59.5,-272.9 59.9,-271.8 60.5,-270.5 61.1,-269.3 61.7,-268.1 62.3,-266.8 62.9,-265.6 63.5,-264.4 63.9,-263.5 64.5,-262.1 65.1,-260.8 65.7,-259.5 66.3,-258.1 67,-256.5 67.5,-255.4 68.1,-254.1 68.8,-252.5 69.4,-251.3 69.8,-250.3 70.5,-248.8 71.1,-247.5 71.6,-246.5 72.2,-245.1 72.8,-243.7 73.4,-242.3 73.9,-240.9 74.5,-239.5 75.1,-238.1 75.7,-236.7 76.3,-235.4 76.9,-234 77.5,-232.6 78,-231.6 78.6,-230.2 79.2,-228.8 79.8,-227.4 80.4,-226 80.9,-224.6 81.5,-223.2 82.1,-221.8 82.7,-220.4 83.3,-219 83.9,-217.6 84.5,-216.2 84.9,-215.2 85.5,-213.7 86.1,-212.2 86.8,-210.5 87.4,-209.1 87.9,-207.7 88.4,-206.5 89.1,-204.9 89.7,-203.4 90.3,-202 90.9,-200.6 91.5,-199.2 91.8,-198.2 92.3,-196.9 93,-195.2 93.7,-193.4 94.3,-192 95,-190.2 95.6,-188.8 95.9,-187.8 96.4,-186.5 97.1,-184.8 97.7,-183.4 98.3,-182 99,-180.2 99.6,-178.8 100,-177.4 100.5,-176.1 101.1,-174.4 101.7,-172.9 102.3,-171.3 102.8,-170.1 103.4,-168.5 103.9,-167.3 104.4,-165.9 105.1,-164.2 105.8,-162.4 106.4,-161 107.1,-159.2 107.7,-157.8 108.2,-156.4 108.9,-154.8 109.5,-153.2 110.1,-151.6 110.7,-150 111.4,-148.3 111.9,-146.9 112.5,-145.4 113.1,-143.9 113.7,-142.4 114.3,-140.8 114.9,-139.2 115.5,-137.6 116.1,-136 116.7,-134.4 117.2,-133 117.8,-131.6 118.5,-129.7 119.1,-128.1 119.8,-126.5 120.4,-124.9 121.2,-122.8 121.8,-121.3 122.4,-119.8 123.1,-117.8 123.9,-115.7 124.5,-114.1 125.2,-112.4 125.9,-110.4 126.5,-108.9 127.2,-107.3 127.8,-105.6 128.4,-103.9 129.1,-102.3 129.7,-100.6 130.2,-99.1 131,-97.1 131.7,-95.1 132.3,-93.4 133.1,-91.4 133.9,-89.5 134.4,-88.1 135.1,-86.4 135.8,-84.7 136.5,-82.8 137.1,-81.1 137.9,-79.1 138.6,-77.2 139.4,-75.1 140.1,-73.5 140.8,-71.9 141.5,-70 142.2,-68.3 142.9,-66.4 143.5,-64.5 144.2,-62.4 144.9,-60.7 145.6,-59 146.3,-57.1 147.1,-55.2 147.9,-53.2 148.5,-51.4 149.2,-49.4 149.9,-47.7 150.6,-46 151.2,-44.3 151.9,-42.6 152.6,-40.7 153.2,-38.7 153.9,-36.5 154.6,-34.6 155.4,-32.4 156,-30.7 156.8,-28.8 157.5,-27.1 158.2,-25.1 158.9,-23.2 159.7,-21.2 160.3,-19.4 161.1,-17.1 161.9,-15.1 162.5,-13.3 163.2,-11.1 163.9,-9.2 164.5,-7.3 165.1,-5.4 165.9,-3.2 166.5,-1.4 167.3,0.9 168,2.7 168.6,4.5 169.2,6.4 169.9,8.6 170.4,10.3 170.9,11.9 171.5,13.9 172.1,15.8 172.6,17.4 173.2,19.4 173.7,21.5 174.3,23.5 174.8,25.2 175.4,27.3 175.9,29 176.5,31.1 177,32.9 177.5,35.1 177.9,36.9 178.4,39.2 178.8,41.1 179.3,43.4 179.7,45.3 180.2,47.2 180.6,49.1 181.1,51 181.5,53 181.9,55 182.4,57.4 182.8,59.3 183.2,61.2 183.6,63.2 184.1,65.2 184.5,67.1 184.9,69 185.4,71.5 185.8,73.4 186.3,75.8 186.7,77.9 187.2,80 187.6,82.1 188,84.2 188.4,86.2 188.8,88.2 189.3,90.6 189.7,92.4 190.2,94.2 190.6,96.2 191,98.2 191.4,100.2 191.8,102.2 192.2,104.2 192.6,106.1 193,108 193.3,109.5 193.7,111.6 194.1,113.7 194.5,115.8 195,117.9 195.5,120.3 195.9,122.1 196.3,123.9 196.7,125.8 197.1,127.7 197.5,129.7 198,131.7 198.5,134.2 198.9,136.1 199.4,138.4 199.8,140.3 200.2,142.2 200.6,144.2 201.1,146.2 201.5,148.2 201.9,150.2 202.3,152.2 202.7,154.2 203.1,156.2 203.5,158.2 203.9,160.2 204.3,162.2 204.7,164.2 205.2,166.4 205.6,168.3 206.1,170.1 206.6,172.4 207,174.1 207.4,176.1 207.8,178 208.2,180 208.6,182.1 209.1,184.3 209.5,186.5 209.9,188.7 210.3,190.9 210.7,193 211.1,195 211.5,196.9 212,198.8 212.4,200.7 213,202.9 213.5,205.1 213.9,206.9 214.4,209.2 214.9,211.5 215.2,213 215.6,215 216.1,217.1 216.5,219.2 216.9,221.3 217.4,223.9 217.8,226 218.2,228 218.6,230 219.1,232 219.5,234 219.9,236 220.3,238 220.7,240 221.1,242.1 221.5,244.2 222,246.3 222.5,248.9 222.9,251 223.3,253 223.7,255 224.1,257 224.5,258.9 225.1,261.1 225.6,263.3 226.2,265.6 226.7,267.9 227.1,269.8 227.5,271.9 227.9,274 228.3,276 228.7,278 229.2,280 229.6,282 230.1,284 230.5,286 231,288.1 231.5,290.6 231.9,292.6 232.4,295.1 232.8,297.1 233.2,299 233.6,301 234.1,303 234.5,305 234.9,307.1 235.4,309.6 235.8,311.6 236.3,314.2 236.7,316.2 237.3,318.5 237.7,320.4 238.2,322.3 238.6,324.1 239,326.1 239.4,328.2 239.8,330.3 240.2,332.4 240.6,334.6 241.1,336.7 241.5,338.8 242,340.9 242.5,343.4 242.9,345.3 243.4,347.8 243.8,349.8 244.3,352.2 244.7,354.2 245.3,356.8 245.7,358.7 246.1,360.6 246.5,362.5 246.9,364.4 247.2,365.7 247.6,367.8 248.1,369.9 248.5,372.1 248.9,374.3 249.4,376.9 249.8,378.8 250.3,381.1 250.7,382.9 251.2,384.7 251.6,386.9 252,389 252.4,391 252.8,393.1 253.3,395.7 253.7,397.5 254.3,399.9 254.7,402 255.1,404 255.5,406 255.9,408 256.3,409.9 256.7,411.8 257.2,413.7 257.6,415.7 258,417.7 258.4,419.7 258.8,421.7 259.3,424.2 259.7,426.1 260.1,428 260.5,430 260.9,432 261.3,434 261.7,436 262.2,438.4 262.6,440.2 263,442 263.3,443.3 263.7,445.2 264,446.7 264.4,448.7 264.8,450.7 265.3,453.2 265.7,455.1 266.1,456.9 266.5,458.8 266.9,460.7 267.1,462.1 267.5,464 267.9,466 268.2,467.4 268.6,469.3 269,471.2 269.3,472.7 269.7,474.7 270,476.7 270.3,478.2 270.7,480.2 271,482.1 271.4,484 271.8,485.9 272.2,487.8 272.6,489.6 273,491.4 273.3,492.6 273.7,494.4 274,496.2 274.4,498.1 274.8,499.9 275.1,501.8 275.5,503.7 275.9,505.5 276.2,506.8 276.6,508.7 277,510.6 277.3,511.9 277.7,513.8 278,515.7 278.3,517 278.7,518.7 279,520.5 279.3,521.8 279.7,523.6 280,525.5 280.4,527.4 280.8,529.2 281.1,531 281.5,532.8 281.9,534.5 282.1,535.8 282.5,537.6 282.9,539.3 283.1,540.5 283.5,542.4 283.9,544.2 284.2,545.6 284.6,547.5 285,549.3 285.3,550.5 285.7,552.3 286,554 286.4,555.7 286.8,557.5 287.1,559.2 287.4,560.5 287.8,562.4 288,563.8 288.3,565.2 288.7,567.1 289,568.9 289.4,570.6 289.8,572.3 290.1,574 290.4,575.4 290.8,577.2 291,578.6 291.3,580 291.7,581.8 292,583.5 292.4,585.1 292.8,586.7 293.1,588.3 293.4,589.6 293.8,591.3 294,592.7 294.4,594.5 294.8,596.3 295.1,598 295.4,599.2 295.8,600.9 296,602.1 296.4,603.8 296.8,605.4 297.1,607.1 297.4,608.2 297.8,609.9 298,611.1 298.3,612.4 298.7,614.1 299,615.9 299.2,617.1 299.6,618.8 299.9,620.4 300.1,621.6 300.5,623.2 300.9,624.9 301.1,626.1 301.5,627.9 301.9,629.6 302.1,630.8 302.4,632 302.8,633.7 303,634.9 303.2,636.1 303.5,637.3 303.8,639 304,640.2 304.3,641.4 304.7,643.1 305,644.8 305.2,646 305.6,647.6 305.9,649.2 306.1,650.3 306.4,651.4 306.8,653.1 307,654.4 307.3,655.6 307.6,656.9 307.9,658.7 308.1,659.8 308.4,661 308.7,662.6 309,664.1 309.2,665.1 309.5,666.2 309.8,667.7 310,668.8 310.2,669.9 310.4,671 310.6,672 310.8,673.2 311,674.4 311.2,675.6 311.4,676.8 311.7,678.4 311.9,679.3 312.1,680.3 312.3,681.3 312.7,682.8 312.9,683.9 313.1,685 313.3,686 313.5,687 313.5,687.6 313.6,688.1 313.7,688.7 313.9,689.8 314.1,690.9 314.3,691.9 314.4,693 314.5,694.2 314.5,695 314.5,695.8 314.5,696.6 314.5,697.5 314.4,698.6 314.3,699.6 314.1,700.5 313.9,701.4 313.7,702.2 313.4,702.9 313,703.7 312.2,705 311.4,706.3 310.4,707.6 309.6,708.6 308.7,709.5 308.2,709.9 307.7,710.3 307.2,710.7 306.3,711.2 305.2,711.7 304.2,712.3 303.1,712.8 301.7,713.3 300.7,713.7 299.8,714.2 298.4,714.8 296.9,715.6 295.6,716.8 294.2,717.9 292.8,719.5 291.7,721.5 290.7,723.3 290,726.7 289.6,731.1 289.5,735 289.8,739 290.2,743.1 290.7,745.7 291.1,747.4 291.5,749 291.7,750 291.9,751 292.1,752 292.3,752.9 292.5,753.8 292.7,754.7 292.9,755.6 293.1,756.4 293.3,757.3 293.5,758.2 293.7,759.1 293.9,760 294.1,761 294.3,762 294.5,763 294.7,764 295,765.4 295.3,766.4 295.5,767.4 295.7,768.4 296,769.9 296.2,771 296.4,772 296.6,773 296.8,774 297,775 297.3,776.1 297.5,777.2 297.8,778.7 298.1,780.2 298.4,781.2 298.6,782.2 298.8,783.2 299,784.4 299.2,785.6 299.4,786.8 299.7,788.4 300,790 300.2,791 300.5,792 300.8,793.6 301,794.7 301.3,795.8 301.6,796.9 301.9,798.5 302.1,799.5 302.4,800.5 302.7,802 303,803.5 303.2,804.5 303.5,805.6 303.8,807.3 304,808.5 304.3,809.8 304.7,811.5 305,813.1 305.2,814.2 305.5,815.3 305.8,816.8 306,818 306.3,819.2 306.7,820.8 307,822.4 307.3,823.5 307.7,825.1 308,826.7 308.2,827.9 308.5,829.1 308.8,830.8 309,832 309.3,833.2 309.7,834.9 310,836.6 310.3,837.9 310.7,839.5 311,841.2 311.3,842.3 311.7,844.1 312.1,845.8 312.5,847.6 312.9,849.3 313.2,851.1 313.5,852.2 313.8,853.9 314,855.1 314.3,856.4 314.7,858.1 315,859.9 315.3,861.1 315.7,862.9 316,864.6 316.3,865.9 316.7,867.5 317,869.2 317.3,870.3 317.7,872 318,873.6 318.3,874.9 318.6,876.1 318.9,877.9 319.2,879.1 319.6,880.7 319.9,882.3 320.3,883.9 320.6,885.2 320.9,887 321.2,888.5 321.6,890.2 321.9,892 322.3,893.5 322.7,895.1 323,896.7 323.3,898 323.7,899.8 324,901.6 324.3,902.9 324.7,904.6 325,906.3 325.3,907.5 325.7,909.2 326.1,910.9 326.4,912.1 326.8,913.9 327.2,915.7 327.5,917 327.8,918.8 328.2,920.6 328.5,921.9 328.8,923.6 329.2,925.3 329.5,926.5 329.8,928.3 330.2,930 330.6,931.7 330.9,933.4 331.3,935.1 331.7,936.8 332,938.5 332.3,939.8 332.7,941.7 333,943.5 333.3,944.8 333.7,946.5 334.1,948.2 334.4,949.4 334.7,950.7 335.1,952.5 335.4,954 335.7,955.8 336.1,957.6 336.6,959.8 336.9,961.4 337.3,963 337.7,964.8 338,966.5 338.3,967.8 338.7,969.5 339,971.2 339.3,972.4 339.7,974.1 340.1,975.8 340.4,977.2 340.8,979 341.2,980.8 341.5,982.2 341.8,984 342.2,985.8 342.6,987.5 342.9,989.1 343.3,990.7 343.7,992.4 344.1,994 344.4,995.3 344.8,997.3 345.2,999.3 345.5,1000.7 345.8,1002.7 346.2,1004.7 346.5,1006 346.8,1007.7 347.2,1009.5 347.5,1010.7 347.9,1012.4 348.3,1014.2 348.7,1015.9 349.1,1017.6 349.6,1019.8 349.9,1021.4 350.3,1023 350.7,1024.8 351,1026.5 351.3,1027.8 351.7,1029.7 352,1031.5 352.3,1032.8 352.7,1034.6 353.1,1036.4 353.5,1038 353.9,1039.7 354.3,1041.4 354.6,1042.6 354.9,1044.4 355.2,1045.9 355.6,1047.7 355.9,1049.5 356.3,1051.4 356.7,1053.1 357,1054.7 357.3,1056 357.7,1057.8 358,1059.5 358.4,1061.3 358.8,1063.1 359.1,1064.9 359.4,1066.1 359.8,1067.9 360,1069.2 360.4,1071.1 360.8,1072.9 361.2,1074.8 361.6,1076.5 362,1078.2 362.2,1079.4 362.6,1081.1 362.9,1082.8 363.2,1084.2 363.6,1086 364,1087.8 364.4,1089.6 364.8,1091.3 365.1,1093 365.5,1094.8 365.9,1096.5 366.1,1097.8 366.5,1099.5 366.9,1101.2 367.1,1102.4 367.5,1104.1 367.9,1105.8 368.2,1107.6 368.6,1109.3 369,1111 369.2,1112.2 369.6,1113.9 369.9,1115.2 370.2,1116.5 370.6,1118.3 371,1120.2 371.3,1121.5 371.7,1123.3 372,1125.1 372.3,1126.4 372.6,1127.9 372.8,1128.9 372.8,1129.3" style="stroke: rgb(251, 191, 36); stroke-width: 7;"></polyline></svg>