<svg xmlns="http://www.w3.org/2000/svg" xmlns:xlink="http://www.w3.org/1999/xlink" preserveAspectRatio="xMidYMid meet" height="100%" viewBox="-250 -500 750 2050">
    <polygon vector-effect="non-scaling-stroke" fill="none" style="stroke: #374151; stroke-width:6" points="  376,1133 377,1141 378,1149 379,1158 380,1166 380,1174 381,1182 381,1190 382,1198 382,1206 382,1215 381,1222 381,1231 380,1238 380,1247 379,1254 378,1262 377,1270 377,1277 376,1285 375,1291 374,1297 374,1303 373,1310 372,1316 371,1321 371,1326 370,1331 369,1336 369,1341 368,1345 368,1349 368,1353 368,1359 368,1363 369,1368 370,1373 372,1378 374,1381 376,1385 378,1388 380,1391 382,1393 384,1395 388,1399 393,1403 398,1406 404,1409 409,1412 414,1415 417,1417 420,1420 422,1422 425,1426 427,1431 428,1434 428,1438 428,1441 428,1444 427,1448 425,1452 422,1456 420,1459 417,1461 413,1464 410,1466 406,1468 402,1470 398,1471 391,1472 386,1473 381,1473 376,1473 372,1473 367,1472 362,1471 358,1471 354,1470 350,1468 346,1467 342,1466 338,1465 334,1463 330,1462 325,1460 320,1459 315,1457 311,1455 306,1453 301,1451 296,1449 290,1447 285,1444 280,1442 274,1439 269,1437 264,1434 258,1431 252,1427 246,1424 241,1420 235,1417 230,1413 224,1409 219,1405 213,1401 207,1396 201,1392 196,1387 190,1383 185,1378 179,1373 173,1369 168,1364 163,1360 159,1356 155,1352 151,1349 147,1345 143,1342 140,1338 137,1335 134,1332 131,1328 129,1325 126,1321 124,1318 123,1315 121,1309 120,1306 119,1302 118,1299 118,1295 118,1291 118,1288 118,1284 118,1280 118,1274 118,1270 118,1266 118,1262 118,1258 118,1254 117,1249 117,1245 116,1240 115,1236 113,1232 112,1227 110,1223 108,1219 106,1214 103,1210 101,1206 98,1202 95,1198 92,1194 88,1189 85,1186 81,1182 77,1178 73,1174 69,1170 64,1166 60,1162 55,1158 50,1154 45,1150 41,1146 35,1141 30,1137 25,1133 20,1128 15,1124 10,1119 5,1114 -2,1106 -7,1101 -11,1096 -16,1089 -20,1084 -24,1077 -27,1071 -30,1065 -33,1058 -36,1052 -38,1046 -39,1039 -41,1032 -42,1025 -43,1018 -44,1012 -44,1004   -44,1004 -45,997 -45,990 -45,983 -45,976 -45,969 -44,962 -44,955 -44,948 -43,941 -43,935 -43,929 -43,923 -42,917 -42,911 -42,906 -42,901 -41,896 -41,891 -41,887 -41,882 -42,878 -43,873 -44,868 -46,862 -49,857 -52,854 -55,850 -58,848 -60,846 -64,844 -67,842 -70,841 -74,839 -78,838 -82,838 -89,837 -93,837 -99,837 -102,837 -108,836 -111,835 -115,835 -119,833 -123,832 -126,830 -130,829 -135,826 -138,824 -142,822 -145,819 -149,816 -153,812 -156,809 -159,805 -162,801 -165,797 -168,792 -170,788 -172,783 -174,778 -176,772 -177,767 -179,762 -180,756 -181,751 -182,745 -183,739 -183,733 -184,727 -185,721 -185,715 -186,708 -187,701 -187,694 -188,688 -189,681 -189,674 -190,667 -190,660 -190,653 -191,645 -191,638 -192,630 -192,623 -192,615 -192,607 -193,599 -193,592 -193,584 -193,576 -193,568 -193,560 -193,552 -193,544 -193,536 -193,528 -192,519 -192,511 -192,503 -191,495 -191,486 -190,478 -190,469 -189,461 -189,453 -188,444 -187,435 -186,426 -185,417 -184,408 -183,399 -182,391 -181,382 -179,373 -178,364 -176,355 -175,346 -173,337 -171,328 -169,320 -167,311 -165,303 -163,295 -161,287 -159,279 -157,273 -155,266 -154,260 -152,254 -151,249 -149,244 -148,239 -147,234 -146,230 -144,224 -143,220 -142,216 -140,212 -139,209 -136,203 -134,200 -131,196 -128,192 -125,190 -123,187 -120,185 -117,183 -114,181 -111,179 -106,177 -102,175 -97,172 -93,171 -90,169 -86,167 -82,165 -79,163 -75,160 -72,158 -68,155 -65,152 -61,149 -58,145 -55,142 -53,138 -50,134 -47,130 -45,126 -42,121 -40,117 -38,112 -36,107 -35,102 -33,97 -32,92 -30,86 -28,81 -27,75 -25,69 -24,63 -23,57 -21,51 -20,45 -18,39 -17,33 -16,26 -14,20 -13,13 -12,7 -10,-4 -9,-11 -7,-18 -6,-25 -5,-32 -4,-39 -2,-47 -1,-54 2,-69 3,-76 4,-84 6,-91 7,-99 8,-107 9,-115 11,-123 12,-130 13,-138 14,-147 15,-155 15,-163 16,-171 16,-179 17,-187 17,-195 17,-204 16,-212 16,-221 15,-229 15,-238   15,-238 14,-246 13,-254 12,-262 11,-271 10,-279 8,-287 7,-296 5,-304 3,-312 2,-320 -1,-331 -2,-337 -3,-343 -5,-349 -6,-355 -7,-360 -8,-365 -9,-370 -10,-374 -11,-378 -12,-382 -13,-386 -14,-390 -15,-395 -16,-400 -17,-405 -18,-411 -18,-415 -18,-419 -17,-423 -16,-427 -14,-430 -12,-433 -10,-436 -7,-437 -4,-439 -2,-440 2,-440 5,-440 8,-439 11,-438 14,-436 17,-433 19,-431 21,-427 23,-423 25,-418 27,-413 28,-408 29,-402 30,-397 30,-393 31,-388 32,-382 32,-379 32,-375 33,-371 33,-367 34,-362 34,-358 35,-354 36,-350 36,-345 37,-341 38,-336 39,-332 40,-327 41,-322 42,-318 44,-312 45,-308 47,-303 48,-298 50,-293 52,-288 54,-283 56,-277 58,-272 60,-266 63,-260 65,-254 67,-248 69,-243 72,-236 74,-230 77,-224 79,-218 82,-211 85,-205 87,-199 90,-192 92,-186 95,-179 98,-172 100,-165 103,-158 106,-150 109,-144 112,-137 114,-130 117,-122 120,-115 123,-108 126,-101 129,-94 131,-87 134,-79 137,-72 140,-64 143,-57 145,-50 148,-41 151,-34 154,-26 156,-18 159,-10 162,-3 164,5 167,13 169,22 172,30 174,38 177,47 179,55 181,63 184,72 186,80 188,89 190,97 193,106 195,115 197,123 199,132 201,141 203,150 205,158 207,167 209,176 211,185 213,195 216,204 218,213 220,222 221,230 223,239 225,249 227,258 229,267 232,277 233,285 235,294 237,303 239,312 241,321 243,330 245,339 247,349 249,358 251,367 253,377 255,386 257,395 259,404 261,413 263,422 265,431 267,440 269,450 271,459 273,468 275,478 276,487 278,496 280,505 282,514 284,523 286,532 288,541 289,550 291,558 293,566 294,573 296,580 297,587 298,593 300,599 301,604 302,610 303,614 304,619 305,624 306,628 307,632 307,636 308,639 309,643 310,649 311,652 312,656 313,662 313,665 313,669 314,674 314,679 313,685 312,691 310,698 308,700 307,703 306,706 303,711 300,716 298,719 296,723 295,726 294,729 293,733 292,738 290,745 290,748 289,754 289,758 289,762 289,766 290,769 290,773 291,778 292,782 293,786 294,791 295,795 296,799 297,804 299,808 300,813 301,817 302,822 304,827 305,832 307,837 308,842 309,847 311,853 312,858 314,863 315,869 317,875 318,880 320,886 321,892 323,898 325,904 326,911 328,917 329,923 331,929 333,936 334,943 336,949 338,956 339,963 341,970 342,976 344,983 346,991 348,998 349,1005 351,1013 353,1020 354,1027 356,1035 358,1043 359,1050 361,1058 363,1066 364,1074 366,1082 367,1089 369,1098 370,1105 372,1112 373,1120 375,1128 376,1133  "></polygon>
    <polyline vector-effect="non-scaling-stroke" fill="none" style="stroke: #EF4444; stroke-width:4" points=" 376,1133 377,1141 378,1149 379,1158 380,1166 380,1174 381,1182 381,1190 382,1198 382,1206 382,1215 381,1222 381,1231 380,1238 380,1247 379,1254 378,1262 377,1270 377,1277 376,1285 375,1291 374,1297 374,1303 373,1310 372,1316 371,1321 371,1326 370,1331 369,1336 369,1341 368,1345 368,1349 368,1353 368,1359 368,1363 369,1368 370,1373 372,1378 374,1381 376,1385 378,1388 380,1391 382,1393 384,1395 388,1399 393,1403 398,1406 404,1409 409,1412 414,1415 417,1417 420,1420 422,1422 425,1426 427,1431 428,1434 428,1438 428,1441 428,1444 427,1448 425,1452 422,1456 420,1459 417,1461 413,1464 410,1466 406,1468 402,1470 398,1471 391,1472 386,1473 381,1473 376,1473 372,1473 367,1472 362,1471 358,1471 354,1470 350,1468 346,1467 342,1466 338,1465 334,1463 330,1462 325,1460 320,1459 315,1457 311,1455 306,1453 301,1451 296,1449 290,1447 285,1444 280,1442 274,1439 269,1437 264,1434 258,1431 252,1427 246,1424 241,1420 235,1417 230,1413 224,1409 219,1405 213,1401 207,1396 201,1392 196,1387 190,1383 185,1378 179,1373 173,1369 168,1364 163,1360 159,1356 155,1352 151,1349 147,1345 143,1342 140,1338 137,1335 134,1332 131,1328 129,1325 126,1321 124,1318 123,1315 121,1309 120,1306 119,1302 118,1299 118,1295 118,1291 118,1288 118,1284 118,1280 118,1274 118,1270 118,1266 118,1262 118,1258 118,1254 117,1249 117,1245 116,1240 115,1236 113,1232 112,1227 110,1223 108,1219 106,1214 103,1210 101,1206 98,1202 95,1198 92,1194 88,1189 85,1186 81,1182 77,1178 73,1174 69,1170 64,1166 60,1162 55,1158 50,1154 45,1150 41,1146 35,1141 30,1137 25,1133 20,1128 15,1124 10,1119 5,1114 -2,1106 -7,1101 -11,1096 -16,1089 -20,1084 -24,1077 -27,1071 -30,1065 -33,1058 -36,1052 -38,1046 -39,1039 -41,1032 -42,1025 -43,1018 -44,1012 -44,1004 "></polyline>
    <polyline vector-effect="non-scaling-stroke" fill="none" style="stroke: #3B82F6; stroke-width:4" points=" -44,1004 -45,997 -45,990 -45,983 -45,976 -45,969 -44,962 -44,955 -44,948 -43,941 -43,935 -43,929 -43,923 -42,917 -42,911 -42,906 -42,901 -41,896 -41,891 -41,887 -41,882 -42,878 -43,873 -44,868 -46,862 -49,857 -52,854 -55,850 -58,848 -60,846 -64,844 -67,842 -70,841 -74,839 -78,838 -82,838 -89,837 -93,837 -99,837 -102,837 -108,836 -111,835 -115,835 -119,833 -123,832 -126,830 -130,829 -135,826 -138,824 -142,822 -145,819 -149,816 -153,812 -156,809 -159,805 -162,801 -165,797 -168,792 -170,788 -172,783 -174,778 -176,772 -177,767 -179,762 -180,756 -181,751 -182,745 -183,739 -183,733 -184,727 -185,721 -185,715 -186,708 -187,701 -187,694 -188,688 -189,681 -189,674 -190,667 -190,660 -190,653 -191,645 -191,638 -192,630 -192,623 -192,615 -192,607 -193,599 -193,592 -193,584 -193,576 -193,568 -193,560 -193,552 -193,544 -193,536 -193,528 -192,519 -192,511 -192,503 -191,495 -191,486 -190,478 -190,469 -189,461 -189,453 -188,444 -187,435 -186,426 -185,417 -184,408 -183,399 -182,391 -181,382 -179,373 -178,364 -176,355 -175,346 -173,337 -171,328 -169,320 -167,311 -165,303 -163,295 -161,287 -159,279 -157,273 -155,266 -154,260 -152,254 -151,249 -149,244 -148,239 -147,234 -146,230 -144,224 -143,220 -142,216 -140,212 -139,209 -136,203 -134,200 -131,196 -128,192 -125,190 -123,187 -120,185 -117,183 -114,181 -111,179 -106,177 -102,175 -97,172 -93,171 -90,169 -86,167 -82,165 -79,163 -75,160 -72,158 -68,155 -65,152 -61,149 -58,145 -55,142 -53,138 -50,134 -47,130 -45,126 -42,121 -40,117 -38,112 -36,107 -35,102 -33,97 -32,92 -30,86 -28,81 -27,75 -25,69 -24,63 -23,57 -21,51 -20,45 -18,39 -17,33 -16,26 -14,20 -13,13 -12,7 -10,-4 -9,-11 -7,-18 -6,-25 -5,-32 -4,-39 -2,-47 -1,-54 2,-69 3,-76 4,-84 6,-91 7,-99 8,-107 9,-115 11,-123 12,-130 13,-138 14,-147 15,-155 15,-163 16,-171 16,-179 17,-187 17,-195 17,-204 16,-212 16,-221 15,-229 15,-238 "></polyline>
    <polyline vector-effect="non-scaling-stroke" fill="none" style="stroke: #FBBF24; stroke-width:4" points=" 15,-238 14,-246 13,-254 12,-262 11,-271 10,-279 8,-287 7,-296 5,-304 3,-312 2,-320 -1,-331 -2,-337 -3,-343 -5,-349 -6,-355 -7,-360 -8,-365 -9,-370 -10,-374 -11,-378 -12,-382 -13,-386 -14,-390 -15,-395 -16,-400 -17,-405 -18,-411 -18,-415 -18,-419 -17,-423 -16,-427 -14,-430 -12,-433 -10,-436 -7,-437 -4,-439 -2,-440 2,-440 5,-440 8,-439 11,-438 14,-436 17,-433 19,-431 21,-427 23,-423 25,-418 27,-413 28,-408 29,-402 30,-397 30,-393 31,-388 32,-382 32,-379 32,-375 33,-371 33,-367 34,-362 34,-358 35,-354 36,-350 36,-345 37,-341 38,-336 39,-332 40,-327 41,-322 42,-318 44,-312 45,-308 47,-303 48,-298 50,-293 52,-288 54,-283 56,-277 58,-272 60,-266 63,-260 65,-254 67,-248 69,-243 72,-236 74,-230 77,-224 79,-218 82,-211 85,-205 87,-199 90,-192 92,-186 95,-179 98,-172 100,-165 103,-158 106,-150 109,-144 112,-137 114,-130 117,-122 120,-115 123,-108 126,-101 129,-94 131,-87 134,-79 137,-72 140,-64 143,-57 145,-50 148,-41 151,-34 154,-26 156,-18 159,-10 162,-3 164,5 167,13 169,22 172,30 174,38 177,47 179,55 181,63 184,72 186,80 188,89 190,97 193,106 195,115 197,123 199,132 201,141 203,150 205,158 207,167 209,176 211,185 213,195 216,204 218,213 220,222 221,230 223,239 225,249 227,258 229,267 232,277 233,285 235,294 237,303 239,312 241,321 243,330 245,339 247,349 249,358 251,367 253,377 255,386 257,395 259,404 261,413 263,422 265,431 267,440 269,450 271,459 273,468 275,478 276,487 278,496 280,505 282,514 284,523 286,532 288,541 289,550 291,558 293,566 294,573 296,580 297,587 298,593 300,599 301,604 302,610 303,614 304,619 305,624 306,628 307,632 307,636 308,639 309,643 310,649 311,652 312,656 313,662 313,665 313,669 314,674 314,679 313,685 312,691 310,698 308,700 307,703 306,706 303,711 300,716 298,719 296,723 295,726 294,729 293,733 292,738 290,745 290,748 289,754 289,758 289,762 289,766 290,769 290,773 291,778 292,782 293,786 294,791 295,795 296,799 297,804 299,808 300,813 301,817 302,822 304,827 305,832 307,837 308,842 309,847 311,853 312,858 314,863 315,869 317,875 318,880 320,886 321,892 323,898 325,904 326,911 328,917 329,923 331,929 333,936 334,943 336,949 338,956 339,963 341,970 342,976 344,983 346,991 348,998 349,1005 351,1013 353,1020 354,1027 356,1035 358,1043 359,1050 361,1058 363,1066 364,1074 366,1082 367,1089 369,1098 370,1105 372,1112 373,1120 375,1128 376,1133 "></polyline>
</svg>