<svg xmlns="http://www.w3.org/2000/svg" xmlns:xlink="http://www.w3.org/1999/xlink" preserveAspectRatio="xMidYMid meet" height="100%" viewBox="-631 -554 1262 1110">
<polyline vector-effect="non-scaling-stroke" fill="none" points="369.7,269.4 369.1,268.9 368.6,268.2 368,267.6 367.5,267 366.9,266.4 366.5,265.8 365.4,264.7 364.4,263.5 363.4,262.4 362.4,261.2 361.4,260.2 360.5,259 359.6,257.9 358.8,256.8 357.9,255.8 357.1,254.8 356.2,253.8 355.5,252.7 354.6,251.7 353.8,250.7 353.1,249.7 352.3,248.7 351.5,247.6 350.7,246.5 349.8,245.4 348.9,244.3 348.1,243.2 347.2,242 346.4,240.8 345.5,239.5 344.5,238.3 343.6,237 342.7,235.7 341.8,234.4 340.8,233.1 339.9,231.8 339.2,230.7 338.4,229.5 337.6,228.4 336.7,227.2 335.8,225.9 335,224.8 334.3,223.7 333.5,222.7 332.8,221.7 332.1,220.7 331.3,219.8 330.6,218.8 329.9,218 329,217 328.2,216 327.3,215.1 326.6,214.2 325.5,213.3 324.4,212.4 322.9,211.5 321.3,210.6 319.4,209.8 317.1,209.3 314.7,208.8 312,208.7 308.9,208.7 305.9,209 302.9,209.5 299.9,209.9 296.8,210.5 294.1,211.3 291.2,212.2 288.7,213.2 286.2,214.3 283.9,215.4 282.1,216.4 280.3,217.4 278.8,218.2 277.6,218.8 276.5,219.4 275.4,220 274.2,220.6 273,221.3 271.8,221.8 270.7,222.5 269.5,223.2 268.5,223.7 267.5,224.3 266.3,224.9 265.2,225.5 263.9,226.2 262.7,226.8 261.5,227.5 260.2,228.2 258.8,229 257.5,229.7 256.2,230.5 254.8,231.2 253.4,232 251.9,232.8 250.5,233.7 249,234.5 247.5,235.4 246,236.3 244.3,237.2 242.5,238.2 240.8,239.2 239,240.2 237.2,241.3 235.4,242.4 233.5,243.5 231.7,244.5 229.8,245.6 227.9,246.7 226,247.8 224.1,248.8 222.1,250 220.2,251.2 218.3,252.2 216.4,253.3 214.4,254.4 212.4,255.5 210.3,256.7 208.3,257.8 206.3,259 204.2,260.2 202.1,261.5 199.9,262.7 197.7,264 195.5,265.2 193.2,266.5 191.1,267.7 188.9,269 186.8,270.3 184.6,271.5 182.5,272.8 180.3,274.1 178.2,275.3 176.1,276.5 174,277.6 171.9,278.8 170,279.8 168.1,280.9 166.2,282 164.4,283.1 162.5,284.1 160.8,285.1 159.1,286 157.5,286.9 155.9,287.8 154.4,288.6 152.9,289.5 151.5,290.3 150.2,291.1 148.9,291.8 147.7,292.5 146.5,293.2 145.3,293.8 144.2,294.5 140.8,296 136.8,297.8 132.2,299.7 127.1,301.7 121.9,303.8 115.6,306.1 104.5,309.4 91.6,313.2 75.5,317.6 55.1,323.1 33.6,328.8 10,334.9 -14.6,341.3 -42.9,348.2 -70.7,354.8 -97.8,361.2 -124.5,367.5 -151.2,373.8 -176.8,379.8 -197.6,384.8 -216.8,389.5 -232.8,393.3 -244.5,396.2 -255.2,398.8 -263.9,401.1 -271.7,403.1 -273.5,403.7 -275.4,404.3 -277.3,404.9 -279.2,405.6 -281.2,406.3 -283.1,407 -285,407.7 -287.1,408.4 -289.2,409.2 -291.2,409.9 -293.3,410.8 -295.4,411.6 -299.5,413.2 -303.6,414.7 -307.8,416.3 -312,417.9 -313.8,418.6 -315.6,419.3 -317.7,420.1 -320,421 -322.5,422 -325.4,423.1" style="stroke: rgb(160, 160, 160); stroke-width: 4;"></polyline>
<polygon vector-effect="non-scaling-stroke" fill="none" points="98.1,331.4 97,331.7 96.1,331.9 95.5,332.1 94.9,332.2 93.6,332.6 92.1,332.9 90.6,333.3 88.7,333.7 86.8,334.2 85.2,334.6 83.3,335 81.4,335.4 79.3,335.8 77.3,336.3 75.4,336.7 73.6,337.2 72.1,337.5 70.6,337.8 69.2,338.2 68,338.4 66.6,338.8 65.3,339.1 64.3,339.4 63.2,339.6 61.8,339.9 60.4,340.3 59.3,340.6 58.3,340.8 57.2,341 56.1,341.3 55,341.5 53.6,341.8 52.2,342.2 51.1,342.4 49.9,342.7 48.4,343 47,343.3 45.6,343.7 44.4,343.9 42.9,344.3 41.7,344.5 40.5,344.7 39.1,345.1 37.7,345.3 36.6,345.6 35.4,345.8 34,346.2 32.6,346.4 31.4,346.7 30.1,347.1 28.7,347.4 27.6,347.7 26.2,348 24.7,348.3 23.3,348.7 21.9,349 20.6,349.3 19.1,349.7 17.7,350 16.2,350.3 14.7,350.7 13.3,351 11.8,351.3 10.4,351.7 8.9,352 7.3,352.4 5.8,352.7 4.3,353.1 2.7,353.4 1.2,353.8 -0.4,354.1 -1.9,354.5 -3.8,354.9 -5.3,355.2 -6.8,355.6 -8.6,355.9 -10.2,356.3 -11.7,356.7 -13.6,357.1 -15.4,357.5 -17.2,357.9 -18.8,358.3 -20.4,358.7 -22.3,359.1 -23.9,359.4 -25.7,359.8 -27.7,360.3 -29.5,360.8 -31.1,361.2 -32.6,361.6 -34.5,361.9 -36.4,362.4 -38.3,362.8 -40.4,363.3 -42.2,363.8 -43.9,364.2 -45.9,364.6 -47.9,365.1 -49.9,365.5 -51.8,366 -53.8,366.5 -55.7,366.9 -57.7,367.4 -59.6,367.9 -61.6,368.3 -63.4,368.8 -65.4,369.2 -67.6,369.7 -69.5,370.2 -71.6,370.6 -73.8,371.2 -75.7,371.6 -77.9,372.1 -80.1,372.6 -81.9,373.1 -84.2,373.6 -86.2,374.1 -88.5,374.6 -90.5,375.1 -92.6,375.6 -94.6,376.1 -96.6,376.5 -98.6,377 -100.9,377.5 -102.8,378 -104.7,378.4 -106.7,378.9 -108.7,379.3 -110.7,379.8 -112.7,380.2 -114.8,380.7 -117.2,381.2 -119.2,381.7 -121.2,382.2 -123.4,382.7 -125.3,383.2 -127.5,383.7 -129.7,384.2 -131.8,384.7 -133.7,385.2 -135.7,385.6 -137.6,386.1 -139.8,386.6 -141.8,387.1 -144.1,387.6 -146,388.1 -148,388.5 -150,389 -152.3,389.5 -154.2,390 -156.4,390.5 -158.3,390.9 -160.5,391.4 -162.4,391.9 -164.7,392.4 -166.6,392.9 -168.8,393.4 -170.8,393.8 -173,394.3 -175,394.8 -177,395.3 -179.1,395.7 -181.1,396.2 -183.1,396.7 -185.1,397.1 -187.1,397.6 -189,398.1 -191,398.5 -193,399 -195.2,399.5 -197.2,399.9 -199.1,400.4 -201.1,400.8 -203.1,401.3 -205.1,401.7 -207.1,402.2 -209.1,402.6 -211.2,403.1 -213.2,403.5 -215.3,404 -217.7,404.6 -219.9,405.1 -222.1,405.6 -224.2,406.2 -226.4,406.7 -228.3,407.2 -230.4,407.7 -232.3,408.2 -234.4,408.7 -236.2,409.1 -238.3,409.6 -240.3,410 -242.4,410.4 -244.4,410.9 -246.8,411.4 -248.8,411.8 -251.1,412.3 -253.1,412.8 -255.3,413.3 -257.3,413.7 -259.2,414.2 -261.2,414.7 -263.1,415.2 -265,415.6 -266.9,416.1 -268.6,416.5 -270.5,417 -272.2,417.4 -274.2,417.9 -276.1,418.3 -278.1,418.8 -280.1,419.3 -282.1,419.8 -284.2,420.2 -286.4,420.8 -288.4,421.2 -290.6,421.7 -292.5,422.2 -294.8,422.7 -296.8,423.1 -299.1,423.6 -300.9,424.1 -302.8,424.5 -304.8,424.9 -307,425.4 -309,425.9 -311.2,426.4 -313.1,426.9 -315,427.4 -316.9,427.8 -318.9,428.3 -321.2,428.8 -323.1,429.2 -325.1,429.7 -327,430.1 -328.9,430.6 -330.9,431 -333.1,431.5 -335,432 -337.1,432.5 -339,433 -341.2,433.5 -343.3,434.1 -345.4,434.6 -347.3,435 -349.5,435.5 -351.4,435.9 -353.3,436.4 -355.3,436.8 -357.3,437.3 -359.3,437.7 -361,438.1 -363,438.6 -365,439.1 -367,439.5 -369.2,440.1 -371.5,440.6 -373.4,441 -375.3,441.4 -377.2,441.9 -379.2,442.3 -381.3,442.7 -383.4,443.1 -385.3,443.4 -387.3,443.8 -389.2,444.1 -391.2,444.4 -393.2,444.7 -395.1,444.9 -397.1,445.2 -398.9,445.3 -400.7,445.4 -402.6,445.5 -404.3,445.5 -406.1,445.5 -407.9,445.5 -409.8,445.4 -411.4,445.4 -413.4,445.3 -415.2,445.1 -416.9,444.9 -418.9,444.7 -420.9,444.3 -422.8,443.9 -424.8,443.4 -426.8,442.9 -428.9,442.4 -430.8,441.8 -432.6,441.2 -434.4,440.6 -436.2,440 -437.7,439.5 -439.4,438.8 -441.1,438.2 -442.6,437.6 -444.2,436.9 -445.7,436.3 -447.1,435.6 -448.9,434.8 -450.4,434 -451.9,433.2 -453.2,432.4 -454.6,431.6 -456.2,430.6 -457.6,429.7 -458.9,428.7 -460.4,427.6 -461.7,426.7 -463,425.7 -464.6,424.5 -466.2,423.3 -467.6,422.2 -468.7,421.2 -470,420.2 -471.3,419.1 -472.3,418.1 -473.5,416.9 -474.7,415.7 -475.8,414.6 -476.9,413.4 -477.9,412.2 -479.1,410.9 -480.1,409.7 -481.3,408.3 -482.4,406.8 -483.4,405.5 -484.4,404.2 -485.2,403.1 -486,401.7 -486.9,400.3 -487.8,398.7 -488.7,397.2 -489.3,395.9 -490.1,394.6 -490.8,393.1 -491.6,391.5 -492.3,389.8 -492.9,388.4 -493.6,386.8 -494.2,385.2 -494.8,383.7 -495.4,382.2 -495.9,380.6 -496.4,378.9 -496.9,377.4 -497.3,375.9 -497.8,374 -498.2,372.4 -498.4,370.8 -498.7,369.2 -498.9,367.7 -499.2,365.8 -499.3,364.2 -499.5,362.6 -499.7,360.8 -499.7,359.3 -499.8,357.6 -499.8,356 -499.8,354.2 -499.8,352.4 -499.8,350.7 -499.7,349.2 -499.6,347.6 -499.4,346 -499.3,344.2 -499.1,342.7 -498.8,340.9 -498.6,339.3 -498.3,337.7 -497.9,336.1 -497.5,334.5 -497.1,332.7 -496.7,331.1 -496.2,329.4 -495.7,327.8 -495.2,326.3 -494.7,324.9 -494,323.2 -493.4,321.7 -492.8,320.2 -492.1,318.7 -491.4,317.3 -490.8,316.1 -490.1,314.7 -489.3,313.4 -488.5,312 -487.8,310.8 -487.1,309.7 -486.3,308.6 -485.6,307.7 -484.8,306.7 -483.9,305.6 -483.1,304.7 -482.2,303.7 -481.5,303.1 -480.6,302.3 -479.7,301.4 -478.6,300.6 -477.6,299.7 -476.7,299 -475.6,298.2 -474.6,297.5 -473.6,296.8 -472.4,296.1 -471.4,295.4 -470.5,294.9 -469.5,294.3 -468.3,293.8 -467.2,293.2 -466.2,292.7 -464.9,292.2 -463.7,291.7 -462.7,291.3 -461.3,290.8 -459.9,290.4 -458.7,290.1 -457.6,289.7 -456.4,289.4 -455.2,289.2 -453.8,288.9 -452.4,288.7 -451,288.4 -449.9,288.2 -448.7,288.1 -447.5,287.9 -446.3,287.8 -445,287.7 -443.6,287.6 -442.6,287.5 -441.6,287.5 -440.3,287.6 -438.9,287.6 -437.7,287.7 -436.3,287.8 -434.9,287.9 -433.7,288 -432.4,288.2 -431.1,288.4 -429.7,288.6 -428.7,288.8 -427.7,289.1 -426.6,289.3 -425.6,289.6 -424.6,290 -423.3,290.4 -422.4,290.9 -421.3,291.3 -420.3,291.8 -419.3,292.3 -418.3,292.8 -417.4,293.3 -416.4,293.9 -415.6,294.4 -414.9,295.1 -414.2,295.6 -413.4,296.3 -412.7,297.1 -411.8,297.9 -410.9,298.9 -410.1,299.8 -409.3,300.7 -408.6,301.6 -407.9,302.3 -407.2,303.2 -406.6,304.1 -406,304.9 -405.5,305.7 -405.1,306.4 -404.7,307.1 -404.3,307.8 -403.9,308.8 -403.4,309.8 -403.1,310.8 -402.8,311.6 -402.6,312.6 -402.4,313.6 -402.2,314.6 -402.1,315.7 -401.9,316.9 -401.8,317.8 -401.8,318.8 -401.8,320 -401.8,321.2 -401.8,322.3 -401.8,323.3 -401.9,324.2 -402,325.1 -402.2,326.2 -402.4,327.3 -402.7,328.6 -402.9,329.7 -403.3,330.7 -403.6,331.8 -404.1,333.1 -404.6,334.4 -405,335.8 -405.5,337 -405.9,338.2 -406.3,339.2 -406.7,340.1 -407.2,341.2 -407.6,342.2 -408,343.1 -408.4,344 -408.9,345 -409.3,346 -409.8,347 -410.2,348 -410.7,349.2 -411.1,350.3 -411.5,351.4 -411.9,352.7 -412.3,354 -412.6,355.2 -412.8,356.2 -413.1,357.4 -413.2,359 -413.3,360.3 -413.4,361.7 -413.6,363 -413.5,364.4 -413.4,365.8 -413.3,367.2 -413.2,368.7 -412.9,370.1 -412.6,371.2 -412.3,372.2 -412,373.4 -411.6,374.7 -411,375.9 -410.4,377.1 -409.8,378.3 -409.2,379.3 -408.5,380.3 -407.8,381.3 -407.1,382.4 -406.3,383.4 -405.6,384.2 -404.7,385 -403.6,385.9 -402.3,386.8 -401.1,387.7 -399.6,388.6 -398,389.4 -396.5,390.3 -395,391 -393.2,391.8 -391.7,392.3 -390.4,392.6 -389.3,392.9 -388.1,393.2 -386.7,393.3 -385.3,393.4 -383.9,393.4 -382.6,393.5 -381.2,393.4 -379.9,393.3 -378.7,393.2 -377.4,393.1 -375.9,392.9 -375,392.7 -373.7,392.2 -372.4,391.7 -371.2,391.1 -370.2,390.6 -369.2,390.1 -367.9,389.5 -366.5,388.6 -365,387.5 -363.5,386.3 -362.2,385.2 -361,383.9 -359.7,382.8 -358.5,381.6 -357.1,380.1 -355.8,378.6 -354.7,377.2 -353.9,376.2 -353.1,374.9 -352.4,373.8 -351.8,372.8 -351.1,371.6 -350.3,370.3 -349.8,369.3 -349.2,368.1 -348.6,366.9 -347.9,365.7 -347.4,364.5 -346.8,363.3 -346.2,362.1 -345.7,360.9 -345.1,359.6 -344.4,358.2 -344,357.1 -343.6,356.1 -343.1,354.8 -342.6,353.8 -342.2,352.7 -341.8,351.5 -341.4,350.3 -341.1,349.2 -340.7,348.2 -340.4,347.2 -340,345.8 -339.7,344.7 -339.3,343.5 -339,342.3 -338.7,341.1 -338.4,339.8 -338.1,338.6 -337.8,337.4 -337.6,335.9 -337.3,334.7 -337.2,333.5 -337,332.1 -336.8,330.7 -336.7,329.3 -336.5,328 -336.4,326.6 -336.3,325 -336.3,323.7 -336.3,322.3 -336.3,321 -336.3,319.7 -336.3,318.3 -336.4,316.9 -336.5,315.4 -336.7,314 -336.8,312.7 -337,311.2 -337.2,309.7 -337.4,308.2 -337.7,306.7 -338.1,305.2 -338.4,303.7 -338.8,302.2 -339.3,300.6 -339.8,298.9 -340.3,297.6 -340.8,296.1 -341.4,294.6 -342.1,293.2 -342.7,291.7 -343.4,290.4 -344.1,289.1 -344.8,287.9 -345.4,286.7 -346.3,285.2 -347.1,283.8 -348,282.5 -348.9,281.2 -349.7,280 -350.7,278.6 -351.7,277.3 -352.7,276 -353.8,274.7 -354.8,273.6 -355.7,272.6 -356.4,271.7 -357.4,270.5 -358.4,269.3 -359.3,268.3 -360.1,267.3 -361.1,266.1 -362.1,265 -363,263.9 -364,262.7 -365.1,261.6 -366.1,260.4 -367.1,259.2 -368.1,258.1 -369.2,256.9 -370.2,255.8 -371.2,254.6 -372.3,253.3 -373.4,252 -374.6,250.7 -375.6,249.6 -376.6,248.4 -377.4,247.3 -378.4,246.1 -379.3,245.1 -380.2,244 -381.1,242.9 -382.1,241.9 -383.1,240.7 -384.2,239.6 -385.2,238.4 -386.3,237.2 -387.4,236.1 -388.6,234.8 -389.7,233.6 -390.8,232.3 -391.8,231.1 -392.8,229.9 -393.8,228.6 -395,227.2 -396,226.1 -397.1,224.8 -398,223.7 -399,222.6 -400.1,221.4 -401.2,220.1 -402.3,218.9 -403.4,217.7 -404.4,216.6 -405.7,215.3 -406.8,214 -407.9,212.8 -409,211.7 -409.9,210.7 -410.9,209.6 -411.9,208.3 -412.9,207.2 -414,206 -414.8,205 -415.8,203.8 -416.9,202.6 -418.2,201 -419.7,199.3 -421.1,197.8 -422.3,196.4 -423.6,195.1 -424.8,193.7 -426.3,192.1 -427.6,190.6 -428.8,189.2 -429.8,188.1 -430.8,186.9 -431.9,185.6 -433.1,184.2 -434.3,182.8 -435.6,181.4 -436.7,180.2 -437.8,178.9 -438.8,177.7 -440,176.4 -441,175.2 -442.1,174 -443.1,172.9 -444.1,171.7 -444.9,170.6 -445.9,169.4 -447,168.2 -448.2,166.9 -449.2,165.7 -450.4,164.4 -451.5,163.2 -452.6,162 -453.7,160.7 -454.8,159.4 -456,158.2 -457.1,156.9 -458.2,155.7 -459.2,154.6 -460.3,153.2 -461.4,151.9 -462.6,150.6 -463.7,149.3 -464.9,147.9 -466.1,146.7 -467.2,145.5 -468.4,144.1 -469.7,142.7 -470.8,141.6 -471.8,140.4 -472.9,139.2 -474.2,137.8 -475.2,136.7 -476.2,135.5 -477.3,134.3 -478.3,133.1 -479.4,131.8 -480.5,130.6 -481.7,129.2 -482.7,128 -483.8,126.8 -484.9,125.6 -486.1,124.3 -487.1,123.1 -488.1,121.9 -489.3,120.6 -490.4,119.3 -491.6,118.1 -492.7,116.8 -493.7,115.7 -494.7,114.4 -495.9,113.1 -497.1,111.8 -498.2,110.6 -499,109.6 -499.9,108.4 -500.9,107.2 -502.1,105.9 -503.1,104.7 -504.1,103.5 -505,102.5 -506.1,101.2 -507.2,99.9 -508.3,98.7 -509.4,97.5 -510.5,96.2 -511.5,95.1 -512.6,93.9 -513.7,92.6 -514.9,91.2 -515.9,90 -517,88.8 -518,87.6 -519,86.3 -520.1,84.9 -521.2,83.6 -522.2,82.4 -523.1,81.3 -524.2,79.9 -525.1,78.8 -526.1,77.6 -527.1,76.2 -528.1,75 -528.9,73.8 -529.8,72.7 -530.8,71.3 -531.8,70 -532.6,68.9 -533.6,67.6 -534.4,66.2 -535.3,64.9 -536.1,63.7 -536.9,62.4 -537.6,61.1 -538.3,59.8 -539,58.6 -539.8,57.1 -540.4,55.9 -541.1,54.6 -541.7,53.3 -542.4,51.8 -543,50.5 -543.7,49.1 -544.3,47.7 -545,46.2 -545.6,44.8 -546.2,43.4 -546.8,42 -547.4,40.5 -547.9,39.1 -548.4,37.6 -549,36.1 -549.4,34.9 -549.9,33.5 -550.4,32.1 -551,30.6 -551.6,28.9 -552.2,27.3 -552.7,25.8 -553.2,24.4 -553.7,23.1 -554.2,21.5 -554.7,20.1 -555.2,18.5 -555.7,17.1 -556.1,15.8 -556.5,14.6 -556.9,13.3 -557.4,11.8 -557.9,10.1 -558.5,8.6 -559,7 -559.5,5.7 -560,4.1 -560.5,2.7 -561,1.1 -561.5,-0.5 -562.1,-2 -562.4,-3.3 -562.9,-4.8 -563.4,-6.3 -563.9,-7.9 -564.4,-9.4 -564.9,-10.9 -565.4,-12.4 -565.9,-13.9 -566.4,-15.5 -567,-17 -567.5,-18.4 -568,-19.9 -568.6,-21.6 -569.2,-23.2 -569.7,-24.7 -570.3,-26.3 -570.8,-27.8 -571.4,-29.4 -571.9,-30.9 -572.5,-32.7 -573.1,-34.1 -573.5,-35.6 -574,-36.9 -574.5,-38.6 -575,-39.9 -575.4,-41.3 -575.9,-42.7 -576.4,-44.1 -576.9,-45.5 -577.3,-46.9 -577.8,-48.3 -578.3,-49.7 -578.8,-51.1 -579.3,-52.4 -579.9,-54.2 -580.5,-55.7 -581.1,-57.3 -581.6,-58.8 -582.2,-60.4 -582.7,-61.9 -583.3,-63.5 -583.8,-65.1 -584.3,-66.6 -584.9,-68.2 -585.4,-69.7 -585.9,-71.2 -586.4,-72.6 -587,-74.2 -587.5,-75.6 -588,-77.2 -588.5,-78.6 -589.1,-80.3 -589.6,-81.7 -590.1,-83.1 -590.7,-84.7 -591.2,-86.3 -591.7,-87.8 -592.3,-89.4 -592.8,-90.9 -593.4,-92.4 -593.9,-93.8 -594.4,-95.3 -594.9,-96.8 -595.5,-98.3 -596.1,-99.8 -596.6,-101.2 -597.1,-102.8 -597.6,-104.3 -598.1,-105.7 -598.6,-107.1 -599.1,-108.5 -599.5,-109.8 -599.9,-111.2 -600.4,-112.5 -600.9,-114 -601.4,-115.4 -601.8,-116.7 -602.3,-118 -602.8,-119.6 -603.3,-120.9 -603.8,-122.3 -604.2,-123.6 -604.8,-125.1 -605.2,-126.4 -605.6,-127.6 -606.1,-128.9 -606.6,-130.3 -607,-131.4 -607.4,-132.5 -607.8,-133.6 -608.2,-134.6 -608.6,-135.6 -608.9,-136.7 -609.4,-137.9 -609.8,-139.1 -610.2,-140.1 -610.5,-141.2 -610.8,-142.3 -611.2,-143.6 -611.6,-144.9 -611.9,-146 -612.2,-147.1 -612.4,-147.9 -612.6,-148.8 -612.8,-149.7 -612.9,-150.6 -613.1,-151.6 -613.2,-152.3 -613.3,-153.2 -613.3,-154.2 -613.4,-155.2 -613.4,-156.3 -613.4,-157.4 -613.3,-158.5 -613.3,-159.5 -613.2,-160.4 -613.1,-161.3 -613,-162.2 -612.8,-163 -612.5,-163.9 -612.2,-164.7 -611.9,-165.5 -611.6,-166.2 -611.3,-166.9 -610.8,-167.8 -610.1,-168.7 -609.3,-169.7 -608.6,-170.5 -607.9,-171.2 -606.9,-171.9 -605.9,-172.7 -604.8,-173.4 -603.7,-174.1 -602.6,-174.7 -601.7,-175.1 -600.7,-175.3 -599.7,-175.6 -598.7,-175.9 -597.9,-176 -596.9,-176.1 -595.8,-176.2 -594.8,-176.2 -593.7,-176.2 -592.7,-176.2 -591.8,-176.2 -590.9,-176.1 -589.7,-175.9 -588.7,-175.7 -587.9,-175.5 -587,-175.2 -586.2,-174.9 -585.3,-174.7 -584.5,-174.3 -583.5,-173.9 -582.3,-173.3 -581.4,-172.8 -580.2,-172.2 -579.1,-171.5 -578,-170.9 -576.8,-170.1 -575.6,-169.3 -574.3,-168.5 -573.1,-167.7 -571.9,-166.8 -570.7,-165.9 -569.7,-165.2 -568.7,-164.5 -567.7,-163.8 -566.7,-163 -565.6,-162.2 -564.6,-161.4 -563.6,-160.7 -562.8,-160.1 -562,-159.6 -561,-158.8 -560,-158.1 -558.9,-157.3 -558.1,-156.8 -557.3,-156.1 -556.2,-155.2 -555.1,-154.3 -553.9,-153.4 -552.8,-152.5 -551.9,-151.7 -550.9,-150.9 -549.8,-149.9 -548.7,-148.9 -547.7,-148 -546.8,-147.2 -545.9,-146.4 -545,-145.6 -543.8,-144.5 -542.7,-143.5 -541.7,-142.6 -540.7,-141.7 -539.7,-140.8 -538.7,-139.9 -537.7,-139 -536.7,-138.1 -535.7,-137.2 -534.8,-136.3 -533.8,-135.3 -532.8,-134.3 -531.7,-133.2 -530.6,-132.1 -529.4,-130.9 -528.4,-129.9 -527.4,-128.9 -526.3,-127.6 -525.2,-126.3 -524.2,-125.2 -523.2,-124 -522.3,-122.9 -521.4,-121.8 -520.5,-120.7 -519.6,-119.5 -518.6,-118.3 -517.8,-117.5 -517.1,-116.6 -516.2,-115.4 -515.3,-114.3 -514.3,-113.2 -513.4,-112.1 -512.5,-110.8 -511.4,-109.3 -510.4,-107.8 -509.2,-106.1 -508,-104.5 -507,-103.1 -506,-101.6 -504.8,-99.9 -503.7,-98.3 -502.7,-96.8 -501.8,-95.6 -500.8,-94.1 -500,-92.7 -499.2,-91.4 -498.3,-90 -497.4,-88.6 -496.7,-87.4 -495.9,-86.1 -495.1,-84.7 -494.1,-83 -493.3,-81.6 -492.6,-80.2 -491.8,-78.8 -490.9,-77.3 -490.2,-75.9 -489.2,-74.3 -488.4,-72.9 -487.6,-71.5 -486.8,-70.1 -486,-68.7 -485.2,-67.3 -484.2,-65.6 -483.3,-64 -482.3,-62.4 -481.5,-60.9 -480.7,-59.5 -479.7,-57.8 -478.8,-56.3 -477.9,-54.7 -477.1,-53.2 -476.2,-51.6 -475.4,-50.3 -474.6,-48.8 -473.7,-47.2 -472.6,-45.3 -471.6,-43.7 -470.8,-42.3 -469.9,-40.8 -469,-39.2 -468.1,-37.6 -467.1,-35.9 -466.2,-34.4 -465.3,-32.8 -464.4,-31.2 -463.5,-29.6 -462.6,-28 -461.4,-26.1 -460.4,-24.4 -459.6,-22.9 -458.7,-21.5 -457.7,-19.7 -456.8,-18.1 -456,-16.7 -455.1,-15 -454.1,-13.3 -453.3,-11.9 -452.5,-10.4 -451.6,-8.8 -450.6,-7 -449.7,-5.6 -448.8,-4.1 -447.8,-2.3 -446.9,-0.8 -446,0.8 -445.1,2.4 -444.2,4.1 -443.3,5.7 -442.4,7.2 -441.6,8.9 -440.5,10.8 -439.6,12.4 -438.7,13.9 -437.9,15.3 -436.9,17.1 -436.1,18.5 -435.2,20.1 -434.3,21.6 -433.4,23.2 -432.6,24.6 -431.8,26 -430.9,27.6 -429.9,29.4 -428.9,31 -427.8,32.9 -426.8,34.7 -425.8,36.4 -424.9,37.9 -423.9,39.6 -422.8,41.5 -421.8,43.2 -420.9,44.7 -419.9,46.4 -419.1,47.9 -418.3,49.4 -417.4,50.9 -416.4,52.6 -415.4,54.3 -414.6,55.8 -413.7,57.3 -412.7,58.8 -411.8,60.3 -410.7,61.9 -409.6,63.7 -408.5,65.4 -407.3,67.2 -406.3,68.7 -405.2,70.5 -403.9,72.3 -402.7,74.1 -401.3,75.9 -400.1,77.6 -398.9,79.2 -397.7,80.7 -396.4,82.2 -395.1,83.8 -393.9,85.1 -392.6,86.5 -391.2,87.9 -390,89.1 -388.7,90.3 -387.2,91.8 -385.6,93.1 -384.2,94.3 -382.8,95.5 -381.3,96.8 -379.8,97.9 -378.3,99.1 -376.7,100.3 -375.1,101.6 -373.8,102.5 -372.5,103.4 -370.9,104.6 -369.2,105.7 -367.4,106.8 -365.9,107.7 -364.2,108.7 -362.7,109.5 -361.1,110.4 -359.4,111.3 -357.8,112.1 -356,112.9 -354.4,113.7 -352.9,114.4 -351.3,115.1 -349.7,115.9 -348,116.6 -346.4,117.3 -344.5,117.9 -342.6,118.7 -341.2,119.2 -339.5,119.7 -337.5,120.3 -335.6,120.8 -333.9,121.3 -332,121.8 -330.1,122.2 -328.5,122.6 -326.9,122.9 -324.9,123.3 -323.1,123.6 -321.6,123.8 -319.8,124.2 -317.8,124.4 -316,124.7 -314.3,124.9 -312.4,125.1 -310.6,125.2 -308.9,125.3 -307.2,125.4 -305.3,125.5 -303.6,125.5 -302,125.5 -300.3,125.5 -298.6,125.5 -296.6,125.4 -294.6,125.3 -292.7,125.2 -291,125.1 -288.9,124.9 -286.9,124.7 -285,124.5 -283,124.2 -281.1,123.9 -279.3,123.6 -277.4,123.3 -275.7,122.9 -273.7,122.6 -272.1,122.2 -270.2,121.8 -268.4,121.3 -266.6,120.8 -264.8,120.3 -263.2,119.8 -261.4,119.1 -259.6,118.5 -257.9,117.9 -256.2,117.3 -254.6,116.6 -252.7,115.8 -251.2,115.2 -249.6,114.4 -247.8,113.6 -246.2,112.8 -244.4,111.9 -242.4,110.9 -240.6,109.8 -238.9,108.8 -237.3,107.9 -235.5,106.8 -233.7,105.7 -232.1,104.7 -230.5,103.6 -228.9,102.4 -227.6,101.4 -226.2,100.4 -224.8,99.4 -223.3,98.3 -222.1,97.3 -220.8,96.2 -219.3,95 -217.9,93.9 -216.4,92.4 -214.9,91.1 -213.5,89.7 -212.1,88.2 -210.8,86.9 -209.6,85.6 -208.2,84.2 -206.9,82.7 -205.7,81.2 -204.7,80.1 -203.6,78.6 -202.4,77.1 -201.2,75.6 -199.9,73.8 -198.7,72.1 -197.7,70.4 -196.7,68.8 -195.6,67.1 -194.4,65.2 -193.6,63.7 -192.6,62.1 -191.6,60.3 -190.7,58.6 -189.7,56.9 -188.7,55.1 -187.9,53.5 -187.1,51.8 -186.2,50.1 -185.4,48.4 -184.6,46.8 -183.9,45.3 -183.1,43.7 -182.3,42 -181.6,40.3 -180.8,38.6 -180.1,37.2 -179.3,35.4 -178.5,33.6 -177.7,31.7 -176.8,29.8 -176.1,28.2 -175.4,26.7 -174.6,24.9 -173.8,23.2 -173.1,21.5 -172.3,19.8 -171.5,18.2 -170.8,16.7 -170.2,15.2 -169.3,13.5 -168.4,11.7 -167.8,10.2 -167,8.6 -166.1,6.7 -165.3,5.1 -164.6,3.5 -163.8,1.9 -162.9,0.1 -162.2,-1.6 -161.4,-3.1 -160.7,-4.6 -159.9,-6.3 -159.2,-7.7 -158.4,-9.1 -157.8,-10.4 -157,-12 -156.3,-13.2 -155.6,-14.7 -154.8,-16.1 -153.8,-17.8 -152.9,-19.2 -152,-20.7 -151.1,-22.2 -150.2,-23.7 -149.2,-25.2 -148.2,-26.7 -147.3,-28 -146.4,-29.3 -145.6,-30.4 -144.8,-31.5 -144.1,-32.4 -143.3,-33.4 -142.3,-34.6 -141.6,-35.4 -140.8,-36.3 -139.9,-37.3 -139.1,-38.2 -138.2,-39.1 -137.3,-39.9 -136.5,-40.8 -135.5,-41.7 -134.6,-42.5 -133.7,-43.3 -132.8,-44.1 -131.8,-44.9 -130.9,-45.6 -130,-46.3 -129.1,-47.1 -128.2,-47.7 -127.3,-48.4 -126.2,-49.1 -125.2,-49.8 -124.1,-50.4 -122.9,-51.1 -121.8,-51.7 -120.7,-52.4 -119.6,-53 -118.4,-53.7 -117.3,-54.2 -116.3,-54.7 -115.2,-55.2 -114.1,-55.8 -113.2,-56.2 -112.2,-56.7 -111,-57.1 -109.8,-57.6 -108.7,-58.1 -107.8,-58.5 -106.7,-58.9 -105.4,-59.4 -104.2,-59.8 -102.9,-60.2 -101.5,-60.6 -100.2,-61 -98.9,-61.3 -97.6,-61.7 -96.1,-62.1 -94.8,-62.3 -93.6,-62.5 -92.4,-62.7 -90.8,-62.9 -89.6,-63.1 -88.3,-63.3 -87,-63.4 -85.7,-63.6 -84.4,-63.7 -83.1,-63.8 -81.8,-63.9 -80.5,-64 -79.5,-64 -78.5,-64 -77.5,-63.9 -76.2,-63.8 -74.8,-63.7 -73.4,-63.6 -72.1,-63.5 -70.8,-63.4 -69.5,-63.2 -67.9,-63 -66.4,-62.8 -64.8,-62.6 -63.6,-62.4 -62.2,-62.2 -60.9,-61.9 -59.7,-61.7 -58.6,-61.4 -57.2,-61.1 -56.2,-60.8 -55.1,-60.4 -53.9,-60.1 -52.7,-59.6 -51.6,-59.2 -50.5,-58.8 -49.3,-58.4 -48,-57.8 -46.8,-57.3 -45.7,-56.8 -44.4,-56.3 -43.2,-55.7 -42.2,-55.3 -40.9,-54.6 -39.6,-53.9 -38.4,-53.3 -37.4,-52.7 -36.4,-52.1 -35.3,-51.3 -34.2,-50.6 -33.1,-49.9 -31.9,-49.1 -30.8,-48.2 -29.8,-47.4 -28.7,-46.6 -27.5,-45.6 -26.3,-44.6 -25.3,-43.8 -24.3,-42.9 -23.2,-41.9 -22.2,-41.1 -21.4,-40.3 -20.6,-39.4 -19.6,-38.5 -18.8,-37.6 -17.9,-36.7 -17.1,-35.8 -16.2,-34.8 -15.3,-33.7 -14.4,-32.7 -13.4,-31.4 -12.6,-30.3 -11.7,-29.3 -10.9,-28.3 -10,-26.9 -9.1,-25.6 -8.4,-24.5 -7.7,-23.4 -6.9,-22.2 -6.3,-21.2 -5.6,-20.1 -5,-18.9 -4.3,-17.7 -3.8,-16.6 -3.2,-15.6 -2.6,-14.3 -2,-13 -1.4,-11.8 -0.8,-10.7 -0.2,-9.3 0.5,-8 1.1,-6.7 1.7,-5.6 2.3,-4.1 2.9,-2.8 3.6,-1.7 4.1,-0.4 4.7,0.9 5.3,2.2 5.8,3.4 6.3,4.5 7,6 7.6,7.2 8.2,8.5 8.7,9.8 9.3,11 9.8,12.2 10.4,13.4 10.9,14.7 11.6,16 12.1,17.2 12.6,18.3 13.2,19.6 13.8,20.9 14.4,22.2 14.9,23.3 15.4,24.3 15.8,25.2 16.3,26.3 16.8,27.3 17.2,28.2 17.6,29.1 18,30 18.4,30.9 18.9,32 19.4,33.1 19.9,34.2 20.4,35.3 20.9,36.2 21.5,37.4 22.1,38.4 22.6,39.5 23.2,40.6 23.8,41.7 24.4,42.9 25.1,44 25.7,45 26.4,46.2 27,47.2 27.8,48.3 28.8,49.7 29.9,50.9 30.8,52 32,53.2 33.2,54.3 34.3,55.4 35.6,56.5 36.8,57.4 37.9,58.2 38.9,58.8 40.2,59.4 41.4,59.9 42.8,60.3 44.2,60.7 45.7,61.1 47.1,61.3 48.7,61.6 50.3,61.8 52.1,61.8 53.7,61.7 55.4,61.6 56.9,61.3 58.6,61 60.2,60.6 62.1,60 64,59.2 65.9,58.3 67.6,57.3 69.3,56.3 70.8,55.3 72.3,54.2 73.8,52.9 75.2,51.7 76.3,50.6 77.2,49.8 77.9,48.9 78.6,48.3 79.2,47.6 79.8,46.9 80.4,46.2 81.1,45.6 81.6,44.8 82.2,44.2 82.8,43.4 83.4,42.7 84.1,41.9 84.8,41.1 85.7,40.1 86.4,39.1 87.1,38.3 87.9,37.2 88.8,36.1 89.7,35 90.6,33.9 91.4,32.8 92.4,31.5 93.2,30.4 94.1,29.4 94.9,28.3 95.7,27.3 96.4,26.3 97.2,25.3 98,24.3 98.8,23.3 99.4,22.5 100.3,21.4 101.2,20.3 102.2,19 102.9,17.9 103.8,16.8 104.8,15.5 105.9,14.2 106.8,12.9 107.8,11.5 108.7,10.4 109.5,9.2 110.3,8.2 111.2,6.9 112.1,5.7 112.8,4.7 113.6,3.4 114.5,2 115.3,0.6 116.1,-0.9 116.9,-2.4 117.7,-3.9 118.3,-5.2 118.9,-6.8 119.5,-8.4 119.9,-9.7 120.2,-10.9 120.4,-11.9 120.7,-12.9 120.8,-14.3 120.9,-15.6 121,-16.9 121,-18 121,-19 120.9,-20.3 120.8,-21.6 120.6,-23.1 120.4,-24.6 120.2,-25.6 119.8,-26.7 119.4,-28 119,-29.3 118.5,-30.7 118,-31.8 117.5,-33 117.1,-34 116.6,-35.1 115.9,-36.4 115.3,-37.5 114.8,-38.4 114.3,-39.4 113.8,-40.2 113.1,-41.4 112.5,-42.4 111.9,-43.5 111.3,-44.4 110.8,-45.1 110.3,-45.9 109.6,-47 108.9,-48.1 108.3,-49.1 107.7,-50 107.1,-50.9 106.4,-51.8 105.7,-52.9 105,-54.1 104.2,-55.3 103.6,-56.4 102.8,-57.4 102.2,-58.5 101.6,-59.4 100.9,-60.6 100.1,-61.9 99.3,-63 98.6,-64.1 97.9,-65.2 97.2,-66.5 96.4,-67.8 95.7,-69.1 94.8,-70.6 94,-71.8 93.2,-73.2 92.3,-74.6 91.5,-75.9 90.6,-77.4 89.8,-78.7 89,-79.9 88.2,-81.2 87.4,-82.6 86.6,-84 85.9,-85.1 85.1,-86.5 84.2,-87.9 83.4,-89.1 82.6,-90.5 81.6,-92.1 80.7,-93.7 79.8,-95.1 78.9,-96.6 78,-97.9 77.2,-99.2 76.3,-100.7 75.3,-102.2 74.5,-103.6 73.8,-104.8 72.8,-106.3 71.9,-107.6 71.1,-109 70.1,-110.7 69.1,-112.2 68.3,-113.6 67.4,-115.2 66.4,-116.8 65.4,-118.4 64.4,-120 63.5,-121.6 62.5,-123.2 61.5,-124.9 60.5,-126.6 59.5,-128.2 58.5,-129.9 57.5,-131.6 56.5,-133.3 55.5,-134.9 54.5,-136.6 53.5,-138.3 52.6,-139.8 51.6,-141.6 50.4,-143.4 49.4,-145.1 48.2,-146.9 47.1,-148.8 46.1,-150.3 45,-152.1 43.9,-153.9 42.7,-155.8 41.7,-157.3 40.8,-158.9 39.7,-160.8 38.7,-162.4 37.8,-164 36.7,-165.9 35.6,-167.8 34.4,-169.6 33.3,-171.6 32.1,-173.6 30.9,-175.4 29.9,-177.1 28.7,-179 27.5,-181 26.4,-182.8 25.2,-184.7 24.1,-186.6 23.1,-188.2 21.9,-190.1 20.8,-191.9 19.7,-193.7 18.6,-195.6 17.5,-197.4 16.3,-199.3 15.3,-201.1 14.2,-202.8 13.1,-204.7 12.1,-206.4 11,-208.2 9.8,-210.3 8.7,-212.1 7.5,-213.9 6.4,-215.8 5.2,-217.8 4.1,-219.7 2.9,-221.6 1.7,-223.6 0.4,-225.6 -0.7,-227.3 -1.9,-229.2 -2.9,-231 -4.2,-233.1 -5.2,-234.8 -6.3,-236.7 -7.6,-238.8 -8.6,-240.6 -9.7,-242.4 -10.8,-244.3 -12,-246.3 -13.2,-248.3 -14.3,-250.1 -15.6,-252 -16.7,-253.8 -17.9,-255.8 -19.1,-257.8 -20.2,-259.7 -21.4,-261.8 -22.6,-263.7 -23.7,-265.5 -24.8,-267.4 -25.8,-269.2 -26.9,-271 -28,-272.7 -29.2,-274.6 -30.3,-276.4 -31.3,-278.1 -32.4,-279.9 -33.4,-281.7 -34.6,-283.6 -35.7,-285.5 -36.8,-287.3 -37.8,-289.1 -38.9,-290.8 -39.9,-292.5 -41.1,-294.4 -42.2,-296.1 -43.2,-297.8 -44.3,-299.6 -45.5,-301.4 -46.6,-303.2 -47.8,-305.2 -48.9,-307 -50.1,-308.8 -51.2,-310.6 -52.3,-312.3 -53.4,-314.1 -54.4,-315.7 -55.3,-317.3 -56.4,-319.1 -57.3,-320.6 -58.2,-322.2 -59.3,-323.9 -60.2,-325.4 -61.1,-327.1 -62.2,-328.8 -63.2,-330.5 -64.2,-332.2 -65.2,-333.8 -66.2,-335.5 -67.3,-337.3 -68.3,-339 -69.3,-340.6 -70.4,-342.4 -71.4,-344.1 -72.4,-345.7 -73.5,-347.6 -74.5,-349.2 -75.5,-350.8 -76.5,-352.4 -77.4,-354.1 -78.4,-355.7 -79.2,-357.1 -80.1,-358.7 -81.1,-360.3 -81.9,-361.7 -82.8,-363.3 -83.8,-364.9 -84.6,-366.3 -85.6,-367.9 -86.6,-369.5 -87.6,-371.1 -88.4,-372.4 -89.2,-373.9 -90.1,-375.4 -90.9,-376.8 -91.8,-378.2 -92.7,-379.7 -93.4,-381.1 -94.2,-382.4 -95,-383.7 -95.8,-385.2 -96.6,-386.4 -97.4,-387.6 -98,-388.6 -98.7,-389.7 -99.4,-390.9 -100,-391.8 -100.6,-392.8 -101.2,-393.7 -101.7,-394.6 -102.2,-395.5 -102.8,-396.5 -103.5,-397.7 -104.1,-398.7 -104.6,-399.6 -105.2,-400.7 -105.9,-401.8 -106.8,-403.1 -107.6,-404.3 -108.3,-405.6 -109.1,-406.6 -109.6,-407.5 -110.2,-408.3 -111.1,-409.6 -111.9,-410.6 -113.2,-412 -114.6,-413.2 -115.9,-414.3 -118.3,-415.4 -120.7,-416.5 -124,-417 -127.3,-417.4 -130.4,-417.2 -133.6,-417 -136.3,-416.1 -138.8,-415 -141.3,-413.9 -142.8,-412.7 -144.3,-411.6 -145.2,-410.6 -146.1,-409.6 -146.8,-408.7 -147.6,-407.7 -148.2,-407.1 -148.7,-406.4 -149.4,-405.5 -150.3,-404.4 -151.2,-403.3 -151.8,-402.6 -152.4,-401.8 -153.3,-400.7 -154.1,-399.7 -154.9,-398.6 -155.8,-397.5 -156.5,-396.6 -157.1,-395.9 -157.9,-394.9 -158.8,-393.9 -159.6,-392.9 -160.3,-392.2 -161.1,-391.4 -161.9,-390.6 -162.8,-389.7 -163.8,-388.7 -164.8,-387.7 -165.6,-386.9 -166.3,-386.2 -167.1,-385.6 -167.8,-384.9 -168.6,-384.3 -169.3,-383.8 -170.1,-383.2 -170.8,-382.8 -171.6,-382.3 -172.3,-381.8 -173.3,-381.4 -174.2,-380.9 -175.2,-380.4 -176,-380.1 -176.8,-379.7 -177.8,-379.3 -178.7,-379 -179.6,-378.8 -180.4,-378.6 -181.1,-378.4 -182,-378.2 -182.9,-378.1 -183.9,-377.9 -185,-377.8 -185.9,-377.7 -186.8,-377.7 -187.9,-377.7 -188.9,-377.7 -190,-377.7 -190.9,-377.7 -191.9,-377.8 -192.9,-378 -193.9,-378.2 -194.8,-378.3 -195.6,-378.6 -196.5,-378.8 -197.3,-379.1 -198.3,-379.4 -199.4,-379.8 -200.3,-380.2 -201.2,-380.6 -202.1,-381 -203.1,-381.6 -204.2,-382.1 -205.1,-382.7 -206.2,-383.3 -207.1,-383.9 -207.9,-384.4 -208.8,-385.2 -209.9,-386 -210.9,-386.9 -211.9,-387.7 -212.9,-388.6 -213.9,-389.6 -214.8,-390.4 -215.7,-391.3 -216.7,-392.4 -217.6,-393.4 -218.3,-394.3 -219.1,-395.2 -219.8,-396.2 -220.6,-397.2 -221.3,-398.3 -222.2,-399.4 -223,-400.6 -223.7,-401.6 -224.4,-402.7 -225.1,-403.8 -225.9,-405.1 -226.7,-406.2 -227.3,-407.3 -227.9,-408.3 -228.6,-409.3 -229.1,-410.3 -229.7,-411.5 -230.3,-412.7 -230.9,-413.8 -231.4,-414.8 -231.9,-416 -232.4,-417.2 -232.9,-418.4 -233.4,-419.7 -233.9,-421.1 -234.4,-422.4 -234.8,-423.6 -235.2,-425 -235.7,-426.4 -236.1,-427.7 -236.5,-429.2 -236.8,-430.5 -237.2,-431.9 -237.6,-433.3 -237.9,-434.7 -238.2,-436.2 -238.5,-437.4 -238.7,-438.7 -238.9,-440.1 -239.1,-441.4 -239.3,-442.9 -239.4,-444.3 -239.4,-445.6 -239.5,-446.9 -239.5,-448.4 -239.5,-450 -239.5,-451.6 -239.5,-453.1 -239.5,-454.7 -239.5,-456.1 -239.5,-457.7 -239.5,-459.2 -239.4,-460.6 -239.3,-462.1 -239.2,-463.7 -239.1,-465.1 -238.9,-466.4 -238.7,-467.9 -238.5,-469.3 -238.2,-470.7 -237.9,-472.1 -237.6,-473.7 -237.3,-475.1 -236.9,-476.4 -236.6,-477.7 -236.2,-479.2 -235.7,-480.6 -235.2,-482.1 -234.7,-483.5 -234.2,-484.9 -233.7,-486.2 -233.2,-487.4 -232.4,-489.1 -231.6,-490.8 -230.8,-492.3 -229.9,-493.9 -229.1,-495.4 -228.2,-496.9 -227.2,-498.6 -226.2,-500.2 -225.2,-501.7 -224.3,-502.8 -223.4,-504.1 -222.5,-505.2 -221.7,-506.2 -220.8,-507.3 -219.7,-508.4 -218.8,-509.3 -217.7,-510.4 -216.5,-511.6 -215.4,-512.6 -214.4,-513.6 -213.3,-514.6 -211.9,-515.8 -210.8,-516.8 -209.7,-517.8 -208.6,-518.7 -207.7,-519.4 -206.6,-520.2 -205.2,-521.1 -203.9,-521.9 -202.6,-522.7 -201.4,-523.4 -200.3,-524 -199.1,-524.7 -197.5,-525.4 -196,-526.2 -194.7,-526.8 -193.4,-527.3 -192.1,-527.9 -190.7,-528.5 -189.2,-529.1 -187.7,-529.6 -186,-530.2 -184.7,-530.7 -183.3,-531.2 -181.6,-531.7 -180.2,-532.1 -178.8,-532.5 -177.4,-532.9 -176.2,-533.2 -174.6,-533.6 -173.1,-533.8 -171.7,-534.1 -170.2,-534.3 -168.9,-534.5 -167.2,-534.8 -165.6,-535 -163.9,-535.2 -162.3,-535.4 -160.9,-535.6 -159.4,-535.7 -157.9,-535.8 -156.3,-535.9 -154.6,-536 -153.2,-536 -151.6,-536 -150.1,-536 -148.5,-536 -147,-535.9 -145.6,-535.9 -144.2,-535.8 -142.7,-535.7 -141.1,-535.6 -139.6,-535.5 -138.2,-535.3 -136.8,-535.2 -135.6,-535 -134,-534.8 -132.4,-534.6 -130.8,-534.4 -129.5,-534.2 -128.2,-534 -126.9,-533.7 -125.3,-533.4 -123.7,-533.1 -122.1,-532.8 -120.8,-532.5 -119.6,-532.2 -118.3,-531.9 -116.7,-531.4 -115.4,-531.1 -113.9,-530.6 -112.8,-530.2 -111.4,-529.8 -110.1,-529.3 -108.8,-528.8 -107.2,-528.3 -105.7,-527.7 -104.3,-527.2 -103,-526.7 -101.7,-526.2 -100.3,-525.6 -99.1,-525.1 -97.9,-524.5 -96.4,-523.8 -95.2,-523.2 -94.1,-522.6 -92.8,-521.8 -91.3,-521 -90.1,-520.3 -88.9,-519.6 -87.5,-518.7 -86.1,-517.8 -85,-517.2 -83.6,-516.2 -82.1,-515.3 -80.9,-514.4 -79.7,-513.7 -78.6,-512.9 -77.4,-512.1 -76.3,-511.3 -75.1,-510.3 -73.8,-509.3 -72.8,-508.5 -71.8,-507.7 -70.7,-506.7 -69.4,-505.5 -68.2,-504.3 -66.9,-503.2 -65.7,-502.1 -64.6,-501.1 -63.4,-500 -62.3,-498.8 -61.2,-497.7 -60.2,-496.8 -59.2,-495.8 -58.2,-494.7 -57.2,-493.5 -56.2,-492.3 -55.2,-491.2 -54.2,-489.9 -53.2,-488.7 -52.1,-487.3 -51,-485.9 -50.1,-484.8 -49.2,-483.7 -48.3,-482.4 -47.5,-481.1 -46.5,-479.7 -45.6,-478.3 -44.7,-477 -43.8,-475.7 -43,-474.3 -42.1,-472.9 -41.1,-471.3 -40.1,-469.9 -39.1,-468.5 -38.1,-467.1 -37.2,-465.7 -36.3,-464.3 -35.3,-462.8 -34.2,-461.3 -33.2,-459.8 -32.2,-458.3 -31.3,-456.9 -30.3,-455.5 -29.3,-453.9 -28.3,-452.4 -27.3,-450.9 -26.3,-449.4 -25.3,-448 -24.4,-446.6 -23.4,-445.1 -22.4,-443.4 -21.3,-441.8 -20.3,-440.3 -19.3,-438.7 -18.3,-437.3 -17.4,-435.9 -16.4,-434.3 -15.3,-432.6 -14.3,-431 -13.3,-429.6 -12.3,-427.9 -11.3,-426.5 -10.4,-425.1 -9.4,-423.4 -8.3,-421.7 -7.3,-420.1 -6.3,-418.7 -5.3,-417.1 -4.2,-415.4 -3.1,-413.7 -2,-412.1 -0.9,-410.3 0.2,-408.7 1.2,-407.2 2.3,-405.5 3.5,-403.8 4.4,-402.4 5.5,-400.7 6.6,-399.1 7.6,-397.5 8.8,-395.7 9.9,-394 11.2,-392.1 12.2,-390.5 13.2,-388.9 14.3,-387.1 15.4,-385.5 16.4,-383.8 17.6,-382.1 18.6,-380.4 19.7,-378.8 20.8,-377.2 21.9,-375.4 23,-373.8 24.1,-372.1 25.3,-370.2 26.4,-368.6 27.6,-366.8 28.6,-365.2 29.7,-363.4 30.7,-361.8 31.9,-360 33.1,-358.2 34.2,-356.6 35.2,-355.1 36.2,-353.5 37.2,-351.9 38.4,-350.1 39.5,-348.4 40.7,-346.6 41.8,-344.8 42.9,-343.1 44.1,-341.3 45.3,-339.6 46.4,-337.9 47.5,-336.2 48.6,-334.5 49.8,-332.7 50.9,-331 52,-329.4 53.2,-327.7 54.3,-325.8 55.5,-323.9 56.9,-321.7 58.3,-319.8 59.6,-317.8 60.8,-316.1 62,-314.2 63.3,-312.2 64.4,-310.4 65.5,-308.8 66.8,-306.8 67.9,-305.2 68.9,-303.6 70.1,-301.9 71.2,-300.2 72.3,-298.5 73.3,-296.9 74.5,-295.1 75.7,-293.2 76.8,-291.6 77.8,-289.9 79.1,-288.1 80.3,-286.2 81.5,-284.3 82.7,-282.5 84,-280.6 85.2,-278.8 86.3,-277.1 87.4,-275.4 88.6,-273.6 89.8,-271.8 90.8,-270.2 92,-268.3 93.1,-266.7 94.2,-264.9 95.3,-263.1 96.4,-261.4 97.7,-259.6 98.9,-257.9 99.9,-256.3 101,-254.6 102.1,-252.8 103.3,-250.9 104.4,-249.3 105.6,-247.5 106.8,-245.6 108,-243.7 109.2,-241.8 110.5,-239.9 111.8,-238.1 112.9,-236.4 114.2,-234.6 115.3,-232.8 116.5,-231 117.6,-229.4 118.7,-227.7 119.9,-225.8 121,-224.1 122,-222.4 123.2,-220.6 124.3,-218.8 125.6,-216.8 126.8,-215 128.1,-213 129.2,-211.2 130.4,-209.4 131.7,-207.6 133,-205.6 134.2,-203.9 135.3,-202.2 136.6,-200.4 137.8,-198.6 139,-196.8 140.2,-195 141.3,-193.3 142.6,-191.3 143.8,-189.4 145.1,-187.4 146.2,-185.7 147.3,-183.9 148.4,-182.1 149.6,-180.3 150.9,-178.3 152.1,-176.4 153.2,-174.8 154.3,-173.1 155.5,-171.3 156.7,-169.4 157.9,-167.6 159.2,-165.8 160.4,-164 161.6,-162.2 162.8,-160.3 164.1,-158.5 165.4,-156.5 166.6,-154.8 167.8,-152.9 169,-151.2 170.3,-149.2 171.4,-147.5 172.5,-145.8 173.7,-144.1 174.8,-142.4 175.8,-140.7 177.1,-138.8 178.2,-137 179.4,-135.1 180.6,-133.1 181.8,-131.2 183.1,-129.3 184.3,-127.4 185.6,-125.4 186.8,-123.4 188.1,-121.6 189.2,-119.8 190.4,-118.1 191.7,-116.3 192.9,-114.4 194.1,-112.6 195.3,-110.8 196.5,-109 197.7,-107.2 198.9,-105.5 200.1,-103.6 201.3,-101.7 202.5,-99.8 203.7,-97.9 204.9,-96.1 206.2,-94.2 207.4,-92.3 208.6,-90.4 209.8,-88.5 211.1,-86.6 212.3,-84.7 213.6,-82.8 214.8,-80.9 215.9,-79.1 217.3,-77.1 218.6,-75.1 219.7,-73.2 220.9,-71.3 222.3,-69.3 223.5,-67.5 224.7,-65.7 225.9,-63.8 227.2,-61.9 228.3,-60.1 229.6,-58.2 230.8,-56.4 232.2,-54.3 233.3,-52.4 234.6,-50.4 235.8,-48.6 237.1,-46.7 238.3,-44.8 239.7,-42.7 240.9,-40.9 242.2,-39 243.3,-37.2 244.5,-35.4 245.8,-33.4 247.1,-31.5 248.3,-29.7 249.6,-27.8 250.6,-26.2 251.8,-24.2 253.2,-22.3 254.4,-20.3 255.7,-18.3 257,-16.4 258.3,-14.4 259.6,-12.4 260.8,-10.5 262.2,-8.4 263.4,-6.6 264.6,-4.7 265.9,-2.7 267.3,-0.8 268.4,0.9 269.6,2.7 270.9,4.7 272.2,6.7 273.5,8.7 274.8,10.7 276.2,12.6 277.3,14.4 278.6,16.4 279.8,18.3 281.3,20.4 282.6,22.2 283.8,24.2 285,25.9 286.2,27.8 287.6,29.9 288.9,32 290.3,34.1 291.7,36.1 292.9,37.9 294.2,39.9 295.6,42 296.8,44 298.2,46.1 299.4,47.9 300.7,49.8 301.9,51.8 303.2,53.7 304.5,55.7 305.9,57.8 307.1,59.6 308.4,61.5 309.7,63.4 310.9,65.3 312.3,67.3 313.6,69.1 314.8,71 316.2,73 317.4,74.8 318.7,76.8 320.1,78.9 321.4,80.8 322.7,82.8 324,84.9 325.3,86.9 326.7,89.1 328.1,91.2 329.4,93.2 330.7,95.2 332,97.2 333.3,99.3 334.6,101.2 335.9,103.2 337.3,105.2 338.6,107.2 339.7,108.9 341.1,111 342.5,113.1 343.6,114.9 345,117 346.4,119.2 347.6,121 348.9,122.9 350.2,125 351.7,127.1 352.9,128.9 354.2,130.8 355.6,132.9 356.8,134.7 358,136.6 359.3,138.5 360.6,140.6 361.8,142.4 363.1,144.4 364.3,146.3 365.7,148.3 366.9,150.1 368.2,152.1 369.4,154.1 370.8,156.1 372,157.9 373.3,159.9 374.4,161.8 375.9,163.9 377.2,165.9 378.4,167.8 379.8,169.9 381.2,172 382.4,173.9 383.8,175.9 385.1,177.8 386.4,179.9 387.7,181.7 388.9,183.6 390.3,185.5 391.4,187.3 392.6,189.1 394,191.2 395.3,193.1 396.6,195.1 397.9,197 399.1,198.9 400.4,201 401.8,203.1 403.1,205 404.4,206.9 405.7,208.8 406.9,210.8 408.3,212.7 409.6,214.7 410.9,216.7 412.1,218.4 413.3,220.3 414.6,222.3 416,224.4 417.3,226.3 418.6,228.2 419.7,230 421.1,232 422.3,233.8 423.6,235.9 424.9,237.9 426.3,240 427.6,241.8 428.8,243.8 430.3,246 431.8,248.2 433.1,250.3 434.5,252.4 435.9,254.5 437.4,256.7 438.7,258.7 440,260.8 441.4,263 442.8,265.1 444,266.9 445.3,268.7 446.7,270.7 447.9,272.6 449.1,274.4 450.5,276.4 451.8,278.3 452.9,280.1 454.1,281.8 455.4,283.8 456.7,285.9 457.9,287.8 459.1,289.7 460.4,291.6 461.5,293.3 462.8,295.3 463.9,297.2 465.3,299.2 466.5,301.1 467.7,303 468.9,304.9 470.2,306.8 471.5,308.9 472.8,310.9 474,312.8 475.3,314.7 476.4,316.4 477.6,318.3 478.9,320.3 480.1,322.1 481.4,324.1 482.6,326 483.8,327.9 485.1,329.8 486.3,331.8 487.6,333.7 488.8,335.6 490.1,337.5 491.4,339.6 492.7,341.6 493.9,343.4 495.2,345.4 496.4,347.3 497.7,349.2 499.1,351.3 500.3,353.2 501.6,355.1 502.7,356.8 503.8,358.6 505.1,360.6 506.3,362.3 507.6,364.3 508.8,366.2 509.9,367.9 511.2,369.9 512.5,371.9 513.8,373.9 515.1,375.8 516.2,377.6 517.5,379.6 518.8,381.5 520.1,383.3 521.4,385.3 522.7,387.2 523.9,389.1 525.3,391.1 526.6,392.9 527.9,394.9 529.2,396.8 530.3,398.6 531.6,400.4 532.8,402.2 534,403.9 535.2,405.7 536.4,407.5 537.6,409.3 538.7,411 539.8,412.6 541.1,414.4 542.4,416.4 543.6,418.3 544.8,420.2 546.1,422.1 547.2,423.9 548.5,425.9 549.8,427.8 551.2,430 552.4,431.9 553.7,433.7 554.9,435.6 556.1,437.4 557.3,439.2 558.6,441.1 559.7,442.8 560.9,444.7 562.3,446.7 563.5,448.6 564.7,450.5 565.9,452.3 567.1,454 568.3,455.9 569.4,457.7 570.8,459.7 571.9,461.4 572.9,462.9 574.1,464.7 575.2,466.3 576.3,468.2 577.6,470 578.8,471.7 579.9,473.4 580.9,474.9 582.1,476.7 583.3,478.5 584.3,479.9 585.4,481.6 586.4,483.1 587.4,484.6 588.3,486.1 589.2,487.6 590.2,489.1 591.1,490.5 591.9,491.8 592.8,493.2 593.7,494.4 594.5,495.8 595.4,497.1 596.2,498.3 596.9,499.4 597.7,500.6 598.4,501.7 599.2,502.8 599.9,503.8 600.5,504.7 601.2,505.7 601.8,506.6 602.6,507.6 603.3,508.7 603.9,509.7 604.7,510.7 605.3,511.7 605.9,512.8 606.6,513.8 607.1,514.6 607.7,515.4 608.1,516.1 608.4,516.7 608.8,517.2 609,517.7 609.2,518.1 609.5,518.5 609.8,519.2 610.2,519.9 610.6,520.8 610.8,521.6 611.2,522.4 611.4,523.4 611.7,524.6 612,525.9 612.2,527.4 612.2,528.6 612.1,529.9 611.7,531.3 611.3,532.7 610.7,534 609.9,535.2 608.2,536.2 606.4,537 604.6,537.6 602.8,538.2 601,538.5 599.3,538.6 597.3,538.4 595.4,538.3 593.7,538.1 592.9,537.8 592.2,537.6 591.5,537.3 590.6,536.9 589.6,536.5 588.8,536.2 588.3,535.9 587.6,535.5 586.8,535.1 586.1,534.7 585.3,534.3 584.5,533.9 583.8,533.6 582.9,533.1 582.1,532.6 581.1,532 580.3,531.5 579.4,531 578.6,530.5 577.6,529.9 576.6,529.2 575.7,528.7 574.8,528.1 573.8,527.6 573,527.1 572,526.4 570.9,525.8 569.8,525.1 568.8,524.5 567.9,523.9 566.8,523.2 565.8,522.6 564.9,522.1 563.8,521.3 562.8,520.7 562,520.1 561.1,519.4 560.1,518.7 559.2,518 558.2,517.3 557.2,516.5 556.1,515.7 555.2,515.1 554.3,514.4 553.3,513.6 552.3,512.9 551.4,512.3 550.4,511.6 549.4,510.9 548.6,510.2 547.7,509.5 546.8,508.8 546,508.1 545.3,507.5 544.3,506.7 543.4,505.9 542.4,505.1 541.7,504.3 540.9,503.7 540.1,502.9 539.1,502.2 538.1,501.3 537.1,500.4 536.3,499.6 535.4,498.8 534.6,497.9 533.7,497.1 532.8,496.1 531.9,495.1 531.1,494.2 530.3,493.4 529.5,492.4 528.7,491.4 527.8,490.4 527.1,489.6 526.3,488.7 525.7,487.8 524.8,486.6 523.9,485.4 523,484.2 522.3,483.2 521.6,482.2 520.8,481.1 520.1,480 519.1,478.7 518.2,477.5 517.4,476.4 516.7,475.4 515.9,474.3 515.1,473.3 514.2,472.1 513.4,471 512.6,469.9 511.8,468.8 510.9,467.7 510.2,466.7 509.4,465.6 508.6,464.4 507.7,463.1 506.9,461.9 506.1,460.8 505.1,459.4 504.3,458.3 503.5,457.1 502.6,455.8 501.8,454.6 500.9,453.4 500.1,452.3 499.2,451.1 498.3,449.8 497.5,448.7 496.6,447.4 495.7,446.3 494.8,445.1 493.9,443.8 492.9,442.5 492.2,441.4 491.3,440.3 490.4,438.9 489.6,437.8 488.8,436.7 487.9,435.3 487,434.1 486.2,432.9 485.2,431.5 484.2,430.1 483.3,428.8 482.4,427.7 481.6,426.6 480.6,425.1 479.7,423.9 478.8,422.7 478,421.6 477.1,420.3 476.2,419.1 475.3,417.9 474.3,416.4 473.3,415 472.4,413.9 471.6,412.8 470.7,411.4 469.7,410 468.8,408.8 467.9,407.6 467,406.2 466.1,404.9 465.2,403.7 464.2,402.3 463.2,401 462.2,399.7 461.3,398.4 460.4,397.2 459.3,395.8 458.4,394.5 457.5,393.2 456.7,392 455.8,390.8 454.8,389.3 453.9,388 453.1,386.8 452.1,385.3 451.2,384.1 450.2,382.8 449.3,381.6 448.3,380.3 447.2,378.8 446.3,377.5 445.4,376.3 444.4,374.9 443.6,373.7 442.7,372.4 441.8,371.2 441,370 440,368.5 439.2,367.3 438.3,366.1 437.3,364.7 436.3,363.3 435.4,362.1 434.5,360.9 433.4,359.4 432.4,357.9 431.6,356.7 430.7,355.4 429.7,353.9 428.8,352.7 427.9,351.6 427.1,350.3 426.1,348.8 425.2,347.6 424.3,346.4 423.4,345.2 422.4,343.8 421.6,342.6 420.7,341.4 419.8,340 418.8,338.7 418.1,337.6 417.2,336.4 416.4,335.2 415.4,333.8 414.4,332.6 413.6,331.3 412.7,330 411.8,328.8 410.9,327.6 410,326.3 409.1,325.1 408.1,323.8 407.4,322.7 406.6,321.5 405.7,320.3 404.9,319.3 404,318.1 403.1,316.9 402.3,315.7 401.5,314.6 400.7,313.4 399.9,312.3 399.1,311.2 398.2,310.1 397.3,308.7 396.6,307.6 395.8,306.5 394.9,305.4 394.2,304.3 393.3,303.1 392.4,301.8 391.6,300.8 390.9,299.8 390.1,298.8 389.4,297.8 388.7,296.9 388,295.9 387.3,295.1 386.6,294.1 385.9,293.1 385.2,291.9 384.4,290.8 383.7,289.9 383,288.9 382.1,287.6 381.1,286.2 380.1,284.8 379.2,283.6 378.3,282.4 377.5,281.4 376.7,280.4 375.6,279 374.6,277.8 373.5,276.7 372.4,275.6 371.6,274.8 369.6,273.8 366.8,272.9 363.5,272.3 360.2,271.7 357.2,271.6 353.9,271.5 350.8,271.7 347.5,272 344.1,272.3 341.8,272.9 339.9,273.4 338.7,273.7 337.4,274.1 335.8,274.5 334.4,274.8 333.1,275.2 331.9,275.4 330.6,275.8 329.3,276.1 328.2,276.3 327.2,276.6 325.9,276.9 324.9,277.1 323.9,277.4 322.9,277.6 321.9,277.8 320.9,278.1 319.9,278.3 318.9,278.6 317.7,278.8 316.7,279.1 315.7,279.3 314.7,279.6 313.4,279.8 312.2,280.2 311.2,280.4 310,280.7 308.8,281 307.7,281.3 306.7,281.6 305.4,281.8 304.1,282.2 303.1,282.4 301.8,282.7 300.4,283.1 299.3,283.3 298.2,283.6 296.8,283.9 295.3,284.2 294.2,284.5 292.8,284.8 291.4,285.1 290.2,285.4 288.8,285.7 287.4,286 285.8,286.4 284.4,286.7 283,287.1 281.4,287.4 280.1,287.8 278.7,288.2 277.1,288.6 275.7,288.9 274.3,289.3 272.9,289.6 271.5,290 269.9,290.4 268.5,290.7 267.1,291.1 265.3,291.4 263.8,291.8 262.3,292.2 260.6,292.6 259.1,292.9 257.6,293.3 256.1,293.6 254.6,294 252.9,294.4 251.5,294.7 250.1,295.1 248.4,295.4 247,295.8 245.3,296.2 243.7,296.6 242.2,297 240.6,297.4 239.1,297.7 237.7,298.1 235.9,298.5 234.4,298.9 232.9,299.2 231.5,299.6 230,299.9 228.3,300.3 226.8,300.7 225.1,301.1 223.4,301.5 222.1,301.9 220.4,302.3 218.8,302.7 217.4,303.1 215.8,303.4 214.3,303.8 212.9,304.2 211.4,304.5 209.9,304.9 208.4,305.2 206.8,305.6 205.3,305.9 203.6,306.3 202.1,306.7 200.4,307.1 198.8,307.5 197.3,307.9 195.9,308.2 194.2,308.6 192.7,309 191.1,309.4 189.6,309.7 188.1,310.1 186.8,310.4 185.3,310.8 183.8,311.1 182.1,311.5 180.7,311.9 179.2,312.2 177.8,312.6 176.3,312.9 174.8,313.3 173.1,313.7 171.7,314 170.3,314.3 168.8,314.7 167.2,315.1 165.7,315.4 164.2,315.8 162.7,316.1 160.9,316.5 159.5,316.9 158,317.2 156.3,317.6 154.9,317.9 153.5,318.3 151.8,318.7 150.4,319 148.9,319.3 147.5,319.7 146,320 144.6,320.3 143,320.7 141.5,321 139.8,321.4 138.4,321.8 137,322.1 135.6,322.4 134.2,322.8 132.7,323.2 131,323.6 129.6,323.9 128.2,324.3 126.9,324.6 125.4,324.9 123.8,325.2 122.1,325.7 120.6,326 119.1,326.3 117.8,326.7 116.3,327 114.8,327.3 113.1,327.8 111.7,328.1 110,328.5 108.6,328.8 107.9,329 107.1,329.2 106.1,329.4 105.4,329.6" style="stroke: rgb(55, 65, 81); stroke-width: 10;"></polygon>
<polyline vector-effect="non-scaling-stroke" fill="none" points="98.1,331.4 97,331.7 96.1,331.9 95.5,332.1 94.9,332.2 93.6,332.6 92.1,332.9 90.6,333.3 88.7,333.7 86.8,334.2 85.2,334.6 83.3,335 81.4,335.4 79.3,335.8 77.3,336.3 75.4,336.7 73.6,337.2 72.1,337.5 70.6,337.8 69.2,338.2 68,338.4 66.6,338.8 65.3,339.1 64.3,339.4 63.2,339.6 61.8,339.9 60.4,340.3 59.3,340.6 58.3,340.8 57.2,341 56.1,341.3 55,341.5 53.6,341.8 52.2,342.2 51.1,342.4 49.9,342.7 48.4,343 47,343.3 45.6,343.7 44.4,343.9 42.9,344.3 41.7,344.5 40.5,344.7 39.1,345.1 37.7,345.3 36.6,345.6 35.4,345.8 34,346.2 32.6,346.4 31.4,346.7 30.1,347.1 28.7,347.4 27.6,347.7 26.2,348 24.7,348.3 23.3,348.7 21.9,349 20.6,349.3 19.1,349.7 17.7,350 16.2,350.3 14.7,350.7 13.3,351 11.8,351.3 10.4,351.7 8.9,352 7.3,352.4 5.8,352.7 4.3,353.1 2.7,353.4 1.2,353.8 -0.4,354.1 -1.9,354.5 -3.8,354.9 -5.3,355.2 -6.8,355.6 -8.6,355.9 -10.2,356.3 -11.7,356.7 -13.6,357.1 -15.4,357.5 -17.2,357.9 -18.8,358.3 -20.4,358.7 -22.3,359.1 -23.9,359.4 -25.7,359.8 -27.7,360.3 -29.5,360.8 -31.1,361.2 -32.6,361.6 -34.5,361.9 -36.4,362.4 -38.3,362.8 -40.4,363.3 -42.2,363.8 -43.9,364.2 -45.9,364.6 -47.9,365.1 -49.9,365.5 -51.8,366 -53.8,366.5 -55.7,366.9 -57.7,367.4 -59.6,367.9 -61.6,368.3 -63.4,368.8 -65.4,369.2 -67.6,369.7 -69.5,370.2 -71.6,370.6 -73.8,371.2 -75.7,371.6 -77.9,372.1 -80.1,372.6 -81.9,373.1 -84.2,373.6 -86.2,374.1 -88.5,374.6 -90.5,375.1 -92.6,375.6 -94.6,376.1 -96.6,376.5 -98.6,377 -100.9,377.5 -102.8,378 -104.7,378.4 -106.7,378.9 -108.7,379.3 -110.7,379.8 -112.7,380.2 -114.8,380.7 -117.2,381.2 -119.2,381.7 -121.2,382.2 -123.4,382.7 -125.3,383.2 -127.5,383.7 -129.7,384.2 -131.8,384.7 -133.7,385.2 -135.7,385.6 -137.6,386.1 -139.8,386.6 -141.8,387.1 -144.1,387.6 -146,388.1 -148,388.5 -150,389 -152.3,389.5 -154.2,390 -156.4,390.5 -158.3,390.9 -160.5,391.4 -162.4,391.9 -164.7,392.4 -166.6,392.9 -168.8,393.4 -170.8,393.8 -173,394.3 -175,394.8 -177,395.3 -179.1,395.7 -181.1,396.2 -183.1,396.7 -185.1,397.1 -187.1,397.6 -189,398.1 -191,398.5 -193,399 -195.2,399.5 -197.2,399.9 -199.1,400.4 -201.1,400.8 -203.1,401.3 -205.1,401.7 -207.1,402.2 -209.1,402.6 -211.2,403.1 -213.2,403.5 -215.3,404 -217.7,404.6 -219.9,405.1 -222.1,405.6 -224.2,406.2 -226.4,406.7 -228.3,407.2 -230.4,407.7 -232.3,408.2 -234.4,408.7 -236.2,409.1 -238.3,409.6 -240.3,410 -242.4,410.4 -244.4,410.9 -246.8,411.4 -248.8,411.8 -251.1,412.3 -253.1,412.8 -255.3,413.3 -257.3,413.7 -259.2,414.2 -261.2,414.7 -263.1,415.2 -265,415.6 -266.9,416.1 -268.6,416.5 -270.5,417 -272.2,417.4 -274.2,417.9 -276.1,418.3 -278.1,418.8 -280.1,419.3 -282.1,419.8 -284.2,420.2 -286.4,420.8 -288.4,421.2 -290.6,421.7 -292.5,422.2 -294.8,422.7 -296.8,423.1 -299.1,423.6 -300.9,424.1 -302.8,424.5 -304.8,424.9 -307,425.4 -309,425.9 -311.2,426.4 -313.1,426.9 -315,427.4 -316.9,427.8 -318.9,428.3 -321.2,428.8 -323.1,429.2 -325.1,429.7 -327,430.1 -328.9,430.6 -330.9,431 -333.1,431.5 -335,432 -337.1,432.5 -339,433 -341.2,433.5 -343.3,434.1 -345.4,434.6 -347.3,435 -349.5,435.5 -351.4,435.9 -353.3,436.4 -355.3,436.8 -357.3,437.3 -359.3,437.7 -361,438.1 -363,438.6 -365,439.1 -367,439.5 -369.2,440.1 -371.5,440.6 -373.4,441 -375.3,441.4 -377.2,441.9 -379.2,442.3 -381.3,442.7 -383.4,443.1 -385.3,443.4 -387.3,443.8 -389.2,444.1 -391.2,444.4 -393.2,444.7 -395.1,444.9 -397.1,445.2 -398.9,445.3 -400.7,445.4 -402.6,445.5 -404.3,445.5 -406.1,445.5 -407.9,445.5 -409.8,445.4 -411.4,445.4 -413.4,445.3 -415.2,445.1 -416.9,444.9 -418.9,444.7 -420.9,444.3 -422.8,443.9 -424.8,443.4 -426.8,442.9 -428.9,442.4 -430.8,441.8 -432.6,441.2 -434.4,440.6 -436.2,440 -437.7,439.5 -439.4,438.8 -441.1,438.2 -442.6,437.6 -444.2,436.9 -445.7,436.3 -447.1,435.6 -448.9,434.8 -450.4,434 -451.9,433.2 -453.2,432.4 -454.6,431.6 -456.2,430.6 -457.6,429.7 -458.9,428.7 -460.4,427.6 -461.7,426.7 -463,425.7 -464.6,424.5 -466.2,423.3 -467.6,422.2 -468.7,421.2 -470,420.2 -471.3,419.1 -472.3,418.1 -473.5,416.9 -474.7,415.7 -475.8,414.6 -476.9,413.4 -477.9,412.2 -479.1,410.9 -480.1,409.7 -481.3,408.3 -482.4,406.8 -483.4,405.5 -484.4,404.2 -485.2,403.1 -486,401.7 -486.9,400.3 -487.8,398.7 -488.7,397.2 -489.3,395.9 -490.1,394.6 -490.8,393.1 -491.6,391.5 -492.3,389.8 -492.9,388.4 -493.6,386.8 -494.2,385.2 -494.8,383.7 -495.4,382.2 -495.9,380.6 -496.4,378.9 -496.9,377.4 -497.3,375.9 -497.8,374 -498.2,372.4 -498.4,370.8 -498.7,369.2 -498.9,367.7 -499.2,365.8 -499.3,364.2 -499.5,362.6 -499.7,360.8 -499.7,359.3 -499.8,357.6 -499.8,356 -499.8,354.2 -499.8,352.4 -499.8,350.7 -499.7,349.2 -499.6,347.6 -499.4,346 -499.3,344.2 -499.1,342.7 -498.8,340.9 -498.6,339.3 -498.3,337.7 -497.9,336.1 -497.5,334.5 -497.1,332.7 -496.7,331.1 -496.2,329.4 -495.7,327.8 -495.2,326.3 -494.7,324.9 -494,323.2 -493.4,321.7 -492.8,320.2 -492.1,318.7 -491.4,317.3 -490.8,316.1 -490.1,314.7 -489.3,313.4 -488.5,312 -487.8,310.8 -487.1,309.7 -486.3,308.6 -485.6,307.7 -484.8,306.7 -483.9,305.6 -483.1,304.7 -482.2,303.7 -481.5,303.1 -480.6,302.3 -479.7,301.4 -478.6,300.6 -477.6,299.7 -476.7,299 -475.6,298.2 -474.6,297.5 -473.6,296.8 -472.4,296.1 -471.4,295.4 -470.5,294.9 -469.5,294.3 -468.3,293.8 -467.2,293.2 -466.2,292.7 -464.9,292.2 -463.7,291.7 -462.7,291.3 -461.3,290.8 -459.9,290.4 -458.7,290.1 -457.6,289.7 -456.4,289.4 -455.2,289.2 -453.8,288.9 -452.4,288.7 -451,288.4 -449.9,288.2 -448.7,288.1 -447.5,287.9 -446.3,287.8 -445,287.7 -443.6,287.6 -442.6,287.5 -441.6,287.5 -440.3,287.6 -438.9,287.6 -437.7,287.7 -436.3,287.8 -434.9,287.9 -433.7,288 -432.4,288.2 -431.1,288.4 -429.7,288.6 -428.7,288.8 -427.7,289.1 -426.6,289.3 -425.6,289.6 -424.6,290 -423.3,290.4 -422.4,290.9 -421.3,291.3 -420.3,291.8 -419.3,292.3 -418.3,292.8 -417.4,293.3 -416.4,293.9 -415.6,294.4 -414.9,295.1 -414.2,295.6 -413.4,296.3 -412.7,297.1 -411.8,297.9 -410.9,298.9 -410.1,299.8 -409.3,300.7 -408.6,301.6 -407.9,302.3 -407.2,303.2 -406.6,304.1 -406,304.9 -405.5,305.7 -405.1,306.4 -404.7,307.1 -404.3,307.8 -403.9,308.8 -403.4,309.8 -403.1,310.8 -402.8,311.6 -402.6,312.6 -402.4,313.6 -402.2,314.6 -402.1,315.7 -401.9,316.9 -401.8,317.8 -401.8,318.8 -401.8,320 -401.8,321.2 -401.8,322.3 -401.8,323.3 -401.9,324.2 -402,325.1 -402.2,326.2 -402.4,327.3 -402.7,328.6 -402.9,329.7 -403.3,330.7 -403.6,331.8 -404.1,333.1 -404.6,334.4 -405,335.8 -405.5,337 -405.9,338.2 -406.3,339.2 -406.7,340.1 -407.2,341.2 -407.6,342.2 -408,343.1 -408.4,344 -408.9,345 -409.3,346 -409.8,347 -410.2,348 -410.7,349.2 -411.1,350.3 -411.5,351.4 -411.9,352.7 -412.3,354 -412.6,355.2 -412.8,356.2 -413.1,357.4 -413.2,359 -413.3,360.3 -413.4,361.7 -413.6,363 -413.5,364.4 -413.4,365.8 -413.3,367.2 -413.2,368.7 -412.9,370.1 -412.6,371.2 -412.3,372.2 -412,373.4 -411.6,374.7 -411,375.9 -410.4,377.1 -409.8,378.3 -409.2,379.3 -408.5,380.3 -407.8,381.3 -407.1,382.4 -406.3,383.4 -405.6,384.2 -404.7,385 -403.6,385.9 -402.3,386.8 -401.1,387.7 -399.6,388.6 -398,389.4 -396.5,390.3 -395,391 -393.2,391.8 -391.7,392.3 -390.4,392.6 -389.3,392.9 -388.1,393.2 -386.7,393.3 -385.3,393.4 -383.9,393.4 -382.6,393.5 -381.2,393.4 -379.9,393.3 -378.7,393.2 -377.4,393.1 -375.9,392.9 -375,392.7 -373.7,392.2 -372.4,391.7 -371.2,391.1 -370.2,390.6 -369.2,390.1 -367.9,389.5 -366.5,388.6 -365,387.5 -363.5,386.3 -362.2,385.2 -361,383.9 -359.7,382.8 -358.5,381.6 -357.1,380.1 -355.8,378.6 -354.7,377.2 -353.9,376.2 -353.1,374.9 -352.4,373.8 -351.8,372.8 -351.1,371.6 -350.3,370.3 -349.8,369.3 -349.2,368.1 -348.6,366.9 -347.9,365.7 -347.4,364.5 -346.8,363.3 -346.2,362.1 -345.7,360.9 -345.1,359.6 -344.4,358.2 -344,357.1 -343.6,356.1 -343.1,354.8 -342.6,353.8 -342.2,352.7 -341.8,351.5 -341.4,350.3 -341.1,349.2 -340.7,348.2 -340.4,347.2 -340,345.8 -339.7,344.7 -339.3,343.5 -339,342.3 -338.7,341.1 -338.4,339.8 -338.1,338.6 -337.8,337.4 -337.6,335.9 -337.3,334.7 -337.2,333.5 -337,332.1 -336.8,330.7 -336.7,329.3 -336.5,328 -336.4,326.6 -336.3,325 -336.3,323.7 -336.3,322.3 -336.3,321 -336.3,319.7 -336.3,318.3 -336.4,316.9 -336.5,315.4 -336.7,314 -336.8,312.7 -337,311.2 -337.2,309.7 -337.4,308.2 -337.7,306.7 -338.1,305.2 -338.4,303.7 -338.8,302.2 -339.3,300.6 -339.8,298.9 -340.3,297.6 -340.8,296.1 -341.4,294.6 -342.1,293.2 -342.7,291.7 -343.4,290.4 -344.1,289.1 -344.8,287.9 -345.4,286.7 -346.3,285.2 -347.1,283.8 -348,282.5 -348.9,281.2 -349.7,280 -350.7,278.6 -351.7,277.3 -352.7,276 -353.8,274.7 -354.8,273.6 -355.7,272.6 -356.4,271.7 -357.4,270.5 -358.4,269.3 -359.3,268.3 -360.1,267.3 -361.1,266.1 -362.1,265 -363,263.9 -364,262.7 -365.1,261.6 -366.1,260.4 -367.1,259.2 -368.1,258.1 -369.2,256.9 -370.2,255.8 -371.2,254.6 -372.3,253.3 -373.4,252 -374.6,250.7 -375.6,249.6 -376.6,248.4 -377.4,247.3 -378.4,246.1 -379.3,245.1 -380.2,244 -381.1,242.9 -382.1,241.9 -383.1,240.7 -384.2,239.6 -385.2,238.4 -386.3,237.2 -387.4,236.1 -388.6,234.8 -389.7,233.6 -390.8,232.3 -391.8,231.1 -392.8,229.9 -393.8,228.6 -395,227.2 -396,226.1 -397.1,224.8 -398,223.7 -399,222.6 -400.1,221.4 -401.2,220.1 -402.3,218.9 -403.4,217.7 -404.4,216.6 -405.7,215.3 -406.8,214 -407.9,212.8 -409,211.7 -409.9,210.7 -410.9,209.6 -411.9,208.3 -412.9,207.2 -414,206 -414.8,205 -415.8,203.8 -416.9,202.6 -418.2,201 -419.7,199.3 -421.1,197.8 -422.3,196.4 -423.6,195.1 -424.8,193.7 -426.3,192.1 -427.6,190.6 -428.8,189.2 -429.8,188.1 -430.8,186.9 -431.9,185.6 -433.1,184.2 -434.3,182.8 -435.6,181.4 -436.7,180.2 -437.8,178.9 -438.8,177.7 -440,176.4 -441,175.2 -442.1,174 -443.1,172.9 -444.1,171.7 -444.9,170.6 -445.9,169.4 -447,168.2 -448.2,166.9 -449.2,165.7 -450.4,164.4 -451.5,163.2 -452.6,162 -453.7,160.7 -454.8,159.4 -456,158.2 -457.1,156.9 -458.2,155.7 -459.2,154.6 -460.3,153.2 -461.4,151.9 -462.6,150.6 -463.7,149.3 -464.9,147.9 -466.1,146.7 -467.2,145.5 -468.4,144.1 -469.7,142.7 -470.8,141.6 -471.8,140.4 -472.9,139.2 -474.2,137.8 -475.2,136.7 -476.2,135.5 -477.3,134.3 -478.3,133.1 -479.4,131.8 -480.5,130.6 -481.7,129.2 -482.7,128 -483.8,126.8 -484.9,125.6 -486.1,124.3 -487.1,123.1 -488.1,121.9 -489.3,120.6 -490.4,119.3 -491.6,118.1 -492.7,116.8 -493.7,115.7 -494.7,114.4 -495.9,113.1 -497.1,111.8 -498.2,110.6 -499,109.6 -499.9,108.4 -500.9,107.2 -502.1,105.9 -503.1,104.7 -504.1,103.5 -505,102.5 -506.1,101.2 -507.2,99.9 -508.3,98.7 -509.4,97.5 -510.5,96.2 -511.5,95.1 -512.6,93.9 -513.7,92.6 -514.9,91.2 -515.9,90 -517,88.8 -518,87.6 -519,86.3 -520.1,84.9 -521.2,83.6 -522.2,82.4 -523.1,81.3 -524.2,79.9 -525.1,78.8 -526.1,77.6 -527.1,76.2 -528.1,75 -528.9,73.8 -529.8,72.7 -530.8,71.3 -531.8,70 -532.6,68.9 -533.6,67.6 -534.4,66.2 -535.3,64.9 -536.1,63.7 -536.9,62.4 -537.6,61.1 -538.3,59.8 -539,58.6 -539.8,57.1 -540.4,55.9 -541.1,54.6 -541.7,53.3 -542.4,51.8 -543,50.5 -543.7,49.1 -544.3,47.7 -545,46.2 -545.6,44.8 -546.2,43.4 -546.8,42 -547.4,40.5 -547.9,39.1 -548.4,37.6 -549,36.1 -549.4,34.9 -549.9,33.5 -550.4,32.1 -551,30.6 -551.6,28.9 -552.2,27.3 -552.7,25.8 -553.2,24.4 -553.7,23.1 -554.2,21.5 -554.7,20.1 -555.2,18.5 -555.7,17.1 -556.1,15.8 -556.5,14.6 -556.9,13.3 -557.4,11.8 -557.9,10.1 -558.5,8.6 -559,7 -559.5,5.7 -560,4.1 -560.5,2.7 -561,1.1 -561.5,-0.5 -562.1,-2 -562.4,-3.3 -562.9,-4.8 -563.4,-6.3" style="stroke: rgb(239, 68, 68); stroke-width: 7;"></polyline><polyline vector-effect="non-scaling-stroke" fill="none" points="-563.9,-7.9 -564.4,-9.4 -564.9,-10.9 -565.4,-12.4 -565.9,-13.9 -566.4,-15.5 -567,-17 -567.5,-18.4 -568,-19.9 -568.6,-21.6 -569.2,-23.2 -569.7,-24.7 -570.3,-26.3 -570.8,-27.8 -571.4,-29.4 -571.9,-30.9 -572.5,-32.7 -573.1,-34.1 -573.5,-35.6 -574,-36.9 -574.5,-38.6 -575,-39.9 -575.4,-41.3 -575.9,-42.7 -576.4,-44.1 -576.9,-45.5 -577.3,-46.9 -577.8,-48.3 -578.3,-49.7 -578.8,-51.1 -579.3,-52.4 -579.9,-54.2 -580.5,-55.7 -581.1,-57.3 -581.6,-58.8 -582.2,-60.4 -582.7,-61.9 -583.3,-63.5 -583.8,-65.1 -584.3,-66.6 -584.9,-68.2 -585.4,-69.7 -585.9,-71.2 -586.4,-72.6 -587,-74.2 -587.5,-75.6 -588,-77.2 -588.5,-78.6 -589.1,-80.3 -589.6,-81.7 -590.1,-83.1 -590.7,-84.7 -591.2,-86.3 -591.7,-87.8 -592.3,-89.4 -592.8,-90.9 -593.4,-92.4 -593.9,-93.8 -594.4,-95.3 -594.9,-96.8 -595.5,-98.3 -596.1,-99.8 -596.6,-101.2 -597.1,-102.8 -597.6,-104.3 -598.1,-105.7 -598.6,-107.1 -599.1,-108.5 -599.5,-109.8 -599.9,-111.2 -600.4,-112.5 -600.9,-114 -601.4,-115.4 -601.8,-116.7 -602.3,-118 -602.8,-119.6 -603.3,-120.9 -603.8,-122.3 -604.2,-123.6 -604.8,-125.1 -605.2,-126.4 -605.6,-127.6 -606.1,-128.9 -606.6,-130.3 -607,-131.4 -607.4,-132.5 -607.8,-133.6 -608.2,-134.6 -608.6,-135.6 -608.9,-136.7 -609.4,-137.9 -609.8,-139.1 -610.2,-140.1 -610.5,-141.2 -610.8,-142.3 -611.2,-143.6 -611.6,-144.9 -611.9,-146 -612.2,-147.1 -612.4,-147.9 -612.6,-148.8 -612.8,-149.7 -612.9,-150.6 -613.1,-151.6 -613.2,-152.3 -613.3,-153.2 -613.3,-154.2 -613.4,-155.2 -613.4,-156.3 -613.4,-157.4 -613.3,-158.5 -613.3,-159.5 -613.2,-160.4 -613.1,-161.3 -613,-162.2 -612.8,-163 -612.5,-163.9 -612.2,-164.7 -611.9,-165.5 -611.6,-166.2 -611.3,-166.9 -610.8,-167.8 -610.1,-168.7 -609.3,-169.7 -608.6,-170.5 -607.9,-171.2 -606.9,-171.9 -605.9,-172.7 -604.8,-173.4 -603.7,-174.1 -602.6,-174.7 -601.7,-175.1 -600.7,-175.3 -599.7,-175.6 -598.7,-175.9 -597.9,-176 -596.9,-176.1 -595.8,-176.2 -594.8,-176.2 -593.7,-176.2 -592.7,-176.2 -591.8,-176.2 -590.9,-176.1 -589.7,-175.9 -588.7,-175.7 -587.9,-175.5 -587,-175.2 -586.2,-174.9 -585.3,-174.7 -584.5,-174.3 -583.5,-173.9 -582.3,-173.3 -581.4,-172.8 -580.2,-172.2 -579.1,-171.5 -578,-170.9 -576.8,-170.1 -575.6,-169.3 -574.3,-168.5 -573.1,-167.7 -571.9,-166.8 -570.7,-165.9 -569.7,-165.2 -568.7,-164.5 -567.7,-163.8 -566.7,-163 -565.6,-162.2 -564.6,-161.4 -563.6,-160.7 -562.8,-160.1 -562,-159.6 -561,-158.8 -560,-158.1 -558.9,-157.3 -558.1,-156.8 -557.3,-156.1 -556.2,-155.2 -555.1,-154.3 -553.9,-153.4 -552.8,-152.5 -551.9,-151.7 -550.9,-150.9 -549.8,-149.9 -548.7,-148.9 -547.7,-148 -546.8,-147.2 -545.9,-146.4 -545,-145.6 -543.8,-144.5 -542.7,-143.5 -541.7,-142.6 -540.7,-141.7 -539.7,-140.8 -538.7,-139.9 -537.7,-139 -536.7,-138.1 -535.7,-137.2 -534.8,-136.3 -533.8,-135.3 -532.8,-134.3 -531.7,-133.2 -530.6,-132.1 -529.4,-130.9 -528.4,-129.9 -527.4,-128.9 -526.3,-127.6 -525.2,-126.3 -524.2,-125.2 -523.2,-124 -522.3,-122.9 -521.4,-121.8 -520.5,-120.7 -519.6,-119.5 -518.6,-118.3 -517.8,-117.5 -517.1,-116.6 -516.2,-115.4 -515.3,-114.3 -514.3,-113.2 -513.4,-112.1 -512.5,-110.8 -511.4,-109.3 -510.4,-107.8 -509.2,-106.1 -508,-104.5 -507,-103.1 -506,-101.6 -504.8,-99.9 -503.7,-98.3 -502.7,-96.8 -501.8,-95.6 -500.8,-94.1 -500,-92.7 -499.2,-91.4 -498.3,-90 -497.4,-88.6 -496.7,-87.4 -495.9,-86.1 -495.1,-84.7 -494.1,-83 -493.3,-81.6 -492.6,-80.2 -491.8,-78.8 -490.9,-77.3 -490.2,-75.9 -489.2,-74.3 -488.4,-72.9 -487.6,-71.5 -486.8,-70.1 -486,-68.7 -485.2,-67.3 -484.2,-65.6 -483.3,-64 -482.3,-62.4 -481.5,-60.9 -480.7,-59.5 -479.7,-57.8 -478.8,-56.3 -477.9,-54.7 -477.1,-53.2 -476.2,-51.6 -475.4,-50.3 -474.6,-48.8 -473.7,-47.2 -472.6,-45.3 -471.6,-43.7 -470.8,-42.3 -469.9,-40.8 -469,-39.2 -468.1,-37.6 -467.1,-35.9 -466.2,-34.4 -465.3,-32.8 -464.4,-31.2 -463.5,-29.6 -462.6,-28 -461.4,-26.1 -460.4,-24.4 -459.6,-22.9 -458.7,-21.5 -457.7,-19.7 -456.8,-18.1 -456,-16.7 -455.1,-15 -454.1,-13.3 -453.3,-11.9 -452.5,-10.4 -451.6,-8.8 -450.6,-7 -449.7,-5.6 -448.8,-4.1 -447.8,-2.3 -446.9,-0.8 -446,0.8 -445.1,2.4 -444.2,4.1 -443.3,5.7 -442.4,7.2 -441.6,8.9 -440.5,10.8 -439.6,12.4 -438.7,13.9 -437.9,15.3 -436.9,17.1 -436.1,18.5 -435.2,20.1 -434.3,21.6 -433.4,23.2 -432.6,24.6 -431.8,26 -430.9,27.6 -429.9,29.4 -428.9,31 -427.8,32.9 -426.8,34.7 -425.8,36.4 -424.9,37.9 -423.9,39.6 -422.8,41.5 -421.8,43.2 -420.9,44.7 -419.9,46.4 -419.1,47.9 -418.3,49.4 -417.4,50.9 -416.4,52.6 -415.4,54.3 -414.6,55.8 -413.7,57.3 -412.7,58.8 -411.8,60.3 -410.7,61.9 -409.6,63.7 -408.5,65.4 -407.3,67.2 -406.3,68.7 -405.2,70.5 -403.9,72.3 -402.7,74.1 -401.3,75.9 -400.1,77.6 -398.9,79.2 -397.7,80.7 -396.4,82.2 -395.1,83.8 -393.9,85.1 -392.6,86.5 -391.2,87.9 -390,89.1 -388.7,90.3 -387.2,91.8 -385.6,93.1 -384.2,94.3 -382.8,95.5 -381.3,96.8 -379.8,97.9 -378.3,99.1 -376.7,100.3 -375.1,101.6 -373.8,102.5 -372.5,103.4 -370.9,104.6 -369.2,105.7 -367.4,106.8 -365.9,107.7 -364.2,108.7 -362.7,109.5 -361.1,110.4 -359.4,111.3 -357.8,112.1 -356,112.9 -354.4,113.7 -352.9,114.4 -351.3,115.1 -349.7,115.9 -348,116.6 -346.4,117.3 -344.5,117.9 -342.6,118.7 -341.2,119.2 -339.5,119.7 -337.5,120.3 -335.6,120.8 -333.9,121.3 -332,121.8 -330.1,122.2 -328.5,122.6 -326.9,122.9 -324.9,123.3 -323.1,123.6 -321.6,123.8 -319.8,124.2 -317.8,124.4 -316,124.7 -314.3,124.9 -312.4,125.1 -310.6,125.2 -308.9,125.3 -307.2,125.4 -305.3,125.5 -303.6,125.5 -302,125.5 -300.3,125.5 -298.6,125.5 -296.6,125.4 -294.6,125.3 -292.7,125.2 -291,125.1 -288.9,124.9 -286.9,124.7 -285,124.5 -283,124.2 -281.1,123.9 -279.3,123.6 -277.4,123.3 -275.7,122.9 -273.7,122.6 -272.1,122.2 -270.2,121.8 -268.4,121.3 -266.6,120.8 -264.8,120.3 -263.2,119.8 -261.4,119.1 -259.6,118.5 -257.9,117.9 -256.2,117.3 -254.6,116.6 -252.7,115.8 -251.2,115.2 -249.6,114.4 -247.8,113.6 -246.2,112.8 -244.4,111.9 -242.4,110.9 -240.6,109.8 -238.9,108.8 -237.3,107.9 -235.5,106.8 -233.7,105.7 -232.1,104.7 -230.5,103.6 -228.9,102.4 -227.6,101.4 -226.2,100.4 -224.8,99.4 -223.3,98.3 -222.1,97.3 -220.8,96.2 -219.3,95 -217.9,93.9 -216.4,92.4 -214.9,91.1 -213.5,89.7 -212.1,88.2 -210.8,86.9 -209.6,85.6 -208.2,84.2 -206.9,82.7 -205.7,81.2 -204.7,80.1 -203.6,78.6 -202.4,77.1 -201.2,75.6 -199.9,73.8 -198.7,72.1 -197.7,70.4 -196.7,68.8 -195.6,67.1 -194.4,65.2 -193.6,63.7 -192.6,62.1 -191.6,60.3 -190.7,58.6 -189.7,56.9 -188.7,55.1 -187.9,53.5 -187.1,51.8 -186.2,50.1 -185.4,48.4 -184.6,46.8 -183.9,45.3 -183.1,43.7 -182.3,42 -181.6,40.3 -180.8,38.6 -180.1,37.2 -179.3,35.4 -178.5,33.6 -177.7,31.7 -176.8,29.8 -176.1,28.2 -175.4,26.7 -174.6,24.9 -173.8,23.2 -173.1,21.5 -172.3,19.8 -171.5,18.2 -170.8,16.7 -170.2,15.2 -169.3,13.5 -168.4,11.7 -167.8,10.2 -167,8.6 -166.1,6.7 -165.3,5.1 -164.6,3.5 -163.8,1.9 -162.9,0.1 -162.2,-1.6 -161.4,-3.1 -160.7,-4.6 -159.9,-6.3 -159.2,-7.7 -158.4,-9.1 -157.8,-10.4 -157,-12 -156.3,-13.2 -155.6,-14.7 -154.8,-16.1 -153.8,-17.8 -152.9,-19.2 -152,-20.7 -151.1,-22.2 -150.2,-23.7 -149.2,-25.2 -148.2,-26.7 -147.3,-28 -146.4,-29.3 -145.6,-30.4 -144.8,-31.5 -144.1,-32.4 -143.3,-33.4 -142.3,-34.6 -141.6,-35.4 -140.8,-36.3 -139.9,-37.3 -139.1,-38.2 -138.2,-39.1 -137.3,-39.9 -136.5,-40.8 -135.5,-41.7 -134.6,-42.5 -133.7,-43.3 -132.8,-44.1 -131.8,-44.9 -130.9,-45.6 -130,-46.3 -129.1,-47.1 -128.2,-47.7 -127.3,-48.4 -126.2,-49.1 -125.2,-49.8 -124.1,-50.4 -122.9,-51.1 -121.8,-51.7 -120.7,-52.4 -119.6,-53 -118.4,-53.7 -117.3,-54.2 -116.3,-54.7 -115.2,-55.2 -114.1,-55.8 -113.2,-56.2 -112.2,-56.7 -111,-57.1 -109.8,-57.6 -108.7,-58.1 -107.8,-58.5 -106.7,-58.9 -105.4,-59.4 -104.2,-59.8 -102.9,-60.2 -101.5,-60.6 -100.2,-61 -98.9,-61.3 -97.6,-61.7 -96.1,-62.1 -94.8,-62.3 -93.6,-62.5 -92.4,-62.7 -90.8,-62.9 -89.6,-63.1 -88.3,-63.3 -87,-63.4 -85.7,-63.6 -84.4,-63.7 -83.1,-63.8 -81.8,-63.9 -80.5,-64 -79.5,-64 -78.5,-64 -77.5,-63.9 -76.2,-63.8 -74.8,-63.7 -73.4,-63.6 -72.1,-63.5 -70.8,-63.4 -69.5,-63.2 -67.9,-63 -66.4,-62.8 -64.8,-62.6 -63.6,-62.4 -62.2,-62.2 -60.9,-61.9 -59.7,-61.7 -58.6,-61.4 -57.2,-61.1 -56.2,-60.8 -55.1,-60.4 -53.9,-60.1 -52.7,-59.6 -51.6,-59.2 -50.5,-58.8 -49.3,-58.4 -48,-57.8 -46.8,-57.3 -45.7,-56.8 -44.4,-56.3 -43.2,-55.7 -42.2,-55.3 -40.9,-54.6 -39.6,-53.9 -38.4,-53.3 -37.4,-52.7 -36.4,-52.1 -35.3,-51.3 -34.2,-50.6 -33.1,-49.9 -31.9,-49.1 -30.8,-48.2 -29.8,-47.4 -28.7,-46.6 -27.5,-45.6 -26.3,-44.6 -25.3,-43.8 -24.3,-42.9 -23.2,-41.9 -22.2,-41.1 -21.4,-40.3 -20.6,-39.4 -19.6,-38.5 -18.8,-37.6 -17.9,-36.7 -17.1,-35.8 -16.2,-34.8 -15.3,-33.7 -14.4,-32.7 -13.4,-31.4 -12.6,-30.3 -11.7,-29.3 -10.9,-28.3 -10,-26.9 -9.1,-25.6 -8.4,-24.5 -7.7,-23.4 -6.9,-22.2 -6.3,-21.2 -5.6,-20.1 -5,-18.9 -4.3,-17.7 -3.8,-16.6 -3.2,-15.6 -2.6,-14.3 -2,-13 -1.4,-11.8 -0.8,-10.7 -0.2,-9.3 0.5,-8 1.1,-6.7 1.7,-5.6 2.3,-4.1 2.9,-2.8 3.6,-1.7 4.1,-0.4 4.7,0.9 5.3,2.2 5.8,3.4 6.3,4.5 7,6 7.6,7.2 8.2,8.5 8.7,9.8 9.3,11 9.8,12.2 10.4,13.4 10.9,14.7 11.6,16 12.1,17.2 12.6,18.3 13.2,19.6 13.8,20.9 14.4,22.2 14.9,23.3 15.4,24.3 15.8,25.2 16.3,26.3 16.8,27.3 17.2,28.2 17.6,29.1 18,30 18.4,30.9 18.9,32 19.4,33.1 19.9,34.2 20.4,35.3 20.9,36.2 21.5,37.4 22.1,38.4 22.6,39.5 23.2,40.6 23.8,41.7 24.4,42.9 25.1,44 25.7,45 26.4,46.2 27,47.2 27.8,48.3 28.8,49.7 29.9,50.9 30.8,52 32,53.2 33.2,54.3 34.3,55.4 35.6,56.5 36.8,57.4 37.9,58.2 38.9,58.8 40.2,59.4 41.4,59.9 42.8,60.3 44.2,60.7 45.7,61.1 47.1,61.3 48.7,61.6 50.3,61.8 52.1,61.8 53.7,61.7 55.4,61.6 56.9,61.3 58.6,61 60.2,60.6 62.1,60 64,59.2 65.9,58.3 67.6,57.3 69.3,56.3 70.8,55.3 72.3,54.2 73.8,52.9 75.2,51.7 76.3,50.6 77.2,49.8 77.9,48.9 78.6,48.3 79.2,47.6 79.8,46.9 80.4,46.2 81.1,45.6 81.6,44.8 82.2,44.2 82.8,43.4 83.4,42.7 84.1,41.9 84.8,41.1 85.7,40.1 86.4,39.1 87.1,38.3 87.9,37.2 88.8,36.1 89.7,35 90.6,33.9 91.4,32.8 92.4,31.5 93.2,30.4 94.1,29.4 94.9,28.3 95.7,27.3 96.4,26.3 97.2,25.3 98,24.3 98.8,23.3 99.4,22.5 100.3,21.4 101.2,20.3 102.2,19 102.9,17.9 103.8,16.8 104.8,15.5 105.9,14.2 106.8,12.9 107.8,11.5 108.7,10.4 109.5,9.2 110.3,8.2 111.2,6.9 112.1,5.7 112.8,4.7 113.6,3.4 114.5,2 115.3,0.6 116.1,-0.9 116.9,-2.4 117.7,-3.9 118.3,-5.2 118.9,-6.8 119.5,-8.4 119.9,-9.7 120.2,-10.9 120.4,-11.9 120.7,-12.9 120.8,-14.3 120.9,-15.6 121,-16.9 121,-18 121,-19 120.9,-20.3 120.8,-21.6 120.6,-23.1 120.4,-24.6 120.2,-25.6 119.8,-26.7 119.4,-28 119,-29.3 118.5,-30.7 118,-31.8 117.5,-33 117.1,-34 116.6,-35.1 115.9,-36.4 115.3,-37.5 114.8,-38.4 114.3,-39.4 113.8,-40.2 113.1,-41.4 112.5,-42.4 111.9,-43.5 111.3,-44.4 110.8,-45.1 110.3,-45.9 109.6,-47 108.9,-48.1 108.3,-49.1 107.7,-50 107.1,-50.9 106.4,-51.8 105.7,-52.9 105,-54.1 104.2,-55.3 103.6,-56.4 102.8,-57.4 102.2,-58.5 101.6,-59.4 100.9,-60.6 100.1,-61.9 99.3,-63 98.6,-64.1 97.9,-65.2 97.2,-66.5 96.4,-67.8 95.7,-69.1 94.8,-70.6 94,-71.8 93.2,-73.2 92.3,-74.6 91.5,-75.9 90.6,-77.4 89.8,-78.7 89,-79.9 88.2,-81.2 87.4,-82.6 86.6,-84 85.9,-85.1 85.1,-86.5 84.2,-87.9 83.4,-89.1 82.6,-90.5 81.6,-92.1 80.7,-93.7 79.8,-95.1 78.9,-96.6 78,-97.9 77.2,-99.2 76.3,-100.7 75.3,-102.2 74.5,-103.6 73.8,-104.8 72.8,-106.3 71.9,-107.6 71.1,-109 70.1,-110.7 69.1,-112.2 68.3,-113.6 67.4,-115.2 66.4,-116.8 65.4,-118.4 64.4,-120 63.5,-121.6 62.5,-123.2 61.5,-124.9 60.5,-126.6 59.5,-128.2 58.5,-129.9 57.5,-131.6 56.5,-133.3 55.5,-134.9 54.5,-136.6 53.5,-138.3 52.6,-139.8 51.6,-141.6 50.4,-143.4 49.4,-145.1 48.2,-146.9 47.1,-148.8 46.1,-150.3 45,-152.1 43.9,-153.9 42.7,-155.8 41.7,-157.3 40.8,-158.9 39.7,-160.8 38.7,-162.4 37.8,-164 36.7,-165.9 35.6,-167.8 34.4,-169.6 33.3,-171.6 32.1,-173.6 30.9,-175.4 29.9,-177.1 28.7,-179 27.5,-181 26.4,-182.8 25.2,-184.7 24.1,-186.6 23.1,-188.2 21.9,-190.1 20.8,-191.9 19.7,-193.7 18.6,-195.6 17.5,-197.4 16.3,-199.3 15.3,-201.1 14.2,-202.8 13.1,-204.7 12.1,-206.4 11,-208.2 9.8,-210.3 8.7,-212.1 7.5,-213.9 6.4,-215.8 5.2,-217.8 4.1,-219.7 2.9,-221.6 1.7,-223.6 0.4,-225.6 -0.7,-227.3 -1.9,-229.2 -2.9,-231 -4.2,-233.1 -5.2,-234.8 -6.3,-236.7 -7.6,-238.8 -8.6,-240.6 -9.7,-242.4 -10.8,-244.3 -12,-246.3 -13.2,-248.3 -14.3,-250.1 -15.6,-252 -16.7,-253.8 -17.9,-255.8 -19.1,-257.8 -20.2,-259.7 -21.4,-261.8 -22.6,-263.7 -23.7,-265.5 -24.8,-267.4 -25.8,-269.2 -26.9,-271 -28,-272.7 -29.2,-274.6 -30.3,-276.4 -31.3,-278.1 -32.4,-279.9 -33.4,-281.7 -34.6,-283.6 -35.7,-285.5 -36.8,-287.3 -37.8,-289.1" style="stroke: rgb(59, 130, 246); stroke-width: 7;"></polyline><polyline vector-effect="non-scaling-stroke" fill="none" points="-38.9,-290.8 -39.9,-292.5 -41.1,-294.4 -42.2,-296.1 -43.2,-297.8 -44.3,-299.6 -45.5,-301.4 -46.6,-303.2 -47.8,-305.2 -48.9,-307 -50.1,-308.8 -51.2,-310.6 -52.3,-312.3 -53.4,-314.1 -54.4,-315.7 -55.3,-317.3 -56.4,-319.1 -57.3,-320.6 -58.2,-322.2 -59.3,-323.9 -60.2,-325.4 -61.1,-327.1 -62.2,-328.8 -63.2,-330.5 -64.2,-332.2 -65.2,-333.8 -66.2,-335.5 -67.3,-337.3 -68.3,-339 -69.3,-340.6 -70.4,-342.4 -71.4,-344.1 -72.4,-345.7 -73.5,-347.6 -74.5,-349.2 -75.5,-350.8 -76.5,-352.4 -77.4,-354.1 -78.4,-355.7 -79.2,-357.1 -80.1,-358.7 -81.1,-360.3 -81.9,-361.7 -82.8,-363.3 -83.8,-364.9 -84.6,-366.3 -85.6,-367.9 -86.6,-369.5 -87.6,-371.1 -88.4,-372.4 -89.2,-373.9 -90.1,-375.4 -90.9,-376.8 -91.8,-378.2 -92.7,-379.7 -93.4,-381.1 -94.2,-382.4 -95,-383.7 -95.8,-385.2 -96.6,-386.4 -97.4,-387.6 -98,-388.6 -98.7,-389.7 -99.4,-390.9 -100,-391.8 -100.6,-392.8 -101.2,-393.7 -101.7,-394.6 -102.2,-395.5 -102.8,-396.5 -103.5,-397.7 -104.1,-398.7 -104.6,-399.6 -105.2,-400.7 -105.9,-401.8 -106.8,-403.1 -107.6,-404.3 -108.3,-405.6 -109.1,-406.6 -109.6,-407.5 -110.2,-408.3 -111.1,-409.6 -111.9,-410.6 -113.2,-412 -114.6,-413.2 -115.9,-414.3 -118.3,-415.4 -120.7,-416.5 -124,-417 -127.3,-417.4 -130.4,-417.2 -133.6,-417 -136.3,-416.1 -138.8,-415 -141.3,-413.9 -142.8,-412.7 -144.3,-411.6 -145.2,-410.6 -146.1,-409.6 -146.8,-408.7 -147.6,-407.7 -148.2,-407.1 -148.7,-406.4 -149.4,-405.5 -150.3,-404.4 -151.2,-403.3 -151.8,-402.6 -152.4,-401.8 -153.3,-400.7 -154.1,-399.7 -154.9,-398.6 -155.8,-397.5 -156.5,-396.6 -157.1,-395.9 -157.9,-394.9 -158.8,-393.9 -159.6,-392.9 -160.3,-392.2 -161.1,-391.4 -161.9,-390.6 -162.8,-389.7 -163.8,-388.7 -164.8,-387.7 -165.6,-386.9 -166.3,-386.2 -167.1,-385.6 -167.8,-384.9 -168.6,-384.3 -169.3,-383.8 -170.1,-383.2 -170.8,-382.8 -171.6,-382.3 -172.3,-381.8 -173.3,-381.4 -174.2,-380.9 -175.2,-380.4 -176,-380.1 -176.8,-379.7 -177.8,-379.3 -178.7,-379 -179.6,-378.8 -180.4,-378.6 -181.1,-378.4 -182,-378.2 -182.9,-378.1 -183.9,-377.9 -185,-377.8 -185.9,-377.7 -186.8,-377.7 -187.9,-377.7 -188.9,-377.7 -190,-377.7 -190.9,-377.7 -191.9,-377.8 -192.9,-378 -193.9,-378.2 -194.8,-378.3 -195.6,-378.6 -196.5,-378.8 -197.3,-379.1 -198.3,-379.4 -199.4,-379.8 -200.3,-380.2 -201.2,-380.6 -202.1,-381 -203.1,-381.6 -204.2,-382.1 -205.1,-382.7 -206.2,-383.3 -207.1,-383.9 -207.9,-384.4 -208.8,-385.2 -209.9,-386 -210.9,-386.9 -211.9,-387.7 -212.9,-388.6 -213.9,-389.6 -214.8,-390.4 -215.7,-391.3 -216.7,-392.4 -217.6,-393.4 -218.3,-394.3 -219.1,-395.2 -219.8,-396.2 -220.6,-397.2 -221.3,-398.3 -222.2,-399.4 -223,-400.6 -223.7,-401.6 -224.4,-402.7 -225.1,-403.8 -225.9,-405.1 -226.7,-406.2 -227.3,-407.3 -227.9,-408.3 -228.6,-409.3 -229.1,-410.3 -229.7,-411.5 -230.3,-412.7 -230.9,-413.8 -231.4,-414.8 -231.9,-416 -232.4,-417.2 -232.9,-418.4 -233.4,-419.7 -233.9,-421.1 -234.4,-422.4 -234.8,-423.6 -235.2,-425 -235.7,-426.4 -236.1,-427.7 -236.5,-429.2 -236.8,-430.5 -237.2,-431.9 -237.6,-433.3 -237.9,-434.7 -238.2,-436.2 -238.5,-437.4 -238.7,-438.7 -238.9,-440.1 -239.1,-441.4 -239.3,-442.9 -239.4,-444.3 -239.4,-445.6 -239.5,-446.9 -239.5,-448.4 -239.5,-450 -239.5,-451.6 -239.5,-453.1 -239.5,-454.7 -239.5,-456.1 -239.5,-457.7 -239.5,-459.2 -239.4,-460.6 -239.3,-462.1 -239.2,-463.7 -239.1,-465.1 -238.9,-466.4 -238.7,-467.9 -238.5,-469.3 -238.2,-470.7 -237.9,-472.1 -237.6,-473.7 -237.3,-475.1 -236.9,-476.4 -236.6,-477.7 -236.2,-479.2 -235.7,-480.6 -235.2,-482.1 -234.7,-483.5 -234.2,-484.9 -233.7,-486.2 -233.2,-487.4 -232.4,-489.1 -231.6,-490.8 -230.8,-492.3 -229.9,-493.9 -229.1,-495.4 -228.2,-496.9 -227.2,-498.6 -226.2,-500.2 -225.2,-501.7 -224.3,-502.8 -223.4,-504.1 -222.5,-505.2 -221.7,-506.2 -220.8,-507.3 -219.7,-508.4 -218.8,-509.3 -217.7,-510.4 -216.5,-511.6 -215.4,-512.6 -214.4,-513.6 -213.3,-514.6 -211.9,-515.8 -210.8,-516.8 -209.7,-517.8 -208.6,-518.7 -207.7,-519.4 -206.6,-520.2 -205.2,-521.1 -203.9,-521.9 -202.6,-522.7 -201.4,-523.4 -200.3,-524 -199.1,-524.7 -197.5,-525.4 -196,-526.2 -194.7,-526.8 -193.4,-527.3 -192.1,-527.9 -190.7,-528.5 -189.2,-529.1 -187.7,-529.6 -186,-530.2 -184.7,-530.7 -183.3,-531.2 -181.6,-531.7 -180.2,-532.1 -178.8,-532.5 -177.4,-532.9 -176.2,-533.2 -174.6,-533.6 -173.1,-533.8 -171.7,-534.1 -170.2,-534.3 -168.9,-534.5 -167.2,-534.8 -165.6,-535 -163.9,-535.2 -162.3,-535.4 -160.9,-535.6 -159.4,-535.7 -157.9,-535.8 -156.3,-535.9 -154.6,-536 -153.2,-536 -151.6,-536 -150.1,-536 -148.5,-536 -147,-535.9 -145.6,-535.9 -144.2,-535.8 -142.7,-535.7 -141.1,-535.6 -139.6,-535.5 -138.2,-535.3 -136.8,-535.2 -135.6,-535 -134,-534.8 -132.4,-534.6 -130.8,-534.4 -129.5,-534.2 -128.2,-534 -126.9,-533.7 -125.3,-533.4 -123.7,-533.1 -122.1,-532.8 -120.8,-532.5 -119.6,-532.2 -118.3,-531.9 -116.7,-531.4 -115.4,-531.1 -113.9,-530.6 -112.8,-530.2 -111.4,-529.8 -110.1,-529.3 -108.8,-528.8 -107.2,-528.3 -105.7,-527.7 -104.3,-527.2 -103,-526.7 -101.7,-526.2 -100.3,-525.6 -99.1,-525.1 -97.9,-524.5 -96.4,-523.8 -95.2,-523.2 -94.1,-522.6 -92.8,-521.8 -91.3,-521 -90.1,-520.3 -88.9,-519.6 -87.5,-518.7 -86.1,-517.8 -85,-517.2 -83.6,-516.2 -82.1,-515.3 -80.9,-514.4 -79.7,-513.7 -78.6,-512.9 -77.4,-512.1 -76.3,-511.3 -75.1,-510.3 -73.8,-509.3 -72.8,-508.5 -71.8,-507.7 -70.7,-506.7 -69.4,-505.5 -68.2,-504.3 -66.9,-503.2 -65.7,-502.1 -64.6,-501.1 -63.4,-500 -62.3,-498.8 -61.2,-497.7 -60.2,-496.8 -59.2,-495.8 -58.2,-494.7 -57.2,-493.5 -56.2,-492.3 -55.2,-491.2 -54.2,-489.9 -53.2,-488.7 -52.1,-487.3 -51,-485.9 -50.1,-484.8 -49.2,-483.7 -48.3,-482.4 -47.5,-481.1 -46.5,-479.7 -45.6,-478.3 -44.7,-477 -43.8,-475.7 -43,-474.3 -42.1,-472.9 -41.1,-471.3 -40.1,-469.9 -39.1,-468.5 -38.1,-467.1 -37.2,-465.7 -36.3,-464.3 -35.3,-462.8 -34.2,-461.3 -33.2,-459.8 -32.2,-458.3 -31.3,-456.9 -30.3,-455.5 -29.3,-453.9 -28.3,-452.4 -27.3,-450.9 -26.3,-449.4 -25.3,-448 -24.4,-446.6 -23.4,-445.1 -22.4,-443.4 -21.3,-441.8 -20.3,-440.3 -19.3,-438.7 -18.3,-437.3 -17.4,-435.9 -16.4,-434.3 -15.3,-432.6 -14.3,-431 -13.3,-429.6 -12.3,-427.9 -11.3,-426.5 -10.4,-425.1 -9.4,-423.4 -8.3,-421.7 -7.3,-420.1 -6.3,-418.7 -5.3,-417.1 -4.2,-415.4 -3.1,-413.7 -2,-412.1 -0.9,-410.3 0.2,-408.7 1.2,-407.2 2.3,-405.5 3.5,-403.8 4.4,-402.4 5.5,-400.7 6.6,-399.1 7.6,-397.5 8.8,-395.7 9.9,-394 11.2,-392.1 12.2,-390.5 13.2,-388.9 14.3,-387.1 15.4,-385.5 16.4,-383.8 17.6,-382.1 18.6,-380.4 19.7,-378.8 20.8,-377.2 21.9,-375.4 23,-373.8 24.1,-372.1 25.3,-370.2 26.4,-368.6 27.6,-366.8 28.6,-365.2 29.7,-363.4 30.7,-361.8 31.9,-360 33.1,-358.2 34.2,-356.6 35.2,-355.1 36.2,-353.5 37.2,-351.9 38.4,-350.1 39.5,-348.4 40.7,-346.6 41.8,-344.8 42.9,-343.1 44.1,-341.3 45.3,-339.6 46.4,-337.9 47.5,-336.2 48.6,-334.5 49.8,-332.7 50.9,-331 52,-329.4 53.2,-327.7 54.3,-325.8 55.5,-323.9 56.9,-321.7 58.3,-319.8 59.6,-317.8 60.8,-316.1 62,-314.2 63.3,-312.2 64.4,-310.4 65.5,-308.8 66.8,-306.8 67.9,-305.2 68.9,-303.6 70.1,-301.9 71.2,-300.2 72.3,-298.5 73.3,-296.9 74.5,-295.1 75.7,-293.2 76.8,-291.6 77.8,-289.9 79.1,-288.1 80.3,-286.2 81.5,-284.3 82.7,-282.5 84,-280.6 85.2,-278.8 86.3,-277.1 87.4,-275.4 88.6,-273.6 89.8,-271.8 90.8,-270.2 92,-268.3 93.1,-266.7 94.2,-264.9 95.3,-263.1 96.4,-261.4 97.7,-259.6 98.9,-257.9 99.9,-256.3 101,-254.6 102.1,-252.8 103.3,-250.9 104.4,-249.3 105.6,-247.5 106.8,-245.6 108,-243.7 109.2,-241.8 110.5,-239.9 111.8,-238.1 112.9,-236.4 114.2,-234.6 115.3,-232.8 116.5,-231 117.6,-229.4 118.7,-227.7 119.9,-225.8 121,-224.1 122,-222.4 123.2,-220.6 124.3,-218.8 125.6,-216.8 126.8,-215 128.1,-213 129.2,-211.2 130.4,-209.4 131.7,-207.6 133,-205.6 134.2,-203.9 135.3,-202.2 136.6,-200.4 137.8,-198.6 139,-196.8 140.2,-195 141.3,-193.3 142.6,-191.3 143.8,-189.4 145.1,-187.4 146.2,-185.7 147.3,-183.9 148.4,-182.1 149.6,-180.3 150.9,-178.3 152.1,-176.4 153.2,-174.8 154.3,-173.1 155.5,-171.3 156.7,-169.4 157.9,-167.6 159.2,-165.8 160.4,-164 161.6,-162.2 162.8,-160.3 164.1,-158.5 165.4,-156.5 166.6,-154.8 167.8,-152.9 169,-151.2 170.3,-149.2 171.4,-147.5 172.5,-145.8 173.7,-144.1 174.8,-142.4 175.8,-140.7 177.1,-138.8 178.2,-137 179.4,-135.1 180.6,-133.1 181.8,-131.2 183.1,-129.3 184.3,-127.4 185.6,-125.4 186.8,-123.4 188.1,-121.6 189.2,-119.8 190.4,-118.1 191.7,-116.3 192.9,-114.4 194.1,-112.6 195.3,-110.8 196.5,-109 197.7,-107.2 198.9,-105.5 200.1,-103.6 201.3,-101.7 202.5,-99.8 203.7,-97.9 204.9,-96.1 206.2,-94.2 207.4,-92.3 208.6,-90.4 209.8,-88.5 211.1,-86.6 212.3,-84.7 213.6,-82.8 214.8,-80.9 215.9,-79.1 217.3,-77.1 218.6,-75.1 219.7,-73.2 220.9,-71.3 222.3,-69.3 223.5,-67.5 224.7,-65.7 225.9,-63.8 227.2,-61.9 228.3,-60.1 229.6,-58.2 230.8,-56.4 232.2,-54.3 233.3,-52.4 234.6,-50.4 235.8,-48.6 237.1,-46.7 238.3,-44.8 239.7,-42.7 240.9,-40.9 242.2,-39 243.3,-37.2 244.5,-35.4 245.8,-33.4 247.1,-31.5 248.3,-29.7 249.6,-27.8 250.6,-26.2 251.8,-24.2 253.2,-22.3 254.4,-20.3 255.7,-18.3 257,-16.4 258.3,-14.4 259.6,-12.4 260.8,-10.5 262.2,-8.4 263.4,-6.6 264.6,-4.7 265.9,-2.7 267.3,-0.8 268.4,0.9 269.6,2.7 270.9,4.7 272.2,6.7 273.5,8.7 274.8,10.7 276.2,12.6 277.3,14.4 278.6,16.4 279.8,18.3 281.3,20.4 282.6,22.2 283.8,24.2 285,25.9 286.2,27.8 287.6,29.9 288.9,32 290.3,34.1 291.7,36.1 292.9,37.9 294.2,39.9 295.6,42 296.8,44 298.2,46.1 299.4,47.9 300.7,49.8 301.9,51.8 303.2,53.7 304.5,55.7 305.9,57.8 307.1,59.6 308.4,61.5 309.7,63.4 310.9,65.3 312.3,67.3 313.6,69.1 314.8,71 316.2,73 317.4,74.8 318.7,76.8 320.1,78.9 321.4,80.8 322.7,82.8 324,84.9 325.3,86.9 326.7,89.1 328.1,91.2 329.4,93.2 330.7,95.2 332,97.2 333.3,99.3 334.6,101.2 335.9,103.2 337.3,105.2 338.6,107.2 339.7,108.9 341.1,111 342.5,113.1 343.6,114.9 345,117 346.4,119.2 347.6,121 348.9,122.9 350.2,125 351.7,127.1 352.9,128.9 354.2,130.8 355.6,132.9 356.8,134.7 358,136.6 359.3,138.5 360.6,140.6 361.8,142.4 363.1,144.4 364.3,146.3 365.7,148.3 366.9,150.1 368.2,152.1 369.4,154.1 370.8,156.1 372,157.9 373.3,159.9 374.4,161.8 375.9,163.9 377.2,165.9 378.4,167.8 379.8,169.9 381.2,172 382.4,173.9 383.8,175.9 385.1,177.8 386.4,179.9 387.7,181.7 388.9,183.6 390.3,185.5 391.4,187.3 392.6,189.1 394,191.2 395.3,193.1 396.6,195.1 397.9,197 399.1,198.9 400.4,201 401.8,203.1 403.1,205 404.4,206.9 405.7,208.8 406.9,210.8 408.3,212.7 409.6,214.7 410.9,216.7 412.1,218.4 413.3,220.3 414.6,222.3 416,224.4 417.3,226.3 418.6,228.2 419.7,230 421.1,232 422.3,233.8 423.6,235.9 424.9,237.9 426.3,240 427.6,241.8 428.8,243.8 430.3,246 431.8,248.2 433.1,250.3 434.5,252.4 435.9,254.5 437.4,256.7 438.7,258.7 440,260.8 441.4,263 442.8,265.1 444,266.9 445.3,268.7 446.7,270.7 447.9,272.6 449.1,274.4 450.5,276.4 451.8,278.3 452.9,280.1 454.1,281.8 455.4,283.8 456.7,285.9 457.9,287.8 459.1,289.7 460.4,291.6 461.5,293.3 462.8,295.3 463.9,297.2 465.3,299.2 466.5,301.1 467.7,303 468.9,304.9 470.2,306.8 471.5,308.9 472.8,310.9 474,312.8 475.3,314.7 476.4,316.4 477.6,318.3 478.9,320.3 480.1,322.1 481.4,324.1 482.6,326 483.8,327.9 485.1,329.8 486.3,331.8 487.6,333.7 488.8,335.6 490.1,337.5 491.4,339.6 492.7,341.6 493.9,343.4 495.2,345.4 496.4,347.3 497.7,349.2 499.1,351.3 500.3,353.2 501.6,355.1 502.7,356.8 503.8,358.6 505.1,360.6 506.3,362.3 507.6,364.3 508.8,366.2 509.9,367.9 511.2,369.9 512.5,371.9 513.8,373.9 515.1,375.8 516.2,377.6 517.5,379.6 518.8,381.5 520.1,383.3 521.4,385.3 522.7,387.2 523.9,389.1 525.3,391.1 526.6,392.9 527.9,394.9 529.2,396.8 530.3,398.6 531.6,400.4 532.8,402.2 534,403.9 535.2,405.7 536.4,407.5 537.6,409.3 538.7,411 539.8,412.6 541.1,414.4 542.4,416.4 543.6,418.3 544.8,420.2 546.1,422.1 547.2,423.9 548.5,425.9 549.8,427.8 551.2,430 552.4,431.9 553.7,433.7 554.9,435.6 556.1,437.4 557.3,439.2 558.6,441.1 559.7,442.8 560.9,444.7 562.3,446.7 563.5,448.6 564.7,450.5 565.9,452.3 567.1,454 568.3,455.9 569.4,457.7 570.8,459.7 571.9,461.4 572.9,462.9 574.1,464.7 575.2,466.3 576.3,468.2 577.6,470 578.8,471.7 579.9,473.4 580.9,474.9 582.1,476.7 583.3,478.5 584.3,479.9 585.4,481.6 586.4,483.1 587.4,484.6 588.3,486.1 589.2,487.6 590.2,489.1 591.1,490.5 591.9,491.8 592.8,493.2 593.7,494.4 594.5,495.8 595.4,497.1 596.2,498.3 596.9,499.4 597.7,500.6 598.4,501.7 599.2,502.8 599.9,503.8 600.5,504.7 601.2,505.7 601.8,506.6 602.6,507.6 603.3,508.7 603.9,509.7 604.7,510.7 605.3,511.7 605.9,512.8 606.6,513.8 607.1,514.6 607.7,515.4 608.1,516.1 608.4,516.7 608.8,517.2 609,517.7 609.2,518.1 609.5,518.5 609.8,519.2 610.2,519.9 610.6,520.8 610.8,521.6 611.2,522.4 611.4,523.4 611.7,524.6 612,525.9 612.2,527.4 612.2,528.6 612.1,529.9 611.7,531.3 611.3,532.7 610.7,534 609.9,535.2 608.2,536.2 606.4,537 604.6,537.6 602.8,538.2 601,538.5 599.3,538.6 597.3,538.4 595.4,538.3 593.7,538.1 592.9,537.8 592.2,537.6 591.5,537.3 590.6,536.9 589.6,536.5 588.8,536.2 588.3,535.9 587.6,535.5 586.8,535.1 586.1,534.7 585.3,534.3 584.5,533.9 583.8,533.6 582.9,533.1 582.1,532.6 581.1,532 580.3,531.5 579.4,531 578.6,530.5 577.6,529.9 576.6,529.2 575.7,528.7 574.8,528.1 573.8,527.6 573,527.1 572,526.4 570.9,525.8 569.8,525.1 568.8,524.5 567.9,523.9 566.8,523.2 565.8,522.6 564.9,522.1 563.8,521.3 562.8,520.7 562,520.1 561.1,519.4 560.1,518.7 559.2,518 558.2,517.3 557.2,516.5 556.1,515.7 555.2,515.1 554.3,514.4 553.3,513.6 552.3,512.9 551.4,512.3 550.4,511.6 549.4,510.9 548.6,510.2 547.7,509.5 546.8,508.8 546,508.1 545.3,507.5 544.3,506.7 543.4,505.9 542.4,505.1 541.7,504.3 540.9,503.7 540.1,502.9 539.1,502.2 538.1,501.3 537.1,500.4 536.3,499.6 535.4,498.8 534.6,497.9 533.7,497.1 532.8,496.1 531.9,495.1 531.1,494.2 530.3,493.4 529.5,492.4 528.7,491.4 527.8,490.4 527.1,489.6 526.3,488.7 525.7,487.8 524.8,486.6 523.9,485.4 523,484.2 522.3,483.2 521.6,482.2 520.8,481.1 520.1,480 519.1,478.7 518.2,477.5 517.4,476.4 516.7,475.4 515.9,474.3 515.1,473.3 514.2,472.1 513.4,471 512.6,469.9 511.8,468.8 510.9,467.7 510.2,466.7 509.4,465.6 508.6,464.4 507.7,463.1 506.9,461.9 506.1,460.8 505.1,459.4 504.3,458.3 503.5,457.1 502.6,455.8 501.8,454.6 500.9,453.4 500.1,452.3 499.2,451.1 498.3,449.8 497.5,448.7 496.6,447.4 495.7,446.3 494.8,445.1 493.9,443.8 492.9,442.5 492.2,441.4 491.3,440.3 490.4,438.9 489.6,437.8 488.8,436.7 487.9,435.3 487,434.1 486.2,432.9 485.2,431.5 484.2,430.1 483.3,428.8 482.4,427.7 481.6,426.6 480.6,425.1 479.7,423.9 478.8,422.7 478,421.6 477.1,420.3 476.2,419.1 475.3,417.9 474.3,416.4 473.3,415 472.4,413.9 471.6,412.8 470.7,411.4 469.7,410 468.8,408.8 467.9,407.6 467,406.2 466.1,404.9 465.2,403.7 464.2,402.3 463.2,401 462.2,399.7 461.3,398.4 460.4,397.2 459.3,395.8 458.4,394.5 457.5,393.2 456.7,392 455.8,390.8 454.8,389.3 453.9,388 453.1,386.8 452.1,385.3 451.2,384.1 450.2,382.8 449.3,381.6 448.3,380.3 447.2,378.8 446.3,377.5 445.4,376.3 444.4,374.9 443.6,373.7 442.7,372.4 441.8,371.2 441,370 440,368.5 439.2,367.3 438.3,366.1 437.3,364.7 436.3,363.3 435.4,362.1 434.5,360.9 433.4,359.4 432.4,357.9 431.6,356.7 430.7,355.4 429.7,353.9 428.8,352.7 427.9,351.6 427.1,350.3 426.1,348.8 425.2,347.6 424.3,346.4 423.4,345.2 422.4,343.8 421.6,342.6 420.7,341.4 419.8,340 418.8,338.7 418.1,337.6 417.2,336.4 416.4,335.2 415.4,333.8 414.4,332.6 413.6,331.3 412.7,330 411.8,328.8 410.9,327.6 410,326.3 409.1,325.1 408.1,323.8 407.4,322.7 406.6,321.5 405.7,320.3 404.9,319.3 404,318.1 403.1,316.9 402.3,315.7 401.5,314.6 400.7,313.4 399.9,312.3 399.1,311.2 398.2,310.1 397.3,308.7 396.6,307.6 395.8,306.5 394.9,305.4 394.2,304.3 393.3,303.1 392.4,301.8 391.6,300.8 390.9,299.8 390.1,298.8 389.4,297.8 388.7,296.9 388,295.9 387.3,295.1 386.6,294.1 385.9,293.1 385.2,291.9 384.4,290.8 383.7,289.9 383,288.9 382.1,287.6 381.1,286.2 380.1,284.8 379.2,283.6 378.3,282.4 377.5,281.4 376.7,280.4 375.6,279 374.6,277.8 373.5,276.7 372.4,275.6 371.6,274.8 369.6,273.8 366.8,272.9 363.5,272.3 360.2,271.7 357.2,271.6 353.9,271.5 350.8,271.7 347.5,272 344.1,272.3 341.8,272.9 339.9,273.4 338.7,273.7 337.4,274.1 335.8,274.5 334.4,274.8 333.1,275.2 331.9,275.4 330.6,275.8 329.3,276.1 328.2,276.3 327.2,276.6 325.9,276.9 324.9,277.1 323.9,277.4 322.9,277.6 321.9,277.8 320.9,278.1 319.9,278.3 318.9,278.6 317.7,278.8 316.7,279.1 315.7,279.3 314.7,279.6 313.4,279.8 312.2,280.2 311.2,280.4 310,280.7 308.8,281 307.7,281.3 306.7,281.6 305.4,281.8 304.1,282.2 303.1,282.4 301.8,282.7 300.4,283.1 299.3,283.3 298.2,283.6 296.8,283.9 295.3,284.2 294.2,284.5 292.8,284.8 291.4,285.1 290.2,285.4 288.8,285.7 287.4,286 285.8,286.4 284.4,286.7 283,287.1 281.4,287.4 280.1,287.8 278.7,288.2 277.1,288.6 275.7,288.9 274.3,289.3 272.9,289.6 271.5,290 269.9,290.4 268.5,290.7 267.1,291.1 265.3,291.4 263.8,291.8 262.3,292.2 260.6,292.6 259.1,292.9 257.6,293.3 256.1,293.6 254.6,294 252.9,294.4 251.5,294.7 250.1,295.1 248.4,295.4 247,295.8 245.3,296.2 243.7,296.6 242.2,297 240.6,297.4 239.1,297.7 237.7,298.1 235.9,298.5 234.4,298.9 232.9,299.2 231.5,299.6 230,299.9 228.3,300.3 226.8,300.7 225.1,301.1 223.4,301.5 222.1,301.9 220.4,302.3 218.8,302.7 217.4,303.1 215.8,303.4 214.3,303.8 212.9,304.2 211.4,304.5 209.9,304.9 208.4,305.2 206.8,305.6 205.3,305.9 203.6,306.3 202.1,306.7 200.4,307.1 198.8,307.5 197.3,307.9 195.9,308.2 194.2,308.6 192.7,309 191.1,309.4 189.6,309.7 188.1,310.1 186.8,310.4 185.3,310.8 183.8,311.1 182.1,311.5 180.7,311.9 179.2,312.2 177.8,312.6 176.3,312.9 174.8,313.3 173.1,313.7 171.7,314 170.3,314.3 168.8,314.7 167.2,315.1 165.7,315.4 164.2,315.8 162.7,316.1 160.9,316.5 159.5,316.9 158,317.2 156.3,317.6 154.9,317.9 153.5,318.3 151.8,318.7 150.4,319 148.9,319.3 147.5,319.7 146,320 144.6,320.3 143,320.7 141.5,321 139.8,321.4 138.4,321.8 137,322.1 135.6,322.4 134.2,322.8 132.7,323.2 131,323.6 129.6,323.9 128.2,324.3 126.9,324.6 125.4,324.9 123.8,325.2 122.1,325.7 120.6,326 119.1,326.3 117.8,326.7 116.3,327 114.8,327.3 113.1,327.8 111.7,328.1 110,328.5 108.6,328.8 107.9,329 107.1,329.2 106.1,329.4 105.4,329.6" style="stroke: rgb(251, 191, 36); stroke-width: 7;"></polyline></svg>