<svg xmlns="http://www.w3.org/2000/svg" xmlns:xlink="http://www.w3.org/1999/xlink" preserveAspectRatio="xMidYMid meet" height="100%" viewBox="-1100 -700 2200 1320">
    <polygon vector-effect="non-scaling-stroke" fill="none" style="stroke: #374151; stroke-width:6" points="  15,32 8,27 1,22 -7,17 -14,11 -21,6 -29,1 -36,-4 -43,-9 -50,-14 -57,-20 -65,-25 -72,-30 -79,-36 -87,-41 -94,-47 -101,-52 -109,-58 -116,-63 -124,-69 -131,-74 -139,-80 -146,-85 -154,-91 -161,-96 -169,-102 -176,-107 -184,-113 -192,-119 -199,-124 -206,-130 -214,-136 -221,-141 -229,-146 -236,-152 -243,-157 -251,-163 -258,-168 -266,-174 -273,-179 -281,-184 -288,-189 -295,-194 -301,-198 -307,-202 -314,-206 -319,-209 -325,-211 -330,-213 -335,-215 -340,-216 -345,-217 -350,-217 -355,-217 -360,-217 -365,-217 -370,-216 -375,-215 -380,-214 -385,-212 -389,-210 -394,-208 -398,-205 -403,-202 -407,-199 -411,-196 -416,-193 -420,-190 -425,-187 -429,-185 -434,-183 -439,-181 -445,-179 -451,-178 -456,-177 -461,-176 -467,-176 -473,-176 -479,-176 -485,-177 -490,-178 -497,-179 -502,-181 -508,-183 -514,-186 -520,-188 -526,-191 -532,-194 -538,-198 -543,-201 -549,-205 -555,-209 -560,-213 -566,-217 -571,-222 -577,-226 -582,-231 -588,-236 -594,-240 -599,-245 -605,-250 -611,-255 -617,-259 -623,-264 -629,-269 -635,-274 -641,-278 -647,-283 -654,-287 -660,-292 -667,-297 -674,-301 -681,-306 -688,-310 -695,-315 -702,-319 -710,-324 -717,-327 -725,-331 -732,-335 -740,-339 -747,-342 -755,-346 -763,-350 -771,-353 -779,-357 -787,-360 -794,-363 -802,-366 -811,-369 -819,-372 -827,-376 -835,-379 -843,-383 -851,-386 -858,-390 -867,-394 -875,-399 -882,-402 -889,-406 -896,-410 -902,-414 -908,-417 -913,-421 -917,-425 -921,-429 -925,-433 -928,-437 -931,-441 -934,-446 -936,-450 -938,-454 -940,-459 -941,-464 -942,-469 -943,-474 -943,-479 -944,-485 -944,-490 -944,-494 -945,-498 -946,-502 -946,-506 -947,-509 -949,-513 -950,-516 -952,-519 -954,-522 -956,-525 -958,-528 -961,-530 -965,-533 -968,-535 -971,-537 -974,-538 -978,-539 -981,-540 -985,-540 -988,-541 -992,-541 -997,-541 -1001,-541 -1005,-541 -1010,-540 -1014,-540 -1019,-539 -1023,-539 -1027,-539 -1031,-539 -1035,-539 -1038,-539 -1044,-540 -1049,-542 -1053,-544 -1058,-547 -1061,-549 -1063,-551 -1064,-553 -1066,-555 -1067,-558 -1068,-560 -1070,-565 -1071,-571 -1071,-575 -1070,-581 -1069,-586 -1068,-591 -1067,-596 -1066,-599 -1064,-605   -1064,-605 -1063,-608 -1061,-612 -1059,-616 -1057,-620 -1055,-624 -1052,-627 -1049,-631 -1046,-634 -1042,-637 -1038,-640 -1034,-643 -1030,-645 -1026,-647 -1022,-649 -1018,-650 -1014,-651 -1009,-652 -1005,-652 -1000,-652 -995,-652 -990,-651 -985,-650 -981,-649 -976,-647 -971,-645 -966,-643 -961,-641 -957,-639 -952,-636 -947,-633 -942,-629 -938,-626 -933,-622 -929,-617 -925,-613 -921,-607 -917,-602 -914,-597 -910,-591 -907,-584 -905,-578 -902,-572 -900,-566 -897,-559 -894,-553 -891,-547 -888,-541 -884,-534 -880,-528 -875,-522 -871,-517 -866,-512 -861,-506 -855,-501 -849,-496 -843,-492 -837,-487 -830,-483 -824,-479 -817,-476 -810,-472 -802,-469 -795,-466 -787,-463 -780,-460 -772,-458 -765,-455 -756,-453 -748,-450 -740,-447 -733,-445 -725,-442 -717,-440 -709,-437 -701,-435 -693,-432 -685,-430 -677,-427 -669,-424 -661,-422 -653,-419 -645,-416 -636,-414 -628,-411 -620,-408 -612,-406 -603,-403 -595,-400 -587,-397 -578,-395 -570,-392 -561,-389 -553,-386 -544,-383 -536,-381 -528,-378 -519,-375 -510,-372 -502,-369 -493,-366 -484,-363 -475,-360 -467,-358 -459,-355 -450,-352 -442,-349 -433,-346 -424,-343 -416,-340 -407,-337 -398,-334 -389,-331 -381,-328 -372,-325 -364,-322 -355,-320 -346,-317 -338,-314 -329,-311 -320,-308 -311,-305 -303,-302 -294,-299 -286,-296 -277,-293 -268,-290 -259,-287 -251,-285 -241,-281 -233,-279 -223,-275 -215,-273 -206,-270 -197,-267 -188,-264 -179,-261 -169,-257 -160,-254 -151,-251 -142,-248 -134,-245 -125,-242 -116,-239 -106,-236 -97,-233 -88,-230 -79,-227 -71,-224 -62,-221 -52,-217 -43,-214 -34,-211 -26,-208 -17,-205 -7,-202 1,-199 11,-196 19,-193 29,-189 38,-186 47,-183 55,-180 64,-177 72,-175 79,-172 86,-170 93,-168 99,-166 105,-164 111,-162 116,-161 121,-160 126,-159 131,-159 136,-159 140,-159 145,-160 150,-161 154,-162 158,-163 163,-165 167,-167 171,-170 175,-173 178,-176 182,-179 185,-182 189,-184 193,-188 196,-190 200,-193 205,-195 208,-196 211,-197 215,-198 218,-198 222,-198 224,-198 228,-197 232,-196 235,-195 240,-193 243,-192 247,-189 251,-185 254,-183 258,-179 262,-174 265,-171 267,-168 270,-164 273,-161 276,-157 279,-153 283,-149 286,-146 290,-142 294,-139 298,-135 302,-131 306,-127 311,-124 316,-120 321,-116 326,-112 332,-109 337,-105 343,-102 349,-99 355,-95 361,-92 367,-89 373,-86 379,-83 386,-80 392,-78 399,-75 406,-72 412,-70 419,-67 426,-64 433,-62 440,-59 447,-57 454,-54 461,-51 468,-49 475,-46 483,-44 490,-41 498,-39 505,-36 513,-34 521,-31 529,-29 536,-26 545,-23 552,-21 560,-19 567,-16 576,-13 583,-11   583,-11 591,-8 599,-6 607,-3 616,-1 624,2 632,5 640,7 648,10 656,13 665,15 673,18 681,21 689,23 698,26 706,29 714,31 723,34 731,37 740,39 748,42 756,45 764,47 773,50 781,53 789,55 797,58 806,61 814,63 823,66 831,69 840,72 848,74 857,77 866,80 874,82 882,85 891,88 900,91 908,95 916,98 925,102 933,106 940,111 948,115 955,121 962,126 969,133 975,139 981,145 987,152 992,159 997,166 1003,174 1007,181 1012,189 1016,197 1019,205 1023,214 1025,223 1028,231 1030,240 1032,249 1034,257 1035,266 1036,275 1037,284 1038,293 1038,303 1038,312 1039,321 1039,331 1039,339 1039,348 1039,357 1039,366 1040,376 1040,386 1040,394 1041,403 1041,413 1041,422 1041,431 1041,440 1041,449 1040,458 1038,468 1036,476 1034,485 1031,493 1027,501 1024,509 1020,515 1016,522 1012,528 1007,534 1002,539 997,544 991,548 986,552 980,555 974,559 968,561 962,563 956,565 950,567 944,567 939,568 933,568 927,568 921,567 916,566 910,564 905,562 900,560 895,558 891,555 887,553 883,550 880,546 876,543 873,539 870,535 867,531 864,526 862,522 860,517 858,512 857,507 856,502 856,497 856,492 856,487 857,481 857,477 858,472 860,466 861,461 863,455 865,450 868,444 871,439 874,433 877,427 881,422 885,417 889,412 893,407 898,402 903,397 908,392 912,387 916,382 921,376 925,371 930,365 934,359 938,353 942,347 946,340 949,334 952,327 956,320 958,313 960,307 962,301 963,296 964,290 965,285 965,280 965,276 965,271 964,267 963,263 962,258 960,255 959,251 956,246 954,243 951,240 948,237 945,235 939,231 936,229 933,228 929,226 925,225 922,224 918,223 915,223 911,223 907,223 903,223 899,224 895,225 891,226 887,227 882,229 878,230 874,232 870,234 866,237 861,239 857,242 852,245 847,247 842,250 837,252 831,254 826,256 821,259 815,260 809,262 802,264 796,266 790,267 784,269 777,270 770,271 764,272 756,273 750,273 743,273 735,273 728,273 721,272 713,272 706,271 698,269 690,268 682,266 675,264 668,261 661,258 654,255 647,252 640,248 633,244 626,239 619,235 612,230 607,226 600,221 593,216 586,211 580,206 573,201 566,197 560,192 552,188 545,184 539,181 532,179 526,177 520,176 514,175 508,174 502,174 496,175 490,175 485,176 480,178 475,179 471,181 467,183 464,185 460,188 457,190 454,194 452,197 449,200 447,203 445,207 443,213 441,217 440,222 440,226 439,231 439,236 438,240 438,245 439,250 439,256 440,260 440,265 441,269 441,274 441,278 440,285 439,289 438,295 435,300 432,304 430,306 426,309 424,310 420,311 416,312 411,312 405,311 400,309 396,307 392,305 387,301 383,298 380,296 376,293 372,290 368,287 364,284 361,282 357,279 353,276 349,273 344,270 340,266 336,263 331,260 326,256 322,253 317,249 311,245 307,242 302,238 297,234 292,231 286,227 281,223 275,219 270,215 264,211 259,207 253,202 246,198 240,193 234,189 228,184 223,180 216,176 211,172 204,167 197,162 191,157 185,153 178,148 172,143 165,139 159,134 152,129 146,125 139,120 133,115 126,111 119,106 112,101 105,96 98,91 91,86 84,81 77,76 70,71 63,66 56,61 49,56 42,51 34,45 27,41 20,36 17,33 15,32  "></polygon>
    <polyline vector-effect="non-scaling-stroke" fill="none" style="stroke: #EF4444; stroke-width:4" points=" 15,32 8,27 1,22 -7,17 -14,11 -21,6 -29,1 -36,-4 -43,-9 -50,-14 -57,-20 -65,-25 -72,-30 -79,-36 -87,-41 -94,-47 -101,-52 -109,-58 -116,-63 -124,-69 -131,-74 -139,-80 -146,-85 -154,-91 -161,-96 -169,-102 -176,-107 -184,-113 -192,-119 -199,-124 -206,-130 -214,-136 -221,-141 -229,-146 -236,-152 -243,-157 -251,-163 -258,-168 -266,-174 -273,-179 -281,-184 -288,-189 -295,-194 -301,-198 -307,-202 -314,-206 -319,-209 -325,-211 -330,-213 -335,-215 -340,-216 -345,-217 -350,-217 -355,-217 -360,-217 -365,-217 -370,-216 -375,-215 -380,-214 -385,-212 -389,-210 -394,-208 -398,-205 -403,-202 -407,-199 -411,-196 -416,-193 -420,-190 -425,-187 -429,-185 -434,-183 -439,-181 -445,-179 -451,-178 -456,-177 -461,-176 -467,-176 -473,-176 -479,-176 -485,-177 -490,-178 -497,-179 -502,-181 -508,-183 -514,-186 -520,-188 -526,-191 -532,-194 -538,-198 -543,-201 -549,-205 -555,-209 -560,-213 -566,-217 -571,-222 -577,-226 -582,-231 -588,-236 -594,-240 -599,-245 -605,-250 -611,-255 -617,-259 -623,-264 -629,-269 -635,-274 -641,-278 -647,-283 -654,-287 -660,-292 -667,-297 -674,-301 -681,-306 -688,-310 -695,-315 -702,-319 -710,-324 -717,-327 -725,-331 -732,-335 -740,-339 -747,-342 -755,-346 -763,-350 -771,-353 -779,-357 -787,-360 -794,-363 -802,-366 -811,-369 -819,-372 -827,-376 -835,-379 -843,-383 -851,-386 -858,-390 -867,-394 -875,-399 -882,-402 -889,-406 -896,-410 -902,-414 -908,-417 -913,-421 -917,-425 -921,-429 -925,-433 -928,-437 -931,-441 -934,-446 -936,-450 -938,-454 -940,-459 -941,-464 -942,-469 -943,-474 -943,-479 -944,-485 -944,-490 -944,-494 -945,-498 -946,-502 -946,-506 -947,-509 -949,-513 -950,-516 -952,-519 -954,-522 -956,-525 -958,-528 -961,-530 -965,-533 -968,-535 -971,-537 -974,-538 -978,-539 -981,-540 -985,-540 -988,-541 -992,-541 -997,-541 -1001,-541 -1005,-541 -1010,-540 -1014,-540 -1019,-539 -1023,-539 -1027,-539 -1031,-539 -1035,-539 -1038,-539 -1044,-540 -1049,-542 -1053,-544 -1058,-547 -1061,-549 -1063,-551 -1064,-553 -1066,-555 -1067,-558 -1068,-560 -1070,-565 -1071,-571 -1071,-575 -1070,-581 -1069,-586 -1068,-591 -1067,-596 -1066,-599 -1064,-605 "></polyline>
    <polyline vector-effect="non-scaling-stroke" fill="none" style="stroke: #3B82F6; stroke-width:4" points=" -1064,-605 -1063,-608 -1061,-612 -1059,-616 -1057,-620 -1055,-624 -1052,-627 -1049,-631 -1046,-634 -1042,-637 -1038,-640 -1034,-643 -1030,-645 -1026,-647 -1022,-649 -1018,-650 -1014,-651 -1009,-652 -1005,-652 -1000,-652 -995,-652 -990,-651 -985,-650 -981,-649 -976,-647 -971,-645 -966,-643 -961,-641 -957,-639 -952,-636 -947,-633 -942,-629 -938,-626 -933,-622 -929,-617 -925,-613 -921,-607 -917,-602 -914,-597 -910,-591 -907,-584 -905,-578 -902,-572 -900,-566 -897,-559 -894,-553 -891,-547 -888,-541 -884,-534 -880,-528 -875,-522 -871,-517 -866,-512 -861,-506 -855,-501 -849,-496 -843,-492 -837,-487 -830,-483 -824,-479 -817,-476 -810,-472 -802,-469 -795,-466 -787,-463 -780,-460 -772,-458 -765,-455 -756,-453 -748,-450 -740,-447 -733,-445 -725,-442 -717,-440 -709,-437 -701,-435 -693,-432 -685,-430 -677,-427 -669,-424 -661,-422 -653,-419 -645,-416 -636,-414 -628,-411 -620,-408 -612,-406 -603,-403 -595,-400 -587,-397 -578,-395 -570,-392 -561,-389 -553,-386 -544,-383 -536,-381 -528,-378 -519,-375 -510,-372 -502,-369 -493,-366 -484,-363 -475,-360 -467,-358 -459,-355 -450,-352 -442,-349 -433,-346 -424,-343 -416,-340 -407,-337 -398,-334 -389,-331 -381,-328 -372,-325 -364,-322 -355,-320 -346,-317 -338,-314 -329,-311 -320,-308 -311,-305 -303,-302 -294,-299 -286,-296 -277,-293 -268,-290 -259,-287 -251,-285 -241,-281 -233,-279 -223,-275 -215,-273 -206,-270 -197,-267 -188,-264 -179,-261 -169,-257 -160,-254 -151,-251 -142,-248 -134,-245 -125,-242 -116,-239 -106,-236 -97,-233 -88,-230 -79,-227 -71,-224 -62,-221 -52,-217 -43,-214 -34,-211 -26,-208 -17,-205 -7,-202 1,-199 11,-196 19,-193 29,-189 38,-186 47,-183 55,-180 64,-177 72,-175 79,-172 86,-170 93,-168 99,-166 105,-164 111,-162 116,-161 121,-160 126,-159 131,-159 136,-159 140,-159 145,-160 150,-161 154,-162 158,-163 163,-165 167,-167 171,-170 175,-173 178,-176 182,-179 185,-182 189,-184 193,-188 196,-190 200,-193 205,-195 208,-196 211,-197 215,-198 218,-198 222,-198 224,-198 228,-197 232,-196 235,-195 240,-193 243,-192 247,-189 251,-185 254,-183 258,-179 262,-174 265,-171 267,-168 270,-164 273,-161 276,-157 279,-153 283,-149 286,-146 290,-142 294,-139 298,-135 302,-131 306,-127 311,-124 316,-120 321,-116 326,-112 332,-109 337,-105 343,-102 349,-99 355,-95 361,-92 367,-89 373,-86 379,-83 386,-80 392,-78 399,-75 406,-72 412,-70 419,-67 426,-64 433,-62 440,-59 447,-57 454,-54 461,-51 468,-49 475,-46 483,-44 490,-41 498,-39 505,-36 513,-34 521,-31 529,-29 536,-26 545,-23 552,-21 560,-19 567,-16 576,-13 583,-11 "></polyline>
    <polyline vector-effect="non-scaling-stroke" fill="none" style="stroke: #FBBF24; stroke-width:4" points=" 583,-11 591,-8 599,-6 607,-3 616,-1 624,2 632,5 640,7 648,10 656,13 665,15 673,18 681,21 689,23 698,26 706,29 714,31 723,34 731,37 740,39 748,42 756,45 764,47 773,50 781,53 789,55 797,58 806,61 814,63 823,66 831,69 840,72 848,74 857,77 866,80 874,82 882,85 891,88 900,91 908,95 916,98 925,102 933,106 940,111 948,115 955,121 962,126 969,133 975,139 981,145 987,152 992,159 997,166 1003,174 1007,181 1012,189 1016,197 1019,205 1023,214 1025,223 1028,231 1030,240 1032,249 1034,257 1035,266 1036,275 1037,284 1038,293 1038,303 1038,312 1039,321 1039,331 1039,339 1039,348 1039,357 1039,366 1040,376 1040,386 1040,394 1041,403 1041,413 1041,422 1041,431 1041,440 1041,449 1040,458 1038,468 1036,476 1034,485 1031,493 1027,501 1024,509 1020,515 1016,522 1012,528 1007,534 1002,539 997,544 991,548 986,552 980,555 974,559 968,561 962,563 956,565 950,567 944,567 939,568 933,568 927,568 921,567 916,566 910,564 905,562 900,560 895,558 891,555 887,553 883,550 880,546 876,543 873,539 870,535 867,531 864,526 862,522 860,517 858,512 857,507 856,502 856,497 856,492 856,487 857,481 857,477 858,472 860,466 861,461 863,455 865,450 868,444 871,439 874,433 877,427 881,422 885,417 889,412 893,407 898,402 903,397 908,392 912,387 916,382 921,376 925,371 930,365 934,359 938,353 942,347 946,340 949,334 952,327 956,320 958,313 960,307 962,301 963,296 964,290 965,285 965,280 965,276 965,271 964,267 963,263 962,258 960,255 959,251 956,246 954,243 951,240 948,237 945,235 939,231 936,229 933,228 929,226 925,225 922,224 918,223 915,223 911,223 907,223 903,223 899,224 895,225 891,226 887,227 882,229 878,230 874,232 870,234 866,237 861,239 857,242 852,245 847,247 842,250 837,252 831,254 826,256 821,259 815,260 809,262 802,264 796,266 790,267 784,269 777,270 770,271 764,272 756,273 750,273 743,273 735,273 728,273 721,272 713,272 706,271 698,269 690,268 682,266 675,264 668,261 661,258 654,255 647,252 640,248 633,244 626,239 619,235 612,230 607,226 600,221 593,216 586,211 580,206 573,201 566,197 560,192 552,188 545,184 539,181 532,179 526,177 520,176 514,175 508,174 502,174 496,175 490,175 485,176 480,178 475,179 471,181 467,183 464,185 460,188 457,190 454,194 452,197 449,200 447,203 445,207 443,213 441,217 440,222 440,226 439,231 439,236 438,240 438,245 439,250 439,256 440,260 440,265 441,269 441,274 441,278 440,285 439,289 438,295 435,300 432,304 430,306 426,309 424,310 420,311 416,312 411,312 405,311 400,309 396,307 392,305 387,301 383,298 380,296 376,293 372,290 368,287 364,284 361,282 357,279 353,276 349,273 344,270 340,266 336,263 331,260 326,256 322,253 317,249 311,245 307,242 302,238 297,234 292,231 286,227 281,223 275,219 270,215 264,211 259,207 253,202 246,198 240,193 234,189 228,184 223,180 216,176 211,172 204,167 197,162 191,157 185,153 178,148 172,143 165,139 159,134 152,129 146,125 139,120 133,115 126,111 119,106 112,101 105,96 98,91 91,86 84,81 77,76 70,71 63,66 56,61 49,56 42,51 34,45 27,41 20,36 17,33 15,32 "></polyline>
</svg>