<svg xmlns="http://www.w3.org/2000/svg" xmlns:xlink="http://www.w3.org/1999/xlink" preserveAspectRatio="xMidYMid meet" height="100%" viewBox="-800 -800 1700 1700">
    <polygon vector-effect="non-scaling-stroke" fill="none" style="stroke: #374151; stroke-width:6" points="  -359,364 -353,360 -348,355 -342,351 -337,347 -331,342 -326,338 -320,334 -314,329 -308,324 -302,320 -296,315 -290,310 -284,306 -278,301 -272,296 -265,291 -259,286 -253,281 -246,276 -239,272 -233,266 -227,262 -220,257 -214,252 -207,247 -200,242 -193,237 -187,232 -180,226 -173,221 -167,217 -159,211 -152,206 -145,201 -139,196 -131,190 -125,185 -117,180 -110,174 -103,169 -96,164 -89,159 -82,153 -75,148 -69,143 -63,139 -57,135 -52,131 -48,127 -43,123 -39,120 -35,117 -31,113 -27,111 -24,108 -20,105 -17,102 -13,98 -11,95 -8,92 -6,87 -4,84 -3,79 -3,76 -3,73 -4,70 -5,67 -6,64 -8,61 -11,58 -15,55 -19,52 -23,50 -28,49 -31,47 -35,46 -39,45 -44,43 -46,42 -50,39 -55,37 -57,35 -61,31 -63,29 -67,24 -69,20 -70,16 -72,10 -73,5 -74,-2 -74,-5 -73,-10 -73,-14 -72,-19 -71,-24 -69,-28 -68,-31 -66,-37 -63,-41 -61,-45 -56,-51 -53,-53 -49,-57 -47,-59 -42,-63 -37,-66 -34,-68 -30,-70 -26,-72 -23,-74 -19,-75 -15,-76 -11,-78 -8,-79 -4,-79 1,-80 5,-81 9,-81 13,-81 17,-81 21,-81 25,-81 29,-80 34,-79 39,-78 43,-76 48,-74 53,-70 57,-67 60,-64 63,-60 65,-56 66,-52 68,-49 68,-44 69,-39 69,-35 68,-30 68,-25 68,-21 69,-15 70,-10 71,-4 73,2 74,5 76,9 77,12 80,16 81,19 83,22 88,28 92,32 94,34 97,37 100,39 103,42 108,45 112,47 115,50 119,52 122,54 126,56 129,59 133,62 136,65 140,68 143,71 146,74 150,77 153,81 157,84 161,88 164,92 168,96 172,100 176,105 180,109 183,113 187,118 191,122 195,126 199,131 203,136 207,141 212,146 216,150 221,156 225,161 230,166 234,171 239,177 243,182 248,188 253,193 258,199 263,204 268,210 272,216 277,221 282,227 287,232 292,239 298,245 303,251 308,256 313,262 318,268 323,274 328,280 333,287 338,293 344,299 349,306 354,312 359,318 364,325 369,331 375,338 380,344 385,351 391,357 396,364 401,371 407,377 412,384 417,390 423,397 428,404 433,410 439,417 444,424 450,430 455,437 461,444 466,451 472,458 477,465 483,472 489,478 494,485 500,492 505,499   505,499 511,506 516,513 522,521 528,528 534,536 540,543 545,551 551,558 557,565 563,573 568,580 574,587 579,594 585,601 591,609 597,616 602,622 607,629 612,635 616,640 620,646 624,651 628,656 632,661 635,665 639,670 642,674 644,678 647,681 649,684 652,689 654,692 657,697 659,702 660,706 661,710 661,713 660,717 659,720 658,724 656,728 654,731 652,736 650,739 648,744 647,748 647,752 648,755 648,758 650,762 652,765 654,769 657,772 661,776 665,778 669,780 674,782 679,783 683,784 689,784 694,784 698,784 703,783 708,782 714,779 718,777 723,773 728,769 732,764 734,760 737,755 738,750 739,746 740,742 740,736 740,733 739,727 738,724 736,718 733,714 730,710 728,708 725,704 722,702 719,700 716,698 713,696 709,694 703,690 699,689 695,687 692,685 688,683 685,681 681,679 678,676 674,674 670,671 666,668 663,666 659,662 656,659 652,656 649,652 645,649 642,645 638,641 635,637 631,633 628,629 624,625 621,620 617,615 613,611 610,606 606,601 602,596 598,591 595,587 591,582 587,577 583,571 579,566 575,561 570,555 566,549 562,544 557,538 553,532 548,526 543,520 539,514 535,509 530,503 525,497 521,491 516,485 511,478 507,472 502,466 497,460 492,453 487,447 482,441 477,434 472,427 467,421 462,415 458,408 452,401 447,394 442,388 438,381 433,374 427,367 422,360 418,353 413,346 408,339 403,332 398,325 393,318 388,311 383,304 379,297 374,290 369,283 364,275 359,268 354,261 349,254 344,247 339,240 334,233 330,226 325,219 320,212 315,205 309,197 304,190 299,182 294,175 289,168 284,161 279,154 273,147 269,140 263,133 258,125 253,118 248,111 242,104 237,97 232,89 226,82 221,74 216,67 211,60 205,52 200,44 195,37 190,29 184,21 180,13 175,5 167,-8 163,-16 159,-24 155,-33 151,-41 147,-50 143,-59 140,-67 137,-76 134,-86 132,-94 129,-103 127,-112 125,-121 123,-130 121,-139 120,-148 118,-157 116,-166 115,-176 113,-185 111,-194 110,-204 108,-214 107,-223 105,-233 104,-242 103,-251 102,-261 101,-270 100,-279 99,-289 98,-299 97,-308 96,-318 95,-328 95,-337 94,-347 94,-356 94,-366 94,-375 93,-385 94,-394 94,-404 94,-413 94,-423 95,-433 95,-442 96,-451 96,-461 97,-471 98,-481 99,-490 100,-500 101,-510 102,-519 103,-529 105,-539 106,-547 107,-557 109,-567 110,-576 111,-586 113,-595 115,-605 116,-614 118,-623 119,-630 120,-638 122,-645 123,-651 124,-658 125,-664 127,-669 128,-674 129,-679 130,-683 130,-687 131,-691 133,-697 134,-701 134,-706 135,-709 135,-713 135,-717 135,-721 134,-726 132,-729 130,-732 128,-733 125,-735 123,-735 119,-736 116,-736 111,-734 108,-732 104,-730 101,-728 97,-725 94,-722 91,-719 88,-715 86,-712 83,-709 80,-704 77,-698 75,-694 73,-690 72,-685 70,-680 69,-676 68,-672 67,-668 66,-664 65,-660 64,-656 64,-653 63,-648 62,-644 62,-639 61,-635 61,-631 60,-626 59,-621 59,-616 58,-611 58,-606 57,-601 57,-596 56,-591 56,-585 55,-580 55,-574 55,-569 54,-563 54,-557 53,-551 53,-545 53,-539 52,-533 52,-527 51,-521 51,-515 51,-509 50,-503 50,-496 50,-489 50,-483 50,-476 49,-470 49,-463 49,-456 49,-450 49,-443 49,-436 49,-430 49,-423 50,-416 50,-410 50,-403 51,-396 51,-389 52,-383 53,-375 53,-368   53,-368 54,-361 55,-354 56,-347 57,-340 58,-332 59,-326 60,-320 61,-314 62,-309 63,-304 63,-299 64,-295 65,-290 66,-286 66,-282 67,-278 67,-274 68,-269 68,-263 67,-258 66,-254 65,-250 63,-246 62,-244 60,-242 58,-239 55,-236 52,-233 47,-230 42,-227 38,-226 32,-224 27,-223 20,-222 15,-222 11,-221 6,-221 1,-220 -3,-220 -7,-220 -11,-219 -15,-219 -19,-218 -23,-218 -27,-217 -31,-216 -35,-215 -40,-214 -44,-212 -49,-211 -53,-210 -58,-209 -62,-208 -67,-207 -72,-206 -77,-205 -82,-204 -87,-203 -91,-202 -97,-202 -102,-201 -107,-200 -112,-200 -117,-199 -122,-198 -128,-197 -133,-196 -138,-195 -143,-194 -148,-192 -153,-190 -157,-188 -162,-186 -166,-183 -171,-181 -174,-178 -178,-175 -183,-172 -186,-169 -190,-166 -194,-163 -198,-159 -201,-156 -205,-152 -209,-149 -213,-145 -217,-141 -221,-137 -225,-133 -229,-130 -233,-126 -236,-122 -240,-118 -244,-113 -248,-109 -252,-105 -255,-101 -258,-96 -261,-91 -264,-86 -267,-81 -269,-77 -271,-71 -273,-66 -274,-61 -276,-56 -277,-50 -278,-45 -278,-39 -279,-34 -279,-28 -279,-23 -279,-17 -280,-11 -280,-6 -281,3 -282,9 -283,14 -285,20 -286,25 -289,31 -291,36 -294,41 -296,46 -299,50 -303,54 -306,58 -310,62 -314,66 -318,70 -322,73 -327,76 -331,78 -336,81 -340,83 -345,85 -350,87 -355,89 -361,90 -366,91 -371,92 -376,92 -381,93 -387,94 -392,94 -398,95 -403,96 -408,97 -413,99 -418,101 -423,103 -427,105 -432,108 -436,110 -440,114 -444,117 -447,120 -451,124 -454,127 -457,131 -459,135 -462,140 -464,144 -466,149 -468,153 -470,158 -471,163 -472,168 -473,173 -473,179 -474,184 -474,190 -474,195 -473,200 -473,206 -472,211 -472,216 -472,221 -472,227 -473,232 -473,237 -474,243 -476,248 -477,253 -479,258 -481,263 -483,267 -486,272 -488,276 -491,280 -495,284 -498,287 -502,290 -505,293 -509,296 -514,299 -518,301 -522,304 -526,305 -531,307 -536,309 -541,310 -545,311 -551,312 -555,313 -561,313 -565,314 -571,315 -575,315 -580,316 -585,316 -590,317 -594,317 -598,318 -602,318 -607,319 -612,320 -618,322 -623,324 -627,327 -631,331 -633,334 -636,338 -638,342 -638,346 -639,350 -638,354 -638,357 -636,361 -634,365 -632,368 -629,372 -626,377 -623,380 -621,382 -617,386 -613,390 -609,393 -605,397 -602,399 -598,402 -595,405 -592,407 -589,410 -586,412 -583,415 -580,418 -577,420 -573,423 -570,426 -567,429 -563,432 -559,435 -556,437 -552,440 -548,442 -545,444 -541,446 -537,447 -533,449 -529,450 -526,451 -522,452 -517,452 -513,453 -509,453 -505,453 -501,453 -496,453 -492,453 -488,452 -484,451 -479,450 -475,449 -471,448 -467,446 -463,444 -459,442 -455,440 -452,437 -448,434 -444,432 -440,429 -437,426 -433,422 -429,419 -425,416 -421,413 -417,410 -413,407 -409,403 -404,400 -400,397 -396,393 -392,390 -387,387 -383,383 -379,380 -373,376 -368,372 -363,368 -359,364  "></polygon>
    <polyline vector-effect="non-scaling-stroke" fill="none" style="stroke: #EF4444; stroke-width:4" points=" -359,364 -353,360 -348,355 -342,351 -337,347 -331,342 -326,338 -320,334 -314,329 -308,324 -302,320 -296,315 -290,310 -284,306 -278,301 -272,296 -265,291 -259,286 -253,281 -246,276 -239,272 -233,266 -227,262 -220,257 -214,252 -207,247 -200,242 -193,237 -187,232 -180,226 -173,221 -167,217 -159,211 -152,206 -145,201 -139,196 -131,190 -125,185 -117,180 -110,174 -103,169 -96,164 -89,159 -82,153 -75,148 -69,143 -63,139 -57,135 -52,131 -48,127 -43,123 -39,120 -35,117 -31,113 -27,111 -24,108 -20,105 -17,102 -13,98 -11,95 -8,92 -6,87 -4,84 -3,79 -3,76 -3,73 -4,70 -5,67 -6,64 -8,61 -11,58 -15,55 -19,52 -23,50 -28,49 -31,47 -35,46 -39,45 -44,43 -46,42 -50,39 -55,37 -57,35 -61,31 -63,29 -67,24 -69,20 -70,16 -72,10 -73,5 -74,-2 -74,-5 -73,-10 -73,-14 -72,-19 -71,-24 -69,-28 -68,-31 -66,-37 -63,-41 -61,-45 -56,-51 -53,-53 -49,-57 -47,-59 -42,-63 -37,-66 -34,-68 -30,-70 -26,-72 -23,-74 -19,-75 -15,-76 -11,-78 -8,-79 -4,-79 1,-80 5,-81 9,-81 13,-81 17,-81 21,-81 25,-81 29,-80 34,-79 39,-78 43,-76 48,-74 53,-70 57,-67 60,-64 63,-60 65,-56 66,-52 68,-49 68,-44 69,-39 69,-35 68,-30 68,-25 68,-21 69,-15 70,-10 71,-4 73,2 74,5 76,9 77,12 80,16 81,19 83,22 88,28 92,32 94,34 97,37 100,39 103,42 108,45 112,47 115,50 119,52 122,54 126,56 129,59 133,62 136,65 140,68 143,71 146,74 150,77 153,81 157,84 161,88 164,92 168,96 172,100 176,105 180,109 183,113 187,118 191,122 195,126 199,131 203,136 207,141 212,146 216,150 221,156 225,161 230,166 234,171 239,177 243,182 248,188 253,193 258,199 263,204 268,210 272,216 277,221 282,227 287,232 292,239 298,245 303,251 308,256 313,262 318,268 323,274 328,280 333,287 338,293 344,299 349,306 354,312 359,318 364,325 369,331 375,338 380,344 385,351 391,357 396,364 401,371 407,377 412,384 417,390 423,397 428,404 433,410 439,417 444,424 450,430 455,437 461,444 466,451 472,458 477,465 483,472 489,478 494,485 500,492 505,499 "></polyline>
    <polyline vector-effect="non-scaling-stroke" fill="none" style="stroke: #3B82F6; stroke-width:4" points=" 505,499 511,506 516,513 522,521 528,528 534,536 540,543 545,551 551,558 557,565 563,573 568,580 574,587 579,594 585,601 591,609 597,616 602,622 607,629 612,635 616,640 620,646 624,651 628,656 632,661 635,665 639,670 642,674 644,678 647,681 649,684 652,689 654,692 657,697 659,702 660,706 661,710 661,713 660,717 659,720 658,724 656,728 654,731 652,736 650,739 648,744 647,748 647,752 648,755 648,758 650,762 652,765 654,769 657,772 661,776 665,778 669,780 674,782 679,783 683,784 689,784 694,784 698,784 703,783 708,782 714,779 718,777 723,773 728,769 732,764 734,760 737,755 738,750 739,746 740,742 740,736 740,733 739,727 738,724 736,718 733,714 730,710 728,708 725,704 722,702 719,700 716,698 713,696 709,694 703,690 699,689 695,687 692,685 688,683 685,681 681,679 678,676 674,674 670,671 666,668 663,666 659,662 656,659 652,656 649,652 645,649 642,645 638,641 635,637 631,633 628,629 624,625 621,620 617,615 613,611 610,606 606,601 602,596 598,591 595,587 591,582 587,577 583,571 579,566 575,561 570,555 566,549 562,544 557,538 553,532 548,526 543,520 539,514 535,509 530,503 525,497 521,491 516,485 511,478 507,472 502,466 497,460 492,453 487,447 482,441 477,434 472,427 467,421 462,415 458,408 452,401 447,394 442,388 438,381 433,374 427,367 422,360 418,353 413,346 408,339 403,332 398,325 393,318 388,311 383,304 379,297 374,290 369,283 364,275 359,268 354,261 349,254 344,247 339,240 334,233 330,226 325,219 320,212 315,205 309,197 304,190 299,182 294,175 289,168 284,161 279,154 273,147 269,140 263,133 258,125 253,118 248,111 242,104 237,97 232,89 226,82 221,74 216,67 211,60 205,52 200,44 195,37 190,29 184,21 180,13 175,5 167,-8 163,-16 159,-24 155,-33 151,-41 147,-50 143,-59 140,-67 137,-76 134,-86 132,-94 129,-103 127,-112 125,-121 123,-130 121,-139 120,-148 118,-157 116,-166 115,-176 113,-185 111,-194 110,-204 108,-214 107,-223 105,-233 104,-242 103,-251 102,-261 101,-270 100,-279 99,-289 98,-299 97,-308 96,-318 95,-328 95,-337 94,-347 94,-356 94,-366 94,-375 93,-385 94,-394 94,-404 94,-413 94,-423 95,-433 95,-442 96,-451 96,-461 97,-471 98,-481 99,-490 100,-500 101,-510 102,-519 103,-529 105,-539 106,-547 107,-557 109,-567 110,-576 111,-586 113,-595 115,-605 116,-614 118,-623 119,-630 120,-638 122,-645 123,-651 124,-658 125,-664 127,-669 128,-674 129,-679 130,-683 130,-687 131,-691 133,-697 134,-701 134,-706 135,-709 135,-713 135,-717 135,-721 134,-726 132,-729 130,-732 128,-733 125,-735 123,-735 119,-736 116,-736 111,-734 108,-732 104,-730 101,-728 97,-725 94,-722 91,-719 88,-715 86,-712 83,-709 80,-704 77,-698 75,-694 73,-690 72,-685 70,-680 69,-676 68,-672 67,-668 66,-664 65,-660 64,-656 64,-653 63,-648 62,-644 62,-639 61,-635 61,-631 60,-626 59,-621 59,-616 58,-611 58,-606 57,-601 57,-596 56,-591 56,-585 55,-580 55,-574 55,-569 54,-563 54,-557 53,-551 53,-545 53,-539 52,-533 52,-527 51,-521 51,-515 51,-509 50,-503 50,-496 50,-489 50,-483 50,-476 49,-470 49,-463 49,-456 49,-450 49,-443 49,-436 49,-430 49,-423 50,-416 50,-410 50,-403 51,-396 51,-389 52,-383 53,-375 53,-368 "></polyline>
    <polyline vector-effect="non-scaling-stroke" fill="none" style="stroke: #FBBF24; stroke-width:4" points=" 53,-368 54,-361 55,-354 56,-347 57,-340 58,-332 59,-326 60,-320 61,-314 62,-309 63,-304 63,-299 64,-295 65,-290 66,-286 66,-282 67,-278 67,-274 68,-269 68,-263 67,-258 66,-254 65,-250 63,-246 62,-244 60,-242 58,-239 55,-236 52,-233 47,-230 42,-227 38,-226 32,-224 27,-223 20,-222 15,-222 11,-221 6,-221 1,-220 -3,-220 -7,-220 -11,-219 -15,-219 -19,-218 -23,-218 -27,-217 -31,-216 -35,-215 -40,-214 -44,-212 -49,-211 -53,-210 -58,-209 -62,-208 -67,-207 -72,-206 -77,-205 -82,-204 -87,-203 -91,-202 -97,-202 -102,-201 -107,-200 -112,-200 -117,-199 -122,-198 -128,-197 -133,-196 -138,-195 -143,-194 -148,-192 -153,-190 -157,-188 -162,-186 -166,-183 -171,-181 -174,-178 -178,-175 -183,-172 -186,-169 -190,-166 -194,-163 -198,-159 -201,-156 -205,-152 -209,-149 -213,-145 -217,-141 -221,-137 -225,-133 -229,-130 -233,-126 -236,-122 -240,-118 -244,-113 -248,-109 -252,-105 -255,-101 -258,-96 -261,-91 -264,-86 -267,-81 -269,-77 -271,-71 -273,-66 -274,-61 -276,-56 -277,-50 -278,-45 -278,-39 -279,-34 -279,-28 -279,-23 -279,-17 -280,-11 -280,-6 -281,3 -282,9 -283,14 -285,20 -286,25 -289,31 -291,36 -294,41 -296,46 -299,50 -303,54 -306,58 -310,62 -314,66 -318,70 -322,73 -327,76 -331,78 -336,81 -340,83 -345,85 -350,87 -355,89 -361,90 -366,91 -371,92 -376,92 -381,93 -387,94 -392,94 -398,95 -403,96 -408,97 -413,99 -418,101 -423,103 -427,105 -432,108 -436,110 -440,114 -444,117 -447,120 -451,124 -454,127 -457,131 -459,135 -462,140 -464,144 -466,149 -468,153 -470,158 -471,163 -472,168 -473,173 -473,179 -474,184 -474,190 -474,195 -473,200 -473,206 -472,211 -472,216 -472,221 -472,227 -473,232 -473,237 -474,243 -476,248 -477,253 -479,258 -481,263 -483,267 -486,272 -488,276 -491,280 -495,284 -498,287 -502,290 -505,293 -509,296 -514,299 -518,301 -522,304 -526,305 -531,307 -536,309 -541,310 -545,311 -551,312 -555,313 -561,313 -565,314 -571,315 -575,315 -580,316 -585,316 -590,317 -594,317 -598,318 -602,318 -607,319 -612,320 -618,322 -623,324 -627,327 -631,331 -633,334 -636,338 -638,342 -638,346 -639,350 -638,354 -638,357 -636,361 -634,365 -632,368 -629,372 -626,377 -623,380 -621,382 -617,386 -613,390 -609,393 -605,397 -602,399 -598,402 -595,405 -592,407 -589,410 -586,412 -583,415 -580,418 -577,420 -573,423 -570,426 -567,429 -563,432 -559,435 -556,437 -552,440 -548,442 -545,444 -541,446 -537,447 -533,449 -529,450 -526,451 -522,452 -517,452 -513,453 -509,453 -505,453 -501,453 -496,453 -492,453 -488,452 -484,451 -479,450 -475,449 -471,448 -467,446 -463,444 -459,442 -455,440 -452,437 -448,434 -444,432 -440,429 -437,426 -433,422 -429,419 -425,416 -421,413 -417,410 -413,407 -409,403 -404,400 -400,397 -396,393 -392,390 -387,387 -383,383 -379,380 -373,376 -368,372 -363,368 -359,364 "></polyline>
</svg>