<svg xmlns="http://www.w3.org/2000/svg" xmlns:xlink="http://www.w3.org/1999/xlink" preserveAspectRatio="xMidYMid meet" height="100%" viewBox="-650 -650 1150 1300">
    <polygon vector-effect="non-scaling-stroke" fill="none" style="stroke: #374151; stroke-width:6" points="  -144,454 -150,450 -156,444 -162,440 -168,435 -174,429 -180,425 -187,419 -193,414 -199,409 -205,404 -212,398 -219,393 -225,388 -232,382 -238,377 -245,371 -251,366 -257,361 -264,356 -270,351 -277,345 -283,340 -290,334 -297,328 -304,322 -311,317 -317,311 -324,306 -331,300 -338,294 -344,289 -351,283 -358,278 -365,272 -372,266 -379,261 -386,255 -393,249 -400,244 -406,238 -413,233 -421,227 -427,221 -434,215 -441,210 -448,204 -455,198 -463,192 -469,186 -477,180 -484,175 -490,169 -497,164 -504,158 -511,152 -518,147 -525,141 -531,136 -536,131 -542,127 -547,123 -551,119 -556,115 -560,112 -564,108 -568,105 -572,102 -575,100 -578,97 -581,95 -584,92 -588,89 -591,85 -594,82 -598,76 -599,73 -601,68 -602,64 -602,59 -602,56 -601,52 -599,48 -597,44 -595,41 -593,38 -591,36 -587,33 -583,30 -578,28 -572,26 -566,24 -561,23 -557,23 -552,23 -547,23 -543,23 -537,24 -533,24 -529,25 -525,25 -521,26 -517,27 -512,28 -508,29 -503,30 -498,31 -493,32 -488,34 -483,36 -478,37 -473,39 -467,41 -462,43 -456,46 -450,48 -445,51 -439,54 -434,57 -428,60 -423,63 -417,67 -412,70 -406,74 -400,78 -395,82 -389,86 -384,90 -378,94 -373,99 -367,104 -361,108 -355,113 -350,118 -344,123 -338,128 -332,133 -326,139 -320,144 -314,149 -309,154 -303,160 -297,165 -291,170 -284,175 -279,180 -272,186 -267,190 -262,194 -257,198 -253,202 -248,205 -244,208 -240,211 -236,214 -232,216 -228,218 -224,220 -220,222 -217,223 -213,224 -209,225 -205,225 -201,226 -196,225 -192,225 -189,225 -185,224 -182,223 -177,221 -172,219 -169,217 -166,214 -163,211 -160,208 -157,203 -155,201 -153,196 -152,193 -151,188 -150,184 -150,181 -149,177 -149,173 -150,170 -151,164 -152,158 -153,154 -155,150 -157,147 -158,143 -160,139 -163,136 -165,132 -167,128 -170,124 -173,120 -175,116 -178,112 -181,108 -183,104 -185,99 -187,95 -189,90 -191,85 -193,80 -194,75 -195,69 -196,64 -197,59 -197,53 -198,47 -198,42 -198,36 -197,31 -196,25 -195,19 -194,13 -192,8 -190,2 -188,-5 -186,-10 -183,-16 -180,-22 -177,-28 -174,-34 -171,-40 -168,-46 -164,-52 -161,-58 -158,-64 -154,-71 -151,-77 -147,-84 -144,-90 -140,-96 -137,-103 -133,-109 -130,-116 -126,-123 -122,-130 -119,-136 -115,-143 -111,-150 -107,-157 -104,-164 -100,-171 -96,-178 -92,-185 -88,-192 -85,-198 -81,-205 -77,-212 -73,-220 -69,-227 -64,-234 -60,-241 -56,-248 -51,-255 -47,-262 -42,-269 -38,-276   -38,-276 -33,-283 -28,-290 -24,-296 -19,-302 -15,-307 -11,-313 -7,-318 -3,-324 1,-329 5,-334 8,-339 11,-344 14,-348 17,-353 19,-358 21,-362 23,-367 24,-372 26,-377 26,-382 27,-386 27,-391 27,-396 27,-401 27,-406 26,-410 25,-416 24,-421 23,-426 22,-431 21,-437 19,-442 17,-447 16,-452 14,-458 12,-464 10,-469 8,-475 6,-481 4,-487 2,-493 -1,-502 -3,-508 -4,-514 -6,-520 -7,-526 -8,-532 -9,-538 -10,-544 -10,-549 -10,-554 -10,-559 -9,-564 -8,-569 -7,-574 -6,-578 -4,-582 -2,-586 2,-591 4,-595 7,-598 10,-601 14,-603 17,-606 21,-608 24,-609 28,-611 32,-612 36,-613 41,-614 45,-615 49,-615 54,-615 58,-614 62,-613 66,-612 71,-611 75,-610 79,-608 84,-606 88,-604 92,-602 97,-600 101,-597 105,-594 110,-591 114,-588 118,-585 123,-581 127,-578 131,-574 135,-570 139,-567 144,-563 148,-558 152,-554 156,-550 161,-545 165,-541 169,-536 174,-532 178,-527 183,-523 187,-517 192,-513 196,-508 201,-502 205,-498 209,-493 214,-489 217,-484 221,-481 224,-477 227,-474 230,-470 233,-467 236,-463 238,-461 241,-456 245,-451 247,-446 248,-442 249,-437 250,-432 250,-428 249,-423 247,-417 245,-412 243,-408 241,-404 239,-398 238,-396 237,-392 236,-387 235,-384 235,-379 235,-373 235,-368 235,-364 236,-360 236,-357 237,-352 238,-349 239,-345 240,-341 241,-337 242,-332 243,-328 244,-324 245,-320 247,-315 248,-311 249,-306 250,-302 251,-297 252,-293 253,-288 255,-283 256,-278 257,-273 259,-268 260,-264 262,-259 264,-255 267,-251 269,-247 272,-243 275,-240 278,-237 281,-233 285,-231 288,-228 292,-226 296,-224 300,-222 304,-220 308,-219 312,-218 317,-217 321,-216 325,-216 332,-216 336,-215 341,-215 345,-215 350,-214 354,-214 358,-213 363,-212 367,-210 372,-208 376,-206 380,-204 384,-202 388,-199 392,-196 395,-193 398,-189 401,-186 403,-182 406,-178 408,-174 409,-170 411,-165 412,-161 413,-156 414,-152 414,-147 414,-142 414,-137 414,-132 413,-127 412,-123 411,-118 410,-113 409,-108 407,-103 406,-98 405,-92 403,-87 402,-82 400,-77 399,-71 398,-66 396,-60 395,-54 394,-49 393,-43 393,-37 392,-31 392,-25 392,-20 392,-14 393,-8 393,-2 394,4 395,10 397,15 398,21 400,26 402,32 404,37 407,42 410,48 413,53 415,57 419,62 422,67 425,72 429,77 432,81 435,86 438,91 442,96 445,101 448,106 451,111 453,116 456,122 458,127 459,133 461,138 462,144 462,149 463,155 463,161 463,167 463,173 462,178 461,184 460,189 458,195 456,200 454,206 451,211 448,216 445,221 442,225 438,229 434,234 430,239 426,243 422,247 418,251 414,255 409,260 405,264 400,269 396,274 391,279   391,279 387,283 382,288 378,293 373,298 368,303 363,308 358,313 353,319 348,324 343,329 338,335 333,340 328,345 323,350 318,356 313,362 308,367 302,373 297,380 292,385 286,391 281,397 276,403 270,409 265,415 261,420 256,425 251,430 248,434 244,438 240,441 237,445 234,448 231,452 228,454 224,458 221,461 218,464 212,467 208,469 203,471 199,472 194,472 191,472 187,472 184,471 179,470 174,469 170,466 165,464 161,461 157,458 153,454 149,450 147,447 144,444 142,440 139,437 137,434 134,430 132,426 129,422 127,418 124,414 121,410 118,406 115,402 112,397 109,394 105,390 102,386 98,381 94,378 90,373 87,370 83,366 79,362 74,359 70,355 66,352 63,349 59,347 55,344 51,342 47,340 43,338 38,336 35,335 31,334 26,333 21,332 15,333 11,333 5,335 -1,338 -5,341 -8,344 -11,348 -14,353 -16,357 -17,362 -18,368 -18,372 -18,377 -17,382 -16,386 -14,391 -12,396 -9,400 -7,403 -4,407 -1,411 4,415 8,419 11,422 14,424 17,426 20,429 24,431 27,434 31,436 34,439 38,441 42,444 46,446 49,449 53,452 57,454 61,457 65,460 69,463 73,466 77,469 81,473 85,476 89,479 92,483 95,486 98,489 101,492 104,495 106,499 108,502 110,505 111,509 113,514 114,520 115,526 115,530 115,533 114,537 114,541 113,545 112,549 110,552 108,556 106,560 104,563 102,566 99,569 97,571 94,574 91,576 87,578 84,580 80,582 77,583 73,584 69,586 65,586 61,587 56,587 52,588 48,588 43,587 39,587 34,586 30,585 25,584 21,582 16,580 11,578 7,576 3,574 -2,571 -6,568 -10,565 -14,562 -18,559 -22,556 -26,552 -30,549 -34,545 -38,542 -43,538 -47,535 -51,531 -56,527 -61,524 -65,520 -70,516 -75,512 -79,508 -84,504 -89,500 -93,496 -98,492 -103,488 -108,484 -113,480 -118,476 -122,472 -127,468 -132,464 -137,460 -143,455 -144,454  "></polygon>
    <polyline vector-effect="non-scaling-stroke" fill="none" style="stroke: #EF4444; stroke-width:4" points=" -144,454 -150,450 -156,444 -162,440 -168,435 -174,429 -180,425 -187,419 -193,414 -199,409 -205,404 -212,398 -219,393 -225,388 -232,382 -238,377 -245,371 -251,366 -257,361 -264,356 -270,351 -277,345 -283,340 -290,334 -297,328 -304,322 -311,317 -317,311 -324,306 -331,300 -338,294 -344,289 -351,283 -358,278 -365,272 -372,266 -379,261 -386,255 -393,249 -400,244 -406,238 -413,233 -421,227 -427,221 -434,215 -441,210 -448,204 -455,198 -463,192 -469,186 -477,180 -484,175 -490,169 -497,164 -504,158 -511,152 -518,147 -525,141 -531,136 -536,131 -542,127 -547,123 -551,119 -556,115 -560,112 -564,108 -568,105 -572,102 -575,100 -578,97 -581,95 -584,92 -588,89 -591,85 -594,82 -598,76 -599,73 -601,68 -602,64 -602,59 -602,56 -601,52 -599,48 -597,44 -595,41 -593,38 -591,36 -587,33 -583,30 -578,28 -572,26 -566,24 -561,23 -557,23 -552,23 -547,23 -543,23 -537,24 -533,24 -529,25 -525,25 -521,26 -517,27 -512,28 -508,29 -503,30 -498,31 -493,32 -488,34 -483,36 -478,37 -473,39 -467,41 -462,43 -456,46 -450,48 -445,51 -439,54 -434,57 -428,60 -423,63 -417,67 -412,70 -406,74 -400,78 -395,82 -389,86 -384,90 -378,94 -373,99 -367,104 -361,108 -355,113 -350,118 -344,123 -338,128 -332,133 -326,139 -320,144 -314,149 -309,154 -303,160 -297,165 -291,170 -284,175 -279,180 -272,186 -267,190 -262,194 -257,198 -253,202 -248,205 -244,208 -240,211 -236,214 -232,216 -228,218 -224,220 -220,222 -217,223 -213,224 -209,225 -205,225 -201,226 -196,225 -192,225 -189,225 -185,224 -182,223 -177,221 -172,219 -169,217 -166,214 -163,211 -160,208 -157,203 -155,201 -153,196 -152,193 -151,188 -150,184 -150,181 -149,177 -149,173 -150,170 -151,164 -152,158 -153,154 -155,150 -157,147 -158,143 -160,139 -163,136 -165,132 -167,128 -170,124 -173,120 -175,116 -178,112 -181,108 -183,104 -185,99 -187,95 -189,90 -191,85 -193,80 -194,75 -195,69 -196,64 -197,59 -197,53 -198,47 -198,42 -198,36 -197,31 -196,25 -195,19 -194,13 -192,8 -190,2 -188,-5 -186,-10 -183,-16 -180,-22 -177,-28 -174,-34 -171,-40 -168,-46 -164,-52 -161,-58 -158,-64 -154,-71 -151,-77 -147,-84 -144,-90 -140,-96 -137,-103 -133,-109 -130,-116 -126,-123 -122,-130 -119,-136 -115,-143 -111,-150 -107,-157 -104,-164 -100,-171 -96,-178 -92,-185 -88,-192 -85,-198 -81,-205 -77,-212 -73,-220 -69,-227 -64,-234 -60,-241 -56,-248 -51,-255 -47,-262 -42,-269 -38,-276 "></polyline>
    <polyline vector-effect="non-scaling-stroke" fill="none" style="stroke: #3B82F6; stroke-width:4" points=" -38,-276 -33,-283 -28,-290 -24,-296 -19,-302 -15,-307 -11,-313 -7,-318 -3,-324 1,-329 5,-334 8,-339 11,-344 14,-348 17,-353 19,-358 21,-362 23,-367 24,-372 26,-377 26,-382 27,-386 27,-391 27,-396 27,-401 27,-406 26,-410 25,-416 24,-421 23,-426 22,-431 21,-437 19,-442 17,-447 16,-452 14,-458 12,-464 10,-469 8,-475 6,-481 4,-487 2,-493 -1,-502 -3,-508 -4,-514 -6,-520 -7,-526 -8,-532 -9,-538 -10,-544 -10,-549 -10,-554 -10,-559 -9,-564 -8,-569 -7,-574 -6,-578 -4,-582 -2,-586 2,-591 4,-595 7,-598 10,-601 14,-603 17,-606 21,-608 24,-609 28,-611 32,-612 36,-613 41,-614 45,-615 49,-615 54,-615 58,-614 62,-613 66,-612 71,-611 75,-610 79,-608 84,-606 88,-604 92,-602 97,-600 101,-597 105,-594 110,-591 114,-588 118,-585 123,-581 127,-578 131,-574 135,-570 139,-567 144,-563 148,-558 152,-554 156,-550 161,-545 165,-541 169,-536 174,-532 178,-527 183,-523 187,-517 192,-513 196,-508 201,-502 205,-498 209,-493 214,-489 217,-484 221,-481 224,-477 227,-474 230,-470 233,-467 236,-463 238,-461 241,-456 245,-451 247,-446 248,-442 249,-437 250,-432 250,-428 249,-423 247,-417 245,-412 243,-408 241,-404 239,-398 238,-396 237,-392 236,-387 235,-384 235,-379 235,-373 235,-368 235,-364 236,-360 236,-357 237,-352 238,-349 239,-345 240,-341 241,-337 242,-332 243,-328 244,-324 245,-320 247,-315 248,-311 249,-306 250,-302 251,-297 252,-293 253,-288 255,-283 256,-278 257,-273 259,-268 260,-264 262,-259 264,-255 267,-251 269,-247 272,-243 275,-240 278,-237 281,-233 285,-231 288,-228 292,-226 296,-224 300,-222 304,-220 308,-219 312,-218 317,-217 321,-216 325,-216 332,-216 336,-215 341,-215 345,-215 350,-214 354,-214 358,-213 363,-212 367,-210 372,-208 376,-206 380,-204 384,-202 388,-199 392,-196 395,-193 398,-189 401,-186 403,-182 406,-178 408,-174 409,-170 411,-165 412,-161 413,-156 414,-152 414,-147 414,-142 414,-137 414,-132 413,-127 412,-123 411,-118 410,-113 409,-108 407,-103 406,-98 405,-92 403,-87 402,-82 400,-77 399,-71 398,-66 396,-60 395,-54 394,-49 393,-43 393,-37 392,-31 392,-25 392,-20 392,-14 393,-8 393,-2 394,4 395,10 397,15 398,21 400,26 402,32 404,37 407,42 410,48 413,53 415,57 419,62 422,67 425,72 429,77 432,81 435,86 438,91 442,96 445,101 448,106 451,111 453,116 456,122 458,127 459,133 461,138 462,144 462,149 463,155 463,161 463,167 463,173 462,178 461,184 460,189 458,195 456,200 454,206 451,211 448,216 445,221 442,225 438,229 434,234 430,239 426,243 422,247 418,251 414,255 409,260 405,264 400,269 396,274 391,279 "></polyline>
    <polyline vector-effect="non-scaling-stroke" fill="none" style="stroke: #FBBF24; stroke-width:4" points=" 391,279 387,283 382,288 378,293 373,298 368,303 363,308 358,313 353,319 348,324 343,329 338,335 333,340 328,345 323,350 318,356 313,362 308,367 302,373 297,380 292,385 286,391 281,397 276,403 270,409 265,415 261,420 256,425 251,430 248,434 244,438 240,441 237,445 234,448 231,452 228,454 224,458 221,461 218,464 212,467 208,469 203,471 199,472 194,472 191,472 187,472 184,471 179,470 174,469 170,466 165,464 161,461 157,458 153,454 149,450 147,447 144,444 142,440 139,437 137,434 134,430 132,426 129,422 127,418 124,414 121,410 118,406 115,402 112,397 109,394 105,390 102,386 98,381 94,378 90,373 87,370 83,366 79,362 74,359 70,355 66,352 63,349 59,347 55,344 51,342 47,340 43,338 38,336 35,335 31,334 26,333 21,332 15,333 11,333 5,335 -1,338 -5,341 -8,344 -11,348 -14,353 -16,357 -17,362 -18,368 -18,372 -18,377 -17,382 -16,386 -14,391 -12,396 -9,400 -7,403 -4,407 -1,411 4,415 8,419 11,422 14,424 17,426 20,429 24,431 27,434 31,436 34,439 38,441 42,444 46,446 49,449 53,452 57,454 61,457 65,460 69,463 73,466 77,469 81,473 85,476 89,479 92,483 95,486 98,489 101,492 104,495 106,499 108,502 110,505 111,509 113,514 114,520 115,526 115,530 115,533 114,537 114,541 113,545 112,549 110,552 108,556 106,560 104,563 102,566 99,569 97,571 94,574 91,576 87,578 84,580 80,582 77,583 73,584 69,586 65,586 61,587 56,587 52,588 48,588 43,587 39,587 34,586 30,585 25,584 21,582 16,580 11,578 7,576 3,574 -2,571 -6,568 -10,565 -14,562 -18,559 -22,556 -26,552 -30,549 -34,545 -38,542 -43,538 -47,535 -51,531 -56,527 -61,524 -65,520 -70,516 -75,512 -79,508 -84,504 -89,500 -93,496 -98,492 -103,488 -108,484 -113,480 -118,476 -122,472 -127,468 -132,464 -137,460 -143,455 -144,454 "></polyline>
</svg>