<svg xmlns="http://www.w3.org/2000/svg" xmlns:xlink="http://www.w3.org/1999/xlink" preserveAspectRatio="xMidYMid meet" height="100%" viewBox="-626 -632 1108 1242"><polygon vector-effect="non-scaling-stroke" fill="none" points="-141.3,451.2 -141.8,450.8 -142.5,450.2 -143.6,449.3 -144.6,448.4 -145.4,447.7 -146.3,447.1 -146.9,446.5 -147.8,445.7 -148.8,444.9 -149.8,444.2 -150.6,443.4 -151.3,442.9 -151.7,442.6 -152.4,442 -153.4,441.1 -154.5,440.3 -155.8,439.2 -157.5,437.7 -158.9,436.5 -160,435.6 -161.2,434.5 -162.1,433.6 -163,432.9 -163.9,432.2 -164.8,431.4 -165.6,430.7 -166.6,430 -167.6,429.2 -168.6,428.4 -169.9,427.4 -171.1,426.4 -172.3,425.3 -173.2,424.4 -174.2,423.5 -175.3,422.5 -176.5,421.5 -177.6,420.6 -178.6,419.9 -179.6,419.1 -180.3,418.5 -181.4,417.6 -182.5,416.7 -183.7,415.7 -184.9,414.7 -185.9,413.8 -187,412.9 -188.1,412 -189.1,411.2 -190.4,410.2 -191.8,409.2 -192.7,408.5 -193.6,407.8 -194.9,406.8 -195.8,406 -196.7,405.3 -197.6,404.6 -198.5,403.9 -199.3,403.1 -200.1,402.4 -201.3,401.3 -202.9,399.9 -204.5,398.6 -206.3,397.2 -208.1,395.8 -209.5,394.7 -210.5,393.9 -211.8,392.8 -212.6,392.1 -213.9,391 -215.3,389.8 -216.7,388.6 -218.4,387.2 -220,385.8 -221.2,384.8 -222.3,383.9 -223.6,382.9 -224.4,382.1 -225.7,381.1 -226.9,380.1 -228.3,379 -229.9,377.7 -231.4,376.6 -232.5,375.7 -233.8,374.6 -235.1,373.4 -236.3,372.3 -237.6,371.2 -239,370.1 -240.7,368.8 -242.2,367.7 -243.4,366.8 -244.8,365.6 -246.3,364.3 -247.7,363.1 -249.1,361.9 -250.6,360.7 -252.4,359.3 -254,358 -255.3,356.9 -256.6,355.9 -258.4,354.4 -259.6,353.4 -261.1,352.1 -262.7,350.8 -264.7,349.1 -266.2,347.9 -268.2,346.3 -269.9,345 -271.5,343.7 -273.1,342.4 -274.6,341.1 -276.1,339.8 -277.7,338.5 -279.7,336.9 -281.3,335.6 -282.9,334.3 -284.5,333 -286.5,331.3 -288,330 -290,328.4 -292.1,326.7 -294,325.1 -295.6,323.8 -297.6,322.2 -299.2,320.8 -301.7,318.7 -304.5,316.4 -307.2,314.2 -310,311.9 -313.2,309.3 -315.5,307.5 -317.6,305.8 -320.1,303.7 -322.2,302 -324.3,300.2 -326.4,298.4 -328.7,296.6 -330.5,295.2 -332.7,293.4 -334.8,291.8 -336.9,290.1 -338.8,288.5 -341.2,286.5 -343.2,284.8 -345.3,283.1 -347.4,281.4 -349.4,279.7 -351.5,278 -353.9,276.1 -355.9,274.5 -358.3,272.6 -360.5,270.9 -363.1,268.8 -365.4,266.9 -368.1,264.7 -370.5,262.7 -373.2,260.4 -375.5,258.6 -377.7,256.8 -380.1,254.8 -382.4,252.9 -384.6,251.1 -386.9,249.2 -389.5,247.2 -391.5,245.6 -393.4,244.1 -395.4,242.5 -397.3,240.9 -399,239.4 -401.3,237.5 -403.7,235.5 -406.1,233.5 -408.2,231.7 -410.6,229.7 -412.4,228.1 -414.5,226.2 -416.8,224.4 -418.9,222.7 -420.7,221.2 -422.7,219.5 -424.9,217.7 -426.7,216.1 -428.8,214.2 -431.2,212.1 -433.4,210.3 -435.6,208.5 -437.7,206.8 -439.5,205.4 -441.7,203.7 -443.9,201.9 -445.5,200.6 -447.4,198.9 -449.6,196.9 -451.5,195.2 -453.5,193.4 -456.1,191.2 -458.4,189.3 -460.5,187.7 -462.7,185.9 -464.8,184.3 -466.8,182.7 -468.8,181.2 -471.1,179.3 -473.2,177.6 -475.3,175.9 -477.3,174.2 -479.7,172.1 -481.6,170.5 -483.2,169.1 -484.9,167.6 -486.9,165.9 -488.5,164.5 -490.6,162.8 -492.9,160.9 -495.6,158.6 -498.1,156.6 -500.6,154.6 -503.2,152.4 -505.5,150.5 -507.3,149 -508.9,147.6 -510.7,146 -512.1,144.8 -514,143.1 -516,141.4 -518.2,139.5 -520.2,137.8 -522.3,136 -524.4,134.3 -526.4,132.7 -528.2,131.2 -530.4,129.4 -532.4,127.8 -534.2,126.3 -536.4,124.5 -538.4,122.9 -540.3,121.4 -542.2,119.8 -544.3,118.2 -546,116.8 -547.6,115.5 -549.1,114.2 -550.8,112.8 -552.6,111.2 -554.5,109.6 -556.6,107.9 -558.4,106.5 -560.2,105.1 -561.5,104 -562.9,102.8 -564.1,101.8 -565.7,100.4 -567.1,99.2 -568.5,98.1 -570,96.9 -571.5,95.6 -572.6,94.7 -573.6,93.8 -574.9,92.7 -575.8,92 -576.7,91.3 -577.6,90.6 -578.7,89.7 -579.7,88.9 -580.7,88.1 -581.7,87.3 -582.7,86.5 -583.6,85.9 -584.1,85.5 -584.7,84.9 -585.4,84.3 -586,83.7 -586.9,82.9 -587.9,82.1 -588.8,81.4 -589.6,80.8 -590.4,80.2 -590.9,79.8 -591.5,79.3 -592.4,78.5 -593.4,77.5 -594.7,76.2 -596,74.9 -597.1,73.7 -598,72.7 -598.9,71.7 -599.7,70.7 -600.4,69.7 -601.3,68.6 -602,67.6 -602.5,66.7 -603,66 -603.4,65.3 -603.7,64.3 -604.1,63.3 -604.5,62.2 -604.8,61.2 -605.1,60.2 -605.3,59.5 -605.4,58.7 -605.6,57.7 -605.7,56.2 -605.8,54.6 -605.8,53 -605.8,51.5 -605.7,50.3 -605.6,49.6 -605.4,48.9 -605.3,48.3 -605.1,47.4 -604.9,46.5 -604.6,45.7 -604.4,45 -604.2,44.3 -603.9,43.7 -603.6,43.1 -603.3,42.5 -602.9,41.7 -602.4,40.9 -602.1,40.3 -601.6,39.6 -601.2,38.8 -600.8,38.3 -599.9,37.3 -598.8,36.3 -597.7,35.3 -596.6,34.3 -595.4,33.2 -594.7,32.7 -594,32.1 -593.4,31.7 -592.5,31.2 -591.7,30.8 -590.9,30.4 -589.9,30 -588.7,29.5 -587.7,29.1 -586.6,28.7 -585.5,28.3 -584.7,28.1 -584.1,27.9 -583,27.7 -582,27.5 -581,27.3 -580,27.1 -578.8,27 -578,27 -577.1,27 -576.1,27 -575,27 -574,27 -573,27 -572,27 -571,27 -570,27 -569,27 -568,27 -567,27 -566,27 -565,27 -564,27 -562.8,27 -561.6,27 -560.4,27.1 -559.2,27.2 -558.1,27.3 -557.1,27.4 -556.1,27.5 -555.2,27.5 -554.4,27.5 -553.6,27.5 -553,27.5 -552,27.6 -550.9,27.7 -549.6,27.8 -548.1,28 -546.5,28.2 -545.3,28.3 -544,28.4 -542.7,28.5 -541.5,28.5 -540.3,28.5 -539.2,28.5 -538.1,28.5 -537.1,28.6 -536.2,28.7 -535.4,28.8 -534.1,29 -532.7,29.2 -531.3,29.3 -529.7,29.4 -527.9,29.6 -526.5,29.7 -525.1,29.8 -523.8,29.9 -522.7,30 -521.8,30 -520.4,30.1 -519.3,30.3 -517.8,30.5 -516.3,30.7 -514.7,30.9 -513.7,31 -512.2,31.1 -511.1,31.3 -509.6,31.5 -508.1,31.7 -506.6,31.9 -505,32.2 -503.3,32.4 -501.9,32.6 -500.6,32.8 -498.7,33.2 -497.4,33.4 -496.2,33.6 -495.1,33.8 -493.4,34.2 -492.3,34.4 -491.1,34.7 -489.5,35.1 -487.9,35.5 -486.3,35.9 -484.7,36.3 -483.2,36.6 -482,36.9 -480.4,37.3 -479.3,37.6 -477.8,38 -476.3,38.5 -474.5,39 -473.1,39.5 -471.8,39.9 -470.6,40.3 -469.1,40.8 -467.9,41.3 -466.2,41.8 -464.5,42.4 -463,42.9 -461.8,43.3 -460.2,43.8 -459,44.3 -457.8,44.8 -456.1,45.5 -454.4,46.2 -453.1,46.8 -451.9,47.3 -450.2,48 -449,48.5 -447.5,49.1 -446.1,49.7 -444.7,50.3 -443.3,50.9 -441.9,51.5 -440.8,52 -439.7,52.5 -438.2,53.2 -436.9,53.8 -435.5,54.6 -433.8,55.5 -432,56.3 -430.7,57 -429.4,57.6 -428.3,58.1 -427.5,58.5 -426.4,59.2 -425,59.9 -423.6,60.7 -422.2,61.5 -420.8,62.2 -419.5,62.9 -418.4,63.5 -417.4,64.1 -416.3,64.7 -414.9,65.6 -413.8,66.3 -412.5,67.1 -411.4,67.8 -410.4,68.5 -409.3,69.1 -408,69.8 -406.9,70.5 -405.8,71.2 -404.5,72 -403.6,72.6 -402.5,73.4 -401.4,74.2 -400.3,74.9 -399.1,75.7 -397.7,76.7 -396.7,77.4 -395.7,78.1 -394.7,78.9 -393.9,79.5 -392.8,80.4 -391.7,81.3 -390.3,82.3 -388.9,83.3 -387.6,84.3 -386.8,84.9 -385.4,85.9 -384.4,86.8 -383.4,87.6 -382.3,88.5 -381.1,89.5 -380.3,90.3 -379.1,91.2 -377.9,92.2 -376.8,93.1 -375.8,93.9 -374.4,94.9 -373.3,95.8 -372.2,96.7 -371.1,97.6 -369.9,98.6 -369.1,99.4 -368,100.4 -366.9,101.4 -365.8,102.3 -364.8,103.1 -363.4,104.2 -362.3,105 -361.2,105.8 -360.1,106.7 -358.9,107.8 -358.1,108.5 -357,109.5 -355.8,110.5 -354.6,111.5 -353.5,112.3 -352.3,113.3 -351.4,114.1 -350.5,115 -349.4,116.1 -348,117.4 -346.6,118.5 -345.2,119.6 -343.9,120.6 -342.8,121.4 -341.7,122.3 -340.9,123.1 -339.9,124 -338.7,125.1 -337.2,126.4 -336,127.4 -334.8,128.4 -333.8,129.2 -332.6,130.2 -331.2,131.3 -329.8,132.4 -328.1,133.9 -326.4,135.4 -324.8,136.7 -323.6,137.7 -322.5,138.7 -321.6,139.3 -320.2,140.4 -319.1,141.3 -318.1,142.2 -316.9,143.2 -315.8,144.2 -315,145 -313.8,146 -312.6,147 -311.5,147.9 -310.1,149.1 -308.9,150.1 -307.8,151.1 -306.4,152.3 -304.6,153.9 -303.1,155.1 -301.3,156.5 -299.8,157.7 -298.6,158.7 -297.8,159.3 -296.7,160.3 -295.9,161.1 -294.7,162.1 -293.5,163.1 -292.3,164.1 -291.4,164.7 -290.2,165.7 -289.1,166.6 -288,167.5 -286.9,168.4 -285.7,169.5 -284.8,170.2 -283.6,171.2 -282.5,172.2 -281.4,173.1 -280.2,174.1 -279,175 -278.3,175.6 -277.3,176.4 -276,177.5 -274.9,178.4 -273.8,179.4 -272.5,180.4 -271.4,181.2 -270.6,181.8 -269.7,182.5 -268.8,183.2 -267.9,184.1 -267,185 -265.8,186 -264.7,186.9 -263.6,187.8 -262.5,188.6 -261.4,189.4 -260.6,190.1 -259.8,190.8 -259,191.4 -258.1,192.2 -257.2,193 -256,194 -254.8,194.9 -253.6,195.9 -252.7,196.6 -251.7,197.4 -251,198 -250.1,198.8 -249.2,199.6 -248,200.6 -246.9,201.5 -245.8,202.4 -244.9,203.1 -243.6,204.1 -242.7,204.8 -241.8,205.5 -240.8,206.3 -239.8,207.1 -239.2,207.7 -238.5,208.4 -237,209.6 -235.6,210.7 -234.2,211.8 -232.8,212.8 -231.4,213.8 -230.7,214.4 -229.7,215.1 -228.7,215.9 -227.7,216.7 -226.5,217.5 -224.8,218.5 -223.3,219.5 -221.4,220.6 -219.2,221.8 -217,223 -215.3,223.8 -213.4,224.5 -211.9,225.1 -210.7,225.5 -209.4,225.8 -208.2,226.1 -207.3,226.3 -206.4,226.5 -205,226.8 -203.9,227 -202.7,227.2 -201.5,227.4 -200.1,227.5 -199.1,227.5 -198.1,227.5 -197.1,227.5 -196.1,227.5 -195.1,227.5 -193.7,227.4 -192.4,227.3 -191.2,227.2 -190,227.1 -189,227 -188,226.8 -187,226.6 -186,226.4 -185,226.2 -183.7,225.8 -182.9,225.6 -181.8,225.2 -180.7,224.8 -179.4,224.3 -178.4,223.9 -177.2,223.4 -176,222.8 -174.8,222.2 -173.6,221.5 -172.1,220.7 -170.8,219.9 -169.4,219 -167.9,218 -166.5,217 -165.5,216.1 -164.5,215.2 -163.6,214.4 -162.6,213.4 -161.6,212.4 -160.4,211.3 -159.1,209.9 -158.1,208.8 -157.4,207.9 -156.8,207.1 -156.2,206.1 -155.7,205.4 -155.3,204.6 -154.8,203.9 -154.2,202.8 -153.4,201.5 -152.7,200.2 -152,198.9 -151.2,197.3 -150.5,195.7 -150.2,194.6 -149.8,193.5 -149.4,192.4 -149.1,191.2 -148.9,190.4 -148.6,189.6 -148.3,188.3 -148,187 -147.8,185.8 -147.6,184.5 -147.5,183.1 -147.5,182.1 -147.5,181.1 -147.5,180.1 -147.5,179.1 -147.5,178.1 -147.5,177.1 -147.5,176.1 -147.5,175.1 -147.5,174.1 -147.5,173.1 -147.6,171.7 -147.7,170.3 -147.9,169.1 -148.1,168 -148.3,167 -148.5,166 -148.8,165 -149.2,163.6 -149.8,161.7 -150.4,159.8 -151.2,158 -151.9,156.2 -152.4,154.8 -152.9,153.7 -153.4,152.6 -153.7,151.9 -154,151.2 -154.4,150.6 -154.7,149.9 -155.4,148.7 -156.2,147.2 -157.1,145.7 -157.9,144.1 -158.7,142.8 -159.3,141.6 -159.8,140.7 -160.2,139.8 -160.9,138.6 -161.5,137.4 -162,136.6 -162.4,135.8 -163.1,134.6 -163.6,133.7 -164.1,132.8 -164.8,131.6 -165.5,130.4 -166,129.6 -166.4,128.8 -167.1,127.6 -167.5,126.7 -168,125.8 -168.4,124.9 -169,123.8 -169.5,122.9 -170,122 -170.7,120.8 -171.4,119.6 -172,118.6 -172.4,117.8 -173.1,116.6 -173.6,115.6 -174.1,114.6 -174.7,113.4 -175.3,112.2 -175.8,111.2 -176.2,110.3 -176.8,109.2 -177.3,108.3 -178,106.9 -178.6,105.7 -179.4,104.2 -180.1,102.9 -181.1,100.9 -182,99.4 -182.8,97.9 -183.6,96.5 -184.3,95.1 -184.9,93.9 -185.5,92.7 -186.1,91.5 -186.7,90.3 -187.6,88.6 -188.2,87.4 -188.8,86.2 -189.6,84.8 -190.2,83.6 -190.6,82.9 -191.2,81.8 -191.9,80.4 -192.5,79.2 -193.1,77.9 -193.8,76.5 -194.3,75.4 -194.7,74.6 -195.2,73.5 -195.8,72.3 -196.4,70.9 -197.1,69.6 -197.7,68.3 -198.1,67.3 -198.6,66.2 -199.2,64.9 -199.8,63.3 -200.5,61.7 -201.2,60.1 -201.7,58.8 -202,57.9 -202.3,56.7 -202.5,55.5 -202.8,54.3 -203.1,53 -203.3,51.7 -203.4,51 -203.5,50.1 -203.6,48.5 -203.6,47 -203.6,45.4 -203.6,43.8 -203.6,42.3 -203.5,41.5 -203.4,40.2 -203.2,38.6 -203,37 -202.8,35.5 -202.5,33.6 -202,31.6 -201.6,30.1 -201.1,28.6 -200.5,26.8 -199.9,25.4 -199.6,24.5 -199.2,23.7 -198.8,22.7 -198.3,21.6 -197.8,20.5 -197.3,19.5 -196.7,18.2 -196.2,17.1 -195.7,16.2 -195.2,15.3 -194.6,14.2 -194,13 -193.3,11.7 -192.8,10.6 -192.2,9.3 -191.7,8.2 -191.3,7.4 -190.7,6.3 -190,5 -189.3,3.6 -188.5,2.2 -187.8,0.8 -187.3,-0.3 -186.7,-1.5 -186.2,-2.4 -185.6,-3.5 -185,-4.6 -184.2,-6.1 -183.5,-7.3 -182.7,-8.7 -182.1,-9.9 -181.4,-11.2 -180.7,-12.3 -180,-13.7 -179.4,-14.9 -178.7,-16.2 -178.1,-17.4 -177.5,-18.7 -176.9,-19.6 -176.2,-21 -175.5,-22.3 -174.6,-23.9 -174,-25.1 -173.4,-26.4 -172.7,-27.5 -171.9,-28.9 -171.3,-30 -170.5,-31.3 -169.8,-32.6 -169.1,-34 -168.5,-35.1 -167.7,-36.5 -167,-37.9 -166.2,-39.3 -165.5,-40.5 -164.8,-42 -164.2,-43.2 -163.2,-45.1 -162.2,-47 -161.3,-48.8 -160.2,-50.6 -159.2,-52.4 -158.4,-53.8 -157.6,-55.2 -156.8,-56.6 -156.1,-58.1 -155.3,-59.6 -154.6,-60.9 -153.9,-62.2 -153.3,-63.4 -152.6,-64.7 -151.9,-66 -151.1,-67.4 -150.3,-68.9 -149.3,-70.8 -148.5,-72.2 -147.6,-73.9 -146.9,-75.2 -146,-76.9 -145.1,-78.5 -144.3,-80.1 -143.6,-81.5 -142.7,-83.4 -142,-84.8 -141.4,-85.9 -140.4,-87.8 -139.4,-89.6 -138.6,-90.9 -137.7,-92.6 -136.8,-94.4 -135.9,-95.9 -135,-97.6 -134.1,-99.4 -133.1,-101.3 -132.1,-103.2 -131.2,-105 -130.2,-106.9 -129.2,-108.8 -128.4,-110.3 -127.4,-112 -126.5,-113.8 -125.7,-115.4 -124.7,-117.2 -123.6,-119.2 -122.6,-121.2 -121.6,-122.9 -120.5,-124.9 -119.6,-126.8 -118.5,-129 -117.6,-130.9 -116.7,-132.9 -115.9,-134.6 -114.8,-136.6 -114,-138.1 -113,-140 -112,-141.9 -110.9,-143.9 -109.9,-145.8 -108.7,-148.1 -107.7,-150 -106.8,-151.7 -105.8,-153.7 -105,-155.4 -104.2,-157 -103.2,-159 -102.2,-160.9 -101.4,-162.4 -100.4,-164.2 -99.4,-166.1 -98.4,-167.9 -97.3,-170 -96.2,-172 -95.3,-173.7 -94.3,-175.5 -93.5,-177.1 -92.8,-178.4 -91.7,-180.4 -90.7,-182.3 -89.8,-184.3 -88.8,-186.2 -87.8,-188.2 -87.1,-189.8 -86.3,-191.5 -85.8,-192.5 -84.9,-194.1 -83.9,-195.9 -82.9,-197.7 -81.9,-199.4 -80.7,-201.3 -79.8,-203 -78.9,-204.7 -78,-206.4 -77.2,-208.1 -76.4,-209.9 -75.6,-211.6 -74.8,-213.2 -74.1,-214.5 -73.4,-215.9 -72.6,-217.3 -71.8,-218.8 -71,-220.3 -70.1,-222 -69.1,-224 -68.3,-225.7 -67.6,-227.1 -67,-228.4 -66.2,-229.9 -65.4,-231.3 -64.6,-232.8 -63.7,-234.4 -62.8,-236 -62.2,-237.3 -61.4,-238.8 -60.6,-240.2 -59.8,-241.7 -58.9,-243.4 -58,-245.1 -57.3,-246.4 -56.7,-247.7 -55.9,-249.2 -55.2,-250.4 -54.4,-251.8 -53.7,-253.1 -52.7,-254.8 -51.9,-256.3 -51,-258.1 -50.2,-259.6 -49.3,-261.2 -48.7,-262.4 -47.9,-263.9 -47.2,-265.1 -46.4,-266.6 -45.6,-268 -44.5,-269.8 -43.7,-271.2 -42.9,-272.6 -42,-274 -41,-275.7 -40.2,-277.1 -39.3,-278.6 -38.4,-280.1 -37.4,-281.8 -36.5,-283.2 -35.7,-284.5 -35,-285.5 -34,-287.1 -33.3,-288.2 -32.5,-289.6 -31.6,-291 -30.4,-292.9 -29.6,-294.2 -28.8,-295.5 -28.1,-296.6 -27.2,-297.9 -26.4,-299 -25.4,-300.4 -24.4,-301.8 -23,-303.6 -21.8,-305.2 -20.8,-306.6 -19.8,-307.8 -18.5,-309.4 -17.6,-310.6 -16.7,-311.8 -15.6,-313.2 -14.6,-314.6 -13.9,-315.6 -13,-316.7 -11.9,-318.1 -11,-319.3 -10.1,-320.4 -9,-321.7 -7.9,-323.1 -7.1,-324.2 -6.3,-325.2 -5.3,-326.5 -4.5,-327.7 -3.8,-328.6 -2.6,-329.9 -1.4,-331.2 -0.3,-332.4 1,-333.8 2.2,-335.2 3,-336.2 3.8,-337.3 4.6,-338.3 5.4,-339.3 6.2,-340.3 7,-341.3 7.9,-342.3 8.8,-343.3 9.6,-344.1 10.5,-345 11.5,-346 12.5,-347 13.5,-348 14.4,-349 15.6,-350.4 16.6,-351.7 17.5,-352.8 18.3,-353.8 19.1,-354.8 19.7,-355.6 20.4,-356.4 21.2,-357.5 22.1,-358.7 23.1,-360.1 24,-361.4 24.8,-362.7 25.6,-364 26.3,-365.6 26.9,-366.9 27.3,-368 27.8,-369.5 28.2,-370.8 28.6,-372.2 28.9,-373.7 29.2,-375.3 29.4,-376.6 29.5,-378.2 29.5,-379.4 29.5,-380.8 29.4,-382.6 29.3,-384.3 29.2,-385.7 29.1,-387 29,-388 29,-388.5 28.8,-389.6 28.6,-390.7 28.4,-391.8 28.2,-392.9 28,-394 27.8,-394.9 27.6,-395.8 27.4,-396.7 27.2,-397.6 26.8,-399 26.6,-400 26.4,-401.1 26,-402.5 25.6,-403.9 25.4,-404.8 25.2,-405.7 24.8,-407.1 24.6,-408.2 24.4,-409.3 24,-410.8 23.6,-412.3 23.4,-413.2 23,-414.5 22.6,-415.9 22.2,-417.3 21.8,-418.8 21.4,-420.3 21,-421.9 20.6,-423.4 20.2,-424.9 19.8,-426.3 19.4,-427.8 19,-429.3 18.6,-430.8 18.2,-432.4 17.8,-434.1 17.2,-436.1 16.8,-437.6 16.2,-439.7 15.8,-441.4 15.2,-443.4 14.8,-445.1 14.2,-447.3 13.8,-449 13.2,-451.2 12.8,-453.1 12.2,-455.3 11.8,-457.1 11.2,-459.3 10.8,-461 10.2,-463 9.8,-464.7 9.2,-466.9 8.8,-468.7 8.2,-470.8 7.8,-472.6 7.3,-474.7 6.9,-476.3 6.4,-478.2 6,-479.8 5.5,-481.9 5,-483.7 4.6,-485.4 4.1,-487.2 3.6,-489.3 3.1,-490.9 2.6,-492.9 2.1,-495 1.6,-497.1 1.2,-498.8 0.7,-500.8 0.3,-502.4 -0.3,-504.4 -0.7,-506 -1.3,-508.1 -1.7,-509.8 -2.1,-511.5 -2.5,-513.2 -2.9,-514.9 -3.3,-516.5 -3.7,-518.2 -4.3,-520.3 -4.7,-522 -5.3,-524.1 -5.7,-525.9 -6.1,-527.6 -6.5,-529.3 -6.9,-531 -7.2,-532.3 -7.6,-534 -8,-535.7 -8.3,-537.3 -8.7,-538.8 -9,-540.3 -9.2,-541.5 -9.5,-543.2 -9.8,-544.5 -10,-545.9 -10.2,-547.4 -10.4,-549 -10.5,-550.2 -10.5,-551.6 -10.5,-553.1 -10.5,-554.5 -10.5,-555.9 -10.5,-557.4 -10.5,-558.9 -10.5,-560.5 -10.4,-562.1 -10.3,-563.5 -10.2,-564.9 -10.1,-566.1 -10,-567 -9.8,-568.3 -9.6,-569.5 -9.4,-570.5 -8.9,-572.4 -8.3,-574.3 -7.9,-575.7 -7.3,-577.3 -6.7,-579 -6.2,-580 -5.8,-581 -5.2,-582.2 -4.8,-583.3 -4,-584.8 -3.1,-586.4 -2.1,-588 -1.3,-589.4 -0.2,-591 0.6,-592.1 1.2,-592.9 1.7,-593.7 2.3,-594.4 2.7,-594.8 3.6,-595.7 4.5,-596.6 5.4,-597.5 6.3,-598.5 7.3,-599.5 7.8,-600 8.3,-600.5 9.2,-601.2 10.2,-602 11.1,-602.7 12,-603.4 13.2,-604.2 14.1,-604.8 14.9,-605.3 16,-606 17.1,-606.7 17.9,-607.3 18.7,-607.9 19.5,-608.4 20.6,-609 21.7,-609.5 23,-610.1 24.3,-610.6 25.8,-611.3 26.7,-611.7 27.6,-612.2 28.3,-612.5 29.3,-612.9 30.2,-613.2 31.4,-613.6 32.6,-613.9 33.8,-614.3 34.7,-614.6 36,-614.9 37,-615.1 38,-615.3 39.1,-615.4 40.3,-615.6 41.6,-615.8 42.9,-616 44.2,-616.2 45.4,-616.4 46.6,-616.5 47.5,-616.5 48.4,-616.5 49.7,-616.5 51,-616.5 52.2,-616.5 53.1,-616.4 54.4,-616.2 55.6,-616 56.9,-615.8 58.2,-615.6 59.5,-615.4 60.9,-615.2 62.1,-615 63.2,-614.8 64.3,-614.5 65.5,-614.3 66.4,-614 67.6,-613.6 68.8,-613.2 70,-612.8 71.1,-612.4 72.3,-612 73.1,-611.7 74.1,-611.2 75.1,-610.8 76.6,-610.1 77.8,-609.5 79,-608.9 80.3,-608.3 81.6,-607.6 82.7,-607 83.8,-606.4 85.2,-605.6 86.3,-604.9 87.8,-604.1 89,-603.4 90.2,-602.7 91.3,-602 92.7,-601.1 93.8,-600.4 95.2,-599.5 96.6,-598.6 97.8,-597.8 99.1,-597 100.5,-596 101.6,-595.2 102.7,-594.5 104,-593.7 105.3,-592.8 106.4,-592 107.9,-591 109.5,-589.8 111.1,-588.5 112.4,-587.5 113.7,-586.5 114.9,-585.5 116.6,-584.3 118.1,-583.3 119.5,-582.2 121.1,-581 122.5,-579.9 123.4,-579 124.6,-577.9 125.9,-576.8 127.5,-575.5 129.1,-574.2 130.7,-572.9 132.3,-571.5 133.9,-570.1 135.2,-568.9 136.6,-567.5 138,-566.1 139.6,-564.7 141.1,-563.4 142.6,-562 144,-560.8 145.6,-559.4 146.8,-558.2 148.1,-556.9 149.5,-555.5 150.9,-554.1 152.1,-552.9 153.5,-551.3 154.9,-549.7 156.3,-548.1 157.6,-546.6 158.8,-545.2 160.1,-543.8 161.7,-542.2 163,-540.8 164.3,-539.4 165.6,-538 166.7,-536.8 167.7,-535.6 168.8,-534.4 170,-533.1 171.2,-531.7 172.4,-530.3 173.6,-528.9 174.8,-527.5 176,-526.1 177.2,-524.8 178.4,-523.4 179.4,-522.2 180.4,-521 181.6,-519.6 182.9,-518.1 184.1,-516.8 185.2,-515.6 186.4,-514.2 187.4,-513 188.4,-511.8 189.4,-510.6 190.5,-509.3 191.7,-508.1 192.9,-506.8 194.1,-505.6 195.3,-504.4 196.4,-503.3 197.4,-502.1 198.4,-500.9 199.4,-499.6 200.4,-498.4 201.5,-497.1 202.5,-496 203.5,-495 204.5,-494 205.6,-492.9 206.8,-491.6 208,-490.3 209.2,-489 210.4,-487.7 211.5,-486.5 212.5,-485.5 213.5,-484.5 214.5,-483.5 215.4,-482.6 216.2,-481.8 217.2,-480.6 218.2,-479.4 219.2,-478.2 220.3,-476.9 221.3,-475.6 222.2,-474.6 223,-473.7 223.8,-472.8 224.6,-472 225.6,-471.1 226.3,-470.4 227,-469.7 227.8,-468.8 228.8,-467.6 229.8,-466.4 231,-465.1 232.1,-463.8 233.1,-462.8 233.8,-462.1 234.3,-461.5 234.9,-460.7 235.6,-460 236.2,-459.2 236.9,-458.3 237.8,-457.3 238.6,-456.5 239.3,-455.6 240.1,-454.8 240.7,-454.1 241.3,-453.4 241.8,-452.9 242.3,-452.4 242.9,-451.6 243.7,-450.7 244.4,-450 245.1,-449.1 246.1,-448 246.8,-447.2 247.5,-446.3 248.2,-445.3 249.1,-444 249.7,-442.9 250.4,-441.7 251.1,-440.4 251.7,-439.1 252.2,-437.8 252.7,-436.5 253.1,-435.3 253.3,-434.4 253.5,-433.2 253.5,-432.3 253.5,-431.3 253.5,-430 253.5,-428.6 253.4,-427.4 253.3,-426.3 253.1,-425.2 252.8,-424.2 252.3,-423 251.9,-421.9 251.5,-420.8 251,-419.7 250.6,-418.8 250.4,-418.2 250.1,-417.7 249.8,-417.2 249.3,-416.5 248.8,-415.8 248.1,-415.1 247.3,-414 246.3,-412.8 245.2,-411.5 244.1,-410.2 243.1,-409 242.3,-408.1 241.3,-407 240.7,-406.2 240,-405.5 239.3,-404.6 238.1,-403.2 237.2,-401.9 236.4,-400.7 235.6,-399.5 234.8,-398.1 234.5,-397.2 234.1,-396.1 233.7,-394.7 233.4,-393.1 233.2,-391.7 233,-390 233.1,-388.3 233.2,-386.9 233.3,-385.6 233.6,-383.9 233.9,-382.5 234.1,-381.5 234.4,-380.2 234.7,-378.9 234.8,-378.1 235,-377.3 235.3,-375.9 235.6,-374.8 236,-373.2 236.5,-371.6 237,-369.7 237.4,-368.4 237.7,-367.1 238,-366.3 238.2,-365.4 238.4,-364.4 238.6,-363.4 238.9,-362.4 239.1,-361.4 239.4,-360.1 239.7,-359.2 240,-358.3 240.3,-357.1 240.6,-355.8 240.9,-354.9 241.1,-354 241.3,-352.9 241.6,-351.7 241.9,-350.6 242.1,-349.5 242.3,-348.4 242.7,-347.1 242.9,-346.1 243.1,-345.1 243.5,-343.7 243.9,-342.3 244.1,-341.2 244.5,-339.8 244.9,-338.4 245.1,-337.4 245.3,-336.4 245.7,-335 245.9,-334 246.1,-333 246.4,-332 246.8,-330.4 247,-329.3 247.4,-327.7 247.8,-326.1 248.1,-324.5 248.4,-323.4 248.8,-321.8 249,-320.7 249.2,-319.6 249.6,-318.1 249.9,-316.7 250.1,-315.8 250.4,-314.9 250.8,-313.5 251,-312.4 251.3,-311.3 251.6,-310.1 251.9,-308.4 252.1,-307.2 252.5,-305.8 252.8,-304.4 253.1,-303 253.4,-302 253.8,-300.6 254,-299.4 254.4,-297.9 254.8,-296.5 255.1,-295.2 255.4,-294.1 255.8,-292.7 256,-291.6 256.2,-290.5 256.6,-289.1 256.9,-287.9 257.1,-287.1 257.3,-286.1 257.7,-284.7 257.9,-283.6 258.1,-282.5 258.4,-281.4 258.8,-280.1 259,-279.1 259.4,-277.8 259.8,-276.5 260.1,-275.2 260.3,-274.3 260.7,-272.9 260.9,-271.8 261.1,-270.7 261.3,-269.6 261.7,-268.1 261.9,-267.2 262.1,-266.3 262.4,-265.1 262.8,-263.9 263,-263.1 263.2,-262.3 263.5,-261.5 263.8,-260.3 264.1,-259.1 264.5,-257.5 265,-255.7 265.5,-253.9 265.9,-252.8 266.2,-251.7 266.6,-250.7 266.9,-249.9 267.2,-249.1 267.7,-247.8 268.3,-246.5 268.7,-245.5 269.2,-244.5 269.6,-243.5 270.3,-242.3 270.9,-241.1 271.8,-239.6 273,-237.8 274.3,-236 275.3,-234.7 276.4,-233.5 277.4,-232.5 278.6,-231.4 279.8,-230.3 281.2,-229.2 282.6,-228.1 284.1,-227 285.1,-226.4 286.5,-225.5 287.6,-224.9 289,-224.1 290.7,-223.4 292.4,-222.6 293.7,-222.2 295,-221.8 296.4,-221.4 297.3,-221.1 298.2,-220.9 299.1,-220.7 300.4,-220.3 301.4,-220.1 302.7,-219.9 304,-219.7 305.3,-219.4 306.2,-219.3 307.4,-219.1 308.3,-218.9 309.6,-218.7 311,-218.5 312.4,-218.3 313.4,-218.2 314.4,-218.1 315.5,-217.9 316.7,-217.8 318,-217.7 319.3,-217.5 320.9,-217.3 322,-217.2 322.9,-217.1 324.3,-216.9 325.7,-216.8 327,-216.6 328.3,-216.4 329.6,-216.2 330.7,-216 332,-215.8 333.2,-215.7 334.5,-215.5 335.8,-215.3 337,-215.1 338.3,-214.9 339.7,-214.7 341,-214.5 342.4,-214.3 343.9,-214.1 345.4,-213.9 346.7,-213.7 348,-213.5 349.6,-213.2 351,-213 352.2,-212.8 353.5,-212.6 354.8,-212.4 356.3,-212.2 357.6,-212 358.8,-211.8 359.9,-211.6 361.3,-211.3 362.4,-211.1 363.5,-210.9 365.1,-210.6 366.6,-210.2 367.9,-210 368.9,-209.8 370.2,-209.4 371.2,-209.1 372.4,-208.9 373.5,-208.6 374.6,-208.3 375.6,-208 376.7,-207.6 377.7,-207.2 378.7,-206.8 380.1,-206.2 381.3,-205.8 382.2,-205.5 383.1,-205.1 384.3,-204.6 385.1,-204.2 386.2,-203.6 387.3,-202.9 388.4,-202.3 389.6,-201.5 390.8,-200.7 391.7,-200.1 392.6,-199.5 393.5,-198.7 394,-198.3 394.6,-197.8 395.3,-197.1 396.1,-196.3 397.2,-195.3 398.4,-194.1 399.6,-192.9 400.6,-191.8 401.5,-190.8 402.3,-189.8 403,-188.8 403.6,-187.9 404.3,-187 405,-185.9 405.5,-185.1 406,-184.2 406.7,-182.9 407.4,-181.3 408.1,-179.9 408.7,-178.5 409.3,-177 409.7,-175.9 410,-175.1 410.4,-173.8 410.8,-172.5 411.1,-171.5 411.3,-170.3 411.7,-168.7 411.9,-167.6 412.1,-166.5 412.3,-165.2 412.5,-164.1 412.5,-163.2 412.5,-162 412.5,-160.8 412.5,-159.6 412.5,-158.3 412.5,-157 412.5,-155.8 412.5,-154.5 412.5,-153.3 412.5,-152.2 412.4,-150.9 412.3,-149.5 412.1,-148.2 411.9,-146.8 411.7,-145.3 411.6,-144.2 411.4,-143 411.2,-141.7 411,-140.5 410.8,-139.4 410.6,-138.3 410.4,-136.9 410.2,-135.6 410,-134.3 409.8,-133 409.5,-131 409.2,-129.7 409,-128.4 408.8,-127.1 408.4,-125.3 408.1,-124.1 407.9,-122.9 407.6,-121.1 407.2,-119.3 407,-117.9 406.8,-116.5 406.4,-114.6 406.1,-113.2 405.9,-111.9 405.6,-110.1 405.2,-108.4 405,-106.9 404.8,-105.4 404.4,-103.6 404.1,-102.1 403.9,-100.6 403.6,-98.9 403.2,-97.1 403,-95.6 402.7,-93.9 402.3,-91.9 402,-90.4 401.8,-89 401.4,-87 401.1,-85.5 400.9,-84.2 400.6,-82.4 400.2,-80.5 400,-79.1 399.7,-77.2 399.3,-75.1 399,-73.2 398.8,-71.5 398.5,-69.8 398.2,-68.2 398,-66.6 397.8,-65.2 397.5,-63.8 397.2,-62 397,-60.3 396.8,-58.9 396.4,-57.1 396.1,-55 395.9,-53.4 395.6,-52 395.2,-50.2 395,-48.6 394.8,-47.2 394.5,-45.8 394.2,-44 394,-42.4 393.8,-40.8 393.5,-39.3 393.3,-37.7 393.1,-36.1 392.9,-34.5 392.7,-33.1 392.5,-31.7 392.2,-29.8 392,-28.4 391.8,-26.9 391.6,-25.2 391.4,-23.5 391.2,-21.9 391,-20.3 390.8,-18.7 390.6,-17.2 390.5,-15.4 390.5,-14 390.5,-12.3 390.5,-10.9 390.5,-9.4 390.5,-8 390.5,-6.7 390.5,-5.4 390.6,-3.6 390.7,-2 390.8,-0.6 390.9,0.8 391.1,2.1 391.3,3.5 391.5,4.8 391.7,6.2 392,7.6 392.3,9.3 392.5,10.5 392.7,11.7 393.1,13.4 393.4,15.1 393.6,16.3 394,17.9 394.4,19.5 394.7,20.6 395.1,22.1 395.7,23.8 396.1,25.1 396.6,26.4 397.1,27.9 397.6,29.1 398,30.4 398.5,31.7 399.2,33.4 399.8,34.8 400.5,36.4 401.2,37.7 401.8,38.9 402.5,40.2 403.3,41.6 404,42.7 404.6,43.8 405.6,45.6 406.3,46.9 407.2,48.5 408,50.1 408.9,51.7 409.5,52.7 410.3,54.1 411.1,55.5 412,56.9 412.8,58.3 413.8,59.9 414.6,61.2 415.3,62.3 416.2,63.8 417.2,65.3 418,66.5 418.9,67.9 419.8,69.4 420.7,70.8 421.7,72.3 422.8,74 423.7,75.4 424.7,76.8 425.5,78 426.3,79.3 427.1,80.7 428.2,82.3 429.1,83.6 430.1,85.1 431,86.4 431.8,87.7 432.5,89 433.4,90.5 434.2,91.8 435.1,93.3 436.1,94.8 437.2,96.3 438.1,97.6 439.1,99.1 440,100.4 440.8,101.6 441.6,102.9 442.5,104.3 443.3,105.4 444.2,106.8 445.2,108.2 446.2,109.7 447,111.1 447.8,112.5 448.7,113.9 449.5,115.1 450,116 450.8,117.2 451.6,118.4 452.4,119.7 453.1,121 453.9,122.2 454.7,123.4 455.5,124.7 456,125.6 456.8,126.9 457.6,128.3 458.3,129.6 458.9,130.8 459.6,132 460.2,133.3 460.8,134.5 461.2,135.5 461.8,136.9 462.3,138.3 462.8,139.5 463.2,140.8 463.7,142.1 464.1,143.4 464.5,144.7 464.8,145.8 465.2,147.2 465.5,148.6 465.8,149.7 466.1,150.8 466.3,152 466.4,153 466.5,154.2 466.5,155.4 466.6,157 466.7,158.5 466.8,159.8 466.9,160.9 467,162 466.9,163.1 466.8,164.1 466.7,165.5 466.6,167 466.5,169 466.5,170.8 466.5,172.6 466.4,174.1 466.2,175.9 466,177.2 465.8,178.4 465.5,179.6 465.2,181.1 465,182.2 464.7,183.3 464.3,184.6 463.9,185.9 463.6,186.8 463.2,188 462.7,189.4 462.3,190.5 461.9,191.6 461.4,192.7 460.8,194 460.3,195 459.8,196 459.3,197 458.6,198.3 458,199.4 457.4,200.4 456.8,201.4 456.1,202.7 455.6,203.7 455,204.5 454.3,205.5 453.3,206.8 452.5,207.9 451.7,209 450.7,210.4 449.8,211.7 449.1,212.7 448.2,213.7 447.1,215 446.3,215.9 445.6,216.8 444.8,217.8 444,218.8 443.3,219.6 442.6,220.4 441.6,221.4 440.6,222.4 439.6,223.4 438.6,224.4 437.6,225.4 436.6,226.4 435.6,227.5 434.6,228.6 433.4,229.8 432,231.3 430.8,232.6 429.7,233.8 428.7,234.9 427.6,236.1 426.7,237.1 425.8,238.1 424.6,239.3 423.4,240.5 422.6,241.4 421.5,242.6 420.4,243.8 419.6,244.7 418.5,245.9 417.3,247.1 416.2,248.1 415,249.3 413.5,250.9 412.2,252.3 411,253.7 410,254.9 408.6,256.4 407.5,257.5 406.5,258.5 405.5,259.6 403.9,261.2 402.8,262.3 401.7,263.4 400.4,264.8 399.1,266.1 398,267.3 396.9,268.5 395.8,269.8 394.9,270.8 393.5,272.2 392.5,273.1 391.3,274.3 389.9,275.6 388.4,277.1 387.3,278.3 386,279.8 384.9,281 383.8,282.3 382.5,283.6 381.3,284.8 380.1,286.1 378.6,287.8 377.2,289.3 376.1,290.5 374.8,292 373.5,293.5 372.4,294.6 371.2,295.9 369.7,297.6 368.4,299 367.1,300.3 365.9,301.6 364.7,302.9 363.5,304.1 362.3,305.3 361.1,306.6 359.7,308.2 358.5,309.5 357.3,310.9 356.1,312.3 354.8,313.7 353.7,314.8 352.3,316.1 350.9,317.6 349.5,319.1 348.1,320.5 346.5,322.2 345,324 343.7,325.4 342.2,327 341,328.4 339.8,329.8 338.7,330.9 337.4,332.2 336.3,333.4 335,334.8 333.6,336.1 332.1,337.8 330.9,339.2 329.4,340.8 328.2,342.2 327.2,343.4 326.1,344.4 324.8,345.8 323.8,346.9 322.4,348.2 320.9,349.9 319.7,351.4 318.7,352.5 317.4,353.9 316.4,355.1 315.3,356.1 313.9,357.5 312.5,358.9 311.2,360.2 309.9,361.5 308.7,362.9 307.6,364.2 306.5,365.5 305.6,366.6 304.4,368 303.4,369.1 302.3,370.1 301,371.5 299.7,372.9 298.7,374 297.4,375.3 296.2,376.6 295.2,377.6 294,378.8 292.8,380 291.7,381.2 290.6,382.6 289.4,383.9 288.1,385.4 286.8,386.9 285.7,388.2 284.8,389.1 283.8,390.3 282.9,391.3 282,392.3 280.9,393.5 279.8,394.7 278.8,395.6 277.6,396.7 276.4,397.8 275.1,399.1 273.8,400.4 272.6,401.7 271.6,402.8 270.6,404 269.7,405 268.8,406 267.7,407.2 266.8,408.2 265.6,409.5 264.6,410.6 263.6,411.8 262.8,412.8 261.8,413.8 260.8,414.9 259.8,416 258.8,417 257.6,418.2 256.5,419.5 255.7,420.3 254.7,421.3 253.6,422.4 252.7,423.3 251.7,424.3 250.6,425.4 249.5,426.6 248.3,428 247.1,429.4 246,430.7 245,431.9 243.8,433.2 242.8,434.2 241.7,435.3 240.6,436.4 239.4,437.6 238.5,438.5 237.3,439.8 236.1,441.1 234.9,442.4 233.7,443.7 232.3,445.3 231.2,446.5 230.3,447.6 229.5,448.6 228.7,449.6 228.2,450.2 227.4,451.1 226.5,451.9 225.7,452.7 224.9,453.5 224,454.4 223.3,455.1 222.5,456 221.5,457 220.6,458 219.7,459 218.8,460 218,460.8 217.2,461.6 216.3,462.4 215.5,463.2 214.7,464 213.8,465 213,465.8 212.2,466.6 211.3,467.4 210.6,468.1 210,468.6 209.1,469.4 208.3,470.1 207.6,470.6 206.5,471.3 205.4,472.1 204.6,472.6 203.8,473.1 203,473.6 202.2,474 201.4,474.3 200.6,474.6 199.8,474.9 198.6,475.3 197.7,475.5 196.8,475.8 195.9,476.1 195,476.3 194.2,476.4 193.3,476.5 192.4,476.5 191.5,476.5 190.6,476.5 190,476.5 189,476.3 188,476.1 187,475.9 186,475.7 185,475.4 184.2,475.2 183.4,475 182.3,474.5 181.1,474 179.8,473.4 178.8,472.9 177.8,472.3 177.1,472 176.6,471.6 176.1,471.2 175.6,470.8 175,470.3 174,469.5 173,468.7 172.1,468 171.1,467.1 170,466.1 169.3,465.4 168.6,464.7 167.9,464 167.3,463.5 166.6,462.8 165.8,461.9 165,461 164.1,460 163.1,458.9 162.5,458.2 161.9,457.5 161,456.6 160.2,455.8 159.4,454.7 158.4,453.5 157.4,452.3 156.5,451.3 155.3,449.9 154.1,448.7 153,447.5 151.9,446.3 150.9,445.2 150.2,444.4 149.6,443.6 149,443 148.3,442.2 147.5,441.2 146.7,440.2 145.8,439.2 144.9,438.1 144.2,437.3 143.5,436.3 142.7,435.3 142,434.4 141.1,433.4 140.2,432.4 139.4,431.6 138.6,430.8 137.8,430 137.2,429.3 136.2,428.2 135.2,427.2 134.4,426.3 133.6,425.4 132.6,424.2 132,423.4 131.2,422.4 130.2,421.2 129.2,420 128.1,418.8 127,417.6 126.2,416.6 125.5,415.8 124.7,414.8 123.9,413.8 123.1,412.8 122.2,411.8 121.4,410.8 120.5,409.7 119.7,408.7 118.9,407.7 118.1,406.7 116.9,405.4 115.9,404.4 115.1,403.6 114.3,402.8 113.2,401.6 112.3,400.5 111.2,399.2 110.1,397.9 108.8,396.4 107.8,395.4 106.8,394.4 105.8,393.4 104.8,392.4 103.8,391.4 102.8,390.3 101.9,389.4 100.9,388.4 99.9,387.4 98.9,386.4 97.9,385.4 96.7,384.2 95.8,383.3 94.9,382.4 93.9,381.4 92.9,380.4 91.9,379.4 90.9,378.4 89.5,377.1 88.4,376.1 87.3,375.1 86.4,374.3 85.3,373.3 84.6,372.6 83.3,371.5 82,370.4 80.4,369 79,367.8 77.6,366.6 76.6,365.6 75.6,364.6 74.5,363.7 73.4,362.8 72.2,361.9 70.8,360.9 69.4,359.9 68.4,359.1 67.4,358.4 66.1,357.4 65.2,356.7 64.3,356 63.4,355.3 62.2,354.2 61.1,353.2 60,352.2 58.7,351 57.4,349.9 56.1,348.9 54.9,348 53.7,347.1 52.7,346.5 51.7,345.8 51,345.3 50.2,344.7 49.4,344.1 48.5,343.3 47.3,342.4 46.2,341.5 45.4,340.9 44.4,340.2 43.5,339.6 42.9,339.2 41.6,338.4 40.3,337.6 39.2,337 38.1,336.4 36.7,335.6 35.4,335.1 34.1,334.5 32.8,333.9 31.1,333.3 29.7,332.9 28.8,332.7 27.9,332.5 26.4,332.2 25.2,332 23.9,331.8 22.2,331.7 20.5,331.7 19.4,331.8 18.4,331.9 17.2,332 16,332.1 14.8,332.2 13.6,332.4 12.4,332.6 11.4,332.8 10.3,333.1 9.2,333.4 7.8,333.7 6.4,334.1 4.9,334.6 3.9,334.9 3,335.3 2.4,335.6 1.4,336 0.5,336.5 -0.5,337.1 -1.9,337.9 -3.8,339.2 -5.4,340.4 -6.8,341.5 -8.3,342.8 -9.4,343.9 -10,344.5 -10.5,345.2 -11.2,346 -11.8,346.9 -12.5,347.7 -13.1,348.6 -13.7,349.4 -14.3,350.4 -14.9,351.4 -15.4,352.5 -16,353.5 -16.5,354.5 -16.8,355.2 -17.1,355.8 -17.5,356.7 -17.8,357.9 -18.1,359.1 -18.5,360.3 -18.7,361.3 -18.9,362.6 -19.1,363.8 -19.3,365.1 -19.4,366.8 -19.5,368.7 -19.5,370.1 -19.5,371.5 -19.5,372.9 -19.4,374.3 -19.3,375.5 -19.2,376.6 -19,377.7 -18.7,379.2 -18.5,380.3 -18.2,381.4 -17.8,382.8 -17.5,384.1 -17.1,385.1 -16.7,386.1 -16.3,387.3 -15.9,388.1 -15.5,388.9 -15,389.8 -14.5,390.7 -14,391.4 -13.3,392.5 -12.6,393.6 -12.1,394.3 -11.6,395 -10.9,396 -10.1,397 -9.1,398.1 -8,399.4 -6.6,400.9 -5.1,402.4 -3.9,403.5 -2.9,404.5 -1.9,405.4 -1,406.2 -0.3,406.8 0.9,407.9 2.2,409 3.4,410 4.6,411 5.8,412 6.5,412.5 7.6,413.3 8.7,414.2 9.7,415 10.6,415.6 11.5,416.4 12.1,417 12.8,417.7 13.6,418.5 14.4,419.3 15.7,420.3 16.9,421.2 18,422 19,422.6 20.1,423.4 20.8,424 21.6,424.7 22.4,425.3 23.6,426.3 24.7,427.2 25.7,428 26.7,428.8 27.7,429.6 28.7,430.4 29.7,431.2 30.7,432 31.7,432.8 32.7,433.6 33.7,434.4 34.7,435.2 35.7,436 36.7,436.8 37.7,437.6 38.3,438.1 39.2,438.9 40.1,439.7 41.3,440.7 42.5,441.8 43.7,442.8 44.6,443.5 45.9,444.5 46.8,445.2 47.7,445.9 48.6,446.6 49.5,447.3 50.4,448.1 51.3,448.9 52.5,449.9 53.7,450.9 54.9,451.9 55.7,452.5 56.6,453.2 57.3,453.8 58,454.4 58.9,455.2 59.9,456.1 61.1,457.1 62.3,458.1 63.9,459.5 65.3,460.7 66.6,461.8 67.6,462.6 68.6,463.4 69.5,464.1 70.3,464.8 71.3,465.7 72.3,466.6 73.3,467.5 74.3,468.4 75.4,469.3 76.3,470 77.3,470.8 78.4,471.6 79.2,472.3 80.3,473.2 81.4,474 82.4,474.8 83.3,475.6 84.3,476.4 85.1,477.1 86.2,478 87.3,478.9 88.3,479.7 89.2,480.4 90,480.9 90.5,481.3 91.3,482.1 92.5,483.2 93.6,484.3 94.7,485.4 95.8,486.5 96.6,487.2 97.1,487.7 97.8,488.3 98.8,489.3 99.9,490.4 101.1,491.6 102.2,492.8 103.3,494 104.1,494.9 104.7,495.7 105.4,496.7 106.1,497.6 106.6,498.4 107.1,499.1 107.8,500.1 108.3,500.8 108.7,501.5 109.2,502.2 109.7,503.2 110.1,503.9 110.5,504.9 111.1,506.1 111.6,507.3 112.1,508.3 112.5,509.3 112.9,510.3 113.2,511.1 113.5,511.9 113.7,512.7 114,514 114.3,514.9 114.5,515.8 114.7,516.9 114.9,518.1 115,518.9 115.1,520.2 115.3,521.5 115.5,522.6 115.7,523.6 115.9,524.6 116,525.5 116,526.4 116,527.5 116,528.7 116,529.9 116,531.1 116,532.4 116,533.6 116,534.7 116,535.7 115.9,536.9 115.7,538.1 115.5,539.2 115.3,540.3 115.1,541.4 114.9,542.6 114.7,543.7 114.5,544.8 114.3,545.9 114.1,547 113.8,547.8 113.6,548.6 113.4,549.4 113,550.5 112.6,551.6 112.4,552.4 112,553.4 111.6,554.4 111.2,555.5 110.8,556.6 110.2,557.9 109.8,559 109.3,560.1 109,560.8 108.2,562.1 107.5,563.2 106.8,564.3 106.1,565.4 105.2,566.6 104.8,567.2 104.1,568.2 103.3,569.2 102.5,570.2 101.9,571.1 101.1,572 100.5,572.6 99.8,573.3 99.2,574 98.4,574.8 97.6,575.6 96.8,576.4 96.1,577.1 95.3,577.7 94.6,578.2 94.1,578.7 93.3,579.2 92.4,579.8 91.4,580.6 90.4,581.3 89.3,582 88.6,582.5 87.8,583 86.9,583.5 86,584 84.9,584.6 83.8,585.2 82.9,585.7 82.2,586 81.2,586.5 80.2,586.9 79.2,587.3 78.2,587.7 77.2,588.1 76.2,588.5 75.3,588.8 74.4,589.1 73.1,589.5 71.8,589.9 70.8,590.1 69.9,590.4 69,590.7 68.5,590.8 67.8,590.9 66.6,591.2 65.4,591.4 64.1,591.6 62.8,591.8 61.6,592 60.9,592 60,592.1 59.1,592.2 58.2,592.3 57.2,592.4 56.1,592.5 55.2,592.5 54,592.5 52.7,592.5 51.6,592.5 50.4,592.5 49.1,592.5 48.2,592.5 47.2,592.5 46.2,592.4 45.4,592.3 44.7,592.2 44,592.1 43,591.9 42,591.8 41,591.6 40,591.4 39,591.2 38.1,591 37.2,590.7 36.3,590.5 35.4,590.3 34.2,589.9 33.4,589.6 32.6,589.4 31.8,589.1 31,588.8 30.5,588.7 29.6,588.3 28.4,587.8 27.2,587.3 26,586.8 24.8,586.2 24,585.9 23.5,585.7 23,585.5 22,585 21,584.5 20.1,583.9 19.2,583.3 18.3,582.7 17.9,582.4 17.4,582 16.8,581.7 15.6,580.9 14.3,580 13,579 11.8,578.2 10.5,577.2 9.5,576.3 8.2,575.2 6.9,574.2 5.6,573.1 4.2,571.9 3,570.9 2.1,570.1 1.2,569.3 0.2,568.4 -1.1,567.3 -2.3,566.3 -3.5,565.3 -4.7,564.3 -5.9,563.3 -7,562.4 -8.1,561.5 -9.1,560.8 -10,560 -10.9,559.2 -11.5,558.6 -12.1,558.1 -12.8,557.4 -14,556.4 -15.1,555.5 -16.1,554.7 -17.1,553.9 -18.6,552.8 -19.7,552 -20.8,551.2 -21.9,550.4 -23,549.6 -23.6,549.1 -24.2,548.6 -24.8,548.1 -25.8,547.2 -26.8,546.2 -27.7,545.4 -28.7,544.5 -30.1,543.3 -31.1,542.5 -32.1,541.7 -33.2,540.7 -34.3,539.7 -35,539.1 -36.1,538.2 -37.2,537.3 -38.2,536.5 -39.2,535.7 -40.6,534.5 -41.6,533.6 -42.6,532.7 -43.6,531.8 -45.1,530.6 -46.2,529.7 -47.3,528.8 -48.4,527.9 -49.9,526.8 -50.8,526.1 -51.7,525.4 -52.6,524.7 -54.1,523.6 -55.2,522.7 -56.3,521.8 -57.4,520.9 -58.6,519.9 -59.6,519 -60.7,518.1 -61.8,517.2 -62.9,516.3 -64.3,515.1 -65.3,514.2 -66.2,513.3 -67.7,512 -69.2,510.7 -70.3,509.8 -71.4,508.9 -73,507.7 -74,506.9 -75,506.1 -76.4,505 -77.8,503.9 -78.8,503.1 -79.9,502.2 -81.1,501.2 -81.9,500.5 -83.1,499.5 -84.6,498.2 -86,497 -87.3,495.9 -88.6,494.8 -90,493.7 -91,492.9 -92,492.1 -93.4,490.9 -94.9,489.7 -95.9,488.8 -96.9,487.9 -98.3,486.6 -99.4,485.7 -100.5,484.7 -102,483.4 -103.5,482.1 -104.7,481.2 -106.2,480 -107.6,478.9 -108.6,478.1 -109.7,477.2 -111.3,475.9 -112.5,474.9 -113.7,473.9 -114.9,472.9 -116.3,471.8 -117.1,471.1 -118.3,470.1 -119.5,469.1 -120.8,468.1 -121.9,467.2 -123.1,466.2 -124.1,465.3 -125.1,464.4 -126.5,463.2 -127.8,462.1 -129,461.1 -130.4,460 -131.8,458.9 -132.8,458.1 -134.2,457 -135.6,455.9 -136.6,455.1 -137.8,454.2 -138.5,453.6 -138.8,453.3" style="stroke: rgb(55, 65, 81); stroke-width: 10;"></polygon><polyline vector-effect="non-scaling-stroke" fill="none" points="-141.3,451.2 -141.8,450.8 -142.5,450.2 -143.6,449.3 -144.6,448.4 -145.4,447.7 -146.3,447.1 -146.9,446.5 -147.8,445.7 -148.8,444.9 -149.8,444.2 -150.6,443.4 -151.3,442.9 -151.7,442.6 -152.4,442 -153.4,441.1 -154.5,440.3 -155.8,439.2 -157.5,437.7 -158.9,436.5 -160,435.6 -161.2,434.5 -162.1,433.6 -163,432.9 -163.9,432.2 -164.8,431.4 -165.6,430.7 -166.6,430 -167.6,429.2 -168.6,428.4 -169.9,427.4 -171.1,426.4 -172.3,425.3 -173.2,424.4 -174.2,423.5 -175.3,422.5 -176.5,421.5 -177.6,420.6 -178.6,419.9 -179.6,419.1 -180.3,418.5 -181.4,417.6 -182.5,416.7 -183.7,415.7 -184.9,414.7 -185.9,413.8 -187,412.9 -188.1,412 -189.1,411.2 -190.4,410.2 -191.8,409.2 -192.7,408.5 -193.6,407.8 -194.9,406.8 -195.8,406 -196.7,405.3 -197.6,404.6 -198.5,403.9 -199.3,403.1 -200.1,402.4 -201.3,401.3 -202.9,399.9 -204.5,398.6 -206.3,397.2 -208.1,395.8 -209.5,394.7 -210.5,393.9 -211.8,392.8 -212.6,392.1 -213.9,391 -215.3,389.8 -216.7,388.6 -218.4,387.2 -220,385.8 -221.2,384.8 -222.3,383.9 -223.6,382.9 -224.4,382.1 -225.7,381.1 -226.9,380.1 -228.3,379 -229.9,377.7 -231.4,376.6 -232.5,375.7 -233.8,374.6 -235.1,373.4 -236.3,372.3 -237.6,371.2 -239,370.1 -240.7,368.8 -242.2,367.7 -243.4,366.8 -244.8,365.6 -246.3,364.3 -247.7,363.1 -249.1,361.9 -250.6,360.7 -252.4,359.3 -254,358 -255.3,356.9 -256.6,355.9 -258.4,354.4 -259.6,353.4 -261.1,352.1 -262.7,350.8 -264.7,349.1 -266.2,347.9 -268.2,346.3 -269.9,345 -271.5,343.7 -273.1,342.4 -274.6,341.1 -276.1,339.8 -277.7,338.5 -279.7,336.9 -281.3,335.6 -282.9,334.3 -284.5,333 -286.5,331.3 -288,330 -290,328.4 -292.1,326.7 -294,325.1 -295.6,323.8 -297.6,322.2 -299.2,320.8 -301.7,318.7 -304.5,316.4 -307.2,314.2 -310,311.9 -313.2,309.3 -315.5,307.5 -317.6,305.8 -320.1,303.7 -322.2,302 -324.3,300.2 -326.4,298.4 -328.7,296.6 -330.5,295.2 -332.7,293.4 -334.8,291.8 -336.9,290.1 -338.8,288.5 -341.2,286.5 -343.2,284.8 -345.3,283.1 -347.4,281.4 -349.4,279.7 -351.5,278 -353.9,276.1 -355.9,274.5 -358.3,272.6 -360.5,270.9 -363.1,268.8 -365.4,266.9 -368.1,264.7 -370.5,262.7 -373.2,260.4 -375.5,258.6 -377.7,256.8 -380.1,254.8 -382.4,252.9 -384.6,251.1 -386.9,249.2 -389.5,247.2 -391.5,245.6 -393.4,244.1 -395.4,242.5 -397.3,240.9 -399,239.4 -401.3,237.5 -403.7,235.5 -406.1,233.5 -408.2,231.7 -410.6,229.7 -412.4,228.1 -414.5,226.2 -416.8,224.4 -418.9,222.7 -420.7,221.2 -422.7,219.5 -424.9,217.7 -426.7,216.1 -428.8,214.2 -431.2,212.1 -433.4,210.3 -435.6,208.5 -437.7,206.8 -439.5,205.4 -441.7,203.7 -443.9,201.9 -445.5,200.6 -447.4,198.9 -449.6,196.9 -451.5,195.2 -453.5,193.4 -456.1,191.2 -458.4,189.3 -460.5,187.7 -462.7,185.9 -464.8,184.3 -466.8,182.7 -468.8,181.2 -471.1,179.3 -473.2,177.6 -475.3,175.9 -477.3,174.2 -479.7,172.1 -481.6,170.5 -483.2,169.1 -484.9,167.6 -486.9,165.9 -488.5,164.5 -490.6,162.8 -492.9,160.9 -495.6,158.6 -498.1,156.6 -500.6,154.6 -503.2,152.4 -505.5,150.5 -507.3,149 -508.9,147.6 -510.7,146 -512.1,144.8 -514,143.1 -516,141.4 -518.2,139.5 -520.2,137.8 -522.3,136 -524.4,134.3 -526.4,132.7 -528.2,131.2 -530.4,129.4 -532.4,127.8 -534.2,126.3 -536.4,124.5 -538.4,122.9 -540.3,121.4 -542.2,119.8 -544.3,118.2 -546,116.8 -547.6,115.5 -549.1,114.2 -550.8,112.8 -552.6,111.2 -554.5,109.6 -556.6,107.9 -558.4,106.5 -560.2,105.1 -561.5,104 -562.9,102.8 -564.1,101.8 -565.7,100.4 -567.1,99.2 -568.5,98.1 -570,96.9 -571.5,95.6 -572.6,94.7 -573.6,93.8 -574.9,92.7 -575.8,92 -576.7,91.3 -577.6,90.6 -578.7,89.7 -579.7,88.9 -580.7,88.1 -581.7,87.3 -582.7,86.5 -583.6,85.9 -584.1,85.5 -584.7,84.9 -585.4,84.3 -586,83.7 -586.9,82.9 -587.9,82.1 -588.8,81.4 -589.6,80.8 -590.4,80.2 -590.9,79.8 -591.5,79.3 -592.4,78.5 -593.4,77.5 -594.7,76.2 -596,74.9 -597.1,73.7 -598,72.7 -598.9,71.7 -599.7,70.7 -600.4,69.7 -601.3,68.6 -602,67.6 -602.5,66.7 -603,66 -603.4,65.3 -603.7,64.3 -604.1,63.3 -604.5,62.2 -604.8,61.2 -605.1,60.2 -605.3,59.5 -605.4,58.7 -605.6,57.7 -605.7,56.2 -605.8,54.6 -605.8,53 -605.8,51.5 -605.7,50.3 -605.6,49.6 -605.4,48.9 -605.3,48.3 -605.1,47.4 -604.9,46.5 -604.6,45.7 -604.4,45 -604.2,44.3 -603.9,43.7 -603.6,43.1 -603.3,42.5 -602.9,41.7 -602.4,40.9 -602.1,40.3 -601.6,39.6 -601.2,38.8 -600.8,38.3 -599.9,37.3 -598.8,36.3 -597.7,35.3 -596.6,34.3 -595.4,33.2 -594.7,32.7 -594,32.1 -593.4,31.7 -592.5,31.2 -591.7,30.8 -590.9,30.4 -589.9,30 -588.7,29.5 -587.7,29.1 -586.6,28.7 -585.5,28.3 -584.7,28.1 -584.1,27.9 -583,27.7 -582,27.5 -581,27.3 -580,27.1 -578.8,27 -578,27 -577.1,27 -576.1,27 -575,27 -574,27 -573,27 -572,27 -571,27 -570,27 -569,27 -568,27 -567,27 -566,27 -565,27 -564,27 -562.8,27 -561.6,27 -560.4,27.1 -559.2,27.2 -558.1,27.3 -557.1,27.4 -556.1,27.5 -555.2,27.5 -554.4,27.5 -553.6,27.5 -553,27.5 -552,27.6 -550.9,27.7 -549.6,27.8 -548.1,28 -546.5,28.2 -545.3,28.3 -544,28.4 -542.7,28.5 -541.5,28.5 -540.3,28.5 -539.2,28.5 -538.1,28.5 -537.1,28.6 -536.2,28.7 -535.4,28.8 -534.1,29 -532.7,29.2 -531.3,29.3 -529.7,29.4 -527.9,29.6 -526.5,29.7 -525.1,29.8 -523.8,29.9 -522.7,30 -521.8,30 -520.4,30.1 -519.3,30.3 -517.8,30.5 -516.3,30.7 -514.7,30.9 -513.7,31 -512.2,31.1 -511.1,31.3 -509.6,31.5 -508.1,31.7 -506.6,31.9 -505,32.2 -503.3,32.4 -501.9,32.6 -500.6,32.8 -498.7,33.2 -497.4,33.4 -496.2,33.6 -495.1,33.8 -493.4,34.2 -492.3,34.4 -491.1,34.7 -489.5,35.1 -487.9,35.5 -486.3,35.9 -484.7,36.3 -483.2,36.6 -482,36.9 -480.4,37.3 -479.3,37.6 -477.8,38 -476.3,38.5 -474.5,39 -473.1,39.5 -471.8,39.9 -470.6,40.3 -469.1,40.8 -467.9,41.3 -466.2,41.8 -464.5,42.4 -463,42.9 -461.8,43.3 -460.2,43.8 -459,44.3 -457.8,44.8 -456.1,45.5 -454.4,46.2 -453.1,46.8 -451.9,47.3 -450.2,48 -449,48.5 -447.5,49.1 -446.1,49.7 -444.7,50.3 -443.3,50.9 -441.9,51.5 -440.8,52 -439.7,52.5 -438.2,53.2 -436.9,53.8 -435.5,54.6 -433.8,55.5 -432,56.3 -430.7,57 -429.4,57.6 -428.3,58.1 -427.5,58.5 -426.4,59.2 -425,59.9 -423.6,60.7 -422.2,61.5 -420.8,62.2 -419.5,62.9 -418.4,63.5 -417.4,64.1 -416.3,64.7 -414.9,65.6 -413.8,66.3 -412.5,67.1 -411.4,67.8 -410.4,68.5 -409.3,69.1 -408,69.8 -406.9,70.5 -405.8,71.2 -404.5,72 -403.6,72.6 -402.5,73.4 -401.4,74.2 -400.3,74.9 -399.1,75.7 -397.7,76.7 -396.7,77.4 -395.7,78.1 -394.7,78.9 -393.9,79.5 -392.8,80.4 -391.7,81.3 -390.3,82.3 -388.9,83.3 -387.6,84.3 -386.8,84.9 -385.4,85.9 -384.4,86.8 -383.4,87.6 -382.3,88.5 -381.1,89.5 -380.3,90.3 -379.1,91.2 -377.9,92.2 -376.8,93.1 -375.8,93.9 -374.4,94.9 -373.3,95.8 -372.2,96.7 -371.1,97.6 -369.9,98.6 -369.1,99.4 -368,100.4 -366.9,101.4 -365.8,102.3 -364.8,103.1 -363.4,104.2 -362.3,105 -361.2,105.8 -360.1,106.7 -358.9,107.8 -358.1,108.5 -357,109.5 -355.8,110.5 -354.6,111.5 -353.5,112.3 -352.3,113.3 -351.4,114.1 -350.5,115 -349.4,116.1 -348,117.4 -346.6,118.5 -345.2,119.6 -343.9,120.6 -342.8,121.4 -341.7,122.3 -340.9,123.1 -339.9,124 -338.7,125.1 -337.2,126.4 -336,127.4 -334.8,128.4 -333.8,129.2 -332.6,130.2 -331.2,131.3 -329.8,132.4 -328.1,133.9 -326.4,135.4 -324.8,136.7 -323.6,137.7 -322.5,138.7 -321.6,139.3 -320.2,140.4 -319.1,141.3 -318.1,142.2 -316.9,143.2 -315.8,144.2 -315,145 -313.8,146 -312.6,147 -311.5,147.9 -310.1,149.1 -308.9,150.1 -307.8,151.1 -306.4,152.3 -304.6,153.9 -303.1,155.1 -301.3,156.5 -299.8,157.7 -298.6,158.7 -297.8,159.3 -296.7,160.3 -295.9,161.1 -294.7,162.1 -293.5,163.1 -292.3,164.1 -291.4,164.7 -290.2,165.7 -289.1,166.6 -288,167.5 -286.9,168.4 -285.7,169.5 -284.8,170.2 -283.6,171.2 -282.5,172.2 -281.4,173.1 -280.2,174.1 -279,175 -278.3,175.6 -277.3,176.4 -276,177.5 -274.9,178.4 -273.8,179.4 -272.5,180.4 -271.4,181.2 -270.6,181.8 -269.7,182.5 -268.8,183.2 -267.9,184.1 -267,185 -265.8,186 -264.7,186.9 -263.6,187.8 -262.5,188.6 -261.4,189.4 -260.6,190.1 -259.8,190.8 -259,191.4 -258.1,192.2 -257.2,193 -256,194 -254.8,194.9 -253.6,195.9 -252.7,196.6 -251.7,197.4 -251,198 -250.1,198.8 -249.2,199.6 -248,200.6 -246.9,201.5 -245.8,202.4 -244.9,203.1 -243.6,204.1 -242.7,204.8 -241.8,205.5 -240.8,206.3 -239.8,207.1 -239.2,207.7 -238.5,208.4 -237,209.6 -235.6,210.7 -234.2,211.8 -232.8,212.8 -231.4,213.8 -230.7,214.4 -229.7,215.1 -228.7,215.9 -227.7,216.7 -226.5,217.5 -224.8,218.5 -223.3,219.5 -221.4,220.6 -219.2,221.8 -217,223 -215.3,223.8 -213.4,224.5 -211.9,225.1 -210.7,225.5 -209.4,225.8 -208.2,226.1 -207.3,226.3 -206.4,226.5 -205,226.8 -203.9,227 -202.7,227.2 -201.5,227.4 -200.1,227.5 -199.1,227.5 -198.1,227.5 -197.1,227.5 -196.1,227.5 -195.1,227.5 -193.7,227.4 -192.4,227.3 -191.2,227.2 -190,227.1 -189,227 -188,226.8 -187,226.6 -186,226.4 -185,226.2 -183.7,225.8 -182.9,225.6 -181.8,225.2 -180.7,224.8 -179.4,224.3 -178.4,223.9 -177.2,223.4 -176,222.8 -174.8,222.2 -173.6,221.5 -172.1,220.7 -170.8,219.9 -169.4,219 -167.9,218 -166.5,217 -165.5,216.1 -164.5,215.2 -163.6,214.4 -162.6,213.4 -161.6,212.4 -160.4,211.3 -159.1,209.9 -158.1,208.8 -157.4,207.9 -156.8,207.1 -156.2,206.1 -155.7,205.4 -155.3,204.6 -154.8,203.9 -154.2,202.8 -153.4,201.5 -152.7,200.2 -152,198.9 -151.2,197.3 -150.5,195.7 -150.2,194.6 -149.8,193.5 -149.4,192.4 -149.1,191.2 -148.9,190.4 -148.6,189.6 -148.3,188.3 -148,187 -147.8,185.8 -147.6,184.5 -147.5,183.1 -147.5,182.1 -147.5,181.1 -147.5,180.1 -147.5,179.1 -147.5,178.1 -147.5,177.1 -147.5,176.1 -147.5,175.1 -147.5,174.1 -147.5,173.1 -147.6,171.7 -147.7,170.3 -147.9,169.1 -148.1,168 -148.3,167 -148.5,166 -148.8,165 -149.2,163.6 -149.8,161.7 -150.4,159.8 -151.2,158 -151.9,156.2 -152.4,154.8 -152.9,153.7 -153.4,152.6 -153.7,151.9 -154,151.2 -154.4,150.6 -154.7,149.9 -155.4,148.7 -156.2,147.2 -157.1,145.7 -157.9,144.1 -158.7,142.8 -159.3,141.6 -159.8,140.7 -160.2,139.8 -160.9,138.6 -161.5,137.4 -162,136.6 -162.4,135.8 -163.1,134.6 -163.6,133.7 -164.1,132.8 -164.8,131.6 -165.5,130.4 -166,129.6 -166.4,128.8 -167.1,127.6 -167.5,126.7 -168,125.8 -168.4,124.9 -169,123.8 -169.5,122.9 -170,122 -170.7,120.8 -171.4,119.6 -172,118.6 -172.4,117.8 -173.1,116.6 -173.6,115.6 -174.1,114.6 -174.7,113.4 -175.3,112.2 -175.8,111.2 -176.2,110.3 -176.8,109.2 -177.3,108.3 -178,106.9 -178.6,105.7 -179.4,104.2 -180.1,102.9 -181.1,100.9 -182,99.4 -182.8,97.9 -183.6,96.5 -184.3,95.1 -184.9,93.9 -185.5,92.7 -186.1,91.5 -186.7,90.3 -187.6,88.6 -188.2,87.4 -188.8,86.2 -189.6,84.8 -190.2,83.6 -190.6,82.9 -191.2,81.8 -191.9,80.4 -192.5,79.2 -193.1,77.9 -193.8,76.5 -194.3,75.4 -194.7,74.6 -195.2,73.5 -195.8,72.3 -196.4,70.9 -197.1,69.6 -197.7,68.3 -198.1,67.3 -198.6,66.2 -199.2,64.9 -199.8,63.3 -200.5,61.7 -201.2,60.1 -201.7,58.8 -202,57.9 -202.3,56.7 -202.5,55.5 -202.8,54.3 -203.1,53 -203.3,51.7 -203.4,51 -203.5,50.1 -203.6,48.5 -203.6,47 -203.6,45.4 -203.6,43.8 -203.6,42.3 -203.5,41.5 -203.4,40.2 -203.2,38.6 -203,37 -202.8,35.5 -202.5,33.6 -202,31.6 -201.6,30.1 -201.1,28.6 -200.5,26.8 -199.9,25.4 -199.6,24.5 -199.2,23.7 -198.8,22.7 -198.3,21.6 -197.8,20.5 -197.3,19.5 -196.7,18.2 -196.2,17.1 -195.7,16.2 -195.2,15.3 -194.6,14.2 -194,13 -193.3,11.7 -192.8,10.6 -192.2,9.3 -191.7,8.2 -191.3,7.4 -190.7,6.3 -190,5 -189.3,3.6 -188.5,2.2 -187.8,0.8 -187.3,-0.3 -186.7,-1.5 -186.2,-2.4 -185.6,-3.5 -185,-4.6 -184.2,-6.1 -183.5,-7.3 -182.7,-8.7 -182.1,-9.9 -181.4,-11.2 -180.7,-12.3 -180,-13.7 -179.4,-14.9 -178.7,-16.2 -178.1,-17.4 -177.5,-18.7 -176.9,-19.6 -176.2,-21 -175.5,-22.3 -174.6,-23.9 -174,-25.1 -173.4,-26.4 -172.7,-27.5 -171.9,-28.9 -171.3,-30 -170.5,-31.3 -169.8,-32.6 -169.1,-34 -168.5,-35.1 -167.7,-36.5 -167,-37.9 -166.2,-39.3 -165.5,-40.5 -164.8,-42 -164.2,-43.2 -163.2,-45.1 -162.2,-47 -161.3,-48.8 -160.2,-50.6 -159.2,-52.4 -158.4,-53.8 -157.6,-55.2 -156.8,-56.6 -156.1,-58.1 -155.3,-59.6 -154.6,-60.9 -153.9,-62.2 -153.3,-63.4 -152.6,-64.7 -151.9,-66 -151.1,-67.4 -150.3,-68.9 -149.3,-70.8 -148.5,-72.2 -147.6,-73.9 -146.9,-75.2 -146,-76.9 -145.1,-78.5 -144.3,-80.1 -143.6,-81.5 -142.7,-83.4 -142,-84.8 -141.4,-85.9 -140.4,-87.8 -139.4,-89.6 -138.6,-90.9 -137.7,-92.6 -136.8,-94.4 -135.9,-95.9 -135,-97.6 -134.1,-99.4 -133.1,-101.3 -132.1,-103.2 -131.2,-105 -130.2,-106.9 -129.2,-108.8 -128.4,-110.3 -127.4,-112 -126.5,-113.8 -125.7,-115.4 -124.7,-117.2 -123.6,-119.2 -122.6,-121.2 -121.6,-122.9 -120.5,-124.9 -119.6,-126.8 -118.5,-129 -117.6,-130.9 -116.7,-132.9 -115.9,-134.6 -114.8,-136.6 -114,-138.1 -113,-140 -112,-141.9 -110.9,-143.9 -109.9,-145.8 -108.7,-148.1 -107.7,-150 -106.8,-151.7 -105.8,-153.7 -105,-155.4 -104.2,-157 -103.2,-159 -102.2,-160.9 -101.4,-162.4 -100.4,-164.2 -99.4,-166.1 -98.4,-167.9 -97.3,-170 -96.2,-172 -95.3,-173.7 -94.3,-175.5 -93.5,-177.1 -92.8,-178.4 -91.7,-180.4 -90.7,-182.3 -89.8,-184.3 -88.8,-186.2 -87.8,-188.2 -87.1,-189.8 -86.3,-191.5 -85.8,-192.5 -84.9,-194.1 -83.9,-195.9 -82.9,-197.7 -81.9,-199.4 -80.7,-201.3 -79.8,-203 -78.9,-204.7 -78,-206.4 -77.2,-208.1 -76.4,-209.9 -75.6,-211.6 -74.8,-213.2 -74.1,-214.5 -73.4,-215.9 -72.6,-217.3 -71.8,-218.8 -71,-220.3 -70.1,-222 -69.1,-224 -68.3,-225.7 -67.6,-227.1 -67,-228.4 -66.2,-229.9 -65.4,-231.3 -64.6,-232.8 -63.7,-234.4 -62.8,-236 -62.2,-237.3 -61.4,-238.8 -60.6,-240.2 -59.8,-241.7 -58.9,-243.4 -58,-245.1 -57.3,-246.4 -56.7,-247.7 -55.9,-249.2 -55.2,-250.4 -54.4,-251.8 -53.7,-253.1 -52.7,-254.8 -51.9,-256.3 -51,-258.1 -50.2,-259.6 -49.3,-261.2 -48.7,-262.4 -47.9,-263.9 -47.2,-265.1 -46.4,-266.6 -45.6,-268 -44.5,-269.8 -43.7,-271.2 -42.9,-272.6 -42,-274 -41,-275.7" style="stroke: rgb(239, 68, 68); stroke-width: 7;"></polyline><polyline vector-effect="non-scaling-stroke" fill="none" points="-40.2,-277.1 -39.3,-278.6 -38.4,-280.1 -37.4,-281.8 -36.5,-283.2 -35.7,-284.5 -35,-285.5 -34,-287.1 -33.3,-288.2 -32.5,-289.6 -31.6,-291 -30.4,-292.9 -29.6,-294.2 -28.8,-295.5 -28.1,-296.6 -27.2,-297.9 -26.4,-299 -25.4,-300.4 -24.4,-301.8 -23,-303.6 -21.8,-305.2 -20.8,-306.6 -19.8,-307.8 -18.5,-309.4 -17.6,-310.6 -16.7,-311.8 -15.6,-313.2 -14.6,-314.6 -13.9,-315.6 -13,-316.7 -11.9,-318.1 -11,-319.3 -10.1,-320.4 -9,-321.7 -7.9,-323.1 -7.1,-324.2 -6.3,-325.2 -5.3,-326.5 -4.5,-327.7 -3.8,-328.6 -2.6,-329.9 -1.4,-331.2 -0.3,-332.4 1,-333.8 2.2,-335.2 3,-336.2 3.8,-337.3 4.6,-338.3 5.4,-339.3 6.2,-340.3 7,-341.3 7.9,-342.3 8.8,-343.3 9.6,-344.1 10.5,-345 11.5,-346 12.5,-347 13.5,-348 14.4,-349 15.6,-350.4 16.6,-351.7 17.5,-352.8 18.3,-353.8 19.1,-354.8 19.7,-355.6 20.4,-356.4 21.2,-357.5 22.1,-358.7 23.1,-360.1 24,-361.4 24.8,-362.7 25.6,-364 26.3,-365.6 26.9,-366.9 27.3,-368 27.8,-369.5 28.2,-370.8 28.6,-372.2 28.9,-373.7 29.2,-375.3 29.4,-376.6 29.5,-378.2 29.5,-379.4 29.5,-380.8 29.4,-382.6 29.3,-384.3 29.2,-385.7 29.1,-387 29,-388 29,-388.5 28.8,-389.6 28.6,-390.7 28.4,-391.8 28.2,-392.9 28,-394 27.8,-394.9 27.6,-395.8 27.4,-396.7 27.2,-397.6 26.8,-399 26.6,-400 26.4,-401.1 26,-402.5 25.6,-403.9 25.4,-404.8 25.2,-405.7 24.8,-407.1 24.6,-408.2 24.4,-409.3 24,-410.8 23.6,-412.3 23.4,-413.2 23,-414.5 22.6,-415.9 22.2,-417.3 21.8,-418.8 21.4,-420.3 21,-421.9 20.6,-423.4 20.2,-424.9 19.8,-426.3 19.4,-427.8 19,-429.3 18.6,-430.8 18.2,-432.4 17.8,-434.1 17.2,-436.1 16.8,-437.6 16.2,-439.7 15.8,-441.4 15.2,-443.4 14.8,-445.1 14.2,-447.3 13.8,-449 13.2,-451.2 12.8,-453.1 12.2,-455.3 11.8,-457.1 11.2,-459.3 10.8,-461 10.2,-463 9.8,-464.7 9.2,-466.9 8.8,-468.7 8.2,-470.8 7.8,-472.6 7.3,-474.7 6.9,-476.3 6.4,-478.2 6,-479.8 5.5,-481.9 5,-483.7 4.6,-485.4 4.1,-487.2 3.6,-489.3 3.1,-490.9 2.6,-492.9 2.1,-495 1.6,-497.1 1.2,-498.8 0.7,-500.8 0.3,-502.4 -0.3,-504.4 -0.7,-506 -1.3,-508.1 -1.7,-509.8 -2.1,-511.5 -2.5,-513.2 -2.9,-514.9 -3.3,-516.5 -3.7,-518.2 -4.3,-520.3 -4.7,-522 -5.3,-524.1 -5.7,-525.9 -6.1,-527.6 -6.5,-529.3 -6.9,-531 -7.2,-532.3 -7.6,-534 -8,-535.7 -8.3,-537.3 -8.7,-538.8 -9,-540.3 -9.2,-541.5 -9.5,-543.2 -9.8,-544.5 -10,-545.9 -10.2,-547.4 -10.4,-549 -10.5,-550.2 -10.5,-551.6 -10.5,-553.1 -10.5,-554.5 -10.5,-555.9 -10.5,-557.4 -10.5,-558.9 -10.5,-560.5 -10.4,-562.1 -10.3,-563.5 -10.2,-564.9 -10.1,-566.1 -10,-567 -9.8,-568.3 -9.6,-569.5 -9.4,-570.5 -8.9,-572.4 -8.3,-574.3 -7.9,-575.7 -7.3,-577.3 -6.7,-579 -6.2,-580 -5.8,-581 -5.2,-582.2 -4.8,-583.3 -4,-584.8 -3.1,-586.4 -2.1,-588 -1.3,-589.4 -0.2,-591 0.6,-592.1 1.2,-592.9 1.7,-593.7 2.3,-594.4 2.7,-594.8 3.6,-595.7 4.5,-596.6 5.4,-597.5 6.3,-598.5 7.3,-599.5 7.8,-600 8.3,-600.5 9.2,-601.2 10.2,-602 11.1,-602.7 12,-603.4 13.2,-604.2 14.1,-604.8 14.9,-605.3 16,-606 17.1,-606.7 17.9,-607.3 18.7,-607.9 19.5,-608.4 20.6,-609 21.7,-609.5 23,-610.1 24.3,-610.6 25.8,-611.3 26.7,-611.7 27.6,-612.2 28.3,-612.5 29.3,-612.9 30.2,-613.2 31.4,-613.6 32.6,-613.9 33.8,-614.3 34.7,-614.6 36,-614.9 37,-615.1 38,-615.3 39.1,-615.4 40.3,-615.6 41.6,-615.8 42.9,-616 44.2,-616.2 45.4,-616.4 46.6,-616.5 47.5,-616.5 48.4,-616.5 49.7,-616.5 51,-616.5 52.2,-616.5 53.1,-616.4 54.4,-616.2 55.6,-616 56.9,-615.8 58.2,-615.6 59.5,-615.4 60.9,-615.2 62.1,-615 63.2,-614.8 64.3,-614.5 65.5,-614.3 66.4,-614 67.6,-613.6 68.8,-613.2 70,-612.8 71.1,-612.4 72.3,-612 73.1,-611.7 74.1,-611.2 75.1,-610.8 76.6,-610.1 77.8,-609.5 79,-608.9 80.3,-608.3 81.6,-607.6 82.7,-607 83.8,-606.4 85.2,-605.6 86.3,-604.9 87.8,-604.1 89,-603.4 90.2,-602.7 91.3,-602 92.7,-601.1 93.8,-600.4 95.2,-599.5 96.6,-598.6 97.8,-597.8 99.1,-597 100.5,-596 101.6,-595.2 102.7,-594.5 104,-593.7 105.3,-592.8 106.4,-592 107.9,-591 109.5,-589.8 111.1,-588.5 112.4,-587.5 113.7,-586.5 114.9,-585.5 116.6,-584.3 118.1,-583.3 119.5,-582.2 121.1,-581 122.5,-579.9 123.4,-579 124.6,-577.9 125.9,-576.8 127.5,-575.5 129.1,-574.2 130.7,-572.9 132.3,-571.5 133.9,-570.1 135.2,-568.9 136.6,-567.5 138,-566.1 139.6,-564.7 141.1,-563.4 142.6,-562 144,-560.8 145.6,-559.4 146.8,-558.2 148.1,-556.9 149.5,-555.5 150.9,-554.1 152.1,-552.9 153.5,-551.3 154.9,-549.7 156.3,-548.1 157.6,-546.6 158.8,-545.2 160.1,-543.8 161.7,-542.2 163,-540.8 164.3,-539.4 165.6,-538 166.7,-536.8 167.7,-535.6 168.8,-534.4 170,-533.1 171.2,-531.7 172.4,-530.3 173.6,-528.9 174.8,-527.5 176,-526.1 177.2,-524.8 178.4,-523.4 179.4,-522.2 180.4,-521 181.6,-519.6 182.9,-518.1 184.1,-516.8 185.2,-515.6 186.4,-514.2 187.4,-513 188.4,-511.8 189.4,-510.6 190.5,-509.3 191.7,-508.1 192.9,-506.8 194.1,-505.6 195.3,-504.4 196.4,-503.3 197.4,-502.1 198.4,-500.9 199.4,-499.6 200.4,-498.4 201.5,-497.1 202.5,-496 203.5,-495 204.5,-494 205.6,-492.9 206.8,-491.6 208,-490.3 209.2,-489 210.4,-487.7 211.5,-486.5 212.5,-485.5 213.5,-484.5 214.5,-483.5 215.4,-482.6 216.2,-481.8 217.2,-480.6 218.2,-479.4 219.2,-478.2 220.3,-476.9 221.3,-475.6 222.2,-474.6 223,-473.7 223.8,-472.8 224.6,-472 225.6,-471.1 226.3,-470.4 227,-469.7 227.8,-468.8 228.8,-467.6 229.8,-466.4 231,-465.1 232.1,-463.8 233.1,-462.8 233.8,-462.1 234.3,-461.5 234.9,-460.7 235.6,-460 236.2,-459.2 236.9,-458.3 237.8,-457.3 238.6,-456.5 239.3,-455.6 240.1,-454.8 240.7,-454.1 241.3,-453.4 241.8,-452.9 242.3,-452.4 242.9,-451.6 243.7,-450.7 244.4,-450 245.1,-449.1 246.1,-448 246.8,-447.2 247.5,-446.3 248.2,-445.3 249.1,-444 249.7,-442.9 250.4,-441.7 251.1,-440.4 251.7,-439.1 252.2,-437.8 252.7,-436.5 253.1,-435.3 253.3,-434.4 253.5,-433.2 253.5,-432.3 253.5,-431.3 253.5,-430 253.5,-428.6 253.4,-427.4 253.3,-426.3 253.1,-425.2 252.8,-424.2 252.3,-423 251.9,-421.9 251.5,-420.8 251,-419.7 250.6,-418.8 250.4,-418.2 250.1,-417.7 249.8,-417.2 249.3,-416.5 248.8,-415.8 248.1,-415.1 247.3,-414 246.3,-412.8 245.2,-411.5 244.1,-410.2 243.1,-409 242.3,-408.1 241.3,-407 240.7,-406.2 240,-405.5 239.3,-404.6 238.1,-403.2 237.2,-401.9 236.4,-400.7 235.6,-399.5 234.8,-398.1 234.5,-397.2 234.1,-396.1 233.7,-394.7 233.4,-393.1 233.2,-391.7 233,-390 233.1,-388.3 233.2,-386.9 233.3,-385.6 233.6,-383.9 233.9,-382.5 234.1,-381.5 234.4,-380.2 234.7,-378.9 234.8,-378.1 235,-377.3 235.3,-375.9 235.6,-374.8 236,-373.2 236.5,-371.6 237,-369.7 237.4,-368.4 237.7,-367.1 238,-366.3 238.2,-365.4 238.4,-364.4 238.6,-363.4 238.9,-362.4 239.1,-361.4 239.4,-360.1 239.7,-359.2 240,-358.3 240.3,-357.1 240.6,-355.8 240.9,-354.9 241.1,-354 241.3,-352.9 241.6,-351.7 241.9,-350.6 242.1,-349.5 242.3,-348.4 242.7,-347.1 242.9,-346.1 243.1,-345.1 243.5,-343.7 243.9,-342.3 244.1,-341.2 244.5,-339.8 244.9,-338.4 245.1,-337.4 245.3,-336.4 245.7,-335 245.9,-334 246.1,-333 246.4,-332 246.8,-330.4 247,-329.3 247.4,-327.7 247.8,-326.1 248.1,-324.5 248.4,-323.4 248.8,-321.8 249,-320.7 249.2,-319.6 249.6,-318.1 249.9,-316.7 250.1,-315.8 250.4,-314.9 250.8,-313.5 251,-312.4 251.3,-311.3 251.6,-310.1 251.9,-308.4 252.1,-307.2 252.5,-305.8 252.8,-304.4 253.1,-303 253.4,-302 253.8,-300.6 254,-299.4 254.4,-297.9 254.8,-296.5 255.1,-295.2 255.4,-294.1 255.8,-292.7 256,-291.6 256.2,-290.5 256.6,-289.1 256.9,-287.9 257.1,-287.1 257.3,-286.1 257.7,-284.7 257.9,-283.6 258.1,-282.5 258.4,-281.4 258.8,-280.1 259,-279.1 259.4,-277.8 259.8,-276.5 260.1,-275.2 260.3,-274.3 260.7,-272.9 260.9,-271.8 261.1,-270.7 261.3,-269.6 261.7,-268.1 261.9,-267.2 262.1,-266.3 262.4,-265.1 262.8,-263.9 263,-263.1 263.2,-262.3 263.5,-261.5 263.8,-260.3 264.1,-259.1 264.5,-257.5 265,-255.7 265.5,-253.9 265.9,-252.8 266.2,-251.7 266.6,-250.7 266.9,-249.9 267.2,-249.1 267.7,-247.8 268.3,-246.5 268.7,-245.5 269.2,-244.5 269.6,-243.5 270.3,-242.3 270.9,-241.1 271.8,-239.6 273,-237.8 274.3,-236 275.3,-234.7 276.4,-233.5 277.4,-232.5 278.6,-231.4 279.8,-230.3 281.2,-229.2 282.6,-228.1 284.1,-227 285.1,-226.4 286.5,-225.5 287.6,-224.9 289,-224.1 290.7,-223.4 292.4,-222.6 293.7,-222.2 295,-221.8 296.4,-221.4 297.3,-221.1 298.2,-220.9 299.1,-220.7 300.4,-220.3 301.4,-220.1 302.7,-219.9 304,-219.7 305.3,-219.4 306.2,-219.3 307.4,-219.1 308.3,-218.9 309.6,-218.7 311,-218.5 312.4,-218.3 313.4,-218.2 314.4,-218.1 315.5,-217.9 316.7,-217.8 318,-217.7 319.3,-217.5 320.9,-217.3 322,-217.2 322.9,-217.1 324.3,-216.9 325.7,-216.8 327,-216.6 328.3,-216.4 329.6,-216.2 330.7,-216 332,-215.8 333.2,-215.7 334.5,-215.5 335.8,-215.3 337,-215.1 338.3,-214.9 339.7,-214.7 341,-214.5 342.4,-214.3 343.9,-214.1 345.4,-213.9 346.7,-213.7 348,-213.5 349.6,-213.2 351,-213 352.2,-212.8 353.5,-212.6 354.8,-212.4 356.3,-212.2 357.6,-212 358.8,-211.8 359.9,-211.6 361.3,-211.3 362.4,-211.1 363.5,-210.9 365.1,-210.6 366.6,-210.2 367.9,-210 368.9,-209.8 370.2,-209.4 371.2,-209.1 372.4,-208.9 373.5,-208.6 374.6,-208.3 375.6,-208 376.7,-207.6 377.7,-207.2 378.7,-206.8 380.1,-206.2 381.3,-205.8 382.2,-205.5 383.1,-205.1 384.3,-204.6 385.1,-204.2 386.2,-203.6 387.3,-202.9 388.4,-202.3 389.6,-201.5 390.8,-200.7 391.7,-200.1 392.6,-199.5 393.5,-198.7 394,-198.3 394.6,-197.8 395.3,-197.1 396.1,-196.3 397.2,-195.3 398.4,-194.1 399.6,-192.9 400.6,-191.8 401.5,-190.8 402.3,-189.8 403,-188.8 403.6,-187.9 404.3,-187 405,-185.9 405.5,-185.1 406,-184.2 406.7,-182.9 407.4,-181.3 408.1,-179.9 408.7,-178.5 409.3,-177 409.7,-175.9 410,-175.1 410.4,-173.8 410.8,-172.5 411.1,-171.5 411.3,-170.3 411.7,-168.7 411.9,-167.6 412.1,-166.5 412.3,-165.2 412.5,-164.1 412.5,-163.2 412.5,-162 412.5,-160.8 412.5,-159.6 412.5,-158.3 412.5,-157 412.5,-155.8 412.5,-154.5 412.5,-153.3 412.5,-152.2 412.4,-150.9 412.3,-149.5 412.1,-148.2 411.9,-146.8 411.7,-145.3 411.6,-144.2 411.4,-143 411.2,-141.7 411,-140.5 410.8,-139.4 410.6,-138.3 410.4,-136.9 410.2,-135.6 410,-134.3 409.8,-133 409.5,-131 409.2,-129.7 409,-128.4 408.8,-127.1 408.4,-125.3 408.1,-124.1 407.9,-122.9 407.6,-121.1 407.2,-119.3 407,-117.9 406.8,-116.5 406.4,-114.6 406.1,-113.2 405.9,-111.9 405.6,-110.1 405.2,-108.4 405,-106.9 404.8,-105.4 404.4,-103.6 404.1,-102.1 403.9,-100.6 403.6,-98.9 403.2,-97.1 403,-95.6 402.7,-93.9 402.3,-91.9 402,-90.4 401.8,-89 401.4,-87 401.1,-85.5 400.9,-84.2 400.6,-82.4 400.2,-80.5 400,-79.1 399.7,-77.2 399.3,-75.1 399,-73.2 398.8,-71.5 398.5,-69.8 398.2,-68.2 398,-66.6 397.8,-65.2 397.5,-63.8 397.2,-62 397,-60.3 396.8,-58.9 396.4,-57.1 396.1,-55 395.9,-53.4 395.6,-52 395.2,-50.2 395,-48.6 394.8,-47.2 394.5,-45.8 394.2,-44 394,-42.4 393.8,-40.8 393.5,-39.3 393.3,-37.7 393.1,-36.1 392.9,-34.5 392.7,-33.1 392.5,-31.7 392.2,-29.8 392,-28.4 391.8,-26.9 391.6,-25.2 391.4,-23.5 391.2,-21.9 391,-20.3 390.8,-18.7 390.6,-17.2 390.5,-15.4 390.5,-14 390.5,-12.3 390.5,-10.9 390.5,-9.4 390.5,-8 390.5,-6.7 390.5,-5.4 390.6,-3.6 390.7,-2 390.8,-0.6 390.9,0.8 391.1,2.1 391.3,3.5 391.5,4.8 391.7,6.2 392,7.6 392.3,9.3 392.5,10.5 392.7,11.7 393.1,13.4 393.4,15.1 393.6,16.3 394,17.9 394.4,19.5 394.7,20.6 395.1,22.1 395.7,23.8 396.1,25.1 396.6,26.4 397.1,27.9 397.6,29.1 398,30.4 398.5,31.7 399.2,33.4 399.8,34.8 400.5,36.4 401.2,37.7 401.8,38.9 402.5,40.2 403.3,41.6 404,42.7 404.6,43.8 405.6,45.6 406.3,46.9 407.2,48.5 408,50.1 408.9,51.7 409.5,52.7 410.3,54.1 411.1,55.5 412,56.9 412.8,58.3 413.8,59.9 414.6,61.2 415.3,62.3 416.2,63.8 417.2,65.3 418,66.5 418.9,67.9 419.8,69.4 420.7,70.8 421.7,72.3 422.8,74 423.7,75.4 424.7,76.8 425.5,78 426.3,79.3 427.1,80.7 428.2,82.3 429.1,83.6 430.1,85.1 431,86.4 431.8,87.7 432.5,89 433.4,90.5 434.2,91.8 435.1,93.3 436.1,94.8 437.2,96.3 438.1,97.6 439.1,99.1 440,100.4 440.8,101.6 441.6,102.9 442.5,104.3 443.3,105.4 444.2,106.8 445.2,108.2 446.2,109.7 447,111.1 447.8,112.5 448.7,113.9 449.5,115.1 450,116 450.8,117.2 451.6,118.4 452.4,119.7 453.1,121 453.9,122.2 454.7,123.4 455.5,124.7 456,125.6 456.8,126.9 457.6,128.3 458.3,129.6 458.9,130.8 459.6,132 460.2,133.3 460.8,134.5 461.2,135.5 461.8,136.9 462.3,138.3 462.8,139.5 463.2,140.8 463.7,142.1 464.1,143.4 464.5,144.7 464.8,145.8 465.2,147.2 465.5,148.6 465.8,149.7 466.1,150.8 466.3,152 466.4,153 466.5,154.2 466.5,155.4 466.6,157 466.7,158.5 466.8,159.8 466.9,160.9 467,162 466.9,163.1 466.8,164.1 466.7,165.5 466.6,167 466.5,169 466.5,170.8 466.5,172.6 466.4,174.1 466.2,175.9 466,177.2 465.8,178.4 465.5,179.6 465.2,181.1 465,182.2 464.7,183.3 464.3,184.6 463.9,185.9 463.6,186.8 463.2,188 462.7,189.4 462.3,190.5 461.9,191.6 461.4,192.7 460.8,194 460.3,195 459.8,196 459.3,197 458.6,198.3 458,199.4 457.4,200.4 456.8,201.4 456.1,202.7 455.6,203.7 455,204.5 454.3,205.5 453.3,206.8 452.5,207.9 451.7,209 450.7,210.4 449.8,211.7 449.1,212.7 448.2,213.7 447.1,215 446.3,215.9 445.6,216.8 444.8,217.8 444,218.8 443.3,219.6 442.6,220.4 441.6,221.4 440.6,222.4 439.6,223.4 438.6,224.4 437.6,225.4 436.6,226.4 435.6,227.5 434.6,228.6 433.4,229.8 432,231.3 430.8,232.6 429.7,233.8 428.7,234.9 427.6,236.1 426.7,237.1 425.8,238.1 424.6,239.3 423.4,240.5 422.6,241.4 421.5,242.6 420.4,243.8 419.6,244.7 418.5,245.9 417.3,247.1 416.2,248.1 415,249.3 413.5,250.9 412.2,252.3 411,253.7 410,254.9 408.6,256.4 407.5,257.5 406.5,258.5 405.5,259.6 403.9,261.2 402.8,262.3 401.7,263.4 400.4,264.8 399.1,266.1 398,267.3 396.9,268.5 395.8,269.8 394.9,270.8 393.5,272.2 392.5,273.1 391.3,274.3 389.9,275.6 388.4,277.1 387.3,278.3" style="stroke: rgb(59, 130, 246); stroke-width: 7;"></polyline><polyline vector-effect="non-scaling-stroke" fill="none" points="386,279.8 384.9,281 383.8,282.3 382.5,283.6 381.3,284.8 380.1,286.1 378.6,287.8 377.2,289.3 376.1,290.5 374.8,292 373.5,293.5 372.4,294.6 371.2,295.9 369.7,297.6 368.4,299 367.1,300.3 365.9,301.6 364.7,302.9 363.5,304.1 362.3,305.3 361.1,306.6 359.7,308.2 358.5,309.5 357.3,310.9 356.1,312.3 354.8,313.7 353.7,314.8 352.3,316.1 350.9,317.6 349.5,319.1 348.1,320.5 346.5,322.2 345,324 343.7,325.4 342.2,327 341,328.4 339.8,329.8 338.7,330.9 337.4,332.2 336.3,333.4 335,334.8 333.6,336.1 332.1,337.8 330.9,339.2 329.4,340.8 328.2,342.2 327.2,343.4 326.1,344.4 324.8,345.8 323.8,346.9 322.4,348.2 320.9,349.9 319.7,351.4 318.7,352.5 317.4,353.9 316.4,355.1 315.3,356.1 313.9,357.5 312.5,358.9 311.2,360.2 309.9,361.5 308.7,362.9 307.6,364.2 306.5,365.5 305.6,366.6 304.4,368 303.4,369.1 302.3,370.1 301,371.5 299.7,372.9 298.7,374 297.4,375.3 296.2,376.6 295.2,377.6 294,378.8 292.8,380 291.7,381.2 290.6,382.6 289.4,383.9 288.1,385.4 286.8,386.9 285.7,388.2 284.8,389.1 283.8,390.3 282.9,391.3 282,392.3 280.9,393.5 279.8,394.7 278.8,395.6 277.6,396.7 276.4,397.8 275.1,399.1 273.8,400.4 272.6,401.7 271.6,402.8 270.6,404 269.7,405 268.8,406 267.7,407.2 266.8,408.2 265.6,409.5 264.6,410.6 263.6,411.8 262.8,412.8 261.8,413.8 260.8,414.9 259.8,416 258.8,417 257.6,418.2 256.5,419.5 255.7,420.3 254.7,421.3 253.6,422.4 252.7,423.3 251.7,424.3 250.6,425.4 249.5,426.6 248.3,428 247.1,429.4 246,430.7 245,431.9 243.8,433.2 242.8,434.2 241.7,435.3 240.6,436.4 239.4,437.6 238.5,438.5 237.3,439.8 236.1,441.1 234.9,442.4 233.7,443.7 232.3,445.3 231.2,446.5 230.3,447.6 229.5,448.6 228.7,449.6 228.2,450.2 227.4,451.1 226.5,451.9 225.7,452.7 224.9,453.5 224,454.4 223.3,455.1 222.5,456 221.5,457 220.6,458 219.7,459 218.8,460 218,460.8 217.2,461.6 216.3,462.4 215.5,463.2 214.7,464 213.8,465 213,465.8 212.2,466.6 211.3,467.4 210.6,468.1 210,468.6 209.1,469.4 208.3,470.1 207.6,470.6 206.5,471.3 205.4,472.1 204.6,472.6 203.8,473.1 203,473.6 202.2,474 201.4,474.3 200.6,474.6 199.8,474.9 198.6,475.3 197.7,475.5 196.8,475.8 195.9,476.1 195,476.3 194.2,476.4 193.3,476.5 192.4,476.5 191.5,476.5 190.6,476.5 190,476.5 189,476.3 188,476.1 187,475.9 186,475.7 185,475.4 184.2,475.2 183.4,475 182.3,474.5 181.1,474 179.8,473.4 178.8,472.9 177.8,472.3 177.1,472 176.6,471.6 176.1,471.2 175.6,470.8 175,470.3 174,469.5 173,468.7 172.1,468 171.1,467.1 170,466.1 169.3,465.4 168.6,464.7 167.9,464 167.3,463.5 166.6,462.8 165.8,461.9 165,461 164.1,460 163.1,458.9 162.5,458.2 161.9,457.5 161,456.6 160.2,455.8 159.4,454.7 158.4,453.5 157.4,452.3 156.5,451.3 155.3,449.9 154.1,448.7 153,447.5 151.9,446.3 150.9,445.2 150.2,444.4 149.6,443.6 149,443 148.3,442.2 147.5,441.2 146.7,440.2 145.8,439.2 144.9,438.1 144.2,437.3 143.5,436.3 142.7,435.3 142,434.4 141.1,433.4 140.2,432.4 139.4,431.6 138.6,430.8 137.8,430 137.2,429.3 136.2,428.2 135.2,427.2 134.4,426.3 133.6,425.4 132.6,424.2 132,423.4 131.2,422.4 130.2,421.2 129.2,420 128.1,418.8 127,417.6 126.2,416.6 125.5,415.8 124.7,414.8 123.9,413.8 123.1,412.8 122.2,411.8 121.4,410.8 120.5,409.7 119.7,408.7 118.9,407.7 118.1,406.7 116.9,405.4 115.9,404.4 115.1,403.6 114.3,402.8 113.2,401.6 112.3,400.5 111.2,399.2 110.1,397.9 108.8,396.4 107.8,395.4 106.8,394.4 105.8,393.4 104.8,392.4 103.8,391.4 102.8,390.3 101.9,389.4 100.9,388.4 99.9,387.4 98.9,386.4 97.9,385.4 96.7,384.2 95.8,383.3 94.9,382.4 93.9,381.4 92.9,380.4 91.9,379.4 90.9,378.4 89.5,377.1 88.4,376.1 87.3,375.1 86.4,374.3 85.3,373.3 84.6,372.6 83.3,371.5 82,370.4 80.4,369 79,367.8 77.6,366.6 76.6,365.6 75.6,364.6 74.5,363.7 73.4,362.8 72.2,361.9 70.8,360.9 69.4,359.9 68.4,359.1 67.4,358.4 66.1,357.4 65.2,356.7 64.3,356 63.4,355.3 62.2,354.2 61.1,353.2 60,352.2 58.7,351 57.4,349.9 56.1,348.9 54.9,348 53.7,347.1 52.7,346.5 51.7,345.8 51,345.3 50.2,344.7 49.4,344.1 48.5,343.3 47.3,342.4 46.2,341.5 45.4,340.9 44.4,340.2 43.5,339.6 42.9,339.2 41.6,338.4 40.3,337.6 39.2,337 38.1,336.4 36.7,335.6 35.4,335.1 34.1,334.5 32.8,333.9 31.1,333.3 29.7,332.9 28.8,332.7 27.9,332.5 26.4,332.2 25.2,332 23.9,331.8 22.2,331.7 20.5,331.7 19.4,331.8 18.4,331.9 17.2,332 16,332.1 14.8,332.2 13.6,332.4 12.4,332.6 11.4,332.8 10.3,333.1 9.2,333.4 7.8,333.7 6.4,334.1 4.9,334.6 3.9,334.9 3,335.3 2.4,335.6 1.4,336 0.5,336.5 -0.5,337.1 -1.9,337.9 -3.8,339.2 -5.4,340.4 -6.8,341.5 -8.3,342.8 -9.4,343.9 -10,344.5 -10.5,345.2 -11.2,346 -11.8,346.9 -12.5,347.7 -13.1,348.6 -13.7,349.4 -14.3,350.4 -14.9,351.4 -15.4,352.5 -16,353.5 -16.5,354.5 -16.8,355.2 -17.1,355.8 -17.5,356.7 -17.8,357.9 -18.1,359.1 -18.5,360.3 -18.7,361.3 -18.9,362.6 -19.1,363.8 -19.3,365.1 -19.4,366.8 -19.5,368.7 -19.5,370.1 -19.5,371.5 -19.5,372.9 -19.4,374.3 -19.3,375.5 -19.2,376.6 -19,377.7 -18.7,379.2 -18.5,380.3 -18.2,381.4 -17.8,382.8 -17.5,384.1 -17.1,385.1 -16.7,386.1 -16.3,387.3 -15.9,388.1 -15.5,388.9 -15,389.8 -14.5,390.7 -14,391.4 -13.3,392.5 -12.6,393.6 -12.1,394.3 -11.6,395 -10.9,396 -10.1,397 -9.1,398.1 -8,399.4 -6.6,400.9 -5.1,402.4 -3.9,403.5 -2.9,404.5 -1.9,405.4 -1,406.2 -0.3,406.8 0.9,407.9 2.2,409 3.4,410 4.6,411 5.8,412 6.5,412.5 7.6,413.3 8.7,414.2 9.7,415 10.6,415.6 11.5,416.4 12.1,417 12.8,417.7 13.6,418.5 14.4,419.3 15.7,420.3 16.9,421.2 18,422 19,422.6 20.1,423.4 20.8,424 21.6,424.7 22.4,425.3 23.6,426.3 24.7,427.2 25.7,428 26.7,428.8 27.7,429.6 28.7,430.4 29.7,431.2 30.7,432 31.7,432.8 32.7,433.6 33.7,434.4 34.7,435.2 35.7,436 36.7,436.8 37.7,437.6 38.3,438.1 39.2,438.9 40.1,439.7 41.3,440.7 42.5,441.8 43.7,442.8 44.6,443.5 45.9,444.5 46.8,445.2 47.7,445.9 48.6,446.6 49.5,447.3 50.4,448.1 51.3,448.9 52.5,449.9 53.7,450.9 54.9,451.9 55.7,452.5 56.6,453.2 57.3,453.8 58,454.4 58.9,455.2 59.9,456.1 61.1,457.1 62.3,458.1 63.9,459.5 65.3,460.7 66.6,461.8 67.6,462.6 68.6,463.4 69.5,464.1 70.3,464.8 71.3,465.7 72.3,466.6 73.3,467.5 74.3,468.4 75.4,469.3 76.3,470 77.3,470.8 78.4,471.6 79.2,472.3 80.3,473.2 81.4,474 82.4,474.8 83.3,475.6 84.3,476.4 85.1,477.1 86.2,478 87.3,478.9 88.3,479.7 89.2,480.4 90,480.9 90.5,481.3 91.3,482.1 92.5,483.2 93.6,484.3 94.7,485.4 95.8,486.5 96.6,487.2 97.1,487.7 97.8,488.3 98.8,489.3 99.9,490.4 101.1,491.6 102.2,492.8 103.3,494 104.1,494.9 104.7,495.7 105.4,496.7 106.1,497.6 106.6,498.4 107.1,499.1 107.8,500.1 108.3,500.8 108.7,501.5 109.2,502.2 109.7,503.2 110.1,503.9 110.5,504.9 111.1,506.1 111.6,507.3 112.1,508.3 112.5,509.3 112.9,510.3 113.2,511.1 113.5,511.9 113.7,512.7 114,514 114.3,514.9 114.5,515.8 114.7,516.9 114.9,518.1 115,518.9 115.1,520.2 115.3,521.5 115.5,522.6 115.7,523.6 115.9,524.6 116,525.5 116,526.4 116,527.5 116,528.7 116,529.9 116,531.1 116,532.4 116,533.6 116,534.7 116,535.7 115.9,536.9 115.7,538.1 115.5,539.2 115.3,540.3 115.1,541.4 114.9,542.6 114.7,543.7 114.5,544.8 114.3,545.9 114.1,547 113.8,547.8 113.6,548.6 113.4,549.4 113,550.5 112.6,551.6 112.4,552.4 112,553.4 111.6,554.4 111.2,555.5 110.8,556.6 110.2,557.9 109.8,559 109.3,560.1 109,560.8 108.2,562.1 107.5,563.2 106.8,564.3 106.1,565.4 105.2,566.6 104.8,567.2 104.1,568.2 103.3,569.2 102.5,570.2 101.9,571.1 101.1,572 100.5,572.6 99.8,573.3 99.2,574 98.4,574.8 97.6,575.6 96.8,576.4 96.1,577.1 95.3,577.7 94.6,578.2 94.1,578.7 93.3,579.2 92.4,579.8 91.4,580.6 90.4,581.3 89.3,582 88.6,582.5 87.8,583 86.9,583.5 86,584 84.9,584.6 83.8,585.2 82.9,585.7 82.2,586 81.2,586.5 80.2,586.9 79.2,587.3 78.2,587.7 77.2,588.1 76.2,588.5 75.3,588.8 74.4,589.1 73.1,589.5 71.8,589.9 70.8,590.1 69.9,590.4 69,590.7 68.5,590.8 67.8,590.9 66.6,591.2 65.4,591.4 64.1,591.6 62.8,591.8 61.6,592 60.9,592 60,592.1 59.1,592.2 58.2,592.3 57.2,592.4 56.1,592.5 55.2,592.5 54,592.5 52.7,592.5 51.6,592.5 50.4,592.5 49.1,592.5 48.2,592.5 47.2,592.5 46.2,592.4 45.4,592.3 44.7,592.2 44,592.1 43,591.9 42,591.8 41,591.6 40,591.4 39,591.2 38.1,591 37.2,590.7 36.3,590.5 35.4,590.3 34.2,589.9 33.4,589.6 32.6,589.4 31.8,589.1 31,588.8 30.5,588.7 29.6,588.3 28.4,587.8 27.2,587.3 26,586.8 24.8,586.2 24,585.9 23.5,585.7 23,585.5 22,585 21,584.5 20.1,583.9 19.2,583.3 18.3,582.7 17.9,582.4 17.4,582 16.8,581.7 15.6,580.9 14.3,580 13,579 11.8,578.2 10.5,577.2 9.5,576.3 8.2,575.2 6.9,574.2 5.6,573.1 4.2,571.9 3,570.9 2.1,570.1 1.2,569.3 0.2,568.4 -1.1,567.3 -2.3,566.3 -3.5,565.3 -4.7,564.3 -5.9,563.3 -7,562.4 -8.1,561.5 -9.1,560.8 -10,560 -10.9,559.2 -11.5,558.6 -12.1,558.1 -12.8,557.4 -14,556.4 -15.1,555.5 -16.1,554.7 -17.1,553.9 -18.6,552.8 -19.7,552 -20.8,551.2 -21.9,550.4 -23,549.6 -23.6,549.1 -24.2,548.6 -24.8,548.1 -25.8,547.2 -26.8,546.2 -27.7,545.4 -28.7,544.5 -30.1,543.3 -31.1,542.5 -32.1,541.7 -33.2,540.7 -34.3,539.7 -35,539.1 -36.1,538.2 -37.2,537.3 -38.2,536.5 -39.2,535.7 -40.6,534.5 -41.6,533.6 -42.6,532.7 -43.6,531.8 -45.1,530.6 -46.2,529.7 -47.3,528.8 -48.4,527.9 -49.9,526.8 -50.8,526.1 -51.7,525.4 -52.6,524.7 -54.1,523.6 -55.2,522.7 -56.3,521.8 -57.4,520.9 -58.6,519.9 -59.6,519 -60.7,518.1 -61.8,517.2 -62.9,516.3 -64.3,515.1 -65.3,514.2 -66.2,513.3 -67.7,512 -69.2,510.7 -70.3,509.8 -71.4,508.9 -73,507.7 -74,506.9 -75,506.1 -76.4,505 -77.8,503.9 -78.8,503.1 -79.9,502.2 -81.1,501.2 -81.9,500.5 -83.1,499.5 -84.6,498.2 -86,497 -87.3,495.9 -88.6,494.8 -90,493.7 -91,492.9 -92,492.1 -93.4,490.9 -94.9,489.7 -95.9,488.8 -96.9,487.9 -98.3,486.6 -99.4,485.7 -100.5,484.7 -102,483.4 -103.5,482.1 -104.7,481.2 -106.2,480 -107.6,478.9 -108.6,478.1 -109.7,477.2 -111.3,475.9 -112.5,474.9 -113.7,473.9 -114.9,472.9 -116.3,471.8 -117.1,471.1 -118.3,470.1 -119.5,469.1 -120.8,468.1 -121.9,467.2 -123.1,466.2 -124.1,465.3 -125.1,464.4 -126.5,463.2 -127.8,462.1 -129,461.1 -130.4,460 -131.8,458.9 -132.8,458.1 -134.2,457 -135.6,455.9 -136.6,455.1 -137.8,454.2 -138.5,453.6 -138.8,453.3" style="stroke: rgb(251, 191, 36); stroke-width: 7;"></polyline></svg>