<svg xmlns="http://www.w3.org/2000/svg" xmlns:xlink="http://www.w3.org/1999/xlink" preserveAspectRatio="xMidYMid meet" height="100%" viewBox="-925 -506 1850 1040"><polygon vector-effect="non-scaling-stroke" fill="none" points="457.8,-363 457.1,-363 456.3,-363 454.8,-363 453.2,-363 451.9,-363 450.3,-363 448.9,-363 447.4,-363 445.8,-363 444.1,-363 442.5,-363 440.9,-362.9 439.3,-362.8 437.7,-362.7 436.2,-362.6 434.6,-362.5 432.8,-362.5 431.2,-362.5 429.6,-362.5 427.7,-362.5 426.1,-362.5 424.5,-362.5 422.3,-362.4 420.5,-362.3 418.9,-362.2 417.1,-362.1 415.4,-362 414.1,-362 412.6,-362 410.9,-362 409.1,-362 407.4,-362 405.6,-361.9 403.7,-361.8 401.8,-361.7 400,-361.6 398.2,-361.5 396.4,-361.5 394.6,-361.5 392.8,-361.5 391,-361.5 389,-361.5 387.3,-361.5 385.6,-361.5 383.4,-361.4 381.4,-361.3 379.6,-361.2 377.5,-361.1 375.4,-361 374.1,-361 372.6,-361 370.9,-361 369.2,-361 367.4,-361 365.3,-360.9 363.2,-360.8 361.1,-360.7 359,-360.6 357,-360.5 355,-360.5 353.1,-360.5 351.3,-360.5 349.5,-360.5 347.6,-360.5 345.9,-360.5 343.5,-360.4 341.2,-360.3 339.1,-360.2 337.3,-360.1 335.3,-360 333.9,-360 332.3,-360 330.4,-360 328.2,-360 326.2,-360 324.2,-360 322.2,-359.9 320.3,-359.8 318.5,-359.7 316.5,-359.6 314.5,-359.5 312.5,-359.5 310.5,-359.5 308.4,-359.5 306.3,-359.5 304.2,-359.5 301.8,-359.4 299.6,-359.3 297.7,-359.2 295.8,-359.1 293.9,-359 292.2,-359 290.3,-359 288.2,-359 286.1,-359 284,-359 282,-359 280,-359 277.9,-359 275.8,-359 273.7,-358.9 271.6,-358.8 269.4,-358.7 267.3,-358.6 265.2,-358.5 263.1,-358.5 260.6,-358.4 258.4,-358.3 256.4,-358.2 254.4,-358.1 252.4,-358 250.8,-358 249,-358 246.8,-358 244.6,-358 242.4,-358 240.2,-358 238,-358 236,-358 234,-358 232.1,-358 230.2,-358 228.3,-358 226.4,-358 224.5,-357.9 222.5,-357.8 220.5,-357.8 218.5,-357.8 216.4,-357.8 214.3,-357.9 212.2,-358 210.1,-358 208.1,-358 206.2,-358 204.3,-358.1 202.4,-358.2 200.4,-358.3 198.5,-358.4 196.8,-358.6 194.8,-358.8 192.8,-359 190.9,-359.3 189,-359.6 186.6,-359.9 184.6,-360.2 182.8,-360.5 180.7,-360.9 178.7,-361.3 177,-361.6 175.4,-361.9 173.3,-362.3 171.7,-362.5 170,-362.8 167.9,-363.2 165.8,-363.6 164.2,-363.9 162.1,-364.3 160,-364.7 158,-365.1 155.8,-365.4 153.6,-365.8 151.9,-366.1 149.6,-366.4 147.8,-366.7 146.2,-367 144.1,-367.3 142.1,-367.7 140.7,-368 138.8,-368.3 136.9,-368.7 135,-369.1 132.8,-369.4 130.6,-369.8 128.9,-370.1 126.9,-370.4 125,-370.8 123.1,-371.2 121.2,-371.5 118.9,-372 116.7,-372.4 114.9,-372.7 112.9,-373.1 110.9,-373.5 108.8,-373.9 106.9,-374.3 105,-374.6 102.9,-375 100.9,-375.4 99.4,-375.6 97.5,-376 95.6,-376.4 93.9,-376.7 91.9,-377.1 89.9,-377.5 87.9,-377.8 85.9,-378.2 83.9,-378.6 81.9,-378.9 79.9,-379.3 77.8,-379.7 75.7,-380 74,-380.3 71.9,-380.7 69.8,-381 68.2,-381.3 66.2,-381.7 64.2,-382 62.2,-382.4 60.3,-382.8 58.4,-383.1 56.5,-383.5 54.6,-383.9 52.8,-384.2 50.7,-384.6 48.6,-385 46.9,-385.2 44.6,-385.6 42.8,-385.9 41.2,-386.1 39.2,-386.5 37.2,-386.9 35.2,-387.3 33.2,-387.7 31.2,-388.1 29,-388.5 26.8,-388.9 25.2,-389.1 23,-389.5 20.8,-389.9 19.2,-390.1 17.1,-390.5 14.8,-390.9 13.1,-391.1 11,-391.5 8.7,-391.9 6.9,-392.1 4.7,-392.5 2.5,-392.9 0.5,-393.1 -1.3,-393.4 -3.5,-393.8 -5.4,-394 -7.5,-394.3 -9.6,-394.6 -11.7,-394.8 -14,-395.1 -16.2,-395.4 -18.5,-395.6 -20.6,-395.9 -22.7,-396.2 -24.8,-396.4 -26.7,-396.6 -28.5,-396.9 -30.5,-397.1 -32.5,-397.3 -34.3,-397.5 -36.4,-397.8 -38.5,-398 -40.5,-398.2 -42.7,-398.4 -44.7,-398.5 -46.4,-398.6 -48.4,-398.8 -50.5,-399 -52.6,-399.2 -54.7,-399.4 -57,-399.5 -58.9,-399.6 -60.9,-399.7 -62.9,-399.8 -64.9,-399.9 -66.7,-400 -68.4,-400 -70.4,-400.1 -72.5,-400.2 -74.4,-400.3 -76.5,-400.5 -78.9,-400.7 -80.9,-400.8 -82.8,-400.9 -85,-401 -87,-401 -88.9,-401 -90.9,-401 -92.7,-401 -94.2,-401 -96.2,-401.1 -98.2,-401.2 -100.2,-401.3 -102.5,-401.4 -105.2,-401.4 -107.4,-401.3 -109.4,-401.2 -111.3,-401.1 -113.1,-401 -114.7,-401 -116.5,-400.9 -118.5,-400.8 -120.5,-400.7 -122.5,-400.6 -124.5,-400.5 -126.8,-400.4 -129,-400.3 -131,-400.1 -133,-399.9 -135.4,-399.6 -137.3,-399.4 -139.1,-399.2 -141.4,-398.9 -143.5,-398.6 -145,-398.4 -146.7,-398.2 -148.6,-398 -150.4,-397.8 -152.2,-397.6 -154.2,-397.4 -156.4,-397.1 -158.4,-396.8 -160.2,-396.6 -162.2,-396.4 -164.4,-396.1 -166.2,-395.9 -168.2,-395.7 -170.5,-395.4 -172.6,-395.1 -174.4,-394.9 -176.5,-394.7 -178.8,-394.4 -180.5,-394.2 -182.2,-394 -183.9,-393.8 -185.9,-393.5 -187.5,-393.3 -189.2,-393.1 -191.2,-392.9 -193.2,-392.7 -195.1,-392.5 -197,-392.2 -198.9,-392 -201.1,-391.7 -203.2,-391.4 -205,-391.1 -207,-390.9 -209.3,-390.6 -211,-390.4 -212.7,-390.1 -214.4,-389.9 -216.4,-389.6 -218.1,-389.4 -219.9,-389.1 -222,-388.9 -224.3,-388.6 -226.1,-388.3 -228,-388 -230.4,-387.7 -232.5,-387.4 -234.1,-387.1 -236,-386.9 -237.8,-386.7 -239.6,-386.4 -241.4,-386.1 -243.3,-385.9 -245.1,-385.7 -247.1,-385.4 -249,-385.2 -250.8,-385 -253.2,-384.6 -255.3,-384.2 -257.2,-383.9 -258.9,-383.7 -260.8,-383.4 -262.5,-383.2 -264.2,-383 -266.3,-382.8 -268.2,-382.5 -270.4,-382.2 -272.2,-382 -274.3,-381.7 -276.2,-381.4 -277.9,-381.2 -279.7,-381 -281.5,-380.7 -283.2,-380.5 -285,-380.3 -287.3,-380 -289.1,-379.7 -291.4,-379.4 -293.6,-379.1 -295.5,-378.8 -297.2,-378.5 -299.1,-378.3 -300.9,-378.1 -302.7,-377.9 -304.6,-377.6 -306.7,-377.3 -308.6,-377 -310.3,-376.7 -312.5,-376.3 -314.6,-376 -316.3,-375.7 -318.4,-375.3 -320.3,-375 -321.7,-374.7 -323.7,-374.3 -325.7,-374 -327.4,-373.7 -329.5,-373.3 -331.5,-373 -332.9,-372.7 -334.8,-372.3 -336.6,-371.9 -338.5,-371.5 -340.4,-371.1 -342.3,-370.7 -344.2,-370.3 -346.1,-369.9 -347.4,-369.6 -349.2,-369.1 -351,-368.7 -352.6,-368.2 -354.2,-367.8 -355.9,-367.4 -357.6,-367 -359.3,-366.6 -360.9,-366.2 -362.5,-365.8 -364.4,-365.2 -365.8,-364.8 -367.3,-364.4 -368.9,-364 -370.7,-363.5 -372.1,-363.1 -373.5,-362.7 -375.2,-362.2 -376.5,-361.8 -377.6,-361.5 -379.1,-361.1 -380.6,-360.7 -382,-360.3 -383.4,-359.9 -384.7,-359.5 -386.1,-359.2 -387.5,-358.8 -388.5,-358.5 -389.5,-358.3 -391,-357.9 -392,-357.6 -393,-357.4 -394.4,-357 -396.1,-356.5 -397.3,-356.2 -398.5,-355.8 -399.7,-355.4 -400.9,-355.1 -401.8,-354.8 -402.8,-354.5 -404.2,-354.2 -405.6,-353.8 -406.6,-353.5 -407.9,-353.2 -409.1,-352.8 -409.9,-352.5 -411,-352.2 -412.1,-351.9 -412.9,-351.6 -414,-351.3 -415.1,-351 -415.9,-350.7 -416.7,-350.4 -417.5,-350.2 -418.5,-350 -419.5,-349.7 -420.5,-349.5 -421.8,-349.2 -423.2,-348.8 -424.4,-348.4 -425.7,-348 -427.4,-347.5 -428.8,-347.1 -430,-346.7 -431.3,-346.3 -434.2,-345.1 -436.6,-343.9 -439.5,-342.2 -442.5,-340.6 -445.1,-338.9 -446.1,-337.9 -447.5,-336.3 -448.4,-335.2 -449.2,-334 -450,-333 -450.6,-332.1 -451.1,-331.4 -451.6,-330.3 -452.1,-329.2 -452.6,-328.1 -453.2,-326.6 -453.5,-325.5 -453.7,-324.7 -454,-323.9 -454.3,-322.5 -454.5,-321.5 -454.8,-320.5 -455.2,-319.1 -455.5,-317.6 -455.7,-316.5 -455.9,-315.3 -456,-314.1 -456.1,-313.3 -456.2,-312.6 -456.4,-311.6 -456.6,-310.6 -456.8,-309.6 -456.9,-308.5 -457.2,-307 -457.4,-305.8 -457.6,-304.7 -457.8,-303.6 -458,-302.6 -458.2,-301.6 -458.4,-300.7 -458.6,-299.7 -458.8,-298.7 -459.2,-297.3 -459.4,-296.3 -459.6,-295.3 -460,-294 -460.4,-292.7 -460.6,-291.8 -460.9,-290.9 -461.3,-289.7 -461.5,-288.9 -461.9,-287.9 -462.3,-286.9 -462.7,-286 -463.1,-285.1 -463.6,-284.2 -463.9,-283.5 -464.7,-282.2 -465.5,-280.8 -466.2,-279.7 -466.9,-278.6 -467.7,-277.5 -468.2,-276.8 -468.7,-276.2 -469.4,-275.5 -470.2,-274.7 -470.9,-273.9 -471.5,-273.4 -472.3,-272.6 -473.3,-271.6 -474.2,-270.8 -475.2,-270 -476.5,-268.9 -477.6,-268.1 -478.6,-267.4 -479.6,-266.7 -480.8,-265.9 -481.7,-265.4 -482.8,-264.7 -483.7,-264.3 -484.8,-263.7 -485.7,-263.2 -486.8,-262.6 -487.7,-262.1 -488.8,-261.5 -489.7,-261 -490.8,-260.5 -491.7,-260 -492.6,-259.6 -493.7,-259 -494.8,-258.4 -496,-257.7 -497.2,-257 -498.4,-256.3 -499.5,-255.7 -500.6,-255.2 -501.4,-254.8 -502.6,-254.2 -503.8,-253.6 -504.7,-253.1 -505.9,-252.4 -507.3,-251.7 -508.3,-251.2 -509.5,-250.5 -510.7,-249.9 -512.2,-249.1 -513.5,-248.4 -514.8,-247.7 -515.9,-247.1 -517.5,-246.3 -518.5,-245.8 -519.5,-245.2 -520.7,-244.6 -522.2,-243.9 -523.2,-243.3 -524.4,-242.7 -525.9,-242 -527.2,-241.3 -528.4,-240.7 -529.9,-239.9 -531.3,-239.1 -532.4,-238.5 -533.7,-237.8 -534.9,-237.1 -536.2,-236.5 -537.4,-235.9 -538.6,-235.2 -539.9,-234.6 -541.4,-233.8 -542.5,-233.2 -543.7,-232.6 -544.9,-232 -546.1,-231.4 -547.3,-230.8 -548.6,-230.1 -550,-229.4 -551.4,-228.7 -552.7,-227.9 -554,-227.3 -555.2,-226.7 -556.4,-226 -557.6,-225.4 -558.9,-224.7 -560.1,-223.9 -561.3,-223.2 -562.5,-222.5 -563.7,-221.7 -564.6,-221.1 -565.7,-220.5 -566.9,-219.7 -568,-218.9 -569.2,-218 -570.6,-217 -571.6,-216.1 -572.7,-215.3 -573.9,-214.4 -575.1,-213.5 -576,-212.7 -577,-211.8 -577.9,-210.8 -578.7,-209.9 -579.5,-209 -580.7,-207.7 -581.8,-206.5 -582.7,-205.4 -583.5,-204.4 -584.5,-203.1 -585.2,-202.2 -585.9,-201.1 -586.8,-199.7 -587.6,-198.3 -588.1,-197.3 -588.8,-196 -589.4,-194.9 -590,-193.8 -590.6,-192.7 -591.3,-191.3 -591.7,-190.2 -592.2,-188.8 -592.6,-187.7 -593,-186.6 -593.4,-185.5 -593.9,-184.1 -594.3,-183 -594.8,-181.5 -595.4,-180 -595.8,-178.7 -596.1,-177.7 -596.6,-176.4 -596.9,-175.5 -597.2,-174.6 -597.6,-173.5 -598.2,-172.1 -598.6,-171 -599.2,-169.6 -599.7,-168.2 -600.2,-166.8 -600.6,-165.7 -601.1,-164.2 -601.5,-163 -601.9,-161.8 -602.4,-160.6 -602.9,-159.1 -603.4,-158 -603.8,-156.9 -604.3,-155.5 -604.7,-154.3 -605.2,-153.2 -605.7,-151.6 -606.3,-150 -606.8,-148.7 -607.4,-147.2 -607.8,-145.9 -608.3,-144.7 -608.7,-143.5 -609.3,-142.1 -609.8,-140.6 -610.4,-139.1 -610.8,-138 -611.4,-136.5 -611.8,-135.2 -612.3,-134 -612.8,-132.5 -613.4,-130.9 -613.9,-129.4 -614.5,-127.9 -615,-126.4 -615.6,-124.8 -616.1,-123.2 -616.6,-121.9 -617.1,-120.2 -617.6,-118.8 -617.9,-117.8 -618.5,-116.3 -619,-114.8 -619.5,-113.6 -620.1,-112.2 -620.8,-110.5 -621.3,-109.4 -621.9,-107.9 -622.5,-106.5 -623,-104.9 -623.5,-103.6 -624,-101.9 -624.5,-100.6 -625,-98.9 -625.5,-97.6 -626,-95.9 -626.5,-94.6 -627.1,-93 -627.7,-91.5 -628.3,-89.9 -628.9,-88.4 -629.5,-86.8 -630,-85.2 -630.5,-83.8 -631.1,-82.3 -631.7,-80.8 -632.3,-79.4 -632.9,-77.9 -633.6,-76.1 -634.1,-74.4 -634.6,-73 -635.1,-71.3 -635.6,-70 -636.2,-68.4 -636.8,-66.8 -637.4,-65.2 -638,-63.6 -638.6,-62 -639,-60.7 -639.5,-59.5 -640.1,-57.9 -640.6,-56.6 -641.2,-54.9 -641.8,-53.2 -642.4,-51.5 -642.8,-50.1 -643.5,-48.3 -644.2,-46.4 -644.8,-44.9 -645.4,-43.3 -646.1,-41.4 -646.6,-39.9 -646.9,-38.8 -647.5,-37.1 -648.1,-35.4 -648.6,-34.1 -649.1,-32.7 -649.8,-30.8 -650.3,-29.5 -650.8,-27.9 -651.4,-26.3 -652.1,-24.5 -652.6,-23.3 -653.2,-21.7 -653.8,-20.1 -654.4,-18.5 -654.9,-16.8 -655.5,-15.1 -656.1,-13.5 -656.6,-12.3 -657.2,-10.7 -657.7,-9.5 -658.3,-7.9 -658.8,-6.3 -659.5,-4.3 -660,-2.6 -660.6,-0.9 -661.2,0.7 -661.7,2 -662.2,3.3 -662.7,4.5 -663.3,6 -663.8,7.4 -664.5,9.2 -665,10.6 -665.7,12.3 -666.4,14.2 -667,15.9 -667.5,17.3 -668.1,19 -668.6,20.5 -669,21.8 -669.5,23.2 -670,24.7 -670.5,25.9 -671.1,27.4 -671.7,28.9 -672.3,30.3 -672.9,31.9 -673.6,33.9 -674.1,35.6 -674.6,37 -675.1,38.7 -675.6,40 -676.1,41.3 -676.6,42.5 -677.2,44 -677.8,45.5 -678.4,47.1 -678.8,48.3 -679.5,50.1 -680,51.6 -680.6,53.2 -681.1,54.7 -681.8,56.5 -682.2,57.7 -682.8,59.4 -683.3,60.7 -683.9,62.4 -684.4,63.8 -685,65.5 -685.5,66.7 -686,68.1 -686.6,69.5 -687.1,70.9 -687.7,72.4 -688.2,73.9 -688.8,75.5 -689.2,76.7 -689.8,78.4 -690.2,79.7 -690.8,81.4 -691.2,82.8 -691.7,84.2 -692.2,85.4 -692.8,86.8 -693.4,88.2 -694,89.6 -694.7,91.5 -695.2,93.1 -695.7,94.5 -696.1,95.8 -696.6,97.1 -697,98.3 -697.5,99.5 -698,100.9 -698.6,102.5 -699.1,104.1 -699.6,105.4 -700.1,106.9 -700.6,108.2 -701,109.3 -701.6,110.8 -702.1,112.2 -702.6,113.5 -703.1,115.1 -703.6,116.4 -703.9,117.4 -704.5,118.9 -705,120.3 -705.5,121.5 -706,123 -706.5,124.4 -706.8,125.3 -707.2,126.5 -707.7,127.8 -708.2,129.2 -708.8,130.6 -709.3,132 -709.9,133.3 -710.4,134.9 -710.9,136.1 -711.3,137.3 -711.9,138.8 -712.3,140.1 -712.8,141.3 -713.2,142.5 -714,144.6 -714.6,146.4 -715.2,148.3 -715.7,149.7 -716.3,151.4 -716.6,152.2 -717,153.3 -717.6,154.7 -718.1,156.2 -718.6,157.4 -719,158.6 -719.4,159.8 -719.9,161.1 -720.5,162.7 -721,164.3 -721.7,166.2 -722.3,167.8 -722.8,169.2 -723.2,170.3 -723.7,171.4 -724.1,172.5 -724.6,173.7 -725,174.9 -725.4,176.1 -725.8,177.3 -726.2,178.5 -726.6,179.6 -726.9,180.4 -727.3,181.4 -727.8,182.8 -728.4,184.6 -728.9,186.4 -729.4,188.2 -729.8,189.8 -730.2,191.4 -730.4,192.4 -730.6,193.5 -730.8,194.7 -731,195.9 -731,196.7 -731,197.4 -731,198 -731.1,199 -731.2,200.1 -731.3,201.3 -731.4,202.6 -731.4,204.4 -731.3,205.7 -731.2,206.9 -731.1,208 -731,209 -731,209.6 -730.9,210.6 -730.7,211.6 -730.5,212.6 -730.3,213.6 -730,214.9 -729.7,215.8 -729.5,216.7 -729.2,218 -728.9,219.3 -728.5,220.5 -728.2,221.7 -727.9,222.9 -727.5,224 -727.1,225.1 -726.9,225.9 -726.5,227 -726.1,228.1 -725.9,229 -725.5,230.3 -725.1,231.6 -724.8,232.6 -724.4,233.9 -724,235.2 -723.6,236.4 -723.2,237.6 -722.9,238.8 -722.5,240 -722.1,241.2 -721.8,242.1 -721.4,243.4 -721,244.7 -720.7,245.7 -720.3,246.9 -720,248.2 -719.7,249 -719.3,250.2 -719,251.4 -718.7,252.3 -718.3,253.6 -718,255 -717.6,256.3 -717.2,257.6 -716.9,258.9 -716.6,259.7 -716.2,261 -716,262 -715.7,262.9 -715.3,264.3 -715,265.7 -714.8,266.6 -714.5,267.5 -714.3,268.6 -714.2,269.5 -714.1,270.5 -714,271.6 -714,272.8 -714,274 -714,275 -714,276 -714,277 -714,278 -714,279 -714,280 -714,280.9 -714,281.7 -714,282.4 -714,283 -714.2,283.9 -714.4,284.8 -714.6,285.7 -715,286.9 -715.5,288.1 -715.9,289.1 -716.3,290.1 -716.9,291.3 -717.3,292.2 -717.7,293 -718,293.6 -718.4,294.2 -718.6,294.6 -719.2,295.4 -719.9,296.4 -720.6,297.4 -721.4,298.5 -722.4,299.7 -723.2,300.5 -723.8,301.2 -724.6,302 -725.4,302.8 -726.2,303.5 -727,304.3 -727.8,305.1 -728.6,305.9 -729.4,306.7 -730.2,307.5 -731,308.3 -732,309.2 -733,310.1 -734,311 -734.9,311.8 -735.7,312.5 -736.7,313.3 -737.7,314.1 -738.7,314.9 -739.8,315.9 -740.9,316.9 -741.9,317.8 -742.8,318.6 -743.7,319.4 -744.6,320.2 -745.5,321 -746.5,321.9 -747.6,322.9 -748.7,323.9 -749.8,324.9 -750.9,325.9 -751.7,326.7 -752.9,327.7 -754.1,328.7 -755.3,329.7 -756.6,330.8 -758,332 -759,333 -759.9,333.9 -761.1,334.9 -762.3,335.9 -763.5,336.9 -764.7,337.9 -766,339 -767,340 -768.1,341 -769.3,342.1 -770.4,343.1 -771.4,343.9 -772.6,344.9 -773.7,345.9 -774.7,346.7 -776,347.7 -777.4,348.9 -778.7,350.1 -779.9,351.2 -781,352.3 -782,353.3 -782.9,354.2 -783.9,355 -785,355.9 -786.2,356.9 -787.3,357.9 -788.5,358.9 -789.7,359.9 -790.9,360.9 -792.1,361.9 -793.2,362.8 -794.5,364 -795.5,365 -796.7,366.1 -797.9,367.2 -799.2,368.4 -800.2,369.3 -801.2,370.2 -802.2,371.1 -803.4,372.1 -804.5,373 -805.6,373.9 -807,375 -808.2,376 -809.2,376.9 -810.5,378 -811.9,379.2 -813,380.2 -814.2,381.3 -815.4,382.4 -816.4,383.4 -817.3,384.3 -818.2,385.2 -819.4,386.4 -820.6,387.6 -821.7,388.7 -822.8,389.8 -824.2,391.1 -825.2,392 -826.2,392.9 -827.3,393.8 -828.7,394.9 -829.9,395.9 -831.1,396.9 -832.3,397.9 -833.5,399 -834.5,400 -835.4,400.9 -836.6,401.9 -837.8,402.9 -839,403.9 -840.2,404.9 -841.5,405.9 -842.5,406.8 -843.5,407.7 -844.4,408.5 -845.4,409.4 -846.4,410.4 -847.3,411.3 -848.5,412.3 -849.8,413.4 -851,414.4 -852.2,415.4 -853.5,416.5 -854.4,417.4 -855.4,418.4 -856.4,419.4 -857.4,420.4 -858.3,421.3 -859.2,422.1 -860.2,422.9 -861.2,423.7 -862.2,424.5 -863.2,425.3 -864.2,426.2 -865.2,427.1 -866.2,428 -867.2,428.9 -868.3,429.8 -869.5,430.8 -870.5,431.7 -871.5,432.6 -872.5,433.5 -873.5,434.5 -874.5,435.5 -875.5,436.5 -876.4,437.4 -877.2,438.2 -878.2,439 -879.2,439.8 -880.2,440.6 -881.1,441.4 -882.1,442.3 -882.9,443.2 -883.7,444.1 -884.5,445 -885.5,445.9 -886.5,446.8 -887.3,447.6 -888.1,448.4 -888.9,449.2 -889.9,450.3 -890.8,451.3 -891.7,452.3 -892.9,453.5 -893.9,454.6 -894.6,455.4 -895.7,456.6 -896.8,457.8 -897.5,458.6 -898.2,459.4 -899,460.3 -899.6,461.2 -900.3,462 -900.9,462.9 -901.6,464 -902.2,464.9 -902.5,465.4 -902.7,466 -903,466.5 -903.4,467.1 -903.8,468.1 -904.3,469 -904.8,469.9 -905.2,470.9 -905.4,471.6 -905.8,472.7 -906.1,473.9 -906.4,475.2 -906.9,477 -907.4,479.1 -907.6,480.6 -907.8,482.2 -907.8,484.4 -907.6,486.1 -907.4,487.5 -907.1,489.3 -906.7,491 -906.4,492.4 -905.9,494 -905.2,495.9 -904.3,497.7 -903.5,499.5 -902.3,501.4 -901.3,503.1 -900.4,504.4 -899.3,505.7 -898.2,507 -897.4,507.8 -896,509 -894.4,510.3 -893.2,511.1 -892,511.9 -890.9,512.6 -889.9,513.1 -889.1,513.5 -888,514 -886.9,514.5 -885.8,515 -885.1,515.2 -884,515.6 -883.1,515.9 -882.1,516.1 -880.6,516.5 -879,516.9 -877.7,517.1 -876.4,517.3 -874.8,517.5 -873.6,517.5 -872.4,517.5 -870.8,517.4 -869.3,517.3 -868.1,517.2 -867,517.1 -866,517 -865.4,517 -864.2,516.9 -863,516.8 -861.8,516.7 -860.6,516.6 -859.4,516.4 -858.4,516.2 -857.4,516 -856.4,515.8 -855.4,515.6 -854.4,515.5 -853.7,515.4 -852.6,515.2 -851.5,515 -850.4,514.8 -849.4,514.6 -848.4,514.5 -847.4,514.3 -846.4,514.1 -845.4,513.9 -844.4,513.7 -843.4,513.5 -842.7,513.5 -841.6,513.3 -840.5,513.1 -839.4,512.9 -838.4,512.7 -837.4,512.5 -836.2,512.3 -835,512.1 -833.8,511.9 -832.6,511.7 -831.5,511.5 -830.5,511.3 -829.4,511.1 -828.3,510.9 -827.1,510.7 -825.9,510.5 -824.6,510.3 -823.4,510.1 -822.2,509.9 -820.8,509.7 -819.3,509.4 -818,509.2 -816.7,509 -815.3,508.8 -814.2,508.6 -812.5,508.3 -811.2,508.1 -809.9,507.9 -808.5,507.7 -806.7,507.3 -805.6,507.1 -804.4,506.9 -803.2,506.7 -801.8,506.4 -800.4,506.2 -798.9,506 -797.5,505.8 -795.5,505.4 -793.9,505.1 -792.7,504.9 -791.5,504.7 -790.1,504.5 -788.7,504.3 -787.3,504.1 -785.8,503.9 -784.3,503.6 -782.5,503.2 -781.2,503 -779.9,502.8 -778,502.4 -776.2,502.1 -774.8,501.9 -773.5,501.7 -771.5,501.3 -770.1,501.1 -768.7,500.9 -767.1,500.7 -765.5,500.4 -764,500.2 -762.5,500 -761,499.7 -759.1,499.3 -757.1,499 -755.7,498.8 -754.2,498.5 -752,498.2 -750.5,498 -749,497.7 -746.9,497.3 -744.9,497 -743.6,496.8 -742,496.5 -739.9,496.2 -738.3,496 -736.6,495.7 -734.9,495.4 -732.8,495.1 -731.2,494.9 -729.5,494.6 -727.4,494.3 -725.3,494 -723.8,493.7 -722.2,493.4 -720.2,493.1 -718.7,492.9 -716.9,492.6 -714.8,492.3 -712.8,492 -711.2,491.7 -709.1,491.3 -707.2,491 -705.5,490.7 -703.5,490.4 -701.3,490.1 -699.6,489.9 -697.4,489.5 -695.3,489.2 -693.6,488.9 -692.1,488.6 -690,488.2 -688.4,488 -686.7,487.7 -684.5,487.3 -682.4,487 -680.4,486.6 -678.5,486.2 -676.7,485.9 -675.1,485.7 -673,485.3 -671.4,485.1 -669.8,484.9 -667.5,484.5 -665.4,484.1 -663.9,483.9 -662.3,483.6 -660,483.2 -658.4,483 -656.9,482.8 -654.7,482.4 -652.6,482.1 -650.8,481.9 -648.8,481.5 -646.7,481.1 -645.2,480.9 -643.1,480.5 -641.4,480.1 -639.7,479.9 -637.8,479.6 -635.5,479.2 -633.9,479 -632.2,478.8 -630.1,478.4 -628.3,478.1 -626.7,477.9 -624.8,477.6 -622.6,477.2 -621,477 -619.3,476.7 -617.2,476.3 -615.3,476 -613.7,475.7 -611.5,475.3 -609.4,475 -607.9,474.8 -606.2,474.5 -604.1,474.2 -602.6,474 -600.9,473.7 -599.1,473.4 -597,473.1 -595.4,472.9 -593.6,472.6 -591.4,472.3 -589.3,472 -587.8,471.7 -585.7,471.3 -583.8,471 -582.5,470.8 -580.8,470.5 -578.5,470.2 -576.8,470 -575.1,469.8 -573.2,469.5 -571.2,469.2 -569.7,469 -568.2,468.8 -566.5,468.6 -564.7,468.4 -562.8,468.2 -560.9,468 -558.9,467.8 -557,467.6 -555.2,467.4 -553.5,467.2 -551.8,467 -549.9,466.8 -548.2,466.6 -546.3,466.5 -544.7,466.4 -542.9,466.3 -540.8,466.1 -538.6,465.9 -536.8,465.7 -535,465.6 -533.3,465.5 -531.8,465.5 -530.1,465.5 -528.3,465.5 -526.4,465.5 -524.5,465.5 -522.7,465.5 -520.9,465.5 -518.9,465.4 -517.2,465.3 -515.4,465.2 -513.6,465.1 -511.8,465.1 -510,465.2 -508.3,465.3 -506.5,465.4 -504.7,465.5 -503.1,465.5 -501.7,465.5 -499.8,465.6 -498.1,465.7 -496.3,465.8 -494.3,465.9 -492.1,466 -490.3,466.1 -488.4,466.2 -486.8,466.3 -485,466.5 -483.4,466.7 -481.7,466.8 -479.9,467 -477.9,467.2 -476.1,467.3 -474.3,467.4 -472.7,467.5 -471,467.7 -469.3,467.9 -467.5,468.1 -465.7,468.3 -463.9,468.5 -462.1,468.7 -460.2,468.9 -458.5,469.1 -456.9,469.3 -454.9,469.7 -453.1,469.9 -451.4,470.1 -449.9,470.3 -447.9,470.7 -446,470.9 -444.3,471.1 -442.4,471.5 -440.3,471.9 -438.5,472.1 -436.9,472.4 -435,472.8 -433.3,473 -431.8,473.2 -430,473.6 -428,473.9 -426.4,474.1 -425,474.3 -423,474.7 -421.3,474.9 -419.9,475.1 -418,475.5 -416,475.9 -414.4,476.1 -412.9,476.3 -411,476.7 -409.4,476.9 -407.9,477.1 -406.1,477.4 -404.4,477.8 -402.9,478 -401.4,478.2 -400,478.4 -398.4,478.6 -396.8,478.8 -395.3,479 -393.4,479.3 -391.4,479.6 -390,479.9 -388.6,480.1 -386.7,480.4 -385.3,480.6 -383.7,480.9 -382.1,481.1 -380.5,481.3 -379,481.5 -377.4,481.8 -376,482 -374.7,482.2 -372.8,482.5 -371.4,482.7 -369.9,482.9 -368.5,483.1 -366.6,483.4 -365.3,483.6 -363.6,483.9 -362.2,484.1 -360.8,484.3 -359.4,484.5 -357.9,484.7 -356.5,484.9 -355.1,485.1 -353.6,485.3 -352.2,485.5 -350.8,485.7 -349.5,485.9 -348.2,486.1 -347,486.3 -345.7,486.5 -344.3,486.7 -343,486.8 -341.7,487 -340.3,487.2 -339,487.4 -337.9,487.6 -336.7,487.8 -335.2,487.9 -333.7,488 -332.6,488 -331.5,488 -330.6,488 -329.6,488.2 -328.6,488.4 -327.6,488.5 -326.4,488.6 -325.1,488.7 -324.1,488.6 -323.1,488.5 -322,488.5 -321.1,488.5 -319.7,488.4 -318.4,488.3 -317.2,488.2 -316.1,488 -315,487.8 -314.5,487.7 -313.4,487.5 -312.3,487.2 -311.2,487 -309.8,486.7 -308.5,486.3 -307.6,485.9 -306.7,485.6 -305.8,485.2 -305.2,484.9 -303.9,484.4 -302.8,483.9 -301.5,483.3 -300.2,482.7 -298.7,482 -297.9,481.5 -296.8,480.8 -295.9,480.2 -294.8,479.4 -293.9,478.7 -293,478 -292.4,477.5 -291.8,477 -291,476.4 -289.9,475.4 -288.7,474.4 -287.2,473.1 -285.3,471.2 -283.8,469.6 -282.5,468.1 -281.3,466.6 -280.4,465.4 -279.9,464.7 -279.2,463.6 -278.6,462.7 -277.8,461.6 -277.1,460.5 -276.3,459.2 -275.8,458.3 -275.2,457.2 -274.6,456 -274,454.8 -273.5,453.8 -273,452.8 -272.4,451.5 -272,450.5 -271.4,449.3 -270.9,448.1 -270.2,446.6 -269.8,445.6 -269.3,444.6 -268.9,443.5 -268.3,442.1 -267.8,441 -267.3,439.9 -266.7,438.6 -266.2,437.6 -265.6,436.4 -265.1,435.2 -264.5,434 -264,432.8 -263.3,431.1 -262.9,429.9 -262.4,428.7 -261.9,427.5 -261.4,426.3 -260.9,425.3 -260.4,424.3 -259.8,423.1 -259.2,421.5 -258.6,420.1 -258.2,419 -257.6,417.6 -257.2,416.3 -256.7,415.2 -256.2,414.1 -255.6,412.7 -255,411.3 -254.4,410 -253.9,408.9 -253.4,407.5 -252.8,406.1 -252.4,405 -251.8,403.6 -251.3,402.2 -250.7,400.8 -250.3,399.6 -249.7,398.1 -249.3,396.9 -248.7,395.4 -248.3,394.1 -247.7,392.6 -247.3,391.4 -246.8,390.1 -246.5,389.1 -245.9,387.7 -245.5,386.5 -244.9,385 -244.4,383.6 -243.8,381.7 -243.4,380.3 -243,379 -242.6,377.6 -242.2,376.2 -241.9,375.3 -241.5,373.8 -241.1,372.3 -240.9,371.2 -240.5,369.7 -240.1,368.2 -239.9,367.3 -239.5,365.8 -239.1,364.3 -238.9,363.2 -238.5,361.7 -238.1,360 -237.9,358.8 -237.7,357.6 -237.4,356.3 -237.2,354.8 -237,353.5 -236.8,352.1 -236.6,350.6 -236.5,349.2 -236.3,347.9 -236.1,346.4 -235.9,345 -235.7,343.4 -235.5,341.7 -235.5,340.4 -235.5,339.3 -235.4,337.4 -235.2,335.4 -235,333.5 -234.8,331.3 -234.6,329.1 -234.5,327.6 -234.5,326.3 -234.5,324.8 -234.5,323.4 -234.5,322 -234.6,320.4 -234.7,319 -234.8,317.6 -234.9,316.3 -235,314.8 -235,313.6 -235.1,311.9 -235.2,310.3 -235.3,308.9 -235.5,307.3 -235.7,305.7 -235.8,304.6 -235.9,303.4 -236.1,301.7 -236.3,300.3 -236.5,298.9 -236.7,297.2 -236.9,295.6 -237.1,294.1 -237.3,292.7 -237.5,291.3 -237.7,289.9 -238.1,288.2 -238.4,286.9 -238.6,285.5 -239,283.7 -239.4,282.2 -239.7,280.6 -240.1,279 -240.5,277.5 -240.7,276.4 -241.1,274.7 -241.4,273.5 -241.7,271.9 -242.1,270.3 -242.6,268.3 -242.9,266.9 -243.3,265.5 -243.7,264 -244.1,262.4 -244.5,261 -244.9,259.6 -245.3,258.1 -245.7,256.6 -246.1,255.2 -246.4,254 -246.8,252.3 -247.2,250.6 -247.6,249.1 -248,247.5 -248.4,246 -248.8,244.6 -249.2,243.2 -249.6,241.7 -250,240.3 -250.4,238.8 -250.8,237.2 -251.2,235.6 -251.5,234.4 -251.9,232.6 -252.3,230.9 -252.7,229.3 -253.1,227.7 -253.5,226.1 -253.9,224.6 -254.3,223 -254.8,221.3 -255.2,219.6 -255.8,217.4 -256.2,215.7 -256.8,213.6 -257.2,212 -257.7,210.1 -258.1,208.7 -258.5,207.2 -258.9,205.8 -259.3,204.3 -259.7,202.8 -260.1,201.3 -260.5,199.8 -260.9,198 -261.4,196.1 -261.9,194.5 -262.3,192.9 -262.7,191.4 -263.1,189.9 -263.4,188.6 -263.7,187.1 -264.1,185.5 -264.5,183.8 -264.9,182.2 -265.3,180.6 -265.7,179 -266.1,177.4 -266.6,175.5 -267,174.1 -267.5,172.3 -267.9,170.8 -268.4,168.8 -268.8,167.2 -269.2,165.7 -269.6,164.1 -270.1,162.4 -270.5,161 -270.9,159.5 -271.3,158 -271.7,156.3 -272.1,154.7 -272.4,153.4 -272.9,151.7 -273.4,149.6 -273.8,148.1 -274.2,146.6 -274.7,144.5 -275.1,142.8 -275.4,141.5 -275.8,139.7 -276.3,137.7 -276.7,136.2 -277.1,134.7 -277.5,133.2 -277.9,131.7 -278.2,130.3 -278.5,128.9 -278.8,127.1 -279.2,125.3 -279.5,124 -279.8,122.2 -280.1,120.5 -280.4,119.1 -280.6,117.5 -280.8,115.8 -280.9,114.7 -281,113.2 -281,111.7 -281.1,110.2 -281.2,108.8 -281.2,107.1 -281.2,105.8 -281.2,104.5 -281.1,103.3 -281,102 -281,100.8 -280.9,99.6 -280.8,98.6 -280.7,97.7 -280.4,96.6 -279.9,95.3 -279.5,94 -278.9,92.5 -278.3,91 -277.7,89.7 -277.3,88.8 -276.7,87.7 -276.1,86.5 -275.5,85.3 -274.7,83.8 -273.7,82.1 -272.9,80.6 -272.1,79.2 -271.2,77.8 -270.6,76.6 -270.1,75.7 -269.5,74.7 -268.7,73.5 -268,72.3 -267.2,71.2 -266.2,69.5 -265.2,67.9 -264.2,66.3 -263.1,64.4 -262.1,62.8 -261.2,61.4 -260.4,60 -259.8,58.8 -259.2,57.8 -258.6,56.7 -258.1,55.8 -257.3,54.6 -256.5,53.4 -255.8,52.3 -255.1,51.2 -254.2,49.8 -253.5,48.5 -252.9,47.4 -252.1,46.1 -251.4,44.8 -250.9,43.9 -250.2,42.9 -249.6,41.9 -249,40.9 -248,39.3 -247.1,37.7 -246.4,36.5 -245.4,34.9 -244.5,33.3 -243.9,32.4 -243.3,31.4 -242.7,30.4 -242.1,29.5 -241.6,28.8 -241,27.8 -240.4,26.9 -239.8,25.9 -239.5,25.2 -238.9,24.2 -238.5,23.4 -237.7,22.2 -236.9,21 -236.1,19.8 -235.3,18.7 -234.5,17.6 -234,16.9 -233.1,15.8 -231.9,14.5 -231,13.4 -230,12.4 -228.4,11.1 -227.1,10.1 -226,9.4 -224.4,8.6 -222.7,7.7 -221.5,7.2 -220.3,6.9 -218.6,6.6 -217.2,6.5 -215.6,6.5 -213.8,6.5 -212.1,6.5 -211,6.6 -210,6.7 -209.3,6.8 -208.9,6.9 -208.6,7.1 -207.9,7.3 -207.1,7.6 -206.1,8 -205.1,8.4 -203.6,8.9 -202.4,9.4 -201,9.9 -199.8,10.3 -198.6,10.8 -197.6,11.2 -196.6,11.5 -195.7,11.9 -194.8,12.3 -193.6,12.8 -192.6,13.2 -191.6,13.7 -190.6,14.1 -189.6,14.6 -188.5,15 -187.4,15.5 -186,16 -184.8,16.4 -183.6,16.8 -182.6,17.2 -181.2,17.7 -180.1,18.1 -179,18.6 -177.6,19.1 -176.4,19.5 -175.2,19.9 -174,20.3 -172.8,20.6 -171.5,21 -170.1,21.4 -169.1,21.6 -167.7,22 -166.3,22.4 -165.3,22.6 -164.4,22.8 -162.9,23.1 -161.6,23.3 -160.3,23.5 -159,23.7 -157.6,23.9 -156.3,24.1 -155.2,24.2 -153.9,24.3 -152.5,24.5 -151.1,24.7 -149.9,24.8 -148.6,24.9 -147.4,25 -146,25 -144.6,25 -143.4,25 -141.7,25 -139.9,25 -138.1,25 -136.3,25 -134.5,25 -133,25 -131.6,25 -129.9,24.9 -128.3,24.8 -126.8,24.6 -125.4,24.4 -124,24.2 -123.1,24.1 -121.9,24 -120.4,24 -119.1,24 -117.7,24 -116.1,24 -114.7,24 -113.6,24 -112.1,24 -110.6,24 -109.2,24 -107.6,24 -106,24 -104.2,23.9 -102.5,23.7 -100.9,23.5 -99.3,23.3 -97.6,23.1 -96.4,23 -95,23 -93.5,23 -92.1,23 -90.5,23 -88.7,23 -87.1,23 -85.4,23 -83.5,22.9 -81.9,22.8 -80.5,22.7 -78.9,22.6 -77.4,22.4 -75.9,22.3 -74.4,22.2 -72.6,22.1 -70.8,22 -69.1,22 -67.4,22 -65.5,22 -63.9,22 -62,21.9 -60.2,21.8 -58.5,21.7 -57,21.6 -55.2,21.5 -53.7,21.5 -52.1,21.4 -50.4,21.3 -48.5,21.2 -46.8,21.1 -45,21 -43.3,21 -41.6,21 -40.1,21 -38.1,20.9 -36.4,20.8 -34.5,20.7 -32.8,20.6 -30.8,20.5 -29.3,20.5 -27.4,20.4 -25.7,20.3 -23.8,20.2 -21.9,20.1 -20,20 -18.1,19.9 -16.1,19.8 -14.4,19.7 -12.6,19.6 -10.7,19.5 -9.3,19.5 -7.6,19.5 -5.7,19.5 -4,19.5 -2.3,19.4 -0.4,19.3 1.3,19.2 3,19.1 5.1,18.9 6.9,18.8 8.9,18.7 10.8,18.6 12.7,18.5 14.2,18.5 16,18.5 17.6,18.5 19.4,18.4 21.1,18.3 22.8,18.2 25,18 27.1,17.8 28.9,17.7 30.8,17.6 32.8,17.5 34.2,17.5 35.7,17.5 37.5,17.5 39.3,17.5 41,17.5 42.7,17.4 44.7,17.3 46.7,17.2 48.5,17.1 50.4,17 52.7,16.9 54.5,16.8 56.2,16.7 58,16.6 59.7,16.5 61,16.5 62.8,16.5 64.7,16.5 66.4,16.5 68.3,16.4 70.3,16.3 72.1,16.2 73.7,16.1 75.9,15.9 77.8,15.8 79.5,15.7 81.1,15.6 83.1,15.5 84.5,15.5 86.1,15.5 88,15.5 89.7,15.5 91.5,15.4 93.4,15.3 95.3,15.2 97.1,15.1 99,15 100.9,14.9 102.9,14.8 104.6,14.7 106.3,14.6 108.1,14.5 109.5,14.5 111.3,14.5 113.2,14.4 115.1,14.3 117.4,14.1 119.6,13.9 121.2,13.7 123,13.6 124.7,13.5 126,13.5 127.7,13.5 129.7,13.5 131.5,13.5 133.4,13.5 135.7,13.3 137.6,13.1 139.2,12.9 141,12.7 142.7,12.5 144,12.5 145.7,12.5 147.7,12.5 149.5,12.5 151.4,12.5 153.3,12.5 155.1,12.4 157,12.2 158.9,12 160.7,11.8 162.3,11.6 163.8,11.5 165.3,11.5 166.9,11.5 168.5,11.5 171,10.7 173.3,9.9 175.2,9.1 177,8.2 178.7,7.3 179.6,7.2 180.4,7.1 182.5,7 184.6,7 186.6,7 189,6.9 191.5,6.8 193,6.7 194.5,6.6 196.5,6.5 198,6.5 199.8,6.4 201.4,6.3 203.2,6.2 204.6,6.1 206.5,6 208.1,6 210.1,5.9 211.8,5.8 213.8,5.7 215.4,5.6 217.2,5.5 218.5,5.5 220.2,5.5 221.7,5.5 223.2,5.4 225.2,5.3 227.2,5.2 228.8,5.1 230.3,5 232,5 233.2,5 234.4,5 235.6,5 236.8,5 238.8,5 240.5,5 242.2,5 244,5 245.9,4.9 246.8,4.8 247.7,4.7 248.6,4.6 249.7,4.6 250.9,4.7 252,4.8 253.4,4.9 254.8,5 256.2,5.1 257.3,5.2 258.4,5.3 259.4,5.5 260.6,5.7 261.5,5.8 262.5,5.9 263.8,6.1 264.9,6.2 265.8,6.3 267,6.5 268.1,6.7 269.1,6.9 270.1,7.1 271.5,7.4 272.9,7.8 274.4,8.2 275.6,8.6 276.8,9 278.1,9.7 279.1,10.4 280,11.1 281.7,12.8 283.4,14.5 284.8,16.4 286.3,18.4 287.9,20.5 289,22 290.1,23.5 291.3,24.7 292.4,25.9 293.8,27.4 296.6,28.7 300.2,30.1 303.4,31.1 307.1,31.8 310.3,32 312.2,31.9 313.2,31.6 314.6,31.4 315.7,31.1 317.6,30.7 319.1,30.2 320.7,29.8 322,29.4 323.1,29 324.4,28.4 325.8,27.9 327.2,27.3 328.6,26.7 329.9,26.1 330.3,25.9 331,25.5 331.9,25.1 332.8,24.7 334,24.2 335.2,23.7 336.3,23.2 337.2,22.8 338.3,22.2 339.2,21.8 340.3,21.2 341.2,20.8 342.1,20.3 343.2,19.8 344.6,19.1 346.1,18.5 347.8,17.7 349.5,17 351.1,16.3 352.4,15.8 353.6,15.2 354.6,14.8 355.6,14.3 356.7,13.8 358.2,13.1 359.5,12.5 360.8,11.9 362.3,11.2 363.5,10.7 364.5,10.2 365.5,9.8 366.9,9.1 368.1,8.6 369.3,8 370.3,7.5 371.6,6.9 372.7,6.4 373.9,5.9 375.4,5.2 377,4.6 378.3,4 379.4,3.6 380.8,3 382,2.5 383.1,2 384.9,1.2 387.1,0.1 389,-0.8 391,-1.7 393.3,-2.8 394.9,-3.5 396.1,-4 397.6,-4.7 399,-5.3 400.4,-6 401.8,-6.7 403.3,-7.4 404.7,-8.1 405.9,-8.7 407.3,-9.4 408.7,-10.1 410.1,-10.8 411.2,-11.4 412.7,-12.1 413.9,-12.6 415.1,-13.1 416.6,-13.8 418.1,-14.5 419.3,-15.1 420.6,-15.7 421.9,-16.3 423.1,-16.8 424.7,-17.5 426.2,-18.2 427.6,-18.9 429,-19.7 430.4,-20.4 431.8,-21.1 433.2,-21.9 434.8,-22.7 436.4,-23.5 437.8,-24.3 439.1,-24.9 440.8,-25.7 442.1,-26.4 443.5,-27 445.1,-27.7 446.6,-28.6 447.8,-29.2 449,-29.8 450.5,-30.6 452,-31.4 453.4,-32 454.9,-32.7 456.4,-33.4 457.9,-34.2 459.1,-34.9 460.6,-35.7 461.9,-36.5 463.6,-37.4 464.9,-38 466.2,-38.6 467.4,-39.3 468.7,-39.9 469.9,-40.6 471.4,-41.6 472.9,-42.6 474.2,-43.3 475.7,-44.2 476.9,-44.9 478.2,-45.6 479.5,-46.2 481,-47.1 482.2,-47.9 483.5,-48.6 484.6,-49.4 485.8,-50.2 486.7,-50.8 487.6,-51.4 489.4,-52.6 491,-53.4 492.5,-54.3 494,-55.2 495.8,-56.3 496.7,-56.9 497.9,-57.8 499.1,-58.6 500.3,-59.4 501.3,-60 502.2,-60.6 503.7,-61.6 505.2,-62.7 506.7,-63.8 508.1,-64.9 509.5,-65.9 510.1,-66.3 511.3,-67.1 512.5,-67.9 513.7,-68.7 515.3,-69.8 516.8,-70.9 517.7,-71.6 518.6,-72.3 519.5,-73 521.1,-74.3 522.7,-75.5 524.3,-76.7 525.9,-77.9 527.5,-79.1 528,-79.5 528.9,-80.2 529.8,-80.9 530.7,-81.6 531.9,-82.5 533.2,-83.5 534.4,-84.5 535.6,-85.5 536.8,-86.4 538,-87.3 539.1,-88.1 539.9,-88.7 540.7,-89.3 541.5,-90 543.3,-91.4 545.1,-92.8 546.9,-94.2 548.7,-95.6 550.5,-97 551,-97.5 552.1,-98.4 553.5,-99.6 554.9,-100.8 556.3,-102 557.8,-103.2 558.7,-104 559.3,-104.5 561.1,-106.1 562.9,-107.7 564.6,-109.3 566.3,-110.8 568,-112.3 568.5,-112.7 569.1,-113.2 570,-113.9 570.9,-114.7 571.8,-115.5 572.7,-116.3 574,-117.5 575,-118.4 576,-119.4 577,-120.4 578.6,-121.8 579.7,-122.7 580.8,-123.7 581.9,-124.6 583,-125.5 583.5,-126 584.8,-127.3 586.1,-128.6 587.4,-129.9 588.7,-131.2 590,-132.6 590.5,-133.2 591.4,-134.2 592.3,-135.1 593.2,-136 594.2,-136.9 595.7,-138.3 596.8,-139.3 597.9,-140.4 598.9,-141.5 600.2,-142.8 601,-143.6 602,-144.6 603,-145.6 604.1,-146.7 604.8,-147.4 606,-148.6 607,-149.7 608,-150.8 609,-151.8 610.4,-153.3 611.3,-154.3 612.2,-155.2 613.3,-156.4 614.4,-157.6 615.1,-158.4 616.1,-159.5 617.1,-160.7 618.2,-161.9 619.3,-163.1 620.7,-164.6 621.7,-165.8 622.7,-166.9 623.8,-167.9 624.9,-168.9 625.9,-169.8 627,-170.7 628,-171.6 628.9,-172.7 630.4,-174.4 631.7,-175.9 633,-177.4 634.7,-179.2 636.1,-180.6 636.9,-181.4 637.7,-182.2 638.5,-183 639,-183.5 640.4,-184.1 641.9,-185.8 643.4,-187.5 644.9,-189.1 646.4,-190.7 647,-192.3 647.5,-192.8 648,-193.3 648.5,-193.9 649.8,-195.4 651.1,-196.8 652.4,-198.2 653.7,-199.6 655.1,-201.1 656.2,-202.1 657.6,-203.5 658.9,-204.9 660.3,-206.3 661.9,-207.9 662.9,-209.1 663.7,-209.9 664.7,-210.9 665.7,-212 666.9,-213.4 668.3,-214.8 669.6,-216.2 670.8,-217.4 672.6,-219.3 673.9,-220.6 675.1,-221.9 676.3,-223.3 677.5,-224.7 678,-225.2 678.9,-226.2 679.8,-227.2 680.7,-228.1 681.9,-229.3 683.1,-230.6 684.2,-231.6 685.3,-232.6 686.6,-233.9 687.6,-234.9 688.6,-235.8 689.6,-236.9 690.6,-238 691.4,-238.8 692.6,-240 693.8,-241.3 694.7,-242.2 695.8,-243.3 696.9,-244.4 698.2,-245.7 699.6,-247.1 701.2,-248.7 702.6,-250.1 704.3,-251.7 705.4,-252.7 706.3,-253.6 707.5,-254.7 708.7,-255.8 709.6,-256.7 710.8,-257.9 712.1,-259.2 712.9,-260.1 713.9,-261.1 714.9,-262.1 716,-263.2 717.1,-264.2 718.2,-265.2 719.2,-266.1 720.5,-267.2 721.7,-268.1 722.9,-269 724.1,-269.9 725.6,-271.1 726.8,-272.2 727.7,-273.1 728.9,-274.3 730.3,-275.6 731.8,-276.8 733.5,-278.2 735.2,-279.5 736.7,-280.5 738,-281.4 739.2,-282.3 740.2,-282.9 741.5,-283.8 742.8,-284.8 744.2,-285.8 745.6,-286.9 747,-288 748.1,-288.9 749.5,-289.8 750.8,-290.7 751.7,-291.3 752.6,-291.9 753.9,-292.6 754.8,-293.2 756.1,-294 757.6,-295 759.4,-296.1 760.8,-297 762.4,-298 763.6,-298.7 764.9,-299.4 766,-300 767.3,-300.8 768.7,-301.5 770.1,-302.3 771.5,-303.1 772.9,-303.8 774,-304.4 775.1,-305 776.2,-305.6 777.5,-306.2 778.7,-306.8 780,-307.4 781.4,-308.1 783,-308.8 784.1,-309.3 785.2,-309.8 786.8,-310.5 788,-311.1 789.3,-311.8 790.6,-312.5 791.9,-313.2 792.8,-313.7 794.1,-314.3 795.1,-314.8 796.1,-315.3 797.2,-315.8 798.6,-316.4 799.9,-317 801.4,-317.6 802.9,-318.2 804.6,-319 806,-319.7 807.1,-320.2 808,-320.7 808.9,-321.2 809.9,-321.6 811.1,-322.1 812.5,-322.7 813.9,-323.3 815.6,-324 817,-324.7 818.3,-325.4 819.4,-326 820.5,-326.6 821.3,-327 822.5,-327.5 823.7,-327.9 824.9,-328.4 826.3,-329 828,-329.7 829.2,-330.3 830.2,-330.8 831.6,-331.5 832.8,-332 833.7,-332.5 834.7,-332.9 836,-333.5 837.1,-333.9 838.2,-334.4 839.3,-334.9 840.7,-335.6 841.9,-336.2 842.9,-336.7 844.2,-337.3 845.5,-337.8 846.7,-338.4 847.8,-338.9 849,-339.5 849.9,-339.9 851.2,-340.6 852.2,-341 853.2,-341.5 854.1,-341.9 855.3,-342.5 856.3,-343 857.3,-343.5 858.6,-344.1 859.9,-344.7 861.3,-345.4 862.5,-345.9 863.7,-346.5 864.6,-346.9 865.9,-347.6 866.8,-348 867.7,-348.4 868.6,-348.8 869.5,-349.2 870.4,-349.6 871.3,-350.1 872.2,-350.6 873.1,-351.1 874.3,-351.7 875.5,-352.3 876.7,-352.9 877.9,-353.5 879.1,-354.1 880,-354.6 880.8,-355.1 881.6,-355.6 882.4,-356.1 883.5,-356.7 884.6,-357.4 885.6,-358 886.8,-358.8 888.2,-359.9 889.3,-360.9 890.4,-361.8 891.2,-362.6 891.9,-363.2 892.4,-363.5 893.4,-364.2 894.8,-365.5 896.2,-366.8 897.5,-368 898.7,-369.3 899.4,-370.1 899.9,-371.1 900.5,-372.2 901.1,-373.3 901.7,-374.4 902.3,-375.8 902.7,-376.4 903,-376.9 903.3,-377.9 903.7,-378.8 904,-379.5 904.2,-380.4 904.4,-381.4 904.5,-382.1 904.6,-383.9 904.6,-385.9 904.6,-387.8 904.6,-389.8 904.5,-391.6 904.3,-392.6 904.2,-393.6 904,-394.5 903.8,-395.5 903.6,-396.8 903.2,-398.5 902.7,-400 902.2,-401.7 901.7,-403.3 901.2,-405.1 900.8,-406.2 900.5,-407.3 900.3,-408.3 900,-409 899.8,-409.3 899.7,-409.7 899.4,-410.8 899,-411.9 898.7,-413.1 898.2,-414.7 897.7,-416.3 897.3,-417.4 896.9,-418.5 896.4,-419.8 896,-420.6 895.6,-421.4 895.1,-422.2 894.7,-423 894.3,-423.8 893.9,-424.7 893.4,-425.8 893,-426.7 892.5,-427.8 892,-428.7 891.5,-429.8 891,-430.7 890.5,-431.8 890,-432.7 889.6,-433.6 889.3,-434.3 888.7,-435.6 888.2,-436.7 887.7,-437.7 887.2,-438.7 886.6,-439.7 886.4,-440.1 886,-440.8 885.5,-441.9 884.9,-443.1 884.4,-444.3 883.7,-445.7 883.2,-446.8 882.9,-447.6 882.6,-448.2 882.3,-448.8 882,-449.5 881.6,-450.4 880.9,-451.6 880.3,-452.9 879.6,-454.2 879.1,-455.2 878.3,-456.4 877.7,-457.4 877.1,-458.4 876.2,-459.7 875.3,-461 874.7,-461.9 874.2,-462.7 873.1,-464 872.4,-465 871.5,-466.1 870.7,-467.2 869.8,-468.3 869.2,-469.2 868.5,-470 868,-470.7 867.3,-471.5 866.3,-472.5 865.6,-473.2 864.9,-473.9 864.2,-474.6 863.5,-475.3 862.9,-475.8 862.3,-476.3 861.7,-476.8 860.7,-477.5 859.8,-478.1 859.1,-478.6 858.3,-479 857.6,-479.5 857.2,-479.7 855.7,-480.3 854.1,-481 852.5,-481.7 850.8,-482.3 849.1,-483 848,-483.3 847,-483.5 846,-483.8 845,-484.1 844,-484.3 843.5,-484.4 842.4,-484.7 841.3,-484.9 840.2,-485.1 838.9,-485.3 837.3,-485.5 835.9,-485.5 834.2,-485.4 832.3,-485.3 830.3,-485.1 827.8,-484.7 825.5,-484.2 823.3,-483.8 821.3,-483.3 819.4,-482.9 817.9,-482.5 816.6,-482.2 815.5,-481.9 814.4,-481.6 813.5,-481.3 812.8,-481.1 811.7,-480.8 810.6,-480.4 809.5,-480.1 807.8,-479.6 805.9,-479 804.2,-478.4 802.5,-477.8 800.6,-477.1 799.3,-476.5 798.4,-476.1 797.7,-475.7 796.5,-475.3 795.3,-474.8 794.1,-474.4 792.7,-473.8 791,-473.2 789.8,-472.6 788.6,-472.1 787.4,-471.5 786.4,-471.1 785.7,-470.7 784.5,-470.3 783.3,-469.8 782.1,-469.4 780.6,-468.8 779.1,-468.3 778.1,-467.8 777,-467.4 775.2,-466.6 773.7,-466 772.2,-465.3 770.4,-464.6 768.6,-463.8 767.5,-463.3 766.4,-462.8 765,-462.3 763.6,-461.7 762.5,-461.2 761,-460.6 759.5,-459.9 758,-459.2 756.8,-458.6 755.5,-458.1 754.7,-457.7 753.5,-457.3 752.6,-456.9 750.9,-456.3 749.3,-455.6 746.9,-454.7 744.7,-453.7 742.5,-452.8 740.8,-452 739.1,-451.3 738.1,-450.8 737,-450.4 735.6,-449.8 734.5,-449.4 733,-448.7 731.5,-448.1 730.2,-447.5 729.2,-447 727.9,-446.4 727,-446.1 725.7,-445.6 724.3,-445 722.9,-444.5 721.3,-443.8 719.7,-443.1 717.9,-442.3 716.3,-441.6 714.3,-440.8 712.8,-440.2 710.8,-439.3 709.4,-438.6 707.9,-438 706.8,-437.4 705.6,-436.9 704.5,-436.4 703.3,-436 702.2,-435.5 700.7,-434.9 699,-434.1 697.4,-433.4 695.6,-432.6 693.7,-431.8 691.9,-431 690.3,-430.4 688.5,-429.6 687,-428.9 685.6,-428.2 684.4,-427.6 683.3,-427 682.1,-426.5 680.9,-426 679.7,-425.5 677.9,-424.7 676.1,-423.9 674.8,-423.3 673.5,-422.7 671.9,-422 671,-421.7 669.7,-421.2 668.5,-420.7 666.7,-419.9 665.2,-419.2 663.7,-418.5 662.5,-417.9 661.3,-417.3 660.1,-416.8 658.9,-416.3 657.7,-415.8 656.2,-415.2 654.7,-414.6 653.5,-414.1 652.2,-413.6 650.4,-412.8 648.9,-412.1 647.4,-411.5 646.2,-410.9 644.7,-410.2 643.7,-409.8 642.3,-409.2 640.9,-408.6 639.5,-408 638.1,-407.4 636.7,-406.8 635.8,-406.4 634.4,-405.9 632.7,-405.3 631.4,-404.8 629.8,-404.2 628.2,-403.7 626.8,-403.1 625.5,-402.5 624.1,-402 622.7,-401.4 621.3,-400.8 619.9,-400.2 618.3,-399.6 616.8,-399 615.6,-398.5 614,-397.8 612.6,-397.2 611.6,-396.8 610.1,-396.2 608.4,-395.5 607,-395 605.7,-394.5 604.4,-394 603,-393.4 601.8,-393 600.3,-392.4 598.8,-391.8 597.3,-391.2 595.9,-390.7 594.3,-390.1 593,-389.6 591.7,-389.1 590.1,-388.5 588.9,-388 587.5,-387.4 586.2,-386.9 584.5,-386.3 583.1,-385.8 581.5,-385.2 579.9,-384.6 578.3,-384 577.1,-383.5 575.5,-382.9 573.8,-382.3 572.5,-381.9 570.8,-381.3 569.1,-380.7 567.8,-380.2 566.5,-379.7 565.1,-379.2 563.7,-378.7 562.3,-378.3 560.5,-377.7 559,-377.3 557.3,-376.7 556,-376.3 554.6,-375.8 553.1,-375.4 551.7,-374.9 550.3,-374.5 548.8,-374.1 547.3,-373.7 545.8,-373.3 544.3,-372.9 542.7,-372.5 541.1,-372 539.6,-371.6 538.2,-371.2 536.7,-370.8 535.5,-370.5 533.9,-370.2 532.2,-369.8 530.6,-369.4 529,-369.1 527.5,-368.7 526.3,-368.4 524.6,-368.1 523.2,-367.9 521.8,-367.6 520.3,-367.4 518.7,-367.2 517.4,-367 516,-366.8 514.6,-366.7 512.7,-366.5 511.1,-366.3 509.7,-366.1 508.2,-365.9 506.6,-365.7 505.3,-365.6 503.3,-365.4 501.4,-365.3 499.7,-365.1 498.1,-364.9 496.5,-364.7 495.5,-364.6 494.2,-364.5 492.7,-364.5 491.1,-364.4 489.7,-364.3 488.1,-364.2 486.7,-364.1 485,-364 483.4,-364 481.8,-364 479.9,-363.9 478.1,-363.8 476.7,-363.7 475.4,-363.6 473.8,-363.4 472.5,-363.3 471,-363.2 469.4,-363.1 467.5,-363 465.9,-363 464.3,-363 463.5,-363 462.7,-363" style="stroke: rgb(55, 65, 81); stroke-width: 10;"></polygon><polyline vector-effect="non-scaling-stroke" fill="none" points="457.8,-363 457.1,-363 456.3,-363 454.8,-363 453.2,-363 451.9,-363 450.3,-363 448.9,-363 447.4,-363 445.8,-363 444.1,-363 442.5,-363 440.9,-362.9 439.3,-362.8 437.7,-362.7 436.2,-362.6 434.6,-362.5 432.8,-362.5 431.2,-362.5 429.6,-362.5 427.7,-362.5 426.1,-362.5 424.5,-362.5 422.3,-362.4 420.5,-362.3 418.9,-362.2 417.1,-362.1 415.4,-362 414.1,-362 412.6,-362 410.9,-362 409.1,-362 407.4,-362 405.6,-361.9 403.7,-361.8 401.8,-361.7 400,-361.6 398.2,-361.5 396.4,-361.5 394.6,-361.5 392.8,-361.5 391,-361.5 389,-361.5 387.3,-361.5 385.6,-361.5 383.4,-361.4 381.4,-361.3 379.6,-361.2 377.5,-361.1 375.4,-361 374.1,-361 372.6,-361 370.9,-361 369.2,-361 367.4,-361 365.3,-360.9 363.2,-360.8 361.1,-360.7 359,-360.6 357,-360.5 355,-360.5 353.1,-360.5 351.3,-360.5 349.5,-360.5 347.6,-360.5 345.9,-360.5 343.5,-360.4 341.2,-360.3 339.1,-360.2 337.3,-360.1 335.3,-360 333.9,-360 332.3,-360 330.4,-360 328.2,-360 326.2,-360 324.2,-360 322.2,-359.9 320.3,-359.8 318.5,-359.7 316.5,-359.6 314.5,-359.5 312.5,-359.5 310.5,-359.5 308.4,-359.5 306.3,-359.5 304.2,-359.5 301.8,-359.4 299.6,-359.3 297.7,-359.2 295.8,-359.1 293.9,-359 292.2,-359 290.3,-359 288.2,-359 286.1,-359 284,-359 282,-359 280,-359 277.9,-359 275.8,-359 273.7,-358.9 271.6,-358.8 269.4,-358.7 267.3,-358.6 265.2,-358.5 263.1,-358.5 260.6,-358.4 258.4,-358.3 256.4,-358.2 254.4,-358.1 252.4,-358 250.8,-358 249,-358 246.8,-358 244.6,-358 242.4,-358 240.2,-358 238,-358 236,-358 234,-358 232.1,-358 230.2,-358 228.3,-358 226.4,-358 224.5,-357.9 222.5,-357.8 220.5,-357.8 218.5,-357.8 216.4,-357.8 214.3,-357.9 212.2,-358 210.1,-358 208.1,-358 206.2,-358 204.3,-358.1 202.4,-358.2 200.4,-358.3 198.5,-358.4 196.8,-358.6 194.8,-358.8 192.8,-359 190.9,-359.3 189,-359.6 186.6,-359.9 184.6,-360.2 182.8,-360.5 180.7,-360.9 178.7,-361.3 177,-361.6 175.4,-361.9 173.3,-362.3 171.7,-362.5 170,-362.8 167.9,-363.2 165.8,-363.6 164.2,-363.9 162.1,-364.3 160,-364.7 158,-365.1 155.8,-365.4 153.6,-365.8 151.9,-366.1 149.6,-366.4 147.8,-366.7 146.2,-367 144.1,-367.3 142.1,-367.7 140.7,-368 138.8,-368.3 136.9,-368.7 135,-369.1 132.8,-369.4 130.6,-369.8 128.9,-370.1 126.9,-370.4 125,-370.8 123.1,-371.2 121.2,-371.5 118.9,-372 116.7,-372.4 114.9,-372.7 112.9,-373.1 110.9,-373.5 108.8,-373.9 106.9,-374.3 105,-374.6 102.9,-375 100.9,-375.4 99.4,-375.6 97.5,-376 95.6,-376.4 93.9,-376.7 91.9,-377.1 89.9,-377.5 87.9,-377.8 85.9,-378.2 83.9,-378.6 81.9,-378.9 79.9,-379.3 77.8,-379.7 75.7,-380 74,-380.3 71.9,-380.7 69.8,-381 68.2,-381.3 66.2,-381.7 64.2,-382 62.2,-382.4 60.3,-382.8 58.4,-383.1 56.5,-383.5 54.6,-383.9 52.8,-384.2 50.7,-384.6 48.6,-385 46.9,-385.2 44.6,-385.6 42.8,-385.9 41.2,-386.1 39.2,-386.5 37.2,-386.9 35.2,-387.3 33.2,-387.7 31.2,-388.1 29,-388.5 26.8,-388.9 25.2,-389.1 23,-389.5 20.8,-389.9 19.2,-390.1 17.1,-390.5 14.8,-390.9 13.1,-391.1 11,-391.5 8.7,-391.9 6.9,-392.1 4.7,-392.5 2.5,-392.9 0.5,-393.1 -1.3,-393.4 -3.5,-393.8 -5.4,-394 -7.5,-394.3 -9.6,-394.6 -11.7,-394.8 -14,-395.1 -16.2,-395.4 -18.5,-395.6 -20.6,-395.9 -22.7,-396.2 -24.8,-396.4 -26.7,-396.6 -28.5,-396.9 -30.5,-397.1 -32.5,-397.3 -34.3,-397.5 -36.4,-397.8 -38.5,-398 -40.5,-398.2 -42.7,-398.4 -44.7,-398.5 -46.4,-398.6 -48.4,-398.8 -50.5,-399 -52.6,-399.2 -54.7,-399.4 -57,-399.5 -58.9,-399.6 -60.9,-399.7 -62.9,-399.8 -64.9,-399.9 -66.7,-400 -68.4,-400 -70.4,-400.1 -72.5,-400.2 -74.4,-400.3 -76.5,-400.5 -78.9,-400.7 -80.9,-400.8 -82.8,-400.9 -85,-401 -87,-401 -88.9,-401 -90.9,-401 -92.7,-401 -94.2,-401 -96.2,-401.1 -98.2,-401.2 -100.2,-401.3 -102.5,-401.4 -105.2,-401.4 -107.4,-401.3 -109.4,-401.2 -111.3,-401.1 -113.1,-401 -114.7,-401 -116.5,-400.9 -118.5,-400.8 -120.5,-400.7 -122.5,-400.6 -124.5,-400.5 -126.8,-400.4 -129,-400.3 -131,-400.1 -133,-399.9 -135.4,-399.6 -137.3,-399.4 -139.1,-399.2 -141.4,-398.9 -143.5,-398.6 -145,-398.4 -146.7,-398.2 -148.6,-398 -150.4,-397.8 -152.2,-397.6 -154.2,-397.4 -156.4,-397.1 -158.4,-396.8 -160.2,-396.6 -162.2,-396.4 -164.4,-396.1 -166.2,-395.9 -168.2,-395.7 -170.5,-395.4 -172.6,-395.1 -174.4,-394.9 -176.5,-394.7 -178.8,-394.4 -180.5,-394.2 -182.2,-394 -183.9,-393.8 -185.9,-393.5 -187.5,-393.3 -189.2,-393.1 -191.2,-392.9 -193.2,-392.7 -195.1,-392.5 -197,-392.2 -198.9,-392 -201.1,-391.7 -203.2,-391.4 -205,-391.1 -207,-390.9 -209.3,-390.6 -211,-390.4 -212.7,-390.1 -214.4,-389.9 -216.4,-389.6 -218.1,-389.4 -219.9,-389.1 -222,-388.9 -224.3,-388.6 -226.1,-388.3 -228,-388 -230.4,-387.7 -232.5,-387.4 -234.1,-387.1 -236,-386.9 -237.8,-386.7 -239.6,-386.4 -241.4,-386.1 -243.3,-385.9 -245.1,-385.7 -247.1,-385.4 -249,-385.2 -250.8,-385 -253.2,-384.6 -255.3,-384.2 -257.2,-383.9 -258.9,-383.7 -260.8,-383.4 -262.5,-383.2 -264.2,-383 -266.3,-382.8 -268.2,-382.5 -270.4,-382.2 -272.2,-382 -274.3,-381.7 -276.2,-381.4 -277.9,-381.2 -279.7,-381 -281.5,-380.7 -283.2,-380.5 -285,-380.3 -287.3,-380 -289.1,-379.7 -291.4,-379.4 -293.6,-379.1 -295.5,-378.8 -297.2,-378.5 -299.1,-378.3 -300.9,-378.1 -302.7,-377.9 -304.6,-377.6 -306.7,-377.3 -308.6,-377 -310.3,-376.7 -312.5,-376.3 -314.6,-376 -316.3,-375.7 -318.4,-375.3 -320.3,-375 -321.7,-374.7 -323.7,-374.3 -325.7,-374 -327.4,-373.7 -329.5,-373.3 -331.5,-373 -332.9,-372.7 -334.8,-372.3 -336.6,-371.9 -338.5,-371.5 -340.4,-371.1 -342.3,-370.7 -344.2,-370.3 -346.1,-369.9 -347.4,-369.6 -349.2,-369.1 -351,-368.7 -352.6,-368.2 -354.2,-367.8 -355.9,-367.4 -357.6,-367 -359.3,-366.6 -360.9,-366.2 -362.5,-365.8 -364.4,-365.2 -365.8,-364.8 -367.3,-364.4 -368.9,-364 -370.7,-363.5 -372.1,-363.1 -373.5,-362.7 -375.2,-362.2 -376.5,-361.8 -377.6,-361.5 -379.1,-361.1 -380.6,-360.7 -382,-360.3 -383.4,-359.9 -384.7,-359.5 -386.1,-359.2 -387.5,-358.8 -388.5,-358.5 -389.5,-358.3 -391,-357.9 -392,-357.6 -393,-357.4 -394.4,-357 -396.1,-356.5 -397.3,-356.2 -398.5,-355.8 -399.7,-355.4 -400.9,-355.1 -401.8,-354.8 -402.8,-354.5 -404.2,-354.2 -405.6,-353.8 -406.6,-353.5 -407.9,-353.2 -409.1,-352.8 -409.9,-352.5 -411,-352.2 -412.1,-351.9 -412.9,-351.6 -414,-351.3 -415.1,-351 -415.9,-350.7 -416.7,-350.4 -417.5,-350.2 -418.5,-350 -419.5,-349.7 -420.5,-349.5 -421.8,-349.2 -423.2,-348.8 -424.4,-348.4 -425.7,-348 -427.4,-347.5 -428.8,-347.1 -430,-346.7 -431.3,-346.3 -434.2,-345.1 -436.6,-343.9 -439.5,-342.2 -442.5,-340.6 -445.1,-338.9 -446.1,-337.9 -447.5,-336.3 -448.4,-335.2 -449.2,-334 -450,-333 -450.6,-332.1 -451.1,-331.4 -451.6,-330.3 -452.1,-329.2 -452.6,-328.1 -453.2,-326.6 -453.5,-325.5 -453.7,-324.7 -454,-323.9 -454.3,-322.5 -454.5,-321.5 -454.8,-320.5 -455.2,-319.1 -455.5,-317.6 -455.7,-316.5 -455.9,-315.3 -456,-314.1 -456.1,-313.3 -456.2,-312.6 -456.4,-311.6 -456.6,-310.6 -456.8,-309.6 -456.9,-308.5 -457.2,-307 -457.4,-305.8 -457.6,-304.7 -457.8,-303.6 -458,-302.6 -458.2,-301.6 -458.4,-300.7 -458.6,-299.7 -458.8,-298.7 -459.2,-297.3 -459.4,-296.3 -459.6,-295.3 -460,-294 -460.4,-292.7 -460.6,-291.8 -460.9,-290.9 -461.3,-289.7 -461.5,-288.9 -461.9,-287.9 -462.3,-286.9 -462.7,-286 -463.1,-285.1 -463.6,-284.2 -463.9,-283.5 -464.7,-282.2 -465.5,-280.8 -466.2,-279.7 -466.9,-278.6 -467.7,-277.5 -468.2,-276.8 -468.7,-276.2 -469.4,-275.5 -470.2,-274.7 -470.9,-273.9 -471.5,-273.4 -472.3,-272.6 -473.3,-271.6 -474.2,-270.8 -475.2,-270 -476.5,-268.9 -477.6,-268.1 -478.6,-267.4 -479.6,-266.7 -480.8,-265.9 -481.7,-265.4 -482.8,-264.7 -483.7,-264.3 -484.8,-263.7 -485.7,-263.2 -486.8,-262.6 -487.7,-262.1 -488.8,-261.5 -489.7,-261 -490.8,-260.5 -491.7,-260 -492.6,-259.6 -493.7,-259 -494.8,-258.4 -496,-257.7 -497.2,-257 -498.4,-256.3 -499.5,-255.7 -500.6,-255.2 -501.4,-254.8 -502.6,-254.2 -503.8,-253.6 -504.7,-253.1 -505.9,-252.4 -507.3,-251.7 -508.3,-251.2 -509.5,-250.5 -510.7,-249.9 -512.2,-249.1 -513.5,-248.4 -514.8,-247.7 -515.9,-247.1 -517.5,-246.3 -518.5,-245.8 -519.5,-245.2 -520.7,-244.6 -522.2,-243.9 -523.2,-243.3 -524.4,-242.7 -525.9,-242 -527.2,-241.3 -528.4,-240.7 -529.9,-239.9 -531.3,-239.1 -532.4,-238.5 -533.7,-237.8 -534.9,-237.1 -536.2,-236.5 -537.4,-235.9 -538.6,-235.2 -539.9,-234.6 -541.4,-233.8 -542.5,-233.2 -543.7,-232.6 -544.9,-232 -546.1,-231.4 -547.3,-230.8 -548.6,-230.1 -550,-229.4 -551.4,-228.7 -552.7,-227.9 -554,-227.3 -555.2,-226.7 -556.4,-226 -557.6,-225.4 -558.9,-224.7 -560.1,-223.9 -561.3,-223.2 -562.5,-222.5 -563.7,-221.7 -564.6,-221.1 -565.7,-220.5 -566.9,-219.7 -568,-218.9 -569.2,-218 -570.6,-217 -571.6,-216.1 -572.7,-215.3 -573.9,-214.4 -575.1,-213.5 -576,-212.7 -577,-211.8 -577.9,-210.8 -578.7,-209.9 -579.5,-209 -580.7,-207.7 -581.8,-206.5 -582.7,-205.4 -583.5,-204.4 -584.5,-203.1 -585.2,-202.2 -585.9,-201.1 -586.8,-199.7 -587.6,-198.3 -588.1,-197.3 -588.8,-196 -589.4,-194.9 -590,-193.8 -590.6,-192.7 -591.3,-191.3 -591.7,-190.2 -592.2,-188.8 -592.6,-187.7 -593,-186.6 -593.4,-185.5 -593.9,-184.1 -594.3,-183 -594.8,-181.5 -595.4,-180 -595.8,-178.7 -596.1,-177.7 -596.6,-176.4 -596.9,-175.5 -597.2,-174.6 -597.6,-173.5 -598.2,-172.1 -598.6,-171 -599.2,-169.6 -599.7,-168.2 -600.2,-166.8 -600.6,-165.7 -601.1,-164.2 -601.5,-163 -601.9,-161.8 -602.4,-160.6 -602.9,-159.1 -603.4,-158 -603.8,-156.9 -604.3,-155.5 -604.7,-154.3 -605.2,-153.2 -605.7,-151.6 -606.3,-150 -606.8,-148.7 -607.4,-147.2 -607.8,-145.9 -608.3,-144.7 -608.7,-143.5 -609.3,-142.1 -609.8,-140.6 -610.4,-139.1 -610.8,-138 -611.4,-136.5 -611.8,-135.2 -612.3,-134 -612.8,-132.5 -613.4,-130.9 -613.9,-129.4 -614.5,-127.9 -615,-126.4 -615.6,-124.8 -616.1,-123.2 -616.6,-121.9 -617.1,-120.2 -617.6,-118.8 -617.9,-117.8 -618.5,-116.3 -619,-114.8 -619.5,-113.6 -620.1,-112.2 -620.8,-110.5 -621.3,-109.4 -621.9,-107.9 -622.5,-106.5 -623,-104.9 -623.5,-103.6 -624,-101.9 -624.5,-100.6 -625,-98.9 -625.5,-97.6 -626,-95.9 -626.5,-94.6 -627.1,-93 -627.7,-91.5 -628.3,-89.9 -628.9,-88.4 -629.5,-86.8 -630,-85.2 -630.5,-83.8 -631.1,-82.3 -631.7,-80.8 -632.3,-79.4 -632.9,-77.9 -633.6,-76.1 -634.1,-74.4 -634.6,-73 -635.1,-71.3 -635.6,-70 -636.2,-68.4 -636.8,-66.8 -637.4,-65.2 -638,-63.6 -638.6,-62 -639,-60.7 -639.5,-59.5 -640.1,-57.9 -640.6,-56.6 -641.2,-54.9 -641.8,-53.2 -642.4,-51.5 -642.8,-50.1 -643.5,-48.3 -644.2,-46.4 -644.8,-44.9 -645.4,-43.3 -646.1,-41.4 -646.6,-39.9 -646.9,-38.8 -647.5,-37.1 -648.1,-35.4 -648.6,-34.1 -649.1,-32.7 -649.8,-30.8 -650.3,-29.5 -650.8,-27.9 -651.4,-26.3 -652.1,-24.5 -652.6,-23.3 -653.2,-21.7 -653.8,-20.1 -654.4,-18.5 -654.9,-16.8 -655.5,-15.1 -656.1,-13.5 -656.6,-12.3 -657.2,-10.7 -657.7,-9.5 -658.3,-7.9 -658.8,-6.3 -659.5,-4.3 -660,-2.6 -660.6,-0.9 -661.2,0.7 -661.7,2 -662.2,3.3 -662.7,4.5 -663.3,6 -663.8,7.4 -664.5,9.2 -665,10.6 -665.7,12.3 -666.4,14.2 -667,15.9 -667.5,17.3 -668.1,19 -668.6,20.5 -669,21.8 -669.5,23.2 -670,24.7 -670.5,25.9 -671.1,27.4 -671.7,28.9 -672.3,30.3 -672.9,31.9 -673.6,33.9 -674.1,35.6 -674.6,37 -675.1,38.7 -675.6,40 -676.1,41.3 -676.6,42.5 -677.2,44 -677.8,45.5 -678.4,47.1 -678.8,48.3 -679.5,50.1 -680,51.6 -680.6,53.2 -681.1,54.7 -681.8,56.5 -682.2,57.7 -682.8,59.4 -683.3,60.7 -683.9,62.4 -684.4,63.8 -685,65.5 -685.5,66.7 -686,68.1 -686.6,69.5 -687.1,70.9 -687.7,72.4 -688.2,73.9 -688.8,75.5 -689.2,76.7 -689.8,78.4 -690.2,79.7 -690.8,81.4 -691.2,82.8 -691.7,84.2 -692.2,85.4 -692.8,86.8 -693.4,88.2 -694,89.6 -694.7,91.5 -695.2,93.1 -695.7,94.5 -696.1,95.8 -696.6,97.1 -697,98.3 -697.5,99.5 -698,100.9 -698.6,102.5 -699.1,104.1 -699.6,105.4 -700.1,106.9 -700.6,108.2 -701,109.3 -701.6,110.8 -702.1,112.2 -702.6,113.5 -703.1,115.1 -703.6,116.4 -703.9,117.4 -704.5,118.9 -705,120.3 -705.5,121.5 -706,123 -706.5,124.4 -706.8,125.3 -707.2,126.5 -707.7,127.8 -708.2,129.2 -708.8,130.6 -709.3,132 -709.9,133.3 -710.4,134.9 -710.9,136.1 -711.3,137.3 -711.9,138.8 -712.3,140.1 -712.8,141.3 -713.2,142.5 -714,144.6 -714.6,146.4 -715.2,148.3 -715.7,149.7 -716.3,151.4 -716.6,152.2 -717,153.3 -717.6,154.7 -718.1,156.2 -718.6,157.4 -719,158.6 -719.4,159.8 -719.9,161.1 -720.5,162.7 -721,164.3 -721.7,166.2 -722.3,167.8 -722.8,169.2 -723.2,170.3 -723.7,171.4 -724.1,172.5 -724.6,173.7 -725,174.9 -725.4,176.1 -725.8,177.3 -726.2,178.5 -726.6,179.6 -726.9,180.4 -727.3,181.4 -727.8,182.8 -728.4,184.6 -728.9,186.4 -729.4,188.2 -729.8,189.8 -730.2,191.4 -730.4,192.4 -730.6,193.5 -730.8,194.7 -731,195.9 -731,196.7 -731,197.4 -731,198 -731.1,199 -731.2,200.1 -731.3,201.3 -731.4,202.6 -731.4,204.4 -731.3,205.7 -731.2,206.9 -731.1,208 -731,209 -731,209.6 -730.9,210.6 -730.7,211.6 -730.5,212.6 -730.3,213.6 -730,214.9 -729.7,215.8 -729.5,216.7 -729.2,218 -728.9,219.3 -728.5,220.5 -728.2,221.7 -727.9,222.9 -727.5,224 -727.1,225.1 -726.9,225.9 -726.5,227 -726.1,228.1 -725.9,229 -725.5,230.3 -725.1,231.6 -724.8,232.6 -724.4,233.9 -724,235.2 -723.6,236.4 -723.2,237.6 -722.9,238.8 -722.5,240 -722.1,241.2 -721.8,242.1 -721.4,243.4 -721,244.7 -720.7,245.7 -720.3,246.9 -720,248.2 -719.7,249 -719.3,250.2 -719,251.4 -718.7,252.3 -718.3,253.6 -718,255 -717.6,256.3 -717.2,257.6 -716.9,258.9 -716.6,259.7 -716.2,261 -716,262 -715.7,262.9 -715.3,264.3 -715,265.7 -714.8,266.6 -714.5,267.5 -714.3,268.6 -714.2,269.5 -714.1,270.5 -714,271.6 -714,272.8 -714,274 -714,275 -714,276 -714,277 -714,278 -714,279 -714,280 -714,280.9 -714,281.7 -714,282.4 -714,283 -714.2,283.9 -714.4,284.8 -714.6,285.7 -715,286.9 -715.5,288.1 -715.9,289.1 -716.3,290.1 -716.9,291.3 -717.3,292.2 -717.7,293 -718,293.6 -718.4,294.2 -718.6,294.6 -719.2,295.4 -719.9,296.4 -720.6,297.4 -721.4,298.5 -722.4,299.7 -723.2,300.5 -723.8,301.2 -724.6,302 -725.4,302.8 -726.2,303.5 -727,304.3 -727.8,305.1 -728.6,305.9 -729.4,306.7 -730.2,307.5 -731,308.3 -732,309.2 -733,310.1 -734,311 -734.9,311.8 -735.7,312.5 -736.7,313.3 -737.7,314.1 -738.7,314.9 -739.8,315.9 -740.9,316.9 -741.9,317.8 -742.8,318.6 -743.7,319.4 -744.6,320.2 -745.5,321 -746.5,321.9 -747.6,322.9 -748.7,323.9 -749.8,324.9 -750.9,325.9 -751.7,326.7 -752.9,327.7 -754.1,328.7 -755.3,329.7 -756.6,330.8 -758,332 -759,333 -759.9,333.9 -761.1,334.9 -762.3,335.9 -763.5,336.9 -764.7,337.9 -766,339 -767,340 -768.1,341 -769.3,342.1 -770.4,343.1 -771.4,343.9 -772.6,344.9 -773.7,345.9 -774.7,346.7 -776,347.7 -777.4,348.9 -778.7,350.1 -779.9,351.2 -781,352.3 -782,353.3 -782.9,354.2 -783.9,355 -785,355.9 -786.2,356.9 -787.3,357.9 -788.5,358.9 -789.7,359.9 -790.9,360.9 -792.1,361.9 -793.2,362.8 -794.5,364 -795.5,365 -796.7,366.1 -797.9,367.2 -799.2,368.4 -800.2,369.3 -801.2,370.2 -802.2,371.1 -803.4,372.1 -804.5,373 -805.6,373.9 -807,375 -808.2,376 -809.2,376.9 -810.5,378 -811.9,379.2 -813,380.2 -814.2,381.3 -815.4,382.4 -816.4,383.4 -817.3,384.3 -818.2,385.2 -819.4,386.4 -820.6,387.6 -821.7,388.7 -822.8,389.8 -824.2,391.1 -825.2,392 -826.2,392.9 -827.3,393.8" style="stroke: rgb(239, 68, 68); stroke-width: 7;"></polyline><polyline vector-effect="non-scaling-stroke" fill="none" points="-828.7,394.9 -829.9,395.9 -831.1,396.9 -832.3,397.9 -833.5,399 -834.5,400 -835.4,400.9 -836.6,401.9 -837.8,402.9 -839,403.9 -840.2,404.9 -841.5,405.9 -842.5,406.8 -843.5,407.7 -844.4,408.5 -845.4,409.4 -846.4,410.4 -847.3,411.3 -848.5,412.3 -849.8,413.4 -851,414.4 -852.2,415.4 -853.5,416.5 -854.4,417.4 -855.4,418.4 -856.4,419.4 -857.4,420.4 -858.3,421.3 -859.2,422.1 -860.2,422.9 -861.2,423.7 -862.2,424.5 -863.2,425.3 -864.2,426.2 -865.2,427.1 -866.2,428 -867.2,428.9 -868.3,429.8 -869.5,430.8 -870.5,431.7 -871.5,432.6 -872.5,433.5 -873.5,434.5 -874.5,435.5 -875.5,436.5 -876.4,437.4 -877.2,438.2 -878.2,439 -879.2,439.8 -880.2,440.6 -881.1,441.4 -882.1,442.3 -882.9,443.2 -883.7,444.1 -884.5,445 -885.5,445.9 -886.5,446.8 -887.3,447.6 -888.1,448.4 -888.9,449.2 -889.9,450.3 -890.8,451.3 -891.7,452.3 -892.9,453.5 -893.9,454.6 -894.6,455.4 -895.7,456.6 -896.8,457.8 -897.5,458.6 -898.2,459.4 -899,460.3 -899.6,461.2 -900.3,462 -900.9,462.9 -901.6,464 -902.2,464.9 -902.5,465.4 -902.7,466 -903,466.5 -903.4,467.1 -903.8,468.1 -904.3,469 -904.8,469.9 -905.2,470.9 -905.4,471.6 -905.8,472.7 -906.1,473.9 -906.4,475.2 -906.9,477 -907.4,479.1 -907.6,480.6 -907.8,482.2 -907.8,484.4 -907.6,486.1 -907.4,487.5 -907.1,489.3 -906.7,491 -906.4,492.4 -905.9,494 -905.2,495.9 -904.3,497.7 -903.5,499.5 -902.3,501.4 -901.3,503.1 -900.4,504.4 -899.3,505.7 -898.2,507 -897.4,507.8 -896,509 -894.4,510.3 -893.2,511.1 -892,511.9 -890.9,512.6 -889.9,513.1 -889.1,513.5 -888,514 -886.9,514.5 -885.8,515 -885.1,515.2 -884,515.6 -883.1,515.9 -882.1,516.1 -880.6,516.5 -879,516.9 -877.7,517.1 -876.4,517.3 -874.8,517.5 -873.6,517.5 -872.4,517.5 -870.8,517.4 -869.3,517.3 -868.1,517.2 -867,517.1 -866,517 -865.4,517 -864.2,516.9 -863,516.8 -861.8,516.7 -860.6,516.6 -859.4,516.4 -858.4,516.2 -857.4,516 -856.4,515.8 -855.4,515.6 -854.4,515.5 -853.7,515.4 -852.6,515.2 -851.5,515 -850.4,514.8 -849.4,514.6 -848.4,514.5 -847.4,514.3 -846.4,514.1 -845.4,513.9 -844.4,513.7 -843.4,513.5 -842.7,513.5 -841.6,513.3 -840.5,513.1 -839.4,512.9 -838.4,512.7 -837.4,512.5 -836.2,512.3 -835,512.1 -833.8,511.9 -832.6,511.7 -831.5,511.5 -830.5,511.3 -829.4,511.1 -828.3,510.9 -827.1,510.7 -825.9,510.5 -824.6,510.3 -823.4,510.1 -822.2,509.9 -820.8,509.7 -819.3,509.4 -818,509.2 -816.7,509 -815.3,508.8 -814.2,508.6 -812.5,508.3 -811.2,508.1 -809.9,507.9 -808.5,507.7 -806.7,507.3 -805.6,507.1 -804.4,506.9 -803.2,506.7 -801.8,506.4 -800.4,506.2 -798.9,506 -797.5,505.8 -795.5,505.4 -793.9,505.1 -792.7,504.9 -791.5,504.7 -790.1,504.5 -788.7,504.3 -787.3,504.1 -785.8,503.9 -784.3,503.6 -782.5,503.2 -781.2,503 -779.9,502.8 -778,502.4 -776.2,502.1 -774.8,501.9 -773.5,501.7 -771.5,501.3 -770.1,501.1 -768.7,500.9 -767.1,500.7 -765.5,500.4 -764,500.2 -762.5,500 -761,499.7 -759.1,499.3 -757.1,499 -755.7,498.8 -754.2,498.5 -752,498.2 -750.5,498 -749,497.7 -746.9,497.3 -744.9,497 -743.6,496.8 -742,496.5 -739.9,496.2 -738.3,496 -736.6,495.7 -734.9,495.4 -732.8,495.1 -731.2,494.9 -729.5,494.6 -727.4,494.3 -725.3,494 -723.8,493.7 -722.2,493.4 -720.2,493.1 -718.7,492.9 -716.9,492.6 -714.8,492.3 -712.8,492 -711.2,491.7 -709.1,491.3 -707.2,491 -705.5,490.7 -703.5,490.4 -701.3,490.1 -699.6,489.9 -697.4,489.5 -695.3,489.2 -693.6,488.9 -692.1,488.6 -690,488.2 -688.4,488 -686.7,487.7 -684.5,487.3 -682.4,487 -680.4,486.6 -678.5,486.2 -676.7,485.9 -675.1,485.7 -673,485.3 -671.4,485.1 -669.8,484.9 -667.5,484.5 -665.4,484.1 -663.9,483.9 -662.3,483.6 -660,483.2 -658.4,483 -656.9,482.8 -654.7,482.4 -652.6,482.1 -650.8,481.9 -648.8,481.5 -646.7,481.1 -645.2,480.9 -643.1,480.5 -641.4,480.1 -639.7,479.9 -637.8,479.6 -635.5,479.2 -633.9,479 -632.2,478.8 -630.1,478.4 -628.3,478.1 -626.7,477.9 -624.8,477.6 -622.6,477.2 -621,477 -619.3,476.7 -617.2,476.3 -615.3,476 -613.7,475.7 -611.5,475.3 -609.4,475 -607.9,474.8 -606.2,474.5 -604.1,474.2 -602.6,474 -600.9,473.7 -599.1,473.4 -597,473.1 -595.4,472.9 -593.6,472.6 -591.4,472.3 -589.3,472 -587.8,471.7 -585.7,471.3 -583.8,471 -582.5,470.8 -580.8,470.5 -578.5,470.2 -576.8,470 -575.1,469.8 -573.2,469.5 -571.2,469.2 -569.7,469 -568.2,468.8 -566.5,468.6 -564.7,468.4 -562.8,468.2 -560.9,468 -558.9,467.8 -557,467.6 -555.2,467.4 -553.5,467.2 -551.8,467 -549.9,466.8 -548.2,466.6 -546.3,466.5 -544.7,466.4 -542.9,466.3 -540.8,466.1 -538.6,465.9 -536.8,465.7 -535,465.6 -533.3,465.5 -531.8,465.5 -530.1,465.5 -528.3,465.5 -526.4,465.5 -524.5,465.5 -522.7,465.5 -520.9,465.5 -518.9,465.4 -517.2,465.3 -515.4,465.2 -513.6,465.1 -511.8,465.1 -510,465.2 -508.3,465.3 -506.5,465.4 -504.7,465.5 -503.1,465.5 -501.7,465.5 -499.8,465.6 -498.1,465.7 -496.3,465.8 -494.3,465.9 -492.1,466 -490.3,466.1 -488.4,466.2 -486.8,466.3 -485,466.5 -483.4,466.7 -481.7,466.8 -479.9,467 -477.9,467.2 -476.1,467.3 -474.3,467.4 -472.7,467.5 -471,467.7 -469.3,467.9 -467.5,468.1 -465.7,468.3 -463.9,468.5 -462.1,468.7 -460.2,468.9 -458.5,469.1 -456.9,469.3 -454.9,469.7 -453.1,469.9 -451.4,470.1 -449.9,470.3 -447.9,470.7 -446,470.9 -444.3,471.1 -442.4,471.5 -440.3,471.9 -438.5,472.1 -436.9,472.4 -435,472.8 -433.3,473 -431.8,473.2 -430,473.6 -428,473.9 -426.4,474.1 -425,474.3 -423,474.7 -421.3,474.9 -419.9,475.1 -418,475.5 -416,475.9 -414.4,476.1 -412.9,476.3 -411,476.7 -409.4,476.9 -407.9,477.1 -406.1,477.4 -404.4,477.8 -402.9,478 -401.4,478.2 -400,478.4 -398.4,478.6 -396.8,478.8 -395.3,479 -393.4,479.3 -391.4,479.6 -390,479.9 -388.6,480.1 -386.7,480.4 -385.3,480.6 -383.7,480.9 -382.1,481.1 -380.5,481.3 -379,481.5 -377.4,481.8 -376,482 -374.7,482.2 -372.8,482.5 -371.4,482.7 -369.9,482.9 -368.5,483.1 -366.6,483.4 -365.3,483.6 -363.6,483.9 -362.2,484.1 -360.8,484.3 -359.4,484.5 -357.9,484.7 -356.5,484.9 -355.1,485.1 -353.6,485.3 -352.2,485.5 -350.8,485.7 -349.5,485.9 -348.2,486.1 -347,486.3 -345.7,486.5 -344.3,486.7 -343,486.8 -341.7,487 -340.3,487.2 -339,487.4 -337.9,487.6 -336.7,487.8 -335.2,487.9 -333.7,488 -332.6,488 -331.5,488 -330.6,488 -329.6,488.2 -328.6,488.4 -327.6,488.5 -326.4,488.6 -325.1,488.7 -324.1,488.6 -323.1,488.5 -322,488.5 -321.1,488.5 -319.7,488.4 -318.4,488.3 -317.2,488.2 -316.1,488 -315,487.8 -314.5,487.7 -313.4,487.5 -312.3,487.2 -311.2,487 -309.8,486.7 -308.5,486.3 -307.6,485.9 -306.7,485.6 -305.8,485.2 -305.2,484.9 -303.9,484.4 -302.8,483.9 -301.5,483.3 -300.2,482.7 -298.7,482 -297.9,481.5 -296.8,480.8 -295.9,480.2 -294.8,479.4 -293.9,478.7 -293,478 -292.4,477.5 -291.8,477 -291,476.4 -289.9,475.4 -288.7,474.4 -287.2,473.1 -285.3,471.2 -283.8,469.6 -282.5,468.1 -281.3,466.6 -280.4,465.4 -279.9,464.7 -279.2,463.6 -278.6,462.7 -277.8,461.6 -277.1,460.5 -276.3,459.2 -275.8,458.3 -275.2,457.2 -274.6,456 -274,454.8 -273.5,453.8 -273,452.8 -272.4,451.5 -272,450.5 -271.4,449.3 -270.9,448.1 -270.2,446.6 -269.8,445.6 -269.3,444.6 -268.9,443.5 -268.3,442.1 -267.8,441 -267.3,439.9 -266.7,438.6 -266.2,437.6 -265.6,436.4 -265.1,435.2 -264.5,434 -264,432.8 -263.3,431.1 -262.9,429.9 -262.4,428.7 -261.9,427.5 -261.4,426.3 -260.9,425.3 -260.4,424.3 -259.8,423.1 -259.2,421.5 -258.6,420.1 -258.2,419 -257.6,417.6 -257.2,416.3 -256.7,415.2 -256.2,414.1 -255.6,412.7 -255,411.3 -254.4,410 -253.9,408.9 -253.4,407.5 -252.8,406.1 -252.4,405 -251.8,403.6 -251.3,402.2 -250.7,400.8 -250.3,399.6 -249.7,398.1 -249.3,396.9 -248.7,395.4 -248.3,394.1 -247.7,392.6 -247.3,391.4 -246.8,390.1 -246.5,389.1 -245.9,387.7 -245.5,386.5 -244.9,385 -244.4,383.6 -243.8,381.7 -243.4,380.3 -243,379 -242.6,377.6 -242.2,376.2 -241.9,375.3 -241.5,373.8 -241.1,372.3 -240.9,371.2 -240.5,369.7 -240.1,368.2 -239.9,367.3 -239.5,365.8 -239.1,364.3 -238.9,363.2 -238.5,361.7 -238.1,360 -237.9,358.8 -237.7,357.6 -237.4,356.3 -237.2,354.8 -237,353.5 -236.8,352.1 -236.6,350.6 -236.5,349.2 -236.3,347.9 -236.1,346.4 -235.9,345 -235.7,343.4 -235.5,341.7 -235.5,340.4 -235.5,339.3 -235.4,337.4 -235.2,335.4 -235,333.5 -234.8,331.3 -234.6,329.1 -234.5,327.6 -234.5,326.3 -234.5,324.8 -234.5,323.4 -234.5,322 -234.6,320.4 -234.7,319 -234.8,317.6 -234.9,316.3 -235,314.8 -235,313.6 -235.1,311.9 -235.2,310.3 -235.3,308.9 -235.5,307.3 -235.7,305.7 -235.8,304.6 -235.9,303.4 -236.1,301.7 -236.3,300.3 -236.5,298.9 -236.7,297.2 -236.9,295.6 -237.1,294.1 -237.3,292.7 -237.5,291.3 -237.7,289.9 -238.1,288.2 -238.4,286.9 -238.6,285.5 -239,283.7 -239.4,282.2 -239.7,280.6 -240.1,279 -240.5,277.5 -240.7,276.4 -241.1,274.7 -241.4,273.5 -241.7,271.9 -242.1,270.3 -242.6,268.3 -242.9,266.9 -243.3,265.5 -243.7,264 -244.1,262.4 -244.5,261 -244.9,259.6 -245.3,258.1 -245.7,256.6 -246.1,255.2 -246.4,254 -246.8,252.3 -247.2,250.6 -247.6,249.1 -248,247.5 -248.4,246 -248.8,244.6 -249.2,243.2 -249.6,241.7 -250,240.3 -250.4,238.8 -250.8,237.2 -251.2,235.6 -251.5,234.4 -251.9,232.6 -252.3,230.9 -252.7,229.3 -253.1,227.7 -253.5,226.1 -253.9,224.6 -254.3,223 -254.8,221.3 -255.2,219.6 -255.8,217.4 -256.2,215.7 -256.8,213.6 -257.2,212 -257.7,210.1 -258.1,208.7 -258.5,207.2 -258.9,205.8 -259.3,204.3 -259.7,202.8 -260.1,201.3 -260.5,199.8 -260.9,198 -261.4,196.1 -261.9,194.5 -262.3,192.9 -262.7,191.4 -263.1,189.9 -263.4,188.6 -263.7,187.1 -264.1,185.5 -264.5,183.8 -264.9,182.2 -265.3,180.6 -265.7,179 -266.1,177.4 -266.6,175.5 -267,174.1 -267.5,172.3 -267.9,170.8 -268.4,168.8 -268.8,167.2 -269.2,165.7 -269.6,164.1 -270.1,162.4 -270.5,161 -270.9,159.5 -271.3,158 -271.7,156.3 -272.1,154.7 -272.4,153.4 -272.9,151.7 -273.4,149.6 -273.8,148.1 -274.2,146.6 -274.7,144.5 -275.1,142.8 -275.4,141.5 -275.8,139.7 -276.3,137.7 -276.7,136.2 -277.1,134.7 -277.5,133.2 -277.9,131.7 -278.2,130.3 -278.5,128.9 -278.8,127.1 -279.2,125.3 -279.5,124 -279.8,122.2 -280.1,120.5 -280.4,119.1 -280.6,117.5 -280.8,115.8 -280.9,114.7 -281,113.2 -281,111.7 -281.1,110.2 -281.2,108.8 -281.2,107.1 -281.2,105.8 -281.2,104.5 -281.1,103.3 -281,102 -281,100.8 -280.9,99.6 -280.8,98.6 -280.7,97.7 -280.4,96.6 -279.9,95.3 -279.5,94 -278.9,92.5 -278.3,91 -277.7,89.7 -277.3,88.8 -276.7,87.7 -276.1,86.5 -275.5,85.3 -274.7,83.8 -273.7,82.1 -272.9,80.6 -272.1,79.2 -271.2,77.8 -270.6,76.6 -270.1,75.7 -269.5,74.7 -268.7,73.5 -268,72.3 -267.2,71.2 -266.2,69.5 -265.2,67.9 -264.2,66.3 -263.1,64.4 -262.1,62.8 -261.2,61.4 -260.4,60 -259.8,58.8 -259.2,57.8 -258.6,56.7 -258.1,55.8 -257.3,54.6 -256.5,53.4 -255.8,52.3 -255.1,51.2 -254.2,49.8 -253.5,48.5 -252.9,47.4 -252.1,46.1 -251.4,44.8 -250.9,43.9 -250.2,42.9 -249.6,41.9 -249,40.9 -248,39.3 -247.1,37.7 -246.4,36.5 -245.4,34.9 -244.5,33.3 -243.9,32.4 -243.3,31.4 -242.7,30.4 -242.1,29.5 -241.6,28.8 -241,27.8 -240.4,26.9 -239.8,25.9 -239.5,25.2 -238.9,24.2 -238.5,23.4 -237.7,22.2 -236.9,21 -236.1,19.8 -235.3,18.7 -234.5,17.6 -234,16.9 -233.1,15.8 -231.9,14.5 -231,13.4 -230,12.4 -228.4,11.1 -227.1,10.1 -226,9.4 -224.4,8.6 -222.7,7.7 -221.5,7.2 -220.3,6.9 -218.6,6.6 -217.2,6.5 -215.6,6.5 -213.8,6.5 -212.1,6.5 -211,6.6 -210,6.7 -209.3,6.8 -208.9,6.9 -208.6,7.1 -207.9,7.3 -207.1,7.6 -206.1,8 -205.1,8.4 -203.6,8.9 -202.4,9.4 -201,9.9 -199.8,10.3 -198.6,10.8 -197.6,11.2 -196.6,11.5 -195.7,11.9 -194.8,12.3 -193.6,12.8 -192.6,13.2 -191.6,13.7 -190.6,14.1 -189.6,14.6 -188.5,15 -187.4,15.5 -186,16 -184.8,16.4 -183.6,16.8 -182.6,17.2 -181.2,17.7 -180.1,18.1 -179,18.6 -177.6,19.1 -176.4,19.5 -175.2,19.9 -174,20.3 -172.8,20.6 -171.5,21 -170.1,21.4 -169.1,21.6 -167.7,22 -166.3,22.4 -165.3,22.6 -164.4,22.8 -162.9,23.1 -161.6,23.3 -160.3,23.5 -159,23.7 -157.6,23.9 -156.3,24.1 -155.2,24.2 -153.9,24.3 -152.5,24.5 -151.1,24.7 -149.9,24.8 -148.6,24.9 -147.4,25 -146,25 -144.6,25 -143.4,25 -141.7,25 -139.9,25 -138.1,25 -136.3,25 -134.5,25 -133,25 -131.6,25 -129.9,24.9 -128.3,24.8 -126.8,24.6 -125.4,24.4 -124,24.2 -123.1,24.1 -121.9,24 -120.4,24 -119.1,24 -117.7,24 -116.1,24 -114.7,24 -113.6,24 -112.1,24 -110.6,24 -109.2,24 -107.6,24 -106,24 -104.2,23.9 -102.5,23.7 -100.9,23.5 -99.3,23.3 -97.6,23.1 -96.4,23 -95,23 -93.5,23 -92.1,23 -90.5,23 -88.7,23 -87.1,23 -85.4,23 -83.5,22.9 -81.9,22.8 -80.5,22.7 -78.9,22.6 -77.4,22.4 -75.9,22.3 -74.4,22.2 -72.6,22.1 -70.8,22 -69.1,22 -67.4,22 -65.5,22 -63.9,22 -62,21.9 -60.2,21.8 -58.5,21.7 -57,21.6 -55.2,21.5 -53.7,21.5 -52.1,21.4 -50.4,21.3 -48.5,21.2 -46.8,21.1 -45,21 -43.3,21 -41.6,21 -40.1,21 -38.1,20.9 -36.4,20.8 -34.5,20.7 -32.8,20.6 -30.8,20.5 -29.3,20.5 -27.4,20.4 -25.7,20.3 -23.8,20.2 -21.9,20.1 -20,20 -18.1,19.9 -16.1,19.8 -14.4,19.7 -12.6,19.6 -10.7,19.5 -9.3,19.5 -7.6,19.5 -5.7,19.5 -4,19.5 -2.3,19.4 -0.4,19.3 1.3,19.2 3,19.1 5.1,18.9 6.9,18.8 8.9,18.7 10.8,18.6 12.7,18.5 14.2,18.5 16,18.5 17.6,18.5 19.4,18.4 21.1,18.3 22.8,18.2 25,18 27.1,17.8 28.9,17.7 30.8,17.6 32.8,17.5 34.2,17.5 35.7,17.5 37.5,17.5 39.3,17.5 41,17.5 42.7,17.4 44.7,17.3 46.7,17.2 48.5,17.1 50.4,17 52.7,16.9 54.5,16.8 56.2,16.7 58,16.6 59.7,16.5 61,16.5 62.8,16.5 64.7,16.5 66.4,16.5 68.3,16.4 70.3,16.3 72.1,16.2 73.7,16.1 75.9,15.9 77.8,15.8 79.5,15.7 81.1,15.6 83.1,15.5 84.5,15.5" style="stroke: rgb(59, 130, 246); stroke-width: 7;"></polyline><polyline vector-effect="non-scaling-stroke" fill="none" points="86.1,15.5 88,15.5 89.7,15.5 91.5,15.4 93.4,15.3 95.3,15.2 97.1,15.1 99,15 100.9,14.9 102.9,14.8 104.6,14.7 106.3,14.6 108.1,14.5 109.5,14.5 111.3,14.5 113.2,14.4 115.1,14.3 117.4,14.1 119.6,13.9 121.2,13.7 123,13.6 124.7,13.5 126,13.5 127.7,13.5 129.7,13.5 131.5,13.5 133.4,13.5 135.7,13.3 137.6,13.1 139.2,12.9 141,12.7 142.7,12.5 144,12.5 145.7,12.5 147.7,12.5 149.5,12.5 151.4,12.5 153.3,12.5 155.1,12.4 157,12.2 158.9,12 160.7,11.8 162.3,11.6 163.8,11.5 165.3,11.5 166.9,11.5 168.5,11.5 171,10.7 173.3,9.9 175.2,9.1 177,8.2 178.7,7.3 179.6,7.2 180.4,7.1 182.5,7 184.6,7 186.6,7 189,6.9 191.5,6.8 193,6.7 194.5,6.6 196.5,6.5 198,6.5 199.8,6.4 201.4,6.3 203.2,6.2 204.6,6.1 206.5,6 208.1,6 210.1,5.9 211.8,5.8 213.8,5.7 215.4,5.6 217.2,5.5 218.5,5.5 220.2,5.5 221.7,5.5 223.2,5.4 225.2,5.3 227.2,5.2 228.8,5.1 230.3,5 232,5 233.2,5 234.4,5 235.6,5 236.8,5 238.8,5 240.5,5 242.2,5 244,5 245.9,4.9 246.8,4.8 247.7,4.7 248.6,4.6 249.7,4.6 250.9,4.7 252,4.8 253.4,4.9 254.8,5 256.2,5.1 257.3,5.2 258.4,5.3 259.4,5.5 260.6,5.7 261.5,5.8 262.5,5.9 263.8,6.1 264.9,6.2 265.8,6.3 267,6.5 268.1,6.7 269.1,6.9 270.1,7.1 271.5,7.4 272.9,7.8 274.4,8.2 275.6,8.6 276.8,9 278.1,9.7 279.1,10.4 280,11.1 281.7,12.8 283.4,14.5 284.8,16.4 286.3,18.4 287.9,20.5 289,22 290.1,23.5 291.3,24.7 292.4,25.9 293.8,27.4 296.6,28.7 300.2,30.1 303.4,31.1 307.1,31.8 310.3,32 312.2,31.9 313.2,31.6 314.6,31.4 315.7,31.1 317.6,30.7 319.1,30.2 320.7,29.8 322,29.4 323.1,29 324.4,28.4 325.8,27.9 327.2,27.3 328.6,26.7 329.9,26.1 330.3,25.9 331,25.5 331.9,25.1 332.8,24.7 334,24.2 335.2,23.7 336.3,23.2 337.2,22.8 338.3,22.2 339.2,21.8 340.3,21.2 341.2,20.8 342.1,20.3 343.2,19.8 344.6,19.1 346.1,18.5 347.8,17.7 349.5,17 351.1,16.3 352.4,15.8 353.6,15.2 354.6,14.8 355.6,14.3 356.7,13.8 358.2,13.1 359.5,12.5 360.8,11.9 362.3,11.2 363.5,10.7 364.5,10.2 365.5,9.8 366.9,9.1 368.1,8.6 369.3,8 370.3,7.5 371.6,6.9 372.7,6.4 373.9,5.9 375.4,5.2 377,4.6 378.3,4 379.4,3.6 380.8,3 382,2.5 383.1,2 384.9,1.2 387.1,0.1 389,-0.8 391,-1.7 393.3,-2.8 394.9,-3.5 396.1,-4 397.6,-4.7 399,-5.3 400.4,-6 401.8,-6.7 403.3,-7.4 404.7,-8.1 405.9,-8.7 407.3,-9.4 408.7,-10.1 410.1,-10.8 411.2,-11.4 412.7,-12.1 413.9,-12.6 415.1,-13.1 416.6,-13.8 418.1,-14.5 419.3,-15.1 420.6,-15.7 421.9,-16.3 423.1,-16.8 424.7,-17.5 426.2,-18.2 427.6,-18.9 429,-19.7 430.4,-20.4 431.8,-21.1 433.2,-21.9 434.8,-22.7 436.4,-23.5 437.8,-24.3 439.1,-24.9 440.8,-25.7 442.1,-26.4 443.5,-27 445.1,-27.7 446.6,-28.6 447.8,-29.2 449,-29.8 450.5,-30.6 452,-31.4 453.4,-32 454.9,-32.7 456.4,-33.4 457.9,-34.2 459.1,-34.9 460.6,-35.7 461.9,-36.5 463.6,-37.4 464.9,-38 466.2,-38.6 467.4,-39.3 468.7,-39.9 469.9,-40.6 471.4,-41.6 472.9,-42.6 474.2,-43.3 475.7,-44.2 476.9,-44.9 478.2,-45.6 479.5,-46.2 481,-47.1 482.2,-47.9 483.5,-48.6 484.6,-49.4 485.8,-50.2 486.7,-50.8 487.6,-51.4 489.4,-52.6 491,-53.4 492.5,-54.3 494,-55.2 495.8,-56.3 496.7,-56.9 497.9,-57.8 499.1,-58.6 500.3,-59.4 501.3,-60 502.2,-60.6 503.7,-61.6 505.2,-62.7 506.7,-63.8 508.1,-64.9 509.5,-65.9 510.1,-66.3 511.3,-67.1 512.5,-67.9 513.7,-68.7 515.3,-69.8 516.8,-70.9 517.7,-71.6 518.6,-72.3 519.5,-73 521.1,-74.3 522.7,-75.5 524.3,-76.7 525.9,-77.9 527.5,-79.1 528,-79.5 528.9,-80.2 529.8,-80.9 530.7,-81.6 531.9,-82.5 533.2,-83.5 534.4,-84.5 535.6,-85.5 536.8,-86.4 538,-87.3 539.1,-88.1 539.9,-88.7 540.7,-89.3 541.5,-90 543.3,-91.4 545.1,-92.8 546.9,-94.2 548.7,-95.6 550.5,-97 551,-97.5 552.1,-98.4 553.5,-99.6 554.9,-100.8 556.3,-102 557.8,-103.2 558.7,-104 559.3,-104.5 561.1,-106.1 562.9,-107.7 564.6,-109.3 566.3,-110.8 568,-112.3 568.5,-112.7 569.1,-113.2 570,-113.9 570.9,-114.7 571.8,-115.5 572.7,-116.3 574,-117.5 575,-118.4 576,-119.4 577,-120.4 578.6,-121.8 579.7,-122.7 580.8,-123.7 581.9,-124.6 583,-125.5 583.5,-126 584.8,-127.3 586.1,-128.6 587.4,-129.9 588.7,-131.2 590,-132.6 590.5,-133.2 591.4,-134.2 592.3,-135.1 593.2,-136 594.2,-136.9 595.7,-138.3 596.8,-139.3 597.9,-140.4 598.9,-141.5 600.2,-142.8 601,-143.6 602,-144.6 603,-145.6 604.1,-146.7 604.8,-147.4 606,-148.6 607,-149.7 608,-150.8 609,-151.8 610.4,-153.3 611.3,-154.3 612.2,-155.2 613.3,-156.4 614.4,-157.6 615.1,-158.4 616.1,-159.5 617.1,-160.7 618.2,-161.9 619.3,-163.1 620.7,-164.6 621.7,-165.8 622.7,-166.9 623.8,-167.9 624.9,-168.9 625.9,-169.8 627,-170.7 628,-171.6 628.9,-172.7 630.4,-174.4 631.7,-175.9 633,-177.4 634.7,-179.2 636.1,-180.6 636.9,-181.4 637.7,-182.2 638.5,-183 639,-183.5 640.4,-184.1 641.9,-185.8 643.4,-187.5 644.9,-189.1 646.4,-190.7 647,-192.3 647.5,-192.8 648,-193.3 648.5,-193.9 649.8,-195.4 651.1,-196.8 652.4,-198.2 653.7,-199.6 655.1,-201.1 656.2,-202.1 657.6,-203.5 658.9,-204.9 660.3,-206.3 661.9,-207.9 662.9,-209.1 663.7,-209.9 664.7,-210.9 665.7,-212 666.9,-213.4 668.3,-214.8 669.6,-216.2 670.8,-217.4 672.6,-219.3 673.9,-220.6 675.1,-221.9 676.3,-223.3 677.5,-224.7 678,-225.2 678.9,-226.2 679.8,-227.2 680.7,-228.1 681.9,-229.3 683.1,-230.6 684.2,-231.6 685.3,-232.6 686.6,-233.9 687.6,-234.9 688.6,-235.8 689.6,-236.9 690.6,-238 691.4,-238.8 692.6,-240 693.8,-241.3 694.7,-242.2 695.8,-243.3 696.9,-244.4 698.2,-245.7 699.6,-247.1 701.2,-248.7 702.6,-250.1 704.3,-251.7 705.4,-252.7 706.3,-253.6 707.5,-254.7 708.7,-255.8 709.6,-256.7 710.8,-257.9 712.1,-259.2 712.9,-260.1 713.9,-261.1 714.9,-262.1 716,-263.2 717.1,-264.2 718.2,-265.2 719.2,-266.1 720.5,-267.2 721.7,-268.1 722.9,-269 724.1,-269.9 725.6,-271.1 726.8,-272.2 727.7,-273.1 728.9,-274.3 730.3,-275.6 731.8,-276.8 733.5,-278.2 735.2,-279.5 736.7,-280.5 738,-281.4 739.2,-282.3 740.2,-282.9 741.5,-283.8 742.8,-284.8 744.2,-285.8 745.6,-286.9 747,-288 748.1,-288.9 749.5,-289.8 750.8,-290.7 751.7,-291.3 752.6,-291.9 753.9,-292.6 754.8,-293.2 756.1,-294 757.6,-295 759.4,-296.1 760.8,-297 762.4,-298 763.6,-298.7 764.9,-299.4 766,-300 767.3,-300.8 768.7,-301.5 770.1,-302.3 771.5,-303.1 772.9,-303.8 774,-304.4 775.1,-305 776.2,-305.6 777.5,-306.2 778.7,-306.8 780,-307.4 781.4,-308.1 783,-308.8 784.1,-309.3 785.2,-309.8 786.8,-310.5 788,-311.1 789.3,-311.8 790.6,-312.5 791.9,-313.2 792.8,-313.7 794.1,-314.3 795.1,-314.8 796.1,-315.3 797.2,-315.8 798.6,-316.4 799.9,-317 801.4,-317.6 802.9,-318.2 804.6,-319 806,-319.7 807.1,-320.2 808,-320.7 808.9,-321.2 809.9,-321.6 811.1,-322.1 812.5,-322.7 813.9,-323.3 815.6,-324 817,-324.7 818.3,-325.4 819.4,-326 820.5,-326.6 821.3,-327 822.5,-327.5 823.7,-327.9 824.9,-328.4 826.3,-329 828,-329.7 829.2,-330.3 830.2,-330.8 831.6,-331.5 832.8,-332 833.7,-332.5 834.7,-332.9 836,-333.5 837.1,-333.9 838.2,-334.4 839.3,-334.9 840.7,-335.6 841.9,-336.2 842.9,-336.7 844.2,-337.3 845.5,-337.8 846.7,-338.4 847.8,-338.9 849,-339.5 849.9,-339.9 851.2,-340.6 852.2,-341 853.2,-341.5 854.1,-341.9 855.3,-342.5 856.3,-343 857.3,-343.5 858.6,-344.1 859.9,-344.7 861.3,-345.4 862.5,-345.9 863.7,-346.5 864.6,-346.9 865.9,-347.6 866.8,-348 867.7,-348.4 868.6,-348.8 869.5,-349.2 870.4,-349.6 871.3,-350.1 872.2,-350.6 873.1,-351.1 874.3,-351.7 875.5,-352.3 876.7,-352.9 877.9,-353.5 879.1,-354.1 880,-354.6 880.8,-355.1 881.6,-355.6 882.4,-356.1 883.5,-356.7 884.6,-357.4 885.6,-358 886.8,-358.8 888.2,-359.9 889.3,-360.9 890.4,-361.8 891.2,-362.6 891.9,-363.2 892.4,-363.5 893.4,-364.2 894.8,-365.5 896.2,-366.8 897.5,-368 898.7,-369.3 899.4,-370.1 899.9,-371.1 900.5,-372.2 901.1,-373.3 901.7,-374.4 902.3,-375.8 902.7,-376.4 903,-376.9 903.3,-377.9 903.7,-378.8 904,-379.5 904.2,-380.4 904.4,-381.4 904.5,-382.1 904.6,-383.9 904.6,-385.9 904.6,-387.8 904.6,-389.8 904.5,-391.6 904.3,-392.6 904.2,-393.6 904,-394.5 903.8,-395.5 903.6,-396.8 903.2,-398.5 902.7,-400 902.2,-401.7 901.7,-403.3 901.2,-405.1 900.8,-406.2 900.5,-407.3 900.3,-408.3 900,-409 899.8,-409.3 899.7,-409.7 899.4,-410.8 899,-411.9 898.7,-413.1 898.2,-414.7 897.7,-416.3 897.3,-417.4 896.9,-418.5 896.4,-419.8 896,-420.6 895.6,-421.4 895.1,-422.2 894.7,-423 894.3,-423.8 893.9,-424.7 893.4,-425.8 893,-426.7 892.5,-427.8 892,-428.7 891.5,-429.8 891,-430.7 890.5,-431.8 890,-432.7 889.6,-433.6 889.3,-434.3 888.7,-435.6 888.2,-436.7 887.7,-437.7 887.2,-438.7 886.6,-439.7 886.4,-440.1 886,-440.8 885.5,-441.9 884.9,-443.1 884.4,-444.3 883.7,-445.7 883.2,-446.8 882.9,-447.6 882.6,-448.2 882.3,-448.8 882,-449.5 881.6,-450.4 880.9,-451.6 880.3,-452.9 879.6,-454.2 879.1,-455.2 878.3,-456.4 877.7,-457.4 877.1,-458.4 876.2,-459.7 875.3,-461 874.7,-461.9 874.2,-462.7 873.1,-464 872.4,-465 871.5,-466.1 870.7,-467.2 869.8,-468.3 869.2,-469.2 868.5,-470 868,-470.7 867.3,-471.5 866.3,-472.5 865.6,-473.2 864.9,-473.9 864.2,-474.6 863.5,-475.3 862.9,-475.8 862.3,-476.3 861.7,-476.8 860.7,-477.5 859.8,-478.1 859.1,-478.6 858.3,-479 857.6,-479.5 857.2,-479.7 855.7,-480.3 854.1,-481 852.5,-481.7 850.8,-482.3 849.1,-483 848,-483.3 847,-483.5 846,-483.8 845,-484.1 844,-484.3 843.5,-484.4 842.4,-484.7 841.3,-484.9 840.2,-485.1 838.9,-485.3 837.3,-485.5 835.9,-485.5 834.2,-485.4 832.3,-485.3 830.3,-485.1 827.8,-484.7 825.5,-484.2 823.3,-483.8 821.3,-483.3 819.4,-482.9 817.9,-482.5 816.6,-482.2 815.5,-481.9 814.4,-481.6 813.5,-481.3 812.8,-481.1 811.7,-480.8 810.6,-480.4 809.5,-480.1 807.8,-479.6 805.9,-479 804.2,-478.4 802.5,-477.8 800.6,-477.1 799.3,-476.5 798.4,-476.1 797.7,-475.7 796.5,-475.3 795.3,-474.8 794.1,-474.4 792.7,-473.8 791,-473.2 789.8,-472.6 788.6,-472.1 787.4,-471.5 786.4,-471.1 785.7,-470.7 784.5,-470.3 783.3,-469.8 782.1,-469.4 780.6,-468.8 779.1,-468.3 778.1,-467.8 777,-467.4 775.2,-466.6 773.7,-466 772.2,-465.3 770.4,-464.6 768.6,-463.8 767.5,-463.3 766.4,-462.8 765,-462.3 763.6,-461.7 762.5,-461.2 761,-460.6 759.5,-459.9 758,-459.2 756.8,-458.6 755.5,-458.1 754.7,-457.7 753.5,-457.3 752.6,-456.9 750.9,-456.3 749.3,-455.6 746.9,-454.7 744.7,-453.7 742.5,-452.8 740.8,-452 739.1,-451.3 738.1,-450.8 737,-450.4 735.6,-449.8 734.5,-449.4 733,-448.7 731.5,-448.1 730.2,-447.5 729.2,-447 727.9,-446.4 727,-446.1 725.7,-445.6 724.3,-445 722.9,-444.5 721.3,-443.8 719.7,-443.1 717.9,-442.3 716.3,-441.6 714.3,-440.8 712.8,-440.2 710.8,-439.3 709.4,-438.6 707.9,-438 706.8,-437.4 705.6,-436.9 704.5,-436.4 703.3,-436 702.2,-435.5 700.7,-434.9 699,-434.1 697.4,-433.4 695.6,-432.6 693.7,-431.8 691.9,-431 690.3,-430.4 688.5,-429.6 687,-428.9 685.6,-428.2 684.4,-427.6 683.3,-427 682.1,-426.5 680.9,-426 679.7,-425.5 677.9,-424.7 676.1,-423.9 674.8,-423.3 673.5,-422.7 671.9,-422 671,-421.7 669.7,-421.2 668.5,-420.7 666.7,-419.9 665.2,-419.2 663.7,-418.5 662.5,-417.9 661.3,-417.3 660.1,-416.8 658.9,-416.3 657.7,-415.8 656.2,-415.2 654.7,-414.6 653.5,-414.1 652.2,-413.6 650.4,-412.8 648.9,-412.1 647.4,-411.5 646.2,-410.9 644.7,-410.2 643.7,-409.8 642.3,-409.2 640.9,-408.6 639.5,-408 638.1,-407.4 636.7,-406.8 635.8,-406.4 634.4,-405.9 632.7,-405.3 631.4,-404.8 629.8,-404.2 628.2,-403.7 626.8,-403.1 625.5,-402.5 624.1,-402 622.7,-401.4 621.3,-400.8 619.9,-400.2 618.3,-399.6 616.8,-399 615.6,-398.5 614,-397.8 612.6,-397.2 611.6,-396.8 610.1,-396.2 608.4,-395.5 607,-395 605.7,-394.5 604.4,-394 603,-393.4 601.8,-393 600.3,-392.4 598.8,-391.8 597.3,-391.2 595.9,-390.7 594.3,-390.1 593,-389.6 591.7,-389.1 590.1,-388.5 588.9,-388 587.5,-387.4 586.2,-386.9 584.5,-386.3 583.1,-385.8 581.5,-385.2 579.9,-384.6 578.3,-384 577.1,-383.5 575.5,-382.9 573.8,-382.3 572.5,-381.9 570.8,-381.3 569.1,-380.7 567.8,-380.2 566.5,-379.7 565.1,-379.2 563.7,-378.7 562.3,-378.3 560.5,-377.7 559,-377.3 557.3,-376.7 556,-376.3 554.6,-375.8 553.1,-375.4 551.7,-374.9 550.3,-374.5 548.8,-374.1 547.3,-373.7 545.8,-373.3 544.3,-372.9 542.7,-372.5 541.1,-372 539.6,-371.6 538.2,-371.2 536.7,-370.8 535.5,-370.5 533.9,-370.2 532.2,-369.8 530.6,-369.4 529,-369.1 527.5,-368.7 526.3,-368.4 524.6,-368.1 523.2,-367.9 521.8,-367.6 520.3,-367.4 518.7,-367.2 517.4,-367 516,-366.8 514.6,-366.7 512.7,-366.5 511.1,-366.3 509.7,-366.1 508.2,-365.9 506.6,-365.7 505.3,-365.6 503.3,-365.4 501.4,-365.3 499.7,-365.1 498.1,-364.9 496.5,-364.7 495.5,-364.6 494.2,-364.5 492.7,-364.5 491.1,-364.4 489.7,-364.3 488.1,-364.2 486.7,-364.1 485,-364 483.4,-364 481.8,-364 479.9,-363.9 478.1,-363.8 476.7,-363.7 475.4,-363.6 473.8,-363.4 472.5,-363.3 471,-363.2 469.4,-363.1 467.5,-363 465.9,-363 464.3,-363 463.5,-363 462.7,-363" style="stroke: rgb(251, 191, 36); stroke-width: 7;"></polyline></svg>