<svg xmlns="http://www.w3.org/2000/svg" xmlns:xlink="http://www.w3.org/1999/xlink" preserveAspectRatio="xMidYMid meet" height="100%" viewBox="-923 -418 2012 1050"><polygon vector-effect="non-scaling-stroke" fill="none" points="625,-49.8 625.6,-49 626.2,-48.3 627.2,-47.1 628.2,-45.9 629.2,-44.8 630.2,-43.6 631.2,-42.4 632.2,-41.2 633.3,-39.9 634.4,-38.6 635.2,-37.7 636.1,-36.6 637.1,-35.4 638.1,-34.2 639.1,-32.9 640.1,-31.7 641.2,-30.4 642.2,-29.2 643.3,-27.8 644.4,-26.5 645.6,-25.1 646.7,-23.9 647.8,-22.7 648.7,-21.8 650,-20.4 651.2,-19 652.2,-17.8 653.5,-16.2 654.9,-14.5 655.9,-13.3 657.1,-11.9 658.3,-10.5 659.5,-9.1 660.6,-7.8 661.9,-6.2 663,-4.9 664.2,-3.6 665.4,-2.2 666.6,-0.8 667.7,0.4 669.1,2 670.6,3.9 671.9,5.4 673.2,6.9 674.7,8.8 676,10.3 677.6,12.1 679,13.7 680.5,15.4 681.7,16.7 683.2,18.4 684.4,19.8 685.6,21.3 686.8,22.7 688.3,24.5 689.5,26 690.8,27.6 692.4,29.4 694.1,31.5 695.6,33.1 697,34.7 698.4,36.4 699.8,38 701,39.4 702.5,41.3 704.2,43.4 705.8,45.1 707.1,46.7 708.8,48.7 710.3,50.4 711.7,52 713.2,53.8 714.7,55.5 715.9,56.8 717.2,58.4 718.5,59.8 719.8,61.4 721.4,63.3 723,65.3 724.5,67 726.2,69 727.6,70.6 728.8,71.9 730.2,73.5 731.9,75.4 733.3,77 734.8,78.6 736.2,80.3 737.8,82.2 739.1,83.8 740.4,85.5 741.7,87.2 743.3,89.2 744.7,90.8 746.1,92.5 747.8,94.4 749.4,96.2 750.8,97.7 752.2,99.4 753.5,100.8 754.9,102.5 756.5,104.4 758.2,106.5 759.7,108.1 761.1,109.8 762.6,111.5 764.1,113.2 765.4,114.7 766.9,116.5 768.4,118.3 769.8,119.9 771,121.4 772.6,123.3 774,125 775.7,126.9 777.1,128.6 778.6,130.2 780,131.8 781.5,133.6 782.8,135.2 784.4,137 786,138.9 787.3,140.4 788.8,142 790.3,143.7 791.6,145.2 792.9,146.7 794.5,148.6 795.9,150.2 797.5,152 798.9,153.7 800.3,155.3 801.8,157 803.1,158.6 804.2,159.9 805.6,161.6 807,163.3 808.4,164.9 809.8,166.5 811.2,168.1 812.3,169.2 813.7,170.9 814.8,172.2 815.9,173.5 817.3,175.3 819,177.3 820.3,178.8 821.5,180.2 823.1,182.1 824.5,183.7 825.6,185.1 826.8,186.5 828.3,188.3 829.8,190 831.2,191.6 832.7,193.3 834.3,195.1 835.6,196.5 836.7,197.9 837.8,199.1 839.1,200.7 840.4,202.4 841.9,204.2 843.3,205.8 844.8,207.6 846.1,209 847.2,210.1 848.5,211.7 850,213.4 851.4,215 852.7,216.6 854.1,218.2 855.5,219.8 856.7,221.3 858.1,222.9 859.5,224.5 860.8,226.1 862,227.5 863.5,229.1 864.7,230.6 866,232.1 867.6,234 868.9,235.6 869.9,236.8 871.3,238.5 872.8,240.4 874.2,242 875.6,243.6 876.9,245.2 878.3,246.8 879.5,248.2 880.8,249.8 882.2,251.4 883.6,253 884.8,254.5 886.4,256.3 887.7,257.8 888.9,259.3 890.5,261.2 891.9,262.8 893,264.2 894.2,265.6 895.7,267.4 897,269 898.4,270.6 899.8,272.2 901.1,273.8 902.5,275.4 903.8,276.9 905.1,278.5 906.6,280.2 908.1,281.9 909.2,283.2 910.6,284.8 912.1,286.5 913.3,288 914.6,289.5 916.2,291.4 917.4,292.9 918.6,294.3 919.8,295.7 921.2,297.5 922.5,299 924,300.7 925.2,302.2 926.7,303.9 928,305.4 929.1,306.8 930.4,308.4 931.9,310.2 933.2,311.8 934.7,313.5 936.2,315.2 937.3,316.5 938.6,318 940,319.6 941.3,321.2 942.8,322.9 944.3,324.6 945.6,326.2 947,327.8 948.3,329.3 949.4,330.7 950.9,332.5 952.4,334.2 953.6,335.7 955,337.3 956.4,338.9 957.6,340.4 958.8,341.8 960,343.2 961.2,344.8 962.6,346.4 964,348 965.4,349.7 967,351.5 968.3,352.9 969.6,354.5 971,356.1 972.2,357.5 973.4,359.1 974.9,360.9 976.2,362.4 977.7,364.2 979.3,365.9 980.7,367.4 981.8,368.7 983.2,370.3 984.5,371.8 985.7,373.3 987,374.8 988.6,376.7 989.9,378.3 991.1,379.7 992.3,381.1 993.7,382.8 994.8,384 996.5,385.9 998,387.6 999.5,389.3 1000.7,390.7 1002.4,392.6 1003.6,394 1004.7,395.4 1006.1,397.1 1007.7,399 1008.9,400.5 1010.3,402.1 1011.8,403.7 1013,405.1 1014.4,406.7 1015.8,408.3 1017,409.8 1018.2,411.2 1019.7,413 1020.9,414.5 1022.3,416.1 1023.6,417.6 1024.8,419.1 1026.2,420.7 1027.6,422.3 1028.8,423.8 1030,425.3 1031.6,427.2 1032.8,428.7 1033.9,430.1 1035.3,431.8 1036.7,433.5 1038,435.1 1039.4,436.7 1040.8,438.3 1042,439.8 1043.2,441.3 1044.5,443 1045.7,444.6 1047,446.3 1048.3,447.9 1049.6,449.5 1050.7,451 1051.8,452.5 1052.8,453.9 1053.8,455.4 1054.8,456.9 1055.8,458.4 1056.7,459.8 1057.8,461.5 1058.7,462.9 1059.7,464.5 1060.6,465.9 1061.4,467.3 1062.2,468.8 1063,470.3 1063.7,471.8 1064.3,473.1 1065.1,474.7 1065.6,475.8 1066.1,476.9 1066.6,478.1 1067.1,479.3 1067.5,480.7 1068,482.1 1068.4,483.6 1068.9,485.1 1069.3,486.6 1069.6,487.7 1070,489.3 1070.4,490.9 1070.6,492.1 1070.9,493.5 1071.3,495.3 1071.5,496.6 1071.7,497.9 1071.9,499.2 1072.1,500.5 1072.2,501.5 1072.3,502.8 1072.4,504 1072.5,505.4 1072.5,506.8 1072.5,508.2 1072.5,509.4 1072.5,510.8 1072.5,512.2 1072.5,513.6 1072.5,515 1072.5,516.4 1072.5,517.8 1072.5,519.2 1072.4,520.4 1072.3,521.5 1072.2,522.5 1072,523.8 1071.7,524.9 1071.5,526.1 1071.3,527.2 1070.9,528.8 1070.6,530 1070.4,531.2 1070,532.7 1069.6,534.2 1069.4,535.3 1069,536.7 1068.6,538.1 1068.4,539.2 1068.1,540.3 1067.7,541.7 1067.4,542.7 1067,544 1066.6,545.3 1066.1,547.1 1065.7,548.5 1065.3,550 1065,551.2 1064.6,552.6 1064.2,553.9 1063.8,555.2 1063.4,556.5 1062.9,558.1 1062.3,559.9 1061.9,561.3 1061.4,562.7 1061,564.1 1060.5,565.5 1060.2,566.4 1059.7,567.6 1059.3,568.8 1058.7,570.2 1058.3,571.4 1057.7,572.9 1057.3,574.1 1056.7,575.7 1056.3,577 1055.8,578.2 1055.4,579.3 1054.9,580.5 1054.3,581.6 1053.7,582.7 1053,584 1052.4,585.1 1051.7,586.3 1051.2,587.2 1050.6,588.1 1050.2,588.8 1049.5,589.8 1048.8,590.7 1047.8,592 1046.8,593.3 1045.6,594.7 1044.5,595.9 1043.4,597.1 1042.4,598.1 1041.5,599.1 1040.6,600.1 1039.8,600.9 1039.1,601.6 1038.3,602.3 1037.3,603.1 1036.4,603.7 1035.5,604.4 1034.3,605.3 1033.4,605.9 1032.6,606.4 1031.8,607 1030.8,607.6 1030.1,608 1029.2,608.5 1028.3,609 1027.2,609.5 1026.3,610 1025.4,610.4 1024.7,610.7 1023.7,611.1 1022.9,611.4 1021.8,611.8 1020.7,612.2 1019.6,612.6 1018.5,613 1017.4,613.4 1016.6,613.6 1015.8,613.8 1015,614.1 1014,614.3 1013,614.5 1011.9,614.7 1010.8,614.9 1009.6,615 1008.9,615 1008,615.1 1007.1,615.2 1006.1,615.3 1005.1,615.4 1004,615.5 1003,615.5 1002,615.5 1001.1,615.5 1000.1,615.4 999.1,615.3 998.1,615.2 997,615.1 995.9,615 995,615 994.2,615 993.1,614.9 992,614.7 990.8,614.5 989.6,614.3 988.4,614.1 987.5,613.9 986.5,613.7 985.6,613.5 984.7,613.3 983.5,612.9 982.4,612.6 981.6,612.4 980.6,612 979.6,611.6 978.6,611.2 977.5,610.8 976.4,610.3 975.5,610 974.2,609.4 973.2,609 972.1,608.4 971,607.9 969.9,607.3 969.2,606.9 968.5,606.5 967.6,605.9 966.6,605.1 965.5,604.2 964.1,603.1 962.7,602 961.7,601.2 960.7,600.4 959.5,599.5 958.7,598.8 957.9,598.1 957.1,597.4 956.3,596.7 955.8,596.1 955.2,595.5 954.6,594.8 953.8,593.8 953.1,592.8 952.4,591.9 951.7,591 950.8,589.8 950.1,588.8 949.4,587.9 948.5,586.7 947.4,585.2 946.6,584 945.7,582.8 944.8,581.6 944.2,580.7 943.6,579.8 942.9,578.9 942.4,578.1 941.7,577 940.8,575.8 940.2,574.9 939.6,574 938.7,572.7 938.1,571.7 937.5,570.6 936.8,569.5 936,568.2 935.5,567.3 934.7,566.1 933.9,565 933.2,563.9 932.6,563 931.9,562.1 931.1,561 930.5,559.9 929.8,558.8 928.9,557.4 927.9,555.9 927.3,554.9 926.6,554 925.8,552.8 925,551.6 924.4,550.5 923.7,549.4 922.7,547.9 921.8,546.6 921.2,545.6 920.5,544.6 919.6,543.2 918.9,542 918.2,540.9 917.2,539.5 916.3,538.1 915.4,536.7 914.6,535.5 913.8,534.3 913.1,533.1 912.1,531.6 911.4,530.5 910.6,529.1 909.8,527.7 908.9,526.3 908.1,525 907.2,523.7 906.3,522.5 905.5,521.3 904.6,519.9 903.8,518.7 903,517.5 902.2,516.2 901.1,514.6 900.2,513.4 899.3,512 898.4,510.6 897.6,509.5 896.8,508.3 896.1,507.1 895.1,505.7 894.1,504.3 893.1,502.8 892.3,501.5 891.5,500.3 890.7,499 889.9,497.7 889.1,496.5 888.1,495.2 887.1,493.8 886.4,492.7 885.7,491.6 884.8,490.2 884.1,489 883.3,487.7 882.3,486.3 881.4,484.9 880.7,483.7 879.8,482.3 878.8,480.9 878,479.8 877.1,478.6 876.2,477.3 875.5,476.3 875,475.5 874.2,474.1 873.3,472.7 872.3,471.4 871.4,470.1 870.5,468.8 869.8,467.8 869,466.6 868.2,465.4 867.4,464.2 866.6,463 865.7,461.8 865,460.8 864.2,459.6 863.1,458.2 862,456.8 861.2,455.7 860.4,454.7 859.6,453.7 858.9,452.8 858.1,451.8 857.1,450.7 856,449.5 855,448.5 854,447.5 853,446.5 852,445.5 851,444.5 850,443.5 849,442.6 848,441.7 846.8,440.7 845.5,439.7 844.3,438.8 843.2,438 842.2,437.3 841.1,436.5 840.2,435.9 839,435.2 837.8,434.5 836.2,433.6 835,433.1 833.8,432.5 832.7,432 831.6,431.4 830.7,431 829.3,430.4 827.9,429.9 826.7,429.4 825.5,429 824.2,428.6 823.3,428.3 821.9,427.9 820.5,427.6 819.1,427.2 817.5,426.8 815.9,426.5 814.8,426.3 813.5,426.1 812.1,425.9 811.2,425.8 810,425.6 808.5,425.4 807.1,425.2 805.7,425.1 804.3,425 802.9,425 801.8,425 800.6,425 799.2,425 797.7,425 796.3,425 794.9,425 793.5,425 792.1,425 790.8,425 789.6,425 788.1,425 786.7,425 785.3,425 783.9,425 782.5,425 781.1,425 779.8,425 778.4,425 776.9,425 775.4,424.9 774,424.8 772.5,424.7 771.1,424.6 769.8,424.5 768.6,424.5 767.6,424.5 766,424.4 764.7,424.3 763.4,424.2 761.7,423.9 759.9,423.6 758.8,423.4 757.6,423.2 756.4,422.9 755.3,422.7 754.3,422.5 753.1,422.1 752,421.7 750.4,421.2 749.2,420.8 748,420.3 747,420 745.5,419.4 744.5,419 743.3,418.4 742.1,417.9 740.9,417.3 740.2,416.9 739.2,416.3 738.4,415.8 737.6,415.2 736.5,414.5 735.4,413.8 734.2,413 733,412.2 731.8,411.4 730.9,410.8 730,410.2 729.4,409.7 728.7,409.1 727.9,408.4 726.7,407.3 725.5,406.2 724.4,405.3 723.4,404.5 722.5,403.8 721.8,403.1 721.2,402.4 720.5,401.5 719.7,400.5 718.9,399.5 718.1,398.5 717.3,397.5 716.5,396.4 715.8,395.4 714.9,394.1 714.3,393.1 713.6,392.1 712.8,391 712.1,389.9 711.6,389.1 710.9,388 710.2,386.7 709.7,385.7 709,384.4 708.3,383.1 707.8,382.1 707.3,381.2 706.8,380 706.4,379.1 706.1,378.2 705.6,376.9 705.2,375.7 704.8,374.5 704.4,373.3 703.9,371.7 703.5,370.5 703.1,369.3 702.8,368.4 702.4,367 702.1,366 701.7,364.7 701.3,363.4 700.8,361.7 700.4,360.5 700,359.3 699.8,358.4 699.4,356.9 699,355.6 698.7,354.3 698.3,352.9 697.9,351.5 697.6,350.7 697.3,349.6 697,348.4 696.7,347.3 696.3,345.8 696,344.2 695.6,342.8 695.2,341.5 694.8,340.1 694.5,339.1 694.1,337.7 693.8,336.6 693.4,335.1 693,333.7 692.6,332.3 692.2,331 691.8,329.7 691.4,328.5 691.1,327.2 690.7,325.9 690.4,324.9 690,323.5 689.6,322.1 689.2,320.8 688.8,319.5 688.4,318.3 688.1,317 687.8,316 687.4,314.7 687,313.4 686.6,312.1 686.2,310.9 685.8,309.7 685.4,308.5 685,307.3 684.6,306.1 684.2,305 683.7,303.6 683.3,302.5 682.9,301.4 682.4,300 681.8,298.7 681.3,297.7 680.7,296.5 680.1,295.3 679.6,294.4 678.9,293.2 678.3,292 677.7,291 677.1,290 676.4,288.8 675.8,287.8 675.1,286.8 674.5,285.8 673.9,284.8 673.2,283.8 672.5,282.8 671.8,281.7 670.9,280.5 669.9,279.2 668.9,278 668.2,277.1 667.4,276.3 666.7,275.6 665.8,274.7 665,273.9 664,273 662.7,271.8 661.4,270.7 660.4,269.9 659.5,269.1 658.7,268.4 658.2,268 657.4,267.3 656.6,266.6 655.7,266 654.5,265.2 653.1,264.3 651.8,263.6 650.5,262.9 649,262 647.8,261.4 646.6,260.8 645.6,260.3 644.6,259.8 643.8,259.5 642.4,258.9 641.3,258.5 639.9,257.9 638.5,257.4 637.1,256.8 635.9,256.4 634.7,256 633.4,255.6 632.1,255.2 630.7,254.9 629.3,254.5 627.8,254.1 626.7,253.9 625.5,253.6 624,253.2 622.8,253 621.6,252.8 620.4,252.6 618.9,252.4 617.5,252.2 616.1,252 614.7,251.8 613,251.6 611.6,251.5 610.5,251.5 609.4,251.5 608,251.4 606.6,251.3 605.2,251.2 603.8,251.1 602.1,250.9 600.7,250.8 599.3,250.7 597.9,250.6 596.4,250.5 595,250.5 593.7,250.5 592.3,250.5 590.9,250.5 589.5,250.5 588.1,250.5 586.7,250.5 585.4,250.5 584,250.5 582.6,250.5 581.2,250.5 579.7,250.5 578.4,250.5 577,250.5 575.7,250.5 574.3,250.5 572.9,250.5 571.6,250.5 570.5,250.5 569,250.4 567.8,250.3 566.4,250.2 565,250 563.5,249.8 562.1,249.7 560.8,249.6 559.8,249.5 558.3,249.4 557,249.3 555.8,249.1 554.5,248.9 553.2,248.7 552,248.5 550.6,248.2 549.4,248 548.3,247.8 546.8,247.5 545.7,247.2 544.8,247 543.2,246.5 541.6,246 540.4,245.6 539.2,245.2 537.7,244.7 536.9,244.4 535.9,244 534.9,243.5 533.8,243.1 532.6,242.5 531.4,241.9 530.2,241.3 529,240.7 527.7,239.9 526.5,239.3 525.3,238.7 524.3,238.1 523.3,237.6 522.2,237 521.2,236.3 520.2,235.6 519.2,235 518.2,234.3 517.2,233.6 516.3,232.9 515.3,232.1 514,231 512.7,230 511.7,229.2 510.8,228.5 509.7,227.6 508.9,226.9 508.2,226.1 507.4,225.2 506.6,224.3 505.7,223.3 504.8,222.3 503.8,221.3 502.9,220.4 501.8,219.2 501,218.3 500.3,217.4 499.5,216.4 498.6,215.3 497.8,214.4 497.1,213.6 496.4,212.8 495.7,211.9 494.9,210.7 494.3,209.6 493.7,208.5 492.8,207.1 492.1,205.9 491.6,205.1 490.9,204 490.2,202.7 489.7,201.7 489.2,200.7 488.7,199.7 488.2,198.4 487.7,197.3 487.2,196 486.6,194.7 486.1,193.3 485.7,192.5 485.3,191.3 484.8,190.1 484.4,188.8 484,187.6 483.6,186.4 483.2,185 483,183.8 482.8,182.7 482.5,181.6 482.3,180.2 482.1,179 481.9,177.8 481.7,176.5 481.6,175.2 481.5,174 481.5,173 481.5,171.8 481.5,170.6 481.5,169.3 481.5,167.9 481.5,166.6 481.5,165.4 481.5,164 481.5,162.7 481.5,161.7 481.6,160.8 481.8,159.5 482,158.3 482.2,157.1 482.5,155.9 482.8,154.2 483,153 483.2,152 483.6,150.5 483.9,149 484.2,148 484.5,147 484.8,146 485.2,144.8 485.6,143.6 486,142.4 486.4,141.2 486.8,139.9 487.2,138.8 487.6,137.7 488,136.6 488.5,135.1 489,133.7 489.4,132.5 489.8,131.3 490.3,129.7 490.7,128.5 491.1,127.3 491.4,126.4 491.8,125.2 492.2,124.1 492.6,123 493.1,121.9 493.6,120.5 494.1,119.1 494.5,118 494.9,116.9 495.4,115.4 495.8,114.2 496.3,113 496.7,111.8 497.3,110.2 497.7,109 498.1,107.8 498.5,106.7 499,105.2 499.4,104.1 499.8,103 500.4,101.6 500.8,100.3 501.3,99.2 501.7,98.1 502.2,96.7 502.6,95.5 503.1,94.1 503.5,92.9 503.9,91.7 504.4,90.3 504.8,88.9 505.1,87.8 505.4,86.7 505.8,85.4 506.2,84.1 506.6,82.9 507,81.7 507.5,80.2 507.9,78.9 508.2,77.6 508.6,76.3 509,75 509.2,74 509.5,72.6 509.8,71.4 510,70.2 510.2,69 510.4,67.8 510.6,66.4 510.7,65.3 510.8,64 511,62.6 511.2,61.1 511.3,60.2 511.4,59 511.5,57.8 511.5,56.6 511.4,55.4 511.3,54.2 511.2,53.1 511.1,51.9 510.9,50.4 510.8,49 510.7,47.6 510.5,46.4 510.2,45.1 510,44.1 509.8,43.1 509.4,41.7 509.1,40.3 508.9,39.3 508.7,38.4 508.3,37 508.1,36 507.7,34.7 507.3,33.4 506.9,32.1 506.5,31 506,29.7 505.6,28.7 505.2,27.6 504.6,26.2 504.2,25.1 503.6,23.8 503.1,22.5 502.5,21.3 501.9,20.1 501.2,18.9 500.8,18.1 500.3,17.3 499.6,16.1 499.1,15.2 498.6,14.3 497.9,13.2 497.3,12.1 496.7,11.1 495.9,10 495.2,8.9 494.3,7.7 493.3,6.5 492.5,5.6 491.8,4.8 490.9,3.7 490.2,2.8 489.4,1.8 488.6,0.8 487.5,-0.5 486.5,-1.5 485.6,-2.3 484.7,-3.1 483.7,-4 482.9,-4.7 482,-5.5 480.7,-6.7 479.5,-7.7 478.4,-8.6 477.4,-9.4 476.1,-10.4 475.2,-11 474.1,-11.8 473,-12.6 471.9,-13.3 471.2,-13.7 470,-14.5 469,-15.1 467.7,-15.8 466.4,-16.6 465.1,-17.3 464.3,-17.7 463.4,-18.2 462.5,-18.8 461.2,-19.5 459.9,-20.2 458.4,-21 457,-21.7 455.7,-22.3 454.8,-22.8 453.6,-23.4 452.4,-24 451.2,-24.6 450,-25.2 448.4,-25.9 447.1,-26.5 446,-27 444.7,-27.6 443.2,-28.2 442.1,-28.6 441,-29.1 439.9,-29.6 438.5,-30.2 437.5,-30.7 436.3,-31.3 434.8,-32 433.3,-32.6 432,-33.2 430.7,-33.7 429.3,-34.3 427.9,-34.9 426.5,-35.5 425.3,-36 423.9,-36.6 422.4,-37.2 421.2,-37.6 420,-38.1 418.6,-38.6 417.1,-39.1 416,-39.5 414.5,-40 413,-40.5 411.4,-41 410.1,-41.5 408.4,-42 407,-42.5 405.6,-42.9 404.1,-43.3 402.6,-43.7 401,-44.1 399.5,-44.5 397.9,-44.9 396.8,-45.2 395.2,-45.6 394,-45.9 392.8,-46.1 391.1,-46.5 389.4,-46.9 388.1,-47.1 386.6,-47.5 384.7,-47.9 383.4,-48.1 382,-48.3 380.3,-48.7 378.6,-48.9 377.1,-49.1 375.6,-49.3 373.7,-49.7 372.2,-49.9 370.6,-50.1 369.1,-50.3 367.5,-50.5 366.4,-50.5 364.8,-50.7 363.4,-50.9 361.9,-51.1 360.2,-51.3 358.3,-51.5 356.6,-51.5 355,-51.5 353.3,-51.5 351.8,-51.5 350.1,-51.5 348.5,-51.5 347,-51.5 345.4,-51.5 343.9,-51.5 342.4,-51.5 341,-51.5 339.4,-51.5 337.9,-51.5 336.2,-51.5 334.6,-51.5 333,-51.5 331.3,-51.5 329.6,-51.5 328.1,-51.5 326.5,-51.4 324.6,-51.2 322.9,-51 321.4,-50.8 319.7,-50.6 318.1,-50.5 316.5,-50.3 314.9,-50.1 313.4,-49.9 311.8,-49.7 309.9,-49.3 308.4,-49.1 306.9,-48.9 305.3,-48.7 303.5,-48.3 302.3,-48.1 300.6,-47.8 299,-47.4 297.1,-46.9 295.7,-46.6 294.2,-46.2 292.6,-45.8 291,-45.4 289.4,-45 287.8,-44.5 285.8,-43.9 284.4,-43.3 283,-42.8 281.6,-42.2 280.2,-41.6 278.9,-41.1 277.6,-40.6 275.9,-40 274.4,-39.4 272.6,-38.7 271.2,-38.1 269.8,-37.5 268.3,-36.7 267,-36.1 265.7,-35.5 264.2,-34.7 262.7,-34 261.6,-33.5 260.2,-32.8 258.7,-32.1 257.4,-31.5 256,-30.8 254.3,-30 252.9,-29.3 251.8,-28.7 250.4,-28 248.9,-27.3 247.4,-26.5 245.9,-25.7 244.1,-24.7 242.6,-23.9 241.3,-23.1 240.3,-22.5 238.9,-21.7 237.9,-21.2 236.5,-20.4 235.1,-19.6 233.8,-18.8 232.3,-17.9 230.8,-17 229.7,-16.3 228.5,-15.6 226.9,-14.7 225.9,-14.1 224.4,-13.1 222.9,-12.1 221.5,-11.1 220.2,-10.2 218.6,-9.2 217.4,-8.4 216.1,-7.5 214.7,-6.6 213.6,-5.8 212.3,-4.7 211,-3.7 209.8,-2.8 208.4,-1.7 206.9,-0.5 205.8,0.5 204.5,1.7 203.2,2.9 202.2,3.9 201,5 199.8,6 198.7,6.9 197.3,8.1 195.9,9.4 194.7,10.6 193.5,11.8 192.4,13 191.5,14 190.3,15.1 189,16.5 187.8,17.8 186.6,19.1 185.3,20.6 184.3,21.9 183.4,23 182.4,24.2 181.4,25.4 180.5,26.4 179.3,27.9 178.2,29.2 177.2,30.4 175.9,31.9 174.7,33.4 173.8,34.4 172.6,35.8 171.4,37.2 170.6,38.3 169.7,39.4 168.5,40.9 167.6,42 166.7,43.2 165.7,44.4 164.7,45.6 164,46.5 163.1,47.7 162.2,48.9 161.3,50.1 160.4,51.3 159.3,52.7 158.4,53.9 157.4,55.1 156.3,56.5 155.3,57.8 154.5,58.8 153.4,60.1 152.4,61.3 151.5,62.3 150.4,63.6 149.3,64.9 148.3,66.2 147.3,67.5 146.4,68.7 145.7,69.6 144.7,70.9 143.8,71.9 142.7,73.2 141.6,74.5 140.3,76.1 139.3,77.4 138.4,78.6 137.7,79.6 136.9,80.7 136.1,81.8 135.3,82.9 134.4,84.1 133.3,85.5 132.3,86.8 131.5,87.8 130.5,89 129.5,90.3 128.7,91.3 127.9,92.3 126.8,93.6 125.9,94.6 124.9,95.7 123.8,96.9 122.6,98.4 121.7,99.6 120.8,100.8 120,101.8 119.1,103.1 118.3,104.1 117.3,105.4 116.3,106.7 115.4,107.9 114.6,108.8 113.5,110.2 112.6,111.3 111.7,112.4 110.8,113.6 109.9,114.8 109.1,115.8 108.3,116.8 107.3,118.2 106.3,119.5 105.4,120.7 104.6,121.7 103.7,122.8 102.9,123.6 101.8,124.8 100.8,126.1 99.9,127.3 99,128.5 98,129.9 97.3,130.9 96.5,131.8 95.6,132.8 94.5,134.1 93.6,135.1 92.8,136.1 91.9,137.3 91,138.5 90.2,139.6 89.4,140.7 88.5,141.8 87.6,142.8 86.8,143.7 86.3,144.3 85.5,145 84.6,145.8 83.8,146.5 82.6,147.5 81.3,148.5 80.3,149.3 79.5,150 78.5,150.7 77.9,151.1 76.9,151.6 75.8,152.1 74.6,152.5 73.3,153 71.9,153.4 70.9,153.6 69.4,154 67.9,154.4 66.7,154.6 65.4,154.8 64,155 62.8,155.1 61.6,155.2 60.5,155.4 59.6,155.6 58.8,155.8 58.3,155.9 57.7,156 56.9,156 55.8,156 54.3,156.1 52.9,156.3 51.6,156.5 50.4,156.7 49.4,156.9 48.7,157 47.7,157 46.6,157 45.1,157.2 43.7,157.4 42.4,157.6 41.4,157.8 40.4,158 39.8,158 39,158 38.1,158 37.2,158 35.8,158.2 34.4,158.4 33.1,158.6 31.9,158.8 30.6,159 29.8,159 29,159 28.1,159 27.1,159.1 25.7,159.3 24.3,159.5 22.9,159.7 21.7,159.9 20.5,160 19.7,160 18.8,160 17.7,160.1 16.1,160.3 14.6,160.5 13.1,160.7 11.8,160.9 10.6,161 9.8,161 8.8,161.1 7.7,161.2 6.1,161.4 4.5,161.6 3,161.8 1.7,161.9 0.3,162 -0.7,162.1 -2.1,162.3 -3.6,162.5 -5.1,162.7 -6.3,162.9 -7.6,163 -8.6,163 -9.6,163.1 -10.7,163.2 -12.4,163.4 -13.9,163.6 -15.2,163.8 -16.6,163.9 -18,164 -18.8,164 -20.3,164.2 -21.8,164.4 -23.1,164.6 -24.3,164.8 -25.8,165 -26.7,165 -27.7,165 -28.9,165 -30.6,165.1 -32,165.3 -33.3,165.5 -34.5,165.7 -35.8,165.9 -36.7,166 -37.6,166 -38.7,166 -40.3,166.1 -41.6,166.2 -42.8,166.4 -44.1,166.6 -45.3,166.8 -46.3,166.9 -47.4,167 -48.6,167 -50.1,167.1 -51.5,167.2 -52.6,167.3 -53.6,167.4 -54.6,167.6 -55.5,167.7 -56.5,167.8 -57.6,167.9 -58.8,168 -60,168 -61.2,168 -62.4,168 -63.6,168 -64.8,168 -66,168 -67,168 -67.9,168 -68.8,168 -69.6,168 -70.7,167.9 -72.2,167.6 -73.9,167.1 -75.9,166.4 -77.8,165.6 -79.7,164.6 -81.1,163.6 -82.3,162.8 -83.5,161.5 -84.8,160.3 -85.6,159.2 -86.4,158.3 -87.2,157 -87.6,156.4 -88,155.4 -88.4,154.5 -88.9,153.4 -89.5,152.2 -90.1,150.3 -90.6,148.7 -91.2,147.2 -91.6,145.7 -91.9,144.1 -92.1,143.1 -92.4,142.2 -92.6,141.2 -92.9,139.7 -93.1,138.7 -93.4,137.7 -93.6,136.5 -93.9,134.8 -94.1,133.7 -94.4,132.5 -94.7,130.9 -95,129.4 -95.2,128.4 -95.5,127.4 -95.7,126.5 -95.8,125.8 -96,124.7 -96.2,123.6 -96.4,122.5 -96.6,121.4 -96.9,120.1 -97.1,119.2 -97.4,118.3 -97.6,117.4 -97.8,116.5 -98,115.4 -98.2,114.3 -98.4,113.2 -98.7,111.7 -99,110.2 -99.2,109.3 -99.5,108.2 -99.8,106.7 -100,105.6 -100.2,104.5 -100.5,103.4 -100.8,101.9 -101,100.8 -101.2,99.7 -101.5,98.6 -101.8,96.9 -102,95.8 -102.3,94.7 -102.6,93.6 -102.9,91.9 -103.1,90.8 -103.4,89.7 -103.6,88.5 -103.9,86.8 -104.2,85.6 -104.5,84.4 -104.8,82.8 -105.1,81.2 -105.4,80.1 -105.7,78.6 -106,77.1 -106.3,76 -106.6,74.7 -106.9,73 -107.2,71.7 -107.5,70.4 -107.8,68.6 -108.2,67.1 -108.5,65.8 -108.8,64.2 -109.2,62.5 -109.6,60.8 -109.9,59.1 -110.3,57.5 -110.6,56.3 -110.9,54.6 -111.2,53.4 -111.6,51.7 -111.9,50.1 -112.3,48.4 -112.7,46.7 -113,45 -113.3,43.7 -113.7,42 -114,40.3 -114.3,39.1 -114.7,37.4 -115,35.7 -115.3,34.4 -115.7,32.7 -116,31 -116.3,29.8 -116.7,28.1 -117,26.3 -117.4,24.6 -117.8,22.9 -118.1,21.1 -118.4,19.7 -118.8,17.9 -119,16.5 -119.4,14.7 -119.8,12.9 -120.1,11.3 -120.5,9.6 -120.9,7.8 -121.2,6.5 -121.6,4.8 -122,3 -122.3,1.8 -122.7,0.1 -123,-1.7 -123.3,-3.3 -123.7,-5.2 -124,-7.2 -124.4,-9 -124.8,-10.7 -125.1,-12.3 -125.5,-14 -125.9,-15.6 -126.2,-16.9 -126.6,-18.8 -127,-20.5 -127.4,-22.2 -127.8,-24 -128.1,-25.9 -128.5,-27.6 -128.9,-29.4 -129.2,-31.2 -129.6,-32.9 -130,-34.5 -130.4,-36.2 -130.8,-37.9 -131.1,-39.1 -131.4,-40.7 -131.8,-42.7 -132,-44.2 -132.4,-46 -132.8,-47.9 -133.2,-50 -133.6,-51.6 -134,-53.3 -134.4,-55.2 -134.8,-57 -135.2,-58.6 -135.6,-60.3 -136,-62 -136.3,-63.6 -136.7,-65.3 -137.1,-67.1 -137.4,-68.8 -137.8,-70.5 -138.1,-72 -138.5,-73.9 -138.8,-75.3 -139.2,-77.2 -139.6,-79.1 -140,-80.7 -140.3,-82.4 -140.7,-84.2 -141.1,-85.8 -141.4,-87.4 -141.8,-89.2 -142.1,-90.4 -142.4,-92.1 -142.7,-93.5 -143.1,-95.3 -143.4,-96.9 -143.8,-98.6 -144.2,-100.2 -144.5,-101.8 -144.8,-103 -145.2,-104.7 -145.5,-106.4 -145.8,-107.6 -146.1,-109.1 -146.4,-110.9 -146.6,-112.3 -146.9,-113.6 -147.1,-115.1 -147.4,-116.8 -147.6,-118.2 -147.8,-119.5 -147.9,-120.9 -148.2,-122.7 -148.4,-124 -148.6,-125.3 -148.8,-126.7 -149,-128 -149,-129.1 -149,-130.2 -149,-131.6 -149,-133 -149,-134.4 -149,-135.8 -149,-137.2 -149,-138.4 -149,-139.7 -149,-141.2 -149,-142.4 -149,-143.7 -149,-145.1 -149,-146.3 -149,-147.3 -148.9,-148.6 -148.8,-150 -148.7,-151.2 -148.5,-152.4 -148.3,-153.9 -148.2,-155 -148.1,-155.9 -147.9,-157.1 -147.7,-158.5 -147.5,-159.6 -147.3,-160.7 -146.9,-162.2 -146.6,-163.4 -146.4,-164.4 -146,-165.8 -145.6,-167.2 -145.4,-168.2 -145,-169.5 -144.6,-170.8 -144.4,-171.7 -144,-172.9 -143.6,-174.1 -143.2,-175.2 -142.8,-176.3 -142.3,-177.7 -141.9,-178.8 -141.5,-179.9 -141.1,-181 -140.7,-182.2 -140.2,-183.3 -139.8,-184.4 -139.2,-185.8 -138.8,-186.9 -138.2,-188.3 -137.8,-189.5 -137.3,-190.7 -137,-191.6 -136.4,-193.1 -136,-194.2 -135.5,-195.3 -135.1,-196.4 -134.4,-197.9 -134,-198.9 -133.4,-200.2 -132.9,-201.5 -132.3,-202.8 -132,-203.8 -131.4,-205.1 -131,-206.1 -130.4,-207.3 -129.9,-208.5 -129.2,-209.9 -128.7,-211.2 -128.1,-212.5 -127.7,-213.6 -127.1,-214.9 -126.6,-216.3 -126.1,-217.4 -125.7,-218.5 -125.2,-219.6 -124.9,-220.5 -124.4,-221.3 -123.9,-222.5 -123.4,-223.7 -122.9,-224.9 -122.3,-226.3 -121.9,-227.4 -121.5,-228.3 -120.9,-229.5 -120.4,-230.7 -119.9,-231.7 -119.4,-233 -118.9,-234.1 -118.5,-235.1 -118.1,-236.1 -117.6,-237.3 -117.2,-238.2 -116.7,-239.3 -116.3,-240.2 -115.7,-241.4 -115.3,-242.4 -114.9,-243.4 -114.5,-244.4 -114.1,-245.4 -113.8,-246.3 -113.4,-247.2 -112.9,-248.3 -112.6,-249.2 -112.2,-250 -111.8,-250.8 -111.5,-251.6 -111.1,-252.6 -110.7,-253.6 -110.4,-254.7 -110.2,-255.6 -109.9,-257 -109.8,-258 -109.7,-259 -109.6,-261.1 -109.6,-263.2 -109.8,-264.9 -110.3,-267.3 -111,-269.9 -111.8,-271.6 -112.6,-273.2 -113.9,-275.3 -115.5,-277 -117.1,-278.6 -118.7,-279.9 -121,-281.4 -123.9,-282.2 -126.4,-282.6 -129.5,-282.7 -133.5,-282.3 -136.7,-281.6 -139,-280.8 -141.1,-279.9 -142.8,-278.9 -143.6,-278.2 -144.5,-277.6 -145.2,-276.9 -146.3,-275.8 -147.1,-274.9 -147.8,-274.1 -148.5,-273.3 -149.2,-272.5 -149.8,-271.7 -150.4,-270.9 -151.3,-269.6 -152.6,-267.6 -154.1,-265.3 -155.6,-263 -157,-260.6 -158.5,-258.1 -159.5,-256.2 -160.3,-254.8 -160.8,-253.8 -161.4,-252.8 -161.9,-251.9 -162.4,-251 -163.1,-249.7 -163.8,-248.4 -164.7,-246.7 -165.3,-245.5 -166.1,-244.2 -166.9,-242.8 -167.7,-241.4 -168.4,-240.2 -169.1,-239 -169.7,-237.9 -170,-237.2 -170.6,-236.2 -171.2,-235.2 -171.8,-234.2 -172.6,-232.9 -173.5,-231.6 -174.3,-230.2 -175,-229 -175.7,-227.8 -176.4,-226.4 -177.1,-225 -177.6,-224 -178.1,-223 -178.9,-221.7 -179.4,-220.9 -180,-219.9 -180.7,-218.9 -181.4,-217.7 -181.9,-216.8 -182.6,-215.7 -183.2,-214.8 -183.7,-213.9 -184.4,-212.7 -185.1,-211.5 -185.6,-210.5 -186.3,-209.2 -187.1,-207.9 -187.9,-206.6 -188.6,-205.3 -189.4,-204 -190,-203 -190.9,-201.6 -191.5,-200.7 -192.2,-199.7 -193.1,-198.3 -194,-196.9 -194.5,-195.9 -195.3,-194.5 -196.1,-193.2 -196.7,-192.3 -197.3,-191.3 -198.3,-189.6 -199.1,-188.3 -199.9,-187 -200.7,-185.7 -201.4,-184.4 -202.1,-183.4 -202.8,-182.4 -203.7,-181.1 -204.5,-179.7 -205.4,-178.4 -206.2,-177.1 -207,-175.8 -207.6,-174.7 -208.3,-173.6 -209.2,-172.2 -209.9,-171.1 -210.8,-169.7 -211.7,-168.4 -212.5,-167.2 -213.4,-165.8 -214.3,-164.5 -215,-163.5 -216,-162 -217.1,-160.5 -218,-159.3 -218.9,-157.8 -219.8,-156.3 -220.4,-155.3 -221.1,-154.2 -221.9,-152.9 -222.7,-151.9 -223.6,-150.8 -224.7,-149.4 -225.7,-148 -226.4,-147 -227.4,-145.6 -228.3,-144.3 -229,-143.2 -230,-141.8 -231.1,-140.4 -231.9,-139.4 -232.8,-138.3 -233.9,-136.9 -234.7,-135.9 -235.5,-134.9 -236.3,-133.9 -237.4,-132.6 -238.3,-131.6 -239.3,-130.5 -240.7,-129.1 -242.1,-127.7 -243.1,-126.7 -244.3,-125.6 -245.5,-124.5 -246.4,-123.6 -247.3,-122.7 -248.5,-121.5 -249.5,-120.5 -250.6,-119.5 -251.7,-118.5 -252.8,-117.5 -253.9,-116.6 -255.1,-115.6 -256.1,-114.7 -257.4,-113.7 -258.7,-112.7 -259.9,-111.7 -261,-110.8 -262.1,-109.9 -263.2,-109 -264.3,-108.2 -265.5,-107.4 -266.7,-106.6 -268.2,-105.6 -269.3,-104.8 -270.6,-103.8 -271.6,-103.1 -272.9,-102.2 -274,-101.5 -275.4,-100.6 -276.6,-99.8 -277.8,-99 -279.1,-98.2 -280.3,-97.4 -281.4,-96.7 -282.6,-96.1 -283.8,-95.4 -284.9,-94.8 -286.3,-94.1 -287.6,-93.5 -288.8,-92.8 -290,-92.2 -291.3,-91.5 -292.4,-90.9 -293.4,-90.4 -294.7,-89.8 -296.3,-89.1 -297.5,-88.6 -298.6,-88.2 -300.1,-87.6 -301.3,-87.2 -302.5,-86.7 -303.8,-86.3 -305.1,-85.8 -306.4,-85.4 -307.7,-84.9 -308.8,-84.6 -309.8,-84.3 -311.3,-83.9 -312.5,-83.6 -314,-83.3 -315.4,-82.9 -316.9,-82.5 -318,-82.3 -319,-82.1 -320.3,-81.8 -321.6,-81.6 -322.8,-81.4 -324.5,-81.1 -326.2,-80.7 -327.3,-80.5 -328.5,-80.3 -329.9,-80.1 -330.7,-80 -332.2,-79.8 -333.7,-79.6 -335.1,-79.4 -336.4,-79.2 -337.9,-79 -338.7,-78.9 -340.3,-78.7 -341.9,-78.5 -343.4,-78.3 -344.8,-78.1 -346.3,-78 -347,-77.9 -348.5,-77.7 -350,-77.5 -351.4,-77.3 -352.8,-77.1 -354.3,-77 -355,-77 -356.5,-76.8 -358,-76.6 -359.4,-76.4 -360.8,-76.2 -362.2,-76 -363,-76 -364,-76 -365.2,-76 -366.8,-75.8 -368.5,-75.6 -370,-75.4 -371.3,-75.2 -372.5,-75 -373.5,-75 -374.4,-75 -375.5,-75 -376.8,-75 -378.2,-75 -379.3,-75 -380.8,-75 -382.1,-75 -383.4,-75 -384.8,-75 -386.3,-74.9 -387.4,-74.8 -388.9,-74.7 -390.2,-74.6 -391.5,-74.5 -392.9,-74.5 -394.4,-74.6 -395.5,-74.7 -396.9,-74.8 -398.2,-74.9 -399.4,-75 -400.8,-75 -402.2,-75 -403.3,-75 -404.3,-75 -405.7,-75.1 -406.9,-75.2 -408.5,-75.3 -410.1,-75.4 -411.7,-75.5 -413,-75.6 -414.2,-75.7 -415,-75.8 -416.4,-76 -417.7,-76.2 -419,-76.3 -420.4,-76.4 -421.9,-76.6 -422.8,-76.7 -423.7,-76.8 -425,-77 -426.4,-77.2 -427.8,-77.3 -429.3,-77.5 -430.8,-77.7 -431.7,-77.8 -433,-78 -434.4,-78.2 -435.7,-78.4 -437,-78.6 -438.4,-78.8 -439.7,-79 -440.8,-79.3 -442,-79.5 -443.2,-79.7 -444.8,-80 -446,-80.3 -447.2,-80.5 -448.3,-80.7 -449.8,-81.1 -450.9,-81.4 -451.9,-81.6 -453.4,-81.9 -455,-82.3 -456.2,-82.5 -457.3,-82.7 -458.9,-83.1 -460.1,-83.4 -461.2,-83.6 -462.3,-83.9 -463.8,-84.3 -464.8,-84.5 -466.2,-84.9 -467.6,-85.3 -469.1,-85.6 -470.2,-85.9 -471.6,-86.3 -472.6,-86.5 -473.9,-86.9 -475.1,-87.3 -476.3,-87.6 -477.6,-88 -478.8,-88.4 -480.2,-88.7 -481.7,-89.1 -483.2,-89.5 -484.3,-89.8 -485.7,-90.2 -486.7,-90.5 -487.9,-90.9 -489.1,-91.3 -490.3,-91.7 -491.6,-92.1 -492.8,-92.6 -494,-93 -495.2,-93.4 -496.9,-93.9 -498.2,-94.3 -499.5,-94.7 -500.9,-95.1 -502.3,-95.6 -503.2,-95.9 -504.1,-96.3 -505.5,-96.8 -506.9,-97.4 -508.3,-97.9 -509.8,-98.5 -511.3,-99 -512.6,-99.5 -513.6,-99.8 -514.6,-100.2 -516,-100.7 -517.5,-101.3 -518.7,-101.7 -520.1,-102.3 -521.6,-102.8 -522.9,-103.3 -524.1,-103.7 -525.4,-104.2 -526.9,-104.8 -528.3,-105.4 -529.8,-106 -531.3,-106.6 -532.7,-107.2 -533.7,-107.5 -535.2,-108.1 -536.4,-108.6 -537.6,-109.1 -538.8,-109.6 -540.4,-110.3 -541.5,-110.8 -542.7,-111.4 -544.3,-112.1 -545.9,-112.8 -547.3,-113.4 -549,-114.1 -550.5,-114.7 -551.7,-115.2 -553.4,-115.9 -554.9,-116.6 -556.1,-117.1 -557.3,-117.6 -558.8,-118.4 -560.1,-119 -561.3,-119.6 -562.6,-120.3 -563.9,-120.9 -565.2,-121.5 -566.2,-122.1 -567.6,-122.9 -569,-123.6 -570.6,-124.5 -571.8,-125.2 -573.4,-126.1 -574.6,-126.7 -575.7,-127.4 -577,-128.2 -578.3,-129 -579.6,-129.8 -581,-130.7 -582.7,-131.8 -584,-132.6 -585.3,-133.4 -586.4,-134.1 -587.4,-134.8 -588.5,-135.6 -589.9,-136.6 -591.3,-137.6 -592.5,-138.5 -594.1,-139.7 -595.4,-140.5 -596.4,-141.2 -597.4,-141.9 -598.8,-142.9 -599.9,-143.6 -601,-144.5 -602.4,-145.6 -603.8,-146.7 -604.8,-147.5 -606.1,-148.6 -607.3,-149.6 -608.3,-150.5 -609.4,-151.5 -610.6,-152.6 -611.9,-153.7 -613.2,-154.8 -614.4,-155.8 -615.5,-156.7 -616.5,-157.5 -617.5,-158.5 -618.5,-159.5 -619.5,-160.5 -620.5,-161.5 -621.7,-162.7 -622.5,-163.4 -623.5,-164.4 -624.8,-165.7 -626.1,-167 -627.2,-168.1 -628.2,-169.2 -629.2,-170.3 -630,-171.2 -630.9,-172.2 -631.8,-173.2 -633.1,-174.6 -634.2,-175.8 -635.2,-176.9 -636.1,-177.9 -637.2,-179.2 -638,-180.2 -638.9,-181.2 -639.8,-182.2 -640.9,-183.6 -641.9,-184.8 -643,-186.1 -643.9,-187.3 -644.8,-188.5 -645.5,-189.3 -646.2,-190.3 -646.9,-191.4 -647.9,-192.7 -648.9,-194 -650,-195.4 -651.1,-196.7 -651.9,-197.7 -652.6,-198.7 -653.3,-199.7 -654.1,-200.9 -654.8,-202 -655.7,-203.3 -656.7,-204.7 -657.6,-206.1 -658.3,-207.3 -659.2,-208.7 -660,-209.9 -660.8,-211.1 -661.6,-212.4 -662.4,-213.6 -663.2,-214.8 -664,-216.1 -664.6,-217.3 -665.3,-218.4 -666.2,-219.9 -666.9,-221.1 -667.5,-222.2 -668.2,-223.5 -669.1,-225.1 -669.7,-226.3 -670.3,-227.6 -671,-228.9 -671.6,-230.1 -672.2,-231.4 -672.9,-232.7 -673.6,-234.1 -674.3,-235.6 -675.2,-237.2 -675.8,-238.4 -676.5,-239.9 -677.2,-241.2 -677.8,-242.4 -678.3,-243.6 -679,-245.1 -679.6,-246.4 -680.2,-247.7 -680.8,-249 -681.5,-250.5 -682.1,-251.7 -682.7,-253 -683.3,-254.4 -683.9,-255.8 -684.5,-257 -685.1,-258.3 -685.6,-259.4 -686.3,-261 -687.1,-262.6 -687.7,-264 -688.3,-265.4 -688.9,-266.8 -689.4,-267.9 -690.1,-269.4 -690.7,-270.7 -691.3,-271.9 -691.9,-273.2 -692.6,-274.7 -693.1,-275.9 -693.6,-277.1 -694.2,-278.6 -694.9,-280.3 -695.5,-281.7 -696.1,-283 -696.7,-284.4 -697.4,-285.9 -698,-287.2 -698.5,-288.3 -699.2,-289.9 -699.9,-291.5 -700.5,-292.9 -701.2,-294.2 -701.8,-295.6 -702.3,-296.8 -702.9,-298.2 -703.4,-299.4 -704.1,-301 -704.8,-302.6 -705.4,-303.9 -706,-305 -706.6,-306.5 -707.1,-307.8 -707.7,-309.3 -708.3,-310.8 -709,-312.5 -709.6,-313.8 -710.1,-314.9 -710.9,-316.4 -711.6,-317.9 -712.2,-319.1 -712.8,-320.4 -713.6,-322.1 -714.1,-323.2 -714.6,-324.3 -715.3,-325.9 -716.1,-327.5 -716.6,-328.7 -717.2,-330.2 -717.9,-331.9 -718.4,-333.1 -719,-334.5 -719.7,-336.1 -720.3,-337.3 -720.8,-338.4 -721.4,-339.8 -722,-341.2 -722.6,-342.6 -723.2,-344 -724,-345.6 -724.6,-346.9 -725.3,-348.3 -725.9,-349.6 -726.5,-350.9 -727.1,-352.3 -727.8,-353.9 -728.3,-355.1 -729.1,-356.6 -729.8,-358.1 -730.5,-359.4 -731.4,-360.9 -732.2,-362.4 -732.8,-363.5 -733.5,-364.6 -734.2,-366 -734.7,-367 -735.3,-368 -735.8,-369 -736.6,-370.5 -737.3,-371.5 -737.9,-372.6 -738.7,-374 -739.6,-375.4 -740.4,-376.6 -741.1,-377.8 -742,-378.9 -742.8,-379.8 -743.7,-380.8 -744.3,-381.5 -745.1,-382.3 -746,-383.3 -746.8,-384.1 -747.6,-384.9 -748.6,-385.8 -749.8,-386.7 -750.8,-387.4 -752,-388.4 -753.5,-389.4 -754.9,-390.3 -756,-391 -757.1,-391.7 -758,-392.1 -759,-392.7 -760,-393.2 -761,-393.8 -762.2,-394.4 -763.4,-395.1 -764.3,-395.5 -765.2,-395.9 -766.3,-396.4 -767.2,-396.8 -768.4,-397.2 -769.4,-397.6 -770.4,-398 -771.5,-398.3 -772.6,-398.7 -773.8,-399.1 -775,-399.4 -776.2,-399.7 -777.1,-399.9 -778,-400.1 -779,-400.3 -780.1,-400.5 -781.3,-400.7 -782.5,-400.9 -783.7,-401 -784.4,-401.1 -785.4,-401.3 -786.4,-401.5 -787.5,-401.7 -788.7,-401.9 -790,-402 -790.9,-402 -791.9,-402 -792.9,-402 -793.9,-402 -795.1,-402 -796.3,-402 -797.5,-402 -798.7,-402 -799.9,-402 -800.9,-402 -802,-402 -802.9,-402 -803.9,-402 -805.1,-402 -806.2,-402 -807.7,-401.9 -809.2,-401.8 -810.5,-401.6 -811.5,-401.4 -812.6,-401.2 -813.5,-401.1 -814.5,-401 -815.9,-400.9 -817.3,-400.8 -818.6,-400.7 -819.8,-400.6 -821,-400.4 -822.2,-400.2 -823.4,-400 -824.6,-399.8 -825.8,-399.6 -827,-399.4 -828.2,-399.2 -829.4,-399 -830.7,-398.8 -832.2,-398.4 -833.6,-398.1 -834.6,-397.9 -835.6,-397.7 -837.1,-397.3 -838.2,-397.1 -839.3,-396.9 -840.7,-396.5 -842.2,-396.1 -843.1,-395.9 -844.1,-395.6 -845.5,-395.2 -846.7,-395 -848.1,-394.6 -849.7,-394.1 -851.2,-393.7 -852.4,-393.3 -853.8,-392.8 -854.9,-392.4 -855.8,-392.1 -856.7,-391.8 -858.2,-391.3 -859.4,-390.9 -860.6,-390.5 -861.8,-390.1 -863.3,-389.5 -864.3,-389.1 -865.3,-388.6 -866.5,-388.1 -867.8,-387.6 -869,-387.1 -870,-386.7 -871.2,-386.2 -872.4,-385.6 -873.5,-385 -874.6,-384.4 -875.7,-383.8 -876.9,-383.1 -878.2,-382.3 -879.5,-381.5 -880.8,-380.6 -882.1,-379.6 -883.1,-378.9 -883.7,-378.4 -884.6,-377.6 -885.3,-377.1 -886.2,-376.4 -887,-375.6 -887.9,-374.8 -888.8,-374 -889.7,-373.1 -890.3,-372.4 -891.3,-371.4 -892.6,-370 -893.5,-368.8 -894.4,-367.6 -895.3,-366.4 -896.3,-365 -897,-363.8 -897.8,-362.6 -898.6,-361.2 -899.4,-359.8 -899.9,-358.7 -900.3,-357.8 -900.8,-356.7 -901.2,-355.8 -901.7,-354.6 -902.1,-353.6 -902.5,-352.6 -902.8,-351.5 -903.2,-350.4 -903.5,-349.6 -903.8,-348.4 -904.1,-347.2 -904.4,-346.2 -904.7,-344.7 -905,-343.1 -905.2,-341.9 -905.4,-340.7 -905.5,-339.6 -905.5,-339 -905.6,-338 -905.7,-336.9 -905.8,-335.7 -905.9,-334.2 -905.9,-332.2 -905.8,-330.7 -905.7,-329.3 -905.6,-328 -905.5,-327 -905.5,-326.4 -905.4,-325.3 -905.3,-324.2 -905.2,-323.1 -905,-322 -904.7,-320.6 -904.5,-319.6 -904.3,-318.6 -903.9,-317.2 -903.6,-315.8 -903.4,-314.8 -903.2,-313.9 -902.8,-312.7 -902.5,-311.7 -902.2,-310.7 -901.8,-309.7 -901.4,-308.7 -901,-307.7 -900.6,-306.7 -900.2,-305.7 -899.7,-304.5 -899.2,-303.3 -898.6,-302.1 -898,-300.9 -897.3,-299.7 -896.7,-298.5 -896,-297.3 -895.5,-296.2 -894.8,-295 -894.2,-293.8 -893.5,-292.7 -892.9,-291.6 -892.3,-290.8 -892,-290.3 -891.5,-289.6 -891.2,-289 -890.6,-288.1 -889.7,-286.7 -888.8,-285.3 -887.9,-284 -886.8,-282.6 -886,-281.5 -885.5,-280.9 -884.7,-280 -884.1,-279.2 -883.5,-278.4 -882.7,-277.6 -882,-276.7 -881.4,-276 -880.6,-275.2 -879.7,-274.3 -878.9,-273.4 -877.9,-272.4 -877.1,-271.5 -876.4,-270.8 -875.6,-270 -874.8,-269.2 -874.1,-268.4 -873.3,-267.7 -872.4,-266.8 -871.6,-266 -870.9,-265.2 -870.1,-264.4 -869.3,-263.6 -868.5,-262.8 -867.8,-262.1 -866.7,-261.1 -865.3,-259.9 -863.9,-258.6 -862.6,-257.4 -861.4,-256.4 -860.4,-255.6 -859.8,-255 -859.1,-254.3 -858.1,-253.4 -857.1,-252.5 -856.2,-251.7 -855.2,-250.9 -854.2,-250.1 -853.5,-249.5 -852.6,-248.7 -851.7,-247.9 -850.8,-247.1 -849.6,-246.1 -848.4,-245.1 -847.2,-244.2 -846,-243.3 -844.9,-242.5 -844.1,-241.9 -843,-241.1 -842.1,-240.4 -841.2,-239.7 -840.2,-238.9 -839.2,-238.1 -838.2,-237.3 -837.2,-236.5 -836.2,-235.7 -835.2,-234.9 -834.2,-234.1 -833.2,-233.3 -831.9,-232.3 -830.6,-231.3 -829.4,-230.5 -828.2,-229.7 -827.2,-229 -826.2,-228.2 -825.2,-227.4 -824.2,-226.5 -823.2,-225.7 -822.2,-224.9 -821.1,-224.1 -819.8,-223.2 -818.5,-222.3 -817.3,-221.4 -816.1,-220.5 -815.2,-219.7 -814.4,-219 -813.2,-218.1 -811.8,-217.1 -810.5,-216.2 -809.3,-215.4 -808.1,-214.5 -807.2,-213.7 -806,-212.7 -804.8,-211.8 -803.4,-210.8 -802.1,-209.9 -800.9,-209.1 -799.9,-208.4 -798.6,-207.4 -797.5,-206.5 -796.1,-205.4 -794.6,-204.3 -793.4,-203.4 -792.4,-202.7 -791.1,-201.8 -789.8,-201 -788.6,-200.2 -787.4,-199.4 -786.2,-198.5 -784.8,-197.5 -783.5,-196.5 -782.2,-195.5 -780.8,-194.5 -779.4,-193.6 -778.4,-192.9 -777.2,-192.1 -775.9,-191.3 -774.7,-190.5 -773.3,-189.5 -771.7,-188.4 -770.5,-187.6 -769.1,-186.7 -767.7,-185.8 -766.5,-185 -765.2,-184.2 -763.7,-183.2 -762.5,-182.3 -760.9,-181.2 -759.4,-180.2 -757.9,-179.3 -756.7,-178.5 -755.2,-177.6 -754,-176.9 -752.7,-176.1 -751.2,-175.1 -749.6,-174.1 -748.3,-173.2 -747.1,-172.4 -745.6,-171.5 -744.7,-170.9 -743.4,-170.1 -742,-169.3 -740.4,-168.3 -739.1,-167.4 -737.4,-166.3 -735.9,-165.3 -734.5,-164.4 -733,-163.5 -731.6,-162.7 -730,-161.8 -728.6,-161 -727,-160 -725.6,-159.1 -724.2,-158.2 -722.9,-157.3 -721.6,-156.5 -720.2,-155.7 -718.7,-154.8 -717.2,-153.9 -715.8,-153.1 -714.2,-152.1 -712.8,-151.3 -711.4,-150.5 -709.9,-149.7 -708.5,-148.9 -707.3,-148.3 -705.7,-147.4 -704.3,-146.6 -702.9,-145.8 -701.5,-145 -700,-144.1 -698.6,-143.2 -697.2,-142.4 -695.6,-141.5 -694.3,-140.8 -692.7,-139.9 -691.2,-139.1 -689.7,-138.3 -688.4,-137.6 -686.8,-136.7 -685.5,-136 -684.5,-135.5 -683,-134.7 -681.4,-133.8 -680.1,-133.1 -678.8,-132.5 -677.2,-131.6 -675.7,-130.8 -674.4,-130.1 -673,-129.5 -671.4,-128.6 -670,-127.9 -668.6,-127.1 -667.2,-126.4 -665.6,-125.5 -664.3,-124.8 -662.7,-123.9 -661.2,-123.2 -659.6,-122.4 -658.1,-121.6 -656.5,-120.8 -655.3,-120.3 -653.9,-119.6 -652.4,-118.8 -651.1,-118.1 -649.8,-117.5 -648.2,-116.6 -646.7,-115.8 -645.4,-115.1 -643.8,-114.4 -642.3,-113.6 -640.7,-112.8 -639.2,-112.1 -637.6,-111.4 -636.3,-110.7 -634.6,-109.8 -633,-109.1 -631.6,-108.4 -630.1,-107.6 -628.5,-106.8 -626.8,-106.1 -625.3,-105.4 -623.9,-104.7 -622.1,-104 -620.4,-103.3 -619,-102.7 -617.3,-101.9 -615.3,-101 -613.8,-100.3 -612.1,-99.5 -610.2,-98.6 -608.7,-98 -607.2,-97.4 -605.4,-96.6 -603.8,-96 -602.3,-95.4 -600.8,-94.7 -599.2,-94.1 -598,-93.6 -596.5,-92.9 -595,-92.3 -593.4,-91.7 -592,-91 -590.2,-90.3 -588.6,-89.7 -587.1,-89.1 -585.3,-88.4 -583.7,-87.8 -582.2,-87.2 -580.8,-86.6 -579.2,-86 -577.7,-85.4 -576.2,-84.8 -574.6,-84.2 -573,-83.6 -571.5,-82.9 -570,-82.3 -568.4,-81.7 -566.8,-81.1 -565.2,-80.5 -563.6,-80 -562.1,-79.4 -560.3,-78.7 -558.9,-78.1 -557.2,-77.4 -555.3,-76.7 -553.6,-76.1 -552.2,-75.7 -550.5,-75.1 -549,-74.6 -547.7,-74.1 -546.1,-73.5 -544.5,-72.9 -543,-72.3 -541.2,-71.7 -539.7,-71.1 -538,-70.6 -536.3,-70 -534.8,-69.5 -533.1,-68.9 -531.4,-68.3 -530.1,-67.8 -528.6,-67.2 -527,-66.7 -525.7,-66.2 -524,-65.7 -522.3,-65.1 -520.9,-64.7 -519,-64 -517.4,-63.5 -516.1,-63 -514.6,-62.4 -513,-61.8 -511.7,-61.3 -510.1,-60.7 -508.5,-60.1 -506.8,-59.6 -505.1,-59 -503.7,-58.6 -502.3,-58.1 -500.7,-57.6 -499.4,-57.1 -497.8,-56.6 -496.2,-56 -494.4,-55.4 -492.9,-54.9 -491.2,-54.3 -489.9,-53.8 -488.2,-53.2 -486.5,-52.7 -484.8,-52.1 -483.3,-51.7 -481.8,-51.2 -480.1,-50.7 -478.9,-50.2 -477.3,-49.7 -475.8,-49.1 -473.8,-48.5 -472.3,-48 -470.8,-47.6 -469.4,-47.1 -467.7,-46.5 -466.4,-46 -464.8,-45.4 -463.1,-44.8 -461.7,-44.3 -460.3,-43.9 -458.7,-43.3 -457.4,-42.9 -455.7,-42.3 -454,-41.8 -452.3,-41.2 -450.9,-40.8 -449.2,-40.2 -448,-39.8 -446.3,-39.2 -444.9,-38.8 -443.2,-38.2 -441.9,-37.8 -440.2,-37.2 -439,-36.8 -437.3,-36.2 -435.9,-35.8 -434.2,-35.2 -432.9,-34.8 -431.2,-34.2 -429.5,-33.7 -427.8,-33.1 -426.3,-32.7 -424.6,-32.1 -422.9,-31.6 -421.7,-31.1 -420,-30.6 -418.4,-30 -416.9,-29.6 -415.6,-29.1 -413.9,-28.6 -412.7,-28.1 -411,-27.6 -409.4,-27 -407.9,-26.6 -406.6,-26.1 -404.8,-25.6 -403.5,-25.1 -402.1,-24.7 -400.8,-24.2 -399.1,-23.7 -397.9,-23.2 -396.2,-22.7 -394.6,-22.1 -392.9,-21.6 -391.6,-21.1 -389.9,-20.6 -388.7,-20.1 -387,-19.5 -385.4,-18.9 -384,-18.4 -382.7,-17.9 -381.4,-17.4 -380.1,-17 -378.8,-16.5 -377.2,-16 -375.9,-15.5 -374.2,-15 -373,-14.6 -371.5,-14.1 -369.9,-13.6 -368.2,-13.1 -366.9,-12.7 -365.1,-12.1 -363.6,-11.7 -362.5,-11.3 -361.2,-10.9 -359.6,-10.3 -358.4,-9.9 -357,-9.3 -355.1,-8.7 -353.5,-8.1 -352.1,-7.7 -350.4,-7.1 -348.8,-6.7 -347.7,-6.3 -346.4,-5.9 -344.7,-5.3 -343.4,-4.9 -342.1,-4.4 -340.8,-4 -339.1,-3.4 -337.9,-3 -336.7,-2.5 -335.3,-2 -333.5,-1.3 -332.2,-0.9 -330.9,-0.4 -329.1,0.1 -327.6,0.6 -326.5,0.9 -324.9,1.4 -323.3,1.9 -322.1,2.3 -320.7,2.8 -319.3,3.3 -318,3.8 -316.7,4.2 -315.4,4.7 -313.8,5.2 -312.2,5.8 -311,6.2 -309.4,6.8 -307.8,7.3 -306.7,7.7 -305.6,8 -304,8.6 -302.8,9 -301.6,9.4 -300.2,9.9 -298.5,10.5 -297.3,10.9 -295.7,11.4 -294.2,12 -292.8,12.4 -291.4,12.9 -290,13.3 -288.8,13.8 -287.6,14.2 -286.1,14.8 -284.9,15.2 -283.4,15.8 -282,16.2 -280.6,16.6 -279,17.1 -277.4,17.6 -276.2,18 -274.6,18.5 -273,19.1 -272,19.4 -270.6,19.9 -269.2,20.3 -268.3,20.7 -266.8,21.2 -265.3,21.7 -264.2,22.1 -262.7,22.6 -261.2,23.1 -260.3,23.4 -259,23.9 -257.7,24.3 -256.5,24.8 -255.2,25.2 -253.6,25.7 -252.4,26.1 -251.1,26.5 -249.9,26.9 -248.5,27.4 -247.3,27.9 -245.8,28.4 -244.4,29 -242.7,29.5 -241.3,29.9 -240,30.3 -239,30.6 -237.6,31 -236.7,31.3 -235.5,31.8 -234.2,32.2 -232.6,32.7 -231.4,33.1 -230.2,33.5 -228.9,33.9 -227.7,34.3 -226.5,34.8 -225.2,35.2 -223.7,35.8 -222.6,36.2 -221.2,36.7 -220,37.1 -218.6,37.6 -217.4,38 -215.8,38.5 -214.5,39 -213.3,39.4 -212.1,39.8 -210.8,40.2 -209.5,40.6 -208.2,41 -206.8,41.4 -205.4,41.9 -204.1,42.3 -203.2,42.6 -201.9,43 -200.7,43.4 -199.5,43.8 -198.2,44.2 -196.7,44.8 -195.6,45.2 -194.2,45.7 -193,46.1 -191.6,46.6 -190.4,47 -189.2,47.4 -187.9,47.9 -186.7,48.3 -185.5,48.7 -184.2,49.1 -182.5,49.6 -181.2,50 -179.9,50.4 -178.5,50.9 -177.2,51.3 -176.3,51.6 -175.1,52 -173.6,52.5 -172.5,52.9 -171.4,53.3 -169.9,53.9 -168.7,54.3 -167.5,54.7 -166.3,55.1 -164.6,55.6 -163.3,56 -162,56.4 -160.9,56.8 -159.8,57.1 -158.8,57.5 -157.8,57.9 -156.3,58.4 -154.9,58.9 -153.5,59.4 -152.1,59.9 -150.7,60.3 -149.8,60.6 -148.7,61 -147.2,61.5 -146.1,61.9 -144.7,62.4 -143.3,63 -141.7,63.5 -140.5,63.9 -139.3,64.3 -137.9,64.7 -136.5,65.1 -135.5,65.4 -134.2,65.9 -132.8,66.3 -131.9,66.6 -130.5,67.1 -129.1,67.6 -127.9,68 -126.5,68.5 -125.1,69.1 -123.8,69.5 -122.5,69.9 -121.3,70.3 -120.1,70.7 -118.8,71.1 -117.5,71.5 -116.2,72 -114.9,72.4 -113.8,72.7 -112.8,73 -111.8,73.4 -110.1,73.9 -108.4,74.5 -106.4,75.2 -104.5,75.9 -102.6,76.5 -101.4,77 -100.2,77.4 -99,77.8 -97.7,78.2 -96.5,78.6 -95.2,79 -93.6,79.5 -92.4,79.9 -91.2,80.3 -89.8,80.7 -88.5,81.1 -87.5,81.4 -86.2,81.8 -84.9,82.2 -83.7,82.6 -82.3,82.9 -80.9,83.3 -79.8,83.6 -78.3,83.9 -77.2,84.1 -76.3,84.4 -75.1,84.7 -73.7,85 -72.5,85.2 -71.3,85.4 -70.1,85.5 -68.8,85.7 -67.5,85.9 -66.2,86.1 -64.9,86.3 -63.4,86.5 -62.3,86.5 -61.3,86.5 -60.1,86.6 -58.9,86.7 -57.7,86.8 -56.5,86.9 -55,87 -53.5,86.9 -52,86.8 -50.7,86.7 -49.4,86.6 -48.4,86.5 -47.5,86.4 -46.2,86.2 -44.9,86 -43.6,85.8 -42.4,85.6 -41.2,85.5 -40.4,85.4 -39.1,85.2 -37.8,85 -36.5,84.8 -35.2,84.4 -33.8,84.1 -32.9,83.9 -31.6,83.5 -30.3,83.1 -29.3,82.9 -28.1,82.5 -26.8,82.1 -25.6,81.8 -24.4,81.4 -23.2,81 -22,80.7 -20.9,80.3 -19.7,79.9 -18.5,79.5 -17.3,79.1 -16.1,78.7 -14.9,78.3 -13.7,77.9 -12.5,77.5 -11.3,77.1 -10.1,76.6 -8.9,76.2 -7.7,75.8 -6.5,75.4 -5.3,75 -4.1,74.6 -2.7,74.1 -1.6,73.6 -0.5,73.2 0.9,72.6 2.2,72.1 3.3,71.7 4.4,71.3 5.8,70.8 7.1,70.3 8.2,69.9 9.3,69.4 10.8,68.8 12,68.2 13,67.8 14,67.3 15.3,66.7 16.1,66.3 17.4,65.7 18.7,65.1 20,64.5 21,64.1 22.3,63.5 23.4,63.1 24.7,62.5 26,61.9 27.5,61.2 29,60.5 30.2,59.9 31.4,59.3 32.6,58.7 33.6,58.2 34.8,57.6 36,57 37,56.5 38.4,55.8 39.8,55.1 40.7,54.6 41.9,53.9 43.3,53.2 44.3,52.7 45.6,51.9 46.9,51.2 48,50.6 49.3,49.8 50.6,49.1 51.6,48.6 52.9,47.8 54.2,47.1 55.1,46.6 56.4,45.8 57.8,44.9 58.9,44.3 59.9,43.6 61.3,42.7 62.3,42 63.2,41.5 64.5,40.7 65.9,39.8 66.9,39.1 67.9,38.5 69.4,37.5 70.5,36.7 71.5,36 72.7,35.3 73.9,34.5 74.8,33.9 76,33.1 77.3,32.2 78.6,31.3 79.9,30.4 81,29.6 82.1,28.8 83.2,28 84.1,27.2 85,26.5 86.2,25.6 87.2,24.8 88.3,24 89.4,23.2 90.8,22.1 92,21.2 93.2,20.3 94.2,19.5 95.2,18.7 96.2,17.9 97.2,17 98.2,16.1 99.2,15.2 100.5,14.1 101.7,13 102.8,12 103.8,11.1 104.9,10.1 105.7,9.3 106.3,8.7 107.2,7.9 108.2,7 109.2,6.1 110.3,5.1 111.4,4.1 112.5,3.1 113.5,2.3 114.5,1.5 115.5,0.7 116.6,-0.2 117.5,-1 118.6,-2.1 119.6,-3.1 120.6,-4.1 121.6,-5.1 122.6,-6.1 123.5,-7 124.5,-8 125.4,-8.9 126.5,-9.9 127.6,-10.9 128.7,-11.9 129.9,-13 131.1,-14.1 132,-15 132.9,-15.9 133.8,-16.8 134.5,-17.5 135.2,-18.2 136.2,-19.1 137.2,-20 138.2,-20.9 139.3,-21.9 140.5,-23 141.5,-24 142.4,-24.9 143.6,-26.1 144.7,-27.2 145.7,-28.2 146.7,-29.2 147.8,-30.2 148.6,-30.9 149.5,-31.7 150.5,-32.6 151.4,-33.4 152.2,-34.2 153.2,-35.1 154.2,-36 155.2,-36.9 156.3,-37.9 157.5,-39 158.5,-40 159.5,-41 160.6,-42.1 161.6,-43.1 162.6,-44.1 163.6,-45.1 164.6,-46.1 165.5,-46.9 166.5,-47.8 167.5,-48.7 168.5,-49.6 169.5,-50.5 170.4,-51.4 171.2,-52.2 172.2,-53.1 173.2,-54 174.2,-54.9 175.3,-55.9 176.7,-57.3 177.8,-58.5 178.8,-59.6 179.8,-60.7 180.7,-61.7 181.3,-62.2 181.8,-62.7 182.6,-63.4 183.4,-64.1 184.3,-64.9 185.3,-65.9 186.5,-67 187.5,-68 188.5,-69 189.5,-70 190.5,-71 191.4,-71.9 192.2,-72.6 193.2,-73.4 194.2,-74.2 195.2,-75 196.3,-75.9 197.5,-77 198.5,-78 199.5,-79 200.5,-80 201.4,-81 202.2,-81.8 203,-82.6 203.8,-83.4 204.6,-84.2 205.5,-85 206.5,-86 207.4,-86.9 208.5,-87.9 209.5,-88.7 210.5,-89.5 211.5,-90.3 212.5,-91.2 213.3,-92 214.2,-93 215.1,-94 215.9,-94.8 216.8,-95.6 217.7,-96.4 218.6,-97.2 219.5,-98 220.4,-99 221.2,-99.8 222,-100.6 222.8,-101.4 223.6,-102.2 224.5,-103 225.4,-103.8 226.2,-104.5 227.2,-105.5 228.1,-106.4 228.9,-107.2 229.8,-108.1 230.8,-109.1 231.5,-109.7 232.2,-110.3 233.2,-111 234,-111.7 234.8,-112.4 235.7,-113.2 236.6,-113.9 237.5,-114.8 238.5,-115.7 239.3,-116.5 240,-117.1 240.7,-117.8 241.4,-118.4 242.2,-119 243.2,-119.7 244.4,-120.7 245.6,-121.7 246.8,-122.6 248,-123.6 249.2,-124.6 250.5,-125.6 251.9,-126.6 253.1,-127.6 254.1,-128.5 255,-129.2 255.6,-129.7 256.4,-130.3 257.1,-130.8 257.9,-131.2 258.6,-131.7 259.6,-132.4 260.3,-132.9 261.4,-133.7 262.5,-134.5 264.1,-135.6 265.4,-136.4 266.7,-137.2 267.5,-137.7 268.8,-138.5 269.6,-139 270.8,-139.7 272.1,-140.5 274,-141.5 276.8,-142.4 281,-142.6 285.5,-142.1 289.8,-141.4 293.6,-140.4 296.1,-139 297.3,-138 297.9,-137.3 298.6,-136.7 299.3,-135.9 299.9,-135.3 300.5,-134.7 302,-133.5 303.5,-132.1 305,-130.9 306.5,-129.5 308,-128.3 308.5,-127.7 309.9,-126.7 311.2,-125.6 313,-124.4 314.7,-123.1 316.4,-122 317.2,-121.5 318,-121 318.8,-120.6 320.2,-120.1 322.4,-119.5 324.7,-118.9 327,-118.5 329.5,-118.4 332.3,-118.8 334.2,-119.4 336.3,-120.1 338.7,-121 340.6,-121.9 341.9,-122.8 343.7,-123.9 345.1,-125 346.4,-126 347.5,-126.9 348.3,-127.6 349.7,-128.8 351.5,-130.3 353.1,-131.7 355.4,-133.6 357.7,-135.5 359.1,-136.7 360.1,-137.6 361.2,-138.4 361.7,-139 362.9,-140 364.1,-141 365.3,-142 366.5,-143 367.5,-143.8 367.9,-144.1 368.4,-144.6 369,-145 369.8,-145.6 371.1,-146.5 372.5,-147.5 373.6,-148.3 374.7,-149.1 376,-150.1 376.9,-150.7 377.6,-151.3 378.4,-151.8 379.5,-152.6 380.4,-153.1 381.3,-153.6 382.5,-154.3 383.7,-155 384.6,-155.5 385.3,-155.9 386.3,-156.5 387.3,-157 388.3,-157.5 389.3,-158 390.3,-158.5 391.3,-158.9 392,-159.2 392.9,-159.6 393.8,-159.9 394.9,-160.4 395.7,-160.8 396.6,-161.2 397.3,-161.5 398,-161.8 398.9,-162.1 399.8,-162.4 400.7,-162.6 401.9,-163 403.1,-163.4 403.9,-163.6 405.1,-164 406.3,-164.4 407.2,-164.6 408.1,-164.8 409,-165.1 409.6,-165.2 410.8,-165.4 412,-165.7 413.2,-166 414.4,-166.2 416,-166.5 417,-166.7 418.1,-166.9 419.6,-167.1 421.2,-167.3 422.9,-167.6 424.6,-167.9 426.2,-168.1 427.4,-168.3 428.6,-168.5 429.5,-168.5 430.5,-168.5 431.6,-168.5 432.7,-168.5 434.1,-168.5 435.3,-168.5 436.5,-168.5 437.9,-168.5 439.4,-168.5 440.6,-168.5 442,-168.5 443.4,-168.5 444.6,-168.5 446,-168.5 447.4,-168.5 448.6,-168.5 449.8,-168.5 450.9,-168.4 451.7,-168.3 453,-168.1 454.4,-167.9 455.8,-167.7 457.3,-167.5 458.9,-167.3 459.9,-167.2 461.2,-167 462.6,-166.7 464,-166.5 465.4,-166.3 466.8,-166 468.1,-165.7 469.3,-165.5 470.4,-165.2 471.8,-164.8 473.2,-164.5 474.3,-164.2 475.7,-163.8 477.1,-163.4 478.2,-163.1 479.6,-162.6 481,-162.2 482,-161.9 483.3,-161.5 484.5,-161.1 485.8,-160.7 487,-160.3 488.5,-159.7 489.8,-159.3 491.1,-158.8 492.2,-158.4 493.3,-157.9 494.6,-157.4 495.8,-156.8 497,-156.3 498.3,-155.7 499.7,-155.2 500.8,-154.7 501.9,-154.3 503,-153.8 504.3,-153.3 505.5,-152.7 506.7,-152.1 507.9,-151.5 509.3,-150.8 510.5,-150.2 511.7,-149.6 512.7,-149.2 513.7,-148.7 514.8,-148.1 515.8,-147.5 516.9,-146.9 518,-146.3 519.5,-145.5 520.7,-144.9 521.7,-144.4 522.6,-143.9 523.7,-143.2 524.8,-142.5 525.9,-141.8 527.2,-140.9 528.5,-140.1 529.6,-139.4 530.5,-138.8 531.4,-138.3 532.5,-137.6 533.8,-136.7 535.1,-135.9 536.2,-135.2 537.3,-134.4 538.2,-133.8 539,-133.3 539.9,-132.6 541.2,-131.6 542.7,-130.5 544,-129.6 545.2,-128.7 546.3,-127.9 547,-127.4 547.8,-126.8 548.6,-126.2 549.5,-125.5 550.5,-124.7 551.6,-123.8 552.8,-122.9 554.2,-121.8 555.5,-120.8 556.7,-119.9 557.8,-119.1 558.7,-118.4 559.5,-117.8 560.4,-117.1 561.4,-116.3 562.5,-115.4 563.5,-114.5 564.8,-113.3 566,-112.3 567.1,-111.4 568.1,-110.6 569.1,-109.8 569.8,-109.2 570.6,-108.4 571.5,-107.5 572.5,-106.5 573.5,-105.5 574.4,-104.7 575.3,-103.9 576.2,-103.1 577.1,-102.3 578,-101.5 579,-100.5 580,-99.5 581,-98.5 582,-97.5 583,-96.5 584,-95.5 585,-94.5 586,-93.5 587,-92.5 587.9,-91.5 588.9,-90.5 589.8,-89.5 590.7,-88.5 591.6,-87.5 592.5,-86.6 593.2,-85.8 593.9,-85.1 594.8,-84.1 595.7,-83.1 596.7,-82 597.8,-80.8 598.9,-79.5 599.9,-78.5 600.8,-77.5 601.7,-76.5 602.5,-75.6 603.3,-74.8 603.9,-74.1 604.8,-73.1 605.7,-72.1 606.7,-71 607.7,-69.8 608.9,-68.5 609.7,-67.6 610.4,-66.8 611,-66 611.7,-65.1 612.5,-63.9 613.5,-62.6 614.6,-61.2 615.8,-59.8 617,-58.5 617.9,-57.5 618.8,-56.5 619.6,-55.6 620.3,-54.8 620.9,-54.1 621.3,-53.8 621.5,-53.5" style="stroke: rgb(55, 65, 81); stroke-width: 10;"></polygon><polyline vector-effect="non-scaling-stroke" fill="none" points="625,-49.8 625.6,-49 626.2,-48.3 627.2,-47.1 628.2,-45.9 629.2,-44.8 630.2,-43.6 631.2,-42.4 632.2,-41.2 633.3,-39.9 634.4,-38.6 635.2,-37.7 636.1,-36.6 637.1,-35.4 638.1,-34.2 639.1,-32.9 640.1,-31.7 641.2,-30.4 642.2,-29.2 643.3,-27.8 644.4,-26.5 645.6,-25.1 646.7,-23.9 647.8,-22.7 648.7,-21.8 650,-20.4 651.2,-19 652.2,-17.8 653.5,-16.2 654.9,-14.5 655.9,-13.3 657.1,-11.9 658.3,-10.5 659.5,-9.1 660.6,-7.8 661.9,-6.2 663,-4.9 664.2,-3.6 665.4,-2.2 666.6,-0.8 667.7,0.4 669.1,2 670.6,3.9 671.9,5.4 673.2,6.9 674.7,8.8 676,10.3 677.6,12.1 679,13.7 680.5,15.4 681.7,16.7 683.2,18.4 684.4,19.8 685.6,21.3 686.8,22.7 688.3,24.5 689.5,26 690.8,27.6 692.4,29.4 694.1,31.5 695.6,33.1 697,34.7 698.4,36.4 699.8,38 701,39.4 702.5,41.3 704.2,43.4 705.8,45.1 707.1,46.7 708.8,48.7 710.3,50.4 711.7,52 713.2,53.8 714.7,55.5 715.9,56.8 717.2,58.4 718.5,59.8 719.8,61.4 721.4,63.3 723,65.3 724.5,67 726.2,69 727.6,70.6 728.8,71.9 730.2,73.5 731.9,75.4 733.3,77 734.8,78.6 736.2,80.3 737.8,82.2 739.1,83.8 740.4,85.5 741.7,87.2 743.3,89.2 744.7,90.8 746.1,92.5 747.8,94.4 749.4,96.2 750.8,97.7 752.2,99.4 753.5,100.8 754.9,102.5 756.5,104.4 758.2,106.5 759.7,108.1 761.1,109.8 762.6,111.5 764.1,113.2 765.4,114.7 766.9,116.5 768.4,118.3 769.8,119.9 771,121.4 772.6,123.3 774,125 775.7,126.9 777.1,128.6 778.6,130.2 780,131.8 781.5,133.6 782.8,135.2 784.4,137 786,138.9 787.3,140.4 788.8,142 790.3,143.7 791.6,145.2 792.9,146.7 794.5,148.6 795.9,150.2 797.5,152 798.9,153.7 800.3,155.3 801.8,157 803.1,158.6 804.2,159.9 805.6,161.6 807,163.3 808.4,164.9 809.8,166.5 811.2,168.1 812.3,169.2 813.7,170.9 814.8,172.2 815.9,173.5 817.3,175.3 819,177.3 820.3,178.8 821.5,180.2 823.1,182.1 824.5,183.7 825.6,185.1 826.8,186.5 828.3,188.3 829.8,190 831.2,191.6 832.7,193.3 834.3,195.1 835.6,196.5 836.7,197.9 837.8,199.1 839.1,200.7 840.4,202.4 841.9,204.2 843.3,205.8 844.8,207.6 846.1,209 847.2,210.1 848.5,211.7 850,213.4 851.4,215 852.7,216.6 854.1,218.2 855.5,219.8 856.7,221.3 858.1,222.9 859.5,224.5 860.8,226.1 862,227.5 863.5,229.1 864.7,230.6 866,232.1 867.6,234 868.9,235.6 869.9,236.8 871.3,238.5 872.8,240.4 874.2,242 875.6,243.6 876.9,245.2 878.3,246.8 879.5,248.2 880.8,249.8 882.2,251.4 883.6,253 884.8,254.5 886.4,256.3 887.7,257.8 888.9,259.3 890.5,261.2 891.9,262.8 893,264.2 894.2,265.6 895.7,267.4 897,269 898.4,270.6 899.8,272.2 901.1,273.8 902.5,275.4 903.8,276.9 905.1,278.5 906.6,280.2 908.1,281.9 909.2,283.2 910.6,284.8 912.1,286.5 913.3,288 914.6,289.5 916.2,291.4 917.4,292.9 918.6,294.3 919.8,295.7 921.2,297.5 922.5,299 924,300.7 925.2,302.2 926.7,303.9 928,305.4 929.1,306.8 930.4,308.4 931.9,310.2 933.2,311.8 934.7,313.5 936.2,315.2 937.3,316.5 938.6,318 940,319.6 941.3,321.2 942.8,322.9 944.3,324.6 945.6,326.2 947,327.8 948.3,329.3 949.4,330.7 950.9,332.5 952.4,334.2 953.6,335.7 955,337.3 956.4,338.9 957.6,340.4 958.8,341.8 960,343.2 961.2,344.8 962.6,346.4 964,348 965.4,349.7 967,351.5 968.3,352.9 969.6,354.5 971,356.1 972.2,357.5 973.4,359.1 974.9,360.9 976.2,362.4 977.7,364.2 979.3,365.9 980.7,367.4 981.8,368.7 983.2,370.3 984.5,371.8 985.7,373.3 987,374.8 988.6,376.7 989.9,378.3 991.1,379.7 992.3,381.1 993.7,382.8 994.8,384 996.5,385.9 998,387.6 999.5,389.3 1000.7,390.7 1002.4,392.6 1003.6,394 1004.7,395.4 1006.1,397.1 1007.7,399 1008.9,400.5 1010.3,402.1 1011.8,403.7 1013,405.1 1014.4,406.7 1015.8,408.3 1017,409.8 1018.2,411.2 1019.7,413 1020.9,414.5 1022.3,416.1 1023.6,417.6 1024.8,419.1 1026.2,420.7 1027.6,422.3 1028.8,423.8 1030,425.3 1031.6,427.2 1032.8,428.7 1033.9,430.1 1035.3,431.8 1036.7,433.5 1038,435.1 1039.4,436.7 1040.8,438.3 1042,439.8 1043.2,441.3 1044.5,443 1045.7,444.6 1047,446.3 1048.3,447.9 1049.6,449.5 1050.7,451 1051.8,452.5 1052.8,453.9 1053.8,455.4 1054.8,456.9 1055.8,458.4 1056.7,459.8 1057.8,461.5 1058.7,462.9 1059.7,464.5 1060.6,465.9 1061.4,467.3 1062.2,468.8 1063,470.3 1063.7,471.8 1064.3,473.1 1065.1,474.7 1065.6,475.8 1066.1,476.9 1066.6,478.1 1067.1,479.3 1067.5,480.7 1068,482.1 1068.4,483.6 1068.9,485.1 1069.3,486.6 1069.6,487.7 1070,489.3 1070.4,490.9 1070.6,492.1 1070.9,493.5 1071.3,495.3 1071.5,496.6 1071.7,497.9 1071.9,499.2 1072.1,500.5 1072.2,501.5 1072.3,502.8 1072.4,504 1072.5,505.4 1072.5,506.8 1072.5,508.2 1072.5,509.4 1072.5,510.8 1072.5,512.2 1072.5,513.6 1072.5,515 1072.5,516.4 1072.5,517.8 1072.5,519.2 1072.4,520.4 1072.3,521.5 1072.2,522.5 1072,523.8 1071.7,524.9 1071.5,526.1 1071.3,527.2 1070.9,528.8 1070.6,530 1070.4,531.2 1070,532.7 1069.6,534.2 1069.4,535.3 1069,536.7 1068.6,538.1 1068.4,539.2 1068.1,540.3 1067.7,541.7 1067.4,542.7 1067,544 1066.6,545.3 1066.1,547.1 1065.7,548.5 1065.3,550 1065,551.2 1064.6,552.6 1064.2,553.9 1063.8,555.2 1063.4,556.5 1062.9,558.1 1062.3,559.9 1061.9,561.3 1061.4,562.7 1061,564.1 1060.5,565.5 1060.2,566.4 1059.7,567.6 1059.3,568.8 1058.7,570.2 1058.3,571.4 1057.7,572.9 1057.3,574.1 1056.7,575.7 1056.3,577 1055.8,578.2 1055.4,579.3 1054.9,580.5 1054.3,581.6 1053.7,582.7 1053,584 1052.4,585.1 1051.7,586.3 1051.2,587.2 1050.6,588.1 1050.2,588.8 1049.5,589.8 1048.8,590.7 1047.8,592 1046.8,593.3 1045.6,594.7 1044.5,595.9 1043.4,597.1 1042.4,598.1 1041.5,599.1 1040.6,600.1 1039.8,600.9 1039.1,601.6 1038.3,602.3 1037.3,603.1 1036.4,603.7 1035.5,604.4 1034.3,605.3 1033.4,605.9 1032.6,606.4 1031.8,607 1030.8,607.6 1030.1,608 1029.2,608.5 1028.3,609 1027.2,609.5 1026.3,610 1025.4,610.4 1024.7,610.7 1023.7,611.1 1022.9,611.4 1021.8,611.8 1020.7,612.2 1019.6,612.6 1018.5,613 1017.4,613.4 1016.6,613.6 1015.8,613.8 1015,614.1 1014,614.3 1013,614.5 1011.9,614.7 1010.8,614.9 1009.6,615 1008.9,615 1008,615.1 1007.1,615.2 1006.1,615.3 1005.1,615.4 1004,615.5 1003,615.5 1002,615.5 1001.1,615.5 1000.1,615.4 999.1,615.3 998.1,615.2 997,615.1 995.9,615 995,615 994.2,615 993.1,614.9 992,614.7 990.8,614.5 989.6,614.3 988.4,614.1 987.5,613.9 986.5,613.7 985.6,613.5 984.7,613.3 983.5,612.9 982.4,612.6 981.6,612.4 980.6,612 979.6,611.6 978.6,611.2 977.5,610.8 976.4,610.3 975.5,610 974.2,609.4 973.2,609 972.1,608.4 971,607.9 969.9,607.3 969.2,606.9 968.5,606.5 967.6,605.9 966.6,605.1 965.5,604.2 964.1,603.1 962.7,602 961.7,601.2 960.7,600.4 959.5,599.5 958.7,598.8 957.9,598.1 957.1,597.4 956.3,596.7 955.8,596.1 955.2,595.5 954.6,594.8 953.8,593.8 953.1,592.8 952.4,591.9 951.7,591 950.8,589.8 950.1,588.8 949.4,587.9 948.5,586.7 947.4,585.2 946.6,584 945.7,582.8 944.8,581.6 944.2,580.7 943.6,579.8 942.9,578.9 942.4,578.1 941.7,577 940.8,575.8 940.2,574.9 939.6,574 938.7,572.7 938.1,571.7 937.5,570.6 936.8,569.5 936,568.2 935.5,567.3 934.7,566.1 933.9,565 933.2,563.9 932.6,563 931.9,562.1 931.1,561 930.5,559.9 929.8,558.8 928.9,557.4 927.9,555.9 927.3,554.9 926.6,554 925.8,552.8 925,551.6 924.4,550.5 923.7,549.4 922.7,547.9 921.8,546.6 921.2,545.6 920.5,544.6 919.6,543.2 918.9,542 918.2,540.9 917.2,539.5 916.3,538.1 915.4,536.7 914.6,535.5 913.8,534.3 913.1,533.1 912.1,531.6 911.4,530.5 910.6,529.1 909.8,527.7 908.9,526.3 908.1,525 907.2,523.7 906.3,522.5 905.5,521.3 904.6,519.9 903.8,518.7 903,517.5 902.2,516.2 901.1,514.6 900.2,513.4 899.3,512 898.4,510.6 897.6,509.5 896.8,508.3 896.1,507.1 895.1,505.7 894.1,504.3 893.1,502.8 892.3,501.5 891.5,500.3 890.7,499 889.9,497.7 889.1,496.5 888.1,495.2 887.1,493.8 886.4,492.7 885.7,491.6 884.8,490.2 884.1,489 883.3,487.7 882.3,486.3 881.4,484.9 880.7,483.7 879.8,482.3 878.8,480.9 878,479.8 877.1,478.6 876.2,477.3 875.5,476.3 875,475.5 874.2,474.1 873.3,472.7 872.3,471.4 871.4,470.1 870.5,468.8 869.8,467.8 869,466.6 868.2,465.4 867.4,464.2 866.6,463 865.7,461.8 865,460.8 864.2,459.6 863.1,458.2 862,456.8 861.2,455.7 860.4,454.7 859.6,453.7 858.9,452.8 858.1,451.8 857.1,450.7 856,449.5 855,448.5 854,447.5 853,446.5 852,445.5 851,444.5 850,443.5 849,442.6 848,441.7 846.8,440.7 845.5,439.7 844.3,438.8 843.2,438 842.2,437.3 841.1,436.5 840.2,435.9 839,435.2 837.8,434.5 836.2,433.6 835,433.1 833.8,432.5 832.7,432 831.6,431.4 830.7,431 829.3,430.4 827.9,429.9 826.7,429.4 825.5,429 824.2,428.6 823.3,428.3 821.9,427.9 820.5,427.6 819.1,427.2 817.5,426.8 815.9,426.5 814.8,426.3 813.5,426.1 812.1,425.9 811.2,425.8 810,425.6 808.5,425.4 807.1,425.2 805.7,425.1 804.3,425 802.9,425 801.8,425 800.6,425 799.2,425 797.7,425 796.3,425 794.9,425 793.5,425 792.1,425 790.8,425 789.6,425 788.1,425 786.7,425 785.3,425 783.9,425 782.5,425 781.1,425 779.8,425 778.4,425 776.9,425 775.4,424.9 774,424.8 772.5,424.7 771.1,424.6 769.8,424.5 768.6,424.5 767.6,424.5 766,424.4 764.7,424.3 763.4,424.2 761.7,423.9 759.9,423.6 758.8,423.4 757.6,423.2 756.4,422.9 755.3,422.7 754.3,422.5 753.1,422.1 752,421.7 750.4,421.2 749.2,420.8 748,420.3 747,420 745.5,419.4 744.5,419 743.3,418.4 742.1,417.9 740.9,417.3 740.2,416.9 739.2,416.3 738.4,415.8 737.6,415.2 736.5,414.5 735.4,413.8 734.2,413 733,412.2 731.8,411.4 730.9,410.8 730,410.2 729.4,409.7 728.7,409.1 727.9,408.4 726.7,407.3 725.5,406.2 724.4,405.3 723.4,404.5 722.5,403.8 721.8,403.1 721.2,402.4 720.5,401.5 719.7,400.5 718.9,399.5 718.1,398.5 717.3,397.5 716.5,396.4 715.8,395.4 714.9,394.1 714.3,393.1 713.6,392.1 712.8,391 712.1,389.9 711.6,389.1 710.9,388 710.2,386.7 709.7,385.7 709,384.4 708.3,383.1 707.8,382.1 707.3,381.2 706.8,380 706.4,379.1 706.1,378.2 705.6,376.9 705.2,375.7 704.8,374.5 704.4,373.3 703.9,371.7 703.5,370.5 703.1,369.3 702.8,368.4 702.4,367 702.1,366 701.7,364.7 701.3,363.4 700.8,361.7 700.4,360.5 700,359.3 699.8,358.4 699.4,356.9 699,355.6 698.7,354.3 698.3,352.9 697.9,351.5 697.6,350.7 697.3,349.6 697,348.4 696.7,347.3 696.3,345.8 696,344.2 695.6,342.8 695.2,341.5 694.8,340.1 694.5,339.1 694.1,337.7 693.8,336.6 693.4,335.1 693,333.7 692.6,332.3 692.2,331 691.8,329.7 691.4,328.5 691.1,327.2 690.7,325.9 690.4,324.9 690,323.5 689.6,322.1 689.2,320.8 688.8,319.5 688.4,318.3 688.1,317 687.8,316 687.4,314.7 687,313.4 686.6,312.1 686.2,310.9 685.8,309.7 685.4,308.5 685,307.3 684.6,306.1 684.2,305 683.7,303.6 683.3,302.5 682.9,301.4 682.4,300 681.8,298.7 681.3,297.7 680.7,296.5 680.1,295.3 679.6,294.4 678.9,293.2 678.3,292 677.7,291 677.1,290 676.4,288.8 675.8,287.8 675.1,286.8 674.5,285.8 673.9,284.8 673.2,283.8 672.5,282.8 671.8,281.7 670.9,280.5 669.9,279.2 668.9,278 668.2,277.1 667.4,276.3 666.7,275.6 665.8,274.7 665,273.9 664,273 662.7,271.8 661.4,270.7 660.4,269.9 659.5,269.1 658.7,268.4 658.2,268 657.4,267.3 656.6,266.6 655.7,266 654.5,265.2 653.1,264.3 651.8,263.6 650.5,262.9 649,262 647.8,261.4 646.6,260.8 645.6,260.3 644.6,259.8 643.8,259.5 642.4,258.9 641.3,258.5 639.9,257.9 638.5,257.4 637.1,256.8 635.9,256.4 634.7,256 633.4,255.6 632.1,255.2 630.7,254.9 629.3,254.5 627.8,254.1 626.7,253.9 625.5,253.6 624,253.2 622.8,253 621.6,252.8 620.4,252.6 618.9,252.4 617.5,252.2 616.1,252 614.7,251.8 613,251.6 611.6,251.5 610.5,251.5 609.4,251.5 608,251.4 606.6,251.3 605.2,251.2 603.8,251.1 602.1,250.9 600.7,250.8 599.3,250.7 597.9,250.6 596.4,250.5 595,250.5 593.7,250.5 592.3,250.5 590.9,250.5 589.5,250.5 588.1,250.5 586.7,250.5 585.4,250.5 584,250.5 582.6,250.5 581.2,250.5 579.7,250.5 578.4,250.5 577,250.5 575.7,250.5 574.3,250.5 572.9,250.5 571.6,250.5 570.5,250.5 569,250.4 567.8,250.3 566.4,250.2 565,250 563.5,249.8 562.1,249.7 560.8,249.6 559.8,249.5 558.3,249.4 557,249.3 555.8,249.1 554.5,248.9 553.2,248.7 552,248.5 550.6,248.2 549.4,248 548.3,247.8 546.8,247.5 545.7,247.2 544.8,247 543.2,246.5 541.6,246 540.4,245.6 539.2,245.2 537.7,244.7 536.9,244.4 535.9,244 534.9,243.5 533.8,243.1 532.6,242.5 531.4,241.9 530.2,241.3 529,240.7 527.7,239.9 526.5,239.3 525.3,238.7 524.3,238.1 523.3,237.6 522.2,237 521.2,236.3 520.2,235.6 519.2,235 518.2,234.3 517.2,233.6 516.3,232.9 515.3,232.1 514,231 512.7,230 511.7,229.2 510.8,228.5 509.7,227.6 508.9,226.9 508.2,226.1 507.4,225.2 506.6,224.3 505.7,223.3 504.8,222.3 503.8,221.3 502.9,220.4 501.8,219.2 501,218.3 500.3,217.4 499.5,216.4 498.6,215.3 497.8,214.4 497.1,213.6 496.4,212.8 495.7,211.9 494.9,210.7 494.3,209.6 493.7,208.5 492.8,207.1 492.1,205.9 491.6,205.1 490.9,204 490.2,202.7 489.7,201.7 489.2,200.7 488.7,199.7 488.2,198.4 487.7,197.3 487.2,196 486.6,194.7 486.1,193.3 485.7,192.5 485.3,191.3 484.8,190.1 484.4,188.8 484,187.6 483.6,186.4 483.2,185 483,183.8 482.8,182.7 482.5,181.6 482.3,180.2 482.1,179 481.9,177.8 481.7,176.5 481.6,175.2 481.5,174 481.5,173 481.5,171.8 481.5,170.6 481.5,169.3 481.5,167.9 481.5,166.6 481.5,165.4 481.5,164 481.5,162.7 481.5,161.7 481.6,160.8 481.8,159.5 482,158.3 482.2,157.1 482.5,155.9 482.8,154.2 483,153 483.2,152 483.6,150.5 483.9,149 484.2,148 484.5,147 484.8,146 485.2,144.8 485.6,143.6 486,142.4 486.4,141.2 486.8,139.9 487.2,138.8 487.6,137.7 488,136.6 488.5,135.1 489,133.7 489.4,132.5 489.8,131.3 490.3,129.7 490.7,128.5 491.1,127.3 491.4,126.4 491.8,125.2 492.2,124.1 492.6,123 493.1,121.9 493.6,120.5 494.1,119.1 494.5,118 494.9,116.9 495.4,115.4 495.8,114.2 496.3,113 496.7,111.8 497.3,110.2 497.7,109 498.1,107.8 498.5,106.7 499,105.2 499.4,104.1 499.8,103 500.4,101.6 500.8,100.3 501.3,99.2 501.7,98.1 502.2,96.7 502.6,95.5 503.1,94.1 503.5,92.9 503.9,91.7 504.4,90.3 504.8,88.9 505.1,87.8 505.4,86.7 505.8,85.4 506.2,84.1 506.6,82.9 507,81.7 507.5,80.2 507.9,78.9 508.2,77.6 508.6,76.3 509,75 509.2,74 509.5,72.6 509.8,71.4 510,70.2 510.2,69 510.4,67.8 510.6,66.4 510.7,65.3 510.8,64 511,62.6 511.2,61.1 511.3,60.2 511.4,59 511.5,57.8 511.5,56.6 511.4,55.4 511.3,54.2 511.2,53.1 511.1,51.9 510.9,50.4 510.8,49 510.7,47.6 510.5,46.4 510.2,45.1 510,44.1 509.8,43.1 509.4,41.7 509.1,40.3 508.9,39.3 508.7,38.4 508.3,37 508.1,36 507.7,34.7 507.3,33.4 506.9,32.1 506.5,31 506,29.7 505.6,28.7 505.2,27.6 504.6,26.2 504.2,25.1 503.6,23.8 503.1,22.5 502.5,21.3 501.9,20.1 501.2,18.9 500.8,18.1 500.3,17.3 499.6,16.1 499.1,15.2 498.6,14.3 497.9,13.2 497.3,12.1 496.7,11.1 495.9,10 495.2,8.9 494.3,7.7 493.3,6.5 492.5,5.6 491.8,4.8 490.9,3.7 490.2,2.8 489.4,1.8 488.6,0.8 487.5,-0.5 486.5,-1.5 485.6,-2.3 484.7,-3.1 483.7,-4 482.9,-4.7 482,-5.5 480.7,-6.7 479.5,-7.7 478.4,-8.6 477.4,-9.4 476.1,-10.4 475.2,-11 474.1,-11.8 473,-12.6 471.9,-13.3 471.2,-13.7 470,-14.5 469,-15.1 467.7,-15.8 466.4,-16.6 465.1,-17.3 464.3,-17.7 463.4,-18.2 462.5,-18.8 461.2,-19.5 459.9,-20.2 458.4,-21 457,-21.7 455.7,-22.3 454.8,-22.8 453.6,-23.4 452.4,-24 451.2,-24.6 450,-25.2 448.4,-25.9 447.1,-26.5 446,-27 444.7,-27.6 443.2,-28.2 442.1,-28.6 441,-29.1 439.9,-29.6 438.5,-30.2 437.5,-30.7 436.3,-31.3 434.8,-32 433.3,-32.6 432,-33.2 430.7,-33.7 429.3,-34.3 427.9,-34.9 426.5,-35.5 425.3,-36 423.9,-36.6 422.4,-37.2 421.2,-37.6 420,-38.1 418.6,-38.6 417.1,-39.1 416,-39.5 414.5,-40 413,-40.5 411.4,-41 410.1,-41.5 408.4,-42 407,-42.5 405.6,-42.9 404.1,-43.3 402.6,-43.7 401,-44.1 399.5,-44.5 397.9,-44.9 396.8,-45.2 395.2,-45.6 394,-45.9 392.8,-46.1 391.1,-46.5 389.4,-46.9 388.1,-47.1 386.6,-47.5 384.7,-47.9 383.4,-48.1 382,-48.3 380.3,-48.7 378.6,-48.9 377.1,-49.1 375.6,-49.3 373.7,-49.7 372.2,-49.9 370.6,-50.1 369.1,-50.3 367.5,-50.5 366.4,-50.5 364.8,-50.7 363.4,-50.9 361.9,-51.1 360.2,-51.3 358.3,-51.5 356.6,-51.5 355,-51.5 353.3,-51.5 351.8,-51.5 350.1,-51.5 348.5,-51.5 347,-51.5 345.4,-51.5 343.9,-51.5 342.4,-51.5 341,-51.5 339.4,-51.5 337.9,-51.5 336.2,-51.5 334.6,-51.5 333,-51.5 331.3,-51.5 329.6,-51.5 328.1,-51.5 326.5,-51.4 324.6,-51.2 322.9,-51 321.4,-50.8 319.7,-50.6 318.1,-50.5 316.5,-50.3 314.9,-50.1 313.4,-49.9 311.8,-49.7 309.9,-49.3 308.4,-49.1 306.9,-48.9 305.3,-48.7 303.5,-48.3 302.3,-48.1 300.6,-47.8 299,-47.4 297.1,-46.9 295.7,-46.6 294.2,-46.2 292.6,-45.8 291,-45.4 289.4,-45 287.8,-44.5 285.8,-43.9 284.4,-43.3 283,-42.8 281.6,-42.2 280.2,-41.6 278.9,-41.1 277.6,-40.6 275.9,-40 274.4,-39.4 272.6,-38.7 271.2,-38.1 269.8,-37.5 268.3,-36.7 267,-36.1 265.7,-35.5 264.2,-34.7 262.7,-34 261.6,-33.5 260.2,-32.8 258.7,-32.1 257.4,-31.5 256,-30.8 254.3,-30 252.9,-29.3 251.8,-28.7 250.4,-28 248.9,-27.3 247.4,-26.5 245.9,-25.7 244.1,-24.7 242.6,-23.9 241.3,-23.1 240.3,-22.5 238.9,-21.7 237.9,-21.2 236.5,-20.4 235.1,-19.6 233.8,-18.8 232.3,-17.9 230.8,-17 229.7,-16.3 228.5,-15.6 226.9,-14.7 225.9,-14.1 224.4,-13.1 222.9,-12.1 221.5,-11.1 220.2,-10.2 218.6,-9.2 217.4,-8.4 216.1,-7.5 214.7,-6.6 213.6,-5.8 212.3,-4.7 211,-3.7 209.8,-2.8 208.4,-1.7 206.9,-0.5 205.8,0.5 204.5,1.7 203.2,2.9 202.2,3.9 201,5 199.8,6 198.7,6.9 197.3,8.1 195.9,9.4 194.7,10.6 193.5,11.8 192.4,13 191.5,14 190.3,15.1 189,16.5 187.8,17.8 186.6,19.1 185.3,20.6 184.3,21.9 183.4,23 182.4,24.2 181.4,25.4 180.5,26.4 179.3,27.9 178.2,29.2 177.2,30.4 175.9,31.9 174.7,33.4 173.8,34.4 172.6,35.8 171.4,37.2 170.6,38.3 169.7,39.4 168.5,40.9 167.6,42 166.7,43.2 165.7,44.4 164.7,45.6 164,46.5 163.1,47.7 162.2,48.9 161.3,50.1 160.4,51.3 159.3,52.7 158.4,53.9 157.4,55.1 156.3,56.5 155.3,57.8 154.5,58.8 153.4,60.1 152.4,61.3 151.5,62.3 150.4,63.6 149.3,64.9 148.3,66.2 147.3,67.5 146.4,68.7 145.7,69.6 144.7,70.9 143.8,71.9 142.7,73.2 141.6,74.5 140.3,76.1 139.3,77.4 138.4,78.6 137.7,79.6 136.9,80.7 136.1,81.8 135.3,82.9 134.4,84.1 133.3,85.5 132.3,86.8 131.5,87.8 130.5,89 129.5,90.3 128.7,91.3" style="stroke: rgb(239, 68, 68); stroke-width: 7;"></polyline><polyline vector-effect="non-scaling-stroke" fill="none" points="127.9,92.3 126.8,93.6 125.9,94.6 124.9,95.7 123.8,96.9 122.6,98.4 121.7,99.6 120.8,100.8 120,101.8 119.1,103.1 118.3,104.1 117.3,105.4 116.3,106.7 115.4,107.9 114.6,108.8 113.5,110.2 112.6,111.3 111.7,112.4 110.8,113.6 109.9,114.8 109.1,115.8 108.3,116.8 107.3,118.2 106.3,119.5 105.4,120.7 104.6,121.7 103.7,122.8 102.9,123.6 101.8,124.8 100.8,126.1 99.9,127.3 99,128.5 98,129.9 97.3,130.9 96.5,131.8 95.6,132.8 94.5,134.1 93.6,135.1 92.8,136.1 91.9,137.3 91,138.5 90.2,139.6 89.4,140.7 88.5,141.8 87.6,142.8 86.8,143.7 86.3,144.3 85.5,145 84.6,145.8 83.8,146.5 82.6,147.5 81.3,148.5 80.3,149.3 79.5,150 78.5,150.7 77.9,151.1 76.9,151.6 75.8,152.1 74.6,152.5 73.3,153 71.9,153.4 70.9,153.6 69.4,154 67.9,154.4 66.7,154.6 65.4,154.8 64,155 62.8,155.1 61.6,155.2 60.5,155.4 59.6,155.6 58.8,155.8 58.3,155.9 57.7,156 56.9,156 55.8,156 54.3,156.1 52.9,156.3 51.6,156.5 50.4,156.7 49.4,156.9 48.7,157 47.7,157 46.6,157 45.1,157.2 43.7,157.4 42.4,157.6 41.4,157.8 40.4,158 39.8,158 39,158 38.1,158 37.2,158 35.8,158.2 34.4,158.4 33.1,158.6 31.9,158.8 30.6,159 29.8,159 29,159 28.1,159 27.1,159.1 25.7,159.3 24.3,159.5 22.9,159.7 21.7,159.9 20.5,160 19.7,160 18.8,160 17.7,160.1 16.1,160.3 14.6,160.5 13.1,160.7 11.8,160.9 10.6,161 9.8,161 8.8,161.1 7.7,161.2 6.1,161.4 4.5,161.6 3,161.8 1.7,161.9 0.3,162 -0.7,162.1 -2.1,162.3 -3.6,162.5 -5.1,162.7 -6.3,162.9 -7.6,163 -8.6,163 -9.6,163.1 -10.7,163.2 -12.4,163.4 -13.9,163.6 -15.2,163.8 -16.6,163.9 -18,164 -18.8,164 -20.3,164.2 -21.8,164.4 -23.1,164.6 -24.3,164.8 -25.8,165 -26.7,165 -27.7,165 -28.9,165 -30.6,165.1 -32,165.3 -33.3,165.5 -34.5,165.7 -35.8,165.9 -36.7,166 -37.6,166 -38.7,166 -40.3,166.1 -41.6,166.2 -42.8,166.4 -44.1,166.6 -45.3,166.8 -46.3,166.9 -47.4,167 -48.6,167 -50.1,167.1 -51.5,167.2 -52.6,167.3 -53.6,167.4 -54.6,167.6 -55.5,167.7 -56.5,167.8 -57.6,167.9 -58.8,168 -60,168 -61.2,168 -62.4,168 -63.6,168 -64.8,168 -66,168 -67,168 -67.9,168 -68.8,168 -69.6,168 -70.7,167.9 -72.2,167.6 -73.9,167.1 -75.9,166.4 -77.8,165.6 -79.7,164.6 -81.1,163.6 -82.3,162.8 -83.5,161.5 -84.8,160.3 -85.6,159.2 -86.4,158.3 -87.2,157 -87.6,156.4 -88,155.4 -88.4,154.5 -88.9,153.4 -89.5,152.2 -90.1,150.3 -90.6,148.7 -91.2,147.2 -91.6,145.7 -91.9,144.1 -92.1,143.1 -92.4,142.2 -92.6,141.2 -92.9,139.7 -93.1,138.7 -93.4,137.7 -93.6,136.5 -93.9,134.8 -94.1,133.7 -94.4,132.5 -94.7,130.9 -95,129.4 -95.2,128.4 -95.5,127.4 -95.7,126.5 -95.8,125.8 -96,124.7 -96.2,123.6 -96.4,122.5 -96.6,121.4 -96.9,120.1 -97.1,119.2 -97.4,118.3 -97.6,117.4 -97.8,116.5 -98,115.4 -98.2,114.3 -98.4,113.2 -98.7,111.7 -99,110.2 -99.2,109.3 -99.5,108.2 -99.8,106.7 -100,105.6 -100.2,104.5 -100.5,103.4 -100.8,101.9 -101,100.8 -101.2,99.7 -101.5,98.6 -101.8,96.9 -102,95.8 -102.3,94.7 -102.6,93.6 -102.9,91.9 -103.1,90.8 -103.4,89.7 -103.6,88.5 -103.9,86.8 -104.2,85.6 -104.5,84.4 -104.8,82.8 -105.1,81.2 -105.4,80.1 -105.7,78.6 -106,77.1 -106.3,76 -106.6,74.7 -106.9,73 -107.2,71.7 -107.5,70.4 -107.8,68.6 -108.2,67.1 -108.5,65.8 -108.8,64.2 -109.2,62.5 -109.6,60.8 -109.9,59.1 -110.3,57.5 -110.6,56.3 -110.9,54.6 -111.2,53.4 -111.6,51.7 -111.9,50.1 -112.3,48.4 -112.7,46.7 -113,45 -113.3,43.7 -113.7,42 -114,40.3 -114.3,39.1 -114.7,37.4 -115,35.7 -115.3,34.4 -115.7,32.7 -116,31 -116.3,29.8 -116.7,28.1 -117,26.3 -117.4,24.6 -117.8,22.9 -118.1,21.1 -118.4,19.7 -118.8,17.9 -119,16.5 -119.4,14.7 -119.8,12.9 -120.1,11.3 -120.5,9.6 -120.9,7.8 -121.2,6.5 -121.6,4.8 -122,3 -122.3,1.8 -122.7,0.1 -123,-1.7 -123.3,-3.3 -123.7,-5.2 -124,-7.2 -124.4,-9 -124.8,-10.7 -125.1,-12.3 -125.5,-14 -125.9,-15.6 -126.2,-16.9 -126.6,-18.8 -127,-20.5 -127.4,-22.2 -127.8,-24 -128.1,-25.9 -128.5,-27.6 -128.9,-29.4 -129.2,-31.2 -129.6,-32.9 -130,-34.5 -130.4,-36.2 -130.8,-37.9 -131.1,-39.1 -131.4,-40.7 -131.8,-42.7 -132,-44.2 -132.4,-46 -132.8,-47.9 -133.2,-50 -133.6,-51.6 -134,-53.3 -134.4,-55.2 -134.8,-57 -135.2,-58.6 -135.6,-60.3 -136,-62 -136.3,-63.6 -136.7,-65.3 -137.1,-67.1 -137.4,-68.8 -137.8,-70.5 -138.1,-72 -138.5,-73.9 -138.8,-75.3 -139.2,-77.2 -139.6,-79.1 -140,-80.7 -140.3,-82.4 -140.7,-84.2 -141.1,-85.8 -141.4,-87.4 -141.8,-89.2 -142.1,-90.4 -142.4,-92.1 -142.7,-93.5 -143.1,-95.3 -143.4,-96.9 -143.8,-98.6 -144.2,-100.2 -144.5,-101.8 -144.8,-103 -145.2,-104.7 -145.5,-106.4 -145.8,-107.6 -146.1,-109.1 -146.4,-110.9 -146.6,-112.3 -146.9,-113.6 -147.1,-115.1 -147.4,-116.8 -147.6,-118.2 -147.8,-119.5 -147.9,-120.9 -148.2,-122.7 -148.4,-124 -148.6,-125.3 -148.8,-126.7 -149,-128 -149,-129.1 -149,-130.2 -149,-131.6 -149,-133 -149,-134.4 -149,-135.8 -149,-137.2 -149,-138.4 -149,-139.7 -149,-141.2 -149,-142.4 -149,-143.7 -149,-145.1 -149,-146.3 -149,-147.3 -148.9,-148.6 -148.8,-150 -148.7,-151.2 -148.5,-152.4 -148.3,-153.9 -148.2,-155 -148.1,-155.9 -147.9,-157.1 -147.7,-158.5 -147.5,-159.6 -147.3,-160.7 -146.9,-162.2 -146.6,-163.4 -146.4,-164.4 -146,-165.8 -145.6,-167.2 -145.4,-168.2 -145,-169.5 -144.6,-170.8 -144.4,-171.7 -144,-172.9 -143.6,-174.1 -143.2,-175.2 -142.8,-176.3 -142.3,-177.7 -141.9,-178.8 -141.5,-179.9 -141.1,-181 -140.7,-182.2 -140.2,-183.3 -139.8,-184.4 -139.2,-185.8 -138.8,-186.9 -138.2,-188.3 -137.8,-189.5 -137.3,-190.7 -137,-191.6 -136.4,-193.1 -136,-194.2 -135.5,-195.3 -135.1,-196.4 -134.4,-197.9 -134,-198.9 -133.4,-200.2 -132.9,-201.5 -132.3,-202.8 -132,-203.8 -131.4,-205.1 -131,-206.1 -130.4,-207.3 -129.9,-208.5 -129.2,-209.9 -128.7,-211.2 -128.1,-212.5 -127.7,-213.6 -127.1,-214.9 -126.6,-216.3 -126.1,-217.4 -125.7,-218.5 -125.2,-219.6 -124.9,-220.5 -124.4,-221.3 -123.9,-222.5 -123.4,-223.7 -122.9,-224.9 -122.3,-226.3 -121.9,-227.4 -121.5,-228.3 -120.9,-229.5 -120.4,-230.7 -119.9,-231.7 -119.4,-233 -118.9,-234.1 -118.5,-235.1 -118.1,-236.1 -117.6,-237.3 -117.2,-238.2 -116.7,-239.3 -116.3,-240.2 -115.7,-241.4 -115.3,-242.4 -114.9,-243.4 -114.5,-244.4 -114.1,-245.4 -113.8,-246.3 -113.4,-247.2 -112.9,-248.3 -112.6,-249.2 -112.2,-250 -111.8,-250.8 -111.5,-251.6 -111.1,-252.6 -110.7,-253.6 -110.4,-254.7 -110.2,-255.6 -109.9,-257 -109.8,-258 -109.7,-259 -109.6,-261.1 -109.6,-263.2 -109.8,-264.9 -110.3,-267.3 -111,-269.9 -111.8,-271.6 -112.6,-273.2 -113.9,-275.3 -115.5,-277 -117.1,-278.6 -118.7,-279.9 -121,-281.4 -123.9,-282.2 -126.4,-282.6 -129.5,-282.7 -133.5,-282.3 -136.7,-281.6 -139,-280.8 -141.1,-279.9 -142.8,-278.9 -143.6,-278.2 -144.5,-277.6 -145.2,-276.9 -146.3,-275.8 -147.1,-274.9 -147.8,-274.1 -148.5,-273.3 -149.2,-272.5 -149.8,-271.7 -150.4,-270.9 -151.3,-269.6 -152.6,-267.6 -154.1,-265.3 -155.6,-263 -157,-260.6 -158.5,-258.1 -159.5,-256.2 -160.3,-254.8 -160.8,-253.8 -161.4,-252.8 -161.9,-251.9 -162.4,-251 -163.1,-249.7 -163.8,-248.4 -164.7,-246.7 -165.3,-245.5 -166.1,-244.2 -166.9,-242.8 -167.7,-241.4 -168.4,-240.2 -169.1,-239 -169.7,-237.9 -170,-237.2 -170.6,-236.2 -171.2,-235.2 -171.8,-234.2 -172.6,-232.9 -173.5,-231.6 -174.3,-230.2 -175,-229 -175.7,-227.8 -176.4,-226.4 -177.1,-225 -177.6,-224 -178.1,-223 -178.9,-221.7 -179.4,-220.9 -180,-219.9 -180.7,-218.9 -181.4,-217.7 -181.9,-216.8 -182.6,-215.7 -183.2,-214.8 -183.7,-213.9 -184.4,-212.7 -185.1,-211.5 -185.6,-210.5 -186.3,-209.2 -187.1,-207.9 -187.9,-206.6 -188.6,-205.3 -189.4,-204 -190,-203 -190.9,-201.6 -191.5,-200.7 -192.2,-199.7 -193.1,-198.3 -194,-196.9 -194.5,-195.9 -195.3,-194.5 -196.1,-193.2 -196.7,-192.3 -197.3,-191.3 -198.3,-189.6 -199.1,-188.3 -199.9,-187 -200.7,-185.7 -201.4,-184.4 -202.1,-183.4 -202.8,-182.4 -203.7,-181.1 -204.5,-179.7 -205.4,-178.4 -206.2,-177.1 -207,-175.8 -207.6,-174.7 -208.3,-173.6 -209.2,-172.2 -209.9,-171.1 -210.8,-169.7 -211.7,-168.4 -212.5,-167.2 -213.4,-165.8 -214.3,-164.5 -215,-163.5 -216,-162 -217.1,-160.5 -218,-159.3 -218.9,-157.8 -219.8,-156.3 -220.4,-155.3 -221.1,-154.2 -221.9,-152.9 -222.7,-151.9 -223.6,-150.8 -224.7,-149.4 -225.7,-148 -226.4,-147 -227.4,-145.6 -228.3,-144.3 -229,-143.2 -230,-141.8 -231.1,-140.4 -231.9,-139.4 -232.8,-138.3 -233.9,-136.9 -234.7,-135.9 -235.5,-134.9 -236.3,-133.9 -237.4,-132.6 -238.3,-131.6 -239.3,-130.5 -240.7,-129.1 -242.1,-127.7 -243.1,-126.7 -244.3,-125.6 -245.5,-124.5 -246.4,-123.6 -247.3,-122.7 -248.5,-121.5 -249.5,-120.5 -250.6,-119.5 -251.7,-118.5 -252.8,-117.5 -253.9,-116.6 -255.1,-115.6 -256.1,-114.7 -257.4,-113.7 -258.7,-112.7 -259.9,-111.7 -261,-110.8 -262.1,-109.9 -263.2,-109 -264.3,-108.2 -265.5,-107.4 -266.7,-106.6 -268.2,-105.6 -269.3,-104.8 -270.6,-103.8 -271.6,-103.1 -272.9,-102.2 -274,-101.5 -275.4,-100.6 -276.6,-99.8 -277.8,-99 -279.1,-98.2 -280.3,-97.4 -281.4,-96.7 -282.6,-96.1 -283.8,-95.4 -284.9,-94.8 -286.3,-94.1 -287.6,-93.5 -288.8,-92.8 -290,-92.2 -291.3,-91.5 -292.4,-90.9 -293.4,-90.4 -294.7,-89.8 -296.3,-89.1 -297.5,-88.6 -298.6,-88.2 -300.1,-87.6 -301.3,-87.2 -302.5,-86.7 -303.8,-86.3 -305.1,-85.8 -306.4,-85.4 -307.7,-84.9 -308.8,-84.6 -309.8,-84.3 -311.3,-83.9 -312.5,-83.6 -314,-83.3 -315.4,-82.9 -316.9,-82.5 -318,-82.3 -319,-82.1 -320.3,-81.8 -321.6,-81.6 -322.8,-81.4 -324.5,-81.1 -326.2,-80.7 -327.3,-80.5 -328.5,-80.3 -329.9,-80.1 -330.7,-80 -332.2,-79.8 -333.7,-79.6 -335.1,-79.4 -336.4,-79.2 -337.9,-79 -338.7,-78.9 -340.3,-78.7 -341.9,-78.5 -343.4,-78.3 -344.8,-78.1 -346.3,-78 -347,-77.9 -348.5,-77.7 -350,-77.5 -351.4,-77.3 -352.8,-77.1 -354.3,-77 -355,-77 -356.5,-76.8 -358,-76.6 -359.4,-76.4 -360.8,-76.2 -362.2,-76 -363,-76 -364,-76 -365.2,-76 -366.8,-75.8 -368.5,-75.6 -370,-75.4 -371.3,-75.2 -372.5,-75 -373.5,-75 -374.4,-75 -375.5,-75 -376.8,-75 -378.2,-75 -379.3,-75 -380.8,-75 -382.1,-75 -383.4,-75 -384.8,-75 -386.3,-74.9 -387.4,-74.8 -388.9,-74.7 -390.2,-74.6 -391.5,-74.5 -392.9,-74.5 -394.4,-74.6 -395.5,-74.7 -396.9,-74.8 -398.2,-74.9 -399.4,-75 -400.8,-75 -402.2,-75 -403.3,-75 -404.3,-75 -405.7,-75.1 -406.9,-75.2 -408.5,-75.3 -410.1,-75.4 -411.7,-75.5 -413,-75.6 -414.2,-75.7 -415,-75.8 -416.4,-76 -417.7,-76.2 -419,-76.3 -420.4,-76.4 -421.9,-76.6 -422.8,-76.7 -423.7,-76.8 -425,-77 -426.4,-77.2 -427.8,-77.3 -429.3,-77.5 -430.8,-77.7 -431.7,-77.8 -433,-78 -434.4,-78.2 -435.7,-78.4 -437,-78.6 -438.4,-78.8 -439.7,-79 -440.8,-79.3 -442,-79.5 -443.2,-79.7 -444.8,-80 -446,-80.3 -447.2,-80.5 -448.3,-80.7 -449.8,-81.1 -450.9,-81.4 -451.9,-81.6 -453.4,-81.9 -455,-82.3 -456.2,-82.5 -457.3,-82.7 -458.9,-83.1 -460.1,-83.4 -461.2,-83.6 -462.3,-83.9 -463.8,-84.3 -464.8,-84.5 -466.2,-84.9 -467.6,-85.3 -469.1,-85.6 -470.2,-85.9 -471.6,-86.3 -472.6,-86.5 -473.9,-86.9 -475.1,-87.3 -476.3,-87.6 -477.6,-88 -478.8,-88.4 -480.2,-88.7 -481.7,-89.1 -483.2,-89.5 -484.3,-89.8 -485.7,-90.2 -486.7,-90.5 -487.9,-90.9 -489.1,-91.3 -490.3,-91.7 -491.6,-92.1 -492.8,-92.6 -494,-93 -495.2,-93.4 -496.9,-93.9 -498.2,-94.3 -499.5,-94.7 -500.9,-95.1 -502.3,-95.6 -503.2,-95.9 -504.1,-96.3 -505.5,-96.8 -506.9,-97.4 -508.3,-97.9 -509.8,-98.5 -511.3,-99 -512.6,-99.5 -513.6,-99.8 -514.6,-100.2 -516,-100.7 -517.5,-101.3 -518.7,-101.7 -520.1,-102.3 -521.6,-102.8 -522.9,-103.3 -524.1,-103.7 -525.4,-104.2 -526.9,-104.8 -528.3,-105.4 -529.8,-106 -531.3,-106.6 -532.7,-107.2 -533.7,-107.5 -535.2,-108.1 -536.4,-108.6 -537.6,-109.1 -538.8,-109.6 -540.4,-110.3 -541.5,-110.8 -542.7,-111.4 -544.3,-112.1 -545.9,-112.8 -547.3,-113.4 -549,-114.1 -550.5,-114.7 -551.7,-115.2 -553.4,-115.9 -554.9,-116.6 -556.1,-117.1 -557.3,-117.6 -558.8,-118.4 -560.1,-119 -561.3,-119.6 -562.6,-120.3 -563.9,-120.9 -565.2,-121.5 -566.2,-122.1 -567.6,-122.9 -569,-123.6 -570.6,-124.5 -571.8,-125.2 -573.4,-126.1 -574.6,-126.7 -575.7,-127.4 -577,-128.2 -578.3,-129 -579.6,-129.8 -581,-130.7 -582.7,-131.8 -584,-132.6 -585.3,-133.4 -586.4,-134.1 -587.4,-134.8 -588.5,-135.6 -589.9,-136.6 -591.3,-137.6 -592.5,-138.5 -594.1,-139.7 -595.4,-140.5 -596.4,-141.2 -597.4,-141.9 -598.8,-142.9 -599.9,-143.6 -601,-144.5 -602.4,-145.6 -603.8,-146.7 -604.8,-147.5 -606.1,-148.6 -607.3,-149.6 -608.3,-150.5 -609.4,-151.5 -610.6,-152.6 -611.9,-153.7 -613.2,-154.8 -614.4,-155.8 -615.5,-156.7 -616.5,-157.5 -617.5,-158.5 -618.5,-159.5 -619.5,-160.5 -620.5,-161.5 -621.7,-162.7 -622.5,-163.4 -623.5,-164.4 -624.8,-165.7 -626.1,-167 -627.2,-168.1 -628.2,-169.2 -629.2,-170.3 -630,-171.2 -630.9,-172.2 -631.8,-173.2 -633.1,-174.6 -634.2,-175.8 -635.2,-176.9 -636.1,-177.9 -637.2,-179.2 -638,-180.2 -638.9,-181.2 -639.8,-182.2 -640.9,-183.6 -641.9,-184.8 -643,-186.1 -643.9,-187.3 -644.8,-188.5 -645.5,-189.3 -646.2,-190.3 -646.9,-191.4 -647.9,-192.7 -648.9,-194 -650,-195.4 -651.1,-196.7 -651.9,-197.7 -652.6,-198.7 -653.3,-199.7 -654.1,-200.9 -654.8,-202 -655.7,-203.3 -656.7,-204.7 -657.6,-206.1 -658.3,-207.3 -659.2,-208.7 -660,-209.9 -660.8,-211.1 -661.6,-212.4 -662.4,-213.6 -663.2,-214.8 -664,-216.1 -664.6,-217.3 -665.3,-218.4 -666.2,-219.9 -666.9,-221.1 -667.5,-222.2 -668.2,-223.5 -669.1,-225.1 -669.7,-226.3 -670.3,-227.6 -671,-228.9 -671.6,-230.1 -672.2,-231.4 -672.9,-232.7 -673.6,-234.1 -674.3,-235.6 -675.2,-237.2 -675.8,-238.4 -676.5,-239.9 -677.2,-241.2 -677.8,-242.4 -678.3,-243.6 -679,-245.1 -679.6,-246.4 -680.2,-247.7 -680.8,-249 -681.5,-250.5 -682.1,-251.7 -682.7,-253 -683.3,-254.4 -683.9,-255.8 -684.5,-257 -685.1,-258.3 -685.6,-259.4 -686.3,-261 -687.1,-262.6 -687.7,-264 -688.3,-265.4 -688.9,-266.8 -689.4,-267.9 -690.1,-269.4 -690.7,-270.7 -691.3,-271.9 -691.9,-273.2 -692.6,-274.7 -693.1,-275.9 -693.6,-277.1 -694.2,-278.6 -694.9,-280.3 -695.5,-281.7 -696.1,-283 -696.7,-284.4 -697.4,-285.9 -698,-287.2 -698.5,-288.3 -699.2,-289.9 -699.9,-291.5 -700.5,-292.9 -701.2,-294.2 -701.8,-295.6 -702.3,-296.8 -702.9,-298.2 -703.4,-299.4 -704.1,-301 -704.8,-302.6 -705.4,-303.9 -706,-305 -706.6,-306.5 -707.1,-307.8 -707.7,-309.3 -708.3,-310.8 -709,-312.5 -709.6,-313.8 -710.1,-314.9 -710.9,-316.4 -711.6,-317.9 -712.2,-319.1 -712.8,-320.4 -713.6,-322.1 -714.1,-323.2 -714.6,-324.3 -715.3,-325.9 -716.1,-327.5 -716.6,-328.7 -717.2,-330.2 -717.9,-331.9 -718.4,-333.1 -719,-334.5 -719.7,-336.1 -720.3,-337.3 -720.8,-338.4 -721.4,-339.8 -722,-341.2 -722.6,-342.6 -723.2,-344 -724,-345.6 -724.6,-346.9 -725.3,-348.3 -725.9,-349.6 -726.5,-350.9 -727.1,-352.3 -727.8,-353.9 -728.3,-355.1 -729.1,-356.6 -729.8,-358.1 -730.5,-359.4 -731.4,-360.9 -732.2,-362.4 -732.8,-363.5 -733.5,-364.6 -734.2,-366 -734.7,-367 -735.3,-368 -735.8,-369 -736.6,-370.5 -737.3,-371.5 -737.9,-372.6 -738.7,-374 -739.6,-375.4 -740.4,-376.6 -741.1,-377.8 -742,-378.9 -742.8,-379.8 -743.7,-380.8 -744.3,-381.5 -745.1,-382.3 -746,-383.3 -746.8,-384.1 -747.6,-384.9 -748.6,-385.8 -749.8,-386.7 -750.8,-387.4 -752,-388.4 -753.5,-389.4 -754.9,-390.3 -756,-391 -757.1,-391.7 -758,-392.1 -759,-392.7 -760,-393.2 -761,-393.8 -762.2,-394.4 -763.4,-395.1 -764.3,-395.5 -765.2,-395.9 -766.3,-396.4 -767.2,-396.8 -768.4,-397.2 -769.4,-397.6 -770.4,-398 -771.5,-398.3 -772.6,-398.7 -773.8,-399.1 -775,-399.4 -776.2,-399.7 -777.1,-399.9 -778,-400.1 -779,-400.3 -780.1,-400.5 -781.3,-400.7 -782.5,-400.9 -783.7,-401 -784.4,-401.1 -785.4,-401.3 -786.4,-401.5 -787.5,-401.7 -788.7,-401.9 -790,-402 -790.9,-402 -791.9,-402 -792.9,-402 -793.9,-402 -795.1,-402 -796.3,-402 -797.5,-402 -798.7,-402 -799.9,-402 -800.9,-402 -802,-402 -802.9,-402 -803.9,-402 -805.1,-402 -806.2,-402 -807.7,-401.9 -809.2,-401.8 -810.5,-401.6 -811.5,-401.4 -812.6,-401.2 -813.5,-401.1 -814.5,-401 -815.9,-400.9 -817.3,-400.8 -818.6,-400.7 -819.8,-400.6 -821,-400.4 -822.2,-400.2 -823.4,-400 -824.6,-399.8 -825.8,-399.6 -827,-399.4 -828.2,-399.2 -829.4,-399 -830.7,-398.8 -832.2,-398.4 -833.6,-398.1 -834.6,-397.9 -835.6,-397.7 -837.1,-397.3 -838.2,-397.1 -839.3,-396.9 -840.7,-396.5 -842.2,-396.1 -843.1,-395.9 -844.1,-395.6 -845.5,-395.2 -846.7,-395 -848.1,-394.6 -849.7,-394.1 -851.2,-393.7 -852.4,-393.3 -853.8,-392.8 -854.9,-392.4 -855.8,-392.1 -856.7,-391.8 -858.2,-391.3 -859.4,-390.9 -860.6,-390.5 -861.8,-390.1 -863.3,-389.5 -864.3,-389.1 -865.3,-388.6 -866.5,-388.1 -867.8,-387.6 -869,-387.1 -870,-386.7 -871.2,-386.2 -872.4,-385.6 -873.5,-385 -874.6,-384.4 -875.7,-383.8 -876.9,-383.1 -878.2,-382.3 -879.5,-381.5 -880.8,-380.6 -882.1,-379.6 -883.1,-378.9 -883.7,-378.4 -884.6,-377.6 -885.3,-377.1 -886.2,-376.4 -887,-375.6 -887.9,-374.8 -888.8,-374 -889.7,-373.1 -890.3,-372.4 -891.3,-371.4 -892.6,-370 -893.5,-368.8 -894.4,-367.6 -895.3,-366.4 -896.3,-365 -897,-363.8 -897.8,-362.6 -898.6,-361.2 -899.4,-359.8 -899.9,-358.7 -900.3,-357.8 -900.8,-356.7 -901.2,-355.8 -901.7,-354.6 -902.1,-353.6 -902.5,-352.6 -902.8,-351.5 -903.2,-350.4 -903.5,-349.6 -903.8,-348.4 -904.1,-347.2 -904.4,-346.2 -904.7,-344.7 -905,-343.1 -905.2,-341.9 -905.4,-340.7 -905.5,-339.6 -905.5,-339 -905.6,-338 -905.7,-336.9 -905.8,-335.7 -905.9,-334.2 -905.9,-332.2 -905.8,-330.7 -905.7,-329.3 -905.6,-328 -905.5,-327 -905.5,-326.4 -905.4,-325.3 -905.3,-324.2 -905.2,-323.1 -905,-322 -904.7,-320.6 -904.5,-319.6 -904.3,-318.6 -903.9,-317.2 -903.6,-315.8 -903.4,-314.8 -903.2,-313.9 -902.8,-312.7 -902.5,-311.7 -902.2,-310.7 -901.8,-309.7 -901.4,-308.7 -901,-307.7 -900.6,-306.7 -900.2,-305.7 -899.7,-304.5 -899.2,-303.3 -898.6,-302.1 -898,-300.9 -897.3,-299.7 -896.7,-298.5 -896,-297.3 -895.5,-296.2 -894.8,-295 -894.2,-293.8 -893.5,-292.7 -892.9,-291.6 -892.3,-290.8 -892,-290.3 -891.5,-289.6 -891.2,-289 -890.6,-288.1 -889.7,-286.7 -888.8,-285.3 -887.9,-284 -886.8,-282.6 -886,-281.5 -885.5,-280.9 -884.7,-280 -884.1,-279.2 -883.5,-278.4 -882.7,-277.6 -882,-276.7 -881.4,-276 -880.6,-275.2 -879.7,-274.3 -878.9,-273.4 -877.9,-272.4 -877.1,-271.5 -876.4,-270.8 -875.6,-270 -874.8,-269.2 -874.1,-268.4 -873.3,-267.7 -872.4,-266.8 -871.6,-266 -870.9,-265.2 -870.1,-264.4 -869.3,-263.6 -868.5,-262.8 -867.8,-262.1 -866.7,-261.1 -865.3,-259.9 -863.9,-258.6 -862.6,-257.4 -861.4,-256.4 -860.4,-255.6 -859.8,-255 -859.1,-254.3 -858.1,-253.4 -857.1,-252.5 -856.2,-251.7 -855.2,-250.9 -854.2,-250.1 -853.5,-249.5 -852.6,-248.7 -851.7,-247.9 -850.8,-247.1 -849.6,-246.1 -848.4,-245.1 -847.2,-244.2 -846,-243.3 -844.9,-242.5 -844.1,-241.9 -843,-241.1 -842.1,-240.4 -841.2,-239.7 -840.2,-238.9 -839.2,-238.1 -838.2,-237.3 -837.2,-236.5 -836.2,-235.7 -835.2,-234.9 -834.2,-234.1 -833.2,-233.3 -831.9,-232.3 -830.6,-231.3 -829.4,-230.5 -828.2,-229.7 -827.2,-229 -826.2,-228.2 -825.2,-227.4 -824.2,-226.5 -823.2,-225.7 -822.2,-224.9 -821.1,-224.1 -819.8,-223.2 -818.5,-222.3 -817.3,-221.4 -816.1,-220.5 -815.2,-219.7 -814.4,-219 -813.2,-218.1 -811.8,-217.1 -810.5,-216.2 -809.3,-215.4 -808.1,-214.5 -807.2,-213.7 -806,-212.7 -804.8,-211.8 -803.4,-210.8 -802.1,-209.9 -800.9,-209.1 -799.9,-208.4 -798.6,-207.4 -797.5,-206.5 -796.1,-205.4 -794.6,-204.3 -793.4,-203.4 -792.4,-202.7 -791.1,-201.8 -789.8,-201 -788.6,-200.2 -787.4,-199.4 -786.2,-198.5 -784.8,-197.5 -783.5,-196.5 -782.2,-195.5 -780.8,-194.5 -779.4,-193.6 -778.4,-192.9 -777.2,-192.1 -775.9,-191.3 -774.7,-190.5 -773.3,-189.5 -771.7,-188.4 -770.5,-187.6 -769.1,-186.7 -767.7,-185.8 -766.5,-185 -765.2,-184.2 -763.7,-183.2 -762.5,-182.3 -760.9,-181.2 -759.4,-180.2 -757.9,-179.3 -756.7,-178.5 -755.2,-177.6 -754,-176.9 -752.7,-176.1 -751.2,-175.1 -749.6,-174.1 -748.3,-173.2 -747.1,-172.4 -745.6,-171.5 -744.7,-170.9 -743.4,-170.1 -742,-169.3 -740.4,-168.3 -739.1,-167.4 -737.4,-166.3 -735.9,-165.3 -734.5,-164.4 -733,-163.5 -731.6,-162.7 -730,-161.8 -728.6,-161 -727,-160 -725.6,-159.1 -724.2,-158.2 -722.9,-157.3 -721.6,-156.5 -720.2,-155.7 -718.7,-154.8 -717.2,-153.9 -715.8,-153.1 -714.2,-152.1 -712.8,-151.3 -711.4,-150.5 -709.9,-149.7 -708.5,-148.9 -707.3,-148.3 -705.7,-147.4 -704.3,-146.6 -702.9,-145.8 -701.5,-145 -700,-144.1 -698.6,-143.2 -697.2,-142.4 -695.6,-141.5 -694.3,-140.8 -692.7,-139.9 -691.2,-139.1 -689.7,-138.3 -688.4,-137.6 -686.8,-136.7 -685.5,-136 -684.5,-135.5 -683,-134.7 -681.4,-133.8 -680.1,-133.1 -678.8,-132.5 -677.2,-131.6 -675.7,-130.8 -674.4,-130.1 -673,-129.5 -671.4,-128.6 -670,-127.9 -668.6,-127.1 -667.2,-126.4 -665.6,-125.5 -664.3,-124.8 -662.7,-123.9 -661.2,-123.2 -659.6,-122.4 -658.1,-121.6 -656.5,-120.8 -655.3,-120.3 -653.9,-119.6 -652.4,-118.8 -651.1,-118.1 -649.8,-117.5 -648.2,-116.6 -646.7,-115.8 -645.4,-115.1 -643.8,-114.4 -642.3,-113.6 -640.7,-112.8 -639.2,-112.1 -637.6,-111.4 -636.3,-110.7 -634.6,-109.8 -633,-109.1 -631.6,-108.4 -630.1,-107.6 -628.5,-106.8 -626.8,-106.1 -625.3,-105.4 -623.9,-104.7 -622.1,-104 -620.4,-103.3 -619,-102.7 -617.3,-101.9 -615.3,-101 -613.8,-100.3 -612.1,-99.5 -610.2,-98.6 -608.7,-98 -607.2,-97.4 -605.4,-96.6 -603.8,-96 -602.3,-95.4 -600.8,-94.7 -599.2,-94.1 -598,-93.6 -596.5,-92.9 -595,-92.3 -593.4,-91.7 -592,-91 -590.2,-90.3 -588.6,-89.7 -587.1,-89.1 -585.3,-88.4 -583.7,-87.8 -582.2,-87.2 -580.8,-86.6 -579.2,-86 -577.7,-85.4 -576.2,-84.8 -574.6,-84.2 -573,-83.6 -571.5,-82.9 -570,-82.3 -568.4,-81.7 -566.8,-81.1 -565.2,-80.5 -563.6,-80 -562.1,-79.4 -560.3,-78.7 -558.9,-78.1 -557.2,-77.4 -555.3,-76.7 -553.6,-76.1 -552.2,-75.7 -550.5,-75.1 -549,-74.6 -547.7,-74.1 -546.1,-73.5 -544.5,-72.9 -543,-72.3 -541.2,-71.7 -539.7,-71.1 -538,-70.6 -536.3,-70 -534.8,-69.5 -533.1,-68.9 -531.4,-68.3 -530.1,-67.8 -528.6,-67.2 -527,-66.7 -525.7,-66.2 -524,-65.7 -522.3,-65.1 -520.9,-64.7 -519,-64 -517.4,-63.5 -516.1,-63 -514.6,-62.4 -513,-61.8 -511.7,-61.3 -510.1,-60.7 -508.5,-60.1 -506.8,-59.6 -505.1,-59 -503.7,-58.6 -502.3,-58.1 -500.7,-57.6 -499.4,-57.1 -497.8,-56.6 -496.2,-56 -494.4,-55.4 -492.9,-54.9 -491.2,-54.3 -489.9,-53.8 -488.2,-53.2 -486.5,-52.7 -484.8,-52.1 -483.3,-51.7 -481.8,-51.2 -480.1,-50.7 -478.9,-50.2 -477.3,-49.7 -475.8,-49.1 -473.8,-48.5 -472.3,-48 -470.8,-47.6 -469.4,-47.1 -467.7,-46.5 -466.4,-46 -464.8,-45.4 -463.1,-44.8 -461.7,-44.3 -460.3,-43.9 -458.7,-43.3 -457.4,-42.9 -455.7,-42.3 -454,-41.8 -452.3,-41.2 -450.9,-40.8 -449.2,-40.2 -448,-39.8 -446.3,-39.2 -444.9,-38.8 -443.2,-38.2 -441.9,-37.8 -440.2,-37.2 -439,-36.8 -437.3,-36.2 -435.9,-35.8 -434.2,-35.2 -432.9,-34.8 -431.2,-34.2 -429.5,-33.7 -427.8,-33.1 -426.3,-32.7 -424.6,-32.1 -422.9,-31.6 -421.7,-31.1 -420,-30.6 -418.4,-30 -416.9,-29.6 -415.6,-29.1 -413.9,-28.6 -412.7,-28.1 -411,-27.6 -409.4,-27 -407.9,-26.6 -406.6,-26.1 -404.8,-25.6 -403.5,-25.1 -402.1,-24.7 -400.8,-24.2 -399.1,-23.7 -397.9,-23.2 -396.2,-22.7 -394.6,-22.1 -392.9,-21.6 -391.6,-21.1 -389.9,-20.6 -388.7,-20.1 -387,-19.5 -385.4,-18.9 -384,-18.4 -382.7,-17.9 -381.4,-17.4 -380.1,-17 -378.8,-16.5 -377.2,-16 -375.9,-15.5 -374.2,-15 -373,-14.6 -371.5,-14.1 -369.9,-13.6 -368.2,-13.1 -366.9,-12.7 -365.1,-12.1 -363.6,-11.7 -362.5,-11.3 -361.2,-10.9 -359.6,-10.3 -358.4,-9.9 -357,-9.3 -355.1,-8.7 -353.5,-8.1 -352.1,-7.7 -350.4,-7.1 -348.8,-6.7 -347.7,-6.3 -346.4,-5.9 -344.7,-5.3 -343.4,-4.9 -342.1,-4.4 -340.8,-4 -339.1,-3.4 -337.9,-3" style="stroke: rgb(59, 130, 246); stroke-width: 7;"></polyline><polyline vector-effect="non-scaling-stroke" fill="none" points="-336.7,-2.5 -335.3,-2 -333.5,-1.3 -332.2,-0.9 -330.9,-0.4 -329.1,0.1 -327.6,0.6 -326.5,0.9 -324.9,1.4 -323.3,1.9 -322.1,2.3 -320.7,2.8 -319.3,3.3 -318,3.8 -316.7,4.2 -315.4,4.7 -313.8,5.2 -312.2,5.8 -311,6.2 -309.4,6.8 -307.8,7.3 -306.7,7.7 -305.6,8 -304,8.6 -302.8,9 -301.6,9.4 -300.2,9.9 -298.5,10.5 -297.3,10.9 -295.7,11.4 -294.2,12 -292.8,12.4 -291.4,12.9 -290,13.3 -288.8,13.8 -287.6,14.2 -286.1,14.8 -284.9,15.2 -283.4,15.8 -282,16.2 -280.6,16.6 -279,17.1 -277.4,17.6 -276.2,18 -274.6,18.5 -273,19.1 -272,19.4 -270.6,19.9 -269.2,20.3 -268.3,20.7 -266.8,21.2 -265.3,21.7 -264.2,22.1 -262.7,22.6 -261.2,23.1 -260.3,23.4 -259,23.9 -257.7,24.3 -256.5,24.8 -255.2,25.2 -253.6,25.7 -252.4,26.1 -251.1,26.5 -249.9,26.9 -248.5,27.4 -247.3,27.9 -245.8,28.4 -244.4,29 -242.7,29.5 -241.3,29.9 -240,30.3 -239,30.6 -237.6,31 -236.7,31.3 -235.5,31.8 -234.2,32.2 -232.6,32.7 -231.4,33.1 -230.2,33.5 -228.9,33.9 -227.7,34.3 -226.5,34.8 -225.2,35.2 -223.7,35.8 -222.6,36.2 -221.2,36.7 -220,37.1 -218.6,37.6 -217.4,38 -215.8,38.5 -214.5,39 -213.3,39.4 -212.1,39.8 -210.8,40.2 -209.5,40.6 -208.2,41 -206.8,41.4 -205.4,41.9 -204.1,42.3 -203.2,42.6 -201.9,43 -200.7,43.4 -199.5,43.8 -198.2,44.2 -196.7,44.8 -195.6,45.2 -194.2,45.7 -193,46.1 -191.6,46.6 -190.4,47 -189.2,47.4 -187.9,47.9 -186.7,48.3 -185.5,48.7 -184.2,49.1 -182.5,49.6 -181.2,50 -179.9,50.4 -178.5,50.9 -177.2,51.3 -176.3,51.6 -175.1,52 -173.6,52.5 -172.5,52.9 -171.4,53.3 -169.9,53.9 -168.7,54.3 -167.5,54.7 -166.3,55.1 -164.6,55.6 -163.3,56 -162,56.4 -160.9,56.8 -159.8,57.1 -158.8,57.5 -157.8,57.9 -156.3,58.4 -154.9,58.9 -153.5,59.4 -152.1,59.9 -150.7,60.3 -149.8,60.6 -148.7,61 -147.2,61.5 -146.1,61.9 -144.7,62.4 -143.3,63 -141.7,63.5 -140.5,63.9 -139.3,64.3 -137.9,64.7 -136.5,65.1 -135.5,65.4 -134.2,65.9 -132.8,66.3 -131.9,66.6 -130.5,67.1 -129.1,67.6 -127.9,68 -126.5,68.5 -125.1,69.1 -123.8,69.5 -122.5,69.9 -121.3,70.3 -120.1,70.7 -118.8,71.1 -117.5,71.5 -116.2,72 -114.9,72.4 -113.8,72.7 -112.8,73 -111.8,73.4 -110.1,73.9 -108.4,74.5 -106.4,75.2 -104.5,75.9 -102.6,76.5 -101.4,77 -100.2,77.4 -99,77.8 -97.7,78.2 -96.5,78.6 -95.2,79 -93.6,79.5 -92.4,79.9 -91.2,80.3 -89.8,80.7 -88.5,81.1 -87.5,81.4 -86.2,81.8 -84.9,82.2 -83.7,82.6 -82.3,82.9 -80.9,83.3 -79.8,83.6 -78.3,83.9 -77.2,84.1 -76.3,84.4 -75.1,84.7 -73.7,85 -72.5,85.2 -71.3,85.4 -70.1,85.5 -68.8,85.7 -67.5,85.9 -66.2,86.1 -64.9,86.3 -63.4,86.5 -62.3,86.5 -61.3,86.5 -60.1,86.6 -58.9,86.7 -57.7,86.8 -56.5,86.9 -55,87 -53.5,86.9 -52,86.8 -50.7,86.7 -49.4,86.6 -48.4,86.5 -47.5,86.4 -46.2,86.2 -44.9,86 -43.6,85.8 -42.4,85.6 -41.2,85.5 -40.4,85.4 -39.1,85.2 -37.8,85 -36.5,84.8 -35.2,84.4 -33.8,84.1 -32.9,83.9 -31.6,83.5 -30.3,83.1 -29.3,82.9 -28.1,82.5 -26.8,82.1 -25.6,81.8 -24.4,81.4 -23.2,81 -22,80.7 -20.9,80.3 -19.7,79.9 -18.5,79.5 -17.3,79.1 -16.1,78.7 -14.9,78.3 -13.7,77.9 -12.5,77.5 -11.3,77.1 -10.1,76.6 -8.9,76.2 -7.7,75.8 -6.5,75.4 -5.3,75 -4.1,74.6 -2.7,74.1 -1.6,73.6 -0.5,73.2 0.9,72.6 2.2,72.1 3.3,71.7 4.4,71.3 5.8,70.8 7.1,70.3 8.2,69.9 9.3,69.4 10.8,68.8 12,68.2 13,67.8 14,67.3 15.3,66.7 16.1,66.3 17.4,65.7 18.7,65.1 20,64.5 21,64.1 22.3,63.5 23.4,63.1 24.7,62.5 26,61.9 27.5,61.2 29,60.5 30.2,59.9 31.4,59.3 32.6,58.7 33.6,58.2 34.8,57.6 36,57 37,56.5 38.4,55.8 39.8,55.1 40.7,54.6 41.9,53.9 43.3,53.2 44.3,52.7 45.6,51.9 46.9,51.2 48,50.6 49.3,49.8 50.6,49.1 51.6,48.6 52.9,47.8 54.2,47.1 55.1,46.6 56.4,45.8 57.8,44.9 58.9,44.3 59.9,43.6 61.3,42.7 62.3,42 63.2,41.5 64.5,40.7 65.9,39.8 66.9,39.1 67.9,38.5 69.4,37.5 70.5,36.7 71.5,36 72.7,35.3 73.9,34.5 74.8,33.9 76,33.1 77.3,32.2 78.6,31.3 79.9,30.4 81,29.6 82.1,28.8 83.2,28 84.1,27.2 85,26.5 86.2,25.6 87.2,24.8 88.3,24 89.4,23.2 90.8,22.1 92,21.2 93.2,20.3 94.2,19.5 95.2,18.7 96.2,17.9 97.2,17 98.2,16.1 99.2,15.2 100.5,14.1 101.7,13 102.8,12 103.8,11.1 104.9,10.1 105.7,9.3 106.3,8.7 107.2,7.9 108.2,7 109.2,6.1 110.3,5.1 111.4,4.1 112.5,3.1 113.5,2.3 114.5,1.5 115.5,0.7 116.6,-0.2 117.5,-1 118.6,-2.1 119.6,-3.1 120.6,-4.1 121.6,-5.1 122.6,-6.1 123.5,-7 124.5,-8 125.4,-8.9 126.5,-9.9 127.6,-10.9 128.7,-11.9 129.9,-13 131.1,-14.1 132,-15 132.9,-15.9 133.8,-16.8 134.5,-17.5 135.2,-18.2 136.2,-19.1 137.2,-20 138.2,-20.9 139.3,-21.9 140.5,-23 141.5,-24 142.4,-24.9 143.6,-26.1 144.7,-27.2 145.7,-28.2 146.7,-29.2 147.8,-30.2 148.6,-30.9 149.5,-31.7 150.5,-32.6 151.4,-33.4 152.2,-34.2 153.2,-35.1 154.2,-36 155.2,-36.9 156.3,-37.9 157.5,-39 158.5,-40 159.5,-41 160.6,-42.1 161.6,-43.1 162.6,-44.1 163.6,-45.1 164.6,-46.1 165.5,-46.9 166.5,-47.8 167.5,-48.7 168.5,-49.6 169.5,-50.5 170.4,-51.4 171.2,-52.2 172.2,-53.1 173.2,-54 174.2,-54.9 175.3,-55.9 176.7,-57.3 177.8,-58.5 178.8,-59.6 179.8,-60.7 180.7,-61.7 181.3,-62.2 181.8,-62.7 182.6,-63.4 183.4,-64.1 184.3,-64.9 185.3,-65.9 186.5,-67 187.5,-68 188.5,-69 189.5,-70 190.5,-71 191.4,-71.9 192.2,-72.6 193.2,-73.4 194.2,-74.2 195.2,-75 196.3,-75.9 197.5,-77 198.5,-78 199.5,-79 200.5,-80 201.4,-81 202.2,-81.8 203,-82.6 203.8,-83.4 204.6,-84.2 205.5,-85 206.5,-86 207.4,-86.9 208.5,-87.9 209.5,-88.7 210.5,-89.5 211.5,-90.3 212.5,-91.2 213.3,-92 214.2,-93 215.1,-94 215.9,-94.8 216.8,-95.6 217.7,-96.4 218.6,-97.2 219.5,-98 220.4,-99 221.2,-99.8 222,-100.6 222.8,-101.4 223.6,-102.2 224.5,-103 225.4,-103.8 226.2,-104.5 227.2,-105.5 228.1,-106.4 228.9,-107.2 229.8,-108.1 230.8,-109.1 231.5,-109.7 232.2,-110.3 233.2,-111 234,-111.7 234.8,-112.4 235.7,-113.2 236.6,-113.9 237.5,-114.8 238.5,-115.7 239.3,-116.5 240,-117.1 240.7,-117.8 241.4,-118.4 242.2,-119 243.2,-119.7 244.4,-120.7 245.6,-121.7 246.8,-122.6 248,-123.6 249.2,-124.6 250.5,-125.6 251.9,-126.6 253.1,-127.6 254.1,-128.5 255,-129.2 255.6,-129.7 256.4,-130.3 257.1,-130.8 257.9,-131.2 258.6,-131.7 259.6,-132.4 260.3,-132.9 261.4,-133.7 262.5,-134.5 264.1,-135.6 265.4,-136.4 266.7,-137.2 267.5,-137.7 268.8,-138.5 269.6,-139 270.8,-139.7 272.1,-140.5 274,-141.5 276.8,-142.4 281,-142.6 285.5,-142.1 289.8,-141.4 293.6,-140.4 296.1,-139 297.3,-138 297.9,-137.3 298.6,-136.7 299.3,-135.9 299.9,-135.3 300.5,-134.7 302,-133.5 303.5,-132.1 305,-130.9 306.5,-129.5 308,-128.3 308.5,-127.7 309.9,-126.7 311.2,-125.6 313,-124.4 314.7,-123.1 316.4,-122 317.2,-121.5 318,-121 318.8,-120.6 320.2,-120.1 322.4,-119.5 324.7,-118.9 327,-118.5 329.5,-118.4 332.3,-118.8 334.2,-119.4 336.3,-120.1 338.7,-121 340.6,-121.9 341.9,-122.8 343.7,-123.9 345.1,-125 346.4,-126 347.5,-126.9 348.3,-127.6 349.7,-128.8 351.5,-130.3 353.1,-131.7 355.4,-133.6 357.7,-135.5 359.1,-136.7 360.1,-137.6 361.2,-138.4 361.7,-139 362.9,-140 364.1,-141 365.3,-142 366.5,-143 367.5,-143.8 367.9,-144.1 368.4,-144.6 369,-145 369.8,-145.6 371.1,-146.5 372.5,-147.5 373.6,-148.3 374.7,-149.1 376,-150.1 376.9,-150.7 377.6,-151.3 378.4,-151.8 379.5,-152.6 380.4,-153.1 381.3,-153.6 382.5,-154.3 383.7,-155 384.6,-155.5 385.3,-155.9 386.3,-156.5 387.3,-157 388.3,-157.5 389.3,-158 390.3,-158.5 391.3,-158.9 392,-159.2 392.9,-159.6 393.8,-159.9 394.9,-160.4 395.7,-160.8 396.6,-161.2 397.3,-161.5 398,-161.8 398.9,-162.1 399.8,-162.4 400.7,-162.6 401.9,-163 403.1,-163.4 403.9,-163.6 405.1,-164 406.3,-164.4 407.2,-164.6 408.1,-164.8 409,-165.1 409.6,-165.2 410.8,-165.4 412,-165.7 413.2,-166 414.4,-166.2 416,-166.5 417,-166.7 418.1,-166.9 419.6,-167.1 421.2,-167.3 422.9,-167.6 424.6,-167.9 426.2,-168.1 427.4,-168.3 428.6,-168.5 429.5,-168.5 430.5,-168.5 431.6,-168.5 432.7,-168.5 434.1,-168.5 435.3,-168.5 436.5,-168.5 437.9,-168.5 439.4,-168.5 440.6,-168.5 442,-168.5 443.4,-168.5 444.6,-168.5 446,-168.5 447.4,-168.5 448.6,-168.5 449.8,-168.5 450.9,-168.4 451.7,-168.3 453,-168.1 454.4,-167.9 455.8,-167.7 457.3,-167.5 458.9,-167.3 459.9,-167.2 461.2,-167 462.6,-166.7 464,-166.5 465.4,-166.3 466.8,-166 468.1,-165.7 469.3,-165.5 470.4,-165.2 471.8,-164.8 473.2,-164.5 474.3,-164.2 475.7,-163.8 477.1,-163.4 478.2,-163.1 479.6,-162.6 481,-162.2 482,-161.9 483.3,-161.5 484.5,-161.1 485.8,-160.7 487,-160.3 488.5,-159.7 489.8,-159.3 491.1,-158.8 492.2,-158.4 493.3,-157.9 494.6,-157.4 495.8,-156.8 497,-156.3 498.3,-155.7 499.7,-155.2 500.8,-154.7 501.9,-154.3 503,-153.8 504.3,-153.3 505.5,-152.7 506.7,-152.1 507.9,-151.5 509.3,-150.8 510.5,-150.2 511.7,-149.6 512.7,-149.2 513.7,-148.7 514.8,-148.1 515.8,-147.5 516.9,-146.9 518,-146.3 519.5,-145.5 520.7,-144.9 521.7,-144.4 522.6,-143.9 523.7,-143.2 524.8,-142.5 525.9,-141.8 527.2,-140.9 528.5,-140.1 529.6,-139.4 530.5,-138.8 531.4,-138.3 532.5,-137.6 533.8,-136.7 535.1,-135.9 536.2,-135.2 537.3,-134.4 538.2,-133.8 539,-133.3 539.9,-132.6 541.2,-131.6 542.7,-130.5 544,-129.6 545.2,-128.7 546.3,-127.9 547,-127.4 547.8,-126.8 548.6,-126.2 549.5,-125.5 550.5,-124.7 551.6,-123.8 552.8,-122.9 554.2,-121.8 555.5,-120.8 556.7,-119.9 557.8,-119.1 558.7,-118.4 559.5,-117.8 560.4,-117.1 561.4,-116.3 562.5,-115.4 563.5,-114.5 564.8,-113.3 566,-112.3 567.1,-111.4 568.1,-110.6 569.1,-109.8 569.8,-109.2 570.6,-108.4 571.5,-107.5 572.5,-106.5 573.5,-105.5 574.4,-104.7 575.3,-103.9 576.2,-103.1 577.1,-102.3 578,-101.5 579,-100.5 580,-99.5 581,-98.5 582,-97.5 583,-96.5 584,-95.5 585,-94.5 586,-93.5 587,-92.5 587.9,-91.5 588.9,-90.5 589.8,-89.5 590.7,-88.5 591.6,-87.5 592.5,-86.6 593.2,-85.8 593.9,-85.1 594.8,-84.1 595.7,-83.1 596.7,-82 597.8,-80.8 598.9,-79.5 599.9,-78.5 600.8,-77.5 601.7,-76.5 602.5,-75.6 603.3,-74.8 603.9,-74.1 604.8,-73.1 605.7,-72.1 606.7,-71 607.7,-69.8 608.9,-68.5 609.7,-67.6 610.4,-66.8 611,-66 611.7,-65.1 612.5,-63.9 613.5,-62.6 614.6,-61.2 615.8,-59.8 617,-58.5 617.9,-57.5 618.8,-56.5 619.6,-55.6 620.3,-54.8 620.9,-54.1 621.3,-53.8 621.5,-53.5" style="stroke: rgb(251, 191, 36); stroke-width: 7;"></polyline></svg>