<svg xmlns="http://www.w3.org/2000/svg" xmlns:xlink="http://www.w3.org/1999/xlink" preserveAspectRatio="xMidYMid meet" height="100%" viewBox="-1050 -600 2100 1300">
    <polygon vector-effect="non-scaling-stroke" fill="none" style="stroke: #374151; stroke-width:6" points="  545,-168 556,-156 566,-143 577,-131 588,-118 600,-105 611,-93 622,-80 633,-68 645,-54 657,-41 668,-27 680,-14 696,4 708,17 720,32 732,45 743,58 755,72 767,85 779,99 791,113 803,127 816,141 828,155 840,170 852,183 864,197 877,211 889,225 902,240 913,253 926,268 938,281 951,297 962,311 972,326 981,344 987,361 992,379 994,394 995,408 994,422 991,435 988,446 984,456 978,465 970,474 963,480 955,485 946,488 937,491 927,492 917,491 906,490 896,486 887,482 877,475 869,468 862,459 856,450 849,440 843,429 837,418 831,406 825,394 818,382 811,370 803,359 793,347 783,337 772,328 760,320 747,314 734,310 719,308 706,307 692,305 679,303 668,299 657,293 648,286 640,279 633,271 626,261 621,250 617,239 614,228 611,215 607,203 602,191 596,179 588,169 580,160 572,153 562,147 550,142 539,139 527,137 515,136 502,136 490,135 477,133 464,129 453,125 442,120 433,113 424,105 417,97 412,88 407,78 404,68 403,58 402,47 404,36 406,25 410,15 414,4 418,-8 422,-20 424,-32 426,-45 425,-58 423,-71 419,-84 414,-96 408,-107 400,-117 391,-125 380,-134 369,-140 357,-146 344,-151 331,-155 318,-158 304,-161 288,-162 273,-163 258,-163 243,-161 227,-159 212,-156 197,-151 182,-145 168,-138 153,-130 140,-120 127,-110 114,-99 103,-87 92,-74 82,-61 72,-47 62,-33 52,-20   52,-20 41,-6 28,10 18,21 7,31 -4,39 -18,45 -31,51 -46,55 -60,57 -75,59 -90,61 -104,63 -116,64 -127,64 -136,63 -143,62 -152,59 -160,55 -165,51 -171,45 -177,38 -181,28 -184,19 -186,12 -188,3 -190,-6 -192,-18 -194,-28 -196,-39 -198,-51 -201,-62 -203,-74 -206,-86 -209,-99 -212,-113 -216,-127 -219,-140 -222,-153 -226,-168 -229,-182 -232,-197 -234,-212 -235,-227 -234,-244 -232,-259 -229,-274 -224,-288 -219,-301 -215,-312 -211,-322 -207,-330 -203,-339 -200,-346 -198,-357 -198,-366 -201,-373 -205,-378 -212,-381 -221,-383 -229,-381 -236,-377 -242,-372 -249,-364 -255,-356 -260,-350 -264,-342 -267,-335 -271,-327 -276,-318 -280,-309 -285,-299 -291,-289 -296,-279 -303,-269 -309,-258 -317,-247 -326,-236 -335,-226 -345,-216 -356,-207 -368,-199 -382,-192 -396,-186 -410,-182 -425,-179 -440,-177 -455,-175 -471,-175 -486,-175 -501,-177 -518,-178 -533,-181 -550,-184 -566,-187 -583,-191 -599,-196 -614,-201 -630,-208 -645,-215 -660,-224 -674,-233 -688,-244 -702,-256 -714,-267 -726,-281 -736,-294 -747,-308 -756,-323 -764,-337 -772,-353 -779,-369 -787,-386 -794,-402 -801,-419 -808,-434 -816,-449 -824,-461 -832,-470 -841,-479 -851,-486 -861,-491 -873,-495 -884,-497 -896,-498 -909,-498 -921,-496 -933,-494 -945,-490 -956,-485 -965,-479 -973,-472 -980,-464 -985,-456 -989,-447 -992,-438 -993,-429 -993,-419 -992,-409 -990,-399 -986,-390 -981,-380 -975,-371 -968,-362 -960,-354 -951,-346 -942,-338 -932,-330 -921,-322 -910,-314 -899,-306 -887,-298 -874,-290 -862,-282 -849,-273 -836,-265 -823,-257 -809,-249 -795,-241 -781,-234 -766,-227 -752,-219 -736,-212 -722,-206 -706,-199 -691,-193 -676,-187 -660,-180 -644,-174 -628,-168 -611,-162 -595,-156 -578,-151 -562,-145 -545,-140 -528,-134 -512,-129 -496,-124 -480,-118 -463,-113 -446,-107 -429,-102 -413,-97 -396,-92 -379,-86   -379,-86 -362,-81 -345,-75 -328,-70 -311,-64 -293,-58 -276,-53 -259,-47 -242,-41 -225,-36 -208,-31 -190,-26 -171,-23 -152,-21 -134,-21 -117,-23 -100,-26 -82,-32 -66,-38 -49,-45 -33,-54 -18,-63 -4,-73 10,-85 23,-97 36,-110 49,-123 61,-137 74,-150 87,-163 100,-176 112,-188 123,-200 133,-210 142,-219 150,-227 156,-233 164,-239 171,-244 182,-249 191,-251 198,-251 207,-248 215,-244 224,-239 232,-235 239,-233 245,-233 255,-234 267,-239 275,-245 282,-251 290,-257 297,-262 305,-266 313,-271 322,-274 333,-277 344,-279 355,-280 367,-280 380,-279 392,-277 405,-274 418,-269 430,-264 443,-257 455,-250 468,-241 480,-232 491,-222 503,-212 514,-201 525,-189 536,-177 541,-171 545,-168  "></polygon>
    <polyline vector-effect="non-scaling-stroke" fill="none" style="stroke: #EF4444; stroke-width:4" points=" 545,-168 556,-156 566,-143 577,-131 588,-118 600,-105 611,-93 622,-80 633,-68 645,-54 657,-41 668,-27 680,-14 696,4 708,17 720,32 732,45 743,58 755,72 767,85 779,99 791,113 803,127 816,141 828,155 840,170 852,183 864,197 877,211 889,225 902,240 913,253 926,268 938,281 951,297 962,311 972,326 981,344 987,361 992,379 994,394 995,408 994,422 991,435 988,446 984,456 978,465 970,474 963,480 955,485 946,488 937,491 927,492 917,491 906,490 896,486 887,482 877,475 869,468 862,459 856,450 849,440 843,429 837,418 831,406 825,394 818,382 811,370 803,359 793,347 783,337 772,328 760,320 747,314 734,310 719,308 706,307 692,305 679,303 668,299 657,293 648,286 640,279 633,271 626,261 621,250 617,239 614,228 611,215 607,203 602,191 596,179 588,169 580,160 572,153 562,147 550,142 539,139 527,137 515,136 502,136 490,135 477,133 464,129 453,125 442,120 433,113 424,105 417,97 412,88 407,78 404,68 403,58 402,47 404,36 406,25 410,15 414,4 418,-8 422,-20 424,-32 426,-45 425,-58 423,-71 419,-84 414,-96 408,-107 400,-117 391,-125 380,-134 369,-140 357,-146 344,-151 331,-155 318,-158 304,-161 288,-162 273,-163 258,-163 243,-161 227,-159 212,-156 197,-151 182,-145 168,-138 153,-130 140,-120 127,-110 114,-99 103,-87 92,-74 82,-61 72,-47 62,-33 52,-20 "></polyline>
    <polyline vector-effect="non-scaling-stroke" fill="none" style="stroke: #3B82F6; stroke-width:4" points=" 52,-20 41,-6 28,10 18,21 7,31 -4,39 -18,45 -31,51 -46,55 -60,57 -75,59 -90,61 -104,63 -116,64 -127,64 -136,63 -143,62 -152,59 -160,55 -165,51 -171,45 -177,38 -181,28 -184,19 -186,12 -188,3 -190,-6 -192,-18 -194,-28 -196,-39 -198,-51 -201,-62 -203,-74 -206,-86 -209,-99 -212,-113 -216,-127 -219,-140 -222,-153 -226,-168 -229,-182 -232,-197 -234,-212 -235,-227 -234,-244 -232,-259 -229,-274 -224,-288 -219,-301 -215,-312 -211,-322 -207,-330 -203,-339 -200,-346 -198,-357 -198,-366 -201,-373 -205,-378 -212,-381 -221,-383 -229,-381 -236,-377 -242,-372 -249,-364 -255,-356 -260,-350 -264,-342 -267,-335 -271,-327 -276,-318 -280,-309 -285,-299 -291,-289 -296,-279 -303,-269 -309,-258 -317,-247 -326,-236 -335,-226 -345,-216 -356,-207 -368,-199 -382,-192 -396,-186 -410,-182 -425,-179 -440,-177 -455,-175 -471,-175 -486,-175 -501,-177 -518,-178 -533,-181 -550,-184 -566,-187 -583,-191 -599,-196 -614,-201 -630,-208 -645,-215 -660,-224 -674,-233 -688,-244 -702,-256 -714,-267 -726,-281 -736,-294 -747,-308 -756,-323 -764,-337 -772,-353 -779,-369 -787,-386 -794,-402 -801,-419 -808,-434 -816,-449 -824,-461 -832,-470 -841,-479 -851,-486 -861,-491 -873,-495 -884,-497 -896,-498 -909,-498 -921,-496 -933,-494 -945,-490 -956,-485 -965,-479 -973,-472 -980,-464 -985,-456 -989,-447 -992,-438 -993,-429 -993,-419 -992,-409 -990,-399 -986,-390 -981,-380 -975,-371 -968,-362 -960,-354 -951,-346 -942,-338 -932,-330 -921,-322 -910,-314 -899,-306 -887,-298 -874,-290 -862,-282 -849,-273 -836,-265 -823,-257 -809,-249 -795,-241 -781,-234 -766,-227 -752,-219 -736,-212 -722,-206 -706,-199 -691,-193 -676,-187 -660,-180 -644,-174 -628,-168 -611,-162 -595,-156 -578,-151 -562,-145 -545,-140 -528,-134 -512,-129 -496,-124 -480,-118 -463,-113 -446,-107 -429,-102 -413,-97 -396,-92 -379,-86 "></polyline>
    <polyline vector-effect="non-scaling-stroke" fill="none" style="stroke: #FBBF24; stroke-width:4" points=" -379,-86 -362,-81 -345,-75 -328,-70 -311,-64 -293,-58 -276,-53 -259,-47 -242,-41 -225,-36 -208,-31 -190,-26 -171,-23 -152,-21 -134,-21 -117,-23 -100,-26 -82,-32 -66,-38 -49,-45 -33,-54 -18,-63 -4,-73 10,-85 23,-97 36,-110 49,-123 61,-137 74,-150 87,-163 100,-176 112,-188 123,-200 133,-210 142,-219 150,-227 156,-233 164,-239 171,-244 182,-249 191,-251 198,-251 207,-248 215,-244 224,-239 232,-235 239,-233 245,-233 255,-234 267,-239 275,-245 282,-251 290,-257 297,-262 305,-266 313,-271 322,-274 333,-277 344,-279 355,-280 367,-280 380,-279 392,-277 405,-274 418,-269 430,-264 443,-257 455,-250 468,-241 480,-232 491,-222 503,-212 514,-201 525,-189 536,-177 541,-171 545,-168 "></polyline>
</svg>