<svg xmlns="http://www.w3.org/2000/svg" xmlns:xlink="http://www.w3.org/1999/xlink" preserveAspectRatio="xMidYMid meet" height="100%" viewBox="-1037 -1041 1564 1126"><polygon vector-effect="non-scaling-stroke" fill="none" points="-802.3,-1011.5 -801.3,-1011.4 -800.2,-1011.2 -798.7,-1011 -796.4,-1010.7 -794.1,-1010.4 -792.5,-1010.1 -791.1,-1009.9 -789.7,-1009.7 -788.3,-1009.5 -786.9,-1009.3 -785.4,-1009.1 -784,-1008.9 -781.9,-1008.6 -780.5,-1008.4 -779.1,-1008.2 -777.7,-1008 -776.3,-1007.8 -774.9,-1007.6 -773.3,-1007.4 -771.7,-1007.1 -770.1,-1006.9 -768.5,-1006.7 -766.9,-1006.5 -765.6,-1006.3 -764.3,-1006.1 -762.9,-1005.9 -760.9,-1005.6 -759.3,-1005.4 -757.6,-1005.1 -756,-1004.9 -754.4,-1004.7 -752.6,-1004.5 -751.1,-1004.2 -749.6,-1004 -748,-1003.8 -745.7,-1003.5 -744.2,-1003.2 -742.6,-1003 -741,-1002.8 -738.7,-1002.4 -737.1,-1002.1 -735.4,-1001.9 -733.8,-1001.7 -731.5,-1001.3 -729.9,-1001.1 -728.2,-1000.9 -726.1,-1000.5 -723.7,-1000.1 -722,-999.9 -720.3,-999.6 -718,-999.2 -716.1,-999 -714.4,-998.8 -712.1,-998.4 -709.8,-998.1 -708.2,-997.9 -705.9,-997.5 -703.6,-997.1 -701.9,-996.9 -700.2,-996.7 -697.9,-996.3 -696.2,-996.1 -694.6,-995.9 -692.3,-995.5 -689.9,-995.1 -688.2,-994.9 -685.9,-994.5 -683.5,-994.1 -681.7,-993.9 -679.3,-993.5 -676.8,-993.1 -675,-992.9 -673.2,-992.6 -670.7,-992.2 -668.9,-992 -666.5,-991.6 -664.2,-991.2 -661.9,-990.9 -659.7,-990.6 -657.3,-990.2 -655.4,-990 -653.5,-989.7 -650.7,-989.3 -648.6,-989 -646.6,-988.7 -644.1,-988.3 -641.5,-988 -639.8,-987.7 -637.2,-987.3 -634.7,-987 -632.8,-986.7 -630.2,-986.3 -627.5,-986 -625.8,-985.7 -623.4,-985.3 -621,-985 -618.6,-984.6 -615.9,-984.2 -613.1,-983.8 -611,-983.5 -608.2,-983.1 -606,-982.8 -603.6,-982.4 -601.2,-982.1 -598.1,-981.6 -595.6,-981.2 -593.2,-980.8 -590.7,-980.4 -588.1,-980 -585.2,-979.6 -582.3,-979.2 -579.4,-978.8 -576.4,-978.4 -573.4,-977.9 -571.4,-977.6 -568.8,-977.2 -566.1,-976.8 -563.4,-976.4 -560.7,-976 -557.2,-975.5 -554.4,-975 -550.9,-974.5 -548.1,-974.1 -544.5,-973.6 -541.7,-973.2 -538.8,-972.8 -536,-972.4 -533.2,-971.9 -530.5,-971.5 -527.6,-971 -524.1,-970.5 -521.1,-970 -517.4,-969.5 -514.3,-969 -510.6,-968.5 -507.6,-968.1 -503.9,-967.6 -500.9,-967.2 -497.2,-966.7 -494.3,-966.3 -491.2,-965.8 -488.2,-965.4 -485.2,-964.9 -482.1,-964.5 -479,-964 -475.2,-963.5 -472,-963 -468.1,-962.5 -465,-962 -461.1,-961.5 -458,-961 -454.5,-960.5 -451.7,-960 -448.2,-959.5 -445.4,-959 -441.7,-958.5 -438.6,-958.1 -434.6,-957.6 -431.4,-957.2 -427.4,-956.7 -424.2,-956.3 -420.1,-955.7 -416.7,-955.2 -412.7,-954.6 -409.4,-954.2 -405.4,-953.6 -402.1,-953.2 -398.2,-952.7 -394.9,-952.3 -390.8,-951.7 -387.3,-951.2 -383.6,-950.6 -380.2,-950.2 -376,-949.6 -372.5,-949.1 -368.9,-948.6 -365.1,-948.1 -361.8,-947.6 -358.3,-947.1 -355,-946.7 -351.2,-946.2 -347.9,-945.8 -344.1,-945.2 -340.4,-944.7 -336.6,-944.1 -332.7,-943.6 -328.8,-943 -324.5,-942.5 -321,-942 -316.7,-941.5 -312.8,-941 -309,-940.6 -305.2,-940.1 -301.4,-939.7 -297.6,-939.2 -294.2,-938.8 -289.8,-938.2 -286.2,-937.8 -281.9,-937.3 -278.4,-936.9 -274.1,-936.4 -270.6,-936 -266.3,-935.5 -262.7,-935 -258.3,-934.5 -254.2,-934 -250.2,-933.6 -246.2,-933.1 -242.2,-932.7 -238.1,-932.2 -234.6,-931.8 -230.2,-931.3 -226.6,-930.9 -222.1,-930.4 -218.7,-930 -214.8,-929.5 -210.7,-929 -206.8,-928.6 -203.4,-928.2 -199.4,-927.8 -194.8,-927.4 -191.4,-927 -187.3,-926.6 -183.2,-926.1 -179,-925.7 -175.4,-925.3 -171.2,-924.9 -167.1,-924.5 -163,-924.1 -159,-923.7 -155,-923.3 -151,-922.9 -147,-922.4 -142.9,-922 -138.9,-921.5 -134.9,-921.1 -130.9,-920.7 -126.9,-920.3 -123,-920 -119,-919.6 -115,-919.2 -111,-918.8 -107,-918.4 -103,-918 -99,-917.6 -95,-917.2 -90.4,-916.7 -86.4,-916.3 -82.4,-915.8 -78.4,-915.4 -74.2,-914.9 -70.5,-914.5 -66.6,-914.1 -62.3,-913.6 -58.4,-913.2 -54.2,-912.7 -50.6,-912.3 -46,-911.7 -42.4,-911.3 -38,-910.7 -34.1,-910.3 -30.1,-909.8 -26.1,-909.4 -22.1,-909 -18.1,-908.6 -14.5,-908.2 -9.9,-907.7 -6.5,-907.3 -2.2,-906.7 1.3,-906.3 5.7,-905.7 9,-905.3 12.9,-904.7 16.9,-904.1 21,-903.5 24.9,-902.9 28.8,-902.3 33,-901.7 37,-901.2 41.1,-900.6 44.5,-900.2 48.8,-899.6 52.4,-899.2 56.2,-898.7 59.8,-898.3 64,-897.7 67.4,-897.3 71.6,-896.7 75,-896.3 79.2,-895.7 82.8,-895.3 87.2,-894.7 90.7,-894.3 95,-893.7 98.4,-893.2 102.2,-892.6 106.1,-892 111.1,-891.2 115.3,-890.6 120.3,-889.9 124.9,-889.2 129.3,-888.6 132.7,-888.1 137,-887.5 140.5,-887 144.2,-886.5 148,-885.9 151.8,-885.3 155.4,-884.7 159,-884.1 162.8,-883.5 166.6,-882.9 170.4,-882.4 174.1,-881.8 178,-881.2 182.2,-880.6 185.5,-880.2 189.6,-879.6 193,-879.1 196.6,-878.6 199.9,-878.1 203.2,-877.6 206.4,-877 210.2,-876.5 213.5,-876 217.1,-875.5 221.6,-874.8 225.2,-874.4 228.2,-873.9 232.2,-873.4 235.5,-872.9 238.6,-872.5 241.8,-872 245.8,-871.5 248.9,-871 252.7,-870.5 255.9,-870 259.9,-869.5 263.1,-869.1 267.1,-868.6 270.3,-868.2 273.8,-867.7 277.2,-867.2 280.6,-866.6 283.9,-866.1 287.4,-865.5 291.1,-865 294.1,-864.5 297.1,-864.1 300.1,-863.6 303.6,-863.1 306.5,-862.7 309.4,-862.3 313.1,-861.8 316.1,-861.4 319.3,-861 322.5,-860.5 325.7,-860.1 328.8,-859.6 331.8,-859.2 334.5,-858.7 337.2,-858.3 340.9,-857.7 344,-857.3 347.7,-856.7 350.8,-856.3 354.4,-855.7 357.1,-855.3 360.3,-854.8 363,-854.4 366.2,-853.9 368.9,-853.5 371.9,-853 374.5,-852.5 377.1,-852.1 379.8,-851.6 382.5,-851.2 385.4,-850.7 388.5,-850.2 391.7,-849.6 394.3,-849.2 397.3,-848.6 399.6,-848.2 402.2,-847.8 404.7,-847.4 407.7,-846.8 410.2,-846.4 413.2,-845.9 415.4,-845.4 418,-844.9 420,-844.5 422.5,-844 424.6,-843.5 427.2,-843 429.3,-842.5 431.4,-842.1 433.4,-841.6 435.3,-841.2 437.2,-840.8 439.1,-840.4 441.3,-839.8 443.5,-839.3 445.7,-838.8 447.7,-838.2 449.6,-837.7 451.2,-837.3 452.5,-836.9 454.1,-836.3 455.4,-835.9 456.7,-835.4 458,-835 459.1,-834.6 459.8,-834.4 460.6,-834 461.5,-833.6 462.4,-833 463.4,-832.3 464.4,-831.6 465.3,-830.9 466.1,-830.2 466.8,-829.7 467.4,-829.3 468.1,-828.7 468.7,-828 469.3,-827.3 469.9,-826.6 470.5,-825.7 470.9,-824.9 471.3,-824.4 471.6,-823.9 471.8,-823.3 472.1,-822.4 472.4,-821.5 472.6,-820.4 472.8,-819.2 472.9,-817.9 472.8,-816.8 472.6,-815.6 472.4,-814.2 472.1,-812.6 471.9,-811 471.7,-809.6 471.6,-808.2 471.5,-807 471.4,-806.2 471.3,-805.4 471.2,-804.6 471,-803.6 470.8,-802.6 470.7,-801.4 470.6,-800.3 470.4,-799.3 470.3,-798.6 470.2,-798 470.1,-797.5 469.8,-796.4 469.6,-795.3 469.4,-794 469.2,-792.7 469,-791.4 468.9,-790.7 468.8,-790 468.7,-789.5 468.5,-788.4 468.2,-787.2 468,-786 467.8,-784.8 467.6,-783.6 467.4,-782.9 467.2,-781.7 467,-780.5 466.8,-779.1 466.5,-777.6 466.3,-776.2 466.2,-775.4 466,-773.9 465.7,-772.6 465.5,-771.2 465.3,-769.8 465.1,-768.4 464.9,-767.7 464.8,-767 464.6,-765.8 464.4,-764.5 464.1,-763.2 463.9,-761.7 463.7,-760.2 463.6,-759.4 463.5,-758.7 463.4,-758.1 463.3,-757.7 463.1,-756.8 462.9,-755.9 462.7,-754.4 464,-749.5 465.4,-744.6 467,-740.2 468.9,-735.7 470.8,-731.8 471.8,-731.2 472.7,-730.6 473.7,-730.1 474.4,-729.7 475.4,-729.3 476.3,-728.9 477.2,-728.5 478,-728.1 478.9,-727.8 479.9,-727.4 480.6,-727 482,-726.4 483.4,-725.8 484.8,-725.1 485.9,-724.6 487,-724.2 487.9,-723.8 488.8,-723.4 489.6,-723 490.4,-722.6 491.4,-722 492.1,-721.7 493.2,-721 494.4,-720.4 495.9,-719.5 497.2,-718.8 498.8,-717.7 500.1,-716.9 501.3,-716 502.3,-715.2 503.4,-714.3 504,-713.7 504.6,-713 505.4,-712.1 506.2,-711 506.8,-709.9 507.5,-708.7 508,-707.6 508.3,-706.7 508.5,-706.1 508.7,-705.2 508.8,-704.3 508.9,-703.1 509,-701.8 509,-700.4 509,-699.2 508.9,-698.2 508.8,-697.4 508.7,-696.6 508.6,-695.8 508.5,-695 508.5,-693.8 508.5,-692.7 508.4,-691.7 508.3,-690.8 508.2,-690 508,-689 507.8,-687.9 507.7,-686.8 507.6,-685.7 507.4,-684.6 507.3,-684 507.1,-682.8 506.9,-681.5 506.7,-680.2 506.6,-678.9 506.4,-677.6 506.3,-677 506.1,-675.9 505.9,-674.8 505.6,-673.7 505.4,-672.6 505.1,-671 504.9,-669.8 504.6,-668.6 504.4,-667.4 504.1,-665.6 503.9,-664.3 503.6,-663.1 503.3,-661.4 503,-659.7 502.7,-658.6 502.3,-657 502,-655.5 501.7,-654.4 501.3,-652.9 500.9,-651.3 500.6,-650.2 500.1,-648.6 499.7,-647 499.2,-645.4 498.8,-643.9 498.2,-642.1 497.8,-640.7 497.2,-639 496.7,-637.3 496.1,-635.6 495.6,-633.7 495,-631.8 494.6,-630.3 494.1,-628.8 493.5,-626.9 493,-625.4 492.5,-624 491.7,-621.9 491.1,-620.1 490.6,-618.6 490,-617 489.3,-615 488.8,-613.6 488.1,-611.6 487.4,-609.7 486.7,-607.9 486,-606.2 485.1,-603.8 484.4,-602.1 483.7,-600.3 482.9,-598.3 482.1,-596.3 481.5,-594.8 480.8,-593.3 480,-591.6 479.1,-589.5 478.4,-587.7 477.7,-586.1 476.9,-584.2 476.1,-582.3 475.4,-580.8 474.5,-579 473.6,-577.2 472.9,-575.6 471.9,-573.6 471,-571.8 470.1,-570 469.1,-568 467.9,-565.8 467,-564 466,-561.9 465.1,-560 464.3,-558.3 463.6,-556.9 462.6,-555.1 461.6,-553.3 460.6,-551.4 459.6,-549.6 458.2,-547 457.2,-545 456.3,-543.3 455.3,-541.7 453.9,-539.4 452.9,-537.8 451.9,-536.2 450.9,-534.6 449.7,-532.6 448.6,-530.9 447.3,-528.7 446,-526.5 444.7,-524.3 443.6,-522.6 442.5,-520.8 441.4,-519.2 440.2,-517.4 439,-515.6 437.6,-513.4 436.4,-511.4 435.2,-509.4 434.1,-507.6 432.6,-505.3 431.4,-503.3 430.3,-501.5 429.1,-499.5 427.9,-497.5 426.8,-495.7 425.6,-493.7 424.2,-491.3 423,-489.2 421.8,-487.1 420.6,-485 419.3,-482.8 418.1,-480.8 417,-479 415.5,-476.6 414.3,-474.5 413.3,-472.7 411.8,-470.2 410.3,-467.7 409.2,-465.8 407.8,-463.6 406.4,-461.4 405.3,-459.6 404.1,-457.8 402.7,-455.6 401.4,-453.4 399.9,-451 398.5,-448.8 397.2,-446.6 395.7,-444.2 394.4,-442 393.1,-439.7 391.9,-437.7 390.5,-435.4 389.2,-433.1 387.8,-430.9 386.4,-428.7 385.1,-426.5 383.6,-423.9 382.4,-421.9 381,-419.6 379.8,-417.6 378.4,-415.3 377,-413.1 375.6,-410.9 374.3,-408.7 372.7,-406.1 371.2,-403.5 370.1,-401.5 368.7,-399.2 367.3,-396.8 366.1,-394.8 364.7,-392.6 363.3,-390.4 361.9,-388.1 360.5,-385.9 359.2,-383.7 357.8,-381.3 356.4,-378.9 355,-376.6 353.8,-374.6 352.3,-372 351.1,-370.1 349.7,-367.9 348.4,-365.7 346.9,-363.1 345.7,-361.1 344.6,-359.1 343.1,-356.6 341.8,-354.4 340.3,-352 338.5,-349.1 336.7,-346.2 335.2,-343.7 333.6,-341 332.2,-338.6 330.9,-336.4 329.6,-334.3 328.2,-332 326.9,-329.9 325.6,-327.8 324.3,-325.8 323,-323.7 321.8,-321.6 320.5,-319.5 319,-317 317.7,-314.7 316.3,-312.4 314.7,-310 313.3,-307.6 312.2,-305.9 310.8,-303.7 309.4,-301.3 308.4,-299.6 307,-297.5 305.6,-295.1 304.2,-292.8 302.9,-290.7 301.7,-288.6 300.3,-286.2 298.9,-284 297.8,-282.2 296.5,-280 294.9,-277.4 293.8,-275.5 292.8,-273.7 291.3,-271.4 289.9,-269.3 288.5,-267.2 287.2,-265.2 285.7,-262.9 284.4,-260.5 283.2,-258.3 282.3,-256.5 281,-254.3 279.7,-252.1 278.7,-250.5 277.5,-248.6 276,-246.4 274.8,-244.5 273.6,-242.6 272.2,-240.4 271,-238.5 269.8,-236.6 268.4,-234.3 267.2,-232.3 266,-230.3 264.7,-228.3 263.5,-226.3 262.5,-224.7 261.2,-222.7 260,-220.9 258.7,-218.9 257.6,-217.2 256.2,-215.1 255.1,-213.4 253.9,-211.4 252.9,-209.7 251.8,-208 250.7,-206.3 249.4,-204.3 248.2,-202.5 247,-200.7 245.8,-198.9 244.7,-197.3 243.5,-195.5 242.4,-194 241.3,-192.4 240.2,-190.7 238.8,-188.6 237.7,-187.1 236.6,-185.5 235.4,-183.9 234,-182 233,-180.6 232,-179.2 231,-177.8 230,-176.4 229,-175.1 228,-173.7 227,-172.3 226.1,-171 225.1,-169.4 224.4,-168.2 223.8,-167.3 223.1,-166.3 222,-164.8 221.1,-163.7 220.2,-162.6 218.9,-160.8 217.8,-159.1 217,-157.9 215.9,-156.3 214.8,-154.7 214.1,-153.8 213,-152.4 211.9,-151 211.1,-150 210,-148.5 208.9,-147 208.1,-145.9 207,-144.4 206,-142.9 205.3,-141.9 204.6,-140.9 203.8,-139.9 203,-138.8 202.1,-137.5 201.2,-136.2 200.3,-134.9 199.3,-133.4 198.7,-132.4 198.1,-131.6 197.5,-130.7 196.6,-129.4 196,-128.4 195.3,-127.4 194.6,-126.4 193.7,-125.1 193.1,-124.2 192.4,-123.3 191.7,-122.4 190.7,-121 190,-120 189.1,-118.7 188.3,-117.4 187.5,-116.1 187,-115.3 186.3,-114.4 185.9,-113.8 185.2,-113 184.3,-111.9 183.5,-110.8 182.8,-109.8 181.8,-108.5 181.1,-107.4 180.6,-106.6 180.1,-105.8 179.3,-104.6 178.7,-103.7 178,-102.8 177.2,-101.6 176.3,-100.4 175.8,-99.6 175.3,-98.8 174.6,-97.6 174,-96.8 173.4,-96 172.8,-95.2 172,-94.1 171.5,-93.4 171,-92.7 170.6,-92 170.1,-91.3 169.6,-90.5 169,-89.8 168.5,-89 167.9,-88.1 166.8,-86.4 165.9,-85.2 165.1,-83.8 164.2,-82.3 162.9,-80.3 162.2,-78.9 161.3,-76.6 160.5,-74.5 160.4,-70.4 160.8,-66.8 161.6,-63.1 162.8,-60.3 164,-57.3 165.6,-55.8 167.6,-54.2 169.2,-52.9 171.1,-51.4 173.6,-49.7 175.8,-48.4 177.7,-47.4 179.6,-46.4 181.2,-45.6 182.2,-45.1 182.8,-44.8 183.7,-44.2 184.7,-43.6 185.9,-42.9 187.1,-42.2 188.3,-41.5 189.2,-41 190.3,-40.4 191.2,-39.9 192.3,-39.3 193.4,-38.6 194.5,-38 195.6,-37.4 196.7,-36.7 197.8,-36.1 198.7,-35.6 199.8,-35 200.7,-34.5 201.6,-34 202.3,-33.6 203.3,-33 204,-32.4 204.9,-31.8 205.8,-31.2 206.7,-30.5 207.3,-30.1 208.1,-29.6 208.9,-28.9 209.7,-28.2 210.5,-27.6 211.4,-26.6 212.3,-25.6 212.9,-24.8 213.6,-23.9 214.2,-22.9 214.6,-22.2 214.9,-21.5 215.2,-20.8 215.3,-20.2 215.4,-19.3 215.5,-18.3 215.5,-17.3 215.5,-16 215.5,-14.6 215.5,-13.4 215.5,-12.3 215.5,-11.3 215.4,-10.7 215.3,-10.2 215.2,-9.8 215.1,-9.4 214.7,-8.7 214.4,-7.9 213.9,-7 213.3,-6 212.6,-5.1 212.1,-4.4 211.4,-3.6 210.8,-3 210.2,-2.4 209.6,-1.8 208.8,-1.1 208.1,-0.6 207,0.3 205.9,1.1 204.5,2.1 203.3,2.9 202.1,3.7 201,4.4 200,5.1 199.3,5.6 198.6,6.1 197.5,7 196.7,7.6 195.8,8.2 194.9,8.9 193.7,9.7 192.8,10.3 191.6,11.2 190.4,12 189.2,12.8 187.9,13.8 186.7,14.7 185.8,15.3 184.5,16.2 183.1,17.2 182,18 180.9,18.8 179.8,19.6 179.1,20.2 178,21 176.9,21.8 175.7,22.6 174.5,23.4 173,24.4 171.9,25.2 170.8,26 169.8,26.7 168.8,27.5 167.8,28.3 166.8,29.1 165.7,29.9 164.6,30.7 163.5,31.5 162.7,32.1 161.5,32.9 160.5,33.5 159.5,34.2 158.2,35.1 156.8,36.1 155.9,36.7 155,37.4 153.8,38.3 152.8,39.1 151.9,39.7 151,40.4 149.6,41.4 148.5,42.2 147.5,42.8 146.5,43.5 145.2,44.4 144.4,44.9 143.6,45.4 142.4,46.3 141.2,47.2 140.3,47.8 139.4,48.5 138.1,49.5 137.1,50.3 136.1,51 135.1,51.8 134.1,52.6 133.1,53.3 132.2,53.9 131.3,54.6 130.5,55.3 129.7,55.9 129,56.5 128.3,57.1 127.6,57.6 126.4,58.4 125.2,59.3 124.3,59.9 123.4,60.5 122.2,61.4 121.4,61.9 120.7,62.4 120,62.9 119.1,63.5 118.5,63.8 117.7,64.3 116.8,64.7 116,65.2 115.2,65.6 114.2,66.1 113.4,66.4 112.6,66.8 111.4,67.1 110.3,67.3 109.3,67.4 108.2,67.5 107,67.5 105.9,67.4 104.9,67.3 104,67.2 103.2,67.1 102.2,66.9 101.5,66.7 100.8,66.5 100.1,66.3 99.4,66 98.7,65.6 97.7,65.2 96.7,64.8 95.8,64.3 94.7,63.8 93.9,63.4 93.3,63.1 92.7,62.8 92.1,62.5 91.4,62.1 90.5,61.6 89.5,60.9 88.5,60.2 87.5,59.5 86.8,59 86.3,58.6 86,58.3 85.7,58 85.2,57.4 84.5,56.5 83.9,55.6 83.2,54.6 82.6,53.5 82,52.4 81.7,51.4 81.4,50.4 81.2,49.5 80.9,48.3 80.8,47.3 80.7,46.3 80.6,45.2 80.5,44 80.5,43 80.6,41.8 80.7,40.7 80.8,39.7 80.9,38.8 81,38 81.1,37 81.2,35.9 81.3,34.7 81.5,33.4 81.7,32.1 81.8,31.3 81.9,30.6 82,30 82.1,29 82.2,28 82.4,26.8 82.6,25.4 82.8,24 82.9,23.1 83,22.2 83.1,21 83.3,19.8 83.5,18.4 83.7,17 83.9,15.6 84,14.6 84.2,13.3 84.4,12.1 84.6,10.6 84.8,9.1 85,7.7 85,6.7 85.2,5.3 85.4,3.9 85.6,2.5 85.8,1 86,-0.4 86.2,-1.8 86.4,-3.1 86.6,-4.6 86.8,-6.1 87,-7.6 87.2,-9.2 87.4,-10.8 87.6,-12.2 87.8,-13.6 88.2,-15.5 88.4,-17.1 88.6,-18.5 88.8,-20 89.1,-21.9 89.3,-23.5 89.5,-25 89.7,-26.6 89.9,-28.1 90.2,-29.8 90.4,-31.6 90.6,-33.2 90.8,-34.8 91.2,-37 91.4,-38.5 91.6,-40 91.8,-41.6 92.2,-43.6 92.4,-45.2 92.6,-47.1 92.8,-48.8 93.1,-50.5 93.3,-52.1 93.5,-53.8 93.7,-55.5 94,-57.2 94.3,-59.3 94.5,-61.3 94.7,-63.1 95,-64.9 95.2,-66.7 95.4,-68.5 95.6,-70.2 95.9,-71.9 96.1,-73.4 96.4,-75.5 96.6,-77.5 96.9,-79.4 97.1,-81.2 97.3,-83 97.5,-84.8 97.7,-86.3 97.9,-87.8 98.2,-89.9 98.5,-92.1 98.7,-93.9 99,-95.7 99.2,-97.5 99.4,-99.2 99.6,-101 99.9,-102.6 100.1,-104.2 100.4,-106.3 100.6,-108.1 100.9,-109.7 101.1,-111.3 101.4,-113.4 101.6,-115.1 101.9,-116.7 102.1,-118.3 102.4,-120.4 102.6,-122.1 102.8,-123.7 103,-125.3 103.3,-127.3 103.5,-129.1 103.7,-130.8 104,-132.4 104.2,-134 104.4,-135.9 104.6,-137.4 104.8,-138.9 105,-140.5 105.3,-142.5 105.5,-144 105.7,-145.6 106,-147.1 106.3,-149.1 106.5,-151 106.7,-152.6 106.9,-154.2 107.1,-155.8 107.3,-157.3 107.5,-158.7 107.7,-160.2 107.9,-161.7 108.1,-163.2 108.3,-165 108.5,-166.5 108.7,-168.2 108.9,-169.8 109.1,-171.5 109.2,-172.4 109.4,-173.9 109.6,-175.3 109.9,-176.8 110.1,-178.2 110.4,-180.2 110.6,-181.6 110.8,-183.1 111,-184.5 111.2,-186 111.4,-187.4 111.6,-189.1 111.8,-190.5 112,-191.9 112.2,-193.3 112.4,-194.6 112.6,-196 112.8,-197.4 112.9,-199.1 113.1,-200.7 113.2,-201.9 113.4,-203.2 113.6,-204.7 113.8,-205.9 114,-207.2 114.2,-208.5 114.4,-209.9 114.6,-211.3 114.8,-212.7 115,-214.3 115.2,-215.9 115.3,-216.9 115.5,-218.2 115.7,-219.7 115.8,-220.9 116,-222.2 116.2,-223.5 116.4,-224.7 116.6,-225.9 116.8,-227.4 117,-228.8 117.2,-230.2 117.3,-231.3 117.5,-232.7 117.7,-233.8 117.8,-235.1 118,-236.5 118.2,-237.8 118.3,-238.6 118.5,-239.9 118.7,-241.3 118.8,-242.7 119,-244.1 119.2,-245.5 119.3,-246.5 119.5,-247.7 119.7,-248.8 119.8,-250.1 119.9,-251.5 120.1,-253.1 120.2,-254.2 120.3,-255.3 120.4,-256.2 120.5,-257 120.6,-258 120.7,-259.1 120.8,-260.5 120.9,-262 121,-263.6 121,-264.8 120.9,-266.4 120.8,-267.7 120.6,-268.9 120.4,-270 120.1,-271.4 119.9,-272.3 119.6,-273.2 119.4,-274.1 119.1,-275.4 118.7,-276.5 118.3,-277.6 117.8,-278.9 117,-280.6 116.2,-281.9 115.6,-283 114.8,-284.3 114.2,-285.4 113.6,-286.3 112.9,-287.3 112.1,-288.4 111.4,-289.2 110.2,-290.3 109.3,-291.2 108.5,-291.9 107.7,-292.5 106.9,-293.1 106.1,-293.7 104.9,-294.5 103.5,-295.4 102.1,-296.3 100.5,-297.3 99.3,-298 98.4,-298.5 97.4,-299.1 96.4,-299.7 95.4,-300.3 94.4,-300.9 93.2,-301.6 92.3,-302.1 91,-302.8 89.9,-303.4 88.8,-304 87.5,-304.7 86.2,-305.4 85.3,-305.9 84.4,-306.5 83.1,-307.2 82,-307.8 80.9,-308.5 79.8,-309.1 78.4,-309.9 77.4,-310.6 76.3,-311.2 75.2,-311.8 74.1,-312.5 72.8,-313.2 71.5,-313.9 70.5,-314.6 69.4,-315.3 68.3,-315.9 67.3,-316.6 66.3,-317.3 65.3,-318 64.4,-318.6 63,-319.6 62,-320.3 61,-321 59.6,-322 58.2,-323 57.3,-323.7 56.4,-324.4 55.1,-325.4 54.2,-326.1 53.2,-326.9 52.1,-327.7 51,-328.5 50.1,-329.2 49.1,-330 47.8,-331.1 46.6,-332.2 45.4,-333.3 44.4,-334.2 43.5,-335 43,-335.5 42,-336.5 41,-337.5 40,-338.5 39,-339.5 38,-340.5 37.3,-341.3 36.7,-342.1 36.1,-342.9 35.2,-344.1 34.3,-345.4 33.6,-346.4 32.6,-347.7 31.6,-349 30.7,-350.3 29.9,-351.5 29.1,-352.7 28.3,-353.9 27.5,-355.2 26.7,-356.4 25.9,-357.6 25.1,-358.8 24.4,-360 23.6,-361.4 23,-362.5 22.3,-363.7 21.7,-364.9 21.1,-366.2 20.6,-367.4 20.1,-368.6 19.7,-369.8 19.1,-371.3 18.6,-372.6 18.1,-373.8 17.7,-375 17.1,-376.5 16.7,-377.7 16.3,-378.7 15.8,-380.3 15.2,-381.9 14.8,-383.1 14.2,-384.8 13.6,-386.5 13.2,-387.5 12.6,-389.1 11.9,-390.7 11.4,-391.8 10.9,-393 10.3,-394.5 9.7,-395.7 9.2,-396.9 8.6,-398.2 8,-399.4 7.4,-400.6 6.8,-401.8 6.1,-403.1 5.1,-404.7 4.2,-406.3 3.3,-407.6 2.6,-408.6 1.6,-409.9 0.9,-410.8 0.1,-411.8 -1,-413.2 -2,-414.6 -2.8,-415.7 -3.6,-416.8 -4.4,-417.8 -5.4,-418.9 -6.5,-420 -7.5,-421 -8.8,-422.2 -10.1,-423.3 -10.9,-423.9 -12,-424.8 -13.1,-425.7 -14,-426.5 -15.3,-427.7 -16.6,-428.9 -17.7,-429.7 -19.3,-430.8 -20.8,-431.8 -22.1,-432.6 -23.4,-433.3 -24.7,-434.1 -26.1,-434.9 -27.5,-435.6 -28.8,-436.2 -30.1,-436.8 -31.7,-437.6 -32.7,-438.1 -34.1,-438.7 -35.4,-439.3 -37,-440 -38.5,-440.6 -40,-441.1 -41.7,-441.6 -43.4,-442.1 -44.8,-442.5 -46,-442.7 -47.5,-443.1 -48.5,-443.4 -50,-443.7 -51.7,-444.1 -53.3,-444.5 -54.6,-444.7 -56.4,-445 -57.7,-445.2 -59.1,-445.4 -60.5,-445.6 -62,-445.8 -63.4,-446 -65,-446.3 -66.3,-446.5 -67.7,-446.7 -69.5,-447 -71.1,-447.2 -72.5,-447.4 -74.3,-447.6 -76,-447.8 -77.3,-447.9 -78.3,-448 -79.9,-448.2 -81.3,-448.4 -82.8,-448.6 -84.3,-448.8 -86.3,-449.2 -88,-449.4 -89.6,-449.6 -91.2,-449.8 -92.7,-450.1 -94.3,-450.3 -95.9,-450.5 -97.4,-450.7 -98.9,-450.9 -100.4,-451.1 -101.9,-451.3 -103.4,-451.5 -104.9,-451.7 -106.4,-451.9 -108.6,-452.2 -110.2,-452.4 -111.6,-452.6 -113,-452.8 -115.2,-453.2 -116.7,-453.4 -118.4,-453.6 -120.1,-453.8 -121.9,-454 -123.3,-454.2 -124.9,-454.4 -126.3,-454.6 -127.7,-454.8 -129.7,-455.2 -131.3,-455.4 -132.8,-455.6 -134.3,-455.8 -136.3,-456.1 -137.9,-456.3 -139.4,-456.5 -140.9,-456.7 -142.4,-456.9 -143.9,-457.2 -145.2,-457.4 -146.5,-457.6 -148.4,-457.9 -150.3,-458.3 -151.7,-458.5 -153.6,-458.8 -155.5,-459.2 -156.8,-459.5 -158.1,-459.7 -159.9,-460 -161.1,-460.3 -162.4,-460.5 -164.1,-460.8 -165.9,-461.2 -167.1,-461.5 -168.8,-461.8 -170.4,-462.2 -171.6,-462.5 -173,-462.8 -174.4,-463.2 -175.7,-463.6 -177,-464 -178.6,-464.5 -179.9,-465 -181.2,-465.4 -182.2,-465.8 -183.2,-466.1 -184.2,-466.6 -185.3,-467.1 -186.4,-467.6 -187.8,-468.3 -189.2,-469.1 -190.3,-469.6 -191.3,-470.1 -192.7,-471 -193.7,-471.6 -194.9,-472.3 -196,-473.1 -197.1,-473.9 -198,-474.5 -198.9,-475.1 -199.7,-475.7 -200.6,-476.4 -201.6,-477.2 -202.8,-478.2 -204,-479.3 -205.1,-480.3 -206.2,-481.3 -207.3,-482.3 -208.1,-483.1 -208.8,-483.9 -209.5,-484.7 -210.3,-485.8 -211,-486.8 -211.6,-487.7 -212.6,-489 -213.6,-490.3 -214.3,-491.2 -215,-492.1 -216,-493.5 -216.7,-494.5 -217.3,-495.5 -218,-496.5 -219,-498.1 -219.6,-499.2 -220.2,-500.3 -220.9,-501.5 -221.5,-502.7 -221.9,-503.6 -222.5,-505 -223.1,-506.4 -223.6,-507.7 -224.2,-509.1 -224.7,-510.5 -225.1,-511.4 -225.4,-512.4 -225.8,-513.8 -226.2,-515.2 -226.6,-516.6 -226.9,-518 -227.3,-519.4 -227.6,-520.4 -228,-521.8 -228.3,-523 -228.6,-524.2 -229,-525.7 -229.4,-527.3 -229.7,-528.7 -230.1,-530.1 -230.5,-531.5 -230.9,-532.9 -231.3,-534.3 -231.7,-535.7 -232.1,-537 -232.6,-538.7 -233,-540 -233.4,-541.2 -234,-542.6 -234.5,-544.1 -235,-545.2 -235.4,-546.3 -236.2,-548 -236.8,-549.2 -237.4,-550.4 -238,-551.6 -238.9,-553.2 -239.5,-554.2 -240.2,-555.5 -241.1,-556.8 -242,-558.1 -242.7,-559 -243.7,-560.3 -244.6,-561.3 -245.6,-562.4 -246.7,-563.6 -247.7,-564.8 -249,-566 -250.3,-567.2 -251.5,-568.2 -252.6,-569 -254.1,-570 -255,-570.6 -256.3,-571.4 -257.5,-572.1 -258.7,-572.9 -259.6,-573.5 -260.8,-574.2 -261.9,-574.8 -263,-575.5 -264.3,-576.2 -265.6,-576.9 -266.6,-577.5 -267.8,-578.1 -269,-578.7 -270,-579.2 -271.5,-579.9 -273,-580.6 -274.2,-581.2 -275.4,-581.8 -276.9,-582.6 -278.1,-583.2 -279.4,-583.8 -280.9,-584.6 -282.4,-585.3 -283.9,-586 -285.2,-586.7 -286.4,-587.4 -287.9,-588.1 -289.4,-588.9 -290.7,-589.6 -292,-590.2 -293.6,-591 -294.6,-591.6 -295.9,-592.4 -297.4,-593.2 -299.2,-594.2 -300.8,-595 -302.3,-595.8 -303.8,-596.5 -305,-597.1 -306.3,-597.8 -307.7,-598.6 -309.2,-599.4 -310.7,-600.3 -312.5,-601.3 -313.9,-602.1 -315.2,-602.8 -317.1,-603.8 -318.8,-604.6 -320.2,-605.3 -321.9,-606.1 -323.5,-606.9 -324.8,-607.6 -326.3,-608.4 -327.8,-609.2 -329.3,-610 -331,-610.9 -332.6,-611.7 -334,-612.4 -335.7,-613.4 -337.4,-614.3 -338.9,-615.1 -340.4,-615.9 -342.1,-616.8 -343.7,-617.6 -345.3,-618.5 -347,-619.4 -348.4,-620.1 -350.1,-621 -351.9,-621.9 -353.4,-622.7 -355.1,-623.6 -357.1,-624.7 -358.7,-625.6 -360.3,-626.5 -362.2,-627.5 -363.8,-628.3 -365.4,-629.1 -366.9,-629.8 -368.7,-630.7 -370.2,-631.5 -372.4,-632.6 -374.4,-633.6 -376.3,-634.6 -377.9,-635.3 -379.6,-636 -381,-636.7 -382.5,-637.5 -384.3,-638.4 -386.1,-639.4 -388.2,-640.4 -390,-641.2 -391.8,-642 -393.6,-642.8 -395.5,-643.6 -397.1,-644.3 -398.8,-645.1 -400.6,-645.9 -402.5,-646.6 -404.1,-647.2 -406.3,-648.1 -408.3,-648.8 -410.1,-649.4 -411.6,-650 -413.6,-650.7 -415.3,-651.3 -417,-651.9 -419.1,-652.6 -421.2,-653.3 -423.1,-653.9 -424.7,-654.4 -426.7,-655 -428.3,-655.5 -430.2,-656 -431.8,-656.5 -433.8,-657 -435.4,-657.4 -437.3,-657.9 -438.9,-658.3 -441.1,-658.8 -442.9,-659.2 -444.7,-659.6 -446.7,-660 -448.7,-660.4 -450.1,-660.6 -451.9,-661 -453.8,-661.4 -455.2,-661.6 -457.2,-661.9 -459.1,-662.3 -460.6,-662.5 -462.6,-662.8 -464.5,-663.2 -465.8,-663.5 -467.6,-663.8 -469.5,-664.1 -471.1,-664.4 -472.8,-664.6 -474.4,-664.8 -476,-665 -477.7,-665.3 -479.1,-665.5 -480.5,-665.7 -482.5,-666 -484.2,-666.3 -485.7,-666.5 -487.3,-666.7 -489.2,-667 -490.8,-667.3 -492.2,-667.5 -493.6,-667.7 -495.6,-668 -497.2,-668.3 -498.8,-668.5 -500.5,-668.7 -502.1,-668.9 -503.7,-669.2 -505.4,-669.4 -506.8,-669.6 -508.6,-669.9 -510.6,-670.3 -512.2,-670.5 -513.8,-670.7 -515.4,-670.9 -517,-671.1 -518.7,-671.3 -520.1,-671.5 -521.5,-671.7 -523.5,-672 -525.2,-672.3 -526.7,-672.5 -528.3,-672.7 -530.2,-673 -531.8,-673.3 -533.5,-673.5 -535.1,-673.7 -536.7,-673.9 -538.5,-674.2 -540.1,-674.4 -541.4,-674.6 -543.4,-674.9 -545.6,-675.3 -547.2,-675.5 -548.8,-675.7 -551,-676 -552.8,-676.3 -554.3,-676.5 -555.9,-676.7 -558,-677 -559.8,-677.3 -561.4,-677.5 -563,-677.7 -565.1,-678 -566.9,-678.3 -568.5,-678.5 -570.1,-678.7 -572.2,-679 -574,-679.3 -575.6,-679.5 -577.2,-679.7 -579.4,-680 -581.2,-680.3 -582.7,-680.5 -584.7,-680.8 -586.9,-681.1 -588.5,-681.4 -590.1,-681.6 -592.3,-681.9 -594.2,-682.1 -595.9,-682.4 -597.5,-682.6 -599.6,-682.9 -601.4,-683.2 -603,-683.5 -605.1,-683.8 -607.5,-684.1 -609.4,-684.4 -611.1,-684.6 -613.4,-684.9 -615.2,-685.2 -616.8,-685.5 -619,-685.8 -621.3,-686.1 -623,-686.4 -625.1,-686.7 -627.3,-687 -628.9,-687.3 -630.4,-687.6 -632.4,-687.9 -634.2,-688.1 -636.1,-688.4 -638,-688.6 -640.3,-688.9 -642.3,-689.2 -644.1,-689.5 -646.2,-689.8 -648.5,-690.1 -650.4,-690.4 -652.1,-690.6 -654.3,-690.9 -656.2,-691.2 -657.9,-691.5 -660.1,-691.8 -662.5,-692.1 -664.4,-692.4 -666.1,-692.6 -668.3,-692.9 -670,-693.2 -672,-693.6 -674.3,-693.9 -676.6,-694.2 -678.4,-694.5 -680.7,-694.8 -682.8,-695 -684.6,-695.3 -686.4,-695.6 -688.7,-695.9 -690.4,-696.2 -691.8,-696.5 -693.8,-696.8 -695.8,-697.1 -697.5,-697.4 -699.3,-697.6 -701.7,-697.9 -703.5,-698.2 -705.3,-698.5 -707.4,-698.8 -709.5,-699.1 -711,-699.4 -713.1,-699.7 -715.1,-700 -716.9,-700.3 -718.7,-700.6 -720.5,-700.8 -722.3,-701 -724.2,-701.3 -725.8,-701.5 -728,-701.8 -730.1,-702.1 -731.6,-702.4 -733.7,-702.7 -735.8,-703 -737.6,-703.3 -739.5,-703.6 -741.3,-703.8 -743,-704 -745,-704.3 -746.7,-704.5 -748.3,-704.7 -750,-704.9 -751.7,-705.2 -753.1,-705.4 -754.4,-705.6 -756.4,-705.9 -758.6,-706.3 -760.3,-706.5 -761.9,-706.7 -764,-707 -765.7,-707.2 -767.1,-707.4 -768.5,-707.6 -770.3,-707.9 -772,-708.1 -773.5,-708.4 -775,-708.6 -777,-708.9 -778.7,-709.1 -780.3,-709.3 -781.8,-709.5 -783.3,-709.7 -784.3,-709.8 -785.7,-710 -786.9,-710.3 -788.1,-710.5 -789.3,-710.7 -791.1,-711 -792.4,-711.2 -793.6,-711.4 -794.8,-711.6 -796,-711.8 -796.8,-712 -797.6,-712.3 -798.5,-712.5 -799.4,-712.7 -800.9,-713.2 -802.1,-713.7 -803.3,-714.1 -804.4,-714.6 -805.5,-715.1 -806.3,-715.6 -807.1,-716 -807.9,-716.5 -808.7,-716.9 -809.4,-717.4 -809.8,-717.6 -810.3,-718 -810.8,-718.5 -811.3,-719 -812,-719.6 -812.6,-720.3 -813.2,-721 -813.8,-721.8 -814.3,-722.7 -814.8,-723.7 -815.4,-724.8 -815.8,-725.8 -816.1,-726.6 -816.5,-727.7 -816.7,-728.6 -816.8,-729.4 -816.9,-730.2 -817.1,-731.4 -817.3,-732.3 -817.5,-733.2 -817.7,-734.1 -817.9,-735 -818,-735.6 -818,-736.3 -818,-737.1 -818,-738 -818,-739 -818,-740 -818,-741 -818,-742.2 -818.1,-743.4 -818.2,-744.6 -818.3,-745.8 -818.4,-747.2 -818.6,-748.8 -818.7,-750.3 -818.8,-751.7 -818.9,-753.1 -819,-754.3 -819,-755.3 -819.1,-756.4 -819.2,-757.6 -819.3,-759 -819.4,-760.4 -819.5,-761.6 -819.6,-763.3 -819.7,-764.9 -819.8,-766.2 -819.9,-767.6 -820.1,-769 -820.2,-769.8 -820.3,-771 -820.4,-772.3 -820.5,-773.4 -820.6,-775.1 -820.7,-776.8 -820.8,-778.2 -821,-779.6 -821.2,-781 -821.3,-782.1 -821.4,-783.2 -821.5,-784.4 -821.5,-785.6 -821.6,-787.5 -821.7,-789 -821.9,-790.6 -822.1,-792.2 -822.3,-793.8 -822.4,-795 -822.5,-796.2 -822.5,-797.5 -822.5,-798.7 -822.6,-800.5 -822.7,-802 -822.9,-803.5 -823.1,-804.8 -823.3,-806.2 -823.4,-806.9 -823.5,-807.8 -823.5,-808.7 -823.5,-809.9 -823.6,-811.1 -823.7,-812.3 -823.9,-813.9 -824.1,-815.5 -824.3,-816.9 -824.4,-818.1 -824.5,-819.4 -824.6,-820.1 -824.7,-821 -824.8,-822.1 -824.9,-823.2 -825.1,-824.8 -825.2,-826.4 -825.4,-827.8 -825.6,-828.9 -825.8,-830.1 -825.9,-830.9 -826,-831.8 -826,-832.7 -826.1,-833.8 -826.2,-834.8 -826.4,-836.5 -826.6,-838.1 -826.8,-839.7 -826.9,-841.1 -827,-842.5 -827.1,-843 -827.2,-843.6 -827.3,-844.2 -827.4,-845 -827.5,-846.1 -827.5,-847.2 -827.5,-848.4 -827.5,-849.7 -827.7,-851.4 -827.9,-852.8 -828.1,-854.2 -828.3,-855.4 -828.5,-856.5 -828.5,-857 -828.5,-857.6 -828.6,-858.2 -828.7,-859 -828.8,-859.8 -828.9,-860.8 -829.1,-862.3 -829.2,-863.8 -829.3,-865.1 -829.4,-866.4 -829.6,-867.5 -829.7,-868 -829.8,-868.6 -829.9,-869.2 -830,-870 -830,-870.9 -830,-871.9 -830.2,-873.6 -830.4,-875.3 -830.6,-876.8 -830.8,-878.2 -831,-879.6 -831.1,-880.8 -831.3,-882.1 -831.8,-884.2 -832.4,-886.5 -833.1,-888.6 -833.9,-890.5 -834.7,-892.2 -836.7,-894.1 -838.6,-895.8 -840.6,-897.5 -842.9,-898.9 -847.6,-899.8 -851,-899.5 -855.2,-898.3 -859.6,-896.4 -864,-893.7 -865.9,-891.3 -867.9,-888.7 -869.2,-886.6 -870.4,-884.9 -871.2,-883.5 -872.1,-882.3 -872.7,-881.3 -873.3,-880.6 -873.8,-879.9 -874.2,-879.4 -874.6,-878.9 -875.1,-878.3 -875.6,-877.7 -876,-877.2 -876.7,-876.5 -877.6,-875.6 -878.4,-874.8 -879.3,-873.8 -880.2,-873 -880.8,-872.4 -881.4,-871.9 -882.4,-871.2 -883.3,-870.7 -884.1,-870.1 -885,-869.6 -885.7,-869.1 -886.1,-868.9 -886.5,-868.7 -886.9,-868.5 -887.6,-868.2 -888.3,-868 -889,-867.7 -890,-867.3 -891.1,-867 -891.9,-866.8 -892.7,-866.6 -893.4,-866.4 -893.8,-866.3 -894.2,-866.2 -894.7,-866.1 -895.3,-866 -896.1,-866 -897,-866 -898,-866 -899,-866 -900,-866 -901,-866 -902,-866 -902.9,-866 -903.7,-866.1 -904.5,-866.2 -905.5,-866.5 -906.4,-866.8 -907.3,-867.1 -908.5,-867.5 -909.6,-867.9 -910.5,-868.2 -911.6,-868.7 -912.7,-869.2 -913.7,-869.7 -914.8,-870.3 -915.8,-870.8 -916.9,-871.4 -918,-872 -918.9,-872.4 -919.6,-872.8 -920.7,-873.4 -921.5,-873.8 -922.3,-874.2 -923.3,-874.7 -924.3,-875.2 -924.9,-875.5 -926,-876 -927.1,-876.5 -928,-876.9 -929.4,-877.3 -930.7,-877.8 -931.5,-878 -932.3,-878.2 -933.1,-878.5 -933.8,-878.8 -934.6,-879 -936,-879.4 -937.5,-879.8 -939,-880.1 -940.2,-880.3 -941.4,-880.5 -942,-880.5 -943,-880.7 -944.1,-880.9 -945.4,-881.1 -946.7,-881.3 -948,-881.5 -948.8,-881.5 -950,-881.7 -951.1,-881.9 -952.3,-882.1 -953.6,-882.3 -955,-882.5 -956,-882.5 -957,-882.5 -958,-882.5 -958.9,-882.6 -959.7,-882.7 -960.9,-882.9 -962.1,-883.1 -963.3,-883.3 -964.6,-883.4 -966,-883.5 -967,-883.5 -967.9,-883.5 -968.7,-883.5 -969.4,-883.6 -970,-883.7 -971,-883.9 -972.1,-884.1 -973.3,-884.3 -974.6,-884.4 -976,-884.5 -977,-884.5 -977.8,-884.6 -978.5,-884.7 -979.1,-884.8 -979.6,-884.9 -980,-885 -981,-885.1 -982.1,-885.2 -983.3,-885.3 -984.6,-885.5 -985.9,-885.7 -986.7,-885.8 -987.5,-885.9 -988.7,-886.1 -989.9,-886.2 -991.2,-886.4 -992.6,-886.6 -994,-886.8 -995,-886.9 -995.9,-887 -996.7,-887.1 -997.9,-887.3 -999,-887.5 -1000.1,-887.8 -1001.2,-888.1 -1002.6,-888.4 -1003.5,-888.6 -1004.3,-888.9 -1005,-889.1 -1005.7,-889.3 -1006.4,-889.6 -1007.1,-890 -1007.9,-890.3 -1008.9,-890.9 -1009.9,-891.5 -1010.6,-891.9 -1011.2,-892.3 -1011.8,-892.7 -1012.1,-892.9 -1012.4,-893.1 -1013,-893.7 -1013.7,-894.4 -1014.4,-895.1 -1015.1,-895.8 -1015.8,-896.5 -1016.1,-896.9 -1016.3,-897.2 -1016.5,-897.5 -1016.8,-898 -1017.2,-898.9 -1017.7,-899.8 -1018.2,-900.8 -1018.6,-901.9 -1019,-903 -1019.2,-903.9 -1019.3,-905.1 -1019.4,-906.3 -1019.5,-907.6 -1019.5,-909 -1019.5,-910.4 -1019.5,-911.6 -1019.5,-912.8 -1019.5,-913.9 -1019.4,-914.6 -1019.3,-915.2 -1019.2,-915.7 -1019.1,-916.1 -1018.9,-916.9 -1018.7,-917.8 -1018.5,-918.8 -1018.2,-920.1 -1017.8,-921.4 -1017.5,-922.3 -1017.2,-923.5 -1016.8,-924.6 -1016.5,-925.4 -1016.2,-926.6 -1015.8,-927.8 -1015.5,-928.7 -1015.3,-929.6 -1015,-930.5 -1014.7,-931.2 -1014.4,-932.2 -1014,-933.2 -1013.6,-934.2 -1013.2,-935.5 -1012.8,-936.6 -1012.5,-937.4 -1012.2,-938.2 -1011.8,-939.2 -1011.3,-940.2 -1010.9,-941.2 -1010.4,-942.2 -1010,-943.2 -1009.6,-944 -1009.4,-944.5 -1008.8,-945.6 -1008.3,-946.7 -1007.7,-947.8 -1007.2,-948.9 -1006.5,-950.2 -1006.2,-950.9 -1005.8,-951.6 -1005.5,-952.3 -1004.9,-953.3 -1004.4,-954.1 -1003.7,-955.3 -1003,-956.5 -1002.2,-957.7 -1001.7,-958.6 -1001.2,-959.5 -1000.5,-960.4 -999.9,-961.3 -999.3,-962.2 -998.4,-963.4 -997.6,-964.6 -997.1,-965.4 -996.5,-966.2 -995.6,-967.4 -994.9,-968.3 -994.2,-969.2 -993.5,-970.1 -992.7,-971.2 -992.1,-972 -991.4,-972.9 -990.4,-974.2 -989.4,-975.5 -988.5,-976.6 -987.7,-977.6 -986.9,-978.6 -986.2,-979.3 -985.4,-980.1 -984.5,-981 -983.5,-982 -982.5,-983 -981.6,-984 -980.7,-985 -979.9,-985.8 -979.1,-986.6 -978.3,-987.4 -977.4,-988.2 -976.6,-988.9 -975.8,-989.7 -974.6,-990.7 -973.4,-991.7 -972.2,-992.7 -970.9,-993.8 -969.5,-995 -968.6,-995.9 -967.8,-996.6 -967.1,-997.2 -966,-998 -964.9,-998.8 -963.7,-999.6 -962.5,-1000.5 -961.3,-1001.3 -960.1,-1002.1 -959,-1002.8 -958,-1003.5 -956.9,-1004.2 -955.8,-1004.9 -954.8,-1005.5 -953.8,-1006.1 -952.8,-1006.7 -951.4,-1007.4 -950,-1008.2 -949,-1008.8 -947.6,-1009.4 -946,-1010.1 -944.9,-1010.7 -943.6,-1011.3 -942,-1012 -940.8,-1012.6 -939.8,-1013.1 -938.4,-1013.6 -937.2,-1014.1 -936.3,-1014.4 -935,-1014.9 -933.7,-1015.3 -932.3,-1015.8 -930.9,-1016.2 -929.5,-1016.7 -928.1,-1017.1 -926.7,-1017.5 -925.3,-1017.9 -923.9,-1018.3 -922.5,-1018.7 -921,-1019.1 -919.5,-1019.5 -918.4,-1019.8 -917.3,-1020.1 -916.2,-1020.3 -914.9,-1020.5 -913.6,-1020.8 -912.3,-1021 -911,-1021.2 -909.4,-1021.4 -908.5,-1021.5 -906.7,-1021.7 -905,-1021.9 -903.3,-1022.1 -901.8,-1022.3 -900.3,-1022.5 -899.5,-1022.5 -898.5,-1022.5 -897.2,-1022.5 -896,-1022.5 -894.6,-1022.5 -893.2,-1022.5 -891.8,-1022.5 -890.5,-1022.5 -889,-1022.5 -887.6,-1022.5 -886.3,-1022.5 -885.2,-1022.5 -884.2,-1022.5 -882.8,-1022.3 -881.4,-1022.1 -879.9,-1021.9 -878.2,-1021.7 -876.4,-1021.5 -875.2,-1021.5 -874.1,-1021.5 -873.1,-1021.4 -871.7,-1021.2 -870.3,-1021 -868.9,-1020.8 -867.4,-1020.6 -866,-1020.4 -864.6,-1020.2 -863.2,-1020 -861.8,-1019.8 -860.4,-1019.6 -859,-1019.4 -857.5,-1019.2 -856.2,-1019 -854.8,-1018.8 -853.5,-1018.6 -851.7,-1018.3 -850.3,-1018.1 -848.9,-1017.9 -847.5,-1017.7 -846.1,-1017.5 -844.4,-1017.3 -843,-1017.1 -841.5,-1016.9 -840.1,-1016.7 -838.1,-1016.3 -836.9,-1016.1 -835.6,-1015.9 -834.4,-1015.7 -832.6,-1015.4 -831.2,-1015.2 -829.8,-1015 -828.4,-1014.8 -827,-1014.6 -825.4,-1014.4 -824,-1014.2 -822.5,-1014 -821.1,-1013.8 -819,-1013.5 -817.6,-1013.3 -816.1,-1013.1 -814.7,-1012.9 -813.3,-1012.7 -812,-1012.5 -810.6,-1012.3 -809.2,-1012.1 -807.8,-1011.9 -806.8,-1011.8 -806.2,-1011.7" style="stroke: rgb(55, 65, 81); stroke-width: 10;"></polygon><polyline vector-effect="non-scaling-stroke" fill="none" points="-802.3,-1011.5 -801.3,-1011.4 -800.2,-1011.2 -798.7,-1011 -796.4,-1010.7 -794.1,-1010.4 -792.5,-1010.1 -791.1,-1009.9 -789.7,-1009.7 -788.3,-1009.5 -786.9,-1009.3 -785.4,-1009.1 -784,-1008.9 -781.9,-1008.6 -780.5,-1008.4 -779.1,-1008.2 -777.7,-1008 -776.3,-1007.8 -774.9,-1007.6 -773.3,-1007.4 -771.7,-1007.1 -770.1,-1006.9 -768.5,-1006.7 -766.9,-1006.5 -765.6,-1006.3 -764.3,-1006.1 -762.9,-1005.9 -760.9,-1005.6 -759.3,-1005.4 -757.6,-1005.1 -756,-1004.9 -754.4,-1004.7 -752.6,-1004.5 -751.1,-1004.2 -749.6,-1004 -748,-1003.8 -745.7,-1003.5 -744.2,-1003.2 -742.6,-1003 -741,-1002.8 -738.7,-1002.4 -737.1,-1002.1 -735.4,-1001.9 -733.8,-1001.7 -731.5,-1001.3 -729.9,-1001.1 -728.2,-1000.9 -726.1,-1000.5 -723.7,-1000.1 -722,-999.9 -720.3,-999.6 -718,-999.2 -716.1,-999 -714.4,-998.8 -712.1,-998.4 -709.8,-998.1 -708.2,-997.9 -705.9,-997.5 -703.6,-997.1 -701.9,-996.9 -700.2,-996.7 -697.9,-996.3 -696.2,-996.1 -694.6,-995.9 -692.3,-995.5 -689.9,-995.1 -688.2,-994.9 -685.9,-994.5 -683.5,-994.1 -681.7,-993.9 -679.3,-993.5 -676.8,-993.1 -675,-992.9 -673.2,-992.6 -670.7,-992.2 -668.9,-992 -666.5,-991.6 -664.2,-991.2 -661.9,-990.9 -659.7,-990.6 -657.3,-990.2 -655.4,-990 -653.5,-989.7 -650.7,-989.3 -648.6,-989 -646.6,-988.7 -644.1,-988.3 -641.5,-988 -639.8,-987.7 -637.2,-987.3 -634.7,-987 -632.8,-986.7 -630.2,-986.3 -627.5,-986 -625.8,-985.7 -623.4,-985.3 -621,-985 -618.6,-984.6 -615.9,-984.2 -613.1,-983.8 -611,-983.5 -608.2,-983.1 -606,-982.8 -603.6,-982.4 -601.2,-982.1 -598.1,-981.6 -595.6,-981.2 -593.2,-980.8 -590.7,-980.4 -588.1,-980 -585.2,-979.6 -582.3,-979.2 -579.4,-978.8 -576.4,-978.4 -573.4,-977.9 -571.4,-977.6 -568.8,-977.2 -566.1,-976.8 -563.4,-976.4 -560.7,-976 -557.2,-975.5 -554.4,-975 -550.9,-974.5 -548.1,-974.1 -544.5,-973.6 -541.7,-973.2 -538.8,-972.8 -536,-972.4 -533.2,-971.9 -530.5,-971.5 -527.6,-971 -524.1,-970.5 -521.1,-970 -517.4,-969.5 -514.3,-969 -510.6,-968.5 -507.6,-968.1 -503.9,-967.6 -500.9,-967.2 -497.2,-966.7 -494.3,-966.3 -491.2,-965.8 -488.2,-965.4 -485.2,-964.9 -482.1,-964.5 -479,-964 -475.2,-963.5 -472,-963 -468.1,-962.5 -465,-962 -461.1,-961.5 -458,-961 -454.5,-960.5 -451.7,-960 -448.2,-959.5 -445.4,-959 -441.7,-958.5 -438.6,-958.1 -434.6,-957.6 -431.4,-957.2 -427.4,-956.7 -424.2,-956.3 -420.1,-955.7 -416.7,-955.2 -412.7,-954.6 -409.4,-954.2 -405.4,-953.6 -402.1,-953.2 -398.2,-952.7 -394.9,-952.3 -390.8,-951.7 -387.3,-951.2 -383.6,-950.6 -380.2,-950.2 -376,-949.6 -372.5,-949.1 -368.9,-948.6 -365.1,-948.1 -361.8,-947.6 -358.3,-947.1 -355,-946.7 -351.2,-946.2 -347.9,-945.8 -344.1,-945.2 -340.4,-944.7 -336.6,-944.1 -332.7,-943.6 -328.8,-943 -324.5,-942.5 -321,-942 -316.7,-941.5 -312.8,-941 -309,-940.6 -305.2,-940.1 -301.4,-939.7 -297.6,-939.2 -294.2,-938.8 -289.8,-938.2 -286.2,-937.8 -281.9,-937.3 -278.4,-936.9 -274.1,-936.4 -270.6,-936 -266.3,-935.5 -262.7,-935 -258.3,-934.5 -254.2,-934 -250.2,-933.6 -246.2,-933.1 -242.2,-932.7 -238.1,-932.2 -234.6,-931.8 -230.2,-931.3 -226.6,-930.9 -222.1,-930.4 -218.7,-930 -214.8,-929.5 -210.7,-929 -206.8,-928.6 -203.4,-928.2 -199.4,-927.8 -194.8,-927.4 -191.4,-927 -187.3,-926.6 -183.2,-926.1 -179,-925.7 -175.4,-925.3 -171.2,-924.9 -167.1,-924.5 -163,-924.1 -159,-923.7 -155,-923.3 -151,-922.9 -147,-922.4 -142.9,-922 -138.9,-921.5 -134.9,-921.1 -130.9,-920.7 -126.9,-920.3 -123,-920 -119,-919.6 -115,-919.2 -111,-918.8 -107,-918.4 -103,-918 -99,-917.6 -95,-917.2 -90.4,-916.7 -86.4,-916.3 -82.4,-915.8 -78.4,-915.4 -74.2,-914.9 -70.5,-914.5 -66.6,-914.1 -62.3,-913.6 -58.4,-913.2 -54.2,-912.7 -50.6,-912.3 -46,-911.7 -42.4,-911.3 -38,-910.7 -34.1,-910.3 -30.1,-909.8 -26.1,-909.4 -22.1,-909 -18.1,-908.6 -14.5,-908.2 -9.9,-907.7 -6.5,-907.3 -2.2,-906.7 1.3,-906.3 5.7,-905.7 9,-905.3 12.9,-904.7 16.9,-904.1 21,-903.5 24.9,-902.9 28.8,-902.3 33,-901.7 37,-901.2 41.1,-900.6 44.5,-900.2 48.8,-899.6 52.4,-899.2 56.2,-898.7 59.8,-898.3 64,-897.7 67.4,-897.3 71.6,-896.7 75,-896.3 79.2,-895.7 82.8,-895.3 87.2,-894.7 90.7,-894.3 95,-893.7 98.4,-893.2 102.2,-892.6 106.1,-892 111.1,-891.2 115.3,-890.6 120.3,-889.9 124.9,-889.2 129.3,-888.6 132.7,-888.1 137,-887.5 140.5,-887 144.2,-886.5 148,-885.9 151.8,-885.3 155.4,-884.7 159,-884.1 162.8,-883.5 166.6,-882.9 170.4,-882.4 174.1,-881.8 178,-881.2 182.2,-880.6 185.5,-880.2 189.6,-879.6 193,-879.1 196.6,-878.6 199.9,-878.1 203.2,-877.6 206.4,-877 210.2,-876.5 213.5,-876 217.1,-875.5 221.6,-874.8 225.2,-874.4 228.2,-873.9 232.2,-873.4 235.5,-872.9 238.6,-872.5 241.8,-872 245.8,-871.5 248.9,-871 252.7,-870.5 255.9,-870 259.9,-869.5 263.1,-869.1 267.1,-868.6 270.3,-868.2 273.8,-867.7 277.2,-867.2 280.6,-866.6 283.9,-866.1 287.4,-865.5 291.1,-865 294.1,-864.5 297.1,-864.1 300.1,-863.6 303.6,-863.1 306.5,-862.7 309.4,-862.3 313.1,-861.8 316.1,-861.4 319.3,-861 322.5,-860.5 325.7,-860.1 328.8,-859.6 331.8,-859.2 334.5,-858.7 337.2,-858.3 340.9,-857.7 344,-857.3 347.7,-856.7 350.8,-856.3 354.4,-855.7 357.1,-855.3 360.3,-854.8 363,-854.4 366.2,-853.9 368.9,-853.5 371.9,-853 374.5,-852.5 377.1,-852.1 379.8,-851.6 382.5,-851.2 385.4,-850.7 388.5,-850.2 391.7,-849.6 394.3,-849.2 397.3,-848.6 399.6,-848.2 402.2,-847.8 404.7,-847.4 407.7,-846.8 410.2,-846.4 413.2,-845.9 415.4,-845.4 418,-844.9 420,-844.5 422.5,-844 424.6,-843.5 427.2,-843 429.3,-842.5 431.4,-842.1 433.4,-841.6 435.3,-841.2 437.2,-840.8 439.1,-840.4 441.3,-839.8 443.5,-839.3 445.7,-838.8 447.7,-838.2 449.6,-837.7 451.2,-837.3 452.5,-836.9 454.1,-836.3 455.4,-835.9 456.7,-835.4 458,-835 459.1,-834.6 459.8,-834.4 460.6,-834 461.5,-833.6 462.4,-833 463.4,-832.3 464.4,-831.6 465.3,-830.9 466.1,-830.2 466.8,-829.7 467.4,-829.3 468.1,-828.7 468.7,-828 469.3,-827.3 469.9,-826.6 470.5,-825.7 470.9,-824.9 471.3,-824.4 471.6,-823.9 471.8,-823.3 472.1,-822.4 472.4,-821.5 472.6,-820.4 472.8,-819.2 472.9,-817.9 472.8,-816.8 472.6,-815.6 472.4,-814.2 472.1,-812.6 471.9,-811 471.7,-809.6 471.6,-808.2 471.5,-807 471.4,-806.2 471.3,-805.4 471.2,-804.6 471,-803.6 470.8,-802.6 470.7,-801.4 470.6,-800.3 470.4,-799.3 470.3,-798.6 470.2,-798 470.1,-797.5 469.8,-796.4 469.6,-795.3 469.4,-794 469.2,-792.7 469,-791.4 468.9,-790.7 468.8,-790 468.7,-789.5 468.5,-788.4 468.2,-787.2 468,-786 467.8,-784.8 467.6,-783.6 467.4,-782.9 467.2,-781.7 467,-780.5 466.8,-779.1 466.5,-777.6 466.3,-776.2 466.2,-775.4 466,-773.9 465.7,-772.6 465.5,-771.2 465.3,-769.8 465.1,-768.4 464.9,-767.7 464.8,-767 464.6,-765.8 464.4,-764.5 464.1,-763.2 463.9,-761.7 463.7,-760.2 463.6,-759.4 463.5,-758.7 463.4,-758.1 463.3,-757.7 463.1,-756.8 462.9,-755.9 462.7,-754.4 464,-749.5 465.4,-744.6 467,-740.2 468.9,-735.7 470.8,-731.8 471.8,-731.2 472.7,-730.6 473.7,-730.1 474.4,-729.7 475.4,-729.3 476.3,-728.9 477.2,-728.5 478,-728.1 478.9,-727.8 479.9,-727.4 480.6,-727 482,-726.4 483.4,-725.8 484.8,-725.1 485.9,-724.6 487,-724.2 487.9,-723.8 488.8,-723.4 489.6,-723 490.4,-722.6 491.4,-722 492.1,-721.7 493.2,-721 494.4,-720.4 495.9,-719.5 497.2,-718.8 498.8,-717.7 500.1,-716.9 501.3,-716 502.3,-715.2 503.4,-714.3 504,-713.7 504.6,-713 505.4,-712.1 506.2,-711 506.8,-709.9 507.5,-708.7 508,-707.6 508.3,-706.7 508.5,-706.1 508.7,-705.2 508.8,-704.3 508.9,-703.1 509,-701.8 509,-700.4 509,-699.2 508.9,-698.2 508.8,-697.4 508.7,-696.6 508.6,-695.8 508.5,-695 508.5,-693.8 508.5,-692.7 508.4,-691.7 508.3,-690.8 508.2,-690 508,-689 507.8,-687.9 507.7,-686.8 507.6,-685.7 507.4,-684.6 507.3,-684 507.1,-682.8 506.9,-681.5 506.7,-680.2 506.6,-678.9 506.4,-677.6 506.3,-677 506.1,-675.9 505.9,-674.8 505.6,-673.7 505.4,-672.6 505.1,-671 504.9,-669.8 504.6,-668.6 504.4,-667.4 504.1,-665.6 503.9,-664.3 503.6,-663.1 503.3,-661.4 503,-659.7 502.7,-658.6 502.3,-657 502,-655.5 501.7,-654.4 501.3,-652.9 500.9,-651.3 500.6,-650.2 500.1,-648.6 499.7,-647 499.2,-645.4 498.8,-643.9 498.2,-642.1 497.8,-640.7 497.2,-639 496.7,-637.3 496.1,-635.6 495.6,-633.7 495,-631.8 494.6,-630.3 494.1,-628.8 493.5,-626.9 493,-625.4 492.5,-624 491.7,-621.9 491.1,-620.1 490.6,-618.6 490,-617 489.3,-615 488.8,-613.6 488.1,-611.6 487.4,-609.7 486.7,-607.9 486,-606.2 485.1,-603.8 484.4,-602.1 483.7,-600.3 482.9,-598.3 482.1,-596.3 481.5,-594.8 480.8,-593.3 480,-591.6 479.1,-589.5 478.4,-587.7 477.7,-586.1 476.9,-584.2 476.1,-582.3 475.4,-580.8 474.5,-579 473.6,-577.2 472.9,-575.6 471.9,-573.6 471,-571.8 470.1,-570 469.1,-568 467.9,-565.8 467,-564 466,-561.9 465.1,-560 464.3,-558.3 463.6,-556.9 462.6,-555.1 461.6,-553.3 460.6,-551.4 459.6,-549.6 458.2,-547 457.2,-545 456.3,-543.3 455.3,-541.7 453.9,-539.4 452.9,-537.8 451.9,-536.2 450.9,-534.6 449.7,-532.6 448.6,-530.9 447.3,-528.7 446,-526.5 444.7,-524.3 443.6,-522.6 442.5,-520.8 441.4,-519.2 440.2,-517.4 439,-515.6 437.6,-513.4 436.4,-511.4 435.2,-509.4 434.1,-507.6 432.6,-505.3 431.4,-503.3 430.3,-501.5 429.1,-499.5 427.9,-497.5 426.8,-495.7 425.6,-493.7 424.2,-491.3 423,-489.2 421.8,-487.1 420.6,-485 419.3,-482.8 418.1,-480.8 417,-479 415.5,-476.6 414.3,-474.5 413.3,-472.7 411.8,-470.2 410.3,-467.7 409.2,-465.8 407.8,-463.6 406.4,-461.4 405.3,-459.6 404.1,-457.8 402.7,-455.6 401.4,-453.4 399.9,-451 398.5,-448.8 397.2,-446.6 395.7,-444.2 394.4,-442 393.1,-439.7 391.9,-437.7 390.5,-435.4 389.2,-433.1 387.8,-430.9 386.4,-428.7 385.1,-426.5 383.6,-423.9 382.4,-421.9 381,-419.6 379.8,-417.6 378.4,-415.3 377,-413.1 375.6,-410.9 374.3,-408.7 372.7,-406.1 371.2,-403.5 370.1,-401.5 368.7,-399.2 367.3,-396.8 366.1,-394.8 364.7,-392.6 363.3,-390.4 361.9,-388.1 360.5,-385.9 359.2,-383.7 357.8,-381.3 356.4,-378.9 355,-376.6 353.8,-374.6 352.3,-372 351.1,-370.1 349.7,-367.9 348.4,-365.7 346.9,-363.1 345.7,-361.1 344.6,-359.1 343.1,-356.6 341.8,-354.4 340.3,-352 338.5,-349.1 336.7,-346.2 335.2,-343.7 333.6,-341 332.2,-338.6 330.9,-336.4 329.6,-334.3 328.2,-332 326.9,-329.9 325.6,-327.8 324.3,-325.8 323,-323.7 321.8,-321.6 320.5,-319.5 319,-317 317.7,-314.7 316.3,-312.4 314.7,-310 313.3,-307.6 312.2,-305.9 310.8,-303.7 309.4,-301.3 308.4,-299.6 307,-297.5 305.6,-295.1 304.2,-292.8 302.9,-290.7 301.7,-288.6 300.3,-286.2 298.9,-284 297.8,-282.2 296.5,-280 294.9,-277.4 293.8,-275.5 292.8,-273.7 291.3,-271.4 289.9,-269.3 288.5,-267.2 287.2,-265.2 285.7,-262.9 284.4,-260.5 283.2,-258.3 282.3,-256.5 281,-254.3 279.7,-252.1 278.7,-250.5 277.5,-248.6 276,-246.4 274.8,-244.5 273.6,-242.6 272.2,-240.4 271,-238.5 269.8,-236.6 268.4,-234.3 267.2,-232.3 266,-230.3 264.7,-228.3 263.5,-226.3 262.5,-224.7 261.2,-222.7 260,-220.9 258.7,-218.9 257.6,-217.2 256.2,-215.1 255.1,-213.4 253.9,-211.4 252.9,-209.7 251.8,-208 250.7,-206.3 249.4,-204.3 248.2,-202.5 247,-200.7 245.8,-198.9 244.7,-197.3 243.5,-195.5 242.4,-194 241.3,-192.4 240.2,-190.7 238.8,-188.6 237.7,-187.1 236.6,-185.5 235.4,-183.9 234,-182 233,-180.6" style="stroke: rgb(239, 68, 68); stroke-width: 7;"></polyline><polyline vector-effect="non-scaling-stroke" fill="none" points="232,-179.2 231,-177.8 230,-176.4 229,-175.1 228,-173.7 227,-172.3 226.1,-171 225.1,-169.4 224.4,-168.2 223.8,-167.3 223.1,-166.3 222,-164.8 221.1,-163.7 220.2,-162.6 218.9,-160.8 217.8,-159.1 217,-157.9 215.9,-156.3 214.8,-154.7 214.1,-153.8 213,-152.4 211.9,-151 211.1,-150 210,-148.5 208.9,-147 208.1,-145.9 207,-144.4 206,-142.9 205.3,-141.9 204.6,-140.9 203.8,-139.9 203,-138.8 202.1,-137.5 201.2,-136.2 200.3,-134.9 199.3,-133.4 198.7,-132.4 198.1,-131.6 197.5,-130.7 196.6,-129.4 196,-128.4 195.3,-127.4 194.6,-126.4 193.7,-125.1 193.1,-124.2 192.4,-123.3 191.7,-122.4 190.7,-121 190,-120 189.1,-118.7 188.3,-117.4 187.5,-116.1 187,-115.3 186.3,-114.4 185.9,-113.8 185.2,-113 184.3,-111.9 183.5,-110.8 182.8,-109.8 181.8,-108.5 181.1,-107.4 180.6,-106.6 180.1,-105.8 179.3,-104.6 178.7,-103.7 178,-102.8 177.2,-101.6 176.3,-100.4 175.8,-99.6 175.3,-98.8 174.6,-97.6 174,-96.8 173.4,-96 172.8,-95.2 172,-94.1 171.5,-93.4 171,-92.7 170.6,-92 170.1,-91.3 169.6,-90.5 169,-89.8 168.5,-89 167.9,-88.1 166.8,-86.4 165.9,-85.2 165.1,-83.8 164.2,-82.3 162.9,-80.3 162.2,-78.9 161.3,-76.6 160.5,-74.5 160.4,-70.4 160.8,-66.8 161.6,-63.1 162.8,-60.3 164,-57.3 165.6,-55.8 167.6,-54.2 169.2,-52.9 171.1,-51.4 173.6,-49.7 175.8,-48.4 177.7,-47.4 179.6,-46.4 181.2,-45.6 182.2,-45.1 182.8,-44.8 183.7,-44.2 184.7,-43.6 185.9,-42.9 187.1,-42.2 188.3,-41.5 189.2,-41 190.3,-40.4 191.2,-39.9 192.3,-39.3 193.4,-38.6 194.5,-38 195.6,-37.4 196.7,-36.7 197.8,-36.1 198.7,-35.6 199.8,-35 200.7,-34.5 201.6,-34 202.3,-33.6 203.3,-33 204,-32.4 204.9,-31.8 205.8,-31.2 206.7,-30.5 207.3,-30.1 208.1,-29.6 208.9,-28.9 209.7,-28.2 210.5,-27.6 211.4,-26.6 212.3,-25.6 212.9,-24.8 213.6,-23.9 214.2,-22.9 214.6,-22.2 214.9,-21.5 215.2,-20.8 215.3,-20.2 215.4,-19.3 215.5,-18.3 215.5,-17.3 215.5,-16 215.5,-14.6 215.5,-13.4 215.5,-12.3 215.5,-11.3 215.4,-10.7 215.3,-10.2 215.2,-9.8 215.1,-9.4 214.7,-8.7 214.4,-7.9 213.9,-7 213.3,-6 212.6,-5.1 212.1,-4.4 211.4,-3.6 210.8,-3 210.2,-2.4 209.6,-1.8 208.8,-1.1 208.1,-0.6 207,0.3 205.9,1.1 204.5,2.1 203.3,2.9 202.1,3.7 201,4.4 200,5.1 199.3,5.6 198.6,6.1 197.5,7 196.7,7.6 195.8,8.2 194.9,8.9 193.7,9.7 192.8,10.3 191.6,11.2 190.4,12 189.2,12.8 187.9,13.8 186.7,14.7 185.8,15.3 184.5,16.2 183.1,17.2 182,18 180.9,18.8 179.8,19.6 179.1,20.2 178,21 176.9,21.8 175.7,22.6 174.5,23.4 173,24.4 171.9,25.2 170.8,26 169.8,26.7 168.8,27.5 167.8,28.3 166.8,29.1 165.7,29.9 164.6,30.7 163.5,31.5 162.7,32.1 161.5,32.9 160.5,33.5 159.5,34.2 158.2,35.1 156.8,36.1 155.9,36.7 155,37.4 153.8,38.3 152.8,39.1 151.9,39.7 151,40.4 149.6,41.4 148.5,42.2 147.5,42.8 146.5,43.5 145.2,44.4 144.4,44.9 143.6,45.4 142.4,46.3 141.2,47.2 140.3,47.8 139.4,48.5 138.1,49.5 137.1,50.3 136.1,51 135.1,51.8 134.1,52.6 133.1,53.3 132.2,53.9 131.3,54.6 130.5,55.3 129.7,55.9 129,56.5 128.3,57.1 127.6,57.6 126.4,58.4 125.2,59.3 124.3,59.9 123.4,60.5 122.2,61.4 121.4,61.9 120.7,62.4 120,62.9 119.1,63.5 118.5,63.8 117.7,64.3 116.8,64.7 116,65.2 115.2,65.6 114.2,66.1 113.4,66.4 112.6,66.8 111.4,67.1 110.3,67.3 109.3,67.4 108.2,67.5 107,67.5 105.9,67.4 104.9,67.3 104,67.2 103.2,67.1 102.2,66.9 101.5,66.7 100.8,66.5 100.1,66.3 99.4,66 98.7,65.6 97.7,65.2 96.7,64.8 95.8,64.3 94.7,63.8 93.9,63.4 93.3,63.1 92.7,62.8 92.1,62.5 91.4,62.1 90.5,61.6 89.5,60.9 88.5,60.2 87.5,59.5 86.8,59 86.3,58.6 86,58.3 85.7,58 85.2,57.4 84.5,56.5 83.9,55.6 83.2,54.6 82.6,53.5 82,52.4 81.7,51.4 81.4,50.4 81.2,49.5 80.9,48.3 80.8,47.3 80.7,46.3 80.6,45.2 80.5,44 80.5,43 80.6,41.8 80.7,40.7 80.8,39.7 80.9,38.8 81,38 81.1,37 81.2,35.9 81.3,34.7 81.5,33.4 81.7,32.1 81.8,31.3 81.9,30.6 82,30 82.1,29 82.2,28 82.4,26.8 82.6,25.4 82.8,24 82.9,23.1 83,22.2 83.1,21 83.3,19.8 83.5,18.4 83.7,17 83.9,15.6 84,14.6 84.2,13.3 84.4,12.1 84.6,10.6 84.8,9.1 85,7.7 85,6.7 85.2,5.3 85.4,3.9 85.6,2.5 85.8,1 86,-0.4 86.2,-1.8 86.4,-3.1 86.6,-4.6 86.8,-6.1 87,-7.6 87.2,-9.2 87.4,-10.8 87.6,-12.2 87.8,-13.6 88.2,-15.5 88.4,-17.1 88.6,-18.5 88.8,-20 89.1,-21.9 89.3,-23.5 89.5,-25 89.7,-26.6 89.9,-28.1 90.2,-29.8 90.4,-31.6 90.6,-33.2 90.8,-34.8 91.2,-37 91.4,-38.5 91.6,-40 91.8,-41.6 92.2,-43.6 92.4,-45.2 92.6,-47.1 92.8,-48.8 93.1,-50.5 93.3,-52.1 93.5,-53.8 93.7,-55.5 94,-57.2 94.3,-59.3 94.5,-61.3 94.7,-63.1 95,-64.9 95.2,-66.7 95.4,-68.5 95.6,-70.2 95.9,-71.9 96.1,-73.4 96.4,-75.5 96.6,-77.5 96.9,-79.4 97.1,-81.2 97.3,-83 97.5,-84.8 97.7,-86.3 97.9,-87.8 98.2,-89.9 98.5,-92.1 98.7,-93.9 99,-95.7 99.2,-97.5 99.4,-99.2 99.6,-101 99.9,-102.6 100.1,-104.2 100.4,-106.3 100.6,-108.1 100.9,-109.7 101.1,-111.3 101.4,-113.4 101.6,-115.1 101.9,-116.7 102.1,-118.3 102.4,-120.4 102.6,-122.1 102.8,-123.7 103,-125.3 103.3,-127.3 103.5,-129.1 103.7,-130.8 104,-132.4 104.2,-134 104.4,-135.9 104.6,-137.4 104.8,-138.9 105,-140.5 105.3,-142.5 105.5,-144 105.7,-145.6 106,-147.1 106.3,-149.1 106.5,-151 106.7,-152.6 106.9,-154.2 107.1,-155.8 107.3,-157.3 107.5,-158.7 107.7,-160.2 107.9,-161.7 108.1,-163.2 108.3,-165 108.5,-166.5 108.7,-168.2 108.9,-169.8 109.1,-171.5 109.2,-172.4 109.4,-173.9 109.6,-175.3 109.9,-176.8 110.1,-178.2 110.4,-180.2 110.6,-181.6 110.8,-183.1 111,-184.5 111.2,-186 111.4,-187.4 111.6,-189.1 111.8,-190.5 112,-191.9 112.2,-193.3 112.4,-194.6 112.6,-196 112.8,-197.4 112.9,-199.1 113.1,-200.7 113.2,-201.9 113.4,-203.2 113.6,-204.7 113.8,-205.9 114,-207.2 114.2,-208.5 114.4,-209.9 114.6,-211.3 114.8,-212.7 115,-214.3 115.2,-215.9 115.3,-216.9 115.5,-218.2 115.7,-219.7 115.8,-220.9 116,-222.2 116.2,-223.5 116.4,-224.7 116.6,-225.9 116.8,-227.4 117,-228.8 117.2,-230.2 117.3,-231.3 117.5,-232.7 117.7,-233.8 117.8,-235.1 118,-236.5 118.2,-237.8 118.3,-238.6 118.5,-239.9 118.7,-241.3 118.8,-242.7 119,-244.1 119.2,-245.5 119.3,-246.5 119.5,-247.7 119.7,-248.8 119.8,-250.1 119.9,-251.5 120.1,-253.1 120.2,-254.2 120.3,-255.3 120.4,-256.2 120.5,-257 120.6,-258 120.7,-259.1 120.8,-260.5 120.9,-262 121,-263.6 121,-264.8 120.9,-266.4 120.8,-267.7 120.6,-268.9 120.4,-270 120.1,-271.4 119.9,-272.3 119.6,-273.2 119.4,-274.1 119.1,-275.4 118.7,-276.5 118.3,-277.6 117.8,-278.9 117,-280.6 116.2,-281.9 115.6,-283 114.8,-284.3 114.2,-285.4 113.6,-286.3 112.9,-287.3 112.1,-288.4 111.4,-289.2 110.2,-290.3 109.3,-291.2 108.5,-291.9 107.7,-292.5 106.9,-293.1 106.1,-293.7 104.9,-294.5 103.5,-295.4 102.1,-296.3 100.5,-297.3 99.3,-298 98.4,-298.5 97.4,-299.1 96.4,-299.7 95.4,-300.3 94.4,-300.9 93.2,-301.6 92.3,-302.1 91,-302.8 89.9,-303.4 88.8,-304 87.5,-304.7 86.2,-305.4 85.3,-305.9 84.4,-306.5 83.1,-307.2 82,-307.8 80.9,-308.5 79.8,-309.1 78.4,-309.9 77.4,-310.6 76.3,-311.2 75.2,-311.8 74.1,-312.5 72.8,-313.2 71.5,-313.9 70.5,-314.6 69.4,-315.3 68.3,-315.9 67.3,-316.6 66.3,-317.3 65.3,-318 64.4,-318.6 63,-319.6 62,-320.3 61,-321 59.6,-322 58.2,-323 57.3,-323.7 56.4,-324.4 55.1,-325.4 54.2,-326.1 53.2,-326.9 52.1,-327.7 51,-328.5 50.1,-329.2 49.1,-330 47.8,-331.1 46.6,-332.2 45.4,-333.3 44.4,-334.2 43.5,-335 43,-335.5 42,-336.5 41,-337.5 40,-338.5 39,-339.5 38,-340.5 37.3,-341.3 36.7,-342.1 36.1,-342.9 35.2,-344.1 34.3,-345.4 33.6,-346.4 32.6,-347.7 31.6,-349 30.7,-350.3 29.9,-351.5 29.1,-352.7 28.3,-353.9 27.5,-355.2 26.7,-356.4 25.9,-357.6 25.1,-358.8 24.4,-360 23.6,-361.4 23,-362.5 22.3,-363.7 21.7,-364.9 21.1,-366.2 20.6,-367.4 20.1,-368.6 19.7,-369.8 19.1,-371.3 18.6,-372.6 18.1,-373.8 17.7,-375 17.1,-376.5 16.7,-377.7 16.3,-378.7 15.8,-380.3 15.2,-381.9 14.8,-383.1 14.2,-384.8 13.6,-386.5 13.2,-387.5 12.6,-389.1 11.9,-390.7 11.4,-391.8 10.9,-393 10.3,-394.5 9.7,-395.7 9.2,-396.9 8.6,-398.2 8,-399.4 7.4,-400.6 6.8,-401.8 6.1,-403.1 5.1,-404.7 4.2,-406.3 3.3,-407.6 2.6,-408.6 1.6,-409.9 0.9,-410.8 0.1,-411.8 -1,-413.2 -2,-414.6 -2.8,-415.7 -3.6,-416.8 -4.4,-417.8 -5.4,-418.9 -6.5,-420 -7.5,-421 -8.8,-422.2 -10.1,-423.3 -10.9,-423.9 -12,-424.8 -13.1,-425.7 -14,-426.5 -15.3,-427.7 -16.6,-428.9 -17.7,-429.7 -19.3,-430.8 -20.8,-431.8 -22.1,-432.6 -23.4,-433.3 -24.7,-434.1 -26.1,-434.9 -27.5,-435.6 -28.8,-436.2 -30.1,-436.8 -31.7,-437.6 -32.7,-438.1 -34.1,-438.7 -35.4,-439.3 -37,-440 -38.5,-440.6 -40,-441.1 -41.7,-441.6 -43.4,-442.1 -44.8,-442.5 -46,-442.7 -47.5,-443.1 -48.5,-443.4 -50,-443.7 -51.7,-444.1 -53.3,-444.5 -54.6,-444.7 -56.4,-445 -57.7,-445.2 -59.1,-445.4 -60.5,-445.6 -62,-445.8 -63.4,-446 -65,-446.3 -66.3,-446.5 -67.7,-446.7 -69.5,-447 -71.1,-447.2 -72.5,-447.4 -74.3,-447.6 -76,-447.8 -77.3,-447.9 -78.3,-448 -79.9,-448.2 -81.3,-448.4 -82.8,-448.6 -84.3,-448.8 -86.3,-449.2 -88,-449.4 -89.6,-449.6 -91.2,-449.8 -92.7,-450.1 -94.3,-450.3 -95.9,-450.5 -97.4,-450.7 -98.9,-450.9 -100.4,-451.1 -101.9,-451.3 -103.4,-451.5 -104.9,-451.7 -106.4,-451.9 -108.6,-452.2 -110.2,-452.4 -111.6,-452.6 -113,-452.8 -115.2,-453.2 -116.7,-453.4 -118.4,-453.6 -120.1,-453.8 -121.9,-454 -123.3,-454.2 -124.9,-454.4 -126.3,-454.6 -127.7,-454.8 -129.7,-455.2 -131.3,-455.4 -132.8,-455.6 -134.3,-455.8 -136.3,-456.1 -137.9,-456.3 -139.4,-456.5 -140.9,-456.7 -142.4,-456.9 -143.9,-457.2 -145.2,-457.4 -146.5,-457.6 -148.4,-457.9 -150.3,-458.3 -151.7,-458.5 -153.6,-458.8 -155.5,-459.2 -156.8,-459.5 -158.1,-459.7 -159.9,-460 -161.1,-460.3 -162.4,-460.5 -164.1,-460.8 -165.9,-461.2 -167.1,-461.5 -168.8,-461.8 -170.4,-462.2 -171.6,-462.5 -173,-462.8 -174.4,-463.2 -175.7,-463.6 -177,-464 -178.6,-464.5 -179.9,-465 -181.2,-465.4 -182.2,-465.8 -183.2,-466.1 -184.2,-466.6 -185.3,-467.1 -186.4,-467.6 -187.8,-468.3 -189.2,-469.1 -190.3,-469.6 -191.3,-470.1 -192.7,-471 -193.7,-471.6 -194.9,-472.3 -196,-473.1 -197.1,-473.9 -198,-474.5 -198.9,-475.1 -199.7,-475.7 -200.6,-476.4 -201.6,-477.2 -202.8,-478.2 -204,-479.3 -205.1,-480.3 -206.2,-481.3 -207.3,-482.3 -208.1,-483.1 -208.8,-483.9 -209.5,-484.7 -210.3,-485.8 -211,-486.8 -211.6,-487.7 -212.6,-489 -213.6,-490.3 -214.3,-491.2 -215,-492.1 -216,-493.5 -216.7,-494.5 -217.3,-495.5 -218,-496.5 -219,-498.1 -219.6,-499.2 -220.2,-500.3 -220.9,-501.5 -221.5,-502.7 -221.9,-503.6 -222.5,-505 -223.1,-506.4 -223.6,-507.7 -224.2,-509.1 -224.7,-510.5 -225.1,-511.4 -225.4,-512.4 -225.8,-513.8 -226.2,-515.2 -226.6,-516.6 -226.9,-518 -227.3,-519.4 -227.6,-520.4 -228,-521.8 -228.3,-523 -228.6,-524.2 -229,-525.7 -229.4,-527.3 -229.7,-528.7 -230.1,-530.1 -230.5,-531.5 -230.9,-532.9 -231.3,-534.3 -231.7,-535.7 -232.1,-537 -232.6,-538.7 -233,-540 -233.4,-541.2 -234,-542.6 -234.5,-544.1 -235,-545.2 -235.4,-546.3 -236.2,-548 -236.8,-549.2 -237.4,-550.4 -238,-551.6 -238.9,-553.2 -239.5,-554.2 -240.2,-555.5 -241.1,-556.8 -242,-558.1 -242.7,-559 -243.7,-560.3 -244.6,-561.3 -245.6,-562.4 -246.7,-563.6 -247.7,-564.8 -249,-566 -250.3,-567.2 -251.5,-568.2 -252.6,-569 -254.1,-570 -255,-570.6 -256.3,-571.4 -257.5,-572.1 -258.7,-572.9 -259.6,-573.5 -260.8,-574.2 -261.9,-574.8 -263,-575.5 -264.3,-576.2 -265.6,-576.9 -266.6,-577.5 -267.8,-578.1 -269,-578.7 -270,-579.2 -271.5,-579.9 -273,-580.6 -274.2,-581.2 -275.4,-581.8 -276.9,-582.6 -278.1,-583.2 -279.4,-583.8 -280.9,-584.6 -282.4,-585.3 -283.9,-586 -285.2,-586.7 -286.4,-587.4 -287.9,-588.1 -289.4,-588.9 -290.7,-589.6 -292,-590.2 -293.6,-591 -294.6,-591.6 -295.9,-592.4 -297.4,-593.2 -299.2,-594.2 -300.8,-595 -302.3,-595.8 -303.8,-596.5 -305,-597.1 -306.3,-597.8 -307.7,-598.6 -309.2,-599.4 -310.7,-600.3 -312.5,-601.3 -313.9,-602.1 -315.2,-602.8 -317.1,-603.8 -318.8,-604.6 -320.2,-605.3 -321.9,-606.1 -323.5,-606.9 -324.8,-607.6 -326.3,-608.4 -327.8,-609.2 -329.3,-610 -331,-610.9 -332.6,-611.7 -334,-612.4 -335.7,-613.4 -337.4,-614.3 -338.9,-615.1 -340.4,-615.9 -342.1,-616.8 -343.7,-617.6 -345.3,-618.5 -347,-619.4 -348.4,-620.1 -350.1,-621 -351.9,-621.9 -353.4,-622.7 -355.1,-623.6 -357.1,-624.7 -358.7,-625.6 -360.3,-626.5 -362.2,-627.5 -363.8,-628.3 -365.4,-629.1 -366.9,-629.8 -368.7,-630.7 -370.2,-631.5 -372.4,-632.6 -374.4,-633.6 -376.3,-634.6 -377.9,-635.3 -379.6,-636 -381,-636.7 -382.5,-637.5 -384.3,-638.4 -386.1,-639.4 -388.2,-640.4 -390,-641.2 -391.8,-642 -393.6,-642.8 -395.5,-643.6 -397.1,-644.3 -398.8,-645.1 -400.6,-645.9 -402.5,-646.6 -404.1,-647.2 -406.3,-648.1 -408.3,-648.8 -410.1,-649.4 -411.6,-650 -413.6,-650.7 -415.3,-651.3 -417,-651.9 -419.1,-652.6 -421.2,-653.3 -423.1,-653.9 -424.7,-654.4 -426.7,-655 -428.3,-655.5 -430.2,-656 -431.8,-656.5 -433.8,-657 -435.4,-657.4 -437.3,-657.9 -438.9,-658.3 -441.1,-658.8 -442.9,-659.2 -444.7,-659.6 -446.7,-660 -448.7,-660.4 -450.1,-660.6 -451.9,-661 -453.8,-661.4 -455.2,-661.6 -457.2,-661.9 -459.1,-662.3 -460.6,-662.5 -462.6,-662.8 -464.5,-663.2 -465.8,-663.5 -467.6,-663.8 -469.5,-664.1 -471.1,-664.4 -472.8,-664.6 -474.4,-664.8 -476,-665 -477.7,-665.3 -479.1,-665.5 -480.5,-665.7 -482.5,-666 -484.2,-666.3 -485.7,-666.5 -487.3,-666.7 -489.2,-667 -490.8,-667.3 -492.2,-667.5 -493.6,-667.7 -495.6,-668 -497.2,-668.3 -498.8,-668.5 -500.5,-668.7 -502.1,-668.9 -503.7,-669.2 -505.4,-669.4 -506.8,-669.6 -508.6,-669.9 -510.6,-670.3 -512.2,-670.5 -513.8,-670.7 -515.4,-670.9 -517,-671.1 -518.7,-671.3 -520.1,-671.5 -521.5,-671.7 -523.5,-672 -525.2,-672.3 -526.7,-672.5 -528.3,-672.7 -530.2,-673 -531.8,-673.3 -533.5,-673.5 -535.1,-673.7 -536.7,-673.9 -538.5,-674.2 -540.1,-674.4 -541.4,-674.6 -543.4,-674.9 -545.6,-675.3 -547.2,-675.5 -548.8,-675.7 -551,-676 -552.8,-676.3" style="stroke: rgb(59, 130, 246); stroke-width: 7;"></polyline><polyline vector-effect="non-scaling-stroke" fill="none" points="-554.3,-676.5 -555.9,-676.7 -558,-677 -559.8,-677.3 -561.4,-677.5 -563,-677.7 -565.1,-678 -566.9,-678.3 -568.5,-678.5 -570.1,-678.7 -572.2,-679 -574,-679.3 -575.6,-679.5 -577.2,-679.7 -579.4,-680 -581.2,-680.3 -582.7,-680.5 -584.7,-680.8 -586.9,-681.1 -588.5,-681.4 -590.1,-681.6 -592.3,-681.9 -594.2,-682.1 -595.9,-682.4 -597.5,-682.6 -599.6,-682.9 -601.4,-683.2 -603,-683.5 -605.1,-683.8 -607.5,-684.1 -609.4,-684.4 -611.1,-684.6 -613.4,-684.9 -615.2,-685.2 -616.8,-685.5 -619,-685.8 -621.3,-686.1 -623,-686.4 -625.1,-686.7 -627.3,-687 -628.9,-687.3 -630.4,-687.6 -632.4,-687.9 -634.2,-688.1 -636.1,-688.4 -638,-688.6 -640.3,-688.9 -642.3,-689.2 -644.1,-689.5 -646.2,-689.8 -648.5,-690.1 -650.4,-690.4 -652.1,-690.6 -654.3,-690.9 -656.2,-691.2 -657.9,-691.5 -660.1,-691.8 -662.5,-692.1 -664.4,-692.4 -666.1,-692.6 -668.3,-692.9 -670,-693.2 -672,-693.6 -674.3,-693.9 -676.6,-694.2 -678.4,-694.5 -680.7,-694.8 -682.8,-695 -684.6,-695.3 -686.4,-695.6 -688.7,-695.9 -690.4,-696.2 -691.8,-696.5 -693.8,-696.8 -695.8,-697.1 -697.5,-697.4 -699.3,-697.6 -701.7,-697.9 -703.5,-698.2 -705.3,-698.5 -707.4,-698.8 -709.5,-699.1 -711,-699.4 -713.1,-699.7 -715.1,-700 -716.9,-700.3 -718.7,-700.6 -720.5,-700.8 -722.3,-701 -724.2,-701.3 -725.8,-701.5 -728,-701.8 -730.1,-702.1 -731.6,-702.4 -733.7,-702.7 -735.8,-703 -737.6,-703.3 -739.5,-703.6 -741.3,-703.8 -743,-704 -745,-704.3 -746.7,-704.5 -748.3,-704.7 -750,-704.9 -751.7,-705.2 -753.1,-705.4 -754.4,-705.6 -756.4,-705.9 -758.6,-706.3 -760.3,-706.5 -761.9,-706.7 -764,-707 -765.7,-707.2 -767.1,-707.4 -768.5,-707.6 -770.3,-707.9 -772,-708.1 -773.5,-708.4 -775,-708.6 -777,-708.9 -778.7,-709.1 -780.3,-709.3 -781.8,-709.5 -783.3,-709.7 -784.3,-709.8 -785.7,-710 -786.9,-710.3 -788.1,-710.5 -789.3,-710.7 -791.1,-711 -792.4,-711.2 -793.6,-711.4 -794.8,-711.6 -796,-711.8 -796.8,-712 -797.6,-712.3 -798.5,-712.5 -799.4,-712.7 -800.9,-713.2 -802.1,-713.7 -803.3,-714.1 -804.4,-714.6 -805.5,-715.1 -806.3,-715.6 -807.1,-716 -807.9,-716.5 -808.7,-716.9 -809.4,-717.4 -809.8,-717.6 -810.3,-718 -810.8,-718.5 -811.3,-719 -812,-719.6 -812.6,-720.3 -813.2,-721 -813.8,-721.8 -814.3,-722.7 -814.8,-723.7 -815.4,-724.8 -815.8,-725.8 -816.1,-726.6 -816.5,-727.7 -816.7,-728.6 -816.8,-729.4 -816.9,-730.2 -817.1,-731.4 -817.3,-732.3 -817.5,-733.2 -817.7,-734.1 -817.9,-735 -818,-735.6 -818,-736.3 -818,-737.1 -818,-738 -818,-739 -818,-740 -818,-741 -818,-742.2 -818.1,-743.4 -818.2,-744.6 -818.3,-745.8 -818.4,-747.2 -818.6,-748.8 -818.7,-750.3 -818.8,-751.7 -818.9,-753.1 -819,-754.3 -819,-755.3 -819.1,-756.4 -819.2,-757.6 -819.3,-759 -819.4,-760.4 -819.5,-761.6 -819.6,-763.3 -819.7,-764.9 -819.8,-766.2 -819.9,-767.6 -820.1,-769 -820.2,-769.8 -820.3,-771 -820.4,-772.3 -820.5,-773.4 -820.6,-775.1 -820.7,-776.8 -820.8,-778.2 -821,-779.6 -821.2,-781 -821.3,-782.1 -821.4,-783.2 -821.5,-784.4 -821.5,-785.6 -821.6,-787.5 -821.7,-789 -821.9,-790.6 -822.1,-792.2 -822.3,-793.8 -822.4,-795 -822.5,-796.2 -822.5,-797.5 -822.5,-798.7 -822.6,-800.5 -822.7,-802 -822.9,-803.5 -823.1,-804.8 -823.3,-806.2 -823.4,-806.9 -823.5,-807.8 -823.5,-808.7 -823.5,-809.9 -823.6,-811.1 -823.7,-812.3 -823.9,-813.9 -824.1,-815.5 -824.3,-816.9 -824.4,-818.1 -824.5,-819.4 -824.6,-820.1 -824.7,-821 -824.8,-822.1 -824.9,-823.2 -825.1,-824.8 -825.2,-826.4 -825.4,-827.8 -825.6,-828.9 -825.8,-830.1 -825.9,-830.9 -826,-831.8 -826,-832.7 -826.1,-833.8 -826.2,-834.8 -826.4,-836.5 -826.6,-838.1 -826.8,-839.7 -826.9,-841.1 -827,-842.5 -827.1,-843 -827.2,-843.6 -827.3,-844.2 -827.4,-845 -827.5,-846.1 -827.5,-847.2 -827.5,-848.4 -827.5,-849.7 -827.7,-851.4 -827.9,-852.8 -828.1,-854.2 -828.3,-855.4 -828.5,-856.5 -828.5,-857 -828.5,-857.6 -828.6,-858.2 -828.7,-859 -828.8,-859.8 -828.9,-860.8 -829.1,-862.3 -829.2,-863.8 -829.3,-865.1 -829.4,-866.4 -829.6,-867.5 -829.7,-868 -829.8,-868.6 -829.9,-869.2 -830,-870 -830,-870.9 -830,-871.9 -830.2,-873.6 -830.4,-875.3 -830.6,-876.8 -830.8,-878.2 -831,-879.6 -831.1,-880.8 -831.3,-882.1 -831.8,-884.2 -832.4,-886.5 -833.1,-888.6 -833.9,-890.5 -834.7,-892.2 -836.7,-894.1 -838.6,-895.8 -840.6,-897.5 -842.9,-898.9 -847.6,-899.8 -851,-899.5 -855.2,-898.3 -859.6,-896.4 -864,-893.7 -865.9,-891.3 -867.9,-888.7 -869.2,-886.6 -870.4,-884.9 -871.2,-883.5 -872.1,-882.3 -872.7,-881.3 -873.3,-880.6 -873.8,-879.9 -874.2,-879.4 -874.6,-878.9 -875.1,-878.3 -875.6,-877.7 -876,-877.2 -876.7,-876.5 -877.6,-875.6 -878.4,-874.8 -879.3,-873.8 -880.2,-873 -880.8,-872.4 -881.4,-871.9 -882.4,-871.2 -883.3,-870.7 -884.1,-870.1 -885,-869.6 -885.7,-869.1 -886.1,-868.9 -886.5,-868.7 -886.9,-868.5 -887.6,-868.2 -888.3,-868 -889,-867.7 -890,-867.3 -891.1,-867 -891.9,-866.8 -892.7,-866.6 -893.4,-866.4 -893.8,-866.3 -894.2,-866.2 -894.7,-866.1 -895.3,-866 -896.1,-866 -897,-866 -898,-866 -899,-866 -900,-866 -901,-866 -902,-866 -902.9,-866 -903.7,-866.1 -904.5,-866.2 -905.5,-866.5 -906.4,-866.8 -907.3,-867.1 -908.5,-867.5 -909.6,-867.9 -910.5,-868.2 -911.6,-868.7 -912.7,-869.2 -913.7,-869.7 -914.8,-870.3 -915.8,-870.8 -916.9,-871.4 -918,-872 -918.9,-872.4 -919.6,-872.8 -920.7,-873.4 -921.5,-873.8 -922.3,-874.2 -923.3,-874.7 -924.3,-875.2 -924.9,-875.5 -926,-876 -927.1,-876.5 -928,-876.9 -929.4,-877.3 -930.7,-877.8 -931.5,-878 -932.3,-878.2 -933.1,-878.5 -933.8,-878.8 -934.6,-879 -936,-879.4 -937.5,-879.8 -939,-880.1 -940.2,-880.3 -941.4,-880.5 -942,-880.5 -943,-880.7 -944.1,-880.9 -945.4,-881.1 -946.7,-881.3 -948,-881.5 -948.8,-881.5 -950,-881.7 -951.1,-881.9 -952.3,-882.1 -953.6,-882.3 -955,-882.5 -956,-882.5 -957,-882.5 -958,-882.5 -958.9,-882.6 -959.7,-882.7 -960.9,-882.9 -962.1,-883.1 -963.3,-883.3 -964.6,-883.4 -966,-883.5 -967,-883.5 -967.9,-883.5 -968.7,-883.5 -969.4,-883.6 -970,-883.7 -971,-883.9 -972.1,-884.1 -973.3,-884.3 -974.6,-884.4 -976,-884.5 -977,-884.5 -977.8,-884.6 -978.5,-884.7 -979.1,-884.8 -979.6,-884.9 -980,-885 -981,-885.1 -982.1,-885.2 -983.3,-885.3 -984.6,-885.5 -985.9,-885.7 -986.7,-885.8 -987.5,-885.9 -988.7,-886.1 -989.9,-886.2 -991.2,-886.4 -992.6,-886.6 -994,-886.8 -995,-886.9 -995.9,-887 -996.7,-887.1 -997.9,-887.3 -999,-887.5 -1000.1,-887.8 -1001.2,-888.1 -1002.6,-888.4 -1003.5,-888.6 -1004.3,-888.9 -1005,-889.1 -1005.7,-889.3 -1006.4,-889.6 -1007.1,-890 -1007.9,-890.3 -1008.9,-890.9 -1009.9,-891.5 -1010.6,-891.9 -1011.2,-892.3 -1011.8,-892.7 -1012.1,-892.9 -1012.4,-893.1 -1013,-893.7 -1013.7,-894.4 -1014.4,-895.1 -1015.1,-895.8 -1015.8,-896.5 -1016.1,-896.9 -1016.3,-897.2 -1016.5,-897.5 -1016.8,-898 -1017.2,-898.9 -1017.7,-899.8 -1018.2,-900.8 -1018.6,-901.9 -1019,-903 -1019.2,-903.9 -1019.3,-905.1 -1019.4,-906.3 -1019.5,-907.6 -1019.5,-909 -1019.5,-910.4 -1019.5,-911.6 -1019.5,-912.8 -1019.5,-913.9 -1019.4,-914.6 -1019.3,-915.2 -1019.2,-915.7 -1019.1,-916.1 -1018.9,-916.9 -1018.7,-917.8 -1018.5,-918.8 -1018.2,-920.1 -1017.8,-921.4 -1017.5,-922.3 -1017.2,-923.5 -1016.8,-924.6 -1016.5,-925.4 -1016.2,-926.6 -1015.8,-927.8 -1015.5,-928.7 -1015.3,-929.6 -1015,-930.5 -1014.7,-931.2 -1014.4,-932.2 -1014,-933.2 -1013.6,-934.2 -1013.2,-935.5 -1012.8,-936.6 -1012.5,-937.4 -1012.2,-938.2 -1011.8,-939.2 -1011.3,-940.2 -1010.9,-941.2 -1010.4,-942.2 -1010,-943.2 -1009.6,-944 -1009.4,-944.5 -1008.8,-945.6 -1008.3,-946.7 -1007.7,-947.8 -1007.2,-948.9 -1006.5,-950.2 -1006.2,-950.9 -1005.8,-951.6 -1005.5,-952.3 -1004.9,-953.3 -1004.4,-954.1 -1003.7,-955.3 -1003,-956.5 -1002.2,-957.7 -1001.7,-958.6 -1001.2,-959.5 -1000.5,-960.4 -999.9,-961.3 -999.3,-962.2 -998.4,-963.4 -997.6,-964.6 -997.1,-965.4 -996.5,-966.2 -995.6,-967.4 -994.9,-968.3 -994.2,-969.2 -993.5,-970.1 -992.7,-971.2 -992.1,-972 -991.4,-972.9 -990.4,-974.2 -989.4,-975.5 -988.5,-976.6 -987.7,-977.6 -986.9,-978.6 -986.2,-979.3 -985.4,-980.1 -984.5,-981 -983.5,-982 -982.5,-983 -981.6,-984 -980.7,-985 -979.9,-985.8 -979.1,-986.6 -978.3,-987.4 -977.4,-988.2 -976.6,-988.9 -975.8,-989.7 -974.6,-990.7 -973.4,-991.7 -972.2,-992.7 -970.9,-993.8 -969.5,-995 -968.6,-995.9 -967.8,-996.6 -967.1,-997.2 -966,-998 -964.9,-998.8 -963.7,-999.6 -962.5,-1000.5 -961.3,-1001.3 -960.1,-1002.1 -959,-1002.8 -958,-1003.5 -956.9,-1004.2 -955.8,-1004.9 -954.8,-1005.5 -953.8,-1006.1 -952.8,-1006.7 -951.4,-1007.4 -950,-1008.2 -949,-1008.8 -947.6,-1009.4 -946,-1010.1 -944.9,-1010.7 -943.6,-1011.3 -942,-1012 -940.8,-1012.6 -939.8,-1013.1 -938.4,-1013.6 -937.2,-1014.1 -936.3,-1014.4 -935,-1014.9 -933.7,-1015.3 -932.3,-1015.8 -930.9,-1016.2 -929.5,-1016.7 -928.1,-1017.1 -926.7,-1017.5 -925.3,-1017.9 -923.9,-1018.3 -922.5,-1018.7 -921,-1019.1 -919.5,-1019.5 -918.4,-1019.8 -917.3,-1020.1 -916.2,-1020.3 -914.9,-1020.5 -913.6,-1020.8 -912.3,-1021 -911,-1021.2 -909.4,-1021.4 -908.5,-1021.5 -906.7,-1021.7 -905,-1021.9 -903.3,-1022.1 -901.8,-1022.3 -900.3,-1022.5 -899.5,-1022.5 -898.5,-1022.5 -897.2,-1022.5 -896,-1022.5 -894.6,-1022.5 -893.2,-1022.5 -891.8,-1022.5 -890.5,-1022.5 -889,-1022.5 -887.6,-1022.5 -886.3,-1022.5 -885.2,-1022.5 -884.2,-1022.5 -882.8,-1022.3 -881.4,-1022.1 -879.9,-1021.9 -878.2,-1021.7 -876.4,-1021.5 -875.2,-1021.5 -874.1,-1021.5 -873.1,-1021.4 -871.7,-1021.2 -870.3,-1021 -868.9,-1020.8 -867.4,-1020.6 -866,-1020.4 -864.6,-1020.2 -863.2,-1020 -861.8,-1019.8 -860.4,-1019.6 -859,-1019.4 -857.5,-1019.2 -856.2,-1019 -854.8,-1018.8 -853.5,-1018.6 -851.7,-1018.3 -850.3,-1018.1 -848.9,-1017.9 -847.5,-1017.7 -846.1,-1017.5 -844.4,-1017.3 -843,-1017.1 -841.5,-1016.9 -840.1,-1016.7 -838.1,-1016.3 -836.9,-1016.1 -835.6,-1015.9 -834.4,-1015.7 -832.6,-1015.4 -831.2,-1015.2 -829.8,-1015 -828.4,-1014.8 -827,-1014.6 -825.4,-1014.4 -824,-1014.2 -822.5,-1014 -821.1,-1013.8 -819,-1013.5 -817.6,-1013.3 -816.1,-1013.1 -814.7,-1012.9 -813.3,-1012.7 -812,-1012.5 -810.6,-1012.3 -809.2,-1012.1 -807.8,-1011.9 -806.8,-1011.8 -806.2,-1011.7" style="stroke: rgb(251, 191, 36); stroke-width: 7;"></polyline></svg>