<svg xmlns="http://www.w3.org/2000/svg" xmlns:xlink="http://www.w3.org/1999/xlink" preserveAspectRatio="xMidYMid meet" height="100%" viewBox="-1050 -1100 1650 1250">
    <polygon vector-effect="non-scaling-stroke" fill="none" style="stroke: #374151; stroke-width:6" points="  -802,-1017 -794,-1016 -787,-1015 -779,-1013 -772,-1012 -763,-1011 -756,-1010 -748,-1009 -740,-1007 -732,-1006 -725,-1005 -716,-1004 -709,-1003 -700,-1001 -692,-1000 -684,-999 -676,-998 -667,-997 -659,-995 -651,-994 -643,-993 -634,-992 -626,-991 -617,-989 -609,-988 -601,-987 -592,-986 -584,-985 -576,-984 -568,-983 -559,-981 -550,-980 -541,-979 -532,-977 -524,-976 -515,-975 -506,-974 -498,-973 -489,-971 -480,-970 -472,-969 -462,-968 -453,-966 -445,-965 -436,-964 -427,-962 -417,-961 -408,-960 -399,-959 -390,-957 -381,-956 -371,-955 -363,-953 -353,-952 -344,-951 -335,-950 -326,-948 -317,-947 -307,-946 -298,-944 -289,-943 -280,-942 -270,-940 -261,-939 -252,-938 -243,-937 -234,-936 -225,-935 -215,-934 -206,-933 -196,-932 -186,-931 -177,-930 -168,-929 -158,-929 -149,-928 -140,-927 -131,-926 -121,-925 -111,-924 -101,-923 -92,-922 -82,-921 -73,-920 -63,-919 -54,-917 -44,-916 -34,-915 -25,-914 -16,-913 -6,-912 4,-911 14,-909 23,-908 32,-907 41,-906 50,-905 60,-903 70,-902 80,-901 89,-900 98,-898 108,-897 118,-896 127,-894 137,-893 147,-891 156,-890 165,-889 174,-888 184,-886 194,-885 204,-883 214,-882 224,-881 234,-879 244,-878 253,-877 263,-875 272,-874 281,-873 290,-871 300,-870 309,-869 319,-867 328,-866 338,-864 347,-863 357,-862 366,-860 374,-859 382,-858 390,-857 397,-856 404,-854 409,-853 415,-852 420,-850 425,-849 430,-848 434,-846 438,-844 442,-842 445,-839 450,-835 453,-833 457,-828 459,-825 461,-822 462,-819 464,-816 465,-812 466,-807 466,-802 467,-798 467,-794 466,-790 466,-786 465,-782 464,-778 463,-774 463,-770 462,-765 462,-762 463,-755 464,-750 466,-745 467,-742 469,-740 470,-738 472,-736 476,-733 479,-730 484,-727 488,-724 491,-721 495,-717 498,-713 500,-711 501,-708 503,-705 505,-702 506,-698 507,-693 508,-687 509,-684 509,-678 509,-674 509,-670 508,-666 508,-662 507,-657 506,-653 505,-648 503,-643 502,-638 500,-634 498,-628 496,-624 494,-618 492,-613 489,-608 487,-602 484,-597 482,-592 479,-586 476,-580 473,-575 470,-569 467,-563 464,-557 460,-551 456,-545 453,-539 449,-533 445,-526 442,-520 438,-514 434,-508 430,-501 426,-494 423,-488 419,-482 415,-475 411,-469 407,-462 403,-456 398,-449 394,-442 390,-436 386,-429 382,-422 378,-416 373,-409 369,-402 365,-395 360,-388 356,-381 352,-374 347,-367 343,-360 338,-353 334,-345 329,-338 324,-331 320,-324 315,-317 311,-309 306,-302 301,-294 296,-286 291,-278 287,-271 282,-263 277,-256 273,-249 268,-241 263,-233 258,-225 253,-218 248,-211 243,-203 238,-195 232,-187 227,-179   227,-179 222,-172 216,-165 212,-158 207,-152 202,-146 198,-140 194,-135 190,-129 187,-125 184,-121 181,-116 178,-113 175,-109 173,-106 171,-103 169,-98 167,-95 165,-88 165,-83 164,-79 165,-74 166,-70 166,-67 168,-64 169,-62 170,-59 173,-56 176,-52 180,-48 186,-45 190,-42 194,-39 197,-37 202,-34 206,-29 208,-26 210,-23 211,-19 212,-16 212,-12 212,-8 211,-3 208,1 206,6 202,10 199,13 196,15 191,19 187,22 182,25 179,27 174,30 171,32 168,35 164,37 161,40 157,42 153,45 149,48 145,50 141,53 137,55 133,57 128,60 125,61 120,62 115,63 109,63 106,63 102,62 98,61 94,58 90,55 88,53 86,51 84,46 82,41 81,37 79,31 79,24 79,21 79,16 79,10 80,6 81,2 82,-4 82,-9 83,-13 84,-18 85,-23 86,-28 87,-33 88,-38 89,-43 90,-49 91,-54 93,-60 94,-66 95,-72 96,-78 98,-84 99,-90 100,-97 101,-103 103,-110 104,-115 105,-122 107,-129 108,-136 109,-143 111,-150 112,-158 113,-164 114,-171 115,-179 116,-186 118,-193 119,-201 120,-208 120,-216 121,-223 122,-230 122,-236 122,-243 122,-249 121,-255 120,-260 118,-265 117,-270 115,-275 113,-280 110,-284 107,-288 104,-292 101,-296 97,-300 94,-303 90,-307 85,-310 81,-313 76,-317 71,-320 66,-323 61,-327 57,-331 52,-335 48,-339 44,-343 40,-348 36,-353 32,-358 28,-363 25,-369 22,-374 19,-380 15,-386 12,-391 8,-396 4,-402 -1,-407 -5,-412 -10,-416 -16,-421 -21,-425 -27,-429 -33,-433 -39,-436 -46,-439 -52,-442 -59,-444 -66,-446 -72,-447 -79,-448 -87,-449 -93,-449 -101,-449 -109,-449 -116,-450 -124,-450 -131,-451 -139,-453 -146,-455 -153,-457 -160,-459 -167,-462 -173,-465 -180,-469 -186,-473 -192,-477 -197,-482 -203,-487 -208,-492 -212,-497 -217,-502 -220,-508 -224,-514 -227,-520 -230,-526 -234,-532 -237,-539 -240,-545 -244,-551 -248,-556 -253,-562 -257,-567 -262,-573 -268,-578 -273,-583 -279,-587 -285,-591 -291,-595 -298,-599 -304,-603 -311,-606 -318,-610 -325,-613 -332,-616 -339,-619 -347,-622 -354,-625 -362,-628 -369,-631 -376,-633 -384,-636 -392,-639 -399,-641 -408,-644 -415,-646 -423,-648 -431,-650 -440,-652 -448,-654 -455,-656 -464,-658 -472,-660 -480,-661 -489,-663 -498,-664 -506,-665 -514,-666 -523,-668 -532,-669 -540,-670 -549,-671 -558,-672   -558,-672 -566,-673 -575,-674 -584,-675 -593,-677 -602,-678 -611,-679 -620,-680 -629,-682 -638,-683 -647,-684 -656,-686 -665,-687 -674,-689 -683,-690 -692,-691 -700,-693 -710,-694 -718,-695 -726,-696 -734,-698 -741,-699 -748,-700 -754,-701 -760,-702 -765,-702 -770,-703 -775,-704 -779,-705 -783,-707 -789,-709 -793,-711 -796,-713 -801,-716 -805,-720 -808,-723 -810,-726 -812,-729 -814,-732 -816,-736 -818,-739 -819,-743 -821,-747 -822,-752 -823,-756 -824,-760 -824,-765 -825,-770 -825,-774 -825,-780 -825,-784 -825,-790 -824,-795 -824,-801 -824,-806 -824,-812 -823,-817 -823,-824 -823,-829 -823,-836 -823,-841 -823,-847 -823,-852 -824,-856 -824,-859 -824,-863 -825,-870 -826,-875 -828,-879 -829,-883 -832,-887 -834,-890 -838,-893 -841,-895 -844,-896 -847,-897 -850,-897 -853,-896 -857,-895 -859,-894 -863,-892 -866,-889 -869,-886 -872,-884 -876,-880 -879,-878 -882,-876 -886,-874 -890,-873 -893,-872 -896,-871 -901,-870 -904,-870 -908,-870 -914,-870 -918,-871 -924,-871 -927,-872 -931,-872 -936,-873 -940,-874 -944,-874 -948,-875 -953,-876 -958,-877 -963,-877 -967,-878 -972,-879 -976,-880 -980,-880 -985,-881 -988,-882 -994,-884 -998,-887 -1004,-890 -1007,-894 -1009,-896 -1011,-899 -1013,-901 -1014,-904 -1015,-907 -1017,-912 -1018,-915 -1018,-920 -1018,-927 -1018,-930 -1017,-937 -1016,-941 -1014,-946 -1012,-951 -1010,-954 -1008,-958 -1006,-961 -1003,-965 -1000,-969 -997,-972 -994,-975 -991,-979 -988,-982 -984,-985 -980,-988 -975,-991 -971,-994 -966,-997 -961,-1000 -956,-1002 -950,-1005 -945,-1007 -939,-1009 -933,-1011 -927,-1013 -921,-1015 -915,-1017 -909,-1018 -902,-1020 -895,-1021 -889,-1022 -882,-1022 -875,-1023 -868,-1023 -861,-1023 -853,-1022 -846,-1022 -839,-1021 -832,-1020 -824,-1019 -816,-1018 -809,-1017 -802,-1017  "></polygon>
    <polyline vector-effect="non-scaling-stroke" fill="none" style="stroke: #EF4444; stroke-width:4" points=" -802,-1017 -794,-1016 -787,-1015 -779,-1013 -772,-1012 -763,-1011 -756,-1010 -748,-1009 -740,-1007 -732,-1006 -725,-1005 -716,-1004 -709,-1003 -700,-1001 -692,-1000 -684,-999 -676,-998 -667,-997 -659,-995 -651,-994 -643,-993 -634,-992 -626,-991 -617,-989 -609,-988 -601,-987 -592,-986 -584,-985 -576,-984 -568,-983 -559,-981 -550,-980 -541,-979 -532,-977 -524,-976 -515,-975 -506,-974 -498,-973 -489,-971 -480,-970 -472,-969 -462,-968 -453,-966 -445,-965 -436,-964 -427,-962 -417,-961 -408,-960 -399,-959 -390,-957 -381,-956 -371,-955 -363,-953 -353,-952 -344,-951 -335,-950 -326,-948 -317,-947 -307,-946 -298,-944 -289,-943 -280,-942 -270,-940 -261,-939 -252,-938 -243,-937 -234,-936 -225,-935 -215,-934 -206,-933 -196,-932 -186,-931 -177,-930 -168,-929 -158,-929 -149,-928 -140,-927 -131,-926 -121,-925 -111,-924 -101,-923 -92,-922 -82,-921 -73,-920 -63,-919 -54,-917 -44,-916 -34,-915 -25,-914 -16,-913 -6,-912 4,-911 14,-909 23,-908 32,-907 41,-906 50,-905 60,-903 70,-902 80,-901 89,-900 98,-898 108,-897 118,-896 127,-894 137,-893 147,-891 156,-890 165,-889 174,-888 184,-886 194,-885 204,-883 214,-882 224,-881 234,-879 244,-878 253,-877 263,-875 272,-874 281,-873 290,-871 300,-870 309,-869 319,-867 328,-866 338,-864 347,-863 357,-862 366,-860 374,-859 382,-858 390,-857 397,-856 404,-854 409,-853 415,-852 420,-850 425,-849 430,-848 434,-846 438,-844 442,-842 445,-839 450,-835 453,-833 457,-828 459,-825 461,-822 462,-819 464,-816 465,-812 466,-807 466,-802 467,-798 467,-794 466,-790 466,-786 465,-782 464,-778 463,-774 463,-770 462,-765 462,-762 463,-755 464,-750 466,-745 467,-742 469,-740 470,-738 472,-736 476,-733 479,-730 484,-727 488,-724 491,-721 495,-717 498,-713 500,-711 501,-708 503,-705 505,-702 506,-698 507,-693 508,-687 509,-684 509,-678 509,-674 509,-670 508,-666 508,-662 507,-657 506,-653 505,-648 503,-643 502,-638 500,-634 498,-628 496,-624 494,-618 492,-613 489,-608 487,-602 484,-597 482,-592 479,-586 476,-580 473,-575 470,-569 467,-563 464,-557 460,-551 456,-545 453,-539 449,-533 445,-526 442,-520 438,-514 434,-508 430,-501 426,-494 423,-488 419,-482 415,-475 411,-469 407,-462 403,-456 398,-449 394,-442 390,-436 386,-429 382,-422 378,-416 373,-409 369,-402 365,-395 360,-388 356,-381 352,-374 347,-367 343,-360 338,-353 334,-345 329,-338 324,-331 320,-324 315,-317 311,-309 306,-302 301,-294 296,-286 291,-278 287,-271 282,-263 277,-256 273,-249 268,-241 263,-233 258,-225 253,-218 248,-211 243,-203 238,-195 232,-187 227,-179 "></polyline>
    <polyline vector-effect="non-scaling-stroke" fill="none" style="stroke: #3B82F6; stroke-width:4" points=" 227,-179 222,-172 216,-165 212,-158 207,-152 202,-146 198,-140 194,-135 190,-129 187,-125 184,-121 181,-116 178,-113 175,-109 173,-106 171,-103 169,-98 167,-95 165,-88 165,-83 164,-79 165,-74 166,-70 166,-67 168,-64 169,-62 170,-59 173,-56 176,-52 180,-48 186,-45 190,-42 194,-39 197,-37 202,-34 206,-29 208,-26 210,-23 211,-19 212,-16 212,-12 212,-8 211,-3 208,1 206,6 202,10 199,13 196,15 191,19 187,22 182,25 179,27 174,30 171,32 168,35 164,37 161,40 157,42 153,45 149,48 145,50 141,53 137,55 133,57 128,60 125,61 120,62 115,63 109,63 106,63 102,62 98,61 94,58 90,55 88,53 86,51 84,46 82,41 81,37 79,31 79,24 79,21 79,16 79,10 80,6 81,2 82,-4 82,-9 83,-13 84,-18 85,-23 86,-28 87,-33 88,-38 89,-43 90,-49 91,-54 93,-60 94,-66 95,-72 96,-78 98,-84 99,-90 100,-97 101,-103 103,-110 104,-115 105,-122 107,-129 108,-136 109,-143 111,-150 112,-158 113,-164 114,-171 115,-179 116,-186 118,-193 119,-201 120,-208 120,-216 121,-223 122,-230 122,-236 122,-243 122,-249 121,-255 120,-260 118,-265 117,-270 115,-275 113,-280 110,-284 107,-288 104,-292 101,-296 97,-300 94,-303 90,-307 85,-310 81,-313 76,-317 71,-320 66,-323 61,-327 57,-331 52,-335 48,-339 44,-343 40,-348 36,-353 32,-358 28,-363 25,-369 22,-374 19,-380 15,-386 12,-391 8,-396 4,-402 -1,-407 -5,-412 -10,-416 -16,-421 -21,-425 -27,-429 -33,-433 -39,-436 -46,-439 -52,-442 -59,-444 -66,-446 -72,-447 -79,-448 -87,-449 -93,-449 -101,-449 -109,-449 -116,-450 -124,-450 -131,-451 -139,-453 -146,-455 -153,-457 -160,-459 -167,-462 -173,-465 -180,-469 -186,-473 -192,-477 -197,-482 -203,-487 -208,-492 -212,-497 -217,-502 -220,-508 -224,-514 -227,-520 -230,-526 -234,-532 -237,-539 -240,-545 -244,-551 -248,-556 -253,-562 -257,-567 -262,-573 -268,-578 -273,-583 -279,-587 -285,-591 -291,-595 -298,-599 -304,-603 -311,-606 -318,-610 -325,-613 -332,-616 -339,-619 -347,-622 -354,-625 -362,-628 -369,-631 -376,-633 -384,-636 -392,-639 -399,-641 -408,-644 -415,-646 -423,-648 -431,-650 -440,-652 -448,-654 -455,-656 -464,-658 -472,-660 -480,-661 -489,-663 -498,-664 -506,-665 -514,-666 -523,-668 -532,-669 -540,-670 -549,-671 -558,-672 "></polyline>
    <polyline vector-effect="non-scaling-stroke" fill="none" style="stroke: #FBBF24; stroke-width:4" points=" -558,-672 -566,-673 -575,-674 -584,-675 -593,-677 -602,-678 -611,-679 -620,-680 -629,-682 -638,-683 -647,-684 -656,-686 -665,-687 -674,-689 -683,-690 -692,-691 -700,-693 -710,-694 -718,-695 -726,-696 -734,-698 -741,-699 -748,-700 -754,-701 -760,-702 -765,-702 -770,-703 -775,-704 -779,-705 -783,-707 -789,-709 -793,-711 -796,-713 -801,-716 -805,-720 -808,-723 -810,-726 -812,-729 -814,-732 -816,-736 -818,-739 -819,-743 -821,-747 -822,-752 -823,-756 -824,-760 -824,-765 -825,-770 -825,-774 -825,-780 -825,-784 -825,-790 -824,-795 -824,-801 -824,-806 -824,-812 -823,-817 -823,-824 -823,-829 -823,-836 -823,-841 -823,-847 -823,-852 -824,-856 -824,-859 -824,-863 -825,-870 -826,-875 -828,-879 -829,-883 -832,-887 -834,-890 -838,-893 -841,-895 -844,-896 -847,-897 -850,-897 -853,-896 -857,-895 -859,-894 -863,-892 -866,-889 -869,-886 -872,-884 -876,-880 -879,-878 -882,-876 -886,-874 -890,-873 -893,-872 -896,-871 -901,-870 -904,-870 -908,-870 -914,-870 -918,-871 -924,-871 -927,-872 -931,-872 -936,-873 -940,-874 -944,-874 -948,-875 -953,-876 -958,-877 -963,-877 -967,-878 -972,-879 -976,-880 -980,-880 -985,-881 -988,-882 -994,-884 -998,-887 -1004,-890 -1007,-894 -1009,-896 -1011,-899 -1013,-901 -1014,-904 -1015,-907 -1017,-912 -1018,-915 -1018,-920 -1018,-927 -1018,-930 -1017,-937 -1016,-941 -1014,-946 -1012,-951 -1010,-954 -1008,-958 -1006,-961 -1003,-965 -1000,-969 -997,-972 -994,-975 -991,-979 -988,-982 -984,-985 -980,-988 -975,-991 -971,-994 -966,-997 -961,-1000 -956,-1002 -950,-1005 -945,-1007 -939,-1009 -933,-1011 -927,-1013 -921,-1015 -915,-1017 -909,-1018 -902,-1020 -895,-1021 -889,-1022 -882,-1022 -875,-1023 -868,-1023 -861,-1023 -853,-1022 -846,-1022 -839,-1021 -832,-1020 -824,-1019 -816,-1018 -809,-1017 -802,-1017 "></polyline>
</svg>