<svg xmlns="http://www.w3.org/2000/svg" xmlns:xlink="http://www.w3.org/1999/xlink" preserveAspectRatio="xMidYMid meet" height="100%" viewBox="-768 -317 1534 624"><polygon vector-effect="non-scaling-stroke" fill="none" points="-140.8,-217.5 -140.5,-217.3 -140,-217 -138.8,-216.2 -137.3,-215.2 -135.8,-214.2 -134.5,-213.5 -133.5,-213 -132.5,-212.5 -132,-212.2 -130.8,-211.3 -129.3,-210.3 -127.8,-209.3 -126.7,-208.7 -125.7,-208.2 -124.7,-207.7 -124,-207.3 -122.7,-206.5 -121.3,-205.7 -120,-204.8 -119.3,-204.5 -118,-203.5 -116.7,-202.7 -115.2,-201.7 -114.2,-201.2 -112.7,-200.2 -111.5,-199.5 -110.5,-198.8 -109.3,-198.2 -107.8,-197.2 -106.3,-196.2 -105.5,-195.7 -104.3,-195 -102.8,-194.2 -101,-193 -99.8,-192.3 -98.5,-191.7 -97.5,-191.2 -96.5,-190.5 -95.8,-190 -94.2,-189 -92.5,-188 -91,-187 -90.3,-186.5 -88.8,-185.5 -87.3,-184.7 -85.8,-183.8 -85.2,-183.5 -83.7,-182.5 -82.2,-181.5 -80.7,-180.7 -79.5,-180 -78.3,-179.3 -76.7,-178.2 -75.2,-177.2 -73.7,-176.3 -72.7,-175.8 -71.5,-175.2 -70,-174.2 -68.5,-173.2 -67.5,-172.5 -66.3,-171.8 -65.2,-171.2 -63.5,-170.2 -62,-169.2 -60.2,-168 -58.7,-167.3 -57.7,-166.8 -56.3,-166.2 -55,-165.3 -53.7,-164.5 -52.2,-163.5 -50.8,-162.7 -49.2,-161.7 -47.8,-161 -46.5,-160.2 -44.8,-159.2 -43.3,-158.2 -41.8,-157.2 -40.8,-156.7 -39.7,-156 -38.3,-155.3 -37.2,-154.5 -35.8,-153.5 -34.2,-152.3 -32.2,-151 -30.7,-150.3 -29.3,-149.7 -28.2,-149.2 -27.2,-148.5 -25.8,-147.5 -24.5,-146.5 -22.5,-145.2 -21,-144.3 -19.7,-143.7 -18.5,-143 -17,-142.2 -15.5,-141.2 -13.8,-140.2 -12.3,-139.2 -10.3,-138 -9,-137.2 -8,-136.7 -7.3,-136.3 -6.7,-136 -4.5,-134.7 -2.5,-133.3 -0.5,-132 0.2,-131.5 1.3,-130.8 2.7,-130.2 4.3,-129.2 5.8,-128.2 7.7,-127 9,-126.2 10.2,-125.5 11.3,-124.8 12.5,-124.2 13.7,-123.5 15.2,-122.5 16.8,-121.5 18.3,-120.5 19.5,-119.7 20.7,-119 22.8,-117.8 24.7,-117 26.3,-116 27,-115.5 27.7,-115 29,-114.2 30.5,-113.3 32.5,-112.2 33.8,-111.3 35.2,-110.5 36.3,-109.7 37.5,-109 38.7,-108.3 40.2,-107.5 41.8,-106.5 43.3,-105.5 44.5,-104.8 45.7,-104.2 47.3,-103.2 48.8,-102.2 50.7,-101 52,-100.2 53.2,-99.7 54.3,-99 55.8,-98.2 57.7,-97 59,-96.2 60,-95.5 60.7,-95.2 61.3,-94.8 63,-93.8 64.8,-92.5 67,-91 68.3,-90.3 69.3,-89.8 70.5,-89.2 72,-88.2 73.8,-87 75.3,-86.2 76.3,-85.7 77,-85.3 78.8,-84.3 80.7,-83.2 82.5,-82 83.2,-81.7 83.8,-81.3 85.2,-80.5 86.8,-79.3 88.8,-78 90.2,-77.3 91.2,-76.8 92.3,-76.2 94,-75.2 95.5,-74.2 96.5,-73.5 97.7,-72.8 98.8,-72.2 100.7,-71.2 102,-70.3 103.3,-69.5 104,-69.2 105.5,-68.3 107,-67.5 108.5,-66.5 110,-65.5 111.5,-64.7 113,-63.8 113.7,-63.5 115.2,-62.5 116.7,-61.5 118.2,-60.7 119.3,-60 120.8,-59.2 122.3,-58.2 123.3,-57.5 124.5,-56.8 125.7,-56.2 127.3,-55.2 128.8,-54.2 130.3,-53.2 131.3,-52.7 132.5,-52 134,-51.2 135.8,-50 137.2,-49.2 138.2,-48.7 139.3,-48 140.5,-47.3 142.2,-46.2 143.5,-45.3 144.8,-44.7 145.5,-44.3 146.7,-43.7 147.8,-42.8 149.5,-41.8 150.5,-41.2 152.2,-40.2 153.7,-39.2 155.2,-38.3 156,-37.8 157.2,-37.2 158.7,-36.2 160.2,-35.3 161.3,-34.7 162.2,-34.2 163.2,-33.7 164.3,-33 165.8,-32.2 167.2,-31.2 168,-30.7 168.5,-30.3 170,-29.5 171.5,-28.5 173,-27.7 173.5,-27.3 174.5,-26.8 175.5,-26.2 176.5,-25.5 177.5,-24.8 178.8,-24 180.2,-23.3 181.5,-22.5 182.5,-22 184.2,-20.8 185.3,-20.2 186.3,-19.3 186.7,-19.2 187.7,-18.3 188.8,-17.7 189.8,-16.8 190.2,-16.7 190.3,-16.3 190.8,-16 191.2,-15.5 191.8,-15 192.2,-14.5 192.7,-14.2 193.5,-13 194.7,-11.5 196,-9.7 196.7,-8.7 197.2,-7.8 197.3,-7.2 197.7,-6.7 198,-5.5 198.3,-4.3 198.7,-2.7 198.8,-1.5 199,-0.2 199,1 199,2 198.8,3.8 198.5,5.7 198,7.5 197.7,8.5 197.3,9.2 197,10 196.7,10.7 196.3,11.3 196.2,11.7 195.8,11.8 195.7,12.2 195.2,13 194.7,13.8 194.2,14.7 193.8,14.8 193.7,15.2 193.3,15.3 193.2,15.7 192.8,15.8 192.5,16.3 192,16.7 191.5,17.3 191,17.7 190.5,18.3 190,18.7 189.5,19.3 189,19.7 188.5,20.3 188,20.7 187,21.7 186,22.3 184.5,23.7 183.5,24.3 182.2,25.5 181.3,26 179.7,27.3 178.2,28.3 176.2,30 175,30.8 174,31.7 173.7,32 173.3,32.3 172.3,33.2 171.2,33.8 169.8,34.8 169,35.3 168.3,36 167.8,36.5 167,37.3 166,38.2 164.8,39.2 164.2,39.7 163.3,40.3 162.7,40.7 162,41.2 161.7,41.5 160.8,42.2 159.8,43 158.5,44 157.5,44.8 156.5,45.7 155.7,46.3 154.7,47.2 153.8,47.8 153,48.7 152.5,49.2 151.8,49.8 151,50.5 150,51.3 149,52.2 148,53 146.7,54.5 145.5,55.8 144.3,57.2 143.7,58 142.8,59 141.8,60.2 141,61.2 140.3,62 140,62.5 139.5,63.2 138.5,64.7 137.7,66.2 136.8,67.5 136.7,68 136.3,68.5 135.8,69.5 135.2,70.5 134.7,71.5 134,72.7 133.5,73.8 133,75 132.8,75.8 132.3,77.3 131.8,78.8 131.5,80.2 131.3,81.5 131.2,83.2 131,84.8 131,85.8 131,86.8 131,87.7 131,88.8 131,89.8 131,91 131,92.3 131.2,94.3 131.3,96.2 131.5,97.5 131.5,98 131.7,98.5 132,99.8 132.3,101.2 132.5,102.5 132.7,103.2 132.8,104 133.2,105.7 133.3,107.2 133.5,108.5 133.7,109 133.8,109.8 134.2,111.5 134.3,113.2 134.7,114.5 134.8,115 135,115.8 135,116.7 135,117.8 135,118.8 135,120 135.2,121.3 135.3,122.5 135.5,123.8 135.5,125.2 135.5,126.7 135.5,127.8 135.5,128.8 135.5,130.2 135.3,131.7 135.2,132.8 135,134.2 135,135.5 135,136.8 135,137.5 135,138.2 134.7,139.7 134.3,141.2 134,142.7 134,143.3 133.7,144.5 133.3,145.7 132.8,147.5 132.5,148.8 132.2,150.2 131.8,151.3 131.5,152.5 131,154.2 130.5,155.3 130.2,156.5 129.7,157.5 129.3,158.7 128.8,159.8 128.5,160.5 127.8,161.7 127,163.2 126,165.2 125.3,166.5 124.8,167.7 124.5,168.3 124.2,169 123.8,169.5 123,170.7 121.8,172.3 120.8,174 120.3,175 120,175.5 119.3,176.2 118,177.8 116.7,179.5 115.5,181 115,181.5 114.3,182.2 113.5,183 112.5,184 111.5,185 110.5,186 109.5,187 108.5,188 107.5,189 106.5,189.8 105.8,190.5 104.5,191.5 103.2,192.7 101.7,193.7 101,194.2 100,194.8 98.8,195.7 97.2,196.8 96,197.7 95,198.3 94,198.8 92.5,199.7 90.8,200.8 89.5,201.8 88.7,202.3 88,202.7 86.8,203.3 85.5,204 83.8,204.8 82.7,205.3 81,206.3 79.7,207 78,207.8 76.5,208.7 75,209.5 73.8,210.2 73.2,210.5 72.5,210.8 71.3,211.3 70.2,211.8 68,212.7 66.5,213.3 64.5,214 63.2,214.7 61.8,215.3 60.8,215.8 59.7,216.3 58.3,216.7 56.7,217.3 55.3,217.7 53.7,218.3 52.3,218.7 50.7,219.3 49,219.8 47.5,220.5 45.8,221 44.7,221.5 42.8,222 41.7,222.5 40.3,222.8 39,223.2 37.5,223.5 35.7,224 34.3,224.5 32.3,225 30.8,225.3 29.3,225.5 28.7,225.7 27.5,225.8 25.7,226.2 23.7,226.5 22.2,226.8 20.7,227.2 19.2,227.3 17.7,227.7 15.8,228 14.2,228.3 12.3,228.5 11.7,228.7 10.5,228.8 9,229 6.7,229.2 4.7,229.3 3.2,229.5 2.3,229.7 1.3,229.8 -0.2,230 -1.5,230 -3.2,230 -4.7,230 -6.5,230 -8.8,230.2 -10.8,230.3 -12.7,230.5 -13.3,230.5 -14.5,230.5 -15.7,230.5 -17.3,230.5 -18.7,230.5 -20.2,230.5 -21.5,230.5 -23.2,230.5 -24.5,230.5 -25.7,230.5 -27.3,230.3 -29.2,230.2 -31.2,230 -32.5,230 -34.2,230 -35.5,229.8 -37,229.7 -38,229.5 -39.2,229.5 -40.5,229.3 -42.3,229.2 -44.3,229 -45.8,228.8 -46.8,228.7 -48.3,228.3 -50,228.2 -52,227.8 -53.2,227.7 -54.2,227.5 -55.7,227.3 -57.3,227 -58.8,226.7 -60.3,226.3 -61.7,226 -63.2,225.7 -64.5,225.3 -66,225 -67.3,224.7 -68.5,224.3 -70.3,223.8 -72.2,223.3 -73.7,222.8 -74.3,222.7 -75.7,222.2 -76.8,221.8 -78.7,221.3 -79.8,221 -81.7,220.5 -82.8,220 -84.5,219.5 -85.7,219 -87.3,218.5 -88.7,218 -90.3,217.3 -91.5,216.8 -92.7,216.3 -93.7,216 -95.2,215.3 -96.5,214.8 -97.8,214.2 -99.3,213.5 -100.8,212.8 -102,212.3 -103.3,211.8 -104.7,211.2 -106.2,210.5 -107.5,209.8 -108.8,209.2 -110.5,208.3 -112,207.7 -113.5,207 -114.7,206.5 -115.3,206.2 -116.7,205.5 -118,204.8 -119.7,204 -120.7,203.5 -121.7,203 -123.2,202 -124.7,201.2 -126.2,200.3 -127.5,199.7 -128.8,199 -130.5,198.2 -131.5,197.7 -132.5,197 -133,196.5 -134.5,195.7 -136,194.8 -137.8,193.8 -138.8,193.2 -139.8,192.7 -141.3,191.8 -142.8,191 -144.3,190 -145.8,189 -147.2,188.2 -148.8,187.2 -149.8,186.7 -151.3,185.7 -152.5,184.8 -154,183.8 -155,183.3 -157,182.3 -158.5,181.5 -160,180.5 -161.2,179.7 -162.3,179 -164.3,178 -165.7,177.3 -167,176.5 -167.7,176 -169.2,175 -170.8,174 -172.7,173 -173.8,172.5 -175.3,171.7 -177,170.7 -178.5,169.7 -179.5,169 -180.7,168.3 -182.2,167.5 -184.2,166.5 -185.5,165.7 -187.2,164.7 -188.3,163.8 -189.7,163 -191.2,162.2 -192.7,161.3 -194.2,160.5 -195.3,159.7 -196.7,158.8 -198.5,157.7 -200,156.8 -201.7,156 -202.8,155.5 -203.8,155 -205.5,154 -207,153 -209.2,151.7 -210.3,150.8 -211.5,150.2 -212.7,149.5 -214.2,148.7 -216.2,147.5 -217.5,146.7 -218.7,146 -220.2,145 -221.8,144 -223.3,143.2 -224.2,142.8 -225.5,142 -227.3,140.8 -229.3,139.5 -231.2,138.5 -232.5,137.7 -233.5,137 -234.8,136 -236.2,135 -238,134 -239.3,133.3 -240.8,132.7 -241.8,132 -243.5,131 -245,130 -246.7,129 -248,128 -249.5,127 -251.5,125.7 -252.8,125 -254.2,124.3 -255.3,123.7 -256.7,122.8 -258.3,121.7 -260,120.7 -261.5,119.7 -263,118.8 -264,118.2 -266,117 -267.5,116 -269.2,115.2 -270.3,114.5 -271.7,113.8 -272.8,113 -274.5,112 -276,111 -278,109.8 -279,109.2 -280,108.5 -281.7,107.3 -283.3,106.3 -285.2,105.3 -286.3,104.7 -288,103.7 -289.5,102.7 -291.2,101.7 -292.3,100.8 -294.2,99.7 -295.3,98.8 -297.3,97.8 -298.7,97.2 -300,96.5 -300.7,96 -302,95 -303.8,93.8 -305.5,92.7 -307,92 -308.3,91.3 -309.7,90.7 -310.7,90 -312.2,89 -313.8,88.2 -315.3,87.3 -316,87 -316.5,86.7 -318.2,85.7 -319.8,84.7 -321.8,83.5 -322.7,83 -323.8,82.3 -324.8,81.8 -326.5,81 -327.8,80.5 -329,79.8 -329.5,79.5 -330.7,78.8 -332,78.2 -333.3,77.7 -334.8,77 -336.2,76.5 -337.5,76 -338,75.8 -339.7,75.3 -341.3,74.7 -343,74.2 -343.5,74 -344.7,73.7 -345.8,73.3 -347.2,73 -348.5,72.7 -349.8,72.3 -351,72 -351.5,72 -352.8,71.8 -354.5,71.5 -356.2,71.2 -357,71 -357.5,71 -358.8,70.8 -360.3,70.7 -362.3,70.5 -363.5,70.5 -364.8,70.5 -365.7,70.5 -366.8,70.5 -367.8,70.5 -369.2,70.5 -370.5,70.5 -371.7,70.5 -372.8,70.5 -373.7,70.5 -374.8,70.5 -376.2,70.5 -377.5,70.5 -378.8,70.5 -380.5,70.7 -382.2,70.8 -383.7,71 -384.3,71.2 -385,71.3 -386.5,71.7 -388.2,71.8 -389.8,72 -390.5,72.2 -391.8,72.5 -393.3,72.8 -394.8,73.2 -396.2,73.5 -397.3,73.8 -399.2,74.3 -400.3,74.7 -401.5,75.2 -402.7,75.5 -403.8,76 -405.5,76.5 -407,77.2 -408.5,77.7 -409.5,78.2 -411.2,78.8 -412.8,79.7 -414.5,80.3 -415.5,80.8 -416.8,81.5 -418.2,82.2 -419.5,82.8 -421.2,83.8 -422.8,85 -424,86 -425,86.5 -426,87 -427.7,88 -428.8,89 -430.2,90 -431.3,90.8 -432.5,91.7 -434,92.8 -435.2,93.8 -436.8,95.2 -438,96.2 -439,97 -440,97.8 -441.3,98.8 -442.7,99.7 -443.5,100.2 -444.8,101.2 -446.3,102.3 -447.8,103.5 -448.5,104 -449.3,104.7 -450.7,105.5 -452.5,106.7 -454.2,107.8 -455.5,108.7 -456.3,109.2 -457.5,109.7 -458.5,110.3 -459.5,110.8 -461,111.5 -462.5,112.2 -464.5,113 -465.5,113.5 -467.2,114 -468.7,114.7 -470.3,115.2 -471.3,115.7 -472.7,116 -473.8,116.5 -475.8,117 -477.2,117.3 -478.7,117.7 -479.3,117.8 -481.2,118.2 -482.8,118.5 -484.7,118.8 -485.3,119 -486.5,119 -487.5,119.2 -489.2,119.3 -490.3,119.5 -492,119.5 -493.3,119.5 -495.2,119.5 -496.5,119.5 -498.2,119.5 -499.3,119.5 -501.2,119.5 -502.3,119.5 -503.7,119.5 -504.3,119.3 -506,119 -507.8,118.7 -509.8,118.5 -510.8,118.5 -512.5,118.2 -514,117.8 -515.5,117.5 -516.2,117.3 -517.5,117 -519,116.5 -520.3,116.2 -521.5,115.7 -522.7,115.3 -523.8,114.8 -524.8,114.5 -526.3,113.8 -527.8,113.3 -529.5,112.7 -530.7,112.2 -531.8,111.7 -532.5,111.3 -534,110.5 -535.5,109.5 -537,108.7 -537.5,108.3 -538,108 -539.5,107 -541,106.2 -542.5,105.3 -543,105 -543.7,104.3 -544.5,103.5 -546.2,102.2 -547.7,101 -549,100.2 -549.5,99.8 -550.7,99 -551.8,98 -553,97 -553.7,96.3 -554.5,95.5 -555.5,94.5 -556.5,93.5 -557.5,92.5 -558.5,91.5 -559.5,90.5 -560.5,89.5 -562,88.2 -563.3,87 -564.5,86 -565,85.5 -565.7,84.8 -566.3,84.2 -567,83.5 -567.8,82.5 -569,81.2 -570.3,79.7 -571.5,78.5 -572.5,77.5 -573.3,76.7 -574.5,75.7 -575.7,74.8 -577,73.8 -578.5,72.7 -579.8,71.5 -581,70.5 -581.5,70 -582.2,69.3 -583,68.7 -584.5,67.5 -586,66.5 -587.8,65.2 -589,64.5 -590,63.8 -591,63.2 -592,62.3 -593.8,61.3 -595.2,60.7 -596.8,59.8 -598.2,59.2 -599.7,58.5 -600.8,58.2 -601.8,57.7 -603.3,57 -605,56.3 -606.3,55.8 -607.5,55.5 -608.7,55.2 -610.7,54.7 -612.2,54.3 -613.7,53.8 -614.3,53.7 -615.7,53.3 -617,53.2 -618.3,52.8 -619.7,52.5 -621.3,52.2 -623,52 -624,52 -625.5,51.7 -627,51.3 -629.2,51 -630.3,51 -631.8,51 -633.2,51 -634.5,51 -635.8,51 -637.2,51 -638.5,51 -640.8,51.2 -642.7,51.5 -644.5,51.8 -645.2,52 -646,52 -646.8,52 -648.7,52.3 -650.3,52.7 -652.2,53 -652.8,53 -654.5,53.3 -656.2,53.7 -657.8,54 -659.2,54.3 -660.5,54.7 -662.3,55.2 -663.7,55.5 -664.8,55.8 -666.2,56.2 -667.5,56.5 -668.8,56.8 -669.5,57 -671,57.3 -672.5,57.7 -674.5,58.2 -675.7,58.5 -677.3,59 -678.5,59.3 -680.2,59.8 -681.3,60.2 -682.5,60.7 -683.8,61 -685.5,61.7 -687.2,62.2 -688.5,62.8 -689.5,63.2 -690.5,63.7 -691.5,64 -693,64.7 -694.8,65.3 -696.2,66 -697.3,66.7 -698.8,67.5 -700.3,68.3 -701.5,69 -702,69.3 -703.2,70 -704.5,70.7 -706.3,71.7 -707.5,72.3 -708.5,73 -709.5,73.8 -710.5,74.7 -711.5,75.3 -712.7,76.2 -714,77.2 -715.5,78.5 -716.5,79.5 -717.3,80.3 -718,81 -719,81.8 -720.2,82.7 -721.5,83.7 -722.5,84.5 -723.5,85.5 -724.5,86.5 -725.8,88 -727,89.3 -728,90.5 -728.5,91 -729,91.7 -729.5,92.3 -730.7,93.8 -731.8,95.2 -733.3,97.2 -734,98.3 -734.7,99.5 -735,100 -735.3,100.5 -736.3,102.2 -737.3,103.8 -738.3,105.5 -738.7,106.2 -739.3,107.3 -740,108.5 -740.8,109.8 -741.2,110.7 -741.8,111.8 -742.3,113.2 -743.2,115 -743.7,116.5 -744.2,117.5 -744.3,118 -744.8,119 -745.3,120.3 -746.2,122.3 -746.7,123.8 -747,125.2 -747.3,126.5 -747.7,127.8 -748,129.2 -748.3,130.7 -748.7,132.2 -749,133.5 -749,134.2 -749.3,135.7 -749.7,137.3 -750,139 -750,139.8 -750,140.5 -750.2,141.8 -750.3,143.7 -750.5,145.7 -750.5,146.8 -750.3,148.8 -750.2,150.7 -750,152.5 -750,153 -750,153.8 -749.8,155.5 -749.5,157.2 -749.2,158.5 -749,159.2 -748.8,160.7 -748.7,162.2 -748.3,163.5 -748.2,164 -747.8,165.2 -747.7,166.3 -747.2,168.2 -746.7,169.3 -746.2,170.5 -745.8,171.5 -745.5,172.3 -745,173.5 -744.7,174.2 -744.3,174.8 -744.2,175.2 -743.3,176.3 -742,178.5 -740.7,180.7 -739.8,181.8 -739.7,182.2 -739.3,182.3 -738.8,183.2 -738,184 -737.3,185 -736.5,185.8 -735.8,186.5 -735.2,187.2 -734.2,187.8 -733,188.8 -730.7,190.3 -729,191.3 -726.5,192.5 -725,193.2 -722.7,194.2 -721.3,194.7 -720,195 -719.5,195 -718.2,195.3 -716.5,195.7 -714.8,196 -714,196 -713.5,196 -711.5,196 -709.5,196 -707.5,196 -707,196 -706.5,196 -705.8,196 -704.2,195.7 -702.5,195.3 -701,195 -699.8,194.8 -698.7,194.7 -697.5,194.3 -697,194.2 -696.5,194 -695.2,193.8 -693.8,193.7 -692.5,193.5 -692,193.3 -691.5,193.2 -690.2,192.8 -688.8,192.7 -687.3,192.5 -686.7,192.3 -685.8,192.2 -685.2,192 -683.5,191.8 -682,191.7 -680.5,191.5 -679.8,191.5 -679.2,191.3 -678.2,191.2 -677.2,191 -675.8,191 -674.5,191 -673.3,191 -672.2,191 -670.8,191 -669.3,191 -668.2,191 -666.8,191 -665.5,191 -663.7,190.8 -662.5,190.7 -660.8,190.5 -659.5,190.5 -657.7,190.7 -656.5,190.8 -654.8,191 -653.7,191 -651.8,191 -650.7,191 -649,191 -647.7,191 -645.8,191 -644,191 -642.5,191 -641.3,191.2 -640.7,191.3 -638.8,191.7 -636.7,191.8 -634.5,192 -633.3,192.2 -632.7,192.3 -631,192.7 -629.3,192.8 -627.7,193.2 -625.8,193.5 -624,193.8 -622.2,194.2 -620.8,194.5 -619.5,194.8 -617.3,195.3 -615.7,195.7 -614,196.2 -612.5,196.5 -611,196.8 -608.7,197.3 -606.8,197.7 -605.2,198 -603.7,198.3 -602.2,198.7 -600.7,199.2 -599.2,199.5 -597.7,199.8 -595.7,200.3 -594.2,200.7 -592,201.3 -590.2,201.7 -587.8,202.2 -585.8,202.5 -584,202.8 -582.8,203.2 -581.5,203.5 -579.3,204.2 -577.2,204.7 -575.7,205 -573.8,205.3 -572,205.7 -570,206.2 -568.3,206.5 -566.8,206.8 -564.5,207.3 -562.8,207.7 -561,208.2 -559.3,208.5 -557.7,208.8 -555.3,209.3 -553.7,209.7 -552,210.2 -550.3,210.5 -548.7,211 -546.5,211.5 -544.7,211.8 -542.8,212.2 -540.7,212.5 -538.8,212.8 -537,213.2 -535.5,213.5 -534,214 -531.7,214.5 -529.8,214.8 -528,215.2 -526,215.5 -524,215.8 -522.2,216.2 -520.7,216.5 -518.8,216.8 -516.8,217 -514.7,217.3 -512.8,217.7 -511.2,218 -509.5,218.3 -507.5,218.7 -505.2,219 -503.7,219 -501.8,219.2 -499.8,219.5 -497.3,219.8 -495.5,220 -494,220 -493,220 -491.2,220.2 -488.8,220.3 -486.2,220.5 -484.2,220.7 -482.5,220.8 -480.8,221 -479.2,221 -477.2,221 -475.2,221 -473,221 -471,221 -469.5,221 -467.8,221 -466.3,220.8 -464.3,220.7 -462.3,220.5 -460.2,220.5 -457.5,220.3 -455.5,220.2 -453.8,220 -452.7,220 -451.2,220 -449.2,220 -447.3,220 -445.3,220 -443.7,220 -442,220 -440.3,220 -438.3,220 -436.3,220 -434.3,219.8 -432.3,219.7 -429.8,219.3 -427.7,219.2 -426,219 -424.8,219 -423.3,219 -421.3,219 -419.3,219 -417.5,219 -416,219 -414.3,219 -412.3,219 -410.2,219 -408,219 -406.3,219 -404.8,218.8 -403.2,218.7 -400.5,218.3 -398,218.2 -396,218 -395,218 -393.8,218 -392.2,218 -390.2,218 -388,218 -386,218 -384.3,218 -382.7,218 -381,218 -379,218 -377,218 -375,217.8 -373.3,217.7 -371.7,217.5 -370,217.5 -367.3,217.3 -365,217.2 -363,217 -362.2,217 -360.8,217 -359.2,217 -357,217 -355,217 -353,217 -351.3,217 -349.7,217 -348,217 -346,217 -344,216.8 -342,216.7 -340.5,216.5 -338.3,216.3 -336.5,216.2 -334.5,216 -333.2,216 -331.3,216 -329.7,216 -327.8,216 -326.3,216 -324.3,216 -322.5,216 -320.7,216 -319,216 -317.2,216 -315.3,216 -313.2,216 -310.5,215.7 -308.2,215.3 -306.3,215 -305.3,215 -303.8,215 -302,215 -300.3,215 -298.8,215 -297.3,215 -295.3,215 -293.2,215 -291.2,215 -289.5,215 -288,215 -286.3,215 -283.7,214.8 -281.2,214.7 -279.2,214.3 -278.2,214.2 -276.8,214 -275,214 -273,214 -271.5,214 -270,214 -268.3,214 -266.2,214 -264.2,214 -262.5,214 -260.8,214 -259.2,214 -257.2,214 -254.7,213.8 -252.5,213.7 -250.8,213.5 -249.7,213.3 -248,213.2 -246,213 -244.3,213 -242.7,213 -241,213 -239,213 -237.3,213 -235.8,213 -234.2,213 -232.2,213 -230,213 -228.5,213 -226.8,213 -225.3,213.2 -223.2,213.3 -221.5,213.5 -219.8,213.5 -218.7,213.5 -216.7,213.7 -214.8,214 -212.5,214.3 -210.8,214.5 -209.3,214.5 -208.3,214.7 -206.7,215 -204.7,215.3 -202.8,215.5 -201.8,215.7 -200.2,216 -198.5,216.3 -196.8,216.7 -195.3,217 -193.8,217.5 -191.8,218 -190.5,218.5 -188.5,219 -187,219.3 -185,219.8 -183.7,220.2 -181.8,220.8 -180.5,221.3 -178.7,222 -177.3,222.5 -175.7,223 -174,223.7 -172.3,224.2 -170.5,224.8 -169.2,225.2 -167.3,225.8 -165.5,226.5 -163.7,227.2 -161.8,227.8 -160.5,228.2 -159.2,228.7 -157.5,229.2 -155.8,229.8 -154.2,230.5 -152.3,231.2 -150.5,231.8 -148.7,232.3 -147.5,232.8 -145.8,233.3 -144.2,234 -142.3,234.7 -140.5,235.3 -138.7,236 -136.8,236.5 -135.5,237 -133.7,237.5 -132.3,238 -130.7,238.7 -129,239.3 -127.3,240 -125.5,240.5 -124.2,241 -122.3,241.5 -121,242 -118.7,242.8 -117,243.5 -115.3,244.2 -113.7,244.7 -112,245.3 -110.3,245.8 -108.7,246.5 -107,247 -104.8,247.8 -103.5,248.3 -101.5,249 -100,249.5 -98,250 -96.5,250.5 -94.7,251 -93.3,251.5 -91.5,252.2 -90.2,252.7 -88.8,253.2 -87.3,253.7 -85.3,254.5 -83.3,255.3 -81.5,256 -80.2,256.5 -78.3,257 -76.5,257.7 -74.7,258.2 -72.8,258.8 -71.5,259.3 -69.5,260 -68.2,260.5 -66.3,261 -64.5,261.7 -62.7,262.3 -61.3,262.8 -59.7,263.5 -58,264 -55.8,264.8 -54.5,265.3 -52.5,266 -51.2,266.5 -49.3,267 -47.3,267.7 -45.3,268.2 -43.8,268.7 -42.5,269.2 -41.2,269.7 -39.3,270.3 -37.3,270.8 -35.2,271.5 -33.7,271.8 -32.2,272.3 -30.7,272.7 -28.7,273.3 -27.3,273.7 -25.3,274.3 -23.7,274.7 -21.7,275.2 -20.3,275.5 -18,276 -16,276.5 -14.2,276.8 -12.8,277.3 -11.5,277.7 -9.2,278.2 -7.5,278.5 -5.8,278.8 -4.2,279.2 -2.3,279.5 -0.7,279.8 1.2,280.3 3,280.7 5,281 6.5,281.3 8,281.7 10.3,282.2 12.2,282.3 14,282.7 15.7,283 17.5,283.3 19.7,283.7 21.2,283.8 23.3,284.2 25.5,284.5 27.5,284.8 28.7,285 30.2,285.2 32.3,285.5 34.5,285.8 36,286 37.7,286.2 39.5,286.5 41.7,286.8 43.2,287 45.3,287.2 47.5,287.3 49.8,287.7 51.8,287.8 53.3,288 55,288 56.2,288 58.3,288.2 60.3,288.3 62.8,288.5 64.8,288.7 66.8,288.8 68.8,289 70.3,289 72.2,289 73.8,289 75.8,289 77.3,289 79.2,289.2 81.3,289.3 83.8,289.5 85.8,289.5 87.8,289.5 90.5,289.3 92.8,289.2 94.7,289 95.5,289 96.8,289 98.5,289 100.7,289 102.8,289 104.8,288.8 106.7,288.7 108.7,288.5 110.3,288.5 112.7,288.3 114.5,288.2 116.7,288 118.2,288 120,287.8 122,287.7 124.7,287.3 127,287.2 129,287 130.3,286.8 131.7,286.7 134,286.3 136,286.2 138,286 139.3,285.8 141.7,285.5 144,285.2 146,284.8 148,284.5 150,284.2 152,284 152.8,283.8 154.8,283.5 156.8,283.2 159,282.8 161,282.5 163,282.2 165.7,281.7 167.3,281.3 169,281 170.7,280.7 172.3,280.3 174,279.8 175.8,279.5 177.7,279.2 180.3,278.7 182.2,278.3 184.5,277.7 186,277.3 188,276.7 189.5,276.3 191.5,275.7 193,275.3 195.3,274.7 197.2,274.3 199.5,273.7 200.8,273.3 202.7,272.7 204.5,272.2 206.5,271.5 208.5,271 210.5,270.3 212.3,269.8 214.2,269.2 215.5,268.8 217.5,268.2 219.5,267.5 221.3,266.8 222.7,266.3 224.5,265.8 226.5,265.2 229,264.3 230.3,263.8 232.2,263.2 233.5,262.7 235.8,261.8 237.5,261.2 239.2,260.5 240.5,260 242.5,259.3 244.3,258.8 246.5,258 248.2,257.3 250,256.7 251.5,256.2 252.8,255.7 254.7,255 256.5,254.3 258.5,253.7 260.3,253 262,252.3 264,251.5 265.7,250.8 267.3,250.2 268.7,249.7 270.7,249 272.7,248.3 274.8,247.5 276.7,246.7 278.2,246 280,245.3 281.3,244.8 283.5,244 285.2,243.3 287,242.7 287.8,242.3 289.7,241.7 291.5,241 294,240.2 295.3,239.7 297.2,238.8 298.5,238.3 300.5,237.7 301.8,237.2 303.7,236.5 305.5,235.8 307.8,235 309.5,234.3 311.2,233.7 312.8,233 314.7,232.3 316.3,231.7 318.3,230.8 320.3,230 322,229.3 323.7,228.8 325.2,228.3 327.2,227.7 329.2,226.8 331.3,226 332.8,225.3 334.2,224.8 335.5,224.3 337.5,223.7 338.8,223.2 340.7,222.5 342.5,221.8 345.2,221 347.2,220.2 348.7,219.5 350,219 351.5,218.5 353.5,217.8 354.8,217.3 356.7,216.7 358.5,216 360.8,215.2 362.5,214.5 364.2,213.8 366.2,213 368.3,212.2 369.8,211.5 371.2,211 372.5,210.5 374.5,209.8 376.5,209.2 378.3,208.5 380.2,207.8 382.2,207 384.3,206.2 385.8,205.5 387.2,205 388.5,204.5 390.8,203.7 392.5,203 394.2,202.3 395.5,201.8 397.5,201.2 399.3,200.5 401.2,199.8 402.5,199.3 404.8,198.5 406.5,197.8 408.5,197 409.7,196.5 411.5,195.8 413.5,195.2 415.7,194.3 417.3,193.8 419,193.2 420.8,192.5 422.5,191.8 424.2,191.2 425.5,190.7 427.8,189.7 429.5,189 431.2,188.3 432.5,187.8 434.5,187.2 436.3,186.5 438.2,185.8 440.2,185 442.2,184.2 443.7,183.5 445,183 446.5,182.5 448.3,181.8 450,181 451.7,180.3 453.3,179.7 455.3,178.8 457.3,177.8 459,177.2 460.3,176.7 461.7,176.2 463.8,175.2 466.2,174.2 468.5,173.2 470.7,172.2 472.3,171.5 474,170.8 475.8,170.2 477.8,169.2 479.8,168.3 481.7,167.5 483.2,166.8 484.7,166 486.2,165.3 487.7,164.7 489.2,164 490.5,163.3 491.8,162.8 494,162 496,161.2 498.3,160 499.8,159.2 501,158.7 502.7,158 504.3,157.3 506.7,156.2 508.2,155.3 510.3,154.2 511.8,153.5 513.3,152.8 515.2,152 517,151 518.8,150 520,149.3 521,148.8 522.7,148.2 524.3,147.5 526,146.7 528.2,145.5 530,144.5 531.8,143.7 533,143.2 534.3,142.5 535.8,141.7 537.8,140.5 539.5,139.5 541.2,138.5 543,137.7 544.8,136.8 546.7,136 547.3,135.5 548.8,134.7 550.3,133.8 552.5,132.7 554,131.8 555.7,131 557.2,130.3 559,129.5 561,128.3 562.7,127.3 563.8,126.5 565.3,125.7 566.7,124.8 569,123.5 570.7,122.5 572.3,121.5 573.2,121.2 573.8,120.8 575.8,119.8 577.7,118.7 579.7,117.5 580.8,116.8 582,116.2 583.8,115.2 585.2,114.3 587.5,113 589,112 591,110.8 592.5,109.8 594.2,108.8 595.3,108 597,107 598.5,106 600.2,105 601.2,104.3 602.8,103.3 604.3,102.5 606.2,101.5 607.3,100.8 608.7,100 610.2,99 611.8,98 614,96.5 615.5,95.5 616.8,94.5 618,93.7 619.2,92.8 620.8,91.8 622.5,90.8 624.2,89.8 625.8,88.7 627,88 628,87.3 628.5,87 629.3,86.5 631,85.3 632.7,84.2 634,83.2 635.2,82.3 636.3,81.7 637.3,80.8 637.7,80.7 638.7,79.8 640.3,78.8 643.2,77 645.2,75.7 647.2,74.3 648.2,73.7 649.2,73 651,71.7 652.7,70.2 654.5,68.7 655.2,68.2 656.5,67.3 658.3,66 660.7,63.3 662.3,61.3 663.5,54.8 663.3,48.7 661.2,40.7 658.2,37.7 655.5,35.3 654.3,34.8 653.3,34 651.7,33.2 650,32 648.5,31.3 647.2,30.7 645.8,30 644.2,29 642.5,28.2 641.2,27.5 640.2,27 639.7,26.7 639.2,26.3 638.8,26.2 637.8,25.7 636.8,25.2 635.8,24.7 635.5,24.3 634.7,24 634,23.5 633.3,23.2 632.7,22.7 631.8,22.3 631.2,21.8 630.8,21.7 630,21 629,20.5 627.8,19.7 627.2,19.3 626.5,18.8 626,18.5 625,17.8 624.2,17.2 623.3,16.5 623,16.2 622.5,15.8 621.3,15 620.2,14.2 619.2,13.3 618.8,13 618.5,12.7 617.7,12 616.8,11.3 616,10.3 615.3,9.5 614.7,8.8 613.8,8.2 613.2,7.5 612.5,6.7 612,6 611.2,5 610.3,3.8 609.5,2.8 609,2.3 608.7,2 608,1 607.5,0 606.8,-1 606.5,-1.5 606,-2.3 605.5,-3.2 605,-4.3 604.5,-5.2 604,-6.3 603.5,-7.2 603.2,-8.2 602.8,-9.3 602.3,-10.8 601.8,-12.2 601.3,-13 601.2,-13.5 601,-14 601,-14.5 600.7,-16 600.3,-17.5 600,-19 600,-19.5 600,-20.2 600,-21 600,-22.3 599.8,-23.7 599.7,-25 599.5,-26 599.5,-27.7 599.5,-29.3 599.5,-31 599.7,-32 599.8,-33 600,-33.8 600,-34.7 600,-35.3 600.2,-36.8 600.5,-38.3 600.8,-39.8 601,-40.5 601,-41 601.2,-41.5 601.5,-42.7 601.8,-43.8 602.3,-45.5 602.7,-46.5 603.2,-47.5 603.3,-48 603.7,-48.5 604.2,-49.7 604.8,-50.8 605.3,-52 605.7,-52.5 605.8,-53 606.5,-54 607.2,-55 607.8,-56 608.5,-56.8 609.2,-57.7 609.8,-58.5 610.2,-59 610.7,-59.7 611.2,-60.3 611.8,-61 612.3,-61.5 613.3,-62.3 614.3,-63.3 615.3,-64.2 616.5,-65 617.7,-65.8 619.2,-66.8 620.7,-67.8 622,-68.5 623,-69.2 623.7,-69.5 624.3,-69.8 625.5,-70.2 626.5,-70.5 627.5,-70.8 628,-71 629.2,-71.3 630.3,-71.7 631.5,-72 632.2,-72.2 633,-72.3 634,-72.5 635,-72.5 636,-72.5 637,-72.5 638,-72.5 639,-72.5 640,-72.5 641,-72.5 642,-72.5 643,-72.5 644,-72.5 645,-72.5 646.3,-72.5 647.7,-72.5 648.8,-72.5 649.8,-72.5 650.8,-72.5 652,-72.5 653,-72.5 654,-72.5 655,-72.5 656,-72.3 657,-72.2 658,-72 659,-72 659.8,-72 660.8,-72 661.8,-72 663,-72 664,-72 665,-72 666,-72 667,-72 668,-72 668.8,-71.8 669.5,-71.7 670.2,-71.5 671.7,-71.3 673.3,-71.2 675,-71 676,-71 677,-71 678,-71 679.7,-71.2 681.2,-71.3 682.5,-71.5 683,-71.5 683.5,-71.5 684.5,-71.7 685.5,-71.8 686.8,-72 687.8,-72 689.7,-72.2 691.2,-72.3 692.5,-72.5 693,-72.7 693.5,-72.8 694.8,-73.2 696.3,-73.3 697.8,-73.7 699.2,-74 700.7,-74.5 702.2,-75 703.3,-75.5 704.2,-76 705.3,-76.5 706.2,-76.8 707.3,-77.3 708.2,-77.7 709.5,-78.5 710.8,-79.5 712.2,-80.5 713.2,-81.3 713.8,-81.7 714.3,-82.2 714.7,-82.5 715.5,-83.2 716.7,-84 717.7,-84.8 718.7,-86.2 719.5,-87.2 720.3,-88.2 720.7,-88.5 721.5,-89.7 722.3,-90.8 723.8,-92.8 724.7,-94.2 725.7,-95.3 725.8,-95.7 726.3,-96.5 727.2,-98 728.5,-100.5 729.8,-103 730.8,-104.8 731.5,-105.8 732.2,-107 732.8,-108.2 733.7,-109.8 734.3,-110.7 735.5,-112.8 736.3,-114.3 737.2,-115.8 738.5,-118.2 740.3,-121.2 742.5,-124.7 744,-127 745.2,-128.5 746,-130.2 746.5,-130.8 747,-132.2 748,-134.5 748.7,-136.8 748.5,-141.7 747,-145.8 742.8,-151.3 737.8,-154.7 732.7,-158 730,-160.2 728.8,-161.8 728.2,-163 727.8,-166.8 727.7,-171 727.8,-175 728.2,-176.3 728.5,-177.8 728.8,-179.2 729,-180.5 729.2,-180.8 729.5,-181.7 729.8,-182.5 730,-183.5 730.2,-184.8 730.5,-186 730.8,-187.2 731,-187.5 731,-188 731.2,-188.5 731.7,-189.5 732.3,-191.2 732.8,-192.8 733.2,-194 733.3,-194.5 733.7,-195.7 734,-196.8 734.3,-198 734.5,-198.5 734.7,-198.8 735,-199.7 735.3,-200.5 735.7,-201.5 736,-202.5 736.3,-203.5 736.7,-204.5 737,-205.7 737.3,-206.8 737.7,-208 737.8,-208.5 738.2,-209.7 738.5,-210.8 739,-212.2 739.5,-213.3 740,-214.5 740.5,-216.2 740.8,-217.3 741.2,-218.5 741.3,-219.2 741.8,-220.5 743.2,-226.2 744.7,-232.5 745.5,-237.3 745.3,-239.5 744.8,-240.7 744.2,-243.8 743.3,-245.3 742.2,-247.3 740.2,-249.3 737.3,-251.5 734.5,-253.5 731.2,-254.5 728.8,-255.3 723.7,-256 719.7,-256.3 714.7,-256.7 712.7,-257 710.7,-257.3 709.3,-257.5 708,-257.5 707.2,-257.5 705.8,-257.5 704.5,-257.5 703.2,-257.5 702.2,-257.5 701.2,-257.5 700,-257.5 699.2,-257.5 698.2,-257.5 697.2,-257.5 696.2,-257.5 695.2,-257.5 694.2,-257.5 693,-257.5 692,-257.5 691.2,-257.5 690.5,-257.5 689.2,-257.7 687.7,-257.8 686.2,-258 685.2,-258 684.2,-258 683,-258 682,-258 680.7,-258 679.3,-258 678,-258 677.2,-258 676.2,-258 674.8,-258 673.3,-258 672.2,-258 671.2,-258.2 670.2,-258.3 668.8,-258.5 667.5,-258.5 666.2,-258.5 665,-258.5 663.7,-258.5 662.5,-258.5 661.5,-258.5 661,-258.5 659.7,-258.7 658,-258.8 656.2,-259 655,-259 653.7,-259 652.3,-259 651,-259 649.8,-259 648.5,-259 647.2,-259 645.7,-259 644.5,-259 643.2,-259 641.8,-259 640.5,-259 639.2,-259 637.8,-259 636.5,-259 635.2,-259 633.8,-259 632.5,-259 631,-259 630,-259 628.8,-259.2 627.3,-259.5 625.7,-259.8 623.7,-260 622.3,-260 620.7,-260 619.5,-260 617.8,-260 616.7,-260 615,-260 613.3,-260 611.7,-260 609.8,-260 608.7,-260 606.8,-260 605.5,-260 603.7,-260 602.2,-260 600.5,-260 599,-260.2 597.3,-260.3 595.7,-260.5 594.2,-260.5 593.2,-260.5 591.7,-260.7 589.7,-260.8 587.7,-261 585.8,-261 584.2,-261 582,-261 580.3,-261 578.8,-261 577.3,-261 575.7,-261 573.8,-261 572.2,-261.2 570.5,-261.3 569,-261.5 567.2,-261.5 565.7,-261.5 563.8,-261.5 562.5,-261.5 561,-261.5 559.3,-261.7 557.3,-261.8 555,-262 553.3,-262 551.7,-262 550,-262 548,-262 546.5,-262 545,-262.2 543.3,-262.3 541.7,-262.5 539.8,-262.5 538.5,-262.5 537,-262.5 535.3,-262.7 533.5,-262.8 531.3,-263 529.7,-263 528,-263 526.2,-263 524.2,-263 522.5,-263 520.8,-263 519.2,-263 517,-263.2 515.3,-263.3 513.8,-263.5 512.2,-263.5 510.7,-263.5 509.3,-263.5 507.7,-263.7 505.5,-263.8 503.5,-264 502,-264 500.3,-264 498.7,-264 497,-264 495.3,-264 493.2,-264 491.5,-264 489.8,-264 488.2,-264 486.2,-264.2 484.5,-264.3 482.8,-264.5 481.3,-264.5 480.2,-264.5 478.5,-264.7 476.7,-264.8 474.2,-265 472.7,-265 471,-265 469.3,-265 467.7,-265 466,-265 464.3,-265 462.7,-265 461,-265 459.5,-265.2 457.3,-265.3 455.7,-265.5 454.3,-265.5 452.8,-265.7 451,-265.8 449,-266 447.3,-266 445.7,-266 443.8,-266 442,-266 440.3,-266 438.7,-266 437,-266 435.3,-266 433.7,-266 432,-266 430.5,-266.2 429,-266.3 427.8,-266.5 426.7,-266.5 425,-266.7 422.8,-266.8 420.7,-267 419,-267 417.7,-267 415.8,-267 414,-267 412.5,-267 411,-267 409.5,-267 407.7,-267 406,-267.2 404.3,-267.3 402.7,-267.5 401.2,-267.5 400.2,-267.5 398.5,-267.7 396.3,-267.8 394.2,-268 392.7,-268 391.3,-268 389.7,-268 387.8,-268 386.3,-268 384.7,-268 383.2,-268 381.5,-268 379.8,-268 378.5,-268.2 376.8,-268.3 375.5,-268.5 374.2,-268.5 372.7,-268.7 371,-268.8 369,-269 367.2,-269 365.5,-269 363.7,-269 362.5,-269 360.8,-269 359.2,-269 357.5,-269 355.8,-269 354.7,-269.2 353,-269.3 351.5,-269.5 349.7,-269.5 348.2,-269.5 347.2,-269.5 345.5,-269.7 343.5,-269.8 341.5,-270 340,-270 338.7,-270 337,-270 335.2,-270 333.7,-270 332,-270 330.3,-270 328.7,-270.2 327,-270.3 325.7,-270.5 324.2,-270.5 323,-270.5 321.3,-270.7 319.3,-270.8 317.2,-271 315.3,-271 313.7,-271 311.8,-271 310.5,-271 308.8,-271 307.2,-271 305.3,-271 303.5,-271.2 301.8,-271.3 300.2,-271.5 298.7,-271.5 297,-271.5 295.5,-271.5 293.8,-271.5 292.7,-271.5 291,-271.5 289.3,-271.5 287.7,-271.5 286,-271.5 284.3,-271.5 282.7,-271.5 281,-271.5 279.5,-271.5 277.7,-271.5 276,-271.5 274.3,-271.5 273,-271.5 271.8,-271.5 270,-271.7 268.2,-271.8 265.8,-272 264.5,-271.8 262.8,-271.7 261.3,-271.5 259.7,-271.5 258,-271.5 256.3,-271.5 254.7,-271.5 253,-271.5 251.3,-271.5 249.7,-271.5 248,-271.3 246.5,-271.2 245,-271 243.3,-271 241.7,-271 239.8,-271 238.2,-271 236.5,-271 235,-271 233.3,-271 231.7,-271 230,-271 228.5,-271 226.8,-270.8 225.2,-270.7 223.5,-270.5 222.2,-270.5 221,-270.5 219.3,-270.8 217.3,-271.2 215.3,-271.5 213.7,-271.5 212,-271.5 210.3,-271.5 208.7,-271.5 207,-271.5 205.5,-271.5 203.8,-271.5 202.7,-271.5 200.8,-271.5 199.2,-271.5 197.5,-271.5 195.8,-271.5 194.5,-271.5 193.2,-271.5 191.7,-271.8 190,-272.2 188,-272.5 186.3,-272.5 184.7,-272.5 183,-272.5 181.3,-272.5 179.7,-272.5 178,-272.5 176.2,-272.5 174.5,-272.5 172.7,-272.5 171.3,-272.5 169.7,-272.5 168,-272.5 166.3,-272.7 165,-272.8 164,-273 162.5,-273.2 160.5,-273.3 158.2,-273.5 156.5,-273.5 154.8,-273.5 153.2,-273.5 151.5,-273.5 149.8,-273.5 148.2,-273.5 146.5,-273.5 145,-273.5 143.5,-273.5 141.7,-273.7 140,-273.8 138.2,-274 136.7,-274 135.3,-274 133.8,-274.2 132,-274.3 129.8,-274.5 127.8,-274.5 126.2,-274.5 124.7,-274.5 123.3,-274.5 121.7,-274.5 120,-274.5 118.3,-274.5 116.7,-274.5 114.7,-274.5 113,-274.5 111.3,-274.5 110,-274.7 108.3,-274.8 107,-275 105.8,-275 104,-275.2 102.2,-275.3 100,-275.5 98.5,-275.5 96.5,-275.5 94.7,-275.5 92.7,-275.5 91,-275.5 89.3,-275.5 87.8,-275.5 86,-275.5 84.5,-275.5 83,-275.7 81.5,-275.8 79.7,-276 78.2,-276 77,-276 75,-276.2 73.2,-276.3 71,-276.5 69.3,-276.5 67.7,-276.5 65.8,-276.5 64.2,-276.5 62.5,-276.5 60.8,-276.5 59.2,-276.5 57,-276.7 55.5,-276.8 54,-277 52.5,-277 50.7,-277 48.8,-277 47.3,-277 46,-277 44.3,-277.2 42.3,-277.3 40.2,-277.5 38.5,-277.5 36.7,-277.5 35,-277.5 33.2,-277.5 31.7,-277.7 29.8,-277.8 28,-278 26.5,-278 24.8,-278 23.2,-278 21.2,-278 19.8,-278 18.8,-278 17,-278.2 14.7,-278.3 12.5,-278.5 10.8,-278.5 9.2,-278.5 7,-278.7 5.5,-278.8 4,-279 2.8,-279 0.8,-279.2 -1,-279.3 -3.2,-279.5 -5,-279.5 -7,-279.5 -8.5,-279.5 -10,-279.5 -11.5,-279.5 -13.5,-279.5 -15.3,-279.7 -17.2,-279.8 -19.2,-280 -21,-280 -22.7,-280 -23.8,-280 -25,-280 -27,-280.2 -29.3,-280.3 -31.5,-280.5 -33,-280.5 -34.5,-280.5 -36.5,-280.5 -38.3,-280.5 -40.2,-280.5 -42,-280.5 -44,-280.7 -46,-280.8 -47.5,-281 -49,-281 -50.2,-281 -52.2,-281.2 -54,-281.3 -56.2,-281.5 -58,-281.5 -60,-281.5 -61.8,-281.5 -63.5,-281.5 -65.2,-281.5 -67,-281.5 -69.2,-281.5 -71.2,-281.5 -72.7,-281.5 -74,-281.5 -75.5,-281.7 -77.2,-281.8 -79.2,-282.2 -81,-282.3 -83.2,-282.5 -85,-282.5 -86.8,-282.5 -88.8,-282.5 -90.5,-282.5 -92.3,-282.5 -94,-282.5 -96,-282.5 -98,-282.5 -99.5,-282.5 -100.7,-282.5 -102.2,-282.7 -104.3,-283 -106.8,-283.3 -108.5,-283.5 -110,-283.5 -111.5,-283.5 -113.5,-283.5 -116,-283.5 -118.5,-283.5 -120.8,-283.5 -122.3,-283.5 -124.2,-283.7 -126,-283.8 -128.2,-284 -130,-284.2 -131.8,-284.3 -133.8,-284.5 -135.3,-284.5 -137.2,-284.5 -138.8,-284.5 -141,-284.5 -143,-284.5 -145,-284.5 -146.5,-284.5 -147.7,-284.5 -149.3,-284.7 -151.5,-284.8 -153.8,-285.2 -155.5,-285.3 -157.2,-285.5 -159.2,-285.5 -161.2,-285.5 -163.2,-285.5 -164.8,-285.5 -166.5,-285.5 -168.2,-285.5 -170,-285.5 -172,-285.5 -173.7,-285.5 -174.8,-285.5 -176.5,-285.7 -178.5,-286 -181,-286.3 -182.8,-286.5 -184.7,-286.5 -186.3,-286.5 -188.2,-286.5 -190,-286.5 -191.8,-286.5 -193.7,-286.5 -195.7,-286.5 -197.5,-286.5 -199.3,-286.5 -201,-286.5 -202.7,-286.5 -204,-286.5 -205.7,-286.7 -207.7,-286.8 -210,-287.2 -212,-287.3 -214,-287.5 -215.8,-287.5 -217.5,-287.5 -219.2,-287.5 -221,-287.5 -223,-287.5 -225,-287.5 -226.8,-287.5 -228.5,-287.5 -229.8,-287.5 -231,-287.5 -233,-287.7 -235.3,-287.8 -237.5,-288.2 -239,-288.3 -240.7,-288.5 -242.8,-288.5 -245,-288.5 -246.5,-288.5 -248.2,-288.5 -249.7,-288.5 -251.7,-288.5 -253.5,-288.5 -255.3,-288.5 -257.2,-288.5 -259,-288.5 -260.7,-288.5 -262,-288.7 -264,-289 -266,-289.3 -268.3,-289.5 -270,-289.5 -272,-289.5 -273.5,-289.5 -275,-289.5 -276.7,-289.5 -278.8,-289.5 -281,-289.5 -282.7,-289.5 -284.3,-289.5 -286,-289.7 -288,-289.8 -290,-290 -291.5,-290 -292.7,-290 -294.2,-290.2 -296,-290.3 -298.3,-290.5 -300.2,-290.5 -302,-290.5 -303.7,-290.5 -305.5,-290.5 -307.3,-290.5 -309.2,-290.7 -311,-290.8 -313,-291 -315,-291 -316.5,-291 -318,-291 -319.5,-291 -321.5,-291 -323.5,-291 -325,-291 -326.2,-291 -327.8,-291.2 -330,-291.3 -332.3,-291.5 -334.3,-291.5 -336.2,-291.5 -338.2,-291.5 -340.2,-291.5 -341.8,-291.7 -343.3,-291.8 -344.7,-292 -346.5,-292 -348.3,-292 -350.2,-292 -351.7,-292 -353,-292 -354.8,-292.2 -356.8,-292.3 -359.2,-292.5 -361,-292.5 -363,-292.5 -364.5,-292.5 -366,-292.7 -367.5,-292.8 -369.5,-293 -371.5,-293 -373.3,-293 -375,-293 -376.3,-293 -378.2,-293.2 -380.2,-293.3 -382.3,-293.5 -384.2,-293.5 -386,-293.5 -387.5,-293.7 -389,-293.8 -390.5,-294 -392.7,-294 -394.3,-294 -396.7,-294 -398.8,-294 -401.3,-294 -402.8,-294 -404,-294 -405.8,-294.2 -407.8,-294.3 -410.2,-294.7 -412,-294.8 -414,-295 -415.5,-295 -417.2,-295 -418.8,-295 -420.8,-295 -422.7,-295 -424.3,-295 -426,-295 -427.5,-295 -428.8,-295 -430,-295 -431.8,-295.2 -433.8,-295.3 -436,-295.5 -437.7,-295.5 -439.3,-295.5 -441,-295.5 -442.8,-295.5 -444.8,-295.5 -446.5,-295.5 -448,-295.5 -449.7,-295.5 -451.5,-295.5 -453.3,-295.7 -454.8,-295.8 -456.2,-296 -457.2,-296 -458.8,-296.2 -460.8,-296.3 -463.2,-296.5 -465,-296.5 -466.7,-296.5 -468.3,-296.5 -469.8,-296.5 -471.5,-296.5 -473,-296.5 -474.5,-296.5 -476,-296.5 -477.8,-296.7 -479.5,-296.8 -481.3,-297 -482.7,-297 -484,-297 -484.8,-297 -486.5,-297.2 -488.5,-297.3 -490.7,-297.5 -492.3,-297.5 -493.7,-297.5 -495.3,-297.5 -496.7,-297.5 -498.3,-297.5 -499.5,-297.5 -501.2,-297.5 -502.5,-297.7 -504,-297.8 -504.8,-298 -506.5,-298.2 -508,-298.3 -509.8,-298.5 -511,-298.5 -512.5,-298.5 -514.2,-298.5 -515.7,-298.5 -517,-298.5 -518.2,-298.5 -519.5,-298.5 -520.8,-298.5 -522,-298.5 -523,-298.5 -524.3,-298.5 -525.7,-298.5 -527,-298.7 -527.8,-298.8 -528.5,-299 -529,-299 -529.5,-299 -530.8,-299.2 -532.3,-299.3 -534.3,-299.5 -535.7,-299.5 -536.8,-299.5 -537.8,-299.5 -538.8,-299.5 -540.3,-299.5 -541.7,-299.5 -543,-299.5 -544.3,-299.5 -546,-299.5 -548,-299.5 -549.3,-299.7 -550.3,-299.8 -552.8,-299.8 -559.2,-298.5 -565.3,-297 -570.2,-294.5 -571.7,-292.7 -573.3,-289.5 -574.2,-285.2 -574.3,-281.3 -573.3,-276.8 -571.7,-273.7 -569.5,-269.3 -567.8,-267 -566.8,-265.5 -566.2,-264.8 -565.5,-264.2 -564.8,-263.5 -563.2,-262 -561,-260 -558,-257.7 -556.3,-256.3 -555.3,-255.7 -555,-255.5 -554.7,-255.3 -554.3,-255.2 -553.8,-254.7 -553.2,-254.3 -552,-253.3 -551,-252.7 -550,-251.8 -549.5,-251.7 -548.3,-250.8 -547.2,-250.2 -546,-249.3 -544.8,-248.5 -543.7,-247.7 -542.3,-246.7 -541,-245.8 -539.7,-244.8 -537.8,-243.7 -536.7,-243 -535.5,-242.3 -535,-242 -534.5,-241.7 -534,-241.3 -533.3,-240.8 -532,-239.8 -530.7,-238.8 -529.5,-238 -528.5,-237.3 -527.5,-236.7 -526.5,-236 -525.5,-235.3 -524.3,-234.7 -523.2,-234 -521.8,-233.2 -520.7,-232.3 -519.5,-231.5 -519,-231.2 -517.7,-230.3 -516.3,-229.5 -515,-228.7 -514.5,-228.3 -513.2,-227.5 -511.8,-226.7 -510.5,-225.8 -510,-225.5 -508.8,-224.5 -507.7,-223.7 -506.2,-222.7 -505.3,-222.2 -504.3,-221.7 -503.2,-221 -502,-220.3 -500.5,-219.2 -499.5,-218.5 -498.5,-217.8 -497.3,-217.3 -496.2,-216.7 -494.5,-215.8 -493.5,-215.3 -492.5,-214.8 -492,-214.7 -490.5,-213.8 -489,-213.2 -487.5,-212.3 -487,-212.2 -485.7,-211.5 -484.3,-211 -483,-210.3 -481.8,-210 -480.7,-209.7 -478.8,-209.2 -477.7,-208.8 -476.5,-208.5 -476,-208.3 -474.5,-208 -473,-207.7 -471.5,-207.5 -471,-207.3 -469.2,-207 -467.2,-206.7 -465.2,-206.5 -464.2,-206.5 -463.3,-206.5 -461.7,-206.2 -460,-205.8 -457.8,-205.5 -456.3,-205.5 -455,-205.5 -453,-205.8 -451.2,-206.2 -449.5,-206.5 -449,-206.5 -448.2,-206.5 -447.2,-206.5 -445.2,-206.8 -443.3,-207.2 -441.7,-207.5 -441,-207.5 -439.5,-207.8 -438,-208.2 -436.5,-208.7 -436,-208.8 -434.2,-209.3 -432.3,-209.8 -430.5,-210.3 -429.8,-210.7 -428.2,-211.2 -426.5,-211.8 -424.7,-212.5 -423.3,-213.2 -422,-213.7 -421,-214.2 -420.3,-214.3 -418.8,-215 -417.3,-215.5 -415.7,-216.3 -414.3,-217 -413,-217.7 -412,-218.2 -410.3,-219 -408.7,-219.8 -407,-220.7 -406.5,-220.8 -405.8,-221.2 -404.5,-221.8 -403.2,-222.5 -401.8,-223.2 -400.2,-224 -398.5,-224.8 -397,-225.7 -396.3,-225.8 -395.3,-226.3 -394.2,-226.8 -392.5,-227.7 -391.2,-228.3 -389.8,-229 -388.5,-229.7 -387.2,-230.3 -385.5,-231.2 -384.5,-231.7 -383.2,-232.3 -381.8,-233 -380.5,-233.7 -378.7,-234.5 -377.3,-235.2 -376,-235.8 -375,-236.3 -373.7,-237 -371.8,-237.8 -370.5,-238.5 -369.5,-239 -368.2,-239.7 -366.8,-240.3 -365,-241.2 -364,-241.7 -362.3,-242.3 -360.8,-243 -359.3,-243.7 -358.3,-244.2 -356.7,-244.8 -354.8,-245.7 -353.2,-246.5 -352.3,-246.8 -351.2,-247.3 -349.7,-248 -348.2,-248.7 -347.2,-249.2 -345.5,-249.7 -344,-250.3 -342.3,-250.8 -341.2,-251.3 -339.5,-252 -338,-252.7 -336.8,-253.2 -335.5,-253.5 -334,-254 -332.2,-254.5 -330.8,-254.8 -329.7,-255.2 -328.2,-255.5 -326.8,-256 -324.8,-256.5 -323.7,-257 -321.7,-257.5 -320.3,-257.8 -318.8,-258.2 -317.5,-258.5 -316,-259 -314.7,-259.3 -313.2,-259.7 -311.8,-260 -310.3,-260.3 -309.7,-260.5 -307.8,-260.7 -306.2,-261 -304.3,-261.3 -303.7,-261.5 -302.5,-261.5 -300.5,-261.8 -298.3,-262.2 -296.5,-262.5 -295.7,-262.5 -294.5,-262.5 -293.3,-262.5 -291.8,-262.7 -290.5,-262.8 -288.2,-263.2 -286.2,-263.3 -284.3,-263.5 -283.3,-263.5 -282.2,-263.5 -280.7,-263.5 -279.3,-263.5 -277.7,-263.5 -276.3,-263.5 -274.7,-263.5 -273.3,-263.5 -271.7,-263.5 -270.2,-263.5 -268.5,-263.5 -267,-263.5 -265.5,-263.5 -263.8,-263.5 -262.5,-263.5 -261,-263.5 -260,-263.5 -258.8,-263.5 -257,-263.3 -255,-263.2 -252.7,-262.8 -251.3,-262.7 -250,-262.5 -249.2,-262.5 -248.3,-262.5 -246.7,-262.2 -244.8,-261.8 -243.2,-261.5 -242.3,-261.5 -240.5,-261.3 -238.7,-261 -236.8,-260.7 -236.2,-260.5 -234.7,-260.2 -233.3,-259.8 -231,-259.3 -229.5,-259 -227.8,-258.7 -227.2,-258.5 -225.7,-258.2 -224.3,-257.8 -222.8,-257.5 -221.7,-257.2 -219.7,-256.7 -217.8,-256 -216.3,-255.7 -215,-255.2 -213.7,-254.8 -211.8,-254.2 -210.7,-253.8 -209,-253.2 -207.8,-252.8 -206.2,-252.2 -204.8,-251.8 -203.7,-251.3 -202.5,-251 -201,-250.3 -198.8,-249.5 -197.2,-248.8 -195.8,-248.3 -195.2,-248 -193.7,-247.3 -192.3,-246.7 -190.8,-246 -189.5,-245.3 -187.7,-244.5 -185.8,-243.7 -184.7,-243.2 -183.8,-242.8 -183.2,-242.5 -181.7,-241.7 -180.2,-240.8 -178.7,-240 -177.2,-239.2 -175.8,-238.5 -174.5,-237.8 -173.3,-237.2 -171.8,-236.2 -170.2,-235.2 -169.2,-234.7 -168,-234 -166.5,-233.2 -165,-232.2 -163.5,-231.2 -162,-230.3 -160.5,-229.5 -159.5,-229 -158.3,-228.2 -156.8,-227.2 -155.2,-226.2 -154.2,-225.7 -153,-225 -151.8,-224.3 -150.2,-223.2 -148.7,-222.2 -147.2,-221.2 -146.2,-220.7 -145,-220 -144.5,-219.8" style="stroke: rgb(55, 65, 81); stroke-width: 10;"></polygon><polyline vector-effect="non-scaling-stroke" fill="none" points="-140.8,-217.5 -140.5,-217.3 -140,-217 -138.8,-216.2 -137.3,-215.2 -135.8,-214.2 -134.5,-213.5 -133.5,-213 -132.5,-212.5 -132,-212.2 -130.8,-211.3 -129.3,-210.3 -127.8,-209.3 -126.7,-208.7 -125.7,-208.2 -124.7,-207.7 -124,-207.3 -122.7,-206.5 -121.3,-205.7 -120,-204.8 -119.3,-204.5 -118,-203.5 -116.7,-202.7 -115.2,-201.7 -114.2,-201.2 -112.7,-200.2 -111.5,-199.5 -110.5,-198.8 -109.3,-198.2 -107.8,-197.2 -106.3,-196.2 -105.5,-195.7 -104.3,-195 -102.8,-194.2 -101,-193 -99.8,-192.3 -98.5,-191.7 -97.5,-191.2 -96.5,-190.5 -95.8,-190 -94.2,-189 -92.5,-188 -91,-187 -90.3,-186.5 -88.8,-185.5 -87.3,-184.7 -85.8,-183.8 -85.2,-183.5 -83.7,-182.5 -82.2,-181.5 -80.7,-180.7 -79.5,-180 -78.3,-179.3 -76.7,-178.2 -75.2,-177.2 -73.7,-176.3 -72.7,-175.8 -71.5,-175.2 -70,-174.2 -68.5,-173.2 -67.5,-172.5 -66.3,-171.8 -65.2,-171.2 -63.5,-170.2 -62,-169.2 -60.2,-168 -58.7,-167.3 -57.7,-166.8 -56.3,-166.2 -55,-165.3 -53.7,-164.5 -52.2,-163.5 -50.8,-162.7 -49.2,-161.7 -47.8,-161 -46.5,-160.2 -44.8,-159.2 -43.3,-158.2 -41.8,-157.2 -40.8,-156.7 -39.7,-156 -38.3,-155.3 -37.2,-154.5 -35.8,-153.5 -34.2,-152.3 -32.2,-151 -30.7,-150.3 -29.3,-149.7 -28.2,-149.2 -27.2,-148.5 -25.8,-147.5 -24.5,-146.5 -22.5,-145.2 -21,-144.3 -19.7,-143.7 -18.5,-143 -17,-142.2 -15.5,-141.2 -13.8,-140.2 -12.3,-139.2 -10.3,-138 -9,-137.2 -8,-136.7 -7.3,-136.3 -6.7,-136 -4.5,-134.7 -2.5,-133.3 -0.5,-132 0.2,-131.5 1.3,-130.8 2.7,-130.2 4.3,-129.2 5.8,-128.2 7.7,-127 9,-126.2 10.2,-125.5 11.3,-124.8 12.5,-124.2 13.7,-123.5 15.2,-122.5 16.8,-121.5 18.3,-120.5 19.5,-119.7 20.7,-119 22.8,-117.8 24.7,-117 26.3,-116 27,-115.5 27.7,-115 29,-114.2 30.5,-113.3 32.5,-112.2 33.8,-111.3 35.2,-110.5 36.3,-109.7 37.5,-109 38.7,-108.3 40.2,-107.5 41.8,-106.5 43.3,-105.5 44.5,-104.8 45.7,-104.2 47.3,-103.2 48.8,-102.2 50.7,-101 52,-100.2 53.2,-99.7 54.3,-99 55.8,-98.2 57.7,-97 59,-96.2 60,-95.5 60.7,-95.2 61.3,-94.8 63,-93.8 64.8,-92.5 67,-91 68.3,-90.3 69.3,-89.8 70.5,-89.2 72,-88.2 73.8,-87 75.3,-86.2 76.3,-85.7 77,-85.3 78.8,-84.3 80.7,-83.2 82.5,-82 83.2,-81.7 83.8,-81.3 85.2,-80.5 86.8,-79.3 88.8,-78 90.2,-77.3 91.2,-76.8 92.3,-76.2 94,-75.2 95.5,-74.2 96.5,-73.5 97.7,-72.8 98.8,-72.2 100.7,-71.2 102,-70.3 103.3,-69.5 104,-69.2 105.5,-68.3 107,-67.5 108.5,-66.5 110,-65.5 111.5,-64.7 113,-63.8 113.7,-63.5 115.2,-62.5 116.7,-61.5 118.2,-60.7 119.3,-60 120.8,-59.2 122.3,-58.2 123.3,-57.5 124.5,-56.8 125.7,-56.2 127.3,-55.2 128.8,-54.2 130.3,-53.2 131.3,-52.7 132.5,-52 134,-51.2 135.8,-50 137.2,-49.2 138.2,-48.7 139.3,-48 140.5,-47.3 142.2,-46.2 143.5,-45.3 144.8,-44.7 145.5,-44.3 146.7,-43.7 147.8,-42.8 149.5,-41.8 150.5,-41.2 152.2,-40.2 153.7,-39.2 155.2,-38.3 156,-37.8 157.2,-37.2 158.7,-36.2 160.2,-35.3 161.3,-34.7 162.2,-34.2 163.2,-33.7 164.3,-33 165.8,-32.2 167.2,-31.2 168,-30.7 168.5,-30.3 170,-29.5 171.5,-28.5 173,-27.7 173.5,-27.3 174.5,-26.8 175.5,-26.2 176.5,-25.5 177.5,-24.8 178.8,-24 180.2,-23.3 181.5,-22.5 182.5,-22 184.2,-20.8 185.3,-20.2 186.3,-19.3 186.7,-19.2 187.7,-18.3 188.8,-17.7 189.8,-16.8 190.2,-16.7 190.3,-16.3 190.8,-16 191.2,-15.5 191.8,-15 192.2,-14.5 192.7,-14.2 193.5,-13 194.7,-11.5 196,-9.7 196.7,-8.7 197.2,-7.8 197.3,-7.2 197.7,-6.7 198,-5.5 198.3,-4.3 198.7,-2.7 198.8,-1.5 199,-0.2 199,1 199,2 198.8,3.8 198.5,5.7 198,7.5 197.7,8.5 197.3,9.2 197,10 196.7,10.7 196.3,11.3 196.2,11.7 195.8,11.8 195.7,12.2 195.2,13 194.7,13.8 194.2,14.7 193.8,14.8 193.7,15.2 193.3,15.3 193.2,15.7 192.8,15.8 192.5,16.3 192,16.7 191.5,17.3 191,17.7 190.5,18.3 190,18.7 189.5,19.3 189,19.7 188.5,20.3 188,20.7 187,21.7 186,22.3 184.5,23.7 183.5,24.3 182.2,25.5 181.3,26 179.7,27.3 178.2,28.3 176.2,30 175,30.8 174,31.7 173.7,32 173.3,32.3 172.3,33.2 171.2,33.8 169.8,34.8 169,35.3 168.3,36 167.8,36.5 167,37.3 166,38.2 164.8,39.2 164.2,39.7 163.3,40.3 162.7,40.7 162,41.2 161.7,41.5 160.8,42.2 159.8,43 158.5,44 157.5,44.8 156.5,45.7 155.7,46.3 154.7,47.2 153.8,47.8 153,48.7 152.5,49.2 151.8,49.8 151,50.5 150,51.3 149,52.2 148,53 146.7,54.5 145.5,55.8 144.3,57.2 143.7,58 142.8,59 141.8,60.2 141,61.2 140.3,62 140,62.5 139.5,63.2 138.5,64.7 137.7,66.2 136.8,67.5 136.7,68 136.3,68.5 135.8,69.5 135.2,70.5 134.7,71.5 134,72.7 133.5,73.8 133,75 132.8,75.8 132.3,77.3 131.8,78.8 131.5,80.2 131.3,81.5 131.2,83.2 131,84.8 131,85.8 131,86.8 131,87.7 131,88.8 131,89.8 131,91 131,92.3 131.2,94.3 131.3,96.2 131.5,97.5 131.5,98 131.7,98.5 132,99.8 132.3,101.2 132.5,102.5 132.7,103.2 132.8,104 133.2,105.7 133.3,107.2 133.5,108.5 133.7,109 133.8,109.8 134.2,111.5 134.3,113.2 134.7,114.5 134.8,115 135,115.8 135,116.7 135,117.8 135,118.8 135,120 135.2,121.3 135.3,122.5 135.5,123.8 135.5,125.2 135.5,126.7 135.5,127.8 135.5,128.8 135.5,130.2 135.3,131.7 135.2,132.8 135,134.2 135,135.5 135,136.8 135,137.5 135,138.2 134.7,139.7 134.3,141.2 134,142.7 134,143.3 133.7,144.5 133.3,145.7 132.8,147.5 132.5,148.8 132.2,150.2 131.8,151.3 131.5,152.5 131,154.2 130.5,155.3 130.2,156.5 129.7,157.5 129.3,158.7 128.8,159.8 128.5,160.5 127.8,161.7 127,163.2 126,165.2 125.3,166.5 124.8,167.7 124.5,168.3 124.2,169 123.8,169.5 123,170.7 121.8,172.3 120.8,174 120.3,175 120,175.5 119.3,176.2 118,177.8 116.7,179.5 115.5,181 115,181.5 114.3,182.2 113.5,183 112.5,184 111.5,185 110.5,186 109.5,187 108.5,188 107.5,189 106.5,189.8 105.8,190.5 104.5,191.5 103.2,192.7 101.7,193.7 101,194.2 100,194.8 98.8,195.7 97.2,196.8 96,197.7 95,198.3 94,198.8 92.5,199.7 90.8,200.8 89.5,201.8 88.7,202.3 88,202.7 86.8,203.3 85.5,204 83.8,204.8 82.7,205.3 81,206.3 79.7,207 78,207.8 76.5,208.7 75,209.5 73.8,210.2 73.2,210.5 72.5,210.8 71.3,211.3 70.2,211.8 68,212.7 66.5,213.3 64.5,214 63.2,214.7 61.8,215.3 60.8,215.8 59.7,216.3 58.3,216.7 56.7,217.3 55.3,217.7 53.7,218.3 52.3,218.7 50.7,219.3 49,219.8 47.5,220.5 45.8,221 44.7,221.5 42.8,222 41.7,222.5 40.3,222.8 39,223.2 37.5,223.5 35.7,224 34.3,224.5 32.3,225 30.8,225.3 29.3,225.5 28.7,225.7 27.5,225.8 25.7,226.2 23.7,226.5 22.2,226.8 20.7,227.2 19.2,227.3 17.7,227.7 15.8,228 14.2,228.3 12.3,228.5 11.7,228.7 10.5,228.8 9,229 6.7,229.2 4.7,229.3 3.2,229.5 2.3,229.7 1.3,229.8 -0.2,230 -1.5,230 -3.2,230 -4.7,230 -6.5,230 -8.8,230.2 -10.8,230.3 -12.7,230.5 -13.3,230.5 -14.5,230.5 -15.7,230.5 -17.3,230.5 -18.7,230.5 -20.2,230.5 -21.5,230.5 -23.2,230.5 -24.5,230.5 -25.7,230.5 -27.3,230.3 -29.2,230.2 -31.2,230 -32.5,230 -34.2,230 -35.5,229.8 -37,229.7 -38,229.5 -39.2,229.5 -40.5,229.3 -42.3,229.2 -44.3,229 -45.8,228.8 -46.8,228.7 -48.3,228.3 -50,228.2 -52,227.8 -53.2,227.7 -54.2,227.5 -55.7,227.3 -57.3,227 -58.8,226.7 -60.3,226.3 -61.7,226 -63.2,225.7 -64.5,225.3 -66,225 -67.3,224.7 -68.5,224.3 -70.3,223.8 -72.2,223.3 -73.7,222.8 -74.3,222.7 -75.7,222.2 -76.8,221.8 -78.7,221.3 -79.8,221 -81.7,220.5 -82.8,220 -84.5,219.5 -85.7,219 -87.3,218.5 -88.7,218 -90.3,217.3 -91.5,216.8 -92.7,216.3 -93.7,216 -95.2,215.3 -96.5,214.8 -97.8,214.2 -99.3,213.5 -100.8,212.8 -102,212.3 -103.3,211.8 -104.7,211.2 -106.2,210.5 -107.5,209.8 -108.8,209.2 -110.5,208.3 -112,207.7 -113.5,207 -114.7,206.5 -115.3,206.2 -116.7,205.5 -118,204.8 -119.7,204 -120.7,203.5 -121.7,203 -123.2,202 -124.7,201.2 -126.2,200.3 -127.5,199.7 -128.8,199 -130.5,198.2 -131.5,197.7 -132.5,197 -133,196.5 -134.5,195.7 -136,194.8 -137.8,193.8 -138.8,193.2 -139.8,192.7 -141.3,191.8 -142.8,191 -144.3,190 -145.8,189 -147.2,188.2 -148.8,187.2 -149.8,186.7 -151.3,185.7 -152.5,184.8 -154,183.8 -155,183.3 -157,182.3 -158.5,181.5 -160,180.5 -161.2,179.7 -162.3,179 -164.3,178 -165.7,177.3 -167,176.5 -167.7,176 -169.2,175 -170.8,174 -172.7,173 -173.8,172.5 -175.3,171.7 -177,170.7 -178.5,169.7 -179.5,169 -180.7,168.3 -182.2,167.5 -184.2,166.5 -185.5,165.7 -187.2,164.7 -188.3,163.8 -189.7,163 -191.2,162.2 -192.7,161.3 -194.2,160.5 -195.3,159.7 -196.7,158.8 -198.5,157.7 -200,156.8 -201.7,156 -202.8,155.5 -203.8,155 -205.5,154 -207,153 -209.2,151.7 -210.3,150.8 -211.5,150.2 -212.7,149.5 -214.2,148.7 -216.2,147.5 -217.5,146.7 -218.7,146 -220.2,145 -221.8,144 -223.3,143.2 -224.2,142.8 -225.5,142 -227.3,140.8 -229.3,139.5 -231.2,138.5 -232.5,137.7 -233.5,137 -234.8,136 -236.2,135 -238,134 -239.3,133.3 -240.8,132.7 -241.8,132 -243.5,131 -245,130 -246.7,129 -248,128 -249.5,127 -251.5,125.7 -252.8,125 -254.2,124.3 -255.3,123.7 -256.7,122.8 -258.3,121.7 -260,120.7 -261.5,119.7 -263,118.8 -264,118.2 -266,117 -267.5,116 -269.2,115.2 -270.3,114.5 -271.7,113.8 -272.8,113 -274.5,112 -276,111 -278,109.8 -279,109.2 -280,108.5 -281.7,107.3 -283.3,106.3 -285.2,105.3 -286.3,104.7 -288,103.7 -289.5,102.7 -291.2,101.7 -292.3,100.8 -294.2,99.7 -295.3,98.8 -297.3,97.8 -298.7,97.2 -300,96.5 -300.7,96 -302,95 -303.8,93.8 -305.5,92.7 -307,92 -308.3,91.3 -309.7,90.7 -310.7,90 -312.2,89 -313.8,88.2 -315.3,87.3 -316,87 -316.5,86.7 -318.2,85.7 -319.8,84.7 -321.8,83.5 -322.7,83 -323.8,82.3 -324.8,81.8 -326.5,81 -327.8,80.5 -329,79.8 -329.5,79.5 -330.7,78.8 -332,78.2 -333.3,77.7 -334.8,77 -336.2,76.5 -337.5,76 -338,75.8 -339.7,75.3 -341.3,74.7 -343,74.2 -343.5,74 -344.7,73.7 -345.8,73.3 -347.2,73 -348.5,72.7 -349.8,72.3 -351,72 -351.5,72 -352.8,71.8 -354.5,71.5 -356.2,71.2 -357,71 -357.5,71 -358.8,70.8 -360.3,70.7 -362.3,70.5 -363.5,70.5 -364.8,70.5 -365.7,70.5 -366.8,70.5 -367.8,70.5 -369.2,70.5 -370.5,70.5 -371.7,70.5 -372.8,70.5 -373.7,70.5 -374.8,70.5 -376.2,70.5 -377.5,70.5 -378.8,70.5 -380.5,70.7 -382.2,70.8 -383.7,71 -384.3,71.2 -385,71.3 -386.5,71.7 -388.2,71.8 -389.8,72 -390.5,72.2 -391.8,72.5 -393.3,72.8 -394.8,73.2 -396.2,73.5 -397.3,73.8 -399.2,74.3 -400.3,74.7 -401.5,75.2 -402.7,75.5 -403.8,76 -405.5,76.5 -407,77.2 -408.5,77.7 -409.5,78.2 -411.2,78.8 -412.8,79.7 -414.5,80.3 -415.5,80.8 -416.8,81.5 -418.2,82.2 -419.5,82.8 -421.2,83.8 -422.8,85 -424,86 -425,86.5 -426,87 -427.7,88 -428.8,89 -430.2,90 -431.3,90.8 -432.5,91.7 -434,92.8 -435.2,93.8 -436.8,95.2 -438,96.2 -439,97 -440,97.8 -441.3,98.8 -442.7,99.7 -443.5,100.2 -444.8,101.2 -446.3,102.3 -447.8,103.5 -448.5,104 -449.3,104.7 -450.7,105.5 -452.5,106.7 -454.2,107.8 -455.5,108.7 -456.3,109.2 -457.5,109.7 -458.5,110.3 -459.5,110.8 -461,111.5 -462.5,112.2 -464.5,113 -465.5,113.5 -467.2,114 -468.7,114.7 -470.3,115.2 -471.3,115.7 -472.7,116 -473.8,116.5 -475.8,117 -477.2,117.3 -478.7,117.7 -479.3,117.8 -481.2,118.2 -482.8,118.5 -484.7,118.8 -485.3,119 -486.5,119 -487.5,119.2 -489.2,119.3 -490.3,119.5 -492,119.5 -493.3,119.5 -495.2,119.5 -496.5,119.5 -498.2,119.5 -499.3,119.5 -501.2,119.5 -502.3,119.5 -503.7,119.5 -504.3,119.3 -506,119 -507.8,118.7 -509.8,118.5 -510.8,118.5 -512.5,118.2 -514,117.8 -515.5,117.5 -516.2,117.3 -517.5,117 -519,116.5 -520.3,116.2 -521.5,115.7 -522.7,115.3 -523.8,114.8 -524.8,114.5 -526.3,113.8 -527.8,113.3 -529.5,112.7 -530.7,112.2 -531.8,111.7 -532.5,111.3 -534,110.5 -535.5,109.5 -537,108.7 -537.5,108.3 -538,108 -539.5,107 -541,106.2 -542.5,105.3 -543,105 -543.7,104.3 -544.5,103.5 -546.2,102.2 -547.7,101 -549,100.2 -549.5,99.8 -550.7,99 -551.8,98 -553,97 -553.7,96.3 -554.5,95.5 -555.5,94.5 -556.5,93.5 -557.5,92.5 -558.5,91.5 -559.5,90.5 -560.5,89.5 -562,88.2 -563.3,87 -564.5,86 -565,85.5 -565.7,84.8 -566.3,84.2 -567,83.5 -567.8,82.5 -569,81.2 -570.3,79.7 -571.5,78.5 -572.5,77.5 -573.3,76.7 -574.5,75.7 -575.7,74.8 -577,73.8 -578.5,72.7 -579.8,71.5 -581,70.5 -581.5,70 -582.2,69.3 -583,68.7 -584.5,67.5 -586,66.5 -587.8,65.2 -589,64.5 -590,63.8 -591,63.2 -592,62.3 -593.8,61.3 -595.2,60.7 -596.8,59.8 -598.2,59.2 -599.7,58.5 -600.8,58.2 -601.8,57.7 -603.3,57 -605,56.3 -606.3,55.8 -607.5,55.5 -608.7,55.2 -610.7,54.7 -612.2,54.3 -613.7,53.8 -614.3,53.7 -615.7,53.3 -617,53.2 -618.3,52.8 -619.7,52.5 -621.3,52.2 -623,52 -624,52 -625.5,51.7 -627,51.3 -629.2,51 -630.3,51 -631.8,51 -633.2,51 -634.5,51 -635.8,51 -637.2,51 -638.5,51 -640.8,51.2 -642.7,51.5 -644.5,51.8 -645.2,52 -646,52 -646.8,52 -648.7,52.3 -650.3,52.7 -652.2,53 -652.8,53 -654.5,53.3 -656.2,53.7 -657.8,54 -659.2,54.3 -660.5,54.7 -662.3,55.2 -663.7,55.5 -664.8,55.8 -666.2,56.2 -667.5,56.5 -668.8,56.8 -669.5,57 -671,57.3 -672.5,57.7 -674.5,58.2 -675.7,58.5 -677.3,59 -678.5,59.3 -680.2,59.8 -681.3,60.2 -682.5,60.7 -683.8,61 -685.5,61.7 -687.2,62.2 -688.5,62.8 -689.5,63.2 -690.5,63.7 -691.5,64 -693,64.7 -694.8,65.3 -696.2,66 -697.3,66.7 -698.8,67.5 -700.3,68.3 -701.5,69 -702,69.3 -703.2,70 -704.5,70.7 -706.3,71.7 -707.5,72.3 -708.5,73 -709.5,73.8 -710.5,74.7 -711.5,75.3 -712.7,76.2 -714,77.2 -715.5,78.5 -716.5,79.5 -717.3,80.3 -718,81 -719,81.8 -720.2,82.7 -721.5,83.7 -722.5,84.5 -723.5,85.5 -724.5,86.5 -725.8,88 -727,89.3 -728,90.5 -728.5,91 -729,91.7 -729.5,92.3 -730.7,93.8 -731.8,95.2 -733.3,97.2 -734,98.3 -734.7,99.5 -735,100 -735.3,100.5 -736.3,102.2 -737.3,103.8 -738.3,105.5 -738.7,106.2 -739.3,107.3 -740,108.5 -740.8,109.8 -741.2,110.7 -741.8,111.8 -742.3,113.2 -743.2,115 -743.7,116.5 -744.2,117.5 -744.3,118 -744.8,119 -745.3,120.3 -746.2,122.3 -746.7,123.8 -747,125.2 -747.3,126.5 -747.7,127.8 -748,129.2 -748.3,130.7 -748.7,132.2 -749,133.5 -749,134.2 -749.3,135.7 -749.7,137.3 -750,139 -750,139.8 -750,140.5 -750.2,141.8 -750.3,143.7 -750.5,145.7 -750.5,146.8 -750.3,148.8 -750.2,150.7 -750,152.5 -750,153 -750,153.8 -749.8,155.5 -749.5,157.2 -749.2,158.5 -749,159.2 -748.8,160.7 -748.7,162.2 -748.3,163.5 -748.2,164 -747.8,165.2 -747.7,166.3 -747.2,168.2 -746.7,169.3 -746.2,170.5 -745.8,171.5 -745.5,172.3 -745,173.5 -744.7,174.2 -744.3,174.8 -744.2,175.2 -743.3,176.3 -742,178.5 -740.7,180.7 -739.8,181.8 -739.7,182.2 -739.3,182.3 -738.8,183.2 -738,184 -737.3,185 -736.5,185.8 -735.8,186.5 -735.2,187.2 -734.2,187.8 -733,188.8 -730.7,190.3 -729,191.3 -726.5,192.5 -725,193.2 -722.7,194.2 -721.3,194.7 -720,195 -719.5,195 -718.2,195.3 -716.5,195.7 -714.8,196 -714,196 -713.5,196 -711.5,196 -709.5,196 -707.5,196 -707,196 -706.5,196 -705.8,196 -704.2,195.7 -702.5,195.3 -701,195 -699.8,194.8 -698.7,194.7 -697.5,194.3 -697,194.2 -696.5,194 -695.2,193.8 -693.8,193.7 -692.5,193.5 -692,193.3 -691.5,193.2 -690.2,192.8 -688.8,192.7 -687.3,192.5 -686.7,192.3 -685.8,192.2 -685.2,192 -683.5,191.8 -682,191.7 -680.5,191.5 -679.8,191.5 -679.2,191.3 -678.2,191.2 -677.2,191 -675.8,191 -674.5,191 -673.3,191 -672.2,191 -670.8,191 -669.3,191 -668.2,191 -666.8,191 -665.5,191 -663.7,190.8 -662.5,190.7 -660.8,190.5 -659.5,190.5 -657.7,190.7 -656.5,190.8 -654.8,191 -653.7,191 -651.8,191 -650.7,191 -649,191 -647.7,191 -645.8,191 -644,191 -642.5,191 -641.3,191.2 -640.7,191.3 -638.8,191.7 -636.7,191.8 -634.5,192 -633.3,192.2 -632.7,192.3 -631,192.7 -629.3,192.8 -627.7,193.2 -625.8,193.5 -624,193.8 -622.2,194.2 -620.8,194.5 -619.5,194.8 -617.3,195.3 -615.7,195.7 -614,196.2 -612.5,196.5 -611,196.8 -608.7,197.3 -606.8,197.7 -605.2,198 -603.7,198.3 -602.2,198.7 -600.7,199.2 -599.2,199.5 -597.7,199.8 -595.7,200.3 -594.2,200.7" style="stroke: rgb(239, 68, 68); stroke-width: 7;"></polyline><polyline vector-effect="non-scaling-stroke" fill="none" points="-592,201.3 -590.2,201.7 -587.8,202.2 -585.8,202.5 -584,202.8 -582.8,203.2 -581.5,203.5 -579.3,204.2 -577.2,204.7 -575.7,205 -573.8,205.3 -572,205.7 -570,206.2 -568.3,206.5 -566.8,206.8 -564.5,207.3 -562.8,207.7 -561,208.2 -559.3,208.5 -557.7,208.8 -555.3,209.3 -553.7,209.7 -552,210.2 -550.3,210.5 -548.7,211 -546.5,211.5 -544.7,211.8 -542.8,212.2 -540.7,212.5 -538.8,212.8 -537,213.2 -535.5,213.5 -534,214 -531.7,214.5 -529.8,214.8 -528,215.2 -526,215.5 -524,215.8 -522.2,216.2 -520.7,216.5 -518.8,216.8 -516.8,217 -514.7,217.3 -512.8,217.7 -511.2,218 -509.5,218.3 -507.5,218.7 -505.2,219 -503.7,219 -501.8,219.2 -499.8,219.5 -497.3,219.8 -495.5,220 -494,220 -493,220 -491.2,220.2 -488.8,220.3 -486.2,220.5 -484.2,220.7 -482.5,220.8 -480.8,221 -479.2,221 -477.2,221 -475.2,221 -473,221 -471,221 -469.5,221 -467.8,221 -466.3,220.8 -464.3,220.7 -462.3,220.5 -460.2,220.5 -457.5,220.3 -455.5,220.2 -453.8,220 -452.7,220 -451.2,220 -449.2,220 -447.3,220 -445.3,220 -443.7,220 -442,220 -440.3,220 -438.3,220 -436.3,220 -434.3,219.8 -432.3,219.7 -429.8,219.3 -427.7,219.2 -426,219 -424.8,219 -423.3,219 -421.3,219 -419.3,219 -417.5,219 -416,219 -414.3,219 -412.3,219 -410.2,219 -408,219 -406.3,219 -404.8,218.8 -403.2,218.7 -400.5,218.3 -398,218.2 -396,218 -395,218 -393.8,218 -392.2,218 -390.2,218 -388,218 -386,218 -384.3,218 -382.7,218 -381,218 -379,218 -377,218 -375,217.8 -373.3,217.7 -371.7,217.5 -370,217.5 -367.3,217.3 -365,217.2 -363,217 -362.2,217 -360.8,217 -359.2,217 -357,217 -355,217 -353,217 -351.3,217 -349.7,217 -348,217 -346,217 -344,216.8 -342,216.7 -340.5,216.5 -338.3,216.3 -336.5,216.2 -334.5,216 -333.2,216 -331.3,216 -329.7,216 -327.8,216 -326.3,216 -324.3,216 -322.5,216 -320.7,216 -319,216 -317.2,216 -315.3,216 -313.2,216 -310.5,215.7 -308.2,215.3 -306.3,215 -305.3,215 -303.8,215 -302,215 -300.3,215 -298.8,215 -297.3,215 -295.3,215 -293.2,215 -291.2,215 -289.5,215 -288,215 -286.3,215 -283.7,214.8 -281.2,214.7 -279.2,214.3 -278.2,214.2 -276.8,214 -275,214 -273,214 -271.5,214 -270,214 -268.3,214 -266.2,214 -264.2,214 -262.5,214 -260.8,214 -259.2,214 -257.2,214 -254.7,213.8 -252.5,213.7 -250.8,213.5 -249.7,213.3 -248,213.2 -246,213 -244.3,213 -242.7,213 -241,213 -239,213 -237.3,213 -235.8,213 -234.2,213 -232.2,213 -230,213 -228.5,213 -226.8,213 -225.3,213.2 -223.2,213.3 -221.5,213.5 -219.8,213.5 -218.7,213.5 -216.7,213.7 -214.8,214 -212.5,214.3 -210.8,214.5 -209.3,214.5 -208.3,214.7 -206.7,215 -204.7,215.3 -202.8,215.5 -201.8,215.7 -200.2,216 -198.5,216.3 -196.8,216.7 -195.3,217 -193.8,217.5 -191.8,218 -190.5,218.5 -188.5,219 -187,219.3 -185,219.8 -183.7,220.2 -181.8,220.8 -180.5,221.3 -178.7,222 -177.3,222.5 -175.7,223 -174,223.7 -172.3,224.2 -170.5,224.8 -169.2,225.2 -167.3,225.8 -165.5,226.5 -163.7,227.2 -161.8,227.8 -160.5,228.2 -159.2,228.7 -157.5,229.2 -155.8,229.8 -154.2,230.5 -152.3,231.2 -150.5,231.8 -148.7,232.3 -147.5,232.8 -145.8,233.3 -144.2,234 -142.3,234.7 -140.5,235.3 -138.7,236 -136.8,236.5 -135.5,237 -133.7,237.5 -132.3,238 -130.7,238.7 -129,239.3 -127.3,240 -125.5,240.5 -124.2,241 -122.3,241.5 -121,242 -118.7,242.8 -117,243.5 -115.3,244.2 -113.7,244.7 -112,245.3 -110.3,245.8 -108.7,246.5 -107,247 -104.8,247.8 -103.5,248.3 -101.5,249 -100,249.5 -98,250 -96.5,250.5 -94.7,251 -93.3,251.5 -91.5,252.2 -90.2,252.7 -88.8,253.2 -87.3,253.7 -85.3,254.5 -83.3,255.3 -81.5,256 -80.2,256.5 -78.3,257 -76.5,257.7 -74.7,258.2 -72.8,258.8 -71.5,259.3 -69.5,260 -68.2,260.5 -66.3,261 -64.5,261.7 -62.7,262.3 -61.3,262.8 -59.7,263.5 -58,264 -55.8,264.8 -54.5,265.3 -52.5,266 -51.2,266.5 -49.3,267 -47.3,267.7 -45.3,268.2 -43.8,268.7 -42.5,269.2 -41.2,269.7 -39.3,270.3 -37.3,270.8 -35.2,271.5 -33.7,271.8 -32.2,272.3 -30.7,272.7 -28.7,273.3 -27.3,273.7 -25.3,274.3 -23.7,274.7 -21.7,275.2 -20.3,275.5 -18,276 -16,276.5 -14.2,276.8 -12.8,277.3 -11.5,277.7 -9.2,278.2 -7.5,278.5 -5.8,278.8 -4.2,279.2 -2.3,279.5 -0.7,279.8 1.2,280.3 3,280.7 5,281 6.5,281.3 8,281.7 10.3,282.2 12.2,282.3 14,282.7 15.7,283 17.5,283.3 19.7,283.7 21.2,283.8 23.3,284.2 25.5,284.5 27.5,284.8 28.7,285 30.2,285.2 32.3,285.5 34.5,285.8 36,286 37.7,286.2 39.5,286.5 41.7,286.8 43.2,287 45.3,287.2 47.5,287.3 49.8,287.7 51.8,287.8 53.3,288 55,288 56.2,288 58.3,288.2 60.3,288.3 62.8,288.5 64.8,288.7 66.8,288.8 68.8,289 70.3,289 72.2,289 73.8,289 75.8,289 77.3,289 79.2,289.2 81.3,289.3 83.8,289.5 85.8,289.5 87.8,289.5 90.5,289.3 92.8,289.2 94.7,289 95.5,289 96.8,289 98.5,289 100.7,289 102.8,289 104.8,288.8 106.7,288.7 108.7,288.5 110.3,288.5 112.7,288.3 114.5,288.2 116.7,288 118.2,288 120,287.8 122,287.7 124.7,287.3 127,287.2 129,287 130.3,286.8 131.7,286.7 134,286.3 136,286.2 138,286 139.3,285.8 141.7,285.5 144,285.2 146,284.8 148,284.5 150,284.2 152,284 152.8,283.8 154.8,283.5 156.8,283.2 159,282.8 161,282.5 163,282.2 165.7,281.7 167.3,281.3 169,281 170.7,280.7 172.3,280.3 174,279.8 175.8,279.5 177.7,279.2 180.3,278.7 182.2,278.3 184.5,277.7 186,277.3 188,276.7 189.5,276.3 191.5,275.7 193,275.3 195.3,274.7 197.2,274.3 199.5,273.7 200.8,273.3 202.7,272.7 204.5,272.2 206.5,271.5 208.5,271 210.5,270.3 212.3,269.8 214.2,269.2 215.5,268.8 217.5,268.2 219.5,267.5 221.3,266.8 222.7,266.3 224.5,265.8 226.5,265.2 229,264.3 230.3,263.8 232.2,263.2 233.5,262.7 235.8,261.8 237.5,261.2 239.2,260.5 240.5,260 242.5,259.3 244.3,258.8 246.5,258 248.2,257.3 250,256.7 251.5,256.2 252.8,255.7 254.7,255 256.5,254.3 258.5,253.7 260.3,253 262,252.3 264,251.5 265.7,250.8 267.3,250.2 268.7,249.7 270.7,249 272.7,248.3 274.8,247.5 276.7,246.7 278.2,246 280,245.3 281.3,244.8 283.5,244 285.2,243.3 287,242.7 287.8,242.3 289.7,241.7 291.5,241 294,240.2 295.3,239.7 297.2,238.8 298.5,238.3 300.5,237.7 301.8,237.2 303.7,236.5 305.5,235.8 307.8,235 309.5,234.3 311.2,233.7 312.8,233 314.7,232.3 316.3,231.7 318.3,230.8 320.3,230 322,229.3 323.7,228.8 325.2,228.3 327.2,227.7 329.2,226.8 331.3,226 332.8,225.3 334.2,224.8 335.5,224.3 337.5,223.7 338.8,223.2 340.7,222.5 342.5,221.8 345.2,221 347.2,220.2 348.7,219.5 350,219 351.5,218.5 353.5,217.8 354.8,217.3 356.7,216.7 358.5,216 360.8,215.2 362.5,214.5 364.2,213.8 366.2,213 368.3,212.2 369.8,211.5 371.2,211 372.5,210.5 374.5,209.8 376.5,209.2 378.3,208.5 380.2,207.8 382.2,207 384.3,206.2 385.8,205.5 387.2,205 388.5,204.5 390.8,203.7 392.5,203 394.2,202.3 395.5,201.8 397.5,201.2 399.3,200.5 401.2,199.8 402.5,199.3 404.8,198.5 406.5,197.8 408.5,197 409.7,196.5 411.5,195.8 413.5,195.2 415.7,194.3 417.3,193.8 419,193.2 420.8,192.5 422.5,191.8 424.2,191.2 425.5,190.7 427.8,189.7 429.5,189 431.2,188.3 432.5,187.8 434.5,187.2 436.3,186.5 438.2,185.8 440.2,185 442.2,184.2 443.7,183.5 445,183 446.5,182.5 448.3,181.8 450,181 451.7,180.3 453.3,179.7 455.3,178.8 457.3,177.8 459,177.2 460.3,176.7 461.7,176.2 463.8,175.2 466.2,174.2 468.5,173.2 470.7,172.2 472.3,171.5 474,170.8 475.8,170.2 477.8,169.2 479.8,168.3 481.7,167.5 483.2,166.8 484.7,166 486.2,165.3 487.7,164.7 489.2,164 490.5,163.3 491.8,162.8 494,162 496,161.2 498.3,160 499.8,159.2 501,158.7 502.7,158 504.3,157.3 506.7,156.2 508.2,155.3 510.3,154.2 511.8,153.5 513.3,152.8 515.2,152 517,151 518.8,150 520,149.3 521,148.8 522.7,148.2 524.3,147.5 526,146.7 528.2,145.5 530,144.5 531.8,143.7 533,143.2 534.3,142.5 535.8,141.7 537.8,140.5 539.5,139.5 541.2,138.5 543,137.7 544.8,136.8 546.7,136 547.3,135.5 548.8,134.7 550.3,133.8 552.5,132.7 554,131.8 555.7,131 557.2,130.3 559,129.5 561,128.3 562.7,127.3 563.8,126.5 565.3,125.7 566.7,124.8 569,123.5 570.7,122.5 572.3,121.5 573.2,121.2 573.8,120.8 575.8,119.8 577.7,118.7 579.7,117.5 580.8,116.8 582,116.2 583.8,115.2 585.2,114.3 587.5,113 589,112 591,110.8 592.5,109.8 594.2,108.8 595.3,108 597,107 598.5,106 600.2,105 601.2,104.3 602.8,103.3 604.3,102.5 606.2,101.5 607.3,100.8 608.7,100 610.2,99 611.8,98 614,96.5 615.5,95.5 616.8,94.5 618,93.7 619.2,92.8 620.8,91.8 622.5,90.8 624.2,89.8 625.8,88.7 627,88 628,87.3 628.5,87 629.3,86.5 631,85.3 632.7,84.2 634,83.2 635.2,82.3 636.3,81.7 637.3,80.8 637.7,80.7 638.7,79.8 640.3,78.8 643.2,77 645.2,75.7 647.2,74.3 648.2,73.7 649.2,73 651,71.7 652.7,70.2 654.5,68.7 655.2,68.2 656.5,67.3 658.3,66 660.7,63.3 662.3,61.3 663.5,54.8 663.3,48.7 661.2,40.7 658.2,37.7 655.5,35.3 654.3,34.8 653.3,34 651.7,33.2 650,32 648.5,31.3 647.2,30.7 645.8,30 644.2,29 642.5,28.2 641.2,27.5 640.2,27 639.7,26.7 639.2,26.3 638.8,26.2 637.8,25.7 636.8,25.2 635.8,24.7 635.5,24.3 634.7,24 634,23.5 633.3,23.2 632.7,22.7 631.8,22.3 631.2,21.8 630.8,21.7 630,21 629,20.5 627.8,19.7 627.2,19.3 626.5,18.8 626,18.5 625,17.8 624.2,17.2 623.3,16.5 623,16.2 622.5,15.8 621.3,15 620.2,14.2 619.2,13.3 618.8,13 618.5,12.7 617.7,12 616.8,11.3 616,10.3 615.3,9.5 614.7,8.8 613.8,8.2 613.2,7.5 612.5,6.7 612,6 611.2,5 610.3,3.8 609.5,2.8 609,2.3 608.7,2 608,1 607.5,0 606.8,-1 606.5,-1.5 606,-2.3 605.5,-3.2 605,-4.3 604.5,-5.2 604,-6.3 603.5,-7.2 603.2,-8.2 602.8,-9.3 602.3,-10.8 601.8,-12.2 601.3,-13 601.2,-13.5 601,-14 601,-14.5 600.7,-16 600.3,-17.5 600,-19 600,-19.5 600,-20.2 600,-21 600,-22.3 599.8,-23.7 599.7,-25 599.5,-26 599.5,-27.7 599.5,-29.3 599.5,-31 599.7,-32 599.8,-33 600,-33.8 600,-34.7 600,-35.3 600.2,-36.8 600.5,-38.3 600.8,-39.8 601,-40.5 601,-41 601.2,-41.5 601.5,-42.7 601.8,-43.8 602.3,-45.5 602.7,-46.5 603.2,-47.5 603.3,-48 603.7,-48.5 604.2,-49.7 604.8,-50.8 605.3,-52 605.7,-52.5 605.8,-53 606.5,-54 607.2,-55 607.8,-56 608.5,-56.8 609.2,-57.7 609.8,-58.5 610.2,-59 610.7,-59.7 611.2,-60.3 611.8,-61 612.3,-61.5 613.3,-62.3 614.3,-63.3 615.3,-64.2 616.5,-65 617.7,-65.8 619.2,-66.8 620.7,-67.8 622,-68.5 623,-69.2 623.7,-69.5 624.3,-69.8 625.5,-70.2 626.5,-70.5 627.5,-70.8 628,-71 629.2,-71.3 630.3,-71.7 631.5,-72 632.2,-72.2 633,-72.3 634,-72.5 635,-72.5 636,-72.5 637,-72.5 638,-72.5 639,-72.5 640,-72.5 641,-72.5 642,-72.5 643,-72.5 644,-72.5 645,-72.5 646.3,-72.5 647.7,-72.5 648.8,-72.5 649.8,-72.5 650.8,-72.5 652,-72.5 653,-72.5 654,-72.5 655,-72.5 656,-72.3 657,-72.2 658,-72 659,-72 659.8,-72 660.8,-72 661.8,-72 663,-72 664,-72 665,-72 666,-72 667,-72 668,-72 668.8,-71.8 669.5,-71.7 670.2,-71.5 671.7,-71.3 673.3,-71.2 675,-71 676,-71 677,-71 678,-71 679.7,-71.2 681.2,-71.3 682.5,-71.5 683,-71.5 683.5,-71.5 684.5,-71.7 685.5,-71.8 686.8,-72 687.8,-72 689.7,-72.2 691.2,-72.3 692.5,-72.5 693,-72.7 693.5,-72.8 694.8,-73.2 696.3,-73.3 697.8,-73.7 699.2,-74 700.7,-74.5 702.2,-75 703.3,-75.5 704.2,-76 705.3,-76.5 706.2,-76.8 707.3,-77.3 708.2,-77.7 709.5,-78.5 710.8,-79.5 712.2,-80.5 713.2,-81.3 713.8,-81.7 714.3,-82.2 714.7,-82.5 715.5,-83.2 716.7,-84 717.7,-84.8 718.7,-86.2 719.5,-87.2 720.3,-88.2 720.7,-88.5 721.5,-89.7 722.3,-90.8 723.8,-92.8 724.7,-94.2 725.7,-95.3 725.8,-95.7 726.3,-96.5 727.2,-98 728.5,-100.5 729.8,-103 730.8,-104.8 731.5,-105.8 732.2,-107 732.8,-108.2 733.7,-109.8 734.3,-110.7 735.5,-112.8 736.3,-114.3 737.2,-115.8 738.5,-118.2 740.3,-121.2 742.5,-124.7 744,-127 745.2,-128.5 746,-130.2 746.5,-130.8 747,-132.2 748,-134.5 748.7,-136.8 748.5,-141.7 747,-145.8 742.8,-151.3 737.8,-154.7 732.7,-158 730,-160.2 728.8,-161.8 728.2,-163 727.8,-166.8 727.7,-171 727.8,-175 728.2,-176.3 728.5,-177.8 728.8,-179.2 729,-180.5 729.2,-180.8 729.5,-181.7 729.8,-182.5 730,-183.5 730.2,-184.8 730.5,-186 730.8,-187.2 731,-187.5 731,-188 731.2,-188.5 731.7,-189.5 732.3,-191.2 732.8,-192.8 733.2,-194 733.3,-194.5 733.7,-195.7 734,-196.8 734.3,-198 734.5,-198.5 734.7,-198.8 735,-199.7 735.3,-200.5 735.7,-201.5 736,-202.5 736.3,-203.5 736.7,-204.5 737,-205.7 737.3,-206.8 737.7,-208 737.8,-208.5 738.2,-209.7 738.5,-210.8 739,-212.2 739.5,-213.3 740,-214.5 740.5,-216.2 740.8,-217.3 741.2,-218.5 741.3,-219.2 741.8,-220.5 743.2,-226.2 744.7,-232.5 745.5,-237.3 745.3,-239.5 744.8,-240.7 744.2,-243.8 743.3,-245.3 742.2,-247.3 740.2,-249.3 737.3,-251.5 734.5,-253.5 731.2,-254.5 728.8,-255.3 723.7,-256 719.7,-256.3 714.7,-256.7 712.7,-257 710.7,-257.3 709.3,-257.5 708,-257.5 707.2,-257.5 705.8,-257.5 704.5,-257.5 703.2,-257.5 702.2,-257.5 701.2,-257.5 700,-257.5 699.2,-257.5 698.2,-257.5 697.2,-257.5 696.2,-257.5 695.2,-257.5 694.2,-257.5 693,-257.5 692,-257.5 691.2,-257.5 690.5,-257.5 689.2,-257.7 687.7,-257.8 686.2,-258 685.2,-258 684.2,-258 683,-258 682,-258 680.7,-258 679.3,-258 678,-258 677.2,-258 676.2,-258 674.8,-258 673.3,-258 672.2,-258 671.2,-258.2 670.2,-258.3 668.8,-258.5 667.5,-258.5 666.2,-258.5 665,-258.5 663.7,-258.5 662.5,-258.5 661.5,-258.5 661,-258.5 659.7,-258.7 658,-258.8 656.2,-259" style="stroke: rgb(59, 130, 246); stroke-width: 7;"></polyline><polyline vector-effect="non-scaling-stroke" fill="none" points="655,-259 653.7,-259 652.3,-259 651,-259 649.8,-259 648.5,-259 647.2,-259 645.7,-259 644.5,-259 643.2,-259 641.8,-259 640.5,-259 639.2,-259 637.8,-259 636.5,-259 635.2,-259 633.8,-259 632.5,-259 631,-259 630,-259 628.8,-259.2 627.3,-259.5 625.7,-259.8 623.7,-260 622.3,-260 620.7,-260 619.5,-260 617.8,-260 616.7,-260 615,-260 613.3,-260 611.7,-260 609.8,-260 608.7,-260 606.8,-260 605.5,-260 603.7,-260 602.2,-260 600.5,-260 599,-260.2 597.3,-260.3 595.7,-260.5 594.2,-260.5 593.2,-260.5 591.7,-260.7 589.7,-260.8 587.7,-261 585.8,-261 584.2,-261 582,-261 580.3,-261 578.8,-261 577.3,-261 575.7,-261 573.8,-261 572.2,-261.2 570.5,-261.3 569,-261.5 567.2,-261.5 565.7,-261.5 563.8,-261.5 562.5,-261.5 561,-261.5 559.3,-261.7 557.3,-261.8 555,-262 553.3,-262 551.7,-262 550,-262 548,-262 546.5,-262 545,-262.2 543.3,-262.3 541.7,-262.5 539.8,-262.5 538.5,-262.5 537,-262.5 535.3,-262.7 533.5,-262.8 531.3,-263 529.7,-263 528,-263 526.2,-263 524.2,-263 522.5,-263 520.8,-263 519.2,-263 517,-263.2 515.3,-263.3 513.8,-263.5 512.2,-263.5 510.7,-263.5 509.3,-263.5 507.7,-263.7 505.5,-263.8 503.5,-264 502,-264 500.3,-264 498.7,-264 497,-264 495.3,-264 493.2,-264 491.5,-264 489.8,-264 488.2,-264 486.2,-264.2 484.5,-264.3 482.8,-264.5 481.3,-264.5 480.2,-264.5 478.5,-264.7 476.7,-264.8 474.2,-265 472.7,-265 471,-265 469.3,-265 467.7,-265 466,-265 464.3,-265 462.7,-265 461,-265 459.5,-265.2 457.3,-265.3 455.7,-265.5 454.3,-265.5 452.8,-265.7 451,-265.8 449,-266 447.3,-266 445.7,-266 443.8,-266 442,-266 440.3,-266 438.7,-266 437,-266 435.3,-266 433.7,-266 432,-266 430.5,-266.2 429,-266.3 427.8,-266.5 426.7,-266.5 425,-266.7 422.8,-266.8 420.7,-267 419,-267 417.7,-267 415.8,-267 414,-267 412.5,-267 411,-267 409.5,-267 407.7,-267 406,-267.2 404.3,-267.3 402.7,-267.5 401.2,-267.5 400.2,-267.5 398.5,-267.7 396.3,-267.8 394.2,-268 392.7,-268 391.3,-268 389.7,-268 387.8,-268 386.3,-268 384.7,-268 383.2,-268 381.5,-268 379.8,-268 378.5,-268.2 376.8,-268.3 375.5,-268.5 374.2,-268.5 372.7,-268.7 371,-268.8 369,-269 367.2,-269 365.5,-269 363.7,-269 362.5,-269 360.8,-269 359.2,-269 357.5,-269 355.8,-269 354.7,-269.2 353,-269.3 351.5,-269.5 349.7,-269.5 348.2,-269.5 347.2,-269.5 345.5,-269.7 343.5,-269.8 341.5,-270 340,-270 338.7,-270 337,-270 335.2,-270 333.7,-270 332,-270 330.3,-270 328.7,-270.2 327,-270.3 325.7,-270.5 324.2,-270.5 323,-270.5 321.3,-270.7 319.3,-270.8 317.2,-271 315.3,-271 313.7,-271 311.8,-271 310.5,-271 308.8,-271 307.2,-271 305.3,-271 303.5,-271.2 301.8,-271.3 300.2,-271.5 298.7,-271.5 297,-271.5 295.5,-271.5 293.8,-271.5 292.7,-271.5 291,-271.5 289.3,-271.5 287.7,-271.5 286,-271.5 284.3,-271.5 282.7,-271.5 281,-271.5 279.5,-271.5 277.7,-271.5 276,-271.5 274.3,-271.5 273,-271.5 271.8,-271.5 270,-271.7 268.2,-271.8 265.8,-272 264.5,-271.8 262.8,-271.7 261.3,-271.5 259.7,-271.5 258,-271.5 256.3,-271.5 254.7,-271.5 253,-271.5 251.3,-271.5 249.7,-271.5 248,-271.3 246.5,-271.2 245,-271 243.3,-271 241.7,-271 239.8,-271 238.2,-271 236.5,-271 235,-271 233.3,-271 231.7,-271 230,-271 228.5,-271 226.8,-270.8 225.2,-270.7 223.5,-270.5 222.2,-270.5 221,-270.5 219.3,-270.8 217.3,-271.2 215.3,-271.5 213.7,-271.5 212,-271.5 210.3,-271.5 208.7,-271.5 207,-271.5 205.5,-271.5 203.8,-271.5 202.7,-271.5 200.8,-271.5 199.2,-271.5 197.5,-271.5 195.8,-271.5 194.5,-271.5 193.2,-271.5 191.7,-271.8 190,-272.2 188,-272.5 186.3,-272.5 184.7,-272.5 183,-272.5 181.3,-272.5 179.7,-272.5 178,-272.5 176.2,-272.5 174.5,-272.5 172.7,-272.5 171.3,-272.5 169.7,-272.5 168,-272.5 166.3,-272.7 165,-272.8 164,-273 162.5,-273.2 160.5,-273.3 158.2,-273.5 156.5,-273.5 154.8,-273.5 153.2,-273.5 151.5,-273.5 149.8,-273.5 148.2,-273.5 146.5,-273.5 145,-273.5 143.5,-273.5 141.7,-273.7 140,-273.8 138.2,-274 136.7,-274 135.3,-274 133.8,-274.2 132,-274.3 129.8,-274.5 127.8,-274.5 126.2,-274.5 124.7,-274.5 123.3,-274.5 121.7,-274.5 120,-274.5 118.3,-274.5 116.7,-274.5 114.7,-274.5 113,-274.5 111.3,-274.5 110,-274.7 108.3,-274.8 107,-275 105.8,-275 104,-275.2 102.2,-275.3 100,-275.5 98.5,-275.5 96.5,-275.5 94.7,-275.5 92.7,-275.5 91,-275.5 89.3,-275.5 87.8,-275.5 86,-275.5 84.5,-275.5 83,-275.7 81.5,-275.8 79.7,-276 78.2,-276 77,-276 75,-276.2 73.2,-276.3 71,-276.5 69.3,-276.5 67.7,-276.5 65.8,-276.5 64.2,-276.5 62.5,-276.5 60.8,-276.5 59.2,-276.5 57,-276.7 55.5,-276.8 54,-277 52.5,-277 50.7,-277 48.8,-277 47.3,-277 46,-277 44.3,-277.2 42.3,-277.3 40.2,-277.5 38.5,-277.5 36.7,-277.5 35,-277.5 33.2,-277.5 31.7,-277.7 29.8,-277.8 28,-278 26.5,-278 24.8,-278 23.2,-278 21.2,-278 19.8,-278 18.8,-278 17,-278.2 14.7,-278.3 12.5,-278.5 10.8,-278.5 9.2,-278.5 7,-278.7 5.5,-278.8 4,-279 2.8,-279 0.8,-279.2 -1,-279.3 -3.2,-279.5 -5,-279.5 -7,-279.5 -8.5,-279.5 -10,-279.5 -11.5,-279.5 -13.5,-279.5 -15.3,-279.7 -17.2,-279.8 -19.2,-280 -21,-280 -22.7,-280 -23.8,-280 -25,-280 -27,-280.2 -29.3,-280.3 -31.5,-280.5 -33,-280.5 -34.5,-280.5 -36.5,-280.5 -38.3,-280.5 -40.2,-280.5 -42,-280.5 -44,-280.7 -46,-280.8 -47.5,-281 -49,-281 -50.2,-281 -52.2,-281.2 -54,-281.3 -56.2,-281.5 -58,-281.5 -60,-281.5 -61.8,-281.5 -63.5,-281.5 -65.2,-281.5 -67,-281.5 -69.2,-281.5 -71.2,-281.5 -72.7,-281.5 -74,-281.5 -75.5,-281.7 -77.2,-281.8 -79.2,-282.2 -81,-282.3 -83.2,-282.5 -85,-282.5 -86.8,-282.5 -88.8,-282.5 -90.5,-282.5 -92.3,-282.5 -94,-282.5 -96,-282.5 -98,-282.5 -99.5,-282.5 -100.7,-282.5 -102.2,-282.7 -104.3,-283 -106.8,-283.3 -108.5,-283.5 -110,-283.5 -111.5,-283.5 -113.5,-283.5 -116,-283.5 -118.5,-283.5 -120.8,-283.5 -122.3,-283.5 -124.2,-283.7 -126,-283.8 -128.2,-284 -130,-284.2 -131.8,-284.3 -133.8,-284.5 -135.3,-284.5 -137.2,-284.5 -138.8,-284.5 -141,-284.5 -143,-284.5 -145,-284.5 -146.5,-284.5 -147.7,-284.5 -149.3,-284.7 -151.5,-284.8 -153.8,-285.2 -155.5,-285.3 -157.2,-285.5 -159.2,-285.5 -161.2,-285.5 -163.2,-285.5 -164.8,-285.5 -166.5,-285.5 -168.2,-285.5 -170,-285.5 -172,-285.5 -173.7,-285.5 -174.8,-285.5 -176.5,-285.7 -178.5,-286 -181,-286.3 -182.8,-286.5 -184.7,-286.5 -186.3,-286.5 -188.2,-286.5 -190,-286.5 -191.8,-286.5 -193.7,-286.5 -195.7,-286.5 -197.5,-286.5 -199.3,-286.5 -201,-286.5 -202.7,-286.5 -204,-286.5 -205.7,-286.7 -207.7,-286.8 -210,-287.2 -212,-287.3 -214,-287.5 -215.8,-287.5 -217.5,-287.5 -219.2,-287.5 -221,-287.5 -223,-287.5 -225,-287.5 -226.8,-287.5 -228.5,-287.5 -229.8,-287.5 -231,-287.5 -233,-287.7 -235.3,-287.8 -237.5,-288.2 -239,-288.3 -240.7,-288.5 -242.8,-288.5 -245,-288.5 -246.5,-288.5 -248.2,-288.5 -249.7,-288.5 -251.7,-288.5 -253.5,-288.5 -255.3,-288.5 -257.2,-288.5 -259,-288.5 -260.7,-288.5 -262,-288.7 -264,-289 -266,-289.3 -268.3,-289.5 -270,-289.5 -272,-289.5 -273.5,-289.5 -275,-289.5 -276.7,-289.5 -278.8,-289.5 -281,-289.5 -282.7,-289.5 -284.3,-289.5 -286,-289.7 -288,-289.8 -290,-290 -291.5,-290 -292.7,-290 -294.2,-290.2 -296,-290.3 -298.3,-290.5 -300.2,-290.5 -302,-290.5 -303.7,-290.5 -305.5,-290.5 -307.3,-290.5 -309.2,-290.7 -311,-290.8 -313,-291 -315,-291 -316.5,-291 -318,-291 -319.5,-291 -321.5,-291 -323.5,-291 -325,-291 -326.2,-291 -327.8,-291.2 -330,-291.3 -332.3,-291.5 -334.3,-291.5 -336.2,-291.5 -338.2,-291.5 -340.2,-291.5 -341.8,-291.7 -343.3,-291.8 -344.7,-292 -346.5,-292 -348.3,-292 -350.2,-292 -351.7,-292 -353,-292 -354.8,-292.2 -356.8,-292.3 -359.2,-292.5 -361,-292.5 -363,-292.5 -364.5,-292.5 -366,-292.7 -367.5,-292.8 -369.5,-293 -371.5,-293 -373.3,-293 -375,-293 -376.3,-293 -378.2,-293.2 -380.2,-293.3 -382.3,-293.5 -384.2,-293.5 -386,-293.5 -387.5,-293.7 -389,-293.8 -390.5,-294 -392.7,-294 -394.3,-294 -396.7,-294 -398.8,-294 -401.3,-294 -402.8,-294 -404,-294 -405.8,-294.2 -407.8,-294.3 -410.2,-294.7 -412,-294.8 -414,-295 -415.5,-295 -417.2,-295 -418.8,-295 -420.8,-295 -422.7,-295 -424.3,-295 -426,-295 -427.5,-295 -428.8,-295 -430,-295 -431.8,-295.2 -433.8,-295.3 -436,-295.5 -437.7,-295.5 -439.3,-295.5 -441,-295.5 -442.8,-295.5 -444.8,-295.5 -446.5,-295.5 -448,-295.5 -449.7,-295.5 -451.5,-295.5 -453.3,-295.7 -454.8,-295.8 -456.2,-296 -457.2,-296 -458.8,-296.2 -460.8,-296.3 -463.2,-296.5 -465,-296.5 -466.7,-296.5 -468.3,-296.5 -469.8,-296.5 -471.5,-296.5 -473,-296.5 -474.5,-296.5 -476,-296.5 -477.8,-296.7 -479.5,-296.8 -481.3,-297 -482.7,-297 -484,-297 -484.8,-297 -486.5,-297.2 -488.5,-297.3 -490.7,-297.5 -492.3,-297.5 -493.7,-297.5 -495.3,-297.5 -496.7,-297.5 -498.3,-297.5 -499.5,-297.5 -501.2,-297.5 -502.5,-297.7 -504,-297.8 -504.8,-298 -506.5,-298.2 -508,-298.3 -509.8,-298.5 -511,-298.5 -512.5,-298.5 -514.2,-298.5 -515.7,-298.5 -517,-298.5 -518.2,-298.5 -519.5,-298.5 -520.8,-298.5 -522,-298.5 -523,-298.5 -524.3,-298.5 -525.7,-298.5 -527,-298.7 -527.8,-298.8 -528.5,-299 -529,-299 -529.5,-299 -530.8,-299.2 -532.3,-299.3 -534.3,-299.5 -535.7,-299.5 -536.8,-299.5 -537.8,-299.5 -538.8,-299.5 -540.3,-299.5 -541.7,-299.5 -543,-299.5 -544.3,-299.5 -546,-299.5 -548,-299.5 -549.3,-299.7 -550.3,-299.8 -552.8,-299.8 -559.2,-298.5 -565.3,-297 -570.2,-294.5 -571.7,-292.7 -573.3,-289.5 -574.2,-285.2 -574.3,-281.3 -573.3,-276.8 -571.7,-273.7 -569.5,-269.3 -567.8,-267 -566.8,-265.5 -566.2,-264.8 -565.5,-264.2 -564.8,-263.5 -563.2,-262 -561,-260 -558,-257.7 -556.3,-256.3 -555.3,-255.7 -555,-255.5 -554.7,-255.3 -554.3,-255.2 -553.8,-254.7 -553.2,-254.3 -552,-253.3 -551,-252.7 -550,-251.8 -549.5,-251.7 -548.3,-250.8 -547.2,-250.2 -546,-249.3 -544.8,-248.5 -543.7,-247.7 -542.3,-246.7 -541,-245.8 -539.7,-244.8 -537.8,-243.7 -536.7,-243 -535.5,-242.3 -535,-242 -534.5,-241.7 -534,-241.3 -533.3,-240.8 -532,-239.8 -530.7,-238.8 -529.5,-238 -528.5,-237.3 -527.5,-236.7 -526.5,-236 -525.5,-235.3 -524.3,-234.7 -523.2,-234 -521.8,-233.2 -520.7,-232.3 -519.5,-231.5 -519,-231.2 -517.7,-230.3 -516.3,-229.5 -515,-228.7 -514.5,-228.3 -513.2,-227.5 -511.8,-226.7 -510.5,-225.8 -510,-225.5 -508.8,-224.5 -507.7,-223.7 -506.2,-222.7 -505.3,-222.2 -504.3,-221.7 -503.2,-221 -502,-220.3 -500.5,-219.2 -499.5,-218.5 -498.5,-217.8 -497.3,-217.3 -496.2,-216.7 -494.5,-215.8 -493.5,-215.3 -492.5,-214.8 -492,-214.7 -490.5,-213.8 -489,-213.2 -487.5,-212.3 -487,-212.2 -485.7,-211.5 -484.3,-211 -483,-210.3 -481.8,-210 -480.7,-209.7 -478.8,-209.2 -477.7,-208.8 -476.5,-208.5 -476,-208.3 -474.5,-208 -473,-207.7 -471.5,-207.5 -471,-207.3 -469.2,-207 -467.2,-206.7 -465.2,-206.5 -464.2,-206.5 -463.3,-206.5 -461.7,-206.2 -460,-205.8 -457.8,-205.5 -456.3,-205.5 -455,-205.5 -453,-205.8 -451.2,-206.2 -449.5,-206.5 -449,-206.5 -448.2,-206.5 -447.2,-206.5 -445.2,-206.8 -443.3,-207.2 -441.7,-207.5 -441,-207.5 -439.5,-207.8 -438,-208.2 -436.5,-208.7 -436,-208.8 -434.2,-209.3 -432.3,-209.8 -430.5,-210.3 -429.8,-210.7 -428.2,-211.2 -426.5,-211.8 -424.7,-212.5 -423.3,-213.2 -422,-213.7 -421,-214.2 -420.3,-214.3 -418.8,-215 -417.3,-215.5 -415.7,-216.3 -414.3,-217 -413,-217.7 -412,-218.2 -410.3,-219 -408.7,-219.8 -407,-220.7 -406.5,-220.8 -405.8,-221.2 -404.5,-221.8 -403.2,-222.5 -401.8,-223.2 -400.2,-224 -398.5,-224.8 -397,-225.7 -396.3,-225.8 -395.3,-226.3 -394.2,-226.8 -392.5,-227.7 -391.2,-228.3 -389.8,-229 -388.5,-229.7 -387.2,-230.3 -385.5,-231.2 -384.5,-231.7 -383.2,-232.3 -381.8,-233 -380.5,-233.7 -378.7,-234.5 -377.3,-235.2 -376,-235.8 -375,-236.3 -373.7,-237 -371.8,-237.8 -370.5,-238.5 -369.5,-239 -368.2,-239.7 -366.8,-240.3 -365,-241.2 -364,-241.7 -362.3,-242.3 -360.8,-243 -359.3,-243.7 -358.3,-244.2 -356.7,-244.8 -354.8,-245.7 -353.2,-246.5 -352.3,-246.8 -351.2,-247.3 -349.7,-248 -348.2,-248.7 -347.2,-249.2 -345.5,-249.7 -344,-250.3 -342.3,-250.8 -341.2,-251.3 -339.5,-252 -338,-252.7 -336.8,-253.2 -335.5,-253.5 -334,-254 -332.2,-254.5 -330.8,-254.8 -329.7,-255.2 -328.2,-255.5 -326.8,-256 -324.8,-256.5 -323.7,-257 -321.7,-257.5 -320.3,-257.8 -318.8,-258.2 -317.5,-258.5 -316,-259 -314.7,-259.3 -313.2,-259.7 -311.8,-260 -310.3,-260.3 -309.7,-260.5 -307.8,-260.7 -306.2,-261 -304.3,-261.3 -303.7,-261.5 -302.5,-261.5 -300.5,-261.8 -298.3,-262.2 -296.5,-262.5 -295.7,-262.5 -294.5,-262.5 -293.3,-262.5 -291.8,-262.7 -290.5,-262.8 -288.2,-263.2 -286.2,-263.3 -284.3,-263.5 -283.3,-263.5 -282.2,-263.5 -280.7,-263.5 -279.3,-263.5 -277.7,-263.5 -276.3,-263.5 -274.7,-263.5 -273.3,-263.5 -271.7,-263.5 -270.2,-263.5 -268.5,-263.5 -267,-263.5 -265.5,-263.5 -263.8,-263.5 -262.5,-263.5 -261,-263.5 -260,-263.5 -258.8,-263.5 -257,-263.3 -255,-263.2 -252.7,-262.8 -251.3,-262.7 -250,-262.5 -249.2,-262.5 -248.3,-262.5 -246.7,-262.2 -244.8,-261.8 -243.2,-261.5 -242.3,-261.5 -240.5,-261.3 -238.7,-261 -236.8,-260.7 -236.2,-260.5 -234.7,-260.2 -233.3,-259.8 -231,-259.3 -229.5,-259 -227.8,-258.7 -227.2,-258.5 -225.7,-258.2 -224.3,-257.8 -222.8,-257.5 -221.7,-257.2 -219.7,-256.7 -217.8,-256 -216.3,-255.7 -215,-255.2 -213.7,-254.8 -211.8,-254.2 -210.7,-253.8 -209,-253.2 -207.8,-252.8 -206.2,-252.2 -204.8,-251.8 -203.7,-251.3 -202.5,-251 -201,-250.3 -198.8,-249.5 -197.2,-248.8 -195.8,-248.3 -195.2,-248 -193.7,-247.3 -192.3,-246.7 -190.8,-246 -189.5,-245.3 -187.7,-244.5 -185.8,-243.7 -184.7,-243.2 -183.8,-242.8 -183.2,-242.5 -181.7,-241.7 -180.2,-240.8 -178.7,-240 -177.2,-239.2 -175.8,-238.5 -174.5,-237.8 -173.3,-237.2 -171.8,-236.2 -170.2,-235.2 -169.2,-234.7 -168,-234 -166.5,-233.2 -165,-232.2 -163.5,-231.2 -162,-230.3 -160.5,-229.5 -159.5,-229 -158.3,-228.2 -156.8,-227.2 -155.2,-226.2 -154.2,-225.7 -153,-225 -151.8,-224.3 -150.2,-223.2 -148.7,-222.2 -147.2,-221.2 -146.2,-220.7 -145,-220 -144.5,-219.8" style="stroke: rgb(251, 191, 36); stroke-width: 7;"></polyline></svg>