<svg xmlns="http://www.w3.org/2000/svg" xmlns:xlink="http://www.w3.org/1999/xlink" preserveAspectRatio="xMidYMid meet" height="100%" viewBox="-371 -469 781 991"><polygon vector-effect="non-scaling-stroke" fill="none" points="-350.5,209.7 -350.6,209 -350.7,208.3 -350.8,207 -350.9,205.4 -351,204 -351,202.5 -351,201 -351.1,199.1 -351.3,197.5 -351.5,195.8 -351.7,194.3 -351.9,192.7 -352,191.4 -352,190.1 -352,188.7 -352,187.1 -352,185.8 -352.2,184.1 -352.4,182.4 -352.6,180.8 -352.8,179.4 -353,177.8 -353,176.7 -353,175.3 -353,174 -353,172.5 -353,170.8 -353.1,168.8 -353.3,167 -353.5,165.2 -353.7,163.5 -353.9,162.2 -354,161.1 -354,159.7 -354,158.2 -354,156.7 -354,154.9 -354,153.2 -354,151.6 -354,149.8 -354,148.1 -354,146.4 -354,144.6 -354,143.1 -354,141.5 -354,139.7 -354,138.1 -354,136.5 -354,134.7 -354,133 -354,131.6 -353.9,130.2 -353.7,128.4 -353.5,126.7 -353.3,125.1 -353.1,123.1 -353,120.9 -353,119.3 -353,117.7 -352.9,116.2 -352.7,114.4 -352.5,112.9 -352.3,111.1 -352.1,109.1 -351.9,107.1 -351.8,105.8 -351.6,103.9 -351.4,102.1 -351.1,100.5 -350.9,99 -350.6,97 -350.3,95.3 -350,93.8 -349.7,91.8 -349.4,89.8 -349.1,88.2 -348.8,86.4 -348.5,84.4 -348.2,83 -347.9,81.5 -347.6,79.6 -347.3,78.2 -346.9,76.7 -346.5,75.1 -346,73 -345.5,71.4 -345.1,69.7 -344.7,68.1 -344.3,66.5 -343.9,65.1 -343.5,63.7 -343,61.9 -342.5,60.4 -342,58.6 -341.5,57.2 -341,55.4 -340.5,54 -340.1,52.6 -339.6,51.3 -339.1,49.8 -338.6,48.7 -338,47.1 -337.3,45.5 -336.7,43.8 -336.2,42.3 -335.6,40.2 -335.2,38.6 -334.9,37 -334.7,35.7 -334.4,34.4 -334.2,33.2 -334.1,31.6 -334,29.9 -333.9,28.3 -333.9,26.7 -334,25.5 -334,24.7 -334,23.7 -334,22.6 -334,21.4 -334,20.2 -334,19 -334,18 -334,17 -334,16 -334,15.1 -334,14.3 -334,13.6 -334,13 -333.9,12 -333.8,10.9 -333.7,9.8 -333.6,8.7 -333.4,7.7 -333.3,7.2 -333.2,6.8 -333,6 -332.8,5.2 -332.7,4.2 -332.6,3.2 -332.3,1.9 -332,0.8 -331.5,-0.3 -330.6,-1.6 -329.6,-3 -328.6,-4.1 -327.5,-4.9 -326.3,-5.9 -325.3,-6.5 -324.1,-7 -322.6,-7.5 -321.1,-8 -319.4,-8.3 -317.7,-8.6 -316,-8.8 -314.2,-9.1 -312.4,-9.4 -310.6,-9.7 -308.8,-10 -307.2,-10.3 -305.5,-10.6 -303.9,-10.9 -302.7,-11.1 -301.4,-11.3 -300,-11.5 -298.8,-11.6 -297.6,-11.7 -296.4,-11.8 -295.4,-11.9 -294.2,-12.1 -292.7,-12.3 -291.2,-12.5 -289.7,-12.7 -288.1,-12.9 -286.7,-13 -285.6,-13.1 -284.5,-13.3 -283.4,-13.5 -282.2,-13.7 -281,-13.9 -279.8,-14.1 -278.6,-14.2 -277.4,-14.3 -276.4,-14.4 -275.4,-14.6 -274.7,-14.7 -273.4,-14.9 -272.1,-15.1 -270.8,-15.3 -269.6,-15.4 -268.5,-15.5 -267.6,-15.6 -266.6,-15.7 -265.5,-15.8 -263.9,-16 -262.3,-16.2 -260.9,-16.3 -259.3,-16.5 -257.7,-16.7 -256.6,-16.8 -254.9,-17 -253.4,-17.2 -252.2,-17.4 -250.9,-17.6 -249.4,-17.8 -248.4,-17.9 -247.1,-18 -245.4,-18.1 -243.8,-18.3 -242.4,-18.5 -241,-18.7 -239.7,-18.9 -238.6,-19 -237.5,-19 -235.8,-19.2 -234.2,-19.4 -232.7,-19.6 -231.4,-19.8 -230,-20 -228.9,-20.1 -227.7,-20.2 -226.1,-20.4 -224.5,-20.6 -223.1,-20.8 -221.7,-21 -220.3,-21.2 -219,-21.4 -217.6,-21.7 -216.2,-22 -214.5,-22.3 -212.9,-22.7 -211.7,-23 -210.1,-23.3 -208.5,-23.7 -207.4,-24 -206.3,-24.3 -204.7,-24.7 -203.5,-25 -202,-25.4 -200.5,-25.8 -199,-26.2 -197.5,-26.6 -196.1,-27 -194.5,-27.4 -193,-27.8 -191.4,-28.2 -189.9,-28.6 -188.1,-29.1 -186.8,-29.5 -185.4,-29.9 -184,-30.3 -182.5,-30.7 -180.8,-31.2 -179.1,-31.6 -178.2,-31.8 -176.3,-32.3 -174.9,-32.7 -173.6,-33.1 -172.3,-33.5 -170.2,-34.1 -168.8,-34.5 -167.3,-34.9 -165.7,-35.3 -164.1,-35.7 -162.2,-36.2 -160.7,-36.6 -159.2,-37 -157.8,-37.4 -156.3,-37.8 -155.2,-38.2 -153.6,-38.6 -152.1,-39 -150.5,-39.4 -148.5,-40 -146.5,-40.5 -144.9,-41 -142.9,-41.6 -141.3,-42 -139.9,-42.4 -138.4,-42.8 -137,-43.2 -135.4,-43.6 -133.9,-44.1 -132.6,-44.4 -131,-44.8 -129.1,-45.3 -127.8,-45.7 -126.5,-46.1 -124.8,-46.6 -123.5,-47 -122.4,-47.3 -120.9,-47.7 -119.3,-48 -118.2,-48.3 -116.5,-48.7 -114.9,-49 -113.6,-49.2 -112.4,-49.5 -110.8,-49.7 -109.7,-49.8 -108,-50 -106.4,-50.2 -104.8,-50.3 -103.5,-50.4 -102.1,-50.5 -101.1,-50.6 -99.9,-50.7 -98.6,-50.8 -96.8,-51 -95.2,-51.2 -93.7,-51.3 -92.4,-51.4 -91,-51.5 -89.9,-51.6 -88.4,-51.8 -86.9,-52 -85.4,-52.2 -84.1,-52.4 -82.7,-52.5 -81.6,-52.5 -80.6,-52.6 -79,-52.8 -77.4,-53 -76.1,-53.2 -74.7,-53.4 -72.8,-53.6 -71.4,-53.7 -69.5,-53.9 -67.7,-54.2 -66.1,-54.5 -64.8,-54.7 -63.4,-54.9 -62,-55.2 -60.6,-55.4 -59.2,-55.6 -57.4,-56 -55.6,-56.5 -54.3,-56.8 -52.9,-57.2 -51.2,-57.7 -49.8,-58.1 -48.4,-58.6 -47,-59.1 -45.6,-59.6 -44.2,-60.1 -42.9,-60.7 -41.7,-61.1 -40.3,-61.7 -39,-62.2 -37.6,-62.9 -36.4,-63.4 -35.3,-64 -34,-64.6 -32.5,-65.3 -31.4,-65.8 -29.8,-66.6 -28.2,-67.3 -27,-67.9 -25.8,-68.6 -24.3,-69.3 -23.3,-69.8 -22.3,-70.4 -20.9,-71 -19.5,-71.6 -18.1,-72.4 -16.7,-73.1 -15.2,-73.8 -14.1,-74.5 -12.9,-75.1 -11.7,-75.6 -10.5,-76.2 -9.4,-76.7 -7.6,-77.5 -6.1,-78.3 -4.9,-78.9 -3.6,-79.5 -2,-80.3 -0.9,-80.8 0.5,-81.4 1.9,-82 3.2,-82.6 4.7,-83.3 6,-83.9 7,-84.4 8.4,-85 9.8,-85.6 11.1,-86 12.4,-86.5 13.7,-86.9 15.2,-87.5 16.7,-88 17.9,-88.5 19.4,-89 21.1,-89.7 22.3,-90.1 23.5,-90.6 25.1,-91.1 26.4,-91.6 27.6,-91.9 29.1,-92.4 30.6,-92.8 31.7,-93.1 33.2,-93.5 34.7,-93.9 35.8,-94.1 37.4,-94.5 38.9,-94.9 40.2,-95.1 41.8,-95.4 43.4,-95.8 44.6,-96 45.8,-96.2 47.5,-96.5 48.8,-96.8 50.2,-97 51.6,-97.2 53.2,-97.4 54.6,-97.7 56.1,-97.9 57.5,-98.1 59.1,-98.3 61.1,-98.6 62.6,-98.8 64.1,-99 65.6,-99.2 67.1,-99.4 68.2,-99.5 69.9,-99.7 71.5,-99.9 73.2,-100.1 74.7,-100.3 76.6,-100.6 78,-100.7 79.8,-100.9 81.9,-101.2 84,-101.5 85.6,-101.7 87.3,-101.9 89.2,-102.2 90.7,-102.4 92.2,-102.6 93.7,-102.8 95.3,-103.1 96.9,-103.3 98.5,-103.5 100.1,-103.7 101.6,-104 103.5,-104.3 104.8,-104.5 106.2,-104.7 107.6,-105 109.6,-105.3 110.9,-105.5 112.3,-105.7 114,-106.1 115.6,-106.4 116.7,-106.6 117.9,-106.8 119.5,-107.2 120.7,-107.4 122.3,-107.8 123.8,-108.2 125.2,-108.6 126.6,-109 128,-109.4 129.3,-109.8 130.7,-110.3 132.5,-111 133.8,-111.6 135.1,-112.2 136.5,-112.8 137.8,-113.3 138.9,-113.8 140,-114.2 141.3,-114.8 142.3,-115.3 143.7,-116 144.9,-116.6 146.4,-117.5 147.7,-118.2 149,-119 149.9,-119.7 151,-120.5 151.8,-121 152.9,-121.8 153.9,-122.5 154.9,-123.2 156,-123.9 157.2,-124.8 158.2,-125.6 159.3,-126.5 160.4,-127.3 161.2,-128 161.8,-128.6 162.6,-129.3 163.4,-130 164.3,-130.9 165.3,-131.9 166.5,-132.9 167.5,-133.8 168.5,-134.7 169.4,-135.5 170.3,-136.4 171.3,-137.6 172.2,-138.7 173,-139.7 174,-141 174.8,-142.1 175.4,-142.9 176.2,-144 177,-145.1 177.5,-145.9 178.3,-147 179.1,-148.1 179.6,-148.9 180.3,-150.2 181,-151.5 181.5,-152.5 182.1,-153.8 182.9,-155.5 183.4,-156.8 183.9,-158.1 184.5,-159.8 184.9,-161.2 185.1,-162.2 185.3,-163.1 185.6,-164.6 185.7,-165.7 185.8,-167 185.9,-168.4 186,-169.9 186,-170.9 186,-171.9 186,-172.9 186,-174.1 186,-175.3 186,-176.5 186,-177.8 185.9,-179.3 185.7,-180.5 185.5,-181.6 185.3,-182.6 185.1,-183.6 185,-184.3 184.9,-185.6 184.8,-186.9 184.6,-188.2 184.4,-189.4 184.2,-190.6 184,-191.6 183.8,-192.6 183.6,-193.6 183.3,-194.9 183,-196.1 182.7,-197 182.3,-198.3 181.9,-199.8 181.5,-201 181.1,-202.2 180.8,-203.3 180.4,-204.3 180,-205.3 179.7,-206.3 179.3,-207.3 178.9,-208.3 178.5,-209.3 178.1,-210.4 177.7,-211.5 177.2,-212.8 176.7,-214.1 176.2,-215.3 175.8,-216.2 175,-217.5 174.4,-218.6 173.7,-219.7 173.1,-220.6 172.2,-221.9 171.6,-222.8 170.9,-223.7 170.3,-224.6 169.5,-225.8 168.6,-226.9 167.7,-228 166.8,-229.1 165.6,-230.5 164.6,-231.7 163.8,-232.7 162.9,-233.8 162,-234.8 161.2,-235.6 160.3,-236.4 159.3,-237.3 158.4,-238.1 157.4,-239.1 156.4,-240 155.4,-240.9 154.7,-241.6 153.9,-242.4 153,-243.3 152.2,-244.2 151.4,-245 150.4,-245.9 149.4,-246.8 148.5,-247.6 147.5,-248.5 146.7,-249.4 145.9,-250.3 145.1,-251.1 144.3,-251.9 143.5,-252.7 142.7,-253.5 142,-254.2 141.2,-255.2 140.6,-256.1 140,-257 139.3,-257.8 138.7,-258.6 138.2,-259.3 137.7,-260 137.2,-260.8 136.8,-261.7 136.2,-262.7 135.8,-263.5 135.3,-264.6 134.7,-266.2 134.1,-267.9 133.7,-269.6 133.3,-271.4 133.1,-273.6 133.2,-275.4 133.3,-277.1 133.5,-278.6 133.7,-280 134,-281.2 134.3,-282.1 134.7,-282.9 135,-283.8 135.5,-285 136,-286.1 136.6,-287.3 137.4,-289.2 138.3,-291.1 139,-292.7 139.6,-293.8 140.1,-294.8 140.3,-295.2 140.9,-296.2 141.5,-297.2 142.3,-298.6 143.2,-300.3 144.2,-302 144.7,-303.1 145.3,-304.1 145.6,-304.8 146.1,-305.5 146.5,-306.2 147.3,-307.4 148,-308.7 148.8,-310 149.3,-311 150.1,-312.3 150.7,-313.2 151.5,-314.4 152.3,-315.6 153.3,-317 154,-318.1 154.6,-319.1 155.5,-320.4 156.4,-321.7 157.1,-322.8 157.9,-323.9 159,-325.4 159.6,-326.3 160.2,-327.2 160.9,-328.1 161.9,-329.4 162.5,-330.3 163.2,-331.2 163.9,-332.1 164.7,-333.1 165.2,-333.8 166,-334.8 166.8,-335.8 167.6,-336.8 168.3,-337.8 169.1,-338.8 169.9,-339.8 170.7,-340.8 171.5,-341.8 172.3,-342.8 173.2,-344 173.9,-344.9 174.6,-345.8 175.3,-346.8 176.1,-347.8 176.9,-348.8 177.7,-349.8 178.5,-350.8 179.2,-351.7 180,-352.7 180.8,-353.8 181.6,-354.9 182.5,-356.1 183.6,-357.4 184.4,-358.5 185.3,-359.6 186.2,-360.7 187,-361.7 187.9,-362.9 188.9,-364.1 189.5,-364.9 190.2,-365.8 191,-366.8 191.8,-367.8 192.6,-368.8 193.5,-369.8 194.2,-370.7 195,-371.7 195.8,-372.7 196.6,-373.7 197.4,-374.7 198.3,-375.8 199.2,-377 199.9,-377.9 200.6,-378.8 201.6,-380.1 202.5,-381.3 203.2,-382.2 203.9,-383.1 204.8,-384.2 205.4,-384.9 206.1,-385.7 207,-386.8 207.9,-387.9 208.8,-389.1 209.6,-390.3 210.4,-391.4 211,-392.2 211.8,-393.2 212.6,-394.2 213.4,-395.2 214.2,-396.2 215,-397.2 215.7,-398.1 216.2,-398.8 217,-399.8 217.8,-400.8 218.6,-401.8 219.3,-402.8 220.2,-404 220.9,-404.9 221.6,-405.8 222.3,-406.8 223.1,-407.8 223.8,-408.6 224.7,-409.7 225.5,-410.8 226.3,-411.7 227.2,-412.8 228,-413.8 228.5,-414.5 229.1,-415.2 229.8,-416.1 230.4,-416.8 231,-417.6 231.8,-418.5 232.8,-419.7 233.8,-420.9 235,-422.4 236.1,-423.8 237.1,-425.1 237.9,-426.1 238.6,-427.1 239.2,-428 239.9,-428.9 240.6,-429.7 241.2,-430.5 241.9,-431.3 242.7,-432.2 243.4,-433.1 244.1,-434.2 245.1,-435.5 246,-436.7 246.5,-437.5 247.1,-438.3 248,-439.4 248.6,-440.3 249.2,-441.1 249.8,-441.9 250.7,-443 251.2,-443.7 251.8,-444.3 252.4,-445.1 253.1,-445.8 253.5,-446.3 254.7,-447.3 255.8,-448.4 256.9,-449.3 258.4,-450.5 260,-451.5 260.8,-452 261.7,-452.4 263.1,-452.9 264.4,-453.1 265.9,-453.3 267.9,-453.2 270.4,-452.9 272.3,-452.4 274.2,-451.8 275.7,-451.1 276.8,-450.6 277.7,-450.1 278.6,-449.6 279.4,-449.1 280.3,-448.5 281.2,-447.9 282.2,-447.1 283.6,-445.9 284.7,-444.7 285.9,-443.5 287.2,-441.9 288,-440.6 288.5,-439.8 289.1,-438.8 289.6,-437.8 289.9,-437 290.3,-435.8 290.6,-434.5 290.9,-433.5 291.1,-432.6 291.3,-431.8 291.4,-431.1 291.5,-430.3 291.5,-429.3 291.5,-428 291.5,-426.6 291.5,-425.4 291.5,-424.2 291.5,-423 291.5,-422 291.5,-420.8 291.6,-419.3 291.7,-417.9 291.9,-416.6 292.1,-415.4 292.3,-414.4 292.4,-413.7 292.6,-412.2 292.7,-410.7 292.8,-409.2 293.1,-407.4 293.6,-405.4 294.2,-403.9 295.2,-401.9 296.7,-399.4 298,-397.3 299.2,-395.6 300.2,-394.2 301.1,-393.1 301.5,-392.5 302.3,-391.5 303,-390.4 303.8,-389.4 304.3,-388.6 305.2,-387.4 305.7,-386.6 306.3,-385.9 307,-384.8 307.8,-383.8 308.3,-383.1 308.9,-382.3 309.7,-381.1 310.5,-379.9 311.3,-378.7 312,-377.6 312.7,-376.7 313.1,-376.1 313.4,-375.6 313.7,-375.1 314.4,-373.8 315.1,-372.5 316,-370.5 316.9,-368.8 317.9,-366.5 318.6,-365.1 319.4,-363.2 320.3,-361.8 323.8,-359.9 327.7,-359.2 331.4,-361.3 334.5,-364.4 337,-367.9 336,-372.5 334.2,-376.5 332.2,-378.2 329.9,-380.1 327.6,-382.1 326.1,-383.6 324.7,-385.1 323.6,-386.2 323.1,-386.6 322.3,-387.6 321.5,-388.6 320.5,-389.9 319.5,-391.2 318.4,-392.6 317.9,-393.3 317.1,-394.2 316.6,-394.9 315.6,-396.1 314.7,-397.4 313.7,-398.6 313,-399.6 311.9,-401 311.3,-401.9 310.7,-402.6 310.2,-403.4 309.4,-404.5 308.9,-405.3 308.3,-406.3 307.7,-407.3 307.1,-408.3 306.8,-409 306.5,-409.5 306.3,-409.8 306.1,-410.6 305.8,-411.5 305.5,-412.7 305.3,-414.3 305.2,-416.3 305.2,-418 305.5,-420 306,-422 306.6,-423.6 307.2,-425 308.6,-426.8 309.8,-428.2 311,-429.3 312.3,-430.5 313.6,-431.4 314.3,-431.9 315.1,-432.3 315.8,-432.6 316.5,-433 317.2,-433.4 317.8,-433.6 318.4,-433.8 318.9,-434.1 319.6,-434.3 320.3,-434.5 321.2,-434.8 322,-435.2 322.9,-435.5 323.5,-435.7 324.5,-436.1 325.3,-436.4 326.6,-436.8 327.9,-437.3 329.6,-438 330.9,-438.5 332.5,-439.1 333.8,-439.6 335.4,-440.2 336.8,-440.7 338.3,-441.3 339.5,-441.9 340.6,-442.4 341.8,-442.8 343.1,-443.3 344.3,-443.8 345.5,-444.2 347.2,-444.8 348.5,-445.3 349.5,-445.6 350.5,-445.8 351.8,-446.2 352.6,-446.4 353.4,-446.6 354.2,-446.8 355.2,-447.2 355.9,-447.4 356.6,-447.6 357.3,-447.8 358.5,-448.2 359.5,-448.4 360.5,-448.6 361.5,-448.8 362.4,-449.1 363.3,-449.3 364.2,-449.5 365.2,-449.7 366.2,-449.9 367.6,-450 368.9,-450.1 370.1,-450.3 371.2,-450.5 372.4,-450.7 373.6,-450.9 374.7,-451 376.2,-451 377.8,-451 379.9,-450.8 382,-450.5 383.7,-450.1 385.6,-449.2 387.7,-447.9 389.1,-446.6 390.2,-445.4 391.4,-443.2 392.1,-440.1 392.4,-437.2 392.6,-433.7 392.7,-429.8 392.7,-426.8 392.6,-425 392.5,-423.2 392.4,-422.2 392.3,-421.4 392.2,-420.6 392.1,-419.8 392,-419 392,-418 392,-417.1 392,-416.3 392,-415.6 392,-415 391.9,-414.1 391.8,-413 391.7,-411.8 391.5,-410.5 391.3,-409.1 391.2,-408 391.1,-407 391,-405.8 391,-404.6 391,-403.4 391,-402.3 391,-401.1 390.9,-399.9 390.8,-398.7 390.7,-397.6 390.6,-396.5 390.5,-395.6 390.4,-394.4 390.3,-393.2 390.1,-392 389.9,-390.6 389.7,-388.9 389.6,-387.7 389.5,-386.5 389.5,-385.2 389.5,-383.8 389.4,-382.7 389.3,-381.7 389.1,-380.3 388.9,-378.9 388.7,-377.5 388.6,-376.1 388.4,-374.5 388.3,-373.3 388.2,-372.2 388.1,-371.4 388,-370.5 387.9,-369.3 387.8,-368.1 387.6,-366.8 387.4,-365.5 387.2,-364 387.1,-363 387,-362.1 386.9,-361.3 386.7,-360 386.5,-358.7 386.3,-357.3 386.1,-355.9 385.9,-354.5 385.8,-353.5 385.6,-352.3 385.4,-351.1 385.2,-349.8 385,-348.3 384.7,-346.5 384.5,-345.1 384.3,-343.6 384,-342.2 383.8,-341 383.6,-339.8 383.4,-338.4 383.2,-337.1 383,-335.8 382.8,-334.5 382.6,-333.1 382.3,-332 382,-331 381.7,-329.5 381.4,-328 381.1,-327 380.9,-326 380.6,-324.4 380.3,-323.3 380,-322.2 379.7,-320.6 379.3,-318.9 379,-317.8 378.8,-316.7 378.4,-315.2 378.1,-314 377.9,-312.9 377.6,-311.7 377.2,-310.1 377,-308.9 376.7,-307.8 376.3,-306.3 376,-304.8 375.7,-303.6 375.4,-302.4 375.1,-300.9 374.8,-299.7 374.5,-298.6 374.2,-297.3 373.8,-295.9 373.4,-294.5 373,-293.1 372.6,-291.7 372.2,-290.2 371.8,-288.7 371.5,-287.6 371.2,-286.3 370.8,-284.9 370.4,-283.6 370,-282.4 369.5,-280.7 369.1,-279.3 368.7,-278 368.3,-276.5 367.9,-275 367.6,-273.9 367.3,-272.8 366.9,-271.5 366.5,-270.2 366.1,-268.9 365.7,-267.7 365.1,-266.1 364.7,-264.7 364.2,-263.6 363.7,-262 363.2,-260.4 362.8,-259.2 362.3,-257.6 361.9,-256.2 361.6,-255.3 361.1,-254.1 360.6,-252.5 360.1,-251.3 359.7,-250.1 359.1,-248.6 358.7,-247.4 358.2,-246.3 357.8,-245.1 357.2,-243.6 356.8,-242.4 356.2,-240.9 355.8,-239.7 355.2,-238.4 354.7,-237 354.1,-235.6 353.7,-234.5 353.1,-233.1 352.7,-231.9 352.2,-230.9 351.8,-229.9 351.1,-228.3 350.5,-227 349.9,-225.7 349.3,-224.3 348.6,-222.6 348.1,-221.5 347.7,-220.4 347.1,-219 346.5,-217.7 346,-216.7 345.4,-215.4 344.7,-213.8 344.1,-212.5 343.6,-211.4 343.1,-210.2 342.5,-209 341.9,-207.8 341.3,-206.5 340.6,-205 339.9,-203.6 339.3,-202.3 338.6,-201 338,-199.8 337.4,-198.6 336.8,-197.3 336.3,-196.2 335.7,-195.1 335,-193.7 334.4,-192.4 333.6,-191 332.9,-189.6 332.4,-188.5 331.7,-187.3 331,-185.9 330.4,-184.7 329.7,-183.5 329,-182.2 328.6,-181.3 327.9,-180.3 327.1,-179.1 326.4,-177.8 325.6,-176.4 324.7,-175 323.9,-173.7 323.2,-172.6 322.5,-171.6 321.8,-170.6 321,-169.5 320.2,-168.4 319.4,-167.3 318.5,-166.2 317.7,-165.2 317,-164.3 316.1,-163.2 315.2,-162.1 314.3,-161 313.1,-159.8 311.7,-158.3 310.7,-157.3 309.7,-156.3 308.6,-155.2 307.9,-154.3 307.2,-153.6 306.5,-152.9 305.8,-152.2 304.9,-151.3 303.9,-150.4 303.1,-149.6 302.1,-148.7 300.8,-147.6 299.7,-146.8 298.5,-145.9 297.2,-144.9 296.1,-144 295.3,-143.3 294.3,-142.5 293.3,-141.7 292.4,-141 291.5,-140.3 290.3,-139.5 289.3,-138.8 288.2,-138.1 287.1,-137.4 285.8,-136.7 284.8,-136.1 283.6,-135.3 282.5,-134.7 281.4,-134.1 280.2,-133.5 279,-132.9 277.9,-132.4 276.5,-131.7 275.1,-131 274,-130.3 272.9,-129.7 271.7,-129.1 270.6,-128.6 269.5,-128.1 268.2,-127.5 266.9,-126.9 265.7,-126.3 264.5,-125.7 263.3,-125.1 262.1,-124.5 260.9,-123.9 259.6,-123.3 258.4,-122.6 257.2,-122 256.2,-121.5 254.7,-120.7 253.5,-120.1 252.3,-119.5 251.1,-118.9 249.9,-118.3 248.7,-117.7 247.5,-117.1 246.3,-116.5 244.9,-115.7 243.4,-115 242.2,-114.4 241,-113.8 240,-113.3 238.8,-112.7 237.6,-112.1 236.6,-111.6 235.3,-110.9 233.7,-110 232.4,-109.4 231,-108.6 229.6,-107.8 228.3,-107.1 227.3,-106.6 226.1,-105.9 225.1,-105.4 224.1,-104.9 223,-104.4 221.6,-103.7 220.4,-103.1 219,-102.4 217.6,-101.7 216.5,-101 215.2,-100.4 214,-99.8 212.8,-99.1 211.6,-98.5 210.2,-97.8 209,-97.1 207.8,-96.5 206.6,-95.9 205.1,-95 203.7,-94.3 202.6,-93.7 201.5,-93 200.6,-92.5 199.4,-91.9 198.2,-91.2 197,-90.6 195.6,-89.9 194.2,-89.1 193.4,-88.7 192.4,-88.2 191,-87.4 189.8,-86.8 188.6,-86.2 187.4,-85.5 186.2,-84.8 185.1,-84.3 183.8,-83.6 182.5,-82.9 180.9,-82.1 179.6,-81.4 178.5,-80.7 177.2,-79.9 175.9,-79.2 174.9,-78.6 173.9,-78 172.6,-77.4 171.5,-76.9 170.1,-76.1 168.7,-75.4 167.3,-74.7 166.2,-74 165.3,-73.5 164.4,-73.1 163.3,-72.5 161.9,-71.9 160.6,-71.3 159.1,-70.6 157.6,-69.9 156.3,-69.4 155.1,-68.8 153.9,-68.2 152.8,-67.7 151.7,-67.2 150.4,-66.6 149,-66 147.6,-65.5 146.3,-64.9 144.9,-64.4 143.7,-63.9 142.8,-63.6 141.5,-63.1 139.8,-62.5 138.5,-62 137.1,-61.5 135.7,-61 134.7,-60.6 133.4,-60.2 132.1,-59.7 130.8,-59.3 129.2,-58.8 127.6,-58.3 126.6,-58 125.2,-57.6 123.7,-57.1 122.4,-56.6 121.1,-56.2 119.4,-55.7 118.1,-55.3 117,-55 115.6,-54.6 114.2,-54.2 113,-53.8 111.7,-53.4 110.4,-53 109,-52.6 107.6,-52.2 106,-51.7 104.3,-51.2 102.5,-50.7 101.2,-50.3 99.9,-49.9 98.6,-49.6 97.5,-49.3 96,-48.9 94.5,-48.6 92.6,-48.1 91.2,-47.7 89.8,-47.4 88.4,-47 87,-46.6 85.9,-46.4 84.8,-46.1 83.1,-45.7 81.9,-45.5 80.3,-45.1 78.8,-44.7 77.2,-44.4 75.7,-44 74.1,-43.6 72.9,-43.4 71.7,-43.1 70,-42.7 68.8,-42.5 67.2,-42.1 65.6,-41.7 63.9,-41.4 62.8,-41.1 61.2,-40.7 60,-40.5 58.8,-40.3 57.7,-40 56,-39.7 54.8,-39.5 53.6,-39.3 52.3,-39 50.5,-38.7 49.2,-38.5 47.9,-38.3 46.7,-38.1 45.5,-37.9 44.2,-37.7 43,-37.5 41.8,-37.3 40.6,-37.1 39.4,-36.9 38.3,-36.7 37.2,-36.5 36.1,-36.3 34.9,-36.1 33.7,-36 32.9,-36 31.7,-35.8 30.4,-35.6 29.2,-35.4 27.8,-35.2 26.4,-35 25,-34.9 23.7,-34.8 22.5,-34.6 21.6,-34.4 20.8,-34.2 20.1,-34.1 19.3,-34 17.9,-33.9 16.5,-33.8 15.1,-33.7 14.1,-33.5 13.1,-33.3 12.3,-33.2 11,-33 9.2,-32.7 6.4,-32.3 1.6,-28.3 -2.8,-23.9 -6.7,-19.6 -10.1,-15 -12.6,-10.5 -13.2,-9.3 -14.4,-8.2 -15.9,-6.9 -17.3,-5.9 -21.8,-5.1 -26.2,-4.7 -30.8,-5.1 -35.3,-6 -41,-7.5 -46.8,-9 -53.1,-10.3 -58.8,-11 -64.7,-11.3 -69.5,-11.1 -71.1,-10.8 -72.4,-10.6 -73.7,-10.4 -74.7,-10.3 -75.8,-10.2 -77,-10.1 -78,-10 -79.5,-9.9 -80.9,-9.8 -82.2,-9.7 -83.4,-9.5 -84.6,-9.3 -85.3,-9.2 -86.1,-9.1 -87,-9 -88,-9 -89.3,-8.9 -90.5,-8.8 -91.6,-8.7 -92.6,-8.5 -93.6,-8.3 -94.3,-8.2 -95.3,-8.1 -96.4,-8 -97.9,-7.9 -99.3,-7.8 -100.6,-7.7 -101.6,-7.5 -102.6,-7.3 -103.5,-7.2 -104.4,-7.1 -105.8,-6.9 -107.2,-6.8 -108.6,-6.7 -109.8,-6.5 -111.1,-6.3 -112,-6.2 -113,-6.1 -114,-6 -115.3,-5.9 -116.5,-5.8 -117.6,-5.7 -118.6,-5.5 -119.6,-5.3 -120.2,-5.2 -121.1,-5.1 -122.5,-4.9 -123.9,-4.8 -125.2,-4.7 -126.5,-4.6 -127.5,-4.4 -128.2,-4.3 -129,-4.2 -129.9,-4.1 -131.2,-3.9 -132.5,-3.8 -133.6,-3.7 -134.6,-3.6 -135.5,-3.5 -136.4,-3.4 -138,-3.2 -139.6,-3 -141.2,-2.8 -142.9,-2.6 -144.3,-2.5 -145.1,-2.4 -146,-2.3 -147.5,-2.1 -148.9,-1.9 -150.2,-1.7 -151.4,-1.6 -152.6,-1.5 -153.3,-1.4 -154.1,-1.3 -154.9,-1.2 -156.2,-1 -157.4,-0.8 -158.6,-0.7 -159.8,-0.6 -161,-0.5 -161.9,-0.4 -162.8,-0.3 -163.8,-0.2 -164.8,-0.1 -165.9,0 -167.2,0.1 -168.5,0.2 -169.6,0.3 -170.6,0.4 -171.6,0.6 -172.3,0.7 -173.3,0.8 -174.7,1 -176.1,1.2 -177.4,1.3 -178.6,1.4 -179.6,1.5 -180.3,1.6 -181.1,1.7 -182,1.8 -182.9,1.9 -184.2,2.1 -185.4,2.2 -186.5,2.3 -187.5,2.4 -188.6,2.5 -189.3,2.6 -190.1,2.7 -191,2.8 -192.3,3 -193.5,3.2 -194.6,3.3 -195.6,3.4 -196.6,3.5 -197.3,3.5 -198,3.6 -198.9,3.7 -199.9,3.8 -200.9,3.9 -202.2,4.1 -203.5,4.2 -204.6,4.3 -205.6,4.4 -206.6,4.5 -207.3,4.6 -208.1,4.7 -208.9,4.8 -210.2,5 -211.4,5.2 -212.5,5.3 -213.5,5.4 -214.6,5.5 -215.2,5.5 -216,5.6 -216.9,5.7 -217.9,5.8 -218.9,5.9 -220.3,6.1 -221.5,6.2 -222.7,6.3 -223.9,6.5 -225.1,6.7 -226,6.8 -226.9,6.9 -228.2,7.1 -229.4,7.2 -230.5,7.3 -231.5,7.4 -232.6,7.5 -233.3,7.6 -234.1,7.7 -234.9,7.8 -236.3,8 -237.6,8.2 -238.8,8.3 -240,8.4 -241.3,8.5 -242,8.6 -243.2,8.8 -244.5,9 -245.7,9.2 -246.9,9.4 -248.2,9.5 -249.6,9.7 -250.9,9.9 -252.2,10.1 -253.4,10.3 -255.1,10.6 -256.2,10.7 -257.3,10.8 -258.3,11 -259.3,11.2 -259.8,11.3 -260.8,11.5 -261.8,11.7 -262.8,11.9 -263.8,12.1 -265.2,12.4 -266.2,12.8 -267.6,13.5 -269.8,14.7 -273,17.1 -275.7,19.4 -278.4,21.8 -281,24.5 -282.9,26.6 -283.7,27.6 -284.8,29.2 -286,30.9 -286.9,32.3 -287.7,33.8 -288.6,35.2 -289.1,36.1 -289.6,37.1 -290.1,38 -290.7,39.1 -291.3,40.3 -292.2,42 -292.8,43.3 -293.3,44.5 -293.9,45.7 -294.4,46.9 -294.8,47.9 -295.4,49.2 -296,50.5 -296.4,51.6 -297,52.9 -297.4,53.9 -297.6,54.6 -297.9,55.3 -298.5,56.5 -298.9,57.5 -299.4,58.7 -300.1,60.3 -300.7,61.9 -301.2,63.3 -301.7,64.7 -302.1,65.9 -302.3,66.7 -302.7,67.7 -303.1,68.9 -303.5,70.1 -303.9,71.3 -304.3,72.5 -304.7,73.8 -304.9,74.6 -305.2,75.8 -305.5,77.1 -305.9,78.4 -306.1,79.5 -306.3,80.6 -306.6,81.6 -306.9,82.5 -307.1,83.4 -307.4,84.7 -307.7,86 -307.9,87 -308.1,88 -308.4,89.4 -308.6,90.3 -308.8,91.2 -309,92.1 -309.2,93 -309.4,94 -309.6,95 -309.8,96 -309.9,97 -310.2,98.4 -310.4,99.4 -310.6,100.5 -310.8,101.7 -311,103 -311,103.9 -311,104.7 -311.1,105.4 -311.3,106.4 -311.5,107.4 -311.7,108.5 -311.9,109.7 -312,111 -312,112 -312,113 -312,113.9 -312,114.9 -312,115.9 -312,116.8 -312,117.6 -312.1,118.4 -312.3,119.4 -312.5,120.3 -312.7,121.4 -312.9,122.5 -313,123.8 -313,124.8 -313,125.9 -313,126.9 -313,128 -313,128.9 -313,129.9 -313,130.9 -313,131.8 -313,132.8 -313,133.9 -313,135.1 -313,136.3 -313,137.5 -313,138.7 -313,139.9 -313,140.8 -312.9,142.1 -312.8,143.4 -312.6,144.6 -312.4,145.8 -312.1,147.4 -311.9,148.5 -311.7,149.7 -311.4,151.2 -311.1,152.7 -310.7,154.2 -310.3,155.7 -309.7,157.6 -309,159.5 -308,161.7 -307.2,163.5 -306.3,165.2 -305.6,166.4 -305,167.3 -304.1,168.5 -303,169.7 -302,171 -300.8,172.3 -299.4,173.8 -298.5,174.5 -297.7,175.3 -296.8,176 -295.6,176.9 -294.8,177.5 -294,178.1 -293.1,178.7 -292.2,179.3 -291.6,179.9 -290.9,180.4 -289.5,181.7 -288.3,182.9 -287,184.2 -285.9,185.3 -284.8,186.4 -284.5,186.8 -284.2,187.2 -284,187.5 -283.8,187.8 -283.6,188.4 -283.3,188.9 -282.8,189.7 -282.4,190.6 -281.9,191.4 -281.5,192 -281.2,192.8 -281,193.5 -280.5,194.6 -280.1,195.9 -279.7,197.2 -279.2,198.3 -278.8,199.2 -278.6,200 -278.4,200.8 -278.2,201.6 -278,202.8 -277.7,203.9 -277.5,204.7 -277.3,205.4 -277.1,206.1 -276.9,207 -276.8,208 -276.6,209 -276.4,210.1 -276.1,211.7 -275.9,212.8 -275.7,213.9 -275.5,215.1 -275.2,216.7 -275,217.8 -274.8,218.9 -274.6,220.1 -274.3,221.6 -274.1,222.7 -273.9,223.8 -273.7,225 -273.4,226.2 -273.3,227.1 -273.1,228.4 -272.9,229.7 -272.6,230.9 -272.4,232.1 -272.1,233.6 -271.9,234.6 -271.6,235.7 -271.4,236.9 -271.1,238.4 -270.9,239.5 -270.7,240.6 -270.6,241.6 -270.4,242.5 -270.2,243.7 -270,244.9 -269.8,246.1 -269.5,247.3 -269.3,248.6 -269.1,249.6 -268.9,250.7 -268.6,251.8 -268.4,253 -268.2,254.2 -268,255.4 -267.8,256.6 -267.6,257.8 -267.4,259 -267.1,260.5 -266.9,261.6 -266.7,262.7 -266.5,263.9 -266.3,265.1 -266.1,266.3 -265.9,267.6 -265.6,268.8 -265.3,270.3 -265,271.8 -264.8,272.9 -264.6,274 -264.3,275.6 -264.1,276.8 -263.9,278.1 -263.6,279.5 -263.2,281.3 -263,282.7 -262.7,284.2 -262.3,285.9 -262,287.6 -261.7,289 -261.4,290.4 -261.2,292 -261.1,293.3 -261,294.8 -261,296.4 -260.9,298 -260.8,299.6 -260.7,301.3 -260.6,302.8 -260.5,304.1 -260.6,305.6 -260.9,307.2 -261.5,309.2 -262.3,311.3 -263.4,313.7 -264.9,316 -266.2,317.9 -268,319.5 -270.2,321.1 -272.7,322.9 -275,324.9 -277.5,327.4 -279.4,329.9 -280.6,333.1 -280.8,336.9 -280.6,341.1 -280.1,344.7 -279.3,348.4 -278.6,351.3 -278.2,352.9 -277.9,353.7 -277.6,355.1 -277.4,356.1 -277.1,356.9 -276.8,358.1 -276.4,359.4 -276,360.7 -275.6,362 -275.1,363.5 -274.7,364.7 -274.4,365.8 -274.1,366.3 -273.8,366.8 -273.6,367.5 -273.4,368.2 -273.1,368.8 -272.9,369.5 -272.6,370.5 -272.3,371.1 -271.9,371.9 -271.6,372.8 -271.2,373.6 -270.9,374.1 -270.7,374.7 -270.5,375.4 -270.2,376 -270,376.7 -269.8,377.4 -269.3,378.7 -268.8,379.7 -268.3,380.9 -267.7,382.4 -267,384.1 -266.5,385.3 -266,386.5 -265.3,388.2 -264.7,389.6 -264.2,390.8 -263.7,391.8 -263.1,393.2 -262.8,394 -262.3,395.1 -261.7,396.3 -261.1,397.6 -260.3,399.2 -259.5,400.8 -258.8,402 -258.2,403.1 -257.6,404.4 -257.2,405.3 -256.4,406.6 -255.6,408.1 -254.7,409.8 -253.6,411.7 -252.5,413.4 -251.7,414.9 -250.9,416.2 -250.2,417.3 -249.4,418.5 -248.6,419.7 -247.8,420.9 -246.8,422.3 -245.8,423.7 -245,424.7 -243.9,426.1 -242.9,427.3 -242.1,428.3 -241.3,429.3 -240.4,430.4 -240,431 -239,432.1 -236.3,434.9 -233.5,437.6 -231,440.1 -228.4,442.5 -226.4,444.4 -225.9,444.8 -225.5,445.3 -225,445.7 -224.5,446.3 -223.9,446.8 -223.4,447.2 -222.6,447.8 -221.8,448.4 -221.1,448.9 -220.4,449.4 -219.9,449.9 -219.3,450.3 -218.7,450.7 -218.1,451.1 -217.5,451.5 -216.9,451.9 -216.4,452.2 -215.7,452.8 -214.5,453.5 -213.3,454.2 -212.1,454.9 -211.1,455.5 -210.1,455.9 -209.2,456.3 -208.3,456.7 -207.4,457.1 -206.5,457.5 -205.5,457.9 -204.9,458.2 -204.3,458.5 -203.3,458.9 -202.3,459.3 -201,459.8 -199.3,460.4 -197.4,461.1 -195.9,461.7 -194.4,462.3 -193.3,462.8 -192.6,463.2 -192.1,463.5 -191.5,463.7 -191,464 -190.7,464.2 -190.2,464.4 -189.8,464.7 -188.6,465.9 -187.3,467 -186.1,468.2 -184.9,469.5 -183.5,471.2 -182.9,472 -182.4,472.9 -181.7,474.4 -181.2,475.9 -180.8,476.9 -180.5,478.5 -180.3,480 -180.3,481.4 -180.4,482.6 -180.6,484 -181,485.2 -181.4,486.4 -181.9,487.1 -182.5,488 -184.4,489.4 -186.1,490.5 -188,491.6 -190,492.6 -191.8,493.5 -192.9,493.8 -194.4,494.1 -196.2,494.5 -198,495 -200.4,495.6 -202.4,496.1 -204.6,496.7 -206.4,497.2 -208.5,497.7 -210.1,498 -211.7,498.4 -212.9,498.6 -214.1,498.8 -215.4,499.1 -216.7,499.4 -217.9,499.6 -219.1,499.8 -220.1,500.1 -221.1,500.3 -222.1,500.5 -223.1,500.7 -224,500.9 -224.9,501.1 -225.3,501.2 -225.8,501.3 -227,501.5 -228.2,501.8 -229.5,502 -230.9,502.2 -232.3,502.4 -233.3,502.6 -234.6,502.7 -236,502.9 -237.6,503.1 -239.4,503.4 -241.2,503.6 -243,503.8 -247.1,503.1 -250.9,502.4 -254.8,501 -258.4,499.6 -261.7,497.9 -262.7,496.5 -263.7,494.9 -264.2,493.5 -264.6,491.9 -265,490.6 -265.2,489.6 -265.3,488.4 -265.5,487.4 -265.8,485.9 -266,484.3 -266.3,482.7 -266.6,481.3 -266.9,479.4 -267.1,478.1 -267.3,476.8 -267.5,475.7 -267.8,474.4 -268.2,473.4 -268.6,472.4 -269.2,471 -269.9,469.2 -270.6,467.5 -271.2,466.2 -271.8,464.9 -272.2,464 -272.5,463.5 -272.9,462.8 -273.3,462 -273.7,461.2 -274.5,460 -275.2,458.7 -275.8,457.9 -276.4,456.9 -277.3,455.6 -277.8,454.7 -278.4,453.9 -278.9,453 -279.4,452.3 -279.7,451.7 -280.1,451.2 -280.7,450.3 -281.3,449.4 -282.2,448.1 -283.1,447 -283.9,445.8 -284.8,444.5 -285.7,443.2 -286.4,442.1 -287,441 -287.9,439.6 -288.5,438.6 -289.1,437.6 -289.6,436.9 -290.2,436 -290.6,435.4 -291,434.6 -291.5,433.8 -292.1,432.6 -292.7,431.6 -293.2,430.6 -293.8,429.6 -294.3,428.6 -294.8,427.7 -295.4,426.4 -296.2,424.9 -296.8,423.6 -297.4,422.3 -298,421 -298.4,420.1 -298.8,419.2 -299.2,418.3 -299.8,417.2 -300.2,416.3 -300.8,415.2 -301.2,414.3 -301.8,413.2 -302.2,412.3 -302.7,411.4 -303.1,410.4 -303.5,409.4 -303.9,408.5 -304.3,407.5 -304.8,406.2 -305.3,405.2 -305.9,403.9 -306.3,402.7 -306.9,401.4 -307.3,400.4 -307.7,399.4 -308.1,398.4 -308.7,397.2 -309.1,396.2 -309.5,395.1 -310,393.7 -310.4,392.6 -310.8,391.5 -311.2,390.4 -311.6,389.4 -311.9,388.7 -312.3,387.6 -312.7,386.5 -313.1,385.4 -313.5,384.3 -313.9,383.2 -314.3,382.2 -314.6,381.1 -315,380 -315.4,378.9 -315.8,377.8 -316.2,376.6 -316.5,375.7 -316.9,374.6 -317.3,373.4 -317.9,371.3 -318.5,369.6 -319.1,367.9 -319.6,366.4 -320.2,364.6 -320.5,363.7 -320.9,362.2 -321.5,360.4 -322,358.6 -322.4,357.2 -322.9,355.8 -323.3,354.5 -323.5,353.5 -323.9,352.2 -324.3,350.9 -324.7,349.6 -325,348.8 -325.4,347.5 -325.7,346.5 -326.1,345.2 -326.4,343.9 -326.9,342.2 -327.3,340.9 -327.8,339.3 -328.2,338 -328.6,336.7 -328.9,335.8 -329.3,334.6 -329.5,333.7 -329.8,332.7 -330.2,331.3 -330.5,329.9 -330.8,328.9 -331.2,327.6 -331.5,326.4 -331.8,325.5 -332.2,324.2 -332.5,322.9 -332.7,321.9 -333,320.9 -333.3,319.6 -333.5,318.7 -333.9,317.4 -334.4,315.9 -334.9,314 -335.3,312.5 -335.8,311 -336.2,309.6 -336.5,308.3 -336.7,307.4 -337.1,306.1 -337.4,304.8 -337.6,303.8 -337.9,302.9 -338.2,302 -338.4,301 -338.6,300 -338.9,298.9 -339.1,297.8 -339.4,296.2 -339.7,295.1 -340,294 -340.2,293 -340.5,291.6 -340.8,290.6 -341,289.6 -341.2,288.6 -341.5,287.6 -341.8,286.4 -342,285.3 -342.2,284.2 -342.5,283 -342.7,281.8 -342.8,281 -343,279.7 -343.3,278.4 -343.5,277.2 -343.7,276 -343.9,275 -344,274.2 -344.1,272.9 -344.3,271.6 -344.5,270.3 -344.7,269 -344.9,268 -345,267.4 -345,266.8 -345.1,265.4 -345.3,264 -345.5,262.6 -345.7,261.3 -345.9,260 -346,259.4 -346,258.7 -346.1,257.4 -346.3,256.1 -346.5,254.8 -346.7,253.6 -346.9,252.4 -347,251.8 -347.1,250.4 -347.3,248.7 -347.5,246.9 -347.8,244.5 -348.1,242.1 -348.3,240.5 -348.4,239.2 -348.5,238 -348.5,237.4 -348.5,236.8 -348.6,235.8 -348.7,234.7 -348.8,233.5 -349,231.9 -349.2,230.3 -349.3,229.1 -349.4,227.5 -349.5,225.9 -349.5,224.7 -349.5,223.4 -349.6,222.1 -349.7,220.9 -349.9,219.3 -350.1,217.8 -350.3,216.4 -350.4,215 -350.5,214 -350.5,213.4 -350.5,213.1 -350.5,212.8" style="stroke: rgb(55, 65, 81); stroke-width: 10;"></polygon><polyline vector-effect="non-scaling-stroke" fill="none" points="-350.5,209.7 -350.6,209 -350.7,208.3 -350.8,207 -350.9,205.4 -351,204 -351,202.5 -351,201 -351.1,199.1 -351.3,197.5 -351.5,195.8 -351.7,194.3 -351.9,192.7 -352,191.4 -352,190.1 -352,188.7 -352,187.1 -352,185.8 -352.2,184.1 -352.4,182.4 -352.6,180.8 -352.8,179.4 -353,177.8 -353,176.7 -353,175.3 -353,174 -353,172.5 -353,170.8 -353.1,168.8 -353.3,167 -353.5,165.2 -353.7,163.5 -353.9,162.2 -354,161.1 -354,159.7 -354,158.2 -354,156.7 -354,154.9 -354,153.2 -354,151.6 -354,149.8 -354,148.1 -354,146.4 -354,144.6 -354,143.1 -354,141.5 -354,139.7 -354,138.1 -354,136.5 -354,134.7 -354,133 -354,131.6 -353.9,130.2 -353.7,128.4 -353.5,126.7 -353.3,125.1 -353.1,123.1 -353,120.9 -353,119.3 -353,117.7 -352.9,116.2 -352.7,114.4 -352.5,112.9 -352.3,111.1 -352.1,109.1 -351.9,107.1 -351.8,105.8 -351.6,103.9 -351.4,102.1 -351.1,100.5 -350.9,99 -350.6,97 -350.3,95.3 -350,93.8 -349.7,91.8 -349.4,89.8 -349.1,88.2 -348.8,86.4 -348.5,84.4 -348.2,83 -347.9,81.5 -347.6,79.6 -347.3,78.2 -346.9,76.7 -346.5,75.1 -346,73 -345.5,71.4 -345.1,69.7 -344.7,68.1 -344.3,66.5 -343.9,65.1 -343.5,63.7 -343,61.9 -342.5,60.4 -342,58.6 -341.5,57.2 -341,55.4 -340.5,54 -340.1,52.6 -339.6,51.3 -339.1,49.8 -338.6,48.7 -338,47.1 -337.3,45.5 -336.7,43.8 -336.2,42.3 -335.6,40.2 -335.2,38.6 -334.9,37 -334.7,35.7 -334.4,34.4 -334.2,33.2 -334.1,31.6 -334,29.9 -333.9,28.3 -333.9,26.7 -334,25.5 -334,24.7 -334,23.7 -334,22.6 -334,21.4 -334,20.2 -334,19 -334,18 -334,17 -334,16 -334,15.1 -334,14.3 -334,13.6 -334,13 -333.9,12 -333.8,10.9 -333.7,9.8 -333.6,8.7 -333.4,7.7 -333.3,7.2 -333.2,6.8 -333,6 -332.8,5.2 -332.7,4.2 -332.6,3.2 -332.3,1.9 -332,0.8 -331.5,-0.3 -330.6,-1.6 -329.6,-3 -328.6,-4.1 -327.5,-4.9 -326.3,-5.9 -325.3,-6.5 -324.1,-7 -322.6,-7.5 -321.1,-8 -319.4,-8.3 -317.7,-8.6 -316,-8.8 -314.2,-9.1 -312.4,-9.4 -310.6,-9.7 -308.8,-10 -307.2,-10.3 -305.5,-10.6 -303.9,-10.9 -302.7,-11.1 -301.4,-11.3 -300,-11.5 -298.8,-11.6 -297.6,-11.7 -296.4,-11.8 -295.4,-11.9 -294.2,-12.1 -292.7,-12.3 -291.2,-12.5 -289.7,-12.7 -288.1,-12.9 -286.7,-13 -285.6,-13.1 -284.5,-13.3 -283.4,-13.5 -282.2,-13.7 -281,-13.9 -279.8,-14.1 -278.6,-14.2 -277.4,-14.3 -276.4,-14.4 -275.4,-14.6 -274.7,-14.7 -273.4,-14.9 -272.1,-15.1 -270.8,-15.3 -269.6,-15.4 -268.5,-15.5 -267.6,-15.6 -266.6,-15.7 -265.5,-15.8 -263.9,-16 -262.3,-16.2 -260.9,-16.3 -259.3,-16.5 -257.7,-16.7 -256.6,-16.8 -254.9,-17 -253.4,-17.2 -252.2,-17.4 -250.9,-17.6 -249.4,-17.8 -248.4,-17.9 -247.1,-18 -245.4,-18.1 -243.8,-18.3 -242.4,-18.5 -241,-18.7 -239.7,-18.9 -238.6,-19 -237.5,-19 -235.8,-19.2 -234.2,-19.4 -232.7,-19.6 -231.4,-19.8 -230,-20 -228.9,-20.1 -227.7,-20.2 -226.1,-20.4 -224.5,-20.6 -223.1,-20.8 -221.7,-21 -220.3,-21.2 -219,-21.4 -217.6,-21.7 -216.2,-22 -214.5,-22.3 -212.9,-22.7 -211.7,-23 -210.1,-23.3 -208.5,-23.7 -207.4,-24 -206.3,-24.3 -204.7,-24.7 -203.5,-25 -202,-25.4 -200.5,-25.8 -199,-26.2 -197.5,-26.6 -196.1,-27 -194.5,-27.4 -193,-27.8 -191.4,-28.2 -189.9,-28.6 -188.1,-29.1 -186.8,-29.5 -185.4,-29.9 -184,-30.3 -182.5,-30.7 -180.8,-31.2 -179.1,-31.6 -178.2,-31.8 -176.3,-32.3 -174.9,-32.7 -173.6,-33.1 -172.3,-33.5 -170.2,-34.1 -168.8,-34.5 -167.3,-34.9 -165.7,-35.3 -164.1,-35.7 -162.2,-36.2 -160.7,-36.6 -159.2,-37 -157.8,-37.4 -156.3,-37.8 -155.2,-38.2 -153.6,-38.6 -152.1,-39 -150.5,-39.4 -148.5,-40 -146.5,-40.5 -144.9,-41 -142.9,-41.6 -141.3,-42 -139.9,-42.4 -138.4,-42.8 -137,-43.2 -135.4,-43.6 -133.9,-44.1 -132.6,-44.4 -131,-44.8 -129.1,-45.3 -127.8,-45.7 -126.5,-46.1 -124.8,-46.6 -123.5,-47 -122.4,-47.3 -120.9,-47.7 -119.3,-48 -118.2,-48.3 -116.5,-48.7 -114.9,-49 -113.6,-49.2 -112.4,-49.5 -110.8,-49.7 -109.7,-49.8 -108,-50 -106.4,-50.2 -104.8,-50.3 -103.5,-50.4 -102.1,-50.5 -101.1,-50.6 -99.9,-50.7 -98.6,-50.8 -96.8,-51 -95.2,-51.2 -93.7,-51.3 -92.4,-51.4 -91,-51.5 -89.9,-51.6 -88.4,-51.8 -86.9,-52 -85.4,-52.2 -84.1,-52.4 -82.7,-52.5 -81.6,-52.5 -80.6,-52.6 -79,-52.8 -77.4,-53 -76.1,-53.2 -74.7,-53.4 -72.8,-53.6 -71.4,-53.7 -69.5,-53.9 -67.7,-54.2 -66.1,-54.5 -64.8,-54.7 -63.4,-54.9 -62,-55.2 -60.6,-55.4 -59.2,-55.6 -57.4,-56 -55.6,-56.5 -54.3,-56.8 -52.9,-57.2 -51.2,-57.7 -49.8,-58.1 -48.4,-58.6 -47,-59.1 -45.6,-59.6 -44.2,-60.1 -42.9,-60.7 -41.7,-61.1 -40.3,-61.7 -39,-62.2 -37.6,-62.9 -36.4,-63.4 -35.3,-64 -34,-64.6 -32.5,-65.3 -31.4,-65.8 -29.8,-66.6 -28.2,-67.3 -27,-67.9 -25.8,-68.6 -24.3,-69.3 -23.3,-69.8 -22.3,-70.4 -20.9,-71 -19.5,-71.6 -18.1,-72.4 -16.7,-73.1 -15.2,-73.8 -14.1,-74.5 -12.9,-75.1 -11.7,-75.6 -10.5,-76.2 -9.4,-76.7 -7.6,-77.5 -6.1,-78.3 -4.9,-78.9 -3.6,-79.5 -2,-80.3 -0.9,-80.8 0.5,-81.4 1.9,-82 3.2,-82.6 4.7,-83.3 6,-83.9 7,-84.4 8.4,-85 9.8,-85.6 11.1,-86 12.4,-86.5 13.7,-86.9 15.2,-87.5 16.7,-88 17.9,-88.5 19.4,-89 21.1,-89.7 22.3,-90.1 23.5,-90.6 25.1,-91.1 26.4,-91.6 27.6,-91.9 29.1,-92.4 30.6,-92.8 31.7,-93.1 33.2,-93.5 34.7,-93.9 35.8,-94.1 37.4,-94.5 38.9,-94.9 40.2,-95.1 41.8,-95.4 43.4,-95.8 44.6,-96 45.8,-96.2 47.5,-96.5 48.8,-96.8 50.2,-97 51.6,-97.2 53.2,-97.4 54.6,-97.7 56.1,-97.9 57.5,-98.1 59.1,-98.3 61.1,-98.6 62.6,-98.8 64.1,-99 65.6,-99.2 67.1,-99.4 68.2,-99.5 69.9,-99.7 71.5,-99.9 73.2,-100.1 74.7,-100.3 76.6,-100.6 78,-100.7 79.8,-100.9 81.9,-101.2 84,-101.5 85.6,-101.7 87.3,-101.9 89.2,-102.2 90.7,-102.4 92.2,-102.6 93.7,-102.8 95.3,-103.1 96.9,-103.3 98.5,-103.5 100.1,-103.7 101.6,-104 103.5,-104.3 104.8,-104.5 106.2,-104.7 107.6,-105 109.6,-105.3 110.9,-105.5 112.3,-105.7 114,-106.1 115.6,-106.4 116.7,-106.6 117.9,-106.8 119.5,-107.2 120.7,-107.4 122.3,-107.8 123.8,-108.2 125.2,-108.6 126.6,-109 128,-109.4 129.3,-109.8 130.7,-110.3 132.5,-111 133.8,-111.6 135.1,-112.2 136.5,-112.8 137.8,-113.3 138.9,-113.8 140,-114.2 141.3,-114.8 142.3,-115.3 143.7,-116 144.9,-116.6 146.4,-117.5 147.7,-118.2 149,-119 149.9,-119.7 151,-120.5 151.8,-121 152.9,-121.8 153.9,-122.5 154.9,-123.2 156,-123.9 157.2,-124.8 158.2,-125.6 159.3,-126.5 160.4,-127.3 161.2,-128 161.8,-128.6 162.6,-129.3 163.4,-130 164.3,-130.9 165.3,-131.9 166.5,-132.9 167.5,-133.8 168.5,-134.7 169.4,-135.5 170.3,-136.4 171.3,-137.6 172.2,-138.7 173,-139.7 174,-141 174.8,-142.1 175.4,-142.9 176.2,-144 177,-145.1 177.5,-145.9 178.3,-147 179.1,-148.1 179.6,-148.9 180.3,-150.2 181,-151.5 181.5,-152.5 182.1,-153.8 182.9,-155.5 183.4,-156.8 183.9,-158.1 184.5,-159.8 184.9,-161.2 185.1,-162.2 185.3,-163.1 185.6,-164.6 185.7,-165.7 185.8,-167 185.9,-168.4 186,-169.9 186,-170.9 186,-171.9 186,-172.9 186,-174.1 186,-175.3 186,-176.5 186,-177.8 185.9,-179.3 185.7,-180.5 185.5,-181.6 185.3,-182.6 185.1,-183.6 185,-184.3 184.9,-185.6 184.8,-186.9 184.6,-188.2 184.4,-189.4 184.2,-190.6 184,-191.6 183.8,-192.6 183.6,-193.6 183.3,-194.9 183,-196.1 182.7,-197 182.3,-198.3 181.9,-199.8 181.5,-201 181.1,-202.2 180.8,-203.3 180.4,-204.3 180,-205.3 179.7,-206.3 179.3,-207.3 178.9,-208.3 178.5,-209.3 178.1,-210.4 177.7,-211.5 177.2,-212.8 176.7,-214.1 176.2,-215.3 175.8,-216.2 175,-217.5 174.4,-218.6 173.7,-219.7 173.1,-220.6 172.2,-221.9 171.6,-222.8 170.9,-223.7 170.3,-224.6 169.5,-225.8 168.6,-226.9 167.7,-228 166.8,-229.1 165.6,-230.5 164.6,-231.7 163.8,-232.7 162.9,-233.8 162,-234.8 161.2,-235.6 160.3,-236.4 159.3,-237.3 158.4,-238.1 157.4,-239.1 156.4,-240 155.4,-240.9 154.7,-241.6 153.9,-242.4 153,-243.3 152.2,-244.2 151.4,-245 150.4,-245.9 149.4,-246.8 148.5,-247.6 147.5,-248.5 146.7,-249.4 145.9,-250.3 145.1,-251.1 144.3,-251.9 143.5,-252.7 142.7,-253.5 142,-254.2 141.2,-255.2 140.6,-256.1 140,-257 139.3,-257.8 138.7,-258.6 138.2,-259.3 137.7,-260 137.2,-260.8 136.8,-261.7 136.2,-262.7 135.8,-263.5 135.3,-264.6 134.7,-266.2 134.1,-267.9 133.7,-269.6 133.3,-271.4 133.1,-273.6 133.2,-275.4 133.3,-277.1 133.5,-278.6 133.7,-280 134,-281.2 134.3,-282.1 134.7,-282.9 135,-283.8 135.5,-285 136,-286.1 136.6,-287.3 137.4,-289.2 138.3,-291.1 139,-292.7 139.6,-293.8 140.1,-294.8 140.3,-295.2 140.9,-296.2 141.5,-297.2 142.3,-298.6 143.2,-300.3 144.2,-302 144.7,-303.1 145.3,-304.1 145.6,-304.8 146.1,-305.5 146.5,-306.2 147.3,-307.4 148,-308.7 148.8,-310 149.3,-311 150.1,-312.3 150.7,-313.2 151.5,-314.4 152.3,-315.6 153.3,-317 154,-318.1 154.6,-319.1 155.5,-320.4 156.4,-321.7 157.1,-322.8 157.9,-323.9 159,-325.4 159.6,-326.3 160.2,-327.2 160.9,-328.1 161.9,-329.4 162.5,-330.3 163.2,-331.2 163.9,-332.1 164.7,-333.1 165.2,-333.8 166,-334.8 166.8,-335.8 167.6,-336.8 168.3,-337.8 169.1,-338.8 169.9,-339.8 170.7,-340.8 171.5,-341.8 172.3,-342.8 173.2,-344 173.9,-344.9 174.6,-345.8 175.3,-346.8 176.1,-347.8 176.9,-348.8 177.7,-349.8 178.5,-350.8 179.2,-351.7 180,-352.7 180.8,-353.8 181.6,-354.9 182.5,-356.1 183.6,-357.4 184.4,-358.5 185.3,-359.6 186.2,-360.7 187,-361.7 187.9,-362.9 188.9,-364.1 189.5,-364.9 190.2,-365.8 191,-366.8 191.8,-367.8 192.6,-368.8 193.5,-369.8 194.2,-370.7 195,-371.7 195.8,-372.7 196.6,-373.7 197.4,-374.7 198.3,-375.8 199.2,-377 199.9,-377.9 200.6,-378.8 201.6,-380.1 202.5,-381.3 203.2,-382.2 203.9,-383.1 204.8,-384.2 205.4,-384.9 206.1,-385.7 207,-386.8 207.9,-387.9 208.8,-389.1 209.6,-390.3 210.4,-391.4 211,-392.2 211.8,-393.2 212.6,-394.2 213.4,-395.2 214.2,-396.2 215,-397.2 215.7,-398.1 216.2,-398.8 217,-399.8 217.8,-400.8" style="stroke: rgb(239, 68, 68); stroke-width: 7;"></polyline><polyline vector-effect="non-scaling-stroke" fill="none" points="218.6,-401.8 219.3,-402.8 220.2,-404 220.9,-404.9 221.6,-405.8 222.3,-406.8 223.1,-407.8 223.8,-408.6 224.7,-409.7 225.5,-410.8 226.3,-411.7 227.2,-412.8 228,-413.8 228.5,-414.5 229.1,-415.2 229.8,-416.1 230.4,-416.8 231,-417.6 231.8,-418.5 232.8,-419.7 233.8,-420.9 235,-422.4 236.1,-423.8 237.1,-425.1 237.9,-426.1 238.6,-427.1 239.2,-428 239.9,-428.9 240.6,-429.7 241.2,-430.5 241.9,-431.3 242.7,-432.2 243.4,-433.1 244.1,-434.2 245.1,-435.5 246,-436.7 246.5,-437.5 247.1,-438.3 248,-439.4 248.6,-440.3 249.2,-441.1 249.8,-441.9 250.7,-443 251.2,-443.7 251.8,-444.3 252.4,-445.1 253.1,-445.8 253.5,-446.3 254.7,-447.3 255.8,-448.4 256.9,-449.3 258.4,-450.5 260,-451.5 260.8,-452 261.7,-452.4 263.1,-452.9 264.4,-453.1 265.9,-453.3 267.9,-453.2 270.4,-452.9 272.3,-452.4 274.2,-451.8 275.7,-451.1 276.8,-450.6 277.7,-450.1 278.6,-449.6 279.4,-449.1 280.3,-448.5 281.2,-447.9 282.2,-447.1 283.6,-445.9 284.7,-444.7 285.9,-443.5 287.2,-441.9 288,-440.6 288.5,-439.8 289.1,-438.8 289.6,-437.8 289.9,-437 290.3,-435.8 290.6,-434.5 290.9,-433.5 291.1,-432.6 291.3,-431.8 291.4,-431.1 291.5,-430.3 291.5,-429.3 291.5,-428 291.5,-426.6 291.5,-425.4 291.5,-424.2 291.5,-423 291.5,-422 291.5,-420.8 291.6,-419.3 291.7,-417.9 291.9,-416.6 292.1,-415.4 292.3,-414.4 292.4,-413.7 292.6,-412.2 292.7,-410.7 292.8,-409.2 293.1,-407.4 293.6,-405.4 294.2,-403.9 295.2,-401.9 296.7,-399.4 298,-397.3 299.2,-395.6 300.2,-394.2 301.1,-393.1 301.5,-392.5 302.3,-391.5 303,-390.4 303.8,-389.4 304.3,-388.6 305.2,-387.4 305.7,-386.6 306.3,-385.9 307,-384.8 307.8,-383.8 308.3,-383.1 308.9,-382.3 309.7,-381.1 310.5,-379.9 311.3,-378.7 312,-377.6 312.7,-376.7 313.1,-376.1 313.4,-375.6 313.7,-375.1 314.4,-373.8 315.1,-372.5 316,-370.5 316.9,-368.8 317.9,-366.5 318.6,-365.1 319.4,-363.2 320.3,-361.8 323.8,-359.9 327.7,-359.2 331.4,-361.3 334.5,-364.4 337,-367.9 336,-372.5 334.2,-376.5 332.2,-378.2 329.9,-380.1 327.6,-382.1 326.1,-383.6 324.7,-385.1 323.6,-386.2 323.1,-386.6 322.3,-387.6 321.5,-388.6 320.5,-389.9 319.5,-391.2 318.4,-392.6 317.9,-393.3 317.1,-394.2 316.6,-394.9 315.6,-396.1 314.7,-397.4 313.7,-398.6 313,-399.6 311.9,-401 311.3,-401.9 310.7,-402.6 310.2,-403.4 309.4,-404.5 308.9,-405.3 308.3,-406.3 307.7,-407.3 307.1,-408.3 306.8,-409 306.5,-409.5 306.3,-409.8 306.1,-410.6 305.8,-411.5 305.5,-412.7 305.3,-414.3 305.2,-416.3 305.2,-418 305.5,-420 306,-422 306.6,-423.6 307.2,-425 308.6,-426.8 309.8,-428.2 311,-429.3 312.3,-430.5 313.6,-431.4 314.3,-431.9 315.1,-432.3 315.8,-432.6 316.5,-433 317.2,-433.4 317.8,-433.6 318.4,-433.8 318.9,-434.1 319.6,-434.3 320.3,-434.5 321.2,-434.8 322,-435.2 322.9,-435.5 323.5,-435.7 324.5,-436.1 325.3,-436.4 326.6,-436.8 327.9,-437.3 329.6,-438 330.9,-438.5 332.5,-439.1 333.8,-439.6 335.4,-440.2 336.8,-440.7 338.3,-441.3 339.5,-441.9 340.6,-442.4 341.8,-442.8 343.1,-443.3 344.3,-443.8 345.5,-444.2 347.2,-444.8 348.5,-445.3 349.5,-445.6 350.5,-445.8 351.8,-446.2 352.6,-446.4 353.4,-446.6 354.2,-446.8 355.2,-447.2 355.9,-447.4 356.6,-447.6 357.3,-447.8 358.5,-448.2 359.5,-448.4 360.5,-448.6 361.5,-448.8 362.4,-449.1 363.3,-449.3 364.2,-449.5 365.2,-449.7 366.2,-449.9 367.6,-450 368.9,-450.1 370.1,-450.3 371.2,-450.5 372.4,-450.7 373.6,-450.9 374.7,-451 376.2,-451 377.8,-451 379.9,-450.8 382,-450.5 383.7,-450.1 385.6,-449.2 387.7,-447.9 389.1,-446.6 390.2,-445.4 391.4,-443.2 392.1,-440.1 392.4,-437.2 392.6,-433.7 392.7,-429.8 392.7,-426.8 392.6,-425 392.5,-423.2 392.4,-422.2 392.3,-421.4 392.2,-420.6 392.1,-419.8 392,-419 392,-418 392,-417.1 392,-416.3 392,-415.6 392,-415 391.9,-414.1 391.8,-413 391.7,-411.8 391.5,-410.5 391.3,-409.1 391.2,-408 391.1,-407 391,-405.8 391,-404.6 391,-403.4 391,-402.3 391,-401.1 390.9,-399.9 390.8,-398.7 390.7,-397.6 390.6,-396.5 390.5,-395.6 390.4,-394.4 390.3,-393.2 390.1,-392 389.9,-390.6 389.7,-388.9 389.6,-387.7 389.5,-386.5 389.5,-385.2 389.5,-383.8 389.4,-382.7 389.3,-381.7 389.1,-380.3 388.9,-378.9 388.7,-377.5 388.6,-376.1 388.4,-374.5 388.3,-373.3 388.2,-372.2 388.1,-371.4 388,-370.5 387.9,-369.3 387.8,-368.1 387.6,-366.8 387.4,-365.5 387.2,-364 387.1,-363 387,-362.1 386.9,-361.3 386.7,-360 386.5,-358.7 386.3,-357.3 386.1,-355.9 385.9,-354.5 385.8,-353.5 385.6,-352.3 385.4,-351.1 385.2,-349.8 385,-348.3 384.7,-346.5 384.5,-345.1 384.3,-343.6 384,-342.2 383.8,-341 383.6,-339.8 383.4,-338.4 383.2,-337.1 383,-335.8 382.8,-334.5 382.6,-333.1 382.3,-332 382,-331 381.7,-329.5 381.4,-328 381.1,-327 380.9,-326 380.6,-324.4 380.3,-323.3 380,-322.2 379.7,-320.6 379.3,-318.9 379,-317.8 378.8,-316.7 378.4,-315.2 378.1,-314 377.9,-312.9 377.6,-311.7 377.2,-310.1 377,-308.9 376.7,-307.8 376.3,-306.3 376,-304.8 375.7,-303.6 375.4,-302.4 375.1,-300.9 374.8,-299.7 374.5,-298.6 374.2,-297.3 373.8,-295.9 373.4,-294.5 373,-293.1 372.6,-291.7 372.2,-290.2 371.8,-288.7 371.5,-287.6 371.2,-286.3 370.8,-284.9 370.4,-283.6 370,-282.4 369.5,-280.7 369.1,-279.3 368.7,-278 368.3,-276.5 367.9,-275 367.6,-273.9 367.3,-272.8 366.9,-271.5 366.5,-270.2 366.1,-268.9 365.7,-267.7 365.1,-266.1 364.7,-264.7 364.2,-263.6 363.7,-262 363.2,-260.4 362.8,-259.2 362.3,-257.6 361.9,-256.2 361.6,-255.3 361.1,-254.1 360.6,-252.5 360.1,-251.3 359.7,-250.1 359.1,-248.6 358.7,-247.4 358.2,-246.3 357.8,-245.1 357.2,-243.6 356.8,-242.4 356.2,-240.9 355.8,-239.7 355.2,-238.4 354.7,-237 354.1,-235.6 353.7,-234.5 353.1,-233.1 352.7,-231.9 352.2,-230.9 351.8,-229.9 351.1,-228.3 350.5,-227 349.9,-225.7 349.3,-224.3 348.6,-222.6 348.1,-221.5 347.7,-220.4 347.1,-219 346.5,-217.7 346,-216.7 345.4,-215.4 344.7,-213.8 344.1,-212.5 343.6,-211.4 343.1,-210.2 342.5,-209 341.9,-207.8 341.3,-206.5 340.6,-205 339.9,-203.6 339.3,-202.3 338.6,-201 338,-199.8 337.4,-198.6 336.8,-197.3 336.3,-196.2 335.7,-195.1 335,-193.7 334.4,-192.4 333.6,-191 332.9,-189.6 332.4,-188.5 331.7,-187.3 331,-185.9 330.4,-184.7 329.7,-183.5 329,-182.2 328.6,-181.3 327.9,-180.3 327.1,-179.1 326.4,-177.8 325.6,-176.4 324.7,-175 323.9,-173.7 323.2,-172.6 322.5,-171.6 321.8,-170.6 321,-169.5 320.2,-168.4 319.4,-167.3 318.5,-166.2 317.7,-165.2 317,-164.3 316.1,-163.2 315.2,-162.1 314.3,-161 313.1,-159.8 311.7,-158.3 310.7,-157.3 309.7,-156.3 308.6,-155.2 307.9,-154.3 307.2,-153.6 306.5,-152.9 305.8,-152.2 304.9,-151.3 303.9,-150.4 303.1,-149.6 302.1,-148.7 300.8,-147.6 299.7,-146.8 298.5,-145.9 297.2,-144.9 296.1,-144 295.3,-143.3 294.3,-142.5 293.3,-141.7 292.4,-141 291.5,-140.3 290.3,-139.5 289.3,-138.8 288.2,-138.1 287.1,-137.4 285.8,-136.7 284.8,-136.1 283.6,-135.3 282.5,-134.7 281.4,-134.1 280.2,-133.5 279,-132.9 277.9,-132.4 276.5,-131.7 275.1,-131 274,-130.3 272.9,-129.7 271.7,-129.1 270.6,-128.6 269.5,-128.1 268.2,-127.5 266.9,-126.9 265.7,-126.3 264.5,-125.7 263.3,-125.1 262.1,-124.5 260.9,-123.9 259.6,-123.3 258.4,-122.6 257.2,-122 256.2,-121.5 254.7,-120.7 253.5,-120.1 252.3,-119.5 251.1,-118.9 249.9,-118.3 248.7,-117.7 247.5,-117.1 246.3,-116.5 244.9,-115.7 243.4,-115 242.2,-114.4 241,-113.8 240,-113.3 238.8,-112.7 237.6,-112.1 236.6,-111.6 235.3,-110.9 233.7,-110 232.4,-109.4 231,-108.6 229.6,-107.8 228.3,-107.1 227.3,-106.6 226.1,-105.9 225.1,-105.4 224.1,-104.9 223,-104.4 221.6,-103.7 220.4,-103.1 219,-102.4 217.6,-101.7 216.5,-101 215.2,-100.4 214,-99.8 212.8,-99.1 211.6,-98.5 210.2,-97.8 209,-97.1 207.8,-96.5 206.6,-95.9 205.1,-95 203.7,-94.3 202.6,-93.7 201.5,-93 200.6,-92.5 199.4,-91.9 198.2,-91.2 197,-90.6 195.6,-89.9 194.2,-89.1 193.4,-88.7 192.4,-88.2 191,-87.4 189.8,-86.8 188.6,-86.2 187.4,-85.5 186.2,-84.8 185.1,-84.3 183.8,-83.6 182.5,-82.9 180.9,-82.1 179.6,-81.4 178.5,-80.7 177.2,-79.9 175.9,-79.2 174.9,-78.6 173.9,-78 172.6,-77.4 171.5,-76.9 170.1,-76.1 168.7,-75.4 167.3,-74.7 166.2,-74 165.3,-73.5 164.4,-73.1 163.3,-72.5 161.9,-71.9 160.6,-71.3 159.1,-70.6 157.6,-69.9 156.3,-69.4 155.1,-68.8 153.9,-68.2 152.8,-67.7 151.7,-67.2 150.4,-66.6 149,-66 147.6,-65.5 146.3,-64.9 144.9,-64.4 143.7,-63.9 142.8,-63.6 141.5,-63.1 139.8,-62.5 138.5,-62 137.1,-61.5 135.7,-61 134.7,-60.6 133.4,-60.2 132.1,-59.7 130.8,-59.3 129.2,-58.8 127.6,-58.3 126.6,-58 125.2,-57.6 123.7,-57.1 122.4,-56.6 121.1,-56.2 119.4,-55.7 118.1,-55.3 117,-55 115.6,-54.6 114.2,-54.2 113,-53.8 111.7,-53.4 110.4,-53 109,-52.6 107.6,-52.2 106,-51.7 104.3,-51.2 102.5,-50.7 101.2,-50.3 99.9,-49.9 98.6,-49.6 97.5,-49.3 96,-48.9 94.5,-48.6 92.6,-48.1 91.2,-47.7 89.8,-47.4 88.4,-47 87,-46.6 85.9,-46.4 84.8,-46.1 83.1,-45.7 81.9,-45.5 80.3,-45.1 78.8,-44.7 77.2,-44.4 75.7,-44 74.1,-43.6 72.9,-43.4 71.7,-43.1 70,-42.7 68.8,-42.5 67.2,-42.1 65.6,-41.7 63.9,-41.4 62.8,-41.1 61.2,-40.7 60,-40.5 58.8,-40.3 57.7,-40 56,-39.7 54.8,-39.5 53.6,-39.3 52.3,-39 50.5,-38.7 49.2,-38.5 47.9,-38.3 46.7,-38.1 45.5,-37.9 44.2,-37.7 43,-37.5 41.8,-37.3 40.6,-37.1 39.4,-36.9 38.3,-36.7 37.2,-36.5 36.1,-36.3 34.9,-36.1 33.7,-36 32.9,-36 31.7,-35.8 30.4,-35.6 29.2,-35.4 27.8,-35.2 26.4,-35 25,-34.9 23.7,-34.8 22.5,-34.6 21.6,-34.4 20.8,-34.2 20.1,-34.1 19.3,-34 17.9,-33.9 16.5,-33.8 15.1,-33.7 14.1,-33.5 13.1,-33.3 12.3,-33.2 11,-33 9.2,-32.7 6.4,-32.3 1.6,-28.3 -2.8,-23.9 -6.7,-19.6 -10.1,-15 -12.6,-10.5 -13.2,-9.3 -14.4,-8.2 -15.9,-6.9 -17.3,-5.9 -21.8,-5.1 -26.2,-4.7 -30.8,-5.1 -35.3,-6 -41,-7.5 -46.8,-9 -53.1,-10.3 -58.8,-11 -64.7,-11.3 -69.5,-11.1 -71.1,-10.8 -72.4,-10.6 -73.7,-10.4 -74.7,-10.3 -75.8,-10.2 -77,-10.1 -78,-10 -79.5,-9.9 -80.9,-9.8 -82.2,-9.7 -83.4,-9.5 -84.6,-9.3 -85.3,-9.2 -86.1,-9.1 -87,-9 -88,-9 -89.3,-8.9 -90.5,-8.8 -91.6,-8.7 -92.6,-8.5 -93.6,-8.3 -94.3,-8.2 -95.3,-8.1 -96.4,-8 -97.9,-7.9 -99.3,-7.8 -100.6,-7.7 -101.6,-7.5 -102.6,-7.3 -103.5,-7.2 -104.4,-7.1 -105.8,-6.9 -107.2,-6.8 -108.6,-6.7 -109.8,-6.5 -111.1,-6.3 -112,-6.2 -113,-6.1 -114,-6 -115.3,-5.9 -116.5,-5.8 -117.6,-5.7 -118.6,-5.5 -119.6,-5.3 -120.2,-5.2 -121.1,-5.1 -122.5,-4.9 -123.9,-4.8 -125.2,-4.7 -126.5,-4.6 -127.5,-4.4 -128.2,-4.3 -129,-4.2 -129.9,-4.1 -131.2,-3.9 -132.5,-3.8 -133.6,-3.7 -134.6,-3.6 -135.5,-3.5 -136.4,-3.4 -138,-3.2 -139.6,-3 -141.2,-2.8 -142.9,-2.6 -144.3,-2.5 -145.1,-2.4 -146,-2.3 -147.5,-2.1 -148.9,-1.9 -150.2,-1.7 -151.4,-1.6 -152.6,-1.5 -153.3,-1.4 -154.1,-1.3 -154.9,-1.2 -156.2,-1 -157.4,-0.8 -158.6,-0.7 -159.8,-0.6 -161,-0.5 -161.9,-0.4 -162.8,-0.3 -163.8,-0.2 -164.8,-0.1 -165.9,0 -167.2,0.1 -168.5,0.2 -169.6,0.3 -170.6,0.4 -171.6,0.6 -172.3,0.7 -173.3,0.8 -174.7,1 -176.1,1.2 -177.4,1.3 -178.6,1.4 -179.6,1.5 -180.3,1.6 -181.1,1.7 -182,1.8 -182.9,1.9 -184.2,2.1 -185.4,2.2 -186.5,2.3 -187.5,2.4 -188.6,2.5 -189.3,2.6 -190.1,2.7 -191,2.8 -192.3,3 -193.5,3.2 -194.6,3.3 -195.6,3.4 -196.6,3.5 -197.3,3.5 -198,3.6 -198.9,3.7 -199.9,3.8 -200.9,3.9 -202.2,4.1 -203.5,4.2 -204.6,4.3 -205.6,4.4 -206.6,4.5 -207.3,4.6 -208.1,4.7 -208.9,4.8 -210.2,5 -211.4,5.2 -212.5,5.3 -213.5,5.4 -214.6,5.5 -215.2,5.5 -216,5.6 -216.9,5.7 -217.9,5.8 -218.9,5.9 -220.3,6.1 -221.5,6.2 -222.7,6.3 -223.9,6.5 -225.1,6.7 -226,6.8 -226.9,6.9 -228.2,7.1 -229.4,7.2 -230.5,7.3 -231.5,7.4 -232.6,7.5 -233.3,7.6 -234.1,7.7 -234.9,7.8 -236.3,8 -237.6,8.2 -238.8,8.3 -240,8.4 -241.3,8.5 -242,8.6 -243.2,8.8 -244.5,9 -245.7,9.2 -246.9,9.4 -248.2,9.5 -249.6,9.7 -250.9,9.9 -252.2,10.1 -253.4,10.3 -255.1,10.6 -256.2,10.7 -257.3,10.8 -258.3,11 -259.3,11.2 -259.8,11.3 -260.8,11.5 -261.8,11.7 -262.8,11.9 -263.8,12.1 -265.2,12.4 -266.2,12.8 -267.6,13.5 -269.8,14.7 -273,17.1 -275.7,19.4 -278.4,21.8 -281,24.5 -282.9,26.6 -283.7,27.6 -284.8,29.2 -286,30.9 -286.9,32.3 -287.7,33.8 -288.6,35.2 -289.1,36.1 -289.6,37.1 -290.1,38 -290.7,39.1 -291.3,40.3 -292.2,42 -292.8,43.3 -293.3,44.5 -293.9,45.7 -294.4,46.9 -294.8,47.9 -295.4,49.2 -296,50.5 -296.4,51.6 -297,52.9 -297.4,53.9 -297.6,54.6 -297.9,55.3 -298.5,56.5 -298.9,57.5 -299.4,58.7 -300.1,60.3 -300.7,61.9 -301.2,63.3 -301.7,64.7 -302.1,65.9 -302.3,66.7 -302.7,67.7 -303.1,68.9 -303.5,70.1 -303.9,71.3 -304.3,72.5 -304.7,73.8 -304.9,74.6 -305.2,75.8 -305.5,77.1 -305.9,78.4 -306.1,79.5 -306.3,80.6 -306.6,81.6 -306.9,82.5 -307.1,83.4 -307.4,84.7 -307.7,86 -307.9,87 -308.1,88 -308.4,89.4 -308.6,90.3" style="stroke: rgb(59, 130, 246); stroke-width: 7;"></polyline><polyline vector-effect="non-scaling-stroke" fill="none" points="-308.8,91.2 -309,92.1 -309.2,93 -309.4,94 -309.6,95 -309.8,96 -309.9,97 -310.2,98.4 -310.4,99.4 -310.6,100.5 -310.8,101.7 -311,103 -311,103.9 -311,104.7 -311.1,105.4 -311.3,106.4 -311.5,107.4 -311.7,108.5 -311.9,109.7 -312,111 -312,112 -312,113 -312,113.9 -312,114.9 -312,115.9 -312,116.8 -312,117.6 -312.1,118.4 -312.3,119.4 -312.5,120.3 -312.7,121.4 -312.9,122.5 -313,123.8 -313,124.8 -313,125.9 -313,126.9 -313,128 -313,128.9 -313,129.9 -313,130.9 -313,131.8 -313,132.8 -313,133.9 -313,135.1 -313,136.3 -313,137.5 -313,138.7 -313,139.9 -313,140.8 -312.9,142.1 -312.8,143.4 -312.6,144.6 -312.4,145.8 -312.1,147.4 -311.9,148.5 -311.7,149.7 -311.4,151.2 -311.1,152.7 -310.7,154.2 -310.3,155.7 -309.7,157.6 -309,159.5 -308,161.7 -307.2,163.5 -306.3,165.2 -305.6,166.4 -305,167.3 -304.1,168.5 -303,169.7 -302,171 -300.8,172.3 -299.4,173.8 -298.5,174.5 -297.7,175.3 -296.8,176 -295.6,176.9 -294.8,177.5 -294,178.1 -293.1,178.7 -292.2,179.3 -291.6,179.9 -290.9,180.4 -289.5,181.7 -288.3,182.9 -287,184.2 -285.9,185.3 -284.8,186.4 -284.5,186.8 -284.2,187.2 -284,187.5 -283.8,187.8 -283.6,188.4 -283.3,188.9 -282.8,189.7 -282.4,190.6 -281.9,191.4 -281.5,192 -281.2,192.8 -281,193.5 -280.5,194.6 -280.1,195.9 -279.7,197.2 -279.2,198.3 -278.8,199.2 -278.6,200 -278.4,200.8 -278.2,201.6 -278,202.8 -277.7,203.9 -277.5,204.7 -277.3,205.4 -277.1,206.1 -276.9,207 -276.8,208 -276.6,209 -276.4,210.1 -276.1,211.7 -275.9,212.8 -275.7,213.9 -275.5,215.1 -275.2,216.7 -275,217.8 -274.8,218.9 -274.6,220.1 -274.3,221.6 -274.1,222.7 -273.9,223.8 -273.7,225 -273.4,226.2 -273.3,227.1 -273.1,228.4 -272.9,229.7 -272.6,230.9 -272.4,232.1 -272.1,233.6 -271.9,234.6 -271.6,235.7 -271.4,236.9 -271.1,238.4 -270.9,239.5 -270.7,240.6 -270.6,241.6 -270.4,242.5 -270.2,243.7 -270,244.9 -269.8,246.1 -269.5,247.3 -269.3,248.6 -269.1,249.6 -268.9,250.7 -268.6,251.8 -268.4,253 -268.2,254.2 -268,255.4 -267.8,256.6 -267.6,257.8 -267.4,259 -267.1,260.5 -266.9,261.6 -266.7,262.7 -266.5,263.9 -266.3,265.1 -266.1,266.3 -265.9,267.6 -265.6,268.8 -265.3,270.3 -265,271.8 -264.8,272.9 -264.6,274 -264.3,275.6 -264.1,276.8 -263.9,278.1 -263.6,279.5 -263.2,281.3 -263,282.7 -262.7,284.2 -262.3,285.9 -262,287.6 -261.7,289 -261.4,290.4 -261.2,292 -261.1,293.3 -261,294.8 -261,296.4 -260.9,298 -260.8,299.6 -260.7,301.3 -260.6,302.8 -260.5,304.1 -260.6,305.6 -260.9,307.2 -261.5,309.2 -262.3,311.3 -263.4,313.7 -264.9,316 -266.2,317.9 -268,319.5 -270.2,321.1 -272.7,322.9 -275,324.9 -277.5,327.4 -279.4,329.9 -280.6,333.1 -280.8,336.9 -280.6,341.1 -280.1,344.7 -279.3,348.4 -278.6,351.3 -278.2,352.9 -277.9,353.7 -277.6,355.1 -277.4,356.1 -277.1,356.9 -276.8,358.1 -276.4,359.4 -276,360.7 -275.6,362 -275.1,363.5 -274.7,364.7 -274.4,365.8 -274.1,366.3 -273.8,366.8 -273.6,367.5 -273.4,368.2 -273.1,368.8 -272.9,369.5 -272.6,370.5 -272.3,371.1 -271.9,371.9 -271.6,372.8 -271.2,373.6 -270.9,374.1 -270.7,374.7 -270.5,375.4 -270.2,376 -270,376.7 -269.8,377.4 -269.3,378.7 -268.8,379.7 -268.3,380.9 -267.7,382.4 -267,384.1 -266.5,385.3 -266,386.5 -265.3,388.2 -264.7,389.6 -264.2,390.8 -263.7,391.8 -263.1,393.2 -262.8,394 -262.3,395.1 -261.7,396.3 -261.1,397.6 -260.3,399.2 -259.5,400.8 -258.8,402 -258.2,403.1 -257.6,404.4 -257.2,405.3 -256.4,406.6 -255.6,408.1 -254.7,409.8 -253.6,411.7 -252.5,413.4 -251.7,414.9 -250.9,416.2 -250.2,417.3 -249.4,418.5 -248.6,419.7 -247.8,420.9 -246.8,422.3 -245.8,423.7 -245,424.7 -243.9,426.1 -242.9,427.3 -242.1,428.3 -241.3,429.3 -240.4,430.4 -240,431 -239,432.1 -236.3,434.9 -233.5,437.6 -231,440.1 -228.4,442.5 -226.4,444.4 -225.9,444.8 -225.5,445.3 -225,445.7 -224.5,446.3 -223.9,446.8 -223.4,447.2 -222.6,447.8 -221.8,448.4 -221.1,448.9 -220.4,449.4 -219.9,449.9 -219.3,450.3 -218.7,450.7 -218.1,451.1 -217.5,451.5 -216.9,451.9 -216.4,452.2 -215.7,452.8 -214.5,453.5 -213.3,454.2 -212.1,454.9 -211.1,455.5 -210.1,455.9 -209.2,456.3 -208.3,456.7 -207.4,457.1 -206.5,457.5 -205.5,457.9 -204.9,458.2 -204.3,458.5 -203.3,458.9 -202.3,459.3 -201,459.8 -199.3,460.4 -197.4,461.1 -195.9,461.7 -194.4,462.3 -193.3,462.8 -192.6,463.2 -192.1,463.5 -191.5,463.7 -191,464 -190.7,464.2 -190.2,464.4 -189.8,464.7 -188.6,465.9 -187.3,467 -186.1,468.2 -184.9,469.5 -183.5,471.2 -182.9,472 -182.4,472.9 -181.7,474.4 -181.2,475.9 -180.8,476.9 -180.5,478.5 -180.3,480 -180.3,481.4 -180.4,482.6 -180.6,484 -181,485.2 -181.4,486.4 -181.9,487.1 -182.5,488 -184.4,489.4 -186.1,490.5 -188,491.6 -190,492.6 -191.8,493.5 -192.9,493.8 -194.4,494.1 -196.2,494.5 -198,495 -200.4,495.6 -202.4,496.1 -204.6,496.7 -206.4,497.2 -208.5,497.7 -210.1,498 -211.7,498.4 -212.9,498.6 -214.1,498.8 -215.4,499.1 -216.7,499.4 -217.9,499.6 -219.1,499.8 -220.1,500.1 -221.1,500.3 -222.1,500.5 -223.1,500.7 -224,500.9 -224.9,501.1 -225.3,501.2 -225.8,501.3 -227,501.5 -228.2,501.8 -229.5,502 -230.9,502.2 -232.3,502.4 -233.3,502.6 -234.6,502.7 -236,502.9 -237.6,503.1 -239.4,503.4 -241.2,503.6 -243,503.8 -247.1,503.1 -250.9,502.4 -254.8,501 -258.4,499.6 -261.7,497.9 -262.7,496.5 -263.7,494.9 -264.2,493.5 -264.6,491.9 -265,490.6 -265.2,489.6 -265.3,488.4 -265.5,487.4 -265.8,485.9 -266,484.3 -266.3,482.7 -266.6,481.3 -266.9,479.4 -267.1,478.1 -267.3,476.8 -267.5,475.7 -267.8,474.4 -268.2,473.4 -268.6,472.4 -269.2,471 -269.9,469.2 -270.6,467.5 -271.2,466.2 -271.8,464.9 -272.2,464 -272.5,463.5 -272.9,462.8 -273.3,462 -273.7,461.2 -274.5,460 -275.2,458.7 -275.8,457.9 -276.4,456.9 -277.3,455.6 -277.8,454.7 -278.4,453.9 -278.9,453 -279.4,452.3 -279.7,451.7 -280.1,451.2 -280.7,450.3 -281.3,449.4 -282.2,448.1 -283.1,447 -283.9,445.8 -284.8,444.5 -285.7,443.2 -286.4,442.1 -287,441 -287.9,439.6 -288.5,438.6 -289.1,437.6 -289.6,436.9 -290.2,436 -290.6,435.4 -291,434.6 -291.5,433.8 -292.1,432.6 -292.7,431.6 -293.2,430.6 -293.8,429.6 -294.3,428.6 -294.8,427.7 -295.4,426.4 -296.2,424.9 -296.8,423.6 -297.4,422.3 -298,421 -298.4,420.1 -298.8,419.2 -299.2,418.3 -299.8,417.2 -300.2,416.3 -300.8,415.2 -301.2,414.3 -301.8,413.2 -302.2,412.3 -302.7,411.4 -303.1,410.4 -303.5,409.4 -303.9,408.5 -304.3,407.5 -304.8,406.2 -305.3,405.2 -305.9,403.9 -306.3,402.7 -306.9,401.4 -307.3,400.4 -307.7,399.4 -308.1,398.4 -308.7,397.2 -309.1,396.2 -309.5,395.1 -310,393.7 -310.4,392.6 -310.8,391.5 -311.2,390.4 -311.6,389.4 -311.9,388.7 -312.3,387.6 -312.7,386.5 -313.1,385.4 -313.5,384.3 -313.9,383.2 -314.3,382.2 -314.6,381.1 -315,380 -315.4,378.9 -315.8,377.8 -316.2,376.6 -316.5,375.7 -316.9,374.6 -317.3,373.4 -317.9,371.3 -318.5,369.6 -319.1,367.9 -319.6,366.4 -320.2,364.6 -320.5,363.7 -320.9,362.2 -321.5,360.4 -322,358.6 -322.4,357.2 -322.9,355.8 -323.3,354.5 -323.5,353.5 -323.9,352.2 -324.3,350.9 -324.7,349.6 -325,348.8 -325.4,347.5 -325.7,346.5 -326.1,345.2 -326.4,343.9 -326.9,342.2 -327.3,340.9 -327.8,339.3 -328.2,338 -328.6,336.7 -328.9,335.8 -329.3,334.6 -329.5,333.7 -329.8,332.7 -330.2,331.3 -330.5,329.9 -330.8,328.9 -331.2,327.6 -331.5,326.4 -331.8,325.5 -332.2,324.2 -332.5,322.9 -332.7,321.9 -333,320.9 -333.3,319.6 -333.5,318.7 -333.9,317.4 -334.4,315.9 -334.9,314 -335.3,312.5 -335.8,311 -336.2,309.6 -336.5,308.3 -336.7,307.4 -337.1,306.1 -337.4,304.8 -337.6,303.8 -337.9,302.9 -338.2,302 -338.4,301 -338.6,300 -338.9,298.9 -339.1,297.8 -339.4,296.2 -339.7,295.1 -340,294 -340.2,293 -340.5,291.6 -340.8,290.6 -341,289.6 -341.2,288.6 -341.5,287.6 -341.8,286.4 -342,285.3 -342.2,284.2 -342.5,283 -342.7,281.8 -342.8,281 -343,279.7 -343.3,278.4 -343.5,277.2 -343.7,276 -343.9,275 -344,274.2 -344.1,272.9 -344.3,271.6 -344.5,270.3 -344.7,269 -344.9,268 -345,267.4 -345,266.8 -345.1,265.4 -345.3,264 -345.5,262.6 -345.7,261.3 -345.9,260 -346,259.4 -346,258.7 -346.1,257.4 -346.3,256.1 -346.5,254.8 -346.7,253.6 -346.9,252.4 -347,251.8 -347.1,250.4 -347.3,248.7 -347.5,246.9 -347.8,244.5 -348.1,242.1 -348.3,240.5 -348.4,239.2 -348.5,238 -348.5,237.4 -348.5,236.8 -348.6,235.8 -348.7,234.7 -348.8,233.5 -349,231.9 -349.2,230.3 -349.3,229.1 -349.4,227.5 -349.5,225.9 -349.5,224.7 -349.5,223.4 -349.6,222.1 -349.7,220.9 -349.9,219.3 -350.1,217.8 -350.3,216.4 -350.4,215 -350.5,214 -350.5,213.4 -350.5,213.1 -350.5,212.8" style="stroke: rgb(251, 191, 36); stroke-width: 7;"></polyline></svg>