<svg xmlns="http://www.w3.org/2000/svg" xmlns:xlink="http://www.w3.org/1999/xlink" preserveAspectRatio="xMidYMid meet" height="100%" viewBox="-400 -500 900 1100">
    <polygon vector-effect="non-scaling-stroke" fill="none" style="stroke: #374151; stroke-width:6" points="  -350,210 -350,202 -351,194 -351,186 -352,178 -352,170 -352,162 -353,154 -353,146 -353,138 -353,130 -352,122 -352,113 -351,106 -350,97 -349,90 -348,82 -347,75 -345,69 -345,63 -344,57 -343,52 -342,48 -341,43 -340,39 -340,36 -339,32 -338,29 -337,23 -336,19 -333,14 -331,9 -328,5 -326,2 -324,1 -321,-2 -317,-5 -313,-7 -310,-9 -306,-11 -300,-12 -295,-13 -290,-14 -285,-15 -280,-16 -276,-17 -270,-17 -265,-18 -261,-18 -257,-19 -252,-19 -248,-20 -244,-20 -239,-21 -235,-22 -230,-22 -226,-23 -221,-24 -216,-25 -211,-26 -207,-27 -202,-27 -197,-29 -192,-30 -187,-31 -182,-32 -177,-33 -172,-34 -166,-35 -161,-36 -156,-37 -151,-39 -145,-40 -139,-41 -134,-42 -128,-43 -123,-45 -117,-46 -111,-47 -105,-48 -99,-49 -93,-50 -87,-51 -81,-52 -75,-54 -69,-55 -64,-57 -58,-59 -51,-61 -46,-62 -39,-65 -34,-67 -28,-69 -22,-72 -17,-74 -11,-77 -5,-79 1,-81 7,-83 14,-85 20,-87 27,-89 33,-91 39,-92 45,-93 52,-94 58,-96 65,-97 71,-98 78,-99 85,-99 91,-100 98,-102 104,-103 111,-104 117,-106 124,-108 130,-110 136,-112 141,-115 146,-117 151,-120 156,-123 160,-126 164,-129 167,-133 171,-136 173,-140 176,-143 178,-147 180,-151 182,-155 184,-159 185,-163 185,-167 186,-171 186,-175 186,-181 185,-185 185,-189 184,-193 183,-197 181,-201 180,-205 178,-208 176,-212 174,-216 172,-219 169,-222 166,-226 164,-229 161,-232 158,-235 155,-238 152,-240 150,-243 147,-246 145,-249 142,-254 140,-258 139,-261 137,-266 136,-269 136,-273 136,-278 136,-282 136,-285 138,-291 139,-295 142,-301 144,-305 147,-309 150,-314 152,-317 155,-321 158,-325 160,-328 163,-331 165,-334 169,-338 171,-341 174,-345 176,-348 179,-351 181,-355 184,-358 186,-362 189,-365 192,-369 195,-373 197,-376 200,-380 203,-384 206,-388 209,-392 212,-396 215,-400 218,-404   218,-404 221,-408 224,-413 227,-417 230,-421 233,-424 236,-428 239,-431 241,-434 244,-437 247,-441 251,-444 256,-448 259,-450 263,-451 266,-452 270,-452 274,-452 278,-451 281,-449 284,-447 286,-444 288,-440 290,-436 291,-432 292,-428 293,-424 293,-420 294,-415 295,-411 296,-408 298,-402 300,-397 302,-391 305,-386 307,-381 309,-377 310,-374 313,-370 314,-367 316,-364 319,-360 323,-357 326,-356 329,-355 332,-356 335,-357 337,-359 339,-361 339,-364 339,-368 338,-371 335,-375 333,-377 330,-380 327,-383 324,-385 321,-388 318,-391 315,-395 313,-399 311,-403 310,-407 309,-411 309,-414 310,-417 311,-421 312,-424 314,-427 316,-430 319,-433 322,-435 325,-437 329,-439 332,-441 337,-443 340,-445 344,-446 347,-448 352,-449 356,-451 360,-451 365,-452 369,-451 373,-451 377,-449 380,-447 383,-445 386,-443 388,-440 391,-436 392,-432 394,-428 394,-425 395,-420 395,-416 396,-411 395,-406 395,-399 395,-394 394,-391 394,-385 393,-381 393,-378 392,-374 391,-369 391,-365 390,-361 389,-357 388,-352 387,-347 387,-342 386,-337 384,-332 383,-327 382,-322 381,-317 379,-311 378,-306 377,-300 375,-295 374,-289 372,-283 370,-277 368,-271 366,-265 364,-259 361,-252 359,-246 356,-240 354,-233 351,-227 349,-221 346,-215 343,-208 339,-201 336,-195 333,-189 329,-182 325,-176 322,-170 318,-164 313,-159 308,-154 304,-149 299,-144 293,-140 288,-136 283,-133 277,-130 272,-127 266,-124 260,-121 254,-118 249,-115 243,-112 237,-109 231,-107 225,-104 220,-101 213,-98 207,-95 201,-92 195,-89 189,-86 183,-83 176,-80 170,-78 164,-75 158,-72 152,-70 145,-68 138,-65 132,-63 126,-61 119,-59 113,-57 108,-56 101,-54 96,-53 89,-51 84,-50 77,-48 72,-47 66,-46 60,-45 55,-44 49,-43 44,-42 39,-41 35,-40 30,-39 27,-39 23,-38 18,-37 12,-36 7,-34 3,-32 -1,-30 -4,-27 -7,-24 -9,-21 -11,-18 -14,-14 -16,-12 -18,-11 -20,-9 -23,-8 -27,-7 -31,-6 -35,-6 -38,-7 -42,-8 -46,-8 -50,-9 -54,-10 -57,-10 -61,-11 -65,-11 -70,-11 -74,-12 -79,-12 -84,-12 -89,-12 -93,-11 -97,-11 -101,-11 -106,-10 -111,-10 -115,-10 -119,-9 -124,-9 -128,-8 -133,-8 -137,-7 -142,-7 -146,-6 -152,-5 -156,-5 -161,-4 -167,-4 -172,-3 -177,-3 -182,-2 -188,-1 -193,-1 -209,1 -214,2 -219,2 -224,3 -229,4 -234,5 -240,6 -244,7 -249,8 -254,10 -258,11 -262,13 -267,16 -271,18 -275,21 -278,24 -282,27 -285,30 -288,34 -291,37 -294,41 -296,45 -298,49 -300,53 -302,57 -304,61 -305,66 -307,71 -308,75 -310,80 -311,85 -312,89   -312,89 -312,94 -313,99 -313,104 -314,109 -314,114 -314,119 -313,123 -313,128 -312,133 -312,137 -311,142 -310,147 -309,151 -307,155 -306,160 -304,164 -302,168 -300,172 -297,176 -295,180 -293,184 -291,188 -288,192 -286,196 -285,200 -283,204 -281,208 -279,213 -278,217 -276,222 -275,226 -274,231 -272,236 -271,240 -270,245 -268,250 -267,254 -266,258 -265,263 -264,267 -263,271 -263,276 -262,280 -262,286 -262,289 -262,295 -263,298 -264,303 -266,307 -267,310 -268,313 -270,316 -272,320 -275,326 -277,330 -277,333 -278,336 -279,339 -279,343 -279,347 -279,352 -278,358 -277,364 -276,370 -274,375 -273,378 -271,383 -269,386 -268,390 -266,393 -263,398 -261,402 -259,405 -256,409 -254,412 -252,416 -249,419 -247,422 -244,425 -240,429 -237,432 -234,434 -231,437 -228,439 -226,442 -221,445 -218,447 -215,449 -211,451 -207,455 -203,457 -200,459 -196,461 -193,464 -190,468 -188,471 -186,474 -185,477 -184,481 -185,483 -185,486 -186,488 -188,492 -192,495 -195,497 -199,498 -203,499 -207,501 -211,502 -216,503 -220,504 -224,505 -228,505 -233,506 -236,506 -240,505 -244,504 -248,503 -252,501 -256,499 -258,496 -260,495 -261,493 -263,490 -265,487 -267,483 -269,479 -271,475 -272,472 -274,467 -276,462 -278,459 -280,453 -283,447 -285,443 -286,440 -289,435 -290,432 -293,426 -296,421 -297,417 -299,414 -301,410 -303,406 -305,400 -307,396 -309,392 -311,387 -312,383 -314,379 -316,374 -317,369 -319,365 -320,360 -322,355 -323,350 -325,346 -326,340 -328,335 -329,330 -331,325 -332,320 -334,314 -335,309 -336,304 -337,298 -339,293 -340,288 -341,282 -342,277 -343,271 -344,265 -345,260 -346,254 -346,248 -347,242 -348,236 -348,230 -349,224 -349,218 -350,212 -350,210  "></polygon>
    <polyline vector-effect="non-scaling-stroke" fill="none" style="stroke: #EF4444; stroke-width:4" points=" -350,210 -350,202 -351,194 -351,186 -352,178 -352,170 -352,162 -353,154 -353,146 -353,138 -353,130 -352,122 -352,113 -351,106 -350,97 -349,90 -348,82 -347,75 -345,69 -345,63 -344,57 -343,52 -342,48 -341,43 -340,39 -340,36 -339,32 -338,29 -337,23 -336,19 -333,14 -331,9 -328,5 -326,2 -324,1 -321,-2 -317,-5 -313,-7 -310,-9 -306,-11 -300,-12 -295,-13 -290,-14 -285,-15 -280,-16 -276,-17 -270,-17 -265,-18 -261,-18 -257,-19 -252,-19 -248,-20 -244,-20 -239,-21 -235,-22 -230,-22 -226,-23 -221,-24 -216,-25 -211,-26 -207,-27 -202,-27 -197,-29 -192,-30 -187,-31 -182,-32 -177,-33 -172,-34 -166,-35 -161,-36 -156,-37 -151,-39 -145,-40 -139,-41 -134,-42 -128,-43 -123,-45 -117,-46 -111,-47 -105,-48 -99,-49 -93,-50 -87,-51 -81,-52 -75,-54 -69,-55 -64,-57 -58,-59 -51,-61 -46,-62 -39,-65 -34,-67 -28,-69 -22,-72 -17,-74 -11,-77 -5,-79 1,-81 7,-83 14,-85 20,-87 27,-89 33,-91 39,-92 45,-93 52,-94 58,-96 65,-97 71,-98 78,-99 85,-99 91,-100 98,-102 104,-103 111,-104 117,-106 124,-108 130,-110 136,-112 141,-115 146,-117 151,-120 156,-123 160,-126 164,-129 167,-133 171,-136 173,-140 176,-143 178,-147 180,-151 182,-155 184,-159 185,-163 185,-167 186,-171 186,-175 186,-181 185,-185 185,-189 184,-193 183,-197 181,-201 180,-205 178,-208 176,-212 174,-216 172,-219 169,-222 166,-226 164,-229 161,-232 158,-235 155,-238 152,-240 150,-243 147,-246 145,-249 142,-254 140,-258 139,-261 137,-266 136,-269 136,-273 136,-278 136,-282 136,-285 138,-291 139,-295 142,-301 144,-305 147,-309 150,-314 152,-317 155,-321 158,-325 160,-328 163,-331 165,-334 169,-338 171,-341 174,-345 176,-348 179,-351 181,-355 184,-358 186,-362 189,-365 192,-369 195,-373 197,-376 200,-380 203,-384 206,-388 209,-392 212,-396 215,-400 218,-404 "></polyline>
    <polyline vector-effect="non-scaling-stroke" fill="none" style="stroke: #3B82F6; stroke-width:4" points=" 218,-404 221,-408 224,-413 227,-417 230,-421 233,-424 236,-428 239,-431 241,-434 244,-437 247,-441 251,-444 256,-448 259,-450 263,-451 266,-452 270,-452 274,-452 278,-451 281,-449 284,-447 286,-444 288,-440 290,-436 291,-432 292,-428 293,-424 293,-420 294,-415 295,-411 296,-408 298,-402 300,-397 302,-391 305,-386 307,-381 309,-377 310,-374 313,-370 314,-367 316,-364 319,-360 323,-357 326,-356 329,-355 332,-356 335,-357 337,-359 339,-361 339,-364 339,-368 338,-371 335,-375 333,-377 330,-380 327,-383 324,-385 321,-388 318,-391 315,-395 313,-399 311,-403 310,-407 309,-411 309,-414 310,-417 311,-421 312,-424 314,-427 316,-430 319,-433 322,-435 325,-437 329,-439 332,-441 337,-443 340,-445 344,-446 347,-448 352,-449 356,-451 360,-451 365,-452 369,-451 373,-451 377,-449 380,-447 383,-445 386,-443 388,-440 391,-436 392,-432 394,-428 394,-425 395,-420 395,-416 396,-411 395,-406 395,-399 395,-394 394,-391 394,-385 393,-381 393,-378 392,-374 391,-369 391,-365 390,-361 389,-357 388,-352 387,-347 387,-342 386,-337 384,-332 383,-327 382,-322 381,-317 379,-311 378,-306 377,-300 375,-295 374,-289 372,-283 370,-277 368,-271 366,-265 364,-259 361,-252 359,-246 356,-240 354,-233 351,-227 349,-221 346,-215 343,-208 339,-201 336,-195 333,-189 329,-182 325,-176 322,-170 318,-164 313,-159 308,-154 304,-149 299,-144 293,-140 288,-136 283,-133 277,-130 272,-127 266,-124 260,-121 254,-118 249,-115 243,-112 237,-109 231,-107 225,-104 220,-101 213,-98 207,-95 201,-92 195,-89 189,-86 183,-83 176,-80 170,-78 164,-75 158,-72 152,-70 145,-68 138,-65 132,-63 126,-61 119,-59 113,-57 108,-56 101,-54 96,-53 89,-51 84,-50 77,-48 72,-47 66,-46 60,-45 55,-44 49,-43 44,-42 39,-41 35,-40 30,-39 27,-39 23,-38 18,-37 12,-36 7,-34 3,-32 -1,-30 -4,-27 -7,-24 -9,-21 -11,-18 -14,-14 -16,-12 -18,-11 -20,-9 -23,-8 -27,-7 -31,-6 -35,-6 -38,-7 -42,-8 -46,-8 -50,-9 -54,-10 -57,-10 -61,-11 -65,-11 -70,-11 -74,-12 -79,-12 -84,-12 -89,-12 -93,-11 -97,-11 -101,-11 -106,-10 -111,-10 -115,-10 -119,-9 -124,-9 -128,-8 -133,-8 -137,-7 -142,-7 -146,-6 -152,-5 -156,-5 -161,-4 -167,-4 -172,-3 -177,-3 -182,-2 -188,-1 -193,-1 -209,1 -214,2 -219,2 -224,3 -229,4 -234,5 -240,6 -244,7 -249,8 -254,10 -258,11 -262,13 -267,16 -271,18 -275,21 -278,24 -282,27 -285,30 -288,34 -291,37 -294,41 -296,45 -298,49 -300,53 -302,57 -304,61 -305,66 -307,71 -308,75 -310,80 -311,85 -312,89 "></polyline>
    <polyline vector-effect="non-scaling-stroke" fill="none" style="stroke: #FBBF24; stroke-width:4" points=" -312,89 -312,94 -313,99 -313,104 -314,109 -314,114 -314,119 -313,123 -313,128 -312,133 -312,137 -311,142 -310,147 -309,151 -307,155 -306,160 -304,164 -302,168 -300,172 -297,176 -295,180 -293,184 -291,188 -288,192 -286,196 -285,200 -283,204 -281,208 -279,213 -278,217 -276,222 -275,226 -274,231 -272,236 -271,240 -270,245 -268,250 -267,254 -266,258 -265,263 -264,267 -263,271 -263,276 -262,280 -262,286 -262,289 -262,295 -263,298 -264,303 -266,307 -267,310 -268,313 -270,316 -272,320 -275,326 -277,330 -277,333 -278,336 -279,339 -279,343 -279,347 -279,352 -278,358 -277,364 -276,370 -274,375 -273,378 -271,383 -269,386 -268,390 -266,393 -263,398 -261,402 -259,405 -256,409 -254,412 -252,416 -249,419 -247,422 -244,425 -240,429 -237,432 -234,434 -231,437 -228,439 -226,442 -221,445 -218,447 -215,449 -211,451 -207,455 -203,457 -200,459 -196,461 -193,464 -190,468 -188,471 -186,474 -185,477 -184,481 -185,483 -185,486 -186,488 -188,492 -192,495 -195,497 -199,498 -203,499 -207,501 -211,502 -216,503 -220,504 -224,505 -228,505 -233,506 -236,506 -240,505 -244,504 -248,503 -252,501 -256,499 -258,496 -260,495 -261,493 -263,490 -265,487 -267,483 -269,479 -271,475 -272,472 -274,467 -276,462 -278,459 -280,453 -283,447 -285,443 -286,440 -289,435 -290,432 -293,426 -296,421 -297,417 -299,414 -301,410 -303,406 -305,400 -307,396 -309,392 -311,387 -312,383 -314,379 -316,374 -317,369 -319,365 -320,360 -322,355 -323,350 -325,346 -326,340 -328,335 -329,330 -331,325 -332,320 -334,314 -335,309 -336,304 -337,298 -339,293 -340,288 -341,282 -342,277 -343,271 -344,265 -345,260 -346,254 -346,248 -347,242 -348,236 -348,230 -349,224 -349,218 -350,212 -350,210 "></polyline>
</svg>