<svg xmlns="http://www.w3.org/2000/svg" xmlns:xlink="http://www.w3.org/1999/xlink" preserveAspectRatio="xMidYMid meet" height="100%" viewBox="-646 -1101 1292 2204"><polygon vector-effect="non-scaling-stroke" fill="none" points="-622,601.5 -622,601 -622,599.8 -622,598.8 -621.8,598 -621.7,597.5 -621.3,596.2 -621.2,594.7 -621,593 -621,592 -621,591 -621,590 -621,589.2 -620.8,588.5 -620.7,588 -620.5,587.5 -620.3,586.2 -620.2,584.7 -620,583 -620,582 -620,581 -620,580 -619.8,579.2 -619.7,578.5 -619.5,577.8 -619.3,576.5 -619.2,574.8 -619,573.2 -619,572.2 -619,571.2 -619,570.2 -618.8,569 -618.7,568.2 -618.5,567.5 -618.3,566.3 -618.2,564.8 -618,562.8 -618,561.3 -618,560.2 -617.8,559.2 -617.7,558.3 -617.5,557.3 -617.5,556.7 -617.3,555 -617.2,553.2 -617,551.2 -616.8,549.8 -616.7,548.8 -616.5,548 -616.5,547.5 -616.3,545.8 -616.2,543.7 -616,541.5 -615.8,540.2 -615.7,539.2 -615.5,538.2 -615.3,536.7 -615.2,535 -615,532.8 -614.8,531.3 -614.7,529.7 -614.5,528.5 -614.5,527.3 -614.3,525.7 -614.2,524 -613.8,521.8 -613.7,520.7 -613.5,519 -613.5,517.8 -613.5,516.7 -613.3,515 -613,512.8 -612.7,510.2 -612.5,508.5 -612.5,507.3 -612.5,506.7 -612.2,504.7 -611.8,502.3 -611.5,499.7 -611.5,498.2 -611.5,497 -611.3,495 -611,492.7 -610.7,490 -610.5,488.3 -610.5,487 -610.3,484.8 -610,482.8 -609.7,480.3 -609.5,479 -609.3,476.8 -609,474.5 -608.7,471.8 -608.5,469.3 -608.5,467.5 -608.3,466 -608,463.7 -607.7,461.3 -607.3,458 -607,455.5 -606.7,453 -606.5,451 -606.3,448.7 -606,446 -605.7,442.8 -605.5,440.5 -605.5,438.3 -605.2,436.2 -604.8,433.5 -604.5,430.3 -604.5,428.2 -604.2,425.3 -603.8,422.5 -603.5,419.5 -603.3,416.8 -603,414.3 -602.7,411.7 -602.3,408.7 -602,405.5 -601.7,401.8 -601.5,399.2 -601.3,396.2 -601,393.3 -600.7,390.5 -600.3,387.3 -600,384.7 -599.7,381.3 -599.5,379.2 -599.2,375.7 -598.8,372.8 -598.3,369.3 -598,366.7 -597.7,363.3 -597.3,360 -597.2,356.7 -596.8,354 -596.5,351 -596.2,347.7 -595.8,344.3 -595.5,341 -595.2,337.5 -594.8,334 -594.5,330.5 -594.2,327.8 -593.7,324 -593.3,320.5 -593,317.2 -592.7,313.8 -592.3,310.3 -591.8,306.8 -591.5,303 -591.2,299.7 -590.8,296.2 -590.5,292.7 -590.2,288.8 -589.8,285 -589.5,281.8 -589.2,278.3 -588.8,275 -588.5,271.2 -588.2,267.5 -587.8,264 -587.5,260.7 -587,257 -586.7,253.2 -586.3,249 -586,245.3 -585.7,241.7 -585.2,237.3 -584.7,232.2 -584,226.5 -583.7,222.8 -583.3,219.2 -583,215.2 -582.7,211.2 -582.3,208 -582,204.8 -581.7,201 -581.3,196.5 -581,192.7 -580.5,188.2 -580.2,184 -579.8,179.8 -579.5,176.7 -579,173.7 -578.7,170 -578.3,165.8 -578,161.8 -577.5,157.8 -577,154 -576.7,150 -576.2,145.8 -575.8,141.8 -575.3,137.8 -575,134 -574.7,130 -574.2,125.8 -573.8,122 -573.3,118 -573,114.2 -572.7,110 -572.2,106.2 -571.8,102 -571.3,97.5 -571,92.8 -570.7,88.7 -570.3,84.8 -570,81 -569.7,77 -569.2,73 -568.8,68.7 -568.5,64.5 -568.2,60.2 -567.8,56.2 -567.2,51.7 -566.8,47.5 -566.5,43.5 -566.3,39.7 -566,35.5 -565.7,31.2 -565.3,26.8 -565,22.7 -564.7,18.5 -564.3,14.5 -564,10.3 -563.7,6.2 -563.3,2.7 -563,-1.7 -562.7,-5.8 -562.3,-10 -562,-14 -561.7,-17.3 -561.3,-21.3 -561,-24.5 -560.7,-28.8 -560.3,-33 -560,-37 -559.7,-40.7 -559.3,-44.5 -559,-48.8 -558.7,-52.8 -558.3,-56.7 -558.2,-60.2 -558,-63.3 -557.7,-67.5 -557.3,-71.3 -557,-75.2 -556.7,-78.8 -556.3,-82 -556,-85.8 -555.7,-89 -555.3,-92.8 -555,-96.7 -555,-99.7 -554.7,-103.5 -554.3,-106.7 -553.8,-110.3 -553.5,-114 -553.2,-117.5 -552.8,-121.2 -552.5,-125.8 -551.8,-132 -551.3,-138.2 -550.7,-142.5 -550.3,-146 -550,-149.5 -549.8,-152.3 -549.5,-155.8 -549.2,-159.5 -549,-163.2 -548.8,-166 -548.5,-169.2 -548.2,-172.8 -547.8,-176 -547.5,-179.3 -547.2,-182.7 -547,-185.8 -546.7,-188.7 -546.3,-191.7 -546,-195.3 -545.7,-198.7 -545.3,-202 -545,-205.3 -545,-208.5 -544.8,-211 -544.5,-213.7 -544.2,-216.8 -544,-220.3 -543.8,-223.2 -543.5,-225.7 -543.2,-228.7 -543,-232 -542.7,-235.5 -542.3,-238.7 -542,-242 -542,-244.8 -541.8,-247.2 -541.5,-249.5 -541.2,-252.2 -541,-255.2 -541,-258 -540.8,-260 -540.5,-262.3 -540.2,-264.3 -540,-266.8 -540,-268.8 -540,-271 -539.8,-272.7 -539.5,-274.7 -539.2,-276.7 -539,-279 -539,-280.7 -539,-282 -539,-283.7 -539,-285.3 -538.8,-287 -538.7,-287.8 -538.3,-290.2 -538.2,-292.5 -538,-295 -538,-296.3 -538,-297.7 -537.8,-298.8 -537.7,-299.5 -537.5,-300 -537.3,-301.2 -537.2,-302.5 -537,-304 -537,-305 -537,-306 -536.8,-307 -536.7,-308 -536.5,-309 -536.5,-309.8 -536.5,-310.5 -536.2,-312.3 -535.8,-314.2 -535.5,-316 -535.5,-316.5 -535.3,-317.3 -534.8,-318.7 -532.2,-321.7 -529.5,-324.2 -527.2,-326.2 -526.8,-326.3 -526.3,-326.7 -525.3,-326.8 -523.8,-327 -522.3,-327 -521.3,-327.2 -520.7,-327.3 -519.7,-327.3 -518,-327.2 -516,-327 -514,-327 -512,-327 -510,-327 -508,-327 -505,-327.3 -501.7,-328 -499,-328.8 -497.3,-329.8 -496.5,-330.5 -495.5,-331.3 -494.2,-333.3 -492.8,-339.7 -492,-346.8 -492.2,-352.5 -492.8,-355 -493.3,-356.7 -494,-358.8 -494.3,-360 -494.5,-361 -494.5,-361.5 -494.7,-362.2 -495,-363.5 -495.3,-364.8 -495.7,-366 -496,-367.3 -496.5,-368.7 -497,-370.7 -497.3,-371.8 -497.7,-373 -498,-374 -498.3,-375.2 -498.7,-376.3 -498.8,-377.2 -499.2,-378.7 -499.5,-380.2 -500,-382 -500.3,-383.2 -500.8,-385.2 -501.3,-386.8 -502,-388.8 -502.3,-390 -502.7,-391.2 -503,-392.7 -503.3,-394.2 -503.8,-396.3 -504.2,-397.8 -504.8,-400.2 -505.2,-401.7 -505.7,-403.2 -506,-404.5 -506.5,-406 -507,-408 -507.5,-409.5 -508,-411.8 -508.3,-413.7 -508.8,-416.2 -509.2,-417.7 -509.8,-419.8 -510.2,-421.3 -510.8,-423.8 -511.2,-425.7 -511.8,-428 -512.2,-429.5 -512.8,-431.8 -513.2,-433.7 -513.8,-436.2 -514.5,-439.2 -515.2,-442.2 -515.5,-444.3 -515.8,-446.2 -516.2,-448.2 -516.8,-451.2 -517.2,-453.3 -517.5,-455.7 -517.8,-458 -518.2,-460.2 -518.5,-462.5 -518.8,-465 -519.2,-467.5 -519.5,-469.8 -519.5,-472 -519.5,-474.7 -519.8,-478 -520.2,-480.3 -520.5,-483.2 -520.5,-485.5 -520.5,-488.3 -520.5,-491 -520.5,-493.7 -520.5,-496.3 -520.5,-499.2 -520.5,-502.3 -520.5,-505 -520.5,-507.3 -520.3,-510 -520.2,-513.3 -519.8,-516.7 -519.7,-519.2 -519.5,-522.2 -519.5,-524.7 -519.3,-527.7 -519,-530.7 -518.7,-534.2 -518.5,-537.3 -518.3,-540.7 -518,-544 -517.7,-547.8 -517.5,-550.5 -517.3,-553.7 -517,-557 -516.7,-561 -516.5,-564 -516.3,-566.8 -516,-569.8 -515.7,-573.3 -515.5,-576 -515.3,-579.3 -515,-582.8 -514.7,-586.8 -514.5,-589.7 -514.2,-592.7 -513.8,-595.8 -513.3,-599.8 -513,-603.7 -512.7,-607.3 -512.3,-610.8 -512.2,-614.2 -511.8,-617.8 -511.7,-620.8 -511.3,-624.5 -511.2,-628 -510.8,-631.3 -510.5,-634.8 -510.2,-638.2 -509.8,-641.3 -509.5,-644.5 -509,-647.8 -508.7,-651.2 -508.2,-654.5 -507.8,-657.2 -507.2,-661.2 -506.8,-663.8 -506.2,-667.5 -505.5,-670.8 -504.8,-674.2 -504.2,-677 -503.7,-679.5 -502.8,-682.7 -502.2,-685.7 -501.2,-688.8 -500.3,-691.8 -499.3,-695.2 -498.5,-698.3 -497.5,-701.5 -496.3,-704.7 -495.5,-707.2 -494.5,-709.8 -493.5,-712.3 -492.2,-715.3 -491,-718.3 -490.2,-720.7 -489,-723.8 -487.7,-726.8 -486.3,-730 -485.2,-732.3 -484.2,-734.7 -482.7,-737.5 -481.3,-740.3 -480.2,-742.7 -478.8,-745.7 -477.7,-748.2 -476.5,-750.7 -475.2,-752.8 -473.8,-755.2 -472,-758.3 -470.8,-760.7 -469.3,-763.3 -468.3,-765 -467,-767.2 -465.3,-769.7 -463.3,-772.5 -461.8,-774.7 -460.2,-777 -458.8,-778.8 -457,-781.3 -455.5,-783.5 -453.3,-786.3 -451.7,-788.5 -449.7,-790.8 -447.8,-793.3 -446,-795.7 -444.5,-797.8 -443.3,-799.3 -441.2,-802 -439.3,-804 -437.2,-806.3 -435.3,-808.2 -433.7,-809.8 -431.7,-812 -430.2,-813.7 -427.8,-816.2 -426.2,-817.8 -423.7,-820.3 -421.8,-822.2 -419.2,-824.8 -417.3,-826.5 -414.8,-828.7 -412.7,-830.5 -410.5,-832.5 -408.3,-834.3 -406.3,-835.8 -404,-837.7 -401.8,-839.7 -399.8,-841.5 -397.7,-843.3 -395.5,-844.8 -393,-846.7 -390.5,-848.5 -387.7,-850.7 -385.3,-852.3 -383,-854 -380.5,-855.7 -375.7,-858.8 -370.8,-862 -366.3,-864.7 -363.7,-866.3 -360.8,-867.8 -358.2,-869.7 -355.8,-871 -353.5,-872.5 -351.5,-873.5 -348.5,-875.2 -345.7,-876.7 -342.8,-878.3 -340.7,-879.5 -338.3,-880.7 -335.3,-882.2 -332.8,-883.5 -329.8,-885 -327.5,-886 -325.2,-887.2 -322.7,-888.3 -320.2,-889.5 -317.2,-890.7 -314.7,-891.8 -311.7,-893.2 -308.5,-894.5 -305.5,-895.7 -303,-896.7 -300.5,-897.7 -298,-898.5 -294.8,-899.7 -292.5,-900.7 -290,-901.7 -287.5,-902.5 -284.2,-903.5 -280.8,-904.7 -278.3,-905.7 -275.8,-906.7 -273.3,-907.5 -270.2,-908.5 -266.8,-909.5 -263.7,-910.5 -261,-911.2 -258.5,-911.8 -256,-912.5 -252.8,-913.3 -250.2,-914 -247.3,-914.7 -244.7,-915.2 -241.3,-915.8 -238,-916.5 -235.2,-917.2 -232.5,-917.7 -229.8,-918 -226.5,-918.7 -223.7,-919.2 -220.3,-919.8 -217.7,-920.2 -214.3,-920.7 -211.7,-921 -209,-921.3 -205.7,-921.8 -202.8,-922.2 -199.3,-922.7 -196.7,-923 -194,-923.3 -190.7,-923.8 -187.8,-924.2 -184.3,-924.5 -181.7,-924.5 -178.3,-924.8 -175.7,-925.2 -172.8,-925.5 -170,-925.5 -166.7,-925.8 -164,-926.2 -161.3,-926.5 -158.5,-926.7 -154.8,-927 -151.2,-927.3 -147.7,-927.5 -144.3,-927.8 -141.7,-928.2 -138.8,-928.5 -135.8,-928.8 -132.8,-929.2 -130.2,-929.5 -127.8,-929.5 -124.5,-929.8 -120.8,-930.2 -117,-930.5 -113.5,-930.8 -110.7,-931.2 -107.8,-931.5 -105.2,-931.7 -101.8,-932 -98.2,-932.3 -95.2,-932.5 -91.5,-932.8 -88.8,-933.2 -85.3,-933.5 -83.2,-933.5 -80.3,-933.7 -77,-934 -73.7,-934.3 -70.2,-934.5 -67.2,-934.7 -63.5,-935 -60.7,-935.3 -57.7,-935.5 -55,-935.7 -51.7,-936 -49.2,-936.3 -46.3,-936.5 -43.7,-936.5 -40.2,-936.7 -36.8,-937 -34,-937.3 -30.7,-937.5 -27.2,-937.8 -23.7,-938.2 -21,-938.5 -18.3,-938.5 -14.8,-938.7 -11.8,-939 -9,-939.3 -6.5,-939.5 -3.3,-939.5 -0.2,-939.7 3.2,-940 5.8,-940.3 8.8,-940.5 12.2,-940.7 15.5,-941 18.7,-941.3 21.3,-941.5 24,-941.5 26.7,-941.5 30,-941.8 33.3,-942.2 35.8,-942.5 38.5,-942.5 41.2,-942.5 44.7,-942.5 47.3,-942.7 50.5,-942.8 53.5,-943.2 56,-943.3 58.7,-943.5 61.3,-943.5 64.7,-943.7 67.8,-943.8 71,-944.2 74.2,-944.3 77.3,-944.5 79.7,-944.5 82.2,-944.5 84.7,-944.7 87.3,-944.8 90.5,-945.2 93,-945.3 96.2,-945.5 98.5,-945.5 101.7,-945.5 104.7,-945.7 107,-945.8 109.8,-946.2 112.3,-946.3 115.3,-946.5 117,-946.5 119,-946.5 121,-946.5 123,-946.7 125.3,-946.8 127,-947 129.2,-947 131.2,-947.2 133.3,-947.3 134.8,-947.5 136.5,-947.5 138.7,-947.5 140.8,-947.5 142.7,-947.5 144,-947.7 145.7,-947.8 147.7,-948.2 149.7,-948.3 151.3,-948.5 152.7,-948.5 153.8,-948.5 155,-948.5 156,-948.5 157.3,-948.5 159.3,-948.5 160.8,-948.5 162.5,-948.7 163.5,-948.8 164.8,-949 166.2,-949 168.2,-949.2 169.8,-949.3 171.2,-949.5 171.8,-949.5 172.8,-949.5 173.8,-949.5 174.8,-949.5 175.8,-949.5 177.2,-949.5 178.7,-949.5 179.8,-949.5 181.3,-949.7 183,-949.8 184.8,-950 186.8,-950.2 188.5,-950.3 190,-950.5 190.5,-950.5 191.5,-950.7 192.7,-950.8 194,-951 195.8,-951.3 197.5,-951.7 199.7,-952.3 201.5,-953 203.8,-954.2 206.3,-956 208,-957.7 209.5,-959.3 210.2,-960.3 211.3,-962.2 212.2,-964.3 213,-966.3 213.5,-968.2 214,-969.3 214.5,-971.3 215,-972.7 215.3,-974 215.7,-975.2 215.8,-976.3 216.2,-977.3 216.3,-977.7 216.5,-978 216.5,-978.5 216.8,-979.5 217.2,-980.5 217.8,-982.2 218.5,-983.8 219.3,-985.8 220,-987.2 220.3,-988 220.7,-988.3 220.8,-988.7 221.7,-989.5 222.8,-990.7 224.2,-991.8 225.7,-993 227.7,-994.3 230,-995.7 231.7,-996.3 232.5,-996.5 233,-996.7 233.5,-996.8 234.2,-997 235,-997 236.5,-997.3 237.8,-997.7 239,-998 239.5,-998 240.2,-998 241,-998 242.5,-998.2 243.8,-998.5 245,-998.8 246.5,-999 248.7,-999.2 250.8,-999.5 252,-999.8 252.8,-1000 253.8,-1000 255.5,-1000.2 257,-1000.5 258.3,-1000.8 259.2,-1001 260.5,-1001.2 262,-1001.3 263.5,-1001.7 264.7,-1001.8 266.5,-1002.2 268.2,-1002.5 269.5,-1002.8 270.8,-1003.2 272.3,-1003.5 273.8,-1003.8 275.5,-1004.2 277,-1004.5 278.5,-1004.8 279.8,-1005.3 281.3,-1005.7 283.5,-1006.2 285,-1006.5 286.7,-1006.8 288.3,-1007.3 290,-1007.7 291.8,-1008.3 293.8,-1008.8 295.7,-1009.5 297.2,-1009.8 299,-1010.5 301,-1011 302.8,-1011.7 304.2,-1012 305.5,-1012.5 308,-1013.3 310,-1014 312.5,-1014.8 314.3,-1015.5 316.2,-1016.2 318.5,-1017 320.5,-1017.7 322.5,-1018.3 324.2,-1018.8 326.7,-1019.7 329.2,-1020.7 331,-1021.3 333,-1022 335,-1022.7 337,-1023.3 339.3,-1024 342,-1024.8 344.8,-1025.8 346.3,-1026.5 348.7,-1027.2 351.2,-1028 353.8,-1028.8 356.3,-1029.7 358.7,-1030.3 361.5,-1031.3 363.3,-1032 366.3,-1033 368.5,-1033.7 371.8,-1034.8 374,-1035.7 376.3,-1036.5 379.2,-1037.3 382.8,-1038.5 387.2,-1039.8 390,-1040.8 391.7,-1041.5 394.2,-1042.3 397.5,-1043.5 401.2,-1044.7 403.7,-1045.7 405.8,-1046.5 408.5,-1047.5 410.8,-1048.3 413.3,-1049 416.2,-1049.8 419.2,-1050.8 422.3,-1052.2 425.2,-1053.2 428,-1054.2 430.2,-1054.8 432.7,-1055.7 435.5,-1056.5 438.3,-1057.5 440.8,-1058.5 443.3,-1059.5 446,-1060.3 448,-1061 451,-1061.8 453.5,-1062.7 457,-1063.8 459.3,-1064.8 461.8,-1065.8 463.3,-1066.3 465.3,-1066.8 468.2,-1067.7 471.2,-1068.7 473.2,-1069.3 475,-1069.8 477.7,-1070.7 480.3,-1071.7 483,-1072.7 484.5,-1073.2 487.2,-1074 489,-1074.7 491,-1075.3 492.7,-1075.8 495,-1076.5 497.8,-1077.3 499.8,-1078 501.2,-1078.5 502.7,-1079 504.8,-1079.7 507,-1080.2 509,-1080.8 511,-1081.3 513,-1082 514.3,-1082.3 516,-1082.8 517.7,-1083.2 519.5,-1083.5 521.3,-1083.8 523,-1084.2 524.8,-1084.5 526.2,-1084.7 527.8,-1084.8 529.5,-1085 531,-1085 532.8,-1085 534.8,-1085 536.7,-1085 538.3,-1085 539.7,-1085 541.3,-1085 542.8,-1085 544.2,-1084.8 545.2,-1084.7 546.8,-1084.3 548.5,-1084 550.8,-1083.5 552.2,-1083 553.7,-1082.7 554.8,-1082.2 556.2,-1081.8 557.3,-1081.3 558.5,-1081 560,-1080.3 561.7,-1079.8 563.2,-1079.2 564.7,-1078.5 566,-1077.8 567.5,-1077.2 568.5,-1076.7 570.2,-1075.7 571.5,-1074.8 572.8,-1074.2 573.5,-1073.8 574.8,-1073 576.2,-1072 577.5,-1071 578.2,-1070.3 579.3,-1069.3 581,-1068 582.5,-1066.8 583.5,-1066 584.2,-1065.3 585,-1064.5 586.3,-1063.3 587.7,-1062.2 588.7,-1061.2 589.2,-1060.5 590.2,-1059.2 591.5,-1057.7 592.8,-1056.2 594,-1054.8 595,-1053.7 595.8,-1052.5 596.2,-1052 596.8,-1050.7 597.8,-1049.2 598.8,-1047.7 599.3,-1047 599.8,-1046 600.3,-1045 601.3,-1043.2 602.2,-1041.8 603,-1040 603.5,-1039 604.3,-1037.2 605,-1035.8 605.7,-1034.5 606,-1033.3 606.5,-1032 607,-1030.2 607.5,-1028.8 607.8,-1027.7 608.3,-1026.2 608.7,-1024.7 609,-1023 609.2,-1021.2 609.5,-1019.5 609.8,-1017.8 610,-1016.7 610,-1015.5 610,-1014.2 610.3,-1011.8 610.7,-1009.5 611,-1007.3 611,-1006.3 611,-1005.3 611.2,-1004 611.3,-1002.5 611.7,-999.7 611.8,-997.2 612,-995 612.2,-994.2 612.3,-993 612.5,-991.7 612.7,-988.8 612.8,-986.3 613,-984 613.2,-982.7 613.3,-981 613.5,-979 613.5,-977.5 613.7,-975 613.8,-972.8 614.2,-970.2 614.3,-967.8 614.7,-964.3 614.8,-961.2 615,-958.7 615.2,-957 615.3,-954.8 615.7,-952.5 615.8,-950.5 616,-948.8 616,-947.3 616,-945.5 616.3,-942.7 616.7,-940.3 617,-937.8 617,-936 617,-934 617.3,-931.3 617.7,-929.2 618,-927.2 618,-925.5 618,-923.2 618.3,-920 618.7,-917.7 619,-915.5 619,-913.8 619.2,-911 619.5,-908.7 619.8,-905.8 620,-904.2 620,-902.2 620.3,-899.7 620.7,-897.2 621,-894.7 621,-892.8 621,-890.8 621.3,-888.3 621.7,-885.8 622,-883.2 622,-881 622.3,-878.2 622.7,-875.8 623,-873.8 623,-872.5 623,-870.2 623.3,-866.8 623.7,-864 624,-862 624,-860.7 624,-858.8 624.3,-855.8 624.7,-853.2 625,-851 625,-849.7 625,-848 625.3,-845 625.7,-842 626,-839 626,-837.5 626,-835.5 626.3,-833 626.7,-830.3 627,-828 627,-826.2 627,-824.3 627,-822.7 627.3,-820.5 627.7,-818.2 628,-815.8 628,-814 628.2,-811.5 628.5,-809.5 628.8,-807.5 629,-806 629,-804.5 629,-802.8 629.2,-800.7 629.3,-798.5 629.7,-796.8 629.8,-796 630,-794.7 630,-793.3 630,-791.7 630,-790.3 630.2,-788.3 630.3,-786.8 630.5,-785.5 630.5,-784.5 630.5,-783.3 630.5,-782 630.5,-780.7 630.5,-779.3 630.5,-778.2 630.5,-777.3 630.3,-776 630.2,-774.5 630,-773 630,-772 630,-771.2 629.8,-770.5 629.5,-769.5 629.2,-768.5 628.8,-767.5 628.5,-766.5 628.2,-765.5 627.7,-764.2 627.3,-763.3 626.7,-762.2 626.3,-761.2 625.5,-759.7 624.8,-758.5 624.2,-757.5 623.5,-756.5 622.8,-755.7 622.2,-754.8 621.8,-754.5 621.5,-754 620.8,-753.3 620,-752.7 619.2,-752 618.2,-751.2 617.5,-750.3 616.7,-749.5 616.2,-749 615.5,-748.5 614.5,-747.8 613.5,-747.2 612.5,-746.7 611.5,-746 610.5,-745.5 609.5,-744.8 609,-744.5 608.2,-744 606.8,-743.2 605.3,-742.5 604.2,-741.8 603.5,-741.5 603,-741.2 601.5,-740.3 599.8,-739.7 598.2,-738.8 597.2,-738.3 596.3,-737.8 595,-737.2 593.5,-736.3 592,-735.3 590.5,-734.5 589.5,-734 588,-733.3 586.5,-732.3 585,-731.5 584,-730.8 582.7,-730.2 581.2,-729.3 579.2,-728.3 577.8,-727.5 576.7,-726.8 575.2,-726 573.8,-725.3 571.8,-724.2 570.2,-723.2 568.5,-722.3 567.5,-721.8 565.7,-720.8 563.8,-719.7 561.3,-718.3 560.2,-717.7 558.5,-716.8 556.8,-715.8 555,-714.8 553.3,-713.8 551.7,-713 550,-712.2 548.2,-711.3 546.5,-710.5 544.2,-709.2 542.2,-707.8 540.2,-706.5 538.7,-705.7 536.7,-704.5 534.5,-703.3 532.2,-702 530,-701 527.8,-700 525.8,-699 523.7,-697.8 521.5,-696.5 519.2,-695.2 516.8,-694 514.7,-692.8 512.7,-691.8 510.7,-690.5 508.3,-689.3 505.8,-687.8 503.2,-686.5 501,-685.2 498.7,-683.8 496,-682.3 493.7,-681 490.8,-679.5 488.5,-678.2 485.8,-676.8 483.8,-675.7 481.3,-674.3 479.2,-673 476.2,-671.3 474.2,-670.2 471.5,-668.8 468.8,-667.5 466.2,-666 463.2,-664.2 461.2,-663 458,-661.3 455.5,-660.2 452.8,-658.8 450.5,-657.7 447.5,-655.8 444.2,-653.7 441.7,-652 438.7,-650.3 436.2,-649.2 432.8,-647.3 430.8,-646.2 427.7,-644.3 424.7,-642.7 421.7,-641 419.3,-639.8 416.8,-638.5 413.2,-636.7 410.2,-635 407.2,-633.3 404.2,-631.7 401.2,-630 398.2,-628.3 395.2,-626.7 391.7,-624.5 388.2,-622.5 385.7,-620.8 382.7,-619.2 379.3,-617.5 376.2,-616 373.2,-614.3 370.2,-612.5 366.7,-610.3 363.2,-608.3 359.8,-606.5 357,-605 353.7,-603.2 350.8,-601.5 346.8,-599.3 343.7,-597.5 340.2,-595.5 337.2,-593.5 334.5,-592 331.2,-590.2 327.8,-588.3 324.2,-586.2 320.8,-584.3 317.7,-582.5 314.2,-580.5 311.2,-578.5 308.7,-576.8 305.5,-574.8 303,-573.2 299.2,-570.7 296.2,-568.7 292.3,-566.2 289,-564 285.7,-561.7 283.2,-560 280.8,-558.5 277.7,-556.3 274.5,-554 271.3,-551.7 269.2,-550 266.3,-547.8 263.3,-545.5 260.2,-543.2 257,-540.8 254.2,-538.7 251.5,-536.3 249.2,-534.3 246.2,-531.8 243.7,-529.8 240.3,-527 238.2,-525.2 235.3,-522.8 232.8,-521 229.7,-518.5 226.7,-516.2 224.5,-514.3 221.7,-512 219.2,-509.8 216.2,-507.5 213.8,-505.5 210.2,-502.5 206.3,-499 202.5,-495.8 199.5,-493.3 197.3,-491.5 194.5,-489 192.2,-487 189.2,-484.7 186.8,-482.7 184.2,-480.3 181.5,-477.8 179,-475.5 176.8,-473.5 174,-471 171,-468.5 167.5,-465.5 165.2,-463.5 162.7,-461.2 160.5,-459.2 157.3,-456.2 154.8,-454 152.2,-451.7 149.8,-449.8 146.7,-447 143.8,-444.3 141,-441.8 138.8,-440 136,-437.7 133.3,-435.3 130.3,-432.7 127.8,-430.5 125,-428.2 122.2,-425.8 119.3,-423.3 116.7,-420.8 114.2,-418.7 111.3,-416.3 108.7,-414 105.8,-411.5 103.3,-409.2 100,-406.3 97.3,-404 94.7,-401.7 92.2,-399.3 89,-396.5 85.5,-393.7 83,-391.3 80.3,-389 77.8,-386.7 75,-384.5 72.7,-382.3 70,-379.8 67.3,-377.3 64,-374.5 61.5,-372.2 58.5,-369.5 56.5,-367.7 53.5,-365.3 50.8,-363 47.7,-360.2 44.8,-357.7 42.3,-355.5 39.8,-353.3 37,-350.8 34.5,-348.7 32,-346.7 29.7,-344.7 26.7,-342 24.2,-339.7 21.2,-337 18.5,-334.7 15.7,-332.3 13.5,-330.3 10.8,-328 8.3,-325.8 6,-323.8 3.3,-321.5 0.8,-319.2 -2,-316.8 -4.3,-314.8 -7.3,-312.2 -9.3,-310.2 -11.8,-308 -14.2,-306 -17.3,-303.3 -19.2,-301.5 -21.7,-299.2 -24.2,-296.8 -26.7,-294.5 -29.2,-292.5 -31.7,-290.2 -35,-287.5 -38,-284.7 -41,-282.2 -43.2,-280.2 -45.7,-278 -47.8,-276.2 -51,-273.5 -53.3,-271.5 -55.7,-269.3 -57.8,-267.3 -60.2,-265.2 -62.3,-263.3 -64.3,-261.5 -66.7,-259.3 -69.3,-257 -71.8,-254.8 -73.8,-253.3 -76,-251.3 -78.3,-249.3 -80.8,-247 -83.2,-245 -85.7,-242.8 -88.2,-240.8 -90,-239.2 -91.8,-237.5 -94,-235.5 -96.3,-233.5 -98.7,-231.3 -100.5,-229.7 -103,-227.7 -105,-226.2 -107.3,-224.2 -109.5,-222 -111.3,-220.2 -113.5,-218.2 -115.5,-216.3 -117.8,-214.3 -120,-212.5 -122.5,-210.5 -124.7,-208.7 -126.5,-207 -128.5,-205.2 -130.7,-203.2 -132.8,-201.2 -134.7,-199.7 -137,-197.7 -139.3,-195.8 -141.2,-194 -143.2,-192.3 -145.2,-190.5 -147.2,-188.8 -149.3,-187 -151.5,-185 -153.7,-183.2 -155.7,-181.3 -157.5,-180 -159.7,-178 -161.5,-176.3 -163,-174.8 -164.8,-173.3 -166.2,-172 -168.2,-170.2 -169.5,-169 -171.5,-167.3 -172.8,-166.2 -174.5,-164.7 -176.2,-163.3 -177.8,-162 -179.8,-160.3 -181.2,-159.2 -182.8,-157.7 -184.2,-156.5 -185.7,-155.2 -186.8,-154.2 -188,-153.2 -189,-152.3 -190.7,-151 -192,-149.8 -193.3,-148.7 -194,-148 -195,-147.2 -196.7,-145.7 -198.3,-144.2 -200,-142.7 -201,-141.8 -201.8,-141 -202.8,-140.2 -204.2,-138.8 -206,-137.3 -207.7,-135.7 -209.2,-134.3 -210.5,-133 -211.5,-132 -212.5,-131 -213.5,-130 -214.3,-129 -215.3,-127.8 -216.2,-126.8 -217,-126 -217.7,-125 -218.3,-124 -219,-123 -219.7,-122 -220.3,-121 -220.8,-120 -221.5,-119 -222,-118 -222.8,-116.7 -223.3,-115.2 -223.8,-113.7 -224.2,-112.5 -224.3,-112 -224.7,-110.8 -224.8,-109.5 -225,-108.2 -225,-107.5 -225,-107 -225.2,-105.5 -225.2,-102.7 -225.2,-99.8 -225,-98 -225,-97.5 -225,-96.8 -224.8,-96 -224.5,-94.2 -224.2,-92.5 -224,-91 -224,-90.5 -223.8,-89.5 -223.5,-87.7 -223.2,-85.7 -223,-84.2 -223,-83.5 -223,-83 -222.7,-81.2 -222.3,-79.3 -222,-77.3 -222,-76.5 -222,-75.3 -222,-73.8 -221.8,-72.5 -221.7,-70.8 -221.3,-68.8 -221.2,-66.7 -221,-65 -221,-64 -221,-62.8 -221,-61.5 -221,-60 -221,-58.2 -221,-56.5 -221,-54.7 -221,-53.2 -221,-51.7 -221,-50.7 -221.2,-48.8 -221.3,-46.8 -221.7,-44.5 -221.8,-43.2 -222,-42 -222.2,-40.2 -222.5,-38.5 -222.8,-37 -223.2,-35.7 -223.5,-34.2 -224,-31.8 -224.5,-30.2 -224.8,-28.7 -225.3,-27.3 -225.7,-26.2 -226.3,-24.3 -226.7,-23 -227.3,-21.3 -228,-19.8 -228.7,-18.5 -229.5,-16.5 -230.2,-14.8 -231,-13.2 -231.8,-11.7 -232.7,-10.2 -233.5,-8.7 -234.2,-7.5 -235,-6 -236,-4 -236.8,-2.5 -237.5,-1.5 -238.5,-0.2 -239.5,1.3 -240.8,3.3 -241.8,4.8 -243,6.3 -244,7.7 -245,8.8 -246,10 -247.3,11.5 -248.5,12.8 -249.7,14.2 -250.3,14.8 -251.8,16.2 -253.3,17.5 -255.2,19.3 -256.3,20.5 -257.5,21.8 -258.5,22.7 -259.8,23.8 -261.2,24.8 -262.5,26 -263.5,26.8 -265.2,28.2 -266.8,29.5 -268.3,30.8 -269.5,31.8 -270.8,32.8 -272.2,33.8 -273.7,34.8 -275,35.8 -276.5,37 -277.3,37.8 -278.5,39 -279.7,40.2 -281,41.5 -282,42.5 -283,43.5 -284.5,45.3 -285.8,47 -287,48.8 -287.5,49.7 -288.3,51.3 -289,52.7 -289.7,54 -290.2,55.5 -290.8,57 -291.3,58.5 -291.7,59.7 -292,61 -292.3,62.3 -292.7,63.8 -292.8,65.3 -293.2,67.7 -293.3,69.3 -293.7,70.8 -293.8,71.5 -294.2,73.2 -294.3,75 -294.5,76.8 -294.7,78.5 -295,80.5 -295.3,82.7 -295.5,83.8 -295.7,85.5 -296,87.3 -296.3,89.7 -296.5,91 -296.7,93.2 -297,95.3 -297.3,98 -297.5,99.5 -297.5,100.8 -297.8,102.7 -298.2,105 -298.5,107.3 -298.7,109.3 -298.8,111.3 -299,113.2 -299.3,115.2 -299.7,117.2 -300,119.8 -300.2,121.8 -300.5,124.2 -300.8,126.3 -301.2,129.5 -301.3,132 -301.5,134 -301.8,136 -302.2,138.5 -302.7,141.2 -303,144.2 -303.3,147.2 -303.7,150.2 -303.8,151.8 -304.2,154.2 -304.5,157 -304.8,160 -305.2,162.7 -305.5,165.2 -305.8,168.2 -306.2,171.3 -306.5,174.7 -306.8,177.3 -307,179 -307.3,181.5 -307.7,184.8 -308.2,188.3 -308.5,191.3 -308.8,194.2 -309.2,197 -309.5,199.8 -309.8,202.7 -310.2,205.7 -310.5,208.8 -310.8,212 -311.2,215 -311.5,217.8 -311.8,220.7 -312.3,224.8 -312.7,228.7 -313,231.8 -313.2,233.7 -313.5,236.8 -314,240.2 -314.5,244.7 -314.8,247.2 -315.2,250.5 -315.5,253.7 -315.8,257.7 -316.2,261 -316.5,264.2 -316.8,267.2 -317.3,271 -317.7,274.5 -318,277.7 -318.3,280.8 -318.7,284.2 -319.3,288.2 -319.7,291.8 -320,295.3 -320.2,298.2 -320.5,301.7 -321,305.3 -321.5,309.7 -321.8,313.2 -322.2,316.7 -322.3,319.5 -322.8,323.2 -323.2,326.8 -323.7,331 -324,334.7 -324.3,337.5 -324.7,341 -325,344.7 -325.5,349.2 -325.8,353.2 -326.2,356.8 -326.5,360.5 -326.8,364.2 -327.2,368 -327.3,371 -327.7,374.5 -328.2,378 -328.7,382.7 -329.2,386.8 -329.5,391.5 -329.8,395.2 -330.3,398.8 -330.7,402 -331.2,406 -331.5,410.5 -332,414.3 -332.5,418.8 -332.8,421.8 -333.2,425.5 -333.5,428.5 -334,432.7 -334.5,436.8 -334.8,441 -335.3,445 -335.7,449 -336.3,453 -336.7,457 -337,460.7 -337.3,464.3 -337.7,468 -338.3,472 -338.7,476.2 -339.2,480.3 -339.5,484.5 -339.8,488.5 -340.3,492.5 -340.7,496.5 -341.3,500.5 -341.7,504.3 -342,508.2 -342.3,512 -342.7,516 -343.3,520.2 -343.7,524.5 -344.3,528.8 -344.7,532.8 -345,536 -345.3,540.2 -345.7,544.5 -346.3,549.5 -346.7,553.7 -347,557 -347.3,561 -347.7,564.2 -348.3,569 -348.7,572.5 -349.3,576.7 -349.7,580 -350,584.3 -350.3,589.3 -350.7,593.5 -351.3,597.5 -351.7,601.2 -352.3,606.3 -352.7,611.5 -353.2,615.7 -353.5,619 -353.8,622.3 -354.3,627.3 -354.7,631.7 -355.3,636.7 -355.7,640 -356.3,644.2 -356.7,647.8 -357.3,652.8 -357.7,657 -358.3,662 -358.7,665.7 -359.2,670 -359.5,673.3 -360,678.3 -360.5,682.7 -360.8,687 -361.3,691.3 -361.7,695.8 -362.2,700.3 -362.5,703.7 -363,707.8 -363.5,712.2 -364,717.5 -364.5,722 -365,726.3 -365.5,730.8 -365.8,735.2 -366.2,739.3 -366.5,742.8 -367,747.3 -367.5,751.8 -368,757 -368.5,761.2 -369,765.3 -369.5,768.7 -369.8,773.2 -370.3,778.7 -370.7,783.3 -371.3,787.7 -371.7,791.2 -372.3,795.5 -372.7,799.7 -373.2,804 -373.5,809.2 -374,813.8 -374.5,818.3 -375,822 -375.5,826.5 -375.8,831 -376.3,837 -377,843.7 -377.7,849.3 -378.2,853.3 -378.5,856.8 -378.8,861.2 -379.3,866.7 -379.7,871.3 -380.3,876.7 -380.7,880.3 -381.3,885.3 -381.7,889.2 -382.2,894.3 -382.5,898.2 -383,902.2 -383.5,906.2 -383.8,910 -384.3,915 -384.8,920 -385.5,925.7 -385.8,930 -386.3,934 -386.7,937.2 -387.2,941.3 -387.5,944.8 -388,949.7 -388.5,953.8 -389,958.5 -389.3,962.5 -389.7,965.8 -390,969.5 -390.5,972.8 -391,977.2 -391.3,980.8 -391.7,984.2 -392,987.5 -392.3,990.3 -392.7,993.5 -393,996.7 -393.3,1000.2 -393.7,1003.3 -394,1006 -394.3,1008.3 -394.7,1011 -394.8,1013 -395.2,1015.7 -395.5,1018.2 -395.8,1020.8 -396.3,1023.2 -396.7,1025.2 -397.3,1027.7 -397.8,1029.3 -398.5,1031.5 -399.2,1033.5 -399.8,1035.5 -400.3,1037 -401,1038.5 -401.7,1040 -402.5,1041.3 -403.5,1043.2 -404.5,1044.8 -405.3,1046.7 -405.8,1047.5 -406.8,1049 -408,1050.5 -409,1051.8 -409.7,1052.8 -410.8,1054.2 -412,1055.7 -413,1056.8 -413.7,1057.7 -414.5,1058.5 -415.5,1059.7 -416.8,1061 -418.2,1062.3 -419.3,1063.3 -420,1064 -421,1064.8 -422.5,1066 -424.2,1067.3 -425.5,1068.5 -426.5,1069.5 -427.5,1070.5 -428.3,1071.3 -429.3,1072.2 -430.7,1073 -432.3,1074 -433.7,1074.8 -434.5,1075.5 -435.5,1076.2 -436.8,1077 -438.7,1078 -440.5,1078.8 -442,1079.5 -443.5,1080.2 -444.5,1080.7 -446.2,1081.3 -447.7,1081.8 -449.3,1082.5 -451,1083 -452.3,1083.5 -453.7,1083.8 -454.3,1084 -455.8,1084.3 -457.3,1084.7 -459,1085 -460.3,1085.2 -462.7,1085.5 -464.8,1085.8 -466.7,1086 -467.5,1086 -469,1086 -470.3,1086 -472.2,1086 -473.8,1086 -476,1086 -477.8,1086 -479.5,1086 -481.2,1086 -482.8,1086 -484.3,1085.8 -486.3,1085.5 -488.5,1085.2 -490.5,1085 -492,1084.8 -493.3,1084.7 -495.5,1084.3 -497.3,1084 -499,1083.7 -500.3,1083.2 -501.7,1082.8 -503.5,1082.2 -505.8,1081.5 -508.2,1080.8 -510.5,1080.2 -511.8,1079.7 -513.5,1079 -515.2,1078.3 -517,1077.7 -518.8,1076.8 -521,1076 -523.2,1075.2 -525.3,1074.3 -527,1073.5 -528.5,1072.7 -530.2,1071.7 -531.8,1070.7 -533.5,1069.7 -535.2,1068.7 -537,1067.7 -538.8,1066.5 -540.7,1065.3 -542.3,1064.2 -544.2,1063.2 -545.5,1062.3 -547.3,1060.8 -549,1059.5 -551,1058 -552.2,1057.2 -554,1055.7 -555.3,1054.5 -556.8,1053.2 -558,1052 -559.3,1050.7 -560.8,1049.2 -562.3,1047.8 -564,1046.2 -565.5,1044.7 -567.2,1042.7 -568.7,1041.2 -570.3,1039.3 -571.7,1038 -573.3,1036 -574.8,1034.2 -576.2,1032.3 -577.8,1030.2 -579.2,1028.3 -580.8,1026.2 -582.2,1024.3 -583.5,1022.7 -584.8,1021 -585.8,1019.5 -587,1017.5 -588.3,1015.3 -589.5,1013.7 -590.5,1012.3 -591.2,1011.2 -592,1009.5 -593.3,1007.2 -594.7,1004.7 -596.3,1001.8 -597.5,999.7 -598.7,997.7 -599.5,996 -600.3,994.3 -601.2,992.3 -602,990.3 -603,988 -604,986 -605,983.8 -606,981.7 -606.8,979.8 -607.5,977.8 -608.2,975.8 -609,973.3 -609.7,971.7 -610.3,969.7 -611,967.5 -612,964.3 -612.8,961.8 -613.5,959.3 -614.2,957.2 -614.8,955 -615.5,952.5 -616,950.7 -616.5,948 -617,946.3 -617.7,943.5 -618.3,940.7 -619,937.7 -619.5,935 -620,933 -620.3,930.7 -620.8,928.3 -621.2,926 -621.7,923.8 -622,921.2 -622.7,917.5 -623.2,914.2 -623.5,911.8 -623.8,909.5 -624.2,907 -624.5,904.2 -624.8,901.2 -625.2,898.2 -625.5,895.2 -625.5,893 -625.5,891 -625.8,888.2 -626.2,885.2 -626.5,881.7 -626.5,879.2 -626.5,876.7 -626.7,873.3 -626.8,870 -627.2,866.8 -627.3,864 -627.5,861 -627.5,858 -627.5,855 -627.5,851.8 -627.5,848.2 -627.5,845 -627.5,842 -627.5,839.3 -627.5,836.2 -627.5,832.8 -627.5,829.2 -627.5,825.8 -627.7,822.8 -627.8,819.7 -628,816.7 -628,812.7 -628,809 -628,805.2 -628,801.7 -628,798.5 -628,794.8 -628,791.7 -628,787.8 -628,784.8 -628.2,781.2 -628.3,778 -628.5,774.2 -628.5,770.3 -628.5,766.8 -628.5,763.3 -628.5,760.2 -628.5,756.3 -628.5,752.5 -628.5,749.2 -628.5,745.7 -628.5,742 -628.5,737.8 -628.7,734.3 -628.8,731 -629,727 -629,723.2 -629,719.3 -629,715.8 -628.7,711.7 -628.3,707.7 -628,703.8 -628,700.3 -628,696.7 -628,692.7 -628,688.3 -628,684.8 -627.8,681.5 -627.7,678.3 -627.3,674.2 -627.2,670.3 -627,665.8 -626.8,662.2 -626.7,659 -626.3,655 -626.2,651 -625.8,646.8 -625.5,643.2 -625.2,638.8 -624.8,634.5 -624.5,630.8 -624.2,627.2 -623.8,623 -623.7,619.5 -623.3,615.5 -623,611.7 -622.5,607.2 -622.3,605.3" style="stroke: rgb(55, 65, 81); stroke-width: 10;"></polygon><polyline vector-effect="non-scaling-stroke" fill="none" points="-622,601.5 -622,601 -622,599.8 -622,598.8 -621.8,598 -621.7,597.5 -621.3,596.2 -621.2,594.7 -621,593 -621,592 -621,591 -621,590 -621,589.2 -620.8,588.5 -620.7,588 -620.5,587.5 -620.3,586.2 -620.2,584.7 -620,583 -620,582 -620,581 -620,580 -619.8,579.2 -619.7,578.5 -619.5,577.8 -619.3,576.5 -619.2,574.8 -619,573.2 -619,572.2 -619,571.2 -619,570.2 -618.8,569 -618.7,568.2 -618.5,567.5 -618.3,566.3 -618.2,564.8 -618,562.8 -618,561.3 -618,560.2 -617.8,559.2 -617.7,558.3 -617.5,557.3 -617.5,556.7 -617.3,555 -617.2,553.2 -617,551.2 -616.8,549.8 -616.7,548.8 -616.5,548 -616.5,547.5 -616.3,545.8 -616.2,543.7 -616,541.5 -615.8,540.2 -615.7,539.2 -615.5,538.2 -615.3,536.7 -615.2,535 -615,532.8 -614.8,531.3 -614.7,529.7 -614.5,528.5 -614.5,527.3 -614.3,525.7 -614.2,524 -613.8,521.8 -613.7,520.7 -613.5,519 -613.5,517.8 -613.5,516.7 -613.3,515 -613,512.8 -612.7,510.2 -612.5,508.5 -612.5,507.3 -612.5,506.7 -612.2,504.7 -611.8,502.3 -611.5,499.7 -611.5,498.2 -611.5,497 -611.3,495 -611,492.7 -610.7,490 -610.5,488.3 -610.5,487 -610.3,484.8 -610,482.8 -609.7,480.3 -609.5,479 -609.3,476.8 -609,474.5 -608.7,471.8 -608.5,469.3 -608.5,467.5 -608.3,466 -608,463.7 -607.7,461.3 -607.3,458 -607,455.5 -606.7,453 -606.5,451 -606.3,448.7 -606,446 -605.7,442.8 -605.5,440.5 -605.5,438.3 -605.2,436.2 -604.8,433.5 -604.5,430.3 -604.5,428.2 -604.2,425.3 -603.8,422.5 -603.5,419.5 -603.3,416.8 -603,414.3 -602.7,411.7 -602.3,408.7 -602,405.5 -601.7,401.8 -601.5,399.2 -601.3,396.2 -601,393.3 -600.7,390.5 -600.3,387.3 -600,384.7 -599.7,381.3 -599.5,379.2 -599.2,375.7 -598.8,372.8 -598.3,369.3 -598,366.7 -597.7,363.3 -597.3,360 -597.2,356.7 -596.8,354 -596.5,351 -596.2,347.7 -595.8,344.3 -595.5,341 -595.2,337.5 -594.8,334 -594.5,330.5 -594.2,327.8 -593.7,324 -593.3,320.5 -593,317.2 -592.7,313.8 -592.3,310.3 -591.8,306.8 -591.5,303 -591.2,299.7 -590.8,296.2 -590.5,292.7 -590.2,288.8 -589.8,285 -589.5,281.8 -589.2,278.3 -588.8,275 -588.5,271.2 -588.2,267.5 -587.8,264 -587.5,260.7 -587,257 -586.7,253.2 -586.3,249 -586,245.3 -585.7,241.7 -585.2,237.3 -584.7,232.2 -584,226.5 -583.7,222.8 -583.3,219.2 -583,215.2 -582.7,211.2 -582.3,208 -582,204.8 -581.7,201 -581.3,196.5 -581,192.7 -580.5,188.2 -580.2,184 -579.8,179.8 -579.5,176.7 -579,173.7 -578.7,170 -578.3,165.8 -578,161.8 -577.5,157.8 -577,154 -576.7,150 -576.2,145.8 -575.8,141.8 -575.3,137.8 -575,134 -574.7,130 -574.2,125.8 -573.8,122 -573.3,118 -573,114.2 -572.7,110 -572.2,106.2 -571.8,102 -571.3,97.5 -571,92.8 -570.7,88.7 -570.3,84.8 -570,81 -569.7,77 -569.2,73 -568.8,68.7 -568.5,64.5 -568.2,60.2 -567.8,56.2 -567.2,51.7 -566.8,47.5 -566.5,43.5 -566.3,39.7 -566,35.5 -565.7,31.2 -565.3,26.8 -565,22.7 -564.7,18.5 -564.3,14.5 -564,10.3 -563.7,6.2 -563.3,2.7 -563,-1.7 -562.7,-5.8 -562.3,-10 -562,-14 -561.7,-17.3 -561.3,-21.3 -561,-24.5 -560.7,-28.8 -560.3,-33 -560,-37 -559.7,-40.7 -559.3,-44.5 -559,-48.8 -558.7,-52.8 -558.3,-56.7 -558.2,-60.2 -558,-63.3 -557.7,-67.5 -557.3,-71.3 -557,-75.2 -556.7,-78.8 -556.3,-82 -556,-85.8 -555.7,-89 -555.3,-92.8 -555,-96.7 -555,-99.7 -554.7,-103.5 -554.3,-106.7 -553.8,-110.3 -553.5,-114 -553.2,-117.5 -552.8,-121.2 -552.5,-125.8 -551.8,-132 -551.3,-138.2 -550.7,-142.5 -550.3,-146 -550,-149.5 -549.8,-152.3 -549.5,-155.8 -549.2,-159.5 -549,-163.2 -548.8,-166 -548.5,-169.2 -548.2,-172.8 -547.8,-176 -547.5,-179.3 -547.2,-182.7 -547,-185.8 -546.7,-188.7 -546.3,-191.7 -546,-195.3 -545.7,-198.7 -545.3,-202 -545,-205.3 -545,-208.5 -544.8,-211 -544.5,-213.7 -544.2,-216.8 -544,-220.3 -543.8,-223.2 -543.5,-225.7 -543.2,-228.7 -543,-232 -542.7,-235.5 -542.3,-238.7 -542,-242 -542,-244.8 -541.8,-247.2 -541.5,-249.5 -541.2,-252.2 -541,-255.2 -541,-258 -540.8,-260 -540.5,-262.3 -540.2,-264.3 -540,-266.8 -540,-268.8 -540,-271 -539.8,-272.7 -539.5,-274.7 -539.2,-276.7 -539,-279 -539,-280.7 -539,-282 -539,-283.7 -539,-285.3 -538.8,-287 -538.7,-287.8 -538.3,-290.2 -538.2,-292.5 -538,-295 -538,-296.3 -538,-297.7 -537.8,-298.8 -537.7,-299.5 -537.5,-300 -537.3,-301.2 -537.2,-302.5 -537,-304 -537,-305 -537,-306 -536.8,-307 -536.7,-308 -536.5,-309 -536.5,-309.8 -536.5,-310.5 -536.2,-312.3 -535.8,-314.2 -535.5,-316 -535.5,-316.5 -535.3,-317.3 -534.8,-318.7 -532.2,-321.7 -529.5,-324.2 -527.2,-326.2 -526.8,-326.3 -526.3,-326.7 -525.3,-326.8 -523.8,-327 -522.3,-327 -521.3,-327.2 -520.7,-327.3 -519.7,-327.3 -518,-327.2 -516,-327 -514,-327 -512,-327 -510,-327 -508,-327 -505,-327.3 -501.7,-328 -499,-328.8 -497.3,-329.8 -496.5,-330.5 -495.5,-331.3 -494.2,-333.3 -492.8,-339.7 -492,-346.8 -492.2,-352.5 -492.8,-355 -493.3,-356.7 -494,-358.8 -494.3,-360 -494.5,-361 -494.5,-361.5 -494.7,-362.2 -495,-363.5 -495.3,-364.8 -495.7,-366 -496,-367.3 -496.5,-368.7 -497,-370.7 -497.3,-371.8 -497.7,-373 -498,-374 -498.3,-375.2 -498.7,-376.3 -498.8,-377.2 -499.2,-378.7 -499.5,-380.2 -500,-382 -500.3,-383.2 -500.8,-385.2 -501.3,-386.8 -502,-388.8 -502.3,-390 -502.7,-391.2 -503,-392.7 -503.3,-394.2 -503.8,-396.3 -504.2,-397.8 -504.8,-400.2 -505.2,-401.7 -505.7,-403.2 -506,-404.5 -506.5,-406 -507,-408 -507.5,-409.5 -508,-411.8 -508.3,-413.7 -508.8,-416.2 -509.2,-417.7 -509.8,-419.8 -510.2,-421.3 -510.8,-423.8 -511.2,-425.7 -511.8,-428 -512.2,-429.5 -512.8,-431.8 -513.2,-433.7 -513.8,-436.2 -514.5,-439.2 -515.2,-442.2 -515.5,-444.3 -515.8,-446.2 -516.2,-448.2 -516.8,-451.2 -517.2,-453.3 -517.5,-455.7 -517.8,-458 -518.2,-460.2 -518.5,-462.5 -518.8,-465 -519.2,-467.5 -519.5,-469.8 -519.5,-472 -519.5,-474.7 -519.8,-478 -520.2,-480.3 -520.5,-483.2 -520.5,-485.5 -520.5,-488.3 -520.5,-491 -520.5,-493.7 -520.5,-496.3 -520.5,-499.2 -520.5,-502.3 -520.5,-505 -520.5,-507.3 -520.3,-510 -520.2,-513.3 -519.8,-516.7 -519.7,-519.2 -519.5,-522.2 -519.5,-524.7 -519.3,-527.7 -519,-530.7 -518.7,-534.2 -518.5,-537.3 -518.3,-540.7 -518,-544 -517.7,-547.8 -517.5,-550.5 -517.3,-553.7 -517,-557 -516.7,-561 -516.5,-564 -516.3,-566.8 -516,-569.8 -515.7,-573.3 -515.5,-576 -515.3,-579.3 -515,-582.8 -514.7,-586.8 -514.5,-589.7 -514.2,-592.7 -513.8,-595.8 -513.3,-599.8 -513,-603.7 -512.7,-607.3 -512.3,-610.8 -512.2,-614.2 -511.8,-617.8 -511.7,-620.8 -511.3,-624.5 -511.2,-628 -510.8,-631.3 -510.5,-634.8 -510.2,-638.2 -509.8,-641.3 -509.5,-644.5 -509,-647.8 -508.7,-651.2 -508.2,-654.5 -507.8,-657.2 -507.2,-661.2 -506.8,-663.8 -506.2,-667.5 -505.5,-670.8 -504.8,-674.2 -504.2,-677 -503.7,-679.5 -502.8,-682.7 -502.2,-685.7 -501.2,-688.8 -500.3,-691.8 -499.3,-695.2 -498.5,-698.3 -497.5,-701.5 -496.3,-704.7 -495.5,-707.2 -494.5,-709.8 -493.5,-712.3 -492.2,-715.3 -491,-718.3 -490.2,-720.7 -489,-723.8 -487.7,-726.8 -486.3,-730 -485.2,-732.3 -484.2,-734.7 -482.7,-737.5 -481.3,-740.3 -480.2,-742.7 -478.8,-745.7 -477.7,-748.2 -476.5,-750.7 -475.2,-752.8 -473.8,-755.2 -472,-758.3 -470.8,-760.7 -469.3,-763.3 -468.3,-765 -467,-767.2 -465.3,-769.7 -463.3,-772.5 -461.8,-774.7 -460.2,-777 -458.8,-778.8 -457,-781.3 -455.5,-783.5 -453.3,-786.3 -451.7,-788.5 -449.7,-790.8 -447.8,-793.3 -446,-795.7 -444.5,-797.8 -443.3,-799.3 -441.2,-802 -439.3,-804 -437.2,-806.3 -435.3,-808.2 -433.7,-809.8 -431.7,-812 -430.2,-813.7 -427.8,-816.2 -426.2,-817.8 -423.7,-820.3 -421.8,-822.2 -419.2,-824.8 -417.3,-826.5 -414.8,-828.7 -412.7,-830.5 -410.5,-832.5 -408.3,-834.3 -406.3,-835.8 -404,-837.7 -401.8,-839.7 -399.8,-841.5 -397.7,-843.3 -395.5,-844.8 -393,-846.7 -390.5,-848.5 -387.7,-850.7 -385.3,-852.3 -383,-854 -380.5,-855.7 -375.7,-858.8 -370.8,-862 -366.3,-864.7 -363.7,-866.3 -360.8,-867.8 -358.2,-869.7 -355.8,-871 -353.5,-872.5 -351.5,-873.5 -348.5,-875.2 -345.7,-876.7 -342.8,-878.3 -340.7,-879.5 -338.3,-880.7 -335.3,-882.2 -332.8,-883.5 -329.8,-885 -327.5,-886 -325.2,-887.2 -322.7,-888.3 -320.2,-889.5 -317.2,-890.7 -314.7,-891.8 -311.7,-893.2 -308.5,-894.5 -305.5,-895.7 -303,-896.7 -300.5,-897.7 -298,-898.5 -294.8,-899.7 -292.5,-900.7 -290,-901.7 -287.5,-902.5 -284.2,-903.5 -280.8,-904.7 -278.3,-905.7 -275.8,-906.7 -273.3,-907.5 -270.2,-908.5 -266.8,-909.5 -263.7,-910.5 -261,-911.2 -258.5,-911.8 -256,-912.5 -252.8,-913.3 -250.2,-914 -247.3,-914.7 -244.7,-915.2 -241.3,-915.8 -238,-916.5 -235.2,-917.2 -232.5,-917.7 -229.8,-918 -226.5,-918.7 -223.7,-919.2 -220.3,-919.8 -217.7,-920.2 -214.3,-920.7 -211.7,-921 -209,-921.3 -205.7,-921.8 -202.8,-922.2 -199.3,-922.7 -196.7,-923 -194,-923.3 -190.7,-923.8 -187.8,-924.2 -184.3,-924.5 -181.7,-924.5 -178.3,-924.8 -175.7,-925.2 -172.8,-925.5 -170,-925.5 -166.7,-925.8 -164,-926.2 -161.3,-926.5 -158.5,-926.7 -154.8,-927 -151.2,-927.3 -147.7,-927.5 -144.3,-927.8 -141.7,-928.2 -138.8,-928.5 -135.8,-928.8 -132.8,-929.2 -130.2,-929.5 -127.8,-929.5 -124.5,-929.8 -120.8,-930.2 -117,-930.5 -113.5,-930.8 -110.7,-931.2 -107.8,-931.5 -105.2,-931.7 -101.8,-932 -98.2,-932.3 -95.2,-932.5 -91.5,-932.8 -88.8,-933.2 -85.3,-933.5 -83.2,-933.5 -80.3,-933.7 -77,-934 -73.7,-934.3 -70.2,-934.5 -67.2,-934.7 -63.5,-935 -60.7,-935.3 -57.7,-935.5 -55,-935.7 -51.7,-936 -49.2,-936.3 -46.3,-936.5 -43.7,-936.5" style="stroke: rgb(239, 68, 68); stroke-width: 7;"></polyline><polyline vector-effect="non-scaling-stroke" fill="none" points="-40.2,-936.7 -36.8,-937 -34,-937.3 -30.7,-937.5 -27.2,-937.8 -23.7,-938.2 -21,-938.5 -18.3,-938.5 -14.8,-938.7 -11.8,-939 -9,-939.3 -6.5,-939.5 -3.3,-939.5 -0.2,-939.7 3.2,-940 5.8,-940.3 8.8,-940.5 12.2,-940.7 15.5,-941 18.7,-941.3 21.3,-941.5 24,-941.5 26.7,-941.5 30,-941.8 33.3,-942.2 35.8,-942.5 38.5,-942.5 41.2,-942.5 44.7,-942.5 47.3,-942.7 50.5,-942.8 53.5,-943.2 56,-943.3 58.7,-943.5 61.3,-943.5 64.7,-943.7 67.8,-943.8 71,-944.2 74.2,-944.3 77.3,-944.5 79.7,-944.5 82.2,-944.5 84.7,-944.7 87.3,-944.8 90.5,-945.2 93,-945.3 96.2,-945.5 98.5,-945.5 101.7,-945.5 104.7,-945.7 107,-945.8 109.8,-946.2 112.3,-946.3 115.3,-946.5 117,-946.5 119,-946.5 121,-946.5 123,-946.7 125.3,-946.8 127,-947 129.2,-947 131.2,-947.2 133.3,-947.3 134.8,-947.5 136.5,-947.5 138.7,-947.5 140.8,-947.5 142.7,-947.5 144,-947.7 145.7,-947.8 147.7,-948.2 149.7,-948.3 151.3,-948.5 152.7,-948.5 153.8,-948.5 155,-948.5 156,-948.5 157.3,-948.5 159.3,-948.5 160.8,-948.5 162.5,-948.7 163.5,-948.8 164.8,-949 166.2,-949 168.2,-949.2 169.8,-949.3 171.2,-949.5 171.8,-949.5 172.8,-949.5 173.8,-949.5 174.8,-949.5 175.8,-949.5 177.2,-949.5 178.7,-949.5 179.8,-949.5 181.3,-949.7 183,-949.8 184.8,-950 186.8,-950.2 188.5,-950.3 190,-950.5 190.5,-950.5 191.5,-950.7 192.7,-950.8 194,-951 195.8,-951.3 197.5,-951.7 199.7,-952.3 201.5,-953 203.8,-954.2 206.3,-956 208,-957.7 209.5,-959.3 210.2,-960.3 211.3,-962.2 212.2,-964.3 213,-966.3 213.5,-968.2 214,-969.3 214.5,-971.3 215,-972.7 215.3,-974 215.7,-975.2 215.8,-976.3 216.2,-977.3 216.3,-977.7 216.5,-978 216.5,-978.5 216.8,-979.5 217.2,-980.5 217.8,-982.2 218.5,-983.8 219.3,-985.8 220,-987.2 220.3,-988 220.7,-988.3 220.8,-988.7 221.7,-989.5 222.8,-990.7 224.2,-991.8 225.7,-993 227.7,-994.3 230,-995.7 231.7,-996.3 232.5,-996.5 233,-996.7 233.5,-996.8 234.2,-997 235,-997 236.5,-997.3 237.8,-997.7 239,-998 239.5,-998 240.2,-998 241,-998 242.5,-998.2 243.8,-998.5 245,-998.8 246.5,-999 248.7,-999.2 250.8,-999.5 252,-999.8 252.8,-1000 253.8,-1000 255.5,-1000.2 257,-1000.5 258.3,-1000.8 259.2,-1001 260.5,-1001.2 262,-1001.3 263.5,-1001.7 264.7,-1001.8 266.5,-1002.2 268.2,-1002.5 269.5,-1002.8 270.8,-1003.2 272.3,-1003.5 273.8,-1003.8 275.5,-1004.2 277,-1004.5 278.5,-1004.8 279.8,-1005.3 281.3,-1005.7 283.5,-1006.2 285,-1006.5 286.7,-1006.8 288.3,-1007.3 290,-1007.7 291.8,-1008.3 293.8,-1008.8 295.7,-1009.5 297.2,-1009.8 299,-1010.5 301,-1011 302.8,-1011.7 304.2,-1012 305.5,-1012.5 308,-1013.3 310,-1014 312.5,-1014.8 314.3,-1015.5 316.2,-1016.2 318.5,-1017 320.5,-1017.7 322.5,-1018.3 324.2,-1018.8 326.7,-1019.7 329.2,-1020.7 331,-1021.3 333,-1022 335,-1022.7 337,-1023.3 339.3,-1024 342,-1024.8 344.8,-1025.8 346.3,-1026.5 348.7,-1027.2 351.2,-1028 353.8,-1028.8 356.3,-1029.7 358.7,-1030.3 361.5,-1031.3 363.3,-1032 366.3,-1033 368.5,-1033.7 371.8,-1034.8 374,-1035.7 376.3,-1036.5 379.2,-1037.3 382.8,-1038.5 387.2,-1039.8 390,-1040.8 391.7,-1041.5 394.2,-1042.3 397.5,-1043.5 401.2,-1044.7 403.7,-1045.7 405.8,-1046.5 408.5,-1047.5 410.8,-1048.3 413.3,-1049 416.2,-1049.8 419.2,-1050.8 422.3,-1052.2 425.2,-1053.2 428,-1054.2 430.2,-1054.8 432.7,-1055.7 435.5,-1056.5 438.3,-1057.5 440.8,-1058.5 443.3,-1059.5 446,-1060.3 448,-1061 451,-1061.8 453.5,-1062.7 457,-1063.8 459.3,-1064.8 461.8,-1065.8 463.3,-1066.3 465.3,-1066.8 468.2,-1067.7 471.2,-1068.7 473.2,-1069.3 475,-1069.8 477.7,-1070.7 480.3,-1071.7 483,-1072.7 484.5,-1073.2 487.2,-1074 489,-1074.7 491,-1075.3 492.7,-1075.8 495,-1076.5 497.8,-1077.3 499.8,-1078 501.2,-1078.5 502.7,-1079 504.8,-1079.7 507,-1080.2 509,-1080.8 511,-1081.3 513,-1082 514.3,-1082.3 516,-1082.8 517.7,-1083.2 519.5,-1083.5 521.3,-1083.8 523,-1084.2 524.8,-1084.5 526.2,-1084.7 527.8,-1084.8 529.5,-1085 531,-1085 532.8,-1085 534.8,-1085 536.7,-1085 538.3,-1085 539.7,-1085 541.3,-1085 542.8,-1085 544.2,-1084.8 545.2,-1084.7 546.8,-1084.3 548.5,-1084 550.8,-1083.5 552.2,-1083 553.7,-1082.7 554.8,-1082.2 556.2,-1081.8 557.3,-1081.3 558.5,-1081 560,-1080.3 561.7,-1079.8 563.2,-1079.2 564.7,-1078.5 566,-1077.8 567.5,-1077.2 568.5,-1076.7 570.2,-1075.7 571.5,-1074.8 572.8,-1074.2 573.5,-1073.8 574.8,-1073 576.2,-1072 577.5,-1071 578.2,-1070.3 579.3,-1069.3 581,-1068 582.5,-1066.8 583.5,-1066 584.2,-1065.3 585,-1064.5 586.3,-1063.3 587.7,-1062.2 588.7,-1061.2 589.2,-1060.5 590.2,-1059.2 591.5,-1057.7 592.8,-1056.2 594,-1054.8 595,-1053.7 595.8,-1052.5 596.2,-1052 596.8,-1050.7 597.8,-1049.2 598.8,-1047.7 599.3,-1047 599.8,-1046 600.3,-1045 601.3,-1043.2 602.2,-1041.8 603,-1040 603.5,-1039 604.3,-1037.2 605,-1035.8 605.7,-1034.5 606,-1033.3 606.5,-1032 607,-1030.2 607.5,-1028.8 607.8,-1027.7 608.3,-1026.2 608.7,-1024.7 609,-1023 609.2,-1021.2 609.5,-1019.5 609.8,-1017.8 610,-1016.7 610,-1015.5 610,-1014.2 610.3,-1011.8 610.7,-1009.5 611,-1007.3 611,-1006.3 611,-1005.3 611.2,-1004 611.3,-1002.5 611.7,-999.7 611.8,-997.2 612,-995 612.2,-994.2 612.3,-993 612.5,-991.7 612.7,-988.8 612.8,-986.3 613,-984 613.2,-982.7 613.3,-981 613.5,-979 613.5,-977.5 613.7,-975 613.8,-972.8 614.2,-970.2 614.3,-967.8 614.7,-964.3 614.8,-961.2 615,-958.7 615.2,-957 615.3,-954.8 615.7,-952.5 615.8,-950.5 616,-948.8 616,-947.3 616,-945.5 616.3,-942.7 616.7,-940.3 617,-937.8 617,-936 617,-934 617.3,-931.3 617.7,-929.2 618,-927.2 618,-925.5 618,-923.2 618.3,-920 618.7,-917.7 619,-915.5 619,-913.8 619.2,-911 619.5,-908.7 619.8,-905.8 620,-904.2 620,-902.2 620.3,-899.7 620.7,-897.2 621,-894.7 621,-892.8 621,-890.8 621.3,-888.3 621.7,-885.8 622,-883.2 622,-881 622.3,-878.2 622.7,-875.8 623,-873.8 623,-872.5 623,-870.2 623.3,-866.8 623.7,-864 624,-862 624,-860.7 624,-858.8 624.3,-855.8 624.7,-853.2 625,-851 625,-849.7 625,-848 625.3,-845 625.7,-842 626,-839 626,-837.5 626,-835.5 626.3,-833 626.7,-830.3 627,-828 627,-826.2 627,-824.3 627,-822.7 627.3,-820.5 627.7,-818.2 628,-815.8 628,-814 628.2,-811.5 628.5,-809.5 628.8,-807.5 629,-806 629,-804.5 629,-802.8 629.2,-800.7 629.3,-798.5 629.7,-796.8 629.8,-796 630,-794.7 630,-793.3 630,-791.7 630,-790.3 630.2,-788.3 630.3,-786.8 630.5,-785.5 630.5,-784.5 630.5,-783.3 630.5,-782 630.5,-780.7 630.5,-779.3 630.5,-778.2 630.5,-777.3 630.3,-776 630.2,-774.5 630,-773 630,-772 630,-771.2 629.8,-770.5 629.5,-769.5 629.2,-768.5 628.8,-767.5 628.5,-766.5 628.2,-765.5 627.7,-764.2 627.3,-763.3 626.7,-762.2 626.3,-761.2 625.5,-759.7 624.8,-758.5 624.2,-757.5 623.5,-756.5 622.8,-755.7 622.2,-754.8 621.8,-754.5 621.5,-754 620.8,-753.3 620,-752.7 619.2,-752 618.2,-751.2 617.5,-750.3 616.7,-749.5 616.2,-749 615.5,-748.5 614.5,-747.8 613.5,-747.2 612.5,-746.7 611.5,-746 610.5,-745.5 609.5,-744.8 609,-744.5 608.2,-744 606.8,-743.2 605.3,-742.5 604.2,-741.8 603.5,-741.5 603,-741.2 601.5,-740.3 599.8,-739.7 598.2,-738.8 597.2,-738.3 596.3,-737.8 595,-737.2 593.5,-736.3 592,-735.3 590.5,-734.5 589.5,-734 588,-733.3 586.5,-732.3 585,-731.5 584,-730.8 582.7,-730.2 581.2,-729.3 579.2,-728.3 577.8,-727.5 576.7,-726.8 575.2,-726 573.8,-725.3 571.8,-724.2 570.2,-723.2 568.5,-722.3 567.5,-721.8 565.7,-720.8 563.8,-719.7 561.3,-718.3 560.2,-717.7 558.5,-716.8 556.8,-715.8 555,-714.8 553.3,-713.8 551.7,-713 550,-712.2 548.2,-711.3 546.5,-710.5 544.2,-709.2 542.2,-707.8 540.2,-706.5 538.7,-705.7 536.7,-704.5 534.5,-703.3 532.2,-702 530,-701 527.8,-700 525.8,-699 523.7,-697.8 521.5,-696.5 519.2,-695.2 516.8,-694 514.7,-692.8 512.7,-691.8 510.7,-690.5 508.3,-689.3 505.8,-687.8 503.2,-686.5 501,-685.2 498.7,-683.8 496,-682.3 493.7,-681 490.8,-679.5 488.5,-678.2 485.8,-676.8 483.8,-675.7 481.3,-674.3 479.2,-673 476.2,-671.3 474.2,-670.2 471.5,-668.8 468.8,-667.5 466.2,-666 463.2,-664.2 461.2,-663 458,-661.3 455.5,-660.2 452.8,-658.8 450.5,-657.7 447.5,-655.8 444.2,-653.7 441.7,-652 438.7,-650.3 436.2,-649.2 432.8,-647.3 430.8,-646.2 427.7,-644.3 424.7,-642.7 421.7,-641 419.3,-639.8 416.8,-638.5 413.2,-636.7 410.2,-635 407.2,-633.3 404.2,-631.7 401.2,-630 398.2,-628.3 395.2,-626.7 391.7,-624.5 388.2,-622.5 385.7,-620.8 382.7,-619.2 379.3,-617.5 376.2,-616 373.2,-614.3 370.2,-612.5 366.7,-610.3 363.2,-608.3 359.8,-606.5 357,-605 353.7,-603.2 350.8,-601.5 346.8,-599.3 343.7,-597.5 340.2,-595.5 337.2,-593.5 334.5,-592 331.2,-590.2 327.8,-588.3 324.2,-586.2 320.8,-584.3 317.7,-582.5 314.2,-580.5 311.2,-578.5 308.7,-576.8 305.5,-574.8 303,-573.2 299.2,-570.7 296.2,-568.7 292.3,-566.2 289,-564 285.7,-561.7 283.2,-560 280.8,-558.5 277.7,-556.3 274.5,-554 271.3,-551.7 269.2,-550 266.3,-547.8 263.3,-545.5 260.2,-543.2 257,-540.8 254.2,-538.7 251.5,-536.3 249.2,-534.3 246.2,-531.8 243.7,-529.8 240.3,-527 238.2,-525.2 235.3,-522.8 232.8,-521 229.7,-518.5 226.7,-516.2 224.5,-514.3 221.7,-512 219.2,-509.8 216.2,-507.5 213.8,-505.5 210.2,-502.5 206.3,-499 202.5,-495.8 199.5,-493.3 197.3,-491.5 194.5,-489 192.2,-487 189.2,-484.7 186.8,-482.7 184.2,-480.3 181.5,-477.8 179,-475.5 176.8,-473.5 174,-471 171,-468.5 167.5,-465.5 165.2,-463.5 162.7,-461.2 160.5,-459.2 157.3,-456.2 154.8,-454 152.2,-451.7 149.8,-449.8 146.7,-447 143.8,-444.3 141,-441.8 138.8,-440 136,-437.7 133.3,-435.3 130.3,-432.7 127.8,-430.5 125,-428.2 122.2,-425.8 119.3,-423.3 116.7,-420.8 114.2,-418.7 111.3,-416.3 108.7,-414 105.8,-411.5 103.3,-409.2 100,-406.3 97.3,-404 94.7,-401.7 92.2,-399.3 89,-396.5 85.5,-393.7 83,-391.3 80.3,-389 77.8,-386.7 75,-384.5 72.7,-382.3 70,-379.8 67.3,-377.3 64,-374.5 61.5,-372.2 58.5,-369.5 56.5,-367.7 53.5,-365.3 50.8,-363 47.7,-360.2 44.8,-357.7 42.3,-355.5 39.8,-353.3 37,-350.8 34.5,-348.7 32,-346.7 29.7,-344.7 26.7,-342 24.2,-339.7 21.2,-337 18.5,-334.7 15.7,-332.3 13.5,-330.3 10.8,-328 8.3,-325.8 6,-323.8 3.3,-321.5 0.8,-319.2 -2,-316.8 -4.3,-314.8 -7.3,-312.2 -9.3,-310.2 -11.8,-308 -14.2,-306 -17.3,-303.3 -19.2,-301.5 -21.7,-299.2 -24.2,-296.8 -26.7,-294.5 -29.2,-292.5 -31.7,-290.2 -35,-287.5 -38,-284.7 -41,-282.2 -43.2,-280.2 -45.7,-278 -47.8,-276.2 -51,-273.5" style="stroke: rgb(59, 130, 246); stroke-width: 7;"></polyline><polyline vector-effect="non-scaling-stroke" fill="none" points="-53.3,-271.5 -55.7,-269.3 -57.8,-267.3 -60.2,-265.2 -62.3,-263.3 -64.3,-261.5 -66.7,-259.3 -69.3,-257 -71.8,-254.8 -73.8,-253.3 -76,-251.3 -78.3,-249.3 -80.8,-247 -83.2,-245 -85.7,-242.8 -88.2,-240.8 -90,-239.2 -91.8,-237.5 -94,-235.5 -96.3,-233.5 -98.7,-231.3 -100.5,-229.7 -103,-227.7 -105,-226.2 -107.3,-224.2 -109.5,-222 -111.3,-220.2 -113.5,-218.2 -115.5,-216.3 -117.8,-214.3 -120,-212.5 -122.5,-210.5 -124.7,-208.7 -126.5,-207 -128.5,-205.2 -130.7,-203.2 -132.8,-201.2 -134.7,-199.7 -137,-197.7 -139.3,-195.8 -141.2,-194 -143.2,-192.3 -145.2,-190.5 -147.2,-188.8 -149.3,-187 -151.5,-185 -153.7,-183.2 -155.7,-181.3 -157.5,-180 -159.7,-178 -161.5,-176.3 -163,-174.8 -164.8,-173.3 -166.2,-172 -168.2,-170.2 -169.5,-169 -171.5,-167.3 -172.8,-166.2 -174.5,-164.7 -176.2,-163.3 -177.8,-162 -179.8,-160.3 -181.2,-159.2 -182.8,-157.7 -184.2,-156.5 -185.7,-155.2 -186.8,-154.2 -188,-153.2 -189,-152.3 -190.7,-151 -192,-149.8 -193.3,-148.7 -194,-148 -195,-147.2 -196.7,-145.7 -198.3,-144.2 -200,-142.7 -201,-141.8 -201.8,-141 -202.8,-140.2 -204.2,-138.8 -206,-137.3 -207.7,-135.7 -209.2,-134.3 -210.5,-133 -211.5,-132 -212.5,-131 -213.5,-130 -214.3,-129 -215.3,-127.8 -216.2,-126.8 -217,-126 -217.7,-125 -218.3,-124 -219,-123 -219.7,-122 -220.3,-121 -220.8,-120 -221.5,-119 -222,-118 -222.8,-116.7 -223.3,-115.2 -223.8,-113.7 -224.2,-112.5 -224.3,-112 -224.7,-110.8 -224.8,-109.5 -225,-108.2 -225,-107.5 -225,-107 -225.2,-105.5 -225.2,-102.7 -225.2,-99.8 -225,-98 -225,-97.5 -225,-96.8 -224.8,-96 -224.5,-94.2 -224.2,-92.5 -224,-91 -224,-90.5 -223.8,-89.5 -223.5,-87.7 -223.2,-85.7 -223,-84.2 -223,-83.5 -223,-83 -222.7,-81.2 -222.3,-79.3 -222,-77.3 -222,-76.5 -222,-75.3 -222,-73.8 -221.8,-72.5 -221.7,-70.8 -221.3,-68.8 -221.2,-66.7 -221,-65 -221,-64 -221,-62.8 -221,-61.5 -221,-60 -221,-58.2 -221,-56.5 -221,-54.7 -221,-53.2 -221,-51.7 -221,-50.7 -221.2,-48.8 -221.3,-46.8 -221.7,-44.5 -221.8,-43.2 -222,-42 -222.2,-40.2 -222.5,-38.5 -222.8,-37 -223.2,-35.7 -223.5,-34.2 -224,-31.8 -224.5,-30.2 -224.8,-28.7 -225.3,-27.3 -225.7,-26.2 -226.3,-24.3 -226.7,-23 -227.3,-21.3 -228,-19.8 -228.7,-18.5 -229.5,-16.5 -230.2,-14.8 -231,-13.2 -231.8,-11.7 -232.7,-10.2 -233.5,-8.7 -234.2,-7.5 -235,-6 -236,-4 -236.8,-2.5 -237.5,-1.5 -238.5,-0.2 -239.5,1.3 -240.8,3.3 -241.8,4.8 -243,6.3 -244,7.7 -245,8.8 -246,10 -247.3,11.5 -248.5,12.8 -249.7,14.2 -250.3,14.8 -251.8,16.2 -253.3,17.5 -255.2,19.3 -256.3,20.5 -257.5,21.8 -258.5,22.7 -259.8,23.8 -261.2,24.8 -262.5,26 -263.5,26.8 -265.2,28.2 -266.8,29.5 -268.3,30.8 -269.5,31.8 -270.8,32.8 -272.2,33.8 -273.7,34.8 -275,35.8 -276.5,37 -277.3,37.8 -278.5,39 -279.7,40.2 -281,41.5 -282,42.5 -283,43.5 -284.5,45.3 -285.8,47 -287,48.8 -287.5,49.7 -288.3,51.3 -289,52.7 -289.7,54 -290.2,55.5 -290.8,57 -291.3,58.5 -291.7,59.7 -292,61 -292.3,62.3 -292.7,63.8 -292.8,65.3 -293.2,67.7 -293.3,69.3 -293.7,70.8 -293.8,71.5 -294.2,73.2 -294.3,75 -294.5,76.8 -294.7,78.5 -295,80.5 -295.3,82.7 -295.5,83.8 -295.7,85.5 -296,87.3 -296.3,89.7 -296.5,91 -296.7,93.2 -297,95.3 -297.3,98 -297.5,99.5 -297.5,100.8 -297.8,102.7 -298.2,105 -298.5,107.3 -298.7,109.3 -298.8,111.3 -299,113.2 -299.3,115.2 -299.7,117.2 -300,119.8 -300.2,121.8 -300.5,124.2 -300.8,126.3 -301.2,129.5 -301.3,132 -301.5,134 -301.8,136 -302.2,138.5 -302.7,141.2 -303,144.2 -303.3,147.2 -303.7,150.2 -303.8,151.8 -304.2,154.2 -304.5,157 -304.8,160 -305.2,162.7 -305.5,165.2 -305.8,168.2 -306.2,171.3 -306.5,174.7 -306.8,177.3 -307,179 -307.3,181.5 -307.7,184.8 -308.2,188.3 -308.5,191.3 -308.8,194.2 -309.2,197 -309.5,199.8 -309.8,202.7 -310.2,205.7 -310.5,208.8 -310.8,212 -311.2,215 -311.5,217.8 -311.8,220.7 -312.3,224.8 -312.7,228.7 -313,231.8 -313.2,233.7 -313.5,236.8 -314,240.2 -314.5,244.7 -314.8,247.2 -315.2,250.5 -315.5,253.7 -315.8,257.7 -316.2,261 -316.5,264.2 -316.8,267.2 -317.3,271 -317.7,274.5 -318,277.7 -318.3,280.8 -318.7,284.2 -319.3,288.2 -319.7,291.8 -320,295.3 -320.2,298.2 -320.5,301.7 -321,305.3 -321.5,309.7 -321.8,313.2 -322.2,316.7 -322.3,319.5 -322.8,323.2 -323.2,326.8 -323.7,331 -324,334.7 -324.3,337.5 -324.7,341 -325,344.7 -325.5,349.2 -325.8,353.2 -326.2,356.8 -326.5,360.5 -326.8,364.2 -327.2,368 -327.3,371 -327.7,374.5 -328.2,378 -328.7,382.7 -329.2,386.8 -329.5,391.5 -329.8,395.2 -330.3,398.8 -330.7,402 -331.2,406 -331.5,410.5 -332,414.3 -332.5,418.8 -332.8,421.8 -333.2,425.5 -333.5,428.5 -334,432.7 -334.5,436.8 -334.8,441 -335.3,445 -335.7,449 -336.3,453 -336.7,457 -337,460.7 -337.3,464.3 -337.7,468 -338.3,472 -338.7,476.2 -339.2,480.3 -339.5,484.5 -339.8,488.5 -340.3,492.5 -340.7,496.5 -341.3,500.5 -341.7,504.3 -342,508.2 -342.3,512 -342.7,516 -343.3,520.2 -343.7,524.5 -344.3,528.8 -344.7,532.8 -345,536 -345.3,540.2 -345.7,544.5 -346.3,549.5 -346.7,553.7 -347,557 -347.3,561 -347.7,564.2 -348.3,569 -348.7,572.5 -349.3,576.7 -349.7,580 -350,584.3 -350.3,589.3 -350.7,593.5 -351.3,597.5 -351.7,601.2 -352.3,606.3 -352.7,611.5 -353.2,615.7 -353.5,619 -353.8,622.3 -354.3,627.3 -354.7,631.7 -355.3,636.7 -355.7,640 -356.3,644.2 -356.7,647.8 -357.3,652.8 -357.7,657 -358.3,662 -358.7,665.7 -359.2,670 -359.5,673.3 -360,678.3 -360.5,682.7 -360.8,687 -361.3,691.3 -361.7,695.8 -362.2,700.3 -362.5,703.7 -363,707.8 -363.5,712.2 -364,717.5 -364.5,722 -365,726.3 -365.5,730.8 -365.8,735.2 -366.2,739.3 -366.5,742.8 -367,747.3 -367.5,751.8 -368,757 -368.5,761.2 -369,765.3 -369.5,768.7 -369.8,773.2 -370.3,778.7 -370.7,783.3 -371.3,787.7 -371.7,791.2 -372.3,795.5 -372.7,799.7 -373.2,804 -373.5,809.2 -374,813.8 -374.5,818.3 -375,822 -375.5,826.5 -375.8,831 -376.3,837 -377,843.7 -377.7,849.3 -378.2,853.3 -378.5,856.8 -378.8,861.2 -379.3,866.7 -379.7,871.3 -380.3,876.7 -380.7,880.3 -381.3,885.3 -381.7,889.2 -382.2,894.3 -382.5,898.2 -383,902.2 -383.5,906.2 -383.8,910 -384.3,915 -384.8,920 -385.5,925.7 -385.8,930 -386.3,934 -386.7,937.2 -387.2,941.3 -387.5,944.8 -388,949.7 -388.5,953.8 -389,958.5 -389.3,962.5 -389.7,965.8 -390,969.5 -390.5,972.8 -391,977.2 -391.3,980.8 -391.7,984.2 -392,987.5 -392.3,990.3 -392.7,993.5 -393,996.7 -393.3,1000.2 -393.7,1003.3 -394,1006 -394.3,1008.3 -394.7,1011 -394.8,1013 -395.2,1015.7 -395.5,1018.2 -395.8,1020.8 -396.3,1023.2 -396.7,1025.2 -397.3,1027.7 -397.8,1029.3 -398.5,1031.5 -399.2,1033.5 -399.8,1035.5 -400.3,1037 -401,1038.5 -401.7,1040 -402.5,1041.3 -403.5,1043.2 -404.5,1044.8 -405.3,1046.7 -405.8,1047.5 -406.8,1049 -408,1050.5 -409,1051.8 -409.7,1052.8 -410.8,1054.2 -412,1055.7 -413,1056.8 -413.7,1057.7 -414.5,1058.5 -415.5,1059.7 -416.8,1061 -418.2,1062.3 -419.3,1063.3 -420,1064 -421,1064.8 -422.5,1066 -424.2,1067.3 -425.5,1068.5 -426.5,1069.5 -427.5,1070.5 -428.3,1071.3 -429.3,1072.2 -430.7,1073 -432.3,1074 -433.7,1074.8 -434.5,1075.5 -435.5,1076.2 -436.8,1077 -438.7,1078 -440.5,1078.8 -442,1079.5 -443.5,1080.2 -444.5,1080.7 -446.2,1081.3 -447.7,1081.8 -449.3,1082.5 -451,1083 -452.3,1083.5 -453.7,1083.8 -454.3,1084 -455.8,1084.3 -457.3,1084.7 -459,1085 -460.3,1085.2 -462.7,1085.5 -464.8,1085.8 -466.7,1086 -467.5,1086 -469,1086 -470.3,1086 -472.2,1086 -473.8,1086 -476,1086 -477.8,1086 -479.5,1086 -481.2,1086 -482.8,1086 -484.3,1085.8 -486.3,1085.5 -488.5,1085.2 -490.5,1085 -492,1084.8 -493.3,1084.7 -495.5,1084.3 -497.3,1084 -499,1083.7 -500.3,1083.2 -501.7,1082.8 -503.5,1082.2 -505.8,1081.5 -508.2,1080.8 -510.5,1080.2 -511.8,1079.7 -513.5,1079 -515.2,1078.3 -517,1077.7 -518.8,1076.8 -521,1076 -523.2,1075.2 -525.3,1074.3 -527,1073.5 -528.5,1072.7 -530.2,1071.7 -531.8,1070.7 -533.5,1069.7 -535.2,1068.7 -537,1067.7 -538.8,1066.5 -540.7,1065.3 -542.3,1064.2 -544.2,1063.2 -545.5,1062.3 -547.3,1060.8 -549,1059.5 -551,1058 -552.2,1057.2 -554,1055.7 -555.3,1054.5 -556.8,1053.2 -558,1052 -559.3,1050.7 -560.8,1049.2 -562.3,1047.8 -564,1046.2 -565.5,1044.7 -567.2,1042.7 -568.7,1041.2 -570.3,1039.3 -571.7,1038 -573.3,1036 -574.8,1034.2 -576.2,1032.3 -577.8,1030.2 -579.2,1028.3 -580.8,1026.2 -582.2,1024.3 -583.5,1022.7 -584.8,1021 -585.8,1019.5 -587,1017.5 -588.3,1015.3 -589.5,1013.7 -590.5,1012.3 -591.2,1011.2 -592,1009.5 -593.3,1007.2 -594.7,1004.7 -596.3,1001.8 -597.5,999.7 -598.7,997.7 -599.5,996 -600.3,994.3 -601.2,992.3 -602,990.3 -603,988 -604,986 -605,983.8 -606,981.7 -606.8,979.8 -607.5,977.8 -608.2,975.8 -609,973.3 -609.7,971.7 -610.3,969.7 -611,967.5 -612,964.3 -612.8,961.8 -613.5,959.3 -614.2,957.2 -614.8,955 -615.5,952.5 -616,950.7 -616.5,948 -617,946.3 -617.7,943.5 -618.3,940.7 -619,937.7 -619.5,935 -620,933 -620.3,930.7 -620.8,928.3 -621.2,926 -621.7,923.8 -622,921.2 -622.7,917.5 -623.2,914.2 -623.5,911.8 -623.8,909.5 -624.2,907 -624.5,904.2 -624.8,901.2 -625.2,898.2 -625.5,895.2 -625.5,893 -625.5,891 -625.8,888.2 -626.2,885.2 -626.5,881.7 -626.5,879.2 -626.5,876.7 -626.7,873.3 -626.8,870 -627.2,866.8 -627.3,864 -627.5,861 -627.5,858 -627.5,855 -627.5,851.8 -627.5,848.2 -627.5,845 -627.5,842 -627.5,839.3 -627.5,836.2 -627.5,832.8 -627.5,829.2 -627.5,825.8 -627.7,822.8 -627.8,819.7 -628,816.7 -628,812.7 -628,809 -628,805.2 -628,801.7 -628,798.5 -628,794.8 -628,791.7 -628,787.8 -628,784.8 -628.2,781.2 -628.3,778 -628.5,774.2 -628.5,770.3 -628.5,766.8 -628.5,763.3 -628.5,760.2 -628.5,756.3 -628.5,752.5 -628.5,749.2 -628.5,745.7 -628.5,742 -628.5,737.8 -628.7,734.3 -628.8,731 -629,727 -629,723.2 -629,719.3 -629,715.8 -628.7,711.7 -628.3,707.7 -628,703.8 -628,700.3 -628,696.7 -628,692.7 -628,688.3 -628,684.8 -627.8,681.5 -627.7,678.3 -627.3,674.2 -627.2,670.3 -627,665.8 -626.8,662.2 -626.7,659 -626.3,655 -626.2,651 -625.8,646.8 -625.5,643.2 -625.2,638.8 -624.8,634.5 -624.5,630.8 -624.2,627.2 -623.8,623 -623.7,619.5 -623.3,615.5 -623,611.7 -622.5,607.2 -622.3,605.3" style="stroke: rgb(251, 191, 36); stroke-width: 7;"></polyline></svg>