<svg xmlns="http://www.w3.org/2000/svg" xmlns:xlink="http://www.w3.org/1999/xlink" preserveAspectRatio="xMidYMid meet" height="100%" viewBox="-700 -1150 1400 2300">
    <polygon vector-effect="non-scaling-stroke" fill="none" style="stroke: #374151; stroke-width:6" points="  -625,600 -624,591 -623,582 -622,574 -622,564 -621,555 -620,547 -619,538 -618,529 -617,519 -616,510 -615,500 -614,491 -613,481 -613,472 -612,463 -611,454 -610,445 -609,436 -608,427 -607,418 -606,408 -605,399 -604,389 -603,380 -602,371 -601,361 -600,352 -599,342 -598,333 -597,323 -596,314 -595,304 -595,295 -594,286 -593,276 -592,266 -591,257 -590,247 -589,238 -588,228 -587,218 -586,208 -585,199 -584,189 -583,180 -582,170 -582,161 -581,151 -580,142 -579,132 -578,123 -577,113 -576,103 -575,94 -574,84 -573,75 -572,65 -572,55 -571,45 -570,35 -569,25 -568,16 -567,7 -566,-4 -565,-13 -564,-23 -564,-33 -563,-43 -562,-52 -561,-62 -560,-72 -559,-81 -559,-91 -558,-101 -557,-111 -556,-121 -555,-131 -554,-140 -553,-150 -553,-159 -552,-169 -551,-178 -550,-187 -549,-195 -549,-203 -548,-210 -548,-217 -547,-223 -547,-229 -546,-235 -546,-240 -545,-245 -545,-250 -545,-254 -544,-259 -544,-263 -544,-267 -543,-271 -543,-276 -543,-280 -542,-285 -542,-290 -541,-294 -541,-298 -540,-303 -538,-308 -537,-312 -535,-315 -532,-319 -529,-322 -526,-323 -523,-324 -519,-325 -516,-326 -512,-326 -508,-327 -505,-329 -501,-330 -499,-332 -497,-334 -495,-336 -493,-339 -491,-343 -490,-347 -490,-351 -490,-356 -490,-360 -491,-365 -492,-369 -493,-374 -494,-378 -496,-382 -497,-388 -498,-392 -500,-397 -501,-402 -502,-406 -503,-410 -505,-414 -506,-418 -507,-422 -508,-426 -509,-430 -510,-435 -511,-439 -512,-444 -513,-449 -514,-454 -515,-459 -516,-464 -516,-469 -517,-475 -517,-481 -518,-486 -518,-492 -519,-498 -519,-505 -519,-511 -519,-517 -519,-524 -519,-530 -519,-537 -518,-543 -518,-550 -518,-556 -517,-563 -517,-570 -516,-577 -516,-584 -515,-591 -515,-599 -514,-606 -513,-614 -512,-621 -512,-629 -511,-636 -509,-643 -508,-651 -506,-658 -505,-665 -503,-673 -501,-680 -499,-687 -497,-694 -494,-701 -492,-708 -489,-716 -486,-723 -483,-731 -479,-738 -476,-745 -472,-752 -468,-758 -464,-765 -460,-771 -456,-778 -452,-784 -447,-790 -442,-796 -437,-802 -432,-807 -427,-813 -422,-819 -416,-825 -410,-830 -404,-836 -398,-841 -392,-845 -386,-850 -380,-855 -374,-859 -367,-863 -360,-868 -353,-872 -346,-876 -339,-880 -332,-883 -324,-887 -317,-890 -309,-894 -301,-897 -293,-900 -285,-903 -277,-906 -270,-908 -261,-911 -253,-913 -246,-915 -237,-917 -229,-918 -220,-920 -212,-921 -204,-922 -195,-924 -187,-925 -178,-925 -169,-926 -161,-927 -152,-928 -144,-928 -135,-929 -127,-930 -118,-930 -109,-931 -101,-932 -92,-932 -84,-933 -75,-933 -66,-934 -58,-934 -49,-935 -41,-935   -41,-935 -32,-936 -23,-936 -14,-937 -5,-937 9,-938 18,-938 26,-939 35,-939 44,-940 53,-940 62,-941 71,-941 79,-941 87,-942 95,-942 102,-943 109,-943 116,-943 122,-943 128,-944 133,-944 138,-944 143,-944 148,-945 152,-945 157,-945 160,-945 166,-946 169,-946 174,-946 179,-947 185,-948 191,-950 195,-951 198,-953 203,-957 206,-960 209,-963 211,-968 214,-972 216,-975 218,-979 220,-982 223,-985 226,-989 229,-991 232,-993 236,-995 239,-997 243,-999 249,-1001 255,-1003 259,-1005 264,-1006 269,-1007 274,-1008 277,-1009 281,-1010 287,-1011 291,-1012 295,-1013 298,-1014 303,-1016 307,-1017 311,-1018 316,-1019 320,-1021 325,-1022 329,-1024 334,-1025 339,-1027 344,-1028 349,-1030 354,-1032 360,-1034 365,-1036 370,-1038 376,-1039 382,-1041 387,-1043 393,-1045 399,-1047 405,-1050 411,-1052 417,-1054 423,-1056 429,-1058 436,-1060 442,-1062 449,-1065 455,-1067 461,-1069 468,-1071 474,-1073 480,-1075 486,-1077 492,-1079 497,-1080 503,-1081 508,-1082 514,-1083 519,-1084 525,-1084 530,-1084 535,-1083 541,-1083 545,-1082 551,-1080 555,-1079 560,-1077 564,-1075 569,-1073 573,-1070 577,-1068 581,-1065 585,-1061 588,-1058 592,-1054 595,-1051 598,-1046 601,-1042 604,-1038 606,-1033 608,-1028 610,-1023 612,-1018 613,-1013 614,-1008 615,-1003 616,-997 616,-992 617,-987 617,-982 618,-976 618,-971 619,-965 619,-959 620,-953 620,-948 621,-942 621,-935 622,-929 622,-922 623,-916 623,-910 624,-904 624,-897 625,-891 626,-884 626,-878 627,-871 628,-865 628,-858 629,-851 629,-845 630,-838 631,-831 631,-825 632,-819 632,-814 632,-808 632,-802 632,-797 631,-792 630,-786 629,-782 628,-777 627,-772 625,-768 622,-763 620,-759 617,-755 615,-752 611,-748 608,-744 605,-741 601,-738 597,-735 593,-732 588,-729 584,-727 580,-724 576,-722 571,-720 566,-717 562,-715 557,-712 552,-710 547,-707 542,-705 537,-702 531,-699 526,-696 521,-693 515,-690 509,-687 504,-684 498,-681 492,-678 486,-675 480,-672 474,-669 468,-665 462,-662 456,-658 449,-655 442,-651 436,-647 429,-644 423,-640 416,-637 409,-633 403,-629 396,-625 389,-621 382,-617 375,-613 368,-609 361,-605 354,-601 347,-597 340,-593 333,-589 326,-585 319,-581 312,-577 304,-572 297,-567 290,-562 283,-557 276,-553 269,-548 262,-543 255,-538 248,-532 241,-527 235,-522 227,-516 221,-511 214,-505 207,-500 201,-494 194,-488 187,-482 180,-476 173,-470 165,-464 159,-458 151,-452 145,-446 138,-440 131,-434 124,-428 117,-422 110,-416 103,-410 95,-404 88,-398 81,-391 74,-385 67,-379 59,-373 52,-367 45,-360 38,-354 30,-348 23,-341 16,-335 9,-329 2,-323 -5,-317 -12,-311 -19,-305 -26,-299 -33,-293 -40,-286 -47,-280 -54,-274   -54,-274 -61,-268 -68,-262 -75,-255 -83,-249 -90,-243 -97,-237 -104,-231 -111,-225 -117,-219 -125,-213 -132,-206 -138,-200 -145,-195 -151,-190 -156,-185 -162,-180 -167,-176 -172,-171 -176,-167 -180,-164 -184,-160 -188,-157 -192,-154 -195,-151 -198,-148 -201,-145 -204,-142 -207,-139 -209,-136 -212,-131 -214,-128 -216,-124 -218,-119 -220,-116 -221,-112 -222,-109 -223,-105 -223,-101 -224,-97 -224,-91 -224,-87 -224,-83 -225,-79 -224,-75 -224,-71 -224,-66 -224,-62 -225,-58 -225,-51 -225,-47 -226,-42 -227,-38 -228,-34 -229,-29 -231,-25 -233,-21 -235,-15 -237,-11 -240,-7 -242,-3 -245,1 -247,5 -250,9 -253,12 -256,16 -259,20 -263,24 -266,27 -269,31 -272,35 -275,39 -278,42 -281,46 -283,50 -286,55 -288,59 -290,64 -292,69 -294,73 -296,78 -297,84 -299,89 -300,94 -301,100 -302,105 -303,111 -304,117 -305,123 -306,129 -307,134 -307,141 -308,147 -308,153 -309,160 -310,166 -310,173 -311,179 -311,186 -312,193 -312,200 -313,207 -313,214 -314,222 -314,230 -315,237 -315,244 -316,252 -316,259 -317,267 -317,275 -318,282 -319,290 -319,297 -320,305 -321,314 -321,322 -322,329 -323,337 -324,346 -324,354 -325,362 -326,370 -327,378 -327,386 -328,394 -329,403 -330,412 -330,420 -331,428 -332,437 -333,445 -334,454 -335,463 -335,472 -336,480 -337,489 -338,497 -339,505 -340,515 -340,523 -341,532 -342,540 -343,549 -344,558 -345,566 -346,575 -347,584 -348,593 -349,602 -350,611 -351,620 -351,629 -352,638 -353,647 -354,657 -355,666 -356,675 -357,684 -358,693 -359,702 -360,712 -361,721 -362,730 -363,739 -364,749 -365,757 -366,767 -367,776 -368,785 -369,795 -370,804 -370,813 -371,822 -372,832 -373,841 -374,851 -375,860 -376,869 -377,878 -378,887 -379,897 -380,906 -381,916 -382,925 -383,934 -384,943 -384,952 -385,959 -386,967 -387,974 -387,981 -388,987 -389,993 -389,999 -390,1004 -392,1010 -393,1015 -394,1019 -395,1024 -397,1028 -399,1032 -401,1037 -404,1041 -406,1045 -409,1048 -412,1052 -415,1056 -419,1059 -422,1062 -426,1065 -430,1068 -434,1070 -438,1072 -442,1075 -447,1076 -451,1078 -456,1080 -461,1081 -466,1082 -471,1083 -476,1083 -480,1083 -485,1083 -491,1083 -496,1082 -501,1082 -507,1080 -512,1079 -516,1078 -521,1076 -526,1074 -531,1072 -536,1069 -541,1067 -545,1064 -550,1061 -554,1058 -558,1055 -562,1051 -566,1047 -570,1043 -574,1039 -578,1035 -581,1030 -585,1026 -588,1021 -591,1017 -594,1011 -597,1006 -599,1001 -602,995 -604,990 -607,985 -609,979 -611,974 -613,968 -614,962 -616,956 -618,950 -619,944 -621,938 -622,932 -623,926 -624,920 -625,913 -626,907 -626,901 -627,895 -628,888 -628,881 -629,874 -629,868 -629,861 -630,854 -630,847 -630,840 -630,834 -631,828 -631,821 -631,814 -631,808 -631,801 -631,794 -631,787 -631,780 -631,773 -631,767 -632,760 -632,753 -632,746 -632,739 -631,732 -631,725 -631,718 -631,711 -631,704 -631,697 -631,690 -630,683 -630,676 -630,669 -629,662 -629,655 -629,647 -628,640 -628,633 -627,625 -627,618 -626,611 -626,604 -625,600  "></polygon>
    <polyline vector-effect="non-scaling-stroke" fill="none" style="stroke: #EF4444; stroke-width:4" points=" -625,600 -624,591 -623,582 -622,574 -622,564 -621,555 -620,547 -619,538 -618,529 -617,519 -616,510 -615,500 -614,491 -613,481 -613,472 -612,463 -611,454 -610,445 -609,436 -608,427 -607,418 -606,408 -605,399 -604,389 -603,380 -602,371 -601,361 -600,352 -599,342 -598,333 -597,323 -596,314 -595,304 -595,295 -594,286 -593,276 -592,266 -591,257 -590,247 -589,238 -588,228 -587,218 -586,208 -585,199 -584,189 -583,180 -582,170 -582,161 -581,151 -580,142 -579,132 -578,123 -577,113 -576,103 -575,94 -574,84 -573,75 -572,65 -572,55 -571,45 -570,35 -569,25 -568,16 -567,7 -566,-4 -565,-13 -564,-23 -564,-33 -563,-43 -562,-52 -561,-62 -560,-72 -559,-81 -559,-91 -558,-101 -557,-111 -556,-121 -555,-131 -554,-140 -553,-150 -553,-159 -552,-169 -551,-178 -550,-187 -549,-195 -549,-203 -548,-210 -548,-217 -547,-223 -547,-229 -546,-235 -546,-240 -545,-245 -545,-250 -545,-254 -544,-259 -544,-263 -544,-267 -543,-271 -543,-276 -543,-280 -542,-285 -542,-290 -541,-294 -541,-298 -540,-303 -538,-308 -537,-312 -535,-315 -532,-319 -529,-322 -526,-323 -523,-324 -519,-325 -516,-326 -512,-326 -508,-327 -505,-329 -501,-330 -499,-332 -497,-334 -495,-336 -493,-339 -491,-343 -490,-347 -490,-351 -490,-356 -490,-360 -491,-365 -492,-369 -493,-374 -494,-378 -496,-382 -497,-388 -498,-392 -500,-397 -501,-402 -502,-406 -503,-410 -505,-414 -506,-418 -507,-422 -508,-426 -509,-430 -510,-435 -511,-439 -512,-444 -513,-449 -514,-454 -515,-459 -516,-464 -516,-469 -517,-475 -517,-481 -518,-486 -518,-492 -519,-498 -519,-505 -519,-511 -519,-517 -519,-524 -519,-530 -519,-537 -518,-543 -518,-550 -518,-556 -517,-563 -517,-570 -516,-577 -516,-584 -515,-591 -515,-599 -514,-606 -513,-614 -512,-621 -512,-629 -511,-636 -509,-643 -508,-651 -506,-658 -505,-665 -503,-673 -501,-680 -499,-687 -497,-694 -494,-701 -492,-708 -489,-716 -486,-723 -483,-731 -479,-738 -476,-745 -472,-752 -468,-758 -464,-765 -460,-771 -456,-778 -452,-784 -447,-790 -442,-796 -437,-802 -432,-807 -427,-813 -422,-819 -416,-825 -410,-830 -404,-836 -398,-841 -392,-845 -386,-850 -380,-855 -374,-859 -367,-863 -360,-868 -353,-872 -346,-876 -339,-880 -332,-883 -324,-887 -317,-890 -309,-894 -301,-897 -293,-900 -285,-903 -277,-906 -270,-908 -261,-911 -253,-913 -246,-915 -237,-917 -229,-918 -220,-920 -212,-921 -204,-922 -195,-924 -187,-925 -178,-925 -169,-926 -161,-927 -152,-928 -144,-928 -135,-929 -127,-930 -118,-930 -109,-931 -101,-932 -92,-932 -84,-933 -75,-933 -66,-934 -58,-934 -49,-935 -41,-935 "></polyline>
    <polyline vector-effect="non-scaling-stroke" fill="none" style="stroke: #3B82F6; stroke-width:4" points=" -41,-935 -32,-936 -23,-936 -14,-937 -5,-937 9,-938 18,-938 26,-939 35,-939 44,-940 53,-940 62,-941 71,-941 79,-941 87,-942 95,-942 102,-943 109,-943 116,-943 122,-943 128,-944 133,-944 138,-944 143,-944 148,-945 152,-945 157,-945 160,-945 166,-946 169,-946 174,-946 179,-947 185,-948 191,-950 195,-951 198,-953 203,-957 206,-960 209,-963 211,-968 214,-972 216,-975 218,-979 220,-982 223,-985 226,-989 229,-991 232,-993 236,-995 239,-997 243,-999 249,-1001 255,-1003 259,-1005 264,-1006 269,-1007 274,-1008 277,-1009 281,-1010 287,-1011 291,-1012 295,-1013 298,-1014 303,-1016 307,-1017 311,-1018 316,-1019 320,-1021 325,-1022 329,-1024 334,-1025 339,-1027 344,-1028 349,-1030 354,-1032 360,-1034 365,-1036 370,-1038 376,-1039 382,-1041 387,-1043 393,-1045 399,-1047 405,-1050 411,-1052 417,-1054 423,-1056 429,-1058 436,-1060 442,-1062 449,-1065 455,-1067 461,-1069 468,-1071 474,-1073 480,-1075 486,-1077 492,-1079 497,-1080 503,-1081 508,-1082 514,-1083 519,-1084 525,-1084 530,-1084 535,-1083 541,-1083 545,-1082 551,-1080 555,-1079 560,-1077 564,-1075 569,-1073 573,-1070 577,-1068 581,-1065 585,-1061 588,-1058 592,-1054 595,-1051 598,-1046 601,-1042 604,-1038 606,-1033 608,-1028 610,-1023 612,-1018 613,-1013 614,-1008 615,-1003 616,-997 616,-992 617,-987 617,-982 618,-976 618,-971 619,-965 619,-959 620,-953 620,-948 621,-942 621,-935 622,-929 622,-922 623,-916 623,-910 624,-904 624,-897 625,-891 626,-884 626,-878 627,-871 628,-865 628,-858 629,-851 629,-845 630,-838 631,-831 631,-825 632,-819 632,-814 632,-808 632,-802 632,-797 631,-792 630,-786 629,-782 628,-777 627,-772 625,-768 622,-763 620,-759 617,-755 615,-752 611,-748 608,-744 605,-741 601,-738 597,-735 593,-732 588,-729 584,-727 580,-724 576,-722 571,-720 566,-717 562,-715 557,-712 552,-710 547,-707 542,-705 537,-702 531,-699 526,-696 521,-693 515,-690 509,-687 504,-684 498,-681 492,-678 486,-675 480,-672 474,-669 468,-665 462,-662 456,-658 449,-655 442,-651 436,-647 429,-644 423,-640 416,-637 409,-633 403,-629 396,-625 389,-621 382,-617 375,-613 368,-609 361,-605 354,-601 347,-597 340,-593 333,-589 326,-585 319,-581 312,-577 304,-572 297,-567 290,-562 283,-557 276,-553 269,-548 262,-543 255,-538 248,-532 241,-527 235,-522 227,-516 221,-511 214,-505 207,-500 201,-494 194,-488 187,-482 180,-476 173,-470 165,-464 159,-458 151,-452 145,-446 138,-440 131,-434 124,-428 117,-422 110,-416 103,-410 95,-404 88,-398 81,-391 74,-385 67,-379 59,-373 52,-367 45,-360 38,-354 30,-348 23,-341 16,-335 9,-329 2,-323 -5,-317 -12,-311 -19,-305 -26,-299 -33,-293 -40,-286 -47,-280 -54,-274 "></polyline>
    <polyline vector-effect="non-scaling-stroke" fill="none" style="stroke: #FBBF24; stroke-width:4" points=" -54,-274 -61,-268 -68,-262 -75,-255 -83,-249 -90,-243 -97,-237 -104,-231 -111,-225 -117,-219 -125,-213 -132,-206 -138,-200 -145,-195 -151,-190 -156,-185 -162,-180 -167,-176 -172,-171 -176,-167 -180,-164 -184,-160 -188,-157 -192,-154 -195,-151 -198,-148 -201,-145 -204,-142 -207,-139 -209,-136 -212,-131 -214,-128 -216,-124 -218,-119 -220,-116 -221,-112 -222,-109 -223,-105 -223,-101 -224,-97 -224,-91 -224,-87 -224,-83 -225,-79 -224,-75 -224,-71 -224,-66 -224,-62 -225,-58 -225,-51 -225,-47 -226,-42 -227,-38 -228,-34 -229,-29 -231,-25 -233,-21 -235,-15 -237,-11 -240,-7 -242,-3 -245,1 -247,5 -250,9 -253,12 -256,16 -259,20 -263,24 -266,27 -269,31 -272,35 -275,39 -278,42 -281,46 -283,50 -286,55 -288,59 -290,64 -292,69 -294,73 -296,78 -297,84 -299,89 -300,94 -301,100 -302,105 -303,111 -304,117 -305,123 -306,129 -307,134 -307,141 -308,147 -308,153 -309,160 -310,166 -310,173 -311,179 -311,186 -312,193 -312,200 -313,207 -313,214 -314,222 -314,230 -315,237 -315,244 -316,252 -316,259 -317,267 -317,275 -318,282 -319,290 -319,297 -320,305 -321,314 -321,322 -322,329 -323,337 -324,346 -324,354 -325,362 -326,370 -327,378 -327,386 -328,394 -329,403 -330,412 -330,420 -331,428 -332,437 -333,445 -334,454 -335,463 -335,472 -336,480 -337,489 -338,497 -339,505 -340,515 -340,523 -341,532 -342,540 -343,549 -344,558 -345,566 -346,575 -347,584 -348,593 -349,602 -350,611 -351,620 -351,629 -352,638 -353,647 -354,657 -355,666 -356,675 -357,684 -358,693 -359,702 -360,712 -361,721 -362,730 -363,739 -364,749 -365,757 -366,767 -367,776 -368,785 -369,795 -370,804 -370,813 -371,822 -372,832 -373,841 -374,851 -375,860 -376,869 -377,878 -378,887 -379,897 -380,906 -381,916 -382,925 -383,934 -384,943 -384,952 -385,959 -386,967 -387,974 -387,981 -388,987 -389,993 -389,999 -390,1004 -392,1010 -393,1015 -394,1019 -395,1024 -397,1028 -399,1032 -401,1037 -404,1041 -406,1045 -409,1048 -412,1052 -415,1056 -419,1059 -422,1062 -426,1065 -430,1068 -434,1070 -438,1072 -442,1075 -447,1076 -451,1078 -456,1080 -461,1081 -466,1082 -471,1083 -476,1083 -480,1083 -485,1083 -491,1083 -496,1082 -501,1082 -507,1080 -512,1079 -516,1078 -521,1076 -526,1074 -531,1072 -536,1069 -541,1067 -545,1064 -550,1061 -554,1058 -558,1055 -562,1051 -566,1047 -570,1043 -574,1039 -578,1035 -581,1030 -585,1026 -588,1021 -591,1017 -594,1011 -597,1006 -599,1001 -602,995 -604,990 -607,985 -609,979 -611,974 -613,968 -614,962 -616,956 -618,950 -619,944 -621,938 -622,932 -623,926 -624,920 -625,913 -626,907 -626,901 -627,895 -628,888 -628,881 -629,874 -629,868 -629,861 -630,854 -630,847 -630,840 -630,834 -631,828 -631,821 -631,814 -631,808 -631,801 -631,794 -631,787 -631,780 -631,773 -631,767 -632,760 -632,753 -632,746 -632,739 -631,732 -631,725 -631,718 -631,711 -631,704 -631,697 -631,690 -630,683 -630,676 -630,669 -629,662 -629,655 -629,647 -628,640 -628,633 -627,625 -627,618 -626,611 -626,604 -625,600 "></polyline>
</svg>