<svg xmlns="http://www.w3.org/2000/svg" xmlns:xlink="http://www.w3.org/1999/xlink" preserveAspectRatio="xMidYMid meet" height="100%" viewBox="-485 -429 1001 866"><polygon vector-effect="non-scaling-stroke" fill="none" points="-330.2,-95.8 -329.9,-96.6 -329.6,-97.1 -329,-98.5 -328.5,-99.9 -328,-101.1 -327.6,-102.1 -327.2,-103.2 -326.8,-104.2 -326.4,-105.2 -326,-106.2 -325.6,-107.2 -325.1,-108.5 -324.7,-109.6 -324.4,-110.4 -324.1,-111.2 -323.7,-112.2 -323.3,-113.2 -322.9,-114.2 -322.5,-115.2 -322,-116.5 -321.6,-117.6 -321.3,-118.4 -321,-119.2 -320.6,-120.2 -320,-121.7 -319.4,-123.3 -318.8,-124.9 -318.2,-126.5 -317.6,-128.1 -317.3,-128.9 -316.9,-129.8 -316.4,-131 -315.9,-132.2 -315.4,-133.3 -314.9,-134.6 -314.4,-136 -314,-137.2 -313.6,-138.4 -313.1,-139.7 -312.6,-141.1 -312.1,-142.2 -311.7,-143.3 -311.1,-144.6 -310.6,-146 -310.1,-147.1 -309.6,-148.6 -309,-149.9 -308.6,-151.1 -308.1,-152.3 -307.7,-153.5 -307.3,-154.4 -306.9,-155.6 -306.3,-157.1 -305.9,-158.3 -305.3,-159.8 -304.8,-161.3 -304.3,-162.6 -304,-163.6 -303.4,-164.9 -302.9,-166.3 -302.3,-167.7 -301.6,-169.4 -300.9,-171 -300.5,-172.3 -300,-173.5 -299.4,-175 -299,-176.2 -298.4,-177.7 -297.8,-179.3 -297.2,-180.9 -296.7,-182.2 -296.2,-183.5 -295.6,-185 -295,-186.4 -294.4,-187.9 -293.9,-189.3 -293.2,-191 -292.6,-192.5 -292,-194.1 -291.5,-195.3 -290.9,-196.7 -290.3,-198.2 -289.8,-199.8 -289.2,-201.4 -288.6,-203 -288.1,-204.5 -287.5,-206 -286.9,-207.4 -286.3,-208.8 -285.6,-210.6 -284.9,-212.3 -284.3,-213.9 -283.8,-215.2 -283.1,-217 -282.5,-218.5 -281.9,-220 -281.2,-221.8 -280.5,-223.6 -279.9,-225.2 -279.3,-226.8 -278.6,-228.4 -278,-230 -277.3,-231.7 -276.7,-233.3 -276.1,-234.8 -275.5,-236.5 -275.1,-237.6 -274.4,-239.4 -273.8,-240.9 -273.2,-242.4 -272.5,-244.2 -271.7,-246 -271.1,-247.6 -270.4,-249.3 -269.7,-251.3 -269.1,-252.8 -268.5,-254.4 -267.9,-256 -267.3,-257.6 -266.7,-258.9 -266.1,-260.4 -265.4,-262.2 -264.8,-263.5 -264.1,-265.3 -263.4,-267.2 -262.7,-268.9 -262,-270.8 -261.3,-272.7 -260.7,-274 -260,-275.8 -259.3,-277.7 -258.6,-279.4 -258,-281 -257.3,-283 -256.7,-284.5 -256.1,-286.2 -255.4,-288.1 -254.6,-290 -253.9,-291.9 -253.2,-293.8 -252.5,-295.4 -251.9,-297 -251.3,-298.7 -250.6,-300.3 -249.9,-302.1 -249.2,-304 -248.5,-305.7 -247.9,-307.4 -247.3,-309 -246.6,-310.6 -245.8,-312.6 -245.2,-314.3 -244.4,-316.2 -243.6,-318.2 -242.9,-320.3 -242.3,-321.9 -241.5,-323.8 -240.9,-325.5 -240.3,-327.1 -239.6,-328.7 -239,-330.4 -238.4,-331.9 -237.6,-333.6 -236.9,-335.6 -236.3,-337.3 -235.7,-338.9 -235.1,-340.5 -234.7,-341.9 -234.1,-343.4 -233.4,-345.2 -232.7,-347 -232.1,-348.7 -231.2,-350.9 -230.6,-352.5 -230.1,-353.8 -229.6,-355.1 -228.9,-356.9 -228.4,-358.2 -227.9,-359.5 -227.2,-361.3 -226.5,-363.1 -226,-364.4 -225.5,-365.8 -224.8,-367.5 -224.3,-368.7 -223.6,-370.6 -222.9,-372.4 -222.3,-374.1 -221.8,-375.5 -221.3,-377.1 -220.9,-378 -220.3,-379.4 -219.7,-380.8 -219.1,-382.2 -218.6,-383.3 -218,-384.6 -217.6,-385.7 -217.1,-386.7 -216.5,-387.9 -215.9,-389.1 -215.3,-390.3 -214.8,-391.2 -214.2,-392.3 -213.7,-393.2 -213.2,-394.1 -212.8,-394.8 -212,-395.9 -211.4,-396.8 -210.8,-397.7 -210.1,-398.6 -209.4,-399.4 -208.9,-399.9 -208.2,-400.5 -207.5,-401.2 -206.8,-401.8 -206.1,-402.5 -205.5,-403.1 -204.7,-403.7 -203.9,-404.2 -203.1,-404.7 -202.3,-405.2 -201.3,-405.7 -200.3,-406.3 -199.3,-406.8 -198.3,-407.4 -197.3,-407.9 -196.5,-408.4 -196,-408.6 -195.2,-408.9 -194.4,-409.2 -193.6,-409.5 -192.8,-409.7 -191.6,-410.1 -190.7,-410.4 -189.8,-410.6 -188.8,-410.8 -187.7,-411 -186.9,-411 -186,-411 -185,-411 -184,-411.1 -183,-411.2 -182,-411.3 -181,-411.4 -179.8,-411.5 -178.6,-411.5 -177.4,-411.5 -176.2,-411.5 -175.1,-411.4 -174.3,-411.3 -173.6,-411.2 -173,-411.1 -172.2,-410.9 -171.4,-410.7 -170.6,-410.5 -169.5,-410.2 -168.3,-409.8 -167.1,-409.4 -165.9,-409.1 -164.7,-408.7 -163.8,-408.4 -162.8,-408 -162.1,-407.7 -161.4,-407.3 -160.7,-407 -159.7,-406.4 -158.9,-406 -157.9,-405.4 -156.9,-404.9 -156,-404.3 -155.4,-403.9 -154.8,-403.4 -154.3,-403 -153.7,-402.4 -152.9,-401.7 -152.2,-401 -151.4,-400.3 -150.6,-399.5 -149.8,-398.7 -149.2,-398 -148.4,-397.2 -147.4,-396 -146.6,-394.9 -145.7,-393.5 -144.7,-392.1 -143.9,-390.8 -143.2,-389.5 -142.5,-388.2 -142.1,-387.3 -141.6,-386 -141.1,-384.7 -140.9,-383.8 -140.5,-382.6 -140.1,-381.4 -139.9,-380.6 -139.7,-379.8 -139.5,-379 -139.5,-378.4 -139.5,-377.5 -139.4,-376.5 -139.3,-375.5 -139.2,-374.3 -139.1,-373.1 -139,-371.9 -139,-370.7 -139.1,-369.5 -139.2,-368.3 -139.3,-367.1 -139.4,-366.1 -139.5,-365.1 -139.5,-364 -139.5,-363.1 -139.6,-362.3 -139.7,-361.6 -139.9,-360.5 -140.1,-359.5 -140.4,-358.5 -140.6,-357.5 -140.9,-356.2 -141.2,-355.4 -141.6,-354.1 -141.9,-352.8 -142.3,-351.5 -142.6,-350.5 -142.8,-349.5 -143.1,-348.8 -143.5,-347.8 -143.8,-346.8 -144.2,-345.8 -144.6,-344.8 -145,-343.8 -145.4,-342.8 -145.9,-341.8 -146.3,-340.7 -146.9,-339.4 -147.4,-338 -147.9,-336.9 -148.3,-335.8 -148.9,-334.5 -149.3,-333.4 -149.7,-332.6 -150.1,-331.6 -150.5,-330.6 -151.1,-329.3 -151.7,-328 -152.4,-326.4 -153,-325 -153.7,-323.5 -154,-322.6 -154.6,-321.3 -155,-320.3 -155.6,-319 -156.1,-317.8 -157,-315.9 -157.6,-314.4 -158.3,-312.9 -158.8,-311.7 -159.6,-310 -160.1,-308.7 -160.7,-307.4 -161.2,-306.1 -161.9,-304.5 -162.4,-303.1 -162.9,-302 -163.3,-300.9 -163.9,-299.4 -164.3,-298.2 -164.7,-297.3 -165,-296.4 -165.5,-295.1 -165.9,-294.2 -166.4,-292.9 -166.9,-291.6 -167.4,-290.3 -168,-288.8 -168.5,-287.3 -169,-286.2 -169.5,-284.8 -170.1,-283.3 -170.4,-282.4 -170.9,-281.3 -171.4,-279.8 -171.9,-278.6 -172.4,-277.2 -173,-275.7 -173.4,-274.4 -174,-273 -174.5,-271.6 -175.1,-270.2 -175.6,-268.8 -176.3,-267.1 -176.7,-265.9 -177.2,-264.6 -177.6,-263.4 -178.1,-261.9 -178.5,-260.7 -179,-259.2 -179.5,-257.7 -180,-256.1 -180.5,-254.9 -181,-253.3 -181.5,-252 -182,-250.4 -182.5,-249.1 -182.9,-247.8 -183.3,-246.6 -183.7,-245.3 -184.1,-243.9 -184.5,-242.5 -184.9,-241 -185.3,-239.8 -185.7,-238.3 -186,-237.3 -186.4,-235.9 -187,-233.9 -187.5,-231.9 -188,-230.2 -188.6,-228.2 -189,-226.6 -189.4,-225.2 -189.8,-223.8 -190.1,-222.4 -190.5,-220.9 -190.9,-219.3 -191.1,-218.2 -191.4,-216.6 -191.8,-214.9 -192,-213.6 -192.2,-212.3 -192.5,-210.5 -192.7,-209 -192.9,-207.7 -193.1,-206.4 -193.4,-204.6 -193.6,-203.2 -193.8,-201.8 -193.9,-200.2 -194.1,-198.5 -194.2,-197.4 -194.3,-196.4 -194.5,-194.9 -194.7,-193.5 -194.8,-192 -194.9,-190.3 -195,-188.4 -195,-187 -195,-185.6 -195,-184.4 -195.1,-182.8 -195.2,-181.4 -195.3,-180 -195.4,-178.4 -195.5,-176.8 -195.4,-175 -195.3,-173.2 -195.2,-171.5 -195.1,-170.1 -195,-168.5 -195,-167.5 -195,-166.4 -195,-165.2 -195,-163.8 -195,-162.3 -195,-161 -195,-159.4 -195,-157.9 -195,-156.6 -195,-155.2 -195,-153.7 -195,-152.6 -195,-151.2 -195,-149.5 -195,-148.2 -195,-146.8 -195,-145.1 -195,-143.8 -195,-142.4 -195,-140.9 -195,-139.5 -195,-138.4 -195,-136.9 -195,-135.5 -195,-134.2 -195,-132.6 -195,-130.9 -195,-129.5 -195,-128.3 -195.1,-126.8 -195.2,-125.6 -195.3,-124.5 -195.4,-123.5 -195.6,-122.3 -195.8,-121.3 -196.1,-120.1 -196.5,-118.8 -196.9,-117.5 -197.4,-116.3 -197.8,-115.2 -198.3,-114.2 -198.7,-113.2 -199.2,-112.2 -199.7,-111.1 -200.3,-110 -200.8,-109.1 -201.5,-108 -202.2,-106.9 -202.8,-106.1 -203.6,-105 -204.3,-103.9 -204.9,-103.2 -205.5,-102.5 -206.1,-101.8 -206.5,-101.4 -207.3,-100.6 -208.1,-99.8 -208.9,-99 -209.8,-98.1 -210.7,-97.3 -211.3,-96.9 -211.9,-96.4 -212.8,-95.8 -213.6,-95.2 -214.4,-94.6 -215.2,-94 -216,-93.4 -216.8,-92.7 -217.6,-92.2 -218.4,-91.6 -219.4,-91 -220.4,-90.4 -221.3,-90 -222.2,-89.5 -223.1,-89.1 -223.8,-88.7 -224.8,-88.3 -225.8,-87.8 -226.8,-87.4 -228,-86.8 -229.5,-86.2 -230.7,-85.6 -231.7,-85.2 -232.7,-84.7 -233.8,-84.3 -234.6,-83.9 -235.4,-83.6 -236.5,-83.1 -237.6,-82.7 -238.8,-82.2 -240.2,-81.7 -241.6,-81.1 -242.7,-80.7 -244.2,-80.1 -245.3,-79.7 -246.2,-79.3 -247.4,-78.9 -248.6,-78.4 -249.4,-78.1 -250.7,-77.5 -252.1,-77 -253.2,-76.5 -254.3,-76.1 -255.4,-75.6 -256.6,-75.2 -258,-74.6 -259.4,-74.1 -260.8,-73.5 -262.2,-73 -263,-72.6 -263.5,-72.4 -264.6,-71.9 -266,-71.4 -267.4,-70.8 -268.8,-70.3 -270.2,-69.7 -271,-69.4 -271.9,-69 -273,-68.6 -274.1,-68.2 -275.4,-67.7 -276.7,-67.2 -277.7,-66.8 -278.8,-66.4 -280.1,-65.8 -281.2,-65.4 -282.5,-64.8 -283.7,-64.3 -284.5,-63.8 -285.3,-63.4 -286.1,-62.9 -286.9,-62.5 -288,-61.8 -289.2,-61.2 -290.2,-60.6 -291.5,-59.9 -292.7,-59.1 -294,-58.1 -295.3,-57 -296.7,-55.9 -297.7,-54.9 -298.9,-53.6 -299.8,-52.6 -300.6,-51.6 -301.4,-50.4 -302.3,-48.9 -302.9,-47.9 -303.3,-47 -303.7,-46.1 -304.1,-45.1 -304.4,-44.4 -304.6,-43.6 -305,-42.3 -305.4,-40.9 -305.6,-39.8 -305.8,-38.3 -306,-36.7 -306,-35.5 -306,-34.3 -306,-33 -305.9,-31.6 -305.8,-30.3 -305.7,-29.1 -305.5,-27.7 -305.2,-26.4 -305,-25.6 -304.6,-24.3 -304.1,-22.8 -303.7,-21.6 -302.9,-19.7 -302,-17.9 -301.3,-16.6 -300.7,-15.5 -299.9,-14.2 -299.5,-13.7 -299.2,-13.1 -298.5,-12.1 -297.6,-11 -296.9,-10.1 -296.2,-9.2 -295.1,-8 -293.8,-6.8 -292.6,-5.8 -291.3,-4.8 -290,-3.8 -288.7,-2.9 -287.7,-2.4 -286.7,-1.8 -285.5,-1.2 -284.4,-0.5 -283.1,0 -282,0.4 -280.9,0.7 -280,1 -279,1.2 -278,1.4 -276.9,1.6 -275.8,1.8 -274.5,1.9 -273.1,2 -272.1,2 -271.1,2 -269.4,1.9 -267.9,1.8 -266.4,1.7 -265,1.6 -263.2,1.4 -262.1,1.3 -260.9,1.1 -259.4,0.8 -257.9,0.5 -256.9,0.3 -255.6,-0.1 -254.4,-0.4 -253.6,-0.6 -252.8,-0.8 -251.7,-1.2 -250.9,-1.4 -250.1,-1.6 -249,-2 -247.7,-2.5 -246.7,-2.8 -245.7,-3.2 -244.7,-3.6 -243.7,-3.9 -242.6,-4.3 -241.5,-4.7 -240.4,-5.1 -239,-5.6 -237.7,-6.1 -236.7,-6.5 -235.6,-6.9 -234.2,-7.4 -232.9,-7.9 -231.8,-8.4 -230.7,-8.8 -229.3,-9.4 -228.2,-9.8 -227.3,-10.1 -225.8,-10.6 -224.3,-11.1 -223.2,-11.5 -221.7,-12 -220.2,-12.6 -219.3,-12.9 -218.1,-13.4 -216.8,-13.8 -215.3,-14.4 -213.8,-14.9 -212.2,-15.5 -210.6,-16 -209,-16.6 -207.7,-17 -206.4,-17.5 -204.8,-18 -203.5,-18.5 -201.9,-19 -200.4,-19.6 -198.8,-20.1 -197.6,-20.6 -196,-21.1 -194.8,-21.6 -193.4,-22 -192.1,-22.5 -190.3,-23 -188.8,-23.5 -186.7,-24.2 -185,-24.8 -183.2,-25.3 -181.9,-25.8 -180.1,-26.4 -178.6,-26.8 -177,-27.3 -175,-27.9 -172.9,-28.5 -171.4,-28.9 -169.6,-29.5 -167.9,-30 -166.6,-30.5 -164.9,-31 -163.1,-31.6 -161.4,-32 -159.7,-32.5 -157.6,-33 -155.9,-33.5 -153.8,-34 -152.1,-34.4 -149.9,-34.9 -148.1,-35.3 -146.3,-35.7 -144.4,-36.1 -142.5,-36.6 -140.6,-37 -138.7,-37.5 -136.6,-37.9 -134.6,-38.3 -132.6,-38.7 -130.7,-39 -128.4,-39.3 -126.2,-39.7 -124.2,-40 -121.7,-40.3 -119.5,-40.6 -117.7,-40.9 -115.8,-41.1 -113.8,-41.3 -112,-41.4 -110,-41.6 -107.7,-41.7 -105.4,-41.8 -102.9,-42 -100.6,-42.2 -98.2,-42.3 -96.1,-42.4 -94,-42.5 -92.1,-42.5 -90.1,-42.5 -88,-42.5 -85.9,-42.5 -84,-42.5 -81.6,-42.4 -79.1,-42.2 -77,-42 -74.3,-41.8 -71.5,-41.6 -69.2,-41.3 -67,-41.1 -64.4,-40.9 -62.1,-40.7 -59.9,-40.4 -57.4,-40.2 -55.1,-40 -52.9,-39.6 -50.4,-39.2 -47.9,-38.9 -46,-38.6 -43.6,-38.2 -41.5,-38 -39.7,-37.6 -37.5,-37.2 -34.9,-36.7 -32.6,-36.3 -30.3,-35.9 -27.6,-35.5 -25.3,-35.1 -23.1,-34.7 -20.9,-34.3 -18.3,-33.7 -16.1,-33.3 -13.9,-32.8 -11.4,-32.4 -9.2,-32 -7,-31.6 -5.1,-31.2 -2.5,-30.7 -0.5,-30.3 2.1,-29.7 4.3,-29.3 6.9,-28.7 9.1,-28.3 11.3,-27.8 13.6,-27.4 15.9,-26.9 17.7,-26.6 19.8,-26.2 22.3,-25.7 24.5,-25.3 26.6,-24.9 29.1,-24.5 31.7,-24.1 33.9,-23.8 36,-23.5 38.2,-23.3 40.7,-23 42.8,-22.7 45.2,-22.5 47.4,-22.3 49.6,-22.1 51.8,-21.9 54.3,-21.8 56.5,-21.7 58.9,-21.6 61.6,-21.5 63.9,-21.5 66.2,-21.6 68.5,-21.8 70.9,-22 73.3,-22.2 75.4,-22.4 77.4,-22.7 79.5,-22.9 82.1,-23.2 84.4,-23.6 86.8,-24 89.1,-24.4 91.4,-24.8 93.3,-25.3 95.3,-25.7 97.7,-26.3 99.9,-26.8 102.1,-27.4 104.4,-28 106.8,-28.8 109,-29.5 111,-30.2 113.4,-31 115.6,-31.8 117.8,-32.6 119.9,-33.5 122.2,-34.4 124.3,-35.4 126.3,-36.4 128.3,-37.3 130.4,-38.2 132.5,-39.2 134.5,-40.1 136.5,-41 138.5,-42 140.4,-43 142.3,-44.1 144.3,-45.3 146.3,-46.5 148.3,-47.7 150.6,-49.1 152.7,-50.3 154.4,-51.3 156.4,-52.5 158.6,-53.9 160.4,-55 162.3,-56.3 164.3,-57.5 166.1,-58.7 167.9,-59.9 169.7,-61.2 171.6,-62.4 173.7,-63.8 175.7,-65.1 177.7,-66.4 179.6,-67.6 181.6,-68.9 183.5,-70.2 185.5,-71.5 187.3,-72.7 189.2,-73.9 191,-75.1 192.9,-76.3 194.7,-77.4 196.5,-78.4 198.8,-79.6 201.1,-80.7 203.4,-81.9 205.5,-83 207.6,-84.1 209.3,-85.1 211.1,-86.1 212.9,-87 214.7,-87.9 217,-88.9 219.3,-89.9 221.6,-90.9 223.9,-91.9 226.2,-92.9 228.2,-93.7 230.3,-94.5 232.2,-95.2 234.3,-95.8 236.6,-96.5 238.5,-97.2 240.6,-97.8 242.7,-98.4 244.9,-99 246.9,-99.5 249.3,-100 251.8,-100.6 254.2,-101.1 256,-101.6 258,-102 260.2,-102.4 261.9,-102.7 263.9,-103 266.2,-103.2 268.7,-103.5 270.7,-103.7 272.9,-103.8 275,-103.9 277.4,-104.2 279.4,-104.4 281.5,-104.6 283.4,-104.8 285.6,-105 287.5,-105 289.7,-105 291.7,-105 294.2,-105 296.4,-105 298.7,-105 300.7,-105 302.9,-105 304.7,-104.9 306.6,-104.8 308.5,-104.7 310.6,-104.6 312.8,-104.5 315,-104.5 317.2,-104.5 319.4,-104.5 321.4,-104.5 323.5,-104.4 325.7,-104.3 327.9,-104.2 329.8,-104.1 332.2,-104 334.4,-103.9 336.6,-103.8 338.4,-103.7 340.6,-103.6 342.3,-103.5 344.2,-103.4 346.1,-103.3 348.4,-103.2 350.5,-103.1 352.9,-103 355.1,-103 357,-102.9 359.2,-102.7 361.4,-102.5 363.5,-102.3 365.3,-102.1 367.7,-102 369.8,-102 371.7,-102 373.4,-102 375.6,-101.9 377.5,-101.8 379.3,-101.6 381.4,-101.4 383.7,-101.2 385.8,-101.1 387.7,-101 389.8,-100.9 391.8,-100.8 393.9,-100.7 395.7,-100.6 397.8,-100.4 399.5,-100.3 401.3,-100.1 403.1,-99.9 405,-99.6 407,-99.3 409,-99 410.8,-98.8 412.4,-98.5 414.4,-98.2 416,-98 417.9,-97.6 419.7,-97.2 421.3,-96.8 422.9,-96.4 424.5,-95.9 426,-95.5 427.9,-94.9 429.8,-94.3 431.3,-93.8 432.9,-93.2 434.7,-92.6 436.1,-92.1 437.8,-91.5 439.4,-90.9 441.1,-90.3 442.5,-89.6 443.8,-89 445.1,-88.4 446.7,-87.6 448.2,-86.8 449.8,-86 451.6,-85 453.1,-84.2 454.4,-83.5 455.8,-82.7 457,-82 458,-81.4 459.6,-80.3 461.1,-79.2 462.3,-78.3 463.4,-77.4 465.1,-76 466.2,-75 467.3,-74 468.4,-73 469.8,-71.7 470.6,-70.9 471.4,-70.1 472.5,-69 473.6,-67.9 474.4,-67 475.5,-65.8 476.7,-64.3 477.8,-62.9 479,-61.4 480.1,-60 480.9,-58.8 481.7,-57.7 482.4,-56.5 483.2,-55.1 484.1,-53.6 485.1,-52 485.9,-50.6 486.7,-49.3 487.4,-48 488.1,-46.7 488.7,-45.6 489.5,-43.9 490.2,-42.4 490.9,-40.9 491.6,-39.3 492.3,-37.7 492.8,-36.6 493.4,-35 493.9,-33.4 494.4,-32 494.8,-30.5 495.4,-28.7 495.8,-27.3 496.3,-25.9 496.7,-24.4 497.2,-22.9 497.6,-21.1 498,-19.4 498.3,-17.9 498.6,-16.5 498.8,-14.9 499,-13.3 499.2,-11.7 499.4,-10.1 499.6,-8.5 499.8,-6.9 499.9,-5.7 500,-4.2 500,-2.6 500,-0.6 500,1.2 500,3 500,4.7 500,6.2 499.9,7.6 499.8,9 499.6,10.6 499.4,12.3 499.2,14.2 499,16.1 498.8,17.9 498.7,19.3 498.4,20.9 498.1,22.3 497.8,23.9 497.4,25.6 496.9,27.2 496.5,28.7 496,30.4 495.5,31.9 495,33.4 494.6,34.9 494.1,36.2 493.6,37.6 493,39 492.3,40.6 491.5,42.6 490.8,44.5 490.1,46.1 489.6,47.4 489,48.8 488.3,50.1 487.6,51.3 486.7,53 485.2,55.3 484,57.2 482.8,59.1 481.6,61 480.4,62.7 479.6,64.1 478.7,65.5 477.8,66.9 476.9,68.3 476,69.7 475,71.1 473.9,72.8 472.9,74.2 471.8,75.8 470.9,77.2 470.2,78.3 469.2,79.7 468.2,81.1 467.2,82.6 466.1,84.2 465,85.8 464.3,86.9 463.3,88.5 462.4,89.8 461.4,91.3 460.4,92.8 459.4,94.2 458.4,95.6 457.3,97.3 456.3,98.8 455.3,100.4 454,102.5 453,104.1 452.1,105.4 451.1,106.9 450.1,108.3 449.1,109.7 447.9,111.4 446.6,113.4 445.5,115 444.4,116.7 443.3,118.3 442.3,119.9 441.3,121.4 440.2,123.2 439.1,124.9 438.3,126.3 437.3,127.8 436.3,129.3 435.3,130.8 434.2,132.6 433,134.5 432.1,136 431.3,137.4 430.3,139 429.3,140.6 428.3,142.2 427.4,143.8 426.4,145.6 425.6,147.2 424.8,148.8 424.1,150.5 423.3,152.2 422.6,153.6 421.8,155.2 421,156.8 420.2,158.2 419.3,160 418.4,161.8 417.7,163.3 417,164.9 416.2,166.6 415.6,167.9 414.9,169.5 414.1,171.2 413.4,172.8 412.7,174.4 412,176.1 411.3,177.7 410.8,179 410.1,180.6 409.5,182 408.8,183.5 408.1,185.1 407.3,186.8 406.8,187.9 406.1,189.3 405.4,190.8 404.7,192.3 403.9,193.9 403.1,195.5 402.3,197.5 401.5,199.2 400.9,200.7 400.4,202 399.7,203.5 399.3,204.4 398.9,205.3 398.1,206.7 397.3,208.4 396.6,209.9 395.8,211.3 395,213 394.5,214.1 393.8,215.4 393.2,216.7 392.6,218 391.9,219.2 391.2,220.7 390.7,221.7 390,223 389.3,224.5 388.7,225.8 388,227 387.4,228.2 386.7,229.7 386,231 385.4,232.3 384.9,233.4 384.3,234.6 383.8,235.5 383.3,236.4 382.7,237.3 381.8,238.7 381,240 380.3,240.9 379.6,241.9 378.8,243 378.2,243.7 377.6,244.4 376.9,245.3 376.1,246.2 375.3,247.1 374.6,247.8 373.8,248.5 373.1,249.1 372.2,249.7 371.3,250.2 370.4,250.8 369.1,251.5 367.8,252.1 366.5,252.7 365.1,253.3 363.6,253.8 362.5,254.2 361.4,254.6 360.6,254.8 359.6,255 358.7,255.3 357.8,255.5 356.8,255.7 355.7,255.9 354.9,256 353.5,256.2 352.1,256.4 350.8,256.6 349.6,256.8 348.4,257 347.5,257 346.5,257 345.4,257 344.1,257 342.7,257 341.3,257 340,257 338.6,257 337.3,257 336.1,257 334.9,257 333.5,257 332.3,257 331.2,257 330.2,257 328.8,256.9 327.5,256.8 325.9,256.7 324.2,256.6 322.5,256.5 321.1,256.5 319.8,256.5 318.5,256.5 317.3,256.5 316.1,256.4 315.2,256.3 313.7,256.1 312.2,255.9 310.6,255.7 308.9,255.6 307.3,255.5 306.2,255.4 304.9,255.2 303.5,255 302.2,254.8 300.8,254.6 299.4,254.4 298,254.2 296.8,254 295.5,253.8 293.7,253.4 292,253.1 290.7,252.9 289.4,252.6 287.7,252.2 286.6,252 285.4,251.7 283.9,251.3 282.4,251 281.4,250.7 279.9,250.3 278.4,250 277.2,249.7 275.6,249.3 274,248.9 272.8,248.6 271.4,248.2 270.1,247.8 269.2,247.5 267.9,247.2 266.7,246.8 265.3,246.3 263.9,245.9 262.5,245.5 261.1,245 259.7,244.6 258.8,244.3 257.9,244 256.6,243.4 255.6,243 254.4,242.4 252.9,241.8 251.3,241.1 250.1,240.7 249,240.2 248.1,239.9 247,239.4 246,239 244.5,238.3 243,237.7 241.5,237 240.5,236.6 239.5,236.1 238.6,235.6 237.7,235.1 236.8,234.6 235.8,234.1 234.5,233.4 233.4,232.8 232.3,232.2 231,231.5 229.8,230.8 228.7,230.2 227.8,229.7 226.6,229.1 225.7,228.6 224.8,228.1 224.1,227.7 222.9,227 222,226.4 220.9,225.8 219.8,225.1 218.7,224.5 217.4,223.7 216.1,222.8 214.9,222 213.7,221.2 212.5,220.3 212,220 211,219.3 209.8,218.4 208.6,217.6 207.4,216.8 206.1,215.8 205.2,215.1 204.5,214.6 203.3,213.6 201.8,212.4 200.4,211.3 199.1,210.4 197.8,209.4 196.9,208.7 196.3,208.3 195.7,207.8 195.1,207.3 194,206.4 193,205.6 191.9,204.6 190.7,203.6 189.5,202.6 188.9,202 188.3,201.4 187.4,200.6 186.7,199.9 186,199.1 185,198.1 184.1,197.1 183.6,196.4 183,195.8 182.3,194.9 181.8,194.2 180.9,193.1 180.1,192 179.4,190.8 178.8,189.9 178.1,188.7 177.6,187.7 177.1,186.7 176.6,185.7 176.1,184.7 175.7,183.7 175.5,182.9 175.2,182 174.9,181 174.7,179.9 174.6,179 174.5,178 174.5,176.6 174.5,175.2 174.5,173.7 174.6,172.3 174.7,171 174.8,170.2 174.9,169.5 175.2,168.7 175.4,167.9 175.6,167.1 176,166 176.4,164.9 176.8,163.9 177.2,162.9 177.7,162 178.2,161.1 178.8,160.2 179.2,159.5 179.9,158.5 180.6,157.4 181.2,156.7 181.7,156 182.3,155.3 182.7,155 183.3,154.5 183.8,153.9 184.6,153.1 185.4,152.4 186.2,151.6 186.8,151 187.4,150.4 188.1,149.9 188.9,149.2 189.8,148.4 190.8,147.5 191.9,146.7 192.6,146 193.6,145.2 194.6,144.5 195.4,143.9 196.3,143.1 197.3,142.4 197.9,141.9 198.7,141.2 199.6,140.5 200.4,140 201.2,139.4 202,138.9 202.5,138.6 203.6,138 204.7,137.4 205.8,136.8 206.9,136.2 208.3,135.5 209.1,135.1 209.9,134.7 211,134.2 212.3,133.6 213.3,133.1 214.3,132.7 215.8,132 217,131.4 218,130.9 219,130.5 220,130 220.9,129.7 221.8,129.4 223.1,129 224.4,128.5 226.1,128 227.4,127.6 228.7,127.2 229.6,126.9 230.9,126.6 231.9,126.3 233,126 234.1,125.8 235.7,125.5 236.9,125.2 238,125 239.1,124.8 240.9,124.5 242.2,124.2 243.5,124 244.8,123.8 246.2,123.6 247.5,123.4 248.8,123.2 250.1,123 251.4,122.8 253.1,122.5 254.2,122.3 255.4,122.1 256.7,121.9 258.5,121.6 259.8,121.4 261.1,121.1 262.9,120.8 264.6,120.5 266.1,120.2 268.3,119.8 270.5,119.5 272.4,119.1 274.3,118.7 276,118.4 277,118.1 278.5,117.7 279.7,117.5 281.2,117.2 282.7,116.8 284.2,116.5 285.2,116.2 286.7,115.8 287.9,115.5 289.5,115.1 291,114.7 292.9,114.3 294.3,113.9 295.7,113.5 297,113.1 298.3,112.7 299.5,112.3 300.7,111.9 302,111.5 303.3,111.1 304.7,110.7 306.1,110.2 307.7,109.7 309.2,109.2 310.4,108.8 311.8,108.3 312.9,107.9 313.8,107.6 315.3,107 316.7,106.5 318.5,105.7 320.3,105 322.1,104.2 323.6,103.6 325.4,102.8 326.5,102.4 327.6,101.9 329,101.4 330.3,100.8 331.4,100.4 332.9,99.7 334.4,99.1 335.6,98.5 336.8,97.9 337.9,97.3 338.8,96.8 340,96.1 341.3,95.4 342.4,94.8 343.5,94.2 344.3,93.7 345.4,93 346.4,92.4 347.3,91.8 348.2,91.2 349.8,90.3 350.9,89.6 352,88.7 353.3,87.7 354.6,86.7 355.5,85.8 356.3,85 357.6,83.6 358.9,82.2 360.4,80.3 361.8,78.4 363.1,76.5 364,75.1 364.7,73.8 365.3,72.7 365.7,71.8 366.3,70.7 366.8,69.5 367.3,68.3 367.6,67.3 368.1,65.8 368.4,64.4 368.7,62.5 369,60.5 369.4,58.4 369.6,56.8 369.8,55.1 369.9,54.1 370,53.1 370,52.1 370,50.8 369.9,49.8 369.7,47.9 369.5,46.1 369.1,44 368.7,42.2 368.4,40.3 368,39.1 367.6,37.9 367.4,37.1 367,36 366.5,34.6 366.1,33.6 365.4,32 364.5,30.3 363.4,28.5 362.4,27 361.4,25.4 360.6,24.4 359.6,23.1 359,22.2 358.2,21.3 357.3,20.3 356.3,19.2 355.5,18.4 353.8,17 352.2,15.6 350.7,14.4 349.3,13.3 348,12.3 347.2,11.8 346.4,11.3 345.6,10.8 344,9.9 342.1,9 340.2,8.1 338.3,7.3 336.4,6.5 335,6 333,5.5 331.3,5.1 329.6,4.7 327,4.2 324.5,3.9 322.8,3.6 321.1,3.4 319.4,3.2 318.6,3.1 317.5,2.9 316.1,2.8 314.7,2.7 312.9,2.6 311.1,2.5 309.6,2.4 308.3,2.3 306.8,2.2 305.6,2.1 304.4,2 303.3,2 302.3,2 300.9,1.9 299.6,1.7 298.1,1.5 296.5,1.3 294.8,1.1 293.4,1 291.8,1 290.2,1 288.7,0.9 287.1,0.8 285.8,0.7 284.4,0.6 283.1,0.5 281.9,0.5 280.3,0.4 278.4,0.2 276.8,0 274.9,-0.2 273,-0.4 271.5,-0.5 269.9,-0.5 268.3,-0.5 266.8,-0.5 265.1,-0.6 263.4,-0.7 261.8,-0.8 260.2,-0.9 258.5,-1 256.7,-1 255.2,-1 253.7,-1 252,-1 250.4,-1 248.8,-1.1 247.2,-1.2 245.6,-1.3 243.9,-1.4 242.2,-1.5 240.5,-1.5 238.6,-1.5 236.7,-1.5 235.1,-1.5 233.5,-1.5 231.9,-1.5 230.3,-1.5 228.7,-1.5 226.7,-1.5 225,-1.5 223.2,-1.5 221.3,-1.5 219.5,-1.4 217.8,-1.3 215.8,-1.2 213.8,-1.1 212.1,-1 210.3,-1 208.5,-1 206.7,-1 204.8,-0.9 202.8,-0.8 201,-0.7 199.2,-0.5 197.4,-0.3 195.8,-0.2 193.7,0 191.6,0.2 189.7,0.3 187.8,0.4 185.4,0.7 183.5,0.9 181.6,1.1 179.5,1.3 177.3,1.5 175.4,1.6 173.5,1.8 171.6,2 169.6,2.2 167.7,2.4 165.7,2.7 163.7,2.9 161.7,3.1 159.8,3.3 157.3,3.7 155.3,3.9 153.3,4.1 150.6,4.5 148,4.9 146.2,5.1 143.8,5.5 141.3,5.9 139.2,6.1 136.8,6.5 134.4,6.9 132.3,7.1 129.8,7.5 127.7,7.9 125.9,8.1 123.4,8.5 121.2,8.9 119,9.3 116.6,9.7 114.1,10.1 111.8,10.5 109,11 106.8,11.3 104.6,11.7 102.1,12.2 100.1,12.6 98.1,13 95.6,13.6 93.2,14.1 90.7,14.7 88.2,15.2 85.8,15.8 83.7,16.2 81.1,16.8 79.1,17.2 76.6,17.8 74.5,18.2 72.5,18.7 70.4,19.1 68.3,19.6 66.2,20 64.1,20.5 61.4,21.1 58.9,21.7 56.4,22.3 54,22.9 51.4,23.6 49.4,24.1 47.8,24.6 45.6,25.2 43.4,25.8 41.4,26.3 39,26.9 36.6,27.5 34.4,28.1 32.4,28.7 30.4,29.3 28.4,29.9 26.4,30.5 24.8,31 22.7,31.6 20.7,32.2 19.1,32.7 17.1,33.3 14.9,34 13.4,34.5 11.4,35.1 9.2,35.9 7.4,36.5 5.4,37.1 3.3,37.8 1.6,38.4 -0.4,39 -2.6,39.7 -4.3,40.3 -5.9,40.9 -7.8,41.5 -9.4,42.1 -11,42.7 -12.7,43.3 -14.9,44.1 -16.8,44.9 -18.4,45.5 -20.2,46.2 -22.2,46.9 -23.9,47.5 -25.6,48.1 -27.3,48.8 -29.2,49.5 -30.8,50.2 -32.2,50.7 -34.1,51.4 -36.3,52.2 -37.8,52.9 -39.4,53.5 -41.5,54.4 -43,55.1 -44.3,55.7 -46.2,56.4 -48,57.2 -49.4,57.8 -50.9,58.4 -52.3,59 -53.7,59.6 -55.2,60.2 -56.5,60.8 -58.2,61.5 -60.1,62.2 -61.5,62.8 -62.8,63.4 -64.8,64.2 -66.3,64.9 -67.7,65.6 -69,66.2 -70.9,67 -72.1,67.6 -73.4,68.1 -75.1,68.8 -76.9,69.6 -78.1,70.1 -79.9,70.8 -81.7,71.6 -83,72.2 -84.6,72.8 -86.4,73.6 -87.6,74.1 -88.7,74.6 -90.4,75.3 -91.7,75.9 -93.1,76.5 -94.7,77.3 -96.3,78 -97.4,78.5 -98.9,79.3 -100.4,80.1 -101.7,80.7 -103,81.4 -104.7,82.3 -106,82.9 -107.2,83.5 -108.5,84.2 -109.8,84.8 -111.2,85.5 -112.7,86.3 -114,87 -115.4,87.7 -116.8,88.5 -117.9,89.1 -119.1,89.7 -120.3,90.3 -121.6,91 -123.1,91.8 -124.3,92.4 -125.6,93.1 -127.1,93.9 -128.3,94.5 -129.5,95.1 -131,96 -132.2,96.7 -133.2,97.3 -134.5,98.1 -135.6,98.7 -136.6,99.2 -137.6,99.7 -138.8,100.3 -139.7,100.8 -140.8,101.4 -142,102.1 -143.2,102.9 -144.2,103.5 -145.2,104.1 -146.2,104.7 -147.2,105.3 -148.2,105.8 -149.2,106.4 -150.2,106.9 -151.2,107.5 -151.9,107.8 -152.8,108.3 -154,108.9 -155.2,109.5 -156.2,110 -157.2,110.5 -158.5,111 -159.5,111.3 -160.5,111.6 -161.5,111.8 -163,112.1 -164.1,112.2 -165.2,112.3 -166.4,112.4 -167.6,112.5 -168.3,112.4 -169.2,112.2 -170.2,111.9 -171.1,111.6 -172.3,111.1 -173.4,110.6 -174.2,110.2 -175.2,109.5 -176.3,108.6 -177,107.8 -177.8,107.1 -178.8,105.9 -179.4,105 -179.9,104.3 -180.4,103.6 -180.9,102.8 -181.1,102.4 -181.8,101.4 -182.5,100.2 -183.2,99 -184,97.6 -184.8,96.2 -185.5,94.8 -186.3,93.4 -187.3,91.7 -188.4,90 -189.7,88.2 -190.6,87 -191.4,86 -192.9,84.5 -194.4,83.1 -195.8,81.9 -197.4,80.6 -199.3,79.1 -201,78.1 -202.9,77.2 -205.3,76.1 -207.6,75.2 -209.6,74.5 -211,74.2 -212,74 -213.4,74 -214.8,74 -216.3,74 -217.8,74.1 -219.4,74.2 -220.6,74.4 -222.3,74.8 -223.9,75.2 -225.8,75.6 -227.8,76.2 -229.3,76.7 -230.5,77.1 -231.7,77.6 -232.8,78.1 -233.7,78.4 -234.8,79 -235.7,79.5 -236.8,80.2 -237.8,81 -238.8,81.8 -239.6,82.4 -240.7,83.3 -241.5,84 -242.4,84.8 -243.3,85.7 -244.2,86.6 -245,87.6 -245.8,88.6 -246.5,89.5 -247.1,90.4 -247.8,91.5 -248.3,92.3 -248.9,93.3 -249.4,94.2 -250,95.4 -250.4,96.4 -250.8,97.4 -251.2,98.5 -251.5,99.6 -251.9,100.8 -252.3,102.1 -252.6,103.5 -252.8,104.7 -253,106 -253,106.9 -253,107.9 -253.1,108.9 -253.2,109.9 -253.2,110.9 -253.2,112 -253.2,112.9 -253,114.2 -252.8,115.5 -252.7,116.7 -252.6,117.8 -252.4,119.1 -252.3,120 -252.1,121.2 -251.9,122.4 -251.7,123.6 -251.6,124.6 -251.4,125.6 -251.2,126.6 -251,127.7 -250.8,128.8 -250.5,130 -250.3,131.1 -250.1,132.3 -249.9,133.4 -249.6,134.6 -249.3,136.1 -249,137.6 -248.8,138.6 -248.4,140.1 -248.1,141.5 -247.9,142.5 -247.7,143.6 -247.4,144.6 -247.3,145.4 -247.1,146.7 -246.9,148 -246.6,149.3 -246.3,151.1 -246,152.7 -245.7,153.8 -245.4,154.9 -245.2,156.1 -245,157.5 -244.7,158.9 -244.5,160.3 -244.3,161.7 -243.9,163.5 -243.6,164.8 -243.4,166 -243.1,167.7 -242.7,169.6 -242.5,170.9 -242.3,172.3 -241.9,174.2 -241.5,176 -241.1,177.7 -240.7,179.4 -240.3,181.2 -239.9,183.1 -239.6,184.6 -239.3,186.6 -238.9,188.7 -238.4,191 -238,192.8 -237.6,194.7 -237.1,196.7 -236.7,198.7 -236.2,200.8 -235.8,202.9 -235.4,205.2 -235,207.2 -234.6,209.3 -234.2,211.4 -233.7,213.9 -233.1,216.2 -232.7,218.2 -232.2,220.7 -231.8,222.8 -231.4,225.2 -231,227.6 -230.5,230.4 -230,232.7 -229.6,235.1 -229.1,237.4 -228.6,240.2 -228.1,242.7 -227.7,245.3 -227.1,248.1 -226.7,250.4 -226.2,252.8 -225.7,255.6 -225.1,258.3 -224.6,261.2 -224,263.9 -223.5,266.7 -223,269.1 -222.5,271.9 -222,274.3 -221.4,277.4 -220.9,279.7 -220.4,282.5 -219.9,284.9 -219.4,287.6 -219,290.1 -218.4,293.2 -217.9,295.7 -217.5,298.2 -217,300.8 -216.4,303.4 -216,305.5 -215.5,308.1 -214.9,310.8 -214.3,313.5 -213.9,315.8 -213.5,318.1 -213,320.5 -212.6,322.7 -212.2,325 -211.8,327.3 -211.2,329.9 -210.8,331.9 -210.4,333.9 -210,335.8 -209.6,337.7 -209.4,339.4 -209,341.5 -208.6,343.6 -208.3,345.7 -207.9,347.8 -207.5,349.7 -207.3,351.5 -207.1,353.5 -206.9,355.4 -206.8,357.2 -206.6,359 -206.4,360.5 -206.2,361.9 -206.1,362.9 -206,364 -206.2,365.7 -206.4,367.4 -206.6,369 -206.8,370.6 -207,372.1 -207.2,373.5 -207.4,374.9 -207.7,376.2 -208.1,377.7 -208.5,379.2 -208.8,380.3 -209.2,381.3 -209.6,382.6 -210.1,383.7 -210.6,384.8 -211.1,385.8 -211.8,387.3 -212.5,388.5 -213,389.5 -213.8,390.8 -214.6,392.1 -215.2,392.9 -216.1,394.2 -217.1,395.5 -217.8,396.5 -218.5,397.5 -219.3,398.6 -219.9,399.3 -220.6,400.1 -221.5,401 -222.5,402 -223.5,403 -224.4,403.9 -225.5,404.9 -226.5,405.7 -227.7,406.7 -228.8,407.5 -229.9,408.3 -230.9,409 -231.9,409.7 -232.9,410.3 -233.9,411 -235,411.6 -236.3,412.3 -237.9,413.2 -239.5,413.9 -241.2,414.6 -243.1,415.4 -244.6,416 -245.9,416.4 -247.3,416.8 -248.6,417.2 -249.6,417.5 -250.7,417.7 -251.9,417.9 -253.2,418.1 -254.6,418.3 -256,418.5 -257.5,418.7 -259,418.9 -260.2,419 -261.6,419 -263.1,419 -264.7,419 -266.2,419 -267.9,419.1 -269.3,419.2 -270.7,419.3 -271.9,419.5 -273.3,419.7 -274.4,419.8 -275.8,419.9 -277.1,420 -278.7,420 -280,420 -281.5,420 -282.9,420 -284.5,420 -286,420 -287.7,420 -289.3,420 -291,420.1 -292.7,420.2 -294.3,420.3 -295.9,420.4 -297.6,420.5 -299.3,420.5 -301.3,420.6 -303.2,420.7 -305,420.8 -306.5,420.9 -308.1,421 -309.2,421 -310.5,421 -312,421 -313.7,421 -315.2,421 -317,421 -318.7,421 -320.4,421 -321.9,421 -323.5,421 -325.2,421 -327,421 -328.5,421 -330.6,421 -332.5,421 -334,421 -335.7,420.9 -337.6,420.8 -339.2,420.7 -340.9,420.5 -342.9,420.3 -344.7,420.2 -346.4,420.1 -348.3,419.9 -350.3,419.7 -352.2,419.5 -353.9,419.3 -355.6,419.1 -357.2,418.8 -358.8,418.6 -360.3,418.4 -362.4,418 -364.4,417.5 -366.5,417.1 -368.3,416.7 -370.1,416.2 -371.7,415.8 -373.5,415.4 -375,414.9 -377,414.3 -379,413.7 -380.5,413.2 -382.5,412.5 -384.4,411.9 -386,411.2 -387.8,410.5 -389.9,409.6 -391.3,408.9 -392.7,408.2 -394.6,407.3 -396.4,406.3 -398.2,405.3 -400.1,404.3 -402.3,403.1 -404,402.1 -405.6,401.2 -407.3,400.2 -409.1,399.1 -410.6,398.2 -412,397.3 -413.3,396.5 -414.8,395.4 -416.2,394.4 -418.1,392.9 -419.9,391.5 -421.9,389.8 -423.3,388.6 -424.8,387.2 -425.9,386.1 -427.3,384.8 -428.6,383.5 -430.3,381.8 -431.8,380.3 -433.1,379 -434.5,377.4 -436,375.8 -437,374.6 -438.4,372.9 -440,371 -441.1,369.6 -442.2,368.1 -443.8,365.9 -445.1,364.1 -446.1,362.5 -447.5,360.4 -448.8,358.3 -449.8,356.6 -450.8,354.7 -451.9,352.8 -452.8,351.1 -453.7,349.4 -454.8,347.4 -455.8,345.4 -456.9,343.1 -458,340.8 -459,338.7 -459.7,337.1 -460.5,335.1 -461.2,333.3 -461.8,331.6 -462.6,329.2 -463.3,326.7 -463.9,324.9 -464.5,322.7 -465.1,320.6 -465.4,318.8 -465.9,316.7 -466.3,314.5 -466.6,312.3 -467,309.7 -467.4,307.5 -467.6,305.7 -467.8,303.5 -468,301.5 -468,299.7 -468,297.6 -468,295.3 -468,293 -468,290.7 -468,288.4 -468,286.1 -468,283.7 -468,281.3 -468,279.1 -467.9,277.1 -467.7,274.9 -467.5,272.8 -467.3,271 -466.9,268.7 -466.6,266.4 -466.3,264.3 -465.9,262.4 -465.4,260.2 -464.9,258.1 -464.3,256 -463.7,253.7 -463.2,251.4 -462.7,249.5 -462.1,247.5 -461.6,245.5 -461.1,244 -460.3,241.9 -459.5,239.8 -458.9,238 -458,235.7 -457.1,233.4 -456.2,231 -455.3,228.6 -454.5,226.4 -453.8,224.4 -453.1,222.3 -452.4,220.4 -451.7,218.5 -450.9,216.4 -450.1,214.3 -449.2,212 -448.4,209.9 -447.6,207.8 -446.6,205.4 -445.7,203.3 -444.7,200.9 -443.9,198.8 -443,196.5 -442.2,194.4 -441.3,192 -440.6,190.2 -439.6,187.9 -438.7,185.7 -437.7,183.3 -436.9,181.2 -436.1,179.1 -435.3,177 -434.4,174.7 -433.7,172.9 -433,171.1 -432.1,168.8 -431.3,166.7 -430.6,164.8 -429.7,162.4 -428.6,159.6 -427.7,157.3 -426.8,155.1 -425.9,152.7 -425.1,150.4 -424.4,148.6 -423.6,146.5 -422.8,144.2 -422.1,142.2 -421.3,140.1 -420.5,137.9 -419.5,135.1 -418.6,132.6 -417.3,129.5 -416.2,126.9 -415.1,124 -414.2,121.7 -413.3,119.5 -412.6,117.6 -411.8,115.4 -411,113.4 -410.4,111.7 -409.5,109.4 -408.6,107.1 -407.8,105.1 -406.9,102.9 -405.9,100.4 -405.1,98.4 -404.5,96.7 -403.6,94.4 -402.7,92.1 -401.8,90.1 -401,87.9 -400,85.3 -399.3,83.3 -398.7,81.6 -397.8,79.2 -396.9,77.1 -396.1,75.1 -395.1,72.7 -394.2,70.3 -393.6,68.6 -392.7,66.3 -391.7,64 -391,62.1 -390.1,59.9 -389.1,57.3 -388.4,55.3 -387.8,53.6 -386.8,51.2 -385.8,48.8 -385,46.9 -384.1,44.7 -383.2,42.5 -382.4,40.5 -381.8,38.8 -381,36.7 -380.2,34.6 -379.4,32.5 -378.6,30.4 -377.7,27.9 -376.9,25.7 -376.2,23.8 -375.3,21.4 -374.7,19.5 -373.9,17.7 -373.2,16 -372.3,13.7 -371.6,11.9 -370.9,10.1 -370.2,8.1 -369.4,6 -368.6,3.8 -367.8,1.5 -366.8,-1 -365.8,-3.6 -364.8,-6.3 -364.1,-8.2 -363.3,-10.2 -362.4,-12.5 -361.7,-14.2 -361.1,-15.8 -360.2,-18.1 -359.4,-20.1 -358.6,-22.2 -357.9,-24.3 -357.1,-26.4 -356.3,-28.4 -355.5,-30.5 -355,-32 -354.2,-34 -353.3,-36.3 -352.6,-38.1 -352,-39.8 -351.1,-42 -350.3,-44.1 -349.6,-45.8 -349,-47.5 -348.3,-49.3 -347.5,-51.3 -346.8,-53 -346.2,-54.7 -345.3,-56.9 -344.3,-59.4 -343.7,-61.2 -343,-63.1 -342.2,-65.1 -341.5,-66.9 -341,-68.4 -340.4,-69.9 -339.6,-71.9 -338.8,-73.9 -338.1,-75.9 -337.2,-78.2 -336.3,-80.5 -335.8,-82 -335.3,-83.5 -334.5,-85.4 -333.8,-87 -333.2,-88.6 -332.8,-89.6 -332.2,-91" style="stroke: rgb(55, 65, 81); stroke-width: 10;"></polygon><polyline vector-effect="non-scaling-stroke" fill="none" points="-330.2,-95.8 -329.9,-96.6 -329.6,-97.1 -329,-98.5 -328.5,-99.9 -328,-101.1 -327.6,-102.1 -327.2,-103.2 -326.8,-104.2 -326.4,-105.2 -326,-106.2 -325.6,-107.2 -325.1,-108.5 -324.7,-109.6 -324.4,-110.4 -324.1,-111.2 -323.7,-112.2 -323.3,-113.2 -322.9,-114.2 -322.5,-115.2 -322,-116.5 -321.6,-117.6 -321.3,-118.4 -321,-119.2 -320.6,-120.2 -320,-121.7 -319.4,-123.3 -318.8,-124.9 -318.2,-126.5 -317.6,-128.1 -317.3,-128.9 -316.9,-129.8 -316.4,-131 -315.9,-132.2 -315.4,-133.3 -314.9,-134.6 -314.4,-136 -314,-137.2 -313.6,-138.4 -313.1,-139.7 -312.6,-141.1 -312.1,-142.2 -311.7,-143.3 -311.1,-144.6 -310.6,-146 -310.1,-147.1 -309.6,-148.6 -309,-149.9 -308.6,-151.1 -308.1,-152.3 -307.7,-153.5 -307.3,-154.4 -306.9,-155.6 -306.3,-157.1 -305.9,-158.3 -305.3,-159.8 -304.8,-161.3 -304.3,-162.6 -304,-163.6 -303.4,-164.9 -302.9,-166.3 -302.3,-167.7 -301.6,-169.4 -300.9,-171 -300.5,-172.3 -300,-173.5 -299.4,-175 -299,-176.2 -298.4,-177.7 -297.8,-179.3 -297.2,-180.9 -296.7,-182.2 -296.2,-183.5 -295.6,-185 -295,-186.4 -294.4,-187.9 -293.9,-189.3 -293.2,-191 -292.6,-192.5 -292,-194.1 -291.5,-195.3 -290.9,-196.7 -290.3,-198.2 -289.8,-199.8 -289.2,-201.4 -288.6,-203 -288.1,-204.5 -287.5,-206 -286.9,-207.4 -286.3,-208.8 -285.6,-210.6 -284.9,-212.3 -284.3,-213.9 -283.8,-215.2 -283.1,-217 -282.5,-218.5 -281.9,-220 -281.2,-221.8 -280.5,-223.6 -279.9,-225.2 -279.3,-226.8 -278.6,-228.4 -278,-230 -277.3,-231.7 -276.7,-233.3 -276.1,-234.8 -275.5,-236.5 -275.1,-237.6 -274.4,-239.4 -273.8,-240.9 -273.2,-242.4 -272.5,-244.2 -271.7,-246 -271.1,-247.6 -270.4,-249.3 -269.7,-251.3 -269.1,-252.8 -268.5,-254.4 -267.9,-256 -267.3,-257.6 -266.7,-258.9 -266.1,-260.4 -265.4,-262.2 -264.8,-263.5 -264.1,-265.3 -263.4,-267.2 -262.7,-268.9 -262,-270.8 -261.3,-272.7 -260.7,-274 -260,-275.8 -259.3,-277.7 -258.6,-279.4 -258,-281 -257.3,-283 -256.7,-284.5 -256.1,-286.2 -255.4,-288.1 -254.6,-290 -253.9,-291.9 -253.2,-293.8 -252.5,-295.4 -251.9,-297 -251.3,-298.7 -250.6,-300.3 -249.9,-302.1 -249.2,-304 -248.5,-305.7 -247.9,-307.4 -247.3,-309 -246.6,-310.6 -245.8,-312.6 -245.2,-314.3 -244.4,-316.2 -243.6,-318.2 -242.9,-320.3 -242.3,-321.9 -241.5,-323.8 -240.9,-325.5 -240.3,-327.1 -239.6,-328.7 -239,-330.4 -238.4,-331.9 -237.6,-333.6 -236.9,-335.6 -236.3,-337.3 -235.7,-338.9 -235.1,-340.5 -234.7,-341.9 -234.1,-343.4 -233.4,-345.2 -232.7,-347 -232.1,-348.7 -231.2,-350.9 -230.6,-352.5 -230.1,-353.8 -229.6,-355.1 -228.9,-356.9 -228.4,-358.2 -227.9,-359.5 -227.2,-361.3 -226.5,-363.1 -226,-364.4 -225.5,-365.8 -224.8,-367.5 -224.3,-368.7 -223.6,-370.6 -222.9,-372.4 -222.3,-374.1 -221.8,-375.5 -221.3,-377.1 -220.9,-378 -220.3,-379.4 -219.7,-380.8 -219.1,-382.2 -218.6,-383.3 -218,-384.6 -217.6,-385.7 -217.1,-386.7 -216.5,-387.9 -215.9,-389.1 -215.3,-390.3 -214.8,-391.2 -214.2,-392.3 -213.7,-393.2 -213.2,-394.1 -212.8,-394.8 -212,-395.9 -211.4,-396.8 -210.8,-397.7 -210.1,-398.6 -209.4,-399.4 -208.9,-399.9 -208.2,-400.5 -207.5,-401.2 -206.8,-401.8 -206.1,-402.5 -205.5,-403.1 -204.7,-403.7 -203.9,-404.2 -203.1,-404.7 -202.3,-405.2 -201.3,-405.7 -200.3,-406.3 -199.3,-406.8 -198.3,-407.4 -197.3,-407.9 -196.5,-408.4 -196,-408.6 -195.2,-408.9 -194.4,-409.2 -193.6,-409.5 -192.8,-409.7 -191.6,-410.1 -190.7,-410.4 -189.8,-410.6 -188.8,-410.8 -187.7,-411 -186.9,-411 -186,-411 -185,-411 -184,-411.1 -183,-411.2 -182,-411.3 -181,-411.4 -179.8,-411.5 -178.6,-411.5 -177.4,-411.5 -176.2,-411.5 -175.1,-411.4 -174.3,-411.3 -173.6,-411.2 -173,-411.1 -172.2,-410.9 -171.4,-410.7 -170.6,-410.5 -169.5,-410.2 -168.3,-409.8 -167.1,-409.4 -165.9,-409.1 -164.7,-408.7 -163.8,-408.4 -162.8,-408 -162.1,-407.7 -161.4,-407.3 -160.7,-407 -159.7,-406.4 -158.9,-406 -157.9,-405.4 -156.9,-404.9 -156,-404.3 -155.4,-403.9 -154.8,-403.4 -154.3,-403 -153.7,-402.4 -152.9,-401.7 -152.2,-401 -151.4,-400.3 -150.6,-399.5 -149.8,-398.7 -149.2,-398 -148.4,-397.2 -147.4,-396 -146.6,-394.9 -145.7,-393.5 -144.7,-392.1 -143.9,-390.8 -143.2,-389.5 -142.5,-388.2 -142.1,-387.3 -141.6,-386 -141.1,-384.7 -140.9,-383.8 -140.5,-382.6 -140.1,-381.4 -139.9,-380.6 -139.7,-379.8 -139.5,-379 -139.5,-378.4 -139.5,-377.5 -139.4,-376.5 -139.3,-375.5 -139.2,-374.3 -139.1,-373.1 -139,-371.9 -139,-370.7 -139.1,-369.5 -139.2,-368.3 -139.3,-367.1 -139.4,-366.1 -139.5,-365.1 -139.5,-364 -139.5,-363.1 -139.6,-362.3 -139.7,-361.6 -139.9,-360.5 -140.1,-359.5 -140.4,-358.5 -140.6,-357.5 -140.9,-356.2 -141.2,-355.4 -141.6,-354.1 -141.9,-352.8 -142.3,-351.5 -142.6,-350.5 -142.8,-349.5 -143.1,-348.8 -143.5,-347.8 -143.8,-346.8 -144.2,-345.8 -144.6,-344.8 -145,-343.8 -145.4,-342.8 -145.9,-341.8 -146.3,-340.7 -146.9,-339.4 -147.4,-338 -147.9,-336.9 -148.3,-335.8 -148.9,-334.5 -149.3,-333.4 -149.7,-332.6 -150.1,-331.6 -150.5,-330.6 -151.1,-329.3 -151.7,-328 -152.4,-326.4 -153,-325 -153.7,-323.5 -154,-322.6 -154.6,-321.3 -155,-320.3 -155.6,-319 -156.1,-317.8 -157,-315.9 -157.6,-314.4 -158.3,-312.9 -158.8,-311.7 -159.6,-310 -160.1,-308.7 -160.7,-307.4 -161.2,-306.1 -161.9,-304.5 -162.4,-303.1 -162.9,-302 -163.3,-300.9 -163.9,-299.4 -164.3,-298.2 -164.7,-297.3 -165,-296.4 -165.5,-295.1 -165.9,-294.2 -166.4,-292.9 -166.9,-291.6 -167.4,-290.3 -168,-288.8 -168.5,-287.3 -169,-286.2 -169.5,-284.8 -170.1,-283.3 -170.4,-282.4 -170.9,-281.3 -171.4,-279.8 -171.9,-278.6 -172.4,-277.2 -173,-275.7 -173.4,-274.4 -174,-273 -174.5,-271.6 -175.1,-270.2 -175.6,-268.8 -176.3,-267.1 -176.7,-265.9 -177.2,-264.6 -177.6,-263.4 -178.1,-261.9 -178.5,-260.7 -179,-259.2 -179.5,-257.7 -180,-256.1 -180.5,-254.9 -181,-253.3 -181.5,-252 -182,-250.4 -182.5,-249.1 -182.9,-247.8 -183.3,-246.6 -183.7,-245.3 -184.1,-243.9 -184.5,-242.5 -184.9,-241 -185.3,-239.8 -185.7,-238.3 -186,-237.3 -186.4,-235.9 -187,-233.9 -187.5,-231.9 -188,-230.2 -188.6,-228.2 -189,-226.6 -189.4,-225.2 -189.8,-223.8 -190.1,-222.4 -190.5,-220.9 -190.9,-219.3 -191.1,-218.2 -191.4,-216.6 -191.8,-214.9 -192,-213.6 -192.2,-212.3 -192.5,-210.5 -192.7,-209 -192.9,-207.7 -193.1,-206.4 -193.4,-204.6 -193.6,-203.2 -193.8,-201.8 -193.9,-200.2 -194.1,-198.5 -194.2,-197.4 -194.3,-196.4 -194.5,-194.9 -194.7,-193.5 -194.8,-192 -194.9,-190.3 -195,-188.4 -195,-187 -195,-185.6 -195,-184.4 -195.1,-182.8 -195.2,-181.4 -195.3,-180 -195.4,-178.4 -195.5,-176.8 -195.4,-175 -195.3,-173.2 -195.2,-171.5 -195.1,-170.1 -195,-168.5 -195,-167.5 -195,-166.4 -195,-165.2 -195,-163.8 -195,-162.3 -195,-161 -195,-159.4 -195,-157.9 -195,-156.6 -195,-155.2 -195,-153.7 -195,-152.6 -195,-151.2 -195,-149.5 -195,-148.2 -195,-146.8 -195,-145.1 -195,-143.8 -195,-142.4 -195,-140.9 -195,-139.5 -195,-138.4 -195,-136.9 -195,-135.5 -195,-134.2 -195,-132.6 -195,-130.9 -195,-129.5 -195,-128.3 -195.1,-126.8 -195.2,-125.6 -195.3,-124.5 -195.4,-123.5 -195.6,-122.3 -195.8,-121.3 -196.1,-120.1 -196.5,-118.8 -196.9,-117.5 -197.4,-116.3 -197.8,-115.2 -198.3,-114.2 -198.7,-113.2 -199.2,-112.2 -199.7,-111.1 -200.3,-110 -200.8,-109.1 -201.5,-108 -202.2,-106.9 -202.8,-106.1 -203.6,-105 -204.3,-103.9 -204.9,-103.2 -205.5,-102.5 -206.1,-101.8 -206.5,-101.4 -207.3,-100.6 -208.1,-99.8 -208.9,-99 -209.8,-98.1 -210.7,-97.3 -211.3,-96.9 -211.9,-96.4 -212.8,-95.8 -213.6,-95.2 -214.4,-94.6 -215.2,-94 -216,-93.4 -216.8,-92.7 -217.6,-92.2 -218.4,-91.6 -219.4,-91 -220.4,-90.4 -221.3,-90 -222.2,-89.5 -223.1,-89.1 -223.8,-88.7 -224.8,-88.3 -225.8,-87.8 -226.8,-87.4 -228,-86.8 -229.5,-86.2 -230.7,-85.6 -231.7,-85.2 -232.7,-84.7 -233.8,-84.3 -234.6,-83.9 -235.4,-83.6 -236.5,-83.1 -237.6,-82.7 -238.8,-82.2 -240.2,-81.7 -241.6,-81.1 -242.7,-80.7 -244.2,-80.1 -245.3,-79.7 -246.2,-79.3 -247.4,-78.9 -248.6,-78.4 -249.4,-78.1 -250.7,-77.5 -252.1,-77 -253.2,-76.5 -254.3,-76.1 -255.4,-75.6 -256.6,-75.2 -258,-74.6 -259.4,-74.1 -260.8,-73.5 -262.2,-73 -263,-72.6 -263.5,-72.4 -264.6,-71.9 -266,-71.4 -267.4,-70.8 -268.8,-70.3 -270.2,-69.7 -271,-69.4 -271.9,-69 -273,-68.6 -274.1,-68.2 -275.4,-67.7 -276.7,-67.2 -277.7,-66.8 -278.8,-66.4 -280.1,-65.8 -281.2,-65.4 -282.5,-64.8 -283.7,-64.3 -284.5,-63.8 -285.3,-63.4 -286.1,-62.9 -286.9,-62.5 -288,-61.8 -289.2,-61.2 -290.2,-60.6 -291.5,-59.9 -292.7,-59.1 -294,-58.1 -295.3,-57 -296.7,-55.9 -297.7,-54.9 -298.9,-53.6 -299.8,-52.6 -300.6,-51.6 -301.4,-50.4 -302.3,-48.9 -302.9,-47.9 -303.3,-47 -303.7,-46.1 -304.1,-45.1 -304.4,-44.4 -304.6,-43.6 -305,-42.3 -305.4,-40.9 -305.6,-39.8 -305.8,-38.3 -306,-36.7 -306,-35.5 -306,-34.3 -306,-33 -305.9,-31.6 -305.8,-30.3 -305.7,-29.1 -305.5,-27.7 -305.2,-26.4 -305,-25.6 -304.6,-24.3 -304.1,-22.8 -303.7,-21.6 -302.9,-19.7 -302,-17.9 -301.3,-16.6 -300.7,-15.5 -299.9,-14.2 -299.5,-13.7 -299.2,-13.1 -298.5,-12.1 -297.6,-11 -296.9,-10.1 -296.2,-9.2 -295.1,-8 -293.8,-6.8 -292.6,-5.8 -291.3,-4.8 -290,-3.8 -288.7,-2.9 -287.7,-2.4 -286.7,-1.8 -285.5,-1.2 -284.4,-0.5 -283.1,0 -282,0.4 -280.9,0.7 -280,1 -279,1.2 -278,1.4 -276.9,1.6 -275.8,1.8 -274.5,1.9 -273.1,2 -272.1,2 -271.1,2 -269.4,1.9 -267.9,1.8 -266.4,1.7 -265,1.6 -263.2,1.4 -262.1,1.3 -260.9,1.1 -259.4,0.8 -257.9,0.5 -256.9,0.3 -255.6,-0.1 -254.4,-0.4 -253.6,-0.6 -252.8,-0.8 -251.7,-1.2 -250.9,-1.4 -250.1,-1.6 -249,-2 -247.7,-2.5 -246.7,-2.8 -245.7,-3.2 -244.7,-3.6 -243.7,-3.9 -242.6,-4.3 -241.5,-4.7 -240.4,-5.1 -239,-5.6 -237.7,-6.1 -236.7,-6.5 -235.6,-6.9 -234.2,-7.4 -232.9,-7.9 -231.8,-8.4 -230.7,-8.8 -229.3,-9.4 -228.2,-9.8 -227.3,-10.1 -225.8,-10.6 -224.3,-11.1 -223.2,-11.5 -221.7,-12 -220.2,-12.6 -219.3,-12.9 -218.1,-13.4 -216.8,-13.8 -215.3,-14.4 -213.8,-14.9 -212.2,-15.5 -210.6,-16 -209,-16.6 -207.7,-17 -206.4,-17.5 -204.8,-18 -203.5,-18.5 -201.9,-19 -200.4,-19.6 -198.8,-20.1 -197.6,-20.6 -196,-21.1 -194.8,-21.6 -193.4,-22 -192.1,-22.5 -190.3,-23 -188.8,-23.5 -186.7,-24.2 -185,-24.8 -183.2,-25.3 -181.9,-25.8 -180.1,-26.4 -178.6,-26.8 -177,-27.3 -175,-27.9 -172.9,-28.5 -171.4,-28.9 -169.6,-29.5 -167.9,-30 -166.6,-30.5 -164.9,-31 -163.1,-31.6 -161.4,-32 -159.7,-32.5 -157.6,-33 -155.9,-33.5 -153.8,-34 -152.1,-34.4 -149.9,-34.9 -148.1,-35.3 -146.3,-35.7 -144.4,-36.1 -142.5,-36.6 -140.6,-37 -138.7,-37.5 -136.6,-37.9 -134.6,-38.3 -132.6,-38.7 -130.7,-39 -128.4,-39.3 -126.2,-39.7 -124.2,-40 -121.7,-40.3 -119.5,-40.6 -117.7,-40.9 -115.8,-41.1 -113.8,-41.3 -112,-41.4 -110,-41.6 -107.7,-41.7 -105.4,-41.8 -102.9,-42 -100.6,-42.2 -98.2,-42.3 -96.1,-42.4 -94,-42.5 -92.1,-42.5 -90.1,-42.5 -88,-42.5 -85.9,-42.5 -84,-42.5 -81.6,-42.4 -79.1,-42.2 -77,-42 -74.3,-41.8 -71.5,-41.6 -69.2,-41.3 -67,-41.1 -64.4,-40.9 -62.1,-40.7 -59.9,-40.4 -57.4,-40.2 -55.1,-40 -52.9,-39.6 -50.4,-39.2 -47.9,-38.9 -46,-38.6 -43.6,-38.2 -41.5,-38 -39.7,-37.6 -37.5,-37.2 -34.9,-36.7 -32.6,-36.3 -30.3,-35.9 -27.6,-35.5 -25.3,-35.1 -23.1,-34.7 -20.9,-34.3 -18.3,-33.7 -16.1,-33.3 -13.9,-32.8 -11.4,-32.4 -9.2,-32 -7,-31.6 -5.1,-31.2 -2.5,-30.7 -0.5,-30.3 2.1,-29.7 4.3,-29.3 6.9,-28.7 9.1,-28.3 11.3,-27.8 13.6,-27.4 15.9,-26.9 17.7,-26.6 19.8,-26.2 22.3,-25.7 24.5,-25.3 26.6,-24.9 29.1,-24.5 31.7,-24.1 33.9,-23.8 36,-23.5 38.2,-23.3 40.7,-23 42.8,-22.7 45.2,-22.5 47.4,-22.3 49.6,-22.1 51.8,-21.9 54.3,-21.8 56.5,-21.7 58.9,-21.6 61.6,-21.5 63.9,-21.5 66.2,-21.6 68.5,-21.8 70.9,-22 73.3,-22.2 75.4,-22.4 77.4,-22.7 79.5,-22.9 82.1,-23.2 84.4,-23.6 86.8,-24 89.1,-24.4 91.4,-24.8 93.3,-25.3 95.3,-25.7 97.7,-26.3 99.9,-26.8 102.1,-27.4 104.4,-28 106.8,-28.8 109,-29.5 111,-30.2 113.4,-31 115.6,-31.8 117.8,-32.6 119.9,-33.5 122.2,-34.4 124.3,-35.4 126.3,-36.4 128.3,-37.3 130.4,-38.2 132.5,-39.2 134.5,-40.1 136.5,-41 138.5,-42 140.4,-43 142.3,-44.1 144.3,-45.3 146.3,-46.5 148.3,-47.7 150.6,-49.1 152.7,-50.3 154.4,-51.3 156.4,-52.5 158.6,-53.9 160.4,-55 162.3,-56.3 164.3,-57.5 166.1,-58.7 167.9,-59.9 169.7,-61.2 171.6,-62.4 173.7,-63.8 175.7,-65.1 177.7,-66.4 179.6,-67.6 181.6,-68.9 183.5,-70.2 185.5,-71.5 187.3,-72.7 189.2,-73.9 191,-75.1 192.9,-76.3 194.7,-77.4 196.5,-78.4 198.8,-79.6 201.1,-80.7 203.4,-81.9 205.5,-83 207.6,-84.1 209.3,-85.1 211.1,-86.1 212.9,-87 214.7,-87.9 217,-88.9 219.3,-89.9 221.6,-90.9 223.9,-91.9 226.2,-92.9 228.2,-93.7 230.3,-94.5 232.2,-95.2 234.3,-95.8 236.6,-96.5 238.5,-97.2 240.6,-97.8 242.7,-98.4 244.9,-99 246.9,-99.5 249.3,-100 251.8,-100.6 254.2,-101.1 256,-101.6 258,-102 260.2,-102.4 261.9,-102.7 263.9,-103 266.2,-103.2 268.7,-103.5 270.7,-103.7 272.9,-103.8 275,-103.9 277.4,-104.2 279.4,-104.4 281.5,-104.6 283.4,-104.8 285.6,-105 287.5,-105 289.7,-105 291.7,-105 294.2,-105 296.4,-105" style="stroke: rgb(239, 68, 68); stroke-width: 7;"></polyline><polyline vector-effect="non-scaling-stroke" fill="none" points="298.7,-105 300.7,-105 302.9,-105 304.7,-104.9 306.6,-104.8 308.5,-104.7 310.6,-104.6 312.8,-104.5 315,-104.5 317.2,-104.5 319.4,-104.5 321.4,-104.5 323.5,-104.4 325.7,-104.3 327.9,-104.2 329.8,-104.1 332.2,-104 334.4,-103.9 336.6,-103.8 338.4,-103.7 340.6,-103.6 342.3,-103.5 344.2,-103.4 346.1,-103.3 348.4,-103.2 350.5,-103.1 352.9,-103 355.1,-103 357,-102.9 359.2,-102.7 361.4,-102.5 363.5,-102.3 365.3,-102.1 367.7,-102 369.8,-102 371.7,-102 373.4,-102 375.6,-101.9 377.5,-101.8 379.3,-101.6 381.4,-101.4 383.7,-101.2 385.8,-101.1 387.7,-101 389.8,-100.9 391.8,-100.8 393.9,-100.7 395.7,-100.6 397.8,-100.4 399.5,-100.3 401.3,-100.1 403.1,-99.9 405,-99.6 407,-99.3 409,-99 410.8,-98.8 412.4,-98.5 414.4,-98.2 416,-98 417.9,-97.6 419.7,-97.2 421.3,-96.8 422.9,-96.4 424.5,-95.9 426,-95.5 427.9,-94.9 429.8,-94.3 431.3,-93.8 432.9,-93.2 434.7,-92.6 436.1,-92.1 437.8,-91.5 439.4,-90.9 441.1,-90.3 442.5,-89.6 443.8,-89 445.1,-88.4 446.7,-87.6 448.2,-86.8 449.8,-86 451.6,-85 453.1,-84.2 454.4,-83.5 455.8,-82.7 457,-82 458,-81.4 459.6,-80.3 461.1,-79.2 462.3,-78.3 463.4,-77.4 465.1,-76 466.2,-75 467.3,-74 468.4,-73 469.8,-71.7 470.6,-70.9 471.4,-70.1 472.5,-69 473.6,-67.9 474.4,-67 475.5,-65.8 476.7,-64.3 477.8,-62.9 479,-61.4 480.1,-60 480.9,-58.8 481.7,-57.7 482.4,-56.5 483.2,-55.1 484.1,-53.6 485.1,-52 485.9,-50.6 486.7,-49.3 487.4,-48 488.1,-46.7 488.7,-45.6 489.5,-43.9 490.2,-42.4 490.9,-40.9 491.6,-39.3 492.3,-37.7 492.8,-36.6 493.4,-35 493.9,-33.4 494.4,-32 494.8,-30.5 495.4,-28.7 495.8,-27.3 496.3,-25.9 496.7,-24.4 497.2,-22.9 497.6,-21.1 498,-19.4 498.3,-17.9 498.6,-16.5 498.8,-14.9 499,-13.3 499.2,-11.7 499.4,-10.1 499.6,-8.5 499.8,-6.9 499.9,-5.7 500,-4.2 500,-2.6 500,-0.6 500,1.2 500,3 500,4.7 500,6.2 499.9,7.6 499.8,9 499.6,10.6 499.4,12.3 499.2,14.2 499,16.1 498.8,17.9 498.7,19.3 498.4,20.9 498.1,22.3 497.8,23.9 497.4,25.6 496.9,27.2 496.5,28.7 496,30.4 495.5,31.9 495,33.4 494.6,34.9 494.1,36.2 493.6,37.6 493,39 492.3,40.6 491.5,42.6 490.8,44.5 490.1,46.1 489.6,47.4 489,48.8 488.3,50.1 487.6,51.3 486.7,53 485.2,55.3 484,57.2 482.8,59.1 481.6,61 480.4,62.7 479.6,64.1 478.7,65.5 477.8,66.9 476.9,68.3 476,69.7 475,71.1 473.9,72.8 472.9,74.2 471.8,75.8 470.9,77.2 470.2,78.3 469.2,79.7 468.2,81.1 467.2,82.6 466.1,84.2 465,85.8 464.3,86.9 463.3,88.5 462.4,89.8 461.4,91.3 460.4,92.8 459.4,94.2 458.4,95.6 457.3,97.3 456.3,98.8 455.3,100.4 454,102.5 453,104.1 452.1,105.4 451.1,106.9 450.1,108.3 449.1,109.7 447.9,111.4 446.6,113.4 445.5,115 444.4,116.7 443.3,118.3 442.3,119.9 441.3,121.4 440.2,123.2 439.1,124.9 438.3,126.3 437.3,127.8 436.3,129.3 435.3,130.8 434.2,132.6 433,134.5 432.1,136 431.3,137.4 430.3,139 429.3,140.6 428.3,142.2 427.4,143.8 426.4,145.6 425.6,147.2 424.8,148.8 424.1,150.5 423.3,152.2 422.6,153.6 421.8,155.2 421,156.8 420.2,158.2 419.3,160 418.4,161.8 417.7,163.3 417,164.9 416.2,166.6 415.6,167.9 414.9,169.5 414.1,171.2 413.4,172.8 412.7,174.4 412,176.1 411.3,177.7 410.8,179 410.1,180.6 409.5,182 408.8,183.5 408.1,185.1 407.3,186.8 406.8,187.9 406.1,189.3 405.4,190.8 404.7,192.3 403.9,193.9 403.1,195.5 402.3,197.5 401.5,199.2 400.9,200.7 400.4,202 399.7,203.5 399.3,204.4 398.9,205.3 398.1,206.7 397.3,208.4 396.6,209.9 395.8,211.3 395,213 394.5,214.1 393.8,215.4 393.2,216.7 392.6,218 391.9,219.2 391.2,220.7 390.7,221.7 390,223 389.3,224.5 388.7,225.8 388,227 387.4,228.2 386.7,229.7 386,231 385.4,232.3 384.9,233.4 384.3,234.6 383.8,235.5 383.3,236.4 382.7,237.3 381.8,238.7 381,240 380.3,240.9 379.6,241.9 378.8,243 378.2,243.7 377.6,244.4 376.9,245.3 376.1,246.2 375.3,247.1 374.6,247.8 373.8,248.5 373.1,249.1 372.2,249.7 371.3,250.2 370.4,250.8 369.1,251.5 367.8,252.1 366.5,252.7 365.1,253.3 363.6,253.8 362.5,254.2 361.4,254.6 360.6,254.8 359.6,255 358.7,255.3 357.8,255.5 356.8,255.7 355.7,255.9 354.9,256 353.5,256.2 352.1,256.4 350.8,256.6 349.6,256.8 348.4,257 347.5,257 346.5,257 345.4,257 344.1,257 342.7,257 341.3,257 340,257 338.6,257 337.3,257 336.1,257 334.9,257 333.5,257 332.3,257 331.2,257 330.2,257 328.8,256.9 327.5,256.8 325.9,256.7 324.2,256.6 322.5,256.5 321.1,256.5 319.8,256.5 318.5,256.5 317.3,256.5 316.1,256.4 315.2,256.3 313.7,256.1 312.2,255.9 310.6,255.7 308.9,255.6 307.3,255.5 306.2,255.4 304.9,255.2 303.5,255 302.2,254.8 300.8,254.6 299.4,254.4 298,254.2 296.8,254 295.5,253.8 293.7,253.4 292,253.1 290.7,252.9 289.4,252.6 287.7,252.2 286.6,252 285.4,251.7 283.9,251.3 282.4,251 281.4,250.7 279.9,250.3 278.4,250 277.2,249.7 275.6,249.3 274,248.9 272.8,248.6 271.4,248.2 270.1,247.8 269.2,247.5 267.9,247.2 266.7,246.8 265.3,246.3 263.9,245.9 262.5,245.5 261.1,245 259.7,244.6 258.8,244.3 257.9,244 256.6,243.4 255.6,243 254.4,242.4 252.9,241.8 251.3,241.1 250.1,240.7 249,240.2 248.1,239.9 247,239.4 246,239 244.5,238.3 243,237.7 241.5,237 240.5,236.6 239.5,236.1 238.6,235.6 237.7,235.1 236.8,234.6 235.8,234.1 234.5,233.4 233.4,232.8 232.3,232.2 231,231.5 229.8,230.8 228.7,230.2 227.8,229.7 226.6,229.1 225.7,228.6 224.8,228.1 224.1,227.7 222.9,227 222,226.4 220.9,225.8 219.8,225.1 218.7,224.5 217.4,223.7 216.1,222.8 214.9,222 213.7,221.2 212.5,220.3 212,220 211,219.3 209.8,218.4 208.6,217.6 207.4,216.8 206.1,215.8 205.2,215.1 204.5,214.6 203.3,213.6 201.8,212.4 200.4,211.3 199.1,210.4 197.8,209.4 196.9,208.7 196.3,208.3 195.7,207.8 195.1,207.3 194,206.4 193,205.6 191.9,204.6 190.7,203.6 189.5,202.6 188.9,202 188.3,201.4 187.4,200.6 186.7,199.9 186,199.1 185,198.1 184.1,197.1 183.6,196.4 183,195.8 182.3,194.9 181.8,194.2 180.9,193.1 180.1,192 179.4,190.8 178.8,189.9 178.1,188.7 177.6,187.7 177.1,186.7 176.6,185.7 176.1,184.7 175.7,183.7 175.5,182.9 175.2,182 174.9,181 174.7,179.9 174.6,179 174.5,178 174.5,176.6 174.5,175.2 174.5,173.7 174.6,172.3 174.7,171 174.8,170.2 174.9,169.5 175.2,168.7 175.4,167.9 175.6,167.1 176,166 176.4,164.9 176.8,163.9 177.2,162.9 177.7,162 178.2,161.1 178.8,160.2 179.2,159.5 179.9,158.5 180.6,157.4 181.2,156.7 181.7,156 182.3,155.3 182.7,155 183.3,154.5 183.8,153.9 184.6,153.1 185.4,152.4 186.2,151.6 186.8,151 187.4,150.4 188.1,149.9 188.9,149.2 189.8,148.4 190.8,147.5 191.9,146.7 192.6,146 193.6,145.2 194.6,144.5 195.4,143.9 196.3,143.1 197.3,142.4 197.9,141.9 198.7,141.2 199.6,140.5 200.4,140 201.2,139.4 202,138.9 202.5,138.6 203.6,138 204.7,137.4 205.8,136.8 206.9,136.2 208.3,135.5 209.1,135.1 209.9,134.7 211,134.2 212.3,133.6 213.3,133.1 214.3,132.7 215.8,132 217,131.4 218,130.9 219,130.5 220,130 220.9,129.7 221.8,129.4 223.1,129 224.4,128.5 226.1,128 227.4,127.6 228.7,127.2 229.6,126.9 230.9,126.6 231.9,126.3 233,126 234.1,125.8 235.7,125.5 236.9,125.2 238,125 239.1,124.8 240.9,124.5 242.2,124.2 243.5,124 244.8,123.8 246.2,123.6 247.5,123.4 248.8,123.2 250.1,123 251.4,122.8 253.1,122.5 254.2,122.3 255.4,122.1 256.7,121.9 258.5,121.6 259.8,121.4 261.1,121.1 262.9,120.8 264.6,120.5 266.1,120.2 268.3,119.8 270.5,119.5 272.4,119.1 274.3,118.7 276,118.4 277,118.1 278.5,117.7 279.7,117.5 281.2,117.2 282.7,116.8 284.2,116.5 285.2,116.2 286.7,115.8 287.9,115.5 289.5,115.1 291,114.7 292.9,114.3 294.3,113.9 295.7,113.5 297,113.1 298.3,112.7 299.5,112.3 300.7,111.9 302,111.5 303.3,111.1 304.7,110.7 306.1,110.2 307.7,109.7 309.2,109.2 310.4,108.8 311.8,108.3 312.9,107.9 313.8,107.6 315.3,107 316.7,106.5 318.5,105.7 320.3,105 322.1,104.2 323.6,103.6 325.4,102.8 326.5,102.4 327.6,101.9 329,101.4 330.3,100.8 331.4,100.4 332.9,99.7 334.4,99.1 335.6,98.5 336.8,97.9 337.9,97.3 338.8,96.8 340,96.1 341.3,95.4 342.4,94.8 343.5,94.2 344.3,93.7 345.4,93 346.4,92.4 347.3,91.8 348.2,91.2 349.8,90.3 350.9,89.6 352,88.7 353.3,87.7 354.6,86.7 355.5,85.8 356.3,85 357.6,83.6 358.9,82.2 360.4,80.3 361.8,78.4 363.1,76.5 364,75.1 364.7,73.8 365.3,72.7 365.7,71.8 366.3,70.7 366.8,69.5 367.3,68.3 367.6,67.3 368.1,65.8 368.4,64.4 368.7,62.5 369,60.5 369.4,58.4 369.6,56.8 369.8,55.1 369.9,54.1 370,53.1 370,52.1 370,50.8 369.9,49.8 369.7,47.9 369.5,46.1 369.1,44 368.7,42.2 368.4,40.3 368,39.1 367.6,37.9 367.4,37.1 367,36 366.5,34.6 366.1,33.6 365.4,32 364.5,30.3 363.4,28.5 362.4,27 361.4,25.4 360.6,24.4 359.6,23.1 359,22.2 358.2,21.3 357.3,20.3 356.3,19.2 355.5,18.4 353.8,17 352.2,15.6 350.7,14.4 349.3,13.3 348,12.3 347.2,11.8 346.4,11.3 345.6,10.8 344,9.9 342.1,9 340.2,8.1 338.3,7.3 336.4,6.5 335,6 333,5.5 331.3,5.1 329.6,4.7 327,4.2 324.5,3.9 322.8,3.6 321.1,3.4 319.4,3.2 318.6,3.1 317.5,2.9 316.1,2.8 314.7,2.7 312.9,2.6 311.1,2.5 309.6,2.4 308.3,2.3 306.8,2.2 305.6,2.1 304.4,2 303.3,2 302.3,2 300.9,1.9 299.6,1.7 298.1,1.5 296.5,1.3 294.8,1.1 293.4,1 291.8,1 290.2,1 288.7,0.9 287.1,0.8 285.8,0.7 284.4,0.6 283.1,0.5 281.9,0.5 280.3,0.4 278.4,0.2 276.8,0 274.9,-0.2 273,-0.4 271.5,-0.5 269.9,-0.5 268.3,-0.5 266.8,-0.5 265.1,-0.6 263.4,-0.7 261.8,-0.8 260.2,-0.9 258.5,-1 256.7,-1 255.2,-1 253.7,-1 252,-1 250.4,-1 248.8,-1.1 247.2,-1.2 245.6,-1.3 243.9,-1.4 242.2,-1.5 240.5,-1.5 238.6,-1.5 236.7,-1.5 235.1,-1.5 233.5,-1.5 231.9,-1.5 230.3,-1.5 228.7,-1.5 226.7,-1.5 225,-1.5 223.2,-1.5 221.3,-1.5 219.5,-1.4 217.8,-1.3 215.8,-1.2 213.8,-1.1 212.1,-1 210.3,-1 208.5,-1 206.7,-1 204.8,-0.9 202.8,-0.8 201,-0.7 199.2,-0.5 197.4,-0.3 195.8,-0.2 193.7,0 191.6,0.2 189.7,0.3 187.8,0.4 185.4,0.7 183.5,0.9 181.6,1.1 179.5,1.3 177.3,1.5 175.4,1.6 173.5,1.8 171.6,2 169.6,2.2 167.7,2.4 165.7,2.7 163.7,2.9 161.7,3.1 159.8,3.3 157.3,3.7 155.3,3.9 153.3,4.1 150.6,4.5 148,4.9 146.2,5.1 143.8,5.5 141.3,5.9 139.2,6.1 136.8,6.5 134.4,6.9 132.3,7.1 129.8,7.5 127.7,7.9 125.9,8.1 123.4,8.5 121.2,8.9 119,9.3 116.6,9.7 114.1,10.1 111.8,10.5 109,11 106.8,11.3 104.6,11.7 102.1,12.2 100.1,12.6 98.1,13 95.6,13.6 93.2,14.1 90.7,14.7 88.2,15.2 85.8,15.8 83.7,16.2 81.1,16.8 79.1,17.2 76.6,17.8 74.5,18.2 72.5,18.7 70.4,19.1 68.3,19.6 66.2,20 64.1,20.5 61.4,21.1 58.9,21.7 56.4,22.3 54,22.9 51.4,23.6 49.4,24.1 47.8,24.6 45.6,25.2 43.4,25.8 41.4,26.3 39,26.9 36.6,27.5 34.4,28.1 32.4,28.7 30.4,29.3 28.4,29.9 26.4,30.5 24.8,31 22.7,31.6 20.7,32.2 19.1,32.7 17.1,33.3 14.9,34 13.4,34.5 11.4,35.1 9.2,35.9 7.4,36.5 5.4,37.1 3.3,37.8 1.6,38.4 -0.4,39 -2.6,39.7 -4.3,40.3 -5.9,40.9 -7.8,41.5 -9.4,42.1 -11,42.7 -12.7,43.3 -14.9,44.1 -16.8,44.9 -18.4,45.5 -20.2,46.2 -22.2,46.9 -23.9,47.5 -25.6,48.1 -27.3,48.8 -29.2,49.5 -30.8,50.2 -32.2,50.7 -34.1,51.4 -36.3,52.2 -37.8,52.9 -39.4,53.5 -41.5,54.4 -43,55.1 -44.3,55.7 -46.2,56.4 -48,57.2" style="stroke: rgb(59, 130, 246); stroke-width: 7;"></polyline><polyline vector-effect="non-scaling-stroke" fill="none" points="-49.4,57.8 -50.9,58.4 -52.3,59 -53.7,59.6 -55.2,60.2 -56.5,60.8 -58.2,61.5 -60.1,62.2 -61.5,62.8 -62.8,63.4 -64.8,64.2 -66.3,64.9 -67.7,65.6 -69,66.2 -70.9,67 -72.1,67.6 -73.4,68.1 -75.1,68.8 -76.9,69.6 -78.1,70.1 -79.9,70.8 -81.7,71.6 -83,72.2 -84.6,72.8 -86.4,73.6 -87.6,74.1 -88.7,74.6 -90.4,75.3 -91.7,75.9 -93.1,76.5 -94.7,77.3 -96.3,78 -97.4,78.5 -98.9,79.3 -100.4,80.1 -101.7,80.7 -103,81.4 -104.7,82.3 -106,82.9 -107.2,83.5 -108.5,84.2 -109.8,84.8 -111.2,85.5 -112.7,86.3 -114,87 -115.4,87.7 -116.8,88.5 -117.9,89.1 -119.1,89.7 -120.3,90.3 -121.6,91 -123.1,91.8 -124.3,92.4 -125.6,93.1 -127.1,93.9 -128.3,94.5 -129.5,95.1 -131,96 -132.2,96.7 -133.2,97.3 -134.5,98.1 -135.6,98.7 -136.6,99.2 -137.6,99.7 -138.8,100.3 -139.7,100.8 -140.8,101.4 -142,102.1 -143.2,102.9 -144.2,103.5 -145.2,104.1 -146.2,104.7 -147.2,105.3 -148.2,105.8 -149.2,106.4 -150.2,106.9 -151.2,107.5 -151.9,107.8 -152.8,108.3 -154,108.9 -155.2,109.5 -156.2,110 -157.2,110.5 -158.5,111 -159.5,111.3 -160.5,111.6 -161.5,111.8 -163,112.1 -164.1,112.2 -165.2,112.3 -166.4,112.4 -167.6,112.5 -168.3,112.4 -169.2,112.2 -170.2,111.9 -171.1,111.6 -172.3,111.1 -173.4,110.6 -174.2,110.2 -175.2,109.5 -176.3,108.6 -177,107.8 -177.8,107.1 -178.8,105.9 -179.4,105 -179.9,104.3 -180.4,103.6 -180.9,102.8 -181.1,102.4 -181.8,101.4 -182.5,100.2 -183.2,99 -184,97.6 -184.8,96.2 -185.5,94.8 -186.3,93.4 -187.3,91.7 -188.4,90 -189.7,88.2 -190.6,87 -191.4,86 -192.9,84.5 -194.4,83.1 -195.8,81.9 -197.4,80.6 -199.3,79.1 -201,78.1 -202.9,77.2 -205.3,76.1 -207.6,75.2 -209.6,74.5 -211,74.2 -212,74 -213.4,74 -214.8,74 -216.3,74 -217.8,74.1 -219.4,74.2 -220.6,74.4 -222.3,74.8 -223.9,75.2 -225.8,75.6 -227.8,76.2 -229.3,76.7 -230.5,77.1 -231.7,77.6 -232.8,78.1 -233.7,78.4 -234.8,79 -235.7,79.5 -236.8,80.2 -237.8,81 -238.8,81.8 -239.6,82.4 -240.7,83.3 -241.5,84 -242.4,84.8 -243.3,85.7 -244.2,86.6 -245,87.6 -245.8,88.6 -246.5,89.5 -247.1,90.4 -247.8,91.5 -248.3,92.3 -248.9,93.3 -249.4,94.2 -250,95.4 -250.4,96.4 -250.8,97.4 -251.2,98.5 -251.5,99.6 -251.9,100.8 -252.3,102.1 -252.6,103.5 -252.8,104.7 -253,106 -253,106.9 -253,107.9 -253.1,108.9 -253.2,109.9 -253.2,110.9 -253.2,112 -253.2,112.9 -253,114.2 -252.8,115.5 -252.7,116.7 -252.6,117.8 -252.4,119.1 -252.3,120 -252.1,121.2 -251.9,122.4 -251.7,123.6 -251.6,124.6 -251.4,125.6 -251.2,126.6 -251,127.7 -250.8,128.8 -250.5,130 -250.3,131.1 -250.1,132.3 -249.9,133.4 -249.6,134.6 -249.3,136.1 -249,137.6 -248.8,138.6 -248.4,140.1 -248.1,141.5 -247.9,142.5 -247.7,143.6 -247.4,144.6 -247.3,145.4 -247.1,146.7 -246.9,148 -246.6,149.3 -246.3,151.1 -246,152.7 -245.7,153.8 -245.4,154.9 -245.2,156.1 -245,157.5 -244.7,158.9 -244.5,160.3 -244.3,161.7 -243.9,163.5 -243.6,164.8 -243.4,166 -243.1,167.7 -242.7,169.6 -242.5,170.9 -242.3,172.3 -241.9,174.2 -241.5,176 -241.1,177.7 -240.7,179.4 -240.3,181.2 -239.9,183.1 -239.6,184.6 -239.3,186.6 -238.9,188.7 -238.4,191 -238,192.8 -237.6,194.7 -237.1,196.7 -236.7,198.7 -236.2,200.8 -235.8,202.9 -235.4,205.2 -235,207.2 -234.6,209.3 -234.2,211.4 -233.7,213.9 -233.1,216.2 -232.7,218.2 -232.2,220.7 -231.8,222.8 -231.4,225.2 -231,227.6 -230.5,230.4 -230,232.7 -229.6,235.1 -229.1,237.4 -228.6,240.2 -228.1,242.7 -227.7,245.3 -227.1,248.1 -226.7,250.4 -226.2,252.8 -225.7,255.6 -225.1,258.3 -224.6,261.2 -224,263.9 -223.5,266.7 -223,269.1 -222.5,271.9 -222,274.3 -221.4,277.4 -220.9,279.7 -220.4,282.5 -219.9,284.9 -219.4,287.6 -219,290.1 -218.4,293.2 -217.9,295.7 -217.5,298.2 -217,300.8 -216.4,303.4 -216,305.5 -215.5,308.1 -214.9,310.8 -214.3,313.5 -213.9,315.8 -213.5,318.1 -213,320.5 -212.6,322.7 -212.2,325 -211.8,327.3 -211.2,329.9 -210.8,331.9 -210.4,333.9 -210,335.8 -209.6,337.7 -209.4,339.4 -209,341.5 -208.6,343.6 -208.3,345.7 -207.9,347.8 -207.5,349.7 -207.3,351.5 -207.1,353.5 -206.9,355.4 -206.8,357.2 -206.6,359 -206.4,360.5 -206.2,361.9 -206.1,362.9 -206,364 -206.2,365.7 -206.4,367.4 -206.6,369 -206.8,370.6 -207,372.1 -207.2,373.5 -207.4,374.9 -207.7,376.2 -208.1,377.7 -208.5,379.2 -208.8,380.3 -209.2,381.3 -209.6,382.6 -210.1,383.7 -210.6,384.8 -211.1,385.8 -211.8,387.3 -212.5,388.5 -213,389.5 -213.8,390.8 -214.6,392.1 -215.2,392.9 -216.1,394.2 -217.1,395.5 -217.8,396.5 -218.5,397.5 -219.3,398.6 -219.9,399.3 -220.6,400.1 -221.5,401 -222.5,402 -223.5,403 -224.4,403.9 -225.5,404.9 -226.5,405.7 -227.7,406.7 -228.8,407.5 -229.9,408.3 -230.9,409 -231.9,409.7 -232.9,410.3 -233.9,411 -235,411.6 -236.3,412.3 -237.9,413.2 -239.5,413.9 -241.2,414.6 -243.1,415.4 -244.6,416 -245.9,416.4 -247.3,416.8 -248.6,417.2 -249.6,417.5 -250.7,417.7 -251.9,417.9 -253.2,418.1 -254.6,418.3 -256,418.5 -257.5,418.7 -259,418.9 -260.2,419 -261.6,419 -263.1,419 -264.7,419 -266.2,419 -267.9,419.1 -269.3,419.2 -270.7,419.3 -271.9,419.5 -273.3,419.7 -274.4,419.8 -275.8,419.9 -277.1,420 -278.7,420 -280,420 -281.5,420 -282.9,420 -284.5,420 -286,420 -287.7,420 -289.3,420 -291,420.1 -292.7,420.2 -294.3,420.3 -295.9,420.4 -297.6,420.5 -299.3,420.5 -301.3,420.6 -303.2,420.7 -305,420.8 -306.5,420.9 -308.1,421 -309.2,421 -310.5,421 -312,421 -313.7,421 -315.2,421 -317,421 -318.7,421 -320.4,421 -321.9,421 -323.5,421 -325.2,421 -327,421 -328.5,421 -330.6,421 -332.5,421 -334,421 -335.7,420.9 -337.6,420.8 -339.2,420.7 -340.9,420.5 -342.9,420.3 -344.7,420.2 -346.4,420.1 -348.3,419.9 -350.3,419.7 -352.2,419.5 -353.9,419.3 -355.6,419.1 -357.2,418.8 -358.8,418.6 -360.3,418.4 -362.4,418 -364.4,417.5 -366.5,417.1 -368.3,416.7 -370.1,416.2 -371.7,415.8 -373.5,415.4 -375,414.9 -377,414.3 -379,413.7 -380.5,413.2 -382.5,412.5 -384.4,411.9 -386,411.2 -387.8,410.5 -389.9,409.6 -391.3,408.9 -392.7,408.2 -394.6,407.3 -396.4,406.3 -398.2,405.3 -400.1,404.3 -402.3,403.1 -404,402.1 -405.6,401.2 -407.3,400.2 -409.1,399.1 -410.6,398.2 -412,397.3 -413.3,396.5 -414.8,395.4 -416.2,394.4 -418.1,392.9 -419.9,391.5 -421.9,389.8 -423.3,388.6 -424.8,387.2 -425.9,386.1 -427.3,384.8 -428.6,383.5 -430.3,381.8 -431.8,380.3 -433.1,379 -434.5,377.4 -436,375.8 -437,374.6 -438.4,372.9 -440,371 -441.1,369.6 -442.2,368.1 -443.8,365.9 -445.1,364.1 -446.1,362.5 -447.5,360.4 -448.8,358.3 -449.8,356.6 -450.8,354.7 -451.9,352.8 -452.8,351.1 -453.7,349.4 -454.8,347.4 -455.8,345.4 -456.9,343.1 -458,340.8 -459,338.7 -459.7,337.1 -460.5,335.1 -461.2,333.3 -461.8,331.6 -462.6,329.2 -463.3,326.7 -463.9,324.9 -464.5,322.7 -465.1,320.6 -465.4,318.8 -465.9,316.7 -466.3,314.5 -466.6,312.3 -467,309.7 -467.4,307.5 -467.6,305.7 -467.8,303.5 -468,301.5 -468,299.7 -468,297.6 -468,295.3 -468,293 -468,290.7 -468,288.4 -468,286.1 -468,283.7 -468,281.3 -468,279.1 -467.9,277.1 -467.7,274.9 -467.5,272.8 -467.3,271 -466.9,268.7 -466.6,266.4 -466.3,264.3 -465.9,262.4 -465.4,260.2 -464.9,258.1 -464.3,256 -463.7,253.7 -463.2,251.4 -462.7,249.5 -462.1,247.5 -461.6,245.5 -461.1,244 -460.3,241.9 -459.5,239.8 -458.9,238 -458,235.7 -457.1,233.4 -456.2,231 -455.3,228.6 -454.5,226.4 -453.8,224.4 -453.1,222.3 -452.4,220.4 -451.7,218.5 -450.9,216.4 -450.1,214.3 -449.2,212 -448.4,209.9 -447.6,207.8 -446.6,205.4 -445.7,203.3 -444.7,200.9 -443.9,198.8 -443,196.5 -442.2,194.4 -441.3,192 -440.6,190.2 -439.6,187.9 -438.7,185.7 -437.7,183.3 -436.9,181.2 -436.1,179.1 -435.3,177 -434.4,174.7 -433.7,172.9 -433,171.1 -432.1,168.8 -431.3,166.7 -430.6,164.8 -429.7,162.4 -428.6,159.6 -427.7,157.3 -426.8,155.1 -425.9,152.7 -425.1,150.4 -424.4,148.6 -423.6,146.5 -422.8,144.2 -422.1,142.2 -421.3,140.1 -420.5,137.9 -419.5,135.1 -418.6,132.6 -417.3,129.5 -416.2,126.9 -415.1,124 -414.2,121.7 -413.3,119.5 -412.6,117.6 -411.8,115.4 -411,113.4 -410.4,111.7 -409.5,109.4 -408.6,107.1 -407.8,105.1 -406.9,102.9 -405.9,100.4 -405.1,98.4 -404.5,96.7 -403.6,94.4 -402.7,92.1 -401.8,90.1 -401,87.9 -400,85.3 -399.3,83.3 -398.7,81.6 -397.8,79.2 -396.9,77.1 -396.1,75.1 -395.1,72.7 -394.2,70.3 -393.6,68.6 -392.7,66.3 -391.7,64 -391,62.1 -390.1,59.9 -389.1,57.3 -388.4,55.3 -387.8,53.6 -386.8,51.2 -385.8,48.8 -385,46.9 -384.1,44.7 -383.2,42.5 -382.4,40.5 -381.8,38.8 -381,36.7 -380.2,34.6 -379.4,32.5 -378.6,30.4 -377.7,27.9 -376.9,25.7 -376.2,23.8 -375.3,21.4 -374.7,19.5 -373.9,17.7 -373.2,16 -372.3,13.7 -371.6,11.9 -370.9,10.1 -370.2,8.1 -369.4,6 -368.6,3.8 -367.8,1.5 -366.8,-1 -365.8,-3.6 -364.8,-6.3 -364.1,-8.2 -363.3,-10.2 -362.4,-12.5 -361.7,-14.2 -361.1,-15.8 -360.2,-18.1 -359.4,-20.1 -358.6,-22.2 -357.9,-24.3 -357.1,-26.4 -356.3,-28.4 -355.5,-30.5 -355,-32 -354.2,-34 -353.3,-36.3 -352.6,-38.1 -352,-39.8 -351.1,-42 -350.3,-44.1 -349.6,-45.8 -349,-47.5 -348.3,-49.3 -347.5,-51.3 -346.8,-53 -346.2,-54.7 -345.3,-56.9 -344.3,-59.4 -343.7,-61.2 -343,-63.1 -342.2,-65.1 -341.5,-66.9 -341,-68.4 -340.4,-69.9 -339.6,-71.9 -338.8,-73.9 -338.1,-75.9 -337.2,-78.2 -336.3,-80.5 -335.8,-82 -335.3,-83.5 -334.5,-85.4 -333.8,-87 -333.2,-88.6 -332.8,-89.6 -332.2,-91" style="stroke: rgb(251, 191, 36); stroke-width: 7;"></polyline></svg>