<svg xmlns="http://www.w3.org/2000/svg" xmlns:xlink="http://www.w3.org/1999/xlink" preserveAspectRatio="xMidYMid meet" height="100%" viewBox="-280 -620 750 1250">
    <polygon vector-effect="non-scaling-stroke" fill="none" style="stroke: #374151; stroke-width:6" points="-55,159 -58,146 -62,134 -66,122 -69,109 -73,97 -77,84 -80,72 -84,60 -87,47 -91,35 -95,22 -98,9 -102,-3 -106,-16 -109,-29 -113,-41 -117,-54 -120,-67 -124,-80 -128,-92 -131,-105 -135,-118 -139,-131 -142,-144 -146,-156 -150,-169 -153,-182 -157,-195 -161,-208 -165,-221 -168,-234 -172,-247 -176,-259 -180,-272 -184,-285 -188,-298 -191,-311 -195,-324 -199,-337 -203,-349 -206,-360 -210,-370 -213,-380 -215,-389 -218,-397 -220,-405 -222,-412 -224,-419 -226,-425 -228,-431 -229,-437 -231,-443 -232,-448 -233,-453 -233,-458 -233,-463 -233,-468 -232,-473 -231,-478 -230,-482 -228,-487 -226,-491 -224,-495 -221,-499 -218,-503 -215,-507 -212,-511 -208,-514 -204,-518 -200,-522 -196,-525 -191,-529 -187,-532 -182,-536 -177,-539 -172,-543 -167,-546 -162,-550 -156,-553 -151,-557 -145,-560 -140,-564 -134,-567 -129,-570 -123,-572 -117,-574 -111,-576 -105,-577 -99,-577 -93,-578 -86,-578 -80,-577 -73,-577 -67,-576 -60,-575 -53,-574 -46,-573 -38,-572 -31,-571 -24,-569 -17,-568 -10,-566 -4,-564 2,-563 7,-561 12,-560 16,-558 24,-555 31,-552 37,-547 42,-542 45,-535 46,-529 45,-522 42,-517 38,-512 33,-508 27,-504 20,-500 13,-497 9,-495 5,-493 0,-491 -5,-488 -9,-486 -14,-483 -19,-480 -24,-477 -28,-473 -33,-470 -37,-465 -41,-461 -44,-457 -47,-452 -50,-447 -52,-442 -55,-437 -56,-432 -58,-426 -59,-421 -60,-415 -60,-409 -61,-403 -60,-397 -60,-390 -59,-384 -57,-378 -56,-371 -54,-365 -52,-358 -50,-351 -48,-343 -45,-336 -43,-328 -40,-320 -38,-312 -35,-303 -33,-294 -30,-285 -27,-276 -24,-267 -22,-258 -19,-248 -16,-239 -13,-229 -10,-219 -7,-208 -4,-198 -1,-188 2,-178 6,-167 9,-156 9,-156 12,-145 15,-134 18,-123 22,-112 25,-101 28,-89 32,-78 35,-66 38,-55 42,-44 45,-32 48,-20 51,-9 54,1 56,11 59,20 61,28 63,35 64,42 66,49 68,55 70,61 71,67 73,72 75,77 77,82 81,89 85,95 91,99 98,101 104,102 111,100 116,97 120,92 122,86 124,80 125,72 126,64 127,57 127,52 127,47 128,42 128,37 128,31 129,25 129,19 130,13 130,6 131,-1 132,-9 132,-16 133,-24 134,-32 134,-40 135,-49 136,-57 136,-66 136,-75 136,-85 136,-94 135,-103 133,-111 132,-120 130,-129 127,-137 124,-145 121,-154 118,-163 114,-171 110,-180 106,-189 102,-197 97,-206 93,-215 88,-224 83,-233 77,-242 72,-252 67,-261 63,-270 60,-278 57,-287 54,-295 53,-303 52,-311 52,-318 52,-326 52,-333 53,-340 55,-348 57,-355 60,-361 63,-368 67,-375 71,-381 76,-387 80,-393 85,-399 90,-404 94,-409 98,-413 102,-416 106,-420 113,-426 121,-430 128,-433 133,-434 140,-433 144,-432 151,-429 155,-427 158,-424 163,-418 167,-412 170,-404 172,-400 173,-395 174,-391 175,-386 176,-381 176,-376 177,-371 177,-365 178,-360 178,-354 179,-349 179,-343 180,-337 180,-331 181,-325 181,-318 182,-312 183,-305 184,-299 185,-292 186,-285 187,-278 188,-271 189,-264 190,-257 190,-250 191,-242 192,-235 192,-227 193,-220 194,-212 194,-204 195,-196 195,-188 196,-180 197,-172 198,-163 200,-155 202,-147 204,-139 206,-131 209,-123 213,-115 217,-107 221,-100 225,-93 230,-86 235,-79 241,-72 247,-66 253,-60 260,-55 267,-50 274,-45 282,-41 289,-37 297,-33 305,-29 313,-25 321,-21 329,-18 337,-14 345,-10 353,-7 361,-3 370,1 378,4 386,9 393,13 400,18 406,23 412,28 417,34 422,40 426,46 430,52 433,58 436,64 438,69 440,75 441,81 442,87 442,93 441,98 440,104 439,109 437,114 434,118 431,122 428,126 424,129 420,132 416,135 411,137 407,138 402,140 397,141 392,142 386,142 381,143 375,144 369,146 363,147 357,148 357,148 351,149 344,151 338,153 331,155 324,157 317,159 310,162 303,165 296,168 289,171 282,175 275,179 268,183 261,188 255,193 249,199 244,205 239,211 234,218 230,225 226,232 223,240 220,248 218,255 215,263 214,272 212,280 210,288 209,296 207,305 206,313 205,321 203,329 203,336 202,343 201,348 201,354 201,359 201,364 201,369 201,374 203,380 206,387 210,393 216,397 222,400 230,401 235,401 239,401 245,399 249,397 257,393 261,390 264,387 268,384 272,380 275,377 279,373 282,368 286,364 289,359 292,354 295,348 299,343 302,337 305,331 309,325 313,320 317,314 321,309 325,304 329,299 334,295 338,291 342,288 346,286 351,284 356,282 361,280 366,279 370,279 375,279 380,279 384,280 388,282 393,284 397,286 401,289 404,292 408,296 411,300 414,305 417,309 419,314 421,319 423,325 425,331 426,337 426,343 426,349 426,355 425,362 423,368 421,374 419,381 416,387 412,394 409,400 405,406 400,413 395,419 390,426 385,432 380,439 374,446 369,453 363,460 357,468 351,475 344,483 338,490 331,498 325,505 318,512 312,518 305,524 298,530 291,535 283,540 276,545 268,549 261,553 253,556 245,559 237,561 229,563 221,564 214,565 206,566 198,567 189,567 181,567 173,566 164,565 156,564 148,562 139,560 131,557 123,554 114,550 106,546 98,541 90,535 82,529 75,523 68,516 61,508 54,500 48,492 42,483 37,473 33,464 28,453 25,443 22,433 19,422 16,411 13,400 10,389 7,378 4,367 0,355 -3,344 -6,333 -9,322 -12,310 -16,299 -19,287 -22,276 -25,264 -29,252 -32,241 -35,229 -39,217 -42,206 -45,194 -49,182 -52,170 -54,164 -55,159"></polygon>
    <polyline vector-effect="non-scaling-stroke" fill="none" style="stroke: #EF4444; stroke-width:4" points="-55,159 -58,146 -62,134 -66,122 -69,109 -73,97 -77,84 -80,72 -84,60 -87,47 -91,35 -95,22 -98,9 -102,-3 -106,-16 -109,-29 -113,-41 -117,-54 -120,-67 -124,-80 -128,-92 -131,-105 -135,-118 -139,-131 -142,-144 -146,-156 -150,-169 -153,-182 -157,-195 -161,-208 -165,-221 -168,-234 -172,-247 -176,-259 -180,-272 -184,-285 -188,-298 -191,-311 -195,-324 -199,-337 -203,-349 -206,-360 -210,-370 -213,-380 -215,-389 -218,-397 -220,-405 -222,-412 -224,-419 -226,-425 -228,-431 -229,-437 -231,-443 -232,-448 -233,-453 -233,-458 -233,-463 -233,-468 -232,-473 -231,-478 -230,-482 -228,-487 -226,-491 -224,-495 -221,-499 -218,-503 -215,-507 -212,-511 -208,-514 -204,-518 -200,-522 -196,-525 -191,-529 -187,-532 -182,-536 -177,-539 -172,-543 -167,-546 -162,-550 -156,-553 -151,-557 -145,-560 -140,-564 -134,-567 -129,-570 -123,-572 -117,-574 -111,-576 -105,-577 -99,-577 -93,-578 -86,-578 -80,-577 -73,-577 -67,-576 -60,-575 -53,-574 -46,-573 -38,-572 -31,-571 -24,-569 -17,-568 -10,-566 -4,-564 2,-563 7,-561 12,-560 16,-558 24,-555 31,-552 37,-547 42,-542 45,-535 46,-529 45,-522 42,-517 38,-512 33,-508 27,-504 20,-500 13,-497 9,-495 5,-493 0,-491 -5,-488 -9,-486 -14,-483 -19,-480 -24,-477 -28,-473 -33,-470 -37,-465 -41,-461 -44,-457 -47,-452 -50,-447 -52,-442 -55,-437 -56,-432 -58,-426 -59,-421 -60,-415 -60,-409 -61,-403 -60,-397 -60,-390 -59,-384 -57,-378 -56,-371 -54,-365 -52,-358 -50,-351 -48,-343 -45,-336 -43,-328 -40,-320 -38,-312 -35,-303 -33,-294 -30,-285 -27,-276 -24,-267 -22,-258 -19,-248 -16,-239 -13,-229 -10,-219 -7,-208 -4,-198 -1,-188 2,-178 6,-167 9,-156"></polyline>
    <polyline vector-effect="non-scaling-stroke" fill="none" style="stroke: #3B82F6; stroke-width:4" points="9,-156 12,-145 15,-134 18,-123 22,-112 25,-101 28,-89 32,-78 35,-66 38,-55 42,-44 45,-32 48,-20 51,-9 54,1 56,11 59,20 61,28 63,35 64,42 66,49 68,55 70,61 71,67 73,72 75,77 77,82 81,89 85,95 91,99 98,101 104,102 111,100 116,97 120,92 122,86 124,80 125,72 126,64 127,57 127,52 127,47 128,42 128,37 128,31 129,25 129,19 130,13 130,6 131,-1 132,-9 132,-16 133,-24 134,-32 134,-40 135,-49 136,-57 136,-66 136,-75 136,-85 136,-94 135,-103 133,-111 132,-120 130,-129 127,-137 124,-145 121,-154 118,-163 114,-171 110,-180 106,-189 102,-197 97,-206 93,-215 88,-224 83,-233 77,-242 72,-252 67,-261 63,-270 60,-278 57,-287 54,-295 53,-303 52,-311 52,-318 52,-326 52,-333 53,-340 55,-348 57,-355 60,-361 63,-368 67,-375 71,-381 76,-387 80,-393 85,-399 90,-404 94,-409 98,-413 102,-416 106,-420 113,-426 121,-430 128,-433 133,-434 140,-433 144,-432 151,-429 155,-427 158,-424 163,-418 167,-412 170,-404 172,-400 173,-395 174,-391 175,-386 176,-381 176,-376 177,-371 177,-365 178,-360 178,-354 179,-349 179,-343 180,-337 180,-331 181,-325 181,-318 182,-312 183,-305 184,-299 185,-292 186,-285 187,-278 188,-271 189,-264 190,-257 190,-250 191,-242 192,-235 192,-227 193,-220 194,-212 194,-204 195,-196 195,-188 196,-180 197,-172 198,-163 200,-155 202,-147 204,-139 206,-131 209,-123 213,-115 217,-107 221,-100 225,-93 230,-86 235,-79 241,-72 247,-66 253,-60 260,-55 267,-50 274,-45 282,-41 289,-37 297,-33 305,-29 313,-25 321,-21 329,-18 337,-14 345,-10 353,-7 361,-3 370,1 378,4 386,9 393,13 400,18 406,23 412,28 417,34 422,40 426,46 430,52 433,58 436,64 438,69 440,75 441,81 442,87 442,93 441,98 440,104 439,109 437,114 434,118 431,122 428,126 424,129 420,132 416,135 411,137 407,138 402,140 397,141 392,142 386,142 381,143 375,144 369,146 363,147 357,148"></polyline>
    <polyline vector-effect="non-scaling-stroke" fill="none" style="stroke: #FBBF24; stroke-width:4" points="357,148 351,149 344,151 338,153 331,155 324,157 317,159 310,162 303,165 296,168 289,171 282,175 275,179 268,183 261,188 255,193 249,199 244,205 239,211 234,218 230,225 226,232 223,240 220,248 218,255 215,263 214,272 212,280 210,288 209,296 207,305 206,313 205,321 203,329 203,336 202,343 201,348 201,354 201,359 201,364 201,369 201,374 203,380 206,387 210,393 216,397 222,400 230,401 235,401 239,401 245,399 249,397 257,393 261,390 264,387 268,384 272,380 275,377 279,373 282,368 286,364 289,359 292,354 295,348 299,343 302,337 305,331 309,325 313,320 317,314 321,309 325,304 329,299 334,295 338,291 342,288 346,286 351,284 356,282 361,280 366,279 370,279 375,279 380,279 384,280 388,282 393,284 397,286 401,289 404,292 408,296 411,300 414,305 417,309 419,314 421,319 423,325 425,331 426,337 426,343 426,349 426,355 425,362 423,368 421,374 419,381 416,387 412,394 409,400 405,406 400,413 395,419 390,426 385,432 380,439 374,446 369,453 363,460 357,468 351,475 344,483 338,490 331,498 325,505 318,512 312,518 305,524 298,530 291,535 283,540 276,545 268,549 261,553 253,556 245,559 237,561 229,563 221,564 214,565 206,566 198,567 189,567 181,567 173,566 164,565 156,564 148,562 139,560 131,557 123,554 114,550 106,546 98,541 90,535 82,529 75,523 68,516 61,508 54,500 48,492 42,483 37,473 33,464 28,453 25,443 22,433 19,422 16,411 13,400 10,389 7,378 4,367 0,355 -3,344 -6,333 -9,322 -12,310 -16,299 -19,287 -22,276 -25,264 -29,252 -32,241 -35,229 -39,217 -42,206 -45,194 -49,182 -52,170 -54,164 -55,159"></polyline>
</svg>