<svg xmlns="http://www.w3.org/2000/svg" xmlns:xlink="http://www.w3.org/1999/xlink" preserveAspectRatio="xMidYMid meet" height="100%" viewBox="-900 -600 1900 1250">
    <polygon vector-effect="non-scaling-stroke" fill="none" style="stroke: #374151; stroke-width:6" points="  928,-446 925,-442 922,-438 920,-433 917,-429 914,-425 910,-420 907,-415 904,-410 901,-405 897,-400 894,-394 891,-389 887,-384 884,-379 881,-373 877,-367 874,-361 870,-355 866,-349 862,-343 858,-337 855,-331 851,-325 847,-318 843,-312 839,-306 835,-299 831,-293 827,-287 823,-281 819,-274 815,-268 811,-261 807,-254 803,-247 798,-240 794,-233 790,-226 785,-218 781,-211 776,-204 772,-198 768,-190 763,-183 759,-176 754,-170 750,-163 745,-156 740,-148 735,-142 730,-135 725,-129 719,-122 714,-114 708,-107 703,-101 698,-94 693,-88 687,-81 681,-74 675,-67 669,-61 662,-55 656,-49 650,-43 643,-37 635,-31 628,-25 621,-20 614,-15 606,-10 598,-5 591,-1 582,4 574,8 566,12 558,16 549,19 540,23 532,26 523,30 514,33 505,36 497,38 488,41 479,44 470,47 461,49 452,52 443,54 434,57 425,59 415,62 406,64 396,67 388,69 378,72 369,75 359,78 350,80 342,83 332,86 323,88 313,91 304,94 295,97 285,99 277,102 267,105 258,107 249,110 240,112 230,115 221,118 212,120 204,123 195,126 186,128 176,131 167,134 158,136 149,139 140,142 131,144 122,147 113,149 104,152 95,155 85,158 76,160 67,163 59,165 52,168 45,170 38,172 32,173 26,175 20,177 15,178 10,179 6,180 1,181 -3,181 -7,182 -13,181 -19,181 -23,180 -26,179 -30,177 -33,175 -37,173 -40,171 -43,169 -46,166 -49,163 -52,159 -54,155 -56,152 -58,148 -60,145 -63,141 -65,136 -67,133 -70,129 -73,124 -76,120 -79,116 -82,111 -86,107 -89,103 -93,98 -97,94 -101,90 -106,85 -111,80 -115,76 -120,72 -125,68 -130,64 -135,60 -140,56 -146,52 -151,48 -157,44 -163,40 -169,37 -175,33 -181,29 -187,25 -194,22 -201,18 -208,15 -214,12 -221,9 -229,6 -237,4 -244,2 -255,-1 -263,-2 -271,-3 -279,-4 -287,-4 -295,-4 -303,-4 -312,-3 -320,-2 -332,1 -339,3 -348,6 -355,9 -363,12 -371,16 -378,20 -385,25 -392,29 -399,34 -406,40 -412,46 -419,52 -424,58 -430,65 -435,71 -440,79 -444,86 -448,93 -451,101 -454,108 -456,116 -459,125 -460,133 -462,141 -463,149 -463,157 -464,166 -464,175 -463,184 -463,193 -462,201 -460,210 -459,218 -457,227 -454,235 -451,243 -448,252 -444,259 -440,267 -436,275 -431,283 -427,290 -423,298 -419,305 -415,312 -411,319 -408,325 -405,331 -402,337 -399,343 -396,348 -394,353 -393,358 -392,363 -391,368 -391,373 -391,378 -391,383 -392,387 -393,392 -394,397 -396,402 -398,406 -400,410 -402,414 -405,418 -409,423 -412,427 -416,430 -420,434 -424,437 -428,440 -433,443 -438,446 -443,449 -448,452 -453,455 -459,459 -464,462 -470,465 -475,468 -481,472 -486,475 -492,478 -498,482 -504,486 -509,489 -515,493 -521,497 -527,500 -534,504 -540,508 -546,512 -552,516 -558,520 -565,524 -571,528 -577,531 -584,535 -590,540 -597,544 -604,548 -611,552 -617,556 -624,560 -631,565 -637,569 -645,573 -651,577 -659,582   -659,582 -665,586 -672,590 -679,595 -685,598 -690,602 -696,605 -700,608 -705,611 -710,613 -714,615 -718,617 -722,618 -727,619 -731,620 -735,621 -739,621 -743,621 -747,620 -752,620 -756,619 -760,618 -764,616 -767,614 -771,612 -774,610 -778,608 -781,605 -784,602 -787,598 -789,595 -792,591 -795,587 -797,583 -799,579 -801,574 -803,570 -805,565 -807,560 -809,555 -812,550 -814,545 -816,539 -819,534 -821,529 -824,523 -826,518 -828,512 -831,507 -834,500 -836,494 -839,488 -841,482 -844,476 -847,470 -849,463 -852,457 -854,450 -856,444 -859,437 -861,430 -863,423 -864,416 -866,408 -868,401 -869,394 -870,386 -871,378 -872,371 -873,362 -873,355 -873,347 -873,339 -873,331 -872,323 -872,315 -871,307 -870,299 -869,293 -868,286 -867,280 -866,274 -864,269 -863,264 -861,259 -859,254 -856,250 -854,246 -851,242 -848,238 -845,235 -841,232 -837,229 -833,226 -829,223 -824,221 -819,219 -814,217 -810,215 -804,213 -799,212 -793,211 -788,210 -782,209 -776,208 -770,208 -764,207 -758,207 -752,206 -745,206 -739,206 -732,206 -726,206 -719,205 -712,205 -705,204 -698,204 -691,203 -684,202 -677,202 -670,201 -662,200 -655,199 -647,198 -639,197 -631,195 -623,194 -615,193 -608,192 -601,190 -595,189 -589,187 -584,185 -579,183 -574,180 -569,178 -565,175 -561,172 -557,169 -553,166 -550,162 -547,158 -544,155 -541,150 -538,146 -536,141 -534,136 -532,131 -530,126 -528,121 -527,115 -526,110 -525,104 -524,98 -524,91 -524,85 -524,79 -525,73 -525,66 -526,60 -528,53 -529,47 -531,40 -533,34 -535,28 -538,21 -541,15 -544,9 -547,2 -550,-4 -554,-11 -558,-18 -561,-24 -565,-30 -568,-37 -572,-44 -575,-51 -578,-58 -582,-65 -585,-72 -588,-79 -591,-86 -594,-94 -597,-101 -600,-107 -603,-113 -605,-120 -608,-125 -610,-130 -611,-134 -613,-139 -615,-144 -616,-149 -616,-153 -617,-157 -617,-162 -617,-166 -617,-170 -616,-174 -615,-177 -613,-181 -612,-185 -610,-188 -607,-192 -605,-195 -602,-199 -599,-202 -596,-205 -593,-208 -589,-211 -585,-214 -581,-216 -577,-219 -572,-221 -568,-223 -563,-226 -558,-228 -553,-230 -548,-232 -542,-233 -537,-235 -531,-237 -525,-239 -519,-241 -513,-242 -507,-244 -501,-246 -495,-247 -488,-249 -481,-250 -475,-252 -468,-253 -461,-254 -454,-255 -446,-256 -439,-257 -432,-258 -425,-259 -417,-260 -409,-261 -401,-261 -394,-261 -386,-261 -379,-261 -370,-261 -362,-260 -354,-260 -345,-259 -338,-259 -330,-258 -322,-257 -314,-256 -306,-255 -298,-254 -289,-253 -280,-252 -272,-251 -264,-250 -255,-249 -247,-247 -239,-246 -230,-245 -221,-243 -213,-242 -204,-240 -196,-238 -188,-236 -179,-235 -170,-233 -161,-231 -152,-228 -143,-226 -134,-224 -126,-222 -117,-219 -108,-217 -99,-214 -90,-211 -82,-209 -73,-206 -64,-203 -55,-200 -47,-197 -38,-193 -29,-190 -21,-187 -12,-184 -3,-180 5,-177 13,-173 21,-170 30,-166 39,-163 48,-159 56,-156 65,-152 73,-149 82,-145 91,-142 100,-138 108,-135 117,-131 126,-128 135,-125 145,-122 153,-119 163,-116 172,-113 181,-111 190,-109 199,-107 209,-105   209,-105 218,-104 228,-102 237,-101 247,-100 257,-99 265,-99 275,-99 284,-99 294,-99 303,-100 312,-101 322,-102 331,-103 341,-104 350,-106 358,-108 366,-110 373,-112 380,-114 387,-116 393,-118 398,-119 403,-121 408,-122 412,-123 416,-124 420,-124 425,-125 428,-125 434,-125 438,-124 441,-123 446,-121 449,-120 452,-118 455,-116 457,-114 460,-112 463,-108 466,-104 469,-99 471,-94 472,-91 474,-84 475,-80 476,-76 477,-72 478,-68 479,-64 480,-60 481,-57 483,-54 485,-51 487,-48 489,-45 491,-43 494,-40 496,-38 499,-36 502,-35 505,-33 510,-31 514,-30 518,-29 522,-28 530,-27 536,-27 540,-27 544,-28 548,-28 552,-29 556,-31 561,-32 565,-34 569,-36 574,-38 578,-40 582,-43 587,-46 591,-49 595,-53 599,-56 603,-60 607,-64 611,-69 615,-73 619,-78 623,-83 626,-88 630,-93 634,-99 638,-104 642,-110 645,-115 649,-120 652,-126 656,-131 659,-135 662,-140 664,-144 667,-148 669,-152 671,-155 673,-159 674,-163 676,-168 677,-173 678,-179 677,-183 677,-187 675,-192 673,-195 671,-199 668,-202 664,-206 660,-209 656,-212 651,-215 647,-218 644,-220 640,-223 635,-227 632,-230 630,-233 628,-236 626,-240 624,-243 622,-246 621,-250 620,-254 620,-258 619,-262 619,-266 619,-270 620,-274 620,-278 621,-282 623,-286 624,-290 626,-294 628,-299 631,-303 633,-307 635,-311 638,-315 641,-320 644,-325 647,-329 650,-334 653,-339 656,-344 659,-349 662,-354 666,-359 669,-365 672,-370 676,-376 680,-382 683,-387 687,-393 690,-399 694,-404 697,-410 701,-416 705,-422 709,-428 713,-435 716,-441 720,-447 724,-454 727,-460 731,-466 735,-473 739,-480 742,-486 746,-493 750,-499 754,-506 758,-512 761,-518 764,-524 767,-529 770,-534 773,-538 776,-543 779,-547 782,-550 785,-553 788,-556 791,-559 797,-562 800,-564 804,-566 808,-567 811,-568 816,-569 820,-570 824,-570 829,-570 833,-569 837,-569 841,-568 846,-567 850,-565 855,-564 859,-562 864,-561 869,-559 873,-557 879,-555 884,-553 889,-550 894,-548 900,-546 905,-544 910,-542 914,-540 918,-539 922,-537 925,-535 930,-531 933,-529 937,-525 941,-521 943,-518 944,-515 946,-512 947,-508 948,-505 949,-501 949,-498 949,-494 949,-489 948,-483 947,-480 945,-475 943,-471 941,-468 939,-464 937,-461 935,-457 932,-453 930,-449 928,-446  "></polygon>
    <polyline vector-effect="non-scaling-stroke" fill="none" style="stroke: #EF4444; stroke-width:4" points=" 928,-446 925,-442 922,-438 920,-433 917,-429 914,-425 910,-420 907,-415 904,-410 901,-405 897,-400 894,-394 891,-389 887,-384 884,-379 881,-373 877,-367 874,-361 870,-355 866,-349 862,-343 858,-337 855,-331 851,-325 847,-318 843,-312 839,-306 835,-299 831,-293 827,-287 823,-281 819,-274 815,-268 811,-261 807,-254 803,-247 798,-240 794,-233 790,-226 785,-218 781,-211 776,-204 772,-198 768,-190 763,-183 759,-176 754,-170 750,-163 745,-156 740,-148 735,-142 730,-135 725,-129 719,-122 714,-114 708,-107 703,-101 698,-94 693,-88 687,-81 681,-74 675,-67 669,-61 662,-55 656,-49 650,-43 643,-37 635,-31 628,-25 621,-20 614,-15 606,-10 598,-5 591,-1 582,4 574,8 566,12 558,16 549,19 540,23 532,26 523,30 514,33 505,36 497,38 488,41 479,44 470,47 461,49 452,52 443,54 434,57 425,59 415,62 406,64 396,67 388,69 378,72 369,75 359,78 350,80 342,83 332,86 323,88 313,91 304,94 295,97 285,99 277,102 267,105 258,107 249,110 240,112 230,115 221,118 212,120 204,123 195,126 186,128 176,131 167,134 158,136 149,139 140,142 131,144 122,147 113,149 104,152 95,155 85,158 76,160 67,163 59,165 52,168 45,170 38,172 32,173 26,175 20,177 15,178 10,179 6,180 1,181 -3,181 -7,182 -13,181 -19,181 -23,180 -26,179 -30,177 -33,175 -37,173 -40,171 -43,169 -46,166 -49,163 -52,159 -54,155 -56,152 -58,148 -60,145 -63,141 -65,136 -67,133 -70,129 -73,124 -76,120 -79,116 -82,111 -86,107 -89,103 -93,98 -97,94 -101,90 -106,85 -111,80 -115,76 -120,72 -125,68 -130,64 -135,60 -140,56 -146,52 -151,48 -157,44 -163,40 -169,37 -175,33 -181,29 -187,25 -194,22 -201,18 -208,15 -214,12 -221,9 -229,6 -237,4 -244,2 -255,-1 -263,-2 -271,-3 -279,-4 -287,-4 -295,-4 -303,-4 -312,-3 -320,-2 -332,1 -339,3 -348,6 -355,9 -363,12 -371,16 -378,20 -385,25 -392,29 -399,34 -406,40 -412,46 -419,52 -424,58 -430,65 -435,71 -440,79 -444,86 -448,93 -451,101 -454,108 -456,116 -459,125 -460,133 -462,141 -463,149 -463,157 -464,166 -464,175 -463,184 -463,193 -462,201 -460,210 -459,218 -457,227 -454,235 -451,243 -448,252 -444,259 -440,267 -436,275 -431,283 -427,290 -423,298 -419,305 -415,312 -411,319 -408,325 -405,331 -402,337 -399,343 -396,348 -394,353 -393,358 -392,363 -391,368 -391,373 -391,378 -391,383 -392,387 -393,392 -394,397 -396,402 -398,406 -400,410 -402,414 -405,418 -409,423 -412,427 -416,430 -420,434 -424,437 -428,440 -433,443 -438,446 -443,449 -448,452 -453,455 -459,459 -464,462 -470,465 -475,468 -481,472 -486,475 -492,478 -498,482 -504,486 -509,489 -515,493 -521,497 -527,500 -534,504 -540,508 -546,512 -552,516 -558,520 -565,524 -571,528 -577,531 -584,535 -590,540 -597,544 -604,548 -611,552 -617,556 -624,560 -631,565 -637,569 -645,573 -651,577 -659,582 "></polyline>
    <polyline vector-effect="non-scaling-stroke" fill="none" style="stroke: #3B82F6; stroke-width:4" points=" -659,582 -665,586 -672,590 -679,595 -685,598 -690,602 -696,605 -700,608 -705,611 -710,613 -714,615 -718,617 -722,618 -727,619 -731,620 -735,621 -739,621 -743,621 -747,620 -752,620 -756,619 -760,618 -764,616 -767,614 -771,612 -774,610 -778,608 -781,605 -784,602 -787,598 -789,595 -792,591 -795,587 -797,583 -799,579 -801,574 -803,570 -805,565 -807,560 -809,555 -812,550 -814,545 -816,539 -819,534 -821,529 -824,523 -826,518 -828,512 -831,507 -834,500 -836,494 -839,488 -841,482 -844,476 -847,470 -849,463 -852,457 -854,450 -856,444 -859,437 -861,430 -863,423 -864,416 -866,408 -868,401 -869,394 -870,386 -871,378 -872,371 -873,362 -873,355 -873,347 -873,339 -873,331 -872,323 -872,315 -871,307 -870,299 -869,293 -868,286 -867,280 -866,274 -864,269 -863,264 -861,259 -859,254 -856,250 -854,246 -851,242 -848,238 -845,235 -841,232 -837,229 -833,226 -829,223 -824,221 -819,219 -814,217 -810,215 -804,213 -799,212 -793,211 -788,210 -782,209 -776,208 -770,208 -764,207 -758,207 -752,206 -745,206 -739,206 -732,206 -726,206 -719,205 -712,205 -705,204 -698,204 -691,203 -684,202 -677,202 -670,201 -662,200 -655,199 -647,198 -639,197 -631,195 -623,194 -615,193 -608,192 -601,190 -595,189 -589,187 -584,185 -579,183 -574,180 -569,178 -565,175 -561,172 -557,169 -553,166 -550,162 -547,158 -544,155 -541,150 -538,146 -536,141 -534,136 -532,131 -530,126 -528,121 -527,115 -526,110 -525,104 -524,98 -524,91 -524,85 -524,79 -525,73 -525,66 -526,60 -528,53 -529,47 -531,40 -533,34 -535,28 -538,21 -541,15 -544,9 -547,2 -550,-4 -554,-11 -558,-18 -561,-24 -565,-30 -568,-37 -572,-44 -575,-51 -578,-58 -582,-65 -585,-72 -588,-79 -591,-86 -594,-94 -597,-101 -600,-107 -603,-113 -605,-120 -608,-125 -610,-130 -611,-134 -613,-139 -615,-144 -616,-149 -616,-153 -617,-157 -617,-162 -617,-166 -617,-170 -616,-174 -615,-177 -613,-181 -612,-185 -610,-188 -607,-192 -605,-195 -602,-199 -599,-202 -596,-205 -593,-208 -589,-211 -585,-214 -581,-216 -577,-219 -572,-221 -568,-223 -563,-226 -558,-228 -553,-230 -548,-232 -542,-233 -537,-235 -531,-237 -525,-239 -519,-241 -513,-242 -507,-244 -501,-246 -495,-247 -488,-249 -481,-250 -475,-252 -468,-253 -461,-254 -454,-255 -446,-256 -439,-257 -432,-258 -425,-259 -417,-260 -409,-261 -401,-261 -394,-261 -386,-261 -379,-261 -370,-261 -362,-260 -354,-260 -345,-259 -338,-259 -330,-258 -322,-257 -314,-256 -306,-255 -298,-254 -289,-253 -280,-252 -272,-251 -264,-250 -255,-249 -247,-247 -239,-246 -230,-245 -221,-243 -213,-242 -204,-240 -196,-238 -188,-236 -179,-235 -170,-233 -161,-231 -152,-228 -143,-226 -134,-224 -126,-222 -117,-219 -108,-217 -99,-214 -90,-211 -82,-209 -73,-206 -64,-203 -55,-200 -47,-197 -38,-193 -29,-190 -21,-187 -12,-184 -3,-180 5,-177 13,-173 21,-170 30,-166 39,-163 48,-159 56,-156 65,-152 73,-149 82,-145 91,-142 100,-138 108,-135 117,-131 126,-128 135,-125 145,-122 153,-119 163,-116 172,-113 181,-111 190,-109 199,-107 209,-105 "></polyline>
    <polyline vector-effect="non-scaling-stroke" fill="none" style="stroke: #FBBF24; stroke-width:4" points=" 209,-105 218,-104 228,-102 237,-101 247,-100 257,-99 265,-99 275,-99 284,-99 294,-99 303,-100 312,-101 322,-102 331,-103 341,-104 350,-106 358,-108 366,-110 373,-112 380,-114 387,-116 393,-118 398,-119 403,-121 408,-122 412,-123 416,-124 420,-124 425,-125 428,-125 434,-125 438,-124 441,-123 446,-121 449,-120 452,-118 455,-116 457,-114 460,-112 463,-108 466,-104 469,-99 471,-94 472,-91 474,-84 475,-80 476,-76 477,-72 478,-68 479,-64 480,-60 481,-57 483,-54 485,-51 487,-48 489,-45 491,-43 494,-40 496,-38 499,-36 502,-35 505,-33 510,-31 514,-30 518,-29 522,-28 530,-27 536,-27 540,-27 544,-28 548,-28 552,-29 556,-31 561,-32 565,-34 569,-36 574,-38 578,-40 582,-43 587,-46 591,-49 595,-53 599,-56 603,-60 607,-64 611,-69 615,-73 619,-78 623,-83 626,-88 630,-93 634,-99 638,-104 642,-110 645,-115 649,-120 652,-126 656,-131 659,-135 662,-140 664,-144 667,-148 669,-152 671,-155 673,-159 674,-163 676,-168 677,-173 678,-179 677,-183 677,-187 675,-192 673,-195 671,-199 668,-202 664,-206 660,-209 656,-212 651,-215 647,-218 644,-220 640,-223 635,-227 632,-230 630,-233 628,-236 626,-240 624,-243 622,-246 621,-250 620,-254 620,-258 619,-262 619,-266 619,-270 620,-274 620,-278 621,-282 623,-286 624,-290 626,-294 628,-299 631,-303 633,-307 635,-311 638,-315 641,-320 644,-325 647,-329 650,-334 653,-339 656,-344 659,-349 662,-354 666,-359 669,-365 672,-370 676,-376 680,-382 683,-387 687,-393 690,-399 694,-404 697,-410 701,-416 705,-422 709,-428 713,-435 716,-441 720,-447 724,-454 727,-460 731,-466 735,-473 739,-480 742,-486 746,-493 750,-499 754,-506 758,-512 761,-518 764,-524 767,-529 770,-534 773,-538 776,-543 779,-547 782,-550 785,-553 788,-556 791,-559 797,-562 800,-564 804,-566 808,-567 811,-568 816,-569 820,-570 824,-570 829,-570 833,-569 837,-569 841,-568 846,-567 850,-565 855,-564 859,-562 864,-561 869,-559 873,-557 879,-555 884,-553 889,-550 894,-548 900,-546 905,-544 910,-542 914,-540 918,-539 922,-537 925,-535 930,-531 933,-529 937,-525 941,-521 943,-518 944,-515 946,-512 947,-508 948,-505 949,-501 949,-498 949,-494 949,-489 948,-483 947,-480 945,-475 943,-471 941,-468 939,-464 937,-461 935,-457 932,-453 930,-449 928,-446 "></polyline>
</svg>