<svg xmlns="http://www.w3.org/2000/svg" xmlns:xlink="http://www.w3.org/1999/xlink" preserveAspectRatio="xMidYMid meet" height="100%" viewBox="-312 -1386 624 2774"><polygon vector-effect="non-scaling-stroke" fill="none" points="167.2,804.5 166.9,803.8 166.6,803 166.2,801.9 165.8,800.8 165.3,799.3 165,798.2 164.7,797.3 164.4,796.4 164,795.1 163.6,794 163.2,792.9 162.8,791.8 162.4,790.7 162,789.7 161.7,788.8 161.3,787.6 160.9,786.4 160.5,785.2 160.2,784 159.7,782.7 159.3,781.7 158.9,780.7 158.5,779.6 158.2,778.8 157.9,777.8 157.6,776.8 157.2,775.5 156.7,774.1 156.2,772.6 155.8,771.5 155.4,770.4 155,769.2 154.7,768.2 154.2,766.9 153.8,765.6 153.4,764.3 153,763.1 152.6,761.8 152.2,760.6 151.7,759.2 151.1,757.8 150.7,756.6 150.2,755.2 149.8,754.1 149.4,752.8 149,751.5 148.6,750.3 148.1,749 147.7,747.7 147.2,746.5 146.8,745.2 146.2,743.6 145.8,742.3 145.2,740.7 144.8,739.3 144.2,737.7 143.8,736.3 143.2,734.7 142.8,733.3 142.2,731.7 141.8,730.3 141.2,728.7 140.7,727.1 140.1,725.6 139.6,724 139,722.4 138.5,720.8 138,719.4 137.5,718 137,716.5 136.4,714.7 135.8,713 135.2,711.3 134.6,709.2 134,707.6 133.3,705.8 132.7,704.1 132.1,702.5 131.6,701.2 131,699.4 130.6,697.8 130,696.1 129.4,694.3 128.7,692.2 128.1,690.5 127.6,689.2 127,687.4 126.4,685.6 125.8,683.8 125.2,682.1 124.6,680.3 124,678.5 123.4,676.7 122.8,674.9 122.1,672.9 121.4,670.9 120.9,669.5 120.3,667.7 119.8,666.2 119.2,664.3 118.5,662.5 117.9,660.7 117.2,658.7 116.5,656.7 116,655.2 115.3,653 114.6,650.8 114.1,649.3 113.4,647.5 112.8,645.7 112.2,643.9 111.6,642.1 111,640.2 110.3,638.1 109.6,636 109.1,634.5 108.3,632.5 107.6,630.5 107.1,629 106.3,627 105.6,625 105.1,623.5 104.4,621.6 103.8,619.7 103.2,617.7 102.5,615.8 101.8,613.6 101.1,611.6 100.3,609.6 99.8,608.2 99.1,606.1 98.4,604.3 97.8,602.4 97.2,600.5 96.4,598.3 95.8,596.5 95.2,594.7 94.7,593.2 94,591.1 93.4,589.3 92.8,587.4 92.2,585.5 91.4,583.3 90.8,581.5 90.2,579.7 89.4,577.7 88.7,575.7 88.1,574 87.4,572.1 86.8,570.3 86.2,568.5 85.5,566.7 84.9,564.9 84.2,563 83.5,561 83,559.5 82.4,557.6 81.8,555.8 81.2,554 80.5,552.2 79.9,550.4 79.3,548.6 78.4,546.2 77.8,544.3 77.2,542.5 76.4,540.3 75.5,537.8 74.8,535.8 74,533.5 73.2,531.1 72.6,529.2 72,527.4 71.4,525.6 70.8,523.8 70.2,522 69.3,519.6 68.7,517.9 68.1,516.2 67.3,514.3 66.6,512.4 66.1,511 65.4,509.1 64.7,506.9 64.1,505.1 63.4,503.3 62.8,501.5 62.2,499.7 61.5,497.9 60.9,496 60.3,494.2 59.5,492.1 58.9,490.4 58.3,488.6 57.7,486.8 57.1,484.9 56.5,483.1 55.9,481.3 55.3,479.5 54.6,477.7 54,475.9 53.4,474 52.8,472.2 52.1,470.3 51.5,468.6 50.9,466.9 50.3,465.1 49.5,462.9 48.9,461.1 48.3,459.3 47.7,457.5 47.1,455.7 46.5,453.9 45.9,452 45.3,450.2 44.6,448.4 44,446.6 43.4,444.8 42.8,443 42.2,441.2 41.5,439.1 40.9,437.4 40.3,435.6 39.8,434 39.2,432.1 38.6,430.3 38,428.5 37.4,426.7 36.8,425 36.2,423.2 35.6,421.4 35,419.6 34.4,418 33.8,416.3 33.2,414.5 32.6,412.8 32,411.1 31.4,409.3 30.8,407.5 30.1,405.7 29.6,404 29,402.4 28.6,401.1 28,399.4 27.6,398.2 27,396.5 26.4,394.8 25.8,393.1 25.3,391.9 24.8,390.2 24.4,389.1 23.9,387.4 23.3,385.8 22.8,384.1 22.3,382.9 21.7,381 21.2,379.7 20.7,378.1 20.1,376.6 19.5,374.7 19,373.5 18.6,372.3 18.1,370.9 17.7,369.5 17.4,368.5 17,367.2 16.5,365.6 16.1,364.5 15.7,363.4 15.1,362 14.7,360.9 14.4,360.1 14,359 13.6,357.9 13.4,357.1 13,356 12.6,354.9 12.4,354.1 12,353 11.6,351.9 11.4,351.1 11.1,350 10.7,349 10.5,348.3 10.3,347.6 10,346.6 9.7,346 9.4,345.1 9,344.1 8.4,342.6 7.8,341.3 7.3,339.9 6.8,338.8 6.3,337.5 5.7,336.1 5,334.5 4.2,333 2.4,330.3 -4.3,328.5 -10.7,327.5 -17,326.9 -23.6,326.4 -29.1,327.2 -30,327.6 -31.3,328.1 -32.6,328.7 -33.7,329.2 -35.3,329.8 -36.7,330.3 -37.8,330.6 -39,330.9 -40.2,331.2 -41.1,331.3 -42,331.4 -43.2,331.5 -44.3,331.5 -45.3,331.5 -46.2,331.5 -47,331.5 -47.4,331.4 -47.8,331.3 -48.6,331.1 -49.4,330.9 -50.2,330.7 -51,330.5 -51.8,330.3 -52.5,330.1 -53.2,329.8 -54,329.4 -54.9,329.1 -55.9,328.6 -56.6,328.2 -57.6,327.5 -58.6,326.8 -59.5,326 -60.6,325 -61.7,323.8 -62.5,323 -63.2,322.2 -63.9,321.4 -64.6,320.5 -65.2,319.7 -65.7,318.8 -66.2,317.9 -66.8,316.9 -67.1,316 -67.4,315.1 -67.8,314.2 -68.1,313.3 -68.3,312.5 -68.4,312 -68.5,311.4 -68.5,310.7 -68.5,309.9 -68.5,309 -68.5,308 -68.5,307 -68.5,306 -68.5,304.8 -68.5,303.6 -68.5,302.4 -68.4,301.2 -68.3,300 -68.2,299 -68.1,298.1 -68,297.3 -68,296.5 -67.8,295.3 -67.6,294.1 -67.4,292.9 -67.2,291.7 -66.9,290.6 -66.8,290 -66.6,289 -66.4,287.9 -66.1,286.8 -65.9,285.7 -65.7,284.6 -65.5,283.4 -65.2,282.2 -65,281 -64.8,279.8 -64.5,278.6 -64.3,278 -64.1,277 -63.8,275.9 -63.5,274.8 -63.3,273.7 -62.9,272.1 -62.6,271 -62.4,270 -62.1,268.9 -61.7,267.5 -61.5,266.6 -61.2,265.7 -60.8,264.4 -60.4,263.2 -60,261.9 -59.5,260.6 -59.1,259.3 -58.7,258.3 -58.3,257.1 -57.8,256 -57.4,254.9 -56.8,253.4 -56.3,252 -55.8,250.8 -55.5,249.9 -54.9,248.4 -54.5,247.3 -54,246.2 -53.6,245.1 -52.9,243.4 -52.5,242.3 -52,241.2 -51.5,239.7 -50.9,238.2 -50.6,237.3 -50.2,236.2 -49.7,234.7 -49.3,233.6 -48.8,232.1 -48.3,230.6 -47.8,229.3 -47.3,227.8 -46.7,226.3 -46.2,224.7 -45.6,223.1 -45.1,221.4 -44.7,220 -44.3,218.6 -43.9,217.2 -43.5,215.8 -43.1,214.4 -42.7,212.8 -42.3,211.1 -42,209.9 -41.7,208.1 -41.4,206.4 -41.1,205.1 -40.8,203.3 -40.5,201.4 -40.3,199.8 -40,198.2 -39.8,196.6 -39.7,195.6 -39.5,194 -39.3,192.4 -39.2,190.7 -39.1,188.8 -39,186.8 -38.9,185.2 -38.8,183.8 -38.7,182.5 -38.5,181 -38.3,179.4 -38.2,177.8 -38.1,176.1 -38.2,173.8 -38.4,171.9 -38.6,170.2 -38.8,168.7 -39,167 -39,165.9 -39,164.5 -39,162.8 -39.1,160.7 -39.3,158.9 -39.5,157 -39.7,155.4 -40,153.4 -40.2,151.9 -40.4,150.4 -40.6,148.8 -40.9,146.8 -41.1,145.4 -41.4,143.9 -41.6,142.4 -41.9,140.5 -42.2,139 -42.5,137.6 -42.8,135.7 -43.1,133.8 -43.4,132.5 -43.7,130.6 -44,128.6 -44.3,127.2 -44.6,125.8 -44.9,123.7 -45.1,122.3 -45.4,120.9 -45.6,119.2 -45.8,117.5 -46.1,115.9 -46.4,114.2 -46.6,112.6 -46.9,110.6 -47.3,108.6 -47.5,107.2 -47.8,105.3 -48.1,103.3 -48.4,102 -48.6,100.6 -48.9,98.6 -49.2,97.1 -49.5,95.7 -49.8,93.6 -50.1,91.6 -50.4,90.2 -50.6,88.8 -50.9,86.6 -51.1,85.1 -51.4,83.6 -51.7,81.5 -52,79.5 -52.3,78.2 -52.6,76.7 -52.9,74.8 -53.1,73.4 -53.4,71.9 -53.6,70.5 -53.9,68.6 -54.2,67.1 -54.5,65.7 -54.8,63.8 -55.1,61.8 -55.4,60.5 -55.6,59 -55.9,56.9 -56.1,55.4 -56.4,53.9 -56.6,52.3 -56.9,50.4 -57.2,49 -57.5,47.6 -57.8,45.7 -58.1,43.8 -58.4,42.5 -58.7,40.6 -59,38.6 -59.2,37.2 -59.5,35.8 -59.8,33.7 -60,32.3 -60.3,30.9 -60.7,29 -61,27.1 -61.2,25.8 -61.5,24.5 -61.8,22.6 -62,21.1 -62.2,19.7 -62.6,17.7 -62.9,15.7 -63.1,14.3 -63.4,12.9 -63.8,10.9 -64,9.5 -64.3,8 -64.6,6.6 -64.9,4.5 -65.1,3 -65.4,1.5 -65.7,-0.5 -66,-2.5 -66.3,-3.8 -66.6,-5.1 -66.9,-7 -67.1,-8.4 -67.4,-9.8 -67.6,-11.3 -67.9,-13.3 -68.2,-14.7 -68.5,-16.1 -68.8,-18 -69.1,-19.8 -69.4,-21.1 -69.7,-22.9 -70,-24.7 -70.3,-26 -70.6,-27.3 -70.8,-28.8 -71,-30.3 -71.3,-31.8 -71.5,-33.3 -71.8,-35.4 -72.2,-37.3 -72.5,-38.7 -72.7,-40 -73,-42 -73.3,-43.4 -73.5,-44.8 -73.7,-46.3 -73.9,-47.9 -74.2,-49.4 -74.4,-50.8 -74.6,-52.3 -74.8,-53.7 -75.1,-55.6 -75.3,-56.9 -75.5,-58.3 -75.7,-59.6 -75.9,-61 -76.2,-62.4 -76.4,-63.8 -76.6,-65.1 -76.8,-66.6 -77,-67.9 -77.1,-69.2 -77.3,-70.6 -77.5,-72 -77.7,-73.2 -77.9,-74.5 -78,-75.5 -78,-76.4 -78.1,-77.9 -78.2,-79.4 -78.3,-80.8 -78.4,-81.9 -78.6,-83 -78.7,-83.6 -78.8,-84.3 -78.9,-85.1 -79,-86.2 -79,-87.4 -79.1,-89 -79.2,-90.6 -79.3,-92.2 -79.4,-93.8 -79.5,-95.5 -79.5,-97.1 -79.5,-98.9 -79.6,-101.2 -79.7,-103.3 -79.8,-105.2 -80,-106.6 -80.2,-107.8 -80.5,-109.2 -80.9,-110.9 -81.4,-112.5 -81.9,-114.4 -82.4,-116.2 -82.8,-117.1 -83.3,-117.9 -85.1,-119.5 -87.2,-121 -89.8,-122.6 -92.5,-124.3 -95.3,-125.8 -97.2,-126.6 -98.9,-127.3 -100.2,-127.8 -101.4,-128.2 -102.6,-128.5 -103.4,-128.8 -104.4,-129.1 -105.4,-129.4 -106.8,-129.9 -108.1,-130.3 -109.6,-130.8 -110.8,-131.2 -112.2,-131.8 -113.2,-132.2 -114.1,-132.6 -115,-133 -115.9,-133.4 -116.8,-133.8 -118,-134.3 -119.2,-134.9 -120.4,-135.4 -121.6,-136 -122.8,-136.5 -123.8,-137 -125.2,-137.7 -126.4,-138.3 -127.6,-138.9 -128.6,-139.5 -129.6,-140 -130.6,-140.6 -131.6,-141.3 -132.6,-142 -133.7,-142.8 -134.8,-143.8 -135.7,-144.6 -136.7,-145.5 -138.1,-146.7 -139.4,-147.8 -140.6,-148.8 -141.7,-149.8 -142.8,-150.8 -143.6,-151.6 -144.5,-152.5 -145.5,-153.5 -146.5,-154.6 -147.5,-155.6 -148.6,-156.8 -149.7,-158 -150.9,-159.4 -152,-160.6 -153,-161.8 -154.1,-163.2 -155.1,-164.5 -155.9,-165.5 -156.7,-166.6 -157.7,-168.2 -158.4,-169.4 -159.1,-170.6 -160,-172.2 -160.9,-173.7 -161.7,-175 -162.5,-176.4 -163.5,-178.2 -164.3,-179.6 -165.1,-181.1 -165.7,-182.3 -166.5,-183.9 -167.1,-185.2 -167.6,-186.5 -168.2,-188.1 -169.1,-190.1 -169.7,-191.6 -170.3,-193.1 -170.9,-194.6 -171.5,-196.3 -171.8,-197.6 -172.3,-199.2 -172.7,-200.8 -173.1,-202.4 -173.5,-204 -173.9,-205.7 -174.1,-207 -174.4,-208.3 -174.7,-210 -174.9,-211.6 -175.1,-213.2 -175.3,-214.9 -175.5,-216.5 -175.7,-218.1 -175.8,-219.5 -175.9,-220.9 -176,-222.5 -176,-224.2 -176,-225.8 -176,-227.4 -176,-229 -176,-230.6 -176,-232.3 -176,-233.9 -175.9,-235.3 -175.8,-236.6 -175.6,-238.2 -175.4,-239.8 -175.1,-241.4 -174.9,-243 -174.7,-244.6 -174.4,-246.1 -174.1,-247.4 -173.9,-248.6 -173.5,-250.2 -173.1,-251.9 -172.8,-253.1 -172.4,-254.7 -172,-256.2 -171.6,-257.6 -171.1,-258.9 -170.6,-260.6 -170.1,-261.9 -169.6,-263.2 -169.1,-264.5 -168.7,-265.8 -168.3,-266.8 -167.7,-268.2 -167.1,-269.7 -166.6,-270.8 -165.9,-272.3 -165.2,-273.8 -164.6,-275.1 -164,-276.3 -163.2,-278 -162.5,-279.3 -161.8,-280.5 -161.3,-281.6 -160.6,-282.8 -159.8,-283.9 -159,-285 -158.2,-286.3 -157.3,-287.6 -156.3,-289.1 -155.6,-290.2 -154.9,-291.3 -154.2,-292.2 -153.5,-293.1 -152.7,-294.1 -151.9,-295.1 -151.1,-296.2 -150.2,-297.4 -149.1,-299 -148.3,-300.2 -147.5,-301.4 -146.7,-302.5 -146.1,-303.5 -145.6,-304.1 -144.8,-305.1 -144.1,-306.1 -143.3,-307.3 -142.4,-308.5 -141.5,-309.8 -141,-310.7 -140.4,-311.6 -139.8,-312.6 -139.2,-313.6 -138.7,-314.6 -138,-315.9 -137.2,-317.5 -136.6,-318.8 -136.1,-320.1 -135.5,-321.5 -135.1,-322.6 -134.8,-323.5 -134.4,-324.6 -133.8,-326 -133.4,-327.1 -132.9,-328.6 -132.4,-330 -132,-331.2 -131.7,-332.5 -131.3,-333.9 -131,-334.9 -130.7,-336.3 -130.3,-338 -130,-339.3 -129.8,-340.6 -129.5,-342.4 -129.2,-343.8 -129,-345.3 -128.8,-346.8 -128.6,-348.3 -128.5,-349.3 -128.4,-350.7 -128.3,-352.1 -128.2,-353.5 -128.1,-355.2 -128,-356.9 -128,-358.6 -128,-360 -128.1,-362.1 -128.2,-363.8 -128.3,-365.6 -128.4,-367 -128.5,-368.5 -128.5,-369.5 -128.7,-371 -128.9,-372.5 -129.1,-374 -129.3,-375.4 -129.7,-377.2 -129.9,-378.6 -130.1,-379.9 -130.5,-381.7 -130.9,-383.4 -131.2,-385 -131.6,-386.5 -132,-388.1 -132.3,-389.6 -132.7,-391.2 -133.1,-392.6 -133.5,-394.1 -133.9,-395.5 -134.3,-396.9 -134.7,-398.3 -135.1,-399.7 -135.6,-401.3 -136.1,-402.9 -136.6,-404.2 -137.1,-405.8 -137.5,-407.2 -137.9,-408.6 -138.3,-410 -138.8,-411.7 -139.2,-413 -139.7,-414.3 -140.1,-415.7 -140.7,-417.3 -141.1,-418.6 -141.6,-419.9 -142.1,-421.4 -142.7,-422.8 -143.1,-424 -143.6,-425.1 -144.1,-426.5 -144.6,-427.7 -145,-428.9 -145.7,-430.4 -146.3,-431.9 -146.9,-433.1 -147.5,-434.2 -148.2,-435.4 -148.7,-436.3 -149.5,-437.6 -150.2,-438.9 -150.9,-440.2 -151.6,-441.3 -152.3,-442.4 -152.9,-443.4 -153.7,-444.5 -154.6,-445.7 -155.5,-446.8 -156.5,-447.9 -157.3,-448.7 -158.1,-449.5 -158.9,-450.3 -159.6,-451 -160.2,-451.7 -161.4,-452.9 -162.5,-454 -163.5,-454.9 -164.9,-456.1 -166.3,-457.3 -167.2,-458 -168.1,-458.7 -169.4,-459.7 -170.3,-460.4 -171.2,-461.1 -172.4,-462 -173.6,-462.8 -174.4,-463.4 -175.5,-464.2 -176.7,-465 -177.6,-465.5 -179,-466.4 -180.4,-467.3 -181.5,-467.9 -182.5,-468.5 -183.5,-469.2 -184.5,-469.9 -185.5,-470.5 -186.5,-471.2 -187.9,-472.2 -189.3,-473.2 -190.2,-473.9 -191.1,-474.6 -192.4,-475.6 -193.3,-476.3 -194.2,-477 -195.1,-477.7 -196.1,-478.6 -196.8,-479.3 -197.6,-480.1 -198.5,-481 -199.5,-482 -200.5,-483 -201.4,-483.9 -202.2,-484.7 -202.9,-485.6 -203.5,-486.4 -204.3,-487.5 -205.1,-488.6 -205.8,-489.7 -206.5,-490.6 -207.2,-491.5 -207.7,-492.5 -208.2,-493.5 -208.8,-494.7 -209.4,-495.9 -209.9,-497.1 -210.3,-497.8 -210.8,-499.1 -211.3,-500.2 -211.7,-501.3 -212.2,-502.4 -212.7,-503.8 -213,-504.7 -213.3,-505.6 -213.6,-506.5 -213.8,-507.5 -213.9,-508.2 -214.1,-509.5 -214.3,-510.8 -214.5,-512.1 -214.7,-513.3 -214.9,-514.8 -215,-515.6 -215,-516.6 -215,-517.8 -215.1,-519.2 -215.2,-520.4 -215.3,-521.7 -215.4,-523.1 -215.5,-524.4 -215.5,-525.6 -215.5,-527 -215.5,-528.4 -215.5,-529.6 -215.5,-531 -215.5,-532.4 -215.5,-533.5 -215.5,-534.9 -215.5,-536.3 -215.5,-537.4 -215.5,-538.8 -215.5,-540.3 -215.5,-541.4 -215.5,-542.8 -215.5,-544.3 -215.5,-545.4 -215.5,-546.8 -215.5,-548.2 -215.5,-549.6 -215.5,-551 -215.5,-552.4 -215.5,-553.8 -215.5,-555.3 -215.5,-556.7 -215.5,-558.1 -215.5,-559.6 -215.5,-561 -215.5,-562.4 -215.5,-563.7 -215.4,-565.1 -215.3,-566.7 -215.2,-568 -215.1,-569.4 -215,-570.9 -215,-572.3 -215,-573.7 -215,-575.2 -215,-576.6 -215,-578 -215,-579.4 -215,-580.8 -215,-582.1 -215,-583.5 -215,-584.9 -215,-586.3 -215,-587.7 -215,-589.2 -215,-590.6 -215,-592 -215,-593.3 -215,-594.5 -215,-595.9 -215,-597.3 -215,-598.6 -215,-600.1 -215,-601.5 -214.9,-602.7 -214.8,-603.8 -214.7,-604.7 -214.5,-606.1 -214.3,-607.5 -214.1,-608.8 -213.9,-610.2 -213.7,-611.6 -213.5,-612.7 -213.2,-613.8 -213,-614.9 -212.7,-616.2 -212.3,-617.5 -211.9,-618.9 -211.5,-620.2 -211.1,-621.5 -210.7,-622.5 -210.3,-623.8 -209.9,-624.6 -209.5,-625.6 -209,-626.6 -208.5,-627.8 -208,-628.7 -207.6,-629.7 -207,-630.8 -206.3,-632.1 -205.7,-633.2 -205.1,-634.3 -204.2,-635.7 -203.6,-636.8 -203.1,-637.8 -202.5,-638.8 -201.8,-639.9 -201.4,-640.6 -200.6,-641.7 -199.8,-642.7 -199,-643.7 -198.2,-644.7 -197.2,-645.8 -196.4,-646.6 -195.5,-647.5 -194.5,-648.5 -193.5,-649.5 -192.5,-650.5 -191.6,-651.3 -190.7,-652.1 -189.9,-652.8 -189.2,-653.4 -188.2,-654.2 -187.2,-655 -186.2,-655.8 -185.1,-656.7 -184,-657.6 -183.3,-658.1 -182.6,-658.7 -181.5,-659.4 -180.5,-659.9 -179.2,-660.6 -177.9,-661.4 -176.6,-662.1 -175.7,-662.6 -174.5,-663.3 -173.4,-663.8 -172.3,-664.3 -171.1,-664.8 -169.7,-665.4 -168.4,-665.9 -167.3,-666.4 -166.1,-666.8 -165,-667.3 -163.8,-667.7 -162.6,-668.2 -161.3,-668.6 -160.1,-669.1 -158.9,-669.5 -157.4,-670.1 -156.1,-670.5 -154.9,-671 -153.7,-671.4 -152,-671.9 -150.8,-672.3 -149.6,-672.7 -148.1,-673.2 -146.6,-673.7 -145.6,-674.2 -144.5,-674.6 -143.1,-675.2 -141.8,-675.8 -140.5,-676.4 -139,-677.1 -137.8,-677.7 -136.6,-678.3 -135.3,-679 -134,-679.7 -132.9,-680.3 -131.5,-681.2 -130.4,-682 -129.3,-682.8 -128.1,-683.7 -126.9,-684.6 -126,-685.3 -124.8,-686.2 -123.8,-687 -122.8,-687.9 -121.7,-688.9 -120.5,-690 -119.3,-691.3 -118.3,-692.5 -117.4,-693.6 -116.6,-694.6 -115.6,-695.9 -114.8,-697 -114,-698.1 -113.2,-699.2 -112.2,-700.6 -111.6,-701.6 -111,-702.7 -110.3,-704 -109.5,-705.7 -108.9,-707.1 -108.3,-708.5 -107.8,-709.7 -107.3,-710.9 -106.9,-712.1 -106.5,-713.3 -106.1,-714.6 -105.6,-716.2 -105.2,-717.6 -104.9,-718.6 -104.6,-720.2 -104.2,-721.8 -104,-723 -103.8,-724.3 -103.6,-725.6 -103.4,-726.8 -103.3,-728.1 -103.1,-729.6 -102.9,-731.1 -102.7,-732.7 -102.6,-733.8 -102.5,-734.7 -102.4,-736.1 -102.3,-737.5 -102.2,-738.8 -102.1,-740.4 -102,-742 -101.9,-742.9 -101.7,-744.3 -101.5,-745.8 -101.3,-747.3 -101.1,-748.8 -101,-750.3 -101,-751.3 -100.8,-752.7 -100.6,-753.8 -100.4,-755 -100.2,-756.2 -99.9,-757.8 -99.7,-759 -99.5,-760.2 -99.3,-761.3 -99,-763.1 -98.7,-764.4 -98.5,-765.7 -98.3,-767 -97.9,-768.7 -97.6,-769.8 -97.4,-770.9 -97.1,-772.6 -96.7,-774.3 -96.5,-775.6 -96.3,-776.9 -95.9,-778.7 -95.6,-779.9 -95.4,-781.1 -95.1,-782.3 -94.7,-783.8 -94.5,-784.8 -94.1,-786.2 -93.7,-787.6 -93.3,-789 -92.9,-790.6 -92.5,-792.2 -92.2,-793.4 -91.8,-794.9 -91.4,-796.4 -91,-797.7 -90.5,-799 -90,-800.6 -89.5,-801.9 -89.1,-803.2 -88.6,-804.5 -88.2,-805.8 -87.7,-807.1 -87.3,-808.4 -86.7,-810.1 -86.3,-811.4 -85.8,-812.7 -85.3,-814.2 -84.7,-815.7 -84.2,-817.2 -83.6,-818.7 -83,-820.3 -82.5,-821.5 -81.9,-823 -81.4,-824.2 -80.8,-825.7 -80.2,-827.2 -79.7,-828.5 -79.1,-830 -78.5,-831.4 -77.9,-832.9 -77.3,-834.3 -76.6,-836 -76,-837.5 -75.4,-839.1 -74.8,-840.6 -74.3,-842.2 -73.7,-843.8 -73.3,-845.2 -72.7,-846.8 -72.3,-848.2 -71.7,-849.8 -71.3,-851.2 -70.7,-852.9 -70.3,-854.3 -69.7,-856 -69.3,-857.4 -68.8,-859.3 -68.4,-860.8 -68,-862.4 -67.7,-864 -67.3,-865.6 -66.9,-867.2 -66.6,-868.8 -66.2,-870.4 -65.8,-872.1 -65.5,-873.8 -65.1,-875.5 -64.7,-877.3 -64.4,-879 -64,-880.8 -63.6,-882.7 -63.4,-884.3 -63.2,-885.9 -63,-887.5 -62.8,-889 -62.6,-890.7 -62.4,-892.3 -62.2,-893.9 -62,-895.6 -61.8,-897.2 -61.6,-898.9 -61.4,-900.7 -61.2,-902.4 -61,-904.4 -61,-906.1 -61,-907.4 -60.8,-909 -60.6,-910.9 -60.4,-912.6 -60.2,-914.4 -60,-916.4 -60,-918.1 -60,-919.9 -60,-921.5 -59.9,-923 -59.7,-924.9 -59.5,-926.8 -59.3,-928.5 -59.1,-930.4 -59,-932.5 -59,-934.2 -59,-935.9 -59,-937.5 -58.9,-938.9 -58.7,-940.7 -58.5,-942.6 -58.3,-944.5 -58.1,-946.5 -58,-948.8 -58,-950.8 -58,-952.5 -58,-954.2 -58,-956.1 -58,-958 -58,-959.8 -58,-961.8 -58,-963.8 -58,-965.5 -58,-966.9 -57.9,-968.6 -57.8,-970.5 -57.7,-972.4 -57.6,-974.5 -57.5,-976.8 -57.5,-978.8 -57.5,-980.8 -57.5,-982.5 -57.5,-984.2 -57.5,-986.1 -57.5,-988 -57.5,-989.8 -57.5,-991.8 -57.5,-993.8 -57.6,-996.2 -57.7,-998.4 -57.8,-1000.4 -57.9,-1002.4 -58,-1004.3 -58,-1005.7 -58,-1007.2 -58,-1008.9 -58,-1010.8 -58,-1012.8 -58,-1014.8 -58,-1016.8 -58,-1018.8 -58,-1020.8 -58,-1022.8 -58.2,-1025.1 -58.4,-1027.3 -58.6,-1029.4 -58.8,-1031.4 -59,-1033.4 -59,-1035 -59,-1036.8 -59,-1038.8 -59,-1040.8 -59,-1042.7 -59.2,-1044.9 -59.4,-1047.1 -59.6,-1049.2 -59.8,-1051.4 -60,-1053.7 -60,-1055.8 -60,-1057.8 -60,-1060 -60.1,-1062.4 -60.3,-1064.6 -60.5,-1066.6 -60.7,-1068.6 -60.9,-1070.4 -61,-1072 -61,-1073.8 -61,-1076 -61,-1078.3 -61.1,-1080.6 -61.3,-1083.1 -61.5,-1085.4 -61.7,-1087.4 -61.9,-1089.4 -62,-1091.3 -62,-1092.9 -62,-1094.8 -62,-1096.8 -62.1,-1098.8 -62.3,-1101.3 -62.5,-1103.6 -62.7,-1105.6 -62.9,-1107.8 -63,-1110 -63,-1111.8 -63,-1113.7 -63,-1115.8 -63.1,-1117.8 -63.3,-1120.1 -63.5,-1122.2 -63.7,-1124.2 -63.9,-1126.3 -64,-1128.3 -64,-1129.9 -64,-1131.7 -64,-1133.8 -64.1,-1135.8 -64.3,-1138.1 -64.5,-1140.3 -64.7,-1142.4 -64.9,-1144.5 -65,-1146.7 -65,-1148.6 -65,-1150.6 -65,-1152.8 -65.1,-1154.9 -65.3,-1157.2 -65.5,-1159.3 -65.7,-1161.3 -65.9,-1163.3 -66,-1165.3 -66,-1166.9 -66,-1168.7 -66.1,-1170.8 -66.2,-1172.8 -66.4,-1175.1 -66.6,-1177.3 -66.8,-1179.4 -66.9,-1181.4 -67,-1183.4 -67,-1185 -67,-1186.9 -67.1,-1188.9 -67.2,-1190.9 -67.3,-1192.8 -67.5,-1195.3 -67.7,-1197.5 -67.8,-1199.5 -67.9,-1201.4 -68,-1203.4 -68,-1205 -68,-1206.8 -68.1,-1208.8 -68.2,-1210.8 -68.3,-1212.8 -68.5,-1215.2 -68.7,-1217.3 -68.8,-1219.2 -68.9,-1221.1 -69,-1223 -69,-1224.4 -69,-1226 -69.1,-1227.9 -69.2,-1229.9 -69.3,-1231.6 -69.4,-1233.4 -69.6,-1235.6 -69.7,-1237.5 -69.8,-1239.2 -69.9,-1241.1 -70,-1242.9 -70,-1244.3 -70.1,-1245.9 -70.2,-1247.8 -70.3,-1249.5 -70.4,-1251.2 -70.6,-1253.5 -70.7,-1255.6 -70.8,-1257.3 -70.9,-1259.2 -71,-1261.1 -71,-1262.5 -71,-1263.9 -71.1,-1265.6 -71.2,-1267.4 -71.3,-1269.1 -71.4,-1270.7 -71.5,-1272.5 -71.6,-1274.6 -71.7,-1276.4 -71.8,-1278.1 -71.9,-1279.8 -72,-1281.4 -72,-1282.7 -72,-1284.2 -72.1,-1285.8 -72.2,-1287.4 -72.3,-1289 -72.5,-1290.9 -72.7,-1292.7 -72.8,-1294.3 -72.9,-1296 -73,-1297.6 -73,-1298.9 -73,-1300.2 -73,-1301.8 -73.1,-1303.6 -73.3,-1305.3 -73.5,-1306.8 -73.7,-1308.2 -73.9,-1309.4 -74,-1310.1 -74,-1311.2 -74.1,-1312.7 -74.2,-1314.2 -74.3,-1315.6 -74.4,-1317 -74.5,-1318 -74.6,-1318.6 -74.7,-1319.2 -74.9,-1320.4 -75.1,-1321.6 -75.3,-1322.8 -75.5,-1323.9 -75.8,-1325.4 -76,-1326.3 -76.4,-1327.6 -76.8,-1328.9 -77.1,-1330.2 -77.4,-1331 -77.7,-1331.8 -78,-1332.6 -78.4,-1333.6 -78.8,-1334.6 -79.3,-1335.9 -79.8,-1337.2 -80.2,-1338.1 -80.6,-1338.8 -81.3,-1340.1 -81.9,-1341.2 -82.8,-1342.6 -83.7,-1343.9 -84.6,-1345.2 -85.2,-1345.9 -85.8,-1346.6 -86.4,-1347.3 -87,-1348.2 -87.6,-1349.1 -88.5,-1350.2 -89.4,-1351.2 -90.2,-1352 -91.1,-1352.8 -92.4,-1353.9 -93.9,-1355.1 -95.4,-1356.4 -96.8,-1357.5 -98.1,-1358.5 -99.4,-1359.5 -100.6,-1360.2 -102.1,-1361 -103.6,-1361.9 -105.1,-1362.7 -106.2,-1363.2 -107.2,-1363.7 -108.2,-1364.2 -109.2,-1364.6 -110.2,-1365 -111.5,-1365.5 -112.7,-1365.9 -114,-1366.2 -115.3,-1366.6 -116.6,-1367 -117.6,-1367.2 -119,-1367.6 -120.1,-1367.9 -121.2,-1368.1 -122.3,-1368.3 -123.9,-1368.6 -125.1,-1368.8 -126.3,-1369 -127.8,-1369.2 -129.4,-1369.4 -130.6,-1369.5 -131.8,-1369.5 -133,-1369.5 -134,-1369.5 -135,-1369.5 -136.2,-1369.4 -137.8,-1369.2 -139.3,-1369 -140.7,-1368.8 -142,-1368.6 -143,-1368.5 -143.6,-1368.4 -144.8,-1368.2 -146,-1368 -147.2,-1367.8 -148.8,-1367.4 -150.3,-1367.1 -151.6,-1366.6 -152.9,-1366.1 -154.2,-1365.6 -155.1,-1365.2 -156,-1364.8 -156.8,-1364.5 -157.8,-1364.1 -158.8,-1363.6 -160,-1363.1 -161.2,-1362.5 -162.4,-1361.9 -163.4,-1361.3 -164.4,-1360.7 -165.5,-1360 -166.7,-1359.2 -167.6,-1358.6 -168.5,-1358 -169.7,-1357.2 -170.9,-1356.2 -172.1,-1355.2 -173.5,-1353.9 -174.9,-1352.7 -176.1,-1351.6 -177.1,-1350.7 -177.9,-1349.9 -178.8,-1348.9 -179.7,-1347.8 -180.5,-1346.8 -181.4,-1345.6 -182.3,-1344.4 -182.9,-1343.6 -183.6,-1342.7 -184.4,-1341.5 -185.1,-1340.3 -186,-1338.8 -186.9,-1337 -187.7,-1335.3 -188.3,-1333.9 -188.9,-1332.6 -189.4,-1331.2 -189.9,-1330.1 -190.3,-1329 -190.7,-1327.9 -191.1,-1326.8 -191.5,-1325.7 -191.8,-1324.6 -192.3,-1323 -192.8,-1321.4 -193.1,-1319.9 -193.4,-1318.8 -193.8,-1317.3 -194,-1316.2 -194.2,-1315.1 -194.5,-1313.6 -194.8,-1312 -195,-1310.7 -195.2,-1309.5 -195.4,-1308.3 -195.6,-1306.9 -195.7,-1305.5 -195.9,-1304.1 -196.1,-1302.4 -196.3,-1300.7 -196.4,-1299.7 -196.5,-1298.7 -196.6,-1297.3 -196.7,-1296.1 -196.8,-1294.6 -196.9,-1293 -197,-1291.2 -197,-1289.8 -197,-1288.5 -197,-1287.1 -196.9,-1285.3 -196.8,-1283.7 -196.7,-1282.2 -196.5,-1280.7 -196.3,-1279.3 -196.2,-1278.3 -196,-1276.7 -195.8,-1275.1 -195.7,-1273.5 -195.5,-1272.1 -195.2,-1270.3 -195,-1269.1 -194.8,-1267.9 -194.5,-1266.7 -194.2,-1265 -194,-1263.8 -193.8,-1262.6 -193.4,-1260.9 -193.1,-1259.2 -192.8,-1258 -192.4,-1256.4 -191.9,-1254.7 -191.5,-1253.4 -191.1,-1252.1 -190.6,-1250.4 -190.1,-1248.9 -189.6,-1247.6 -189.2,-1246.3 -188.7,-1245 -188.3,-1243.8 -187.8,-1242.5 -187.4,-1241.2 -186.9,-1240 -186.1,-1238.1 -185.4,-1236.6 -184.8,-1235.4 -184.1,-1233.9 -183.4,-1232.5 -182.8,-1231.3 -182.1,-1230.1 -181.3,-1228.5 -180.5,-1227.2 -179.7,-1225.8 -179,-1224.4 -178.3,-1223 -177.7,-1222 -176.8,-1220.5 -175.9,-1219 -175.2,-1218 -174.5,-1217 -173.6,-1215.5 -173,-1214.5 -172.3,-1213.2 -171.4,-1211.7 -170.5,-1210.2 -169.8,-1209.2 -168.8,-1207.7 -167.9,-1206.4 -167.1,-1205.3 -166.2,-1204 -165.2,-1202.3 -164.5,-1201.1 -163.8,-1200 -162.9,-1198.5 -162.1,-1197.2 -161.2,-1196 -160.3,-1194.7 -159.4,-1193.2 -158.7,-1192.1 -157.8,-1190.6 -157.1,-1189.4 -156.3,-1188.1 -155.3,-1186.6 -154.3,-1185.1 -153.5,-1183.7 -152.7,-1182.3 -151.7,-1180.7 -150.9,-1179.4 -150.1,-1178.1 -149.4,-1177.1 -148.5,-1175.6 -147.9,-1174.5 -147,-1172.8 -146,-1170.8 -144.8,-1168.6 -143.7,-1166.6 -142.7,-1164.6 -142,-1163.3 -141.1,-1161.7 -140.4,-1160.3 -139.8,-1159.1 -139.1,-1157.9 -138.4,-1156.4 -137.7,-1154.9 -137,-1153.3 -136.3,-1151.8 -135.5,-1150 -134.7,-1148.2 -134.2,-1147 -133.6,-1145.5 -133,-1144 -132.4,-1142.4 -131.9,-1141.1 -131.3,-1139.4 -130.8,-1138.1 -130.1,-1136.4 -129.6,-1135 -129,-1133.6 -128.5,-1132.2 -128,-1130.8 -127.7,-1129.7 -127.3,-1128.7 -126.9,-1127.1 -126.6,-1125.9 -126.1,-1124.3 -125.7,-1122.8 -125.2,-1120.9 -124.8,-1119.6 -124.3,-1118 -123.9,-1116.7 -123.5,-1115.4 -123.2,-1113.9 -122.8,-1112.4 -122.5,-1111.1 -122.3,-1109.9 -121.9,-1108.1 -121.6,-1106.9 -121.4,-1105.6 -121,-1103.9 -120.6,-1102.1 -120.4,-1100.9 -120.2,-1099.6 -119.9,-1098.2 -119.7,-1096.7 -119.5,-1095.3 -119.3,-1093.8 -119,-1092.3 -118.7,-1090.5 -118.5,-1089.2 -118.3,-1087.8 -118.1,-1086.5 -117.9,-1084.9 -117.7,-1083.2 -117.5,-1081.6 -117.3,-1080 -117.1,-1078.4 -117,-1076.9 -117,-1075.8 -116.9,-1074.5 -116.8,-1073.1 -116.7,-1071.4 -116.6,-1069.9 -116.5,-1068.3 -116.5,-1066.6 -116.5,-1065.1 -116.5,-1063.5 -116.5,-1061.7 -116.5,-1060.2 -116.5,-1058.6 -116.5,-1057 -116.5,-1055.5 -116.5,-1053.9 -116.5,-1052.3 -116.5,-1050.8 -116.5,-1048.9 -116.5,-1047.3 -116.5,-1045.8 -116.5,-1044.1 -116.5,-1042.5 -116.5,-1041.1 -116.5,-1039.4 -116.5,-1037.9 -116.5,-1036.5 -116.7,-1034.8 -116.9,-1033 -117.1,-1031.3 -117.3,-1029.5 -117.5,-1027.7 -117.5,-1026.3 -117.7,-1024.7 -117.9,-1023 -118.1,-1021.3 -118.3,-1019.7 -118.6,-1018.1 -118.8,-1016.4 -119,-1014.8 -119.2,-1013.3 -119.5,-1011.8 -119.8,-1009.8 -120,-1008.3 -120.3,-1007 -120.7,-1005.2 -121,-1003.3 -121.3,-1002 -121.7,-1000.2 -122,-998.3 -122.3,-997 -122.7,-995.4 -123,-993.8 -123.4,-992.3 -123.8,-990.8 -124.2,-989.3 -124.6,-987.8 -125.1,-986.3 -125.5,-984.7 -126,-983.1 -126.4,-981.5 -126.9,-979.9 -127.3,-978.3 -127.8,-977 -128.3,-975.5 -128.9,-973.9 -129.4,-972.3 -130,-970.7 -130.6,-969 -131.1,-967.6 -131.7,-966 -132.3,-964.5 -132.9,-962.9 -133.5,-961.3 -134.1,-959.7 -134.7,-958.1 -135.4,-956.5 -136,-954.9 -136.5,-953.7 -137.2,-952.2 -137.7,-951 -138.3,-949.7 -138.9,-948.4 -139.6,-946.9 -140.3,-945.3 -141.1,-943.6 -141.7,-942.3 -142.3,-941.1 -143,-939.8 -143.8,-938.3 -144.6,-936.8 -145.3,-935.3 -146.1,-933.8 -147,-931.9 -147.7,-930.5 -148.4,-929.2 -149.2,-927.9 -150.1,-926.2 -150.7,-925.2 -151.5,-923.8 -152.3,-922.4 -153.2,-920.8 -153.9,-919.5 -154.8,-917.9 -155.6,-916.4 -156.4,-914.9 -157.1,-913.5 -157.8,-912.2 -158.6,-910.7 -159.3,-909.5 -160,-908.1 -160.8,-906.4 -161.7,-904.7 -162.2,-903.4 -162.9,-901.8 -163.6,-900.3 -164.2,-899 -164.9,-897.3 -165.7,-895.7 -166.3,-894.2 -166.8,-892.7 -167.3,-891.4 -167.9,-890 -168.5,-888.2 -169.1,-886.7 -169.8,-884.9 -170.5,-883 -171,-881.3 -171.5,-879.9 -172,-878 -172.4,-876.4 -172.8,-874.9 -173.2,-873.3 -173.6,-871.8 -174,-870.3 -174.4,-868.9 -174.8,-867.4 -175.2,-865.7 -175.5,-864 -175.8,-862.7 -176.2,-860.9 -176.5,-859.1 -176.8,-857.9 -177.2,-856.2 -177.5,-854.4 -177.7,-853 -178,-851.6 -178.3,-849.7 -178.5,-848 -178.7,-846.4 -179,-844.8 -179.2,-843.3 -179.4,-841.8 -179.6,-840.2 -179.8,-838.6 -179.9,-836.8 -180.1,-834.9 -180.2,-833.3 -180.3,-831.9 -180.4,-830.3 -180.5,-828.9 -180.5,-827.4 -180.5,-826 -180.5,-824.8 -180.6,-823.2 -180.7,-821.6 -180.8,-819.9 -180.9,-818.2 -181,-816.4 -181,-815 -181,-813.6 -181,-812.4 -181,-811 -181,-809.6 -181,-808.4 -181,-807.2 -181.1,-806 -181.2,-805 -181.3,-804 -181.4,-803.1 -181.5,-802.3 -181.5,-801.5 -181.7,-800.2 -181.9,-798.9 -182.2,-797.6 -182.6,-796 -183,-794.5 -183.2,-793.6 -183.5,-792.8 -183.8,-791.8 -184.1,-790.8 -184.5,-789.8 -184.9,-788.8 -185.3,-787.8 -185.7,-786.8 -186,-786.1 -186.3,-785.4 -186.6,-784.7 -187.1,-783.8 -187.5,-783.1 -188.1,-782.2 -188.6,-781.3 -189.2,-780.4 -189.6,-779.7 -190,-779 -190.6,-778.2 -191.6,-777 -192.6,-775.8 -193.5,-774.6 -194.5,-773.5 -195.2,-772.7 -195.8,-772.1 -196.3,-771.5 -196.9,-771 -197.5,-770.4 -198.4,-769.6 -199.2,-768.9 -200.2,-768.2 -201.2,-767.4 -202.2,-766.6 -202.9,-766.1 -203.7,-765.6 -204.4,-765.2 -205.5,-764.5 -206.6,-763.9 -207.7,-763.2 -208.6,-762.6 -209.7,-761.9 -210.4,-761.6 -211.1,-761.2 -211.8,-760.9 -212.8,-760.5 -213.7,-760.2 -214.9,-759.8 -216.1,-759.4 -217.3,-759 -218.2,-758.8 -219.5,-758.4 -220.5,-758.1 -221.5,-757.9 -222.5,-757.6 -224,-757.2 -225.1,-757 -226.2,-756.8 -227.7,-756.4 -229.2,-756.1 -230.6,-755.7 -231.9,-755.3 -233.2,-754.9 -234.1,-754.6 -235.5,-754.2 -236.5,-753.9 -237.8,-753.5 -239.3,-752.9 -240.8,-752.4 -241.9,-751.9 -243.3,-751.4 -244.6,-750.8 -245.7,-750.3 -247,-749.7 -248.5,-749 -249.7,-748.4 -251.1,-747.6 -252.5,-746.8 -253.7,-746 -254.6,-745.4 -255.8,-744.5 -256.7,-743.9 -258,-743 -259.3,-742.2 -260.7,-741.2 -262,-740.2 -263.2,-739.2 -264,-738.5 -265.2,-737.3 -266.3,-736.2 -267.2,-735.3 -268.2,-734.3 -269.4,-733.1 -270.3,-732 -271.2,-730.9 -272.1,-729.7 -273.2,-728.2 -274.1,-726.9 -274.9,-725.9 -275.8,-724.6 -276.7,-723.4 -277.7,-721.8 -278.7,-720.2 -279.7,-718.4 -280.7,-716.5 -281.7,-714.6 -282.2,-713.5 -282.8,-712.1 -283.4,-710.7 -284,-709.3 -284.5,-707.8 -285,-706.3 -285.4,-705.1 -285.9,-703.4 -286.3,-702.1 -286.7,-700.9 -287.2,-699.1 -287.7,-697.3 -288,-696.1 -288.2,-694.9 -288.6,-693.3 -288.9,-692.2 -289.1,-691.1 -289.4,-689.4 -289.8,-687.7 -290,-686.3 -290.2,-685 -290.5,-683.2 -290.7,-682 -290.9,-680.8 -291.2,-679.2 -291.5,-677.4 -291.7,-676 -291.9,-674.6 -292.1,-673.2 -292.3,-671.7 -292.5,-670.4 -292.7,-668.8 -292.9,-667.3 -293,-665.7 -293,-664.7 -293.2,-663 -293.4,-661.6 -293.6,-659.9 -293.8,-658 -294,-656.1 -294,-654.8 -294,-653.6 -294.1,-652 -294.2,-650.7 -294.3,-649 -294.5,-647.4 -294.7,-645.4 -294.8,-644.1 -294.9,-642.4 -295,-640.8 -295,-639.1 -295,-637.6 -295,-635.9 -295,-634.4 -295,-633 -295,-631.5 -295,-630 -295,-628.5 -295,-626.8 -295,-625.3 -295,-623.6 -295,-621.8 -295,-620.2 -295,-618.6 -295,-617 -295,-615.4 -294.9,-614.1 -294.8,-612.4 -294.6,-610.5 -294.4,-608.5 -294.2,-606.9 -294.1,-605.1 -294,-603.5 -294,-602.3 -293.8,-600.4 -293.6,-598.5 -293.4,-596.7 -293.2,-594.9 -293,-593.3 -292.9,-591.7 -292.7,-590.1 -292.5,-588.5 -292.3,-586.9 -292.1,-585.3 -291.9,-583.8 -291.7,-582.2 -291.5,-580.7 -291.2,-578.8 -290.9,-576.8 -290.6,-575.5 -290.4,-574.3 -290.1,-572.4 -289.8,-571 -289.5,-569.7 -289.2,-567.8 -288.8,-565.9 -288.4,-564.3 -288.1,-562.7 -287.7,-561.1 -287.3,-559.4 -286.9,-557.7 -286.5,-555.8 -286.1,-553.9 -285.6,-551.7 -285.2,-550.1 -284.7,-548.2 -284.3,-546.8 -283.8,-545.4 -283.4,-543.8 -283,-542.2 -282.6,-540.5 -282.2,-538.9 -281.7,-537 -281.3,-535.6 -280.7,-533.9 -280.1,-532.2 -279.5,-530.5 -278.9,-528.8 -278.2,-526.8 -277.6,-525.2 -277.1,-523.6 -276.5,-521.9 -276,-520.3 -275.5,-519 -275,-517.3 -274.5,-515.9 -273.8,-514 -273.1,-512.4 -272.5,-510.7 -271.8,-509 -270.9,-507 -270.3,-505.5 -269.7,-504 -268.9,-502.2 -268.2,-500.5 -267.7,-499.2 -266.9,-497.5 -266.2,-495.8 -265.6,-494.5 -264.9,-493.1 -264.1,-491.4 -263.4,-489.7 -262.6,-488 -261.7,-486 -260.9,-484.4 -260.1,-482.6 -259.4,-481.3 -258.7,-480 -258.2,-478.9 -257.5,-477.2 -256.9,-476 -256.2,-474.3 -255.5,-472.5 -254.7,-470.8 -254,-469.3 -253.3,-467.6 -252.7,-466.3 -251.9,-464.6 -251.1,-462.9 -250.5,-461.6 -249.8,-460.1 -249,-458.5 -248.5,-457.3 -247.8,-455.6 -247,-453.8 -246.3,-452.4 -245.5,-450.6 -244.7,-448.8 -244.1,-447.5 -243.3,-445.7 -242.6,-443.9 -241.9,-442.2 -241.1,-440.5 -240.4,-438.8 -239.8,-437.3 -239,-435.5 -238.4,-434.2 -237.7,-432.5 -236.9,-430.8 -236.2,-429.4 -235.5,-427.7 -234.8,-426 -234,-424.3 -233.3,-422.5 -232.6,-420.8 -231.9,-419.3 -231.3,-417.7 -230.8,-416.3 -230.1,-414.7 -229.5,-413 -228.9,-411.4 -228.1,-409.6 -227.5,-408 -226.9,-406.4 -226.3,-404.9 -225.7,-403.2 -225.2,-401.8 -224.6,-400.1 -224,-398.3 -223.4,-396.5 -222.8,-394.8 -222.2,-393 -221.6,-391.3 -221.2,-389.9 -220.6,-388.1 -220,-386.3 -219.5,-384.6 -219,-383.1 -218.4,-381.1 -217.9,-379.4 -217.5,-377.8 -217.1,-376.1 -216.7,-374.4 -216.3,-372.7 -215.9,-371.1 -215.6,-369.7 -215.1,-367.8 -214.7,-365.9 -214.4,-364.6 -214,-362.7 -213.6,-360.9 -213.4,-359.6 -213,-357.8 -212.6,-355.9 -212.4,-354.5 -212,-352.4 -211.6,-350.3 -211.4,-348.8 -211.1,-347.1 -210.7,-344.9 -210.5,-343.3 -210.3,-341.8 -210.1,-340 -209.9,-338.3 -209.8,-337 -209.6,-335.1 -209.4,-333.1 -209.2,-331.1 -209.1,-329.2 -208.9,-327.2 -208.8,-325.6 -208.6,-323.4 -208.4,-321.4 -208.2,-319.5 -208.1,-317.8 -208,-316.1 -208,-314.7 -208,-313.1 -208,-311.5 -208,-309.6 -208,-307.7 -208,-306.2 -208,-304.5 -208,-302.5 -208,-300.7 -208,-298.9 -208,-296.9 -208,-295.1 -208,-293.2 -208,-291.5 -208,-289.8 -208,-288 -208,-286.4 -208.1,-284.6 -208.2,-282.6 -208.3,-280.7 -208.4,-278.8 -208.5,-276.7 -208.5,-275 -208.6,-273.2 -208.7,-271.4 -208.8,-269.7 -208.9,-268 -209,-266.2 -209,-264.4 -209,-262.8 -209,-261.3 -209.1,-259.4 -209.2,-257.5 -209.3,-255.6 -209.4,-253.7 -209.5,-251.5 -209.5,-249.7 -209.5,-247.9 -209.5,-246.2 -209.5,-244.2 -209.5,-242.4 -209.5,-240.6 -209.4,-238.4 -209.3,-236.3 -209.2,-234.4 -209.1,-232.7 -209,-231 -209,-229.8 -209,-228.2 -209,-226.4 -209,-224.6 -209,-222.8 -209,-220.8 -208.8,-218.6 -208.6,-216.6 -208.4,-214.6 -208.2,-212.7 -208,-211.2 -208,-210.1 -208,-208.7 -207.8,-206.6 -207.6,-204.6 -207.4,-202.5 -207.2,-200.6 -206.8,-198.4 -206.6,-196.8 -206.4,-195.2 -206.2,-193.6 -205.9,-191.5 -205.7,-190 -205.5,-188.5 -205.2,-186.4 -204.8,-184.3 -204.5,-182.8 -204.2,-180.9 -203.7,-178.6 -203.3,-176.9 -202.9,-175.3 -202.4,-173.1 -202,-171.4 -201.7,-170.1 -201.3,-168.4 -200.8,-166.3 -200.4,-164.7 -199.9,-163.1 -199.4,-161 -199,-159.4 -198.6,-157.6 -198.1,-155.9 -197.6,-153.8 -197,-152 -196.4,-150.2 -195.8,-148.6 -195.3,-146.9 -194.7,-145.3 -194.2,-143.9 -193.5,-141.9 -192.9,-140.3 -192.3,-138.7 -191.7,-136.9 -190.9,-134.7 -190.3,-133.1 -189.7,-131.4 -189.1,-129.8 -188.4,-128.1 -187.9,-126.8 -187.4,-125.4 -186.7,-123.6 -185.9,-121.8 -185.1,-119.9 -184.4,-118.1 -183.5,-116.1 -182.9,-114.6 -182.3,-113.1 -181.6,-111.5 -180.8,-109.9 -180.1,-108.5 -179.3,-107.1 -178.3,-105 -177.6,-103.6 -176.8,-102 -176,-100.4 -175.3,-98.8 -174.7,-97.6 -173.9,-96 -173,-94.3 -172.1,-92.6 -171.1,-90.9 -170.2,-89.5 -169.2,-87.9 -168.4,-86.5 -167.4,-84.9 -166.4,-83.2 -165.2,-81.2 -164.4,-79.8 -163.5,-78.3 -162.8,-77 -161.9,-75.4 -161.2,-74 -160.2,-72.4 -159.3,-70.9 -158.1,-69.1 -157.1,-67.7 -156.1,-66.3 -155.1,-64.8 -154.1,-63.4 -153.2,-62 -152.3,-60.6 -151.2,-59 -150.3,-57.8 -149.1,-56.1 -148.1,-54.8 -147.1,-53.4 -146.1,-51.9 -145.1,-50.4 -144.3,-49.1 -143.5,-47.8 -142.5,-46.2 -141.7,-45 -140.7,-43.4 -139.6,-41.7 -138.5,-40 -137.7,-38.6 -136.7,-36.9 -135.9,-35.5 -135.3,-34.5 -134.5,-33.1 -133.7,-31.7 -132.8,-30.2 -132,-28.8 -131.1,-27.1 -130.4,-25.7 -129.3,-23.8 -128.5,-22.2 -127.7,-20.6 -127,-19.2 -126,-17.3 -125.3,-15.9 -124.6,-14.6 -123.8,-13 -123,-11.5 -122.3,-10.1 -121.7,-8.7 -121.1,-7.3 -120.2,-5.6 -119.3,-3.8 -118.7,-2.4 -118,-1.1 -117.1,0.8 -116.6,2.1 -116.1,3.4 -115.3,5.2 -114.6,7 -114.1,8.3 -113.4,9.9 -112.8,11.5 -112.2,13.1 -111.5,14.7 -110.9,16.3 -110.3,17.9 -109.6,19.6 -109.1,20.8 -108.5,22.4 -107.9,24 -107.3,25.6 -106.8,27.1 -106.1,29.1 -105.6,30.7 -105,32.3 -104.5,33.9 -103.9,35.4 -103.6,36.4 -103.1,37.9 -102.5,39.7 -102,41.2 -101.4,43.1 -100.8,45 -100.4,46.4 -100,47.8 -99.6,49.3 -99.2,50.8 -98.7,52.6 -98.1,54.5 -97.7,56 -97.3,57.5 -96.9,59.2 -96.6,60.6 -96.3,62.2 -95.9,63.9 -95.4,65.9 -95,67.4 -94.6,68.8 -94.2,70.6 -93.9,72.3 -93.6,73.7 -93.3,75.6 -93,77.6 -92.7,78.9 -92.3,80.8 -92,82.6 -91.8,83.9 -91.5,85.1 -91.2,87.2 -91,88.7 -90.8,90.3 -90.5,91.9 -90.3,93.7 -90.1,95.2 -89.9,96.8 -89.7,98.3 -89.5,100 -89.3,101.5 -89.2,102.7 -89.1,104 -88.9,105.9 -88.8,107.6 -88.6,109.3 -88.4,111 -88.2,112.8 -88.1,114 -87.9,115.9 -87.8,117.9 -87.7,119.7 -87.5,121.5 -87.3,123.3 -87.2,124.6 -87.1,126.2 -87,127.7 -87,129.2 -87,130.9 -86.9,133.2 -86.8,135.1 -86.6,137.1 -86.4,138.8 -86.2,140.6 -86.1,141.8 -86,143.3 -86,145 -86,146.8 -86,148.6 -86,150.4 -86,151.9 -86,153.4 -86,155.1 -86,156.9 -86,158.4 -86,160.2 -86,161.9 -86,163.6 -86,165.2 -86,167.1 -86,168.9 -86,170.7 -86,172.5 -86,174.3 -86,176.1 -86,177.7 -86.1,179.5 -86.2,181 -86.3,182.3 -86.5,183.8 -86.7,185.6 -86.8,187.4 -86.9,189.2 -87,191.2 -87,193 -87,194.8 -87.1,196.2 -87.2,197.7 -87.4,199.5 -87.6,201.2 -87.8,202.9 -87.9,204.6 -88,206.6 -88.1,208 -88.3,209.8 -88.5,211.6 -88.7,213.7 -88.9,215.4 -89.1,217.2 -89.2,218.4 -89.4,220 -89.6,221.5 -89.9,223.1 -90.2,225.1 -90.5,227.3 -90.7,228.9 -90.9,230.4 -91.2,232.3 -91.4,233.7 -91.6,235.2 -91.9,236.7 -92.3,238.7 -92.5,240.3 -92.7,241.9 -93.1,243.7 -93.4,245.5 -93.6,246.7 -94,248.4 -94.4,250.2 -94.6,251.5 -95,253.4 -95.4,255.3 -95.7,256.7 -96.1,258.6 -96.5,260.6 -96.8,261.9 -97.2,263.6 -97.5,265.2 -97.9,266.8 -98.3,268.4 -98.7,270 -99.1,271.8 -99.5,273.7 -99.8,275 -100.2,276.6 -100.6,278.2 -100.9,279.2 -101.3,280.6 -101.7,282.1 -102.1,283.7 -102.5,285.4 -102.9,287.1 -103.2,288.3 -103.6,289.8 -103.9,290.8 -104.2,292.1 -104.6,293.4 -105,294.8 -105.3,296.2 -105.6,297.6 -105.9,298.6 -106.1,299.6 -106.4,301 -106.6,302.1 -106.9,303.2 -107.1,304.3 -107.3,305.4 -107.4,306 -107.6,307.2 -107.7,308.5 -107.8,309.9 -107.9,311.4 -108,313 -108,314 -108,315.2 -107.9,316.8 -107.8,318.3 -107.7,319.7 -107.5,320.9 -107.3,321.8 -107.2,322.2 -107,323.2 -106.7,324.2 -106.4,325.8 -106,327.4 -105.6,329 -105.2,330.3 -104.8,331.5 -104.4,332.4 -104.1,333.3 -103.7,334.1 -103.4,334.6 -103.2,335.2 -102.9,335.9 -102.5,336.8 -101.9,338.1 -101.2,339.5 -100.4,340.8 -99.8,341.8 -99.2,342.6 -98.6,343.4 -98.1,344.1 -97.4,345.1 -96.7,346.1 -95.9,347.2 -95,348.4 -93.9,349.7 -92.9,350.9 -91.9,352.1 -90.9,353.3 -90.1,354.1 -89,355.1 -88,356 -86.9,356.9 -86,357.7 -85.2,358.4 -84.2,359.2 -83.2,360 -82.2,360.8 -81.2,361.6 -79.9,362.6 -79.1,363.2 -78,364 -76.9,364.8 -75.7,365.5 -74.8,366.1 -73.8,366.9 -73.1,367.4 -72,368.2 -70.9,369.1 -69.3,370.3 -67.8,371.3 -65.9,372.7 -64.4,373.7 -62.9,374.7 -61.9,375.4 -61,376.1 -60.2,376.8 -59.4,377.6 -58.6,378.3 -57.7,379.1 -56.7,380 -55.9,380.7 -55,381.5 -54.2,382.4 -53.2,383.4 -52.3,384.4 -51.4,385.4 -50.5,386.4 -49.5,387.4 -48.8,388.2 -47.9,389.2 -47.1,390.2 -46.4,391.1 -45.7,392 -44.8,393.2 -44.1,394.2 -43.4,395.1 -42.7,396.1 -41.8,397.4 -41.2,398.4 -40.6,399.3 -40,400.2 -39.3,401.4 -38.8,402.4 -38.1,403.6 -37.2,405.1 -36.4,406.7 -35.7,407.8 -35.1,408.9 -34.6,409.8 -34.3,410.7 -33.8,411.8 -33.3,413 -32.8,414.1 -32.2,415.8 -31.6,417.2 -31.2,418.3 -30.8,419.5 -30.2,421.4 -29.7,423.2 -29.2,425 -28.6,427.3 -28,429.5 -27.6,431 -27.3,432 -26.9,433.5 -26.5,434.9 -26.2,436.3 -25.8,437.8 -25.4,439.3 -25.1,441 -24.8,442.3 -24.5,443.7 -24.2,445.4 -23.9,447.1 -23.6,448.2 -23.4,449.3 -23.1,450.9 -22.8,452.1 -22.5,453.3 -22.2,454.9 -21.8,456.5 -21.5,457.6 -21.2,459.3 -20.8,461 -20.5,462.3 -20.2,464.1 -19.8,465.8 -19.5,467 -19.2,468.7 -18.8,470.3 -18.4,472.3 -18,474.3 -17.6,476.3 -17.2,478.4 -16.8,480.5 -16.5,481.8 -16.3,483.1 -16.1,484.4 -15.8,485.7 -15.6,487 -15.4,488.3 -15,490.2 -14.6,492 -14.4,493.3 -14.2,494.6 -14,496.2 -14,497.3 -13.9,498.4 -13.7,500.1 -13.5,501.9 -13.3,503.3 -13.1,504.7 -13,506.4 -13,507.5 -13,508.8 -13,510.2 -13,511.7 -13,513.1 -13,514.5 -13,515.6 -13.1,516.6 -13.3,518 -13.5,519.4 -13.7,520.8 -14,522.3 -14.2,523.8 -14.4,525.2 -14.7,526.4 -15,527.6 -15.3,529.1 -15.7,530.7 -16,531.8 -16.4,533.2 -16.8,534.6 -17.2,535.6 -17.6,536.7 -18.2,538.2 -18.6,539.4 -19.2,540.9 -19.7,542.4 -20.2,543.7 -20.7,544.9 -21.2,546.1 -21.8,547.3 -22.4,548.6 -23.1,550.1 -23.7,551.3 -24.4,552.7 -25,554 -25.7,555.2 -26.2,556.2 -26.9,557.7 -27.6,559 -28.2,560 -28.9,561.5 -29.7,563 -30.3,564 -31.1,565.4 -31.9,567 -32.6,568.1 -33.4,569.5 -34.1,570.9 -34.8,572.3 -35.5,573.5 -36.2,574.8 -37,576.2 -37.9,577.8 -38.6,579 -39.4,580.5 -40.3,582.1 -41,583.6 -41.7,584.9 -42.6,586.7 -43.4,588.2 -44.1,589.6 -44.9,591.1 -45.7,592.6 -46.3,593.7 -47.1,595.1 -47.9,596.7 -48.6,597.9 -49.4,599.4 -50.2,600.8 -51,602.4 -51.8,603.8 -52.9,605.9 -53.8,607.7 -54.7,609.5 -55.4,610.9 -56.3,612.7 -56.9,613.9 -57.8,615.4 -58.8,617.2 -59.9,619.1 -60.7,620.6 -61.5,622 -62.4,623.8 -63.2,625.4 -63.9,626.9 -64.7,628.3 -65.7,630.2 -66.6,631.8 -67.4,633.3 -68.4,635.2 -69.4,637.2 -70.2,638.7 -71.1,640.5 -72.1,642.3 -72.9,643.7 -73.9,645.4 -75,647.5 -75.7,648.9 -76.4,650.4 -77.4,652.4 -78.2,654 -79,655.5 -79.9,657.1 -81,659 -81.7,660.3 -82.6,662.3 -83.4,664 -84.2,665.7 -85,667.4 -86,669.3 -86.9,670.8 -87.8,672.7 -88.7,674.5 -89.4,676 -90.2,677.7 -90.9,679.4 -91.6,680.8 -92.3,682.3 -93.2,684.1 -94,685.8 -94.9,687.6 -95.7,689.4 -96.5,691.1 -97.3,692.9 -98.1,694.7 -98.8,696.5 -99.6,698.2 -100.4,700 -101.2,701.8 -101.9,703.7 -102.6,705.2 -103.4,707 -104.2,709.1 -104.8,710.8 -105.4,712.4 -106,714.1 -106.6,715.9 -107.1,717.3 -107.7,719 -108.3,720.8 -108.9,722.6 -109.4,724.4 -110.1,726.7 -110.6,728.6 -111.1,730.2 -111.6,732.2 -112.1,733.9 -112.5,735.5 -112.9,737.2 -113.3,738.8 -113.7,740.5 -114.2,742.7 -114.6,744.5 -115.1,746.3 -115.6,748.7 -116,750.6 -116.3,752 -116.7,753.9 -117,755.8 -117.3,757.2 -117.7,759.2 -118,761.2 -118.3,762.7 -118.7,764.7 -119,766.9 -119.2,768.5 -119.5,770 -119.8,772.1 -120,773.8 -120.2,775.5 -120.4,777.2 -120.7,779.5 -120.9,781.2 -121.1,783.1 -121.3,785 -121.5,787 -121.5,788.4 -121.6,789.9 -121.8,791.6 -122,793.3 -122.2,795.2 -122.4,797.1 -122.5,799.3 -122.5,801.2 -122.5,802.8 -122.5,804.5 -122.5,806.2 -122.5,807.6 -122.5,809.7 -122.5,811.9 -122.5,813.6 -122.5,815.5 -122.5,817.7 -122.5,819.2 -122.5,820.9 -122.5,822.7 -122.5,824.6 -122.5,826.2 -122.5,827.8 -122.4,829.7 -122.2,831.6 -122,833.3 -121.8,835.3 -121.6,837 -121.4,838.9 -121.3,840.8 -121.2,842.6 -121,844.2 -120.8,846.1 -120.6,847.8 -120.4,849.5 -120.1,851.2 -119.8,853.4 -119.5,855.3 -119.3,856.7 -119.1,858.1 -118.8,860.2 -118.6,861.6 -118.4,863.1 -118.1,864.8 -117.7,867 -117.5,868.6 -117.1,870.6 -116.7,872.6 -116.4,874.3 -116,876 -115.6,877.6 -115.3,879 -114.9,880.8 -114.5,882.7 -114.1,884.4 -113.7,886.1 -113.4,887.7 -113,889.2 -112.6,890.7 -112.2,892.4 -111.8,894.2 -111.2,896.2 -110.8,897.9 -110.2,899.8 -109.8,901.2 -109.3,902.6 -108.9,904.3 -108.4,905.9 -108,907.6 -107.5,909.3 -107.1,910.9 -106.7,912.4 -106.2,914.4 -105.7,916 -105.2,917.9 -104.7,919.9 -104.2,921.4 -103.9,922.4 -103.5,924.1 -103.1,925.7 -102.6,927.3 -102.1,929.4 -101.5,931.5 -101.1,933 -100.6,934.6 -100.2,936.2 -99.7,937.8 -99.3,939.4 -98.8,941 -98.4,942.6 -98,944.2 -97.6,945.8 -97.2,947.5 -96.7,949.4 -96.3,951 -95.8,952.5 -95.4,954.1 -94.9,955.7 -94.5,957.3 -94,958.9 -93.5,960.9 -93.1,962.3 -92.7,963.7 -92.2,965.4 -91.8,967 -91.4,968.6 -90.8,970.6 -90.3,972.5 -89.9,973.9 -89.4,975.9 -88.9,977.5 -88.5,979.1 -88.1,980.7 -87.6,982.6 -87.2,984 -86.8,985.4 -86.4,986.9 -85.9,988.4 -85.5,990 -85,991.6 -84.5,993.5 -84,995 -83.5,997 -83,998.5 -82.5,1000.3 -82,1001.8 -81.6,1003.2 -81.1,1004.6 -80.5,1006.3 -80,1007.7 -79.4,1009.4 -78.8,1011.2 -78.1,1013.1 -77.6,1014.7 -77,1016.3 -76.5,1017.9 -75.9,1019.5 -75.5,1020.8 -75,1022.2 -74.4,1023.9 -73.9,1025.3 -73.2,1027.2 -72.5,1028.9 -71.7,1030.9 -71,1032.6 -70.3,1034.3 -69.8,1035.4 -69.2,1036.9 -68.6,1038.3 -68,1039.9 -67.3,1041.5 -66.4,1043.6 -65.7,1045.2 -65.1,1046.6 -64.3,1048.3 -63.6,1050 -62.9,1051.7 -62.1,1053.4 -61.4,1055.1 -60.9,1056.2 -60.2,1057.9 -59.7,1059.2 -59,1060.9 -58.2,1062.6 -57.3,1064.5 -56.6,1065.9 -55.7,1067.7 -55,1069.1 -54.3,1070.5 -53.7,1072 -52.8,1073.8 -52.1,1075.1 -51.4,1076.5 -50.7,1078.1 -49.8,1079.8 -49.1,1081.2 -48.4,1082.6 -47.7,1084.2 -46.9,1085.8 -46.1,1087.5 -45.3,1089.1 -44.3,1091.1 -43.3,1092.8 -42.5,1094.3 -41.9,1095.3 -41,1097 -40.3,1098.3 -39.6,1099.7 -38.8,1101 -37.7,1103.1 -36.9,1104.5 -36.1,1105.9 -35.2,1107.5 -34.3,1109.2 -33.5,1110.5 -32.5,1112.2 -31.5,1114 -30.6,1115.6 -29.7,1117.1 -29,1118.3 -28.2,1119.7 -27.4,1121 -26.7,1122.2 -25.6,1123.9 -24.5,1125.6 -23.8,1126.7 -22.9,1128.2 -21.9,1129.7 -21.1,1131.2 -20.3,1132.6 -19.2,1134.3 -18.2,1135.8 -17.2,1137.3 -16.2,1138.7 -15.2,1140.1 -13.9,1141.9 -13.1,1143 -12.2,1144.3 -11.3,1145.6 -10.4,1146.9 -9.9,1147.7 -8.9,1149.3 -7.9,1150.9 -7.1,1152.1 -6,1153.8 -5,1155.3 -3.8,1156.9 -2.6,1158.4 -1.4,1159.9 -0.3,1161.3 0.9,1162.8 1.9,1164.1 2.8,1165.3 3.9,1166.8 4.9,1168.1 5.8,1169.3 6.8,1170.6 8,1172.2 9,1173.5 9.9,1174.6 11.1,1176.2 12.1,1177.5 12.9,1178.5 13.9,1179.8 15.1,1181.4 16,1182.5 16.9,1183.6 18.1,1185.2 19.2,1186.6 20.2,1187.7 21.1,1188.8 22.2,1190.2 23.2,1191.4 24.3,1192.6 25.5,1194.1 26.9,1195.7 28.2,1197.1 29.4,1198.3 30.4,1199.5 31.5,1200.7 32.5,1201.9 33.5,1203.1 34.6,1204.4 35.7,1205.6 37,1207 38.3,1208.4 39.7,1209.8 41,1211.1 42.2,1212.4 43,1213.2 44,1214.2 45,1215.4 46.1,1216.6 47.4,1218 48.6,1219.4 50,1220.9 51.2,1222.1 52.3,1223.3 53.6,1224.6 55,1226 56,1227 57,1228 58.8,1229.8 60.4,1231.4 62,1233 64,1234.9 66.1,1236.9 67.3,1238 68.5,1239 69.8,1240.2 71.2,1241.6 72.5,1242.8 73.8,1244.1 75.2,1245.5 76.5,1246.7 77.8,1247.7 79.1,1248.8 80.4,1249.9 81.6,1250.9 83.2,1252.1 84.3,1253.1 85.6,1254.2 87.3,1255.5 89,1256.8 90.2,1257.8 91.5,1258.8 93.1,1260.1 94.3,1261.1 95.4,1262 96.6,1263 98.2,1264.3 99.4,1265.2 101,1266.4 102.7,1267.7 104.3,1268.9 105.5,1269.8 107,1271 108.2,1271.9 109.3,1272.8 110.8,1274 112.3,1275.1 113.4,1275.9 114.6,1276.8 116.2,1278.1 117.5,1279.1 119.1,1280.4 120.8,1281.7 122.3,1282.9 123.9,1284 125.4,1285.1 126.6,1285.9 128.1,1287 129.6,1288.1 130.7,1288.9 132.2,1290 133.7,1291.1 134.8,1291.9 136.4,1293 137.9,1294.1 139,1294.9 140.5,1296 142.1,1297.1 143.6,1298.2 145.2,1299.3 146.8,1300.4 148.4,1301.5 149.9,1302.6 151,1303.4 152.6,1304.5 154.2,1305.6 155.7,1306.6 157.3,1307.6 159.2,1308.8 160.6,1309.7 162,1310.6 163.4,1311.6 164.8,1312.6 165.9,1313.3 166.9,1314 168.4,1315 169.6,1315.7 171.1,1316.7 172.7,1317.8 174.3,1318.9 176,1320.1 177.6,1321.3 178.8,1322.2 180.4,1323.4 182.1,1324.6 183.2,1325.4 184.8,1326.5 186.4,1327.6 187.5,1328.4 188.5,1329.1 190.2,1330.2 191.4,1331 192.9,1331.9 194.5,1332.8 196.1,1333.8 197.5,1334.7 198.9,1335.6 200,1336.4 201.5,1337.5 203,1338.6 204.5,1339.7 206,1340.8 207.5,1341.8 208.5,1342.5 210.2,1343.6 211.4,1344.4 213,1345.5 214.6,1346.6 216.2,1347.7 217.6,1348.7 219,1349.6 220,1350.2 221,1350.8 221.9,1351.4 222.3,1351.6 222.9,1352.1 223.5,1352.5 224.9,1353.5 226.5,1354.6 228.1,1355.7 229.4,1356.6 231.2,1357.8 232.2,1358.4 233,1358.9 233.8,1359.4 234.8,1360 235.7,1360.6 237,1361.5 239,1362.6 241.4,1363.8 243.7,1364.9 246.1,1365.8 248.2,1366.5 250.5,1367 252.5,1367.4 255.3,1367.6 257.6,1367.7 259.9,1367.7 261.8,1367.5 263.7,1367.3 265.4,1366.9 267.3,1366.4 269.1,1365.9 270.8,1365.3 272.8,1364.4 274.2,1363.7 275.7,1362.9 277.5,1361.8 279,1360.8 280.1,1360.1 281.1,1359.4 282.3,1358.4 283.2,1357.6 284,1356.8 285,1355.7 286,1354.6 286.5,1354 287,1353.4 287.7,1352.5 288.3,1351.7 289.2,1350.3 290.2,1348.7 291.1,1347.1 291.9,1345.6 292.7,1343.7 293.3,1342.3 293.7,1341 294.1,1339.7 294.6,1338.1 294.9,1336.9 295.1,1335.7 295.3,1334.4 295.5,1333 295.5,1332 295.5,1331 295.5,1330 295.4,1328.6 295.3,1327.3 295.2,1326.1 295.1,1325 295,1323.8 295,1323 294.9,1321.8 294.8,1320.6 294.7,1319.4 294.5,1318.4 294.3,1317.4 294.1,1316.4 293.9,1315.4 293.6,1314.4 293.4,1313.4 293,1312 292.7,1311 292.3,1309.5 292,1308 291.6,1306.5 291.4,1305.5 291.1,1304.1 290.8,1303.2 290.5,1302.3 290.3,1301.4 290,1300.1 289.7,1299.2 289.5,1298.3 289.3,1297.4 289,1296.1 288.7,1295.2 288.5,1294.3 288.2,1293.1 287.9,1291.8 287.6,1290.9 287.4,1289.9 287.1,1288.5 286.8,1287.4 286.4,1286 286.1,1284.6 285.8,1283.3 285.5,1282.4 285.3,1281.4 285.1,1280.4 284.9,1279.3 284.5,1277.9 284.2,1276.5 283.9,1275.2 283.6,1274.3 283.2,1273.1 283,1272.1 282.8,1271.1 282.4,1269.7 282.1,1268.3 281.9,1267.2 281.6,1266.1 281.2,1264.6 281,1263.5 280.7,1262.3 280.3,1260.8 280,1259.4 279.7,1258.3 279.3,1256.8 279,1255.4 278.7,1254.4 278.4,1253.4 278.1,1251.9 277.8,1250.8 277.5,1249.6 277.2,1248 276.8,1246.4 276.5,1245.3 276.2,1243.8 275.8,1242.4 275.4,1241 275.1,1239.6 274.8,1238.3 274.5,1237.3 274.2,1235.8 274,1234.7 273.7,1233.6 273.3,1232 273,1230.5 272.7,1229.4 272.4,1228.3 272.1,1226.7 271.9,1225.5 271.6,1224.3 271.4,1223.2 271.1,1221.5 270.8,1220.2 270.4,1218.6 270.1,1217 269.7,1215.3 269.4,1214.2 269.1,1212.6 268.8,1211.4 268.5,1210.1 268.2,1208.4 267.9,1206.7 267.6,1205.6 267.4,1204.4 267.1,1202.8 266.8,1201.6 266.5,1200.4 266.2,1198.7 265.8,1197 265.5,1195.8 265.2,1194.1 264.9,1192.4 264.6,1191.2 264.3,1189.5 264,1187.8 263.7,1186.6 263.4,1185.4 263.1,1183.7 262.9,1182.5 262.6,1181.3 262.3,1179.6 262,1177.8 261.7,1176.5 261.3,1174.7 261,1172.9 260.7,1171.7 260.4,1170.4 260.1,1168.7 259.8,1167.5 259.5,1166.1 259.2,1164.3 258.8,1162.6 258.5,1161.1 258.2,1159.3 257.9,1157.7 257.6,1156.4 257.3,1154.8 256.9,1153.3 256.6,1152.1 256.2,1150.4 255.8,1148.7 255.5,1147.4 255.3,1146.2 255,1144.5 254.7,1143.2 254.5,1142 254.2,1140.2 253.8,1138.4 253.5,1137.1 253.2,1135.4 252.8,1133.6 252.5,1132.3 252.2,1130.5 251.8,1128.7 251.5,1127.4 251.3,1126.2 250.9,1124.5 250.6,1123.2 250.3,1121.4 249.9,1119.6 249.5,1117.8 249.3,1116.5 248.9,1114.7 248.6,1113.5 248.4,1112.3 248,1110.5 247.6,1108.7 247.4,1107.4 247,1105.6 246.6,1103.8 246.4,1102.5 246,1100.8 245.6,1099.1 245.4,1097.8 245,1096 244.6,1094.2 244.4,1092.8 244,1091 243.6,1089.3 243.4,1088 243,1086.4 242.6,1084.9 242.4,1083.7 242,1082 241.6,1080.4 241.4,1079.2 241,1077.3 240.6,1075.6 240.4,1074.4 240,1072.7 239.6,1070.9 239.4,1069.8 239,1068.2 238.6,1066.4 238.4,1065.1 238,1063.4 237.6,1061.6 237.4,1060.2 237,1058.5 236.6,1056.7 236.3,1055 235.9,1053.4 235.5,1051.9 235.2,1050.3 234.8,1048.7 234.5,1047.5 234.2,1045.7 233.8,1043.8 233.5,1042.5 233.2,1040.7 232.8,1038.8 232.5,1037.5 232.2,1035.8 231.8,1034 231.5,1032.8 231.2,1031.1 230.8,1029.3 230.5,1028 230.2,1026.3 229.8,1024.4 229.5,1023.1 229.2,1021.4 228.8,1019.6 228.5,1018.2 228.1,1016.4 227.7,1014.6 227.4,1013.1 227,1011.2 226.6,1009.3 226.3,1007.6 225.9,1005.9 225.5,1004.3 225.1,1002.6 224.7,1000.9 224.2,999 223.8,997.1 223.4,995.3 223,993.4 222.6,991.6 222.4,990.4 222.1,989.1 221.7,987.2 221.4,986 221,984.3 220.6,982.5 220.2,980.7 219.8,979 219.4,977.2 219.1,975.8 218.7,974 218.3,972.2 218,970.8 217.6,969 217.2,967.2 216.8,965.8 216.4,963.9 215.9,962.1 215.5,960.4 215.1,958.7 214.7,957.1 214.2,955.4 213.8,953.7 213.5,952.4 213,950.6 212.5,948.4 212.1,946.8 211.7,945.2 211.1,943 210.7,941.3 210.2,939.6 209.8,938 209.2,936 208.8,934.5 208.3,933.1 207.9,931.5 207.5,929.8 207.1,928 206.7,926.3 206.2,924.2 205.7,922.6 205.1,920.5 204.7,918.9 204.1,916.9 203.6,915.2 203.1,913.3 202.6,911.9 202,910.1 201.5,908.6 201.1,907.2 200.6,905.5 200.2,903.8 199.7,902.1 199.3,900.4 198.7,898.3 198.1,896.5 197.5,894.7 196.9,892.9 196.3,891.1 195.8,889.7 195.4,888.1 194.8,886.2 194.2,884.3 193.6,882.5 193,880.7 192.3,878.9 191.8,877.5 191.3,876.1 190.8,874.6 190.2,872.7 189.7,870.9 189.1,869 188.6,867.2 188,865.5 187.4,863.6 186.9,862.1 186.4,860.7 185.8,859.1 185.2,857.2 184.8,855.9 184.2,854.2 183.6,852.4 183,850.5 182.4,848.9 181.7,847.2 181.1,845.6 180.5,844 180,842.5 179.5,841 179,839.2 178.5,837.6 178,835.8 177.4,834.2 176.8,832.5 176.2,830.9 175.6,829.3 175,827.6 174.4,825.8 173.8,823.9 173.2,822.2 172.7,820.6 172.1,819 171.6,817.8 171.1,816.3 170.6,814.9 170,813.1 169.5,811.6 169,809.7 168.8,809 168.5,808" style="stroke: rgb(55, 65, 81); stroke-width: 10;"></polygon><polyline vector-effect="non-scaling-stroke" fill="none" points="167.2,804.5 166.9,803.8 166.6,803 166.2,801.9 165.8,800.8 165.3,799.3 165,798.2 164.7,797.3 164.4,796.4 164,795.1 163.6,794 163.2,792.9 162.8,791.8 162.4,790.7 162,789.7 161.7,788.8 161.3,787.6 160.9,786.4 160.5,785.2 160.2,784 159.7,782.7 159.3,781.7 158.9,780.7 158.5,779.6 158.2,778.8 157.9,777.8 157.6,776.8 157.2,775.5 156.7,774.1 156.2,772.6 155.8,771.5 155.4,770.4 155,769.2 154.7,768.2 154.2,766.9 153.8,765.6 153.4,764.3 153,763.1 152.6,761.8 152.2,760.6 151.7,759.2 151.1,757.8 150.7,756.6 150.2,755.2 149.8,754.1 149.4,752.8 149,751.5 148.6,750.3 148.1,749 147.7,747.7 147.2,746.5 146.8,745.2 146.2,743.6 145.8,742.3 145.2,740.7 144.8,739.3 144.2,737.7 143.8,736.3 143.2,734.7 142.8,733.3 142.2,731.7 141.8,730.3 141.2,728.7 140.7,727.1 140.1,725.6 139.6,724 139,722.4 138.5,720.8 138,719.4 137.5,718 137,716.5 136.4,714.7 135.8,713 135.2,711.3 134.6,709.2 134,707.6 133.3,705.8 132.7,704.1 132.1,702.5 131.6,701.2 131,699.4 130.6,697.8 130,696.1 129.4,694.3 128.7,692.2 128.1,690.5 127.6,689.2 127,687.4 126.4,685.6 125.8,683.8 125.2,682.1 124.6,680.3 124,678.5 123.4,676.7 122.8,674.9 122.1,672.9 121.4,670.9 120.9,669.5 120.3,667.7 119.8,666.2 119.2,664.3 118.5,662.5 117.9,660.7 117.2,658.7 116.5,656.7 116,655.2 115.3,653 114.6,650.8 114.1,649.3 113.4,647.5 112.8,645.7 112.2,643.9 111.6,642.1 111,640.2 110.3,638.1 109.6,636 109.1,634.5 108.3,632.5 107.6,630.5 107.1,629 106.3,627 105.6,625 105.1,623.5 104.4,621.6 103.8,619.7 103.2,617.7 102.5,615.8 101.8,613.6 101.1,611.6 100.3,609.6 99.8,608.2 99.1,606.1 98.4,604.3 97.8,602.4 97.2,600.5 96.4,598.3 95.8,596.5 95.2,594.7 94.7,593.2 94,591.1 93.4,589.3 92.8,587.4 92.2,585.5 91.4,583.3 90.8,581.5 90.2,579.7 89.4,577.7 88.7,575.7 88.1,574 87.4,572.1 86.8,570.3 86.2,568.5 85.5,566.7 84.9,564.9 84.2,563 83.5,561 83,559.5 82.4,557.6 81.8,555.8 81.2,554 80.5,552.2 79.9,550.4 79.3,548.6 78.4,546.2 77.8,544.3 77.2,542.5 76.4,540.3 75.5,537.8 74.8,535.8 74,533.5 73.2,531.1 72.6,529.2 72,527.4 71.4,525.6 70.8,523.8 70.2,522 69.3,519.6 68.7,517.9 68.1,516.2 67.3,514.3 66.6,512.4 66.1,511 65.4,509.1 64.7,506.9 64.1,505.1 63.4,503.3 62.8,501.5 62.2,499.7 61.5,497.9 60.9,496 60.3,494.2 59.5,492.1 58.9,490.4 58.3,488.6 57.7,486.8 57.1,484.9 56.5,483.1 55.9,481.3 55.3,479.5 54.6,477.7 54,475.9 53.4,474 52.8,472.2 52.1,470.3 51.5,468.6 50.9,466.9 50.3,465.1 49.5,462.9 48.9,461.1 48.3,459.3 47.7,457.5 47.1,455.7 46.5,453.9 45.9,452 45.3,450.2 44.6,448.4 44,446.6 43.4,444.8 42.8,443 42.2,441.2 41.5,439.1 40.9,437.4 40.3,435.6 39.8,434 39.2,432.1 38.6,430.3 38,428.5 37.4,426.7 36.8,425 36.2,423.2 35.6,421.4 35,419.6 34.4,418 33.8,416.3 33.2,414.5 32.6,412.8 32,411.1 31.4,409.3 30.8,407.5 30.1,405.7 29.6,404 29,402.4 28.6,401.1 28,399.4 27.6,398.2 27,396.5 26.4,394.8 25.8,393.1 25.3,391.9 24.8,390.2 24.4,389.1 23.9,387.4 23.3,385.8 22.8,384.1 22.3,382.9 21.7,381 21.2,379.7 20.7,378.1 20.1,376.6 19.5,374.7 19,373.5 18.6,372.3 18.1,370.9 17.7,369.5 17.4,368.5 17,367.2 16.5,365.6 16.1,364.5 15.7,363.4 15.1,362 14.7,360.9 14.4,360.1 14,359 13.6,357.9 13.4,357.1 13,356 12.6,354.9 12.4,354.1 12,353 11.6,351.9 11.4,351.1 11.1,350 10.7,349 10.5,348.3 10.3,347.6 10,346.6 9.7,346 9.4,345.1 9,344.1 8.4,342.6 7.8,341.3 7.3,339.9 6.8,338.8 6.3,337.5 5.7,336.1 5,334.5 4.2,333 2.4,330.3 -4.3,328.5 -10.7,327.5 -17,326.9 -23.6,326.4 -29.1,327.2 -30,327.6 -31.3,328.1 -32.6,328.7 -33.7,329.2 -35.3,329.8 -36.7,330.3 -37.8,330.6 -39,330.9 -40.2,331.2 -41.1,331.3 -42,331.4 -43.2,331.5 -44.3,331.5 -45.3,331.5 -46.2,331.5 -47,331.5 -47.4,331.4 -47.8,331.3 -48.6,331.1 -49.4,330.9 -50.2,330.7 -51,330.5 -51.8,330.3 -52.5,330.1 -53.2,329.8 -54,329.4 -54.9,329.1 -55.9,328.6 -56.6,328.2 -57.6,327.5 -58.6,326.8 -59.5,326 -60.6,325 -61.7,323.8 -62.5,323 -63.2,322.2 -63.9,321.4 -64.6,320.5 -65.2,319.7 -65.7,318.8 -66.2,317.9 -66.8,316.9 -67.1,316 -67.4,315.1 -67.8,314.2 -68.1,313.3 -68.3,312.5 -68.4,312 -68.5,311.4 -68.5,310.7 -68.5,309.9 -68.5,309 -68.5,308 -68.5,307 -68.5,306 -68.5,304.8 -68.5,303.6 -68.5,302.4 -68.4,301.2 -68.3,300 -68.2,299 -68.1,298.1 -68,297.3 -68,296.5 -67.8,295.3 -67.6,294.1 -67.4,292.9 -67.2,291.7 -66.9,290.6 -66.8,290 -66.6,289 -66.4,287.9 -66.1,286.8 -65.9,285.7 -65.7,284.6 -65.5,283.4 -65.2,282.2 -65,281 -64.8,279.8 -64.5,278.6 -64.3,278 -64.1,277 -63.8,275.9 -63.5,274.8 -63.3,273.7 -62.9,272.1 -62.6,271 -62.4,270 -62.1,268.9 -61.7,267.5 -61.5,266.6 -61.2,265.7 -60.8,264.4 -60.4,263.2 -60,261.9 -59.5,260.6 -59.1,259.3 -58.7,258.3 -58.3,257.1 -57.8,256 -57.4,254.9 -56.8,253.4 -56.3,252 -55.8,250.8 -55.5,249.9 -54.9,248.4 -54.5,247.3 -54,246.2 -53.6,245.1 -52.9,243.4 -52.5,242.3 -52,241.2 -51.5,239.7 -50.9,238.2 -50.6,237.3 -50.2,236.2 -49.7,234.7 -49.3,233.6 -48.8,232.1 -48.3,230.6 -47.8,229.3 -47.3,227.8 -46.7,226.3 -46.2,224.7 -45.6,223.1 -45.1,221.4 -44.7,220 -44.3,218.6 -43.9,217.2 -43.5,215.8 -43.1,214.4 -42.7,212.8 -42.3,211.1 -42,209.9 -41.7,208.1 -41.4,206.4 -41.1,205.1 -40.8,203.3 -40.5,201.4 -40.3,199.8 -40,198.2 -39.8,196.6 -39.7,195.6 -39.5,194 -39.3,192.4 -39.2,190.7 -39.1,188.8 -39,186.8 -38.9,185.2 -38.8,183.8 -38.7,182.5 -38.5,181 -38.3,179.4 -38.2,177.8 -38.1,176.1 -38.2,173.8 -38.4,171.9 -38.6,170.2 -38.8,168.7 -39,167 -39,165.9 -39,164.5 -39,162.8 -39.1,160.7 -39.3,158.9 -39.5,157 -39.7,155.4 -40,153.4 -40.2,151.9 -40.4,150.4 -40.6,148.8 -40.9,146.8 -41.1,145.4 -41.4,143.9 -41.6,142.4 -41.9,140.5 -42.2,139 -42.5,137.6 -42.8,135.7 -43.1,133.8 -43.4,132.5 -43.7,130.6 -44,128.6 -44.3,127.2 -44.6,125.8 -44.9,123.7 -45.1,122.3 -45.4,120.9 -45.6,119.2 -45.8,117.5 -46.1,115.9 -46.4,114.2 -46.6,112.6 -46.9,110.6 -47.3,108.6 -47.5,107.2 -47.8,105.3 -48.1,103.3 -48.4,102 -48.6,100.6 -48.9,98.6 -49.2,97.1 -49.5,95.7 -49.8,93.6 -50.1,91.6 -50.4,90.2 -50.6,88.8 -50.9,86.6 -51.1,85.1 -51.4,83.6 -51.7,81.5 -52,79.5 -52.3,78.2 -52.6,76.7 -52.9,74.8 -53.1,73.4 -53.4,71.9 -53.6,70.5 -53.9,68.6 -54.2,67.1 -54.5,65.7 -54.8,63.8 -55.1,61.8 -55.4,60.5 -55.6,59 -55.9,56.9 -56.1,55.4 -56.4,53.9 -56.6,52.3 -56.9,50.4 -57.2,49 -57.5,47.6 -57.8,45.7 -58.1,43.8 -58.4,42.5 -58.7,40.6 -59,38.6 -59.2,37.2 -59.5,35.8 -59.8,33.7 -60,32.3 -60.3,30.9 -60.7,29 -61,27.1 -61.2,25.8 -61.5,24.5 -61.8,22.6 -62,21.1 -62.2,19.7 -62.6,17.7 -62.9,15.7 -63.1,14.3 -63.4,12.9 -63.8,10.9 -64,9.5 -64.3,8 -64.6,6.6 -64.9,4.5 -65.1,3 -65.4,1.5 -65.7,-0.5 -66,-2.5 -66.3,-3.8 -66.6,-5.1 -66.9,-7 -67.1,-8.4 -67.4,-9.8 -67.6,-11.3 -67.9,-13.3 -68.2,-14.7 -68.5,-16.1 -68.8,-18 -69.1,-19.8 -69.4,-21.1 -69.7,-22.9 -70,-24.7 -70.3,-26 -70.6,-27.3 -70.8,-28.8 -71,-30.3 -71.3,-31.8 -71.5,-33.3 -71.8,-35.4 -72.2,-37.3 -72.5,-38.7 -72.7,-40 -73,-42 -73.3,-43.4 -73.5,-44.8 -73.7,-46.3 -73.9,-47.9 -74.2,-49.4 -74.4,-50.8 -74.6,-52.3 -74.8,-53.7 -75.1,-55.6 -75.3,-56.9 -75.5,-58.3 -75.7,-59.6 -75.9,-61 -76.2,-62.4 -76.4,-63.8 -76.6,-65.1 -76.8,-66.6 -77,-67.9 -77.1,-69.2 -77.3,-70.6 -77.5,-72 -77.7,-73.2 -77.9,-74.5 -78,-75.5 -78,-76.4 -78.1,-77.9 -78.2,-79.4 -78.3,-80.8 -78.4,-81.9 -78.6,-83 -78.7,-83.6 -78.8,-84.3 -78.9,-85.1 -79,-86.2 -79,-87.4 -79.1,-89 -79.2,-90.6 -79.3,-92.2 -79.4,-93.8 -79.5,-95.5 -79.5,-97.1 -79.5,-98.9 -79.6,-101.2 -79.7,-103.3 -79.8,-105.2 -80,-106.6 -80.2,-107.8 -80.5,-109.2 -80.9,-110.9 -81.4,-112.5 -81.9,-114.4 -82.4,-116.2 -82.8,-117.1 -83.3,-117.9 -85.1,-119.5 -87.2,-121 -89.8,-122.6 -92.5,-124.3 -95.3,-125.8 -97.2,-126.6 -98.9,-127.3 -100.2,-127.8 -101.4,-128.2 -102.6,-128.5 -103.4,-128.8 -104.4,-129.1 -105.4,-129.4 -106.8,-129.9 -108.1,-130.3 -109.6,-130.8 -110.8,-131.2 -112.2,-131.8 -113.2,-132.2 -114.1,-132.6 -115,-133 -115.9,-133.4 -116.8,-133.8 -118,-134.3 -119.2,-134.9 -120.4,-135.4 -121.6,-136 -122.8,-136.5 -123.8,-137 -125.2,-137.7 -126.4,-138.3 -127.6,-138.9 -128.6,-139.5 -129.6,-140 -130.6,-140.6 -131.6,-141.3 -132.6,-142 -133.7,-142.8 -134.8,-143.8 -135.7,-144.6 -136.7,-145.5 -138.1,-146.7 -139.4,-147.8 -140.6,-148.8 -141.7,-149.8 -142.8,-150.8 -143.6,-151.6 -144.5,-152.5 -145.5,-153.5 -146.5,-154.6 -147.5,-155.6 -148.6,-156.8 -149.7,-158 -150.9,-159.4 -152,-160.6 -153,-161.8 -154.1,-163.2 -155.1,-164.5 -155.9,-165.5 -156.7,-166.6 -157.7,-168.2 -158.4,-169.4 -159.1,-170.6 -160,-172.2 -160.9,-173.7 -161.7,-175 -162.5,-176.4 -163.5,-178.2 -164.3,-179.6 -165.1,-181.1 -165.7,-182.3 -166.5,-183.9 -167.1,-185.2 -167.6,-186.5 -168.2,-188.1 -169.1,-190.1 -169.7,-191.6 -170.3,-193.1 -170.9,-194.6 -171.5,-196.3 -171.8,-197.6 -172.3,-199.2 -172.7,-200.8 -173.1,-202.4 -173.5,-204 -173.9,-205.7 -174.1,-207 -174.4,-208.3 -174.7,-210 -174.9,-211.6 -175.1,-213.2 -175.3,-214.9 -175.5,-216.5 -175.7,-218.1 -175.8,-219.5 -175.9,-220.9 -176,-222.5 -176,-224.2 -176,-225.8 -176,-227.4 -176,-229 -176,-230.6 -176,-232.3 -176,-233.9 -175.9,-235.3 -175.8,-236.6 -175.6,-238.2 -175.4,-239.8 -175.1,-241.4 -174.9,-243 -174.7,-244.6 -174.4,-246.1 -174.1,-247.4 -173.9,-248.6 -173.5,-250.2 -173.1,-251.9 -172.8,-253.1 -172.4,-254.7 -172,-256.2 -171.6,-257.6 -171.1,-258.9 -170.6,-260.6 -170.1,-261.9 -169.6,-263.2 -169.1,-264.5 -168.7,-265.8 -168.3,-266.8 -167.7,-268.2 -167.1,-269.7 -166.6,-270.8 -165.9,-272.3 -165.2,-273.8 -164.6,-275.1 -164,-276.3 -163.2,-278 -162.5,-279.3 -161.8,-280.5 -161.3,-281.6 -160.6,-282.8 -159.8,-283.9 -159,-285 -158.2,-286.3 -157.3,-287.6 -156.3,-289.1 -155.6,-290.2 -154.9,-291.3 -154.2,-292.2 -153.5,-293.1 -152.7,-294.1 -151.9,-295.1 -151.1,-296.2 -150.2,-297.4 -149.1,-299 -148.3,-300.2 -147.5,-301.4 -146.7,-302.5 -146.1,-303.5 -145.6,-304.1 -144.8,-305.1 -144.1,-306.1 -143.3,-307.3 -142.4,-308.5 -141.5,-309.8 -141,-310.7 -140.4,-311.6 -139.8,-312.6 -139.2,-313.6 -138.7,-314.6 -138,-315.9 -137.2,-317.5 -136.6,-318.8 -136.1,-320.1 -135.5,-321.5 -135.1,-322.6 -134.8,-323.5 -134.4,-324.6 -133.8,-326 -133.4,-327.1 -132.9,-328.6 -132.4,-330 -132,-331.2 -131.7,-332.5 -131.3,-333.9 -131,-334.9 -130.7,-336.3 -130.3,-338 -130,-339.3 -129.8,-340.6 -129.5,-342.4 -129.2,-343.8 -129,-345.3 -128.8,-346.8 -128.6,-348.3 -128.5,-349.3 -128.4,-350.7 -128.3,-352.1 -128.2,-353.5 -128.1,-355.2 -128,-356.9 -128,-358.6 -128,-360 -128.1,-362.1 -128.2,-363.8 -128.3,-365.6 -128.4,-367 -128.5,-368.5 -128.5,-369.5 -128.7,-371 -128.9,-372.5 -129.1,-374 -129.3,-375.4 -129.7,-377.2 -129.9,-378.6 -130.1,-379.9 -130.5,-381.7 -130.9,-383.4 -131.2,-385 -131.6,-386.5 -132,-388.1 -132.3,-389.6 -132.7,-391.2 -133.1,-392.6 -133.5,-394.1 -133.9,-395.5 -134.3,-396.9 -134.7,-398.3 -135.1,-399.7 -135.6,-401.3 -136.1,-402.9 -136.6,-404.2 -137.1,-405.8 -137.5,-407.2 -137.9,-408.6 -138.3,-410 -138.8,-411.7 -139.2,-413 -139.7,-414.3 -140.1,-415.7 -140.7,-417.3 -141.1,-418.6 -141.6,-419.9 -142.1,-421.4 -142.7,-422.8 -143.1,-424 -143.6,-425.1 -144.1,-426.5 -144.6,-427.7 -145,-428.9 -145.7,-430.4 -146.3,-431.9 -146.9,-433.1 -147.5,-434.2 -148.2,-435.4 -148.7,-436.3 -149.5,-437.6 -150.2,-438.9 -150.9,-440.2 -151.6,-441.3 -152.3,-442.4 -152.9,-443.4 -153.7,-444.5 -154.6,-445.7 -155.5,-446.8 -156.5,-447.9 -157.3,-448.7 -158.1,-449.5 -158.9,-450.3 -159.6,-451 -160.2,-451.7 -161.4,-452.9 -162.5,-454 -163.5,-454.9 -164.9,-456.1 -166.3,-457.3 -167.2,-458 -168.1,-458.7 -169.4,-459.7 -170.3,-460.4 -171.2,-461.1 -172.4,-462 -173.6,-462.8 -174.4,-463.4 -175.5,-464.2 -176.7,-465 -177.6,-465.5 -179,-466.4 -180.4,-467.3 -181.5,-467.9 -182.5,-468.5 -183.5,-469.2 -184.5,-469.9 -185.5,-470.5 -186.5,-471.2 -187.9,-472.2 -189.3,-473.2 -190.2,-473.9 -191.1,-474.6 -192.4,-475.6 -193.3,-476.3 -194.2,-477 -195.1,-477.7 -196.1,-478.6 -196.8,-479.3 -197.6,-480.1 -198.5,-481 -199.5,-482 -200.5,-483 -201.4,-483.9 -202.2,-484.7 -202.9,-485.6 -203.5,-486.4 -204.3,-487.5 -205.1,-488.6 -205.8,-489.7 -206.5,-490.6 -207.2,-491.5 -207.7,-492.5 -208.2,-493.5 -208.8,-494.7 -209.4,-495.9 -209.9,-497.1 -210.3,-497.8 -210.8,-499.1 -211.3,-500.2 -211.7,-501.3 -212.2,-502.4 -212.7,-503.8 -213,-504.7 -213.3,-505.6 -213.6,-506.5 -213.8,-507.5 -213.9,-508.2 -214.1,-509.5 -214.3,-510.8 -214.5,-512.1 -214.7,-513.3 -214.9,-514.8 -215,-515.6 -215,-516.6 -215,-517.8 -215.1,-519.2 -215.2,-520.4 -215.3,-521.7 -215.4,-523.1 -215.5,-524.4 -215.5,-525.6 -215.5,-527 -215.5,-528.4 -215.5,-529.6 -215.5,-531 -215.5,-532.4 -215.5,-533.5 -215.5,-534.9 -215.5,-536.3 -215.5,-537.4 -215.5,-538.8 -215.5,-540.3 -215.5,-541.4 -215.5,-542.8 -215.5,-544.3 -215.5,-545.4 -215.5,-546.8 -215.5,-548.2 -215.5,-549.6 -215.5,-551 -215.5,-552.4 -215.5,-553.8 -215.5,-555.3 -215.5,-556.7 -215.5,-558.1 -215.5,-559.6 -215.5,-561 -215.5,-562.4 -215.5,-563.7 -215.4,-565.1 -215.3,-566.7 -215.2,-568 -215.1,-569.4 -215,-570.9 -215,-572.3 -215,-573.7 -215,-575.2 -215,-576.6 -215,-578 -215,-579.4 -215,-580.8 -215,-582.1 -215,-583.5 -215,-584.9 -215,-586.3 -215,-587.7 -215,-589.2 -215,-590.6 -215,-592 -215,-593.3 -215,-594.5 -215,-595.9 -215,-597.3 -215,-598.6 -215,-600.1 -215,-601.5 -214.9,-602.7 -214.8,-603.8 -214.7,-604.7 -214.5,-606.1 -214.3,-607.5 -214.1,-608.8 -213.9,-610.2 -213.7,-611.6 -213.5,-612.7 -213.2,-613.8 -213,-614.9 -212.7,-616.2 -212.3,-617.5 -211.9,-618.9 -211.5,-620.2 -211.1,-621.5 -210.7,-622.5 -210.3,-623.8 -209.9,-624.6 -209.5,-625.6 -209,-626.6 -208.5,-627.8 -208,-628.7 -207.6,-629.7 -207,-630.8 -206.3,-632.1 -205.7,-633.2 -205.1,-634.3 -204.2,-635.7 -203.6,-636.8 -203.1,-637.8 -202.5,-638.8 -201.8,-639.9 -201.4,-640.6 -200.6,-641.7 -199.8,-642.7 -199,-643.7 -198.2,-644.7 -197.2,-645.8 -196.4,-646.6 -195.5,-647.5 -194.5,-648.5 -193.5,-649.5 -192.5,-650.5 -191.6,-651.3 -190.7,-652.1 -189.9,-652.8 -189.2,-653.4 -188.2,-654.2 -187.2,-655 -186.2,-655.8 -185.1,-656.7 -184,-657.6 -183.3,-658.1 -182.6,-658.7 -181.5,-659.4 -180.5,-659.9 -179.2,-660.6 -177.9,-661.4 -176.6,-662.1 -175.7,-662.6 -174.5,-663.3 -173.4,-663.8 -172.3,-664.3 -171.1,-664.8 -169.7,-665.4 -168.4,-665.9 -167.3,-666.4 -166.1,-666.8 -165,-667.3 -163.8,-667.7 -162.6,-668.2 -161.3,-668.6 -160.1,-669.1 -158.9,-669.5 -157.4,-670.1 -156.1,-670.5 -154.9,-671 -153.7,-671.4 -152,-671.9 -150.8,-672.3 -149.6,-672.7 -148.1,-673.2 -146.6,-673.7 -145.6,-674.2 -144.5,-674.6 -143.1,-675.2 -141.8,-675.8 -140.5,-676.4 -139,-677.1 -137.8,-677.7 -136.6,-678.3 -135.3,-679 -134,-679.7 -132.9,-680.3 -131.5,-681.2 -130.4,-682 -129.3,-682.8 -128.1,-683.7 -126.9,-684.6 -126,-685.3 -124.8,-686.2 -123.8,-687 -122.8,-687.9 -121.7,-688.9 -120.5,-690 -119.3,-691.3 -118.3,-692.5 -117.4,-693.6 -116.6,-694.6 -115.6,-695.9 -114.8,-697 -114,-698.1 -113.2,-699.2 -112.2,-700.6 -111.6,-701.6 -111,-702.7 -110.3,-704 -109.5,-705.7 -108.9,-707.1 -108.3,-708.5 -107.8,-709.7 -107.3,-710.9 -106.9,-712.1 -106.5,-713.3 -106.1,-714.6 -105.6,-716.2 -105.2,-717.6 -104.9,-718.6 -104.6,-720.2 -104.2,-721.8 -104,-723 -103.8,-724.3 -103.6,-725.6 -103.4,-726.8 -103.3,-728.1 -103.1,-729.6 -102.9,-731.1 -102.7,-732.7 -102.6,-733.8 -102.5,-734.7 -102.4,-736.1 -102.3,-737.5 -102.2,-738.8 -102.1,-740.4 -102,-742 -101.9,-742.9 -101.7,-744.3 -101.5,-745.8 -101.3,-747.3 -101.1,-748.8 -101,-750.3 -101,-751.3 -100.8,-752.7 -100.6,-753.8 -100.4,-755 -100.2,-756.2 -99.9,-757.8 -99.7,-759 -99.5,-760.2 -99.3,-761.3 -99,-763.1 -98.7,-764.4 -98.5,-765.7 -98.3,-767 -97.9,-768.7 -97.6,-769.8 -97.4,-770.9 -97.1,-772.6 -96.7,-774.3 -96.5,-775.6 -96.3,-776.9 -95.9,-778.7 -95.6,-779.9 -95.4,-781.1 -95.1,-782.3 -94.7,-783.8 -94.5,-784.8 -94.1,-786.2 -93.7,-787.6 -93.3,-789 -92.9,-790.6 -92.5,-792.2 -92.2,-793.4 -91.8,-794.9 -91.4,-796.4 -91,-797.7 -90.5,-799 -90,-800.6 -89.5,-801.9 -89.1,-803.2 -88.6,-804.5 -88.2,-805.8 -87.7,-807.1 -87.3,-808.4 -86.7,-810.1 -86.3,-811.4 -85.8,-812.7 -85.3,-814.2 -84.7,-815.7 -84.2,-817.2 -83.6,-818.7 -83,-820.3 -82.5,-821.5 -81.9,-823 -81.4,-824.2 -80.8,-825.7 -80.2,-827.2 -79.7,-828.5 -79.1,-830 -78.5,-831.4 -77.9,-832.9 -77.3,-834.3 -76.6,-836 -76,-837.5 -75.4,-839.1 -74.8,-840.6 -74.3,-842.2 -73.7,-843.8 -73.3,-845.2 -72.7,-846.8 -72.3,-848.2 -71.7,-849.8 -71.3,-851.2 -70.7,-852.9 -70.3,-854.3 -69.7,-856 -69.3,-857.4 -68.8,-859.3 -68.4,-860.8 -68,-862.4 -67.7,-864 -67.3,-865.6 -66.9,-867.2 -66.6,-868.8 -66.2,-870.4 -65.8,-872.1 -65.5,-873.8 -65.1,-875.5 -64.7,-877.3 -64.4,-879 -64,-880.8 -63.6,-882.7 -63.4,-884.3 -63.2,-885.9 -63,-887.5 -62.8,-889 -62.6,-890.7 -62.4,-892.3 -62.2,-893.9 -62,-895.6 -61.8,-897.2 -61.6,-898.9 -61.4,-900.7 -61.2,-902.4 -61,-904.4 -61,-906.1 -61,-907.4 -60.8,-909 -60.6,-910.9 -60.4,-912.6 -60.2,-914.4 -60,-916.4 -60,-918.1 -60,-919.9 -60,-921.5 -59.9,-923 -59.7,-924.9 -59.5,-926.8 -59.3,-928.5 -59.1,-930.4 -59,-932.5 -59,-934.2 -59,-935.9 -59,-937.5 -58.9,-938.9 -58.7,-940.7 -58.5,-942.6 -58.3,-944.5 -58.1,-946.5 -58,-948.8 -58,-950.8 -58,-952.5 -58,-954.2 -58,-956.1 -58,-958 -58,-959.8 -58,-961.8 -58,-963.8 -58,-965.5 -58,-966.9 -57.9,-968.6 -57.8,-970.5 -57.7,-972.4 -57.6,-974.5 -57.5,-976.8 -57.5,-978.8 -57.5,-980.8 -57.5,-982.5 -57.5,-984.2 -57.5,-986.1 -57.5,-988 -57.5,-989.8 -57.5,-991.8 -57.5,-993.8 -57.6,-996.2 -57.7,-998.4 -57.8,-1000.4 -57.9,-1002.4 -58,-1004.3 -58,-1005.7 -58,-1007.2 -58,-1008.9 -58,-1010.8 -58,-1012.8 -58,-1014.8 -58,-1016.8 -58,-1018.8 -58,-1020.8 -58,-1022.8 -58.2,-1025.1 -58.4,-1027.3 -58.6,-1029.4 -58.8,-1031.4 -59,-1033.4 -59,-1035 -59,-1036.8 -59,-1038.8 -59,-1040.8 -59,-1042.7 -59.2,-1044.9 -59.4,-1047.1" style="stroke: rgb(239, 68, 68); stroke-width: 7;"></polyline><polyline vector-effect="non-scaling-stroke" fill="none" points="-59.6,-1049.2 -59.8,-1051.4 -60,-1053.7 -60,-1055.8 -60,-1057.8 -60,-1060 -60.1,-1062.4 -60.3,-1064.6 -60.5,-1066.6 -60.7,-1068.6 -60.9,-1070.4 -61,-1072 -61,-1073.8 -61,-1076 -61,-1078.3 -61.1,-1080.6 -61.3,-1083.1 -61.5,-1085.4 -61.7,-1087.4 -61.9,-1089.4 -62,-1091.3 -62,-1092.9 -62,-1094.8 -62,-1096.8 -62.1,-1098.8 -62.3,-1101.3 -62.5,-1103.6 -62.7,-1105.6 -62.9,-1107.8 -63,-1110 -63,-1111.8 -63,-1113.7 -63,-1115.8 -63.1,-1117.8 -63.3,-1120.1 -63.5,-1122.2 -63.7,-1124.2 -63.9,-1126.3 -64,-1128.3 -64,-1129.9 -64,-1131.7 -64,-1133.8 -64.1,-1135.8 -64.3,-1138.1 -64.5,-1140.3 -64.7,-1142.4 -64.9,-1144.5 -65,-1146.7 -65,-1148.6 -65,-1150.6 -65,-1152.8 -65.1,-1154.9 -65.3,-1157.2 -65.5,-1159.3 -65.7,-1161.3 -65.9,-1163.3 -66,-1165.3 -66,-1166.9 -66,-1168.7 -66.1,-1170.8 -66.2,-1172.8 -66.4,-1175.1 -66.6,-1177.3 -66.8,-1179.4 -66.9,-1181.4 -67,-1183.4 -67,-1185 -67,-1186.9 -67.1,-1188.9 -67.2,-1190.9 -67.3,-1192.8 -67.5,-1195.3 -67.7,-1197.5 -67.8,-1199.5 -67.9,-1201.4 -68,-1203.4 -68,-1205 -68,-1206.8 -68.1,-1208.8 -68.2,-1210.8 -68.3,-1212.8 -68.5,-1215.2 -68.7,-1217.3 -68.8,-1219.2 -68.9,-1221.1 -69,-1223 -69,-1224.4 -69,-1226 -69.1,-1227.9 -69.2,-1229.9 -69.3,-1231.6 -69.4,-1233.4 -69.6,-1235.6 -69.7,-1237.5 -69.8,-1239.2 -69.9,-1241.1 -70,-1242.9 -70,-1244.3 -70.1,-1245.9 -70.2,-1247.8 -70.3,-1249.5 -70.4,-1251.2 -70.6,-1253.5 -70.7,-1255.6 -70.8,-1257.3 -70.9,-1259.2 -71,-1261.1 -71,-1262.5 -71,-1263.9 -71.1,-1265.6 -71.2,-1267.4 -71.3,-1269.1 -71.4,-1270.7 -71.5,-1272.5 -71.6,-1274.6 -71.7,-1276.4 -71.8,-1278.1 -71.9,-1279.8 -72,-1281.4 -72,-1282.7 -72,-1284.2 -72.1,-1285.8 -72.2,-1287.4 -72.3,-1289 -72.5,-1290.9 -72.7,-1292.7 -72.8,-1294.3 -72.9,-1296 -73,-1297.6 -73,-1298.9 -73,-1300.2 -73,-1301.8 -73.1,-1303.6 -73.3,-1305.3 -73.5,-1306.8 -73.7,-1308.2 -73.9,-1309.4 -74,-1310.1 -74,-1311.2 -74.1,-1312.7 -74.2,-1314.2 -74.3,-1315.6 -74.4,-1317 -74.5,-1318 -74.6,-1318.6 -74.7,-1319.2 -74.9,-1320.4 -75.1,-1321.6 -75.3,-1322.8 -75.5,-1323.9 -75.8,-1325.4 -76,-1326.3 -76.4,-1327.6 -76.8,-1328.9 -77.1,-1330.2 -77.4,-1331 -77.7,-1331.8 -78,-1332.6 -78.4,-1333.6 -78.8,-1334.6 -79.3,-1335.9 -79.8,-1337.2 -80.2,-1338.1 -80.6,-1338.8 -81.3,-1340.1 -81.9,-1341.2 -82.8,-1342.6 -83.7,-1343.9 -84.6,-1345.2 -85.2,-1345.9 -85.8,-1346.6 -86.4,-1347.3 -87,-1348.2 -87.6,-1349.1 -88.5,-1350.2 -89.4,-1351.2 -90.2,-1352 -91.1,-1352.8 -92.4,-1353.9 -93.9,-1355.1 -95.4,-1356.4 -96.8,-1357.5 -98.1,-1358.5 -99.4,-1359.5 -100.6,-1360.2 -102.1,-1361 -103.6,-1361.9 -105.1,-1362.7 -106.2,-1363.2 -107.2,-1363.7 -108.2,-1364.2 -109.2,-1364.6 -110.2,-1365 -111.5,-1365.5 -112.7,-1365.9 -114,-1366.2 -115.3,-1366.6 -116.6,-1367 -117.6,-1367.2 -119,-1367.6 -120.1,-1367.9 -121.2,-1368.1 -122.3,-1368.3 -123.9,-1368.6 -125.1,-1368.8 -126.3,-1369 -127.8,-1369.2 -129.4,-1369.4 -130.6,-1369.5 -131.8,-1369.5 -133,-1369.5 -134,-1369.5 -135,-1369.5 -136.2,-1369.4 -137.8,-1369.2 -139.3,-1369 -140.7,-1368.8 -142,-1368.6 -143,-1368.5 -143.6,-1368.4 -144.8,-1368.2 -146,-1368 -147.2,-1367.8 -148.8,-1367.4 -150.3,-1367.1 -151.6,-1366.6 -152.9,-1366.1 -154.2,-1365.6 -155.1,-1365.2 -156,-1364.8 -156.8,-1364.5 -157.8,-1364.1 -158.8,-1363.6 -160,-1363.1 -161.2,-1362.5 -162.4,-1361.9 -163.4,-1361.3 -164.4,-1360.7 -165.5,-1360 -166.7,-1359.2 -167.6,-1358.6 -168.5,-1358 -169.7,-1357.2 -170.9,-1356.2 -172.1,-1355.2 -173.5,-1353.9 -174.9,-1352.7 -176.1,-1351.6 -177.1,-1350.7 -177.9,-1349.9 -178.8,-1348.9 -179.7,-1347.8 -180.5,-1346.8 -181.4,-1345.6 -182.3,-1344.4 -182.9,-1343.6 -183.6,-1342.7 -184.4,-1341.5 -185.1,-1340.3 -186,-1338.8 -186.9,-1337 -187.7,-1335.3 -188.3,-1333.9 -188.9,-1332.6 -189.4,-1331.2 -189.9,-1330.1 -190.3,-1329 -190.7,-1327.9 -191.1,-1326.8 -191.5,-1325.7 -191.8,-1324.6 -192.3,-1323 -192.8,-1321.4 -193.1,-1319.9 -193.4,-1318.8 -193.8,-1317.3 -194,-1316.2 -194.2,-1315.1 -194.5,-1313.6 -194.8,-1312 -195,-1310.7 -195.2,-1309.5 -195.4,-1308.3 -195.6,-1306.9 -195.7,-1305.5 -195.9,-1304.1 -196.1,-1302.4 -196.3,-1300.7 -196.4,-1299.7 -196.5,-1298.7 -196.6,-1297.3 -196.7,-1296.1 -196.8,-1294.6 -196.9,-1293 -197,-1291.2 -197,-1289.8 -197,-1288.5 -197,-1287.1 -196.9,-1285.3 -196.8,-1283.7 -196.7,-1282.2 -196.5,-1280.7 -196.3,-1279.3 -196.2,-1278.3 -196,-1276.7 -195.8,-1275.1 -195.7,-1273.5 -195.5,-1272.1 -195.2,-1270.3 -195,-1269.1 -194.8,-1267.9 -194.5,-1266.7 -194.2,-1265 -194,-1263.8 -193.8,-1262.6 -193.4,-1260.9 -193.1,-1259.2 -192.8,-1258 -192.4,-1256.4 -191.9,-1254.7 -191.5,-1253.4 -191.1,-1252.1 -190.6,-1250.4 -190.1,-1248.9 -189.6,-1247.6 -189.2,-1246.3 -188.7,-1245 -188.3,-1243.8 -187.8,-1242.5 -187.4,-1241.2 -186.9,-1240 -186.1,-1238.1 -185.4,-1236.6 -184.8,-1235.4 -184.1,-1233.9 -183.4,-1232.5 -182.8,-1231.3 -182.1,-1230.1 -181.3,-1228.5 -180.5,-1227.2 -179.7,-1225.8 -179,-1224.4 -178.3,-1223 -177.7,-1222 -176.8,-1220.5 -175.9,-1219 -175.2,-1218 -174.5,-1217 -173.6,-1215.5 -173,-1214.5 -172.3,-1213.2 -171.4,-1211.7 -170.5,-1210.2 -169.8,-1209.2 -168.8,-1207.7 -167.9,-1206.4 -167.1,-1205.3 -166.2,-1204 -165.2,-1202.3 -164.5,-1201.1 -163.8,-1200 -162.9,-1198.5 -162.1,-1197.2 -161.2,-1196 -160.3,-1194.7 -159.4,-1193.2 -158.7,-1192.1 -157.8,-1190.6 -157.1,-1189.4 -156.3,-1188.1 -155.3,-1186.6 -154.3,-1185.1 -153.5,-1183.7 -152.7,-1182.3 -151.7,-1180.7 -150.9,-1179.4 -150.1,-1178.1 -149.4,-1177.1 -148.5,-1175.6 -147.9,-1174.5 -147,-1172.8 -146,-1170.8 -144.8,-1168.6 -143.7,-1166.6 -142.7,-1164.6 -142,-1163.3 -141.1,-1161.7 -140.4,-1160.3 -139.8,-1159.1 -139.1,-1157.9 -138.4,-1156.4 -137.7,-1154.9 -137,-1153.3 -136.3,-1151.8 -135.5,-1150 -134.7,-1148.2 -134.2,-1147 -133.6,-1145.5 -133,-1144 -132.4,-1142.4 -131.9,-1141.1 -131.3,-1139.4 -130.8,-1138.1 -130.1,-1136.4 -129.6,-1135 -129,-1133.6 -128.5,-1132.2 -128,-1130.8 -127.7,-1129.7 -127.3,-1128.7 -126.9,-1127.1 -126.6,-1125.9 -126.1,-1124.3 -125.7,-1122.8 -125.2,-1120.9 -124.8,-1119.6 -124.3,-1118 -123.9,-1116.7 -123.5,-1115.4 -123.2,-1113.9 -122.8,-1112.4 -122.5,-1111.1 -122.3,-1109.9 -121.9,-1108.1 -121.6,-1106.9 -121.4,-1105.6 -121,-1103.9 -120.6,-1102.1 -120.4,-1100.9 -120.2,-1099.6 -119.9,-1098.2 -119.7,-1096.7 -119.5,-1095.3 -119.3,-1093.8 -119,-1092.3 -118.7,-1090.5 -118.5,-1089.2 -118.3,-1087.8 -118.1,-1086.5 -117.9,-1084.9 -117.7,-1083.2 -117.5,-1081.6 -117.3,-1080 -117.1,-1078.4 -117,-1076.9 -117,-1075.8 -116.9,-1074.5 -116.8,-1073.1 -116.7,-1071.4 -116.6,-1069.9 -116.5,-1068.3 -116.5,-1066.6 -116.5,-1065.1 -116.5,-1063.5 -116.5,-1061.7 -116.5,-1060.2 -116.5,-1058.6 -116.5,-1057 -116.5,-1055.5 -116.5,-1053.9 -116.5,-1052.3 -116.5,-1050.8 -116.5,-1048.9 -116.5,-1047.3 -116.5,-1045.8 -116.5,-1044.1 -116.5,-1042.5 -116.5,-1041.1 -116.5,-1039.4 -116.5,-1037.9 -116.5,-1036.5 -116.7,-1034.8 -116.9,-1033 -117.1,-1031.3 -117.3,-1029.5 -117.5,-1027.7 -117.5,-1026.3 -117.7,-1024.7 -117.9,-1023 -118.1,-1021.3 -118.3,-1019.7 -118.6,-1018.1 -118.8,-1016.4 -119,-1014.8 -119.2,-1013.3 -119.5,-1011.8 -119.8,-1009.8 -120,-1008.3 -120.3,-1007 -120.7,-1005.2 -121,-1003.3 -121.3,-1002 -121.7,-1000.2 -122,-998.3 -122.3,-997 -122.7,-995.4 -123,-993.8 -123.4,-992.3 -123.8,-990.8 -124.2,-989.3 -124.6,-987.8 -125.1,-986.3 -125.5,-984.7 -126,-983.1 -126.4,-981.5 -126.9,-979.9 -127.3,-978.3 -127.8,-977 -128.3,-975.5 -128.9,-973.9 -129.4,-972.3 -130,-970.7 -130.6,-969 -131.1,-967.6 -131.7,-966 -132.3,-964.5 -132.9,-962.9 -133.5,-961.3 -134.1,-959.7 -134.7,-958.1 -135.4,-956.5 -136,-954.9 -136.5,-953.7 -137.2,-952.2 -137.7,-951 -138.3,-949.7 -138.9,-948.4 -139.6,-946.9 -140.3,-945.3 -141.1,-943.6 -141.7,-942.3 -142.3,-941.1 -143,-939.8 -143.8,-938.3 -144.6,-936.8 -145.3,-935.3 -146.1,-933.8 -147,-931.9 -147.7,-930.5 -148.4,-929.2 -149.2,-927.9 -150.1,-926.2 -150.7,-925.2 -151.5,-923.8 -152.3,-922.4 -153.2,-920.8 -153.9,-919.5 -154.8,-917.9 -155.6,-916.4 -156.4,-914.9 -157.1,-913.5 -157.8,-912.2 -158.6,-910.7 -159.3,-909.5 -160,-908.1 -160.8,-906.4 -161.7,-904.7 -162.2,-903.4 -162.9,-901.8 -163.6,-900.3 -164.2,-899 -164.9,-897.3 -165.7,-895.7 -166.3,-894.2 -166.8,-892.7 -167.3,-891.4 -167.9,-890 -168.5,-888.2 -169.1,-886.7 -169.8,-884.9 -170.5,-883 -171,-881.3 -171.5,-879.9 -172,-878 -172.4,-876.4 -172.8,-874.9 -173.2,-873.3 -173.6,-871.8 -174,-870.3 -174.4,-868.9 -174.8,-867.4 -175.2,-865.7 -175.5,-864 -175.8,-862.7 -176.2,-860.9 -176.5,-859.1 -176.8,-857.9 -177.2,-856.2 -177.5,-854.4 -177.7,-853 -178,-851.6 -178.3,-849.7 -178.5,-848 -178.7,-846.4 -179,-844.8 -179.2,-843.3 -179.4,-841.8 -179.6,-840.2 -179.8,-838.6 -179.9,-836.8 -180.1,-834.9 -180.2,-833.3 -180.3,-831.9 -180.4,-830.3 -180.5,-828.9 -180.5,-827.4 -180.5,-826 -180.5,-824.8 -180.6,-823.2 -180.7,-821.6 -180.8,-819.9 -180.9,-818.2 -181,-816.4 -181,-815 -181,-813.6 -181,-812.4 -181,-811 -181,-809.6 -181,-808.4 -181,-807.2 -181.1,-806 -181.2,-805 -181.3,-804 -181.4,-803.1 -181.5,-802.3 -181.5,-801.5 -181.7,-800.2 -181.9,-798.9 -182.2,-797.6 -182.6,-796 -183,-794.5 -183.2,-793.6 -183.5,-792.8 -183.8,-791.8 -184.1,-790.8 -184.5,-789.8 -184.9,-788.8 -185.3,-787.8 -185.7,-786.8 -186,-786.1 -186.3,-785.4 -186.6,-784.7 -187.1,-783.8 -187.5,-783.1 -188.1,-782.2 -188.6,-781.3 -189.2,-780.4 -189.6,-779.7 -190,-779 -190.6,-778.2 -191.6,-777 -192.6,-775.8 -193.5,-774.6 -194.5,-773.5 -195.2,-772.7 -195.8,-772.1 -196.3,-771.5 -196.9,-771 -197.5,-770.4 -198.4,-769.6 -199.2,-768.9 -200.2,-768.2 -201.2,-767.4 -202.2,-766.6 -202.9,-766.1 -203.7,-765.6 -204.4,-765.2 -205.5,-764.5 -206.6,-763.9 -207.7,-763.2 -208.6,-762.6 -209.7,-761.9 -210.4,-761.6 -211.1,-761.2 -211.8,-760.9 -212.8,-760.5 -213.7,-760.2 -214.9,-759.8 -216.1,-759.4 -217.3,-759 -218.2,-758.8 -219.5,-758.4 -220.5,-758.1 -221.5,-757.9 -222.5,-757.6 -224,-757.2 -225.1,-757 -226.2,-756.8 -227.7,-756.4 -229.2,-756.1 -230.6,-755.7 -231.9,-755.3 -233.2,-754.9 -234.1,-754.6 -235.5,-754.2 -236.5,-753.9 -237.8,-753.5 -239.3,-752.9 -240.8,-752.4 -241.9,-751.9 -243.3,-751.4 -244.6,-750.8 -245.7,-750.3 -247,-749.7 -248.5,-749 -249.7,-748.4 -251.1,-747.6 -252.5,-746.8 -253.7,-746 -254.6,-745.4 -255.8,-744.5 -256.7,-743.9 -258,-743 -259.3,-742.2 -260.7,-741.2 -262,-740.2 -263.2,-739.2 -264,-738.5 -265.2,-737.3 -266.3,-736.2 -267.2,-735.3 -268.2,-734.3 -269.4,-733.1 -270.3,-732 -271.2,-730.9 -272.1,-729.7 -273.2,-728.2 -274.1,-726.9 -274.9,-725.9 -275.8,-724.6 -276.7,-723.4 -277.7,-721.8 -278.7,-720.2 -279.7,-718.4 -280.7,-716.5 -281.7,-714.6 -282.2,-713.5 -282.8,-712.1 -283.4,-710.7 -284,-709.3 -284.5,-707.8 -285,-706.3 -285.4,-705.1 -285.9,-703.4 -286.3,-702.1 -286.7,-700.9 -287.2,-699.1 -287.7,-697.3 -288,-696.1 -288.2,-694.9 -288.6,-693.3 -288.9,-692.2 -289.1,-691.1 -289.4,-689.4 -289.8,-687.7 -290,-686.3 -290.2,-685 -290.5,-683.2 -290.7,-682 -290.9,-680.8 -291.2,-679.2 -291.5,-677.4 -291.7,-676 -291.9,-674.6 -292.1,-673.2 -292.3,-671.7 -292.5,-670.4 -292.7,-668.8 -292.9,-667.3 -293,-665.7 -293,-664.7 -293.2,-663 -293.4,-661.6 -293.6,-659.9 -293.8,-658 -294,-656.1 -294,-654.8 -294,-653.6 -294.1,-652 -294.2,-650.7 -294.3,-649 -294.5,-647.4 -294.7,-645.4 -294.8,-644.1 -294.9,-642.4 -295,-640.8 -295,-639.1 -295,-637.6 -295,-635.9 -295,-634.4 -295,-633 -295,-631.5 -295,-630 -295,-628.5 -295,-626.8 -295,-625.3 -295,-623.6 -295,-621.8 -295,-620.2 -295,-618.6 -295,-617 -295,-615.4 -294.9,-614.1 -294.8,-612.4 -294.6,-610.5 -294.4,-608.5 -294.2,-606.9 -294.1,-605.1 -294,-603.5 -294,-602.3 -293.8,-600.4 -293.6,-598.5 -293.4,-596.7 -293.2,-594.9 -293,-593.3 -292.9,-591.7 -292.7,-590.1 -292.5,-588.5 -292.3,-586.9 -292.1,-585.3 -291.9,-583.8 -291.7,-582.2 -291.5,-580.7 -291.2,-578.8 -290.9,-576.8 -290.6,-575.5 -290.4,-574.3 -290.1,-572.4 -289.8,-571 -289.5,-569.7 -289.2,-567.8 -288.8,-565.9 -288.4,-564.3 -288.1,-562.7 -287.7,-561.1 -287.3,-559.4 -286.9,-557.7 -286.5,-555.8 -286.1,-553.9 -285.6,-551.7 -285.2,-550.1 -284.7,-548.2 -284.3,-546.8 -283.8,-545.4 -283.4,-543.8 -283,-542.2 -282.6,-540.5 -282.2,-538.9 -281.7,-537 -281.3,-535.6 -280.7,-533.9 -280.1,-532.2 -279.5,-530.5 -278.9,-528.8 -278.2,-526.8 -277.6,-525.2 -277.1,-523.6 -276.5,-521.9 -276,-520.3 -275.5,-519 -275,-517.3 -274.5,-515.9 -273.8,-514 -273.1,-512.4 -272.5,-510.7 -271.8,-509 -270.9,-507 -270.3,-505.5 -269.7,-504 -268.9,-502.2 -268.2,-500.5 -267.7,-499.2 -266.9,-497.5 -266.2,-495.8 -265.6,-494.5 -264.9,-493.1 -264.1,-491.4 -263.4,-489.7 -262.6,-488 -261.7,-486 -260.9,-484.4 -260.1,-482.6 -259.4,-481.3 -258.7,-480 -258.2,-478.9 -257.5,-477.2 -256.9,-476 -256.2,-474.3 -255.5,-472.5 -254.7,-470.8 -254,-469.3 -253.3,-467.6 -252.7,-466.3 -251.9,-464.6 -251.1,-462.9 -250.5,-461.6 -249.8,-460.1 -249,-458.5 -248.5,-457.3 -247.8,-455.6 -247,-453.8 -246.3,-452.4 -245.5,-450.6 -244.7,-448.8 -244.1,-447.5 -243.3,-445.7 -242.6,-443.9 -241.9,-442.2 -241.1,-440.5 -240.4,-438.8 -239.8,-437.3 -239,-435.5 -238.4,-434.2 -237.7,-432.5 -236.9,-430.8 -236.2,-429.4 -235.5,-427.7 -234.8,-426 -234,-424.3 -233.3,-422.5 -232.6,-420.8 -231.9,-419.3 -231.3,-417.7 -230.8,-416.3 -230.1,-414.7 -229.5,-413 -228.9,-411.4 -228.1,-409.6 -227.5,-408 -226.9,-406.4 -226.3,-404.9 -225.7,-403.2 -225.2,-401.8 -224.6,-400.1 -224,-398.3 -223.4,-396.5 -222.8,-394.8 -222.2,-393 -221.6,-391.3 -221.2,-389.9 -220.6,-388.1 -220,-386.3 -219.5,-384.6 -219,-383.1 -218.4,-381.1 -217.9,-379.4 -217.5,-377.8 -217.1,-376.1 -216.7,-374.4 -216.3,-372.7 -215.9,-371.1 -215.6,-369.7 -215.1,-367.8 -214.7,-365.9 -214.4,-364.6 -214,-362.7 -213.6,-360.9 -213.4,-359.6 -213,-357.8 -212.6,-355.9 -212.4,-354.5 -212,-352.4 -211.6,-350.3 -211.4,-348.8 -211.1,-347.1 -210.7,-344.9 -210.5,-343.3 -210.3,-341.8 -210.1,-340 -209.9,-338.3 -209.8,-337 -209.6,-335.1 -209.4,-333.1 -209.2,-331.1 -209.1,-329.2 -208.9,-327.2 -208.8,-325.6 -208.6,-323.4 -208.4,-321.4 -208.2,-319.5 -208.1,-317.8 -208,-316.1 -208,-314.7 -208,-313.1 -208,-311.5 -208,-309.6 -208,-307.7 -208,-306.2 -208,-304.5 -208,-302.5 -208,-300.7 -208,-298.9 -208,-296.9 -208,-295.1 -208,-293.2 -208,-291.5 -208,-289.8 -208,-288 -208,-286.4 -208.1,-284.6 -208.2,-282.6 -208.3,-280.7 -208.4,-278.8 -208.5,-276.7 -208.5,-275 -208.6,-273.2 -208.7,-271.4 -208.8,-269.7 -208.9,-268 -209,-266.2 -209,-264.4 -209,-262.8 -209,-261.3 -209.1,-259.4 -209.2,-257.5 -209.3,-255.6 -209.4,-253.7 -209.5,-251.5 -209.5,-249.7 -209.5,-247.9 -209.5,-246.2 -209.5,-244.2 -209.5,-242.4 -209.5,-240.6 -209.4,-238.4 -209.3,-236.3 -209.2,-234.4 -209.1,-232.7 -209,-231 -209,-229.8 -209,-228.2 -209,-226.4 -209,-224.6 -209,-222.8 -209,-220.8 -208.8,-218.6 -208.6,-216.6 -208.4,-214.6 -208.2,-212.7 -208,-211.2 -208,-210.1 -208,-208.7 -207.8,-206.6 -207.6,-204.6 -207.4,-202.5 -207.2,-200.6 -206.8,-198.4 -206.6,-196.8 -206.4,-195.2 -206.2,-193.6 -205.9,-191.5 -205.7,-190 -205.5,-188.5 -205.2,-186.4 -204.8,-184.3 -204.5,-182.8 -204.2,-180.9 -203.7,-178.6 -203.3,-176.9 -202.9,-175.3 -202.4,-173.1 -202,-171.4 -201.7,-170.1 -201.3,-168.4 -200.8,-166.3 -200.4,-164.7 -199.9,-163.1 -199.4,-161 -199,-159.4 -198.6,-157.6 -198.1,-155.9 -197.6,-153.8 -197,-152 -196.4,-150.2 -195.8,-148.6 -195.3,-146.9 -194.7,-145.3 -194.2,-143.9 -193.5,-141.9 -192.9,-140.3 -192.3,-138.7 -191.7,-136.9 -190.9,-134.7 -190.3,-133.1 -189.7,-131.4 -189.1,-129.8 -188.4,-128.1 -187.9,-126.8 -187.4,-125.4 -186.7,-123.6 -185.9,-121.8 -185.1,-119.9 -184.4,-118.1 -183.5,-116.1 -182.9,-114.6 -182.3,-113.1 -181.6,-111.5 -180.8,-109.9 -180.1,-108.5 -179.3,-107.1 -178.3,-105 -177.6,-103.6 -176.8,-102 -176,-100.4 -175.3,-98.8 -174.7,-97.6 -173.9,-96 -173,-94.3 -172.1,-92.6 -171.1,-90.9 -170.2,-89.5 -169.2,-87.9 -168.4,-86.5 -167.4,-84.9 -166.4,-83.2 -165.2,-81.2 -164.4,-79.8 -163.5,-78.3 -162.8,-77 -161.9,-75.4 -161.2,-74 -160.2,-72.4 -159.3,-70.9 -158.1,-69.1 -157.1,-67.7 -156.1,-66.3 -155.1,-64.8 -154.1,-63.4 -153.2,-62 -152.3,-60.6 -151.2,-59 -150.3,-57.8 -149.1,-56.1 -148.1,-54.8 -147.1,-53.4 -146.1,-51.9 -145.1,-50.4 -144.3,-49.1 -143.5,-47.8 -142.5,-46.2 -141.7,-45 -140.7,-43.4 -139.6,-41.7 -138.5,-40 -137.7,-38.6 -136.7,-36.9 -135.9,-35.5 -135.3,-34.5 -134.5,-33.1 -133.7,-31.7 -132.8,-30.2 -132,-28.8 -131.1,-27.1 -130.4,-25.7 -129.3,-23.8 -128.5,-22.2 -127.7,-20.6 -127,-19.2 -126,-17.3 -125.3,-15.9 -124.6,-14.6 -123.8,-13 -123,-11.5 -122.3,-10.1 -121.7,-8.7 -121.1,-7.3 -120.2,-5.6 -119.3,-3.8 -118.7,-2.4 -118,-1.1 -117.1,0.8 -116.6,2.1 -116.1,3.4 -115.3,5.2 -114.6,7 -114.1,8.3 -113.4,9.9 -112.8,11.5 -112.2,13.1 -111.5,14.7 -110.9,16.3 -110.3,17.9 -109.6,19.6 -109.1,20.8 -108.5,22.4 -107.9,24 -107.3,25.6 -106.8,27.1 -106.1,29.1 -105.6,30.7 -105,32.3 -104.5,33.9 -103.9,35.4 -103.6,36.4 -103.1,37.9 -102.5,39.7 -102,41.2 -101.4,43.1 -100.8,45 -100.4,46.4 -100,47.8 -99.6,49.3 -99.2,50.8 -98.7,52.6 -98.1,54.5 -97.7,56 -97.3,57.5 -96.9,59.2 -96.6,60.6 -96.3,62.2 -95.9,63.9 -95.4,65.9 -95,67.4 -94.6,68.8 -94.2,70.6 -93.9,72.3 -93.6,73.7 -93.3,75.6 -93,77.6 -92.7,78.9 -92.3,80.8 -92,82.6 -91.8,83.9 -91.5,85.1 -91.2,87.2 -91,88.7 -90.8,90.3 -90.5,91.9 -90.3,93.7 -90.1,95.2 -89.9,96.8 -89.7,98.3 -89.5,100 -89.3,101.5 -89.2,102.7 -89.1,104 -88.9,105.9 -88.8,107.6 -88.6,109.3 -88.4,111 -88.2,112.8 -88.1,114 -87.9,115.9 -87.8,117.9 -87.7,119.7 -87.5,121.5 -87.3,123.3 -87.2,124.6 -87.1,126.2 -87,127.7 -87,129.2 -87,130.9 -86.9,133.2 -86.8,135.1 -86.6,137.1 -86.4,138.8 -86.2,140.6 -86.1,141.8 -86,143.3 -86,145 -86,146.8 -86,148.6 -86,150.4 -86,151.9 -86,153.4 -86,155.1 -86,156.9 -86,158.4 -86,160.2 -86,161.9 -86,163.6 -86,165.2 -86,167.1 -86,168.9 -86,170.7 -86,172.5 -86,174.3 -86,176.1 -86,177.7" style="stroke: rgb(59, 130, 246); stroke-width: 7;"></polyline><polyline vector-effect="non-scaling-stroke" fill="none" points="-86.1,179.5 -86.2,181 -86.3,182.3 -86.5,183.8 -86.7,185.6 -86.8,187.4 -86.9,189.2 -87,191.2 -87,193 -87,194.8 -87.1,196.2 -87.2,197.7 -87.4,199.5 -87.6,201.2 -87.8,202.9 -87.9,204.6 -88,206.6 -88.1,208 -88.3,209.8 -88.5,211.6 -88.7,213.7 -88.9,215.4 -89.1,217.2 -89.2,218.4 -89.4,220 -89.6,221.5 -89.9,223.1 -90.2,225.1 -90.5,227.3 -90.7,228.9 -90.9,230.4 -91.2,232.3 -91.4,233.7 -91.6,235.2 -91.9,236.7 -92.3,238.7 -92.5,240.3 -92.7,241.9 -93.1,243.7 -93.4,245.5 -93.6,246.7 -94,248.4 -94.4,250.2 -94.6,251.5 -95,253.4 -95.4,255.3 -95.7,256.7 -96.1,258.6 -96.5,260.6 -96.8,261.9 -97.2,263.6 -97.5,265.2 -97.9,266.8 -98.3,268.4 -98.7,270 -99.1,271.8 -99.5,273.7 -99.8,275 -100.2,276.6 -100.6,278.2 -100.9,279.2 -101.3,280.6 -101.7,282.1 -102.1,283.7 -102.5,285.4 -102.9,287.1 -103.2,288.3 -103.6,289.8 -103.9,290.8 -104.2,292.1 -104.6,293.4 -105,294.8 -105.3,296.2 -105.6,297.6 -105.9,298.6 -106.1,299.6 -106.4,301 -106.6,302.1 -106.9,303.2 -107.1,304.3 -107.3,305.4 -107.4,306 -107.6,307.2 -107.7,308.5 -107.8,309.9 -107.9,311.4 -108,313 -108,314 -108,315.2 -107.9,316.8 -107.8,318.3 -107.7,319.7 -107.5,320.9 -107.3,321.8 -107.2,322.2 -107,323.2 -106.7,324.2 -106.4,325.8 -106,327.4 -105.6,329 -105.2,330.3 -104.8,331.5 -104.4,332.4 -104.1,333.3 -103.7,334.1 -103.4,334.6 -103.2,335.2 -102.9,335.9 -102.5,336.8 -101.9,338.1 -101.2,339.5 -100.4,340.8 -99.8,341.8 -99.2,342.6 -98.6,343.4 -98.1,344.1 -97.4,345.1 -96.7,346.1 -95.9,347.2 -95,348.4 -93.9,349.7 -92.9,350.9 -91.9,352.1 -90.9,353.3 -90.1,354.1 -89,355.1 -88,356 -86.9,356.9 -86,357.7 -85.2,358.4 -84.2,359.2 -83.2,360 -82.2,360.8 -81.2,361.6 -79.9,362.6 -79.1,363.2 -78,364 -76.9,364.8 -75.7,365.5 -74.8,366.1 -73.8,366.9 -73.1,367.4 -72,368.2 -70.9,369.1 -69.3,370.3 -67.8,371.3 -65.9,372.7 -64.4,373.7 -62.9,374.7 -61.9,375.4 -61,376.1 -60.2,376.8 -59.4,377.6 -58.6,378.3 -57.7,379.1 -56.7,380 -55.9,380.7 -55,381.5 -54.2,382.4 -53.2,383.4 -52.3,384.4 -51.4,385.4 -50.5,386.4 -49.5,387.4 -48.8,388.2 -47.9,389.2 -47.1,390.2 -46.4,391.1 -45.7,392 -44.8,393.2 -44.1,394.2 -43.4,395.1 -42.7,396.1 -41.8,397.4 -41.2,398.4 -40.6,399.3 -40,400.2 -39.3,401.4 -38.8,402.4 -38.1,403.6 -37.2,405.1 -36.4,406.7 -35.7,407.8 -35.1,408.9 -34.6,409.8 -34.3,410.7 -33.8,411.8 -33.3,413 -32.8,414.1 -32.2,415.8 -31.6,417.2 -31.2,418.3 -30.8,419.5 -30.2,421.4 -29.7,423.2 -29.2,425 -28.6,427.3 -28,429.5 -27.6,431 -27.3,432 -26.9,433.5 -26.5,434.9 -26.2,436.3 -25.8,437.8 -25.4,439.3 -25.1,441 -24.8,442.3 -24.5,443.7 -24.2,445.4 -23.9,447.1 -23.6,448.2 -23.4,449.3 -23.1,450.9 -22.8,452.1 -22.5,453.3 -22.2,454.9 -21.8,456.5 -21.5,457.6 -21.2,459.3 -20.8,461 -20.5,462.3 -20.2,464.1 -19.8,465.8 -19.5,467 -19.2,468.7 -18.8,470.3 -18.4,472.3 -18,474.3 -17.6,476.3 -17.2,478.4 -16.8,480.5 -16.5,481.8 -16.3,483.1 -16.1,484.4 -15.8,485.7 -15.6,487 -15.4,488.3 -15,490.2 -14.6,492 -14.4,493.3 -14.2,494.6 -14,496.2 -14,497.3 -13.9,498.4 -13.7,500.1 -13.5,501.9 -13.3,503.3 -13.1,504.7 -13,506.4 -13,507.5 -13,508.8 -13,510.2 -13,511.7 -13,513.1 -13,514.5 -13,515.6 -13.1,516.6 -13.3,518 -13.5,519.4 -13.7,520.8 -14,522.3 -14.2,523.8 -14.4,525.2 -14.7,526.4 -15,527.6 -15.3,529.1 -15.7,530.7 -16,531.8 -16.4,533.2 -16.8,534.6 -17.2,535.6 -17.6,536.7 -18.2,538.2 -18.6,539.4 -19.2,540.9 -19.7,542.4 -20.2,543.7 -20.7,544.9 -21.2,546.1 -21.8,547.3 -22.4,548.6 -23.1,550.1 -23.7,551.3 -24.4,552.7 -25,554 -25.7,555.2 -26.2,556.2 -26.9,557.7 -27.6,559 -28.2,560 -28.9,561.5 -29.7,563 -30.3,564 -31.1,565.4 -31.9,567 -32.6,568.1 -33.4,569.5 -34.1,570.9 -34.8,572.3 -35.5,573.5 -36.2,574.8 -37,576.2 -37.9,577.8 -38.6,579 -39.4,580.5 -40.3,582.1 -41,583.6 -41.7,584.9 -42.6,586.7 -43.4,588.2 -44.1,589.6 -44.9,591.1 -45.7,592.6 -46.3,593.7 -47.1,595.1 -47.9,596.7 -48.6,597.9 -49.4,599.4 -50.2,600.8 -51,602.4 -51.8,603.8 -52.9,605.9 -53.8,607.7 -54.7,609.5 -55.4,610.9 -56.3,612.7 -56.9,613.9 -57.8,615.4 -58.8,617.2 -59.9,619.1 -60.7,620.6 -61.5,622 -62.4,623.8 -63.2,625.4 -63.9,626.9 -64.7,628.3 -65.7,630.2 -66.6,631.8 -67.4,633.3 -68.4,635.2 -69.4,637.2 -70.2,638.7 -71.1,640.5 -72.1,642.3 -72.9,643.7 -73.9,645.4 -75,647.5 -75.7,648.9 -76.4,650.4 -77.4,652.4 -78.2,654 -79,655.5 -79.9,657.1 -81,659 -81.7,660.3 -82.6,662.3 -83.4,664 -84.2,665.7 -85,667.4 -86,669.3 -86.9,670.8 -87.8,672.7 -88.7,674.5 -89.4,676 -90.2,677.7 -90.9,679.4 -91.6,680.8 -92.3,682.3 -93.2,684.1 -94,685.8 -94.9,687.6 -95.7,689.4 -96.5,691.1 -97.3,692.9 -98.1,694.7 -98.8,696.5 -99.6,698.2 -100.4,700 -101.2,701.8 -101.9,703.7 -102.6,705.2 -103.4,707 -104.2,709.1 -104.8,710.8 -105.4,712.4 -106,714.1 -106.6,715.9 -107.1,717.3 -107.7,719 -108.3,720.8 -108.9,722.6 -109.4,724.4 -110.1,726.7 -110.6,728.6 -111.1,730.2 -111.6,732.2 -112.1,733.9 -112.5,735.5 -112.9,737.2 -113.3,738.8 -113.7,740.5 -114.2,742.7 -114.6,744.5 -115.1,746.3 -115.6,748.7 -116,750.6 -116.3,752 -116.7,753.9 -117,755.8 -117.3,757.2 -117.7,759.2 -118,761.2 -118.3,762.7 -118.7,764.7 -119,766.9 -119.2,768.5 -119.5,770 -119.8,772.1 -120,773.8 -120.2,775.5 -120.4,777.2 -120.7,779.5 -120.9,781.2 -121.1,783.1 -121.3,785 -121.5,787 -121.5,788.4 -121.6,789.9 -121.8,791.6 -122,793.3 -122.2,795.2 -122.4,797.1 -122.5,799.3 -122.5,801.2 -122.5,802.8 -122.5,804.5 -122.5,806.2 -122.5,807.6 -122.5,809.7 -122.5,811.9 -122.5,813.6 -122.5,815.5 -122.5,817.7 -122.5,819.2 -122.5,820.9 -122.5,822.7 -122.5,824.6 -122.5,826.2 -122.5,827.8 -122.4,829.7 -122.2,831.6 -122,833.3 -121.8,835.3 -121.6,837 -121.4,838.9 -121.3,840.8 -121.2,842.6 -121,844.2 -120.8,846.1 -120.6,847.8 -120.4,849.5 -120.1,851.2 -119.8,853.4 -119.5,855.3 -119.3,856.7 -119.1,858.1 -118.8,860.2 -118.6,861.6 -118.4,863.1 -118.1,864.8 -117.7,867 -117.5,868.6 -117.1,870.6 -116.7,872.6 -116.4,874.3 -116,876 -115.6,877.6 -115.3,879 -114.9,880.8 -114.5,882.7 -114.1,884.4 -113.7,886.1 -113.4,887.7 -113,889.2 -112.6,890.7 -112.2,892.4 -111.8,894.2 -111.2,896.2 -110.8,897.9 -110.2,899.8 -109.8,901.2 -109.3,902.6 -108.9,904.3 -108.4,905.9 -108,907.6 -107.5,909.3 -107.1,910.9 -106.7,912.4 -106.2,914.4 -105.7,916 -105.2,917.9 -104.7,919.9 -104.2,921.4 -103.9,922.4 -103.5,924.1 -103.1,925.7 -102.6,927.3 -102.1,929.4 -101.5,931.5 -101.1,933 -100.6,934.6 -100.2,936.2 -99.7,937.8 -99.3,939.4 -98.8,941 -98.4,942.6 -98,944.2 -97.6,945.8 -97.2,947.5 -96.7,949.4 -96.3,951 -95.8,952.5 -95.4,954.1 -94.9,955.7 -94.5,957.3 -94,958.9 -93.5,960.9 -93.1,962.3 -92.7,963.7 -92.2,965.4 -91.8,967 -91.4,968.6 -90.8,970.6 -90.3,972.5 -89.9,973.9 -89.4,975.9 -88.9,977.5 -88.5,979.1 -88.1,980.7 -87.6,982.6 -87.2,984 -86.8,985.4 -86.4,986.9 -85.9,988.4 -85.5,990 -85,991.6 -84.5,993.5 -84,995 -83.5,997 -83,998.5 -82.5,1000.3 -82,1001.8 -81.6,1003.2 -81.1,1004.6 -80.5,1006.3 -80,1007.7 -79.4,1009.4 -78.8,1011.2 -78.1,1013.1 -77.6,1014.7 -77,1016.3 -76.5,1017.9 -75.9,1019.5 -75.5,1020.8 -75,1022.2 -74.4,1023.9 -73.9,1025.3 -73.2,1027.2 -72.5,1028.9 -71.7,1030.9 -71,1032.6 -70.3,1034.3 -69.8,1035.4 -69.2,1036.9 -68.6,1038.3 -68,1039.9 -67.3,1041.5 -66.4,1043.6 -65.7,1045.2 -65.1,1046.6 -64.3,1048.3 -63.6,1050 -62.9,1051.7 -62.1,1053.4 -61.4,1055.1 -60.9,1056.2 -60.2,1057.9 -59.7,1059.2 -59,1060.9 -58.2,1062.6 -57.3,1064.5 -56.6,1065.9 -55.7,1067.7 -55,1069.1 -54.3,1070.5 -53.7,1072 -52.8,1073.8 -52.1,1075.1 -51.4,1076.5 -50.7,1078.1 -49.8,1079.8 -49.1,1081.2 -48.4,1082.6 -47.7,1084.2 -46.9,1085.8 -46.1,1087.5 -45.3,1089.1 -44.3,1091.1 -43.3,1092.8 -42.5,1094.3 -41.9,1095.3 -41,1097 -40.3,1098.3 -39.6,1099.7 -38.8,1101 -37.7,1103.1 -36.9,1104.5 -36.1,1105.9 -35.2,1107.5 -34.3,1109.2 -33.5,1110.5 -32.5,1112.2 -31.5,1114 -30.6,1115.6 -29.7,1117.1 -29,1118.3 -28.2,1119.7 -27.4,1121 -26.7,1122.2 -25.6,1123.9 -24.5,1125.6 -23.8,1126.7 -22.9,1128.2 -21.9,1129.7 -21.1,1131.2 -20.3,1132.6 -19.2,1134.3 -18.2,1135.8 -17.2,1137.3 -16.2,1138.7 -15.2,1140.1 -13.9,1141.9 -13.1,1143 -12.2,1144.3 -11.3,1145.6 -10.4,1146.9 -9.9,1147.7 -8.9,1149.3 -7.9,1150.9 -7.1,1152.1 -6,1153.8 -5,1155.3 -3.8,1156.9 -2.6,1158.4 -1.4,1159.9 -0.3,1161.3 0.9,1162.8 1.9,1164.1 2.8,1165.3 3.9,1166.8 4.9,1168.1 5.8,1169.3 6.8,1170.6 8,1172.2 9,1173.5 9.9,1174.6 11.1,1176.2 12.1,1177.5 12.9,1178.5 13.9,1179.8 15.1,1181.4 16,1182.5 16.9,1183.6 18.1,1185.2 19.2,1186.6 20.2,1187.7 21.1,1188.8 22.2,1190.2 23.2,1191.4 24.3,1192.6 25.5,1194.1 26.9,1195.7 28.2,1197.1 29.4,1198.3 30.4,1199.5 31.5,1200.7 32.5,1201.9 33.5,1203.1 34.6,1204.4 35.7,1205.6 37,1207 38.3,1208.4 39.7,1209.8 41,1211.1 42.2,1212.4 43,1213.2 44,1214.2 45,1215.4 46.1,1216.6 47.4,1218 48.6,1219.4 50,1220.9 51.2,1222.1 52.3,1223.3 53.6,1224.6 55,1226 56,1227 57,1228 58.8,1229.8 60.4,1231.4 62,1233 64,1234.9 66.1,1236.9 67.3,1238 68.5,1239 69.8,1240.2 71.2,1241.6 72.5,1242.8 73.8,1244.1 75.2,1245.5 76.5,1246.7 77.8,1247.7 79.1,1248.8 80.4,1249.9 81.6,1250.9 83.2,1252.1 84.3,1253.1 85.6,1254.2 87.3,1255.5 89,1256.8 90.2,1257.8 91.5,1258.8 93.1,1260.1 94.3,1261.1 95.4,1262 96.6,1263 98.2,1264.3 99.4,1265.2 101,1266.4 102.7,1267.7 104.3,1268.9 105.5,1269.8 107,1271 108.2,1271.9 109.3,1272.8 110.8,1274 112.3,1275.1 113.4,1275.9 114.6,1276.8 116.2,1278.1 117.5,1279.1 119.1,1280.4 120.8,1281.7 122.3,1282.9 123.9,1284 125.4,1285.1 126.6,1285.9 128.1,1287 129.6,1288.1 130.7,1288.9 132.2,1290 133.7,1291.1 134.8,1291.9 136.4,1293 137.9,1294.1 139,1294.9 140.5,1296 142.1,1297.1 143.6,1298.2 145.2,1299.3 146.8,1300.4 148.4,1301.5 149.9,1302.6 151,1303.4 152.6,1304.5 154.2,1305.6 155.7,1306.6 157.3,1307.6 159.2,1308.8 160.6,1309.7 162,1310.6 163.4,1311.6 164.8,1312.6 165.9,1313.3 166.9,1314 168.4,1315 169.6,1315.7 171.1,1316.7 172.7,1317.8 174.3,1318.9 176,1320.1 177.6,1321.3 178.8,1322.2 180.4,1323.4 182.1,1324.6 183.2,1325.4 184.8,1326.5 186.4,1327.6 187.5,1328.4 188.5,1329.1 190.2,1330.2 191.4,1331 192.9,1331.9 194.5,1332.8 196.1,1333.8 197.5,1334.7 198.9,1335.6 200,1336.4 201.5,1337.5 203,1338.6 204.5,1339.7 206,1340.8 207.5,1341.8 208.5,1342.5 210.2,1343.6 211.4,1344.4 213,1345.5 214.6,1346.6 216.2,1347.7 217.6,1348.7 219,1349.6 220,1350.2 221,1350.8 221.9,1351.4 222.3,1351.6 222.9,1352.1 223.5,1352.5 224.9,1353.5 226.5,1354.6 228.1,1355.7 229.4,1356.6 231.2,1357.8 232.2,1358.4 233,1358.9 233.8,1359.4 234.8,1360 235.7,1360.6 237,1361.5 239,1362.6 241.4,1363.8 243.7,1364.9 246.1,1365.8 248.2,1366.5 250.5,1367 252.5,1367.4 255.3,1367.6 257.6,1367.7 259.9,1367.7 261.8,1367.5 263.7,1367.3 265.4,1366.9 267.3,1366.4 269.1,1365.9 270.8,1365.3 272.8,1364.4 274.2,1363.7 275.7,1362.9 277.5,1361.8 279,1360.8 280.1,1360.1 281.1,1359.4 282.3,1358.4 283.2,1357.6 284,1356.8 285,1355.7 286,1354.6 286.5,1354 287,1353.4 287.7,1352.5 288.3,1351.7 289.2,1350.3 290.2,1348.7 291.1,1347.1 291.9,1345.6 292.7,1343.7 293.3,1342.3 293.7,1341 294.1,1339.7 294.6,1338.1 294.9,1336.9 295.1,1335.7 295.3,1334.4 295.5,1333 295.5,1332 295.5,1331 295.5,1330 295.4,1328.6 295.3,1327.3 295.2,1326.1 295.1,1325 295,1323.8 295,1323 294.9,1321.8 294.8,1320.6 294.7,1319.4 294.5,1318.4 294.3,1317.4 294.1,1316.4 293.9,1315.4 293.6,1314.4 293.4,1313.4 293,1312 292.7,1311 292.3,1309.5 292,1308 291.6,1306.5 291.4,1305.5 291.1,1304.1 290.8,1303.2 290.5,1302.3 290.3,1301.4 290,1300.1 289.7,1299.2 289.5,1298.3 289.3,1297.4 289,1296.1 288.7,1295.2 288.5,1294.3 288.2,1293.1 287.9,1291.8 287.6,1290.9 287.4,1289.9 287.1,1288.5 286.8,1287.4 286.4,1286 286.1,1284.6 285.8,1283.3 285.5,1282.4 285.3,1281.4 285.1,1280.4 284.9,1279.3 284.5,1277.9 284.2,1276.5 283.9,1275.2 283.6,1274.3 283.2,1273.1 283,1272.1 282.8,1271.1 282.4,1269.7 282.1,1268.3 281.9,1267.2 281.6,1266.1 281.2,1264.6 281,1263.5 280.7,1262.3 280.3,1260.8 280,1259.4 279.7,1258.3 279.3,1256.8 279,1255.4 278.7,1254.4 278.4,1253.4 278.1,1251.9 277.8,1250.8 277.5,1249.6 277.2,1248 276.8,1246.4 276.5,1245.3 276.2,1243.8 275.8,1242.4 275.4,1241 275.1,1239.6 274.8,1238.3 274.5,1237.3 274.2,1235.8 274,1234.7 273.7,1233.6 273.3,1232 273,1230.5 272.7,1229.4 272.4,1228.3 272.1,1226.7 271.9,1225.5 271.6,1224.3 271.4,1223.2 271.1,1221.5 270.8,1220.2 270.4,1218.6 270.1,1217 269.7,1215.3 269.4,1214.2 269.1,1212.6 268.8,1211.4 268.5,1210.1 268.2,1208.4 267.9,1206.7 267.6,1205.6 267.4,1204.4 267.1,1202.8 266.8,1201.6 266.5,1200.4 266.2,1198.7 265.8,1197 265.5,1195.8 265.2,1194.1 264.9,1192.4 264.6,1191.2 264.3,1189.5 264,1187.8 263.7,1186.6 263.4,1185.4 263.1,1183.7 262.9,1182.5 262.6,1181.3 262.3,1179.6 262,1177.8 261.7,1176.5 261.3,1174.7 261,1172.9 260.7,1171.7 260.4,1170.4 260.1,1168.7 259.8,1167.5 259.5,1166.1 259.2,1164.3 258.8,1162.6 258.5,1161.1 258.2,1159.3 257.9,1157.7 257.6,1156.4 257.3,1154.8 256.9,1153.3 256.6,1152.1 256.2,1150.4 255.8,1148.7 255.5,1147.4 255.3,1146.2 255,1144.5 254.7,1143.2 254.5,1142 254.2,1140.2 253.8,1138.4 253.5,1137.1 253.2,1135.4 252.8,1133.6 252.5,1132.3 252.2,1130.5 251.8,1128.7 251.5,1127.4 251.3,1126.2 250.9,1124.5 250.6,1123.2 250.3,1121.4 249.9,1119.6 249.5,1117.8 249.3,1116.5 248.9,1114.7 248.6,1113.5 248.4,1112.3 248,1110.5 247.6,1108.7 247.4,1107.4 247,1105.6 246.6,1103.8 246.4,1102.5 246,1100.8 245.6,1099.1 245.4,1097.8 245,1096 244.6,1094.2 244.4,1092.8 244,1091 243.6,1089.3 243.4,1088 243,1086.4 242.6,1084.9 242.4,1083.7 242,1082 241.6,1080.4 241.4,1079.2 241,1077.3 240.6,1075.6 240.4,1074.4 240,1072.7 239.6,1070.9 239.4,1069.8 239,1068.2 238.6,1066.4 238.4,1065.1 238,1063.4 237.6,1061.6 237.4,1060.2 237,1058.5 236.6,1056.7 236.3,1055 235.9,1053.4 235.5,1051.9 235.2,1050.3 234.8,1048.7 234.5,1047.5 234.2,1045.7 233.8,1043.8 233.5,1042.5 233.2,1040.7 232.8,1038.8 232.5,1037.5 232.2,1035.8 231.8,1034 231.5,1032.8 231.2,1031.1 230.8,1029.3 230.5,1028 230.2,1026.3 229.8,1024.4 229.5,1023.1 229.2,1021.4 228.8,1019.6 228.5,1018.2 228.1,1016.4 227.7,1014.6 227.4,1013.1 227,1011.2 226.6,1009.3 226.3,1007.6 225.9,1005.9 225.5,1004.3 225.1,1002.6 224.7,1000.9 224.2,999 223.8,997.1 223.4,995.3 223,993.4 222.6,991.6 222.4,990.4 222.1,989.1 221.7,987.2 221.4,986 221,984.3 220.6,982.5 220.2,980.7 219.8,979 219.4,977.2 219.1,975.8 218.7,974 218.3,972.2 218,970.8 217.6,969 217.2,967.2 216.8,965.8 216.4,963.9 215.9,962.1 215.5,960.4 215.1,958.7 214.7,957.1 214.2,955.4 213.8,953.7 213.5,952.4 213,950.6 212.5,948.4 212.1,946.8 211.7,945.2 211.1,943 210.7,941.3 210.2,939.6 209.8,938 209.2,936 208.8,934.5 208.3,933.1 207.9,931.5 207.5,929.8 207.1,928 206.7,926.3 206.2,924.2 205.7,922.6 205.1,920.5 204.7,918.9 204.1,916.9 203.6,915.2 203.1,913.3 202.6,911.9 202,910.1 201.5,908.6 201.1,907.2 200.6,905.5 200.2,903.8 199.7,902.1 199.3,900.4 198.7,898.3 198.1,896.5 197.5,894.7 196.9,892.9 196.3,891.1 195.8,889.7 195.4,888.1 194.8,886.2 194.2,884.3 193.6,882.5 193,880.7 192.3,878.9 191.8,877.5 191.3,876.1 190.8,874.6 190.2,872.7 189.7,870.9 189.1,869 188.6,867.2 188,865.5 187.4,863.6 186.9,862.1 186.4,860.7 185.8,859.1 185.2,857.2 184.8,855.9 184.2,854.2 183.6,852.4 183,850.5 182.4,848.9 181.7,847.2 181.1,845.6 180.5,844 180,842.5 179.5,841 179,839.2 178.5,837.6 178,835.8 177.4,834.2 176.8,832.5 176.2,830.9 175.6,829.3 175,827.6 174.4,825.8 173.8,823.9 173.2,822.2 172.7,820.6 172.1,819 171.6,817.8 171.1,816.3 170.6,814.9 170,813.1 169.5,811.6 169,809.7 168.8,809 168.5,808" style="stroke: rgb(251, 191, 36); stroke-width: 7;"></polyline></svg>