<svg xmlns="http://www.w3.org/2000/svg" xmlns:xlink="http://www.w3.org/1999/xlink" preserveAspectRatio="xMidYMid meet" height="100%" viewBox="-700 -600 1400 1300">
    <polygon vector-effect="non-scaling-stroke" fill="none" style="stroke: #374151; stroke-width:6" points="  101,334 93,336 85,338 77,340 69,341 61,343 53,345 45,347 36,349 28,351 19,353 11,355 3,357 -5,359 -13,361 -22,363 -30,365 -39,368 -48,370 -56,372 -65,374 -73,376 -81,378 -90,380 -98,382 -107,384 -115,386 -124,388 -132,390 -141,391 -149,393 -158,396 -168,398 -177,400 -185,402 -194,404 -203,406 -212,408 -221,410 -230,412 -239,414 -247,416 -256,418 -265,421 -274,423 -283,425 -291,427 -299,429 -309,432 -318,434 -327,436 -334,437 -342,439 -350,440 -357,442 -364,443 -371,444 -377,444 -384,445 -391,445 -397,445 -404,445 -410,444 -416,443 -421,441 -427,440 -432,438 -437,436 -442,433 -447,431 -452,428 -456,425 -461,422 -464,418 -469,414 -472,411 -475,407 -478,403 -481,399 -484,395 -486,390 -488,386 -491,382 -492,377 -494,373 -495,368 -496,364 -497,360 -497,355 -497,351 -497,347 -497,342 -496,338 -496,334 -495,330 -493,326 -492,322 -490,319 -489,315 -487,312 -485,309 -481,304 -477,300 -475,298 -470,295 -466,293 -460,290 -455,288 -449,287 -445,287 -441,287 -435,288 -430,290 -427,291 -424,293 -421,296 -418,298 -416,301 -414,303 -412,307 -410,311 -409,315 -408,320 -408,323 -408,327 -408,330 -409,334 -409,338 -410,342 -410,348 -411,352 -411,358 -410,363 -408,368 -407,372 -405,375 -402,379 -399,383 -395,386 -392,387 -389,388 -385,389 -381,390 -377,390 -373,389 -369,388 -365,385 -362,383 -358,380 -355,377 -351,373 -349,370 -347,367 -344,362 -342,356 -340,352 -339,347 -338,341 -338,338 -338,332 -338,328 -338,325 -339,321 -339,316 -340,313 -341,308 -342,304 -343,300 -345,296 -346,292 -348,288 -349,284 -351,279 -353,275 -356,271 -358,267 -361,263 -363,259 -366,255 -369,251 -372,247 -375,243 -379,238 -382,234 -386,230 -390,226 -394,222 -398,217 -402,213 -406,209 -410,204 -414,199 -419,195 -423,190 -428,185 -432,180 -436,176 -441,170 -446,165 -450,160 -455,155 -460,149 -465,144 -470,138 -475,133 -479,127 -484,122 -489,116 -495,110 -500,104 -504,98 -509,92 -514,86 -518,80 -523,73 -528,67 -532,60 -537,53 -541,47 -545,40 -549,32 -553,25 -556,18 -560,10 -563,2 -566,-6   -566,-6 -569,-14 -572,-21 -575,-29 -579,-37 -581,-45 -584,-52 -586,-58 -589,-65 -591,-71 -593,-77 -595,-82 -597,-87 -598,-92 -600,-96 -601,-100 -603,-104 -604,-108 -605,-112 -607,-115 -608,-120 -610,-123 -612,-130 -613,-134 -614,-138 -614,-141 -614,-146 -614,-151 -613,-156 -612,-160 -609,-163 -607,-166 -604,-169 -601,-170 -598,-171 -594,-172 -591,-173 -586,-173 -582,-172 -578,-171 -573,-170 -567,-167 -563,-165 -558,-162 -554,-159 -551,-157 -546,-153 -543,-151 -541,-148 -538,-145 -535,-142 -533,-139 -530,-136 -527,-132 -524,-129 -522,-125 -519,-121 -516,-117 -513,-113 -510,-109 -507,-104 -505,-100 -502,-95 -499,-90 -496,-86 -493,-81 -491,-76 -488,-71 -485,-66 -482,-60 -480,-55 -477,-50 -474,-44 -471,-39 -468,-33 -465,-28 -462,-22 -459,-16 -456,-10 -453,-4 -450,2 -447,9 -444,15 -440,21 -437,28 -433,34 -430,40 -426,46 -422,53 -418,59 -413,65 -409,71 -405,76 -400,82 -396,86 -391,91 -385,96 -380,100 -375,103 -369,107 -363,109 -358,112 -351,114 -346,116 -339,118 -333,119 -327,120 -321,121 -315,122 -309,122 -302,122 -296,121 -289,121 -283,120 -277,119 -270,117 -264,115 -257,113 -251,110 -245,107 -239,104 -234,101 -228,97 -222,93 -217,89 -212,84 -207,79 -202,74 -197,68 -193,62 -189,57 -186,51 -182,44 -179,38 -176,31 -173,24 -170,17 -167,10 -165,4 -161,-2 -158,-8 -155,-14 -152,-19 -148,-25 -144,-29 -140,-33 -136,-38 -132,-42 -128,-45 -123,-48 -118,-50 -113,-53 -109,-55 -104,-56 -99,-58 -94,-58 -89,-59 -84,-59 -79,-59 -74,-59 -69,-58 -64,-57 -60,-56 -55,-55 -50,-53 -45,-51 -41,-49 -37,-46 -33,-44 -29,-41 -25,-38 -21,-34 -18,-31 -15,-27 -12,-23 -9,-19 -7,-15 -4,-11 -2,-6 2,2 4,7 5,11 7,16 9,19 11,24 12,27 15,32 18,37 22,42 26,46 29,49 34,53 37,55 43,57 47,58 52,59 56,59 62,58 66,57 72,55 76,53 80,50 84,47 88,44 92,40 96,37 99,32 101,30 103,26 106,22 108,18 109,15 111,9 113,5 113,1 115,-5 115,-9 115,-13 116,-18 115,-22 115,-26 115,-31 114,-36 113,-40 112,-45 110,-49 108,-54 107,-58 105,-63 102,-67 100,-72 97,-77 95,-81 92,-86 89,-90 86,-95 83,-100 80,-105 77,-110 74,-116 70,-121 67,-126 64,-131 60,-137 57,-143 53,-149 50,-154 46,-160 43,-166 39,-172 35,-178 32,-185 28,-190 24,-197 20,-203 17,-210 13,-216 9,-222 5,-229 1,-235 -3,-242 -7,-249 -11,-255 -16,-262 -20,-269 -24,-276 -28,-283 -32,-290   -32,-290 -36,-296 -41,-303 -45,-310 -49,-316 -53,-323 -56,-329 -60,-336 -64,-342 -67,-347 -70,-352 -73,-357 -76,-362 -79,-367 -81,-371 -84,-375 -86,-379 -88,-383 -90,-386 -92,-389 -95,-394 -98,-398 -101,-402 -104,-406 -108,-409 -110,-411 -114,-414 -118,-416 -122,-417 -126,-417 -129,-417 -133,-416 -136,-415 -140,-412 -143,-411 -147,-408 -149,-405 -152,-403 -155,-399 -159,-396 -163,-392 -166,-390 -170,-388 -173,-386 -176,-385 -181,-383 -186,-383 -189,-382 -194,-382 -198,-383 -203,-384 -207,-386 -212,-388 -217,-391 -220,-394 -225,-398 -229,-402 -231,-405 -234,-411 -237,-415 -239,-420 -241,-425 -242,-429 -243,-434 -243,-439 -243,-443 -243,-447 -243,-451 -243,-457 -242,-461 -241,-465 -240,-469 -238,-474 -236,-478 -234,-482 -232,-486 -230,-490 -227,-494 -224,-498 -221,-501 -217,-505 -214,-508 -210,-512 -206,-515 -202,-518 -197,-520 -192,-523 -188,-525 -182,-527 -177,-529 -172,-530 -167,-532 -162,-532 -156,-533 -150,-534 -144,-534 -139,-534 -133,-533 -127,-532 -122,-531 -116,-530 -110,-528 -105,-526 -99,-524 -94,-521 -88,-518 -84,-515 -79,-512 -74,-508 -69,-504 -64,-500 -60,-495 -55,-491 -51,-486 -47,-481 -43,-476 -38,-471 -34,-466 -30,-460 -26,-455 -23,-450 -19,-444 -15,-439 -11,-433 -8,-428 -4,-423 2,-414 6,-408 9,-402 14,-396 17,-390 21,-384 25,-378 29,-372 34,-365 38,-359 41,-353 46,-347 50,-340 54,-334 58,-328 62,-321 67,-314 71,-308 75,-301 80,-294 84,-287 88,-281 93,-274 98,-266 102,-260 106,-253 111,-246 115,-240 120,-232 125,-225 130,-218 134,-210 139,-203 144,-196 148,-189 153,-182 158,-175 162,-168 167,-160 172,-153 177,-146 182,-138 186,-131 191,-123 196,-116 201,-109 205,-102 211,-94 215,-87 220,-79 225,-72 230,-64 235,-57 239,-49 244,-42 249,-34 254,-27 259,-19 264,-12 269,-4 277,7 282,15 287,23 291,30 296,38 301,45 306,53 311,60 317,69 322,77 327,84 332,92 337,99 342,107 346,114 352,122 357,131 362,138 367,146 372,154 377,161 382,169 387,177 393,185 398,192 403,200 408,207 413,215 419,223 424,231 429,239 434,246 440,255 445,262 450,270 456,277 461,286 466,293 472,301 477,310 483,318 488,325 494,334 499,342 505,350 510,358 515,366 520,374 526,382 531,391 536,398 541,405 546,412 550,419 554,426 558,431 561,437 565,442 568,447 571,451 574,456 577,460 579,464 582,468 584,471 586,475 589,478 592,482 593,485 597,490 599,494 601,497 603,501 606,505 608,509 609,513 610,517 611,521 611,525 610,528 608,531 607,533 604,535 601,537 597,538 593,539 589,539 584,538 580,537 576,535 572,533 569,531 566,529 562,527 559,524 554,520 549,516 546,513 542,509 539,506 536,502 534,499 531,496 527,491 525,488 522,485 520,481 517,478 515,474 512,470 509,466 506,462 504,458 501,454 498,449 495,445 492,440 489,436 486,431 483,426 480,422 477,417 473,412 470,407 467,403 464,398 461,393 457,387 454,382 451,377 447,372 444,367 440,361 437,356 433,350 429,345 426,339 422,334 418,329 415,324 411,318 408,314 404,309 401,304 397,300 394,296 391,292 387,289 384,286 380,283 376,281 372,278 369,276 364,275 360,273 356,272 352,271 348,271 344,270 340,270 335,271 331,271 327,272 323,272 318,273 314,274 309,275 305,277 301,278 296,279 291,280 286,281 282,282 277,284 271,285 266,286 261,288 256,289 250,290 245,292 239,293 233,295 228,296 222,298 216,300 210,302 204,304 198,306 192,308 185,310 178,312 172,314 166,316 159,318 152,320 146,322 139,324 133,325 126,327 120,329 113,330 106,332 103,333 101,334  "></polygon>
    <polyline vector-effect="non-scaling-stroke" fill="none" style="stroke: #EF4444; stroke-width:4" points=" 101,334 93,336 85,338 77,340 69,341 61,343 53,345 45,347 36,349 28,351 19,353 11,355 3,357 -5,359 -13,361 -22,363 -30,365 -39,368 -48,370 -56,372 -65,374 -73,376 -81,378 -90,380 -98,382 -107,384 -115,386 -124,388 -132,390 -141,391 -149,393 -158,396 -168,398 -177,400 -185,402 -194,404 -203,406 -212,408 -221,410 -230,412 -239,414 -247,416 -256,418 -265,421 -274,423 -283,425 -291,427 -299,429 -309,432 -318,434 -327,436 -334,437 -342,439 -350,440 -357,442 -364,443 -371,444 -377,444 -384,445 -391,445 -397,445 -404,445 -410,444 -416,443 -421,441 -427,440 -432,438 -437,436 -442,433 -447,431 -452,428 -456,425 -461,422 -464,418 -469,414 -472,411 -475,407 -478,403 -481,399 -484,395 -486,390 -488,386 -491,382 -492,377 -494,373 -495,368 -496,364 -497,360 -497,355 -497,351 -497,347 -497,342 -496,338 -496,334 -495,330 -493,326 -492,322 -490,319 -489,315 -487,312 -485,309 -481,304 -477,300 -475,298 -470,295 -466,293 -460,290 -455,288 -449,287 -445,287 -441,287 -435,288 -430,290 -427,291 -424,293 -421,296 -418,298 -416,301 -414,303 -412,307 -410,311 -409,315 -408,320 -408,323 -408,327 -408,330 -409,334 -409,338 -410,342 -410,348 -411,352 -411,358 -410,363 -408,368 -407,372 -405,375 -402,379 -399,383 -395,386 -392,387 -389,388 -385,389 -381,390 -377,390 -373,389 -369,388 -365,385 -362,383 -358,380 -355,377 -351,373 -349,370 -347,367 -344,362 -342,356 -340,352 -339,347 -338,341 -338,338 -338,332 -338,328 -338,325 -339,321 -339,316 -340,313 -341,308 -342,304 -343,300 -345,296 -346,292 -348,288 -349,284 -351,279 -353,275 -356,271 -358,267 -361,263 -363,259 -366,255 -369,251 -372,247 -375,243 -379,238 -382,234 -386,230 -390,226 -394,222 -398,217 -402,213 -406,209 -410,204 -414,199 -419,195 -423,190 -428,185 -432,180 -436,176 -441,170 -446,165 -450,160 -455,155 -460,149 -465,144 -470,138 -475,133 -479,127 -484,122 -489,116 -495,110 -500,104 -504,98 -509,92 -514,86 -518,80 -523,73 -528,67 -532,60 -537,53 -541,47 -545,40 -549,32 -553,25 -556,18 -560,10 -563,2 -566,-6 "></polyline>
    <polyline vector-effect="non-scaling-stroke" fill="none" style="stroke: #3B82F6; stroke-width:4" points=" -566,-6 -569,-14 -572,-21 -575,-29 -579,-37 -581,-45 -584,-52 -586,-58 -589,-65 -591,-71 -593,-77 -595,-82 -597,-87 -598,-92 -600,-96 -601,-100 -603,-104 -604,-108 -605,-112 -607,-115 -608,-120 -610,-123 -612,-130 -613,-134 -614,-138 -614,-141 -614,-146 -614,-151 -613,-156 -612,-160 -609,-163 -607,-166 -604,-169 -601,-170 -598,-171 -594,-172 -591,-173 -586,-173 -582,-172 -578,-171 -573,-170 -567,-167 -563,-165 -558,-162 -554,-159 -551,-157 -546,-153 -543,-151 -541,-148 -538,-145 -535,-142 -533,-139 -530,-136 -527,-132 -524,-129 -522,-125 -519,-121 -516,-117 -513,-113 -510,-109 -507,-104 -505,-100 -502,-95 -499,-90 -496,-86 -493,-81 -491,-76 -488,-71 -485,-66 -482,-60 -480,-55 -477,-50 -474,-44 -471,-39 -468,-33 -465,-28 -462,-22 -459,-16 -456,-10 -453,-4 -450,2 -447,9 -444,15 -440,21 -437,28 -433,34 -430,40 -426,46 -422,53 -418,59 -413,65 -409,71 -405,76 -400,82 -396,86 -391,91 -385,96 -380,100 -375,103 -369,107 -363,109 -358,112 -351,114 -346,116 -339,118 -333,119 -327,120 -321,121 -315,122 -309,122 -302,122 -296,121 -289,121 -283,120 -277,119 -270,117 -264,115 -257,113 -251,110 -245,107 -239,104 -234,101 -228,97 -222,93 -217,89 -212,84 -207,79 -202,74 -197,68 -193,62 -189,57 -186,51 -182,44 -179,38 -176,31 -173,24 -170,17 -167,10 -165,4 -161,-2 -158,-8 -155,-14 -152,-19 -148,-25 -144,-29 -140,-33 -136,-38 -132,-42 -128,-45 -123,-48 -118,-50 -113,-53 -109,-55 -104,-56 -99,-58 -94,-58 -89,-59 -84,-59 -79,-59 -74,-59 -69,-58 -64,-57 -60,-56 -55,-55 -50,-53 -45,-51 -41,-49 -37,-46 -33,-44 -29,-41 -25,-38 -21,-34 -18,-31 -15,-27 -12,-23 -9,-19 -7,-15 -4,-11 -2,-6 2,2 4,7 5,11 7,16 9,19 11,24 12,27 15,32 18,37 22,42 26,46 29,49 34,53 37,55 43,57 47,58 52,59 56,59 62,58 66,57 72,55 76,53 80,50 84,47 88,44 92,40 96,37 99,32 101,30 103,26 106,22 108,18 109,15 111,9 113,5 113,1 115,-5 115,-9 115,-13 116,-18 115,-22 115,-26 115,-31 114,-36 113,-40 112,-45 110,-49 108,-54 107,-58 105,-63 102,-67 100,-72 97,-77 95,-81 92,-86 89,-90 86,-95 83,-100 80,-105 77,-110 74,-116 70,-121 67,-126 64,-131 60,-137 57,-143 53,-149 50,-154 46,-160 43,-166 39,-172 35,-178 32,-185 28,-190 24,-197 20,-203 17,-210 13,-216 9,-222 5,-229 1,-235 -3,-242 -7,-249 -11,-255 -16,-262 -20,-269 -24,-276 -28,-283 -32,-290 "></polyline>
    <polyline vector-effect="non-scaling-stroke" fill="none" style="stroke: #FBBF24; stroke-width:4" points=" -32,-290 -36,-296 -41,-303 -45,-310 -49,-316 -53,-323 -56,-329 -60,-336 -64,-342 -67,-347 -70,-352 -73,-357 -76,-362 -79,-367 -81,-371 -84,-375 -86,-379 -88,-383 -90,-386 -92,-389 -95,-394 -98,-398 -101,-402 -104,-406 -108,-409 -110,-411 -114,-414 -118,-416 -122,-417 -126,-417 -129,-417 -133,-416 -136,-415 -140,-412 -143,-411 -147,-408 -149,-405 -152,-403 -155,-399 -159,-396 -163,-392 -166,-390 -170,-388 -173,-386 -176,-385 -181,-383 -186,-383 -189,-382 -194,-382 -198,-383 -203,-384 -207,-386 -212,-388 -217,-391 -220,-394 -225,-398 -229,-402 -231,-405 -234,-411 -237,-415 -239,-420 -241,-425 -242,-429 -243,-434 -243,-439 -243,-443 -243,-447 -243,-451 -243,-457 -242,-461 -241,-465 -240,-469 -238,-474 -236,-478 -234,-482 -232,-486 -230,-490 -227,-494 -224,-498 -221,-501 -217,-505 -214,-508 -210,-512 -206,-515 -202,-518 -197,-520 -192,-523 -188,-525 -182,-527 -177,-529 -172,-530 -167,-532 -162,-532 -156,-533 -150,-534 -144,-534 -139,-534 -133,-533 -127,-532 -122,-531 -116,-530 -110,-528 -105,-526 -99,-524 -94,-521 -88,-518 -84,-515 -79,-512 -74,-508 -69,-504 -64,-500 -60,-495 -55,-491 -51,-486 -47,-481 -43,-476 -38,-471 -34,-466 -30,-460 -26,-455 -23,-450 -19,-444 -15,-439 -11,-433 -8,-428 -4,-423 2,-414 6,-408 9,-402 14,-396 17,-390 21,-384 25,-378 29,-372 34,-365 38,-359 41,-353 46,-347 50,-340 54,-334 58,-328 62,-321 67,-314 71,-308 75,-301 80,-294 84,-287 88,-281 93,-274 98,-266 102,-260 106,-253 111,-246 115,-240 120,-232 125,-225 130,-218 134,-210 139,-203 144,-196 148,-189 153,-182 158,-175 162,-168 167,-160 172,-153 177,-146 182,-138 186,-131 191,-123 196,-116 201,-109 205,-102 211,-94 215,-87 220,-79 225,-72 230,-64 235,-57 239,-49 244,-42 249,-34 254,-27 259,-19 264,-12 269,-4 277,7 282,15 287,23 291,30 296,38 301,45 306,53 311,60 317,69 322,77 327,84 332,92 337,99 342,107 346,114 352,122 357,131 362,138 367,146 372,154 377,161 382,169 387,177 393,185 398,192 403,200 408,207 413,215 419,223 424,231 429,239 434,246 440,255 445,262 450,270 456,277 461,286 466,293 472,301 477,310 483,318 488,325 494,334 499,342 505,350 510,358 515,366 520,374 526,382 531,391 536,398 541,405 546,412 550,419 554,426 558,431 561,437 565,442 568,447 571,451 574,456 577,460 579,464 582,468 584,471 586,475 589,478 592,482 593,485 597,490 599,494 601,497 603,501 606,505 608,509 609,513 610,517 611,521 611,525 610,528 608,531 607,533 604,535 601,537 597,538 593,539 589,539 584,538 580,537 576,535 572,533 569,531 566,529 562,527 559,524 554,520 549,516 546,513 542,509 539,506 536,502 534,499 531,496 527,491 525,488 522,485 520,481 517,478 515,474 512,470 509,466 506,462 504,458 501,454 498,449 495,445 492,440 489,436 486,431 483,426 480,422 477,417 473,412 470,407 467,403 464,398 461,393 457,387 454,382 451,377 447,372 444,367 440,361 437,356 433,350 429,345 426,339 422,334 418,329 415,324 411,318 408,314 404,309 401,304 397,300 394,296 391,292 387,289 384,286 380,283 376,281 372,278 369,276 364,275 360,273 356,272 352,271 348,271 344,270 340,270 335,271 331,271 327,272 323,272 318,273 314,274 309,275 305,277 301,278 296,279 291,280 286,281 282,282 277,284 271,285 266,286 261,288 256,289 250,290 245,292 239,293 233,295 228,296 222,298 216,300 210,302 204,304 198,306 192,308 185,310 178,312 172,314 166,316 159,318 152,320 146,322 139,324 133,325 126,327 120,329 113,330 106,332 103,333 101,334 "></polyline>
</svg>