<svg xmlns="http://www.w3.org/2000/svg" xmlns:xlink="http://www.w3.org/1999/xlink" preserveAspectRatio="xMidYMid meet" height="100%" viewBox="-650 -850 1200 1900">
    <polygon vector-effect="non-scaling-stroke" fill="none" style="stroke: #374151; stroke-width:6" points="  -561,462 -558,457 -554,452 -550,446 -546,441 -542,435 -538,430 -534,424 -530,418 -526,413 -521,407 -517,401 -513,395 -509,390 -505,384 -501,378 -496,372 -492,367 -488,361 -484,355 -479,349 -475,343 -470,336 -466,330 -462,324 -457,318 -453,312 -448,305 -444,299 -439,293 -435,286 -430,280 -425,274 -421,268 -417,261 -412,255 -407,249 -403,242 -398,235 -393,229 -389,222 -385,216 -380,209 -375,202 -371,196 -365,189 -361,183 -356,176 -350,170 -345,164 -339,158 -334,153 -328,148 -321,143 -315,138 -309,134 -302,131 -295,127 -289,124 -282,122 -275,120 -268,118 -260,116 -253,115 -246,114 -238,113 -231,112 -224,112 -217,112 -210,113 -202,113 -195,114 -187,115 -180,116 -172,117 -165,118 -157,119 -150,120 -142,120 -134,120 -127,120 -120,119 -112,118 -104,117 -97,116 -89,114 -81,112 -74,109 -67,107 -60,104 -54,100 -47,96 -40,92 -34,88 -27,83 -21,78 -15,73 -10,68 -4,63 1,58 7,52 13,46 19,41 25,35 31,30 35,25 41,20 46,16 51,11 55,7 59,4 65,-2 68,-4 72,-7 75,-10 79,-12 81,-14 85,-16 90,-19 94,-21 100,-23 105,-24 110,-25 116,-25 119,-24 122,-24 125,-23 128,-22 131,-21 134,-19 137,-18 139,-16 143,-12 147,-9 150,-5 154,1 155,5 157,8 158,13 159,17 160,20 161,26 161,30 161,34 162,38 162,42 163,46 164,51 165,55 166,60 168,66 171,71 173,74 176,77 178,80 182,83 187,85 191,87 195,88 199,88 203,87 206,86 211,85 216,82 219,80 223,77 227,72 230,69 232,66 234,62 237,58 239,53 241,48 243,45 244,39 246,34 247,30 248,26 249,22 250,17 251,13 252,8 252,4 253,-1 253,-6 254,-10 254,-15 254,-20 254,-25 254,-31 254,-36 254,-41 253,-46 252,-52 251,-57 250,-63 249,-68 247,-74 246,-80 244,-85 241,-90 239,-96 236,-101 233,-106 230,-111 226,-117 223,-122 219,-127 215,-131 211,-136 206,-141 202,-146 197,-150 193,-155 188,-159 183,-164 178,-168 173,-172 167,-177 162,-181 157,-185 151,-190 146,-195 140,-199 135,-204 129,-208 124,-213 118,-218 112,-223 106,-228 100,-233 94,-237 88,-242 83,-247 77,-252 71,-257 65,-262 59,-267 52,-273 46,-278 40,-283 33,-289 27,-294 20,-300 14,-305 7,-311 1,-316 -6,-322 -12,-327 -19,-333 -25,-338 -31,-344 -38,-349 -44,-354 -51,-360 -58,-366 -64,-371 -71,-377 -78,-383 -84,-389 -91,-394 -98,-400 -105,-406 -112,-413 -119,-419 -125,-424 -132,-431 -139,-436 -146,-443 -153,-448   -153,-448 -156,-451 -163,-458 -170,-464 -177,-470 -184,-476 -191,-482 -197,-488 -203,-493 -210,-498 -215,-502 -221,-507 -226,-510 -231,-514 -236,-516 -240,-519 -245,-521 -250,-523 -254,-524 -258,-526 -263,-527 -267,-528 -271,-529 -276,-529 -280,-529 -284,-530 -289,-530 -293,-529 -297,-529 -301,-528 -305,-527 -309,-526 -312,-525 -316,-523 -320,-522 -323,-520 -326,-518 -329,-515 -332,-513 -335,-510 -337,-507 -340,-504 -342,-501 -344,-498 -346,-495 -348,-491 -349,-487 -351,-484 -352,-478 -353,-474 -354,-470 -354,-466 -355,-461 -355,-457 -356,-453 -356,-448 -357,-444 -357,-439 -358,-434 -359,-430 -360,-426 -361,-422 -362,-418 -364,-414 -366,-411 -367,-407 -369,-404 -372,-401 -374,-398 -377,-396 -379,-393 -382,-391 -385,-389 -388,-387 -393,-385 -396,-384 -400,-384 -404,-383 -409,-383 -413,-383 -417,-384 -422,-386 -425,-387 -429,-389 -432,-391 -435,-393 -438,-395 -440,-398 -443,-400 -445,-403 -447,-406 -449,-409 -451,-412 -453,-416 -454,-420 -456,-423 -457,-428 -457,-432 -458,-436 -458,-440 -458,-444 -458,-449 -458,-453 -457,-457 -456,-461 -455,-466 -454,-471 -453,-475 -451,-480 -449,-484 -447,-489 -445,-494 -443,-499 -441,-504 -438,-509 -436,-514 -434,-518 -431,-523 -428,-529 -426,-534 -423,-539 -419,-545 -416,-551 -413,-556 -409,-562 -406,-567 -402,-572 -398,-578 -394,-584 -390,-589 -386,-595 -382,-601 -377,-606 -372,-612 -367,-617 -363,-623 -357,-628 -352,-633 -346,-639 -341,-644 -335,-649 -329,-654 -322,-658 -316,-662 -310,-666 -303,-670 -296,-674 -289,-678 -281,-681 -274,-684 -267,-687 -260,-690 -252,-693 -244,-695 -237,-698 -228,-700 -220,-702 -212,-703 -203,-705 -196,-706 -188,-708 -180,-709 -171,-711 -162,-712 -154,-714 -146,-715 -137,-716 -129,-718 -120,-719 -112,-720 -103,-722 -94,-723 -86,-724 -78,-726 -69,-727 -61,-728 -53,-729 -44,-730 -35,-731 -26,-732 -18,-733 -9,-734 -1,-735 8,-736 16,-737 25,-738 35,-739 44,-740 52,-741 61,-742 70,-743 79,-744 87,-745 96,-746 105,-747 113,-748 121,-748 130,-749 138,-749 146,-748 154,-747 162,-746 170,-744 178,-742 185,-740 192,-737 200,-734 207,-730 214,-726 221,-722 227,-717 233,-712 239,-707 245,-702 250,-696 255,-690 259,-684 264,-677 268,-671 271,-664 275,-657 278,-650 281,-643 283,-635 286,-627 288,-620 290,-612 292,-604 293,-597 295,-588 297,-580 298,-572 299,-565 301,-557 302,-548 303,-540 304,-532 305,-524 306,-516 307,-508 308,-499 309,-491 310,-482 310,-474 311,-465 311,-457 312,-449 313,-440 313,-432 314,-423 314,-415 315,-407 316,-398 316,-389 317,-381 317,-373 318,-363 319,-354 319,-346 320,-337 321,-328 322,-320 324,-311 325,-303 327,-295 328,-286 330,-277 332,-269 335,-260 338,-251 340,-243 343,-235 347,-226 350,-218 353,-210 357,-202 360,-194 363,-186 366,-179 368,-172 370,-164 372,-156 373,-148 374,-140 374,-133 375,-125 374,-117 374,-109 373,-102 372,-95 371,-87 369,-80 367,-72 365,-64 363,-57 360,-51 358,-44 357,-37 355,-30 354,-22 353,-15 353,-8 353,-1 354,6 355,13 356,19 358,25 360,32 362,38 365,43 367,49 370,55 373,60 377,65 380,70 383,75 386,80 388,85 391,90 393,95 395,100 396,104 398,109 399,115 400,120 400,125 400,130 400,135 400,141 399,146 398,151 397,156 396,161 394,166 392,171 390,175 388,180 385,184 382,189 379,193 376,197 372,201 369,204 365,208 360,212 356,215 352,218 347,222 342,225 338,228 333,232 328,235 323,238 319,242 314,246 309,250 304,254 299,259 295,263 291,268 286,272 282,277 278,282 274,287 270,293 266,298 262,304 258,309 254,315 250,321 246,328 243,334   243,334 241,337 237,343 234,350 230,356 227,362 223,369 220,376 216,383 212,391 209,397 206,404 202,412 198,419 195,426 192,434 188,441 185,448 181,456 178,463 174,470 171,478 167,485 164,493 160,501 157,508 153,516 149,524 145,533 142,540 138,548 135,555 131,564 127,571 123,580 120,587 116,596 112,604 108,612 105,620 101,628 97,637 93,645 89,653 85,661 81,670 78,678 73,686 70,694 66,702 62,711 58,719 54,727 50,735 45,744 41,752 37,760 33,769 29,777 25,785 20,793 16,801 12,809 7,818 3,826 -2,834 -6,842 -10,850 -15,857 -19,865 -24,873 -29,881 -34,890 -39,898 -44,905 -48,912 -52,918 -57,924 -61,930 -65,935 -69,940 -74,945 -78,949 -83,954 -88,957 -93,961 -98,964 -103,967 -108,969 -113,971 -118,973 -123,974 -129,976 -134,976 -140,977 -145,977 -151,977 -157,977 -162,977 -168,976 -173,975 -178,973 -184,972 -189,970 -194,968 -199,965 -204,963 -209,959 -213,956 -218,952 -222,949 -226,944 -231,940 -235,935 -238,930 -242,925 -245,919 -248,914 -251,908 -254,902 -257,897 -260,891 -263,885 -266,879 -269,873 -272,868 -276,861 -280,855 -283,849 -287,843 -291,837 -296,831 -300,825 -305,818 -309,812 -314,806 -319,800 -323,794 -328,789 -333,783 -338,777 -343,770 -348,765 -354,758 -359,752 -364,747 -369,741 -374,736 -378,731 -382,726 -386,721 -390,717 -394,713 -397,709 -401,705 -404,701 -407,698 -411,694 -414,691 -417,687 -419,684 -422,681 -426,677 -429,674 -433,670 -436,668 -441,665 -445,662 -449,661 -453,660 -458,659 -461,659 -464,660 -468,661 -472,662 -476,664 -479,667 -483,670 -486,672 -490,675 -495,679 -498,681 -503,683 -507,685 -511,685 -517,686 -521,686 -523,686 -528,686 -531,685 -535,684 -540,682 -544,680 -549,678 -554,675 -558,672 -561,670 -565,666 -568,663 -571,661 -573,658 -576,654 -579,651 -581,648 -584,644 -586,641 -588,637 -591,633 -593,629 -595,624 -597,620 -599,615 -600,611 -602,606 -603,602 -604,597 -605,592 -606,587 -607,581 -607,576 -607,571 -607,565 -607,560 -606,554 -606,548 -605,543 -603,537 -602,532 -600,527 -598,521 -596,516 -593,511 -590,506 -587,501 -584,495 -581,491 -578,486 -574,481 -571,476 -567,471 -564,466 -561,462  "></polygon>
    <polyline vector-effect="non-scaling-stroke" fill="none" style="stroke: #EF4444; stroke-width:4" points=" -561,462 -558,457 -554,452 -550,446 -546,441 -542,435 -538,430 -534,424 -530,418 -526,413 -521,407 -517,401 -513,395 -509,390 -505,384 -501,378 -496,372 -492,367 -488,361 -484,355 -479,349 -475,343 -470,336 -466,330 -462,324 -457,318 -453,312 -448,305 -444,299 -439,293 -435,286 -430,280 -425,274 -421,268 -417,261 -412,255 -407,249 -403,242 -398,235 -393,229 -389,222 -385,216 -380,209 -375,202 -371,196 -365,189 -361,183 -356,176 -350,170 -345,164 -339,158 -334,153 -328,148 -321,143 -315,138 -309,134 -302,131 -295,127 -289,124 -282,122 -275,120 -268,118 -260,116 -253,115 -246,114 -238,113 -231,112 -224,112 -217,112 -210,113 -202,113 -195,114 -187,115 -180,116 -172,117 -165,118 -157,119 -150,120 -142,120 -134,120 -127,120 -120,119 -112,118 -104,117 -97,116 -89,114 -81,112 -74,109 -67,107 -60,104 -54,100 -47,96 -40,92 -34,88 -27,83 -21,78 -15,73 -10,68 -4,63 1,58 7,52 13,46 19,41 25,35 31,30 35,25 41,20 46,16 51,11 55,7 59,4 65,-2 68,-4 72,-7 75,-10 79,-12 81,-14 85,-16 90,-19 94,-21 100,-23 105,-24 110,-25 116,-25 119,-24 122,-24 125,-23 128,-22 131,-21 134,-19 137,-18 139,-16 143,-12 147,-9 150,-5 154,1 155,5 157,8 158,13 159,17 160,20 161,26 161,30 161,34 162,38 162,42 163,46 164,51 165,55 166,60 168,66 171,71 173,74 176,77 178,80 182,83 187,85 191,87 195,88 199,88 203,87 206,86 211,85 216,82 219,80 223,77 227,72 230,69 232,66 234,62 237,58 239,53 241,48 243,45 244,39 246,34 247,30 248,26 249,22 250,17 251,13 252,8 252,4 253,-1 253,-6 254,-10 254,-15 254,-20 254,-25 254,-31 254,-36 254,-41 253,-46 252,-52 251,-57 250,-63 249,-68 247,-74 246,-80 244,-85 241,-90 239,-96 236,-101 233,-106 230,-111 226,-117 223,-122 219,-127 215,-131 211,-136 206,-141 202,-146 197,-150 193,-155 188,-159 183,-164 178,-168 173,-172 167,-177 162,-181 157,-185 151,-190 146,-195 140,-199 135,-204 129,-208 124,-213 118,-218 112,-223 106,-228 100,-233 94,-237 88,-242 83,-247 77,-252 71,-257 65,-262 59,-267 52,-273 46,-278 40,-283 33,-289 27,-294 20,-300 14,-305 7,-311 1,-316 -6,-322 -12,-327 -19,-333 -25,-338 -31,-344 -38,-349 -44,-354 -51,-360 -58,-366 -64,-371 -71,-377 -78,-383 -84,-389 -91,-394 -98,-400 -105,-406 -112,-413 -119,-419 -125,-424 -132,-431 -139,-436 -146,-443 -153,-448 "></polyline>
    <polyline vector-effect="non-scaling-stroke" fill="none" style="stroke: #3B82F6; stroke-width:4" points=" -153,-448 -156,-451 -163,-458 -170,-464 -177,-470 -184,-476 -191,-482 -197,-488 -203,-493 -210,-498 -215,-502 -221,-507 -226,-510 -231,-514 -236,-516 -240,-519 -245,-521 -250,-523 -254,-524 -258,-526 -263,-527 -267,-528 -271,-529 -276,-529 -280,-529 -284,-530 -289,-530 -293,-529 -297,-529 -301,-528 -305,-527 -309,-526 -312,-525 -316,-523 -320,-522 -323,-520 -326,-518 -329,-515 -332,-513 -335,-510 -337,-507 -340,-504 -342,-501 -344,-498 -346,-495 -348,-491 -349,-487 -351,-484 -352,-478 -353,-474 -354,-470 -354,-466 -355,-461 -355,-457 -356,-453 -356,-448 -357,-444 -357,-439 -358,-434 -359,-430 -360,-426 -361,-422 -362,-418 -364,-414 -366,-411 -367,-407 -369,-404 -372,-401 -374,-398 -377,-396 -379,-393 -382,-391 -385,-389 -388,-387 -393,-385 -396,-384 -400,-384 -404,-383 -409,-383 -413,-383 -417,-384 -422,-386 -425,-387 -429,-389 -432,-391 -435,-393 -438,-395 -440,-398 -443,-400 -445,-403 -447,-406 -449,-409 -451,-412 -453,-416 -454,-420 -456,-423 -457,-428 -457,-432 -458,-436 -458,-440 -458,-444 -458,-449 -458,-453 -457,-457 -456,-461 -455,-466 -454,-471 -453,-475 -451,-480 -449,-484 -447,-489 -445,-494 -443,-499 -441,-504 -438,-509 -436,-514 -434,-518 -431,-523 -428,-529 -426,-534 -423,-539 -419,-545 -416,-551 -413,-556 -409,-562 -406,-567 -402,-572 -398,-578 -394,-584 -390,-589 -386,-595 -382,-601 -377,-606 -372,-612 -367,-617 -363,-623 -357,-628 -352,-633 -346,-639 -341,-644 -335,-649 -329,-654 -322,-658 -316,-662 -310,-666 -303,-670 -296,-674 -289,-678 -281,-681 -274,-684 -267,-687 -260,-690 -252,-693 -244,-695 -237,-698 -228,-700 -220,-702 -212,-703 -203,-705 -196,-706 -188,-708 -180,-709 -171,-711 -162,-712 -154,-714 -146,-715 -137,-716 -129,-718 -120,-719 -112,-720 -103,-722 -94,-723 -86,-724 -78,-726 -69,-727 -61,-728 -53,-729 -44,-730 -35,-731 -26,-732 -18,-733 -9,-734 -1,-735 8,-736 16,-737 25,-738 35,-739 44,-740 52,-741 61,-742 70,-743 79,-744 87,-745 96,-746 105,-747 113,-748 121,-748 130,-749 138,-749 146,-748 154,-747 162,-746 170,-744 178,-742 185,-740 192,-737 200,-734 207,-730 214,-726 221,-722 227,-717 233,-712 239,-707 245,-702 250,-696 255,-690 259,-684 264,-677 268,-671 271,-664 275,-657 278,-650 281,-643 283,-635 286,-627 288,-620 290,-612 292,-604 293,-597 295,-588 297,-580 298,-572 299,-565 301,-557 302,-548 303,-540 304,-532 305,-524 306,-516 307,-508 308,-499 309,-491 310,-482 310,-474 311,-465 311,-457 312,-449 313,-440 313,-432 314,-423 314,-415 315,-407 316,-398 316,-389 317,-381 317,-373 318,-363 319,-354 319,-346 320,-337 321,-328 322,-320 324,-311 325,-303 327,-295 328,-286 330,-277 332,-269 335,-260 338,-251 340,-243 343,-235 347,-226 350,-218 353,-210 357,-202 360,-194 363,-186 366,-179 368,-172 370,-164 372,-156 373,-148 374,-140 374,-133 375,-125 374,-117 374,-109 373,-102 372,-95 371,-87 369,-80 367,-72 365,-64 363,-57 360,-51 358,-44 357,-37 355,-30 354,-22 353,-15 353,-8 353,-1 354,6 355,13 356,19 358,25 360,32 362,38 365,43 367,49 370,55 373,60 377,65 380,70 383,75 386,80 388,85 391,90 393,95 395,100 396,104 398,109 399,115 400,120 400,125 400,130 400,135 400,141 399,146 398,151 397,156 396,161 394,166 392,171 390,175 388,180 385,184 382,189 379,193 376,197 372,201 369,204 365,208 360,212 356,215 352,218 347,222 342,225 338,228 333,232 328,235 323,238 319,242 314,246 309,250 304,254 299,259 295,263 291,268 286,272 282,277 278,282 274,287 270,293 266,298 262,304 258,309 254,315 250,321 246,328 243,334 "></polyline>
    <polyline vector-effect="non-scaling-stroke" fill="none" style="stroke: #FBBF24; stroke-width:4" points=" 243,334 241,337 237,343 234,350 230,356 227,362 223,369 220,376 216,383 212,391 209,397 206,404 202,412 198,419 195,426 192,434 188,441 185,448 181,456 178,463 174,470 171,478 167,485 164,493 160,501 157,508 153,516 149,524 145,533 142,540 138,548 135,555 131,564 127,571 123,580 120,587 116,596 112,604 108,612 105,620 101,628 97,637 93,645 89,653 85,661 81,670 78,678 73,686 70,694 66,702 62,711 58,719 54,727 50,735 45,744 41,752 37,760 33,769 29,777 25,785 20,793 16,801 12,809 7,818 3,826 -2,834 -6,842 -10,850 -15,857 -19,865 -24,873 -29,881 -34,890 -39,898 -44,905 -48,912 -52,918 -57,924 -61,930 -65,935 -69,940 -74,945 -78,949 -83,954 -88,957 -93,961 -98,964 -103,967 -108,969 -113,971 -118,973 -123,974 -129,976 -134,976 -140,977 -145,977 -151,977 -157,977 -162,977 -168,976 -173,975 -178,973 -184,972 -189,970 -194,968 -199,965 -204,963 -209,959 -213,956 -218,952 -222,949 -226,944 -231,940 -235,935 -238,930 -242,925 -245,919 -248,914 -251,908 -254,902 -257,897 -260,891 -263,885 -266,879 -269,873 -272,868 -276,861 -280,855 -283,849 -287,843 -291,837 -296,831 -300,825 -305,818 -309,812 -314,806 -319,800 -323,794 -328,789 -333,783 -338,777 -343,770 -348,765 -354,758 -359,752 -364,747 -369,741 -374,736 -378,731 -382,726 -386,721 -390,717 -394,713 -397,709 -401,705 -404,701 -407,698 -411,694 -414,691 -417,687 -419,684 -422,681 -426,677 -429,674 -433,670 -436,668 -441,665 -445,662 -449,661 -453,660 -458,659 -461,659 -464,660 -468,661 -472,662 -476,664 -479,667 -483,670 -486,672 -490,675 -495,679 -498,681 -503,683 -507,685 -511,685 -517,686 -521,686 -523,686 -528,686 -531,685 -535,684 -540,682 -544,680 -549,678 -554,675 -558,672 -561,670 -565,666 -568,663 -571,661 -573,658 -576,654 -579,651 -581,648 -584,644 -586,641 -588,637 -591,633 -593,629 -595,624 -597,620 -599,615 -600,611 -602,606 -603,602 -604,597 -605,592 -606,587 -607,581 -607,576 -607,571 -607,565 -607,560 -606,554 -606,548 -605,543 -603,537 -602,532 -600,527 -598,521 -596,516 -593,511 -590,506 -587,501 -584,495 -581,491 -578,486 -574,481 -571,476 -567,471 -564,466 -561,462 "></polyline>
</svg>