<svg xmlns="http://www.w3.org/2000/svg" xmlns:xlink="http://www.w3.org/1999/xlink" preserveAspectRatio="xMidYMid meet" height="100%" viewBox="-529 -880 1057 1760"><polygon vector-effect="non-scaling-stroke" fill="none" points="-454.3,344.8 -454,344.3 -453.8,343.9 -453.5,343.6 -453.1,343.1 -452.4,342.1 -451.8,341.2 -451.3,340.5 -450.6,339.6 -449.9,338.6 -449.3,337.7 -448.6,336.8 -448.1,335.9 -447.4,335.1 -446.9,334.2 -446.4,333.6 -445.9,333 -445.2,331.9 -444.4,330.9 -443.8,330 -443.1,329.1 -442.3,328 -441.3,326.6 -440.3,325.1 -439.5,324 -438.4,322.4 -437,320.5 -435.6,318.6 -434.4,316.9 -433.2,315.4 -431.9,313.7 -430.6,312 -429.6,310.8 -428.9,309.9 -428,308.8 -427,307.4 -426.1,306.2 -425.5,305.2 -424.6,304 -423.8,302.7 -422.9,301.4 -422.2,300.4 -421.4,299.2 -420.4,297.9 -419.5,296.6 -418.7,295.5 -417.9,294.4 -416.8,292.9 -415.8,291.4 -415,290.1 -414.3,289 -413.4,287.8 -412.4,286.4 -411.3,284.9 -410.6,283.9 -409.6,282.6 -408.6,281.2 -407.6,279.9 -406.4,278.4 -405.5,277.2 -404.4,275.7 -403.4,274.1 -402.5,272.9 -401.4,271.4 -400.4,269.8 -399.5,268.5 -398.4,266.9 -397.5,265.6 -396.4,264.1 -395.2,262.6 -394.2,261.3 -393,259.6 -391.8,258 -390.6,256.5 -389.4,254.9 -388.3,253.3 -387.1,251.7 -386.1,250.3 -385.1,249 -383.9,247.5 -382.7,245.9 -381.6,244.4 -380.4,242.9 -379.2,241.2 -377.9,239.4 -376.6,237.6 -375.4,235.9 -374.1,234.2 -372.9,232.5 -371.7,230.9 -370.6,229.2 -369.5,227.7 -368.5,226.3 -367.3,224.6 -366.2,223.1 -365.1,221.6 -363.9,220 -362.7,218.4 -361.4,216.6 -359.9,214.8 -358.8,213.1 -357.6,211.6 -356.3,209.7 -355.2,208.1 -354,206.5 -352.9,204.9 -351.7,203.3 -350.4,201.5 -349.1,199.7 -348.1,198.1 -346.6,196.2 -345.4,194.4 -344,192.4 -342.6,190.4 -341.6,188.9 -340.4,187.4 -339,185.4 -337.9,183.9 -336.6,182.1 -335.6,180.6 -334.4,179.1 -333,177.2 -331.6,175.1 -330.4,173.4 -329.1,171.7 -327.9,169.9 -326.5,167.9 -325.3,166.2 -324.1,164.6 -322.9,163 -321.6,161 -320.1,159.1 -319,157.5 -317.9,155.9 -316.6,153.9 -315.2,152.1 -313.9,150.3 -312.9,148.9 -311.6,146.9 -310.2,145.1 -308.9,143.2 -307.8,141.7 -306.7,140.1 -305.5,138.4 -304.1,136.6 -303.1,135.2 -302,133.6 -300.9,131.9 -299.7,130.4 -298.4,128.5 -297.3,127 -296.1,125.4 -294.9,123.6 -293.8,122.1 -292.5,120.4 -291.1,118.4 -289.9,116.7 -288.6,114.8 -287.4,113.1 -286.3,111.6 -284.9,109.7 -283.6,108 -282.4,106.4 -281.1,104.5 -280,102.9 -278.7,101.2 -277.5,99.4 -276.6,98 -275.5,96.5 -274.3,94.9 -273,93.1 -271.8,91.5 -270.7,90.1 -269.5,88.4 -268.2,86.8 -266.8,84.8 -265.6,83.1 -264.6,81.6 -263.5,79.9 -262.3,78.1 -261,76.4 -259.8,74.6 -258.9,73.2 -257.7,71.7 -256.4,69.9 -255,68.1 -253.7,66.3 -252.6,64.7 -251.4,62.9 -250.1,61.1 -248.9,59.4 -247.8,57.8 -246.8,56.4 -245.6,54.7 -244.4,53.1 -243.3,51.7 -242,50.1 -240.8,48.4 -239.5,46.6 -238.2,44.8 -237.1,43.4 -236,41.9 -234.9,40.3 -233.7,38.7 -232.5,37 -231.6,35.8 -230.6,34.6 -229.6,33.2 -228.6,31.9 -227.5,30.3 -226.6,29 -225.7,27.9 -224.6,26.6 -223.6,25.1 -222.6,23.9 -221.6,22.6 -220.7,21.6 -219.8,20.5 -218.8,19.4 -217.9,18.3 -216.9,17.2 -215.5,15.9 -214.2,14.7 -212.8,13.4 -211.4,12.2 -209.9,10.9 -208.4,9.9 -207.1,8.9 -206.1,8.1 -204.6,7.2 -203.4,6.4 -202.2,5.7 -201.3,5.1 -200.3,4.6 -199.3,4.1 -198,3.5 -196.9,3.1 -195.9,2.7 -194.8,2.3 -193.6,1.9 -192.3,1.4 -190.9,1 -189.8,0.7 -188.9,0.4 -187.6,0.1 -186.2,-0.2 -184.9,-0.6 -183.9,-0.8 -182.4,-1.1 -181,-1.4 -179.6,-1.6 -178.4,-1.9 -177.4,-2.1 -176.1,-2.2 -174.4,-2.4 -173.1,-2.6 -171.8,-2.8 -170.4,-2.9 -169,-3.1 -167.6,-3.2 -166,-3.4 -164.9,-3.4 -163.6,-3.5 -162,-3.6 -160.4,-3.6 -158.9,-3.8 -157.2,-3.9 -155.8,-4.1 -154.2,-4.2 -152.7,-4.4 -151.4,-4.4 -149.9,-4.5 -148.4,-4.5 -146.9,-4.4 -145.4,-4.4 -144,-4.3 -142.7,-4.2 -141.2,-4.1 -139.6,-3.9 -138,-3.8 -136.4,-3.7 -134.6,-3.6 -132.9,-3.4 -131.3,-3.3 -129.6,-3.1 -127.9,-3 -126.4,-2.9 -125.1,-2.6 -123.4,-2.4 -121.5,-2.2 -119.5,-2 -117.9,-1.8 -116.4,-1.6 -114.5,-1.3 -112.5,-1.1 -110.8,-0.9 -109.2,-0.6 -107.7,-0.4 -105.7,-0.2 -103.8,0 -102.1,0.2 -100.4,0.4 -98.9,0.6 -96.8,0.8 -94.7,1.1 -93.1,1.3 -91.5,1.5 -89.6,1.7 -87.6,2 -85.4,2.3 -83.8,2.5 -82.2,2.6 -80.3,2.9 -78.3,3.2 -76.6,3.4 -74.9,3.6 -73,3.8 -70.9,4.1 -68.7,4.4 -66.9,4.5 -65.2,4.6 -63.2,4.9 -61.1,5.2 -59.4,5.4 -57.8,5.6 -55.9,5.8 -53.9,6.1 -51.6,6.4 -49.9,6.5 -48.2,6.6 -46.3,6.9 -44.1,7.1 -42.1,7.3 -40.1,7.4 -38.4,7.6 -36.6,7.7 -34.4,7.9 -32.3,8.1 -30.4,8.2 -28.5,8.3 -26.1,8.3 -23.8,8.3 -21.4,8.3 -19.5,8.2 -17.6,8.1 -15.6,7.9 -13.3,7.7 -11.6,7.6 -9.5,7.3 -7.4,7 -5.4,6.7 -3.3,6.4 -1.1,6.1 0.6,5.7 2.7,5.3 4.4,4.9 6.4,4.5 8.6,3.9 10.7,3.4 12.7,2.9 14.6,2.4 16.5,1.8 18.6,1.1 20.4,0.6 22.1,0 24.1,-0.7 26,-1.4 28.1,-2.1 30.1,-2.9 31.8,-3.6 34,-4.6 36,-5.6 37.7,-6.4 39.4,-7.2 41.2,-8.1 43,-9 44.9,-9.9 46.5,-10.7 48.2,-11.6 50.2,-12.6 52.3,-13.9 54,-15 55.9,-16.3 57.6,-17.5 59.3,-18.6 60.9,-19.8 62.5,-20.9 64.2,-22.1 65.9,-23.4 67.4,-24.5 69.1,-25.9 70.9,-27.3 72.6,-28.6 74.1,-29.9 75.6,-31.1 77.2,-32.4 79,-33.9 80.5,-35 82.1,-36.3 83.7,-37.7 85.1,-39 86.8,-40.4 88.3,-41.7 89.6,-42.9 91.3,-44.3 92.9,-45.7 94.6,-47.1 96.3,-48.6 97.7,-49.9 99.3,-51.2 100.9,-52.6 102.4,-53.9 103.9,-55.1 105.5,-56.5 107.1,-57.8 108.7,-59.1 110.4,-60.6 112.1,-62 113.5,-63.2 115.1,-64.7 116.6,-66 118,-67.2 119.6,-68.6 121.1,-69.9 122.7,-71.4 124.5,-72.9 126.1,-74.4 127.8,-75.8 129.5,-77.2 131.1,-78.6 132.6,-79.9 134.1,-81.1 135.6,-82.4 136.9,-83.4 138.4,-84.6 140.1,-85.9 141.7,-87.3 143.4,-88.7 144.9,-90 146.3,-91.3 147.6,-92.5 149.1,-93.8 150.4,-94.9 151.5,-95.9 152.9,-97.1 154.3,-98.2 155.9,-99.6 157.6,-101 158.9,-102.2 160.2,-103.4 162,-104.9 163.4,-106.1 164.7,-107.3 166.1,-108.4 167.6,-109.7 169.1,-110.9 170.6,-112.1 171.6,-113.1 173.1,-114.4 174.6,-115.6 175.8,-116.6 177.1,-117.6 178.5,-118.8 180.1,-120.1 181.6,-121.4 182.8,-122.4 184.2,-123.6 185.6,-124.7 186.9,-125.9 188.1,-126.9 189.1,-127.9 190.4,-129 191.9,-130.1 193.1,-131.1 194.4,-132.3 195.5,-133.2 196.6,-134.1 198,-135.3 199.1,-136.1 200.1,-136.9 201.4,-137.9 202.6,-138.7 204.1,-139.8 205.6,-140.8 206.9,-141.6 208.1,-142.4 209.2,-143.1 210,-143.6 210.8,-144.1 211.2,-144.4 211.9,-144.6 212.5,-144.9 213.1,-145.2 214.1,-145.5 215,-145.8 215.9,-146 216.9,-146.3 217.6,-146.5 218.3,-146.6 219.1,-146.8 219.7,-146.9 220.4,-146.9 221.2,-147 222.1,-147 223,-147 224,-147 225,-147 226,-147 227,-147 228,-147 228.9,-147 229.8,-147 230.6,-147 231.3,-146.9 231.9,-146.9 232.5,-146.8 233.2,-146.6 233.9,-146.4 234.6,-146.2 235.4,-145.9 236.2,-145.6 237.1,-145.3 237.9,-144.9 238.6,-144.5 239.4,-144 240.2,-143.5 241,-142.9 241.7,-142.3 242.6,-141.4 243.5,-140.5 244.3,-139.6 244.9,-138.9 245.6,-138 246.1,-137.2 246.6,-136.6 246.9,-136.1 247.1,-135.7 247.5,-134.9 247.9,-134.1 248.4,-133.2 248.9,-132.3 249.4,-131.1 249.9,-130 250.4,-128.9 250.8,-128.1 251.1,-127.3 251.4,-126.6 251.8,-125.7 252.1,-124.9 252.3,-124.1 252.6,-123.1 253,-122.1 253.4,-120.9 253.9,-119.4 254.3,-118.3 254.7,-117.1 255.1,-116 255.5,-115.1 256,-113.7 256.4,-112.5 256.7,-111.5 257.1,-110.5 257.4,-109.5 257.8,-108.1 258.1,-106.8 258.5,-105.7 258.9,-104.6 259.2,-103.3 259.6,-101.9 260.1,-100.3 260.6,-99 261,-97.7 261.4,-96.4 261.9,-95 262.4,-93.7 262.8,-92.4 263.2,-91.3 263.6,-89.9 264.1,-88.4 264.6,-86.9 265.1,-85.4 265.5,-84 265.9,-82.7 266.5,-80.9 267,-79.5 267.5,-78 267.9,-76.9 268.2,-75.8 268.7,-74.3 269.2,-72.8 269.5,-71.7 269.9,-70.6 270.3,-69.4 270.7,-68.1 271.1,-66.9 271.5,-65.6 271.9,-64.3 272.3,-63.1 272.6,-61.9 273.1,-60.5 273.6,-58.9 274.1,-57.4 274.4,-56.2 274.9,-54.9 275.3,-53.4 275.9,-51.6 276.4,-50.1 276.9,-48.9 277.3,-47.7 277.8,-46.3 278.4,-44.9 279,-43.4 279.6,-42 280.4,-40.4 282.1,-37.9 284.2,-35.3 286.6,-32.8 289.1,-30.5 291.6,-28.4 294.4,-26.6 297.1,-25.1 299.7,-24.6 301.9,-24.3 304.3,-24.4 306.9,-24.9 309.7,-25.6 312,-26.6 314.3,-27.6 316,-28.9 317.7,-30.1 318.9,-31.3 319.6,-32.1 320,-32.6 320.5,-33.1 320.9,-33.6 321.3,-34.2 321.9,-35.1 322.5,-36.1 323.1,-37.1 323.8,-38.1 324.4,-39.3 325.1,-40.5 325.7,-41.6 326.1,-42.4 326.5,-43 326.9,-43.9 327.3,-44.9 327.9,-45.9 328.4,-47 328.9,-48.1 329.4,-49.4 329.9,-50.6 330.4,-51.6 330.9,-52.7 331.2,-53.6 331.6,-54.6 331.9,-55.4 332.4,-56.3 332.9,-57.4 333.3,-58.6 333.7,-59.6 334.1,-60.6 334.6,-61.6 335.1,-62.8 335.4,-63.9 335.8,-64.7 336.1,-65.6 336.6,-66.9 337.1,-68.3 337.6,-69.5 337.9,-70.5 338.4,-71.7 338.8,-73 339.3,-74.5 339.6,-75.5 340,-76.5 340.4,-77.7 340.9,-79 341.3,-80.3 341.7,-81.5 342.2,-83 342.6,-84.5 343.2,-86.2 343.6,-87.8 344.2,-89.7 344.7,-91.4 345.1,-93.1 345.6,-94.7 346,-96.3 346.3,-97.6 346.7,-99.2 347,-100.4 347.4,-101.9 347.8,-103.5 348.1,-104.8 348.4,-106.1 348.8,-107.8 349.1,-109.2 349.4,-110.7 349.7,-112.1 350,-113.6 350.3,-115 350.7,-116.8 351,-118.2 351.3,-119.6 351.6,-121.1 351.9,-122.6 352.1,-124.1 352.4,-125.6 352.6,-126.9 352.9,-128.4 353.1,-130 353.4,-131.6 353.6,-132.9 353.8,-134.6 354.1,-136.4 354.4,-138.3 354.5,-139.8 354.6,-141.2 354.8,-142.6 355,-144.4 355.2,-145.8 355.4,-147.4 355.5,-148.8 355.6,-150.3 355.8,-151.8 356,-153.6 356.2,-155.1 356.4,-156.8 356.5,-158.4 356.6,-160.1 356.8,-161.9 356.9,-163.8 357,-165.4 357,-167.1 357,-168.6 357,-170 357,-171.5 357,-173 357,-174.6 357,-176.1 357,-177.6 357,-179.2 357,-180.9 356.9,-182.5 356.9,-183.9 356.8,-185.3 356.7,-186.8 356.6,-188.5 356.4,-190.1 356.1,-191.5 356,-192.9 355.7,-194.7 355.4,-196.6 355,-198.3 354.6,-199.6 354.3,-201.3 353.9,-202.9 353.4,-204.4 352.8,-206.1 352.1,-207.6 351.5,-209.1 350.9,-210.6 350.1,-211.9 349.5,-213.1 348.6,-214.6 347.8,-215.8 346.9,-216.9 346,-218.1 345,-219.3 344,-220.4 342.9,-221.6 341.5,-222.9 340.4,-223.9 339.4,-224.9 338.3,-225.9 337.2,-226.9 336.1,-227.9 334.8,-229.1 333.8,-229.9 332.8,-230.8 331.7,-231.7 330.6,-232.7 329.2,-233.9 327.9,-234.9 326.9,-235.8 326,-236.6 324.9,-237.7 323.6,-238.9 322.5,-239.9 321.3,-241 320.1,-242.1 318.9,-243.1 317.6,-244.3 316.2,-245.6 314.9,-246.7 313.5,-247.9 312.5,-248.8 311.4,-249.9 310.1,-251 308.6,-252.4 307.4,-253.4 306.1,-254.5 304.8,-255.6 303.4,-256.8 301.9,-258.1 300.4,-259.4 299.3,-260.4 297.8,-261.6 296.5,-262.8 295.2,-263.9 293.7,-265.3 292.6,-266.3 291.2,-267.5 289.4,-269 288,-270.4 286.3,-271.8 284.6,-273.2 283.1,-274.5 281.4,-276 279.9,-277.3 278.6,-278.4 277,-279.8 275.6,-281.1 274.1,-282.4 272.4,-283.9 270.7,-285.2 269.1,-286.6 267.4,-288.1 265.9,-289.4 264.1,-290.8 262.4,-292.3 260.8,-293.6 258.9,-295.4 256.9,-297.1 255.1,-298.6 253.3,-300.1 251.4,-301.8 249.4,-303.6 247.3,-305.5 245.4,-307.1 243.2,-309.1 241,-311.1 238.5,-313.2 236.3,-315.1 234.1,-317 231.9,-318.9 229.5,-320.9 227.5,-322.5 225.4,-324.4 223.4,-326.1 221.1,-328.1 219.1,-329.9 216.8,-331.7 214.8,-333.4 212.6,-335.3 210.3,-337.3 208.1,-339.1 206,-340.9 204,-342.6 201.8,-344.6 199.6,-346.6 197.5,-348.4 195.4,-350.1 193.1,-352.1 191.1,-353.9 188.8,-355.9 186.6,-357.6 184.5,-359.4 182,-361.6 179.9,-363.4 177.7,-365.3 175.2,-367.4 172.9,-369.4 170.6,-371.4 168.2,-373.4 166.3,-375 163.9,-377.1 161.6,-379.1 159.4,-381.1 157.1,-383 154.7,-385 152.4,-386.9 150.1,-388.9 147.6,-390.9 145.4,-392.8 142.9,-394.8 140.5,-396.8 138.4,-398.6 136,-400.7 133.4,-402.9 131.1,-404.9 128.7,-406.9 126.6,-408.7 124.3,-410.7 122,-412.7 119.5,-414.8 117,-416.9 114.7,-418.8 112.6,-420.6 110.1,-422.7 107.9,-424.6 105.4,-426.7 103.4,-428.5 101.3,-430.4 98.8,-432.5 96.4,-434.6 94.1,-436.6 91.6,-438.7 89.4,-440.7 87.1,-442.7 84.6,-444.8 82.5,-446.6 80.4,-448.5 78.1,-450.5 75.6,-452.6 73.4,-454.5 70.9,-456.7 68.6,-458.6 66.4,-460.6 64,-462.6 61.8,-464.5 59.9,-466.2 57.6,-468.2 55.4,-470.1 53.2,-472.1 50.7,-474.3 48.4,-476.2 46.3,-478.1 43.9,-480.1 41.7,-482.1 39.8,-483.8 37.5,-485.8 35.5,-487.5 33.4,-489.4 30.9,-491.6 28.8,-493.4 26.8,-495.2 24.4,-497.3 22.3,-499.1 20.1,-501 17.6,-503.1 15.6,-504.9 13.5,-506.6 11.4,-508.4 9.3,-510.1 7.3,-511.9 5.3,-513.6 3.5,-515.2 1.4,-517 -0.7,-518.9 -2.9,-520.7 -4.8,-522.4 -6.9,-524.2 -9.1,-526 -11.1,-527.6 -12.9,-529.2 -14.9,-530.9 -17,-532.6 -19,-534.4 -21.1,-536.1 -23.1,-537.6 -25.1,-539.4 -27.2,-541.2 -29.1,-542.9 -30.9,-544.4 -32.7,-545.9 -34.5,-547.6 -36.4,-549.2 -38.2,-550.9 -40.3,-552.6 -42.4,-554.3 -44.6,-556.1 -46.6,-557.8 -48.4,-559.2 -50.2,-560.8 -52.1,-562.4 -53.9,-563.9 -55.7,-565.4 -57.4,-566.9 -59.2,-568.4 -61.3,-570.1 -63.2,-571.7 -65.1,-573.2 -67,-574.8 -68.9,-576.4 -70.6,-577.9 -72.3,-579.4 -73.9,-580.7 -75.4,-582.1 -77.1,-583.4 -78.4,-584.6 -80,-585.9 -81.5,-587.2 -83.1,-588.5 -84.8,-589.9 -86.6,-591.4 -87.9,-592.6 -89.3,-593.7 -90.8,-595 -92.4,-596.3 -93.7,-597.4 -94.9,-598.3 -96.1,-599.4 -97.3,-600.4 -98.9,-601.7 -100.2,-602.8 -101.4,-603.9 -102.8,-605.1 -104.1,-606.1 -105.3,-607.1 -106.8,-608.4 -107.9,-609.2 -109,-610.1 -110.6,-611.4 -112.1,-612.6 -113.4,-613.7 -115.1,-615.1 -116.6,-616.3 -118.5,-617.9 -120.4,-619.5 -121.7,-620.6 -123.1,-621.8 -124.6,-623 -125.9,-624.1 -127.4,-625.5 -128.5,-626.4 -129.5,-627.2 -130.5,-628.1 -131.5,-629 -132.7,-630 -133.7,-630.7 -134.4,-631.2 -135,-631.8 -135.7,-632.3 -136.7,-633 -137.7,-633.7 -138.4,-634.2 -139,-634.7 -140.1,-635.4 -141.1,-636.1 -142.2,-636.9 -142.9,-637.4 -143.6,-637.9 -144.4,-638.4 -145.2,-638.9 -145.9,-639.4 -146.8,-639.9 -147.9,-640.6 -149,-641.2 -150.3,-642 -151.6,-642.7 -153,-643.6 -154.4,-644.2 -155.6,-644.8 -156.5,-645.2 -157.5,-645.6 -158.5,-646 -159.7,-646.5 -160.8,-646.9 -161.6,-647.1 -162.8,-647.6 -164,-647.9 -165.7,-648.4 -167.4,-648.8 -169.4,-649.1 -171.6,-649.6 -173.7,-650 -175.6,-650.3 -177.4,-650.6 -178.7,-650.8 -179.9,-650.9 -180.9,-651.1 -181.9,-651.1 -183,-651.2 -184.1,-651.3 -185.3,-651.4 -186.9,-651.4 -188.6,-651.4 -189.7,-651.2 -190.9,-651.1 -191.9,-650.9 -193.1,-650.8 -194.3,-650.6 -195.4,-650.5 -196.6,-650.3 -197.9,-650.1 -199.4,-649.9 -200.9,-649.7 -202.2,-649.4 -203.5,-649.1 -204.6,-648.9 -205.9,-648.6 -207.2,-648.2 -208.2,-647.9 -209.4,-647.5 -210.6,-647.1 -211.9,-646.8 -213,-646.4 -214.1,-645.9 -216,-645.1 -218.4,-644 -220.6,-642.9 -223.1,-641.4 -225.6,-639.9 -228.1,-638.4 -230.4,-636.8 -231.9,-635.6 -233,-634.6 -234.3,-633.3 -235.2,-632.2 -236.1,-631.1 -237,-630.1 -237.7,-629.1 -238.5,-628.1 -239.3,-626.9 -239.9,-626 -240.5,-624.8 -241.1,-623.6 -241.6,-622.5 -242.1,-621.4 -242.7,-619.9 -243.3,-618.2 -243.7,-616.6 -244.1,-615.4 -244.5,-613.7 -244.9,-612 -245.3,-610.3 -245.6,-608.6 -245.7,-607.5 -245.9,-606.4 -246,-605.2 -246,-604.4 -246.1,-603.1 -246.3,-601.9 -246.4,-600.6 -246.6,-599.4 -246.7,-598 -246.9,-596.4 -247,-594.8 -247,-593.6 -247,-592.5 -247,-591.1 -247,-589.9 -247.1,-588.1 -247.1,-586.6 -247.2,-585.1 -247.3,-583.5 -247.4,-581.4 -247.4,-579.6 -247.5,-577.6 -247.5,-576.1 -247.5,-574.6 -247.6,-572.7 -247.6,-570.9 -247.7,-569.3 -247.8,-567.8 -247.9,-566.4 -247.9,-564.9 -248,-563.6 -248,-562.5 -248.1,-561.1 -248.2,-559.8 -248.4,-558.5 -248.5,-557.1 -248.6,-555.6 -248.8,-554.3 -248.9,-552.9 -249,-551.9 -249.1,-550.6 -249.3,-549.1 -249.4,-547.9 -249.6,-546.7 -249.9,-545.1 -250.1,-543.5 -250.4,-541.9 -250.6,-540.7 -250.9,-539.5 -251.2,-538.3 -251.6,-536.8 -251.9,-535.7 -252.3,-534.6 -252.7,-533.4 -253.3,-531.8 -253.8,-530.4 -254.4,-528.9 -254.9,-527.7 -255.6,-526.3 -256.4,-524.5 -257.3,-522.9 -258,-521.7 -258.8,-520.5 -259.6,-519.1 -260.6,-517.8 -261.4,-516.6 -262.1,-515.9 -262.7,-515 -263.5,-514.1 -264.3,-513.1 -265.2,-512.2 -266.1,-511.3 -267,-510.4 -268.3,-509.2 -269.5,-508.1 -270.6,-507.1 -272,-506.1 -273.1,-505.3 -274.2,-504.5 -275.3,-503.8 -276,-503.3 -277.1,-502.7 -278.2,-502.1 -279.1,-501.6 -280.2,-501.1 -281.4,-500.7 -282.5,-500.2 -283.9,-499.7 -284.9,-499.3 -285.9,-498.9 -286.9,-498.6 -287.7,-498.4 -288.9,-498 -290.1,-497.7 -291.1,-497.5 -292.2,-497.4 -293.4,-497.1 -294.6,-496.9 -295.9,-496.8 -297,-496.7 -298.1,-496.6 -299.3,-496.6 -300.6,-496.5 -301.9,-496.5 -303.4,-496.5 -304.7,-496.5 -306,-496.6 -307.4,-496.6 -308.9,-496.7 -310.5,-496.9 -312.3,-497.2 -314.1,-497.6 -315.9,-497.9 -317.6,-498.3 -319.3,-498.7 -321.2,-499.3 -322.6,-499.7 -323.9,-500.1 -325,-500.6 -326.1,-501.1 -327.1,-501.6 -328.4,-502.1 -329.3,-502.6 -330.1,-503.2 -331.3,-503.9 -332.3,-504.6 -333.3,-505.2 -334.3,-505.9 -335.1,-506.5 -335.9,-507.1 -336.9,-507.9 -337.6,-508.4 -338.4,-509.1 -339.1,-509.9 -340.1,-510.8 -340.9,-511.6 -341.9,-512.6 -342.6,-513.4 -343.6,-514.7 -344.6,-515.9 -345.6,-517.3 -346.6,-518.6 -347.4,-519.8 -348.2,-520.9 -349,-522.2 -349.6,-523.1 -350.1,-524.1 -350.6,-525 -351.1,-526.1 -351.6,-527.1 -352.1,-528.4 -352.7,-529.7 -353.3,-530.9 -353.8,-532.2 -354.3,-533.3 -354.6,-534.2 -355.1,-535.6 -355.4,-536.7 -355.6,-537.7 -355.9,-538.7 -356.1,-539.8 -356.2,-540.9 -356.4,-542.1 -356.4,-543.1 -356.5,-544.1 -356.5,-545.2 -356.5,-546.4 -356.5,-547.7 -356.5,-549.1 -356.5,-550.5 -356.5,-551.8 -356.5,-553.1 -356.4,-554.4 -356.4,-555.6 -356.3,-556.6 -356.1,-557.9 -355.9,-559 -355.7,-560 -355.5,-560.9 -355.2,-562 -354.9,-563.1 -354.6,-564.5 -354.2,-565.5 -353.9,-566.8 -353.4,-568.1 -353,-569.4 -352.6,-570.4 -352.1,-571.9 -351.6,-573.1 -351.2,-574.3 -350.8,-575.2 -350.2,-576.6 -349.6,-577.9 -349.1,-579.3 -348.6,-580.4 -348.1,-581.5 -347.5,-582.6 -346.9,-584.1 -346.4,-585.1 -345.8,-586.4 -345.1,-587.8 -344.5,-589.1 -343.9,-590.4 -343.3,-591.9 -342.7,-593.2 -342.1,-594.5 -341.6,-595.6 -341,-596.9 -340.4,-598.1 -339.6,-599.6 -339,-601.1 -338.3,-602.6 -337.6,-604.1 -336.9,-605.6 -336.2,-607.2 -335.5,-608.8 -334.9,-610.1 -334.2,-611.8 -333.6,-613.1 -332.9,-614.6 -332.3,-615.9 -331.6,-617.5 -330.9,-619 -330.2,-620.4 -329.6,-621.6 -328.9,-623.2 -328.1,-624.9 -327.2,-626.6 -326.5,-628.1 -325.8,-629.8 -324.9,-631.5 -324.1,-633.2 -323.4,-634.9 -322.6,-636.6 -321.9,-638.4 -321.2,-639.9 -320.5,-641.4 -319.8,-643.1 -318.9,-645.1 -318.1,-646.7 -317.4,-648.2 -316.7,-649.9 -315.9,-651.6 -315,-653.4 -314.1,-655.3 -313.5,-656.8 -312.8,-658.4 -311.9,-660.2 -311.1,-661.8 -310.4,-663.4 -309.6,-665.1 -308.7,-666.9 -307.9,-668.8 -307.1,-670.5 -306.4,-672 -305.5,-673.9 -304.6,-675.8 -303.8,-677.6 -303.1,-679 -302.4,-680.6 -301.4,-682.6 -300.3,-684.8 -299.3,-686.7 -298.3,-688.7 -297.3,-690.7 -296.2,-692.8 -295.2,-694.6 -294.4,-696 -293.4,-697.6 -292.4,-699.4 -291.5,-700.9 -290.6,-702.2 -289.6,-703.8 -288.4,-705.6 -287.3,-707.4 -286.2,-709.1 -285.2,-710.6 -284.2,-712.1 -282.9,-714 -281.9,-715.6 -280.8,-717.1 -279.5,-718.8 -278.4,-720.1 -277.3,-721.6 -275.9,-723.5 -274.7,-725 -273.4,-726.7 -272.1,-728.4 -271.1,-729.7 -269.9,-731.3 -268.8,-732.7 -267.6,-734.1 -266.3,-735.6 -265.1,-737.1 -263.9,-738.4 -262.4,-739.9 -261.2,-741.3 -259.7,-742.9 -258.5,-744.3 -257.4,-745.6 -256.2,-746.7 -254.9,-748.1 -253.5,-749.6 -252.1,-751 -250.8,-752.3 -249.3,-753.8 -247.9,-755.1 -246.4,-756.6 -245,-758 -243.6,-759.3 -242.1,-760.7 -240.5,-762.1 -239.1,-763.4 -237.6,-764.7 -236.1,-765.9 -234.4,-767.4 -233,-768.6 -231.6,-769.7 -230.1,-770.9 -228.6,-772.1 -227.3,-773.2 -225.5,-774.6 -223.9,-775.7 -222.4,-776.9 -220.6,-778.1 -219.1,-779.2 -217.5,-780.3 -215.5,-781.6 -213.9,-782.7 -212.4,-783.8 -210.6,-784.9 -208.8,-786.1 -207.1,-787.2 -205.2,-788.4 -203.6,-789.3 -202,-790.2 -200.2,-791.2 -198.2,-792.4 -196.6,-793.4 -194.8,-794.4 -193,-795.5 -191,-796.6 -189.1,-797.6 -187.3,-798.6 -185.6,-799.4 -183.6,-800.4 -182,-801.1 -179.9,-802.1 -178.3,-802.8 -176.4,-803.6 -174.6,-804.4 -172.7,-805.2 -171.1,-805.9 -169.1,-806.6 -167.1,-807.3 -165,-808 -163.1,-808.6 -161.3,-809.3 -159.1,-809.9 -156.9,-810.6 -155.1,-811.2 -153.6,-811.6 -151.8,-812.1 -149.9,-812.5 -147.7,-813 -146,-813.4 -143.9,-813.8 -141.8,-814.2 -139.6,-814.6 -137.6,-815 -135.5,-815.4 -133.4,-815.8 -131.3,-816.1 -129.5,-816.4 -127.2,-816.8 -124.9,-817.1 -122.6,-817.6 -120.1,-817.9 -118.2,-818.2 -115.6,-818.6 -113,-818.9 -110.9,-819.2 -108.4,-819.6 -106.4,-819.8 -104.2,-820.1 -101.6,-820.4 -99.7,-820.7 -97.6,-820.9 -95,-821.3 -92.9,-821.6 -90.7,-821.9 -88.4,-822.1 -86.3,-822.4 -84.3,-822.7 -81.9,-823.1 -79.8,-823.4 -77.7,-823.6 -75.2,-824 -73.1,-824.4 -70.7,-824.6 -68,-825 -65.9,-825.4 -63.6,-825.6 -61,-826 -58.7,-826.3 -56.4,-826.6 -54.1,-826.9 -51.8,-827.1 -49.4,-827.4 -47,-827.7 -44.8,-827.9 -42.3,-828.3 -39.5,-828.6 -36.9,-829 -34.7,-829.3 -32.2,-829.6 -29.5,-829.9 -27,-830.3 -24.6,-830.6 -22.1,-830.9 -19.6,-831.1 -16.9,-831.5 -14.1,-831.9 -11.7,-832.1 -8.9,-832.6 -6.2,-832.9 -3.9,-833.2 -1.4,-833.6 1.4,-833.9 3.8,-834.2 6.4,-834.6 8.9,-834.9 11.4,-835.1 14.2,-835.5 17.1,-835.9 19.6,-836.1 22.5,-836.5 25.4,-836.9 27.8,-837.1 30.4,-837.4 32.9,-837.7 35.5,-838 38.1,-838.3 40.4,-838.6 43.2,-838.9 46,-839.1 49.2,-839.6 52.3,-839.9 54.9,-840.2 57.8,-840.6 60.9,-840.9 63.4,-841.2 66.4,-841.6 69.1,-841.9 71.7,-842.1 74.6,-842.5 77.9,-842.9 80.6,-843.1 83.6,-843.5 86.8,-843.9 89.5,-844.1 92.6,-844.5 95.7,-844.9 98.4,-845.1 101.4,-845.4 104.6,-845.8 107.4,-846.1 110.4,-846.4 113.6,-846.7 116.4,-847 119.4,-847.3 122.6,-847.7 125.4,-848 128.4,-848.3 131.4,-848.7 134.1,-849 136.9,-849.3 140,-849.7 142.6,-850 145.5,-850.3 148.6,-850.7 151.4,-851 154.4,-851.3 157.6,-851.7 160.4,-852 163.3,-852.3 166.4,-852.7 169.1,-853 171.9,-853.3 175.1,-853.6 177.8,-853.9 180.6,-854.2 183.4,-854.5 186.1,-854.8 189.3,-855.1 192.9,-855.5 195.8,-855.9 198.9,-856.1 201.9,-856.4 205.1,-856.9 208.1,-857.1 210.6,-857.4 213.1,-857.6 215.8,-857.9 218.4,-858.2 220.9,-858.5 223.2,-858.6 225.9,-858.9 228.6,-859.2 230.4,-859.4 232.5,-859.6 234.6,-859.8 237.2,-860.1 239.6,-860.4 241.4,-860.5 243.4,-860.6 245.6,-860.9 247.6,-861.1 249.6,-861.2 251.3,-861.3 253.3,-861.4 255.3,-861.6 257.1,-861.7 258.6,-861.8 260.2,-861.9 261.9,-862.1 263.2,-862.2 264.4,-862.3 265.8,-862.4 267.2,-862.4 268.6,-862.5 270.3,-862.5 271.6,-862.5 273.1,-862.5 274.5,-862.5 275.7,-862.5 277.4,-862.4 279.1,-862.4 280.8,-862.2 282.6,-862.1 284.4,-861.9 286.4,-861.7 288.5,-861.4 289.9,-861.2 291.6,-860.9 293.1,-860.7 294.6,-860.5 296.1,-860.1 297.3,-859.9 298.5,-859.6 299.7,-859.3 300.6,-859.1 301.9,-858.6 303.2,-858.2 304.2,-857.9 305.3,-857.5 306.6,-857 307.9,-856.4 309.1,-855.9 310.2,-855.4 311.4,-854.7 312.6,-854.1 313.9,-853.4 315.1,-852.8 316.4,-852.2 317.6,-851.6 318.6,-851 319.8,-850.4 321.1,-849.6 322.2,-848.9 323.1,-848.4 324.3,-847.6 325.5,-846.8 326.6,-846 327.8,-845.1 328.9,-844.4 329.9,-843.5 331,-842.7 332.1,-841.9 333.2,-840.9 334.4,-839.9 335.4,-839 336.6,-837.9 337.9,-836.9 339.1,-835.7 340.1,-834.8 341.2,-833.7 342.4,-832.6 343.4,-831.5 344.2,-830.6 345.2,-829.4 346.3,-828.1 347.4,-826.8 348.3,-825.6 349.3,-824.4 350.3,-823.1 351.4,-821.5 352.2,-820.4 353,-819.1 353.8,-817.8 354.7,-816.4 355.5,-815.1 356.4,-813.6 357,-812.4 357.7,-811.1 358.5,-809.6 359.2,-808.2 359.9,-806.8 360.5,-805.4 361.1,-804.1 361.7,-802.7 362.5,-800.9 363.1,-799.4 363.8,-797.9 364.3,-796.6 364.9,-794.8 365.6,-793.1 366.1,-791.5 366.7,-789.9 367.3,-788.3 367.9,-786.7 368.5,-785.1 369.1,-783.4 369.6,-781.9 370.3,-780.2 370.7,-779 371.4,-777.3 371.9,-775.6 372.5,-773.9 373.1,-772.2 373.8,-770.4 374.4,-768.7 375.1,-766.5 375.9,-764.6 376.6,-762.7 377.3,-760.9 377.8,-759.4 378.4,-757.5 379.1,-755.6 379.6,-754.1 380.1,-752.4 380.9,-750.4 381.5,-748.4 382.2,-746.4 382.9,-744.3 383.6,-742.2 384.4,-740.1 385.1,-737.9 385.6,-736 386.3,-733.9 387.1,-731.4 387.6,-729.5 388.2,-727.5 388.9,-725.6 389.4,-723.6 390.1,-721.5 390.7,-719.3 391.2,-717.5 391.7,-715.8 392.4,-713.5 393,-711.2 393.6,-709.3 394.1,-707.6 394.6,-705.8 395.1,-703.9 395.7,-701.4 396.2,-699.4 396.6,-697.5 397.1,-695.6 397.7,-693.3 398.3,-691.1 398.9,-688.9 399.3,-687.2 399.8,-685.1 400.3,-683.1 400.9,-680.4 401.4,-678.1 401.9,-676.1 402.4,-673.8 403,-671.4 403.5,-669.1 404.1,-666.6 404.5,-664.4 405,-662.1 405.5,-659.5 406.1,-657 406.6,-654.4 407.1,-652.2 407.6,-649.7 408.1,-647.5 408.6,-644.9 409.1,-642.7 409.5,-640.4 410,-638.2 410.5,-635.5 410.9,-633.2 411.4,-630.6 411.9,-628.3 412.4,-625.6 412.8,-623.3 413.3,-620.4 413.7,-617.9 414.3,-615 414.7,-612.5 415.2,-609.9 415.6,-607.6 416,-604.9 416.4,-602.4 416.9,-599.8 417.1,-597.7 417.6,-594.9 417.9,-592.2 418.4,-589.5 418.8,-586.9 419.1,-584.4 419.4,-581.8 419.7,-579 420,-576.4 420.3,-573.9 420.6,-571.2 420.9,-568.4 421.1,-565.6 421.6,-562.2 421.9,-558.9 422.2,-555.9 422.5,-552.6 422.9,-549.1 423.1,-546.1 423.4,-542.9 423.6,-540.4 423.8,-537.2 424.1,-534.2 424.4,-531.6 424.5,-529.1 424.6,-526.3 424.8,-523.6 425.1,-520.6 425.3,-518.1 425.4,-515.5 425.6,-512.6 425.7,-509.8 426,-506.8 426.3,-503.7 426.4,-501.1 426.6,-498.2 426.7,-495.4 426.9,-492.6 427.1,-489.6 427.3,-487.1 427.4,-484.6 427.6,-481.8 427.8,-478.8 428.1,-475.9 428.4,-473 428.5,-470.4 428.7,-467.3 428.9,-464.3 429.2,-461.5 429.4,-458.9 429.6,-456.1 429.8,-453.1 430,-450.2 430.2,-447.9 430.4,-445.1 430.6,-442.5 430.7,-439.8 430.9,-437 431.1,-434.7 431.4,-432.2 431.5,-429.5 431.6,-427.1 431.9,-424.1 432.1,-421.5 432.3,-419.2 432.4,-416.6 432.6,-414 432.8,-411.1 433,-408.5 433.2,-406.4 433.4,-404.1 433.6,-401.7 433.7,-399.4 433.9,-397.4 434.1,-395.4 434.3,-393.4 434.4,-391.5 434.6,-389.4 434.8,-387.2 435.1,-385.1 435.4,-383 435.5,-381.3 435.7,-379.1 436,-376.9 436.3,-375.1 436.5,-373.6 436.6,-372 436.9,-370.1 437.2,-368.2 437.4,-366.9 437.7,-365.1 438,-363.3 438.3,-361.5 438.7,-359.6 439,-358.1 439.4,-356.7 439.8,-355 440.1,-353.7 440.5,-352.2 441,-350.6 441.4,-349.2 441.9,-347.9 442.4,-346.3 442.9,-344.8 443.4,-343.3 443.9,-342 444.4,-340.7 445,-339.2 445.6,-337.7 446.1,-336.3 446.8,-334.8 447.4,-333.2 448.1,-331.6 448.6,-330.3 449.4,-328.6 450.1,-327 450.9,-325.6 451.4,-324.3 452.1,-322.9 452.9,-321.1 453.8,-319.4 454.5,-318 455.2,-316.5 455.9,-315.1 456.8,-313.5 457.5,-312.1 458.2,-310.9 459.1,-309.4 459.9,-307.9 460.8,-306.4 461.7,-304.7 462.7,-303.1 463.8,-301.4 464.6,-300.1 465.6,-298.7 466.5,-297.3 467.4,-296.1 468.1,-294.9 469,-293.6 469.9,-292.2 470.9,-290.6 471.7,-289.3 472.7,-287.8 473.6,-286.3 474.8,-284.6 475.6,-283.3 476.5,-281.9 477.3,-280.6 478.1,-279.2 478.7,-277.9 479.4,-276.7 479.8,-275.7 480.4,-274.4 480.9,-272.8 481.4,-271.4 481.9,-269.9 482.4,-268.5 482.9,-266.8 483.4,-265.1 483.9,-263.7 484.2,-262.6 484.5,-261.4 484.7,-260.3 485,-258.7 485.2,-257.4 485.4,-256 485.6,-254.6 485.7,-253.1 485.9,-251.6 486,-250.1 486,-248.9 486,-247.6 486,-246.3 486,-244.9 486,-243.7 485.9,-242.2 485.7,-240.7 485.6,-239.3 485.4,-238.1 485.1,-236.6 484.9,-235 484.6,-233.5 484.3,-232.1 484,-230.9 483.7,-229.6 483.3,-228 483,-226.6 482.6,-225.4 482.2,-223.9 481.8,-222.4 481.4,-220.9 480.8,-219.2 480.4,-217.9 479.8,-216.4 479.2,-214.8 478.6,-213.2 478.1,-211.8 477.6,-210.2 477.1,-208.8 476.6,-207.4 476,-205.7 475.5,-204.1 475,-202.6 474.5,-201.2 473.9,-199.7 473.3,-198 472.6,-196.3 472.1,-194.8 471.5,-193.4 470.9,-191.9 470.4,-190.3 469.8,-188.6 469.2,-187 468.6,-185.4 468.1,-184 467.6,-182.5 467,-180.6 466.4,-178.9 465.9,-177.3 465.3,-175.6 464.7,-174 464.1,-172.4 463.4,-170.3 462.9,-168.6 462.3,-166.9 461.8,-165.3 461.4,-163.9 460.9,-162.1 460.4,-160.4 460,-159.2 459.6,-157.6 459.1,-155.9 458.6,-154.2 458.1,-152.6 457.6,-151.1 457.1,-149.1 456.6,-147.1 456.2,-145.4 455.9,-143.9 455.5,-142.1 455.1,-140.2 454.8,-138.6 454.5,-137 454.1,-135.2 453.9,-133.5 453.6,-131.8 453.4,-130.4 453.1,-128.4 452.9,-126.6 452.6,-125 452.5,-123.3 452.4,-121.6 452.2,-119.9 452.1,-118.3 451.9,-116.8 451.9,-114.7 451.9,-112.8 451.9,-111.1 451.9,-109.5 451.9,-107.6 452,-105.9 452.1,-104.3 452.2,-103.1 452.4,-101.5 452.6,-99.9 452.9,-97.9 453.1,-96.1 453.4,-94.4 453.8,-92.4 454.1,-90.6 454.6,-89 455,-87.3 455.4,-85.8 456.1,-83.9 456.6,-82.1 457.2,-80.6 457.9,-79 458.4,-77.6 459.1,-75.9 459.8,-74.4 460.4,-73 461,-71.6 461.9,-69.8 462.9,-68 463.8,-66.4 464.5,-65.2 465.4,-63.7 466.3,-62.4 467.1,-61.1 467.8,-60.2 468.7,-58.9 469.7,-57.4 470.9,-55.9 471.9,-54.7 472.9,-53.4 474.1,-51.9 475.3,-50.4 476.3,-49.2 477.3,-48 478.3,-46.9 479.4,-45.6 480.4,-44.4 481.3,-43.4 482.3,-42.3 483.3,-41.1 484.3,-40 485.3,-38.8 486.2,-37.7 487.1,-36.6 488.1,-35.3 489.1,-34 490.1,-32.8 491.1,-31.5 492.1,-30.3 493.1,-29 494.1,-27.8 495.1,-26.5 495.9,-25.6 496.9,-24.4 497.6,-23.2 498.4,-22.1 499.1,-20.9 499.9,-19.6 500.7,-18.2 501.5,-16.7 502,-15.6 502.6,-14.4 503.3,-12.9 503.9,-11.6 504.4,-10.2 504.9,-9.1 505.2,-8.1 505.7,-6.8 506.2,-5.2 506.6,-4 506.9,-2.8 507.3,-1.3 507.7,0.3 508.1,1.9 508.4,3.1 508.6,4.4 508.9,5.9 509.1,7.5 509.2,8.8 509.4,10.2 509.5,11.7 509.6,13.3 509.8,14.9 509.9,16.1 509.9,17.4 510,18.7 509.9,20.1 509.7,21.6 509.6,23.2 509.4,24.6 509.3,26 509.1,27.4 508.9,29 508.7,30.3 508.5,31.9 508.2,33.2 507.9,34.6 507.6,36 507.2,37.6 506.9,38.9 506.4,40.4 506,41.6 505.6,42.7 505.1,44.1 504.5,45.6 504,46.8 503.5,48 502.8,49.4 502.1,50.8 501.4,52.3 500.7,53.5 500,54.7 499.3,55.9 498.4,57.4 497.6,58.4 496.9,59.5 495.7,61 494.6,62.4 493.4,63.9 492.1,65.5 491,66.7 489.9,68 488.4,69.5 487.4,70.4 486.3,71.4 485.1,72.6 483.9,73.6 482.7,74.6 481.4,75.8 480.4,76.7 479.5,77.6 478.2,78.6 477.1,79.4 476,80.2 474.8,81.1 473.7,81.8 472.3,82.7 470.8,83.7 469.6,84.4 468.2,85.4 466.9,86.2 465.4,87.2 464,88.1 462.6,89 461.4,89.9 459.8,90.9 458.5,91.8 456.9,92.9 455.6,93.7 454.2,94.6 452.9,95.5 451.6,96.4 450.3,97.3 448.9,98.1 447.6,99 446.4,99.9 445,100.7 443.7,101.5 442.2,102.4 440.6,103.4 439.1,104.3 437.9,105.1 436.6,105.9 434.9,106.9 433.4,107.9 431.9,108.7 430.6,109.5 429.4,110.3 427.9,111.1 426.2,112.1 424.9,112.9 423.7,113.7 422.3,114.6 420.9,115.6 419.1,116.8 417.4,117.9 416.1,118.9 414.6,119.8 413.2,120.8 412.1,121.6 410.4,122.9 409.2,123.8 407.9,124.7 406.6,125.7 405.2,126.9 403.5,128.2 402,129.5 400.7,130.6 399.4,131.8 398.2,132.9 396.7,134.4 395.5,135.6 394.3,136.9 393,138.1 391.7,139.6 390.4,141 389,142.7 387.8,144.1 386.5,145.6 385.1,147.4 383.8,149.1 382.7,150.6 381.5,152.2 380.5,153.6 379.4,155.2 378.3,156.9 377.4,158.4 376.5,160 375.6,161.6 374.7,163.1 373.7,164.9 372.8,166.6 371.9,168.4 370.9,170.1 370,171.8 369.1,173.5 368.3,175.2 367.4,177 366.6,178.6 365.7,180.3 364.9,182 364.1,183.5 363.1,185.4 362.3,187 361.4,188.6 360.6,190.4 359.7,192 358.9,193.5 358.1,195 357.2,196.7 356.3,198.4 355.4,200.1 354.6,201.6 353.7,203.3 352.8,205 351.7,206.9 351,208.3 350.1,210.1 349.1,211.9 348.3,213.6 347.4,215.4 346.6,217.1 345.9,218.7 345.1,220.4 344.2,222 343.4,223.6 342.4,225.3 341.4,227.1 340.4,229.1 339.6,230.8 338.6,232.7 337.9,234.4 337.1,236.1 336.2,237.8 335.4,239.3 334.6,240.9 333.5,242.9 332.5,244.9 331.6,246.6 330.6,248.4 329.7,250.3 328.9,252 328.1,253.8 327.3,255.3 326.4,257.1 325.4,259.1 324.6,260.8 323.6,262.5 322.6,264.6 321.6,266.6 320.8,268.4 319.9,270.1 318.9,271.9 318,273.9 316.9,276.1 316.1,277.8 315.1,279.7 314.1,281.6 313.4,283.2 312.4,285.1 311.4,287.1 310.6,288.9 309.6,290.8 308.9,292.5 307.8,294.4 306.7,296.6 305.8,298.5 304.8,300.5 303.9,302.3 302.9,304.1 301.8,306.2 300.9,308.1 299.9,309.9 298.9,311.9 298.1,313.4 297,315.4 295.9,317.6 294.9,319.4 293.9,321.4 293,323.2 291.9,325.3 290.8,327.6 289.9,329.5 288.9,331.3 287.9,333.6 286.9,335.6 285.9,337.8 284.9,339.9 283.9,342 283,343.9 281.9,346.2 281,348 279.9,350.2 278.9,352.4 277.9,354.4 276.8,356.4 275.6,358.9 274.7,360.8 273.5,363.2 272.4,365.4 271.3,367.8 270.2,369.9 269.1,372.2 267.9,374.5 266.7,377 265.6,379.4 264.6,381.4 263.4,383.9 262.2,386.5 261.1,388.9 259.9,391.2 258.7,393.8 257.6,396.1 256.2,398.8 254.8,401.8 253.4,404.7 252.4,406.8 251.2,409.4 249.9,412.1 248.6,414.8 247.1,417.8 246.1,419.9 244.9,422.2 243.3,425.5 241.9,428.5 240.6,431 239.2,433.9 237.9,436.6 236.6,439.4 235.2,442.2 233.9,445 232.4,447.7 230.9,450.8 229.6,453.6 228.2,456.4 226.8,459.1 225.4,461.8 223.9,464.9 222.7,467.5 221.3,470.3 219.9,473 218.4,475.9 217,478.9 215.6,481.9 214.4,484.5 212.9,487.3 211.6,490.1 210.1,493.2 208.9,495.8 207.4,498.7 205.9,501.5 204.3,504.7 202.5,508.3 200.9,511.7 199.1,515.1 197.4,518.6 195.8,521.7 194,525.1 192.4,528.3 191,531.1 189.6,533.9 188.1,536.8 186.6,539.7 185.2,542.6 183.6,545.8 182.2,548.6 180.6,551.8 179.1,554.7 177.6,557.6 176.1,560.6 174.6,563.7 173.2,566.6 171.7,569.6 170.3,572.6 168.8,575.6 167.3,578.6 165.8,581.6 164.3,584.6 162.8,587.5 161.4,590.4 159.9,593.2 158.3,596.2 156.9,599.1 155.4,601.9 153.8,605.2 152.4,608.1 150.6,611.4 149.2,614.4 147.6,617.5 146.1,620.4 144.5,623.5 143.1,626.2 141.4,629.3 139.9,632.4 138.3,635.4 136.6,638.4 134.9,641.8 133.4,644.6 131.8,647.7 130.3,650.5 128.8,653.3 127.2,656.1 125.8,658.9 124.4,661.4 122.7,664.4 121.2,667.3 119.6,670.4 118.1,672.9 116.5,675.9 115.1,678.4 113.4,681.4 112.1,683.9 110.4,686.8 109.1,689.2 107.5,692 105.9,694.8 104.1,697.8 102.6,700.4 100.7,703.6 99.1,706.4 97.5,709.1 95.7,712.1 94.1,714.8 92.5,717.6 90.9,720.3 89.4,722.9 87.8,725.5 86.1,728.4 84.7,730.6 83.1,733.3 81.6,735.8 80.1,738.2 78.6,740.6 77.1,743 75.6,745.6 74,748.1 72.3,750.9 70.8,753.3 69.2,755.9 67.9,758 66.2,760.8 64.8,763 63.1,765.6 61.7,767.8 60.2,770.1 58.6,772.7 56.9,775.4 55.6,777.5 54.1,779.7 52.6,782.1 51.3,784.1 49.8,786.3 48.3,788.6 46.9,790.7 45.4,792.9 44,795 42.7,796.9 41.2,799.2 39.9,801.1 38.7,802.9 37.4,804.8 36.1,806.6 34.8,808.5 33.5,810.3 32.4,811.9 31.1,813.5 30,815.1 29,816.5 27.8,818.1 26.6,819.8 25.4,821.5 24.3,823 23.3,824.5 22.1,826.1 21,827.6 20.1,828.8 19.1,830 18.4,830.9 17.7,831.9 16.5,833.1 15.6,834.1 14.6,835.1 13.5,836.4 12.4,837.5 11.2,838.6 10.1,839.8 9,840.8 7.8,841.9 6.6,842.9 5.6,843.6 4.6,844.5 3.3,845.4 2,846.3 1.1,846.9 -0.1,847.6 -1.2,848.4 -2.4,849.1 -3.6,849.9 -4.6,850.4 -5.9,851.1 -7.1,851.7 -8.2,852.3 -9.4,852.8 -10.6,853.3 -11.7,853.8 -13.1,854.4 -14.2,854.9 -15.6,855.4 -16.8,855.9 -18,856.4 -19.2,856.8 -20.5,857.3 -21.9,857.7 -23.4,858.1 -24.8,858.6 -26.1,858.9 -27.4,859.2 -28.6,859.5 -30.3,859.9 -31.6,860.1 -32.9,860.4 -33.9,860.6 -35.1,860.8 -36.4,861 -37.9,861.2 -39.1,861.3 -40.4,861.4 -41.7,861.4 -43.1,861.5 -44.5,861.5 -46.1,861.5 -47.5,861.5 -49.1,861.5 -50.5,861.5 -52.1,861.5 -53.7,861.5 -55.1,861.5 -56.4,861.4 -57.7,861.4 -58.8,861.3 -59.9,861.2 -61.2,861.1 -62.5,860.9 -63.9,860.6 -65,860.5 -66.5,860.2 -68,859.9 -69.5,859.6 -70.8,859.3 -72.1,859 -73.5,858.6 -75.1,858.2 -76.3,857.9 -77.5,857.5 -78.9,857 -80.1,856.6 -81.4,856.1 -82.7,855.7 -83.8,855.3 -85.2,854.8 -86.6,854.2 -87.9,853.7 -89.4,853.1 -90.6,852.5 -91.8,851.9 -93.1,851.2 -94.2,850.6 -95.3,850.1 -96.3,849.5 -97.4,848.7 -98.6,848 -100,847.1 -101.3,846.3 -102.5,845.4 -103.8,844.6 -105,843.7 -105.9,843.1 -106.9,842.4 -107.5,841.8 -108.5,840.9 -109.5,839.9 -110.4,839 -111.5,838 -112.5,837 -113.6,835.9 -114.7,834.8 -115.5,834 -116.3,833.2 -117.4,831.9 -118.5,830.7 -119.4,829.6 -120.4,828.3 -121.4,826.9 -122.4,825.6 -123.6,824 -124.4,822.9 -125.3,821.6 -126.2,820.2 -127,819.1 -127.7,818 -128.4,816.9 -129.1,815.6 -129.8,814.3 -130.4,813.2 -130.9,812.1 -131.7,810.6 -132.5,809.1 -133.4,807.5 -133.9,806.4 -134.5,805.3 -135.2,803.8 -136,802.2 -136.6,801.1 -137.1,799.9 -137.6,798.9 -138.3,797.4 -139.1,795.7 -139.7,794.4 -140.3,793.2 -141.1,791.6 -141.9,790 -142.7,788.4 -143.4,786.9 -144.1,785.6 -144.7,784.4 -145.6,782.7 -146.3,781.4 -147.1,779.9 -147.9,778.4 -148.6,777.1 -149.6,775.3 -150.4,773.5 -151.1,772.2 -152,770.5 -152.8,769.1 -153.6,767.6 -154.6,765.7 -155.4,764.3 -156.2,762.8 -157.1,761.1 -158,759.7 -158.9,758.2 -159.6,756.8 -160.6,755.4 -161.4,753.9 -162.3,752.5 -163.1,751.1 -164,749.6 -164.9,748.1 -165.9,746.4 -166.7,745.1 -167.6,743.6 -168.7,741.9 -169.7,740.3 -170.6,738.8 -171.7,737.1 -172.6,735.6 -173.8,733.8 -174.9,732.1 -175.9,730.6 -177.1,728.9 -178.2,727.3 -179.4,725.6 -180.5,724.1 -181.6,722.7 -182.6,721.4 -183.7,719.9 -184.9,718.3 -186.1,716.7 -187.1,715.3 -188.2,713.9 -189.3,712.4 -190.4,710.8 -191.6,709.1 -192.7,707.8 -193.8,706.4 -195,704.9 -196.3,703.3 -197.6,701.7 -198.8,700.2 -199.8,699 -201.1,697.4 -202.4,695.9 -203.4,694.6 -204.6,693.2 -205.7,691.8 -206.9,690.3 -208.2,688.8 -209.3,687.5 -210.6,685.9 -211.9,684.4 -213.4,682.8 -214.6,681.4 -215.9,679.9 -217.3,678.4 -218.6,676.9 -219.9,675.5 -221.4,673.9 -222.6,672.5 -223.9,671.1 -225.2,669.6 -226.6,668.1 -227.8,666.9 -229.1,665.4 -230.3,664.2 -231.7,662.8 -233.1,661.4 -234.4,660.1 -235.8,658.7 -237.2,657.3 -238.6,655.9 -240.1,654.4 -241.3,653.1 -242.6,651.8 -244,650.4 -245.5,648.9 -246.9,647.5 -248.1,646.4 -249.2,645.2 -250.7,643.6 -251.9,642.3 -253.3,640.9 -254.5,639.6 -255.7,638.2 -257,636.8 -258.4,635.2 -259.6,634 -260.9,632.8 -262.1,631.4 -263.4,630.1 -264.6,628.9 -265.9,627.6 -267.1,626.4 -268.6,624.9 -270,623.5 -271.3,622.2 -272.4,621.1 -273.6,619.7 -274.9,618.4 -276.2,616.9 -277.2,615.8 -278.4,614.5 -279.6,613.2 -281,611.8 -282.3,610.4 -283.6,609.2 -284.7,608.1 -285.9,606.9 -287.1,605.6 -288.3,604.4 -289.4,603.3 -290.9,601.8 -292.3,600.4 -293.6,599 -295.1,597.4 -296.4,596 -297.9,594.4 -299.3,592.8 -300.4,591.6 -301.6,590.4 -303.2,588.6 -304.6,587.1 -306,585.6 -307.2,584.4 -308.5,582.9 -309.6,581.6 -310.9,580.1 -311.6,579.3 -312.4,578.4 -313.4,577.1 -314.5,575.9 -315.5,574.9 -316.6,573.6 -317.9,572.1 -319.1,570.8 -320.4,569.4 -321.4,568.3 -322.3,567.1 -323.2,566.1 -324.1,565.1 -324.9,564.2 -325.7,563.2 -326.5,562.2 -327.3,561.2 -328.3,560.1 -329.3,558.9 -330.3,557.8 -331.4,556.5 -332.6,555.1 -334.1,553.6 -335.5,552.1 -336.7,550.8 -337.9,549.5 -339,548.2 -340.3,546.9 -341.4,545.6 -342.4,544.6 -343.4,543.5 -344.4,542.4 -345.5,541.2 -346.9,540.1 -347.8,539.2 -349.1,538.2 -351.7,537.3 -355.2,536.8 -358.6,536.4 -362.3,536.4 -365.6,536.6 -368.9,537 -372.1,537.9 -373.9,539 -375.2,540.1 -376.5,541.3 -377.5,542.2 -379,543.7 -380.6,545.3 -382,546.6 -383.5,548.2 -384.6,549.4 -385.9,550.6 -387.1,551.8 -387.9,552.6 -388.5,553.3 -389.3,554.1 -390.1,554.9 -391.2,556.1 -392.5,557.4 -393.9,558.8 -395.1,560.1 -396.4,561.4 -397.6,562.6 -398.6,563.5 -399.5,564.3 -400.3,564.9 -401,565.3 -401.9,565.9 -403.2,566.6 -404.5,567.1 -405.8,567.8 -407,568.3 -408.4,568.8 -409.7,569.3 -410.9,569.6 -411.6,569.9 -412.4,570.1 -413.2,570.2 -414.1,570.4 -414.7,570.4 -415.4,570.5 -416.2,570.6 -417.1,570.6 -418,570.6 -419,570.6 -420.1,570.6 -421.4,570.6 -422.9,570.4 -424.4,570.2 -425.8,569.9 -427.1,569.7 -428.4,569.5 -429.4,569.2 -430.5,568.9 -431.6,568.4 -432.8,567.8 -434,567.2 -435.1,566.6 -436.6,565.7 -438,564.9 -439.2,564 -439.9,563.5 -440.6,562.9 -441.4,562.3 -442.2,561.7 -442.8,561.2 -443.4,560.6 -444.4,559.9 -445.3,559.1 -446.3,558.1 -447.6,556.9 -449,555.5 -450.3,554.1 -451.6,552.8 -452.8,551.6 -453.9,550.3 -455,549.2 -455.9,548.1 -456.9,547 -458,545.9 -459,544.7 -460,543.6 -461.1,542.4 -462.1,541.1 -463.1,540.1 -464.1,539 -465.1,537.9 -466.1,536.7 -467.1,535.6 -468.1,534.4 -469.2,533.1 -470.1,532.1 -470.9,531.2 -471.5,530.4 -472.2,529.5 -472.9,528.6 -473.7,527.6 -474.4,526.7 -475.1,525.8 -475.9,524.6 -476.9,523.4 -477.6,522.4 -478.4,521.3 -479.1,520.4 -479.7,519.6 -480.4,518.7 -481,517.8 -481.5,516.9 -482.1,515.9 -482.8,514.9 -483.6,513.4 -484.4,511.9 -485.3,510.4 -486.1,509 -486.9,507.6 -487.6,506.3 -488.3,504.9 -488.8,503.9 -489.4,502.9 -490,501.6 -490.6,500.4 -491.1,499.3 -491.8,497.9 -492.5,496.4 -493.2,494.9 -493.9,493.4 -494.4,492.1 -495.1,490.6 -495.7,489.1 -496.1,488.1 -496.6,487.1 -497,485.9 -497.6,484.6 -498.1,483.3 -498.5,482.2 -498.9,481.1 -499.4,480.1 -499.9,478.9 -500.2,477.8 -500.6,476.7 -501,475.4 -501.4,474.2 -501.9,472.9 -502.3,471.4 -502.9,469.8 -503.4,468.1 -503.9,466.6 -504.3,465.4 -504.7,463.8 -505.1,462.2 -505.6,460.6 -505.9,459.5 -506.2,458.4 -506.6,457.3 -506.9,455.6 -507.4,453.9 -507.8,452.1 -508.1,450.4 -508.5,448.6 -508.9,446.8 -509.2,444.6 -509.5,442.9 -509.6,441.6 -509.9,440.4 -510,439.1 -510.1,437.8 -510.3,436.5 -510.4,435.6 -510.4,434.6 -510.5,433.7 -510.4,432.8 -510.3,431.4 -510.1,430.2 -510,429.1 -509.8,427.9 -509.5,426.5 -509.2,425.1 -508.9,423.7 -508.7,422.8 -508.4,421.8 -508,420.8 -507.6,419.6 -507.2,418.8 -506.7,417.8 -506.1,416.6 -505.6,415.4 -505.1,414.5 -504.5,413.6 -503.7,412.3 -502.9,411 -502.1,409.9 -501.5,408.9 -500.8,408 -499.9,406.7 -499,405.4 -498.4,404.6 -497.8,403.7 -496.8,402.4 -495.8,401.1 -494.8,399.8 -493.8,398.5 -492.6,397 -491.6,395.5 -490.6,394.1 -489.9,393.1 -489.1,392.1 -488.3,391 -487.4,389.7 -486.6,388.6 -485.8,387.6 -484.9,386.5 -483.8,384.9 -482.7,383.4 -481.6,382 -480.9,380.9 -479.9,379.6 -478.9,378.2 -477.9,376.9 -477,375.8 -476.1,374.6 -475.3,373.4 -474.4,372.1 -473.8,371.2 -473.1,370.2 -472.1,368.9 -471.4,367.9 -470.6,366.9 -469.9,366 -469.1,365.1 -468.1,363.8 -467.2,362.6 -466.6,361.6 -465.6,360.3 -464.6,358.9 -463.6,357.6 -462.7,356.3 -461.8,354.9 -460.9,353.6 -459.8,352.1 -459,351.1 -458.6,350.5 -458.1,349.8 -457.5,348.9" style="stroke: rgb(55, 65, 81); stroke-width: 10;"></polygon><polyline vector-effect="non-scaling-stroke" fill="none" points="-454.3,344.8 -454,344.3 -453.8,343.9 -453.5,343.6 -453.1,343.1 -452.4,342.1 -451.8,341.2 -451.3,340.5 -450.6,339.6 -449.9,338.6 -449.3,337.7 -448.6,336.8 -448.1,335.9 -447.4,335.1 -446.9,334.2 -446.4,333.6 -445.9,333 -445.2,331.9 -444.4,330.9 -443.8,330 -443.1,329.1 -442.3,328 -441.3,326.6 -440.3,325.1 -439.5,324 -438.4,322.4 -437,320.5 -435.6,318.6 -434.4,316.9 -433.2,315.4 -431.9,313.7 -430.6,312 -429.6,310.8 -428.9,309.9 -428,308.8 -427,307.4 -426.1,306.2 -425.5,305.2 -424.6,304 -423.8,302.7 -422.9,301.4 -422.2,300.4 -421.4,299.2 -420.4,297.9 -419.5,296.6 -418.7,295.5 -417.9,294.4 -416.8,292.9 -415.8,291.4 -415,290.1 -414.3,289 -413.4,287.8 -412.4,286.4 -411.3,284.9 -410.6,283.9 -409.6,282.6 -408.6,281.2 -407.6,279.9 -406.4,278.4 -405.5,277.2 -404.4,275.7 -403.4,274.1 -402.5,272.9 -401.4,271.4 -400.4,269.8 -399.5,268.5 -398.4,266.9 -397.5,265.6 -396.4,264.1 -395.2,262.6 -394.2,261.3 -393,259.6 -391.8,258 -390.6,256.5 -389.4,254.9 -388.3,253.3 -387.1,251.7 -386.1,250.3 -385.1,249 -383.9,247.5 -382.7,245.9 -381.6,244.4 -380.4,242.9 -379.2,241.2 -377.9,239.4 -376.6,237.6 -375.4,235.9 -374.1,234.2 -372.9,232.5 -371.7,230.9 -370.6,229.2 -369.5,227.7 -368.5,226.3 -367.3,224.6 -366.2,223.1 -365.1,221.6 -363.9,220 -362.7,218.4 -361.4,216.6 -359.9,214.8 -358.8,213.1 -357.6,211.6 -356.3,209.7 -355.2,208.1 -354,206.5 -352.9,204.9 -351.7,203.3 -350.4,201.5 -349.1,199.7 -348.1,198.1 -346.6,196.2 -345.4,194.4 -344,192.4 -342.6,190.4 -341.6,188.9 -340.4,187.4 -339,185.4 -337.9,183.9 -336.6,182.1 -335.6,180.6 -334.4,179.1 -333,177.2 -331.6,175.1 -330.4,173.4 -329.1,171.7 -327.9,169.9 -326.5,167.9 -325.3,166.2 -324.1,164.6 -322.9,163 -321.6,161 -320.1,159.1 -319,157.5 -317.9,155.9 -316.6,153.9 -315.2,152.1 -313.9,150.3 -312.9,148.9 -311.6,146.9 -310.2,145.1 -308.9,143.2 -307.8,141.7 -306.7,140.1 -305.5,138.4 -304.1,136.6 -303.1,135.2 -302,133.6 -300.9,131.9 -299.7,130.4 -298.4,128.5 -297.3,127 -296.1,125.4 -294.9,123.6 -293.8,122.1 -292.5,120.4 -291.1,118.4 -289.9,116.7 -288.6,114.8 -287.4,113.1 -286.3,111.6 -284.9,109.7 -283.6,108 -282.4,106.4 -281.1,104.5 -280,102.9 -278.7,101.2 -277.5,99.4 -276.6,98 -275.5,96.5 -274.3,94.9 -273,93.1 -271.8,91.5 -270.7,90.1 -269.5,88.4 -268.2,86.8 -266.8,84.8 -265.6,83.1 -264.6,81.6 -263.5,79.9 -262.3,78.1 -261,76.4 -259.8,74.6 -258.9,73.2 -257.7,71.7 -256.4,69.9 -255,68.1 -253.7,66.3 -252.6,64.7 -251.4,62.9 -250.1,61.1 -248.9,59.4 -247.8,57.8 -246.8,56.4 -245.6,54.7 -244.4,53.1 -243.3,51.7 -242,50.1 -240.8,48.4 -239.5,46.6 -238.2,44.8 -237.1,43.4 -236,41.9 -234.9,40.3 -233.7,38.7 -232.5,37 -231.6,35.8 -230.6,34.6 -229.6,33.2 -228.6,31.9 -227.5,30.3 -226.6,29 -225.7,27.9 -224.6,26.6 -223.6,25.1 -222.6,23.9 -221.6,22.6 -220.7,21.6 -219.8,20.5 -218.8,19.4 -217.9,18.3 -216.9,17.2 -215.5,15.9 -214.2,14.7 -212.8,13.4 -211.4,12.2 -209.9,10.9 -208.4,9.9 -207.1,8.9 -206.1,8.1 -204.6,7.2 -203.4,6.4 -202.2,5.7 -201.3,5.1 -200.3,4.6 -199.3,4.1 -198,3.5 -196.9,3.1 -195.9,2.7 -194.8,2.3 -193.6,1.9 -192.3,1.4 -190.9,1 -189.8,0.7 -188.9,0.4 -187.6,0.1 -186.2,-0.2 -184.9,-0.6 -183.9,-0.8 -182.4,-1.1 -181,-1.4 -179.6,-1.6 -178.4,-1.9 -177.4,-2.1 -176.1,-2.2 -174.4,-2.4 -173.1,-2.6 -171.8,-2.8 -170.4,-2.9 -169,-3.1 -167.6,-3.2 -166,-3.4 -164.9,-3.4 -163.6,-3.5 -162,-3.6 -160.4,-3.6 -158.9,-3.8 -157.2,-3.9 -155.8,-4.1 -154.2,-4.2 -152.7,-4.4 -151.4,-4.4 -149.9,-4.5 -148.4,-4.5 -146.9,-4.4 -145.4,-4.4 -144,-4.3 -142.7,-4.2 -141.2,-4.1 -139.6,-3.9 -138,-3.8 -136.4,-3.7 -134.6,-3.6 -132.9,-3.4 -131.3,-3.3 -129.6,-3.1 -127.9,-3 -126.4,-2.9 -125.1,-2.6 -123.4,-2.4 -121.5,-2.2 -119.5,-2 -117.9,-1.8 -116.4,-1.6 -114.5,-1.3 -112.5,-1.1 -110.8,-0.9 -109.2,-0.6 -107.7,-0.4 -105.7,-0.2 -103.8,0 -102.1,0.2 -100.4,0.4 -98.9,0.6 -96.8,0.8 -94.7,1.1 -93.1,1.3 -91.5,1.5 -89.6,1.7 -87.6,2 -85.4,2.3 -83.8,2.5 -82.2,2.6 -80.3,2.9 -78.3,3.2 -76.6,3.4 -74.9,3.6 -73,3.8 -70.9,4.1 -68.7,4.4 -66.9,4.5 -65.2,4.6 -63.2,4.9 -61.1,5.2 -59.4,5.4 -57.8,5.6 -55.9,5.8 -53.9,6.1 -51.6,6.4 -49.9,6.5 -48.2,6.6 -46.3,6.9 -44.1,7.1 -42.1,7.3 -40.1,7.4 -38.4,7.6 -36.6,7.7 -34.4,7.9 -32.3,8.1 -30.4,8.2 -28.5,8.3 -26.1,8.3 -23.8,8.3 -21.4,8.3 -19.5,8.2 -17.6,8.1 -15.6,7.9 -13.3,7.7 -11.6,7.6 -9.5,7.3 -7.4,7 -5.4,6.7 -3.3,6.4 -1.1,6.1 0.6,5.7 2.7,5.3 4.4,4.9 6.4,4.5 8.6,3.9 10.7,3.4 12.7,2.9 14.6,2.4 16.5,1.8 18.6,1.1 20.4,0.6 22.1,0 24.1,-0.7 26,-1.4 28.1,-2.1 30.1,-2.9 31.8,-3.6 34,-4.6 36,-5.6 37.7,-6.4 39.4,-7.2 41.2,-8.1 43,-9 44.9,-9.9 46.5,-10.7 48.2,-11.6 50.2,-12.6 52.3,-13.9 54,-15 55.9,-16.3 57.6,-17.5 59.3,-18.6 60.9,-19.8 62.5,-20.9 64.2,-22.1 65.9,-23.4 67.4,-24.5 69.1,-25.9 70.9,-27.3 72.6,-28.6 74.1,-29.9 75.6,-31.1 77.2,-32.4 79,-33.9 80.5,-35 82.1,-36.3 83.7,-37.7 85.1,-39 86.8,-40.4 88.3,-41.7 89.6,-42.9 91.3,-44.3 92.9,-45.7 94.6,-47.1 96.3,-48.6 97.7,-49.9 99.3,-51.2 100.9,-52.6 102.4,-53.9 103.9,-55.1 105.5,-56.5 107.1,-57.8 108.7,-59.1 110.4,-60.6 112.1,-62 113.5,-63.2 115.1,-64.7 116.6,-66 118,-67.2 119.6,-68.6 121.1,-69.9 122.7,-71.4 124.5,-72.9 126.1,-74.4 127.8,-75.8 129.5,-77.2 131.1,-78.6 132.6,-79.9 134.1,-81.1 135.6,-82.4 136.9,-83.4 138.4,-84.6 140.1,-85.9 141.7,-87.3 143.4,-88.7 144.9,-90 146.3,-91.3 147.6,-92.5 149.1,-93.8 150.4,-94.9 151.5,-95.9 152.9,-97.1 154.3,-98.2 155.9,-99.6 157.6,-101 158.9,-102.2 160.2,-103.4 162,-104.9 163.4,-106.1 164.7,-107.3 166.1,-108.4 167.6,-109.7 169.1,-110.9 170.6,-112.1 171.6,-113.1 173.1,-114.4 174.6,-115.6 175.8,-116.6 177.1,-117.6 178.5,-118.8 180.1,-120.1 181.6,-121.4 182.8,-122.4 184.2,-123.6 185.6,-124.7 186.9,-125.9 188.1,-126.9 189.1,-127.9 190.4,-129 191.9,-130.1 193.1,-131.1 194.4,-132.3 195.5,-133.2 196.6,-134.1 198,-135.3 199.1,-136.1 200.1,-136.9 201.4,-137.9 202.6,-138.7 204.1,-139.8 205.6,-140.8 206.9,-141.6 208.1,-142.4 209.2,-143.1 210,-143.6 210.8,-144.1 211.2,-144.4 211.9,-144.6 212.5,-144.9 213.1,-145.2 214.1,-145.5 215,-145.8 215.9,-146 216.9,-146.3 217.6,-146.5 218.3,-146.6 219.1,-146.8 219.7,-146.9 220.4,-146.9 221.2,-147 222.1,-147 223,-147 224,-147 225,-147 226,-147 227,-147 228,-147 228.9,-147 229.8,-147 230.6,-147 231.3,-146.9 231.9,-146.9 232.5,-146.8 233.2,-146.6 233.9,-146.4 234.6,-146.2 235.4,-145.9 236.2,-145.6 237.1,-145.3 237.9,-144.9 238.6,-144.5 239.4,-144 240.2,-143.5 241,-142.9 241.7,-142.3 242.6,-141.4 243.5,-140.5 244.3,-139.6 244.9,-138.9 245.6,-138 246.1,-137.2 246.6,-136.6 246.9,-136.1 247.1,-135.7 247.5,-134.9 247.9,-134.1 248.4,-133.2 248.9,-132.3 249.4,-131.1 249.9,-130 250.4,-128.9 250.8,-128.1 251.1,-127.3 251.4,-126.6 251.8,-125.7 252.1,-124.9 252.3,-124.1 252.6,-123.1 253,-122.1 253.4,-120.9 253.9,-119.4 254.3,-118.3 254.7,-117.1 255.1,-116 255.5,-115.1 256,-113.7 256.4,-112.5 256.7,-111.5 257.1,-110.5 257.4,-109.5 257.8,-108.1 258.1,-106.8 258.5,-105.7 258.9,-104.6 259.2,-103.3 259.6,-101.9 260.1,-100.3 260.6,-99 261,-97.7 261.4,-96.4 261.9,-95 262.4,-93.7 262.8,-92.4 263.2,-91.3 263.6,-89.9 264.1,-88.4 264.6,-86.9 265.1,-85.4 265.5,-84 265.9,-82.7 266.5,-80.9 267,-79.5 267.5,-78 267.9,-76.9 268.2,-75.8 268.7,-74.3 269.2,-72.8 269.5,-71.7 269.9,-70.6 270.3,-69.4 270.7,-68.1 271.1,-66.9 271.5,-65.6 271.9,-64.3 272.3,-63.1 272.6,-61.9 273.1,-60.5 273.6,-58.9 274.1,-57.4 274.4,-56.2 274.9,-54.9 275.3,-53.4 275.9,-51.6 276.4,-50.1 276.9,-48.9 277.3,-47.7 277.8,-46.3 278.4,-44.9 279,-43.4 279.6,-42 280.4,-40.4 282.1,-37.9 284.2,-35.3 286.6,-32.8 289.1,-30.5 291.6,-28.4 294.4,-26.6 297.1,-25.1 299.7,-24.6 301.9,-24.3 304.3,-24.4 306.9,-24.9 309.7,-25.6 312,-26.6 314.3,-27.6 316,-28.9 317.7,-30.1 318.9,-31.3 319.6,-32.1 320,-32.6 320.5,-33.1 320.9,-33.6 321.3,-34.2 321.9,-35.1 322.5,-36.1 323.1,-37.1 323.8,-38.1 324.4,-39.3 325.1,-40.5 325.7,-41.6 326.1,-42.4 326.5,-43 326.9,-43.9 327.3,-44.9 327.9,-45.9 328.4,-47 328.9,-48.1 329.4,-49.4 329.9,-50.6 330.4,-51.6 330.9,-52.7 331.2,-53.6 331.6,-54.6 331.9,-55.4 332.4,-56.3 332.9,-57.4 333.3,-58.6 333.7,-59.6 334.1,-60.6 334.6,-61.6 335.1,-62.8 335.4,-63.9 335.8,-64.7 336.1,-65.6 336.6,-66.9 337.1,-68.3 337.6,-69.5 337.9,-70.5 338.4,-71.7 338.8,-73 339.3,-74.5 339.6,-75.5 340,-76.5 340.4,-77.7 340.9,-79 341.3,-80.3 341.7,-81.5 342.2,-83 342.6,-84.5 343.2,-86.2 343.6,-87.8 344.2,-89.7 344.7,-91.4 345.1,-93.1 345.6,-94.7 346,-96.3 346.3,-97.6 346.7,-99.2 347,-100.4 347.4,-101.9 347.8,-103.5 348.1,-104.8 348.4,-106.1 348.8,-107.8 349.1,-109.2 349.4,-110.7 349.7,-112.1 350,-113.6 350.3,-115 350.7,-116.8 351,-118.2 351.3,-119.6 351.6,-121.1 351.9,-122.6 352.1,-124.1 352.4,-125.6 352.6,-126.9 352.9,-128.4 353.1,-130 353.4,-131.6 353.6,-132.9 353.8,-134.6 354.1,-136.4 354.4,-138.3 354.5,-139.8 354.6,-141.2 354.8,-142.6 355,-144.4 355.2,-145.8 355.4,-147.4 355.5,-148.8 355.6,-150.3 355.8,-151.8 356,-153.6 356.2,-155.1 356.4,-156.8 356.5,-158.4 356.6,-160.1 356.8,-161.9 356.9,-163.8 357,-165.4 357,-167.1 357,-168.6 357,-170 357,-171.5 357,-173 357,-174.6 357,-176.1 357,-177.6 357,-179.2 357,-180.9 356.9,-182.5 356.9,-183.9 356.8,-185.3 356.7,-186.8 356.6,-188.5 356.4,-190.1 356.1,-191.5 356,-192.9 355.7,-194.7 355.4,-196.6 355,-198.3 354.6,-199.6 354.3,-201.3 353.9,-202.9 353.4,-204.4 352.8,-206.1 352.1,-207.6 351.5,-209.1 350.9,-210.6 350.1,-211.9 349.5,-213.1 348.6,-214.6 347.8,-215.8 346.9,-216.9 346,-218.1 345,-219.3 344,-220.4 342.9,-221.6 341.5,-222.9 340.4,-223.9 339.4,-224.9 338.3,-225.9 337.2,-226.9 336.1,-227.9 334.8,-229.1 333.8,-229.9 332.8,-230.8 331.7,-231.7 330.6,-232.7 329.2,-233.9 327.9,-234.9 326.9,-235.8 326,-236.6 324.9,-237.7 323.6,-238.9 322.5,-239.9 321.3,-241 320.1,-242.1 318.9,-243.1 317.6,-244.3 316.2,-245.6 314.9,-246.7 313.5,-247.9 312.5,-248.8 311.4,-249.9 310.1,-251 308.6,-252.4 307.4,-253.4 306.1,-254.5 304.8,-255.6 303.4,-256.8 301.9,-258.1 300.4,-259.4 299.3,-260.4 297.8,-261.6 296.5,-262.8 295.2,-263.9 293.7,-265.3 292.6,-266.3 291.2,-267.5 289.4,-269 288,-270.4 286.3,-271.8 284.6,-273.2 283.1,-274.5 281.4,-276 279.9,-277.3 278.6,-278.4 277,-279.8 275.6,-281.1 274.1,-282.4 272.4,-283.9 270.7,-285.2 269.1,-286.6 267.4,-288.1 265.9,-289.4 264.1,-290.8 262.4,-292.3 260.8,-293.6 258.9,-295.4 256.9,-297.1 255.1,-298.6 253.3,-300.1 251.4,-301.8 249.4,-303.6 247.3,-305.5 245.4,-307.1 243.2,-309.1 241,-311.1 238.5,-313.2 236.3,-315.1 234.1,-317 231.9,-318.9 229.5,-320.9 227.5,-322.5 225.4,-324.4 223.4,-326.1 221.1,-328.1 219.1,-329.9 216.8,-331.7 214.8,-333.4 212.6,-335.3 210.3,-337.3 208.1,-339.1 206,-340.9 204,-342.6 201.8,-344.6 199.6,-346.6 197.5,-348.4 195.4,-350.1 193.1,-352.1 191.1,-353.9 188.8,-355.9 186.6,-357.6 184.5,-359.4 182,-361.6 179.9,-363.4 177.7,-365.3 175.2,-367.4 172.9,-369.4 170.6,-371.4 168.2,-373.4 166.3,-375 163.9,-377.1 161.6,-379.1 159.4,-381.1 157.1,-383 154.7,-385 152.4,-386.9 150.1,-388.9 147.6,-390.9 145.4,-392.8 142.9,-394.8 140.5,-396.8 138.4,-398.6 136,-400.7 133.4,-402.9 131.1,-404.9 128.7,-406.9 126.6,-408.7 124.3,-410.7 122,-412.7 119.5,-414.8 117,-416.9 114.7,-418.8 112.6,-420.6 110.1,-422.7 107.9,-424.6 105.4,-426.7 103.4,-428.5 101.3,-430.4 98.8,-432.5 96.4,-434.6 94.1,-436.6 91.6,-438.7 89.4,-440.7 87.1,-442.7 84.6,-444.8 82.5,-446.6 80.4,-448.5 78.1,-450.5 75.6,-452.6 73.4,-454.5 70.9,-456.7 68.6,-458.6 66.4,-460.6 64,-462.6 61.8,-464.5 59.9,-466.2 57.6,-468.2 55.4,-470.1 53.2,-472.1 50.7,-474.3 48.4,-476.2 46.3,-478.1 43.9,-480.1 41.7,-482.1 39.8,-483.8 37.5,-485.8 35.5,-487.5 33.4,-489.4 30.9,-491.6 28.8,-493.4 26.8,-495.2 24.4,-497.3 22.3,-499.1 20.1,-501 17.6,-503.1 15.6,-504.9 13.5,-506.6 11.4,-508.4 9.3,-510.1 7.3,-511.9 5.3,-513.6 3.5,-515.2 1.4,-517 -0.7,-518.9 -2.9,-520.7 -4.8,-522.4 -6.9,-524.2 -9.1,-526 -11.1,-527.6 -12.9,-529.2 -14.9,-530.9 -17,-532.6 -19,-534.4 -21.1,-536.1 -23.1,-537.6 -25.1,-539.4 -27.2,-541.2 -29.1,-542.9 -30.9,-544.4 -32.7,-545.9 -34.5,-547.6 -36.4,-549.2 -38.2,-550.9 -40.3,-552.6 -42.4,-554.3 -44.6,-556.1 -46.6,-557.8 -48.4,-559.2 -50.2,-560.8 -52.1,-562.4 -53.9,-563.9 -55.7,-565.4" style="stroke: rgb(239, 68, 68); stroke-width: 7;"></polyline><polyline vector-effect="non-scaling-stroke" fill="none" points="-57.4,-566.9 -59.2,-568.4 -61.3,-570.1 -63.2,-571.7 -65.1,-573.2 -67,-574.8 -68.9,-576.4 -70.6,-577.9 -72.3,-579.4 -73.9,-580.7 -75.4,-582.1 -77.1,-583.4 -78.4,-584.6 -80,-585.9 -81.5,-587.2 -83.1,-588.5 -84.8,-589.9 -86.6,-591.4 -87.9,-592.6 -89.3,-593.7 -90.8,-595 -92.4,-596.3 -93.7,-597.4 -94.9,-598.3 -96.1,-599.4 -97.3,-600.4 -98.9,-601.7 -100.2,-602.8 -101.4,-603.9 -102.8,-605.1 -104.1,-606.1 -105.3,-607.1 -106.8,-608.4 -107.9,-609.2 -109,-610.1 -110.6,-611.4 -112.1,-612.6 -113.4,-613.7 -115.1,-615.1 -116.6,-616.3 -118.5,-617.9 -120.4,-619.5 -121.7,-620.6 -123.1,-621.8 -124.6,-623 -125.9,-624.1 -127.4,-625.5 -128.5,-626.4 -129.5,-627.2 -130.5,-628.1 -131.5,-629 -132.7,-630 -133.7,-630.7 -134.4,-631.2 -135,-631.8 -135.7,-632.3 -136.7,-633 -137.7,-633.7 -138.4,-634.2 -139,-634.7 -140.1,-635.4 -141.1,-636.1 -142.2,-636.9 -142.9,-637.4 -143.6,-637.9 -144.4,-638.4 -145.2,-638.9 -145.9,-639.4 -146.8,-639.9 -147.9,-640.6 -149,-641.2 -150.3,-642 -151.6,-642.7 -153,-643.6 -154.4,-644.2 -155.6,-644.8 -156.5,-645.2 -157.5,-645.6 -158.5,-646 -159.7,-646.5 -160.8,-646.9 -161.6,-647.1 -162.8,-647.6 -164,-647.9 -165.7,-648.4 -167.4,-648.8 -169.4,-649.1 -171.6,-649.6 -173.7,-650 -175.6,-650.3 -177.4,-650.6 -178.7,-650.8 -179.9,-650.9 -180.9,-651.1 -181.9,-651.1 -183,-651.2 -184.1,-651.3 -185.3,-651.4 -186.9,-651.4 -188.6,-651.4 -189.7,-651.2 -190.9,-651.1 -191.9,-650.9 -193.1,-650.8 -194.3,-650.6 -195.4,-650.5 -196.6,-650.3 -197.9,-650.1 -199.4,-649.9 -200.9,-649.7 -202.2,-649.4 -203.5,-649.1 -204.6,-648.9 -205.9,-648.6 -207.2,-648.2 -208.2,-647.9 -209.4,-647.5 -210.6,-647.1 -211.9,-646.8 -213,-646.4 -214.1,-645.9 -216,-645.1 -218.4,-644 -220.6,-642.9 -223.1,-641.4 -225.6,-639.9 -228.1,-638.4 -230.4,-636.8 -231.9,-635.6 -233,-634.6 -234.3,-633.3 -235.2,-632.2 -236.1,-631.1 -237,-630.1 -237.7,-629.1 -238.5,-628.1 -239.3,-626.9 -239.9,-626 -240.5,-624.8 -241.1,-623.6 -241.6,-622.5 -242.1,-621.4 -242.7,-619.9 -243.3,-618.2 -243.7,-616.6 -244.1,-615.4 -244.5,-613.7 -244.9,-612 -245.3,-610.3 -245.6,-608.6 -245.7,-607.5 -245.9,-606.4 -246,-605.2 -246,-604.4 -246.1,-603.1 -246.3,-601.9 -246.4,-600.6 -246.6,-599.4 -246.7,-598 -246.9,-596.4 -247,-594.8 -247,-593.6 -247,-592.5 -247,-591.1 -247,-589.9 -247.1,-588.1 -247.1,-586.6 -247.2,-585.1 -247.3,-583.5 -247.4,-581.4 -247.4,-579.6 -247.5,-577.6 -247.5,-576.1 -247.5,-574.6 -247.6,-572.7 -247.6,-570.9 -247.7,-569.3 -247.8,-567.8 -247.9,-566.4 -247.9,-564.9 -248,-563.6 -248,-562.5 -248.1,-561.1 -248.2,-559.8 -248.4,-558.5 -248.5,-557.1 -248.6,-555.6 -248.8,-554.3 -248.9,-552.9 -249,-551.9 -249.1,-550.6 -249.3,-549.1 -249.4,-547.9 -249.6,-546.7 -249.9,-545.1 -250.1,-543.5 -250.4,-541.9 -250.6,-540.7 -250.9,-539.5 -251.2,-538.3 -251.6,-536.8 -251.9,-535.7 -252.3,-534.6 -252.7,-533.4 -253.3,-531.8 -253.8,-530.4 -254.4,-528.9 -254.9,-527.7 -255.6,-526.3 -256.4,-524.5 -257.3,-522.9 -258,-521.7 -258.8,-520.5 -259.6,-519.1 -260.6,-517.8 -261.4,-516.6 -262.1,-515.9 -262.7,-515 -263.5,-514.1 -264.3,-513.1 -265.2,-512.2 -266.1,-511.3 -267,-510.4 -268.3,-509.2 -269.5,-508.1 -270.6,-507.1 -272,-506.1 -273.1,-505.3 -274.2,-504.5 -275.3,-503.8 -276,-503.3 -277.1,-502.7 -278.2,-502.1 -279.1,-501.6 -280.2,-501.1 -281.4,-500.7 -282.5,-500.2 -283.9,-499.7 -284.9,-499.3 -285.9,-498.9 -286.9,-498.6 -287.7,-498.4 -288.9,-498 -290.1,-497.7 -291.1,-497.5 -292.2,-497.4 -293.4,-497.1 -294.6,-496.9 -295.9,-496.8 -297,-496.7 -298.1,-496.6 -299.3,-496.6 -300.6,-496.5 -301.9,-496.5 -303.4,-496.5 -304.7,-496.5 -306,-496.6 -307.4,-496.6 -308.9,-496.7 -310.5,-496.9 -312.3,-497.2 -314.1,-497.6 -315.9,-497.9 -317.6,-498.3 -319.3,-498.7 -321.2,-499.3 -322.6,-499.7 -323.9,-500.1 -325,-500.6 -326.1,-501.1 -327.1,-501.6 -328.4,-502.1 -329.3,-502.6 -330.1,-503.2 -331.3,-503.9 -332.3,-504.6 -333.3,-505.2 -334.3,-505.9 -335.1,-506.5 -335.9,-507.1 -336.9,-507.9 -337.6,-508.4 -338.4,-509.1 -339.1,-509.9 -340.1,-510.8 -340.9,-511.6 -341.9,-512.6 -342.6,-513.4 -343.6,-514.7 -344.6,-515.9 -345.6,-517.3 -346.6,-518.6 -347.4,-519.8 -348.2,-520.9 -349,-522.2 -349.6,-523.1 -350.1,-524.1 -350.6,-525 -351.1,-526.1 -351.6,-527.1 -352.1,-528.4 -352.7,-529.7 -353.3,-530.9 -353.8,-532.2 -354.3,-533.3 -354.6,-534.2 -355.1,-535.6 -355.4,-536.7 -355.6,-537.7 -355.9,-538.7 -356.1,-539.8 -356.2,-540.9 -356.4,-542.1 -356.4,-543.1 -356.5,-544.1 -356.5,-545.2 -356.5,-546.4 -356.5,-547.7 -356.5,-549.1 -356.5,-550.5 -356.5,-551.8 -356.5,-553.1 -356.4,-554.4 -356.4,-555.6 -356.3,-556.6 -356.1,-557.9 -355.9,-559 -355.7,-560 -355.5,-560.9 -355.2,-562 -354.9,-563.1 -354.6,-564.5 -354.2,-565.5 -353.9,-566.8 -353.4,-568.1 -353,-569.4 -352.6,-570.4 -352.1,-571.9 -351.6,-573.1 -351.2,-574.3 -350.8,-575.2 -350.2,-576.6 -349.6,-577.9 -349.1,-579.3 -348.6,-580.4 -348.1,-581.5 -347.5,-582.6 -346.9,-584.1 -346.4,-585.1 -345.8,-586.4 -345.1,-587.8 -344.5,-589.1 -343.9,-590.4 -343.3,-591.9 -342.7,-593.2 -342.1,-594.5 -341.6,-595.6 -341,-596.9 -340.4,-598.1 -339.6,-599.6 -339,-601.1 -338.3,-602.6 -337.6,-604.1 -336.9,-605.6 -336.2,-607.2 -335.5,-608.8 -334.9,-610.1 -334.2,-611.8 -333.6,-613.1 -332.9,-614.6 -332.3,-615.9 -331.6,-617.5 -330.9,-619 -330.2,-620.4 -329.6,-621.6 -328.9,-623.2 -328.1,-624.9 -327.2,-626.6 -326.5,-628.1 -325.8,-629.8 -324.9,-631.5 -324.1,-633.2 -323.4,-634.9 -322.6,-636.6 -321.9,-638.4 -321.2,-639.9 -320.5,-641.4 -319.8,-643.1 -318.9,-645.1 -318.1,-646.7 -317.4,-648.2 -316.7,-649.9 -315.9,-651.6 -315,-653.4 -314.1,-655.3 -313.5,-656.8 -312.8,-658.4 -311.9,-660.2 -311.1,-661.8 -310.4,-663.4 -309.6,-665.1 -308.7,-666.9 -307.9,-668.8 -307.1,-670.5 -306.4,-672 -305.5,-673.9 -304.6,-675.8 -303.8,-677.6 -303.1,-679 -302.4,-680.6 -301.4,-682.6 -300.3,-684.8 -299.3,-686.7 -298.3,-688.7 -297.3,-690.7 -296.2,-692.8 -295.2,-694.6 -294.4,-696 -293.4,-697.6 -292.4,-699.4 -291.5,-700.9 -290.6,-702.2 -289.6,-703.8 -288.4,-705.6 -287.3,-707.4 -286.2,-709.1 -285.2,-710.6 -284.2,-712.1 -282.9,-714 -281.9,-715.6 -280.8,-717.1 -279.5,-718.8 -278.4,-720.1 -277.3,-721.6 -275.9,-723.5 -274.7,-725 -273.4,-726.7 -272.1,-728.4 -271.1,-729.7 -269.9,-731.3 -268.8,-732.7 -267.6,-734.1 -266.3,-735.6 -265.1,-737.1 -263.9,-738.4 -262.4,-739.9 -261.2,-741.3 -259.7,-742.9 -258.5,-744.3 -257.4,-745.6 -256.2,-746.7 -254.9,-748.1 -253.5,-749.6 -252.1,-751 -250.8,-752.3 -249.3,-753.8 -247.9,-755.1 -246.4,-756.6 -245,-758 -243.6,-759.3 -242.1,-760.7 -240.5,-762.1 -239.1,-763.4 -237.6,-764.7 -236.1,-765.9 -234.4,-767.4 -233,-768.6 -231.6,-769.7 -230.1,-770.9 -228.6,-772.1 -227.3,-773.2 -225.5,-774.6 -223.9,-775.7 -222.4,-776.9 -220.6,-778.1 -219.1,-779.2 -217.5,-780.3 -215.5,-781.6 -213.9,-782.7 -212.4,-783.8 -210.6,-784.9 -208.8,-786.1 -207.1,-787.2 -205.2,-788.4 -203.6,-789.3 -202,-790.2 -200.2,-791.2 -198.2,-792.4 -196.6,-793.4 -194.8,-794.4 -193,-795.5 -191,-796.6 -189.1,-797.6 -187.3,-798.6 -185.6,-799.4 -183.6,-800.4 -182,-801.1 -179.9,-802.1 -178.3,-802.8 -176.4,-803.6 -174.6,-804.4 -172.7,-805.2 -171.1,-805.9 -169.1,-806.6 -167.1,-807.3 -165,-808 -163.1,-808.6 -161.3,-809.3 -159.1,-809.9 -156.9,-810.6 -155.1,-811.2 -153.6,-811.6 -151.8,-812.1 -149.9,-812.5 -147.7,-813 -146,-813.4 -143.9,-813.8 -141.8,-814.2 -139.6,-814.6 -137.6,-815 -135.5,-815.4 -133.4,-815.8 -131.3,-816.1 -129.5,-816.4 -127.2,-816.8 -124.9,-817.1 -122.6,-817.6 -120.1,-817.9 -118.2,-818.2 -115.6,-818.6 -113,-818.9 -110.9,-819.2 -108.4,-819.6 -106.4,-819.8 -104.2,-820.1 -101.6,-820.4 -99.7,-820.7 -97.6,-820.9 -95,-821.3 -92.9,-821.6 -90.7,-821.9 -88.4,-822.1 -86.3,-822.4 -84.3,-822.7 -81.9,-823.1 -79.8,-823.4 -77.7,-823.6 -75.2,-824 -73.1,-824.4 -70.7,-824.6 -68,-825 -65.9,-825.4 -63.6,-825.6 -61,-826 -58.7,-826.3 -56.4,-826.6 -54.1,-826.9 -51.8,-827.1 -49.4,-827.4 -47,-827.7 -44.8,-827.9 -42.3,-828.3 -39.5,-828.6 -36.9,-829 -34.7,-829.3 -32.2,-829.6 -29.5,-829.9 -27,-830.3 -24.6,-830.6 -22.1,-830.9 -19.6,-831.1 -16.9,-831.5 -14.1,-831.9 -11.7,-832.1 -8.9,-832.6 -6.2,-832.9 -3.9,-833.2 -1.4,-833.6 1.4,-833.9 3.8,-834.2 6.4,-834.6 8.9,-834.9 11.4,-835.1 14.2,-835.5 17.1,-835.9 19.6,-836.1 22.5,-836.5 25.4,-836.9 27.8,-837.1 30.4,-837.4 32.9,-837.7 35.5,-838 38.1,-838.3 40.4,-838.6 43.2,-838.9 46,-839.1 49.2,-839.6 52.3,-839.9 54.9,-840.2 57.8,-840.6 60.9,-840.9 63.4,-841.2 66.4,-841.6 69.1,-841.9 71.7,-842.1 74.6,-842.5 77.9,-842.9 80.6,-843.1 83.6,-843.5 86.8,-843.9 89.5,-844.1 92.6,-844.5 95.7,-844.9 98.4,-845.1 101.4,-845.4 104.6,-845.8 107.4,-846.1 110.4,-846.4 113.6,-846.7 116.4,-847 119.4,-847.3 122.6,-847.7 125.4,-848 128.4,-848.3 131.4,-848.7 134.1,-849 136.9,-849.3 140,-849.7 142.6,-850 145.5,-850.3 148.6,-850.7 151.4,-851 154.4,-851.3 157.6,-851.7 160.4,-852 163.3,-852.3 166.4,-852.7 169.1,-853 171.9,-853.3 175.1,-853.6 177.8,-853.9 180.6,-854.2 183.4,-854.5 186.1,-854.8 189.3,-855.1 192.9,-855.5 195.8,-855.9 198.9,-856.1 201.9,-856.4 205.1,-856.9 208.1,-857.1 210.6,-857.4 213.1,-857.6 215.8,-857.9 218.4,-858.2 220.9,-858.5 223.2,-858.6 225.9,-858.9 228.6,-859.2 230.4,-859.4 232.5,-859.6 234.6,-859.8 237.2,-860.1 239.6,-860.4 241.4,-860.5 243.4,-860.6 245.6,-860.9 247.6,-861.1 249.6,-861.2 251.3,-861.3 253.3,-861.4 255.3,-861.6 257.1,-861.7 258.6,-861.8 260.2,-861.9 261.9,-862.1 263.2,-862.2 264.4,-862.3 265.8,-862.4 267.2,-862.4 268.6,-862.5 270.3,-862.5 271.6,-862.5 273.1,-862.5 274.5,-862.5 275.7,-862.5 277.4,-862.4 279.1,-862.4 280.8,-862.2 282.6,-862.1 284.4,-861.9 286.4,-861.7 288.5,-861.4 289.9,-861.2 291.6,-860.9 293.1,-860.7 294.6,-860.5 296.1,-860.1 297.3,-859.9 298.5,-859.6 299.7,-859.3 300.6,-859.1 301.9,-858.6 303.2,-858.2 304.2,-857.9 305.3,-857.5 306.6,-857 307.9,-856.4 309.1,-855.9 310.2,-855.4 311.4,-854.7 312.6,-854.1 313.9,-853.4 315.1,-852.8 316.4,-852.2 317.6,-851.6 318.6,-851 319.8,-850.4 321.1,-849.6 322.2,-848.9 323.1,-848.4 324.3,-847.6 325.5,-846.8 326.6,-846 327.8,-845.1 328.9,-844.4 329.9,-843.5 331,-842.7 332.1,-841.9 333.2,-840.9 334.4,-839.9 335.4,-839 336.6,-837.9 337.9,-836.9 339.1,-835.7 340.1,-834.8 341.2,-833.7 342.4,-832.6 343.4,-831.5 344.2,-830.6 345.2,-829.4 346.3,-828.1 347.4,-826.8 348.3,-825.6 349.3,-824.4 350.3,-823.1 351.4,-821.5 352.2,-820.4 353,-819.1 353.8,-817.8 354.7,-816.4 355.5,-815.1 356.4,-813.6 357,-812.4 357.7,-811.1 358.5,-809.6 359.2,-808.2 359.9,-806.8 360.5,-805.4 361.1,-804.1 361.7,-802.7 362.5,-800.9 363.1,-799.4 363.8,-797.9 364.3,-796.6 364.9,-794.8 365.6,-793.1 366.1,-791.5 366.7,-789.9 367.3,-788.3 367.9,-786.7 368.5,-785.1 369.1,-783.4 369.6,-781.9 370.3,-780.2 370.7,-779 371.4,-777.3 371.9,-775.6 372.5,-773.9 373.1,-772.2 373.8,-770.4 374.4,-768.7 375.1,-766.5 375.9,-764.6 376.6,-762.7 377.3,-760.9 377.8,-759.4 378.4,-757.5 379.1,-755.6 379.6,-754.1 380.1,-752.4 380.9,-750.4 381.5,-748.4 382.2,-746.4 382.9,-744.3 383.6,-742.2 384.4,-740.1 385.1,-737.9 385.6,-736 386.3,-733.9 387.1,-731.4 387.6,-729.5 388.2,-727.5 388.9,-725.6 389.4,-723.6 390.1,-721.5 390.7,-719.3 391.2,-717.5 391.7,-715.8 392.4,-713.5 393,-711.2 393.6,-709.3 394.1,-707.6 394.6,-705.8 395.1,-703.9 395.7,-701.4 396.2,-699.4 396.6,-697.5 397.1,-695.6 397.7,-693.3 398.3,-691.1 398.9,-688.9 399.3,-687.2 399.8,-685.1 400.3,-683.1 400.9,-680.4 401.4,-678.1 401.9,-676.1 402.4,-673.8 403,-671.4 403.5,-669.1 404.1,-666.6 404.5,-664.4 405,-662.1 405.5,-659.5 406.1,-657 406.6,-654.4 407.1,-652.2 407.6,-649.7 408.1,-647.5 408.6,-644.9 409.1,-642.7 409.5,-640.4 410,-638.2 410.5,-635.5 410.9,-633.2 411.4,-630.6 411.9,-628.3 412.4,-625.6 412.8,-623.3 413.3,-620.4 413.7,-617.9 414.3,-615 414.7,-612.5 415.2,-609.9 415.6,-607.6 416,-604.9 416.4,-602.4 416.9,-599.8 417.1,-597.7 417.6,-594.9 417.9,-592.2 418.4,-589.5 418.8,-586.9 419.1,-584.4 419.4,-581.8 419.7,-579 420,-576.4 420.3,-573.9 420.6,-571.2 420.9,-568.4 421.1,-565.6 421.6,-562.2 421.9,-558.9 422.2,-555.9 422.5,-552.6 422.9,-549.1 423.1,-546.1 423.4,-542.9 423.6,-540.4 423.8,-537.2 424.1,-534.2 424.4,-531.6 424.5,-529.1 424.6,-526.3 424.8,-523.6 425.1,-520.6 425.3,-518.1 425.4,-515.5 425.6,-512.6 425.7,-509.8 426,-506.8 426.3,-503.7 426.4,-501.1 426.6,-498.2 426.7,-495.4 426.9,-492.6 427.1,-489.6 427.3,-487.1 427.4,-484.6 427.6,-481.8 427.8,-478.8 428.1,-475.9 428.4,-473 428.5,-470.4 428.7,-467.3 428.9,-464.3 429.2,-461.5 429.4,-458.9 429.6,-456.1 429.8,-453.1 430,-450.2 430.2,-447.9 430.4,-445.1 430.6,-442.5 430.7,-439.8 430.9,-437 431.1,-434.7 431.4,-432.2 431.5,-429.5 431.6,-427.1 431.9,-424.1 432.1,-421.5 432.3,-419.2 432.4,-416.6 432.6,-414 432.8,-411.1 433,-408.5 433.2,-406.4 433.4,-404.1 433.6,-401.7 433.7,-399.4 433.9,-397.4 434.1,-395.4 434.3,-393.4 434.4,-391.5 434.6,-389.4 434.8,-387.2 435.1,-385.1 435.4,-383 435.5,-381.3 435.7,-379.1 436,-376.9 436.3,-375.1 436.5,-373.6 436.6,-372 436.9,-370.1 437.2,-368.2 437.4,-366.9 437.7,-365.1 438,-363.3 438.3,-361.5 438.7,-359.6 439,-358.1 439.4,-356.7 439.8,-355 440.1,-353.7 440.5,-352.2 441,-350.6 441.4,-349.2 441.9,-347.9 442.4,-346.3 442.9,-344.8 443.4,-343.3 443.9,-342 444.4,-340.7 445,-339.2 445.6,-337.7 446.1,-336.3 446.8,-334.8 447.4,-333.2 448.1,-331.6 448.6,-330.3 449.4,-328.6 450.1,-327 450.9,-325.6 451.4,-324.3 452.1,-322.9 452.9,-321.1 453.8,-319.4 454.5,-318 455.2,-316.5 455.9,-315.1 456.8,-313.5 457.5,-312.1 458.2,-310.9 459.1,-309.4 459.9,-307.9 460.8,-306.4 461.7,-304.7 462.7,-303.1 463.8,-301.4 464.6,-300.1 465.6,-298.7 466.5,-297.3 467.4,-296.1 468.1,-294.9 469,-293.6 469.9,-292.2 470.9,-290.6 471.7,-289.3 472.7,-287.8 473.6,-286.3 474.8,-284.6 475.6,-283.3 476.5,-281.9 477.3,-280.6 478.1,-279.2 478.7,-277.9 479.4,-276.7 479.8,-275.7 480.4,-274.4 480.9,-272.8 481.4,-271.4 481.9,-269.9 482.4,-268.5 482.9,-266.8 483.4,-265.1 483.9,-263.7 484.2,-262.6 484.5,-261.4 484.7,-260.3 485,-258.7 485.2,-257.4 485.4,-256 485.6,-254.6 485.7,-253.1 485.9,-251.6 486,-250.1 486,-248.9 486,-247.6 486,-246.3 486,-244.9 486,-243.7 485.9,-242.2 485.7,-240.7 485.6,-239.3 485.4,-238.1 485.1,-236.6 484.9,-235 484.6,-233.5 484.3,-232.1 484,-230.9 483.7,-229.6 483.3,-228 483,-226.6 482.6,-225.4 482.2,-223.9 481.8,-222.4 481.4,-220.9 480.8,-219.2 480.4,-217.9 479.8,-216.4 479.2,-214.8 478.6,-213.2 478.1,-211.8 477.6,-210.2 477.1,-208.8 476.6,-207.4 476,-205.7 475.5,-204.1 475,-202.6 474.5,-201.2 473.9,-199.7 473.3,-198 472.6,-196.3 472.1,-194.8 471.5,-193.4 470.9,-191.9 470.4,-190.3 469.8,-188.6 469.2,-187 468.6,-185.4 468.1,-184 467.6,-182.5 467,-180.6 466.4,-178.9 465.9,-177.3 465.3,-175.6 464.7,-174 464.1,-172.4 463.4,-170.3 462.9,-168.6 462.3,-166.9 461.8,-165.3 461.4,-163.9 460.9,-162.1 460.4,-160.4 460,-159.2 459.6,-157.6 459.1,-155.9 458.6,-154.2 458.1,-152.6 457.6,-151.1 457.1,-149.1 456.6,-147.1 456.2,-145.4 455.9,-143.9 455.5,-142.1 455.1,-140.2 454.8,-138.6 454.5,-137 454.1,-135.2 453.9,-133.5 453.6,-131.8 453.4,-130.4 453.1,-128.4 452.9,-126.6 452.6,-125 452.5,-123.3 452.4,-121.6 452.2,-119.9 452.1,-118.3 451.9,-116.8 451.9,-114.7 451.9,-112.8 451.9,-111.1 451.9,-109.5 451.9,-107.6 452,-105.9 452.1,-104.3 452.2,-103.1 452.4,-101.5 452.6,-99.9 452.9,-97.9 453.1,-96.1 453.4,-94.4 453.8,-92.4 454.1,-90.6 454.6,-89 455,-87.3 455.4,-85.8 456.1,-83.9 456.6,-82.1 457.2,-80.6 457.9,-79 458.4,-77.6 459.1,-75.9 459.8,-74.4 460.4,-73 461,-71.6 461.9,-69.8 462.9,-68 463.8,-66.4 464.5,-65.2 465.4,-63.7 466.3,-62.4 467.1,-61.1 467.8,-60.2 468.7,-58.9 469.7,-57.4 470.9,-55.9 471.9,-54.7 472.9,-53.4 474.1,-51.9 475.3,-50.4 476.3,-49.2 477.3,-48 478.3,-46.9 479.4,-45.6 480.4,-44.4 481.3,-43.4 482.3,-42.3 483.3,-41.1 484.3,-40 485.3,-38.8 486.2,-37.7 487.1,-36.6 488.1,-35.3 489.1,-34 490.1,-32.8 491.1,-31.5 492.1,-30.3 493.1,-29 494.1,-27.8 495.1,-26.5 495.9,-25.6 496.9,-24.4 497.6,-23.2 498.4,-22.1 499.1,-20.9 499.9,-19.6 500.7,-18.2 501.5,-16.7 502,-15.6 502.6,-14.4 503.3,-12.9 503.9,-11.6 504.4,-10.2 504.9,-9.1 505.2,-8.1 505.7,-6.8 506.2,-5.2 506.6,-4 506.9,-2.8 507.3,-1.3 507.7,0.3 508.1,1.9 508.4,3.1 508.6,4.4 508.9,5.9 509.1,7.5 509.2,8.8 509.4,10.2 509.5,11.7 509.6,13.3 509.8,14.9 509.9,16.1 509.9,17.4 510,18.7 509.9,20.1 509.7,21.6 509.6,23.2 509.4,24.6 509.3,26 509.1,27.4 508.9,29 508.7,30.3 508.5,31.9 508.2,33.2 507.9,34.6 507.6,36 507.2,37.6 506.9,38.9 506.4,40.4 506,41.6 505.6,42.7 505.1,44.1 504.5,45.6 504,46.8 503.5,48 502.8,49.4 502.1,50.8 501.4,52.3 500.7,53.5 500,54.7 499.3,55.9 498.4,57.4 497.6,58.4 496.9,59.5 495.7,61 494.6,62.4 493.4,63.9 492.1,65.5 491,66.7 489.9,68 488.4,69.5 487.4,70.4 486.3,71.4 485.1,72.6 483.9,73.6 482.7,74.6 481.4,75.8 480.4,76.7 479.5,77.6 478.2,78.6 477.1,79.4 476,80.2 474.8,81.1 473.7,81.8 472.3,82.7 470.8,83.7 469.6,84.4 468.2,85.4 466.9,86.2 465.4,87.2 464,88.1 462.6,89 461.4,89.9 459.8,90.9 458.5,91.8 456.9,92.9 455.6,93.7 454.2,94.6 452.9,95.5 451.6,96.4 450.3,97.3 448.9,98.1 447.6,99 446.4,99.9 445,100.7 443.7,101.5 442.2,102.4 440.6,103.4 439.1,104.3 437.9,105.1 436.6,105.9 434.9,106.9 433.4,107.9 431.9,108.7 430.6,109.5 429.4,110.3 427.9,111.1 426.2,112.1 424.9,112.9 423.7,113.7 422.3,114.6 420.9,115.6 419.1,116.8 417.4,117.9 416.1,118.9 414.6,119.8 413.2,120.8 412.1,121.6 410.4,122.9 409.2,123.8 407.9,124.7 406.6,125.7 405.2,126.9 403.5,128.2 402,129.5 400.7,130.6 399.4,131.8 398.2,132.9 396.7,134.4 395.5,135.6 394.3,136.9 393,138.1 391.7,139.6 390.4,141 389,142.7 387.8,144.1 386.5,145.6 385.1,147.4 383.8,149.1 382.7,150.6 381.5,152.2 380.5,153.6 379.4,155.2 378.3,156.9 377.4,158.4 376.5,160 375.6,161.6 374.7,163.1 373.7,164.9 372.8,166.6 371.9,168.4 370.9,170.1 370,171.8 369.1,173.5 368.3,175.2 367.4,177 366.6,178.6 365.7,180.3 364.9,182 364.1,183.5 363.1,185.4 362.3,187 361.4,188.6 360.6,190.4 359.7,192 358.9,193.5 358.1,195 357.2,196.7 356.3,198.4 355.4,200.1 354.6,201.6 353.7,203.3 352.8,205 351.7,206.9 351,208.3 350.1,210.1" style="stroke: rgb(59, 130, 246); stroke-width: 7;"></polyline><polyline vector-effect="non-scaling-stroke" fill="none" points="349.1,211.9 348.3,213.6 347.4,215.4 346.6,217.1 345.9,218.7 345.1,220.4 344.2,222 343.4,223.6 342.4,225.3 341.4,227.1 340.4,229.1 339.6,230.8 338.6,232.7 337.9,234.4 337.1,236.1 336.2,237.8 335.4,239.3 334.6,240.9 333.5,242.9 332.5,244.9 331.6,246.6 330.6,248.4 329.7,250.3 328.9,252 328.1,253.8 327.3,255.3 326.4,257.1 325.4,259.1 324.6,260.8 323.6,262.5 322.6,264.6 321.6,266.6 320.8,268.4 319.9,270.1 318.9,271.9 318,273.9 316.9,276.1 316.1,277.8 315.1,279.7 314.1,281.6 313.4,283.2 312.4,285.1 311.4,287.1 310.6,288.9 309.6,290.8 308.9,292.5 307.8,294.4 306.7,296.6 305.8,298.5 304.8,300.5 303.9,302.3 302.9,304.1 301.8,306.2 300.9,308.1 299.9,309.9 298.9,311.9 298.1,313.4 297,315.4 295.9,317.6 294.9,319.4 293.9,321.4 293,323.2 291.9,325.3 290.8,327.6 289.9,329.5 288.9,331.3 287.9,333.6 286.9,335.6 285.9,337.8 284.9,339.9 283.9,342 283,343.9 281.9,346.2 281,348 279.9,350.2 278.9,352.4 277.9,354.4 276.8,356.4 275.6,358.9 274.7,360.8 273.5,363.2 272.4,365.4 271.3,367.8 270.2,369.9 269.1,372.2 267.9,374.5 266.7,377 265.6,379.4 264.6,381.4 263.4,383.9 262.2,386.5 261.1,388.9 259.9,391.2 258.7,393.8 257.6,396.1 256.2,398.8 254.8,401.8 253.4,404.7 252.4,406.8 251.2,409.4 249.9,412.1 248.6,414.8 247.1,417.8 246.1,419.9 244.9,422.2 243.3,425.5 241.9,428.5 240.6,431 239.2,433.9 237.9,436.6 236.6,439.4 235.2,442.2 233.9,445 232.4,447.7 230.9,450.8 229.6,453.6 228.2,456.4 226.8,459.1 225.4,461.8 223.9,464.9 222.7,467.5 221.3,470.3 219.9,473 218.4,475.9 217,478.9 215.6,481.9 214.4,484.5 212.9,487.3 211.6,490.1 210.1,493.2 208.9,495.8 207.4,498.7 205.9,501.5 204.3,504.7 202.5,508.3 200.9,511.7 199.1,515.1 197.4,518.6 195.8,521.7 194,525.1 192.4,528.3 191,531.1 189.6,533.9 188.1,536.8 186.6,539.7 185.2,542.6 183.6,545.8 182.2,548.6 180.6,551.8 179.1,554.7 177.6,557.6 176.1,560.6 174.6,563.7 173.2,566.6 171.7,569.6 170.3,572.6 168.8,575.6 167.3,578.6 165.8,581.6 164.3,584.6 162.8,587.5 161.4,590.4 159.9,593.2 158.3,596.2 156.9,599.1 155.4,601.9 153.8,605.2 152.4,608.1 150.6,611.4 149.2,614.4 147.6,617.5 146.1,620.4 144.5,623.5 143.1,626.2 141.4,629.3 139.9,632.4 138.3,635.4 136.6,638.4 134.9,641.8 133.4,644.6 131.8,647.7 130.3,650.5 128.8,653.3 127.2,656.1 125.8,658.9 124.4,661.4 122.7,664.4 121.2,667.3 119.6,670.4 118.1,672.9 116.5,675.9 115.1,678.4 113.4,681.4 112.1,683.9 110.4,686.8 109.1,689.2 107.5,692 105.9,694.8 104.1,697.8 102.6,700.4 100.7,703.6 99.1,706.4 97.5,709.1 95.7,712.1 94.1,714.8 92.5,717.6 90.9,720.3 89.4,722.9 87.8,725.5 86.1,728.4 84.7,730.6 83.1,733.3 81.6,735.8 80.1,738.2 78.6,740.6 77.1,743 75.6,745.6 74,748.1 72.3,750.9 70.8,753.3 69.2,755.9 67.9,758 66.2,760.8 64.8,763 63.1,765.6 61.7,767.8 60.2,770.1 58.6,772.7 56.9,775.4 55.6,777.5 54.1,779.7 52.6,782.1 51.3,784.1 49.8,786.3 48.3,788.6 46.9,790.7 45.4,792.9 44,795 42.7,796.9 41.2,799.2 39.9,801.1 38.7,802.9 37.4,804.8 36.1,806.6 34.8,808.5 33.5,810.3 32.4,811.9 31.1,813.5 30,815.1 29,816.5 27.8,818.1 26.6,819.8 25.4,821.5 24.3,823 23.3,824.5 22.1,826.1 21,827.6 20.1,828.8 19.1,830 18.4,830.9 17.7,831.9 16.5,833.1 15.6,834.1 14.6,835.1 13.5,836.4 12.4,837.5 11.2,838.6 10.1,839.8 9,840.8 7.8,841.9 6.6,842.9 5.6,843.6 4.6,844.5 3.3,845.4 2,846.3 1.1,846.9 -0.1,847.6 -1.2,848.4 -2.4,849.1 -3.6,849.9 -4.6,850.4 -5.9,851.1 -7.1,851.7 -8.2,852.3 -9.4,852.8 -10.6,853.3 -11.7,853.8 -13.1,854.4 -14.2,854.9 -15.6,855.4 -16.8,855.9 -18,856.4 -19.2,856.8 -20.5,857.3 -21.9,857.7 -23.4,858.1 -24.8,858.6 -26.1,858.9 -27.4,859.2 -28.6,859.5 -30.3,859.9 -31.6,860.1 -32.9,860.4 -33.9,860.6 -35.1,860.8 -36.4,861 -37.9,861.2 -39.1,861.3 -40.4,861.4 -41.7,861.4 -43.1,861.5 -44.5,861.5 -46.1,861.5 -47.5,861.5 -49.1,861.5 -50.5,861.5 -52.1,861.5 -53.7,861.5 -55.1,861.5 -56.4,861.4 -57.7,861.4 -58.8,861.3 -59.9,861.2 -61.2,861.1 -62.5,860.9 -63.9,860.6 -65,860.5 -66.5,860.2 -68,859.9 -69.5,859.6 -70.8,859.3 -72.1,859 -73.5,858.6 -75.1,858.2 -76.3,857.9 -77.5,857.5 -78.9,857 -80.1,856.6 -81.4,856.1 -82.7,855.7 -83.8,855.3 -85.2,854.8 -86.6,854.2 -87.9,853.7 -89.4,853.1 -90.6,852.5 -91.8,851.9 -93.1,851.2 -94.2,850.6 -95.3,850.1 -96.3,849.5 -97.4,848.7 -98.6,848 -100,847.1 -101.3,846.3 -102.5,845.4 -103.8,844.6 -105,843.7 -105.9,843.1 -106.9,842.4 -107.5,841.8 -108.5,840.9 -109.5,839.9 -110.4,839 -111.5,838 -112.5,837 -113.6,835.9 -114.7,834.8 -115.5,834 -116.3,833.2 -117.4,831.9 -118.5,830.7 -119.4,829.6 -120.4,828.3 -121.4,826.9 -122.4,825.6 -123.6,824 -124.4,822.9 -125.3,821.6 -126.2,820.2 -127,819.1 -127.7,818 -128.4,816.9 -129.1,815.6 -129.8,814.3 -130.4,813.2 -130.9,812.1 -131.7,810.6 -132.5,809.1 -133.4,807.5 -133.9,806.4 -134.5,805.3 -135.2,803.8 -136,802.2 -136.6,801.1 -137.1,799.9 -137.6,798.9 -138.3,797.4 -139.1,795.7 -139.7,794.4 -140.3,793.2 -141.1,791.6 -141.9,790 -142.7,788.4 -143.4,786.9 -144.1,785.6 -144.7,784.4 -145.6,782.7 -146.3,781.4 -147.1,779.9 -147.9,778.4 -148.6,777.1 -149.6,775.3 -150.4,773.5 -151.1,772.2 -152,770.5 -152.8,769.1 -153.6,767.6 -154.6,765.7 -155.4,764.3 -156.2,762.8 -157.1,761.1 -158,759.7 -158.9,758.2 -159.6,756.8 -160.6,755.4 -161.4,753.9 -162.3,752.5 -163.1,751.1 -164,749.6 -164.9,748.1 -165.9,746.4 -166.7,745.1 -167.6,743.6 -168.7,741.9 -169.7,740.3 -170.6,738.8 -171.7,737.1 -172.6,735.6 -173.8,733.8 -174.9,732.1 -175.9,730.6 -177.1,728.9 -178.2,727.3 -179.4,725.6 -180.5,724.1 -181.6,722.7 -182.6,721.4 -183.7,719.9 -184.9,718.3 -186.1,716.7 -187.1,715.3 -188.2,713.9 -189.3,712.4 -190.4,710.8 -191.6,709.1 -192.7,707.8 -193.8,706.4 -195,704.9 -196.3,703.3 -197.6,701.7 -198.8,700.2 -199.8,699 -201.1,697.4 -202.4,695.9 -203.4,694.6 -204.6,693.2 -205.7,691.8 -206.9,690.3 -208.2,688.8 -209.3,687.5 -210.6,685.9 -211.9,684.4 -213.4,682.8 -214.6,681.4 -215.9,679.9 -217.3,678.4 -218.6,676.9 -219.9,675.5 -221.4,673.9 -222.6,672.5 -223.9,671.1 -225.2,669.6 -226.6,668.1 -227.8,666.9 -229.1,665.4 -230.3,664.2 -231.7,662.8 -233.1,661.4 -234.4,660.1 -235.8,658.7 -237.2,657.3 -238.6,655.9 -240.1,654.4 -241.3,653.1 -242.6,651.8 -244,650.4 -245.5,648.9 -246.9,647.5 -248.1,646.4 -249.2,645.2 -250.7,643.6 -251.9,642.3 -253.3,640.9 -254.5,639.6 -255.7,638.2 -257,636.8 -258.4,635.2 -259.6,634 -260.9,632.8 -262.1,631.4 -263.4,630.1 -264.6,628.9 -265.9,627.6 -267.1,626.4 -268.6,624.9 -270,623.5 -271.3,622.2 -272.4,621.1 -273.6,619.7 -274.9,618.4 -276.2,616.9 -277.2,615.8 -278.4,614.5 -279.6,613.2 -281,611.8 -282.3,610.4 -283.6,609.2 -284.7,608.1 -285.9,606.9 -287.1,605.6 -288.3,604.4 -289.4,603.3 -290.9,601.8 -292.3,600.4 -293.6,599 -295.1,597.4 -296.4,596 -297.9,594.4 -299.3,592.8 -300.4,591.6 -301.6,590.4 -303.2,588.6 -304.6,587.1 -306,585.6 -307.2,584.4 -308.5,582.9 -309.6,581.6 -310.9,580.1 -311.6,579.3 -312.4,578.4 -313.4,577.1 -314.5,575.9 -315.5,574.9 -316.6,573.6 -317.9,572.1 -319.1,570.8 -320.4,569.4 -321.4,568.3 -322.3,567.1 -323.2,566.1 -324.1,565.1 -324.9,564.2 -325.7,563.2 -326.5,562.2 -327.3,561.2 -328.3,560.1 -329.3,558.9 -330.3,557.8 -331.4,556.5 -332.6,555.1 -334.1,553.6 -335.5,552.1 -336.7,550.8 -337.9,549.5 -339,548.2 -340.3,546.9 -341.4,545.6 -342.4,544.6 -343.4,543.5 -344.4,542.4 -345.5,541.2 -346.9,540.1 -347.8,539.2 -349.1,538.2 -351.7,537.3 -355.2,536.8 -358.6,536.4 -362.3,536.4 -365.6,536.6 -368.9,537 -372.1,537.9 -373.9,539 -375.2,540.1 -376.5,541.3 -377.5,542.2 -379,543.7 -380.6,545.3 -382,546.6 -383.5,548.2 -384.6,549.4 -385.9,550.6 -387.1,551.8 -387.9,552.6 -388.5,553.3 -389.3,554.1 -390.1,554.9 -391.2,556.1 -392.5,557.4 -393.9,558.8 -395.1,560.1 -396.4,561.4 -397.6,562.6 -398.6,563.5 -399.5,564.3 -400.3,564.9 -401,565.3 -401.9,565.9 -403.2,566.6 -404.5,567.1 -405.8,567.8 -407,568.3 -408.4,568.8 -409.7,569.3 -410.9,569.6 -411.6,569.9 -412.4,570.1 -413.2,570.2 -414.1,570.4 -414.7,570.4 -415.4,570.5 -416.2,570.6 -417.1,570.6 -418,570.6 -419,570.6 -420.1,570.6 -421.4,570.6 -422.9,570.4 -424.4,570.2 -425.8,569.9 -427.1,569.7 -428.4,569.5 -429.4,569.2 -430.5,568.9 -431.6,568.4 -432.8,567.8 -434,567.2 -435.1,566.6 -436.6,565.7 -438,564.9 -439.2,564 -439.9,563.5 -440.6,562.9 -441.4,562.3 -442.2,561.7 -442.8,561.2 -443.4,560.6 -444.4,559.9 -445.3,559.1 -446.3,558.1 -447.6,556.9 -449,555.5 -450.3,554.1 -451.6,552.8 -452.8,551.6 -453.9,550.3 -455,549.2 -455.9,548.1 -456.9,547 -458,545.9 -459,544.7 -460,543.6 -461.1,542.4 -462.1,541.1 -463.1,540.1 -464.1,539 -465.1,537.9 -466.1,536.7 -467.1,535.6 -468.1,534.4 -469.2,533.1 -470.1,532.1 -470.9,531.2 -471.5,530.4 -472.2,529.5 -472.9,528.6 -473.7,527.6 -474.4,526.7 -475.1,525.8 -475.9,524.6 -476.9,523.4 -477.6,522.4 -478.4,521.3 -479.1,520.4 -479.7,519.6 -480.4,518.7 -481,517.8 -481.5,516.9 -482.1,515.9 -482.8,514.9 -483.6,513.4 -484.4,511.9 -485.3,510.4 -486.1,509 -486.9,507.6 -487.6,506.3 -488.3,504.9 -488.8,503.9 -489.4,502.9 -490,501.6 -490.6,500.4 -491.1,499.3 -491.8,497.9 -492.5,496.4 -493.2,494.9 -493.9,493.4 -494.4,492.1 -495.1,490.6 -495.7,489.1 -496.1,488.1 -496.6,487.1 -497,485.9 -497.6,484.6 -498.1,483.3 -498.5,482.2 -498.9,481.1 -499.4,480.1 -499.9,478.9 -500.2,477.8 -500.6,476.7 -501,475.4 -501.4,474.2 -501.9,472.9 -502.3,471.4 -502.9,469.8 -503.4,468.1 -503.9,466.6 -504.3,465.4 -504.7,463.8 -505.1,462.2 -505.6,460.6 -505.9,459.5 -506.2,458.4 -506.6,457.3 -506.9,455.6 -507.4,453.9 -507.8,452.1 -508.1,450.4 -508.5,448.6 -508.9,446.8 -509.2,444.6 -509.5,442.9 -509.6,441.6 -509.9,440.4 -510,439.1 -510.1,437.8 -510.3,436.5 -510.4,435.6 -510.4,434.6 -510.5,433.7 -510.4,432.8 -510.3,431.4 -510.1,430.2 -510,429.1 -509.8,427.9 -509.5,426.5 -509.2,425.1 -508.9,423.7 -508.7,422.8 -508.4,421.8 -508,420.8 -507.6,419.6 -507.2,418.8 -506.7,417.8 -506.1,416.6 -505.6,415.4 -505.1,414.5 -504.5,413.6 -503.7,412.3 -502.9,411 -502.1,409.9 -501.5,408.9 -500.8,408 -499.9,406.7 -499,405.4 -498.4,404.6 -497.8,403.7 -496.8,402.4 -495.8,401.1 -494.8,399.8 -493.8,398.5 -492.6,397 -491.6,395.5 -490.6,394.1 -489.9,393.1 -489.1,392.1 -488.3,391 -487.4,389.7 -486.6,388.6 -485.8,387.6 -484.9,386.5 -483.8,384.9 -482.7,383.4 -481.6,382 -480.9,380.9 -479.9,379.6 -478.9,378.2 -477.9,376.9 -477,375.8 -476.1,374.6 -475.3,373.4 -474.4,372.1 -473.8,371.2 -473.1,370.2 -472.1,368.9 -471.4,367.9 -470.6,366.9 -469.9,366 -469.1,365.1 -468.1,363.8 -467.2,362.6 -466.6,361.6 -465.6,360.3 -464.6,358.9 -463.6,357.6 -462.7,356.3 -461.8,354.9 -460.9,353.6 -459.8,352.1 -459,351.1 -458.6,350.5 -458.1,349.8 -457.5,348.9" style="stroke: rgb(251, 191, 36); stroke-width: 7;"></polyline></svg>