<svg xmlns="http://www.w3.org/2000/svg" xmlns:xlink="http://www.w3.org/1999/xlink" preserveAspectRatio="xMidYMid meet" height="100%" viewBox="-750 -470 1560 1020">
    <polygon vector-effect="non-scaling-stroke" fill="none" style="stroke: #374151; stroke-width:6" points="  721,60 720,53 719,46 718,39 717,32 716,25 715,18 714,10 713,3 712,-5 711,-12 710,-20 709,-27 708,-35 707,-42 706,-50 705,-58 704,-66 703,-73 702,-81 701,-89 699,-97 698,-106 697,-114 696,-122 695,-131 694,-139 693,-147 692,-155 690,-163 689,-172 688,-180 687,-188 686,-196 685,-205 684,-214 683,-222 682,-231 680,-239 679,-247 678,-255 677,-262 677,-269 676,-275 675,-282 674,-288 673,-294 673,-299 672,-305 671,-310 671,-315 670,-319 669,-324 668,-329 667,-333 666,-336 665,-340 664,-344 662,-348 659,-352 657,-356 655,-359 652,-363 649,-365 647,-367 644,-369 641,-371 638,-373 633,-375 630,-376 625,-378 621,-379 616,-380 612,-380 609,-381 605,-382 602,-383 598,-385 594,-386 591,-388 588,-390 584,-391 581,-394 576,-397 573,-400 570,-402 567,-405 565,-407 561,-411 556,-414 552,-417 548,-419 544,-421 539,-422 535,-423 531,-423 528,-423 525,-422 521,-421 518,-420 515,-418 511,-415 508,-412 506,-408 504,-405 502,-400 500,-395 499,-391 498,-385 498,-381 497,-376 497,-370 497,-364 497,-361 497,-356 498,-350 498,-346 499,-342 499,-338 500,-334 501,-330 502,-325 503,-321 504,-317 505,-312 507,-307 508,-303 510,-298 511,-293 513,-288 515,-283 517,-278 519,-273 521,-268 523,-263 525,-258 527,-252 529,-247 531,-241 534,-235 536,-230 538,-223 541,-217 543,-211 545,-205 547,-198 549,-191 551,-184 553,-177 555,-170 557,-163 559,-156 560,-149 561,-143 563,-136 564,-130 565,-124 565,-119 566,-113 567,-108 567,-103 567,-98 567,-94 567,-90 566,-85 565,-77 564,-72 562,-68 560,-63 558,-60 556,-56 554,-54 552,-51 549,-48 543,-43 539,-40 535,-38 532,-36 528,-35 524,-33 520,-32 512,-29 508,-29 503,-28 499,-27 494,-27 489,-27 484,-27 480,-28 475,-28 471,-28 465,-29 460,-29 455,-30 450,-30 444,-31 439,-32 434,-32 428,-33 422,-33 416,-34 410,-34 404,-35 398,-35 391,-36 385,-36 378,-37 372,-37 364,-37 358,-38 351,-38 344,-39 336,-39 329,-40 322,-40 315,-41 308,-41 301,-41 293,-42 286,-42 279,-43 271,-43 263,-44 255,-44 247,-45 239,-45 231,-46 223,-46 215,-47 206,-47 198,-48 190,-49 182,-49 174,-50 166,-51 158,-52 150,-53 143,-54 135,-56 127,-57 119,-59 112,-60 105,-62 97,-64 90,-66 83,-69 76,-71 68,-74 61,-77 55,-80 47,-84 40,-87 33,-91 26,-95 19,-99 12,-103 5,-107 -1,-112 -9,-116 -16,-120 -22,-124 -29,-129 -37,-133 -44,-138 -52,-142 -58,-147 -65,-151 -73,-156 -80,-160   -80,-160 -87,-164 -94,-168 -100,-172 -106,-176 -112,-180 -118,-183 -123,-186 -128,-190 -133,-192 -137,-195 -142,-198 -146,-200 -150,-203 -155,-205 -159,-207 -163,-210 -167,-212 -170,-214 -174,-216 -177,-218 -182,-221 -186,-223 -189,-225 -195,-227 -200,-228 -204,-229 -210,-230 -215,-230 -220,-229 -223,-229 -226,-228 -231,-226 -235,-224 -239,-222 -244,-219 -248,-215 -250,-213 -254,-209 -256,-206 -259,-201 -262,-198 -264,-195 -266,-191 -268,-188 -270,-184 -273,-180 -275,-176 -277,-172 -279,-167 -281,-163 -284,-158 -286,-154 -288,-149 -291,-144 -293,-139 -295,-134 -298,-129 -301,-124 -303,-119 -305,-114 -308,-109 -310,-105 -312,-101 -314,-97 -315,-94 -318,-89 -320,-85 -324,-80 -327,-77 -330,-73 -334,-71 -338,-69 -341,-68 -345,-67 -348,-67 -352,-67 -355,-68 -360,-70 -364,-72 -367,-74 -371,-77 -374,-80 -376,-83 -379,-86 -382,-91 -385,-95 -388,-99 -391,-104 -393,-107 -396,-112 -398,-115 -400,-118 -403,-122 -405,-125 -407,-128 -410,-132 -413,-135 -416,-138 -419,-142 -422,-145 -425,-148 -428,-152 -432,-155 -435,-158 -439,-161 -442,-163 -445,-166 -448,-168 -453,-170 -457,-173 -462,-175 -466,-177 -472,-178 -476,-179 -481,-180 -486,-180 -488,-180 -493,-179 -496,-178 -502,-176 -507,-174 -512,-171 -516,-169 -519,-166 -523,-163 -526,-160 -530,-156 -532,-153 -535,-150 -537,-147 -540,-142 -542,-138 -545,-134 -547,-130 -549,-127 -551,-123 -553,-118 -555,-114 -557,-110 -559,-106 -562,-101 -564,-96 -567,-91 -569,-87 -572,-82 -575,-77 -577,-72 -580,-66 -583,-61 -586,-55 -589,-50 -592,-44 -595,-38 -598,-33 -601,-27 -605,-21 -608,-15 -611,-9 -615,-2 -618,4 -621,10 -625,16 -628,22 -632,29 -635,35 -639,42 -643,49 -647,55 -650,62 -654,69 -658,75 -662,82 -666,88 -670,95 -674,101 -677,107 -681,113 -684,119 -687,124 -690,129 -693,134 -696,138 -698,142 -700,146 -703,150 -706,155 -707,159 -709,162 -710,167 -711,172 -712,176 -712,182 -712,189 -711,192 -710,197 -708,202 -706,207 -703,212 -701,217 -698,220 -695,223 -692,226 -688,230 -683,233 -680,235 -677,237 -672,239 -669,241 -666,242 -662,244 -658,246 -654,248 -651,249 -647,251 -642,253 -636,255 -633,257 -629,260 -626,262 -623,264 -621,266 -620,268 -617,272 -615,276 -613,281 -612,286 -612,290 -611,294 -611,300 -611,303 -611,308 -611,313 -610,318 -609,323 -609,327 -607,332 -606,335 -605,339 -603,342 -602,345 -599,350 -596,355 -594,358 -591,361 -589,364 -586,367 -583,370 -580,373 -576,376 -573,378 -569,381 -565,383 -561,386 -557,388 -553,391 -549,393 -545,396 -541,399 -537,402 -533,405 -530,409 -527,412 -523,416 -520,420 -517,424 -514,428 -511,432 -508,436 -506,441 -504,445 -501,449 -500,453 -498,456 -495,461 -493,465 -490,469 -487,472 -484,475 -480,477 -477,478 -474,478 -470,478 -468,478 -464,476 -461,474 -458,472 -456,469 -454,465 -452,461 -451,458 -449,454 -448,450 -447,446 -447,442 -446,437 -445,432 -445,426 -444,421 -444,416 -443,410 -443,406 -442,402 -442,398 -442,394 -441,390 -441,385 -440,380 -439,375 -439,371 -438,365 -438,360 -437,355 -436,350 -435,344 -435,339 -434,333 -433,328 -432,322 -431,315 -430,310 -429,303 -428,297 -427,291 -426,284 -425,277 -424,271 -423,264 -422,257 -420,251 -419,244 -418,237 -416,230 -415,223 -413,215 -411,208 -410,201 -408,194 -406,186 -404,179 -402,171 -401,164 -399,156 -396,149 -394,141 -392,133 -390,126 -388,118 -385,111 -383,103   -383,103 -380,95 -378,87 -375,79 -373,72 -370,65 -368,58 -366,51 -364,45 -362,40 -360,34 -358,29 -356,25 -355,21 -353,17 -352,13 -351,9 -350,6 -348,1 -346,-3 -344,-8 -341,-13 -338,-17 -335,-19 -331,-22 -328,-24 -324,-25 -321,-26 -316,-27 -311,-27 -306,-26 -300,-25 -295,-23 -290,-20 -286,-18 -283,-15 -278,-10 -274,-7 -271,-3 -267,1 -263,5 -260,8 -258,11 -255,14 -252,17 -249,20 -246,23 -243,27 -239,30 -236,34 -232,37 -229,41 -225,44 -221,48 -217,52 -213,56 -209,60 -205,64 -201,68 -196,72 -192,76 -187,80 -182,84 -177,88 -172,91 -167,95 -162,98 -157,102 -152,105 -146,107 -141,110 -135,112 -130,115 -125,116 -119,118 -113,119 -108,121 -102,122 -97,122 -92,123 -87,124 -82,124 -77,125 -73,126 -68,126 -64,127 -60,127 -57,128 -52,129 -46,131 -42,133 -37,136 -33,139 -31,142 -28,147 -26,151 -25,156 -24,160 -24,165 -23,169 -24,175 -24,181 -23,185 -22,192 -20,197 -18,201 -16,205 -13,209 -11,211 -8,214 -5,218 -2,220 3,223 7,226 13,229 17,230 22,232 25,233 29,234 35,235 41,235 45,236 49,236 53,236 58,236 62,237 66,237 71,237 76,237 81,238 86,238 91,238 96,238 102,239 107,239 113,239 119,240 125,240 131,241 137,241 142,241 147,242 152,242 156,242 160,242 166,243 170,242 176,242 180,241 185,240 190,237 194,235 196,233 199,229 201,226 203,223 205,219 206,215 207,211 207,207 207,203 208,197 208,191 209,187 210,182 212,178 213,174 215,171 218,167 222,163 225,160 228,158 230,156 234,154 239,151 245,149 249,148 254,147 259,147 264,146 269,146 273,146 279,147 284,147 288,147 292,147 296,147 302,148 306,148 310,148 314,149 318,149 323,150 327,150 333,151 339,153 342,155 346,157 350,159 353,162 355,165 357,167 359,170 361,173 363,178 365,183 366,187 368,191 369,195 371,200 373,204 374,207 377,211 379,214 381,217 383,220 385,222 388,225 392,228 395,230 398,233 401,234 406,237 412,239 420,242 424,243 428,243 432,244 436,245 441,245 446,246 450,246 455,246 459,246 464,247 469,247 475,247 479,247 484,247 489,248 495,248 500,248 506,248 511,248 517,249 522,249 528,249 534,250 541,250 547,250 553,251 559,251 566,252 572,252 578,252 585,253 592,253 599,254 605,254 611,255 617,255 623,255 628,255 634,255 639,255 645,254 650,253 655,252 660,250 664,248 669,246 673,243 678,241 682,238 686,234 690,231 694,228 697,224 701,220 704,215 707,211 710,207 713,202 715,197 718,193 720,187 722,182 723,177 725,172 726,167 727,162 728,156 729,150 730,145 730,139 730,133 730,128 730,122 729,117 729,111 728,105 727,100 726,94 726,88 725,82 724,76 723,70 722,64 721,60  "></polygon>
    <polyline vector-effect="non-scaling-stroke" fill="none" style="stroke: #EF4444; stroke-width:4" points=" 721,60 720,53 719,46 718,39 717,32 716,25 715,18 714,10 713,3 712,-5 711,-12 710,-20 709,-27 708,-35 707,-42 706,-50 705,-58 704,-66 703,-73 702,-81 701,-89 699,-97 698,-106 697,-114 696,-122 695,-131 694,-139 693,-147 692,-155 690,-163 689,-172 688,-180 687,-188 686,-196 685,-205 684,-214 683,-222 682,-231 680,-239 679,-247 678,-255 677,-262 677,-269 676,-275 675,-282 674,-288 673,-294 673,-299 672,-305 671,-310 671,-315 670,-319 669,-324 668,-329 667,-333 666,-336 665,-340 664,-344 662,-348 659,-352 657,-356 655,-359 652,-363 649,-365 647,-367 644,-369 641,-371 638,-373 633,-375 630,-376 625,-378 621,-379 616,-380 612,-380 609,-381 605,-382 602,-383 598,-385 594,-386 591,-388 588,-390 584,-391 581,-394 576,-397 573,-400 570,-402 567,-405 565,-407 561,-411 556,-414 552,-417 548,-419 544,-421 539,-422 535,-423 531,-423 528,-423 525,-422 521,-421 518,-420 515,-418 511,-415 508,-412 506,-408 504,-405 502,-400 500,-395 499,-391 498,-385 498,-381 497,-376 497,-370 497,-364 497,-361 497,-356 498,-350 498,-346 499,-342 499,-338 500,-334 501,-330 502,-325 503,-321 504,-317 505,-312 507,-307 508,-303 510,-298 511,-293 513,-288 515,-283 517,-278 519,-273 521,-268 523,-263 525,-258 527,-252 529,-247 531,-241 534,-235 536,-230 538,-223 541,-217 543,-211 545,-205 547,-198 549,-191 551,-184 553,-177 555,-170 557,-163 559,-156 560,-149 561,-143 563,-136 564,-130 565,-124 565,-119 566,-113 567,-108 567,-103 567,-98 567,-94 567,-90 566,-85 565,-77 564,-72 562,-68 560,-63 558,-60 556,-56 554,-54 552,-51 549,-48 543,-43 539,-40 535,-38 532,-36 528,-35 524,-33 520,-32 512,-29 508,-29 503,-28 499,-27 494,-27 489,-27 484,-27 480,-28 475,-28 471,-28 465,-29 460,-29 455,-30 450,-30 444,-31 439,-32 434,-32 428,-33 422,-33 416,-34 410,-34 404,-35 398,-35 391,-36 385,-36 378,-37 372,-37 364,-37 358,-38 351,-38 344,-39 336,-39 329,-40 322,-40 315,-41 308,-41 301,-41 293,-42 286,-42 279,-43 271,-43 263,-44 255,-44 247,-45 239,-45 231,-46 223,-46 215,-47 206,-47 198,-48 190,-49 182,-49 174,-50 166,-51 158,-52 150,-53 143,-54 135,-56 127,-57 119,-59 112,-60 105,-62 97,-64 90,-66 83,-69 76,-71 68,-74 61,-77 55,-80 47,-84 40,-87 33,-91 26,-95 19,-99 12,-103 5,-107 -1,-112 -9,-116 -16,-120 -22,-124 -29,-129 -37,-133 -44,-138 -52,-142 -58,-147 -65,-151 -73,-156 -80,-160 "></polyline>
    <polyline vector-effect="non-scaling-stroke" fill="none" style="stroke: #3B82F6; stroke-width:4" points=" -80,-160 -87,-164 -94,-168 -100,-172 -106,-176 -112,-180 -118,-183 -123,-186 -128,-190 -133,-192 -137,-195 -142,-198 -146,-200 -150,-203 -155,-205 -159,-207 -163,-210 -167,-212 -170,-214 -174,-216 -177,-218 -182,-221 -186,-223 -189,-225 -195,-227 -200,-228 -204,-229 -210,-230 -215,-230 -220,-229 -223,-229 -226,-228 -231,-226 -235,-224 -239,-222 -244,-219 -248,-215 -250,-213 -254,-209 -256,-206 -259,-201 -262,-198 -264,-195 -266,-191 -268,-188 -270,-184 -273,-180 -275,-176 -277,-172 -279,-167 -281,-163 -284,-158 -286,-154 -288,-149 -291,-144 -293,-139 -295,-134 -298,-129 -301,-124 -303,-119 -305,-114 -308,-109 -310,-105 -312,-101 -314,-97 -315,-94 -318,-89 -320,-85 -324,-80 -327,-77 -330,-73 -334,-71 -338,-69 -341,-68 -345,-67 -348,-67 -352,-67 -355,-68 -360,-70 -364,-72 -367,-74 -371,-77 -374,-80 -376,-83 -379,-86 -382,-91 -385,-95 -388,-99 -391,-104 -393,-107 -396,-112 -398,-115 -400,-118 -403,-122 -405,-125 -407,-128 -410,-132 -413,-135 -416,-138 -419,-142 -422,-145 -425,-148 -428,-152 -432,-155 -435,-158 -439,-161 -442,-163 -445,-166 -448,-168 -453,-170 -457,-173 -462,-175 -466,-177 -472,-178 -476,-179 -481,-180 -486,-180 -488,-180 -493,-179 -496,-178 -502,-176 -507,-174 -512,-171 -516,-169 -519,-166 -523,-163 -526,-160 -530,-156 -532,-153 -535,-150 -537,-147 -540,-142 -542,-138 -545,-134 -547,-130 -549,-127 -551,-123 -553,-118 -555,-114 -557,-110 -559,-106 -562,-101 -564,-96 -567,-91 -569,-87 -572,-82 -575,-77 -577,-72 -580,-66 -583,-61 -586,-55 -589,-50 -592,-44 -595,-38 -598,-33 -601,-27 -605,-21 -608,-15 -611,-9 -615,-2 -618,4 -621,10 -625,16 -628,22 -632,29 -635,35 -639,42 -643,49 -647,55 -650,62 -654,69 -658,75 -662,82 -666,88 -670,95 -674,101 -677,107 -681,113 -684,119 -687,124 -690,129 -693,134 -696,138 -698,142 -700,146 -703,150 -706,155 -707,159 -709,162 -710,167 -711,172 -712,176 -712,182 -712,189 -711,192 -710,197 -708,202 -706,207 -703,212 -701,217 -698,220 -695,223 -692,226 -688,230 -683,233 -680,235 -677,237 -672,239 -669,241 -666,242 -662,244 -658,246 -654,248 -651,249 -647,251 -642,253 -636,255 -633,257 -629,260 -626,262 -623,264 -621,266 -620,268 -617,272 -615,276 -613,281 -612,286 -612,290 -611,294 -611,300 -611,303 -611,308 -611,313 -610,318 -609,323 -609,327 -607,332 -606,335 -605,339 -603,342 -602,345 -599,350 -596,355 -594,358 -591,361 -589,364 -586,367 -583,370 -580,373 -576,376 -573,378 -569,381 -565,383 -561,386 -557,388 -553,391 -549,393 -545,396 -541,399 -537,402 -533,405 -530,409 -527,412 -523,416 -520,420 -517,424 -514,428 -511,432 -508,436 -506,441 -504,445 -501,449 -500,453 -498,456 -495,461 -493,465 -490,469 -487,472 -484,475 -480,477 -477,478 -474,478 -470,478 -468,478 -464,476 -461,474 -458,472 -456,469 -454,465 -452,461 -451,458 -449,454 -448,450 -447,446 -447,442 -446,437 -445,432 -445,426 -444,421 -444,416 -443,410 -443,406 -442,402 -442,398 -442,394 -441,390 -441,385 -440,380 -439,375 -439,371 -438,365 -438,360 -437,355 -436,350 -435,344 -435,339 -434,333 -433,328 -432,322 -431,315 -430,310 -429,303 -428,297 -427,291 -426,284 -425,277 -424,271 -423,264 -422,257 -420,251 -419,244 -418,237 -416,230 -415,223 -413,215 -411,208 -410,201 -408,194 -406,186 -404,179 -402,171 -401,164 -399,156 -396,149 -394,141 -392,133 -390,126 -388,118 -385,111 -383,103 "></polyline>
    <polyline vector-effect="non-scaling-stroke" fill="none" style="stroke: #FBBF24; stroke-width:4" points=" -383,103 -380,95 -378,87 -375,79 -373,72 -370,65 -368,58 -366,51 -364,45 -362,40 -360,34 -358,29 -356,25 -355,21 -353,17 -352,13 -351,9 -350,6 -348,1 -346,-3 -344,-8 -341,-13 -338,-17 -335,-19 -331,-22 -328,-24 -324,-25 -321,-26 -316,-27 -311,-27 -306,-26 -300,-25 -295,-23 -290,-20 -286,-18 -283,-15 -278,-10 -274,-7 -271,-3 -267,1 -263,5 -260,8 -258,11 -255,14 -252,17 -249,20 -246,23 -243,27 -239,30 -236,34 -232,37 -229,41 -225,44 -221,48 -217,52 -213,56 -209,60 -205,64 -201,68 -196,72 -192,76 -187,80 -182,84 -177,88 -172,91 -167,95 -162,98 -157,102 -152,105 -146,107 -141,110 -135,112 -130,115 -125,116 -119,118 -113,119 -108,121 -102,122 -97,122 -92,123 -87,124 -82,124 -77,125 -73,126 -68,126 -64,127 -60,127 -57,128 -52,129 -46,131 -42,133 -37,136 -33,139 -31,142 -28,147 -26,151 -25,156 -24,160 -24,165 -23,169 -24,175 -24,181 -23,185 -22,192 -20,197 -18,201 -16,205 -13,209 -11,211 -8,214 -5,218 -2,220 3,223 7,226 13,229 17,230 22,232 25,233 29,234 35,235 41,235 45,236 49,236 53,236 58,236 62,237 66,237 71,237 76,237 81,238 86,238 91,238 96,238 102,239 107,239 113,239 119,240 125,240 131,241 137,241 142,241 147,242 152,242 156,242 160,242 166,243 170,242 176,242 180,241 185,240 190,237 194,235 196,233 199,229 201,226 203,223 205,219 206,215 207,211 207,207 207,203 208,197 208,191 209,187 210,182 212,178 213,174 215,171 218,167 222,163 225,160 228,158 230,156 234,154 239,151 245,149 249,148 254,147 259,147 264,146 269,146 273,146 279,147 284,147 288,147 292,147 296,147 302,148 306,148 310,148 314,149 318,149 323,150 327,150 333,151 339,153 342,155 346,157 350,159 353,162 355,165 357,167 359,170 361,173 363,178 365,183 366,187 368,191 369,195 371,200 373,204 374,207 377,211 379,214 381,217 383,220 385,222 388,225 392,228 395,230 398,233 401,234 406,237 412,239 420,242 424,243 428,243 432,244 436,245 441,245 446,246 450,246 455,246 459,246 464,247 469,247 475,247 479,247 484,247 489,248 495,248 500,248 506,248 511,248 517,249 522,249 528,249 534,250 541,250 547,250 553,251 559,251 566,252 572,252 578,252 585,253 592,253 599,254 605,254 611,255 617,255 623,255 628,255 634,255 639,255 645,254 650,253 655,252 660,250 664,248 669,246 673,243 678,241 682,238 686,234 690,231 694,228 697,224 701,220 704,215 707,211 710,207 713,202 715,197 718,193 720,187 722,182 723,177 725,172 726,167 727,162 728,156 729,150 730,145 730,139 730,133 730,128 730,122 729,117 729,111 728,105 727,100 726,94 726,88 725,82 724,76 723,70 722,64 721,60 "></polyline>
</svg>