<svg xmlns="http://www.w3.org/2000/svg" xmlns:xlink="http://www.w3.org/1999/xlink" preserveAspectRatio="xMidYMid meet" height="100%" viewBox="-731 -449 1478 949"><polygon vector-effect="non-scaling-stroke" fill="none" points="715,61.3 714.8,60.5 714.5,59 714.5,58.5 714.5,58 714.5,57.5 714.5,57 714.2,55 713.8,53 713.5,51 713.5,50.5 713.5,50 713.5,49.5 713.5,49 713.2,47.3 712.8,45.7 712.5,44 712.5,43.5 712.5,43 712.5,42.5 712.5,42 712.5,41.2 712.2,39.3 711.8,37.5 711.5,36 711.5,35.5 711.5,35 711.5,34.5 711.5,33.5 711.2,31.7 710.8,29.8 710.5,28.5 710.5,28 710.5,27.5 710.3,26 710,24.5 709.7,22.8 709.5,22.2 709.5,21.5 709.5,21 709.5,20.2 709.2,18 708.8,15.8 708.5,14 708.5,13.5 708.5,12.8 708.5,12 708.5,11.2 708.2,9.3 707.8,7.5 707.5,5.7 707.5,5 707.5,4.2 707.2,2.5 706.8,0.8 706.5,-0.5 706.5,-1.2 706.5,-2 706.5,-2.8 706.2,-4.8 705.8,-6.7 705.5,-8.5 705.5,-9.2 705.5,-10 705.2,-11.8 704.8,-13.7 704.5,-15.3 704.5,-16.2 704.5,-17 704.2,-18.8 703.8,-20.7 703.5,-22.3 703.5,-23.2 703.3,-24.8 703.2,-26.5 702.8,-28.2 702.7,-28.8 702.5,-29.7 702.5,-30.7 702.3,-32.7 702,-34.7 701.7,-36.3 701.5,-37.2 701.5,-37.8 701.5,-38.8 701.2,-40.7 700.8,-42.5 700.5,-44.2 700.5,-44.8 700.5,-45.8 700.3,-47.7 700,-49.5 699.7,-51.8 699.5,-52.3 699.3,-54.5 699,-55.8 698.7,-58 698.5,-58.7 698.3,-60.5 698.2,-62.5 697.8,-64.3 697.7,-65 697.5,-65.7 697.5,-66.8 697.3,-69.2 697,-71.3 696.7,-73 696.5,-73.7 696.5,-74.3 696.5,-75 696.2,-76.8 695.8,-78.7 695.5,-80.7 695.5,-81.3 695.3,-83 695.2,-84.7 694.8,-86.3 694.7,-87.2 694.5,-87.8 694.5,-88.8 694.3,-90.8 694,-92.8 693.7,-94.5 693.5,-95.2 693.5,-95.8 693.5,-97.2 693.2,-99.2 692.8,-101.2 692.5,-102.7 692.5,-103.3 692.5,-104 692.2,-106 691.8,-108 691.5,-110.2 691.5,-110.8 691.5,-111.5 691.2,-113.2 690.8,-114.8 690.5,-116.5 690.5,-117.2 690.5,-117.8 690.3,-119.2 690,-121.3 689.7,-123.5 689.5,-125.2 689.5,-125.8 689.5,-126.5 689.3,-127.7 689.2,-128.8 688.8,-131 688.7,-132.7 688.5,-134.3 688.3,-135.2 688,-136.8 687.7,-138.5 687.5,-140.2 687.5,-140.8 687.3,-141.5 687,-143.2 686.7,-144.8 686.5,-146.7 686.5,-147.3 686.5,-148 686.3,-149.2 686,-151.3 685.7,-153.5 685.5,-155.2 685.5,-155.8 685.5,-156.5 685.2,-158.3 684.8,-160.2 684.5,-162.2 684.5,-162.8 684.5,-163.5 684.3,-164.7 684.2,-165.8 683.8,-168 683.7,-169.7 683.5,-171.3 683.5,-172 683.3,-172.7 683,-174.5 682.7,-176.5 682.5,-178.3 682.5,-179 682.3,-179.7 682,-181.5 681.7,-183.3 681.5,-185.2 681.5,-185.8 681.5,-186.5 681.2,-188.2 680.8,-189.8 680.5,-191.5 680.5,-192.2 680.5,-192.8 680.3,-194.2 680,-196.3 679.7,-198.5 679.5,-200.2 679.5,-200.8 679.3,-201.5 679.2,-202.7 679,-203.8 678.8,-206 678.7,-207.7 678.5,-209.3 678.3,-210 678,-211.7 677.7,-213.3 677.5,-215 677.5,-215.7 677.3,-216.3 677,-218.2 676.7,-219.8 676.5,-221.5 676.5,-222.2 676.3,-222.8 676.2,-223.5 676,-224.8 675.8,-227.2 675.7,-229.5 675.3,-231.2 675.2,-231.8 675,-232.5 674.8,-234.2 674.7,-235.8 674.5,-237.5 674.3,-238.2 674.2,-238.8 674,-239.8 673.8,-241.8 673.7,-243.8 673.3,-245.5 673.2,-246.2 672.8,-247.8 672.7,-249.5 672.5,-251.2 672.5,-251.8 672.3,-252.5 672.2,-253 671.8,-255 671.7,-257 671.5,-259 671.3,-259.7 671.2,-260.3 670.8,-262 670.7,-263.5 670.5,-265.2 670.5,-265.8 670.3,-266.5 670.2,-267 669.8,-269 669.7,-271 669.5,-273 669.3,-273.5 669.2,-274.2 668.8,-275.8 668.7,-277.5 668.5,-279 668.5,-279.5 668.3,-280.2 668.2,-280.8 668,-281.8 667.8,-283.7 667.7,-285.7 667.5,-287.3 667.3,-288 667.2,-288.5 667,-289 666.8,-291 666.7,-293 666.5,-295 666.3,-295.5 666.2,-296 665.8,-297.5 665.7,-299 665.5,-300.5 665.5,-301 665.3,-301.5 665.2,-302 664.8,-303.8 664.7,-305.7 664.5,-307.5 664.5,-308 664.5,-308.5 664.3,-309 664.2,-310 663.8,-312.2 663.7,-314.3 663.5,-316 663.5,-316.5 663.3,-317 663.2,-317.5 663,-318 662.8,-319.8 662.7,-321.7 662.5,-323.5 662.3,-324 662.2,-324.5 661.8,-326 661.7,-327.5 661.5,-329 661.3,-329.5 661.2,-330 661,-330.7 660.8,-332.5 660.7,-334.3 660.5,-336 660.3,-336.5 660.2,-337 660,-337.5 660,-338 659.8,-339.7 659.5,-341.3 659.2,-343 659,-343.5 659,-344 659,-344.5 659,-345.2 658.8,-346 658.5,-347.8 658.2,-349.5 658,-351 658,-351.7 657.8,-353.2 657.5,-354.8 657.2,-356.3 656.7,-358 656.3,-359.7 655.7,-362.2 655.2,-363.5 654.7,-364.7 653.8,-366.3 651,-369.5 648.2,-372.7 645.8,-374.3 645.7,-374.7 644.5,-375 643.5,-375.5 642.3,-375.8 639,-376 634.2,-375.8 628.8,-375.7 626,-375.5 624,-375.5 622,-375.5 620.3,-375.5 618.7,-375.7 617.3,-375.8 616,-376 614.8,-376.2 613.5,-376.3 612.2,-376.5 611,-376.5 610,-376.5 609.2,-376.5 608.5,-376.7 607.8,-376.8 606.3,-377.3 604.8,-377.7 603.5,-378 603,-378 602.5,-378.2 601.5,-378.5 600.5,-378.8 599.5,-379.2 598.3,-379.5 597.2,-379.8 596,-380.2 595.5,-380.3 595,-380.5 593.5,-381.2 592,-381.8 590.2,-382.8 588.8,-383.3 587.5,-383.8 586.5,-384.2 586,-384.3 585.5,-384.7 585,-384.8 584.5,-385.2 583.3,-385.8 582.2,-386.7 581,-387.3 580,-388 578.5,-389 577,-390 576,-390.7 575.5,-391 574.8,-391.5 574,-392.2 573.2,-392.7 572.3,-393.3 571.7,-393.8 571.2,-394.5 570.8,-394.8 570,-395.8 568.8,-397 567.7,-398.2 566.8,-398.8 566.2,-399.5 565.3,-400.5 564.5,-401.5 563.3,-402.7 562.3,-403.7 561.7,-404.5 561,-405.5 560.3,-406.5 559.7,-407.5 558.8,-408.7 558,-409.8 557.2,-411 556.8,-411.5 556.2,-412.5 555.5,-413.5 554.7,-414.7 554,-415.7 553.3,-416.7 552,-418.7 550.7,-420.5 548.3,-423 546.7,-424.5 544,-426.3 542.2,-427.3 539.8,-428.3 538.7,-428.7 536.5,-429.2 534.8,-429.5 533,-429.8 532,-430 530,-429.8 528.2,-429.7 526,-429.2 525,-428.8 524,-428.5 522.5,-428 520.5,-427.2 518.5,-426.2 516.5,-424.7 515,-423.5 513.7,-422.3 512.7,-421.2 511.7,-419.5 510.3,-417.5 509.8,-416.3 509.3,-415.5 508.8,-414.3 508.3,-413.2 507.8,-411.3 507.5,-410.2 507.2,-408.8 506.8,-407.5 506.7,-406.2 506.3,-405 506.2,-404.5 505.8,-403.3 505.7,-401.8 505.5,-400.3 505.5,-399.5 505.5,-399 505.5,-398.5 505.2,-397.2 504.8,-395.7 504.5,-394 504.5,-393.2 504.5,-392.5 504.5,-392 504.5,-391.5 504.3,-390.2 504,-388.7 503.7,-386.8 503.5,-385.8 503.5,-385 503.5,-384.5 503.3,-383 503.2,-381.2 502.8,-379.2 502.7,-378 502.5,-377 502.5,-376.2 502.5,-375.5 502.3,-373.8 502.2,-372.2 501.8,-370.2 501.7,-368.8 501.5,-367.5 501.5,-366.3 501.5,-365.7 501.3,-364.2 501.2,-362.5 501,-360.5 500.8,-358.8 500.7,-357.5 500.5,-356.3 500.5,-355.7 500.3,-353.8 500.2,-352 500,-349.7 500,-348.3 500,-346.7 500,-345.5 500,-343.8 500,-342.7 500,-341 500,-339.7 500,-337.8 500,-336.3 500,-334.7 500.2,-333.2 500.3,-331.3 500.5,-329.7 500.7,-327.5 500.8,-325.7 501,-324 501,-323.2 501.2,-322 501.3,-320.7 501.7,-318.3 501.8,-316.3 502.2,-314.7 502.5,-313 502.8,-311.5 503.2,-309.8 503.5,-308.2 503.8,-306.5 504.2,-304.8 504.5,-303.2 505.2,-301 505.7,-298.8 506.2,-297.7 506.3,-296.8 506.8,-295.2 507.2,-293.5 507.8,-291.2 508.3,-289.2 509.2,-286.8 509.7,-285.2 510.2,-284.2 510.8,-282.5 511.5,-280.8 512.2,-279.2 512.8,-277.3 513.5,-275.5 514.2,-273.7 514.7,-272.3 515.5,-270.3 516.3,-268.3 517.2,-266.5 517.7,-265.3 518.3,-263.5 518.8,-262.2 519.5,-260.3 520,-259 520.8,-256.7 521.5,-255 522.2,-253.3 522.8,-251.7 523.7,-249.5 524.5,-247.3 525,-246.2 525.8,-244.5 526.5,-242.8 527.2,-241 527.8,-239 528.7,-236.7 529.5,-234.3 530,-233 530.8,-231.2 531.5,-229.3 532.3,-227.2 533,-225.5 533.8,-223.8 534.5,-221.8 535.2,-219.8 535.8,-217.8 536.8,-215.5 537.5,-213.5 538.3,-211.2 538.8,-209.8 539.7,-208 540.2,-206.5 541,-204.2 541.8,-202 542.7,-199.8 543.2,-198.5 543.8,-196.5 544.7,-194.5 545.3,-192.5 546,-190.5 546.7,-188.5 547.3,-186.5 547.8,-184.8 548.2,-183.2 549,-180.5 549.7,-178.5 550.3,-176.5 550.8,-174.8 551.2,-173.2 551.7,-171.7 552,-170.2 552.5,-168.7 553,-166.3 553.5,-164.7 554,-162.3 554.5,-160.7 555,-158.3 555.3,-156.7 555.7,-155 556,-153 556.5,-151 557,-148.3 557.3,-146.7 557.5,-145 557.8,-143 558.2,-141 558.5,-139 558.5,-138.2 558.8,-136 559.2,-133.8 559.5,-131.5 559.5,-130.5 559.7,-128.2 560,-125.8 560.3,-123.5 560.5,-122.5 560.7,-120.2 560.8,-117.8 561,-115.5 561.2,-114.7 561.3,-113.5 561.5,-112 561.7,-109.3 561.8,-107 562,-105.2 562,-104.3 562,-103.2 562,-101.7 562,-99.8 562.2,-97.3 562.5,-95.2 562.8,-93.3 563,-92.5 563,-91.3 563,-89.8 563,-88.3 563,-86.8 563,-85.5 563,-84 563,-82.5 563.2,-80.2 563.3,-78.2 563.5,-76.3 563.5,-75.7 563.5,-74.5 563.5,-73.3 563.5,-72 563.5,-70.7 563.5,-69.3 563.5,-68 563.5,-67.2 563.5,-66.5 563.5,-66 563.3,-64.7 563,-63.3 562.7,-62 562.5,-61.5 562.3,-60.3 562,-59.2 561.7,-58 561.5,-57.5 561.3,-57 561.2,-56.5 560.8,-56 560.7,-55.5 560,-54.5 559.5,-53.5 558.8,-52.5 558.7,-52 558.2,-51.3 557.7,-50.8 557,-50.2 556.3,-49.5 555.5,-48.5 554.7,-47.8 553.8,-47.2 553.2,-46.5 552.3,-45.5 551.7,-44.8 551,-44.3 550.5,-44 550,-43.7 549.2,-43.2 547.8,-42.3 546.5,-41.5 545.5,-40.8 545,-40.5 544.2,-40 543.3,-39.5 542.2,-38.8 541.2,-38.3 540.2,-37.8 539,-37.5 538,-37 536.3,-36.5 535.2,-36 534,-35.7 533.5,-35.5 532.2,-35.2 530.8,-34.8 529,-34.3 527.8,-34 526.7,-33.7 525.8,-33.5 524.2,-33.3 522.5,-33 520.8,-32.7 520.2,-32.5 519.2,-32.5 517.5,-32.3 515.7,-32.2 514,-32 513,-32 511.8,-32 510.5,-32 508.8,-32 507.3,-32 505.7,-32 504.2,-32 502.5,-32 500.8,-32 499,-32.2 497.3,-32.3 495.8,-32.5 494.7,-32.5 493.7,-32.5 492,-32.7 489.8,-32.8 487.3,-33 485.5,-33 483.8,-33.2 482.2,-33.3 480.7,-33.5 478.7,-33.7 477,-33.8 475,-34 473.5,-34 471.5,-34 469.3,-34.2 467.5,-34.3 466,-34.5 464.2,-34.7 462,-34.8 459.5,-35 457.5,-35 455.5,-35 453.5,-35 451.5,-35.2 449.8,-35.3 447.7,-35.7 445.3,-35.8 443,-36 441.2,-36 439.5,-36 437.5,-36 435.5,-36 433.8,-36.2 431.8,-36.5 429.8,-36.8 427.2,-37 424.8,-37 422.5,-37 420.5,-37 418.5,-37 416.8,-37.2 414.3,-37.5 411.7,-37.8 409,-38 407.2,-38 405.3,-38 402.8,-38 400.7,-38 399,-38.2 397.2,-38.5 394.8,-38.8 391.8,-39 389.3,-39 386.8,-39 384.7,-39 382.5,-39.2 380.8,-39.3 378.3,-39.7 375.7,-39.8 372.8,-40 370.5,-40 368.2,-40 366,-40 364,-40.2 362.5,-40.3 359.5,-40.7 357,-40.8 354.2,-41 352.3,-41 349.8,-41 347.2,-41.2 345,-41.3 342.7,-41.7 340.2,-41.8 337,-42 334.3,-42 331.8,-42.2 329.5,-42.3 327.3,-42.5 324.8,-42.7 322,-42.8 318.8,-43 316,-43.2 313.5,-43.3 311,-43.5 309,-43.5 306.2,-43.7 303.2,-43.8 300,-44 297.5,-44.2 295,-44.3 292.7,-44.5 290,-44.7 287.3,-44.8 283.8,-45.2 281.3,-45.3 278.8,-45.5 277,-45.5 273.8,-45.7 270.7,-45.8 267.7,-46.2 265.2,-46.3 262.7,-46.5 260,-46.5 256.8,-46.7 253.7,-47 249.8,-47.3 247.2,-47.5 245.2,-47.5 242.8,-47.7 240,-47.8 236.3,-48.2 233.2,-48.3 230,-48.5 227.5,-48.5 224.3,-48.7 221.8,-48.8 218.8,-49.2 216.5,-49.3 213.2,-49.5 210.3,-49.5 207,-49.7 204,-49.8 201.2,-50.2 198.8,-50.3 196.5,-50.5 193.5,-50.5 191,-50.5 187.7,-50.7 185,-51 181.8,-51.3 179.5,-51.5 177,-51.5 174,-51.7 171.3,-52 168.2,-52.3 165.5,-52.5 163,-52.5 160,-52.7 157.3,-52.8 154.2,-53.2 151.3,-53.3 148.3,-53.5 145.8,-53.5 143.3,-53.7 140.7,-53.8 137.5,-54.2 134.7,-54.3 132.3,-54.5 129.8,-54.7 127,-54.8 124.3,-55.2 122,-55.3 119.5,-55.7 116.7,-56 114.2,-56.3 111.7,-56.8 109.3,-57.2 107.2,-57.5 104.8,-57.8 102.7,-58.3 99.7,-59 97.7,-59.5 95.7,-59.8 93.5,-60.5 91.3,-61 88.5,-61.8 86.7,-62.3 85,-63 83.2,-63.7 81,-64.5 78.3,-65.5 76.5,-66.3 74.2,-67.3 72.3,-68 70,-68.8 68,-69.5 66,-70.3 64.2,-71.2 62.8,-71.8 61.5,-72.5 59.5,-73.7 57,-75 54.5,-76.3 52.8,-77.2 51.7,-77.8 50,-78.8 48.2,-79.8 46.3,-80.8 44.7,-81.8 42.5,-83 40.3,-84.2 38.5,-85 37.7,-85.5 36.2,-86.5 34.3,-87.7 32.5,-88.8 31.3,-89.5 30,-90.5 28.2,-91.7 26,-93 24.5,-93.8 22.8,-94.7 21.2,-95.5 19.5,-96.3 17.8,-97.3 16.3,-98.3 14.3,-99.5 12.5,-100.5 11,-101.3 9.8,-102 9.2,-102.5 7.2,-103.7 5.3,-104.8 3,-106.2 1.5,-107 0,-107.7 -1.2,-108.2 -1.8,-108.5 -3.8,-109.7 -5.7,-110.8 -7.7,-112 -8.8,-112.8 -10.2,-113.7 -11.3,-114.5 -13,-115.3 -14.5,-116.2 -16.5,-117.2 -17.5,-117.8 -19.2,-118.8 -20.7,-119.8 -22.7,-121 -24,-121.8 -25,-122.3 -25.7,-122.7 -27,-123.5 -29.3,-124.8 -31.5,-126.2 -33.2,-127 -33.8,-127.3 -35.2,-128 -36.3,-128.7 -37.5,-129.5 -39,-130.5 -40.8,-131.7 -43.2,-133 -44.5,-133.7 -45.7,-134.2 -46.8,-134.8 -48.3,-135.8 -49.8,-136.8 -50.8,-137.5 -51.7,-137.8 -53,-138.7 -54.7,-139.7 -56.7,-141 -58.3,-142 -60.2,-143 -61.5,-143.7 -62.8,-144.3 -63.8,-144.8 -64.8,-145.5 -66.3,-146.5 -67.7,-147.5 -69,-148.3 -70.2,-149 -71.7,-149.8 -73.7,-151 -75,-151.8 -76,-152.3 -77.3,-153.2 -78.7,-154 -80.8,-155.3 -82.3,-156.2 -83.8,-157 -84.7,-157.3 -85.8,-158 -87,-158.7 -88.7,-159.8 -90.2,-160.8 -91.7,-161.7 -92.7,-162.2 -93.8,-162.8 -95.3,-163.8 -97.2,-165 -98.5,-165.7 -99.7,-166.2 -100.8,-166.8 -102,-167.7 -103.7,-168.8 -104.8,-169.7 -106,-170.3 -107.3,-171 -108.7,-171.7 -110,-172.5 -111.2,-173.3 -112.3,-174 -114,-175 -115.2,-175.7 -117,-176.8 -118.3,-177.5 -119.7,-178.2 -120.3,-178.5 -121.8,-179.5 -123.3,-180.5 -124.8,-181.3 -126,-182 -127.2,-182.7 -129.3,-184 -131,-185 -132.7,-185.8 -133.3,-186.2 -134,-186.5 -135.3,-187.5 -136.7,-188.3 -138.3,-189.3 -139.3,-189.8 -140.3,-190.5 -141.8,-191.5 -143.2,-192.3 -144.7,-193.2 -145.8,-193.8 -147.3,-194.8 -148.8,-195.7 -149.8,-196.2 -151.2,-196.8 -152.5,-197.7 -153.8,-198.3 -154.5,-198.7 -156,-199.5 -157.5,-200.5 -159,-201.3 -160,-202 -161.2,-202.7 -162.3,-203.5 -163.8,-204.3 -165.2,-205.2 -166.7,-206 -167.3,-206.3 -168.5,-207 -169.8,-207.8 -171.5,-209 -172.8,-209.7 -173.8,-210.2 -175,-210.8 -176,-211.5 -177.3,-212.3 -178.7,-213 -180,-213.7 -181,-214.2 -182,-214.8 -183,-215.5 -184,-216.2 -185,-216.8 -186,-217.5 -187.3,-218.3 -188.2,-218.7 -189.2,-219.3 -189.8,-219.7 -190.8,-220.3 -191.7,-220.7 -193,-221.3 -194,-221.8 -195,-222.3 -195.3,-222.7 -196.2,-223.2 -197,-223.7 -198.2,-224.3 -198.8,-224.7 -199.7,-225.2 -200.2,-225.5 -201.7,-226.5 -204.3,-228 -207,-229.5 -208.8,-230.3 -209.8,-231 -211.7,-231.7 -213.3,-232.3 -214.3,-232.7 -215.8,-233 -221.5,-231.7 -228.3,-229 -234,-226.2 -236,-224.2 -237.8,-222 -239.8,-219.3 -242.5,-215.7 -244.3,-212.8 -246,-210.5 -247,-208.8 -248,-207.7 -248.8,-206.3 -249.2,-206.2 -250,-205 -250.8,-203.8 -251.7,-202.7 -252.2,-201.8 -252.8,-201.2 -254,-199.5 -254.8,-198.3 -255.7,-197.2 -255.8,-196.8 -256.2,-196.5 -256.5,-195.8 -257,-195.3 -257.5,-194.7 -258.5,-193.3 -259.3,-191.8 -260.2,-190.7 -260.3,-190.3 -260.7,-190 -261,-189.5 -261.5,-188.8 -262,-188.3 -262.8,-187.2 -263.7,-186.2 -264.3,-185 -264.7,-184.5 -265,-184.2 -265.5,-183.7 -266.5,-182.5 -267.3,-181.2 -268.2,-180.2 -268.3,-179.8 -269,-179 -269.7,-178 -270.3,-177 -270.7,-176.7 -270.8,-176.3 -271.2,-176 -272,-174.5 -273,-173.2 -274,-171.8 -274.3,-171.5 -274.7,-171 -274.8,-170.5 -275.2,-170.2 -275.7,-169.7 -276.7,-168.5 -277.7,-167.2 -278.3,-166 -279,-165 -279.7,-164.2 -280.3,-163.3 -280.7,-163 -281.2,-162 -281.8,-161 -282.5,-160 -282.8,-159.5 -283.7,-158.3 -284.3,-157.2 -285.2,-156.2 -285.5,-155.8 -285.8,-155.5 -286.7,-154.2 -287.3,-152.8 -288.2,-151.5 -288.5,-151 -288.8,-150.5 -289.7,-149.2 -290.5,-147.8 -291.3,-146.5 -291.7,-146 -291.8,-145.5 -292.7,-144.3 -293.7,-142.8 -294.7,-141.3 -295.2,-140.5 -295.3,-140 -295.7,-139.5 -296.5,-138.3 -297.3,-137.2 -298.3,-135.7 -298.7,-134.8 -299.3,-133.7 -299.8,-132.8 -300.3,-132 -300.7,-131.5 -301.5,-130.2 -302.3,-128.8 -303.2,-127.5 -303.3,-127 -304,-125.8 -304.7,-124.7 -305.5,-123 -306,-122 -306.5,-121 -307.2,-120 -307.8,-119 -308.3,-118 -309.2,-116.5 -310,-115 -310.8,-113.5 -311.2,-112.8 -311.3,-112.2 -312,-111 -312.7,-110 -313.3,-109 -314,-107.8 -314.5,-106.7 -315.3,-105.2 -315.7,-104.3 -316.3,-103.2 -316.7,-102.3 -317.3,-101.2 -318,-99.8 -318.7,-98.5 -319.3,-97.2 -319.7,-96.3 -320.3,-95.2 -320.7,-94.3 -321.3,-93.2 -321.8,-91.8 -322.5,-90.5 -322.8,-89.5 -323.2,-89 -323.3,-88.5 -323.7,-88 -324.3,-86.5 -325,-85 -325.7,-83.7 -325.8,-83.3 -326.2,-83 -326.5,-82.2 -326.8,-81.3 -327.7,-79.5 -328.3,-78 -329,-76.5 -329.2,-76.2 -329.3,-75.8 -329.7,-75.2 -330,-74.5 -330.3,-73.8 -330.5,-73.5 -330.7,-73.2 -330.8,-72.8 -331.5,-71.8 -332.3,-70.5 -333.3,-69 -334,-68.3 -334.5,-67.7 -335,-67.3 -335.5,-66.7 -336,-66.3 -336.5,-65.7 -337,-65.3 -337.3,-64.8 -337.8,-64.5 -338.5,-64 -340,-63.5 -341.5,-63 -343,-62.7 -344,-62.5 -344.7,-62.7 -345.3,-62.8 -346.3,-63 -348,-63.2 -349.5,-63.3 -350.7,-63.7 -351.3,-63.8 -351.8,-64.2 -352.7,-64.7 -353.5,-65.2 -354.3,-65.7 -354.7,-65.8 -355.2,-66.3 -355.7,-66.8 -356.3,-67.5 -356.7,-68 -357.3,-68.5 -358,-69.2 -358.7,-69.8 -359.3,-70.5 -359.7,-71 -360.2,-71.5 -360.8,-72.5 -361.8,-73.8 -362.7,-75.2 -363.2,-75.8 -363.8,-76.7 -364.7,-77.5 -365.3,-78.5 -366,-79.5 -366.7,-80.5 -367.8,-82 -368.8,-83.2 -369.8,-84.3 -370.3,-85 -371,-86 -371.8,-87.2 -373.2,-88.7 -374.2,-89.7 -375,-90.5 -375.5,-91 -376.3,-92 -377.5,-93.5 -378.8,-95.2 -380,-96.5 -380.8,-97.3 -381.5,-98 -382.5,-99.3 -383.7,-100.8 -385,-102.5 -386,-103.5 -386.8,-104.5 -388.2,-106 -389.5,-107.5 -391,-109 -391.8,-110 -392.5,-110.8 -393.7,-112.2 -395.2,-113.8 -396.8,-115.7 -398,-117 -399.3,-118.3 -400.7,-119.7 -401.8,-120.8 -402.5,-121.7 -403.7,-123 -405.5,-124.8 -407.3,-126.7 -408.7,-127.8 -409.3,-128.5 -410.5,-129.8 -412,-131.5 -413.5,-133.2 -415.3,-134.8 -416.8,-136.2 -418.3,-137.5 -419,-138.2 -420.2,-139.3 -421.5,-140.7 -423,-142.2 -424.3,-143.5 -425.5,-144.7 -427,-145.8 -428.8,-147.5 -430.7,-149.2 -432.2,-150.5 -433.5,-151.5 -435,-152.7 -436.3,-153.8 -437.2,-154.7 -438.7,-155.8 -440.2,-157 -441.5,-158 -443,-159.2 -444.5,-160.3 -446,-161.5 -446.5,-162 -447.2,-162.7 -448.5,-163.8 -449.8,-165 -451,-165.8 -452,-166.5 -453,-167.2 -454,-167.8 -455,-168.5 -456,-169.2 -457,-169.8 -457.5,-170.2 -458.2,-170.5 -459.5,-171.5 -460.8,-172.3 -462.8,-173.8 -464.2,-174.8 -466.3,-176.3 -467.5,-177.2 -469.2,-178 -469.8,-178.5 -471,-179 -472.2,-180 -474.2,-181 -475.7,-182 -477.3,-182.5 -478.2,-183 -481.2,-183.7 -485.8,-183.8 -490.7,-183.8 -493.3,-183.3 -494.7,-182.7 -496,-182 -497.3,-181.3 -497.7,-181.2 -498,-181 -498.8,-180.5 -499.7,-180 -501,-179 -502,-178.3 -503,-177.7 -503.3,-177.3 -504.3,-176.5 -505.3,-175.7 -507,-174.3 -508.2,-173.3 -509.5,-172.2 -510.3,-171.5 -511.2,-170.7 -511.8,-169.8 -512.7,-169 -513.3,-168.5 -514.3,-167.7 -515.7,-166.2 -517,-164.7 -517.8,-163.5 -518.2,-163 -518.5,-162.7 -519,-162.3 -520.2,-161.3 -521.3,-160.2 -522.5,-159 -523,-158.3 -523.7,-157.3 -524.8,-155.7 -526.2,-153.8 -527.3,-152.3 -527.8,-151.5 -528.2,-151 -529,-149.7 -530,-148.2 -530.8,-146.7 -531.2,-146 -532,-144.8 -532.8,-143.7 -533.7,-142.3 -534.3,-141.2 -535.3,-139.7 -536.2,-138.2 -536.7,-137.2 -537,-136.5 -537.8,-135.2 -538.7,-133.8 -539.8,-131.8 -540.8,-130.2 -541.7,-128.5 -542.2,-127.3 -542.8,-126.2 -543.7,-125 -544.8,-123.3 -545.5,-122.2 -546.3,-120.5 -547,-119.2 -547.8,-117.7 -549,-115.7 -550,-113.8 -550.8,-112.2 -551.2,-111.3 -551.8,-110.2 -552.8,-108.5 -554,-106.7 -554.8,-105.2 -555.3,-104 -556,-102.7 -556.8,-101 -558,-99.2 -559,-97.3 -560,-95.5 -561,-93.7 -562,-91.8 -562.7,-90.5 -563.2,-89.3 -563.8,-88 -564.8,-86.3 -566,-84.3 -567,-82.5 -568,-80.5 -569,-78.7 -570,-76.8 -570.8,-75.3 -571.8,-73.5 -572.8,-71.8 -574,-69.8 -574.8,-68.3 -575.8,-66.5 -576.8,-64.7 -578,-62.7 -579,-60.7 -579.8,-59 -580.5,-57.5 -581.5,-55.8 -582.7,-53.8 -584,-51.7 -585,-49.8 -586,-48 -586.8,-46.3 -587.8,-44.5 -588.8,-42.7 -590,-40.5 -591,-38.5 -591.8,-36.8 -593.2,-34.7 -594.5,-32.5 -596,-30 -597,-28 -597.8,-26.3 -598.5,-25 -599.5,-23.2 -600.8,-21 -602.5,-18 -603.7,-15.8 -604.5,-14 -605.7,-12.2 -607,-9.8 -608.7,-6.8 -610,-4.3 -611.2,-2.2 -612.5,0 -614,2.7 -615.5,5.3 -616.8,8 -618,10.3 -619.2,12.5 -620.5,14.8 -621.8,17 -623.5,20.2 -624.8,22.5 -626.2,25.2 -627.3,27.2 -628.5,29.3 -630,31.8 -631.7,34.5 -633.3,37.5 -634.8,40.2 -636.2,42.8 -637.8,45.7 -639.3,48.7 -640.8,51.2 -642.2,53.8 -643.3,55.8 -645,58.8 -646.5,61.2 -648.3,64.3 -650,67.3 -651.7,70.3 -653.5,73.8 -655,76.5 -656.5,79.5 -658,82 -659.5,85 -661,87.7 -662.5,90.3 -663.8,92.5 -665.7,95.5 -667,98 -669,101.5 -670.5,104.5 -672,107.2 -673.2,109.3 -674.7,111.7 -676.2,114.2 -677.8,116.7 -679.2,119.2 -680.3,121.3 -681.7,123.8 -682.8,125.7 -684.2,127.8 -685.2,129.7 -686.2,131.3 -687.2,133 -687.8,134.2 -689,136.2 -690.2,137.8 -691.3,139.5 -692.5,141 -693.3,142.3 -694.5,144.2 -695.2,145.3 -696.2,146.8 -696.8,147.8 -697.8,149.3 -698.8,150.8 -699.8,152.2 -700.3,153 -700.7,153.5 -701,154 -702.2,155.5 -703.2,157 -704.2,158.5 -704.7,159.2 -705.7,160.5 -706.7,161.7 -707.5,162.7 -707.8,163 -708.2,163.3 -708.7,164.2 -709.3,165.2 -710.7,167.5 -712,169.8 -713.3,172.7 -714,175.5 -714.2,179 -714.2,182.2 -713.7,185.2 -713.3,187 -713,188.7 -712.7,189.8 -712.3,191.2 -711.7,192.8 -711.2,194.3 -710.5,195.8 -709.8,197.5 -709.3,198.8 -708.8,200 -708.5,200.8 -708,201.7 -707.5,202.8 -707.2,203.7 -706.8,204.5 -706.7,205 -706,206.2 -705.5,207.3 -704.7,208.8 -704.3,209.7 -703.5,211 -702.7,212.2 -701.8,213.3 -701.3,214 -700.8,214.8 -700.3,215.7 -699.7,217 -698.8,218.5 -697.7,220.2 -696.7,221.3 -696.2,222 -695.5,223 -694.7,224.2 -693.5,225.5 -692.7,226.3 -691.5,227.8 -690.2,229.5 -688.7,231.3 -687.5,232.5 -686.5,233.5 -685.7,234.2 -684.5,235 -683,236 -681.5,237.2 -680.5,238 -679.3,239 -678.2,239.8 -676.8,240.7 -675.7,241.3 -674.2,242.3 -672.8,243.2 -671.7,243.8 -670.7,244.2 -669,245 -667.7,245.7 -666.5,246.3 -666,246.7 -664.8,247.2 -663.3,248 -661.8,248.8 -660.5,249.5 -659.5,250 -658,250.5 -657,251 -655.5,251.5 -654.5,251.8 -652.8,252.3 -651.7,252.7 -650.5,253.2 -649.7,253.5 -648.2,254 -646.7,254.5 -645.5,254.8 -644.3,255.2 -643.2,255.3 -642,255.5 -641.5,255.7 -640,256 -638.3,256.3 -636.7,256.5 -635.2,256.7 -633.7,257 -632.2,257.3 -631.5,257.5 -630.8,257.5 -629.5,257.7 -628.2,257.8 -626.8,258 -626.2,258 -625.5,258 -624.7,258.2 -624,258.5 -623.3,258.8 -622.5,259.3 -621,259.8 -619.7,260.5 -618.8,260.8 -618.7,261.2 -617.7,262.2 -616.8,263.3 -615.8,264.3 -615.7,264.8 -615.5,265.3 -615.3,265.8 -615,266.5 -614.7,267.3 -614.3,269 -614.2,270.3 -614,271.5 -614,272 -614,272.8 -614,273.8 -614,275 -614,276 -614,277 -614,277.8 -614,278.5 -614,279 -614,279.5 -614.2,280.8 -614.3,282.3 -614.5,284.3 -614.7,285.7 -614.8,287 -615,288 -615,289.3 -615,290.7 -615,292 -615,293 -615,294.3 -615,295.7 -615,297 -615,298.3 -615,299.7 -615,301.3 -615,302.7 -615,304 -614.8,305.3 -614.7,306.7 -614.5,307.8 -614.5,309.2 -614.5,310.5 -614.5,312.2 -614.3,314.2 -614.2,316 -613.8,317.7 -613.7,318.3 -613.5,319.2 -613.3,320.8 -613.2,322.5 -613,324 -612.8,324.7 -612.5,326.3 -612.2,328 -611.8,329.5 -611.5,330.8 -611.2,332.2 -610.8,333.5 -610.7,334 -610,335.7 -609.5,337.3 -608.8,339 -608.3,340.2 -607.7,341.3 -607.2,342.5 -606.5,343.7 -605.8,344.8 -605.2,346 -604.7,346.8 -604,348.2 -603,349.7 -602.2,350.8 -601.2,351.8 -600.5,352.7 -599.7,353.7 -599,354.5 -598,355.3 -597,356.2 -596,357 -594.8,358.2 -593.8,359 -593,359.7 -592,360.3 -591,361.2 -590,361.8 -589.5,362.2 -588.3,363 -587.2,363.8 -586,364.7 -585.2,365.2 -583.8,366.2 -582.5,367 -581.5,367.7 -580.8,368.2 -580,369 -579,370 -577.7,371.2 -576.5,372 -575.5,372.7 -574.8,373.2 -573.3,374.3 -571.8,375.5 -570.5,376.5 -569.8,377.2 -568.7,378.2 -567.5,379.2 -566.5,380 -565.3,381 -564.2,382 -563,383 -562.3,383.7 -561.2,384.7 -560,385.7 -559,386.5 -558.3,387.2 -557,388.3 -555.7,389.5 -554.5,390.5 -554,390.8 -552.8,391.7 -551.7,392.5 -550.5,393.5 -550,393.8 -548.8,394.7 -547.5,395.5 -546.2,396.3 -545.3,396.8 -544.5,397.5 -543.2,398.7 -542,399.5 -541,400.2 -540.3,400.7 -539.5,401.5 -538.5,402.5 -537.2,403.5 -535.8,404.3 -534.7,405 -533.8,405.7 -532.5,406.8 -531.2,408 -530,409 -529.5,409.3 -528.8,409.8 -528,410.5 -527,411.5 -525.5,412.8 -524.2,414 -523,415 -522.3,415.7 -521.7,416.2 -520.8,416.8 -520,417.5 -518.5,418.8 -517.2,420 -516,421 -515.3,421.7 -514.5,422.5 -513.8,423.3 -513.2,424.2 -512.5,424.8 -511.7,425.5 -510.7,426.3 -509.7,427.3 -508.8,428.3 -508.3,429 -507.7,430 -506.8,431 -506.2,432 -505.7,432.8 -505.2,433.7 -504.5,434.8 -504,435.7 -503.7,436.5 -503,437.7 -502.5,438.8 -501.7,440.5 -501.3,441.5 -500.8,442.5 -500.5,443.5 -500,444.5 -499.3,446.2 -498.7,447.3 -498.2,448.5 -497.8,449 -497.7,449.5 -497.3,450.5 -496.7,452 -496,453.5 -495,455.2 -494.5,456.3 -494,457.5 -493.8,458 -493.3,459.2 -492.5,460.5 -491.7,462.2 -491.2,463.2 -490.5,464.5 -489.7,466 -488.5,468 -487.5,470 -486.5,471.5 -485.7,472.8 -485,473.5 -484.5,474.5 -478,476.7 -470.7,478.2 -463.2,478.8 -461.2,477 -460,475.3 -458.7,473.5 -457.8,471.8 -456.8,469.5 -456.2,466.7 -455.5,464.2 -455,461.8 -454.7,460.3 -454.5,459 -454.5,458.5 -454.3,457.3 -454.2,455.8 -453.8,454.5 -453.7,453.7 -453.5,453.2 -453.5,452.5 -453.5,452 -453.5,451.5 -453.3,450 -453,448.5 -452.7,447 -452.5,446.5 -452.3,445.3 -452.2,443.8 -452,442.2 -451.8,441 -451.7,440.2 -451.5,439.5 -451.3,437.8 -451.2,436.2 -450.8,434.5 -450.7,433.8 -450.3,432.5 -450.2,430.8 -449.8,429.2 -449.7,428.2 -449.3,426.7 -449.2,425 -448.8,423.2 -448.7,422.2 -448.3,420.5 -448.2,419 -447.8,417.3 -447.5,415.8 -447.2,414 -446.8,412.2 -446.7,411.2 -446.3,409.5 -446.2,407.7 -445.8,405.8 -445.7,404.8 -445.3,403.2 -445,401.5 -444.7,399.8 -444.3,398 -444,396 -443.7,394.2 -443.3,392.5 -443,390.5 -442.7,388.3 -442.5,387.2 -442.2,385.5 -441.8,383.8 -441.5,382 -441.3,380.5 -441,378.5 -440.7,376.5 -440.5,375 -440.3,373.3 -440,371.8 -439.5,368.8 -439,366.5 -438.7,364.2 -438.3,362.7 -438,360.8 -437.7,358.8 -437.3,356.7 -437,354.8 -436.7,353.2 -436.3,351.7 -436,349.8 -435.7,347.8 -435.3,345.7 -435,343.8 -434.7,342.2 -434.3,340.7 -434,338.8 -433.7,336.8 -433.3,334.8 -433,332.7 -432.7,330.5 -432.5,329.2 -432.2,327.7 -431.8,325.8 -431.5,323.8 -431.2,321.8 -430.8,320.2 -430.3,317.7 -430.2,315.5 -429.8,313.5 -429.7,312.3 -429.3,310.7 -429,308.8 -428.7,307 -428.3,305 -428,303 -427.7,301.2 -427.3,299.5 -427,297.8 -426.7,296 -426.3,294 -426,292.2 -425.7,290.3 -425.3,288.7 -425,286.8 -424.7,285.2 -424.3,283.5 -424,281.5 -423.7,279.3 -423.5,278.2 -423.2,276.5 -422.8,274.8 -422.5,273.2 -422.3,271.5 -422,269.8 -421.7,268.2 -421.3,266.5 -421,264.8 -420.7,263.2 -420.3,261.7 -420,259.7 -419.7,257.7 -419.5,256.3 -419.3,254.7 -419,253 -418.7,251.3 -418.5,250.7 -418.2,249 -417.8,247.3 -417.5,245.7 -417.3,243.8 -417,242.2 -416.7,240.3 -416.5,239.7 -416.2,238 -415.8,236.3 -415.5,234.7 -415.3,232.8 -415,231.2 -414.7,229.3 -414.5,228.7 -414.3,226.8 -414,225.2 -413.7,223.3 -413.5,222.7 -413.2,221.2 -412.8,219.7 -412.5,218.2 -412.3,216.5 -412,215 -411.7,213.3 -411.5,212.7 -411.3,210.8 -411,209.2 -410.7,207.5 -410.5,206.8 -410.3,205.5 -410,204 -409.7,202.7 -409.3,201.2 -409.2,199.7 -408.8,198.2 -408.7,197.5 -408.3,196 -408.2,194.5 -407.8,192.8 -407.5,191.3 -407.2,189.8 -407,188 -406.8,187 -406.7,186 -406.5,185.5 -406.3,184 -406,182.5 -405.7,181 -405.3,179.7 -405.2,178.3 -404.8,177 -404.7,176.5 -404.3,175 -404,173.5 -403.7,172 -403.5,171.5 -403.2,170.5 -402.8,169.3 -402.3,167.5 -402,166.2 -401.7,165 -401.5,164.5 -401.2,163.5 -400.8,162.3 -400.5,161.2 -400.2,160 -399.8,159 -399.2,157.3 -398.8,156.2 -398.5,155 -398.2,154 -397.8,152.8 -397.3,151.2 -397,150 -396.5,148.3 -396,147.2 -395.7,146 -395.2,144.8 -394.8,143.7 -394.2,142 -393.8,140.8 -393.2,139.2 -392.8,138 -392.3,136.8 -392,135.8 -391.3,134.3 -390.8,132.8 -390.2,131.2 -389.8,130 -389.2,128.3 -388.8,127.2 -388.2,125.5 -387.7,124.3 -387.2,123 -386.8,122.2 -386,120.2 -385.2,118.3 -384.2,115.8 -383.8,114.7 -383.2,112.8 -382.7,111.5 -382.2,110.2 -381.5,108.5 -380.8,106.8 -380.2,105.2 -379.8,104.3 -379.2,102.5 -378.5,100.7 -377.7,98.3 -377.3,97.2 -376.7,95.5 -376,94 -375.2,92 -374.5,90.3 -374,88.5 -373.5,87.2 -372.8,85.3 -372.3,84.2 -371.7,82.3 -371.2,80.5 -370.5,78.7 -370.2,77.3 -369.7,76.3 -369.2,74.7 -368.5,73.2 -367.8,71.3 -367.3,70.2 -366.7,68.3 -366.3,67.2 -365.7,65.5 -365.2,64 -364.5,62.3 -364,60.7 -363.5,59.3 -363.2,58.2 -362.5,56.5 -362,55 -361.2,52.8 -360.7,51.5 -360.2,50.2 -359.5,48.5 -359,47 -358.2,44.7 -357.8,43.3 -357.3,41.8 -357.2,41.2 -356.5,39.5 -356,38 -355.3,36.3 -355.2,35.7 -354.5,33.8 -354,32.2 -353.3,30.3 -353.2,29.7 -352.5,27.8 -352,26.2 -351.3,24.3 -351.2,23.7 -350.5,22 -349.8,20.5 -349,18.5 -348.5,17.3 -348,15.7 -347.5,14.3 -347,12.7 -346.5,11.5 -346.2,10.3 -345.7,9.3 -345.2,7.8 -344.5,6.3 -344,4.7 -343.5,3.5 -343.2,2.3 -342.7,1.3 -342.2,-0.2 -341.7,-1.5 -341.3,-2.5 -341,-3.7 -340.5,-4.8 -340,-6.5 -339.7,-7.5 -339.3,-8.5 -339,-9.5 -338.7,-10.5 -338.3,-11.5 -337.8,-12.7 -337.3,-13.8 -337,-15 -336.5,-16.5 -336,-18 -335.3,-19.3 -335.2,-19.7 -334.7,-20.7 -334,-22.3 -333,-24 -332.3,-25 -331.8,-25.3 -330.7,-26.3 -329.5,-27.3 -328.3,-28.3 -328,-28.5 -327.7,-28.7 -327,-29 -326.3,-29.3 -325.7,-29.7 -325.3,-29.8 -324.3,-30.2 -323,-30.5 -321.7,-30.8 -320.8,-31 -319.7,-31 -318.3,-31 -317,-30.8 -316.2,-30.7 -315.7,-30.3 -315.3,-30.2 -314.5,-29.8 -313.3,-29.5 -311.7,-28.7 -310.5,-28 -309.5,-27.5 -309.2,-27.3 -308.8,-27.2 -308.5,-27 -308.2,-26.8 -307.7,-26.5 -307,-25.8 -306.2,-25.3 -305.2,-24.7 -304.3,-24.2 -303.5,-23.7 -303.2,-23.3 -302.3,-22.5 -301.3,-21.3 -300.2,-20.3 -299.3,-19.7 -298.5,-19.2 -297.8,-18.5 -297.2,-18 -296.5,-17.3 -295,-16.3 -293.7,-15.3 -292.7,-14.5 -292.3,-14.2 -292,-13.8 -291.5,-13.7 -290.8,-13.2 -289.2,-11.8 -287.5,-10.3 -286,-9.2 -285.5,-8.8 -285,-8.3 -283.8,-7.2 -282.7,-6 -281.5,-5.2 -280.7,-4.5 -279.8,-3.8 -279,-3 -278.5,-2.5 -277.8,-1.8 -277.3,-1.2 -276.7,-0.5 -276,0.2 -275,1 -273.5,2.3 -271.8,3.7 -270.3,4.8 -269.7,5.5 -269.3,6 -269,6.5 -268.3,7 -267,8 -265.7,9 -264.5,10 -264,10.5 -263.3,11.2 -262.5,12 -261.5,13 -260,14.3 -258.7,15.5 -257.3,16.5 -256.5,17.2 -255.5,18 -254.5,19 -253,20.3 -251.7,21.5 -250.5,22.3 -250,22.7 -248.5,23.7 -247,24.8 -245.5,26 -245,26.5 -244.3,27.2 -242.8,28.3 -241.3,29.5 -240,30.5 -239.3,31.2 -238,32.3 -236.5,33.5 -235.2,34.5 -233.8,35.5 -232.7,36.7 -230.7,38.3 -229.3,39.5 -228,40.5 -227.5,41 -226.2,42 -224.8,43 -223.5,44 -222.8,44.5 -221.5,45.7 -220.2,46.8 -218.2,48.5 -216.8,49.7 -215,51.2 -213.8,52.2 -212.7,53 -212,53.5 -210.7,54.7 -208.8,56.2 -207,57.8 -205.8,58.8 -205,59.7 -203.8,60.7 -202.2,62 -200.7,63.2 -199.2,64.3 -198,65.5 -196.8,66.7 -195.2,68 -193.8,69 -192,70.3 -190.8,71.3 -189.7,72.3 -188,73.7 -186.5,74.8 -184.8,76 -184,76.7 -182.8,77.7 -181.2,79.2 -179.7,80.5 -178.2,81.7 -177,82.7 -175.3,84 -174,85.2 -172.8,86 -171.2,87.2 -169.5,88.3 -167.5,90 -166.3,91 -165.2,92 -164.5,92.5 -163.3,93.5 -162.2,94.5 -160.7,95.8 -158.8,97.2 -157,98.5 -155.5,99.5 -154.8,100 -154,100.7 -152.5,102 -150.5,103.7 -148.7,105.2 -147.3,106 -146,107 -144.7,107.8 -143.3,108.7 -142.2,109.3 -140.5,110.3 -138.7,111.5 -137.2,112.3 -135.7,113.3 -134,114.3 -132.5,115.2 -131,115.8 -129.7,116.5 -127.8,117.5 -126,118.3 -124.3,119 -123.2,119.5 -122,120 -119.8,120.8 -117.7,121.5 -115.8,122.2 -114.5,122.5 -113,123 -111.5,123.3 -110.3,123.8 -108.7,124.3 -106.3,125.2 -104.3,125.7 -102.8,126 -101.3,126.3 -99.8,126.7 -97.7,127.2 -95.8,127.5 -94,127.8 -92.8,128 -91,128.2 -89,128.5 -87.2,128.8 -85.5,129.2 -83.5,129.3 -81.5,129.5 -80.3,129.5 -78.8,129.8 -76.8,130.2 -74.7,130.5 -72.8,130.5 -71,130.5 -69,130.5 -67.3,130.7 -66.2,130.8 -64.7,131.2 -62.8,131.3 -60.5,131.5 -58.5,131.5 -56.7,131.5 -55,131.7 -53.3,131.8 -51.5,132 -49.5,132 -47.8,132 -45.8,132.2 -43.8,132.3 -41.5,132.5 -39.7,132.7 -37.8,132.8 -36,133 -34,133 -32,133 -30,133 -28.3,133 -27,133.2 -25,133.5 -22.7,133.8 -20,134 -18,134 -16,134 -14,134 -12.3,134.2 -11,134.3 -9,134.7 -6.7,134.8 -4,135 -2,135 0,135 2,135.2 4,135.3 5.7,135.5 7,135.5 9,135.7 11.3,135.8 14,136.2 15.5,136.3 17.7,136.5 19.5,136.5 21.8,136.5 23,136.5 25,136.7 26.8,137 29.3,137.3 31.2,137.5 33.3,137.5 35,137.5 36.8,137.5 38.5,137.5 40.2,137.7 42.2,138 44.2,138.3 46.5,138.5 48.7,138.5 50.8,138.5 53,138.5 55,138.5 57,138.5 58.7,138.7 60,138.8 61.8,139.2 64,139.3 66.5,139.5 68.5,139.5 70.7,139.5 72.8,139.5 74.5,139.5 76,139.7 77.2,139.8 79.3,140.2 81.5,140.3 84,140.5 86.2,140.5 88,140.5 89.8,140.5 91.5,140.5 93.7,140.7 95.3,140.8 96.7,141 98.2,141.2 100.3,141.3 102.8,141.5 105,141.5 107.2,141.5 108.8,141.7 110.5,141.8 112,142 113.7,142 115,142 116.8,142.2 119,142.3 121.5,142.5 123.2,142.5 124.8,142.5 126.7,142.7 128.8,142.8 130.5,143 132,143 133.2,143 135.3,143.2 137,143.3 139.3,143.5 141,143.5 143.2,143.7 145.2,143.8 147,144 148.3,144 149.2,144 150.8,144.2 153,144.3 155.5,144.5 157.2,144.5 158.8,144.7 160.2,144.8 162.3,145.2 164,145.3 166,145.5 167.7,145.5 169.3,145.5 171,145.5 172.7,145.5 174.8,145.5 176.5,145.5 177.7,145.7 179.3,146 181.7,146.3 183.8,146.5 185.5,146.5 187.2,146.5 188.8,146.5 190.7,146.5 191.8,146.5 193.3,146.5 194.2,146.5 196,146.8 198,147.2 200.5,147.5 202.2,147.5 204,147.5 205.3,147.5 207,147.5 208.2,147.5 209.3,147.5 211.2,147.7 213.3,147.8 215.5,148.2 217.2,148.3 219,148.5 220.8,148.5 222.2,148.5 223,148.5 224.7,148.7 226.8,148.8 229,149 230.8,149 232.2,149.2 234,149.3 235.3,149.5 237,149.5 238,149.5 239.2,149.5 241,149.7 242.8,149.8 245.2,150 247,150 248.8,150 250.5,150.2 251.5,150.3 253.2,150.5 255,150.5 256.8,150.5 258.2,150.5 258.8,150.5 260.5,150.7 262.7,150.8 264.8,151 266.7,151 267.8,151 269.5,151 271.2,151.2 272.8,151.3 274.2,151.5 274.8,151.5 276.5,151.7 278.7,151.8 280.8,152 282.5,152 283.5,152 285.2,152 286.3,152 288.2,152 289.3,152 291,152 292,152 293.2,152.2 294.8,152.5 296.8,152.8 299.3,153 300.8,153 302.5,153 303.5,153 305,153 306.3,153 307.8,153 308.8,153 309.5,153 311,153.2 312.8,153.3 315.2,153.5 316.5,153.7 318.2,153.8 319.3,154 320.8,154 322,154 323.2,154 324,154 324.5,154 326.2,154.2 328,154.3 330,154.5 330.8,154.5 331.8,154.5 332.8,154.7 334,154.8 335,155 336,155 337,155 338,155 339,155 339.8,155 340.5,155 341,155 342.5,155.2 344.2,155.3 346,155.5 346.7,155.7 347.3,155.8 348,156 349,156 349.8,156 351.2,156.3 352.5,156.7 354.3,157.3 355.5,157.7 356.3,158.2 356.7,158.3 357,158.5 357.3,158.7 358.2,159.2 359.2,160 360.3,160.7 361.2,161.5 362,162.7 362.8,163.8 363.5,164.8 364.2,166 364.8,167.5 365.3,168.8 365.7,170.3 365.8,171.8 366,173.3 366,174.5 366,175.7 366,177 366,178.3 366,179.7 366,181 366,181.8 366,182.5 365.8,183.8 365.7,185.7 365.5,187.7 365.5,189 365.7,190.7 365.8,192.2 366.2,193.7 366.3,194.3 366.5,195.2 366.7,196.7 366.8,198.2 367,199.5 367.3,200.8 367.7,202.2 368.2,203.5 368.5,204.5 369,205.8 369.5,207.2 369.8,208 370,208.5 370.2,208.8 370.8,210.2 371.7,211.5 372.3,213 373,214 373.5,215 374.2,215.8 374.3,216.2 375.2,217.2 376,218.3 376.8,219.5 377.2,219.8 377.5,220.2 378.2,221 379,222.2 380,223.3 381.5,224.5 382.7,225.5 383.7,226.5 384,226.8 384.5,227.2 385.7,228 386.8,228.8 388,229.7 389,230.2 389.8,230.8 391,231.7 391.7,232.2 392.8,232.8 393.7,233.2 395.5,234 397,234.5 398.5,235 399.5,235.3 400.5,235.7 401.5,236.2 402.8,236.5 404.2,236.8 405.5,237.2 406,237.3 407.3,237.7 409,237.8 410.8,238 412,238.2 412.8,238.3 413.7,238.5 414.3,238.5 415.8,238.7 417.3,238.8 419.3,239 420.5,239 421.8,239 422.8,239 424.2,239 425.5,239 426.7,239 427.5,239 428.2,239 429.7,239.2 431.3,239.3 433.3,239.5 434.7,239.5 435.8,239.5 437.2,239.5 438.5,239.7 440.3,239.8 441.5,240 442.8,240 444,240 445.2,240 446,240 447.5,240.2 449.2,240.3 451.3,240.5 452.7,240.5 454.3,240.5 455.5,240.5 457,240.5 458.3,240.5 460.2,240.5 461.5,240.7 462.7,240.8 463.3,241 465,241.2 466.8,241.3 469.2,241.5 470.5,241.5 472.2,241.5 473.3,241.5 475,241.5 476.5,241.5 478.3,241.5 480,241.5 481.3,241.7 482.3,241.8 484.2,242.2 486,242.3 488.3,242.5 490.2,242.5 491.8,242.5 493.3,242.5 494.8,242.5 496.3,242.5 498,242.5 499.5,242.5 501,242.7 502.2,242.8 504,243.2 505.8,243.3 508.2,243.5 509.8,243.5 511.5,243.5 513,243.5 514.5,243.5 516.3,243.5 517.8,243.5 519,243.7 520.8,244 522.8,244.3 525.2,244.5 527,244.5 528.5,244.5 530,244.5 531.5,244.5 533.3,244.5 534.8,244.5 536,244.7 537.7,245 539.7,245.3 542,245.5 544,245.5 545.5,245.5 547,245.5 548.7,245.5 550.3,245.5 552.2,245.5 553.5,245.7 554.8,245.8 556.5,246.2 558.5,246.3 560.7,246.5 562.3,246.5 563.5,246.5 565,246.5 566.7,246.5 568.3,246.5 570,246.5 571.2,246.7 572.3,246.8 574,247.2 576,247.3 578.3,247.5 580.2,247.5 581.7,247.5 583.3,247.5 585,247.5 586.7,247.5 588.3,247.7 589.7,247.8 590.8,248 592.5,248.2 594,248.3 596.2,248.5 598,248.5 599.8,248.5 601.5,248.5 602.5,248.5 604.2,248.7 605.3,248.8 606.7,249 608.3,249.2 610,249.3 612.2,249.5 613.3,249.5 615.2,249.5 616.3,249.5 618.2,249.5 619.3,249.7 621,249.8 622,250 623.2,250 624.7,250.2 626.7,250.3 628.5,250.5 630.2,250.5 631.3,250.5 633.2,250.5 634.3,250.5 636.2,250.7 637.3,250.8 638.8,251 639.8,251 640.8,251 641.5,251 643.2,251.2 645,251.3 647,251.5 648.3,251.5 649.7,251.5 650.8,251.5 651.8,251.5 652.8,251.5 653.8,251.5 654.8,251.5 655.8,251.5 657.7,251.5 659.3,251.5 661,251.5 661.8,251.5 662.8,251.5 664.5,251.3 666.2,251 668.2,250.3 669.3,249.8 670.5,249.5 671.3,249.2 672.5,248.7 674.7,247.2 676.8,245.5 678.7,244 679.3,243.3 680.2,242.5 681.2,241 682.3,239.7 683,238.8 683.3,238.5 684.5,236.8 685.5,235.2 686.7,233.5 687,233 687.3,232.5 688,231.5 688.5,230.5 689.2,229.7 689.8,228.8 690.5,228 691.2,227 691.3,226.5 691.7,226 692.7,224.5 693.7,223 694.7,221.5 695,221 695.3,220.5 696,219.5 696.7,218.5 697.8,217 698.5,215.8 699.2,214.7 700,213.2 700.8,211.8 701.7,210.5 702,210 702.5,209.5 703.3,208.2 704.2,206.8 705,205.5 705.5,205 705.8,204.3 706.7,203 707.5,201.7 708.8,200 709.8,198.7 710.7,197.3 711.2,196.5 711.8,195.3 712.7,194.2 713.3,193 713.7,192.5 714.5,191.2 715.3,189.8 716.2,188.3 716.5,187.7 717.3,186.2 718.2,184.8 719,183.5 719.3,182.8 720,181.7 720.8,180.2 721.7,178.8 722.2,178 722.7,176.7 723.5,174.8 724.2,173 724.5,171.8 724.8,170.8 725.3,169.3 725.8,167.8 726.3,166 726.7,164.7 727,163.5 727.2,162.2 727.3,160.8 727.5,159.5 727.7,157.8 727.8,156 728,154.2 728,152.8 728,151.5 728,150.2 727.8,148 727.7,146 727.3,144 727.2,143.3 727,142.7 727,141.8 726.8,140 726.5,138 726,135.2 725.7,133.5 725.5,132 725.5,131.3 725.3,130.7 725.2,129.8 724.8,128 724.7,126.2 724.3,124.3 724.2,123.7 723.8,122 723.7,120.3 723.5,118.7 723.3,118 723.2,117.2 722.8,115.3 722.7,113.3 722.5,111.7 722.3,110.8 722.2,110.2 722,109.2 721.8,107.2 721.5,105.2 721.2,103.3 721,102.7 720.8,100.8 720.7,99.2 720.3,97.3 720.2,96.7 719.8,94.7 719.7,92.8 719.3,90.8 719.2,90.2 719,89.2 718.8,87.3 718.7,85.3 718.3,83.7 718.2,82.8 718,82 717.8,79.8 717.7,77.8 717.3,75.8 717.2,75.2 717,74.3 716.8,72.5 716.7,70.5 716.3,68.7 716.2,67.8 716,67.2 716,66.8" style="stroke: rgb(55, 65, 81); stroke-width: 10;"></polygon><polyline vector-effect="non-scaling-stroke" fill="none" points="715,61.3 714.8,60.5 714.5,59 714.5,58.5 714.5,58 714.5,57.5 714.5,57 714.2,55 713.8,53 713.5,51 713.5,50.5 713.5,50 713.5,49.5 713.5,49 713.2,47.3 712.8,45.7 712.5,44 712.5,43.5 712.5,43 712.5,42.5 712.5,42 712.5,41.2 712.2,39.3 711.8,37.5 711.5,36 711.5,35.5 711.5,35 711.5,34.5 711.5,33.5 711.2,31.7 710.8,29.8 710.5,28.5 710.5,28 710.5,27.5 710.3,26 710,24.5 709.7,22.8 709.5,22.2 709.5,21.5 709.5,21 709.5,20.2 709.2,18 708.8,15.8 708.5,14 708.5,13.5 708.5,12.8 708.5,12 708.5,11.2 708.2,9.3 707.8,7.5 707.5,5.7 707.5,5 707.5,4.2 707.2,2.5 706.8,0.8 706.5,-0.5 706.5,-1.2 706.5,-2 706.5,-2.8 706.2,-4.8 705.8,-6.7 705.5,-8.5 705.5,-9.2 705.5,-10 705.2,-11.8 704.8,-13.7 704.5,-15.3 704.5,-16.2 704.5,-17 704.2,-18.8 703.8,-20.7 703.5,-22.3 703.5,-23.2 703.3,-24.8 703.2,-26.5 702.8,-28.2 702.7,-28.8 702.5,-29.7 702.5,-30.7 702.3,-32.7 702,-34.7 701.7,-36.3 701.5,-37.2 701.5,-37.8 701.5,-38.8 701.2,-40.7 700.8,-42.5 700.5,-44.2 700.5,-44.8 700.5,-45.8 700.3,-47.7 700,-49.5 699.7,-51.8 699.5,-52.3 699.3,-54.5 699,-55.8 698.7,-58 698.5,-58.7 698.3,-60.5 698.2,-62.5 697.8,-64.3 697.7,-65 697.5,-65.7 697.5,-66.8 697.3,-69.2 697,-71.3 696.7,-73 696.5,-73.7 696.5,-74.3 696.5,-75 696.2,-76.8 695.8,-78.7 695.5,-80.7 695.5,-81.3 695.3,-83 695.2,-84.7 694.8,-86.3 694.7,-87.2 694.5,-87.8 694.5,-88.8 694.3,-90.8 694,-92.8 693.7,-94.5 693.5,-95.2 693.5,-95.8 693.5,-97.2 693.2,-99.2 692.8,-101.2 692.5,-102.7 692.5,-103.3 692.5,-104 692.2,-106 691.8,-108 691.5,-110.2 691.5,-110.8 691.5,-111.5 691.2,-113.2 690.8,-114.8 690.5,-116.5 690.5,-117.2 690.5,-117.8 690.3,-119.2 690,-121.3 689.7,-123.5 689.5,-125.2 689.5,-125.8 689.5,-126.5 689.3,-127.7 689.2,-128.8 688.8,-131 688.7,-132.7 688.5,-134.3 688.3,-135.2 688,-136.8 687.7,-138.5 687.5,-140.2 687.5,-140.8 687.3,-141.5 687,-143.2 686.7,-144.8 686.5,-146.7 686.5,-147.3 686.5,-148 686.3,-149.2 686,-151.3 685.7,-153.5 685.5,-155.2 685.5,-155.8 685.5,-156.5 685.2,-158.3 684.8,-160.2 684.5,-162.2 684.5,-162.8 684.5,-163.5 684.3,-164.7 684.2,-165.8 683.8,-168 683.7,-169.7 683.5,-171.3 683.5,-172 683.3,-172.7 683,-174.5 682.7,-176.5 682.5,-178.3 682.5,-179 682.3,-179.7 682,-181.5 681.7,-183.3 681.5,-185.2 681.5,-185.8 681.5,-186.5 681.2,-188.2 680.8,-189.8 680.5,-191.5 680.5,-192.2 680.5,-192.8 680.3,-194.2 680,-196.3 679.7,-198.5 679.5,-200.2 679.5,-200.8 679.3,-201.5 679.2,-202.7 679,-203.8 678.8,-206 678.7,-207.7 678.5,-209.3 678.3,-210 678,-211.7 677.7,-213.3 677.5,-215 677.5,-215.7 677.3,-216.3 677,-218.2 676.7,-219.8 676.5,-221.5 676.5,-222.2 676.3,-222.8 676.2,-223.5 676,-224.8 675.8,-227.2 675.7,-229.5 675.3,-231.2 675.2,-231.8 675,-232.5 674.8,-234.2 674.7,-235.8 674.5,-237.5 674.3,-238.2 674.2,-238.8 674,-239.8 673.8,-241.8 673.7,-243.8 673.3,-245.5 673.2,-246.2 672.8,-247.8 672.7,-249.5 672.5,-251.2 672.5,-251.8 672.3,-252.5 672.2,-253 671.8,-255 671.7,-257 671.5,-259 671.3,-259.7 671.2,-260.3 670.8,-262 670.7,-263.5 670.5,-265.2 670.5,-265.8 670.3,-266.5 670.2,-267 669.8,-269 669.7,-271 669.5,-273 669.3,-273.5 669.2,-274.2 668.8,-275.8 668.7,-277.5 668.5,-279 668.5,-279.5 668.3,-280.2 668.2,-280.8 668,-281.8 667.8,-283.7 667.7,-285.7 667.5,-287.3 667.3,-288 667.2,-288.5 667,-289 666.8,-291 666.7,-293 666.5,-295 666.3,-295.5 666.2,-296 665.8,-297.5 665.7,-299 665.5,-300.5 665.5,-301 665.3,-301.5 665.2,-302 664.8,-303.8 664.7,-305.7 664.5,-307.5 664.5,-308 664.5,-308.5 664.3,-309 664.2,-310 663.8,-312.2 663.7,-314.3 663.5,-316 663.5,-316.5 663.3,-317 663.2,-317.5 663,-318 662.8,-319.8 662.7,-321.7 662.5,-323.5 662.3,-324 662.2,-324.5 661.8,-326 661.7,-327.5 661.5,-329 661.3,-329.5 661.2,-330 661,-330.7 660.8,-332.5 660.7,-334.3 660.5,-336 660.3,-336.5 660.2,-337 660,-337.5 660,-338 659.8,-339.7 659.5,-341.3 659.2,-343 659,-343.5 659,-344 659,-344.5 659,-345.2 658.8,-346 658.5,-347.8 658.2,-349.5 658,-351 658,-351.7 657.8,-353.2 657.5,-354.8 657.2,-356.3 656.7,-358 656.3,-359.7 655.7,-362.2 655.2,-363.5 654.7,-364.7 653.8,-366.3 651,-369.5 648.2,-372.7 645.8,-374.3 645.7,-374.7 644.5,-375 643.5,-375.5 642.3,-375.8 639,-376 634.2,-375.8 628.8,-375.7 626,-375.5 624,-375.5 622,-375.5 620.3,-375.5 618.7,-375.7 617.3,-375.8 616,-376 614.8,-376.2 613.5,-376.3 612.2,-376.5 611,-376.5 610,-376.5 609.2,-376.5 608.5,-376.7 607.8,-376.8 606.3,-377.3 604.8,-377.7 603.5,-378 603,-378 602.5,-378.2 601.5,-378.5 600.5,-378.8 599.5,-379.2 598.3,-379.5 597.2,-379.8 596,-380.2 595.5,-380.3 595,-380.5 593.5,-381.2 592,-381.8 590.2,-382.8 588.8,-383.3 587.5,-383.8 586.5,-384.2 586,-384.3 585.5,-384.7 585,-384.8 584.5,-385.2 583.3,-385.8 582.2,-386.7 581,-387.3 580,-388 578.5,-389 577,-390 576,-390.7 575.5,-391 574.8,-391.5 574,-392.2 573.2,-392.7 572.3,-393.3 571.7,-393.8 571.2,-394.5 570.8,-394.8 570,-395.8 568.8,-397 567.7,-398.2 566.8,-398.8 566.2,-399.5 565.3,-400.5 564.5,-401.5 563.3,-402.7 562.3,-403.7 561.7,-404.5 561,-405.5 560.3,-406.5 559.7,-407.5 558.8,-408.7 558,-409.8 557.2,-411 556.8,-411.5 556.2,-412.5 555.5,-413.5 554.7,-414.7 554,-415.7 553.3,-416.7 552,-418.7 550.7,-420.5 548.3,-423 546.7,-424.5 544,-426.3 542.2,-427.3 539.8,-428.3 538.7,-428.7 536.5,-429.2 534.8,-429.5 533,-429.8 532,-430 530,-429.8 528.2,-429.7 526,-429.2 525,-428.8 524,-428.5 522.5,-428 520.5,-427.2 518.5,-426.2 516.5,-424.7 515,-423.5 513.7,-422.3 512.7,-421.2 511.7,-419.5 510.3,-417.5 509.8,-416.3 509.3,-415.5 508.8,-414.3 508.3,-413.2 507.8,-411.3 507.5,-410.2 507.2,-408.8 506.8,-407.5 506.7,-406.2 506.3,-405 506.2,-404.5 505.8,-403.3 505.7,-401.8 505.5,-400.3 505.5,-399.5 505.5,-399 505.5,-398.5 505.2,-397.2 504.8,-395.7 504.5,-394 504.5,-393.2 504.5,-392.5 504.5,-392 504.5,-391.5 504.3,-390.2 504,-388.7 503.7,-386.8 503.5,-385.8 503.5,-385 503.5,-384.5 503.3,-383 503.2,-381.2 502.8,-379.2 502.7,-378 502.5,-377 502.5,-376.2 502.5,-375.5 502.3,-373.8 502.2,-372.2 501.8,-370.2 501.7,-368.8 501.5,-367.5 501.5,-366.3 501.5,-365.7 501.3,-364.2 501.2,-362.5 501,-360.5 500.8,-358.8 500.7,-357.5 500.5,-356.3 500.5,-355.7 500.3,-353.8 500.2,-352 500,-349.7 500,-348.3 500,-346.7 500,-345.5 500,-343.8 500,-342.7 500,-341 500,-339.7 500,-337.8 500,-336.3 500,-334.7 500.2,-333.2 500.3,-331.3 500.5,-329.7 500.7,-327.5 500.8,-325.7 501,-324 501,-323.2 501.2,-322 501.3,-320.7 501.7,-318.3 501.8,-316.3 502.2,-314.7 502.5,-313 502.8,-311.5 503.2,-309.8 503.5,-308.2 503.8,-306.5 504.2,-304.8 504.5,-303.2 505.2,-301 505.7,-298.8 506.2,-297.7 506.3,-296.8 506.8,-295.2 507.2,-293.5 507.8,-291.2 508.3,-289.2 509.2,-286.8 509.7,-285.2 510.2,-284.2 510.8,-282.5 511.5,-280.8 512.2,-279.2 512.8,-277.3 513.5,-275.5 514.2,-273.7 514.7,-272.3 515.5,-270.3 516.3,-268.3 517.2,-266.5 517.7,-265.3 518.3,-263.5 518.8,-262.2 519.5,-260.3 520,-259 520.8,-256.7 521.5,-255 522.2,-253.3 522.8,-251.7 523.7,-249.5 524.5,-247.3 525,-246.2 525.8,-244.5 526.5,-242.8 527.2,-241 527.8,-239 528.7,-236.7 529.5,-234.3 530,-233 530.8,-231.2 531.5,-229.3 532.3,-227.2 533,-225.5 533.8,-223.8 534.5,-221.8 535.2,-219.8 535.8,-217.8 536.8,-215.5 537.5,-213.5 538.3,-211.2 538.8,-209.8 539.7,-208 540.2,-206.5 541,-204.2 541.8,-202 542.7,-199.8 543.2,-198.5 543.8,-196.5 544.7,-194.5 545.3,-192.5 546,-190.5 546.7,-188.5 547.3,-186.5 547.8,-184.8 548.2,-183.2 549,-180.5 549.7,-178.5 550.3,-176.5 550.8,-174.8 551.2,-173.2 551.7,-171.7 552,-170.2 552.5,-168.7 553,-166.3 553.5,-164.7 554,-162.3 554.5,-160.7 555,-158.3 555.3,-156.7 555.7,-155 556,-153 556.5,-151 557,-148.3 557.3,-146.7 557.5,-145 557.8,-143 558.2,-141 558.5,-139 558.5,-138.2 558.8,-136 559.2,-133.8 559.5,-131.5 559.5,-130.5 559.7,-128.2 560,-125.8 560.3,-123.5 560.5,-122.5 560.7,-120.2 560.8,-117.8 561,-115.5 561.2,-114.7 561.3,-113.5 561.5,-112 561.7,-109.3 561.8,-107 562,-105.2 562,-104.3 562,-103.2 562,-101.7 562,-99.8 562.2,-97.3 562.5,-95.2 562.8,-93.3 563,-92.5 563,-91.3 563,-89.8 563,-88.3 563,-86.8 563,-85.5 563,-84 563,-82.5 563.2,-80.2 563.3,-78.2 563.5,-76.3 563.5,-75.7 563.5,-74.5 563.5,-73.3 563.5,-72 563.5,-70.7 563.5,-69.3 563.5,-68 563.5,-67.2 563.5,-66.5 563.5,-66 563.3,-64.7 563,-63.3 562.7,-62 562.5,-61.5 562.3,-60.3 562,-59.2 561.7,-58 561.5,-57.5 561.3,-57 561.2,-56.5 560.8,-56 560.7,-55.5 560,-54.5 559.5,-53.5 558.8,-52.5 558.7,-52 558.2,-51.3 557.7,-50.8 557,-50.2 556.3,-49.5 555.5,-48.5 554.7,-47.8 553.8,-47.2 553.2,-46.5 552.3,-45.5 551.7,-44.8 551,-44.3 550.5,-44 550,-43.7 549.2,-43.2 547.8,-42.3 546.5,-41.5 545.5,-40.8 545,-40.5 544.2,-40 543.3,-39.5 542.2,-38.8 541.2,-38.3 540.2,-37.8 539,-37.5 538,-37 536.3,-36.5 535.2,-36 534,-35.7 533.5,-35.5 532.2,-35.2 530.8,-34.8 529,-34.3 527.8,-34 526.7,-33.7 525.8,-33.5 524.2,-33.3 522.5,-33 520.8,-32.7 520.2,-32.5 519.2,-32.5 517.5,-32.3 515.7,-32.2 514,-32 513,-32 511.8,-32 510.5,-32 508.8,-32 507.3,-32 505.7,-32 504.2,-32 502.5,-32 500.8,-32 499,-32.2 497.3,-32.3 495.8,-32.5 494.7,-32.5 493.7,-32.5 492,-32.7 489.8,-32.8 487.3,-33 485.5,-33 483.8,-33.2 482.2,-33.3 480.7,-33.5 478.7,-33.7 477,-33.8 475,-34 473.5,-34 471.5,-34 469.3,-34.2 467.5,-34.3 466,-34.5 464.2,-34.7 462,-34.8 459.5,-35 457.5,-35 455.5,-35 453.5,-35 451.5,-35.2 449.8,-35.3 447.7,-35.7 445.3,-35.8 443,-36 441.2,-36 439.5,-36 437.5,-36 435.5,-36 433.8,-36.2 431.8,-36.5 429.8,-36.8 427.2,-37 424.8,-37 422.5,-37 420.5,-37 418.5,-37 416.8,-37.2 414.3,-37.5 411.7,-37.8 409,-38 407.2,-38 405.3,-38 402.8,-38 400.7,-38 399,-38.2 397.2,-38.5 394.8,-38.8 391.8,-39 389.3,-39 386.8,-39 384.7,-39 382.5,-39.2 380.8,-39.3 378.3,-39.7 375.7,-39.8 372.8,-40 370.5,-40 368.2,-40 366,-40 364,-40.2 362.5,-40.3 359.5,-40.7 357,-40.8 354.2,-41 352.3,-41 349.8,-41 347.2,-41.2 345,-41.3 342.7,-41.7 340.2,-41.8 337,-42 334.3,-42 331.8,-42.2 329.5,-42.3 327.3,-42.5 324.8,-42.7 322,-42.8 318.8,-43 316,-43.2 313.5,-43.3 311,-43.5 309,-43.5 306.2,-43.7 303.2,-43.8 300,-44 297.5,-44.2 295,-44.3 292.7,-44.5 290,-44.7 287.3,-44.8 283.8,-45.2 281.3,-45.3 278.8,-45.5 277,-45.5 273.8,-45.7 270.7,-45.8 267.7,-46.2 265.2,-46.3 262.7,-46.5 260,-46.5 256.8,-46.7 253.7,-47 249.8,-47.3 247.2,-47.5 245.2,-47.5 242.8,-47.7 240,-47.8 236.3,-48.2 233.2,-48.3 230,-48.5 227.5,-48.5 224.3,-48.7 221.8,-48.8 218.8,-49.2 216.5,-49.3 213.2,-49.5 210.3,-49.5 207,-49.7 204,-49.8 201.2,-50.2 198.8,-50.3 196.5,-50.5 193.5,-50.5 191,-50.5 187.7,-50.7 185,-51 181.8,-51.3 179.5,-51.5 177,-51.5 174,-51.7 171.3,-52 168.2,-52.3 165.5,-52.5 163,-52.5 160,-52.7 157.3,-52.8 154.2,-53.2 151.3,-53.3 148.3,-53.5 145.8,-53.5 143.3,-53.7 140.7,-53.8 137.5,-54.2 134.7,-54.3 132.3,-54.5 129.8,-54.7 127,-54.8 124.3,-55.2 122,-55.3 119.5,-55.7 116.7,-56 114.2,-56.3 111.7,-56.8 109.3,-57.2 107.2,-57.5 104.8,-57.8 102.7,-58.3 99.7,-59 97.7,-59.5 95.7,-59.8 93.5,-60.5 91.3,-61 88.5,-61.8 86.7,-62.3 85,-63 83.2,-63.7 81,-64.5 78.3,-65.5 76.5,-66.3 74.2,-67.3 72.3,-68 70,-68.8 68,-69.5 66,-70.3 64.2,-71.2 62.8,-71.8 61.5,-72.5 59.5,-73.7 57,-75 54.5,-76.3 52.8,-77.2 51.7,-77.8 50,-78.8 48.2,-79.8 46.3,-80.8 44.7,-81.8 42.5,-83 40.3,-84.2 38.5,-85 37.7,-85.5 36.2,-86.5 34.3,-87.7 32.5,-88.8 31.3,-89.5 30,-90.5 28.2,-91.7 26,-93 24.5,-93.8 22.8,-94.7 21.2,-95.5 19.5,-96.3 17.8,-97.3 16.3,-98.3 14.3,-99.5 12.5,-100.5 11,-101.3 9.8,-102 9.2,-102.5 7.2,-103.7 5.3,-104.8 3,-106.2 1.5,-107 0,-107.7 -1.2,-108.2 -1.8,-108.5 -3.8,-109.7 -5.7,-110.8 -7.7,-112 -8.8,-112.8 -10.2,-113.7 -11.3,-114.5 -13,-115.3 -14.5,-116.2 -16.5,-117.2 -17.5,-117.8 -19.2,-118.8 -20.7,-119.8 -22.7,-121 -24,-121.8 -25,-122.3 -25.7,-122.7 -27,-123.5 -29.3,-124.8 -31.5,-126.2 -33.2,-127 -33.8,-127.3 -35.2,-128 -36.3,-128.7 -37.5,-129.5 -39,-130.5 -40.8,-131.7 -43.2,-133 -44.5,-133.7 -45.7,-134.2 -46.8,-134.8 -48.3,-135.8 -49.8,-136.8 -50.8,-137.5 -51.7,-137.8 -53,-138.7 -54.7,-139.7 -56.7,-141 -58.3,-142 -60.2,-143 -61.5,-143.7 -62.8,-144.3 -63.8,-144.8 -64.8,-145.5 -66.3,-146.5 -67.7,-147.5 -69,-148.3 -70.2,-149 -71.7,-149.8 -73.7,-151 -75,-151.8 -76,-152.3 -77.3,-153.2" style="stroke: rgb(239, 68, 68); stroke-width: 7;"></polyline><polyline vector-effect="non-scaling-stroke" fill="none" points="-78.7,-154 -80.8,-155.3 -82.3,-156.2 -83.8,-157 -84.7,-157.3 -85.8,-158 -87,-158.7 -88.7,-159.8 -90.2,-160.8 -91.7,-161.7 -92.7,-162.2 -93.8,-162.8 -95.3,-163.8 -97.2,-165 -98.5,-165.7 -99.7,-166.2 -100.8,-166.8 -102,-167.7 -103.7,-168.8 -104.8,-169.7 -106,-170.3 -107.3,-171 -108.7,-171.7 -110,-172.5 -111.2,-173.3 -112.3,-174 -114,-175 -115.2,-175.7 -117,-176.8 -118.3,-177.5 -119.7,-178.2 -120.3,-178.5 -121.8,-179.5 -123.3,-180.5 -124.8,-181.3 -126,-182 -127.2,-182.7 -129.3,-184 -131,-185 -132.7,-185.8 -133.3,-186.2 -134,-186.5 -135.3,-187.5 -136.7,-188.3 -138.3,-189.3 -139.3,-189.8 -140.3,-190.5 -141.8,-191.5 -143.2,-192.3 -144.7,-193.2 -145.8,-193.8 -147.3,-194.8 -148.8,-195.7 -149.8,-196.2 -151.2,-196.8 -152.5,-197.7 -153.8,-198.3 -154.5,-198.7 -156,-199.5 -157.5,-200.5 -159,-201.3 -160,-202 -161.2,-202.7 -162.3,-203.5 -163.8,-204.3 -165.2,-205.2 -166.7,-206 -167.3,-206.3 -168.5,-207 -169.8,-207.8 -171.5,-209 -172.8,-209.7 -173.8,-210.2 -175,-210.8 -176,-211.5 -177.3,-212.3 -178.7,-213 -180,-213.7 -181,-214.2 -182,-214.8 -183,-215.5 -184,-216.2 -185,-216.8 -186,-217.5 -187.3,-218.3 -188.2,-218.7 -189.2,-219.3 -189.8,-219.7 -190.8,-220.3 -191.7,-220.7 -193,-221.3 -194,-221.8 -195,-222.3 -195.3,-222.7 -196.2,-223.2 -197,-223.7 -198.2,-224.3 -198.8,-224.7 -199.7,-225.2 -200.2,-225.5 -201.7,-226.5 -204.3,-228 -207,-229.5 -208.8,-230.3 -209.8,-231 -211.7,-231.7 -213.3,-232.3 -214.3,-232.7 -215.8,-233 -221.5,-231.7 -228.3,-229 -234,-226.2 -236,-224.2 -237.8,-222 -239.8,-219.3 -242.5,-215.7 -244.3,-212.8 -246,-210.5 -247,-208.8 -248,-207.7 -248.8,-206.3 -249.2,-206.2 -250,-205 -250.8,-203.8 -251.7,-202.7 -252.2,-201.8 -252.8,-201.2 -254,-199.5 -254.8,-198.3 -255.7,-197.2 -255.8,-196.8 -256.2,-196.5 -256.5,-195.8 -257,-195.3 -257.5,-194.7 -258.5,-193.3 -259.3,-191.8 -260.2,-190.7 -260.3,-190.3 -260.7,-190 -261,-189.5 -261.5,-188.8 -262,-188.3 -262.8,-187.2 -263.7,-186.2 -264.3,-185 -264.7,-184.5 -265,-184.2 -265.5,-183.7 -266.5,-182.5 -267.3,-181.2 -268.2,-180.2 -268.3,-179.8 -269,-179 -269.7,-178 -270.3,-177 -270.7,-176.7 -270.8,-176.3 -271.2,-176 -272,-174.5 -273,-173.2 -274,-171.8 -274.3,-171.5 -274.7,-171 -274.8,-170.5 -275.2,-170.2 -275.7,-169.7 -276.7,-168.5 -277.7,-167.2 -278.3,-166 -279,-165 -279.7,-164.2 -280.3,-163.3 -280.7,-163 -281.2,-162 -281.8,-161 -282.5,-160 -282.8,-159.5 -283.7,-158.3 -284.3,-157.2 -285.2,-156.2 -285.5,-155.8 -285.8,-155.5 -286.7,-154.2 -287.3,-152.8 -288.2,-151.5 -288.5,-151 -288.8,-150.5 -289.7,-149.2 -290.5,-147.8 -291.3,-146.5 -291.7,-146 -291.8,-145.5 -292.7,-144.3 -293.7,-142.8 -294.7,-141.3 -295.2,-140.5 -295.3,-140 -295.7,-139.5 -296.5,-138.3 -297.3,-137.2 -298.3,-135.7 -298.7,-134.8 -299.3,-133.7 -299.8,-132.8 -300.3,-132 -300.7,-131.5 -301.5,-130.2 -302.3,-128.8 -303.2,-127.5 -303.3,-127 -304,-125.8 -304.7,-124.7 -305.5,-123 -306,-122 -306.5,-121 -307.2,-120 -307.8,-119 -308.3,-118 -309.2,-116.5 -310,-115 -310.8,-113.5 -311.2,-112.8 -311.3,-112.2 -312,-111 -312.7,-110 -313.3,-109 -314,-107.8 -314.5,-106.7 -315.3,-105.2 -315.7,-104.3 -316.3,-103.2 -316.7,-102.3 -317.3,-101.2 -318,-99.8 -318.7,-98.5 -319.3,-97.2 -319.7,-96.3 -320.3,-95.2 -320.7,-94.3 -321.3,-93.2 -321.8,-91.8 -322.5,-90.5 -322.8,-89.5 -323.2,-89 -323.3,-88.5 -323.7,-88 -324.3,-86.5 -325,-85 -325.7,-83.7 -325.8,-83.3 -326.2,-83 -326.5,-82.2 -326.8,-81.3 -327.7,-79.5 -328.3,-78 -329,-76.5 -329.2,-76.2 -329.3,-75.8 -329.7,-75.2 -330,-74.5 -330.3,-73.8 -330.5,-73.5 -330.7,-73.2 -330.8,-72.8 -331.5,-71.8 -332.3,-70.5 -333.3,-69 -334,-68.3 -334.5,-67.7 -335,-67.3 -335.5,-66.7 -336,-66.3 -336.5,-65.7 -337,-65.3 -337.3,-64.8 -337.8,-64.5 -338.5,-64 -340,-63.5 -341.5,-63 -343,-62.7 -344,-62.5 -344.7,-62.7 -345.3,-62.8 -346.3,-63 -348,-63.2 -349.5,-63.3 -350.7,-63.7 -351.3,-63.8 -351.8,-64.2 -352.7,-64.7 -353.5,-65.2 -354.3,-65.7 -354.7,-65.8 -355.2,-66.3 -355.7,-66.8 -356.3,-67.5 -356.7,-68 -357.3,-68.5 -358,-69.2 -358.7,-69.8 -359.3,-70.5 -359.7,-71 -360.2,-71.5 -360.8,-72.5 -361.8,-73.8 -362.7,-75.2 -363.2,-75.8 -363.8,-76.7 -364.7,-77.5 -365.3,-78.5 -366,-79.5 -366.7,-80.5 -367.8,-82 -368.8,-83.2 -369.8,-84.3 -370.3,-85 -371,-86 -371.8,-87.2 -373.2,-88.7 -374.2,-89.7 -375,-90.5 -375.5,-91 -376.3,-92 -377.5,-93.5 -378.8,-95.2 -380,-96.5 -380.8,-97.3 -381.5,-98 -382.5,-99.3 -383.7,-100.8 -385,-102.5 -386,-103.5 -386.8,-104.5 -388.2,-106 -389.5,-107.5 -391,-109 -391.8,-110 -392.5,-110.8 -393.7,-112.2 -395.2,-113.8 -396.8,-115.7 -398,-117 -399.3,-118.3 -400.7,-119.7 -401.8,-120.8 -402.5,-121.7 -403.7,-123 -405.5,-124.8 -407.3,-126.7 -408.7,-127.8 -409.3,-128.5 -410.5,-129.8 -412,-131.5 -413.5,-133.2 -415.3,-134.8 -416.8,-136.2 -418.3,-137.5 -419,-138.2 -420.2,-139.3 -421.5,-140.7 -423,-142.2 -424.3,-143.5 -425.5,-144.7 -427,-145.8 -428.8,-147.5 -430.7,-149.2 -432.2,-150.5 -433.5,-151.5 -435,-152.7 -436.3,-153.8 -437.2,-154.7 -438.7,-155.8 -440.2,-157 -441.5,-158 -443,-159.2 -444.5,-160.3 -446,-161.5 -446.5,-162 -447.2,-162.7 -448.5,-163.8 -449.8,-165 -451,-165.8 -452,-166.5 -453,-167.2 -454,-167.8 -455,-168.5 -456,-169.2 -457,-169.8 -457.5,-170.2 -458.2,-170.5 -459.5,-171.5 -460.8,-172.3 -462.8,-173.8 -464.2,-174.8 -466.3,-176.3 -467.5,-177.2 -469.2,-178 -469.8,-178.5 -471,-179 -472.2,-180 -474.2,-181 -475.7,-182 -477.3,-182.5 -478.2,-183 -481.2,-183.7 -485.8,-183.8 -490.7,-183.8 -493.3,-183.3 -494.7,-182.7 -496,-182 -497.3,-181.3 -497.7,-181.2 -498,-181 -498.8,-180.5 -499.7,-180 -501,-179 -502,-178.3 -503,-177.7 -503.3,-177.3 -504.3,-176.5 -505.3,-175.7 -507,-174.3 -508.2,-173.3 -509.5,-172.2 -510.3,-171.5 -511.2,-170.7 -511.8,-169.8 -512.7,-169 -513.3,-168.5 -514.3,-167.7 -515.7,-166.2 -517,-164.7 -517.8,-163.5 -518.2,-163 -518.5,-162.7 -519,-162.3 -520.2,-161.3 -521.3,-160.2 -522.5,-159 -523,-158.3 -523.7,-157.3 -524.8,-155.7 -526.2,-153.8 -527.3,-152.3 -527.8,-151.5 -528.2,-151 -529,-149.7 -530,-148.2 -530.8,-146.7 -531.2,-146 -532,-144.8 -532.8,-143.7 -533.7,-142.3 -534.3,-141.2 -535.3,-139.7 -536.2,-138.2 -536.7,-137.2 -537,-136.5 -537.8,-135.2 -538.7,-133.8 -539.8,-131.8 -540.8,-130.2 -541.7,-128.5 -542.2,-127.3 -542.8,-126.2 -543.7,-125 -544.8,-123.3 -545.5,-122.2 -546.3,-120.5 -547,-119.2 -547.8,-117.7 -549,-115.7 -550,-113.8 -550.8,-112.2 -551.2,-111.3 -551.8,-110.2 -552.8,-108.5 -554,-106.7 -554.8,-105.2 -555.3,-104 -556,-102.7 -556.8,-101 -558,-99.2 -559,-97.3 -560,-95.5 -561,-93.7 -562,-91.8 -562.7,-90.5 -563.2,-89.3 -563.8,-88 -564.8,-86.3 -566,-84.3 -567,-82.5 -568,-80.5 -569,-78.7 -570,-76.8 -570.8,-75.3 -571.8,-73.5 -572.8,-71.8 -574,-69.8 -574.8,-68.3 -575.8,-66.5 -576.8,-64.7 -578,-62.7 -579,-60.7 -579.8,-59 -580.5,-57.5 -581.5,-55.8 -582.7,-53.8 -584,-51.7 -585,-49.8 -586,-48 -586.8,-46.3 -587.8,-44.5 -588.8,-42.7 -590,-40.5 -591,-38.5 -591.8,-36.8 -593.2,-34.7 -594.5,-32.5 -596,-30 -597,-28 -597.8,-26.3 -598.5,-25 -599.5,-23.2 -600.8,-21 -602.5,-18 -603.7,-15.8 -604.5,-14 -605.7,-12.2 -607,-9.8 -608.7,-6.8 -610,-4.3 -611.2,-2.2 -612.5,0 -614,2.7 -615.5,5.3 -616.8,8 -618,10.3 -619.2,12.5 -620.5,14.8 -621.8,17 -623.5,20.2 -624.8,22.5 -626.2,25.2 -627.3,27.2 -628.5,29.3 -630,31.8 -631.7,34.5 -633.3,37.5 -634.8,40.2 -636.2,42.8 -637.8,45.7 -639.3,48.7 -640.8,51.2 -642.2,53.8 -643.3,55.8 -645,58.8 -646.5,61.2 -648.3,64.3 -650,67.3 -651.7,70.3 -653.5,73.8 -655,76.5 -656.5,79.5 -658,82 -659.5,85 -661,87.7 -662.5,90.3 -663.8,92.5 -665.7,95.5 -667,98 -669,101.5 -670.5,104.5 -672,107.2 -673.2,109.3 -674.7,111.7 -676.2,114.2 -677.8,116.7 -679.2,119.2 -680.3,121.3 -681.7,123.8 -682.8,125.7 -684.2,127.8 -685.2,129.7 -686.2,131.3 -687.2,133 -687.8,134.2 -689,136.2 -690.2,137.8 -691.3,139.5 -692.5,141 -693.3,142.3 -694.5,144.2 -695.2,145.3 -696.2,146.8 -696.8,147.8 -697.8,149.3 -698.8,150.8 -699.8,152.2 -700.3,153 -700.7,153.5 -701,154 -702.2,155.5 -703.2,157 -704.2,158.5 -704.7,159.2 -705.7,160.5 -706.7,161.7 -707.5,162.7 -707.8,163 -708.2,163.3 -708.7,164.2 -709.3,165.2 -710.7,167.5 -712,169.8 -713.3,172.7 -714,175.5 -714.2,179 -714.2,182.2 -713.7,185.2 -713.3,187 -713,188.7 -712.7,189.8 -712.3,191.2 -711.7,192.8 -711.2,194.3 -710.5,195.8 -709.8,197.5 -709.3,198.8 -708.8,200 -708.5,200.8 -708,201.7 -707.5,202.8 -707.2,203.7 -706.8,204.5 -706.7,205 -706,206.2 -705.5,207.3 -704.7,208.8 -704.3,209.7 -703.5,211 -702.7,212.2 -701.8,213.3 -701.3,214 -700.8,214.8 -700.3,215.7 -699.7,217 -698.8,218.5 -697.7,220.2 -696.7,221.3 -696.2,222 -695.5,223 -694.7,224.2 -693.5,225.5 -692.7,226.3 -691.5,227.8 -690.2,229.5 -688.7,231.3 -687.5,232.5 -686.5,233.5 -685.7,234.2 -684.5,235 -683,236 -681.5,237.2 -680.5,238 -679.3,239 -678.2,239.8 -676.8,240.7 -675.7,241.3 -674.2,242.3 -672.8,243.2 -671.7,243.8 -670.7,244.2 -669,245 -667.7,245.7 -666.5,246.3 -666,246.7 -664.8,247.2 -663.3,248 -661.8,248.8 -660.5,249.5 -659.5,250 -658,250.5 -657,251 -655.5,251.5 -654.5,251.8 -652.8,252.3 -651.7,252.7 -650.5,253.2 -649.7,253.5 -648.2,254 -646.7,254.5 -645.5,254.8 -644.3,255.2 -643.2,255.3 -642,255.5 -641.5,255.7 -640,256 -638.3,256.3 -636.7,256.5 -635.2,256.7 -633.7,257 -632.2,257.3 -631.5,257.5 -630.8,257.5 -629.5,257.7 -628.2,257.8 -626.8,258 -626.2,258 -625.5,258 -624.7,258.2 -624,258.5 -623.3,258.8 -622.5,259.3 -621,259.8 -619.7,260.5 -618.8,260.8 -618.7,261.2 -617.7,262.2 -616.8,263.3 -615.8,264.3 -615.7,264.8 -615.5,265.3 -615.3,265.8 -615,266.5 -614.7,267.3 -614.3,269 -614.2,270.3 -614,271.5 -614,272 -614,272.8 -614,273.8 -614,275 -614,276 -614,277 -614,277.8 -614,278.5 -614,279 -614,279.5 -614.2,280.8 -614.3,282.3 -614.5,284.3 -614.7,285.7 -614.8,287 -615,288 -615,289.3 -615,290.7 -615,292 -615,293 -615,294.3 -615,295.7 -615,297 -615,298.3 -615,299.7 -615,301.3 -615,302.7 -615,304 -614.8,305.3 -614.7,306.7 -614.5,307.8 -614.5,309.2 -614.5,310.5 -614.5,312.2 -614.3,314.2 -614.2,316 -613.8,317.7 -613.7,318.3 -613.5,319.2 -613.3,320.8 -613.2,322.5 -613,324 -612.8,324.7 -612.5,326.3 -612.2,328 -611.8,329.5 -611.5,330.8 -611.2,332.2 -610.8,333.5 -610.7,334 -610,335.7 -609.5,337.3 -608.8,339 -608.3,340.2 -607.7,341.3 -607.2,342.5 -606.5,343.7 -605.8,344.8 -605.2,346 -604.7,346.8 -604,348.2 -603,349.7 -602.2,350.8 -601.2,351.8 -600.5,352.7 -599.7,353.7 -599,354.5 -598,355.3 -597,356.2 -596,357 -594.8,358.2 -593.8,359 -593,359.7 -592,360.3 -591,361.2 -590,361.8 -589.5,362.2 -588.3,363 -587.2,363.8 -586,364.7 -585.2,365.2 -583.8,366.2 -582.5,367 -581.5,367.7 -580.8,368.2 -580,369 -579,370 -577.7,371.2 -576.5,372 -575.5,372.7 -574.8,373.2 -573.3,374.3 -571.8,375.5 -570.5,376.5 -569.8,377.2 -568.7,378.2 -567.5,379.2 -566.5,380 -565.3,381 -564.2,382 -563,383 -562.3,383.7 -561.2,384.7 -560,385.7 -559,386.5 -558.3,387.2 -557,388.3 -555.7,389.5 -554.5,390.5 -554,390.8 -552.8,391.7 -551.7,392.5 -550.5,393.5 -550,393.8 -548.8,394.7 -547.5,395.5 -546.2,396.3 -545.3,396.8 -544.5,397.5 -543.2,398.7 -542,399.5 -541,400.2 -540.3,400.7 -539.5,401.5 -538.5,402.5 -537.2,403.5 -535.8,404.3 -534.7,405 -533.8,405.7 -532.5,406.8 -531.2,408 -530,409 -529.5,409.3 -528.8,409.8 -528,410.5 -527,411.5 -525.5,412.8 -524.2,414 -523,415 -522.3,415.7 -521.7,416.2 -520.8,416.8 -520,417.5 -518.5,418.8 -517.2,420 -516,421 -515.3,421.7 -514.5,422.5 -513.8,423.3 -513.2,424.2 -512.5,424.8 -511.7,425.5 -510.7,426.3 -509.7,427.3 -508.8,428.3 -508.3,429 -507.7,430 -506.8,431 -506.2,432 -505.7,432.8 -505.2,433.7 -504.5,434.8 -504,435.7 -503.7,436.5 -503,437.7 -502.5,438.8 -501.7,440.5 -501.3,441.5 -500.8,442.5 -500.5,443.5 -500,444.5 -499.3,446.2 -498.7,447.3 -498.2,448.5 -497.8,449 -497.7,449.5 -497.3,450.5 -496.7,452 -496,453.5 -495,455.2 -494.5,456.3 -494,457.5 -493.8,458 -493.3,459.2 -492.5,460.5 -491.7,462.2 -491.2,463.2 -490.5,464.5 -489.7,466 -488.5,468 -487.5,470 -486.5,471.5 -485.7,472.8 -485,473.5 -484.5,474.5 -478,476.7 -470.7,478.2 -463.2,478.8 -461.2,477 -460,475.3 -458.7,473.5 -457.8,471.8 -456.8,469.5 -456.2,466.7 -455.5,464.2 -455,461.8 -454.7,460.3 -454.5,459 -454.5,458.5 -454.3,457.3 -454.2,455.8 -453.8,454.5 -453.7,453.7 -453.5,453.2 -453.5,452.5 -453.5,452 -453.5,451.5 -453.3,450 -453,448.5 -452.7,447 -452.5,446.5 -452.3,445.3 -452.2,443.8 -452,442.2 -451.8,441 -451.7,440.2 -451.5,439.5 -451.3,437.8 -451.2,436.2 -450.8,434.5 -450.7,433.8 -450.3,432.5 -450.2,430.8 -449.8,429.2 -449.7,428.2 -449.3,426.7 -449.2,425 -448.8,423.2 -448.7,422.2 -448.3,420.5 -448.2,419 -447.8,417.3 -447.5,415.8 -447.2,414 -446.8,412.2 -446.7,411.2 -446.3,409.5 -446.2,407.7 -445.8,405.8 -445.7,404.8 -445.3,403.2 -445,401.5 -444.7,399.8 -444.3,398 -444,396 -443.7,394.2 -443.3,392.5 -443,390.5 -442.7,388.3 -442.5,387.2 -442.2,385.5 -441.8,383.8 -441.5,382 -441.3,380.5 -441,378.5 -440.7,376.5 -440.5,375 -440.3,373.3 -440,371.8 -439.5,368.8 -439,366.5 -438.7,364.2 -438.3,362.7 -438,360.8 -437.7,358.8 -437.3,356.7 -437,354.8 -436.7,353.2 -436.3,351.7 -436,349.8 -435.7,347.8 -435.3,345.7 -435,343.8 -434.7,342.2 -434.3,340.7 -434,338.8 -433.7,336.8 -433.3,334.8 -433,332.7 -432.7,330.5 -432.5,329.2 -432.2,327.7 -431.8,325.8 -431.5,323.8 -431.2,321.8 -430.8,320.2 -430.3,317.7 -430.2,315.5 -429.8,313.5 -429.7,312.3 -429.3,310.7 -429,308.8 -428.7,307 -428.3,305 -428,303 -427.7,301.2 -427.3,299.5 -427,297.8 -426.7,296 -426.3,294 -426,292.2 -425.7,290.3 -425.3,288.7 -425,286.8 -424.7,285.2 -424.3,283.5 -424,281.5 -423.7,279.3 -423.5,278.2 -423.2,276.5 -422.8,274.8 -422.5,273.2 -422.3,271.5 -422,269.8 -421.7,268.2 -421.3,266.5 -421,264.8 -420.7,263.2 -420.3,261.7 -420,259.7 -419.7,257.7 -419.5,256.3 -419.3,254.7 -419,253 -418.7,251.3 -418.5,250.7 -418.2,249 -417.8,247.3 -417.5,245.7 -417.3,243.8 -417,242.2 -416.7,240.3 -416.5,239.7 -416.2,238 -415.8,236.3 -415.5,234.7 -415.3,232.8 -415,231.2 -414.7,229.3 -414.5,228.7 -414.3,226.8 -414,225.2 -413.7,223.3 -413.5,222.7 -413.2,221.2 -412.8,219.7 -412.5,218.2 -412.3,216.5 -412,215 -411.7,213.3 -411.5,212.7 -411.3,210.8 -411,209.2 -410.7,207.5 -410.5,206.8 -410.3,205.5 -410,204 -409.7,202.7 -409.3,201.2 -409.2,199.7 -408.8,198.2 -408.7,197.5 -408.3,196 -408.2,194.5 -407.8,192.8 -407.5,191.3 -407.2,189.8 -407,188 -406.8,187 -406.7,186 -406.5,185.5 -406.3,184 -406,182.5 -405.7,181 -405.3,179.7 -405.2,178.3 -404.8,177 -404.7,176.5 -404.3,175 -404,173.5 -403.7,172 -403.5,171.5 -403.2,170.5 -402.8,169.3 -402.3,167.5 -402,166.2 -401.7,165 -401.5,164.5 -401.2,163.5 -400.8,162.3 -400.5,161.2 -400.2,160 -399.8,159 -399.2,157.3 -398.8,156.2 -398.5,155 -398.2,154 -397.8,152.8 -397.3,151.2 -397,150 -396.5,148.3 -396,147.2 -395.7,146 -395.2,144.8 -394.8,143.7 -394.2,142 -393.8,140.8 -393.2,139.2 -392.8,138 -392.3,136.8 -392,135.8 -391.3,134.3 -390.8,132.8 -390.2,131.2 -389.8,130 -389.2,128.3 -388.8,127.2 -388.2,125.5 -387.7,124.3 -387.2,123 -386.8,122.2 -386,120.2 -385.2,118.3 -384.2,115.8 -383.8,114.7 -383.2,112.8 -382.7,111.5 -382.2,110.2 -381.5,108.5 -380.8,106.8 -380.2,105.2 -379.8,104.3 -379.2,102.5" style="stroke: rgb(59, 130, 246); stroke-width: 7;"></polyline><polyline vector-effect="non-scaling-stroke" fill="none" points="-378.5,100.7 -377.7,98.3 -377.3,97.2 -376.7,95.5 -376,94 -375.2,92 -374.5,90.3 -374,88.5 -373.5,87.2 -372.8,85.3 -372.3,84.2 -371.7,82.3 -371.2,80.5 -370.5,78.7 -370.2,77.3 -369.7,76.3 -369.2,74.7 -368.5,73.2 -367.8,71.3 -367.3,70.2 -366.7,68.3 -366.3,67.2 -365.7,65.5 -365.2,64 -364.5,62.3 -364,60.7 -363.5,59.3 -363.2,58.2 -362.5,56.5 -362,55 -361.2,52.8 -360.7,51.5 -360.2,50.2 -359.5,48.5 -359,47 -358.2,44.7 -357.8,43.3 -357.3,41.8 -357.2,41.2 -356.5,39.5 -356,38 -355.3,36.3 -355.2,35.7 -354.5,33.8 -354,32.2 -353.3,30.3 -353.2,29.7 -352.5,27.8 -352,26.2 -351.3,24.3 -351.2,23.7 -350.5,22 -349.8,20.5 -349,18.5 -348.5,17.3 -348,15.7 -347.5,14.3 -347,12.7 -346.5,11.5 -346.2,10.3 -345.7,9.3 -345.2,7.8 -344.5,6.3 -344,4.7 -343.5,3.5 -343.2,2.3 -342.7,1.3 -342.2,-0.2 -341.7,-1.5 -341.3,-2.5 -341,-3.7 -340.5,-4.8 -340,-6.5 -339.7,-7.5 -339.3,-8.5 -339,-9.5 -338.7,-10.5 -338.3,-11.5 -337.8,-12.7 -337.3,-13.8 -337,-15 -336.5,-16.5 -336,-18 -335.3,-19.3 -335.2,-19.7 -334.7,-20.7 -334,-22.3 -333,-24 -332.3,-25 -331.8,-25.3 -330.7,-26.3 -329.5,-27.3 -328.3,-28.3 -328,-28.5 -327.7,-28.7 -327,-29 -326.3,-29.3 -325.7,-29.7 -325.3,-29.8 -324.3,-30.2 -323,-30.5 -321.7,-30.8 -320.8,-31 -319.7,-31 -318.3,-31 -317,-30.8 -316.2,-30.7 -315.7,-30.3 -315.3,-30.2 -314.5,-29.8 -313.3,-29.5 -311.7,-28.7 -310.5,-28 -309.5,-27.5 -309.2,-27.3 -308.8,-27.2 -308.5,-27 -308.2,-26.8 -307.7,-26.5 -307,-25.8 -306.2,-25.3 -305.2,-24.7 -304.3,-24.2 -303.5,-23.7 -303.2,-23.3 -302.3,-22.5 -301.3,-21.3 -300.2,-20.3 -299.3,-19.7 -298.5,-19.2 -297.8,-18.5 -297.2,-18 -296.5,-17.3 -295,-16.3 -293.7,-15.3 -292.7,-14.5 -292.3,-14.2 -292,-13.8 -291.5,-13.7 -290.8,-13.2 -289.2,-11.8 -287.5,-10.3 -286,-9.2 -285.5,-8.8 -285,-8.3 -283.8,-7.2 -282.7,-6 -281.5,-5.2 -280.7,-4.5 -279.8,-3.8 -279,-3 -278.5,-2.5 -277.8,-1.8 -277.3,-1.2 -276.7,-0.5 -276,0.2 -275,1 -273.5,2.3 -271.8,3.7 -270.3,4.8 -269.7,5.5 -269.3,6 -269,6.5 -268.3,7 -267,8 -265.7,9 -264.5,10 -264,10.5 -263.3,11.2 -262.5,12 -261.5,13 -260,14.3 -258.7,15.5 -257.3,16.5 -256.5,17.2 -255.5,18 -254.5,19 -253,20.3 -251.7,21.5 -250.5,22.3 -250,22.7 -248.5,23.7 -247,24.8 -245.5,26 -245,26.5 -244.3,27.2 -242.8,28.3 -241.3,29.5 -240,30.5 -239.3,31.2 -238,32.3 -236.5,33.5 -235.2,34.5 -233.8,35.5 -232.7,36.7 -230.7,38.3 -229.3,39.5 -228,40.5 -227.5,41 -226.2,42 -224.8,43 -223.5,44 -222.8,44.5 -221.5,45.7 -220.2,46.8 -218.2,48.5 -216.8,49.7 -215,51.2 -213.8,52.2 -212.7,53 -212,53.5 -210.7,54.7 -208.8,56.2 -207,57.8 -205.8,58.8 -205,59.7 -203.8,60.7 -202.2,62 -200.7,63.2 -199.2,64.3 -198,65.5 -196.8,66.7 -195.2,68 -193.8,69 -192,70.3 -190.8,71.3 -189.7,72.3 -188,73.7 -186.5,74.8 -184.8,76 -184,76.7 -182.8,77.7 -181.2,79.2 -179.7,80.5 -178.2,81.7 -177,82.7 -175.3,84 -174,85.2 -172.8,86 -171.2,87.2 -169.5,88.3 -167.5,90 -166.3,91 -165.2,92 -164.5,92.5 -163.3,93.5 -162.2,94.5 -160.7,95.8 -158.8,97.2 -157,98.5 -155.5,99.5 -154.8,100 -154,100.7 -152.5,102 -150.5,103.7 -148.7,105.2 -147.3,106 -146,107 -144.7,107.8 -143.3,108.7 -142.2,109.3 -140.5,110.3 -138.7,111.5 -137.2,112.3 -135.7,113.3 -134,114.3 -132.5,115.2 -131,115.8 -129.7,116.5 -127.8,117.5 -126,118.3 -124.3,119 -123.2,119.5 -122,120 -119.8,120.8 -117.7,121.5 -115.8,122.2 -114.5,122.5 -113,123 -111.5,123.3 -110.3,123.8 -108.7,124.3 -106.3,125.2 -104.3,125.7 -102.8,126 -101.3,126.3 -99.8,126.7 -97.7,127.2 -95.8,127.5 -94,127.8 -92.8,128 -91,128.2 -89,128.5 -87.2,128.8 -85.5,129.2 -83.5,129.3 -81.5,129.5 -80.3,129.5 -78.8,129.8 -76.8,130.2 -74.7,130.5 -72.8,130.5 -71,130.5 -69,130.5 -67.3,130.7 -66.2,130.8 -64.7,131.2 -62.8,131.3 -60.5,131.5 -58.5,131.5 -56.7,131.5 -55,131.7 -53.3,131.8 -51.5,132 -49.5,132 -47.8,132 -45.8,132.2 -43.8,132.3 -41.5,132.5 -39.7,132.7 -37.8,132.8 -36,133 -34,133 -32,133 -30,133 -28.3,133 -27,133.2 -25,133.5 -22.7,133.8 -20,134 -18,134 -16,134 -14,134 -12.3,134.2 -11,134.3 -9,134.7 -6.7,134.8 -4,135 -2,135 0,135 2,135.2 4,135.3 5.7,135.5 7,135.5 9,135.7 11.3,135.8 14,136.2 15.5,136.3 17.7,136.5 19.5,136.5 21.8,136.5 23,136.5 25,136.7 26.8,137 29.3,137.3 31.2,137.5 33.3,137.5 35,137.5 36.8,137.5 38.5,137.5 40.2,137.7 42.2,138 44.2,138.3 46.5,138.5 48.7,138.5 50.8,138.5 53,138.5 55,138.5 57,138.5 58.7,138.7 60,138.8 61.8,139.2 64,139.3 66.5,139.5 68.5,139.5 70.7,139.5 72.8,139.5 74.5,139.5 76,139.7 77.2,139.8 79.3,140.2 81.5,140.3 84,140.5 86.2,140.5 88,140.5 89.8,140.5 91.5,140.5 93.7,140.7 95.3,140.8 96.7,141 98.2,141.2 100.3,141.3 102.8,141.5 105,141.5 107.2,141.5 108.8,141.7 110.5,141.8 112,142 113.7,142 115,142 116.8,142.2 119,142.3 121.5,142.5 123.2,142.5 124.8,142.5 126.7,142.7 128.8,142.8 130.5,143 132,143 133.2,143 135.3,143.2 137,143.3 139.3,143.5 141,143.5 143.2,143.7 145.2,143.8 147,144 148.3,144 149.2,144 150.8,144.2 153,144.3 155.5,144.5 157.2,144.5 158.8,144.7 160.2,144.8 162.3,145.2 164,145.3 166,145.5 167.7,145.5 169.3,145.5 171,145.5 172.7,145.5 174.8,145.5 176.5,145.5 177.7,145.7 179.3,146 181.7,146.3 183.8,146.5 185.5,146.5 187.2,146.5 188.8,146.5 190.7,146.5 191.8,146.5 193.3,146.5 194.2,146.5 196,146.8 198,147.2 200.5,147.5 202.2,147.5 204,147.5 205.3,147.5 207,147.5 208.2,147.5 209.3,147.5 211.2,147.7 213.3,147.8 215.5,148.2 217.2,148.3 219,148.5 220.8,148.5 222.2,148.5 223,148.5 224.7,148.7 226.8,148.8 229,149 230.8,149 232.2,149.2 234,149.3 235.3,149.5 237,149.5 238,149.5 239.2,149.5 241,149.7 242.8,149.8 245.2,150 247,150 248.8,150 250.5,150.2 251.5,150.3 253.2,150.5 255,150.5 256.8,150.5 258.2,150.5 258.8,150.5 260.5,150.7 262.7,150.8 264.8,151 266.7,151 267.8,151 269.5,151 271.2,151.2 272.8,151.3 274.2,151.5 274.8,151.5 276.5,151.7 278.7,151.8 280.8,152 282.5,152 283.5,152 285.2,152 286.3,152 288.2,152 289.3,152 291,152 292,152 293.2,152.2 294.8,152.5 296.8,152.8 299.3,153 300.8,153 302.5,153 303.5,153 305,153 306.3,153 307.8,153 308.8,153 309.5,153 311,153.2 312.8,153.3 315.2,153.5 316.5,153.7 318.2,153.8 319.3,154 320.8,154 322,154 323.2,154 324,154 324.5,154 326.2,154.2 328,154.3 330,154.5 330.8,154.5 331.8,154.5 332.8,154.7 334,154.8 335,155 336,155 337,155 338,155 339,155 339.8,155 340.5,155 341,155 342.5,155.2 344.2,155.3 346,155.5 346.7,155.7 347.3,155.8 348,156 349,156 349.8,156 351.2,156.3 352.5,156.7 354.3,157.3 355.5,157.7 356.3,158.2 356.7,158.3 357,158.5 357.3,158.7 358.2,159.2 359.2,160 360.3,160.7 361.2,161.5 362,162.7 362.8,163.8 363.5,164.8 364.2,166 364.8,167.5 365.3,168.8 365.7,170.3 365.8,171.8 366,173.3 366,174.5 366,175.7 366,177 366,178.3 366,179.7 366,181 366,181.8 366,182.5 365.8,183.8 365.7,185.7 365.5,187.7 365.5,189 365.7,190.7 365.8,192.2 366.2,193.7 366.3,194.3 366.5,195.2 366.7,196.7 366.8,198.2 367,199.5 367.3,200.8 367.7,202.2 368.2,203.5 368.5,204.5 369,205.8 369.5,207.2 369.8,208 370,208.5 370.2,208.8 370.8,210.2 371.7,211.5 372.3,213 373,214 373.5,215 374.2,215.8 374.3,216.2 375.2,217.2 376,218.3 376.8,219.5 377.2,219.8 377.5,220.2 378.2,221 379,222.2 380,223.3 381.5,224.5 382.7,225.5 383.7,226.5 384,226.8 384.5,227.2 385.7,228 386.8,228.8 388,229.7 389,230.2 389.8,230.8 391,231.7 391.7,232.2 392.8,232.8 393.7,233.2 395.5,234 397,234.5 398.5,235 399.5,235.3 400.5,235.7 401.5,236.2 402.8,236.5 404.2,236.8 405.5,237.2 406,237.3 407.3,237.7 409,237.8 410.8,238 412,238.2 412.8,238.3 413.7,238.5 414.3,238.5 415.8,238.7 417.3,238.8 419.3,239 420.5,239 421.8,239 422.8,239 424.2,239 425.5,239 426.7,239 427.5,239 428.2,239 429.7,239.2 431.3,239.3 433.3,239.5 434.7,239.5 435.8,239.5 437.2,239.5 438.5,239.7 440.3,239.8 441.5,240 442.8,240 444,240 445.2,240 446,240 447.5,240.2 449.2,240.3 451.3,240.5 452.7,240.5 454.3,240.5 455.5,240.5 457,240.5 458.3,240.5 460.2,240.5 461.5,240.7 462.7,240.8 463.3,241 465,241.2 466.8,241.3 469.2,241.5 470.5,241.5 472.2,241.5 473.3,241.5 475,241.5 476.5,241.5 478.3,241.5 480,241.5 481.3,241.7 482.3,241.8 484.2,242.2 486,242.3 488.3,242.5 490.2,242.5 491.8,242.5 493.3,242.5 494.8,242.5 496.3,242.5 498,242.5 499.5,242.5 501,242.7 502.2,242.8 504,243.2 505.8,243.3 508.2,243.5 509.8,243.5 511.5,243.5 513,243.5 514.5,243.5 516.3,243.5 517.8,243.5 519,243.7 520.8,244 522.8,244.3 525.2,244.5 527,244.5 528.5,244.5 530,244.5 531.5,244.5 533.3,244.5 534.8,244.5 536,244.7 537.7,245 539.7,245.3 542,245.5 544,245.5 545.5,245.5 547,245.5 548.7,245.5 550.3,245.5 552.2,245.5 553.5,245.7 554.8,245.8 556.5,246.2 558.5,246.3 560.7,246.5 562.3,246.5 563.5,246.5 565,246.5 566.7,246.5 568.3,246.5 570,246.5 571.2,246.7 572.3,246.8 574,247.2 576,247.3 578.3,247.5 580.2,247.5 581.7,247.5 583.3,247.5 585,247.5 586.7,247.5 588.3,247.7 589.7,247.8 590.8,248 592.5,248.2 594,248.3 596.2,248.5 598,248.5 599.8,248.5 601.5,248.5 602.5,248.5 604.2,248.7 605.3,248.8 606.7,249 608.3,249.2 610,249.3 612.2,249.5 613.3,249.5 615.2,249.5 616.3,249.5 618.2,249.5 619.3,249.7 621,249.8 622,250 623.2,250 624.7,250.2 626.7,250.3 628.5,250.5 630.2,250.5 631.3,250.5 633.2,250.5 634.3,250.5 636.2,250.7 637.3,250.8 638.8,251 639.8,251 640.8,251 641.5,251 643.2,251.2 645,251.3 647,251.5 648.3,251.5 649.7,251.5 650.8,251.5 651.8,251.5 652.8,251.5 653.8,251.5 654.8,251.5 655.8,251.5 657.7,251.5 659.3,251.5 661,251.5 661.8,251.5 662.8,251.5 664.5,251.3 666.2,251 668.2,250.3 669.3,249.8 670.5,249.5 671.3,249.2 672.5,248.7 674.7,247.2 676.8,245.5 678.7,244 679.3,243.3 680.2,242.5 681.2,241 682.3,239.7 683,238.8 683.3,238.5 684.5,236.8 685.5,235.2 686.7,233.5 687,233 687.3,232.5 688,231.5 688.5,230.5 689.2,229.7 689.8,228.8 690.5,228 691.2,227 691.3,226.5 691.7,226 692.7,224.5 693.7,223 694.7,221.5 695,221 695.3,220.5 696,219.5 696.7,218.5 697.8,217 698.5,215.8 699.2,214.7 700,213.2 700.8,211.8 701.7,210.5 702,210 702.5,209.5 703.3,208.2 704.2,206.8 705,205.5 705.5,205 705.8,204.3 706.7,203 707.5,201.7 708.8,200 709.8,198.7 710.7,197.3 711.2,196.5 711.8,195.3 712.7,194.2 713.3,193 713.7,192.5 714.5,191.2 715.3,189.8 716.2,188.3 716.5,187.7 717.3,186.2 718.2,184.8 719,183.5 719.3,182.8 720,181.7 720.8,180.2 721.7,178.8 722.2,178 722.7,176.7 723.5,174.8 724.2,173 724.5,171.8 724.8,170.8 725.3,169.3 725.8,167.8 726.3,166 726.7,164.7 727,163.5 727.2,162.2 727.3,160.8 727.5,159.5 727.7,157.8 727.8,156 728,154.2 728,152.8 728,151.5 728,150.2 727.8,148 727.7,146 727.3,144 727.2,143.3 727,142.7 727,141.8 726.8,140 726.5,138 726,135.2 725.7,133.5 725.5,132 725.5,131.3 725.3,130.7 725.2,129.8 724.8,128 724.7,126.2 724.3,124.3 724.2,123.7 723.8,122 723.7,120.3 723.5,118.7 723.3,118 723.2,117.2 722.8,115.3 722.7,113.3 722.5,111.7 722.3,110.8 722.2,110.2 722,109.2 721.8,107.2 721.5,105.2 721.2,103.3 721,102.7 720.8,100.8 720.7,99.2 720.3,97.3 720.2,96.7 719.8,94.7 719.7,92.8 719.3,90.8 719.2,90.2 719,89.2 718.8,87.3 718.7,85.3 718.3,83.7 718.2,82.8 718,82 717.8,79.8 717.7,77.8 717.3,75.8 717.2,75.2 717,74.3 716.8,72.5 716.7,70.5 716.3,68.7 716.2,67.8 716,67.2 716,66.8" style="stroke: rgb(251, 191, 36); stroke-width: 7;"></polyline></svg>