<svg xmlns="http://www.w3.org/2000/svg" xmlns:xlink="http://www.w3.org/1999/xlink" preserveAspectRatio="xMidYMid meet" height="100%" viewBox="-542 -623 1004 1201"><polygon vector-effect="non-scaling-stroke" fill="none" points="304.5,-185.5 304,-184.7 303,-183.3 302,-181.7 301,-180.3 300,-178.7 298.7,-176.7 297.3,-174.3 295.8,-172 295,-170.5 294.3,-169.5 294.2,-169 293.3,-167.8 292.2,-166.2 291,-164.3 290.3,-163.3 290.2,-162.8 289.3,-161.8 288.5,-160.7 287.7,-159.5 287,-158.5 286.2,-157.2 285.3,-155.8 284.8,-155 284.7,-154.5 284,-153.5 283.3,-152.5 282.7,-151.5 282,-150.5 281.3,-149.5 280.7,-148.5 280,-147.5 279.3,-146.5 278.7,-145.5 278.3,-145 277.5,-143.7 276.7,-142.3 275.8,-141 275.2,-139.8 274.3,-138.7 273.7,-137.5 273,-136.5 272.3,-135.5 271.5,-134.5 270.3,-132.7 269.2,-130.8 268.2,-129 267.3,-127.8 266.3,-126.3 265.2,-124.7 264.7,-123.7 264,-122.5 263.3,-121.5 262.5,-120.5 262.2,-120 261.3,-118.5 260.5,-117 259.5,-115.5 258.8,-114.8 257.8,-113.2 256.8,-111.5 256,-110 255.5,-109.5 254.5,-108 253.7,-106.5 252.8,-105 252.5,-104.3 251.8,-103.7 250.7,-102 249.7,-100.5 248.8,-99 248.2,-97.8 247.3,-96.7 246.5,-95.5 245.5,-94.2 244.7,-92.8 243.7,-91.2 243.2,-90.3 242.2,-88.8 241.2,-87.3 240.2,-85.8 239.7,-84.8 238.8,-83.7 238.2,-82.5 237.3,-81.3 236.5,-80 235.3,-78.2 234,-76.2 233.2,-74.8 232.7,-74 232.3,-73.3 231.5,-72 230.3,-70.3 229.2,-68.7 228.5,-67.7 227.7,-66.5 226.8,-65.3 226.2,-64.2 225.3,-62.7 224.5,-61.3 223.2,-59.3 222.3,-58 221.5,-56.7 220.5,-55.2 219.5,-53.8 218.7,-52.5 217.8,-51.3 217.2,-50.2 216,-48.3 215.3,-47 214.5,-45.7 213.5,-44.2 212.5,-42.8 211.5,-41.5 210.8,-40.5 210,-39 208.8,-37 208,-35.5 207.3,-34.5 206.7,-33.5 205.8,-32.3 204.8,-31 203.8,-29.7 202.8,-28.3 201.8,-26.7 201.2,-25.5 200.2,-23.7 199.3,-22.3 198.5,-20.8 197.7,-19.7 196.8,-18.5 195.8,-17.2 194.8,-15.7 194,-14.2 192.8,-12.5 192.2,-11.5 191.3,-10.3 190.5,-9 189.3,-7 188.2,-5.2 187.5,-4 186.7,-2.8 186,-1.7 185.3,-0.3 184.5,1 183.5,2.3 182.2,4.2 181.3,5.3 180.2,7.2 179.3,8.3 178.5,9.5 177.5,11 176.5,12.5 175.3,14.5 174.8,15.5 174,17.2 173.3,18.3 172.2,20.2 171.3,21.3 170.5,22.7 169.5,24 168.5,25.3 167.2,27.2 166.3,28.5 165.5,29.7 164.8,30.7 164.2,31.7 163.2,33.5 161.8,35.7 160.7,37.7 159.8,39.2 159.5,39.7 158.7,40.8 157.8,41.8 156.7,43.7 155.8,44.8 154.7,46.7 153.8,47.8 152.7,49.7 152,50.8 151,52.5 150.3,53.7 149.5,54.8 148.5,56.2 147.3,58 146.2,59.8 145.5,61.2 144.7,62.3 143.8,63.7 142.8,65.3 142,66.7 141,68.3 139.5,70.5 138.2,72.5 136.5,74.8 135.5,76.2 134.5,77.5 133.7,78.7 133,79.8 132,81.7 131.3,82.8 130,85.2 129,86.8 128,88.5 127.5,89.2 126.7,90.3 126,91.5 125,92.8 124.2,94.2 123.2,95.5 122.2,97.2 121.3,98.3 120.2,100.2 119.3,101.3 118.7,102.5 117.8,103.7 117.2,104.8 116,106.5 115.3,107.7 114.2,109.3 113.3,110.7 112.2,112.5 111.3,113.8 110.5,115.2 109.2,117.3 107.8,119.5 106.2,122.2 105.3,123.3 104.5,124.5 103.7,125.7 102.8,126.8 101.8,128.7 101.2,129.8 100.2,131.5 99.3,132.7 98.2,134.3 97.3,135.7 96.2,137.3 95.2,139 94,140.8 93.3,142.2 92.8,143 92.2,144.2 91.3,145.3 90.2,147.2 89.3,148.3 88.5,149.5 87.7,150.7 86.8,151.8 85.7,153.7 85,154.8 84,156.5 83.3,157.7 82.2,159.3 81.3,160.7 80.2,162.3 79.3,163.5 78.2,165.2 77.2,166.7 76,168.7 75.3,170 74.8,171 74,172.2 73.2,173.3 72,175.2 71.3,176.3 70.5,177.5 69.7,178.7 68.8,179.8 67.7,181.7 66.8,182.8 65.7,184.7 65,185.8 64,187.5 63.3,188.7 62.2,190.3 61.3,191.5 60.2,193.3 59.3,194.8 58.5,196.3 57.7,197.5 56.8,198.7 55.8,200.3 55.2,201.5 54.2,203.2 53.3,204.3 52.5,205.5 51.7,206.7 50.8,207.8 49.7,209.7 48.8,210.8 47.7,212.7 47,213.8 45.7,215.8 44.8,217.2 43.8,218.5 43,220.2 42,221.8 41,223.5 40.5,224.2 39.7,225.3 38.8,226.7 37.7,228.3 36.8,229.5 35.8,231.2 35.2,232.3 34.2,234.2 33.3,235.3 32.5,236.7 31.5,238 30.5,239.3 29.2,241.2 28.3,242.3 27.2,244.2 26.3,245.5 25.2,247.3 24.5,248.5 23.3,250.2 22.7,251.3 21.8,252.5 21.2,253.8 20.3,255.3 19.5,256.7 18.7,257.8 17.8,258.8 16.7,260.7 15.8,261.8 14.7,263.7 13.8,264.8 12.7,266.7 12,267.8 11,269.5 10.3,270.7 9.2,272.3 8.3,273.7 7.5,274.8 6.5,276.2 5.5,277.5 4,280 3,281.8 2,283.5 1.5,284.2 0.8,285.3 0.2,286.5 -0.8,288.2 -1.8,289.5 -3,291.3 -3.8,292.5 -4.8,294.2 -5.7,295.3 -6.8,297.2 -7.7,298.3 -8.5,299.5 -9.5,300.8 -10.5,302.7 -11.5,304.7 -12.2,305.8 -12.7,306.5 -13.5,307.7 -14.2,308.8 -15.3,310.7 -16.2,311.8 -17.3,313.7 -18.2,314.8 -19.3,316.5 -20.2,317.7 -21.2,319.3 -22,320.7 -23,322.3 -24.3,324.3 -25.3,326.2 -26.2,327.5 -26.5,328.2 -27.3,329.3 -28.2,330.7 -29.3,332.3 -30.2,333.7 -31.3,335.3 -32.2,336.7 -33.2,338.3 -34,339.7 -35,341.3 -36,342.7 -37,344.3 -37.8,345.5 -38.5,346.5 -39.3,347.7 -40.5,349.5 -41.7,351.5 -42.5,352.8 -43.3,354.2 -44.8,356.3 -46.2,358.5 -47.5,360.7 -48.2,361.8 -49.3,363.7 -50.2,364.8 -51.3,366.5 -52.2,367.7 -53.3,369.3 -54,370.7 -54.7,371.8 -55.5,373.2 -56.7,375 -57.8,376.8 -58.5,378.2 -59.3,379.3 -60.2,380.7 -61.3,382.3 -62.2,383.5 -62.8,384.7 -63.7,386 -64.5,387.3 -65.8,389.2 -66.7,390.3 -67.8,392.2 -68.8,393.7 -69.7,395.2 -70.3,396.3 -70.8,397.3 -71.5,398.3 -72.3,399.5 -73.2,400.7 -74.2,402 -75,403.3 -75.8,404.7 -76.8,406.3 -77.8,407.8 -78.8,409.2 -79.7,410.5 -80.2,411.5 -80.7,412.5 -81.5,413.8 -82.5,415.2 -83.5,416.7 -84.5,418.2 -85.3,419.7 -86.2,421 -86.5,421.5 -87.3,422.7 -88.2,423.8 -89.5,425.8 -90.3,427.3 -91.3,428.8 -91.7,429.5 -92.7,430.8 -93.5,432.2 -94.8,434.3 -95.7,435.5 -96.5,436.8 -96.8,437.3 -97.3,438.2 -98.3,439.8 -99.5,441.5 -100.5,443.2 -100.8,443.8 -102,445.5 -103,447 -104.2,448.5 -104.5,449.2 -105.5,450.7 -106.3,452.2 -107.2,453.7 -107.5,454.3 -108.2,455.2 -109.3,456.8 -110.3,458.5 -111.3,460 -111.7,460.5 -112.5,461.5 -113.2,462.7 -113.8,463.8 -114.7,465.3 -115.5,466.7 -116.5,468 -117.2,468.8 -118,470.2 -118.8,471.5 -119.5,472.5 -120.7,474.3 -121.8,476.2 -123.3,478.5 -124,479.5 -124.7,480.5 -125.3,481.5 -126.2,482.7 -127.2,484 -128,485.3 -128.8,486.5 -129.5,487.5 -130.2,488.5 -130.8,489.7 -131.5,490.7 -132.3,491.8 -133,492.8 -133.7,494 -134.5,495.2 -135.5,496.3 -136.5,497.5 -136.8,498 -137.3,498.7 -138.3,500 -139.5,501.3 -140.5,502.5 -141.2,503.2 -141.8,503.8 -142.5,504.3 -143.5,505 -144.5,505.7 -145.5,506.5 -146.5,507.3 -147.5,508 -148.5,508.7 -149.3,509.2 -150.2,509.7 -151.3,510.3 -152.2,510.7 -153.3,511.3 -154.3,511.7 -155.2,512.2 -155.7,512.3 -156.7,512.8 -157.8,513.2 -159,513.5 -159.5,513.5 -160.8,513.8 -162.2,514.2 -163.7,514.5 -164.3,514.5 -165.2,514.5 -166,514.5 -167,514.5 -168.3,514.5 -169.7,514.5 -171,514.5 -172,514.5 -173,514.5 -173.8,514.5 -175.8,514.3 -177.7,514 -179.5,513.7 -180,513.5 -180.5,513.5 -181.5,513.2 -182.5,512.8 -183.5,512.3 -184.5,512 -185.8,511.5 -188.3,510.5 -190.7,509.3 -193.2,508 -194.8,507 -196.2,506.3 -197,505.8 -197.5,505.5 -198.5,504.8 -199.5,504.2 -201.3,503 -202.7,502 -204.5,500.8 -205.5,500.2 -206.5,499.5 -207.5,498.8 -208.8,498 -210.2,497.2 -211.3,496.5 -212.2,496 -213,495.7 -213.5,495.3 -214.5,494.7 -215.8,493.8 -217.2,493 -218,492.7 -219.8,491.7 -221.7,490.8 -224,489.7 -225,489.3 -226,489 -226.8,488.7 -228.3,488.2 -229.8,487.5 -232,486.8 -233.5,486.3 -235.8,485.8 -237.3,485.7 -238.8,485.5 -240.8,485.3 -242.8,485.2 -244.8,484.8 -245.8,484.7 -246.8,484.5 -248,484.7 -250,485 -251.8,485.3 -253.5,485.5 -254,485.5 -254.5,485.5 -256.2,485.7 -257.8,485.8 -259.5,486.2 -260,486.3 -261.2,486.7 -262.3,486.8 -263.7,487.2 -265,487.5 -266.3,487.8 -267.8,488.3 -269.2,488.8 -270.3,489.5 -271.2,489.8 -272,490.3 -273,490.7 -274.7,491.5 -275.8,492 -277,492.7 -277.8,493 -279.2,493.8 -280.5,494.7 -281.5,495.3 -282.5,496 -283.5,496.7 -284.5,497.5 -285.5,498.2 -286.7,499 -287.8,499.8 -288.5,500.5 -289,500.8 -290.2,501.5 -291.3,502.2 -292.5,502.8 -293.5,503.5 -294.7,504.3 -295.8,505.3 -296.5,505.8 -297.5,506.5 -298.7,507.3 -300,508.3 -300.8,509 -301.5,509.5 -302.5,510.3 -303.7,511.3 -304.8,512.2 -305.5,512.7 -306.5,513.3 -307.7,514.2 -308.8,515 -309.5,515.5 -311.5,516.8 -313.3,518.2 -315.5,519.7 -316.2,520.2 -317.5,521 -318.7,521.8 -319.8,522.8 -320.7,523.5 -321.7,524.2 -323.5,525.3 -325,526.5 -327,528 -328.2,529 -330.2,530.3 -331.5,531.2 -333,532.2 -333.8,532.8 -334.5,533.5 -335.5,534.2 -337,535 -338.7,536 -339.8,536.8 -340.5,537.5 -341.3,538.2 -342.2,538.7 -343.8,539.7 -345.2,540.5 -346.5,541.5 -347.5,542.2 -348.5,542.8 -350.8,544.2 -352.7,545.3 -354.5,546.5 -355,546.8 -356.5,547.7 -358,548.5 -359.5,549.3 -360,549.7 -360.5,549.8 -361.7,550.5 -363,551.2 -364.3,551.8 -365.5,552.3 -366.7,552.7 -368.5,553.5 -369.8,554 -371,554.7 -371.7,554.8 -372.8,555.3 -374,555.7 -375.8,556.3 -377.2,556.7 -378.5,557 -379.7,557.3 -380.8,557.7 -383.2,558.3 -384.8,558.7 -387.5,559.3 -389.5,559.7 -391.7,560.2 -393.3,560.3 -394.7,560.5 -396.7,560.7 -398.3,560.8 -399.8,561 -400.8,561.2 -401.7,561.3 -403.2,561.5 -404.3,561.5 -406.2,561.5 -407.3,561.5 -408.8,561.5 -410,561.5 -411.8,561.5 -413.3,561.5 -414.8,561.5 -415.8,561.3 -416.8,561.2 -418.5,560.8 -420.2,560.7 -421.8,560.5 -423.2,560.5 -424.8,560.3 -426.5,560.2 -427.5,560 -428.2,560 -429.5,559.8 -430.8,559.5 -432.2,559.2 -433.7,558.8 -435.3,558.5 -436.8,558.2 -437.7,558 -438.7,557.7 -440.7,557.2 -442.5,556.5 -444,556.2 -444.5,555.8 -445.2,555.7 -446.5,555 -448.5,554.3 -450.3,553.5 -451.5,553.2 -452,552.8 -453.3,552.3 -454.7,551.7 -456.5,550.8 -457.8,550 -459.2,549.3 -460.3,548.7 -461.2,548.3 -462.2,547.8 -463.5,547.2 -464.8,546.3 -466,545.7 -467.2,545 -468.3,544.3 -469.5,543.5 -470,543.2 -471.2,542.3 -472.8,541.3 -474.5,540.2 -475.5,539.5 -476.5,538.7 -477.5,537.8 -478.8,536.8 -479.7,536.3 -480.7,535.7 -481.5,534.8 -482.7,533.7 -483.8,532.3 -484.8,531.5 -487.3,529.2 -489.8,527 -492.3,524.7 -493.2,523.5 -494,522.3 -495,521 -495.8,520.2 -496.5,519.5 -497.3,518.5 -498.2,517.5 -499.2,516 -499.7,515 -500.5,513.5 -501.3,512.2 -502.3,510.8 -503.3,509.5 -504.2,508.5 -504.8,507.5 -505.3,506.5 -506,505.2 -506.7,503.8 -507.5,502.5 -508.2,501.3 -509.2,499.8 -509.7,498.8 -510.3,497.5 -511,496.2 -511.7,494.8 -512.5,493.2 -513.2,491.8 -513.8,490.5 -514.2,489.8 -514.5,488.7 -515.2,487 -515.7,485.5 -516.2,484.5 -516.5,483.3 -517,482.2 -517.7,480.3 -518.2,479.2 -518.8,477.3 -519.2,476.2 -519.7,474.5 -520,473.3 -520.5,471.5 -521,470.2 -521.5,468.5 -521.8,467.3 -522.2,466.2 -522.5,464.5 -522.8,462.8 -523,461.2 -523.2,460.5 -523.5,459 -523.8,457.5 -524,455.8 -524.2,455 -524.3,453.7 -524.7,451.7 -524.8,449.7 -525,448.2 -525,447.2 -525.2,445.8 -525.3,444.5 -525.5,443.2 -525.5,442 -525.5,440.3 -525.5,438.7 -525.5,437 -525.5,435.5 -525.5,434 -525.5,432.5 -525.5,430.8 -525.5,429.3 -525.5,428.2 -525.5,427 -525.5,425.3 -525.5,423.2 -525.5,421.5 -525.5,420.2 -525.5,418.8 -525.3,417.3 -525,415.2 -524.7,413.2 -524.5,411.2 -524.5,409.7 -524.5,408.5 -524.5,407.3 -524.3,406.7 -524,405 -523.7,403.2 -523.5,401 -523.3,399.8 -523.2,398.8 -522.8,397.3 -522.7,395.3 -522.3,393.5 -522.2,392.3 -522,391.7 -521.8,390 -521.5,388.3 -521.2,386.7 -520.8,385.2 -520.5,383.7 -520.2,382.2 -519.8,380.8 -519.5,379.7 -519,377.5 -518.5,376 -518.2,374.3 -518,373.7 -517.7,372.3 -517.3,371.2 -516.7,369.5 -516.3,368.3 -515.7,366.3 -515.3,364.7 -514.8,363.2 -514.5,361.8 -514.2,360.7 -513.7,359 -513.3,358 -512.7,356.3 -512.3,355.2 -511.7,353.5 -511.3,352.3 -510.7,350.5 -510.3,349.2 -509.7,347.7 -509.2,346.8 -508.5,345.3 -508,344.2 -507.5,342.5 -506.8,341 -506.3,339.3 -505.8,338.2 -505.2,336.8 -504.5,335.5 -503.7,333.8 -503.2,332.7 -502.3,330.8 -501.7,329.3 -501.2,327.8 -500.8,327.2 -500.2,325.8 -499.3,324.2 -498.5,322.5 -498,321.5 -497.5,320.8 -496.8,319.7 -496.2,318.5 -495.2,316.7 -494.3,315.3 -493.5,313.7 -493,312.7 -492.5,311.7 -491.7,310.5 -490.8,309.3 -490.2,308.2 -489.3,306.8 -488.3,305.2 -487.2,303.3 -486.7,302.2 -486.3,301.5 -485.7,300.3 -484.8,299.2 -483.7,297.5 -482.8,296.3 -481.8,294.7 -481.2,293.5 -480.5,292.5 -479.5,291 -478.7,289.5 -477.7,287.7 -477.2,286.8 -476.5,285.8 -475.7,284.7 -475,283.5 -474.3,282.5 -473.7,281.3 -472.8,280.2 -471.8,278.8 -470.8,277.5 -470,276.2 -469,274.5 -468.3,273.5 -467.2,271.8 -466.3,270.7 -465.2,268.8 -464.5,267.7 -463.7,266.2 -463,265 -462.2,263.7 -461.5,262.7 -460.7,261.5 -460,260.5 -459,258.8 -458.3,257.7 -457.5,256.5 -456.7,255.3 -455.8,254.2 -455.2,253 -454.3,251.8 -453.5,250.5 -452.2,248.7 -451.3,247.5 -450.2,245.8 -449.5,244.7 -448.8,243.5 -448.2,242.3 -447.2,240.8 -446,239 -445.2,237.7 -444.5,236.7 -443.8,235.5 -443.2,234.5 -442.2,232.8 -441.3,231.7 -440.5,230.5 -439.7,229.3 -438.8,228.2 -437.8,226.5 -437.2,225.3 -436.5,224.2 -435.5,222.7 -434.5,221.3 -433.2,219.5 -432.5,218.5 -431.8,217.5 -431.2,216.2 -430.2,214.5 -429.2,212.8 -428.5,211.8 -427.8,210.7 -427,209.3 -426,207.7 -425.2,206.5 -424.5,205.5 -423.5,204.2 -422.7,202.8 -421.8,201.5 -421.2,200.5 -420.3,199.3 -419.2,197.7 -418.5,196.5 -417.3,194.8 -416.7,193.7 -415.8,192.5 -415.2,191.5 -414.2,189.8 -413.3,188.2 -412.8,187 -412.5,186.3 -411.5,185 -410.5,183.7 -409.2,181.8 -408.5,180.7 -407.8,179.5 -407.2,178.5 -406.3,177.3 -405.2,175.7 -404.5,174.5 -403.8,173.5 -403.2,172.3 -402.3,171.2 -401.3,169.5 -400.3,168 -399.5,166.5 -398.8,165.5 -398,164 -397,162.5 -396.2,161 -395.8,160.5 -395.2,159.5 -394.3,158.3 -393.2,156.7 -392.5,155.5 -391.8,154.5 -391.2,153.3 -390.3,152.2 -389.2,150.3 -388.5,149.2 -387.5,147.5 -386.8,146.5 -386,145.5 -385,144.2 -384,142.3 -383,140.5 -382.5,139.5 -382,138.8 -381.2,137.7 -380.5,136.5 -379.8,135.5 -379,134.2 -378,132.8 -377,131.5 -376.3,130.3 -375.5,129 -374.8,127.7 -374.3,127 -373.8,126.3 -372.8,125 -371.8,123.7 -370.8,122 -370.2,121 -369.2,119.5 -368.3,118.5 -367.7,117.5 -367,116.5 -366.3,115.3 -365.5,114.3 -364.8,113.5 -364,112.8 -363,111.7 -361.8,110.2 -360.8,108.7 -360,107.7 -359.5,107.3 -359,106.8 -358.5,106.3 -357.5,105.5 -356.3,104.7 -355,103.5 -354.2,102.7 -353.5,102.2 -352.5,101.5 -351.3,100.7 -350.2,99.7 -348.7,98.5 -347.2,97.7 -345.3,96.7 -344.3,96.3 -343.2,95.7 -342.3,95.3 -341.5,94.8 -339.5,94.2 -337.5,93.5 -335.5,93 -335,92.8 -333.8,92.5 -332.7,92.2 -331.3,91.8 -330.7,91.7 -329.8,91.5 -328.3,91.3 -326.7,91.2 -325.2,91 -324.5,91 -323.8,91 -322.8,91 -321.5,91 -320.2,91 -319,91 -317.8,91 -316.8,91 -314.7,91.2 -312.8,91.3 -311,91.7 -310.5,91.8 -309.3,92.2 -308,92.3 -306.7,92.7 -305.5,93 -304.5,93.5 -303.5,93.8 -302.5,94.2 -301.5,94.5 -300.5,94.8 -300,95 -299,95.3 -297.7,96 -296.3,96.7 -295.2,97.2 -294.3,97.5 -293.2,98.2 -292.3,98.7 -291.2,99.3 -290.3,99.8 -289.5,100.3 -289,100.7 -287.8,101.5 -286.7,102.3 -285.7,103.2 -285.3,103.5 -285,103.8 -284.3,104.3 -283,105.3 -281.7,106.5 -280.5,107.5 -280,107.8 -279.3,108.3 -278.8,108.8 -278.2,109.5 -277.5,110.5 -276.5,111.5 -275.5,112.7 -274.5,113.5 -273.8,114.3 -273.2,115.2 -272.7,115.8 -272,116.5 -271.3,117.5 -270.5,118.7 -269.7,119.8 -269,120.5 -268.3,121.5 -267.5,122.7 -266.7,123.8 -266.2,124.5 -265.5,125.5 -264.8,126.5 -264.2,127.5 -263.8,128 -263.5,129.2 -262.8,130.7 -262.3,132.2 -261.8,133 -261.7,133.5 -261.2,134.5 -260.7,135.8 -260,137.2 -259.5,138.5 -259,139.5 -258.7,140.5 -258.5,141 -258.2,142.3 -257.8,143.7 -257.3,145 -257,146.2 -256.7,147.3 -256.5,148.7 -256.2,150 -255.8,151.3 -255.5,152.5 -255.5,153.2 -255.3,154.7 -255,156.2 -254.7,157.5 -254.5,158.2 -254.5,159 -254.5,160 -254.5,160.8 -254.2,162.7 -253.8,164.5 -253.5,166.3 -253.5,167.5 -253.5,168.5 -253.5,170.7 -253.5,172.7 -253.5,174.8 -253.5,176.2 -253.5,177.5 -253.5,178.8 -253.5,180.2 -253.5,181.5 -253.5,182.7 -253.7,183.5 -253.8,184.2 -254.2,185.7 -254.3,187.3 -254.5,189.3 -254.5,190.5 -254.7,191.5 -254.8,192 -255,192.5 -255.2,194 -255.3,195.5 -255.7,197 -255.8,197.5 -256.2,198.8 -256.5,200.2 -256.8,201.5 -257.2,202.7 -257.5,204 -257.8,205.3 -258.2,206.7 -258.5,207.8 -258.8,209.2 -259,209.8 -259.7,211.8 -260.3,213.7 -261.3,215.8 -261.8,217.2 -262.5,218.5 -262.8,219.7 -263.3,220.7 -263.7,221.7 -264.2,222.5 -264.7,223.7 -265.3,224.8 -266,226.2 -266.7,227.3 -267.5,229 -268.2,230.5 -268.7,231.5 -269,232 -269.3,232.5 -270.2,234 -271,235.5 -271.8,237 -272.2,237.5 -272.8,238.5 -273.7,239.5 -274.3,240.5 -275,241.7 -275.7,242.8 -276.3,244.2 -276.7,244.8 -277.5,246.2 -278.5,247.3 -279.3,248.5 -280,249.5 -280.8,250.8 -281.8,252.2 -282.3,253 -283,254.2 -283.8,255.7 -284.7,257.2 -285.2,258 -285.5,258.5 -286.3,259.5 -287,260.5 -288,262.2 -288.7,263.3 -289.5,264.5 -290.2,265.5 -290.8,266.5 -291.5,267.5 -292.3,268.5 -293.2,270 -294,271.5 -294.5,272.5 -295.2,273.2 -295.7,273.8 -296.7,275.3 -297.5,276.8 -298.5,278.3 -298.8,279 -299.7,280.2 -300.5,281.3 -301.5,282.5 -302.2,283.7 -302.8,284.8 -303.8,286.5 -304.7,287.5 -306.2,289.8 -307.3,291.7 -308.3,293.5 -309.3,295 -310.8,297.3 -312.5,299.7 -313.3,301 -314,302.2 -314.7,303.2 -315.3,304.3 -315.7,304.8 -316.5,306.2 -317.7,307.7 -318.7,309.2 -319.3,310.5 -319.8,311.5 -320.5,312.5 -321.5,313.7 -322.3,314.8 -323.2,316.2 -323.8,317.5 -324.7,318.8 -325.8,320.5 -327,322.2 -328.2,323.8 -328.8,325 -329.7,326.2 -330.7,327.7 -332,329.7 -332.7,331 -333.2,332 -333.5,332.5 -334.2,333.2 -335.2,334.5 -336,335.8 -336.7,337 -337.5,338.3 -338.5,339.7 -339.3,341 -340,342.2 -340.7,343.3 -341.5,344.5 -341.8,345 -342.7,346.3 -343.5,347.7 -344.5,349 -345.2,350.2 -345.8,351.3 -346.5,352.5 -347.5,353.8 -348.3,355.2 -349.2,356.5 -349.5,357 -350,357.5 -350.5,358.3 -351.5,360 -352.5,361.7 -353.3,363 -353.7,363.5 -354.2,364.2 -355.2,365.3 -356.2,366.8 -357,368.2 -357.5,369 -357.8,369.5 -358.3,370.2 -359.2,371.3 -360.2,373 -361,374.5 -361.5,375.5 -362.2,376.5 -363,377.7 -364.2,379.3 -365.2,380.8 -366,382.2 -366.5,383.3 -366.8,384.2 -367.3,385.3 -367.7,386.2 -368.3,387.5 -368.7,388.5 -369,389.5 -369.3,390.5 -369.7,391.5 -370,392.5 -370.3,393.7 -370.7,395.2 -371,396.7 -371,397.5 -371,398 -371,398.5 -371.2,399.8 -371.3,401.3 -371.5,403 -371.3,404.7 -371.2,406.2 -371,407.5 -371,408 -371,408.5 -370.8,409.2 -370.5,410.7 -369.8,412.7 -369.3,414.5 -368.7,415.8 -368.3,416.7 -367.8,417.5 -367.5,418.5 -366.5,420.3 -365.5,422.2 -364.2,423.8 -363.5,424.7 -362.8,425.3 -362.5,425.7 -361.8,426.5 -360.7,427.7 -359.5,428.8 -358.2,429.8 -357.3,430.5 -355.8,431.7 -354.7,432.3 -352.7,433.7 -351.3,434.3 -349.5,435.2 -348.5,435.3 -347.5,435.7 -346.3,436 -345.2,436.3 -344,436.5 -343.5,436.7 -342.2,437 -340.7,437.3 -339.2,437.5 -338.2,437.5 -337.2,437.5 -336,437.5 -334.3,437.3 -332.8,437.2 -331.5,437 -331,437 -330.5,437 -328.8,436.7 -327.2,436.3 -325.5,436 -324.5,435.7 -323.5,435.3 -322.5,435 -321.5,434.7 -320.5,434.3 -319.2,433.8 -318.3,433.5 -317.5,433.2 -316.5,432.7 -315.3,432.2 -313.7,431.5 -312.2,430.8 -310.8,430.3 -310,430 -309.2,429.7 -308.3,429.3 -307.5,428.8 -306.5,428.5 -305.2,427.8 -303.8,427.3 -302.7,426.7 -301.8,426.3 -301,426 -300.5,425.8 -299.5,425.5 -298.2,424.8 -296.8,424.3 -295.7,423.7 -294.8,423.3 -293.7,422.7 -292.8,422.3 -292,421.8 -291.5,421.7 -290.5,421.3 -289.2,420.8 -287.8,420.3 -287,419.8 -285.8,419.5 -284.7,419 -282.8,418.3 -281.7,417.7 -280.5,417.2 -280,416.8 -278.8,416.3 -277.7,415.7 -276.5,415.2 -275.8,414.8 -274.7,414.5 -273.2,413.8 -271.8,413.3 -270.7,412.7 -269.8,412.3 -268.2,411.5 -266.8,411 -265.5,410.3 -265,410.2 -263.8,409.7 -262.7,409.3 -260.8,408.5 -259.7,408 -258.5,407.3 -258,407.2 -256.8,406.7 -255.7,406.3 -254.2,405.7 -253.3,405.3 -252.2,404.7 -250.8,404.2 -249.5,403.5 -248.2,402.8 -247.3,402.3 -246.3,401.8 -244.8,401.3 -243.3,400.7 -242,400.2 -240.8,399.7 -239.7,399.3 -238.2,398.7 -237.3,398.3 -235.7,397.5 -234.3,397 -233,396.3 -232.5,396 -231.3,395.5 -229.8,394.8 -228.3,394.3 -226.8,393.5 -225.5,393 -224.2,392.3 -222.2,391.7 -220.3,390.8 -217.8,389.7 -216.7,389 -215.3,388.3 -214.7,388.2 -213.5,387.7 -212,387.2 -210.5,386.5 -208.8,385.7 -207.7,385 -206.3,384.3 -205.3,384 -204.3,383.5 -202.8,382.7 -201.5,382 -200.2,381.3 -199.5,381.2 -198.5,380.7 -197,380 -195.5,379.3 -193.8,378.5 -192.7,377.8 -190.8,376.8 -189.5,376 -188.2,375.3 -187.5,374.8 -186.8,374.5 -185.7,373.8 -184,373 -182.3,372.2 -181.2,371.5 -180.2,371 -179.3,370.5 -178.2,369.8 -176.8,369 -175.3,368.2 -173.7,367.2 -172.3,366.2 -171.2,365.3 -170.5,364.8 -169.8,364.5 -168.7,363.8 -167,363 -165.3,362 -164,361 -163,360.2 -162.3,359.5 -161.2,358.7 -160.2,358 -158.5,357 -157.3,356.2 -156.2,355.2 -155.5,354.5 -154.5,353.7 -153.3,352.7 -152,351.7 -151.2,351 -149.8,350.2 -148.5,349.2 -147,348 -146.2,347.2 -145.5,346.5 -144.5,345.7 -143.3,344.7 -142,343.5 -141,342.5 -140.2,341.8 -139.5,341.3 -138.3,340.3 -137.2,339.2 -135.8,337.8 -135,337 -134,336 -133.2,335.2 -132.5,334.5 -131.2,333.2 -129.8,331.8 -128.7,330.5 -128.3,330 -127.8,329.3 -127,328.5 -125.7,327 -124.5,325.7 -123.5,324.5 -122.8,323.8 -122,323 -121,321.7 -120.2,320.5 -119.5,319.5 -118.8,318.8 -118,318 -116.8,316.7 -116,315.3 -115.3,314.2 -114.5,312.8 -113.5,311.7 -112.5,310.5 -112.2,310 -111.5,309.2 -110.5,307.7 -109.3,306.2 -108.5,305 -108.2,304.5 -107.5,303.5 -106.8,302.5 -106,301.5 -105.2,300.2 -104.3,298.8 -103.5,297.5 -102.8,296.8 -102.3,296.2 -101.3,294.8 -100.5,293.7 -99.7,292.5 -99,291.2 -98.3,290 -97.5,288.8 -97.2,288.5 -96.7,287.8 -95.7,286.3 -94.5,284.8 -93.7,283.5 -93.3,283 -92.5,281.7 -91.7,280.3 -90.8,279 -90.5,278.5 -89.8,277.5 -89.2,276.5 -88.5,275.5 -87.8,274.8 -86.8,273.3 -85.8,271.8 -84.8,270.2 -84.3,269.3 -83.7,268.2 -83.2,267.3 -82.7,266.5 -82.3,266 -81.5,264.8 -80.7,263.7 -79.8,262.5 -79.2,261.5 -78.5,260.5 -77.7,259.2 -77.2,258.3 -76.7,257.5 -76.3,257 -75.7,255.7 -74.8,254.3 -74,253 -73.7,252.5 -73.3,252 -72.5,250.8 -71.7,249.7 -70.7,248.2 -70.2,247.3 -69.7,246.5 -69.3,246 -68.7,244.8 -67.8,243.7 -66.8,242.2 -66.3,241.3 -65.8,240.7 -65.7,240.3 -65,239.5 -64.2,238.2 -63.3,236.8 -62.8,236 -62.7,235.5 -62,234.5 -61.3,233.5 -60.7,232.5 -60.2,231.3 -59.7,230.2 -59.2,229 -58.7,228.2 -58.3,227.3 -57.7,226.3 -57.3,225.7 -56.7,224.7 -56.3,223.8 -55.8,222.5 -55.5,221.5 -55.2,220.5 -54.8,219.3 -54.5,218.2 -54.2,217 -54,216.5 -53.8,215.3 -53.7,214.2 -53.5,213 -53.5,212.5 -53.3,211.2 -53.2,209.7 -53,208 -53,207 -53,206 -53,205 -53.2,203.3 -53.3,201.8 -53.5,200.5 -53.5,200 -53.8,198.8 -54.2,197.7 -54.5,196.5 -54.5,196 -54.8,194.8 -55.3,193.3 -55.8,191.8 -56.2,191 -56.7,189.8 -57.3,188.8 -57.8,187.8 -58.2,187.5 -58.7,186.5 -59.5,185.3 -60.3,184.2 -60.8,183.5 -61.2,183.2 -62,182.2 -62.8,181.2 -63.8,179.8 -64.5,179.2 -65.2,178.5 -65.8,177.8 -67,176.7 -68.3,175.7 -69.5,174.8 -69.8,174.5 -70.2,174.2 -71.2,173.3 -72.7,172.3 -74.2,171.3 -75,170.8 -75.5,170.5 -76.5,169.8 -77.5,169.2 -78.5,168.7 -79,168.3 -79.7,167.8 -81,166.8 -82.3,165.8 -83.8,165 -84.7,164.5 -85.8,163.8 -86.7,163.3 -87.8,162.7 -88.7,162.2 -89.5,161.7 -90.5,161 -91.5,160.3 -92.5,159.7 -93.5,159 -94.5,158.3 -95.5,157.7 -96,157.3 -97.2,156.5 -98.3,155.7 -99.5,154.8 -100,154.5 -100.7,153.8 -101.8,152.7 -103.7,151 -105.3,149.5 -106.5,148.5 -107.2,147.8 -107.8,147.3 -108.7,146.7 -109.5,146 -110.3,145.2 -110.8,144.5 -111.5,143.5 -112.3,142.3 -113.8,140.7 -115,139.3 -116,138.2 -116.5,137.5 -117.2,136.7 -117.7,135.8 -118.5,134.5 -119.3,133.2 -120.3,131.8 -121.2,130.5 -121.8,129.5 -122.5,128.5 -122.8,128 -123.5,126.8 -124.2,125.7 -124.8,124.3 -125.5,123 -126.2,121.7 -126.8,120.5 -127.3,119.5 -127.7,118.5 -128.2,117.5 -128.5,116.5 -129,115.5 -129.8,113.7 -130.5,112.3 -131.2,111 -131.3,110.5 -131.8,109.3 -132.5,107.5 -133.3,105.7 -133.8,104.3 -134.2,103.7 -134.5,102.5 -135,101.5 -135.7,99.7 -136.3,98.3 -137,96.8 -137.5,95.7 -138,94.5 -138.7,92.8 -139.3,91.5 -139.8,90.2 -140.3,88.8 -140.7,87.7 -141.3,86.2 -141.7,85.3 -142.3,83.8 -142.7,82.7 -143.2,81.5 -143.5,80.3 -144.2,78.8 -144.8,77.3 -145.7,75.7 -146.3,74.3 -146.8,73 -147.3,71.8 -147.7,70.7 -148.3,69.2 -148.7,68.2 -149.3,66.7 -150,65 -150.7,63.5 -151.5,61.8 -152,60.5 -152.7,59.2 -152.8,58.5 -153.5,57 -154.2,55.5 -154.8,53.8 -155.3,52.7 -155.7,51.5 -156.3,50 -156.7,49 -157.3,47.3 -157.8,46.2 -158.5,44.5 -159.2,43 -159.7,41.5 -160.2,40.5 -160.8,39 -161.5,37.5 -162.5,35.2 -163,33.8 -163.7,32.5 -163.8,31.8 -164.2,31.2 -164.8,29.5 -165.5,28 -166.2,26.5 -166.5,25.3 -167.2,23.8 -168.2,21.5 -169,19.8 -169.7,18.5 -169.8,17.8 -170.2,17.2 -170.8,15.5 -171.5,14 -172.2,12.5 -172.5,11.3 -173,10.2 -173.8,8 -174.5,6.5 -175.2,5 -175.7,3.7 -176.3,2.3 -176.8,0.8 -177.3,-0.3 -177.8,-1.5 -178.5,-3.2 -179.2,-4.7 -179.7,-6.3 -180.5,-8 -181.2,-9.3 -181.8,-10.7 -182.2,-11.3 -182.5,-12.7 -183.3,-14.5 -184,-16.5 -184.7,-17.8 -185,-18.5 -185.5,-19.7 -186.3,-21.5 -187,-23.5 -187.7,-24.8 -188,-25.5 -188.5,-26.7 -189,-27.8 -189.5,-29.7 -190,-30.8 -190.5,-32.5 -191.2,-34 -191.7,-35.5 -192.5,-37.3 -193.2,-38.7 -193.8,-40 -194.3,-41.2 -194.7,-42.3 -195.2,-43.5 -195.5,-44.7 -196,-45.8 -196.5,-47.7 -197,-49.2 -197.5,-50.7 -197.8,-51.7 -198.3,-53 -198.7,-54.5 -199,-55.8 -199.2,-56.5 -199.5,-58 -199.8,-59.5 -200,-61.2 -200.2,-61.8 -200.3,-62.8 -200.5,-64.2 -200.5,-65.7 -200.5,-66.8 -200.5,-68.2 -200.7,-69.5 -200.8,-71.2 -201,-72.5 -201,-73.8 -201,-75.2 -201,-76.5 -201,-78.2 -201,-79.7 -201,-80.8 -201,-82.2 -200.8,-83.5 -200.7,-84.8 -200.5,-86.2 -200.5,-87.3 -200.5,-88.5 -200.3,-89.2 -200,-90.7 -199.7,-92.2 -199.5,-93.7 -199.3,-94.3 -199,-95.7 -198.7,-96.8 -198.3,-98.2 -198,-99.5 -197.7,-100.8 -197.3,-102.2 -197.2,-102.8 -196.7,-103.8 -196.2,-105.2 -195.5,-106.7 -195.2,-107.8 -194.7,-108.8 -194.2,-110.2 -193.5,-111.7 -193.2,-112.8 -192.7,-113.8 -192.3,-114.7 -191.8,-115.5 -191.2,-116.8 -190.5,-118.2 -189.8,-119.5 -189.2,-120.5 -187.8,-122.3 -186.3,-124.5 -185.3,-126.3 -184.8,-127.3 -184.5,-128 -183.8,-128.7 -182.7,-130.2 -181.7,-131.7 -180.8,-133 -180.5,-133.5 -179.8,-134.2 -179,-135 -178,-136 -177,-137 -176,-138 -175,-139 -174,-140 -173,-141 -172.3,-141.8 -171.7,-142.7 -171,-143.5 -170,-144.5 -169,-145.5 -168,-146.5 -166.8,-147.5 -165.8,-148.2 -165,-148.7 -163.8,-149.3 -162.5,-150.3 -161,-151.5 -160,-152.5 -159,-153.3 -158.2,-154 -157.5,-154.5 -156.2,-155.3 -154.7,-156.2 -153.2,-157 -152.5,-157.5 -152,-158 -150.8,-158.7 -149.5,-159.3 -148.2,-160 -146.8,-160.7 -145.7,-161.3 -144.5,-162 -143.2,-162.7 -141.8,-163.3 -140.5,-164 -140,-164.3 -138.7,-165 -137.3,-165.7 -136,-166.3 -134.8,-167 -133.5,-167.5 -132.2,-168.2 -130.8,-168.8 -129.5,-169.5 -128.2,-170.2 -127.5,-170.5 -126.5,-171 -124.7,-171.8 -122.8,-172.5 -121.5,-173.2 -120.5,-173.7 -119.2,-174.3 -117.8,-175 -116.5,-175.7 -115.5,-176.2 -113.8,-177 -112.5,-177.5 -111.2,-178.2 -109.8,-178.8 -108.5,-179.7 -107.2,-180.3 -105.8,-181 -104.5,-181.5 -102.8,-182.3 -101.8,-182.8 -100.2,-183.7 -98.8,-184.3 -97.3,-185 -96,-185.7 -94.7,-186.3 -93.5,-186.8 -92.8,-187.2 -91.7,-187.7 -89.8,-188.5 -88.2,-189.3 -87,-190 -85.7,-190.7 -84.3,-191.3 -83,-192 -81.8,-192.5 -80.2,-193.3 -78.5,-194.2 -77.3,-194.8 -76.7,-195.2 -75,-195.8 -73.5,-196.5 -72,-197.2 -70.7,-197.8 -69.3,-198.5 -67.5,-199.3 -66.5,-199.8 -64.8,-200.7 -63.5,-201.3 -61.8,-202.2 -60.3,-203 -59,-203.7 -57.7,-204.3 -56.7,-204.7 -55,-205.5 -53.5,-206.2 -52.2,-206.8 -51.2,-207.3 -49.5,-208.2 -47.7,-209.2 -46.2,-209.8 -45.2,-210.3 -44.3,-210.8 -42.8,-211.5 -41.2,-212.3 -39.3,-213.2 -38.2,-214 -37.5,-214.3 -35.8,-215.2 -34.2,-216 -32.3,-216.8 -31.7,-217.2 -30,-217.8 -28.5,-218.7 -27,-219.3 -25.7,-220 -24.3,-220.7 -22.3,-221.7 -21.2,-222.3 -19.8,-223 -18.7,-223.7 -16.8,-224.5 -15.2,-225.3 -14,-226 -12.8,-226.5 -11.2,-227.3 -9.3,-228.2 -8.2,-229 -7.3,-229.3 -5.8,-230 -3.7,-231 -1.7,-232 -0.5,-232.7 0.2,-233 1.3,-233.7 3.2,-234.5 4.8,-235.3 6.2,-236 7.3,-236.5 9,-237.2 10.5,-237.8 12.2,-238.7 13.8,-239.5 15.7,-240.3 17.2,-241.2 18.2,-241.7 19.8,-242.5 21.2,-243.2 23.2,-244.3 24.3,-245 25.7,-245.7 26.3,-246 28,-246.8 29.5,-247.5 31.5,-248.3 32.5,-248.8 34.2,-249.7 35.5,-250.3 37.3,-251.3 38.7,-252.2 39.8,-252.8 40.7,-253.2 42.2,-253.8 43.8,-254.5 45.7,-255.3 46.7,-255.8 48.3,-256.8 49.7,-257.5 51.8,-258.5 53.2,-259.2 54.7,-259.8 56,-260.5 57.5,-261.2 59.2,-262.2 60.2,-262.7 61.2,-263.2 62.3,-263.7 64.2,-264.5 65.8,-265.3 67.5,-266.2 68.8,-267 70.3,-267.7 71.7,-268.3 73,-269 74.3,-269.7 75.3,-270.2 77.2,-271 78.8,-272 80.7,-272.8 81.7,-273.3 82.7,-273.8 84.2,-274.5 85.8,-275.3 87.7,-276.2 88.8,-276.8 90,-277.3 91,-277.8 92.5,-278.7 94.2,-279.5 95.8,-280.3 97.2,-281 97.8,-281.3 99.5,-282 101.5,-283 103.5,-284.2 104.7,-284.8 105.7,-285.3 106.8,-285.8 108.3,-286.5 110,-287.2 112,-288.2 113.5,-289.2 114.7,-289.8 115.3,-290.2 117.2,-291 118.8,-291.8 120.7,-292.7 121.3,-293 122,-293.3 123.5,-294 125.5,-295 127.7,-296.2 128.8,-296.8 129.5,-297.2 131,-297.8 132.5,-298.5 134.5,-299.3 135.8,-300 137.2,-300.7 138.8,-301.5 140.2,-302.2 141.7,-302.8 142.7,-303.3 144,-304 145.3,-304.8 147.2,-305.7 148.5,-306.3 150.2,-307.2 151,-307.7 152.5,-308.3 153.5,-308.8 154.5,-309.3 156.2,-310.2 157.8,-311 160,-312.2 161,-312.7 162.3,-313.3 163.2,-313.7 164.8,-314.5 166.2,-315.2 167.5,-315.8 168.2,-316.2 169.8,-317 171.5,-317.8 173.2,-318.7 174.2,-319.2 175.7,-320 177,-320.7 178,-321.2 178.5,-321.3 180.2,-322.2 181.8,-323 183.5,-323.8 184,-324.2 185.5,-324.8 187,-325.5 188.5,-326.2 189.5,-326.7 190.8,-327.3 192.2,-328 193,-328.5 194.3,-329.2 195.7,-329.8 197.3,-330.7 198.7,-331.3 200,-332 201,-332.5 202.2,-333.2 203.5,-333.8 205.3,-334.8 206.5,-335.5 207.5,-336.2 208.2,-336.5 209.7,-337.2 211.2,-337.8 212.5,-338.5 213.5,-339 214.5,-339.5 216.2,-340.3 217.3,-341 219,-341.8 220,-342.3 221,-342.8 222.2,-343.5 223.5,-344 225.2,-344.8 226.2,-345.3 227,-345.8 228.2,-346.5 229.5,-347.2 231.2,-348 232.3,-348.5 233.8,-349.2 235,-349.8 236.2,-350.5 236.8,-350.8 237.5,-351.2 239,-352 240.5,-352.8 242,-353.7 242.7,-353.8 244,-354.5 245.3,-355.2 246.5,-355.8 247,-356.2 248.2,-356.7 249.3,-357.3 250.7,-357.8 251.3,-358.2 253,-359 254.5,-359.8 256,-360.7 256.5,-360.8 257,-361.2 258.5,-362 260,-362.8 261.5,-363.7 262.2,-363.8 262.8,-364.2 264.2,-364.7 265.3,-365.3 266.5,-365.8 267,-366.2 268.2,-366.8 269.3,-367.5 270.5,-368.2 271,-368.3 272,-368.8 273.3,-369.3 275.2,-370.3 276.5,-371 277.5,-371.7 278,-371.8 279.3,-372.7 280.7,-373.3 282,-374 283,-374.5 284.3,-375.2 285.5,-376 286.2,-376.3 287.5,-377.2 289,-378.2 290.5,-379.2 291.2,-379.8 291.7,-380.3 292.8,-381.3 294.7,-383.3 297.2,-386.2 299.3,-389.5 301,-392.8 302.2,-395.5 303,-398.3 303.3,-400.3 303.5,-402.7 303.5,-404 303.7,-405.5 303.5,-407.7 303.3,-409.8 302.7,-412.5 302.3,-414 301.7,-416 301,-417.5 300.2,-418.8 299.7,-419.7 299.5,-420 299.3,-420.3 298.7,-421.3 298,-422.3 297.3,-423.3 297.2,-423.7 296,-425 294.8,-426.7 293.5,-428.2 293,-428.8 292.5,-429.2 292,-429.8 290.7,-431 289.3,-432.2 288.2,-433.2 287.3,-433.7 286.3,-434.5 285.2,-435.2 284.7,-435.7 283.7,-436.3 282.2,-437.3 280.5,-438.3 279.2,-439.2 278.3,-439.7 276.7,-440.7 275.3,-441.3 274,-442 272.7,-442.7 271.3,-443.3 270,-444 269.2,-444.3 268.3,-444.7 267.3,-445.3 266.7,-445.7 265.5,-446.2 264.5,-446.5 263.5,-446.8 262.5,-447.2 261.5,-447.5 260.5,-447.8 259.5,-448.2 258.3,-448.5 256.5,-449 255.2,-449.5 254,-449.8 253.5,-450 252.5,-450.2 251.5,-450.3 250.5,-450.7 249.2,-451 247.8,-451.3 246.5,-451.5 246,-451.5 245.5,-451.7 244.2,-452 242.7,-452.3 241.2,-452.5 239.2,-452.7 237.2,-453 235.2,-453.3 234.2,-453.5 233.2,-453.5 232,-453.5 231,-453.5 230,-453.5 229.2,-453.5 228.2,-453.5 227.2,-453.5 226,-453.5 225,-453.5 224.2,-453.5 222.8,-453.5 221.5,-453.5 220,-453.3 218.3,-453 216.8,-452.7 215.5,-452.5 215,-452.5 214.5,-452.5 212.8,-452.3 211.2,-452 209.5,-451.7 209,-451.5 208.5,-451.5 207.2,-451.3 205.8,-451 203.2,-450.5 201,-449.8 198.8,-449.3 198,-449 197.5,-448.8 197,-448.7 195.8,-448.2 194.3,-447.7 192.8,-447.2 192,-446.8 191.5,-446.7 191,-446.3 189.8,-446 188.3,-445.3 186.8,-444.8 185.7,-444.2 184.2,-443.5 182.7,-442.7 181.5,-442.2 181,-441.8 180.5,-441.7 179.5,-441.2 178,-440.5 176.5,-439.7 175.5,-439.2 175.2,-438.8 174.3,-438.2 173.5,-437.5 172.5,-436.8 171.5,-436.3 170.3,-435.7 169.3,-435 168.3,-434.3 167.3,-433.5 166.2,-432.7 165.5,-432.2 164.5,-431.5 163.3,-430.7 162,-429.7 161.2,-429 159.8,-428 158.5,-426.8 157,-425.5 156.2,-424.8 155.5,-424.3 154.5,-423.7 153.3,-422.8 152,-421.8 151.3,-421.2 150.8,-420.5 150.5,-420.2 149.5,-419.5 148.3,-418.7 147,-417.5 146,-416.7 145,-415.8 143.8,-414.8 142.8,-413.8 141.5,-412.8 140.3,-412 139.2,-411.2 138.5,-410.7 137.5,-410 136.5,-409.3 135.5,-408.7 135,-408.3 134.2,-407.8 132.8,-407 131.5,-406.2 130.5,-405.7 130,-405.3 129.2,-405 128.3,-404.5 127.2,-403.8 126.3,-403.3 125.5,-402.8 124.5,-402.5 123.5,-402.2 122.5,-401.8 121.5,-401.5 120.5,-401.2 119.5,-400.8 119,-400.7 117.8,-400.3 116.5,-400 115.2,-399.7 113.8,-399.3 112.7,-399.2 111.5,-399 111,-399 110.5,-398.8 109.8,-398.7 109,-398.5 108,-398.5 106.7,-398.5 105.3,-398.5 104,-398.5 103.2,-398.5 102.2,-398.5 101.2,-398.5 100,-398.5 99,-398.5 97.7,-398.5 96.3,-398.5 95.2,-398.7 94.5,-398.8 94,-399 93.5,-399 92.2,-399.2 90.8,-399.5 89.5,-399.8 89,-400 87.8,-400.3 86.5,-400.7 85.2,-401 84.5,-401.2 83.7,-401.5 82.8,-401.8 81.7,-402.3 80.8,-402.7 79.7,-403.3 78.8,-403.7 77.7,-404.3 76.8,-404.7 75.5,-405.3 74.5,-405.7 73.5,-406.2 73,-406.3 72.5,-406.7 72,-406.8 71.3,-407.3 69.8,-408.5 68.3,-409.8 67,-410.8 65.8,-411.7 64.7,-412.5 63.5,-413.3 63.2,-413.7 62.7,-414.2 62,-415 61.2,-415.8 60.5,-416.3 59.7,-417.2 58.8,-418 58,-419 57.7,-419.5 57,-420.5 56.2,-421.7 55.3,-422.8 54.8,-423.3 54.5,-423.7 54.2,-424 53.7,-424.8 53,-426.2 52.2,-427.5 51.5,-428.5 51.2,-429 50.7,-429.8 50.3,-430.7 49.8,-431.5 49.7,-432 49.3,-433.2 48.8,-434.7 48.3,-436.2 47.8,-437.3 47.3,-438.8 46.8,-440.3 46.5,-441.5 46.2,-442.8 45.8,-444.2 45.5,-445.5 45.5,-446 45.3,-446.5 45.2,-447.2 45,-447.8 45,-448.8 45,-449.8 45,-451 45,-452 45,-453 45,-454.3 45,-455.7 45,-457 45,-458 45,-458.8 45,-459.8 45,-460.8 45.2,-462 45.3,-463.2 45.5,-464.2 45.5,-465 45.7,-466.5 46,-468 46.3,-469.5 46.5,-470 46.5,-470.5 46.8,-471.5 47.2,-472.5 47.5,-473.5 47.8,-474.7 48.2,-475.8 48.5,-477 48.7,-477.5 48.8,-478 49.3,-478.8 49.7,-479.7 50.2,-480.5 50.7,-481.5 51.5,-483 52.2,-484.5 52.7,-485.5 52.8,-486 53.7,-487.2 54.5,-488.3 55.3,-489.5 55.7,-490 56.5,-491.2 57.3,-492.3 58.2,-493.5 58.5,-493.8 59,-494.2 59.3,-494.5 59.7,-495 61,-496.5 62.5,-497.8 64,-499.2 64.3,-499.5 64.7,-500 65.2,-500.5 65.8,-501 67.2,-502 68.5,-503.2 70,-504.5 71,-505.3 71.8,-506 72.5,-506.5 73.5,-507.2 74.3,-507.8 75.3,-508.7 76,-509.5 76.8,-510.2 77.5,-510.7 78.5,-511.3 79.7,-512.2 81,-513.2 81.8,-513.8 82.5,-514.3 82.8,-514.7 83.7,-515.3 84.7,-516.3 85.8,-517.2 87.2,-518 88.2,-518.7 89.3,-519.7 90,-520.3 90.8,-521 91.5,-521.5 92.5,-522.3 93.7,-523.2 95,-524.2 95.8,-524.8 96.5,-525.5 97.5,-526.2 98.7,-527 100,-528 100.8,-528.8 101.5,-529.5 102.5,-530.2 103.7,-531 105,-532 105.8,-532.8 106.5,-533.5 107.5,-534.3 108.7,-535.2 109.8,-536 110.8,-536.8 111.7,-537.7 112.5,-538.5 113,-539 114.2,-539.7 115.5,-540.5 117,-541.5 118.2,-542.7 119.2,-543.7 120,-544.5 121.2,-545.3 122.5,-546.3 123.8,-547.2 124.5,-547.7 125.5,-548.3 126.7,-549.3 128,-550.5 129,-551.5 129.8,-552.2 130.5,-552.7 131.5,-553.3 132.7,-554.3 134,-555.5 134.8,-556.3 136,-557.2 137,-557.7 138.5,-558.5 139.7,-559.3 140.8,-560.3 142,-561.5 143,-562.5 144,-563.5 144.5,-564 145.5,-564.7 146.7,-565.5 147.8,-566.3 148.5,-567 149.8,-568 151.3,-569.2 153.2,-570.7 154.2,-571.5 155,-572.2 155.5,-572.5 156.5,-573.3 157.5,-574.2 158.5,-575 159.7,-576 161,-577.2 162.3,-578.2 163.2,-578.7 164.3,-579.3 165.7,-580.3 167,-581.5 168,-582.5 168.8,-583.3 169.5,-583.8 170.5,-584.5 171.7,-585.3 172.8,-586.3 174.2,-587.3 175.3,-588.2 176.5,-588.8 177.5,-589.5 178.5,-590.2 179.5,-591 180.5,-591.7 181.5,-592.3 182.5,-593 183.5,-593.7 185,-594.5 186.5,-595.3 187.5,-596 188,-596.3 188.5,-596.7 190.2,-597.5 191.8,-598.3 193.5,-599.2 194.3,-599.5 195.2,-600 196.5,-600.5 197.5,-601 198.5,-601.3 199,-601.7 200.3,-602 201.7,-602.3 203.5,-602.8 204.7,-603.2 205.8,-603.7 207.2,-604 208.3,-604.3 209.7,-604.5 210.3,-604.7 211.8,-605 213.3,-605.3 214.8,-605.5 215.5,-605.5 216.2,-605.7 217.3,-605.8 219.3,-606.2 221.2,-606.3 222.7,-606.5 223.3,-606.5 224,-606.5 225.2,-606.5 226.5,-606.5 228,-606.5 229.3,-606.5 230.5,-606.5 231.5,-606.5 232,-606.5 233.5,-606.3 235,-606.2 236.8,-606 238,-606 239.2,-605.8 240,-605.7 240.5,-605.5 242,-605.3 243.5,-605.2 245,-604.8 246.3,-604.5 248,-604.2 249.7,-603.8 250.5,-603.7 251.2,-603.5 252.3,-603.2 253.7,-602.8 254.7,-602.3 256,-602 257.2,-601.5 258.5,-601.2 259.5,-600.7 260.5,-600.3 262,-599.7 263,-599.3 264.5,-598.7 265.5,-598.3 266.5,-597.8 267,-597.5 268.2,-596.8 269.5,-596.2 270.8,-595.5 271.5,-595.2 272.5,-594.5 273.5,-593.8 274.5,-593.2 275.8,-592.3 277.2,-591.5 278.5,-590.7 279,-590.3 279.8,-589.8 281.2,-589 282.5,-588.2 283.5,-587.5 284.2,-586.8 285.3,-586 286.8,-585 288.2,-584.2 289,-583.5 289.5,-583.2 290.2,-582.7 291.8,-581.7 293.5,-580.7 295,-579.8 295.5,-579.5 296.2,-578.8 297.3,-578 298.5,-577.2 299.5,-576.5 300.5,-575.7 301.8,-574.8 303.3,-574 304.3,-573.5 305,-573.2 305.7,-572.7 307.2,-571.7 308.7,-570.5 310,-569.7 310.5,-569.3 311.3,-568.8 313,-567.7 314.7,-566.7 316,-565.8 316.5,-565.5 317.2,-564.8 318.3,-564 319.7,-563.2 321.3,-562.2 322.5,-561.3 323.5,-560.7 324.5,-560 325.5,-559.3 326.5,-558.7 327.5,-558 328.7,-557.3 330.3,-556.2 331.5,-555.5 332.5,-554.8 333.5,-554.2 334.5,-553.3 336.2,-552.2 337.3,-551.5 338.5,-550.8 339,-550.5 340.2,-549.5 341.3,-548.7 343,-547.7 344,-547.2 345,-546.5 346.2,-545.7 347.3,-544.8 348.8,-543.8 350.2,-543 351.5,-542.2 353.2,-541.2 354.3,-540.3 355.7,-539.5 357,-538.7 358.3,-537.8 359.5,-537 360,-536.5 361.5,-535.5 363,-534.7 364.5,-533.8 365,-533.5 366.2,-532.5 367.7,-531.3 369.3,-530.3 370.3,-529.8 371.5,-529.2 372.5,-528.3 374.2,-527.2 375.5,-526.5 376.8,-525.8 377.5,-525.5 378.5,-524.7 379.5,-523.8 380.7,-523.2 382,-522.3 383.7,-521.3 385.2,-520.2 386,-519.7 386.7,-519.3 388,-518.5 389.3,-517.5 390.5,-516.5 391.5,-515.7 393,-514.8 394.5,-514 395.5,-513.5 396.5,-512.7 397.5,-511.8 398.5,-511.2 399.8,-510.3 401.2,-509.5 402.5,-508.5 403.5,-507.7 404.5,-506.8 405.5,-506.2 406.7,-505.5 407.8,-504.8 409.2,-503.8 410,-503 411.3,-501.8 412.5,-501 413.5,-500.3 414.2,-499.8 415,-499 416,-498 417.3,-496.8 418.5,-495.8 419.7,-495 420.3,-494.5 421.2,-493.5 421.8,-492.7 422.7,-491.7 423.5,-491 424.5,-490 425.5,-489 426.3,-488.2 427,-487.5 428,-486.2 429,-484.8 429.8,-483.5 430.5,-482.5 431.2,-481.5 431.8,-480.5 432.3,-479.7 433,-478.3 433.7,-477 434.3,-475.7 434.7,-474.8 435.5,-473.5 436.2,-472.5 436.8,-471.3 437.2,-470.7 437.3,-470 438,-468.7 438.5,-467.2 439.2,-465.7 439.3,-465 439.8,-463.8 440.3,-462.2 440.8,-460.5 441.2,-459.5 441.5,-458.2 442,-456.8 442.3,-455.5 442.7,-454.2 443,-452.8 443.3,-451.5 443.5,-450.8 443.7,-449.3 444,-447.8 444.3,-446.3 444.5,-445.7 444.5,-445 444.5,-443.8 444.7,-442.5 444.8,-441.2 445.2,-439.2 445.3,-437.3 445.5,-435.5 445.5,-434.8 445.5,-434 445.5,-432.8 445.5,-431.8 445.5,-431 445.3,-429.5 445.2,-427.8 445,-426 445,-424.7 444.8,-423.3 444.7,-421.7 444.5,-420.3 444.5,-419.2 444.5,-418.3 444.5,-417.7 444.2,-416.2 443.8,-414.7 443.5,-413.2 443.5,-412.5 443.2,-411.2 442.8,-409.8 442.3,-407.7 442,-406.3 441.7,-405 441.3,-403.8 441,-402.7 440.7,-401.5 440.3,-401 439.8,-399.5 439.2,-398 438.7,-396.5 438.2,-395.3 437.8,-394.2 437.3,-393 437,-392.2 436.5,-391.2 435.7,-389.5 435,-388.2 434.3,-387 433.7,-385.7 433,-384.3 432.3,-383 432,-382.5 431.3,-381.5 430.7,-380.3 429.7,-378.7 429,-377.5 428.2,-376 427.7,-375.2 427,-374.3 426.3,-373.3 425.7,-372.2 424.7,-370.3 423.8,-369.2 423.2,-368 422.8,-367.5 422,-366.2 421,-364.8 419.8,-363.2 419.3,-362.3 418.8,-361.5 418.2,-360.5 417.3,-359.3 416.2,-357.7 415.5,-356.5 414.8,-355.5 414.2,-354.5 413.2,-353.2 412.3,-351.7 411.8,-350.7 411.2,-349.5 410.3,-348.5 409.5,-347.5 408.8,-346.3 408.2,-345.2 407.5,-344 406.5,-342.7 405.5,-341.3 404.5,-339.8 404.2,-339.2 403.3,-337.8 402.3,-336.3 401.2,-334.7 400.5,-333.7 400.2,-333 399.7,-332.3 398.7,-330.7 397.5,-329 396.5,-327.5 395.8,-326.8 395,-325.5 394,-323.8 393.2,-322.3 392.5,-321.5 391.5,-320.2 390.5,-318.8 389.7,-317.5 389,-316.5 388.2,-315 387.2,-313.5 386.5,-312.5 385.7,-311.5 385,-310.3 384,-308.7 383.2,-307.2 382.2,-305.7 381.5,-304.7 380.8,-303.8 380,-302.7 379.2,-301.3 378.2,-299.7 377.3,-298.5 376.5,-297.5 375.7,-296.3 375,-295.2 374.3,-294 373.5,-292.5 372.3,-290.7 371.2,-288.8 370.5,-288 370.2,-287.3 369.3,-286 368.3,-284.3 367.2,-282.7 366.5,-281.7 366.2,-281 365.3,-279.7 364.5,-278.2 363.5,-276.7 362.7,-275.5 361.8,-274.5 361.2,-273.3 360.3,-272 359.5,-270.7 358.2,-268.7 357.3,-267.3 356.7,-266 356.3,-265.5 355.8,-264.7 354.7,-263 353.5,-261.3 352.5,-260 352.2,-259.3 351.3,-258 350.3,-256.3 349.2,-254.7 348.5,-253.7 347.5,-252.2 346.7,-250.8 345.8,-249.3 345.5,-248.7 345,-248 343.8,-246.5 342.8,-244.8 341.8,-243.2 341.5,-242.5 340.5,-241.2 339.5,-239.7 338.7,-238.2 338.3,-237.5 337.8,-236.8 336.7,-235.2 335.5,-233.5 334.5,-232 334.2,-231.3 333.3,-230 332.5,-228.7 331.5,-227.5 330.7,-226.3 330,-225.2 329,-223.5 328.2,-222.2 327,-220.3 326.2,-219 325.5,-218 325.2,-217.5 324.5,-216.3 323.8,-215.2 322.7,-213.5 321.8,-212.5 320.8,-210.8 320.2,-209.7 319.5,-208.5 318.5,-207.3 317.3,-205.7 316.3,-204 315.7,-202.7 315.2,-201.8 314.5,-200.8 313.8,-200 312.8,-198.7 311.8,-197.2 311,-195.7 310.5,-194.7 309.8,-193.8 308.8,-192.7 307.8,-191 307,-189.5 306.5,-188.5 306.3,-188.3" style="stroke: rgb(55, 65, 81); stroke-width: 10;"></polygon><polyline vector-effect="non-scaling-stroke" fill="none" points="304.5,-185.5 304,-184.7 303,-183.3 302,-181.7 301,-180.3 300,-178.7 298.7,-176.7 297.3,-174.3 295.8,-172 295,-170.5 294.3,-169.5 294.2,-169 293.3,-167.8 292.2,-166.2 291,-164.3 290.3,-163.3 290.2,-162.8 289.3,-161.8 288.5,-160.7 287.7,-159.5 287,-158.5 286.2,-157.2 285.3,-155.8 284.8,-155 284.7,-154.5 284,-153.5 283.3,-152.5 282.7,-151.5 282,-150.5 281.3,-149.5 280.7,-148.5 280,-147.5 279.3,-146.5 278.7,-145.5 278.3,-145 277.5,-143.7 276.7,-142.3 275.8,-141 275.2,-139.8 274.3,-138.7 273.7,-137.5 273,-136.5 272.3,-135.5 271.5,-134.5 270.3,-132.7 269.2,-130.8 268.2,-129 267.3,-127.8 266.3,-126.3 265.2,-124.7 264.7,-123.7 264,-122.5 263.3,-121.5 262.5,-120.5 262.2,-120 261.3,-118.5 260.5,-117 259.5,-115.5 258.8,-114.8 257.8,-113.2 256.8,-111.5 256,-110 255.5,-109.5 254.5,-108 253.7,-106.5 252.8,-105 252.5,-104.3 251.8,-103.7 250.7,-102 249.7,-100.5 248.8,-99 248.2,-97.8 247.3,-96.7 246.5,-95.5 245.5,-94.2 244.7,-92.8 243.7,-91.2 243.2,-90.3 242.2,-88.8 241.2,-87.3 240.2,-85.8 239.7,-84.8 238.8,-83.7 238.2,-82.5 237.3,-81.3 236.5,-80 235.3,-78.2 234,-76.2 233.2,-74.8 232.7,-74 232.3,-73.3 231.5,-72 230.3,-70.3 229.2,-68.7 228.5,-67.7 227.7,-66.5 226.8,-65.3 226.2,-64.2 225.3,-62.7 224.5,-61.3 223.2,-59.3 222.3,-58 221.5,-56.7 220.5,-55.2 219.5,-53.8 218.7,-52.5 217.8,-51.3 217.2,-50.2 216,-48.3 215.3,-47 214.5,-45.7 213.5,-44.2 212.5,-42.8 211.5,-41.5 210.8,-40.5 210,-39 208.8,-37 208,-35.5 207.3,-34.5 206.7,-33.5 205.8,-32.3 204.8,-31 203.8,-29.7 202.8,-28.3 201.8,-26.7 201.2,-25.5 200.2,-23.7 199.3,-22.3 198.5,-20.8 197.7,-19.7 196.8,-18.5 195.8,-17.2 194.8,-15.7 194,-14.2 192.8,-12.5 192.2,-11.5 191.3,-10.3 190.5,-9 189.3,-7 188.2,-5.2 187.5,-4 186.7,-2.8 186,-1.7 185.3,-0.3 184.5,1 183.5,2.3 182.2,4.2 181.3,5.3 180.2,7.2 179.3,8.3 178.5,9.5 177.5,11 176.5,12.5 175.3,14.5 174.8,15.5 174,17.2 173.3,18.3 172.2,20.2 171.3,21.3 170.5,22.7 169.5,24 168.5,25.3 167.2,27.2 166.3,28.5 165.5,29.7 164.8,30.7 164.2,31.7 163.2,33.5 161.8,35.7 160.7,37.7 159.8,39.2 159.5,39.7 158.7,40.8 157.8,41.8 156.7,43.7 155.8,44.8 154.7,46.7 153.8,47.8 152.7,49.7 152,50.8 151,52.5 150.3,53.7 149.5,54.8 148.5,56.2 147.3,58 146.2,59.8 145.5,61.2 144.7,62.3 143.8,63.7 142.8,65.3 142,66.7 141,68.3 139.5,70.5 138.2,72.5 136.5,74.8 135.5,76.2 134.5,77.5 133.7,78.7 133,79.8 132,81.7 131.3,82.8 130,85.2 129,86.8 128,88.5 127.5,89.2 126.7,90.3 126,91.5 125,92.8 124.2,94.2 123.2,95.5 122.2,97.2 121.3,98.3 120.2,100.2 119.3,101.3 118.7,102.5 117.8,103.7 117.2,104.8 116,106.5 115.3,107.7 114.2,109.3 113.3,110.7 112.2,112.5 111.3,113.8 110.5,115.2 109.2,117.3 107.8,119.5 106.2,122.2 105.3,123.3 104.5,124.5 103.7,125.7 102.8,126.8 101.8,128.7 101.2,129.8 100.2,131.5 99.3,132.7 98.2,134.3 97.3,135.7 96.2,137.3 95.2,139 94,140.8 93.3,142.2 92.8,143 92.2,144.2 91.3,145.3 90.2,147.2 89.3,148.3 88.5,149.5 87.7,150.7 86.8,151.8 85.7,153.7 85,154.8 84,156.5 83.3,157.7 82.2,159.3 81.3,160.7 80.2,162.3 79.3,163.5 78.2,165.2 77.2,166.7 76,168.7 75.3,170 74.8,171 74,172.2 73.2,173.3 72,175.2 71.3,176.3 70.5,177.5 69.7,178.7 68.8,179.8 67.7,181.7 66.8,182.8 65.7,184.7 65,185.8 64,187.5 63.3,188.7 62.2,190.3 61.3,191.5 60.2,193.3 59.3,194.8 58.5,196.3 57.7,197.5 56.8,198.7 55.8,200.3 55.2,201.5 54.2,203.2 53.3,204.3 52.5,205.5 51.7,206.7 50.8,207.8 49.7,209.7 48.8,210.8 47.7,212.7 47,213.8 45.7,215.8 44.8,217.2 43.8,218.5 43,220.2 42,221.8 41,223.5 40.5,224.2 39.7,225.3 38.8,226.7 37.7,228.3 36.8,229.5 35.8,231.2 35.2,232.3 34.2,234.2 33.3,235.3 32.5,236.7 31.5,238 30.5,239.3 29.2,241.2 28.3,242.3 27.2,244.2 26.3,245.5 25.2,247.3 24.5,248.5 23.3,250.2 22.7,251.3 21.8,252.5 21.2,253.8 20.3,255.3 19.5,256.7 18.7,257.8 17.8,258.8 16.7,260.7 15.8,261.8 14.7,263.7 13.8,264.8 12.7,266.7 12,267.8 11,269.5 10.3,270.7 9.2,272.3 8.3,273.7 7.5,274.8 6.5,276.2 5.5,277.5 4,280 3,281.8 2,283.5 1.5,284.2 0.8,285.3 0.2,286.5 -0.8,288.2 -1.8,289.5 -3,291.3 -3.8,292.5 -4.8,294.2 -5.7,295.3 -6.8,297.2 -7.7,298.3 -8.5,299.5 -9.5,300.8 -10.5,302.7 -11.5,304.7 -12.2,305.8 -12.7,306.5 -13.5,307.7 -14.2,308.8 -15.3,310.7 -16.2,311.8 -17.3,313.7 -18.2,314.8 -19.3,316.5 -20.2,317.7 -21.2,319.3 -22,320.7 -23,322.3 -24.3,324.3 -25.3,326.2 -26.2,327.5 -26.5,328.2 -27.3,329.3 -28.2,330.7 -29.3,332.3 -30.2,333.7 -31.3,335.3 -32.2,336.7 -33.2,338.3 -34,339.7 -35,341.3 -36,342.7 -37,344.3 -37.8,345.5 -38.5,346.5 -39.3,347.7 -40.5,349.5 -41.7,351.5 -42.5,352.8 -43.3,354.2 -44.8,356.3 -46.2,358.5 -47.5,360.7 -48.2,361.8 -49.3,363.7 -50.2,364.8 -51.3,366.5 -52.2,367.7 -53.3,369.3 -54,370.7 -54.7,371.8 -55.5,373.2 -56.7,375 -57.8,376.8 -58.5,378.2 -59.3,379.3 -60.2,380.7 -61.3,382.3 -62.2,383.5 -62.8,384.7 -63.7,386 -64.5,387.3 -65.8,389.2 -66.7,390.3 -67.8,392.2 -68.8,393.7 -69.7,395.2 -70.3,396.3 -70.8,397.3 -71.5,398.3 -72.3,399.5 -73.2,400.7 -74.2,402 -75,403.3 -75.8,404.7 -76.8,406.3 -77.8,407.8 -78.8,409.2 -79.7,410.5 -80.2,411.5 -80.7,412.5 -81.5,413.8 -82.5,415.2 -83.5,416.7 -84.5,418.2 -85.3,419.7 -86.2,421 -86.5,421.5 -87.3,422.7 -88.2,423.8 -89.5,425.8 -90.3,427.3 -91.3,428.8 -91.7,429.5 -92.7,430.8 -93.5,432.2 -94.8,434.3 -95.7,435.5 -96.5,436.8 -96.8,437.3 -97.3,438.2 -98.3,439.8 -99.5,441.5 -100.5,443.2 -100.8,443.8 -102,445.5 -103,447 -104.2,448.5 -104.5,449.2 -105.5,450.7 -106.3,452.2 -107.2,453.7 -107.5,454.3 -108.2,455.2 -109.3,456.8 -110.3,458.5 -111.3,460 -111.7,460.5 -112.5,461.5 -113.2,462.7 -113.8,463.8 -114.7,465.3 -115.5,466.7 -116.5,468 -117.2,468.8 -118,470.2 -118.8,471.5 -119.5,472.5 -120.7,474.3 -121.8,476.2 -123.3,478.5 -124,479.5 -124.7,480.5 -125.3,481.5 -126.2,482.7 -127.2,484 -128,485.3 -128.8,486.5 -129.5,487.5 -130.2,488.5 -130.8,489.7 -131.5,490.7 -132.3,491.8 -133,492.8 -133.7,494 -134.5,495.2 -135.5,496.3 -136.5,497.5 -136.8,498 -137.3,498.7 -138.3,500 -139.5,501.3 -140.5,502.5 -141.2,503.2 -141.8,503.8 -142.5,504.3 -143.5,505 -144.5,505.7 -145.5,506.5 -146.5,507.3 -147.5,508 -148.5,508.7 -149.3,509.2 -150.2,509.7 -151.3,510.3 -152.2,510.7 -153.3,511.3 -154.3,511.7 -155.2,512.2 -155.7,512.3 -156.7,512.8 -157.8,513.2 -159,513.5 -159.5,513.5 -160.8,513.8 -162.2,514.2 -163.7,514.5 -164.3,514.5 -165.2,514.5 -166,514.5 -167,514.5 -168.3,514.5 -169.7,514.5 -171,514.5 -172,514.5 -173,514.5 -173.8,514.5 -175.8,514.3 -177.7,514 -179.5,513.7 -180,513.5 -180.5,513.5 -181.5,513.2 -182.5,512.8 -183.5,512.3 -184.5,512 -185.8,511.5 -188.3,510.5 -190.7,509.3 -193.2,508 -194.8,507 -196.2,506.3 -197,505.8 -197.5,505.5 -198.5,504.8 -199.5,504.2 -201.3,503 -202.7,502 -204.5,500.8 -205.5,500.2 -206.5,499.5 -207.5,498.8 -208.8,498 -210.2,497.2 -211.3,496.5 -212.2,496 -213,495.7 -213.5,495.3 -214.5,494.7 -215.8,493.8 -217.2,493 -218,492.7 -219.8,491.7 -221.7,490.8 -224,489.7 -225,489.3 -226,489 -226.8,488.7 -228.3,488.2 -229.8,487.5 -232,486.8 -233.5,486.3 -235.8,485.8 -237.3,485.7 -238.8,485.5 -240.8,485.3 -242.8,485.2 -244.8,484.8 -245.8,484.7 -246.8,484.5 -248,484.7 -250,485 -251.8,485.3 -253.5,485.5 -254,485.5 -254.5,485.5 -256.2,485.7 -257.8,485.8 -259.5,486.2 -260,486.3 -261.2,486.7 -262.3,486.8 -263.7,487.2 -265,487.5 -266.3,487.8 -267.8,488.3 -269.2,488.8 -270.3,489.5 -271.2,489.8 -272,490.3 -273,490.7 -274.7,491.5 -275.8,492 -277,492.7 -277.8,493 -279.2,493.8 -280.5,494.7 -281.5,495.3 -282.5,496 -283.5,496.7 -284.5,497.5 -285.5,498.2 -286.7,499 -287.8,499.8 -288.5,500.5 -289,500.8 -290.2,501.5 -291.3,502.2 -292.5,502.8 -293.5,503.5 -294.7,504.3 -295.8,505.3 -296.5,505.8 -297.5,506.5 -298.7,507.3 -300,508.3 -300.8,509 -301.5,509.5 -302.5,510.3 -303.7,511.3 -304.8,512.2 -305.5,512.7 -306.5,513.3 -307.7,514.2 -308.8,515 -309.5,515.5 -311.5,516.8 -313.3,518.2 -315.5,519.7 -316.2,520.2 -317.5,521 -318.7,521.8 -319.8,522.8 -320.7,523.5 -321.7,524.2 -323.5,525.3 -325,526.5 -327,528 -328.2,529 -330.2,530.3 -331.5,531.2 -333,532.2 -333.8,532.8 -334.5,533.5 -335.5,534.2 -337,535 -338.7,536 -339.8,536.8 -340.5,537.5 -341.3,538.2 -342.2,538.7 -343.8,539.7 -345.2,540.5 -346.5,541.5 -347.5,542.2 -348.5,542.8 -350.8,544.2 -352.7,545.3 -354.5,546.5 -355,546.8 -356.5,547.7 -358,548.5 -359.5,549.3 -360,549.7 -360.5,549.8 -361.7,550.5 -363,551.2 -364.3,551.8 -365.5,552.3 -366.7,552.7 -368.5,553.5 -369.8,554 -371,554.7 -371.7,554.8 -372.8,555.3 -374,555.7 -375.8,556.3 -377.2,556.7 -378.5,557 -379.7,557.3 -380.8,557.7 -383.2,558.3 -384.8,558.7 -387.5,559.3 -389.5,559.7 -391.7,560.2 -393.3,560.3 -394.7,560.5 -396.7,560.7 -398.3,560.8 -399.8,561 -400.8,561.2 -401.7,561.3 -403.2,561.5 -404.3,561.5 -406.2,561.5 -407.3,561.5 -408.8,561.5 -410,561.5 -411.8,561.5 -413.3,561.5 -414.8,561.5 -415.8,561.3 -416.8,561.2 -418.5,560.8 -420.2,560.7 -421.8,560.5 -423.2,560.5 -424.8,560.3 -426.5,560.2 -427.5,560 -428.2,560 -429.5,559.8 -430.8,559.5 -432.2,559.2 -433.7,558.8 -435.3,558.5 -436.8,558.2 -437.7,558 -438.7,557.7 -440.7,557.2 -442.5,556.5 -444,556.2 -444.5,555.8 -445.2,555.7 -446.5,555 -448.5,554.3 -450.3,553.5 -451.5,553.2 -452,552.8 -453.3,552.3 -454.7,551.7 -456.5,550.8 -457.8,550 -459.2,549.3 -460.3,548.7 -461.2,548.3 -462.2,547.8 -463.5,547.2 -464.8,546.3 -466,545.7 -467.2,545 -468.3,544.3 -469.5,543.5 -470,543.2 -471.2,542.3 -472.8,541.3 -474.5,540.2 -475.5,539.5 -476.5,538.7 -477.5,537.8 -478.8,536.8 -479.7,536.3 -480.7,535.7 -481.5,534.8 -482.7,533.7 -483.8,532.3 -484.8,531.5 -487.3,529.2 -489.8,527 -492.3,524.7 -493.2,523.5 -494,522.3 -495,521 -495.8,520.2 -496.5,519.5 -497.3,518.5 -498.2,517.5 -499.2,516 -499.7,515 -500.5,513.5 -501.3,512.2 -502.3,510.8 -503.3,509.5 -504.2,508.5 -504.8,507.5 -505.3,506.5 -506,505.2 -506.7,503.8 -507.5,502.5 -508.2,501.3 -509.2,499.8 -509.7,498.8 -510.3,497.5 -511,496.2 -511.7,494.8 -512.5,493.2 -513.2,491.8 -513.8,490.5 -514.2,489.8 -514.5,488.7 -515.2,487 -515.7,485.5 -516.2,484.5 -516.5,483.3 -517,482.2 -517.7,480.3 -518.2,479.2 -518.8,477.3 -519.2,476.2 -519.7,474.5 -520,473.3 -520.5,471.5 -521,470.2 -521.5,468.5 -521.8,467.3 -522.2,466.2 -522.5,464.5 -522.8,462.8 -523,461.2 -523.2,460.5 -523.5,459 -523.8,457.5 -524,455.8 -524.2,455 -524.3,453.7 -524.7,451.7 -524.8,449.7 -525,448.2 -525,447.2 -525.2,445.8 -525.3,444.5 -525.5,443.2 -525.5,442 -525.5,440.3 -525.5,438.7 -525.5,437 -525.5,435.5 -525.5,434 -525.5,432.5 -525.5,430.8 -525.5,429.3 -525.5,428.2 -525.5,427 -525.5,425.3 -525.5,423.2 -525.5,421.5 -525.5,420.2 -525.5,418.8 -525.3,417.3 -525,415.2 -524.7,413.2 -524.5,411.2 -524.5,409.7 -524.5,408.5 -524.5,407.3 -524.3,406.7 -524,405 -523.7,403.2 -523.5,401 -523.3,399.8 -523.2,398.8 -522.8,397.3 -522.7,395.3 -522.3,393.5 -522.2,392.3 -522,391.7 -521.8,390 -521.5,388.3 -521.2,386.7 -520.8,385.2 -520.5,383.7 -520.2,382.2 -519.8,380.8 -519.5,379.7 -519,377.5 -518.5,376 -518.2,374.3 -518,373.7 -517.7,372.3 -517.3,371.2 -516.7,369.5 -516.3,368.3 -515.7,366.3 -515.3,364.7 -514.8,363.2 -514.5,361.8 -514.2,360.7 -513.7,359 -513.3,358 -512.7,356.3 -512.3,355.2 -511.7,353.5 -511.3,352.3 -510.7,350.5 -510.3,349.2 -509.7,347.7 -509.2,346.8 -508.5,345.3 -508,344.2 -507.5,342.5 -506.8,341 -506.3,339.3 -505.8,338.2 -505.2,336.8 -504.5,335.5 -503.7,333.8 -503.2,332.7 -502.3,330.8 -501.7,329.3 -501.2,327.8 -500.8,327.2 -500.2,325.8 -499.3,324.2 -498.5,322.5 -498,321.5 -497.5,320.8 -496.8,319.7 -496.2,318.5 -495.2,316.7 -494.3,315.3 -493.5,313.7 -493,312.7 -492.5,311.7 -491.7,310.5 -490.8,309.3 -490.2,308.2 -489.3,306.8 -488.3,305.2 -487.2,303.3 -486.7,302.2 -486.3,301.5 -485.7,300.3 -484.8,299.2 -483.7,297.5 -482.8,296.3 -481.8,294.7 -481.2,293.5 -480.5,292.5 -479.5,291 -478.7,289.5 -477.7,287.7 -477.2,286.8 -476.5,285.8 -475.7,284.7 -475,283.5 -474.3,282.5 -473.7,281.3 -472.8,280.2 -471.8,278.8 -470.8,277.5 -470,276.2 -469,274.5 -468.3,273.5 -467.2,271.8 -466.3,270.7 -465.2,268.8 -464.5,267.7 -463.7,266.2 -463,265 -462.2,263.7 -461.5,262.7 -460.7,261.5 -460,260.5 -459,258.8 -458.3,257.7 -457.5,256.5 -456.7,255.3 -455.8,254.2 -455.2,253 -454.3,251.8 -453.5,250.5 -452.2,248.7 -451.3,247.5 -450.2,245.8 -449.5,244.7 -448.8,243.5 -448.2,242.3 -447.2,240.8 -446,239 -445.2,237.7 -444.5,236.7 -443.8,235.5 -443.2,234.5 -442.2,232.8 -441.3,231.7 -440.5,230.5 -439.7,229.3 -438.8,228.2 -437.8,226.5 -437.2,225.3 -436.5,224.2 -435.5,222.7 -434.5,221.3 -433.2,219.5 -432.5,218.5 -431.8,217.5 -431.2,216.2 -430.2,214.5 -429.2,212.8 -428.5,211.8 -427.8,210.7 -427,209.3 -426,207.7 -425.2,206.5 -424.5,205.5 -423.5,204.2 -422.7,202.8 -421.8,201.5 -421.2,200.5 -420.3,199.3 -419.2,197.7 -418.5,196.5 -417.3,194.8 -416.7,193.7 -415.8,192.5 -415.2,191.5 -414.2,189.8 -413.3,188.2 -412.8,187 -412.5,186.3 -411.5,185 -410.5,183.7 -409.2,181.8 -408.5,180.7 -407.8,179.5 -407.2,178.5 -406.3,177.3 -405.2,175.7 -404.5,174.5 -403.8,173.5 -403.2,172.3 -402.3,171.2 -401.3,169.5 -400.3,168 -399.5,166.5 -398.8,165.5 -398,164 -397,162.5 -396.2,161 -395.8,160.5 -395.2,159.5" style="stroke: rgb(239, 68, 68); stroke-width: 7;"></polyline><polyline vector-effect="non-scaling-stroke" fill="none" points="-394.3,158.3 -393.2,156.7 -392.5,155.5 -391.8,154.5 -391.2,153.3 -390.3,152.2 -389.2,150.3 -388.5,149.2 -387.5,147.5 -386.8,146.5 -386,145.5 -385,144.2 -384,142.3 -383,140.5 -382.5,139.5 -382,138.8 -381.2,137.7 -380.5,136.5 -379.8,135.5 -379,134.2 -378,132.8 -377,131.5 -376.3,130.3 -375.5,129 -374.8,127.7 -374.3,127 -373.8,126.3 -372.8,125 -371.8,123.7 -370.8,122 -370.2,121 -369.2,119.5 -368.3,118.5 -367.7,117.5 -367,116.5 -366.3,115.3 -365.5,114.3 -364.8,113.5 -364,112.8 -363,111.7 -361.8,110.2 -360.8,108.7 -360,107.7 -359.5,107.3 -359,106.8 -358.5,106.3 -357.5,105.5 -356.3,104.7 -355,103.5 -354.2,102.7 -353.5,102.2 -352.5,101.5 -351.3,100.7 -350.2,99.7 -348.7,98.5 -347.2,97.7 -345.3,96.7 -344.3,96.3 -343.2,95.7 -342.3,95.3 -341.5,94.8 -339.5,94.2 -337.5,93.5 -335.5,93 -335,92.8 -333.8,92.5 -332.7,92.2 -331.3,91.8 -330.7,91.7 -329.8,91.5 -328.3,91.3 -326.7,91.2 -325.2,91 -324.5,91 -323.8,91 -322.8,91 -321.5,91 -320.2,91 -319,91 -317.8,91 -316.8,91 -314.7,91.2 -312.8,91.3 -311,91.7 -310.5,91.8 -309.3,92.2 -308,92.3 -306.7,92.7 -305.5,93 -304.5,93.5 -303.5,93.8 -302.5,94.2 -301.5,94.5 -300.5,94.8 -300,95 -299,95.3 -297.7,96 -296.3,96.7 -295.2,97.2 -294.3,97.5 -293.2,98.2 -292.3,98.7 -291.2,99.3 -290.3,99.8 -289.5,100.3 -289,100.7 -287.8,101.5 -286.7,102.3 -285.7,103.2 -285.3,103.5 -285,103.8 -284.3,104.3 -283,105.3 -281.7,106.5 -280.5,107.5 -280,107.8 -279.3,108.3 -278.8,108.8 -278.2,109.5 -277.5,110.5 -276.5,111.5 -275.5,112.7 -274.5,113.5 -273.8,114.3 -273.2,115.2 -272.7,115.8 -272,116.5 -271.3,117.5 -270.5,118.7 -269.7,119.8 -269,120.5 -268.3,121.5 -267.5,122.7 -266.7,123.8 -266.2,124.5 -265.5,125.5 -264.8,126.5 -264.2,127.5 -263.8,128 -263.5,129.2 -262.8,130.7 -262.3,132.2 -261.8,133 -261.7,133.5 -261.2,134.5 -260.7,135.8 -260,137.2 -259.5,138.5 -259,139.5 -258.7,140.5 -258.5,141 -258.2,142.3 -257.8,143.7 -257.3,145 -257,146.2 -256.7,147.3 -256.5,148.7 -256.2,150 -255.8,151.3 -255.5,152.5 -255.5,153.2 -255.3,154.7 -255,156.2 -254.7,157.5 -254.5,158.2 -254.5,159 -254.5,160 -254.5,160.8 -254.2,162.7 -253.8,164.5 -253.5,166.3 -253.5,167.5 -253.5,168.5 -253.5,170.7 -253.5,172.7 -253.5,174.8 -253.5,176.2 -253.5,177.5 -253.5,178.8 -253.5,180.2 -253.5,181.5 -253.5,182.7 -253.7,183.5 -253.8,184.2 -254.2,185.7 -254.3,187.3 -254.5,189.3 -254.5,190.5 -254.7,191.5 -254.8,192 -255,192.5 -255.2,194 -255.3,195.5 -255.7,197 -255.8,197.5 -256.2,198.8 -256.5,200.2 -256.8,201.5 -257.2,202.7 -257.5,204 -257.8,205.3 -258.2,206.7 -258.5,207.8 -258.8,209.2 -259,209.8 -259.7,211.8 -260.3,213.7 -261.3,215.8 -261.8,217.2 -262.5,218.5 -262.8,219.7 -263.3,220.7 -263.7,221.7 -264.2,222.5 -264.7,223.7 -265.3,224.8 -266,226.2 -266.7,227.3 -267.5,229 -268.2,230.5 -268.7,231.5 -269,232 -269.3,232.5 -270.2,234 -271,235.5 -271.8,237 -272.2,237.5 -272.8,238.5 -273.7,239.5 -274.3,240.5 -275,241.7 -275.7,242.8 -276.3,244.2 -276.7,244.8 -277.5,246.2 -278.5,247.3 -279.3,248.5 -280,249.5 -280.8,250.8 -281.8,252.2 -282.3,253 -283,254.2 -283.8,255.7 -284.7,257.2 -285.2,258 -285.5,258.5 -286.3,259.5 -287,260.5 -288,262.2 -288.7,263.3 -289.5,264.5 -290.2,265.5 -290.8,266.5 -291.5,267.5 -292.3,268.5 -293.2,270 -294,271.5 -294.5,272.5 -295.2,273.2 -295.7,273.8 -296.7,275.3 -297.5,276.8 -298.5,278.3 -298.8,279 -299.7,280.2 -300.5,281.3 -301.5,282.5 -302.2,283.7 -302.8,284.8 -303.8,286.5 -304.7,287.5 -306.2,289.8 -307.3,291.7 -308.3,293.5 -309.3,295 -310.8,297.3 -312.5,299.7 -313.3,301 -314,302.2 -314.7,303.2 -315.3,304.3 -315.7,304.8 -316.5,306.2 -317.7,307.7 -318.7,309.2 -319.3,310.5 -319.8,311.5 -320.5,312.5 -321.5,313.7 -322.3,314.8 -323.2,316.2 -323.8,317.5 -324.7,318.8 -325.8,320.5 -327,322.2 -328.2,323.8 -328.8,325 -329.7,326.2 -330.7,327.7 -332,329.7 -332.7,331 -333.2,332 -333.5,332.5 -334.2,333.2 -335.2,334.5 -336,335.8 -336.7,337 -337.5,338.3 -338.5,339.7 -339.3,341 -340,342.2 -340.7,343.3 -341.5,344.5 -341.8,345 -342.7,346.3 -343.5,347.7 -344.5,349 -345.2,350.2 -345.8,351.3 -346.5,352.5 -347.5,353.8 -348.3,355.2 -349.2,356.5 -349.5,357 -350,357.5 -350.5,358.3 -351.5,360 -352.5,361.7 -353.3,363 -353.7,363.5 -354.2,364.2 -355.2,365.3 -356.2,366.8 -357,368.2 -357.5,369 -357.8,369.5 -358.3,370.2 -359.2,371.3 -360.2,373 -361,374.5 -361.5,375.5 -362.2,376.5 -363,377.7 -364.2,379.3 -365.2,380.8 -366,382.2 -366.5,383.3 -366.8,384.2 -367.3,385.3 -367.7,386.2 -368.3,387.5 -368.7,388.5 -369,389.5 -369.3,390.5 -369.7,391.5 -370,392.5 -370.3,393.7 -370.7,395.2 -371,396.7 -371,397.5 -371,398 -371,398.5 -371.2,399.8 -371.3,401.3 -371.5,403 -371.3,404.7 -371.2,406.2 -371,407.5 -371,408 -371,408.5 -370.8,409.2 -370.5,410.7 -369.8,412.7 -369.3,414.5 -368.7,415.8 -368.3,416.7 -367.8,417.5 -367.5,418.5 -366.5,420.3 -365.5,422.2 -364.2,423.8 -363.5,424.7 -362.8,425.3 -362.5,425.7 -361.8,426.5 -360.7,427.7 -359.5,428.8 -358.2,429.8 -357.3,430.5 -355.8,431.7 -354.7,432.3 -352.7,433.7 -351.3,434.3 -349.5,435.2 -348.5,435.3 -347.5,435.7 -346.3,436 -345.2,436.3 -344,436.5 -343.5,436.7 -342.2,437 -340.7,437.3 -339.2,437.5 -338.2,437.5 -337.2,437.5 -336,437.5 -334.3,437.3 -332.8,437.2 -331.5,437 -331,437 -330.5,437 -328.8,436.7 -327.2,436.3 -325.5,436 -324.5,435.7 -323.5,435.3 -322.5,435 -321.5,434.7 -320.5,434.3 -319.2,433.8 -318.3,433.5 -317.5,433.2 -316.5,432.7 -315.3,432.2 -313.7,431.5 -312.2,430.8 -310.8,430.3 -310,430 -309.2,429.7 -308.3,429.3 -307.5,428.8 -306.5,428.5 -305.2,427.8 -303.8,427.3 -302.7,426.7 -301.8,426.3 -301,426 -300.5,425.8 -299.5,425.5 -298.2,424.8 -296.8,424.3 -295.7,423.7 -294.8,423.3 -293.7,422.7 -292.8,422.3 -292,421.8 -291.5,421.7 -290.5,421.3 -289.2,420.8 -287.8,420.3 -287,419.8 -285.8,419.5 -284.7,419 -282.8,418.3 -281.7,417.7 -280.5,417.2 -280,416.8 -278.8,416.3 -277.7,415.7 -276.5,415.2 -275.8,414.8 -274.7,414.5 -273.2,413.8 -271.8,413.3 -270.7,412.7 -269.8,412.3 -268.2,411.5 -266.8,411 -265.5,410.3 -265,410.2 -263.8,409.7 -262.7,409.3 -260.8,408.5 -259.7,408 -258.5,407.3 -258,407.2 -256.8,406.7 -255.7,406.3 -254.2,405.7 -253.3,405.3 -252.2,404.7 -250.8,404.2 -249.5,403.5 -248.2,402.8 -247.3,402.3 -246.3,401.8 -244.8,401.3 -243.3,400.7 -242,400.2 -240.8,399.7 -239.7,399.3 -238.2,398.7 -237.3,398.3 -235.7,397.5 -234.3,397 -233,396.3 -232.5,396 -231.3,395.5 -229.8,394.8 -228.3,394.3 -226.8,393.5 -225.5,393 -224.2,392.3 -222.2,391.7 -220.3,390.8 -217.8,389.7 -216.7,389 -215.3,388.3 -214.7,388.2 -213.5,387.7 -212,387.2 -210.5,386.5 -208.8,385.7 -207.7,385 -206.3,384.3 -205.3,384 -204.3,383.5 -202.8,382.7 -201.5,382 -200.2,381.3 -199.5,381.2 -198.5,380.7 -197,380 -195.5,379.3 -193.8,378.5 -192.7,377.8 -190.8,376.8 -189.5,376 -188.2,375.3 -187.5,374.8 -186.8,374.5 -185.7,373.8 -184,373 -182.3,372.2 -181.2,371.5 -180.2,371 -179.3,370.5 -178.2,369.8 -176.8,369 -175.3,368.2 -173.7,367.2 -172.3,366.2 -171.2,365.3 -170.5,364.8 -169.8,364.5 -168.7,363.8 -167,363 -165.3,362 -164,361 -163,360.2 -162.3,359.5 -161.2,358.7 -160.2,358 -158.5,357 -157.3,356.2 -156.2,355.2 -155.5,354.5 -154.5,353.7 -153.3,352.7 -152,351.7 -151.2,351 -149.8,350.2 -148.5,349.2 -147,348 -146.2,347.2 -145.5,346.5 -144.5,345.7 -143.3,344.7 -142,343.5 -141,342.5 -140.2,341.8 -139.5,341.3 -138.3,340.3 -137.2,339.2 -135.8,337.8 -135,337 -134,336 -133.2,335.2 -132.5,334.5 -131.2,333.2 -129.8,331.8 -128.7,330.5 -128.3,330 -127.8,329.3 -127,328.5 -125.7,327 -124.5,325.7 -123.5,324.5 -122.8,323.8 -122,323 -121,321.7 -120.2,320.5 -119.5,319.5 -118.8,318.8 -118,318 -116.8,316.7 -116,315.3 -115.3,314.2 -114.5,312.8 -113.5,311.7 -112.5,310.5 -112.2,310 -111.5,309.2 -110.5,307.7 -109.3,306.2 -108.5,305 -108.2,304.5 -107.5,303.5 -106.8,302.5 -106,301.5 -105.2,300.2 -104.3,298.8 -103.5,297.5 -102.8,296.8 -102.3,296.2 -101.3,294.8 -100.5,293.7 -99.7,292.5 -99,291.2 -98.3,290 -97.5,288.8 -97.2,288.5 -96.7,287.8 -95.7,286.3 -94.5,284.8 -93.7,283.5 -93.3,283 -92.5,281.7 -91.7,280.3 -90.8,279 -90.5,278.5 -89.8,277.5 -89.2,276.5 -88.5,275.5 -87.8,274.8 -86.8,273.3 -85.8,271.8 -84.8,270.2 -84.3,269.3 -83.7,268.2 -83.2,267.3 -82.7,266.5 -82.3,266 -81.5,264.8 -80.7,263.7 -79.8,262.5 -79.2,261.5 -78.5,260.5 -77.7,259.2 -77.2,258.3 -76.7,257.5 -76.3,257 -75.7,255.7 -74.8,254.3 -74,253 -73.7,252.5 -73.3,252 -72.5,250.8 -71.7,249.7 -70.7,248.2 -70.2,247.3 -69.7,246.5 -69.3,246 -68.7,244.8 -67.8,243.7 -66.8,242.2 -66.3,241.3 -65.8,240.7 -65.7,240.3 -65,239.5 -64.2,238.2 -63.3,236.8 -62.8,236 -62.7,235.5 -62,234.5 -61.3,233.5 -60.7,232.5 -60.2,231.3 -59.7,230.2 -59.2,229 -58.7,228.2 -58.3,227.3 -57.7,226.3 -57.3,225.7 -56.7,224.7 -56.3,223.8 -55.8,222.5 -55.5,221.5 -55.2,220.5 -54.8,219.3 -54.5,218.2 -54.2,217 -54,216.5 -53.8,215.3 -53.7,214.2 -53.5,213 -53.5,212.5 -53.3,211.2 -53.2,209.7 -53,208 -53,207 -53,206 -53,205 -53.2,203.3 -53.3,201.8 -53.5,200.5 -53.5,200 -53.8,198.8 -54.2,197.7 -54.5,196.5 -54.5,196 -54.8,194.8 -55.3,193.3 -55.8,191.8 -56.2,191 -56.7,189.8 -57.3,188.8 -57.8,187.8 -58.2,187.5 -58.7,186.5 -59.5,185.3 -60.3,184.2 -60.8,183.5 -61.2,183.2 -62,182.2 -62.8,181.2 -63.8,179.8 -64.5,179.2 -65.2,178.5 -65.8,177.8 -67,176.7 -68.3,175.7 -69.5,174.8 -69.8,174.5 -70.2,174.2 -71.2,173.3 -72.7,172.3 -74.2,171.3 -75,170.8 -75.5,170.5 -76.5,169.8 -77.5,169.2 -78.5,168.7 -79,168.3 -79.7,167.8 -81,166.8 -82.3,165.8 -83.8,165 -84.7,164.5 -85.8,163.8 -86.7,163.3 -87.8,162.7 -88.7,162.2 -89.5,161.7 -90.5,161 -91.5,160.3 -92.5,159.7 -93.5,159 -94.5,158.3 -95.5,157.7 -96,157.3 -97.2,156.5 -98.3,155.7 -99.5,154.8 -100,154.5 -100.7,153.8 -101.8,152.7 -103.7,151 -105.3,149.5 -106.5,148.5 -107.2,147.8 -107.8,147.3 -108.7,146.7 -109.5,146 -110.3,145.2 -110.8,144.5 -111.5,143.5 -112.3,142.3 -113.8,140.7 -115,139.3 -116,138.2 -116.5,137.5 -117.2,136.7 -117.7,135.8 -118.5,134.5 -119.3,133.2 -120.3,131.8 -121.2,130.5 -121.8,129.5 -122.5,128.5 -122.8,128 -123.5,126.8 -124.2,125.7 -124.8,124.3 -125.5,123 -126.2,121.7 -126.8,120.5 -127.3,119.5 -127.7,118.5 -128.2,117.5 -128.5,116.5 -129,115.5 -129.8,113.7 -130.5,112.3 -131.2,111 -131.3,110.5 -131.8,109.3 -132.5,107.5 -133.3,105.7 -133.8,104.3 -134.2,103.7 -134.5,102.5 -135,101.5 -135.7,99.7 -136.3,98.3 -137,96.8 -137.5,95.7 -138,94.5 -138.7,92.8 -139.3,91.5 -139.8,90.2 -140.3,88.8 -140.7,87.7 -141.3,86.2 -141.7,85.3 -142.3,83.8 -142.7,82.7 -143.2,81.5 -143.5,80.3 -144.2,78.8 -144.8,77.3 -145.7,75.7 -146.3,74.3 -146.8,73 -147.3,71.8 -147.7,70.7 -148.3,69.2 -148.7,68.2 -149.3,66.7 -150,65 -150.7,63.5 -151.5,61.8 -152,60.5 -152.7,59.2 -152.8,58.5 -153.5,57 -154.2,55.5 -154.8,53.8 -155.3,52.7 -155.7,51.5 -156.3,50 -156.7,49 -157.3,47.3 -157.8,46.2 -158.5,44.5 -159.2,43 -159.7,41.5 -160.2,40.5 -160.8,39 -161.5,37.5 -162.5,35.2 -163,33.8 -163.7,32.5 -163.8,31.8 -164.2,31.2 -164.8,29.5 -165.5,28 -166.2,26.5 -166.5,25.3 -167.2,23.8 -168.2,21.5 -169,19.8 -169.7,18.5 -169.8,17.8 -170.2,17.2 -170.8,15.5 -171.5,14 -172.2,12.5 -172.5,11.3 -173,10.2 -173.8,8 -174.5,6.5 -175.2,5 -175.7,3.7 -176.3,2.3 -176.8,0.8 -177.3,-0.3 -177.8,-1.5 -178.5,-3.2 -179.2,-4.7 -179.7,-6.3 -180.5,-8 -181.2,-9.3 -181.8,-10.7 -182.2,-11.3 -182.5,-12.7 -183.3,-14.5 -184,-16.5 -184.7,-17.8 -185,-18.5 -185.5,-19.7 -186.3,-21.5 -187,-23.5 -187.7,-24.8 -188,-25.5 -188.5,-26.7 -189,-27.8 -189.5,-29.7 -190,-30.8 -190.5,-32.5 -191.2,-34 -191.7,-35.5 -192.5,-37.3 -193.2,-38.7 -193.8,-40 -194.3,-41.2 -194.7,-42.3 -195.2,-43.5 -195.5,-44.7 -196,-45.8 -196.5,-47.7 -197,-49.2 -197.5,-50.7 -197.8,-51.7 -198.3,-53 -198.7,-54.5 -199,-55.8 -199.2,-56.5 -199.5,-58 -199.8,-59.5 -200,-61.2 -200.2,-61.8 -200.3,-62.8 -200.5,-64.2 -200.5,-65.7 -200.5,-66.8 -200.5,-68.2 -200.7,-69.5 -200.8,-71.2 -201,-72.5 -201,-73.8 -201,-75.2 -201,-76.5 -201,-78.2 -201,-79.7 -201,-80.8 -201,-82.2 -200.8,-83.5 -200.7,-84.8 -200.5,-86.2 -200.5,-87.3 -200.5,-88.5 -200.3,-89.2 -200,-90.7 -199.7,-92.2 -199.5,-93.7 -199.3,-94.3 -199,-95.7 -198.7,-96.8 -198.3,-98.2 -198,-99.5 -197.7,-100.8 -197.3,-102.2 -197.2,-102.8 -196.7,-103.8 -196.2,-105.2 -195.5,-106.7 -195.2,-107.8 -194.7,-108.8 -194.2,-110.2 -193.5,-111.7 -193.2,-112.8 -192.7,-113.8 -192.3,-114.7 -191.8,-115.5 -191.2,-116.8 -190.5,-118.2 -189.8,-119.5 -189.2,-120.5 -187.8,-122.3 -186.3,-124.5 -185.3,-126.3 -184.8,-127.3 -184.5,-128 -183.8,-128.7 -182.7,-130.2 -181.7,-131.7 -180.8,-133 -180.5,-133.5 -179.8,-134.2 -179,-135 -178,-136 -177,-137 -176,-138 -175,-139 -174,-140 -173,-141 -172.3,-141.8 -171.7,-142.7 -171,-143.5 -170,-144.5 -169,-145.5 -168,-146.5 -166.8,-147.5 -165.8,-148.2 -165,-148.7 -163.8,-149.3 -162.5,-150.3 -161,-151.5 -160,-152.5 -159,-153.3 -158.2,-154 -157.5,-154.5 -156.2,-155.3 -154.7,-156.2 -153.2,-157 -152.5,-157.5 -152,-158 -150.8,-158.7 -149.5,-159.3 -148.2,-160 -146.8,-160.7 -145.7,-161.3 -144.5,-162 -143.2,-162.7 -141.8,-163.3 -140.5,-164 -140,-164.3 -138.7,-165 -137.3,-165.7 -136,-166.3 -134.8,-167 -133.5,-167.5 -132.2,-168.2 -130.8,-168.8 -129.5,-169.5 -128.2,-170.2 -127.5,-170.5 -126.5,-171 -124.7,-171.8 -122.8,-172.5 -121.5,-173.2 -120.5,-173.7 -119.2,-174.3 -117.8,-175 -116.5,-175.7 -115.5,-176.2 -113.8,-177 -112.5,-177.5 -111.2,-178.2 -109.8,-178.8 -108.5,-179.7 -107.2,-180.3 -105.8,-181 -104.5,-181.5 -102.8,-182.3 -101.8,-182.8 -100.2,-183.7 -98.8,-184.3 -97.3,-185 -96,-185.7 -94.7,-186.3 -93.5,-186.8 -92.8,-187.2 -91.7,-187.7 -89.8,-188.5 -88.2,-189.3 -87,-190 -85.7,-190.7 -84.3,-191.3 -83,-192 -81.8,-192.5 -80.2,-193.3 -78.5,-194.2 -77.3,-194.8 -76.7,-195.2 -75,-195.8 -73.5,-196.5 -72,-197.2 -70.7,-197.8 -69.3,-198.5 -67.5,-199.3 -66.5,-199.8 -64.8,-200.7 -63.5,-201.3 -61.8,-202.2 -60.3,-203 -59,-203.7 -57.7,-204.3 -56.7,-204.7 -55,-205.5 -53.5,-206.2 -52.2,-206.8 -51.2,-207.3 -49.5,-208.2 -47.7,-209.2 -46.2,-209.8 -45.2,-210.3 -44.3,-210.8 -42.8,-211.5 -41.2,-212.3 -39.3,-213.2 -38.2,-214 -37.5,-214.3 -35.8,-215.2 -34.2,-216 -32.3,-216.8 -31.7,-217.2 -30,-217.8 -28.5,-218.7 -27,-219.3 -25.7,-220 -24.3,-220.7 -22.3,-221.7 -21.2,-222.3 -19.8,-223 -18.7,-223.7 -16.8,-224.5 -15.2,-225.3 -14,-226 -12.8,-226.5 -11.2,-227.3 -9.3,-228.2 -8.2,-229 -7.3,-229.3 -5.8,-230 -3.7,-231 -1.7,-232 -0.5,-232.7 0.2,-233 1.3,-233.7 3.2,-234.5 4.8,-235.3 6.2,-236 7.3,-236.5 9,-237.2 10.5,-237.8 12.2,-238.7 13.8,-239.5 15.7,-240.3 17.2,-241.2 18.2,-241.7 19.8,-242.5 21.2,-243.2 23.2,-244.3 24.3,-245 25.7,-245.7 26.3,-246 28,-246.8 29.5,-247.5 31.5,-248.3 32.5,-248.8 34.2,-249.7 35.5,-250.3 37.3,-251.3 38.7,-252.2 39.8,-252.8 40.7,-253.2 42.2,-253.8 43.8,-254.5 45.7,-255.3 46.7,-255.8 48.3,-256.8 49.7,-257.5 51.8,-258.5 53.2,-259.2 54.7,-259.8 56,-260.5 57.5,-261.2 59.2,-262.2 60.2,-262.7 61.2,-263.2 62.3,-263.7 64.2,-264.5 65.8,-265.3 67.5,-266.2 68.8,-267 70.3,-267.7 71.7,-268.3 73,-269 74.3,-269.7 75.3,-270.2 77.2,-271 78.8,-272 80.7,-272.8 81.7,-273.3 82.7,-273.8 84.2,-274.5 85.8,-275.3 87.7,-276.2 88.8,-276.8 90,-277.3 91,-277.8 92.5,-278.7 94.2,-279.5 95.8,-280.3 97.2,-281 97.8,-281.3 99.5,-282 101.5,-283 103.5,-284.2 104.7,-284.8 105.7,-285.3 106.8,-285.8 108.3,-286.5 110,-287.2 112,-288.2 113.5,-289.2 114.7,-289.8 115.3,-290.2 117.2,-291 118.8,-291.8 120.7,-292.7 121.3,-293 122,-293.3 123.5,-294 125.5,-295 127.7,-296.2 128.8,-296.8 129.5,-297.2 131,-297.8 132.5,-298.5 134.5,-299.3 135.8,-300 137.2,-300.7 138.8,-301.5 140.2,-302.2 141.7,-302.8 142.7,-303.3 144,-304 145.3,-304.8 147.2,-305.7 148.5,-306.3 150.2,-307.2 151,-307.7 152.5,-308.3 153.5,-308.8 154.5,-309.3 156.2,-310.2 157.8,-311 160,-312.2 161,-312.7 162.3,-313.3 163.2,-313.7 164.8,-314.5 166.2,-315.2 167.5,-315.8 168.2,-316.2 169.8,-317 171.5,-317.8 173.2,-318.7 174.2,-319.2 175.7,-320 177,-320.7 178,-321.2 178.5,-321.3 180.2,-322.2 181.8,-323 183.5,-323.8 184,-324.2 185.5,-324.8 187,-325.5 188.5,-326.2 189.5,-326.7 190.8,-327.3 192.2,-328 193,-328.5 194.3,-329.2 195.7,-329.8 197.3,-330.7 198.7,-331.3 200,-332 201,-332.5 202.2,-333.2 203.5,-333.8 205.3,-334.8 206.5,-335.5 207.5,-336.2 208.2,-336.5 209.7,-337.2 211.2,-337.8 212.5,-338.5 213.5,-339 214.5,-339.5 216.2,-340.3 217.3,-341 219,-341.8 220,-342.3 221,-342.8 222.2,-343.5 223.5,-344 225.2,-344.8 226.2,-345.3 227,-345.8 228.2,-346.5 229.5,-347.2 231.2,-348 232.3,-348.5" style="stroke: rgb(59, 130, 246); stroke-width: 7;"></polyline><polyline vector-effect="non-scaling-stroke" fill="none" points="233.8,-349.2 235,-349.8 236.2,-350.5 236.8,-350.8 237.5,-351.2 239,-352 240.5,-352.8 242,-353.7 242.7,-353.8 244,-354.5 245.3,-355.2 246.5,-355.8 247,-356.2 248.2,-356.7 249.3,-357.3 250.7,-357.8 251.3,-358.2 253,-359 254.5,-359.8 256,-360.7 256.5,-360.8 257,-361.2 258.5,-362 260,-362.8 261.5,-363.7 262.2,-363.8 262.8,-364.2 264.2,-364.7 265.3,-365.3 266.5,-365.8 267,-366.2 268.2,-366.8 269.3,-367.5 270.5,-368.2 271,-368.3 272,-368.8 273.3,-369.3 275.2,-370.3 276.5,-371 277.5,-371.7 278,-371.8 279.3,-372.7 280.7,-373.3 282,-374 283,-374.5 284.3,-375.2 285.5,-376 286.2,-376.3 287.5,-377.2 289,-378.2 290.5,-379.2 291.2,-379.8 291.7,-380.3 292.8,-381.3 294.7,-383.3 297.2,-386.2 299.3,-389.5 301,-392.8 302.2,-395.5 303,-398.3 303.3,-400.3 303.5,-402.7 303.5,-404 303.7,-405.5 303.5,-407.7 303.3,-409.8 302.7,-412.5 302.3,-414 301.7,-416 301,-417.5 300.2,-418.8 299.7,-419.7 299.5,-420 299.3,-420.3 298.7,-421.3 298,-422.3 297.3,-423.3 297.2,-423.7 296,-425 294.8,-426.7 293.5,-428.2 293,-428.8 292.5,-429.2 292,-429.8 290.7,-431 289.3,-432.2 288.2,-433.2 287.3,-433.7 286.3,-434.5 285.2,-435.2 284.7,-435.7 283.7,-436.3 282.2,-437.3 280.5,-438.3 279.2,-439.2 278.3,-439.7 276.7,-440.7 275.3,-441.3 274,-442 272.7,-442.7 271.3,-443.3 270,-444 269.2,-444.3 268.3,-444.7 267.3,-445.3 266.7,-445.7 265.5,-446.2 264.5,-446.5 263.5,-446.8 262.5,-447.2 261.5,-447.5 260.5,-447.8 259.5,-448.2 258.3,-448.5 256.5,-449 255.2,-449.5 254,-449.8 253.5,-450 252.5,-450.2 251.5,-450.3 250.5,-450.7 249.2,-451 247.8,-451.3 246.5,-451.5 246,-451.5 245.5,-451.7 244.2,-452 242.7,-452.3 241.2,-452.5 239.2,-452.7 237.2,-453 235.2,-453.3 234.2,-453.5 233.2,-453.5 232,-453.5 231,-453.5 230,-453.5 229.2,-453.5 228.2,-453.5 227.2,-453.5 226,-453.5 225,-453.5 224.2,-453.5 222.8,-453.5 221.5,-453.5 220,-453.3 218.3,-453 216.8,-452.7 215.5,-452.5 215,-452.5 214.5,-452.5 212.8,-452.3 211.2,-452 209.5,-451.7 209,-451.5 208.5,-451.5 207.2,-451.3 205.8,-451 203.2,-450.5 201,-449.8 198.8,-449.3 198,-449 197.5,-448.8 197,-448.7 195.8,-448.2 194.3,-447.7 192.8,-447.2 192,-446.8 191.5,-446.7 191,-446.3 189.8,-446 188.3,-445.3 186.8,-444.8 185.7,-444.2 184.2,-443.5 182.7,-442.7 181.5,-442.2 181,-441.8 180.5,-441.7 179.5,-441.2 178,-440.5 176.5,-439.7 175.5,-439.2 175.2,-438.8 174.3,-438.2 173.5,-437.5 172.5,-436.8 171.5,-436.3 170.3,-435.7 169.3,-435 168.3,-434.3 167.3,-433.5 166.2,-432.7 165.5,-432.2 164.5,-431.5 163.3,-430.7 162,-429.7 161.2,-429 159.8,-428 158.5,-426.8 157,-425.5 156.2,-424.8 155.5,-424.3 154.5,-423.7 153.3,-422.8 152,-421.8 151.3,-421.2 150.8,-420.5 150.5,-420.2 149.5,-419.5 148.3,-418.7 147,-417.5 146,-416.7 145,-415.8 143.8,-414.8 142.8,-413.8 141.5,-412.8 140.3,-412 139.2,-411.2 138.5,-410.7 137.5,-410 136.5,-409.3 135.5,-408.7 135,-408.3 134.2,-407.8 132.8,-407 131.5,-406.2 130.5,-405.7 130,-405.3 129.2,-405 128.3,-404.5 127.2,-403.8 126.3,-403.3 125.5,-402.8 124.5,-402.5 123.5,-402.2 122.5,-401.8 121.5,-401.5 120.5,-401.2 119.5,-400.8 119,-400.7 117.8,-400.3 116.5,-400 115.2,-399.7 113.8,-399.3 112.7,-399.2 111.5,-399 111,-399 110.5,-398.8 109.8,-398.7 109,-398.5 108,-398.5 106.7,-398.5 105.3,-398.5 104,-398.5 103.2,-398.5 102.2,-398.5 101.2,-398.5 100,-398.5 99,-398.5 97.7,-398.5 96.3,-398.5 95.2,-398.7 94.5,-398.8 94,-399 93.5,-399 92.2,-399.2 90.8,-399.5 89.5,-399.8 89,-400 87.8,-400.3 86.5,-400.7 85.2,-401 84.5,-401.2 83.7,-401.5 82.8,-401.8 81.7,-402.3 80.8,-402.7 79.7,-403.3 78.8,-403.7 77.7,-404.3 76.8,-404.7 75.5,-405.3 74.5,-405.7 73.5,-406.2 73,-406.3 72.5,-406.7 72,-406.8 71.3,-407.3 69.8,-408.5 68.3,-409.8 67,-410.8 65.8,-411.7 64.7,-412.5 63.5,-413.3 63.2,-413.7 62.7,-414.2 62,-415 61.2,-415.8 60.5,-416.3 59.7,-417.2 58.8,-418 58,-419 57.7,-419.5 57,-420.5 56.2,-421.7 55.3,-422.8 54.8,-423.3 54.5,-423.7 54.2,-424 53.7,-424.8 53,-426.2 52.2,-427.5 51.5,-428.5 51.2,-429 50.7,-429.8 50.3,-430.7 49.8,-431.5 49.7,-432 49.3,-433.2 48.8,-434.7 48.3,-436.2 47.8,-437.3 47.3,-438.8 46.8,-440.3 46.5,-441.5 46.2,-442.8 45.8,-444.2 45.5,-445.5 45.5,-446 45.3,-446.5 45.2,-447.2 45,-447.8 45,-448.8 45,-449.8 45,-451 45,-452 45,-453 45,-454.3 45,-455.7 45,-457 45,-458 45,-458.8 45,-459.8 45,-460.8 45.2,-462 45.3,-463.2 45.5,-464.2 45.5,-465 45.7,-466.5 46,-468 46.3,-469.5 46.5,-470 46.5,-470.5 46.8,-471.5 47.2,-472.5 47.5,-473.5 47.8,-474.7 48.2,-475.8 48.5,-477 48.7,-477.5 48.8,-478 49.3,-478.8 49.7,-479.7 50.2,-480.5 50.7,-481.5 51.5,-483 52.2,-484.5 52.7,-485.5 52.8,-486 53.7,-487.2 54.5,-488.3 55.3,-489.5 55.7,-490 56.5,-491.2 57.3,-492.3 58.2,-493.5 58.5,-493.8 59,-494.2 59.3,-494.5 59.7,-495 61,-496.5 62.5,-497.8 64,-499.2 64.3,-499.5 64.7,-500 65.2,-500.5 65.8,-501 67.2,-502 68.5,-503.2 70,-504.5 71,-505.3 71.8,-506 72.5,-506.5 73.5,-507.2 74.3,-507.8 75.3,-508.7 76,-509.5 76.8,-510.2 77.5,-510.7 78.5,-511.3 79.7,-512.2 81,-513.2 81.8,-513.8 82.5,-514.3 82.8,-514.7 83.7,-515.3 84.7,-516.3 85.8,-517.2 87.2,-518 88.2,-518.7 89.3,-519.7 90,-520.3 90.8,-521 91.5,-521.5 92.5,-522.3 93.7,-523.2 95,-524.2 95.8,-524.8 96.5,-525.5 97.5,-526.2 98.7,-527 100,-528 100.8,-528.8 101.5,-529.5 102.5,-530.2 103.7,-531 105,-532 105.8,-532.8 106.5,-533.5 107.5,-534.3 108.7,-535.2 109.8,-536 110.8,-536.8 111.7,-537.7 112.5,-538.5 113,-539 114.2,-539.7 115.5,-540.5 117,-541.5 118.2,-542.7 119.2,-543.7 120,-544.5 121.2,-545.3 122.5,-546.3 123.8,-547.2 124.5,-547.7 125.5,-548.3 126.7,-549.3 128,-550.5 129,-551.5 129.8,-552.2 130.5,-552.7 131.5,-553.3 132.7,-554.3 134,-555.5 134.8,-556.3 136,-557.2 137,-557.7 138.5,-558.5 139.7,-559.3 140.8,-560.3 142,-561.5 143,-562.5 144,-563.5 144.5,-564 145.5,-564.7 146.7,-565.5 147.8,-566.3 148.5,-567 149.8,-568 151.3,-569.2 153.2,-570.7 154.2,-571.5 155,-572.2 155.5,-572.5 156.5,-573.3 157.5,-574.2 158.5,-575 159.7,-576 161,-577.2 162.3,-578.2 163.2,-578.7 164.3,-579.3 165.7,-580.3 167,-581.5 168,-582.5 168.8,-583.3 169.5,-583.8 170.5,-584.5 171.7,-585.3 172.8,-586.3 174.2,-587.3 175.3,-588.2 176.5,-588.8 177.5,-589.5 178.5,-590.2 179.5,-591 180.5,-591.7 181.5,-592.3 182.5,-593 183.5,-593.7 185,-594.5 186.5,-595.3 187.5,-596 188,-596.3 188.5,-596.7 190.2,-597.5 191.8,-598.3 193.5,-599.2 194.3,-599.5 195.2,-600 196.5,-600.5 197.5,-601 198.5,-601.3 199,-601.7 200.3,-602 201.7,-602.3 203.5,-602.8 204.7,-603.2 205.8,-603.7 207.2,-604 208.3,-604.3 209.7,-604.5 210.3,-604.7 211.8,-605 213.3,-605.3 214.8,-605.5 215.5,-605.5 216.2,-605.7 217.3,-605.8 219.3,-606.2 221.2,-606.3 222.7,-606.5 223.3,-606.5 224,-606.5 225.2,-606.5 226.5,-606.5 228,-606.5 229.3,-606.5 230.5,-606.5 231.5,-606.5 232,-606.5 233.5,-606.3 235,-606.2 236.8,-606 238,-606 239.2,-605.8 240,-605.7 240.5,-605.5 242,-605.3 243.5,-605.2 245,-604.8 246.3,-604.5 248,-604.2 249.7,-603.8 250.5,-603.7 251.2,-603.5 252.3,-603.2 253.7,-602.8 254.7,-602.3 256,-602 257.2,-601.5 258.5,-601.2 259.5,-600.7 260.5,-600.3 262,-599.7 263,-599.3 264.5,-598.7 265.5,-598.3 266.5,-597.8 267,-597.5 268.2,-596.8 269.5,-596.2 270.8,-595.5 271.5,-595.2 272.5,-594.5 273.5,-593.8 274.5,-593.2 275.8,-592.3 277.2,-591.5 278.5,-590.7 279,-590.3 279.8,-589.8 281.2,-589 282.5,-588.2 283.5,-587.5 284.2,-586.8 285.3,-586 286.8,-585 288.2,-584.2 289,-583.5 289.5,-583.2 290.2,-582.7 291.8,-581.7 293.5,-580.7 295,-579.8 295.5,-579.5 296.2,-578.8 297.3,-578 298.5,-577.2 299.5,-576.5 300.5,-575.7 301.8,-574.8 303.3,-574 304.3,-573.5 305,-573.2 305.7,-572.7 307.2,-571.7 308.7,-570.5 310,-569.7 310.5,-569.3 311.3,-568.8 313,-567.7 314.7,-566.7 316,-565.8 316.5,-565.5 317.2,-564.8 318.3,-564 319.7,-563.2 321.3,-562.2 322.5,-561.3 323.5,-560.7 324.5,-560 325.5,-559.3 326.5,-558.7 327.5,-558 328.7,-557.3 330.3,-556.2 331.5,-555.5 332.5,-554.8 333.5,-554.2 334.5,-553.3 336.2,-552.2 337.3,-551.5 338.5,-550.8 339,-550.5 340.2,-549.5 341.3,-548.7 343,-547.7 344,-547.2 345,-546.5 346.2,-545.7 347.3,-544.8 348.8,-543.8 350.2,-543 351.5,-542.2 353.2,-541.2 354.3,-540.3 355.7,-539.5 357,-538.7 358.3,-537.8 359.5,-537 360,-536.5 361.5,-535.5 363,-534.7 364.5,-533.8 365,-533.5 366.2,-532.5 367.7,-531.3 369.3,-530.3 370.3,-529.8 371.5,-529.2 372.5,-528.3 374.2,-527.2 375.5,-526.5 376.8,-525.8 377.5,-525.5 378.5,-524.7 379.5,-523.8 380.7,-523.2 382,-522.3 383.7,-521.3 385.2,-520.2 386,-519.7 386.7,-519.3 388,-518.5 389.3,-517.5 390.5,-516.5 391.5,-515.7 393,-514.8 394.5,-514 395.5,-513.5 396.5,-512.7 397.5,-511.8 398.5,-511.2 399.8,-510.3 401.2,-509.5 402.5,-508.5 403.5,-507.7 404.5,-506.8 405.5,-506.2 406.7,-505.5 407.8,-504.8 409.2,-503.8 410,-503 411.3,-501.8 412.5,-501 413.5,-500.3 414.2,-499.8 415,-499 416,-498 417.3,-496.8 418.5,-495.8 419.7,-495 420.3,-494.5 421.2,-493.5 421.8,-492.7 422.7,-491.7 423.5,-491 424.5,-490 425.5,-489 426.3,-488.2 427,-487.5 428,-486.2 429,-484.8 429.8,-483.5 430.5,-482.5 431.2,-481.5 431.8,-480.5 432.3,-479.7 433,-478.3 433.7,-477 434.3,-475.7 434.7,-474.8 435.5,-473.5 436.2,-472.5 436.8,-471.3 437.2,-470.7 437.3,-470 438,-468.7 438.5,-467.2 439.2,-465.7 439.3,-465 439.8,-463.8 440.3,-462.2 440.8,-460.5 441.2,-459.5 441.5,-458.2 442,-456.8 442.3,-455.5 442.7,-454.2 443,-452.8 443.3,-451.5 443.5,-450.8 443.7,-449.3 444,-447.8 444.3,-446.3 444.5,-445.7 444.5,-445 444.5,-443.8 444.7,-442.5 444.8,-441.2 445.2,-439.2 445.3,-437.3 445.5,-435.5 445.5,-434.8 445.5,-434 445.5,-432.8 445.5,-431.8 445.5,-431 445.3,-429.5 445.2,-427.8 445,-426 445,-424.7 444.8,-423.3 444.7,-421.7 444.5,-420.3 444.5,-419.2 444.5,-418.3 444.5,-417.7 444.2,-416.2 443.8,-414.7 443.5,-413.2 443.5,-412.5 443.2,-411.2 442.8,-409.8 442.3,-407.7 442,-406.3 441.7,-405 441.3,-403.8 441,-402.7 440.7,-401.5 440.3,-401 439.8,-399.5 439.2,-398 438.7,-396.5 438.2,-395.3 437.8,-394.2 437.3,-393 437,-392.2 436.5,-391.2 435.7,-389.5 435,-388.2 434.3,-387 433.7,-385.7 433,-384.3 432.3,-383 432,-382.5 431.3,-381.5 430.7,-380.3 429.7,-378.7 429,-377.5 428.2,-376 427.7,-375.2 427,-374.3 426.3,-373.3 425.7,-372.2 424.7,-370.3 423.8,-369.2 423.2,-368 422.8,-367.5 422,-366.2 421,-364.8 419.8,-363.2 419.3,-362.3 418.8,-361.5 418.2,-360.5 417.3,-359.3 416.2,-357.7 415.5,-356.5 414.8,-355.5 414.2,-354.5 413.2,-353.2 412.3,-351.7 411.8,-350.7 411.2,-349.5 410.3,-348.5 409.5,-347.5 408.8,-346.3 408.2,-345.2 407.5,-344 406.5,-342.7 405.5,-341.3 404.5,-339.8 404.2,-339.2 403.3,-337.8 402.3,-336.3 401.2,-334.7 400.5,-333.7 400.2,-333 399.7,-332.3 398.7,-330.7 397.5,-329 396.5,-327.5 395.8,-326.8 395,-325.5 394,-323.8 393.2,-322.3 392.5,-321.5 391.5,-320.2 390.5,-318.8 389.7,-317.5 389,-316.5 388.2,-315 387.2,-313.5 386.5,-312.5 385.7,-311.5 385,-310.3 384,-308.7 383.2,-307.2 382.2,-305.7 381.5,-304.7 380.8,-303.8 380,-302.7 379.2,-301.3 378.2,-299.7 377.3,-298.5 376.5,-297.5 375.7,-296.3 375,-295.2 374.3,-294 373.5,-292.5 372.3,-290.7 371.2,-288.8 370.5,-288 370.2,-287.3 369.3,-286 368.3,-284.3 367.2,-282.7 366.5,-281.7 366.2,-281 365.3,-279.7 364.5,-278.2 363.5,-276.7 362.7,-275.5 361.8,-274.5 361.2,-273.3 360.3,-272 359.5,-270.7 358.2,-268.7 357.3,-267.3 356.7,-266 356.3,-265.5 355.8,-264.7 354.7,-263 353.5,-261.3 352.5,-260 352.2,-259.3 351.3,-258 350.3,-256.3 349.2,-254.7 348.5,-253.7 347.5,-252.2 346.7,-250.8 345.8,-249.3 345.5,-248.7 345,-248 343.8,-246.5 342.8,-244.8 341.8,-243.2 341.5,-242.5 340.5,-241.2 339.5,-239.7 338.7,-238.2 338.3,-237.5 337.8,-236.8 336.7,-235.2 335.5,-233.5 334.5,-232 334.2,-231.3 333.3,-230 332.5,-228.7 331.5,-227.5 330.7,-226.3 330,-225.2 329,-223.5 328.2,-222.2 327,-220.3 326.2,-219 325.5,-218 325.2,-217.5 324.5,-216.3 323.8,-215.2 322.7,-213.5 321.8,-212.5 320.8,-210.8 320.2,-209.7 319.5,-208.5 318.5,-207.3 317.3,-205.7 316.3,-204 315.7,-202.7 315.2,-201.8 314.5,-200.8 313.8,-200 312.8,-198.7 311.8,-197.2 311,-195.7 310.5,-194.7 309.8,-193.8 308.8,-192.7 307.8,-191 307,-189.5 306.5,-188.5 306.3,-188.3" style="stroke: rgb(251, 191, 36); stroke-width: 7;"></polyline></svg>