<svg xmlns="http://www.w3.org/2000/svg" xmlns:xlink="http://www.w3.org/1999/xlink" preserveAspectRatio="xMidYMid meet" height="100%" viewBox="-850 -60 1862 1117"><polygon vector-effect="non-scaling-stroke" fill="none" points="-712,654.8 -711.2,655.2 -709.8,656 -709,656.5 -708.5,657 -708,657.3 -707.3,657.8 -706.5,658.5 -705,659.8 -703.7,660.8 -702.5,661.7 -701.5,662.3 -700.3,663.2 -699.2,664 -698.3,664.7 -697,665.7 -695.7,666.7 -694.5,667.5 -693.5,668.3 -692.5,669.2 -691.3,670 -690,670.8 -688.7,671.7 -687.5,672.5 -687,673 -685.7,674 -684.3,675 -683,676 -681.8,677 -680.5,678 -679.2,679 -678.3,679.7 -676.8,680.8 -675.3,682 -674,683 -672.7,684 -671.3,685 -670,686 -668.7,687 -667.3,688 -665.3,689.3 -664.2,690.2 -662.8,691 -661.3,692.2 -659.7,693.3 -658.2,694.5 -656.5,695.8 -655,697.2 -653.3,698.5 -652,699.5 -650.2,700.7 -648.5,701.8 -647.3,702.7 -645.8,703.8 -644.3,705 -642.2,706.5 -640.7,707.7 -638.3,709.3 -636.8,710.5 -635.3,711.7 -633.7,713 -631.5,714.5 -629.5,716 -627.8,717.2 -626.5,718.2 -625,719.2 -623.2,720.5 -621.3,722 -618.8,723.8 -617.2,725.2 -614.7,727 -612.5,728.7 -610.3,730.2 -608.8,731.3 -607,732.7 -605.2,734.2 -602.7,736 -600.8,737.5 -598.3,739.5 -596.5,740.8 -593.8,742.8 -591.5,744.5 -589.3,746.2 -587.2,747.7 -584.8,749.3 -582.5,751 -581,752.2 -579,753.7 -577,755.3 -573.8,757.7 -571.5,759.3 -568.5,761.5 -566.7,763 -564.3,764.8 -562.7,766 -560,767.8 -558,769.3 -554.7,771.8 -552.3,773.7 -549.3,776 -546.8,777.8 -544.2,779.7 -542.2,781 -540,782.7 -538,784.3 -535,786.7 -532.3,788.7 -529.2,791 -526.3,793 -524.2,794.7 -522,796.3 -519.5,798.3 -516.5,800.7 -513.8,802.7 -510.5,805 -507.5,807 -504.7,809 -502.7,810.7 -500.2,812.7 -497,815 -494.7,816.7 -492,818.7 -489.3,820.7 -485.8,823.2 -482.7,825.3 -480.2,827.2 -478,828.8 -475.5,831 -472.3,833.5 -469,836 -466,838 -463,840 -460.7,841.7 -458.3,843.5 -455.7,845.8 -452.3,848.5 -449,851 -446,853 -442.8,855.2 -440.2,857 -437.2,859.3 -434.3,861.5 -431,864 -428.2,866 -425,868.3 -421.8,870.8 -418.5,873.3 -416,875.2 -413,877.3 -410,879.5 -407,881.8 -404.2,884 -401.3,886.2 -398,888.7 -395,890.8 -392.5,892.8 -389.7,895 -386.8,897.2 -383.2,899.7 -380.3,901.5 -377.2,903.7 -374.8,905.3 -371.7,907.8 -369.3,909.7 -366.2,912.2 -363,914.3 -359.8,916.5 -356.8,918.7 -354.7,920.3 -351.3,922.8 -348.7,924.7 -346,926.5 -343.2,928.5 -340.3,930.5 -337.2,932.8 -334.7,934.7 -332.2,936.5 -329.7,938.3 -327,940.3 -323.8,942.7 -320.7,945 -317.7,947.2 -315.2,949 -311.8,951.3 -309.3,953.2 -306.8,955 -304.5,956.8 -302,958.7 -298.8,961.2 -296.7,962.8 -293.8,964.8 -291.3,966.5 -288.3,968.5 -285.3,970.7 -282.8,972.3 -280.2,974.2 -278.3,975.5 -275.8,977.3 -274.2,978.7 -271.7,980.3 -269.8,981.5 -267.8,982.8 -265.8,984.3 -263.3,986.2 -260.8,987.8 -259.2,988.8 -258,989.5 -257,990 -255.8,990.8 -254,992.2 -252.3,993.5 -250.8,994.5 -249.3,995.7 -247.7,996.7 -246.2,997.7 -245.5,998 -244,999.2 -242.5,1000.2 -241,1001.2 -239.7,1002 -238.3,1002.8 -236.8,1003.7 -236.2,1004 -235.5,1004.3 -235,1004.7 -234.5,1004.8 -233.2,1005.8 -231.8,1006.8 -230.5,1007.8 -230,1008.2 -229.5,1008.5 -228,1009.5 -226.5,1010.5 -224.5,1011.7 -223.5,1012.3 -222.5,1013 -222,1013.3 -221.5,1013.7 -221,1013.8 -219.7,1014.8 -218.3,1015.7 -217,1016.7 -216.5,1017 -216,1017.3 -214.8,1018.2 -213.7,1018.8 -212,1020 -211,1020.5 -210,1021.2 -209.5,1021.3 -208.2,1022.2 -206.8,1022.8 -205.7,1023.7 -205.3,1023.8 -205,1024.2 -204.5,1024.3 -203.3,1025.2 -202.2,1025.8 -200.5,1026.8 -199.7,1027.3 -197.2,1028.5 -195.3,1029.5 -185.8,1026.5 -178.2,1022.5 -170.2,1018.3 -169.8,1017.7 -169.3,1017 -169,1016.3 -169.3,1012.5 -169.8,1008.7 -170.7,1004.8 -171.3,1003.2 -172.2,1001.8 -172.8,1000.3 -173.3,999.3 -173.8,998 -174.5,996.2 -175,994.7 -175.5,993.2 -176,992.2 -176.5,991 -177.2,989.7 -177.7,988.3 -178,987.5 -178.2,987 -178.5,986 -179,985 -179.3,984 -179.7,983 -180,981.8 -180.5,980.2 -181.2,978.7 -181.7,977.3 -182.2,976.5 -182.5,975.3 -183.2,973.8 -183.7,972.3 -184.2,971.5 -184.5,970.3 -185,969.2 -185.3,968 -185.8,966.8 -186.5,965 -187.3,963 -187.8,961.7 -188.2,961 -188.5,959.8 -189,958.7 -189.7,956.8 -190.2,955.7 -191,953.5 -191.5,952 -192.2,950.3 -192.5,949.2 -193,947.8 -193.7,945.7 -194.3,944 -195.2,942 -195.8,940.7 -196.5,939.2 -196.8,938 -197.3,936.5 -198,934.7 -198.7,932.8 -199.3,931.2 -199.8,929.8 -200.7,927.7 -201.3,926 -202.2,924 -202.7,922.8 -203.5,920.7 -204.2,918.8 -204.8,917.2 -205.5,915.5 -206.2,913.8 -206.8,912 -207.5,910.2 -208.2,908.3 -209,906 -209.7,904 -210.3,902.2 -211,900.3 -211.7,898.7 -212.3,896.8 -213.2,894.8 -214.3,891.8 -214.8,890.2 -215.8,887.8 -216.5,886 -217.8,882.8 -218.5,881 -219.2,879 -219.8,877 -220.7,874.5 -221.2,873 -221.8,871 -222.3,869.5 -223,867.3 -223.7,865.2 -224.2,863 -224.8,861 -225.2,859.5 -225.8,857.3 -226.3,855.5 -227,853 -227.3,851.2 -227.7,849.5 -228,847.3 -228.5,845.2 -228.8,843 -229,841.7 -229,840 -229,838 -229,835.8 -229,833.7 -229,831.3 -229,829.2 -229,827.2 -229,825.2 -229,823.2 -229,820.8 -228.8,819 -228.5,816.8 -228.2,814.7 -227.8,812.5 -227.5,810 -227,808 -226.5,806 -226,804.5 -225.3,802.3 -224.7,800 -224,797.7 -223.3,795.5 -222.7,793.5 -221.8,791.7 -221.2,790.2 -220.2,788 -219,785.3 -217.8,782.8 -216.8,781 -215.8,779.5 -214.5,777.3 -213.3,775.2 -212.5,773.5 -211.3,771.8 -210.2,770.2 -208.5,767.8 -207.5,766.2 -205.8,763.8 -204.7,762.2 -203.5,760.5 -202.2,758.8 -200.8,757.2 -199.2,755.3 -198.2,754.2 -197,753 -195.5,751.3 -193.8,749.7 -192,747.8 -190.8,746.8 -189.2,745.3 -187.5,744 -185.8,742.5 -184.2,741.2 -182.7,740 -180.3,738.5 -178.8,737.3 -176.8,735.8 -175.5,734.8 -173.5,733.7 -172,732.8 -170,731.7 -168,730.5 -166.2,729.3 -164.8,728.5 -163.3,727.7 -161.2,726.3 -159,725 -157,723.7 -155.5,722.8 -153.2,721.5 -151.5,720.5 -149.3,718.8 -148,717.7 -146.2,716.3 -144.3,715.3 -142.5,714.3 -140.7,713 -139.3,712 -137,710.3 -135,709.2 -133,708 -131.2,706.8 -129.3,705.7 -127.7,704.5 -126,703.5 -124.3,702.5 -121.8,700.8 -120.2,699.7 -118.2,698.3 -116.3,697.3 -114.5,696.2 -112.2,694.7 -110.5,693.5 -108.8,692.5 -107,691.2 -105,689.8 -103,688.5 -101,687.3 -99,686 -96.5,684.3 -95,683.3 -93.2,682.3 -91.3,681.2 -88.8,679.5 -86.7,678 -85,677 -84.2,676.3 -82.3,675.2 -80.5,674 -77.8,672.5 -76.2,671.3 -74.2,670 -72,668.5 -69.8,667.2 -68,665.8 -66.7,665 -64.5,663.7 -62.3,662.3 -60.2,661 -58.3,659.8 -55.8,658.3 -53.7,656.8 -52,655.7 -50.8,654.8 -49.3,654 -47,652.3 -44.8,650.8 -42.3,649 -40.7,647.8 -39.2,646.7 -38,645.8 -36.2,644.5 -34,642.8 -32,641 -30.3,639.5 -28.8,638 -27,636.3 -25.7,634.8 -24,633 -22.8,631.7 -21,629.5 -19.7,628 -18.3,626.3 -17,624.7 -15.5,622.5 -14,620.2 -13,618.3 -12.2,616.8 -11.2,614.8 -10.2,613 -9.2,611.2 -8.2,609.3 -7.5,607.7 -6.7,605.7 -5.8,603.3 -4.8,601 -4.2,599.2 -3.5,597.5 -2.8,595.8 -2.2,594 -1.5,592 -1,590 -0.3,588 0.3,586.2 1,584.3 1.7,582.7 2.2,581.5 3.2,579.3 4,577 4.7,575 5.3,573.2 6.2,571.3 6.8,569.7 7.2,568.8 8,567.2 9,565.3 10.3,562.8 11.2,561.3 12.2,559.5 12.8,558.3 13.7,556.8 14.8,555.2 16.2,553.2 17.3,551.5 18.5,549.8 19.5,548.5 20.5,547.2 21,546.3 22.5,544.8 24,543.3 25.5,541.8 26.2,541.2 27.5,540 29,538.8 30.3,537.7 31.7,536.7 33,535.8 34.7,534.8 36.5,533.7 38.2,532.5 39.7,531.5 40.5,531.2 41.8,530.7 43.2,530.2 45.3,529.3 47.2,528.7 48.8,528 50.2,527.5 52.2,526.7 54.3,525.8 56.5,524.8 58,524.2 59.5,523.7 60.8,523.2 62.2,522.7 64.3,521.8 66,521.2 68.5,520 70.2,519 71.8,518.2 72.7,517.8 74.2,517.2 76,516.2 78.2,515 80,513.8 81.7,512.8 83.3,511.7 84.7,510.7 86.3,509.3 87.7,508.2 89,507 90.3,505.7 91.7,504.3 92.8,503.2 93.8,502.2 94.8,501 96.3,499.2 97.7,497.3 98.8,495.7 99.5,494.7 100.5,493 101.5,491.5 103,488.8 104,487.2 104.8,485.3 105.2,484.7 106,482.8 106.8,481.2 107.8,478.5 108.2,477 108.7,475.3 109,473.8 109.3,472.3 109.7,470.8 110,469.5 110.3,467.5 110.5,465.5 110.7,464.2 111,462.5 111.3,460.7 111.5,458.5 111.5,456.8 111.5,455.3 111.5,454.2 111.8,452.5 112.2,450.5 112.5,448.5 112.5,447 112.5,445.8 112.5,444.7 112.7,442.8 113,440.7 113.3,438.5 113.5,437.3 113.7,435.7 114,433.7 114.3,431.8 114.5,430.8 114.7,429.2 115,427.3 115.3,425.7 115.8,424.3 116.3,422.2 117,420 117.3,418.3 117.8,417 118.2,415.7 118.8,413.8 119.2,412.5 119.7,411 120.2,409.8 121.2,407.8 122,406 122.7,404.3 123,403.5 123.8,402 124.7,400.5 125.5,399.2 126.3,397.5 127.2,395.8 128,394.2 128.5,393.3 129.5,392 130.5,390.5 131.8,389 133,387.7 134.2,386.5 135.2,385.3 136.3,383.8 137.5,382.3 138.8,380.8 139.7,380 140.5,379.2 141.7,378 143.3,376.5 145.2,374.8 146.5,373.7 147.8,372.5 149,371.5 150.2,370.3 151.5,369.2 153,368 154.3,367 155.7,366 157,365 158.3,364 159.7,363.2 160.8,362.3 162.7,361.2 163.8,360.3 165.7,359.2 166.8,358.3 168.5,357.3 170,356.3 171.7,355.3 173.3,354.3 174.7,353.7 175.8,353 177,352.3 178.8,351.3 180.7,350.5 182.2,349.8 182.8,349.5 184.5,348.7 186,348 188,347.2 189.3,346.5 190.8,345.8 191.8,345.3 193.5,344.7 195.2,344 196.8,343.3 198.2,343 199.3,342.5 200.7,342.2 202,341.7 204,341.2 206,340.5 207.3,340.2 208.2,340 209.7,339.7 211.3,339.3 213,339 213.8,338.8 215.2,338.7 216.3,338.5 218.8,338.3 220.8,338.2 222.8,338 223.8,338 225.2,338 226.5,338 227.7,338 228.3,338 230.2,338.2 232.3,338.5 234.5,338.8 235.7,339 236.3,339 238.2,339.3 239.8,339.7 241.7,340.2 242.5,340.3 243.3,340.7 245.2,341.2 246.8,341.8 248.7,342.3 249.3,342.7 251,343.3 252.5,344 254.2,344.7 255.2,345 256.7,345.7 258,346.3 260,347.2 261.5,347.8 263.2,348.5 264.3,349 265.8,349.7 267.7,350.5 269.5,351.3 271.2,352 272.3,352.5 273.5,353.2 274.8,353.8 276.8,354.7 279,355.5 280.8,356.2 282.2,356.7 282.8,357 284.8,358 286.7,358.8 288.7,359.7 289.5,360 291,360.7 292.5,361.3 294.8,362.3 296.5,363 298.2,363.7 299.7,364.3 301.3,365.2 303,365.8 304.2,366.3 306.2,367.2 308,368 309.7,368.7 311.3,369.3 313,370 314.7,370.7 315.7,371.2 317.2,372 319.2,372.8 320.8,373.5 322.3,374 324,374.8 326.7,376 329,377 330.7,377.7 331.7,378.2 332.8,378.7 334.7,379.5 336.3,380 338.3,380.8 339.5,381.2 341.2,381.8 342.3,382.2 344.2,382.8 345.3,383.2 346.5,383.5 347.7,383.7 349,384 350.3,384.3 351.8,384.7 353.7,384.8 355.5,385 356.8,385 357.8,384.8 359.8,384.5 361.5,384.2 363,384 364.2,383.8 365.3,383.5 367.5,382.8 369,382.2 370.8,381.5 371.7,381.2 372.5,380.8 374,380.2 375.5,379.3 377,378.5 378,377.8 379.2,377 380.5,376 381.3,375.3 382.2,374.8 383.5,374 384.8,373 386,372.2 386.5,371.8 387.7,371 389,369.8 390.5,368.5 391.3,367.7 392,367 393,366.2 394.2,365.2 395.5,364 396.3,363.2 397,362.5 398,361.7 399.3,360.5 400.8,359.2 402.2,358 403.3,357 404.5,356 405.3,355.2 406.5,353.8 407.5,352.7 408.8,351.2 409.7,350.3 410.5,349.5 411.7,348.3 412.8,347.2 414,345.8 415.3,344.5 416.7,343.2 418.2,341.8 419.2,340.7 420.2,339.5 421.3,338.2 422.7,336.5 424,334.8 425,333.5 425.7,332.7 426.3,331.8 427.3,330.7 428.8,329 430.3,327.3 431.5,326 432.7,324.3 433.8,322.7 435.2,320.5 435.8,319.5 436.5,318.3 437.5,317 438.5,315.7 439.5,314.3 440.2,313.5 441.3,311.8 442.5,310.3 443.8,308.5 444.7,307.3 445.8,305.7 446.7,304.5 447.5,303.3 448.2,302.5 449.2,301.3 450.2,300.3 451.3,299.3 452.7,298.2 454,297 455,296 455.7,295.5 456.3,295 457.8,294 459.3,292.8 461,291.7 461.8,291 463,290.5 464.3,289.8 465.7,289.2 467,288.5 468.3,287.8 469.8,287.3 470.8,286.8 471.7,286.7 473,286.2 474.5,285.8 475.8,285.3 476.8,285.2 477.7,285 479.7,284.7 481.3,284.3 483.2,284 484,284 485.3,284 487,284 488.7,284 490.2,284 491.2,284 492.2,284 492.8,284 494.8,284.2 496.7,284.5 498.7,284.8 499.3,285 500.8,285.3 502.2,285.7 503.7,286 505,286.3 506.5,286.7 507.8,287.2 509,287.5 510,288 511.5,288.7 512.8,289.3 514.2,290 515.5,290.7 516.5,291.3 518.2,292.2 519.3,292.8 520.5,293.5 521.8,294.5 523.2,295.5 524.5,296.5 525,297 525.8,297.7 526.8,298.5 528,299.5 529,300.5 530,301.5 531.2,302.8 532.3,304.2 533.5,305.5 534.5,306.5 535.5,307.5 536.5,308.7 537.3,309.7 538,310.5 538.8,311.7 539.7,312.8 540.8,314.5 541.5,315.5 542.2,316.5 542.7,317.5 543.3,318.5 544,319.8 544.8,321.2 545.8,322.7 547.8,324.8 549.3,326.5 550.7,327.8 551,328.2 552.7,329 554.5,330.2 556.3,331.2 558,332 559.5,332.5 561.2,333.2 562.7,333.5 564.3,333.8 565.8,334 566.8,334.2 567.8,334.3 569.7,334.3 571.2,334.2 572.5,334 573,334 574.5,333.7 576,333.3 577.5,332.8 578,332.7 579.2,332.3 580.3,332 581.5,331.7 582,331.5 583.2,331.3 584.3,331 585.5,330.7 586,330.5 587.2,330.2 588.3,329.8 589.5,329.5 590,329.3 591.2,329 592.5,328.7 594.3,328.2 595.5,327.8 596.5,327.5 597.8,327.2 599.2,326.8 600.5,326.5 601.8,326.2 603.2,325.8 604.5,325.5 605.2,325.3 606.7,325 608.8,324.3 610.8,323.8 612.2,323.5 613.5,323.2 614.8,322.8 616.2,322.3 617.8,322 619.5,321.7 621.2,321.3 622.8,321 625.2,320.3 627.5,319.8 628.8,319.3 630.3,319 631.8,318.5 634.2,318 635.8,317.5 638.3,317 640.7,316.3 643,315.8 644.7,315.3 646.7,315 648.7,314.5 651.2,314 652.8,313.5 655.8,312.8 658.2,312.2 660.5,311.7 662.7,311.2 665.3,310.5 668,309.8 669.7,309.3 671.7,309 674.5,308.3 677.7,307.5 680.2,306.8 681.8,306.3 684.5,305.8 687,305.2 689.7,304.5 692.2,303.8 694.8,303.2 698.2,302.5 700.2,302 702.8,301.3 704.7,300.8 707.3,300.2 709.2,299.8 712,299.2 714,298.7 717.2,297.8 719.5,297.2 721.8,296.5 723.8,296 725.8,295.5 729,294.8 731.3,294.2 733.5,293.5 735.5,292.8 737.5,292.2 740.3,291.2 742.5,290.2 744.7,289.3 746,288.8 748.2,288 750.2,287 752.5,285.8 754.3,284.7 756.5,283.3 758.2,282.2 759.8,281 761.3,279.7 763.2,278.2 764.5,276.8 765.7,275.8 767.5,273.8 769,272.2 770.5,270.3 771.3,269.2 772.2,268 773,266.8 774,265.5 775,264 776,262.7 776.7,261.7 778,260 779.5,257.8 780.8,256 781.5,254.8 782.2,254 783.3,252.3 784.7,250.8 785.8,249.3 787.2,247.8 788.3,246.2 789.5,244.7 790.5,243.2 791.5,241.8 792.5,240.3 793.5,239.3 794.7,238 796.5,235.7 797.8,233.7 799,231.8 800.2,230.5 801.3,229 802.5,227.5 803.3,226.3 804.7,224.8 806.5,222.7 808,220.8 809.2,219.3 810.5,217.5 811.8,215.5 813.2,213.7 814.3,212.2 815.5,210.7 817,208.7 818,207.5 819.7,205.7 820.8,204.2 822.3,202.2 824,200 825.8,197.7 827.5,195.7 828.3,194.5 829.7,193 830.8,191.5 833,188.8 834.5,186.7 836.2,184.5 837.2,183.2 838.8,181.3 840.5,179.5 842.2,177.7 843.7,175.8 845,174 846.8,171.7 848.2,169.8 850.2,167.3 851.5,165.7 853.3,163.3 854.7,161.7 856.2,159.7 857.7,158 859.7,155.5 861.3,153.3 862.7,151.5 864.5,149.2 866.3,146.8 868.5,144 869.5,142.5 871.2,140.3 872.5,138.7 874.2,136.7 875.7,135 877.5,132.8 879.3,130.5 880.8,128.5 882.2,126.7 883.8,124.7 885.5,122.7 887.2,120.7 888.7,119 890.3,116.8 891.8,115 893.3,113.2 895,111.2 896.7,109.2 898.3,106.8 899.7,105.2 901.2,103.2 902.8,101.2 904.7,98.7 906.3,96.5 907.8,94.3 909.2,92.7 910.3,91 912,89 913.5,87 915.2,85 916.5,83.3 918,81.7 919.3,80 920.3,78.7 922,76.5 923.7,74.3 925.2,72.7 926.7,70.8 928.3,69 930.2,66.5 931.2,65.2 932.7,63.2 933.8,61.7 935,60.2 935.5,59.3 937.2,57.3 938.8,55.3 940.5,53.3 941.5,51.8 942.5,50.3 943.5,48.8 944.5,47.5 945.5,46 946.5,44.7 947.3,43.5 948.2,42.5 949.7,40.5 950.8,39 952,37.5 953,36.2 953.8,34.8 954.7,33.5 955,32.8 955.8,31.8 956.7,30.8 957.5,29.7 958.3,28.5 959.8,26.3 961.2,24.5 962.3,22.7 962.7,21.8 963.7,20.3 964.5,19.2 965.3,18 965.7,17.5 966,16.8 966.3,16.2 966.7,15.5 967.7,14.3 968.7,13.2 970.2,11.3 971,10.2 971.8,9 972.2,8.5 972.8,7.3 973.7,6.2 974.5,5 974.8,4.5 975.2,4 975.3,3.5 976.3,2.2 977.2,0.8 978.7,-1.2 979.3,-2.3 980.7,-4.2 981.5,-5.7 982.5,-7 984.2,-9.7 985.8,-17 986,-26.3 984.7,-33.5 981.8,-36.5 974.7,-37.2 967.3,-37.7 961,-37.2 959.3,-36.7 957.2,-36 955.2,-35.3 953,-34.7 951.2,-34 949.2,-33.3 948.2,-32.8 947.5,-32.7 946.8,-32.3 945.2,-31.8 943.5,-31.3 942,-31 941.5,-30.8 940.5,-30.5 939.2,-30 937.8,-29.5 937,-29.2 936.5,-29 935.5,-28.7 934.5,-28.3 933.5,-28 932.5,-27.7 931.5,-27.3 930.5,-27 929.5,-26.7 928.5,-26.3 926.8,-25.7 925.7,-25.3 924.5,-25 923.5,-24.7 922,-24.2 920.2,-23.3 918.8,-22.8 917.8,-22.3 917.2,-22.2 915.7,-21.7 914.3,-21.3 912,-20.5 910.5,-20 908.8,-19.3 908.2,-19.2 906.8,-18.7 905.7,-18.3 903.8,-17.7 901.7,-17 899.5,-16.2 897.8,-15.7 896.2,-15 894.5,-14.3 892.8,-13.7 892,-13.3 890,-12.8 888,-12.2 885.5,-11.3 884,-10.8 882.7,-10.3 880.8,-9.7 879,-9 876.2,-8 874.3,-7.3 872.5,-6.7 870.3,-6 867.8,-5.2 865.3,-4.3 863.5,-3.7 862,-3.2 859.8,-2.3 857.5,-1.7 854.8,-0.8 852.8,-0.2 851,0.7 848.8,1.3 846.2,2.2 843.7,3 841.2,4 839.2,4.8 836.7,5.5 834.8,6 831.8,6.8 829.7,7.7 827,8.7 824.5,9.7 822,10.5 819.3,11.3 817.7,11.8 815,12.7 812.2,13.7 809.2,14.7 806.7,15.5 804.3,16.2 802.2,16.8 799.8,17.7 797.3,18.7 794.7,19.7 792.2,20.5 790.3,21 787.7,21.7 784.8,22.5 782.2,23.3 779.8,24.2 777.7,25 774.8,25.8 772.2,26.7 769.3,27.5 766.5,28.5 764.2,29.3 761.8,30 759.7,30.7 756.8,31.5 754,32.5 751.2,33.5 748.3,34.3 745.5,35.2 743.2,35.8 740.8,36.7 738.5,37.5 735.7,38.3 732.7,39.2 729.7,40 727.2,40.8 724.7,41.7 721.8,42.5 719,43.3 716.3,44.2 714,45 711,46 708.7,46.7 706.2,47.3 703.7,48 700.7,49 697.8,50 695,51 692.5,51.7 690,52.3 687.3,53 684.2,54 680.8,55 678.3,55.7 676.3,56.2 673.7,56.8 670.8,57.7 667.3,58.7 664.8,59.5 661.8,60.3 658.8,61.2 655.7,62 653.2,62.8 650.8,63.7 648.3,64.3 645.2,65.2 641.8,66 639.3,66.8 636.8,67.5 634.5,68.2 631.3,69 628.3,70 625.8,70.7 623.3,71.3 620.7,72 617.5,73 614.5,73.8 612,74.5 610.2,75 607.7,75.5 604.7,76.2 601.7,76.8 599.2,77.7 596.7,78.3 593.5,79.2 590.5,80 588,80.7 585.5,81.3 583,82 580.7,82.7 578.2,83.3 575.7,84 573.2,84.7 570.7,85.3 568.2,86 565.5,86.7 563,87.3 560.3,88 557.7,88.7 555,89.3 552.5,90 550.2,90.7 547.7,91.3 545.8,91.8 542.8,92.5 539.8,93.2 536.3,94 533.8,94.7 531.5,95.3 528.8,96 525.7,96.8 523.2,97.5 520.7,98.2 518.8,98.8 516.2,99.5 513.7,100.2 510.5,101 508,101.7 505.5,102.3 502.8,103 500.2,103.7 497.5,104.3 495.5,104.8 492.3,105.5 489.8,106 486.7,106.7 484,107.3 481.3,108 478.7,108.5 476.2,109.2 473.7,109.8 471.2,110.5 468.5,111.2 465.8,111.8 463.2,112.5 460.5,113.2 457.8,113.8 455.2,114.5 453.2,115 451.2,115.3 448.5,115.8 445.3,116.5 441.5,117.3 439,118 436.3,118.5 433.7,119.2 431,119.8 428.3,120.5 425.7,121.2 423,121.7 421,122.2 418.3,122.5 415.7,123 412.3,123.7 409.7,124.3 407,125 404.3,125.5 401.7,126.2 399,126.7 396.5,127.3 393.8,128 391.2,128.7 389.2,129.2 386.5,129.5 383.8,130 380.5,130.5 378.5,131 375.7,131.7 373.3,132.2 370.3,132.8 367.7,133.3 365,134 362.5,134.5 359.8,135.2 357.2,135.7 355.2,136.2 352.7,136.7 350.3,137.2 347.2,137.8 344.7,138.3 342,139 340.2,139.3 337.5,139.8 334.8,140.2 331.5,140.8 328.8,141.3 326.3,142 323.7,142.5 321.8,143 319.8,143.3 317.8,143.7 315,144 311.7,144.7 309,145.2 306.5,145.8 304.5,146.2 302.7,146.7 300,147 297.5,147.5 294.3,148 292.5,148.3 289.8,148.8 287,149.3 284.3,150 282.3,150.3 281.2,150.7 278.5,151 276,151.5 273.5,151.8 271.2,152.3 268.2,152.8 265,153.5 263.2,153.8 260.5,154.2 258,154.5 255,155 253.3,155.5 251.7,155.8 249,156.3 246.5,156.7 244,157 241.5,157.3 239,157.7 235.8,158.3 234,158.7 232.2,159.2 230.5,159.3 228,159.7 225.5,160 223.5,160.3 221.2,160.8 218.2,161.3 215,162 213.2,162.3 210.8,162.7 208.7,163 206.3,163.3 204,163.8 201.7,164.2 198.7,164.7 196.8,165 195,165.3 192.7,165.8 190.3,166.2 188,166.5 185.7,166.8 183.3,167.2 181,167.5 179.5,167.7 177,168 173.8,168.7 171.2,169.2 169.5,169.5 167.2,169.8 164.8,170.2 162.5,170.5 160.3,170.7 157.7,171.2 155,171.7 153.5,172 151.2,172.3 148.8,172.7 146.5,173 145.5,173.2 143.2,173.5 140.8,173.8 137.5,174.3 135.5,174.7 133.3,175 131,175.3 128.7,175.7 126.5,176 124.5,176.3 122.5,176.7 120.5,177 118.2,177.3 115.7,177.7 113.2,178.2 110.8,178.5 108.7,178.8 106.3,179.2 104.2,179.5 102,179.8 100,180.2 97.8,180.5 95.5,180.8 93.2,181.2 91,181.5 89,181.8 86.8,182.2 84.5,182.5 82.2,182.8 80,183.2 78.3,183.3 75.5,183.7 72.7,184 70.5,184.3 68.7,184.7 66.7,185 64.7,185.3 62.3,185.7 60.2,186 57.8,186.3 56.2,186.5 53.5,186.7 51,187 49,187.3 46.8,187.7 44.7,188 41.5,188.5 39.5,188.8 37.3,189.2 35.7,189.3 33,189.7 30.5,189.8 28.5,190.2 26.3,190.5 24.2,190.8 22,191.2 20.5,191.3 18,191.7 15.3,191.8 13.2,192.2 11,192.5 9,192.8 7,193.2 5.7,193.3 3.2,193.7 0.7,194 -1.5,194.3 -3.7,194.7 -5.8,194.8 -8,195.2 -9.5,195.3 -11.8,195.7 -14.3,196 -17.3,196.5 -19.5,196.8 -21.5,197 -22.5,197.2 -24,197.3 -26.5,197.7 -29,198 -31,198.3 -33.2,198.7 -35.3,198.8 -37.5,199.2 -38.5,199.3 -40.8,199.7 -43.2,199.8 -45.5,200.2 -46.5,200.3 -48.8,200.7 -51.2,200.8 -53.5,201.2 -54.5,201.3 -55.8,201.5 -58,201.7 -60.2,202 -62,202.3 -63.5,202.5 -65.7,202.7 -67.8,203 -69.5,203.3 -70.5,203.5 -71.8,203.5 -74,203.8 -76.2,204.2 -77.8,204.5 -78.7,204.5 -80.7,204.7 -82.7,205 -84.7,205.3 -85.5,205.5 -86.8,205.5 -89,205.8 -91,206.2 -92.7,206.5 -93.3,206.5 -95.3,206.8 -97.2,207.2 -99.2,207.5 -99.8,207.7 -100.7,207.8 -101.7,208 -102.7,208 -104.8,208.3 -106.7,208.7 -108.5,209 -109.2,209 -110.8,209.2 -112.5,209.5 -114.2,209.8 -114.8,210 -115.5,210 -116,210.2 -118,210.5 -120,210.8 -122,211 -122.5,211.2 -123,211.3 -123.5,211.5 -124.5,211.5 -126.5,211.7 -128.5,212 -130,212.3 -130.5,212.5 -131,212.5 -131.5,212.5 -133,212.8 -134.5,213.2 -136,213.5 -136.5,213.5 -137,213.5 -137.5,213.5 -138,213.7 -138.8,213.8 -140.7,214.2 -142.5,214.3 -144.2,214.7 -144.8,214.8 -146.7,215.2 -148.7,215.3 -155,216.3 -160,217.3 -167,223.7 -169.7,229.3 -172.5,234.8 -172,236.5 -171.2,238.5 -170,240.7 -169,242 -168,243 -167,244 -166,245 -163.2,248.2 -160.5,251.3 -158.2,254 -157.5,254.7 -156.8,255.3 -156.2,256.2 -155.7,256.7 -155.2,257.2 -154.8,257.5 -154,258.7 -152.7,260.2 -151.3,261.7 -150.5,262.5 -149.7,263.7 -148.7,265 -147.5,266.5 -146.5,267.5 -145.5,268.5 -144.8,269.3 -144.2,270.2 -143.7,270.8 -143,271.5 -142.5,272 -142,272.5 -140.8,274 -139.5,275.7 -138.3,277.5 -137.8,278.3 -137,279.7 -135.8,281 -134.5,282.5 -133.5,283.7 -132.7,284.7 -132,285.5 -131,286.7 -129.8,288.2 -128.5,289.8 -127.7,290.8 -127,291.5 -125.7,293.3 -124.2,295.3 -122.5,297.5 -121.5,298.7 -120.7,299.7 -120,300.5 -119.5,301 -118.3,302.7 -117,304.5 -115.5,306.5 -114.7,307.3 -114.2,308.2 -113.8,308.8 -113,310.2 -112,311.3 -111,312.5 -110.5,313 -110.2,313.5 -109.2,315 -108.2,316.7 -107,318.3 -106,319.7 -105.2,320.8 -104.3,322 -104,322.5 -103,323.7 -102.2,324.8 -101.3,326 -101,326.5 -100,327.7 -99.2,328.8 -98.3,330 -98,330.5 -97,331.8 -96.2,333.2 -95.3,334.5 -95,335 -94.2,336 -93.3,337 -92.2,338.5 -91.5,339.7 -90.8,340.8 -90,342.2 -89,343.3 -88,344.5 -87.7,345 -87.3,345.5 -86.5,346.8 -85.5,348.3 -84,350.5 -83.2,351.8 -82.2,353.2 -81.7,353.8 -81,354.5 -80.5,355 -80,356 -79.2,357.5 -78.3,359 -77,360.7 -76,361.8 -75.2,363 -74.8,363.5 -74.5,364 -73.8,364.8 -73,366.3 -72.2,367.8 -71.2,369.5 -70.3,370.5 -69.7,371.5 -68.8,372.7 -68,373.8 -67.2,375 -66.8,375.5 -66.5,376 -66.2,376.5 -65.3,377.8 -64.5,379.2 -63.7,380.5 -63.3,381 -63.2,381.5 -62.3,382.8 -61.5,384.2 -60.7,385.5 -60.3,386 -60.2,386.5 -59.8,387.3 -59.5,388.2 -59.2,389 -58.8,389.5 -58.5,390.5 -58.2,391.5 -58,392.5 -57.8,393 -57.7,393.5 -57.5,394 -57.5,394.5 -57.5,395.2 -57.5,396 -57.5,397 -57.5,398 -57.5,399 -57.5,400 -57.5,401 -57.5,401.8 -57.5,402.5 -57.5,403 -57.5,403.5 -57.7,404 -57.8,404.5 -58.2,405.5 -58.3,406.5 -58.7,407.5 -58.8,408 -59.3,408.8 -59.7,409.7 -60,410.5 -60.2,411 -60.7,411.7 -61.5,412.5 -62.2,413.3 -62.8,414.2 -63.5,414.8 -64.3,415.5 -64.8,416 -65.2,416.3 -65.5,416.7 -66.5,417.2 -67.5,417.8 -68.5,418.3 -69,418.7 -69.5,418.8 -70,419.2 -70.5,419.3 -71.5,419.7 -72.5,420 -73.5,420.3 -74,420.5 -74.5,420.5 -76,420.8 -77.5,421.2 -79,421.5 -79.5,421.5 -80,421.5 -80.5,421.5 -81.5,421.5 -82.7,421.5 -84,421.5 -85,421.5 -86,421.5 -87.3,421.5 -88.7,421.5 -90,421.5 -91.3,421.5 -92.7,421.5 -94,421.5 -95.3,421.5 -96.7,421.5 -98.2,421.5 -99.5,421.5 -100.8,421.5 -102.2,421.5 -103.2,421.5 -104.2,421.5 -104.8,421.5 -106.8,421.3 -108.8,421.2 -111.2,421 -112.5,421 -114.2,421 -115.5,420.8 -117.2,420.7 -118.5,420.5 -120.2,420.5 -121.5,420.5 -123.2,420.5 -124.5,420.5 -125.8,420.5 -127,420.5 -128.2,420.3 -129.2,420.2 -129.8,420 -131.5,419.8 -133.2,419.5 -134.8,419.2 -135.5,419 -136.8,418.8 -138.2,418.5 -139.5,418.2 -140,417.8 -140.7,417.7 -141.7,417.2 -142.7,416.8 -143.8,416.2 -144.7,415.7 -145.5,415.2 -146,414.8 -147,414.2 -148,413.5 -149,412.8 -149.5,412.5 -150.2,411.8 -151,411 -152,410 -152.7,409.2 -153.3,408.3 -154,407.5 -154.7,406.7 -155.2,406 -155.5,405.3 -156.2,404.3 -156.7,403.3 -157.3,402.2 -157.7,401.3 -158.3,400.2 -158.7,399.3 -159.2,398.5 -159.3,398 -160,396.7 -160.5,395.3 -161,394 -161.2,393.3 -161.5,392.2 -162.2,390.7 -162.7,389.3 -163,388.5 -163.2,388 -163.3,387.5 -164,386 -164.5,384.3 -165,382.7 -165.2,382 -165.5,381 -166.2,379.7 -166.7,378.3 -167,377.5 -167.3,376.3 -167.8,374.8 -168.5,373.3 -168.8,372.5 -169.5,371.3 -170,370.2 -170.7,369 -171.5,367.5 -172.3,366 -173.2,364.5 -173.3,364 -173.7,363.5 -174.7,362 -175.7,360.5 -176.7,359 -177,358.3 -177.3,357.7 -178.2,356.2 -179,354.8 -180,353.5 -181,352.3 -181.8,351.2 -182.8,349.8 -183.5,349 -184.5,348 -185.3,347.2 -186,346.5 -187,345.3 -188.7,343.7 -190.2,342 -191.2,341 -191.5,340.5 -192.2,339.8 -193,339 -194,338 -195,337 -196,336 -197,335 -198,334 -199,333 -199.8,332.3 -200.7,331.7 -201.3,331 -202.2,330 -202.8,329.2 -203.5,328.5 -204,328 -204.7,327.2 -206.2,325.5 -207.7,323.8 -209,322.5 -209.7,322 -210.2,321.5 -210.8,320.8 -211.5,320 -212.5,319.2 -213.5,318.3 -214.5,317.5 -216,316.3 -217.3,315.3 -218.5,314.7 -219,314.3 -220.3,313.5 -221.7,312.7 -223,312 -223.5,311.8 -224,311.7 -225.2,311.2 -226.3,310.7 -228.7,309.7 -230.3,309 -232,308.5 -232.5,308.5 -233.5,308.3 -234.5,308.2 -236.5,307.7 -238,307.3 -239.5,307 -240,307 -240.5,307 -241,307 -242.5,306.8 -244.2,306.7 -246,306.5 -247,306.5 -247.8,306.3 -248.8,306.2 -249.7,306 -250.5,306 -251,306 -251.5,306 -252,306 -253.5,305.8 -255.2,305.7 -257.2,305.5 -258.5,305.3 -260.2,305.2 -261.7,305 -263.3,305 -265.8,305.2 -268.2,305.3 -270.2,305.7 -272.3,306.3 -274.3,307.2 -276.8,308.3 -277.8,309 -279,309.8 -280.7,312.2 -282.3,314.5 -284,318 -284.5,319.5 -283.5,325.8 -282.2,330.7 -280.7,335.7 -280,336.3 -278.8,338 -277.7,339.7 -276.7,341.2 -276.3,341.8 -275.5,342.8 -275,343.7 -274.2,344.7 -273.7,345.7 -272.5,347.3 -271.5,348.8 -270.3,350.5 -269.7,351.5 -269.2,352.5 -268.5,353.5 -267.8,354.5 -267.2,355.5 -266.8,356 -266.3,356.8 -265.2,358.3 -264.2,359.8 -263.3,361 -263,361.5 -262.7,362 -262.2,362.8 -261.7,363.7 -260.3,365.7 -259.3,367.3 -258.3,369 -258,369.5 -257.5,370 -256.8,371 -256.2,372.3 -255.2,374.2 -254.3,375.7 -253.2,377.3 -252.5,378.5 -251.5,380.2 -250.8,381.3 -250,382.5 -249.2,383.7 -248.3,384.8 -247.5,386.2 -247.2,386.8 -246.3,388.5 -245.5,390.2 -244.5,391.8 -243.5,393.5 -242.5,395 -241.2,397.2 -240.3,398.5 -239.2,400.3 -238.3,401.7 -237.3,403.3 -236.7,404.7 -235.7,406.3 -234.8,407.7 -233.7,409.5 -232.8,410.8 -231.7,412.7 -230.8,414 -230,415.3 -228.8,417.2 -227.7,418.8 -226.2,421.2 -225.3,422.5 -224.2,424.5 -223.3,425.8 -222.2,427.7 -221.3,429 -220.5,430.3 -219.7,431.8 -218.3,434 -217,436.3 -216,437.8 -215.3,438.8 -214.7,439.8 -213.3,442 -211.8,444.3 -210.3,446.7 -209.5,448 -208.5,449.8 -207.5,451.5 -206.3,453.5 -205.5,455 -204.2,457.3 -202.8,459.2 -201.7,460.7 -200.7,462.2 -199.8,463.8 -198.8,465.7 -198,467.2 -197,469 -196,471 -195,472.8 -194,474.7 -193.2,476.2 -192.7,477.5 -192.2,478.8 -191.7,480.2 -190.7,482.3 -189.8,484.2 -189.2,485.8 -188.8,486.7 -188.3,488.3 -187.8,490.2 -187.2,492.7 -186.8,494.3 -186.2,496.5 -185.8,498 -185.5,499.5 -185.3,500.5 -185.2,502 -185,503.8 -185,505.7 -185,507.3 -185,509 -185,511 -185,512.8 -185,514.8 -185,516.3 -185.2,518.2 -185.3,519.8 -185.5,521.8 -185.7,523.2 -185.8,524.2 -186.3,526 -186.7,527.8 -187.2,529.7 -187.3,530.5 -187.8,532.2 -188.2,533.8 -188.7,535.5 -188.8,536.3 -189.5,538.3 -190,540.3 -190.7,542.3 -191.2,543.7 -191.7,545 -192.3,546.8 -192.7,548.2 -193.3,549.8 -193.8,551.5 -194.5,553.2 -195,554.3 -195.7,556 -196.3,557.7 -196.8,559.3 -197.5,561 -198.2,562.5 -199,564.7 -199.5,566 -200.2,567.8 -200.7,569.2 -201.3,570.8 -201.8,572.2 -202.3,573.3 -202.7,574.2 -203.3,575.3 -204.3,577 -205.5,578.8 -206.3,580.7 -207,582 -207.5,583 -208,583.7 -209,585 -210,586.3 -211,587.7 -212,589 -213,590.3 -214.2,591.5 -215,592.2 -216,593 -216.8,594 -217.5,594.8 -218.2,595.5 -219.8,596.7 -221.7,598 -223.3,599.2 -224.3,599.8 -225.2,600.3 -226,601 -227.3,601.8 -228.7,602.7 -230.2,603.3 -231.5,604 -232.8,604.7 -234.5,605.7 -235.5,606.2 -237,606.8 -238.3,607.5 -239.7,608.2 -241,608.8 -242.3,609.5 -243.8,610.2 -245.5,611 -247,611.7 -248.3,612.3 -249.7,613 -251,613.7 -252.3,614.3 -253.8,615 -255.2,615.7 -256.5,616.3 -257.8,617 -259.2,617.7 -260.7,618.3 -262,619 -263.3,619.7 -264.7,620.3 -266,621 -267.5,621.7 -268.8,622.3 -270.5,623 -272,623.7 -273.8,624.5 -275.2,625.2 -276.5,625.7 -277.7,626.2 -279,626.8 -280.3,627.5 -281.7,628.2 -282.3,628.3 -284,629 -285.5,629.7 -287.2,630.3 -288.3,630.8 -289.5,631.2 -291.5,632 -293,632.5 -294.7,633 -295.3,633.2 -296.2,633.3 -297.7,633.7 -299.3,634 -300.8,634.3 -302.5,634.7 -304,634.8 -305.7,635 -306.3,635.2 -307.5,635.3 -308.7,635.5 -310.2,635.5 -311.5,635.5 -313,635.5 -314.5,635.5 -316,635.5 -317.8,635.5 -319.3,635.5 -320.7,635.5 -321.3,635.5 -323.2,635.3 -325,635.2 -327.3,634.8 -328.5,634.7 -329.7,634.5 -330.3,634.5 -332.2,634.3 -333.8,634.2 -335.7,633.8 -336.3,633.7 -338.2,633.3 -340,633 -341.8,632.7 -342.7,632.5 -343.8,632.3 -345.8,631.8 -347.7,631.3 -349.2,631 -350.7,630.7 -352.3,630.3 -353.8,629.8 -354.7,629.7 -355.8,629.3 -357.2,629 -358.8,628.5 -360.2,628 -362,627.5 -363.3,627.2 -365.2,626.7 -366.3,626.3 -368.2,625.7 -370,625 -372,624.3 -373.3,623.8 -374.2,623.7 -374.8,623.3 -376.3,622.8 -377.7,622.2 -380,621.2 -381.5,620.5 -383,619.8 -384,619.3 -385.5,618.7 -387.2,618 -388.3,617.5 -389.8,616.7 -391.2,616 -393,615.2 -394,614.7 -395,614 -396.2,613.3 -397.3,612.7 -399.3,611.7 -400.7,610.8 -402.5,609.8 -403.5,609.2 -405,608.2 -406.2,607.3 -407.8,606.2 -409,605.3 -410.2,604.5 -411,603.8 -412,603 -413,602 -414.3,600.8 -415.5,599.8 -416.7,598.8 -417.5,598 -418.7,596.7 -420.2,595.2 -421.5,593.8 -422.7,592.8 -423.5,592 -424.5,590.8 -425.3,589.8 -426.3,588.5 -427.3,587.2 -428.3,585.8 -429.3,584.5 -430.3,583.2 -431.3,581.8 -432.3,580.5 -433.2,579.3 -434.3,577.7 -435.3,576.2 -436.3,574.8 -437.3,573.5 -438.3,572.2 -439.3,570.8 -440.3,569.5 -441.2,568.3 -442.3,566.7 -443.3,565.2 -444.3,563.8 -445.3,562.3 -446.2,561.2 -447.3,559.5 -448.3,558.2 -449.3,556.8 -450.5,555.2 -451.7,553.8 -453.2,551.8 -454.2,550.7 -455.3,548.8 -456.3,547.5 -457.3,546.2 -458.3,544.8 -459.5,543.3 -460.8,541.5 -462,540.2 -463,539 -464.2,537.7 -465.3,536.2 -466.3,534.8 -467.3,533.3 -468.2,532.2 -469.7,530.2 -470.8,528.8 -472.3,526.8 -473.2,525.7 -474.3,523.8 -475.3,522.5 -477,520.5 -478.3,519.2 -479.7,517.7 -480.3,516.8 -481.5,515.2 -482.5,513.8 -484,511.8 -485,510.7 -486.3,508.8 -487.3,507.5 -488.5,505.8 -489.5,504.8 -491.7,502.3 -493.8,499.8 -495.8,497.3 -496.5,496.3 -497.7,495 -498.8,493.5 -500.7,491.3 -502,489.5 -503.3,487.8 -504.5,486.2 -505.7,484.8 -506.8,483.5 -508.3,482 -509.7,480.5 -511,479 -511.5,478.3 -512.5,477 -513.5,475.7 -515,473.8 -516.2,472.5 -517.5,471 -518.3,470.2 -519.3,468.8 -520.3,467.5 -521.7,465.7 -522.7,464.5 -523.5,463.5 -524.3,462.5 -525.5,461 -526.8,459.3 -527.8,458.2 -528.5,457.5 -529.3,456.5 -530.3,455.3 -531.5,454 -532.5,453 -533.7,451.8 -534.7,450.8 -535.7,449.8 -536.5,449 -537.5,448 -538.5,447 -539.5,446 -540.8,444.7 -542.2,443.3 -544,441.8 -545.3,440.8 -546.5,440 -547,439.7 -548.2,438.8 -549.7,438 -551.2,437 -552.3,436.5 -553.2,436 -554,435.7 -555.3,435 -557.3,434.3 -559.3,433.7 -560.5,433.5 -561,433.5 -562.3,433.2 -563.7,432.8 -565,432.5 -565.5,432.5 -567.3,432.5 -569.2,432.5 -571,432.7 -572.7,433 -574.3,433.3 -576,433.5 -576.5,433.5 -577,433.7 -578.7,434.2 -580.3,434.7 -582,435.2 -582.5,435.3 -583.2,435.5 -584.5,435.8 -585.8,436.2 -587,436.7 -588.3,437.2 -589.7,437.7 -591.2,438.2 -591.8,438.3 -593.3,439 -594.7,439.5 -596,440.2 -596.7,440.3 -597.8,440.8 -599.2,441.2 -601.2,442 -602.7,442.5 -604.5,443.3 -605.5,443.8 -607.3,444.7 -608.7,445.3 -610.2,445.8 -611.5,446.5 -613,447.2 -614.3,447.8 -615.7,448.3 -617.2,449 -618.8,449.7 -620.5,450.5 -622,451.2 -623.3,452 -625.2,452.8 -626.8,453.7 -628.7,454.5 -629.5,455 -631.2,455.7 -632.8,456.3 -634.5,457 -636.3,458 -638.2,459 -640,459.8 -640.8,460.2 -642.5,460.8 -644.7,462 -647,463.2 -648.3,464 -650,464.7 -651.7,465.3 -653.8,466.2 -655.2,466.8 -657.3,468 -659.2,469 -661,469.8 -662.5,470.3 -664.3,471 -666.5,472 -668.8,473.2 -670.7,474.2 -672.5,475 -673.7,475.5 -675.5,476.2 -677.8,477.3 -680.2,478.5 -682,479.5 -683.5,480.2 -685.2,480.8 -687.2,481.7 -688.7,482.3 -690.7,483.3 -692.7,484.3 -694.7,485.3 -696.5,486.2 -698.3,487 -700.5,488 -702.8,489.2 -704.8,490.2 -706.8,491 -708.2,491.5 -710.5,492.5 -712.5,493.5 -714.5,494.5 -716.3,495.3 -718,496.2 -720,497.2 -721.2,497.8 -723.5,498.8 -725.5,499.7 -727.5,500.5 -729.3,501.3 -731.2,502.2 -732.8,503 -734.7,504 -736.5,505 -738.5,505.8 -740.5,506.7 -742.3,507.5 -744.2,508.5 -745.5,509.2 -747.3,510 -749,510.7 -750.8,511.5 -752.3,512.2 -754.5,513.2 -756.2,514 -758.2,514.8 -760.2,515.8 -761.8,516.7 -763.2,517.5 -764.5,518.2 -766.2,518.8 -768.2,519.7 -769.5,520.3 -771.3,521.3 -772.7,522 -774.2,522.7 -774.8,523 -776,523.5 -777.5,524.2 -779.3,524.8 -780.7,525.5 -781.8,526 -782.7,526.5 -783.8,527 -784.7,527.5 -785.5,527.8 -786.7,528.5 -787.8,529 -789,529.7 -789.5,529.8 -790,530 -790.3,530.2 -791.2,530.5 -792.3,531 -793.7,531.5 -795,532.2 -796.3,532.8 -797.7,533.3 -798.7,533.7 -800.3,534.5 -802.2,535.5 -804,536.5 -804.8,536.8 -806.5,537.7 -808,538.3 -810,539.5 -811,540.2 -812,540.8 -812.8,541.3 -814,542 -815,542.8 -816,543.5 -817.2,544.3 -818.3,545.2 -819.2,545.8 -819.3,546.2 -819.5,546.5 -819.7,546.8 -819.8,547.2 -821.8,553 -821.8,561.7 -819.2,572.7 -814.5,578 -811.7,580.7 -811.3,580.8 -810,582 -808.5,583 -806.3,584.7 -805.2,585.5 -804,586.3 -802.7,587.3 -801.3,588.3 -800,589.3 -799.5,589.7 -798.3,590.5 -797.2,591.3 -796,592.2 -795.5,592.5 -795,592.8 -793.5,593.8 -792,594.8 -790.5,596 -790,596.3 -789.5,596.7 -788.8,597.2 -788,598 -786,599.5 -784.2,600.8 -782.5,601.8 -782,602.2 -781.5,602.5 -780.8,603.2 -779.2,604.5 -777.5,605.7 -775.8,606.8 -775.2,607.2 -774.5,607.7 -773.8,608.2 -772.2,609.5 -770.2,611 -768.3,612.3 -767.5,613 -766.8,613.7 -765.2,615 -763.5,616.3 -762,617.5 -760.8,618.5 -759.5,619.5 -757.7,620.8 -756.5,621.7 -755.3,622.5 -754,623.5 -752.7,624.3 -751.5,625.2 -751,625.5 -750.2,626.2 -748.7,627.3 -747,628.5 -745.7,629.5 -744.3,630.5 -743.2,631.5 -741.8,632.5 -740.5,633.5 -739.2,634.5 -737.8,635.5 -736.5,636.5 -735.2,637.5 -733.5,638.8 -732.3,639.7 -731.2,640.5 -729.7,641.5 -728.5,642.5 -726.7,643.8 -725.7,644.7 -724.3,645.5 -723.7,645.8 -722.3,646.7 -721,647.7 -719.7,648.8 -718.2,650.2 -716.7,651.3 -715.2,652.5 -714.8,652.8" style="stroke: rgb(55, 65, 81); stroke-width: 10;"></polygon><polyline vector-effect="non-scaling-stroke" fill="none" points="-712,654.8 -711.2,655.2 -709.8,656 -709,656.5 -708.5,657 -708,657.3 -707.3,657.8 -706.5,658.5 -705,659.8 -703.7,660.8 -702.5,661.7 -701.5,662.3 -700.3,663.2 -699.2,664 -698.3,664.7 -697,665.7 -695.7,666.7 -694.5,667.5 -693.5,668.3 -692.5,669.2 -691.3,670 -690,670.8 -688.7,671.7 -687.5,672.5 -687,673 -685.7,674 -684.3,675 -683,676 -681.8,677 -680.5,678 -679.2,679 -678.3,679.7 -676.8,680.8 -675.3,682 -674,683 -672.7,684 -671.3,685 -670,686 -668.7,687 -667.3,688 -665.3,689.3 -664.2,690.2 -662.8,691 -661.3,692.2 -659.7,693.3 -658.2,694.5 -656.5,695.8 -655,697.2 -653.3,698.5 -652,699.5 -650.2,700.7 -648.5,701.8 -647.3,702.7 -645.8,703.8 -644.3,705 -642.2,706.5 -640.7,707.7 -638.3,709.3 -636.8,710.5 -635.3,711.7 -633.7,713 -631.5,714.5 -629.5,716 -627.8,717.2 -626.5,718.2 -625,719.2 -623.2,720.5 -621.3,722 -618.8,723.8 -617.2,725.2 -614.7,727 -612.5,728.7 -610.3,730.2 -608.8,731.3 -607,732.7 -605.2,734.2 -602.7,736 -600.8,737.5 -598.3,739.5 -596.5,740.8 -593.8,742.8 -591.5,744.5 -589.3,746.2 -587.2,747.7 -584.8,749.3 -582.5,751 -581,752.2 -579,753.7 -577,755.3 -573.8,757.7 -571.5,759.3 -568.5,761.5 -566.7,763 -564.3,764.8 -562.7,766 -560,767.8 -558,769.3 -554.7,771.8 -552.3,773.7 -549.3,776 -546.8,777.8 -544.2,779.7 -542.2,781 -540,782.7 -538,784.3 -535,786.7 -532.3,788.7 -529.2,791 -526.3,793 -524.2,794.7 -522,796.3 -519.5,798.3 -516.5,800.7 -513.8,802.7 -510.5,805 -507.5,807 -504.7,809 -502.7,810.7 -500.2,812.7 -497,815 -494.7,816.7 -492,818.7 -489.3,820.7 -485.8,823.2 -482.7,825.3 -480.2,827.2 -478,828.8 -475.5,831 -472.3,833.5 -469,836 -466,838 -463,840 -460.7,841.7 -458.3,843.5 -455.7,845.8 -452.3,848.5 -449,851 -446,853 -442.8,855.2 -440.2,857 -437.2,859.3 -434.3,861.5 -431,864 -428.2,866 -425,868.3 -421.8,870.8 -418.5,873.3 -416,875.2 -413,877.3 -410,879.5 -407,881.8 -404.2,884 -401.3,886.2 -398,888.7 -395,890.8 -392.5,892.8 -389.7,895 -386.8,897.2 -383.2,899.7 -380.3,901.5 -377.2,903.7 -374.8,905.3 -371.7,907.8 -369.3,909.7 -366.2,912.2 -363,914.3 -359.8,916.5 -356.8,918.7 -354.7,920.3 -351.3,922.8 -348.7,924.7 -346,926.5 -343.2,928.5 -340.3,930.5 -337.2,932.8 -334.7,934.7 -332.2,936.5 -329.7,938.3 -327,940.3 -323.8,942.7 -320.7,945 -317.7,947.2 -315.2,949 -311.8,951.3 -309.3,953.2 -306.8,955 -304.5,956.8 -302,958.7 -298.8,961.2 -296.7,962.8 -293.8,964.8 -291.3,966.5 -288.3,968.5 -285.3,970.7 -282.8,972.3 -280.2,974.2 -278.3,975.5 -275.8,977.3 -274.2,978.7 -271.7,980.3 -269.8,981.5 -267.8,982.8 -265.8,984.3 -263.3,986.2 -260.8,987.8 -259.2,988.8 -258,989.5 -257,990 -255.8,990.8 -254,992.2 -252.3,993.5 -250.8,994.5 -249.3,995.7 -247.7,996.7 -246.2,997.7 -245.5,998 -244,999.2 -242.5,1000.2 -241,1001.2 -239.7,1002 -238.3,1002.8 -236.8,1003.7 -236.2,1004 -235.5,1004.3 -235,1004.7 -234.5,1004.8 -233.2,1005.8 -231.8,1006.8 -230.5,1007.8 -230,1008.2 -229.5,1008.5 -228,1009.5 -226.5,1010.5 -224.5,1011.7 -223.5,1012.3 -222.5,1013 -222,1013.3 -221.5,1013.7 -221,1013.8 -219.7,1014.8 -218.3,1015.7 -217,1016.7 -216.5,1017 -216,1017.3 -214.8,1018.2 -213.7,1018.8 -212,1020 -211,1020.5 -210,1021.2 -209.5,1021.3 -208.2,1022.2 -206.8,1022.8 -205.7,1023.7 -205.3,1023.8 -205,1024.2 -204.5,1024.3 -203.3,1025.2 -202.2,1025.8 -200.5,1026.8 -199.7,1027.3 -197.2,1028.5 -195.3,1029.5 -185.8,1026.5 -178.2,1022.5 -170.2,1018.3 -169.8,1017.7 -169.3,1017 -169,1016.3 -169.3,1012.5 -169.8,1008.7 -170.7,1004.8 -171.3,1003.2 -172.2,1001.8 -172.8,1000.3 -173.3,999.3 -173.8,998 -174.5,996.2 -175,994.7 -175.5,993.2 -176,992.2 -176.5,991 -177.2,989.7 -177.7,988.3 -178,987.5 -178.2,987 -178.5,986 -179,985 -179.3,984 -179.7,983 -180,981.8 -180.5,980.2 -181.2,978.7 -181.7,977.3 -182.2,976.5 -182.5,975.3 -183.2,973.8 -183.7,972.3 -184.2,971.5 -184.5,970.3 -185,969.2 -185.3,968 -185.8,966.8 -186.5,965 -187.3,963 -187.8,961.7 -188.2,961 -188.5,959.8 -189,958.7 -189.7,956.8 -190.2,955.7 -191,953.5 -191.5,952 -192.2,950.3 -192.5,949.2 -193,947.8 -193.7,945.7 -194.3,944 -195.2,942 -195.8,940.7 -196.5,939.2 -196.8,938 -197.3,936.5 -198,934.7 -198.7,932.8 -199.3,931.2 -199.8,929.8 -200.7,927.7 -201.3,926 -202.2,924 -202.7,922.8 -203.5,920.7 -204.2,918.8 -204.8,917.2 -205.5,915.5 -206.2,913.8 -206.8,912 -207.5,910.2 -208.2,908.3 -209,906 -209.7,904 -210.3,902.2 -211,900.3 -211.7,898.7 -212.3,896.8 -213.2,894.8 -214.3,891.8 -214.8,890.2 -215.8,887.8 -216.5,886 -217.8,882.8 -218.5,881 -219.2,879 -219.8,877 -220.7,874.5 -221.2,873 -221.8,871 -222.3,869.5 -223,867.3 -223.7,865.2 -224.2,863 -224.8,861 -225.2,859.5 -225.8,857.3 -226.3,855.5 -227,853 -227.3,851.2 -227.7,849.5 -228,847.3 -228.5,845.2 -228.8,843 -229,841.7 -229,840 -229,838 -229,835.8 -229,833.7 -229,831.3 -229,829.2 -229,827.2 -229,825.2 -229,823.2 -229,820.8 -228.8,819 -228.5,816.8 -228.2,814.7 -227.8,812.5 -227.5,810 -227,808 -226.5,806 -226,804.5 -225.3,802.3 -224.7,800 -224,797.7 -223.3,795.5 -222.7,793.5 -221.8,791.7 -221.2,790.2 -220.2,788 -219,785.3 -217.8,782.8 -216.8,781 -215.8,779.5 -214.5,777.3 -213.3,775.2 -212.5,773.5 -211.3,771.8 -210.2,770.2 -208.5,767.8 -207.5,766.2 -205.8,763.8 -204.7,762.2 -203.5,760.5 -202.2,758.8 -200.8,757.2 -199.2,755.3 -198.2,754.2 -197,753 -195.5,751.3 -193.8,749.7 -192,747.8 -190.8,746.8 -189.2,745.3 -187.5,744 -185.8,742.5 -184.2,741.2 -182.7,740 -180.3,738.5 -178.8,737.3 -176.8,735.8 -175.5,734.8 -173.5,733.7 -172,732.8 -170,731.7 -168,730.5 -166.2,729.3 -164.8,728.5 -163.3,727.7 -161.2,726.3 -159,725 -157,723.7 -155.5,722.8 -153.2,721.5 -151.5,720.5 -149.3,718.8 -148,717.7 -146.2,716.3 -144.3,715.3 -142.5,714.3 -140.7,713 -139.3,712 -137,710.3 -135,709.2 -133,708 -131.2,706.8 -129.3,705.7 -127.7,704.5 -126,703.5 -124.3,702.5 -121.8,700.8 -120.2,699.7 -118.2,698.3 -116.3,697.3 -114.5,696.2 -112.2,694.7 -110.5,693.5 -108.8,692.5 -107,691.2 -105,689.8 -103,688.5 -101,687.3 -99,686 -96.5,684.3 -95,683.3 -93.2,682.3 -91.3,681.2 -88.8,679.5 -86.7,678 -85,677 -84.2,676.3 -82.3,675.2 -80.5,674 -77.8,672.5 -76.2,671.3 -74.2,670 -72,668.5 -69.8,667.2 -68,665.8 -66.7,665 -64.5,663.7 -62.3,662.3 -60.2,661 -58.3,659.8 -55.8,658.3 -53.7,656.8 -52,655.7 -50.8,654.8 -49.3,654 -47,652.3 -44.8,650.8 -42.3,649 -40.7,647.8 -39.2,646.7 -38,645.8 -36.2,644.5 -34,642.8 -32,641 -30.3,639.5 -28.8,638 -27,636.3 -25.7,634.8 -24,633 -22.8,631.7 -21,629.5 -19.7,628 -18.3,626.3 -17,624.7 -15.5,622.5 -14,620.2 -13,618.3 -12.2,616.8 -11.2,614.8 -10.2,613 -9.2,611.2 -8.2,609.3 -7.5,607.7 -6.7,605.7 -5.8,603.3 -4.8,601 -4.2,599.2 -3.5,597.5 -2.8,595.8 -2.2,594 -1.5,592 -1,590 -0.3,588 0.3,586.2 1,584.3 1.7,582.7 2.2,581.5 3.2,579.3 4,577 4.7,575 5.3,573.2 6.2,571.3 6.8,569.7 7.2,568.8 8,567.2 9,565.3 10.3,562.8 11.2,561.3 12.2,559.5 12.8,558.3 13.7,556.8 14.8,555.2 16.2,553.2 17.3,551.5 18.5,549.8 19.5,548.5 20.5,547.2 21,546.3 22.5,544.8 24,543.3 25.5,541.8 26.2,541.2 27.5,540 29,538.8 30.3,537.7 31.7,536.7 33,535.8 34.7,534.8 36.5,533.7 38.2,532.5 39.7,531.5 40.5,531.2 41.8,530.7 43.2,530.2 45.3,529.3 47.2,528.7 48.8,528 50.2,527.5 52.2,526.7 54.3,525.8 56.5,524.8 58,524.2 59.5,523.7 60.8,523.2 62.2,522.7 64.3,521.8 66,521.2 68.5,520 70.2,519 71.8,518.2 72.7,517.8 74.2,517.2 76,516.2 78.2,515 80,513.8 81.7,512.8 83.3,511.7 84.7,510.7 86.3,509.3 87.7,508.2 89,507 90.3,505.7 91.7,504.3 92.8,503.2 93.8,502.2 94.8,501 96.3,499.2 97.7,497.3 98.8,495.7 99.5,494.7 100.5,493 101.5,491.5 103,488.8 104,487.2 104.8,485.3 105.2,484.7 106,482.8 106.8,481.2 107.8,478.5 108.2,477 108.7,475.3 109,473.8 109.3,472.3 109.7,470.8 110,469.5 110.3,467.5 110.5,465.5 110.7,464.2 111,462.5 111.3,460.7 111.5,458.5 111.5,456.8 111.5,455.3 111.5,454.2 111.8,452.5 112.2,450.5 112.5,448.5 112.5,447 112.5,445.8 112.5,444.7 112.7,442.8 113,440.7 113.3,438.5 113.5,437.3 113.7,435.7 114,433.7 114.3,431.8 114.5,430.8 114.7,429.2 115,427.3 115.3,425.7 115.8,424.3 116.3,422.2 117,420 117.3,418.3 117.8,417 118.2,415.7 118.8,413.8 119.2,412.5 119.7,411 120.2,409.8 121.2,407.8 122,406 122.7,404.3 123,403.5 123.8,402 124.7,400.5 125.5,399.2 126.3,397.5 127.2,395.8 128,394.2 128.5,393.3 129.5,392 130.5,390.5 131.8,389 133,387.7 134.2,386.5 135.2,385.3 136.3,383.8 137.5,382.3 138.8,380.8 139.7,380 140.5,379.2 141.7,378 143.3,376.5 145.2,374.8 146.5,373.7 147.8,372.5 149,371.5 150.2,370.3 151.5,369.2 153,368 154.3,367 155.7,366 157,365 158.3,364 159.7,363.2 160.8,362.3 162.7,361.2 163.8,360.3 165.7,359.2 166.8,358.3 168.5,357.3 170,356.3 171.7,355.3 173.3,354.3 174.7,353.7 175.8,353 177,352.3 178.8,351.3 180.7,350.5 182.2,349.8 182.8,349.5 184.5,348.7 186,348 188,347.2 189.3,346.5 190.8,345.8 191.8,345.3 193.5,344.7 195.2,344 196.8,343.3 198.2,343 199.3,342.5 200.7,342.2 202,341.7 204,341.2 206,340.5 207.3,340.2 208.2,340 209.7,339.7 211.3,339.3 213,339 213.8,338.8 215.2,338.7 216.3,338.5 218.8,338.3 220.8,338.2 222.8,338 223.8,338 225.2,338 226.5,338 227.7,338 228.3,338 230.2,338.2 232.3,338.5 234.5,338.8 235.7,339 236.3,339 238.2,339.3 239.8,339.7 241.7,340.2 242.5,340.3 243.3,340.7 245.2,341.2 246.8,341.8 248.7,342.3 249.3,342.7 251,343.3 252.5,344 254.2,344.7 255.2,345 256.7,345.7 258,346.3 260,347.2 261.5,347.8 263.2,348.5 264.3,349 265.8,349.7 267.7,350.5 269.5,351.3 271.2,352 272.3,352.5 273.5,353.2 274.8,353.8 276.8,354.7 279,355.5 280.8,356.2 282.2,356.7 282.8,357 284.8,358 286.7,358.8 288.7,359.7 289.5,360 291,360.7" style="stroke: rgb(239, 68, 68); stroke-width: 7;"></polyline><polyline vector-effect="non-scaling-stroke" fill="none" points="292.5,361.3 294.8,362.3 296.5,363 298.2,363.7 299.7,364.3 301.3,365.2 303,365.8 304.2,366.3 306.2,367.2 308,368 309.7,368.7 311.3,369.3 313,370 314.7,370.7 315.7,371.2 317.2,372 319.2,372.8 320.8,373.5 322.3,374 324,374.8 326.7,376 329,377 330.7,377.7 331.7,378.2 332.8,378.7 334.7,379.5 336.3,380 338.3,380.8 339.5,381.2 341.2,381.8 342.3,382.2 344.2,382.8 345.3,383.2 346.5,383.5 347.7,383.7 349,384 350.3,384.3 351.8,384.7 353.7,384.8 355.5,385 356.8,385 357.8,384.8 359.8,384.5 361.5,384.2 363,384 364.2,383.8 365.3,383.5 367.5,382.8 369,382.2 370.8,381.5 371.7,381.2 372.5,380.8 374,380.2 375.5,379.3 377,378.5 378,377.8 379.2,377 380.5,376 381.3,375.3 382.2,374.8 383.5,374 384.8,373 386,372.2 386.5,371.8 387.7,371 389,369.8 390.5,368.5 391.3,367.7 392,367 393,366.2 394.2,365.2 395.5,364 396.3,363.2 397,362.5 398,361.7 399.3,360.5 400.8,359.2 402.2,358 403.3,357 404.5,356 405.3,355.2 406.5,353.8 407.5,352.7 408.8,351.2 409.7,350.3 410.5,349.5 411.7,348.3 412.8,347.2 414,345.8 415.3,344.5 416.7,343.2 418.2,341.8 419.2,340.7 420.2,339.5 421.3,338.2 422.7,336.5 424,334.8 425,333.5 425.7,332.7 426.3,331.8 427.3,330.7 428.8,329 430.3,327.3 431.5,326 432.7,324.3 433.8,322.7 435.2,320.5 435.8,319.5 436.5,318.3 437.5,317 438.5,315.7 439.5,314.3 440.2,313.5 441.3,311.8 442.5,310.3 443.8,308.5 444.7,307.3 445.8,305.7 446.7,304.5 447.5,303.3 448.2,302.5 449.2,301.3 450.2,300.3 451.3,299.3 452.7,298.2 454,297 455,296 455.7,295.5 456.3,295 457.8,294 459.3,292.8 461,291.7 461.8,291 463,290.5 464.3,289.8 465.7,289.2 467,288.5 468.3,287.8 469.8,287.3 470.8,286.8 471.7,286.7 473,286.2 474.5,285.8 475.8,285.3 476.8,285.2 477.7,285 479.7,284.7 481.3,284.3 483.2,284 484,284 485.3,284 487,284 488.7,284 490.2,284 491.2,284 492.2,284 492.8,284 494.8,284.2 496.7,284.5 498.7,284.8 499.3,285 500.8,285.3 502.2,285.7 503.7,286 505,286.3 506.5,286.7 507.8,287.2 509,287.5 510,288 511.5,288.7 512.8,289.3 514.2,290 515.5,290.7 516.5,291.3 518.2,292.2 519.3,292.8 520.5,293.5 521.8,294.5 523.2,295.5 524.5,296.5 525,297 525.8,297.7 526.8,298.5 528,299.5 529,300.5 530,301.5 531.2,302.8 532.3,304.2 533.5,305.5 534.5,306.5 535.5,307.5 536.5,308.7 537.3,309.7 538,310.5 538.8,311.7 539.7,312.8 540.8,314.5 541.5,315.5 542.2,316.5 542.7,317.5 543.3,318.5 544,319.8 544.8,321.2 545.8,322.7 547.8,324.8 549.3,326.5 550.7,327.8 551,328.2 552.7,329 554.5,330.2 556.3,331.2 558,332 559.5,332.5 561.2,333.2 562.7,333.5 564.3,333.8 565.8,334 566.8,334.2 567.8,334.3 569.7,334.3 571.2,334.2 572.5,334 573,334 574.5,333.7 576,333.3 577.5,332.8 578,332.7 579.2,332.3 580.3,332 581.5,331.7 582,331.5 583.2,331.3 584.3,331 585.5,330.7 586,330.5 587.2,330.2 588.3,329.8 589.5,329.5 590,329.3 591.2,329 592.5,328.7 594.3,328.2 595.5,327.8 596.5,327.5 597.8,327.2 599.2,326.8 600.5,326.5 601.8,326.2 603.2,325.8 604.5,325.5 605.2,325.3 606.7,325 608.8,324.3 610.8,323.8 612.2,323.5 613.5,323.2 614.8,322.8 616.2,322.3 617.8,322 619.5,321.7 621.2,321.3 622.8,321 625.2,320.3 627.5,319.8 628.8,319.3 630.3,319 631.8,318.5 634.2,318 635.8,317.5 638.3,317 640.7,316.3 643,315.8 644.7,315.3 646.7,315 648.7,314.5 651.2,314 652.8,313.5 655.8,312.8 658.2,312.2 660.5,311.7 662.7,311.2 665.3,310.5 668,309.8 669.7,309.3 671.7,309 674.5,308.3 677.7,307.5 680.2,306.8 681.8,306.3 684.5,305.8 687,305.2 689.7,304.5 692.2,303.8 694.8,303.2 698.2,302.5 700.2,302 702.8,301.3 704.7,300.8 707.3,300.2 709.2,299.8 712,299.2 714,298.7 717.2,297.8 719.5,297.2 721.8,296.5 723.8,296 725.8,295.5 729,294.8 731.3,294.2 733.5,293.5 735.5,292.8 737.5,292.2 740.3,291.2 742.5,290.2 744.7,289.3 746,288.8 748.2,288 750.2,287 752.5,285.8 754.3,284.7 756.5,283.3 758.2,282.2 759.8,281 761.3,279.7 763.2,278.2 764.5,276.8 765.7,275.8 767.5,273.8 769,272.2 770.5,270.3 771.3,269.2 772.2,268 773,266.8 774,265.5 775,264 776,262.7 776.7,261.7 778,260 779.5,257.8 780.8,256 781.5,254.8 782.2,254 783.3,252.3 784.7,250.8 785.8,249.3 787.2,247.8 788.3,246.2 789.5,244.7 790.5,243.2 791.5,241.8 792.5,240.3 793.5,239.3 794.7,238 796.5,235.7 797.8,233.7 799,231.8 800.2,230.5 801.3,229 802.5,227.5 803.3,226.3 804.7,224.8 806.5,222.7 808,220.8 809.2,219.3 810.5,217.5 811.8,215.5 813.2,213.7 814.3,212.2 815.5,210.7 817,208.7 818,207.5 819.7,205.7 820.8,204.2 822.3,202.2 824,200 825.8,197.7 827.5,195.7 828.3,194.5 829.7,193 830.8,191.5 833,188.8 834.5,186.7 836.2,184.5 837.2,183.2 838.8,181.3 840.5,179.5 842.2,177.7 843.7,175.8 845,174 846.8,171.7 848.2,169.8 850.2,167.3 851.5,165.7 853.3,163.3 854.7,161.7 856.2,159.7 857.7,158 859.7,155.5 861.3,153.3 862.7,151.5 864.5,149.2 866.3,146.8 868.5,144 869.5,142.5 871.2,140.3 872.5,138.7 874.2,136.7 875.7,135 877.5,132.8 879.3,130.5 880.8,128.5 882.2,126.7 883.8,124.7 885.5,122.7 887.2,120.7 888.7,119 890.3,116.8 891.8,115 893.3,113.2 895,111.2 896.7,109.2 898.3,106.8 899.7,105.2 901.2,103.2 902.8,101.2 904.7,98.7 906.3,96.5 907.8,94.3 909.2,92.7 910.3,91 912,89 913.5,87 915.2,85 916.5,83.3 918,81.7 919.3,80 920.3,78.7 922,76.5 923.7,74.3 925.2,72.7 926.7,70.8 928.3,69 930.2,66.5 931.2,65.2 932.7,63.2 933.8,61.7 935,60.2 935.5,59.3 937.2,57.3 938.8,55.3 940.5,53.3 941.5,51.8 942.5,50.3 943.5,48.8 944.5,47.5 945.5,46 946.5,44.7 947.3,43.5 948.2,42.5 949.7,40.5 950.8,39 952,37.5 953,36.2 953.8,34.8 954.7,33.5 955,32.8 955.8,31.8 956.7,30.8 957.5,29.7 958.3,28.5 959.8,26.3 961.2,24.5 962.3,22.7 962.7,21.8 963.7,20.3 964.5,19.2 965.3,18 965.7,17.5 966,16.8 966.3,16.2 966.7,15.5 967.7,14.3 968.7,13.2 970.2,11.3 971,10.2 971.8,9 972.2,8.5 972.8,7.3 973.7,6.2 974.5,5 974.8,4.5 975.2,4 975.3,3.5 976.3,2.2 977.2,0.8 978.7,-1.2 979.3,-2.3 980.7,-4.2 981.5,-5.7 982.5,-7 984.2,-9.7 985.8,-17 986,-26.3 984.7,-33.5 981.8,-36.5 974.7,-37.2 967.3,-37.7 961,-37.2 959.3,-36.7 957.2,-36 955.2,-35.3 953,-34.7 951.2,-34 949.2,-33.3 948.2,-32.8 947.5,-32.7 946.8,-32.3 945.2,-31.8 943.5,-31.3 942,-31 941.5,-30.8 940.5,-30.5 939.2,-30 937.8,-29.5 937,-29.2 936.5,-29 935.5,-28.7 934.5,-28.3 933.5,-28 932.5,-27.7 931.5,-27.3 930.5,-27 929.5,-26.7 928.5,-26.3 926.8,-25.7 925.7,-25.3 924.5,-25 923.5,-24.7 922,-24.2 920.2,-23.3 918.8,-22.8 917.8,-22.3 917.2,-22.2 915.7,-21.7 914.3,-21.3 912,-20.5 910.5,-20 908.8,-19.3 908.2,-19.2 906.8,-18.7 905.7,-18.3 903.8,-17.7 901.7,-17 899.5,-16.2 897.8,-15.7 896.2,-15 894.5,-14.3 892.8,-13.7 892,-13.3 890,-12.8 888,-12.2 885.5,-11.3 884,-10.8 882.7,-10.3 880.8,-9.7 879,-9 876.2,-8 874.3,-7.3 872.5,-6.7 870.3,-6 867.8,-5.2 865.3,-4.3 863.5,-3.7 862,-3.2 859.8,-2.3 857.5,-1.7 854.8,-0.8 852.8,-0.2 851,0.7 848.8,1.3 846.2,2.2 843.7,3 841.2,4 839.2,4.8 836.7,5.5 834.8,6 831.8,6.8 829.7,7.7 827,8.7 824.5,9.7 822,10.5 819.3,11.3 817.7,11.8 815,12.7 812.2,13.7 809.2,14.7 806.7,15.5 804.3,16.2 802.2,16.8 799.8,17.7 797.3,18.7 794.7,19.7 792.2,20.5 790.3,21 787.7,21.7 784.8,22.5 782.2,23.3 779.8,24.2 777.7,25 774.8,25.8 772.2,26.7 769.3,27.5 766.5,28.5 764.2,29.3 761.8,30 759.7,30.7 756.8,31.5 754,32.5 751.2,33.5 748.3,34.3 745.5,35.2 743.2,35.8 740.8,36.7 738.5,37.5 735.7,38.3 732.7,39.2 729.7,40 727.2,40.8 724.7,41.7 721.8,42.5 719,43.3 716.3,44.2 714,45 711,46 708.7,46.7 706.2,47.3 703.7,48 700.7,49 697.8,50 695,51 692.5,51.7 690,52.3 687.3,53 684.2,54 680.8,55 678.3,55.7 676.3,56.2 673.7,56.8 670.8,57.7 667.3,58.7 664.8,59.5 661.8,60.3 658.8,61.2 655.7,62 653.2,62.8 650.8,63.7 648.3,64.3 645.2,65.2 641.8,66 639.3,66.8 636.8,67.5 634.5,68.2 631.3,69 628.3,70 625.8,70.7 623.3,71.3 620.7,72 617.5,73 614.5,73.8 612,74.5 610.2,75 607.7,75.5 604.7,76.2 601.7,76.8 599.2,77.7 596.7,78.3 593.5,79.2 590.5,80 588,80.7 585.5,81.3 583,82 580.7,82.7 578.2,83.3 575.7,84 573.2,84.7 570.7,85.3 568.2,86 565.5,86.7 563,87.3 560.3,88 557.7,88.7 555,89.3 552.5,90 550.2,90.7 547.7,91.3 545.8,91.8 542.8,92.5 539.8,93.2 536.3,94 533.8,94.7 531.5,95.3 528.8,96 525.7,96.8 523.2,97.5 520.7,98.2 518.8,98.8 516.2,99.5 513.7,100.2 510.5,101 508,101.7 505.5,102.3 502.8,103 500.2,103.7 497.5,104.3 495.5,104.8 492.3,105.5 489.8,106 486.7,106.7 484,107.3 481.3,108 478.7,108.5 476.2,109.2 473.7,109.8 471.2,110.5 468.5,111.2 465.8,111.8 463.2,112.5 460.5,113.2 457.8,113.8 455.2,114.5 453.2,115 451.2,115.3 448.5,115.8 445.3,116.5 441.5,117.3 439,118 436.3,118.5 433.7,119.2 431,119.8 428.3,120.5 425.7,121.2 423,121.7 421,122.2 418.3,122.5 415.7,123 412.3,123.7 409.7,124.3 407,125 404.3,125.5 401.7,126.2 399,126.7 396.5,127.3 393.8,128 391.2,128.7 389.2,129.2 386.5,129.5 383.8,130 380.5,130.5 378.5,131 375.7,131.7 373.3,132.2 370.3,132.8 367.7,133.3 365,134 362.5,134.5 359.8,135.2 357.2,135.7 355.2,136.2 352.7,136.7 350.3,137.2 347.2,137.8 344.7,138.3 342,139 340.2,139.3 337.5,139.8 334.8,140.2 331.5,140.8 328.8,141.3 326.3,142 323.7,142.5 321.8,143 319.8,143.3 317.8,143.7 315,144 311.7,144.7 309,145.2 306.5,145.8 304.5,146.2 302.7,146.7 300,147 297.5,147.5 294.3,148 292.5,148.3 289.8,148.8 287,149.3 284.3,150 282.3,150.3 281.2,150.7 278.5,151 276,151.5 273.5,151.8 271.2,152.3 268.2,152.8 265,153.5 263.2,153.8 260.5,154.2 258,154.5 255,155 253.3,155.5 251.7,155.8 249,156.3 246.5,156.7 244,157 241.5,157.3 239,157.7 235.8,158.3 234,158.7 232.2,159.2 230.5,159.3 228,159.7 225.5,160 223.5,160.3 221.2,160.8 218.2,161.3 215,162 213.2,162.3 210.8,162.7 208.7,163 206.3,163.3 204,163.8 201.7,164.2 198.7,164.7 196.8,165 195,165.3 192.7,165.8 190.3,166.2 188,166.5 185.7,166.8 183.3,167.2 181,167.5 179.5,167.7 177,168 173.8,168.7 171.2,169.2 169.5,169.5 167.2,169.8 164.8,170.2 162.5,170.5 160.3,170.7 157.7,171.2 155,171.7 153.5,172 151.2,172.3 148.8,172.7 146.5,173 145.5,173.2 143.2,173.5 140.8,173.8 137.5,174.3 135.5,174.7 133.3,175 131,175.3 128.7,175.7 126.5,176 124.5,176.3 122.5,176.7 120.5,177 118.2,177.3 115.7,177.7 113.2,178.2 110.8,178.5 108.7,178.8 106.3,179.2 104.2,179.5 102,179.8 100,180.2 97.8,180.5 95.5,180.8 93.2,181.2 91,181.5 89,181.8 86.8,182.2 84.5,182.5 82.2,182.8 80,183.2 78.3,183.3 75.5,183.7 72.7,184 70.5,184.3 68.7,184.7 66.7,185 64.7,185.3 62.3,185.7 60.2,186 57.8,186.3 56.2,186.5 53.5,186.7 51,187 49,187.3 46.8,187.7 44.7,188 41.5,188.5 39.5,188.8 37.3,189.2 35.7,189.3 33,189.7 30.5,189.8 28.5,190.2 26.3,190.5 24.2,190.8 22,191.2 20.5,191.3 18,191.7 15.3,191.8 13.2,192.2 11,192.5 9,192.8 7,193.2 5.7,193.3 3.2,193.7 0.7,194 -1.5,194.3 -3.7,194.7 -5.8,194.8 -8,195.2 -9.5,195.3 -11.8,195.7 -14.3,196 -17.3,196.5 -19.5,196.8 -21.5,197 -22.5,197.2 -24,197.3 -26.5,197.7 -29,198 -31,198.3 -33.2,198.7 -35.3,198.8 -37.5,199.2 -38.5,199.3 -40.8,199.7 -43.2,199.8 -45.5,200.2 -46.5,200.3 -48.8,200.7 -51.2,200.8 -53.5,201.2 -54.5,201.3 -55.8,201.5 -58,201.7 -60.2,202 -62,202.3 -63.5,202.5 -65.7,202.7 -67.8,203 -69.5,203.3 -70.5,203.5 -71.8,203.5 -74,203.8 -76.2,204.2 -77.8,204.5 -78.7,204.5 -80.7,204.7 -82.7,205 -84.7,205.3 -85.5,205.5 -86.8,205.5 -89,205.8 -91,206.2 -92.7,206.5 -93.3,206.5 -95.3,206.8 -97.2,207.2 -99.2,207.5 -99.8,207.7 -100.7,207.8 -101.7,208 -102.7,208 -104.8,208.3 -106.7,208.7 -108.5,209 -109.2,209 -110.8,209.2 -112.5,209.5 -114.2,209.8 -114.8,210 -115.5,210 -116,210.2 -118,210.5 -120,210.8 -122,211 -122.5,211.2 -123,211.3 -123.5,211.5 -124.5,211.5 -126.5,211.7 -128.5,212 -130,212.3 -130.5,212.5 -131,212.5 -131.5,212.5 -133,212.8 -134.5,213.2 -136,213.5 -136.5,213.5 -137,213.5 -137.5,213.5 -138,213.7 -138.8,213.8 -140.7,214.2 -142.5,214.3 -144.2,214.7 -144.8,214.8 -146.7,215.2 -148.7,215.3 -155,216.3 -160,217.3 -167,223.7 -169.7,229.3 -172.5,234.8 -172,236.5 -171.2,238.5 -170,240.7 -169,242 -168,243 -167,244 -166,245 -163.2,248.2 -160.5,251.3 -158.2,254 -157.5,254.7 -156.8,255.3 -156.2,256.2 -155.7,256.7 -155.2,257.2 -154.8,257.5 -154,258.7 -152.7,260.2 -151.3,261.7 -150.5,262.5 -149.7,263.7 -148.7,265 -147.5,266.5 -146.5,267.5 -145.5,268.5 -144.8,269.3 -144.2,270.2 -143.7,270.8 -143,271.5 -142.5,272 -142,272.5 -140.8,274 -139.5,275.7 -138.3,277.5 -137.8,278.3 -137,279.7 -135.8,281 -134.5,282.5 -133.5,283.7 -132.7,284.7 -132,285.5 -131,286.7 -129.8,288.2 -128.5,289.8 -127.7,290.8 -127,291.5 -125.7,293.3 -124.2,295.3 -122.5,297.5 -121.5,298.7 -120.7,299.7 -120,300.5 -119.5,301 -118.3,302.7 -117,304.5 -115.5,306.5 -114.7,307.3 -114.2,308.2 -113.8,308.8 -113,310.2 -112,311.3 -111,312.5 -110.5,313 -110.2,313.5 -109.2,315 -108.2,316.7 -107,318.3 -106,319.7 -105.2,320.8 -104.3,322 -104,322.5 -103,323.7 -102.2,324.8 -101.3,326 -101,326.5 -100,327.7" style="stroke: rgb(59, 130, 246); stroke-width: 7;"></polyline><polyline vector-effect="non-scaling-stroke" fill="none" points="-99.2,328.8 -98.3,330 -98,330.5 -97,331.8 -96.2,333.2 -95.3,334.5 -95,335 -94.2,336 -93.3,337 -92.2,338.5 -91.5,339.7 -90.8,340.8 -90,342.2 -89,343.3 -88,344.5 -87.7,345 -87.3,345.5 -86.5,346.8 -85.5,348.3 -84,350.5 -83.2,351.8 -82.2,353.2 -81.7,353.8 -81,354.5 -80.5,355 -80,356 -79.2,357.5 -78.3,359 -77,360.7 -76,361.8 -75.2,363 -74.8,363.5 -74.5,364 -73.8,364.8 -73,366.3 -72.2,367.8 -71.2,369.5 -70.3,370.5 -69.7,371.5 -68.8,372.7 -68,373.8 -67.2,375 -66.8,375.5 -66.5,376 -66.2,376.5 -65.3,377.8 -64.5,379.2 -63.7,380.5 -63.3,381 -63.2,381.5 -62.3,382.8 -61.5,384.2 -60.7,385.5 -60.3,386 -60.2,386.5 -59.8,387.3 -59.5,388.2 -59.2,389 -58.8,389.5 -58.5,390.5 -58.2,391.5 -58,392.5 -57.8,393 -57.7,393.5 -57.5,394 -57.5,394.5 -57.5,395.2 -57.5,396 -57.5,397 -57.5,398 -57.5,399 -57.5,400 -57.5,401 -57.5,401.8 -57.5,402.5 -57.5,403 -57.5,403.5 -57.7,404 -57.8,404.5 -58.2,405.5 -58.3,406.5 -58.7,407.5 -58.8,408 -59.3,408.8 -59.7,409.7 -60,410.5 -60.2,411 -60.7,411.7 -61.5,412.5 -62.2,413.3 -62.8,414.2 -63.5,414.8 -64.3,415.5 -64.8,416 -65.2,416.3 -65.5,416.7 -66.5,417.2 -67.5,417.8 -68.5,418.3 -69,418.7 -69.5,418.8 -70,419.2 -70.5,419.3 -71.5,419.7 -72.5,420 -73.5,420.3 -74,420.5 -74.5,420.5 -76,420.8 -77.5,421.2 -79,421.5 -79.5,421.5 -80,421.5 -80.5,421.5 -81.5,421.5 -82.7,421.5 -84,421.5 -85,421.5 -86,421.5 -87.3,421.5 -88.7,421.5 -90,421.5 -91.3,421.5 -92.7,421.5 -94,421.5 -95.3,421.5 -96.7,421.5 -98.2,421.5 -99.5,421.5 -100.8,421.5 -102.2,421.5 -103.2,421.5 -104.2,421.5 -104.8,421.5 -106.8,421.3 -108.8,421.2 -111.2,421 -112.5,421 -114.2,421 -115.5,420.8 -117.2,420.7 -118.5,420.5 -120.2,420.5 -121.5,420.5 -123.2,420.5 -124.5,420.5 -125.8,420.5 -127,420.5 -128.2,420.3 -129.2,420.2 -129.8,420 -131.5,419.8 -133.2,419.5 -134.8,419.2 -135.5,419 -136.8,418.8 -138.2,418.5 -139.5,418.2 -140,417.8 -140.7,417.7 -141.7,417.2 -142.7,416.8 -143.8,416.2 -144.7,415.7 -145.5,415.2 -146,414.8 -147,414.2 -148,413.5 -149,412.8 -149.5,412.5 -150.2,411.8 -151,411 -152,410 -152.7,409.2 -153.3,408.3 -154,407.5 -154.7,406.7 -155.2,406 -155.5,405.3 -156.2,404.3 -156.7,403.3 -157.3,402.2 -157.7,401.3 -158.3,400.2 -158.7,399.3 -159.2,398.5 -159.3,398 -160,396.7 -160.5,395.3 -161,394 -161.2,393.3 -161.5,392.2 -162.2,390.7 -162.7,389.3 -163,388.5 -163.2,388 -163.3,387.5 -164,386 -164.5,384.3 -165,382.7 -165.2,382 -165.5,381 -166.2,379.7 -166.7,378.3 -167,377.5 -167.3,376.3 -167.8,374.8 -168.5,373.3 -168.8,372.5 -169.5,371.3 -170,370.2 -170.7,369 -171.5,367.5 -172.3,366 -173.2,364.5 -173.3,364 -173.7,363.5 -174.7,362 -175.7,360.5 -176.7,359 -177,358.3 -177.3,357.7 -178.2,356.2 -179,354.8 -180,353.5 -181,352.3 -181.8,351.2 -182.8,349.8 -183.5,349 -184.5,348 -185.3,347.2 -186,346.5 -187,345.3 -188.7,343.7 -190.2,342 -191.2,341 -191.5,340.5 -192.2,339.8 -193,339 -194,338 -195,337 -196,336 -197,335 -198,334 -199,333 -199.8,332.3 -200.7,331.7 -201.3,331 -202.2,330 -202.8,329.2 -203.5,328.5 -204,328 -204.7,327.2 -206.2,325.5 -207.7,323.8 -209,322.5 -209.7,322 -210.2,321.5 -210.8,320.8 -211.5,320 -212.5,319.2 -213.5,318.3 -214.5,317.5 -216,316.3 -217.3,315.3 -218.5,314.7 -219,314.3 -220.3,313.5 -221.7,312.7 -223,312 -223.5,311.8 -224,311.7 -225.2,311.2 -226.3,310.7 -228.7,309.7 -230.3,309 -232,308.5 -232.5,308.5 -233.5,308.3 -234.5,308.2 -236.5,307.7 -238,307.3 -239.5,307 -240,307 -240.5,307 -241,307 -242.5,306.8 -244.2,306.7 -246,306.5 -247,306.5 -247.8,306.3 -248.8,306.2 -249.7,306 -250.5,306 -251,306 -251.5,306 -252,306 -253.5,305.8 -255.2,305.7 -257.2,305.5 -258.5,305.3 -260.2,305.2 -261.7,305 -263.3,305 -265.8,305.2 -268.2,305.3 -270.2,305.7 -272.3,306.3 -274.3,307.2 -276.8,308.3 -277.8,309 -279,309.8 -280.7,312.2 -282.3,314.5 -284,318 -284.5,319.5 -283.5,325.8 -282.2,330.7 -280.7,335.7 -280,336.3 -278.8,338 -277.7,339.7 -276.7,341.2 -276.3,341.8 -275.5,342.8 -275,343.7 -274.2,344.7 -273.7,345.7 -272.5,347.3 -271.5,348.8 -270.3,350.5 -269.7,351.5 -269.2,352.5 -268.5,353.5 -267.8,354.5 -267.2,355.5 -266.8,356 -266.3,356.8 -265.2,358.3 -264.2,359.8 -263.3,361 -263,361.5 -262.7,362 -262.2,362.8 -261.7,363.7 -260.3,365.7 -259.3,367.3 -258.3,369 -258,369.5 -257.5,370 -256.8,371 -256.2,372.3 -255.2,374.2 -254.3,375.7 -253.2,377.3 -252.5,378.5 -251.5,380.2 -250.8,381.3 -250,382.5 -249.2,383.7 -248.3,384.8 -247.5,386.2 -247.2,386.8 -246.3,388.5 -245.5,390.2 -244.5,391.8 -243.5,393.5 -242.5,395 -241.2,397.2 -240.3,398.5 -239.2,400.3 -238.3,401.7 -237.3,403.3 -236.7,404.7 -235.7,406.3 -234.8,407.7 -233.7,409.5 -232.8,410.8 -231.7,412.7 -230.8,414 -230,415.3 -228.8,417.2 -227.7,418.8 -226.2,421.2 -225.3,422.5 -224.2,424.5 -223.3,425.8 -222.2,427.7 -221.3,429 -220.5,430.3 -219.7,431.8 -218.3,434 -217,436.3 -216,437.8 -215.3,438.8 -214.7,439.8 -213.3,442 -211.8,444.3 -210.3,446.7 -209.5,448 -208.5,449.8 -207.5,451.5 -206.3,453.5 -205.5,455 -204.2,457.3 -202.8,459.2 -201.7,460.7 -200.7,462.2 -199.8,463.8 -198.8,465.7 -198,467.2 -197,469 -196,471 -195,472.8 -194,474.7 -193.2,476.2 -192.7,477.5 -192.2,478.8 -191.7,480.2 -190.7,482.3 -189.8,484.2 -189.2,485.8 -188.8,486.7 -188.3,488.3 -187.8,490.2 -187.2,492.7 -186.8,494.3 -186.2,496.5 -185.8,498 -185.5,499.5 -185.3,500.5 -185.2,502 -185,503.8 -185,505.7 -185,507.3 -185,509 -185,511 -185,512.8 -185,514.8 -185,516.3 -185.2,518.2 -185.3,519.8 -185.5,521.8 -185.7,523.2 -185.8,524.2 -186.3,526 -186.7,527.8 -187.2,529.7 -187.3,530.5 -187.8,532.2 -188.2,533.8 -188.7,535.5 -188.8,536.3 -189.5,538.3 -190,540.3 -190.7,542.3 -191.2,543.7 -191.7,545 -192.3,546.8 -192.7,548.2 -193.3,549.8 -193.8,551.5 -194.5,553.2 -195,554.3 -195.7,556 -196.3,557.7 -196.8,559.3 -197.5,561 -198.2,562.5 -199,564.7 -199.5,566 -200.2,567.8 -200.7,569.2 -201.3,570.8 -201.8,572.2 -202.3,573.3 -202.7,574.2 -203.3,575.3 -204.3,577 -205.5,578.8 -206.3,580.7 -207,582 -207.5,583 -208,583.7 -209,585 -210,586.3 -211,587.7 -212,589 -213,590.3 -214.2,591.5 -215,592.2 -216,593 -216.8,594 -217.5,594.8 -218.2,595.5 -219.8,596.7 -221.7,598 -223.3,599.2 -224.3,599.8 -225.2,600.3 -226,601 -227.3,601.8 -228.7,602.7 -230.2,603.3 -231.5,604 -232.8,604.7 -234.5,605.7 -235.5,606.2 -237,606.8 -238.3,607.5 -239.7,608.2 -241,608.8 -242.3,609.5 -243.8,610.2 -245.5,611 -247,611.7 -248.3,612.3 -249.7,613 -251,613.7 -252.3,614.3 -253.8,615 -255.2,615.7 -256.5,616.3 -257.8,617 -259.2,617.7 -260.7,618.3 -262,619 -263.3,619.7 -264.7,620.3 -266,621 -267.5,621.7 -268.8,622.3 -270.5,623 -272,623.7 -273.8,624.5 -275.2,625.2 -276.5,625.7 -277.7,626.2 -279,626.8 -280.3,627.5 -281.7,628.2 -282.3,628.3 -284,629 -285.5,629.7 -287.2,630.3 -288.3,630.8 -289.5,631.2 -291.5,632 -293,632.5 -294.7,633 -295.3,633.2 -296.2,633.3 -297.7,633.7 -299.3,634 -300.8,634.3 -302.5,634.7 -304,634.8 -305.7,635 -306.3,635.2 -307.5,635.3 -308.7,635.5 -310.2,635.5 -311.5,635.5 -313,635.5 -314.5,635.5 -316,635.5 -317.8,635.5 -319.3,635.5 -320.7,635.5 -321.3,635.5 -323.2,635.3 -325,635.2 -327.3,634.8 -328.5,634.7 -329.7,634.5 -330.3,634.5 -332.2,634.3 -333.8,634.2 -335.7,633.8 -336.3,633.7 -338.2,633.3 -340,633 -341.8,632.7 -342.7,632.5 -343.8,632.3 -345.8,631.8 -347.7,631.3 -349.2,631 -350.7,630.7 -352.3,630.3 -353.8,629.8 -354.7,629.7 -355.8,629.3 -357.2,629 -358.8,628.5 -360.2,628 -362,627.5 -363.3,627.2 -365.2,626.7 -366.3,626.3 -368.2,625.7 -370,625 -372,624.3 -373.3,623.8 -374.2,623.7 -374.8,623.3 -376.3,622.8 -377.7,622.2 -380,621.2 -381.5,620.5 -383,619.8 -384,619.3 -385.5,618.7 -387.2,618 -388.3,617.5 -389.8,616.7 -391.2,616 -393,615.2 -394,614.7 -395,614 -396.2,613.3 -397.3,612.7 -399.3,611.7 -400.7,610.8 -402.5,609.8 -403.5,609.2 -405,608.2 -406.2,607.3 -407.8,606.2 -409,605.3 -410.2,604.5 -411,603.8 -412,603 -413,602 -414.3,600.8 -415.5,599.8 -416.7,598.8 -417.5,598 -418.7,596.7 -420.2,595.2 -421.5,593.8 -422.7,592.8 -423.5,592 -424.5,590.8 -425.3,589.8 -426.3,588.5 -427.3,587.2 -428.3,585.8 -429.3,584.5 -430.3,583.2 -431.3,581.8 -432.3,580.5 -433.2,579.3 -434.3,577.7 -435.3,576.2 -436.3,574.8 -437.3,573.5 -438.3,572.2 -439.3,570.8 -440.3,569.5 -441.2,568.3 -442.3,566.7 -443.3,565.2 -444.3,563.8 -445.3,562.3 -446.2,561.2 -447.3,559.5 -448.3,558.2 -449.3,556.8 -450.5,555.2 -451.7,553.8 -453.2,551.8 -454.2,550.7 -455.3,548.8 -456.3,547.5 -457.3,546.2 -458.3,544.8 -459.5,543.3 -460.8,541.5 -462,540.2 -463,539 -464.2,537.7 -465.3,536.2 -466.3,534.8 -467.3,533.3 -468.2,532.2 -469.7,530.2 -470.8,528.8 -472.3,526.8 -473.2,525.7 -474.3,523.8 -475.3,522.5 -477,520.5 -478.3,519.2 -479.7,517.7 -480.3,516.8 -481.5,515.2 -482.5,513.8 -484,511.8 -485,510.7 -486.3,508.8 -487.3,507.5 -488.5,505.8 -489.5,504.8 -491.7,502.3 -493.8,499.8 -495.8,497.3 -496.5,496.3 -497.7,495 -498.8,493.5 -500.7,491.3 -502,489.5 -503.3,487.8 -504.5,486.2 -505.7,484.8 -506.8,483.5 -508.3,482 -509.7,480.5 -511,479 -511.5,478.3 -512.5,477 -513.5,475.7 -515,473.8 -516.2,472.5 -517.5,471 -518.3,470.2 -519.3,468.8 -520.3,467.5 -521.7,465.7 -522.7,464.5 -523.5,463.5 -524.3,462.5 -525.5,461 -526.8,459.3 -527.8,458.2 -528.5,457.5 -529.3,456.5 -530.3,455.3 -531.5,454 -532.5,453 -533.7,451.8 -534.7,450.8 -535.7,449.8 -536.5,449 -537.5,448 -538.5,447 -539.5,446 -540.8,444.7 -542.2,443.3 -544,441.8 -545.3,440.8 -546.5,440 -547,439.7 -548.2,438.8 -549.7,438 -551.2,437 -552.3,436.5 -553.2,436 -554,435.7 -555.3,435 -557.3,434.3 -559.3,433.7 -560.5,433.5 -561,433.5 -562.3,433.2 -563.7,432.8 -565,432.5 -565.5,432.5 -567.3,432.5 -569.2,432.5 -571,432.7 -572.7,433 -574.3,433.3 -576,433.5 -576.5,433.5 -577,433.7 -578.7,434.2 -580.3,434.7 -582,435.2 -582.5,435.3 -583.2,435.5 -584.5,435.8 -585.8,436.2 -587,436.7 -588.3,437.2 -589.7,437.7 -591.2,438.2 -591.8,438.3 -593.3,439 -594.7,439.5 -596,440.2 -596.7,440.3 -597.8,440.8 -599.2,441.2 -601.2,442 -602.7,442.5 -604.5,443.3 -605.5,443.8 -607.3,444.7 -608.7,445.3 -610.2,445.8 -611.5,446.5 -613,447.2 -614.3,447.8 -615.7,448.3 -617.2,449 -618.8,449.7 -620.5,450.5 -622,451.2 -623.3,452 -625.2,452.8 -626.8,453.7 -628.7,454.5 -629.5,455 -631.2,455.7 -632.8,456.3 -634.5,457 -636.3,458 -638.2,459 -640,459.8 -640.8,460.2 -642.5,460.8 -644.7,462 -647,463.2 -648.3,464 -650,464.7 -651.7,465.3 -653.8,466.2 -655.2,466.8 -657.3,468 -659.2,469 -661,469.8 -662.5,470.3 -664.3,471 -666.5,472 -668.8,473.2 -670.7,474.2 -672.5,475 -673.7,475.5 -675.5,476.2 -677.8,477.3 -680.2,478.5 -682,479.5 -683.5,480.2 -685.2,480.8 -687.2,481.7 -688.7,482.3 -690.7,483.3 -692.7,484.3 -694.7,485.3 -696.5,486.2 -698.3,487 -700.5,488 -702.8,489.2 -704.8,490.2 -706.8,491 -708.2,491.5 -710.5,492.5 -712.5,493.5 -714.5,494.5 -716.3,495.3 -718,496.2 -720,497.2 -721.2,497.8 -723.5,498.8 -725.5,499.7 -727.5,500.5 -729.3,501.3 -731.2,502.2 -732.8,503 -734.7,504 -736.5,505 -738.5,505.8 -740.5,506.7 -742.3,507.5 -744.2,508.5 -745.5,509.2 -747.3,510 -749,510.7 -750.8,511.5 -752.3,512.2 -754.5,513.2 -756.2,514 -758.2,514.8 -760.2,515.8 -761.8,516.7 -763.2,517.5 -764.5,518.2 -766.2,518.8 -768.2,519.7 -769.5,520.3 -771.3,521.3 -772.7,522 -774.2,522.7 -774.8,523 -776,523.5 -777.5,524.2 -779.3,524.8 -780.7,525.5 -781.8,526 -782.7,526.5 -783.8,527 -784.7,527.5 -785.5,527.8 -786.7,528.5 -787.8,529 -789,529.7 -789.5,529.8 -790,530 -790.3,530.2 -791.2,530.5 -792.3,531 -793.7,531.5 -795,532.2 -796.3,532.8 -797.7,533.3 -798.7,533.7 -800.3,534.5 -802.2,535.5 -804,536.5 -804.8,536.8 -806.5,537.7 -808,538.3 -810,539.5 -811,540.2 -812,540.8 -812.8,541.3 -814,542 -815,542.8 -816,543.5 -817.2,544.3 -818.3,545.2 -819.2,545.8 -819.3,546.2 -819.5,546.5 -819.7,546.8 -819.8,547.2 -821.8,553 -821.8,561.7 -819.2,572.7 -814.5,578 -811.7,580.7 -811.3,580.8 -810,582 -808.5,583 -806.3,584.7 -805.2,585.5 -804,586.3 -802.7,587.3 -801.3,588.3 -800,589.3 -799.5,589.7 -798.3,590.5 -797.2,591.3 -796,592.2 -795.5,592.5 -795,592.8 -793.5,593.8 -792,594.8 -790.5,596 -790,596.3 -789.5,596.7 -788.8,597.2 -788,598 -786,599.5 -784.2,600.8 -782.5,601.8 -782,602.2 -781.5,602.5 -780.8,603.2 -779.2,604.5 -777.5,605.7 -775.8,606.8 -775.2,607.2 -774.5,607.7 -773.8,608.2 -772.2,609.5 -770.2,611 -768.3,612.3 -767.5,613 -766.8,613.7 -765.2,615 -763.5,616.3 -762,617.5 -760.8,618.5 -759.5,619.5 -757.7,620.8 -756.5,621.7 -755.3,622.5 -754,623.5 -752.7,624.3 -751.5,625.2 -751,625.5 -750.2,626.2 -748.7,627.3 -747,628.5 -745.7,629.5 -744.3,630.5 -743.2,631.5 -741.8,632.5 -740.5,633.5 -739.2,634.5 -737.8,635.5 -736.5,636.5 -735.2,637.5 -733.5,638.8 -732.3,639.7 -731.2,640.5 -729.7,641.5 -728.5,642.5 -726.7,643.8 -725.7,644.7 -724.3,645.5 -723.7,645.8 -722.3,646.7 -721,647.7 -719.7,648.8 -718.2,650.2 -716.7,651.3 -715.2,652.5 -714.8,652.8" style="stroke: rgb(251, 191, 36); stroke-width: 7;"></polyline></svg>