<svg xmlns="http://www.w3.org/2000/svg" xmlns:xlink="http://www.w3.org/1999/xlink" preserveAspectRatio="xMidYMid meet" height="100%" viewBox="-900 -150 2000 1300">
    <polygon vector-effect="non-scaling-stroke" fill="none" style="stroke: #374151; stroke-width:6" points="  -714,660 -709,664 -704,667 -699,671 -694,675 -688,679 -683,683 -677,687 -671,692 -665,696 -659,700 -654,705 -647,709 -642,713 -635,718 -630,722 -623,727 -617,731 -611,736 -605,741 -599,745 -593,750 -586,755 -579,760 -573,765 -566,769 -559,774 -553,779 -546,784 -539,789 -533,794 -526,799 -519,804 -513,809 -506,814 -499,819 -492,824 -486,829 -478,834 -472,839 -465,844 -458,849 -451,854 -444,859 -437,865 -430,870 -423,875 -416,880 -409,885 -403,891 -395,896 -388,902 -381,907 -374,912 -367,918 -360,923 -353,929 -346,934 -338,939 -331,945 -324,951 -317,956 -310,961 -303,967 -296,972 -288,978 -282,983 -275,988 -269,993 -263,997 -257,1001 -253,1005 -248,1009 -243,1012 -239,1015 -236,1017 -232,1020 -229,1022 -224,1024 -219,1026 -214,1028 -207,1029 -201,1028 -196,1028 -191,1026 -188,1025 -185,1023 -183,1021 -181,1020 -180,1018 -178,1016 -177,1014 -176,1011 -174,1008 -173,1003 -172,998 -172,994 -173,989 -174,983 -175,978 -176,975 -178,970 -179,966 -181,962 -183,958 -185,954 -187,950 -189,946 -191,942 -193,938 -196,933 -198,929 -201,924 -203,919 -206,914 -209,909 -211,904 -213,898 -216,892 -218,886 -220,880 -222,874 -223,867 -224,861 -225,854 -226,847 -226,841 -226,834 -225,827 -224,820 -223,813 -222,806 -220,799 -217,792 -215,786 -211,779 -208,772 -204,766 -199,759 -195,753 -190,748 -184,742 -179,737 -173,731 -167,727 -160,722 -153,718 -146,713 -139,710 -133,706 -125,702 -118,698 -111,695 -104,691 -97,687 -90,683 -83,679 -76,674 -70,670 -64,665 -57,659 -51,654 -44,648 -39,642 -33,636 -27,629 -22,622 -18,615 -13,608 -9,601 -5,593 -1,586 3,579 8,571 13,565 19,558 24,552 31,546 37,540 44,535 51,530 58,525 65,520 71,515 78,510 83,504 88,499 93,493 98,487 101,481 105,475 108,468 111,461 114,454 116,447 118,440 120,433 122,426 124,419 126,413 129,406 132,400 136,393 140,387 144,381 149,376 153,371 157,367 162,362 168,359 173,355 178,353 184,350 189,348 195,346 201,345 207,344 213,343 219,343 225,343 231,344 237,344 243,346 249,347 255,349 261,352 267,355 273,358 279,361 285,364 291,366   291,366 297,369 304,372 311,374 317,376 323,378 329,379 335,380 341,380 347,380 352,380 358,379 363,379 368,377 372,376 378,374 382,372 387,369 392,366 396,363 400,359 405,355 409,351 412,347 416,343 420,338 424,333 428,328 432,323 435,319 439,315 443,311 446,307 449,304 453,302 457,299 460,297 463,295 467,294 471,293 474,292 478,291 482,291 486,290 489,291 493,291 497,291 501,292 505,293 509,295 512,296 516,298 520,300 524,302 527,305 531,307 534,310 538,313 543,317 547,319 552,322 556,324 560,326 565,327 570,329 575,330 580,330 585,331 590,331 596,331 601,331 607,331 612,330 618,329 624,328 630,327 635,326 641,324 647,322 653,320 659,319 666,317 672,315 679,313 685,311 692,309 699,306 705,304 712,301 719,298 726,295 732,292 739,288 745,285 751,281 758,276 764,271 770,267 775,262 781,256 787,251 792,246 797,239 802,234 808,227 813,221 818,215 823,209 828,202 834,196 839,189 844,183 849,176 854,170 860,163 865,157 870,151 875,144 880,138 886,131 891,124 896,118 901,111 907,104 913,97 918,91 923,84 929,77 934,71 939,65 944,58 948,53 953,48 957,43 960,39 964,34 967,31 970,27 972,23 975,20 978,16 980,11 983,7 985,3 987,-4 987,-8 987,-14 986,-19 984,-23 983,-26 980,-29 979,-30 977,-32 975,-33 970,-36 967,-37 963,-38 957,-39 953,-39 949,-38 944,-38 940,-37 935,-35 930,-34 926,-33 923,-31 919,-30 915,-29 911,-27 906,-26 902,-24 898,-22 894,-21 889,-19 884,-17 879,-15 874,-13 869,-11 863,-9 857,-7 852,-5 846,-3 840,-1 832,2 825,4 819,6 813,8 807,10 800,13 794,15 787,17 780,19 774,21 767,23 760,25 754,27 746,30 740,32 733,34 725,36 718,39 711,41 704,43 696,45 689,48 681,50 674,53 666,55 659,57 651,59 643,62 636,64 628,66 620,68 612,70 604,73 596,75 589,77 581,79 573,82 565,84 557,86 549,88 540,91 532,93 524,95 515,97 507,99 499,101 490,103 481,105 473,107 465,109 457,111 448,112 439,114 431,116 422,118 413,120 405,122 396,124 387,125 379,127 370,129 361,131 352,132 344,134 335,135 326,137 317,139 308,140 299,142 290,144 280,145 272,147 262,148 253,150 244,152 235,153 226,154 218,156 208,157 199,159 190,160 182,162 172,163 162,164 153,166 144,167 135,169 125,170 117,171 107,173 98,174 89,176 79,177 70,178 61,180 51,181 41,182 32,183 23,185 14,186 5,187 -9,189 -19,190 -28,191 -37,193 -47,194 -55,195 -63,196 -72,197 -79,198 -86,198 -93,199 -99,200 -104,201 -110,201 -115,202 -119,203 -124,203 -128,204 -132,204 -137,206 -143,207 -148,209 -152,211 -155,214 -159,217 -163,222 -164,225 -165,227 -166,230 -167,232 -167,235 -167,239 -166,245 -165,249 -164,253 -162,257 -160,262 -157,266 -154,270 -151,273 -149,276 -146,279 -142,283 -139,286 -136,289 -133,293 -129,296 -126,299 -122,303 -118,306 -115,310 -111,313 -107,317 -102,321 -98,325   -98,325 -94,329 -90,333 -86,338 -82,342 -78,347 -75,351 -72,356 -70,360 -68,363 -66,367 -64,372 -62,378 -61,383 -61,389 -61,395 -62,399 -63,402 -64,405 -65,407 -66,410 -68,412 -69,414 -73,417 -77,421 -81,423 -86,425 -91,427 -96,427 -101,428 -106,428 -111,428 -117,427 -121,426 -124,425 -130,422 -135,420 -139,418 -143,415 -146,413 -150,410 -153,407 -156,403 -160,400 -162,396 -165,392 -168,387 -171,383 -173,378 -175,374 -178,369 -181,363 -183,358 -186,353 -189,348 -192,342 -196,337 -199,332 -202,328 -206,324 -209,320 -212,317 -216,314 -219,311 -222,309 -226,307 -229,305 -234,303 -240,302 -245,301 -250,301 -256,301 -260,302 -266,304 -270,308 -273,310 -275,313 -277,316 -278,318 -279,321 -280,325 -280,329 -280,334 -280,340 -279,345 -277,351 -275,355 -273,360 -271,363 -268,368 -266,371 -262,375 -260,378 -256,383 -253,386 -250,390 -247,393 -244,397 -241,401 -237,404 -234,408 -230,412 -227,416 -223,421 -220,425 -216,430 -213,435 -209,440 -206,445 -203,451 -200,457 -198,463 -195,469 -193,475 -192,482 -190,489 -189,495 -189,502 -188,509 -189,516 -189,523 -191,530 -192,537 -194,544 -197,551 -199,558 -203,565 -206,571 -210,577 -214,583 -218,589 -224,595 -229,600 -234,605 -241,610 -247,614 -253,618 -260,621 -267,625 -274,628 -281,630 -288,632 -295,634 -303,635 -311,636 -318,637 -326,637 -334,636 -342,635 -349,634 -356,632 -364,630 -371,628 -378,625 -385,621 -391,618 -398,613 -404,609 -410,604 -416,599 -422,594 -428,588 -433,582 -439,576 -444,570 -449,563 -453,557 -458,550 -462,543 -466,536 -471,529 -475,522 -480,515 -484,507 -489,500 -494,493 -499,487 -504,480 -508,474 -513,469 -517,464 -522,460 -526,456 -530,452 -535,450 -539,447 -544,444 -549,442 -554,441 -559,439 -564,438 -569,438 -574,437 -579,437 -584,437 -589,438 -595,438 -600,439 -605,440 -611,442 -617,444 -623,446 -628,448 -634,450 -640,453 -646,455 -651,458 -658,461 -664,464 -670,467 -676,470 -682,473 -689,476 -695,478 -702,482 -709,484 -715,488 -722,491 -729,494 -735,497 -742,501 -749,504 -755,507 -760,509 -766,512 -771,514 -776,517 -780,519 -784,521 -788,523 -791,524 -795,526 -799,529 -803,532 -806,536 -809,539 -812,544 -813,547 -815,552 -815,554 -815,558 -815,561 -815,564 -815,567 -814,570 -814,573 -811,579 -808,585 -804,591 -802,593 -798,598 -795,600 -793,603 -790,605 -786,608 -783,611 -779,613 -776,616 -772,619 -768,622 -764,624 -760,628 -756,631 -751,634 -746,638 -742,641 -737,644 -732,648 -727,651 -722,655 -714,660  "></polygon>
    <polyline vector-effect="non-scaling-stroke" fill="none" style="stroke: #EF4444; stroke-width:4" points=" -714,660 -709,664 -704,667 -699,671 -694,675 -688,679 -683,683 -677,687 -671,692 -665,696 -659,700 -654,705 -647,709 -642,713 -635,718 -630,722 -623,727 -617,731 -611,736 -605,741 -599,745 -593,750 -586,755 -579,760 -573,765 -566,769 -559,774 -553,779 -546,784 -539,789 -533,794 -526,799 -519,804 -513,809 -506,814 -499,819 -492,824 -486,829 -478,834 -472,839 -465,844 -458,849 -451,854 -444,859 -437,865 -430,870 -423,875 -416,880 -409,885 -403,891 -395,896 -388,902 -381,907 -374,912 -367,918 -360,923 -353,929 -346,934 -338,939 -331,945 -324,951 -317,956 -310,961 -303,967 -296,972 -288,978 -282,983 -275,988 -269,993 -263,997 -257,1001 -253,1005 -248,1009 -243,1012 -239,1015 -236,1017 -232,1020 -229,1022 -224,1024 -219,1026 -214,1028 -207,1029 -201,1028 -196,1028 -191,1026 -188,1025 -185,1023 -183,1021 -181,1020 -180,1018 -178,1016 -177,1014 -176,1011 -174,1008 -173,1003 -172,998 -172,994 -173,989 -174,983 -175,978 -176,975 -178,970 -179,966 -181,962 -183,958 -185,954 -187,950 -189,946 -191,942 -193,938 -196,933 -198,929 -201,924 -203,919 -206,914 -209,909 -211,904 -213,898 -216,892 -218,886 -220,880 -222,874 -223,867 -224,861 -225,854 -226,847 -226,841 -226,834 -225,827 -224,820 -223,813 -222,806 -220,799 -217,792 -215,786 -211,779 -208,772 -204,766 -199,759 -195,753 -190,748 -184,742 -179,737 -173,731 -167,727 -160,722 -153,718 -146,713 -139,710 -133,706 -125,702 -118,698 -111,695 -104,691 -97,687 -90,683 -83,679 -76,674 -70,670 -64,665 -57,659 -51,654 -44,648 -39,642 -33,636 -27,629 -22,622 -18,615 -13,608 -9,601 -5,593 -1,586 3,579 8,571 13,565 19,558 24,552 31,546 37,540 44,535 51,530 58,525 65,520 71,515 78,510 83,504 88,499 93,493 98,487 101,481 105,475 108,468 111,461 114,454 116,447 118,440 120,433 122,426 124,419 126,413 129,406 132,400 136,393 140,387 144,381 149,376 153,371 157,367 162,362 168,359 173,355 178,353 184,350 189,348 195,346 201,345 207,344 213,343 219,343 225,343 231,344 237,344 243,346 249,347 255,349 261,352 267,355 273,358 279,361 285,364 291,366 "></polyline>
    <polyline vector-effect="non-scaling-stroke" fill="none" style="stroke: #3B82F6; stroke-width:4" points=" 291,366 297,369 304,372 311,374 317,376 323,378 329,379 335,380 341,380 347,380 352,380 358,379 363,379 368,377 372,376 378,374 382,372 387,369 392,366 396,363 400,359 405,355 409,351 412,347 416,343 420,338 424,333 428,328 432,323 435,319 439,315 443,311 446,307 449,304 453,302 457,299 460,297 463,295 467,294 471,293 474,292 478,291 482,291 486,290 489,291 493,291 497,291 501,292 505,293 509,295 512,296 516,298 520,300 524,302 527,305 531,307 534,310 538,313 543,317 547,319 552,322 556,324 560,326 565,327 570,329 575,330 580,330 585,331 590,331 596,331 601,331 607,331 612,330 618,329 624,328 630,327 635,326 641,324 647,322 653,320 659,319 666,317 672,315 679,313 685,311 692,309 699,306 705,304 712,301 719,298 726,295 732,292 739,288 745,285 751,281 758,276 764,271 770,267 775,262 781,256 787,251 792,246 797,239 802,234 808,227 813,221 818,215 823,209 828,202 834,196 839,189 844,183 849,176 854,170 860,163 865,157 870,151 875,144 880,138 886,131 891,124 896,118 901,111 907,104 913,97 918,91 923,84 929,77 934,71 939,65 944,58 948,53 953,48 957,43 960,39 964,34 967,31 970,27 972,23 975,20 978,16 980,11 983,7 985,3 987,-4 987,-8 987,-14 986,-19 984,-23 983,-26 980,-29 979,-30 977,-32 975,-33 970,-36 967,-37 963,-38 957,-39 953,-39 949,-38 944,-38 940,-37 935,-35 930,-34 926,-33 923,-31 919,-30 915,-29 911,-27 906,-26 902,-24 898,-22 894,-21 889,-19 884,-17 879,-15 874,-13 869,-11 863,-9 857,-7 852,-5 846,-3 840,-1 832,2 825,4 819,6 813,8 807,10 800,13 794,15 787,17 780,19 774,21 767,23 760,25 754,27 746,30 740,32 733,34 725,36 718,39 711,41 704,43 696,45 689,48 681,50 674,53 666,55 659,57 651,59 643,62 636,64 628,66 620,68 612,70 604,73 596,75 589,77 581,79 573,82 565,84 557,86 549,88 540,91 532,93 524,95 515,97 507,99 499,101 490,103 481,105 473,107 465,109 457,111 448,112 439,114 431,116 422,118 413,120 405,122 396,124 387,125 379,127 370,129 361,131 352,132 344,134 335,135 326,137 317,139 308,140 299,142 290,144 280,145 272,147 262,148 253,150 244,152 235,153 226,154 218,156 208,157 199,159 190,160 182,162 172,163 162,164 153,166 144,167 135,169 125,170 117,171 107,173 98,174 89,176 79,177 70,178 61,180 51,181 41,182 32,183 23,185 14,186 5,187 -9,189 -19,190 -28,191 -37,193 -47,194 -55,195 -63,196 -72,197 -79,198 -86,198 -93,199 -99,200 -104,201 -110,201 -115,202 -119,203 -124,203 -128,204 -132,204 -137,206 -143,207 -148,209 -152,211 -155,214 -159,217 -163,222 -164,225 -165,227 -166,230 -167,232 -167,235 -167,239 -166,245 -165,249 -164,253 -162,257 -160,262 -157,266 -154,270 -151,273 -149,276 -146,279 -142,283 -139,286 -136,289 -133,293 -129,296 -126,299 -122,303 -118,306 -115,310 -111,313 -107,317 -102,321 -98,325 "></polyline>
    <polyline vector-effect="non-scaling-stroke" fill="none" style="stroke: #FBBF24; stroke-width:4" points=" -98,325 -94,329 -90,333 -86,338 -82,342 -78,347 -75,351 -72,356 -70,360 -68,363 -66,367 -64,372 -62,378 -61,383 -61,389 -61,395 -62,399 -63,402 -64,405 -65,407 -66,410 -68,412 -69,414 -73,417 -77,421 -81,423 -86,425 -91,427 -96,427 -101,428 -106,428 -111,428 -117,427 -121,426 -124,425 -130,422 -135,420 -139,418 -143,415 -146,413 -150,410 -153,407 -156,403 -160,400 -162,396 -165,392 -168,387 -171,383 -173,378 -175,374 -178,369 -181,363 -183,358 -186,353 -189,348 -192,342 -196,337 -199,332 -202,328 -206,324 -209,320 -212,317 -216,314 -219,311 -222,309 -226,307 -229,305 -234,303 -240,302 -245,301 -250,301 -256,301 -260,302 -266,304 -270,308 -273,310 -275,313 -277,316 -278,318 -279,321 -280,325 -280,329 -280,334 -280,340 -279,345 -277,351 -275,355 -273,360 -271,363 -268,368 -266,371 -262,375 -260,378 -256,383 -253,386 -250,390 -247,393 -244,397 -241,401 -237,404 -234,408 -230,412 -227,416 -223,421 -220,425 -216,430 -213,435 -209,440 -206,445 -203,451 -200,457 -198,463 -195,469 -193,475 -192,482 -190,489 -189,495 -189,502 -188,509 -189,516 -189,523 -191,530 -192,537 -194,544 -197,551 -199,558 -203,565 -206,571 -210,577 -214,583 -218,589 -224,595 -229,600 -234,605 -241,610 -247,614 -253,618 -260,621 -267,625 -274,628 -281,630 -288,632 -295,634 -303,635 -311,636 -318,637 -326,637 -334,636 -342,635 -349,634 -356,632 -364,630 -371,628 -378,625 -385,621 -391,618 -398,613 -404,609 -410,604 -416,599 -422,594 -428,588 -433,582 -439,576 -444,570 -449,563 -453,557 -458,550 -462,543 -466,536 -471,529 -475,522 -480,515 -484,507 -489,500 -494,493 -499,487 -504,480 -508,474 -513,469 -517,464 -522,460 -526,456 -530,452 -535,450 -539,447 -544,444 -549,442 -554,441 -559,439 -564,438 -569,438 -574,437 -579,437 -584,437 -589,438 -595,438 -600,439 -605,440 -611,442 -617,444 -623,446 -628,448 -634,450 -640,453 -646,455 -651,458 -658,461 -664,464 -670,467 -676,470 -682,473 -689,476 -695,478 -702,482 -709,484 -715,488 -722,491 -729,494 -735,497 -742,501 -749,504 -755,507 -760,509 -766,512 -771,514 -776,517 -780,519 -784,521 -788,523 -791,524 -795,526 -799,529 -803,532 -806,536 -809,539 -812,544 -813,547 -815,552 -815,554 -815,558 -815,561 -815,564 -815,567 -814,570 -814,573 -811,579 -808,585 -804,591 -802,593 -798,598 -795,600 -793,603 -790,605 -786,608 -783,611 -779,613 -776,616 -772,619 -768,622 -764,624 -760,628 -756,631 -751,634 -746,638 -742,641 -737,644 -732,648 -727,651 -722,655 -714,660 "></polyline>
</svg>