<svg version="1.1" viewBox="0 0 540 540" xmlns="http://www.w3.org/2000/svg" xmlns:cc="http://creativecommons.org/ns#" xmlns:dc="http://purl.org/dc/elements/1.1/" xmlns:rdf="http://www.w3.org/1999/02/22-rdf-syntax-ns#">
 <path d="m270 0a270 270 0 0 0-270 270 270 270 0 0 0 270 270 270 270 0 0 0 270-270 270 270 0 0 0-270-270zm0 154.78a115.22 115.22 0 0 1 115.22 115.22 115.22 115.22 0 0 1-115.22 115.22 115.22 115.22 0 0 1-115.22-115.22 115.22 115.22 0 0 1 115.22-115.22z" fill="#282828"/>
 <path d="m269.78 60.796a210 210 0 0 0-210 210 210 210 0 0 0 210 210 210 210 0 0 0 210-210 210 210 0 0 0-210-210zm0 48.688a161.31 161.31 0 0 1 161.31 161.31 161.31 161.31 0 0 1-161.31 161.31 161.31 161.31 0 0 1-161.31-161.31 161.31 161.31 0 0 1 161.31-161.31z" fill="#a8a8a8" stroke-width="1.4"/>
 <path d="m256.72 40.838c1.605-0.64685 2.6203-2.0853 2.6203-3.7546 0-2.275-2.0108-4.3468-5.4359-4.3468h-16.167v12.637h7.8567v-4.0775h2.569l2.3668 4.0775h8.8133zm-6.6426-2.6026h-4.4828v-2.675l4.4828 0.01337a1.4957 1.3308 0 1 1 0 2.6616zm14.194 7.1385h17.326v-2.8233h-9.4701v-1.8597h9.4701v-3.047h-9.4701v-1.8597h9.4701v-3.0477h-17.326zm30.539-12.637h-7.8574v12.637h15.815v-2.8233h-7.9569zm18.517 0h-7.8561v12.637h15.814v-2.8233h-7.9582zm15.583-11.532h-122.79v24.112h13.598v-15.147l109.19 0.0023a5.0397 4.4842 0 1 0 6.6e-4 -8.9673zm-15.084 5.9098h-94.108v-2.8598l94.108 0.0079a1.6029 1.4262 0 1 1 0 2.8519zm-89.589 18.259h7.8567v-12.637h-7.8567zm100.32 0h7.8574v-12.637h-7.8574z" clip-rule="evenodd" fill="#078cd1" fill-rule="evenodd" stroke-width=".64448"/>
 <ellipse cx="271.51" cy="271" rx="170.13" ry="167.62" fill="#fff" fill-rule="evenodd" stroke-width="1.1834"/>
 <path d="m270.48 95.287a175 175 0 0 0-175 175 175 175 0 0 0 175 175 175 175 0 0 0 175-175 175 175 0 0 0-175-175zm-12.6 25.115v88.228a63 63 0 0 0-13.439 4.3778l-51.829-71.337a150.5 150.5 0 0 1 65.269-21.267zm25.2 0.0164a150.5 150.5 0 0 1 65.243 21.281l-51.797 71.291a63 63 0 0 0-13.445-4.4269v-88.145zm85.693 36.007a150.5 150.5 0 0 1 40.302 55.579l-83.86 27.248a63 63 0 0 0-8.3016-11.449l51.86-71.378zm-196.53 0.0875 51.806 71.305a63 63 0 0 0-8.3453 11.427l-83.948-27.278a150.5 150.5 0 0 1 40.488-55.453zm98.235 71.775a42 42 0 0 1 42 42 42 42 0 0 1-42 42 42 42 0 0 1-42-42 42 42 0 0 1 42-42zm-146.37 7.6891 83.808 27.231a63 63 0 0 0-0.43476 7.0793 63 63 0 0 0 0.47577 7.0657l-83.828 27.237a150.5 150.5 0 0 1-4.1481-34.303 150.5 150.5 0 0 1 4.1262-34.311zm292.73 6e-3a150.5 150.5 0 0 1 4.1481 34.306 150.5 150.5 0 0 1-4.1262 34.314l-83.808-27.231a63 63 0 0 0 0.43476-7.082 63 63 0 0 0-0.47577-7.0683l83.828-27.237zm-201.08 65.338a63 63 0 0 0 8.2961 11.441l-51.86 71.38a150.5 150.5 0 0 1-40.293-55.573l83.857-27.248zm109.51 0.014 83.951 27.278a150.5 150.5 0 0 1-40.485 55.45l-51.808-71.305a63 63 0 0 0 8.3426-11.424zm-28.729 26.233 51.829 71.337a150.5 150.5 0 0 1-65.272 21.267v-88.228a63 63 0 0 0 13.442-4.3778zm-52.101 0.0112a63 63 0 0 0 13.459 4.4324v88.145a150.5 150.5 0 0 1-65.253-21.287l51.794-71.291z" fill="#7f7f7f" stroke-width="1.4"/>
 <g stroke="#078cd1">
  <path d="m141.8 62.904c-24.844 21.38-49.686 42.759-68.931 67.054s-32.89 51.504-39.713 82.601c-6.8227 31.097-6.8227 66.08 2.0999 101.23s26.767 70.453 40.588 93.29 23.618 33.202 33.415 43.568" fill="none" stroke-width="15.094"/>
  <path d="m395.58 63.525c25.257 21.576 50.513 43.15 70.078 67.667s33.437 51.975 40.373 83.356 6.9362 66.685-2.1349 102.15c-9.0711 35.467-27.212 71.097-41.263 94.143-14.051 23.046-24.011 33.506-33.971 43.966" fill="none" stroke-width="15.288"/>
  <path d="m365.75 476.3 14.543-10.114q6.5683-4.0584 13.691 5.1492 7.1225 9.2076 0.63698 14.201l-14.171 9.838-3.615-4.6463 12.508-8.7048a3.0029 2.5711 0 0 0 1.2491-2.2736 21.897 18.748 0 0 0-5.0379-7.3874 2.2749 1.9478 0 0 0-2.7382-0.31164l-13.285 9.2076zm8.0407 22.325-6.6179 3.506-11.772-20.54 6.742-3.5839zm-21.773-14.782 8.686 21.744-16.421 6.4383q-7.0315 2.911-10.249-3.9805l-5.9148-14.824 6.4359-2.5215 5.3274 13.627c0.42189 1.452 1.3401 1.8557 2.7464 1.197l8.9424-3.5414-6.2291-15.582zm-45.97 38.247-1.1002-6.3745 13.236-2.8331-1.307-7.6919q-0.55425-1.9974-3.0194-1.6857l-15.676 3.3431-1.1333-6.3745 17.744-3.7822q8.5288-1.4166 9.8193 6.6932l1.3236 7.8619 2.1095-0.48163 1.0754 6.3745zm-39.501 3.166 1.092-22.814 17.91-0.91368q7.7429-0.5383 7.8091 6.8349l-0.72797 15.582-7.0232 0.35414 0.82724-14.251c0.20681-1.4803-0.4798-2.1248-2.0516-1.9478l-9.7448 0.49579-0.76934 16.29zm-14.336-10.709-9.7035-1.0482a2.3494 2.0115 0 0 0-2.8209 1.5582q-0.57906 1.7636 1.7207 2.3232l9.7779 1.0412zm5.5011 10.298-18.298-1.9478q-8.1152-2.0611-6.7585-8.4994a10.82 9.2643 0 0 1 5.5011-7.0828l-2.6058-7.7911 8.7935 0.94202 2.5479 7.4936 6.9902 0.74369 1.8282-6.9482 7.9167 0.82869zm-38.88-13.656 1.1416-2.2311-11.25-3.0244-0.90169 1.7565q-1.4642 2.3586 0.67833 3.2652l6.8164 1.8061q2.7547 0.67287 3.5158-1.5724zm13.964-11.977-7.1308 14.314q-3.6316 6.3745-11.945 4.448l-8.5867-2.3232q-7.2962-2.4294-4.4836-8.7827l7.1804-14.392 6.7337 1.8061-3.1931 6.3745 11.25 3.0669 3.1849-6.417zm-63.896 1.9903 4.1776-5.39 12.02 5.475 5.0379-6.4312a2.3742 2.0328 0 0 0-0.92651-2.9748l-14.22-6.5233 4.1362-5.3758 16.164 7.3449q7.4451 3.8106 2.0681 10.624l-5.162 6.5941 1.944 0.84993-4.2603 5.3546zm-4.7401-21.071a2.8126 2.4082 0 0 0-0.45498-2.649l-5.741-3.9239a3.0939 2.649 0 0 0-3.1021-0.28331q-1.3732 0.22665-4.1941 2.7552-2.8209 2.5286-2.8209 3.7681a3.6481 3.1235 0 0 0 1.2905 2.3657l4.4092 3.0314a3.9046 3.3431 0 0 0 4.1941 0.27623q1.1747-0.31873 3.706-2.479c1.6876-1.4732 2.5975-2.4294 2.7133-2.8898zm-3.7391-12.749 9.8028 6.7358q6.5683 4.4692-3.0112 12.749-9.5877 8.4356-16.545 3.7114l-8.0242-5.5458q-7.3624-4.8446 2.1508-12.99 9.1575-8.9314 15.627-4.6605z" fill="#078cd1" stroke-width=".76545"/>
 </g>
</svg>
