<svg xmlns="http://www.w3.org/2000/svg" xmlns:xlink="http://www.w3.org/1999/xlink" preserveAspectRatio="xMidYMid meet" height="100%" viewBox="-500 -500 1200 1000">
    <polygon vector-effect="non-scaling-stroke" fill="none" style="stroke: #374151; stroke-width:6" points="  -334,-97 -331,-105 -328,-114 -324,-122 -321,-130 -318,-139 -314,-148 -311,-157 -308,-165 -304,-174 -301,-182 -298,-191 -294,-200 -291,-208 -287,-217 -284,-225 -281,-233 -278,-242 -274,-251 -271,-259 -268,-268 -264,-277 -261,-286 -258,-294 -255,-303 -251,-311 -248,-320 -245,-328 -243,-335 -240,-342 -237,-349 -235,-355 -232,-361 -230,-366 -228,-371 -225,-376 -223,-380 -220,-384 -218,-388 -215,-391 -212,-395 -209,-398 -205,-400 -202,-403 -198,-405 -195,-406 -191,-408 -187,-409 -183,-409 -178,-409 -175,-409 -170,-407 -166,-406 -162,-404 -158,-401 -155,-399 -152,-396 -149,-393 -146,-389 -145,-386 -143,-383 -142,-380 -140,-374 -139,-370 -139,-367 -139,-363 -139,-359 -140,-353 -141,-349 -142,-346 -143,-342 -144,-338 -145,-334 -147,-329 -149,-325 -150,-321 -152,-317 -154,-312 -157,-308 -159,-303 -161,-298 -163,-294 -165,-289 -167,-284 -170,-279 -172,-273 -174,-268 -176,-263 -177,-258 -179,-252 -181,-247 -182,-241 -184,-235 -185,-229 -186,-224 -187,-218 -188,-212 -189,-205 -189,-199 -190,-193 -190,-187 -190,-181 -191,-175 -191,-169 -191,-163 -191,-157 -192,-151 -193,-146 -194,-140 -195,-134 -196,-129 -198,-124 -200,-119 -203,-114 -205,-110 -208,-106 -211,-101 -215,-98 -218,-95 -222,-91 -226,-89 -230,-86 -234,-84 -238,-82 -242,-79 -247,-77 -251,-75 -256,-73 -260,-72 -264,-70 -268,-68 -272,-66 -276,-65 -280,-63 -283,-61 -286,-59 -289,-57 -292,-55 -295,-51 -297,-49 -300,-45 -302,-41 -303,-37 -304,-32 -303,-26 -302,-23 -301,-19 -299,-16 -297,-13 -293,-9 -288,-5 -285,-3 -280,-1 -271,1 -266,1 -261,1 -249,-1 -244,-2 -239,-3 -236,-4 -232,-6 -228,-7 -223,-8 -219,-10 -215,-11 -211,-12 -207,-14 -203,-15 -199,-17 -194,-18 -190,-20 -185,-22 -181,-23 -176,-25 -171,-27 -167,-28 -162,-30 -157,-31 -151,-32 -146,-34 -141,-35 -135,-36 -129,-37 -123,-37 -118,-38 -112,-39 -106,-39 -100,-39 -94,-39 -88,-39 -81,-39 -75,-39 -68,-38 -62,-38 -55,-37 -49,-36 -42,-35 -35,-34 -28,-33 -21,-32 -14,-31 -8,-29 -1,-28 6,-27 12,-25 20,-24 27,-23 34,-22 41,-22 49,-22 56,-22 63,-23 70,-23 77,-24 83,-25 90,-27 97,-28 104,-30 111,-32 118,-35 124,-38 131,-41 137,-44 143,-47 150,-51 156,-55 162,-59 168,-62 175,-66 181,-70 187,-74 194,-77 201,-81 207,-83 214,-86 220,-89 227,-91 234,-93 241,-95 248,-97 255,-99 262,-100 269,-101 276,-102 283,-103 291,-104 298,-104 305,-104 313,-105 320,-105 328,-105 335,-105 342,-105 349,-105 357,-105 364,-105 371,-105 379,-104 386,-104 393,-103 401,-102 408,-100 415,-99 422,-97 428,-94 434,-92 441,-89 446,-86 452,-83 458,-79 463,-75 468,-71 473,-66 477,-61 480,-56 484,-51 487,-46 490,-40 493,-34 495,-27 497,-21 498,-15 499,-9 499,-3 500,6 499,12 499,19 498,25 496,31 495,38 493,44 490,50 488,55 485,61 482,67 478,72 474,77 471,82 466,88 463,93 458,98 455,103 451,109 447,114 444,120 440,126 437,132 434,138 431,144 428,149 425,155 423,161 421,166 419,171   419,171 417,176 415,182 413,186 411,191 409,196 407,200 405,205 403,209 400,213 398,217 395,221 392,224 389,228 386,231 383,234 379,237 376,239 372,242 369,244 365,247 361,248 357,250 353,252 348,254 344,255 339,256 335,257 330,257 326,258 321,258 316,258 311,258 306,258 301,258 296,257 291,256 285,256 280,255 275,253 270,252 265,251 260,249 255,248 250,246 245,244 240,242 235,240 230,237 225,234 221,232 217,229 213,226 209,223 205,220 202,217 198,214 196,211 193,208 189,203 187,200 185,195 183,192 182,189 181,185 180,181 180,176 180,172 180,169 181,165 183,161 185,157 188,151 192,146 195,142 199,138 203,135 208,132 212,130 217,127 221,126 226,125 231,123 235,123 239,122 243,121 247,121 251,121 255,120 259,120 263,120 267,119 272,119 276,119 281,119 285,118 290,118 294,117 299,116 303,115 308,114 312,112 317,111 321,109 325,107 330,105 334,103 338,100 341,98 345,95 349,91 352,88 355,83 358,80 360,77 361,74 363,70 364,66 365,63 365,59 365,55 365,52 365,49 364,45 363,41 362,38 360,33 358,30 357,27 354,25 352,22 350,19 347,17 345,15 342,12 337,9 334,7 331,6 326,4 322,2 317,1 310,-1 306,-1 302,-2 299,-2 295,-3 290,-3 286,-3 282,-3 278,-3 274,-3 269,-4 264,-4 260,-4 255,-4 250,-4 245,-3 240,-3 235,-3 230,-3 225,-3 219,-3 214,-3 208,-2 203,-2 198,-2 192,-1 186,-1 171,1 165,2 160,2 154,3 148,4 141,5 135,6 129,7 123,8 117,9 110,10 103,12 97,13 90,15 84,16 78,18 72,19 65,21 58,23 52,25 45,27 39,28 32,31 25,33 18,35 12,37 5,39 -2,42 -9,44 -16,47 -23,49 -29,52 -35,55 -42,58 -48,61   -48,61 -55,64 -62,67 -69,71 -75,74 -81,77 -87,79 -93,82 -97,85 -103,87 -107,90 -111,92 -115,94 -120,97 -123,98 -128,101 -132,103 -138,105 -143,107 -147,108 -153,109 -159,109 -163,108 -167,107 -169,107 -172,105 -176,103 -179,101 -183,97 -187,94 -190,90 -194,87 -197,85 -200,83 -205,80 -209,79 -213,78 -218,78 -222,78 -226,79 -232,81 -236,83 -239,85 -243,89 -246,93 -248,96 -250,101 -252,105 -252,108 -253,114 -253,120 -253,125 -253,130 -252,135 -252,140 -251,144 -250,150 -249,154 -249,157 -248,161 -247,166 -246,170 -245,175 -244,179 -242,184 -241,189 -240,194 -239,198 -237,203 -236,208 -235,213 -234,218 -232,223 -231,228 -229,233 -228,239 -227,244 -225,249 -224,255 -222,261 -221,266 -220,272 -218,277 -217,283 -216,289 -215,294 -213,300 -212,306 -211,311 -210,316 -209,321 -208,326 -208,331 -207,336 -206,340 -206,345 -206,350 -206,354 -206,359 -207,363 -207,367 -208,372 -210,376 -211,380 -213,384 -215,387 -217,391 -220,394 -223,398 -226,401 -229,404 -232,406 -236,409 -240,411 -244,413 -248,415 -252,417 -257,419 -261,420 -266,421 -270,422 -275,423 -280,424 -284,424 -290,425 -295,425 -300,425 -305,425 -311,425 -316,425 -321,425 -327,424 -333,424 -338,423 -344,422 -349,421 -354,420 -360,419 -366,417 -371,416 -377,414 -383,412 -388,409 -393,407 -398,404 -403,401 -408,397 -413,393 -418,389 -422,385 -427,381 -431,376 -435,371 -439,366 -442,361 -446,356 -449,350 -451,345 -454,339 -456,333 -459,327 -460,321 -462,315 -463,308 -464,302 -465,295 -465,289 -465,283 -465,276 -464,269 -464,262 -462,256 -461,249 -460,243 -458,237 -456,230 -454,223 -452,217 -450,211 -448,205 -445,198 -443,192 -441,185 -438,178 -435,172 -433,165 -431,159 -428,152 -426,145 -423,138 -421,132 -418,125 -416,118 -413,111 -411,104 -408,98 -406,91 -403,84 -400,77 -398,70 -395,63 -393,56 -390,49 -387,42 -385,34 -382,28 -380,21 -377,14 -374,6 -370,-4 -368,-11 -365,-18 -362,-25 -359,-32 -357,-39 -354,-46 -351,-53 -348,-60 -345,-67 -343,-74 -340,-81 -337,-88 -336,-92 -334,-97  "></polygon>
    <polyline vector-effect="non-scaling-stroke" fill="none" style="stroke: #EF4444; stroke-width:4" points=" -334,-97 -331,-105 -328,-114 -324,-122 -321,-130 -318,-139 -314,-148 -311,-157 -308,-165 -304,-174 -301,-182 -298,-191 -294,-200 -291,-208 -287,-217 -284,-225 -281,-233 -278,-242 -274,-251 -271,-259 -268,-268 -264,-277 -261,-286 -258,-294 -255,-303 -251,-311 -248,-320 -245,-328 -243,-335 -240,-342 -237,-349 -235,-355 -232,-361 -230,-366 -228,-371 -225,-376 -223,-380 -220,-384 -218,-388 -215,-391 -212,-395 -209,-398 -205,-400 -202,-403 -198,-405 -195,-406 -191,-408 -187,-409 -183,-409 -178,-409 -175,-409 -170,-407 -166,-406 -162,-404 -158,-401 -155,-399 -152,-396 -149,-393 -146,-389 -145,-386 -143,-383 -142,-380 -140,-374 -139,-370 -139,-367 -139,-363 -139,-359 -140,-353 -141,-349 -142,-346 -143,-342 -144,-338 -145,-334 -147,-329 -149,-325 -150,-321 -152,-317 -154,-312 -157,-308 -159,-303 -161,-298 -163,-294 -165,-289 -167,-284 -170,-279 -172,-273 -174,-268 -176,-263 -177,-258 -179,-252 -181,-247 -182,-241 -184,-235 -185,-229 -186,-224 -187,-218 -188,-212 -189,-205 -189,-199 -190,-193 -190,-187 -190,-181 -191,-175 -191,-169 -191,-163 -191,-157 -192,-151 -193,-146 -194,-140 -195,-134 -196,-129 -198,-124 -200,-119 -203,-114 -205,-110 -208,-106 -211,-101 -215,-98 -218,-95 -222,-91 -226,-89 -230,-86 -234,-84 -238,-82 -242,-79 -247,-77 -251,-75 -256,-73 -260,-72 -264,-70 -268,-68 -272,-66 -276,-65 -280,-63 -283,-61 -286,-59 -289,-57 -292,-55 -295,-51 -297,-49 -300,-45 -302,-41 -303,-37 -304,-32 -303,-26 -302,-23 -301,-19 -299,-16 -297,-13 -293,-9 -288,-5 -285,-3 -280,-1 -271,1 -266,1 -261,1 -249,-1 -244,-2 -239,-3 -236,-4 -232,-6 -228,-7 -223,-8 -219,-10 -215,-11 -211,-12 -207,-14 -203,-15 -199,-17 -194,-18 -190,-20 -185,-22 -181,-23 -176,-25 -171,-27 -167,-28 -162,-30 -157,-31 -151,-32 -146,-34 -141,-35 -135,-36 -129,-37 -123,-37 -118,-38 -112,-39 -106,-39 -100,-39 -94,-39 -88,-39 -81,-39 -75,-39 -68,-38 -62,-38 -55,-37 -49,-36 -42,-35 -35,-34 -28,-33 -21,-32 -14,-31 -8,-29 -1,-28 6,-27 12,-25 20,-24 27,-23 34,-22 41,-22 49,-22 56,-22 63,-23 70,-23 77,-24 83,-25 90,-27 97,-28 104,-30 111,-32 118,-35 124,-38 131,-41 137,-44 143,-47 150,-51 156,-55 162,-59 168,-62 175,-66 181,-70 187,-74 194,-77 201,-81 207,-83 214,-86 220,-89 227,-91 234,-93 241,-95 248,-97 255,-99 262,-100 269,-101 276,-102 283,-103 291,-104 298,-104 305,-104 313,-105 320,-105 328,-105 335,-105 342,-105 349,-105 357,-105 364,-105 371,-105 379,-104 386,-104 393,-103 401,-102 408,-100 415,-99 422,-97 428,-94 434,-92 441,-89 446,-86 452,-83 458,-79 463,-75 468,-71 473,-66 477,-61 480,-56 484,-51 487,-46 490,-40 493,-34 495,-27 497,-21 498,-15 499,-9 499,-3 500,6 499,12 499,19 498,25 496,31 495,38 493,44 490,50 488,55 485,61 482,67 478,72 474,77 471,82 466,88 463,93 458,98 455,103 451,109 447,114 444,120 440,126 437,132 434,138 431,144 428,149 425,155 423,161 421,166 419,171 "></polyline>
    <polyline vector-effect="non-scaling-stroke" fill="none" style="stroke: #3B82F6; stroke-width:4" points=" 419,171 417,176 415,182 413,186 411,191 409,196 407,200 405,205 403,209 400,213 398,217 395,221 392,224 389,228 386,231 383,234 379,237 376,239 372,242 369,244 365,247 361,248 357,250 353,252 348,254 344,255 339,256 335,257 330,257 326,258 321,258 316,258 311,258 306,258 301,258 296,257 291,256 285,256 280,255 275,253 270,252 265,251 260,249 255,248 250,246 245,244 240,242 235,240 230,237 225,234 221,232 217,229 213,226 209,223 205,220 202,217 198,214 196,211 193,208 189,203 187,200 185,195 183,192 182,189 181,185 180,181 180,176 180,172 180,169 181,165 183,161 185,157 188,151 192,146 195,142 199,138 203,135 208,132 212,130 217,127 221,126 226,125 231,123 235,123 239,122 243,121 247,121 251,121 255,120 259,120 263,120 267,119 272,119 276,119 281,119 285,118 290,118 294,117 299,116 303,115 308,114 312,112 317,111 321,109 325,107 330,105 334,103 338,100 341,98 345,95 349,91 352,88 355,83 358,80 360,77 361,74 363,70 364,66 365,63 365,59 365,55 365,52 365,49 364,45 363,41 362,38 360,33 358,30 357,27 354,25 352,22 350,19 347,17 345,15 342,12 337,9 334,7 331,6 326,4 322,2 317,1 310,-1 306,-1 302,-2 299,-2 295,-3 290,-3 286,-3 282,-3 278,-3 274,-3 269,-4 264,-4 260,-4 255,-4 250,-4 245,-3 240,-3 235,-3 230,-3 225,-3 219,-3 214,-3 208,-2 203,-2 198,-2 192,-1 186,-1 171,1 165,2 160,2 154,3 148,4 141,5 135,6 129,7 123,8 117,9 110,10 103,12 97,13 90,15 84,16 78,18 72,19 65,21 58,23 52,25 45,27 39,28 32,31 25,33 18,35 12,37 5,39 -2,42 -9,44 -16,47 -23,49 -29,52 -35,55 -42,58 -48,61 "></polyline>
    <polyline vector-effect="non-scaling-stroke" fill="none" style="stroke: #FBBF24; stroke-width:4" points=" -48,61 -55,64 -62,67 -69,71 -75,74 -81,77 -87,79 -93,82 -97,85 -103,87 -107,90 -111,92 -115,94 -120,97 -123,98 -128,101 -132,103 -138,105 -143,107 -147,108 -153,109 -159,109 -163,108 -167,107 -169,107 -172,105 -176,103 -179,101 -183,97 -187,94 -190,90 -194,87 -197,85 -200,83 -205,80 -209,79 -213,78 -218,78 -222,78 -226,79 -232,81 -236,83 -239,85 -243,89 -246,93 -248,96 -250,101 -252,105 -252,108 -253,114 -253,120 -253,125 -253,130 -252,135 -252,140 -251,144 -250,150 -249,154 -249,157 -248,161 -247,166 -246,170 -245,175 -244,179 -242,184 -241,189 -240,194 -239,198 -237,203 -236,208 -235,213 -234,218 -232,223 -231,228 -229,233 -228,239 -227,244 -225,249 -224,255 -222,261 -221,266 -220,272 -218,277 -217,283 -216,289 -215,294 -213,300 -212,306 -211,311 -210,316 -209,321 -208,326 -208,331 -207,336 -206,340 -206,345 -206,350 -206,354 -206,359 -207,363 -207,367 -208,372 -210,376 -211,380 -213,384 -215,387 -217,391 -220,394 -223,398 -226,401 -229,404 -232,406 -236,409 -240,411 -244,413 -248,415 -252,417 -257,419 -261,420 -266,421 -270,422 -275,423 -280,424 -284,424 -290,425 -295,425 -300,425 -305,425 -311,425 -316,425 -321,425 -327,424 -333,424 -338,423 -344,422 -349,421 -354,420 -360,419 -366,417 -371,416 -377,414 -383,412 -388,409 -393,407 -398,404 -403,401 -408,397 -413,393 -418,389 -422,385 -427,381 -431,376 -435,371 -439,366 -442,361 -446,356 -449,350 -451,345 -454,339 -456,333 -459,327 -460,321 -462,315 -463,308 -464,302 -465,295 -465,289 -465,283 -465,276 -464,269 -464,262 -462,256 -461,249 -460,243 -458,237 -456,230 -454,223 -452,217 -450,211 -448,205 -445,198 -443,192 -441,185 -438,178 -435,172 -433,165 -431,159 -428,152 -426,145 -423,138 -421,132 -418,125 -416,118 -413,111 -411,104 -408,98 -406,91 -403,84 -400,77 -398,70 -395,63 -393,56 -390,49 -387,42 -385,34 -382,28 -380,21 -377,14 -374,6 -370,-4 -368,-11 -365,-18 -362,-25 -359,-32 -357,-39 -354,-46 -351,-53 -348,-60 -345,-67 -343,-74 -340,-81 -337,-88 -336,-92 -334,-97 "></polyline>
</svg>