<?xml version="1.0" standalone="no"?>
<!DOCTYPE svg PUBLIC "-//W3C//DTD SVG 20010904//EN"
 "http://www.w3.org/TR/2001/REC-SVG-20010904/DTD/svg10.dtd">
<svg version="1.0" xmlns="http://www.w3.org/2000/svg"
 width="820.000000pt" height="876.000000pt" viewBox="0 0 820.000000 876.000000"
 preserveAspectRatio="xMidYMid meet">

<g transform="translate(0.000000,876.000000) scale(0.100000,-0.100000)"
fill="#000000" stroke="none">
<path d="M4035 8353 c-627 -51 -1114 -178 -1629 -426 -451 -218 -826 -485
-1192 -851 -396 -397 -669 -791 -889 -1286 -112 -253 -225 -569 -225 -631 0
-21 -9 -19 490 -154 960 -262 1134 -306 1146 -289 7 8 27 56 45 107 267 753
763 1298 1457 1601 508 222 1117 280 1635 155 48 -12 90 -19 94 -16 7 7 105
368 274 1002 72 270 139 521 149 559 14 49 16 73 9 82 -20 24 -309 84 -575
119 -212 27 -620 42 -789 28z"/>
<path d="M5467 7578 c-24 -82 -98 -355 -181 -663 -106 -397 -166 -619 -169
-621 -1 0 -66 18 -144 42 -177 54 -275 71 -478 84 -322 20 -495 10 -735 -44
-537 -121 -1014 -418 -1358 -845 -223 -276 -422 -693 -467 -976 -9 -55 -19
-103 -23 -107 -9 -9 -292 62 -1237 312 -60 16 -113 26 -118 21 -11 -11 -44
-178 -58 -291 -7 -63 -9 -254 -6 -550 l4 -455 37 -175 c85 -406 176 -671 348
-1013 504 -1008 1450 -1751 2543 -2001 176 -40 311 -64 440 -77 153 -16 672
-16 830 -1 367 37 751 136 1070 277 516 228 865 464 1240 839 418 418 714 901
905 1476 142 425 190 733 190 1215 0 285 -16 487 -56 683 -106 536 -301 1006
-598 1447 -368 545 -917 1020 -1505 1301 -118 57 -380 161 -426 170 -33 6 -33
6 -48 -48z m-1020 -1629 c835 -70 1519 -651 1734 -1473 66 -254 66 -672 -1
-930 -186 -720 -762 -1281 -1475 -1436 -248 -53 -605 -53 -840 2 -508 118
-959 439 -1225 873 -116 189 -203 403 -256 632 -26 109 -28 134 -28 323 0 230
22 421 73 623 106 417 415 830 817 1090 178 116 443 222 662 267 188 38 338
46 539 29z"/>
<path d="M4080 5749 c-734 -81 -1361 -658 -1510 -1390 -27 -129 -29 -539 -4
-670 37 -196 144 -459 259 -636 396 -609 1129 -905 1850 -749 328 71 623 241
886 509 217 220 377 531 450 872 21 98 24 136 24 340 -1 216 -2 237 -29 349
-39 166 -76 270 -152 421 -89 180 -174 296 -334 456 -101 101 -164 154 -250
212 -194 129 -411 220 -635 267 -116 24 -415 35 -555 19z m-230 -492 c77 -38
122 -93 146 -174 40 -138 -26 -288 -152 -348 -22 -10 -63 -15 -132 -15 -97 0
-101 1 -148 33 -217 150 -161 465 95 533 62 17 114 9 191 -29z m1322 -135 c65
-29 104 -66 137 -134 72 -143 16 -317 -125 -388 -71 -35 -173 -40 -242 -10
-96 42 -186 172 -186 271 0 97 105 246 196 277 47 16 168 7 220 -16z m-718
-613 c164 -50 311 -211 347 -380 7 -30 9 -98 7 -156 -4 -96 -7 -108 -47 -188
-101 -204 -275 -304 -509 -293 -79 4 -98 9 -176 46 -200 96 -306 261 -306 478
0 112 23 195 78 280 133 203 369 287 606 213z m-1139 -483 c68 -37 119 -96
136 -159 6 -23 9 -77 7 -119 -4 -63 -10 -86 -34 -125 -54 -88 -185 -152 -282
-138 -111 15 -206 90 -238 188 -25 74 -16 190 19 250 81 138 248 182 392 103z
m2109 -202 c59 -20 144 -97 176 -160 67 -132 -6 -311 -154 -380 -139 -65 -315
3 -379 145 -27 59 -29 178 -4 234 29 66 74 114 139 146 71 36 145 41 222 15z
m-1139 -683 c241 -114 232 -439 -14 -532 -106 -40 -248 -8 -315 72 -53 63 -67
104 -68 195 0 141 49 213 184 274 66 29 141 26 213 -9z"/>
</g>
</svg>
